<?xml version="1.0" encoding="UTF-8" standalone="no"?>
<!DOCTYPE svg PUBLIC "-//W3C//DTD SVG 1.1//EN"
 "http://www.w3.org/Graphics/SVG/1.1/DTD/svg11.dtd">
<!-- Generated by graphviz version 2.43.0 (0)
 -->
<!-- Title: include/K&#45;shortest_path/basic_keppstein.h Pages: 1 -->
<!--zoomable 375 -->
<svg id="main" version="1.1" xmlns="http://www.w3.org/2000/svg" xmlns:xlink="http://www.w3.org/1999/xlink" xml:space="preserve" onload="init(evt)">
<style type="text/css"><![CDATA[
.edge:hover path { stroke: red; }
.edge:hover polygon { stroke: red; fill: red; }
]]></style>
<script type="text/javascript"><![CDATA[
var edges = document.getElementsByTagName('g');
if (edges && edges.length) {
  for (var i=0;i<edges.length;i++) {
    if (edges[i].id.substr(0,4)=='edge') {
      edges[i].setAttribute('class','edge');
    }
  }
}
]]></script>
        <defs>
                <circle id="rim" cx="0" cy="0" r="7"/>
                <circle id="rim2" cx="0" cy="0" r="3.5"/>
                <g id="zoomPlus">
                        <use xlink:href="#rim" fill="#404040">
                                <set attributeName="fill" to="#808080" begin="zoomplus.mouseover" end="zoomplus.mouseout"/>
                        </use>
                        <path d="M-4,0h8M0,-4v8" fill="none" stroke="white" stroke-width="1.5" pointer-events="none"/>
                </g>
                <g id="zoomMin">
                        <use xlink:href="#rim" fill="#404040">
                                <set attributeName="fill" to="#808080" begin="zoomminus.mouseover" end="zoomminus.mouseout"/>
                        </use>
                        <path d="M-4,0h8" fill="none" stroke="white" stroke-width="1.5" pointer-events="none"/>
                </g>
                <g id="dirArrow">
                        <path fill="none" stroke="white" stroke-width="1.5" d="M0,-3.0v7 M-2.5,-0.5L0,-3.0L2.5,-0.5"/>
                </g>
               <g id="resetDef">
                       <use xlink:href="#rim2" fill="#404040">
                               <set attributeName="fill" to="#808080" begin="reset.mouseover" end="reset.mouseout"/>
                       </use>
               </g>
        </defs>

<script type="text/javascript">
var viewWidth = 869;
var viewHeight = 375;
var sectionId = 'dynsection-0';
</script>
<script xlink:href="svgpan.js"/>
<svg id="graph" class="graph">
<g id="viewport">
<title>include/K&#45;shortest_path/basic_keppstein.h</title>
<polygon fill="white" stroke="transparent" points="-4,4 -4,-371 864.5,-371 864.5,4 -4,4"/>
<!-- Node1 -->
<g id="node1" class="node">
<title>Node1</title>
<g id="a_node1"><a xlink:title=" ">
<polygon fill="#bfbfbf" stroke="black" points="404.5,-336.5 404.5,-366.5 538.5,-366.5 538.5,-336.5 404.5,-336.5"/>
<text text-anchor="start" x="412.5" y="-354.5" font-family="Helvetica,sans-Serif" font-size="10.00">include/K&#45;shortest</text>
<text text-anchor="middle" x="471.5" y="-343.5" font-family="Helvetica,sans-Serif" font-size="10.00">_path/basic_keppstein.h</text>
</a>
</g>
</g>
<!-- Node2 -->
<g id="node2" class="node">
<title>Node2</title>
<g id="a_node2"><a xlink:title=" ">
<polygon fill="white" stroke="#bfbfbf" points="0,-280.5 0,-299.5 65,-299.5 65,-280.5 0,-280.5"/>
<text text-anchor="middle" x="32.5" y="-287.5" font-family="Helvetica,sans-Serif" font-size="10.00">functional</text>
</a>
</g>
</g>
<!-- Node1&#45;&gt;Node2 -->
<g id="edge1" class="edge">
<title>Node1&#45;&gt;Node2</title>
<path fill="none" stroke="midnightblue" d="M404.39,-343.12C326.18,-334.22 193.16,-318.19 79.5,-300 78.04,-299.77 76.55,-299.52 75.05,-299.27"/>
<polygon fill="midnightblue" stroke="midnightblue" points="75.53,-295.8 65.07,-297.5 74.31,-302.69 75.53,-295.8"/>
</g>
<!-- Node3 -->
<g id="node3" class="node">
<title>Node3</title>
<g id="a_node3"><a xlink:title=" ">
<polygon fill="white" stroke="#bfbfbf" points="10.5,-112.5 10.5,-131.5 42.5,-131.5 42.5,-112.5 10.5,-112.5"/>
<text text-anchor="middle" x="26.5" y="-119.5" font-family="Helvetica,sans-Serif" font-size="10.00">list</text>
</a>
</g>
</g>
<!-- Node1&#45;&gt;Node3 -->
<g id="edge2" class="edge">
<title>Node1&#45;&gt;Node3</title>
<path fill="none" stroke="midnightblue" d="M409.09,-336.47C376.03,-327.95 335.2,-315.68 300.5,-300 215.32,-261.51 200.76,-239.1 122.5,-188 96.31,-170.9 66.54,-150.61 47.19,-137.3"/>
<polygon fill="midnightblue" stroke="midnightblue" points="49.06,-134.34 38.84,-131.55 45.09,-140.1 49.06,-134.34"/>
</g>
<!-- Node4 -->
<g id="node4" class="node">
<title>Node4</title>
<g id="a_node4"><a xlink:title=" ">
<polygon fill="white" stroke="#bfbfbf" points="499.5,-280.5 499.5,-299.5 555.5,-299.5 555.5,-280.5 499.5,-280.5"/>
<text text-anchor="middle" x="527.5" y="-287.5" font-family="Helvetica,sans-Serif" font-size="10.00">optional</text>
</a>
</g>
</g>
<!-- Node1&#45;&gt;Node4 -->
<g id="edge3" class="edge">
<title>Node1&#45;&gt;Node4</title>
<path fill="none" stroke="midnightblue" d="M484.77,-336.4C493.08,-327.58 503.8,-316.18 512.42,-307.02"/>
<polygon fill="midnightblue" stroke="midnightblue" points="515.05,-309.34 519.35,-299.66 509.95,-304.54 515.05,-309.34"/>
</g>
<!-- Node5 -->
<g id="node5" class="node">
<title>Node5</title>
<g id="a_node5"><a xlink:title=" ">
<polygon fill="white" stroke="#bfbfbf" points="573.5,-280.5 573.5,-299.5 623.5,-299.5 623.5,-280.5 573.5,-280.5"/>
<text text-anchor="middle" x="598.5" y="-287.5" font-family="Helvetica,sans-Serif" font-size="10.00">ranges</text>
</a>
</g>
</g>
<!-- Node1&#45;&gt;Node5 -->
<g id="edge4" class="edge">
<title>Node1&#45;&gt;Node5</title>
<path fill="none" stroke="midnightblue" d="M501.6,-336.4C522.62,-326.55 550.47,-313.5 570.92,-303.92"/>
<polygon fill="midnightblue" stroke="midnightblue" points="572.45,-307.07 580.02,-299.66 569.48,-300.73 572.45,-307.07"/>
</g>
<!-- Node6 -->
<g id="node6" class="node">
<title>Node6</title>
<g id="a_node6"><a xlink:title=" ">
<polygon fill="white" stroke="#bfbfbf" points="642,-280.5 642,-299.5 693,-299.5 693,-280.5 642,-280.5"/>
<text text-anchor="middle" x="667.5" y="-287.5" font-family="Helvetica,sans-Serif" font-size="10.00">variant</text>
</a>
</g>
</g>
<!-- Node1&#45;&gt;Node6 -->
<g id="edge5" class="edge">
<title>Node1&#45;&gt;Node6</title>
<path fill="none" stroke="midnightblue" d="M517.95,-336.4C552.88,-325.79 600.04,-311.48 631.99,-301.78"/>
<polygon fill="midnightblue" stroke="midnightblue" points="633.24,-305.06 641.79,-298.8 631.21,-298.36 633.24,-305.06"/>
</g>
<!-- Node7 -->
<g id="node7" class="node">
<title>Node7</title>
<g id="a_node7"><a xlink:href="heap__traits_8h.html" target="_top" xlink:title=" ">
<polygon fill="white" stroke="black" points="296.5,-224.5 296.5,-243.5 376.5,-243.5 376.5,-224.5 296.5,-224.5"/>
<text text-anchor="middle" x="336.5" y="-231.5" font-family="Helvetica,sans-Serif" font-size="10.00">heap_traits.h</text>
</a>
</g>
</g>
<!-- Node1&#45;&gt;Node7 -->
<g id="edge6" class="edge">
<title>Node1&#45;&gt;Node7</title>
<path fill="none" stroke="midnightblue" d="M404.4,-347.78C369.85,-342.55 330.47,-329.81 308.5,-300 297.51,-285.09 309.17,-265.21 320.61,-251.37"/>
<polygon fill="midnightblue" stroke="midnightblue" points="323.47,-253.43 327.51,-243.64 318.24,-248.78 323.47,-253.43"/>
</g>
<!-- Node24 -->
<g id="node24" class="node">
<title>Node24</title>
<g id="a_node24"><a xlink:href="shortest__path__finder_8h.html" target="_top" xlink:title=" ">
<polygon fill="white" stroke="black" points="318,-280.5 318,-299.5 443,-299.5 443,-280.5 318,-280.5"/>
<text text-anchor="middle" x="380.5" y="-287.5" font-family="Helvetica,sans-Serif" font-size="10.00">shortest_path_finder.h</text>
</a>
</g>
</g>
<!-- Node1&#45;&gt;Node24 -->
<g id="edge30" class="edge">
<title>Node1&#45;&gt;Node24</title>
<path fill="none" stroke="midnightblue" d="M449.93,-336.4C435.62,-327.04 416.89,-314.79 402.49,-305.38"/>
<polygon fill="midnightblue" stroke="midnightblue" points="404.03,-302.2 393.74,-299.66 400.2,-308.06 404.03,-302.2"/>
</g>
<!-- Node26 -->
<g id="node26" class="node">
<title>Node26</title>
<g id="a_node26"><a xlink:href="chrono_8h.html" target="_top" xlink:title=" ">
<polygon fill="white" stroke="black" points="720,-280.5 720,-299.5 779,-299.5 779,-280.5 720,-280.5"/>
<text text-anchor="middle" x="749.5" y="-287.5" font-family="Helvetica,sans-Serif" font-size="10.00">chrono.h</text>
</a>
</g>
</g>
<!-- Node1&#45;&gt;Node26 -->
<g id="edge35" class="edge">
<title>Node1&#45;&gt;Node26</title>
<path fill="none" stroke="midnightblue" d="M537.03,-336.47C590.64,-325 664.72,-309.15 709.75,-299.51"/>
<polygon fill="midnightblue" stroke="midnightblue" points="710.67,-302.89 719.72,-297.37 709.21,-296.04 710.67,-302.89"/>
</g>
<!-- Node30 -->
<g id="node30" class="node">
<title>Node30</title>
<g id="a_node30"><a xlink:href="kfinder_8h.html" target="_top" xlink:title=" ">
<polygon fill="white" stroke="black" points="442,-224.5 442,-243.5 501,-243.5 501,-224.5 442,-224.5"/>
<text text-anchor="middle" x="471.5" y="-231.5" font-family="Helvetica,sans-Serif" font-size="10.00">kfinder.h</text>
</a>
</g>
</g>
<!-- Node1&#45;&gt;Node30 -->
<g id="edge39" class="edge">
<title>Node1&#45;&gt;Node30</title>
<path fill="none" stroke="midnightblue" d="M471.5,-336.34C471.5,-315.62 471.5,-277.02 471.5,-253.9"/>
<polygon fill="midnightblue" stroke="midnightblue" points="475,-253.67 471.5,-243.67 468,-253.67 475,-253.67"/>
</g>
<!-- Node8 -->
<g id="node8" class="node">
<title>Node8</title>
<g id="a_node8"><a xlink:href="heap__eppstein_8h.html" target="_top" xlink:title=" ">
<polygon fill="white" stroke="black" points="160,-168.5 160,-187.5 257,-187.5 257,-168.5 160,-168.5"/>
<text text-anchor="middle" x="208.5" y="-175.5" font-family="Helvetica,sans-Serif" font-size="10.00">heap_eppstein.h</text>
</a>
</g>
</g>
<!-- Node7&#45;&gt;Node8 -->
<g id="edge7" class="edge">
<title>Node7&#45;&gt;Node8</title>
<path fill="none" stroke="midnightblue" d="M316.22,-224.44C295.15,-215.56 261.98,-201.56 238.01,-191.45"/>
<polygon fill="midnightblue" stroke="midnightblue" points="239.26,-188.18 228.69,-187.52 236.54,-194.63 239.26,-188.18"/>
</g>
<!-- Node14 -->
<g id="node14" class="node">
<title>Node14</title>
<g id="a_node14"><a xlink:href="traits_8h.html" target="_top" xlink:title=" ">
<polygon fill="white" stroke="black" points="400,-112.5 400,-131.5 451,-131.5 451,-112.5 400,-112.5"/>
<text text-anchor="middle" x="425.5" y="-119.5" font-family="Helvetica,sans-Serif" font-size="10.00">traits.h</text>
</a>
</g>
</g>
<!-- Node7&#45;&gt;Node14 -->
<g id="edge27" class="edge">
<title>Node7&#45;&gt;Node14</title>
<path fill="none" stroke="midnightblue" d="M343.48,-224.37C358.24,-206.14 392.79,-163.43 412.01,-139.68"/>
<polygon fill="midnightblue" stroke="midnightblue" points="414.98,-141.57 418.55,-131.59 409.54,-137.16 414.98,-141.57"/>
</g>
<!-- Node22 -->
<g id="node22" class="node">
<title>Node22</title>
<g id="a_node22"><a xlink:href="path__info_8h.html" target="_top" xlink:title=" ">
<polygon fill="white" stroke="black" points="275,-168.5 275,-187.5 346,-187.5 346,-168.5 275,-168.5"/>
<text text-anchor="middle" x="310.5" y="-175.5" font-family="Helvetica,sans-Serif" font-size="10.00">path_info.h</text>
</a>
</g>
</g>
<!-- Node7&#45;&gt;Node22 -->
<g id="edge24" class="edge">
<title>Node7&#45;&gt;Node22</title>
<path fill="none" stroke="midnightblue" d="M332.21,-224.08C328.65,-216.69 323.48,-205.95 319.08,-196.81"/>
<polygon fill="midnightblue" stroke="midnightblue" points="322.21,-195.24 314.71,-187.75 315.9,-198.28 322.21,-195.24"/>
</g>
<!-- Node23 -->
<g id="node23" class="node">
<title>Node23</title>
<g id="a_node23"><a xlink:href="weighted__graph_8h.html" target="_top" xlink:title=" ">
<polygon fill="white" stroke="black" points="402.5,-168.5 402.5,-187.5 506.5,-187.5 506.5,-168.5 402.5,-168.5"/>
<text text-anchor="middle" x="454.5" y="-175.5" font-family="Helvetica,sans-Serif" font-size="10.00">weighted_graph.h</text>
</a>
</g>
</g>
<!-- Node7&#45;&gt;Node23 -->
<g id="edge28" class="edge">
<title>Node7&#45;&gt;Node23</title>
<path fill="none" stroke="midnightblue" d="M355.2,-224.44C374.44,-215.64 404.65,-201.81 426.7,-191.72"/>
<polygon fill="midnightblue" stroke="midnightblue" points="428.25,-194.86 435.89,-187.52 425.34,-188.5 428.25,-194.86"/>
</g>
<!-- Node8&#45;&gt;Node3 -->
<g id="edge9" class="edge">
<title>Node8&#45;&gt;Node3</title>
<path fill="none" stroke="midnightblue" d="M176.44,-168.48C146.57,-160.4 100.6,-147.58 52.28,-132.1"/>
<polygon fill="midnightblue" stroke="midnightblue" points="53.18,-128.71 42.58,-128.97 51.02,-135.37 53.18,-128.71"/>
</g>
<!-- Node9 -->
<g id="node9" class="node">
<title>Node9</title>
<g id="a_node9"><a xlink:title=" ">
<polygon fill="white" stroke="#bfbfbf" points="60.5,-112.5 60.5,-131.5 104.5,-131.5 104.5,-112.5 60.5,-112.5"/>
<text text-anchor="middle" x="82.5" y="-119.5" font-family="Helvetica,sans-Serif" font-size="10.00">limits</text>
</a>
</g>
</g>
<!-- Node8&#45;&gt;Node9 -->
<g id="edge8" class="edge">
<title>Node8&#45;&gt;Node9</title>
<path fill="none" stroke="midnightblue" d="M188.53,-168.44C167.89,-159.6 135.44,-145.69 111.87,-135.59"/>
<polygon fill="midnightblue" stroke="midnightblue" points="112.94,-132.24 102.37,-131.52 110.18,-138.67 112.94,-132.24"/>
</g>
<!-- Node10 -->
<g id="node10" class="node">
<title>Node10</title>
<g id="a_node10"><a xlink:title=" ">
<polygon fill="white" stroke="#bfbfbf" points="136.5,-56.5 136.5,-75.5 194.5,-75.5 194.5,-56.5 136.5,-56.5"/>
<text text-anchor="middle" x="165.5" y="-63.5" font-family="Helvetica,sans-Serif" font-size="10.00">memory</text>
</a>
</g>
</g>
<!-- Node8&#45;&gt;Node10 -->
<g id="edge10" class="edge">
<title>Node8&#45;&gt;Node10</title>
<path fill="none" stroke="midnightblue" d="M190.42,-168.39C176.94,-160.87 159.53,-148.57 151.5,-132 144.28,-117.1 149.55,-98.49 155.57,-85.01"/>
<polygon fill="midnightblue" stroke="midnightblue" points="158.81,-86.35 160.14,-75.84 152.55,-83.23 158.81,-86.35"/>
</g>
<!-- Node11 -->
<g id="node11" class="node">
<title>Node11</title>
<g id="a_node11"><a xlink:title=" ">
<polygon fill="white" stroke="#bfbfbf" points="161,-112.5 161,-131.5 206,-131.5 206,-112.5 161,-112.5"/>
<text text-anchor="middle" x="183.5" y="-119.5" font-family="Helvetica,sans-Serif" font-size="10.00">utility</text>
</a>
</g>
</g>
<!-- Node8&#45;&gt;Node11 -->
<g id="edge11" class="edge">
<title>Node8&#45;&gt;Node11</title>
<path fill="none" stroke="midnightblue" d="M204.37,-168.08C200.99,-160.77 196.08,-150.18 191.88,-141.1"/>
<polygon fill="midnightblue" stroke="midnightblue" points="194.93,-139.36 187.55,-131.75 188.58,-142.3 194.93,-139.36"/>
</g>
<!-- Node12 -->
<g id="node12" class="node">
<title>Node12</title>
<g id="a_node12"><a xlink:title=" ">
<polygon fill="white" stroke="#bfbfbf" points="224.5,-112.5 224.5,-131.5 280.5,-131.5 280.5,-112.5 224.5,-112.5"/>
<text text-anchor="middle" x="252.5" y="-119.5" font-family="Helvetica,sans-Serif" font-size="10.00">numeric</text>
</a>
</g>
</g>
<!-- Node8&#45;&gt;Node12 -->
<g id="edge12" class="edge">
<title>Node8&#45;&gt;Node12</title>
<path fill="none" stroke="midnightblue" d="M215.77,-168.08C222.04,-160.38 231.29,-149.03 238.93,-139.65"/>
<polygon fill="midnightblue" stroke="midnightblue" points="241.77,-141.71 245.37,-131.75 236.34,-137.29 241.77,-141.71"/>
</g>
<!-- Node13 -->
<g id="node13" class="node">
<title>Node13</title>
<g id="a_node13"><a xlink:href="crtp__greater_8h.html" target="_top" xlink:title=" ">
<polygon fill="white" stroke="black" points="298.5,-112.5 298.5,-131.5 382.5,-131.5 382.5,-112.5 298.5,-112.5"/>
<text text-anchor="middle" x="340.5" y="-119.5" font-family="Helvetica,sans-Serif" font-size="10.00">crtp_greater.h</text>
</a>
</g>
</g>
<!-- Node8&#45;&gt;Node13 -->
<g id="edge13" class="edge">
<title>Node8&#45;&gt;Node13</title>
<path fill="none" stroke="midnightblue" d="M229.42,-168.44C251.24,-159.52 285.65,-145.44 310.39,-135.32"/>
<polygon fill="midnightblue" stroke="midnightblue" points="311.75,-138.54 319.68,-131.52 309.1,-132.06 311.75,-138.54"/>
</g>
<!-- Node8&#45;&gt;Node14 -->
<g id="edge14" class="edge">
<title>Node8&#45;&gt;Node14</title>
<path fill="none" stroke="midnightblue" d="M243.97,-168.47C278.85,-160.05 333.87,-146.64 390.12,-132.32"/>
<polygon fill="midnightblue" stroke="midnightblue" points="391.07,-135.69 399.89,-129.83 389.34,-128.91 391.07,-135.69"/>
</g>
<!-- Node14&#45;&gt;Node10 -->
<g id="edge17" class="edge">
<title>Node14&#45;&gt;Node10</title>
<path fill="none" stroke="midnightblue" d="M399.92,-114.05C397.09,-113.33 394.24,-112.63 391.5,-112 326.24,-96.88 249.65,-82.29 204.48,-74"/>
<polygon fill="midnightblue" stroke="midnightblue" points="204.99,-70.53 194.52,-72.18 203.73,-77.42 204.99,-70.53"/>
</g>
<!-- Node15 -->
<g id="node15" class="node">
<title>Node15</title>
<g id="a_node15"><a xlink:title=" ">
<polygon fill="white" stroke="#bfbfbf" points="245.5,-56.5 245.5,-75.5 277.5,-75.5 277.5,-56.5 245.5,-56.5"/>
<text text-anchor="middle" x="261.5" y="-63.5" font-family="Helvetica,sans-Serif" font-size="10.00">set</text>
</a>
</g>
</g>
<!-- Node14&#45;&gt;Node15 -->
<g id="edge15" class="edge">
<title>Node14&#45;&gt;Node15</title>
<path fill="none" stroke="midnightblue" d="M399.8,-112.95C373.69,-104.72 331.89,-91.38 287.19,-76.16"/>
<polygon fill="midnightblue" stroke="midnightblue" points="288.21,-72.81 277.61,-72.89 285.94,-79.43 288.21,-72.81"/>
</g>
<!-- Node16 -->
<g id="node16" class="node">
<title>Node16</title>
<g id="a_node16"><a xlink:title=" ">
<polygon fill="white" stroke="#bfbfbf" points="295.5,-56.5 295.5,-75.5 333.5,-75.5 333.5,-56.5 295.5,-56.5"/>
<text text-anchor="middle" x="314.5" y="-63.5" font-family="Helvetica,sans-Serif" font-size="10.00">map</text>
</a>
</g>
</g>
<!-- Node14&#45;&gt;Node16 -->
<g id="edge16" class="edge">
<title>Node14&#45;&gt;Node16</title>
<path fill="none" stroke="midnightblue" d="M407.67,-112.32C389.78,-103.62 362.02,-90.12 341.45,-80.11"/>
<polygon fill="midnightblue" stroke="midnightblue" points="342.81,-76.88 332.29,-75.65 339.75,-83.18 342.81,-76.88"/>
</g>
<!-- Node17 -->
<g id="node17" class="node">
<title>Node17</title>
<g id="a_node17"><a xlink:href="starting__traits_8h.html" target="_top" xlink:title=" ">
<polygon fill="white" stroke="black" points="314.5,-0.5 314.5,-19.5 408.5,-19.5 408.5,-0.5 314.5,-0.5"/>
<text text-anchor="middle" x="361.5" y="-7.5" font-family="Helvetica,sans-Serif" font-size="10.00">starting_traits.h</text>
</a>
</g>
</g>
<!-- Node14&#45;&gt;Node17 -->
<g id="edge18" class="edge">
<title>Node14&#45;&gt;Node17</title>
<path fill="none" stroke="midnightblue" d="M413.89,-112.23C403.7,-103.95 389.17,-90.64 380.5,-76 371.98,-61.62 367.06,-43.16 364.37,-29.59"/>
<polygon fill="midnightblue" stroke="midnightblue" points="367.79,-28.78 362.61,-19.54 360.89,-29.99 367.79,-28.78"/>
</g>
<!-- Node18 -->
<g id="node18" class="node">
<title>Node18</title>
<g id="a_node18"><a xlink:title=" ">
<polygon fill="white" stroke="#bfbfbf" points="479,-56.5 479,-75.5 544,-75.5 544,-56.5 479,-56.5"/>
<text text-anchor="middle" x="511.5" y="-63.5" font-family="Helvetica,sans-Serif" font-size="10.00">onnx.pb.h</text>
</a>
</g>
</g>
<!-- Node14&#45;&gt;Node18 -->
<g id="edge19" class="edge">
<title>Node14&#45;&gt;Node18</title>
<path fill="none" stroke="midnightblue" d="M439.32,-112.32C452.73,-103.9 473.32,-90.97 489.09,-81.07"/>
<polygon fill="midnightblue" stroke="midnightblue" points="491.11,-83.94 497.72,-75.65 487.39,-78.01 491.11,-83.94"/>
</g>
<!-- Node19 -->
<g id="node19" class="node">
<title>Node19</title>
<g id="a_node19"><a xlink:href="type__info_8h.html" target="_top" xlink:title=" ">
<polygon fill="white" stroke="black" points="390,-56.5 390,-75.5 461,-75.5 461,-56.5 390,-56.5"/>
<text text-anchor="middle" x="425.5" y="-63.5" font-family="Helvetica,sans-Serif" font-size="10.00">type_info.h</text>
</a>
</g>
</g>
<!-- Node14&#45;&gt;Node19 -->
<g id="edge20" class="edge">
<title>Node14&#45;&gt;Node19</title>
<path fill="none" stroke="midnightblue" d="M425.5,-112.08C425.5,-105.01 425.5,-94.86 425.5,-85.99"/>
<polygon fill="midnightblue" stroke="midnightblue" points="429,-85.75 425.5,-75.75 422,-85.75 429,-85.75"/>
</g>
<!-- Node19&#45;&gt;Node17 -->
<g id="edge23" class="edge">
<title>Node19&#45;&gt;Node17</title>
<path fill="none" stroke="midnightblue" d="M415.22,-56.32C405.66,-48.26 391.22,-36.08 379.72,-26.37"/>
<polygon fill="midnightblue" stroke="midnightblue" points="381.87,-23.61 371.97,-19.83 377.36,-28.96 381.87,-23.61"/>
</g>
<!-- Node20 -->
<g id="node20" class="node">
<title>Node20</title>
<g id="a_node20"><a xlink:title=" ">
<polygon fill="white" stroke="#bfbfbf" points="426.5,-0.5 426.5,-19.5 470.5,-19.5 470.5,-0.5 426.5,-0.5"/>
<text text-anchor="middle" x="448.5" y="-7.5" font-family="Helvetica,sans-Serif" font-size="10.00">string</text>
</a>
</g>
</g>
<!-- Node19&#45;&gt;Node20 -->
<g id="edge21" class="edge">
<title>Node19&#45;&gt;Node20</title>
<path fill="none" stroke="midnightblue" d="M429.3,-56.08C432.41,-48.77 436.92,-38.18 440.79,-29.1"/>
<polygon fill="midnightblue" stroke="midnightblue" points="444.07,-30.32 444.77,-19.75 437.63,-27.58 444.07,-30.32"/>
</g>
<!-- Node21 -->
<g id="node21" class="node">
<title>Node21</title>
<g id="a_node21"><a xlink:title=" ">
<polygon fill="white" stroke="#bfbfbf" points="519,-0.5 519,-19.5 566,-19.5 566,-0.5 519,-0.5"/>
<text text-anchor="middle" x="542.5" y="-7.5" font-family="Helvetica,sans-Serif" font-size="10.00">vector</text>
</a>
</g>
</g>
<!-- Node19&#45;&gt;Node21 -->
<g id="edge22" class="edge">
<title>Node19&#45;&gt;Node21</title>
<path fill="none" stroke="midnightblue" d="M444.04,-56.44C463.12,-47.64 493.07,-33.81 514.94,-23.72"/>
<polygon fill="midnightblue" stroke="midnightblue" points="516.43,-26.88 524.05,-19.52 513.5,-20.53 516.43,-26.88"/>
</g>
<!-- Node22&#45;&gt;Node13 -->
<g id="edge25" class="edge">
<title>Node22&#45;&gt;Node13</title>
<path fill="none" stroke="midnightblue" d="M315.45,-168.08C319.6,-160.61 325.65,-149.72 330.77,-140.52"/>
<polygon fill="midnightblue" stroke="midnightblue" points="333.84,-142.19 335.64,-131.75 327.72,-138.79 333.84,-142.19"/>
</g>
<!-- Node22&#45;&gt;Node14 -->
<g id="edge26" class="edge">
<title>Node22&#45;&gt;Node14</title>
<path fill="none" stroke="midnightblue" d="M328.72,-168.44C347.4,-159.68 376.66,-145.94 398.12,-135.86"/>
<polygon fill="midnightblue" stroke="midnightblue" points="399.8,-138.93 407.36,-131.52 396.82,-132.6 399.8,-138.93"/>
</g>
<!-- Node23&#45;&gt;Node14 -->
<g id="edge29" class="edge">
<title>Node23&#45;&gt;Node14</title>
<path fill="none" stroke="midnightblue" d="M449.71,-168.08C445.74,-160.69 439.97,-149.95 435.07,-140.81"/>
<polygon fill="midnightblue" stroke="midnightblue" points="438.01,-138.91 430.2,-131.75 431.85,-142.22 438.01,-138.91"/>
</g>
<!-- Node24&#45;&gt;Node7 -->
<g id="edge31" class="edge">
<title>Node24&#45;&gt;Node7</title>
<path fill="none" stroke="midnightblue" d="M373.23,-280.08C366.96,-272.38 357.71,-261.03 350.07,-251.65"/>
<polygon fill="midnightblue" stroke="midnightblue" points="352.66,-249.29 343.63,-243.75 347.23,-253.71 352.66,-249.29"/>
</g>
<!-- Node24&#45;&gt;Node9 -->
<g id="edge32" class="edge">
<title>Node24&#45;&gt;Node9</title>
<path fill="none" stroke="midnightblue" d="M353.09,-280.45C308.33,-265.76 217.8,-232.9 150.5,-188 129.6,-174.06 109.27,-153.41 96.37,-139.14"/>
<polygon fill="midnightblue" stroke="midnightblue" points="98.92,-136.75 89.68,-131.58 93.68,-141.39 98.92,-136.75"/>
</g>
<!-- Node24&#45;&gt;Node21 -->
<g id="edge34" class="edge">
<title>Node24&#45;&gt;Node21</title>
<path fill="none" stroke="midnightblue" d="M439.67,-280.46C496.09,-268.58 572.5,-241.04 572.5,-179 572.5,-179 572.5,-179 572.5,-121 572.5,-87.64 559.5,-50.53 550.61,-29.07"/>
<polygon fill="midnightblue" stroke="midnightblue" points="553.72,-27.42 546.55,-19.62 547.29,-30.19 553.72,-27.42"/>
</g>
<!-- Node25 -->
<g id="node25" class="node">
<title>Node25</title>
<g id="a_node25"><a xlink:title=" ">
<polygon fill="white" stroke="#bfbfbf" points="601,-224.5 601,-243.5 648,-243.5 648,-224.5 601,-224.5"/>
<text text-anchor="middle" x="624.5" y="-231.5" font-family="Helvetica,sans-Serif" font-size="10.00">queue</text>
</a>
</g>
</g>
<!-- Node24&#45;&gt;Node25 -->
<g id="edge33" class="edge">
<title>Node24&#45;&gt;Node25</title>
<path fill="none" stroke="midnightblue" d="M420.42,-280.5C461.96,-271.6 528.85,-257.12 586.5,-244 587.95,-243.67 589.42,-243.33 590.91,-242.99"/>
<polygon fill="midnightblue" stroke="midnightblue" points="591.86,-246.36 600.8,-240.68 590.26,-239.55 591.86,-246.36"/>
</g>
<!-- Node27 -->
<g id="node27" class="node">
<title>Node27</title>
<g id="a_node27"><a xlink:title=" ">
<polygon fill="white" stroke="#bfbfbf" points="666.5,-224.5 666.5,-243.5 716.5,-243.5 716.5,-224.5 666.5,-224.5"/>
<text text-anchor="middle" x="691.5" y="-231.5" font-family="Helvetica,sans-Serif" font-size="10.00">chrono</text>
</a>
</g>
</g>
<!-- Node26&#45;&gt;Node27 -->
<g id="edge36" class="edge">
<title>Node26&#45;&gt;Node27</title>
<path fill="none" stroke="midnightblue" d="M740.18,-280.32C731.61,-272.34 718.69,-260.31 708.31,-250.65"/>
<polygon fill="midnightblue" stroke="midnightblue" points="710.69,-248.09 700.99,-243.83 705.92,-253.21 710.69,-248.09"/>
</g>
<!-- Node28 -->
<g id="node28" class="node">
<title>Node28</title>
<g id="a_node28"><a xlink:title=" ">
<polygon fill="white" stroke="#bfbfbf" points="734.5,-224.5 734.5,-243.5 782.5,-243.5 782.5,-224.5 734.5,-224.5"/>
<text text-anchor="middle" x="758.5" y="-231.5" font-family="Helvetica,sans-Serif" font-size="10.00">iosfwd</text>
</a>
</g>
</g>
<!-- Node26&#45;&gt;Node28 -->
<g id="edge37" class="edge">
<title>Node26&#45;&gt;Node28</title>
<path fill="none" stroke="midnightblue" d="M750.99,-280.08C752.18,-272.93 753.89,-262.64 755.38,-253.69"/>
<polygon fill="midnightblue" stroke="midnightblue" points="758.85,-254.19 757.04,-243.75 751.95,-253.04 758.85,-254.19"/>
</g>
<!-- Node29 -->
<g id="node29" class="node">
<title>Node29</title>
<g id="a_node29"><a xlink:title=" ">
<polygon fill="white" stroke="#bfbfbf" points="800.5,-224.5 800.5,-243.5 860.5,-243.5 860.5,-224.5 800.5,-224.5"/>
<text text-anchor="middle" x="830.5" y="-231.5" font-family="Helvetica,sans-Serif" font-size="10.00">iostream</text>
</a>
</g>
</g>
<!-- Node26&#45;&gt;Node29 -->
<g id="edge38" class="edge">
<title>Node26&#45;&gt;Node29</title>
<path fill="none" stroke="midnightblue" d="M762.51,-280.32C775.03,-271.98 794.18,-259.21 808.97,-249.35"/>
<polygon fill="midnightblue" stroke="midnightblue" points="811.14,-252.11 817.52,-243.65 807.26,-246.29 811.14,-252.11"/>
</g>
<!-- Node30&#45;&gt;Node14 -->
<g id="edge40" class="edge">
<title>Node30&#45;&gt;Node14</title>
<path fill="none" stroke="midnightblue" d="M484.82,-224.32C502,-212 528.25,-188.63 515.5,-168 503.56,-148.68 480.53,-137.37 460.75,-130.93"/>
<polygon fill="midnightblue" stroke="midnightblue" points="461.66,-127.55 451.08,-128.06 459.67,-134.26 461.66,-127.55"/>
</g>
<!-- Node30&#45;&gt;Node23 -->
<g id="edge41" class="edge">
<title>Node30&#45;&gt;Node23</title>
<path fill="none" stroke="midnightblue" d="M468.69,-224.08C466.42,-216.85 463.13,-206.41 460.29,-197.4"/>
<polygon fill="midnightblue" stroke="midnightblue" points="463.6,-196.24 457.25,-187.75 456.92,-198.34 463.6,-196.24"/>
</g>
</g>
</svg>
        <g id="navigator" transform="translate(0 0)" fill="#404254">
                <rect fill="#f2f5e9" fill-opacity="0.5" stroke="#606060" stroke-width=".5" x="0" y="0" width="60" height="60"/>
                <use id="zoomplus" xlink:href="#zoomPlus" x="17" y="9" onmousedown="handleZoom(evt,'in')"/>
                <use id="zoomminus" xlink:href="#zoomMin" x="42" y="9" onmousedown="handleZoom(evt,'out')"/>
                <use id="reset" xlink:href="#resetDef" x="30" y="36" onmousedown="handleReset()"/>
                <g id="arrowUp" xlink:href="#dirArrow" transform="translate(30 24)" onmousedown="handlePan(0,-1)">
                  <use xlink:href="#rim" fill="#404040">
                        <set attributeName="fill" to="#808080" begin="arrowUp.mouseover" end="arrowUp.mouseout"/>
                  </use>
                  <path fill="none" stroke="white" stroke-width="1.5" d="M0,-3.0v7 M-2.5,-0.5L0,-3.0L2.5,-0.5"/>
                </g>
                <g id="arrowRight" xlink:href="#dirArrow" transform="rotate(90) translate(36 -43)" onmousedown="handlePan(1,0)">
                  <use xlink:href="#rim" fill="#404040">
                        <set attributeName="fill" to="#808080" begin="arrowRight.mouseover" end="arrowRight.mouseout"/>
                  </use>
                  <path fill="none" stroke="white" stroke-width="1.5" d="M0,-3.0v7 M-2.5,-0.5L0,-3.0L2.5,-0.5"/>
                </g>
                <g id="arrowDown" xlink:href="#dirArrow" transform="rotate(180) translate(-30 -48)" onmousedown="handlePan(0,1)">
                  <use xlink:href="#rim" fill="#404040">
                        <set attributeName="fill" to="#808080" begin="arrowDown.mouseover" end="arrowDown.mouseout"/>
                  </use>
                  <path fill="none" stroke="white" stroke-width="1.5" d="M0,-3.0v7 M-2.5,-0.5L0,-3.0L2.5,-0.5"/>
                </g>
                <g id="arrowLeft" xlink:href="#dirArrow" transform="rotate(270) translate(-36 17)" onmousedown="handlePan(-1,0)">
                  <use xlink:href="#rim" fill="#404040">
                        <set attributeName="fill" to="#808080" begin="arrowLeft.mouseover" end="arrowLeft.mouseout"/>
                  </use>
                  <path fill="none" stroke="white" stroke-width="1.5" d="M0,-3.0v7 M-2.5,-0.5L0,-3.0L2.5,-0.5"/>
                </g>
        </g>
        <svg viewBox="0 0 15 15" width="100%" height="30px" preserveAspectRatio="xMaxYMin meet">
         <g id="arrow_out" transform="scale(0.3 0.3)">
          <a xlink:href="basic__keppstein_8h__incl_org.svg" target="_base">
           <rect id="button" ry="5" rx="5" y="6" x="6" height="38" width="38"
                fill="#f2f5e9" fill-opacity="0.5" stroke="#606060" stroke-width="1.0"/>
           <path id="arrow"
             d="M 11.500037,31.436501 C 11.940474,20.09759 22.043105,11.32322 32.158766,21.979434 L 37.068811,17.246167 C 37.068811,17.246167 37.088388,32 37.088388,32 L 22.160133,31.978069 C 22.160133,31.978069 26.997745,27.140456 26.997745,27.140456 C 18.528582,18.264221 13.291696,25.230495 11.500037,31.436501 z"
             style="fill:#404040;"/>
          </a>
         </g>
        </svg>
</svg>
