<?xml version="1.0" encoding="UTF-8" standalone="no"?>
<!DOCTYPE svg PUBLIC "-//W3C//DTD SVG 1.1//EN"
 "http://www.w3.org/Graphics/SVG/1.1/DTD/svg11.dtd">
<!-- Generated by graphviz version 2.43.0 (0)
 -->
<!-- Title: src/IO_Interaction/Weight_Importer_Helpers/block_aMLLibrary_weight_importer.cpp Pages: 1 -->
<svg width="1077pt" height="998pt"
 viewBox="0.00 0.00 1076.63 998.00" xmlns="http://www.w3.org/2000/svg" xmlns:xlink="http://www.w3.org/1999/xlink">
<g id="graph0" class="graph" transform="scale(1 1) rotate(0) translate(4 994)">
<title>src/IO_Interaction/Weight_Importer_Helpers/block_aMLLibrary_weight_importer.cpp</title>
<polygon fill="white" stroke="transparent" points="-4,4 -4,-994 1072.63,-994 1072.63,4 -4,4"/>
<!-- Node1 -->
<g id="node1" class="node">
<title>Node1</title>
<g id="a_node1"><a xlink:title=" ">
<polygon fill="#bfbfbf" stroke="black" points="243.13,-937.5 243.13,-989.5 386.13,-989.5 386.13,-937.5 243.13,-937.5"/>
<text text-anchor="start" x="251.13" y="-977.5" font-family="Helvetica,sans-Serif" font-size="10.00">src/IO_Interaction</text>
<text text-anchor="start" x="251.13" y="-966.5" font-family="Helvetica,sans-Serif" font-size="10.00">/Weight_Importer_Helpers</text>
<text text-anchor="start" x="251.13" y="-955.5" font-family="Helvetica,sans-Serif" font-size="10.00">/block_aMLLibrary_weight</text>
<text text-anchor="middle" x="314.63" y="-944.5" font-family="Helvetica,sans-Serif" font-size="10.00">_importer.cpp</text>
</a>
</g>
</g>
<!-- Node2 -->
<g id="node2" class="node">
<title>Node2</title>
<g id="a_node2"><a xlink:href="block__aMLLibrary__weight__importer_8h.html" target="_top" xlink:title=" ">
<polygon fill="white" stroke="black" points="229.63,-848.5 229.63,-900.5 399.63,-900.5 399.63,-848.5 229.63,-848.5"/>
<text text-anchor="start" x="237.63" y="-888.5" font-family="Helvetica,sans-Serif" font-size="10.00">network_butcher/IO</text>
<text text-anchor="start" x="237.63" y="-877.5" font-family="Helvetica,sans-Serif" font-size="10.00">_Interaction/Weight</text>
<text text-anchor="start" x="237.63" y="-866.5" font-family="Helvetica,sans-Serif" font-size="10.00">_Importer_Helpers/block</text>
<text text-anchor="middle" x="314.63" y="-855.5" font-family="Helvetica,sans-Serif" font-size="10.00">_aMLLibrary_weight_importer.h</text>
</a>
</g>
</g>
<!-- Node1&#45;&gt;Node2 -->
<g id="edge1" class="edge">
<title>Node1&#45;&gt;Node2</title>
<path fill="none" stroke="midnightblue" d="M314.63,-937.34C314.63,-929.04 314.63,-919.65 314.63,-910.75"/>
<polygon fill="midnightblue" stroke="midnightblue" points="318.13,-910.61 314.63,-900.61 311.13,-910.61 318.13,-910.61"/>
</g>
<!-- Node3 -->
<g id="node3" class="node">
<title>Node3</title>
<g id="a_node3"><a xlink:title=" ">
<polygon fill="white" stroke="#bfbfbf" points="181.13,-776 181.13,-795 228.13,-795 228.13,-776 181.13,-776"/>
<text text-anchor="middle" x="204.63" y="-783" font-family="Helvetica,sans-Serif" font-size="10.00">cmath</text>
</a>
</g>
</g>
<!-- Node2&#45;&gt;Node3 -->
<g id="edge2" class="edge">
<title>Node2&#45;&gt;Node3</title>
<path fill="none" stroke="midnightblue" d="M282.81,-848.34C263.65,-833.18 239.88,-814.38 223.62,-801.52"/>
<polygon fill="midnightblue" stroke="midnightblue" points="225.45,-798.5 215.43,-795.04 221.1,-803.99 225.45,-798.5"/>
</g>
<!-- Node4 -->
<g id="node4" class="node">
<title>Node4</title>
<g id="a_node4"><a xlink:href="computer__memory_8h.html" target="_top" xlink:title=" ">
<polygon fill="white" stroke="black" points="156.13,-536.5 156.13,-566.5 305.13,-566.5 305.13,-536.5 156.13,-536.5"/>
<text text-anchor="start" x="164.13" y="-554.5" font-family="Helvetica,sans-Serif" font-size="10.00">network_butcher/Computer</text>
<text text-anchor="middle" x="230.63" y="-543.5" font-family="Helvetica,sans-Serif" font-size="10.00">/computer_memory.h</text>
</a>
</g>
</g>
<!-- Node2&#45;&gt;Node4 -->
<g id="edge3" class="edge">
<title>Node2&#45;&gt;Node4</title>
<path fill="none" stroke="midnightblue" d="M308.04,-848.31C292.24,-787.93 252.36,-635.55 236.9,-576.44"/>
<polygon fill="midnightblue" stroke="midnightblue" points="240.22,-575.33 234.3,-566.54 233.45,-577.1 240.22,-575.33"/>
</g>
<!-- Node32 -->
<g id="node32" class="node">
<title>Node32</title>
<g id="a_node32"><a xlink:href="weight__importer_8h.html" target="_top" xlink:title=" ">
<polygon fill="white" stroke="black" points="446.13,-670.5 446.13,-722.5 589.13,-722.5 589.13,-670.5 446.13,-670.5"/>
<text text-anchor="start" x="454.13" y="-710.5" font-family="Helvetica,sans-Serif" font-size="10.00">network_butcher/IO</text>
<text text-anchor="start" x="454.13" y="-699.5" font-family="Helvetica,sans-Serif" font-size="10.00">_Interaction/Weight</text>
<text text-anchor="start" x="454.13" y="-688.5" font-family="Helvetica,sans-Serif" font-size="10.00">_Importer_Helpers/weight</text>
<text text-anchor="middle" x="517.63" y="-677.5" font-family="Helvetica,sans-Serif" font-size="10.00">_importer.h</text>
</a>
</g>
</g>
<!-- Node2&#45;&gt;Node32 -->
<g id="edge53" class="edge">
<title>Node2&#45;&gt;Node32</title>
<path fill="none" stroke="midnightblue" d="M399.76,-856.66C427.61,-847.49 456.72,-833.43 477.63,-812 498.57,-790.54 508.59,-757.53 513.36,-732.46"/>
<polygon fill="midnightblue" stroke="midnightblue" points="516.81,-733.05 515.05,-722.6 509.91,-731.87 516.81,-733.05"/>
</g>
<!-- Node36 -->
<g id="node36" class="node">
<title>Node36</title>
<g id="a_node36"><a xlink:href="weight__importer__utils_8h.html" target="_top" xlink:title=" ">
<polygon fill="white" stroke="black" points="285.13,-670.5 285.13,-722.5 428.13,-722.5 428.13,-670.5 285.13,-670.5"/>
<text text-anchor="start" x="293.13" y="-710.5" font-family="Helvetica,sans-Serif" font-size="10.00">network_butcher/IO</text>
<text text-anchor="start" x="293.13" y="-699.5" font-family="Helvetica,sans-Serif" font-size="10.00">_Interaction/Weight</text>
<text text-anchor="start" x="293.13" y="-688.5" font-family="Helvetica,sans-Serif" font-size="10.00">_Importer_Helpers/weight</text>
<text text-anchor="middle" x="356.63" y="-677.5" font-family="Helvetica,sans-Serif" font-size="10.00">_importer_utils.h</text>
</a>
</g>
</g>
<!-- Node2&#45;&gt;Node36 -->
<g id="edge63" class="edge">
<title>Node2&#45;&gt;Node36</title>
<path fill="none" stroke="midnightblue" d="M317.4,-848.19C320.3,-824.78 325.57,-789.17 333.63,-759 336,-750.12 339.17,-740.73 342.38,-732.03"/>
<polygon fill="midnightblue" stroke="midnightblue" points="345.7,-733.17 346,-722.57 339.16,-730.67 345.7,-733.17"/>
</g>
<!-- Node37 -->
<g id="node37" class="node">
<title>Node37</title>
<g id="a_node37"><a xlink:href="csv__weight__importer_8h.html" target="_top" xlink:title=" ">
<polygon fill="white" stroke="black" points="342.63,-759.5 342.63,-811.5 468.63,-811.5 468.63,-759.5 342.63,-759.5"/>
<text text-anchor="start" x="350.63" y="-799.5" font-family="Helvetica,sans-Serif" font-size="10.00">network_butcher/IO</text>
<text text-anchor="start" x="350.63" y="-788.5" font-family="Helvetica,sans-Serif" font-size="10.00">_Interaction/Weight</text>
<text text-anchor="start" x="350.63" y="-777.5" font-family="Helvetica,sans-Serif" font-size="10.00">_Importer_Helpers/csv</text>
<text text-anchor="middle" x="405.63" y="-766.5" font-family="Helvetica,sans-Serif" font-size="10.00">_weight_importer.h</text>
</a>
</g>
</g>
<!-- Node2&#45;&gt;Node37 -->
<g id="edge66" class="edge">
<title>Node2&#45;&gt;Node37</title>
<path fill="none" stroke="midnightblue" d="M340.95,-848.34C350.67,-839.05 361.81,-828.39 372.08,-818.58"/>
<polygon fill="midnightblue" stroke="midnightblue" points="374.56,-821.05 379.37,-811.61 369.72,-815.99 374.56,-821.05"/>
</g>
<!-- Node5 -->
<g id="node5" class="node">
<title>Node5</title>
<g id="a_node5"><a xlink:title=" ">
<polygon fill="white" stroke="#bfbfbf" points="239.13,-475 239.13,-494 304.13,-494 304.13,-475 239.13,-475"/>
<text text-anchor="middle" x="271.63" y="-482" font-family="Helvetica,sans-Serif" font-size="10.00">functional</text>
</a>
</g>
</g>
<!-- Node4&#45;&gt;Node5 -->
<g id="edge4" class="edge">
<title>Node4&#45;&gt;Node5</title>
<path fill="none" stroke="midnightblue" d="M239.53,-536.4C245.73,-526.56 254.05,-513.38 260.66,-502.89"/>
<polygon fill="midnightblue" stroke="midnightblue" points="263.77,-504.52 266.15,-494.19 257.85,-500.79 263.77,-504.52"/>
</g>
<!-- Node6 -->
<g id="node6" class="node">
<title>Node6</title>
<g id="a_node6"><a xlink:href="utilities_8h.html" target="_top" xlink:title=" ">
<polygon fill="white" stroke="black" points="198.13,-207 198.13,-226 345.13,-226 345.13,-207 198.13,-207"/>
<text text-anchor="middle" x="271.63" y="-214" font-family="Helvetica,sans-Serif" font-size="10.00">network_butcher/utilities.h</text>
</a>
</g>
</g>
<!-- Node4&#45;&gt;Node6 -->
<g id="edge5" class="edge">
<title>Node4&#45;&gt;Node6</title>
<path fill="none" stroke="midnightblue" d="M227.06,-536.35C221.3,-512.3 210.63,-461.84 210.63,-418.5 210.63,-418.5 210.63,-418.5 210.63,-349.5 210.63,-304.51 240.2,-258.18 258.16,-234.19"/>
<polygon fill="midnightblue" stroke="midnightblue" points="261.04,-236.18 264.39,-226.13 255.51,-231.9 261.04,-236.18"/>
</g>
<!-- Node24 -->
<g id="node24" class="node">
<title>Node24</title>
<g id="a_node24"><a xlink:href="wgraph_8h.html" target="_top" xlink:title=" ">
<polygon fill="white" stroke="black" points="551.13,-469.5 551.13,-499.5 694.13,-499.5 694.13,-469.5 551.13,-469.5"/>
<text text-anchor="start" x="559.13" y="-487.5" font-family="Helvetica,sans-Serif" font-size="10.00">network_butcher/Network</text>
<text text-anchor="middle" x="622.63" y="-476.5" font-family="Helvetica,sans-Serif" font-size="10.00">/wgraph.h</text>
</a>
</g>
</g>
<!-- Node4&#45;&gt;Node24 -->
<g id="edge31" class="edge">
<title>Node4&#45;&gt;Node24</title>
<path fill="none" stroke="midnightblue" d="M305.29,-538.12C372.62,-526.96 471.44,-510.57 540.88,-499.06"/>
<polygon fill="midnightblue" stroke="midnightblue" points="541.61,-502.48 550.9,-497.39 540.46,-495.58 541.61,-502.48"/>
</g>
<!-- Node7 -->
<g id="node7" class="node">
<title>Node7</title>
<g id="a_node7"><a xlink:title=" ">
<polygon fill="white" stroke="#bfbfbf" points="283.63,-140 283.63,-159 347.63,-159 347.63,-140 283.63,-140"/>
<text text-anchor="middle" x="315.63" y="-147" font-family="Helvetica,sans-Serif" font-size="10.00">algorithm</text>
</a>
</g>
</g>
<!-- Node6&#45;&gt;Node7 -->
<g id="edge6" class="edge">
<title>Node6&#45;&gt;Node7</title>
<path fill="none" stroke="midnightblue" d="M277.57,-206.73C284.36,-196.7 295.65,-180.01 304.18,-167.42"/>
<polygon fill="midnightblue" stroke="midnightblue" points="307.08,-169.37 309.79,-159.13 301.29,-165.45 307.08,-169.37"/>
</g>
<!-- Node8 -->
<g id="node8" class="node">
<title>Node8</title>
<g id="a_node8"><a xlink:title=" ">
<polygon fill="white" stroke="#bfbfbf" points="365.63,-140 365.63,-159 421.63,-159 421.63,-140 365.63,-140"/>
<text text-anchor="middle" x="393.63" y="-147" font-family="Helvetica,sans-Serif" font-size="10.00">numeric</text>
</a>
</g>
</g>
<!-- Node6&#45;&gt;Node8 -->
<g id="edge7" class="edge">
<title>Node6&#45;&gt;Node8</title>
<path fill="none" stroke="midnightblue" d="M287.83,-206.87C308.43,-195.89 344.22,-176.82 368.41,-163.94"/>
<polygon fill="midnightblue" stroke="midnightblue" points="370.18,-166.96 377.36,-159.17 366.89,-160.78 370.18,-166.96"/>
</g>
<!-- Node9 -->
<g id="node9" class="node">
<title>Node9</title>
<g id="a_node9"><a xlink:title=" ">
<polygon fill="white" stroke="#bfbfbf" points="17.63,-140 17.63,-159 85.63,-159 85.63,-140 17.63,-140"/>
<text text-anchor="middle" x="51.63" y="-147" font-family="Helvetica,sans-Serif" font-size="10.00">filesystem</text>
</a>
</g>
</g>
<!-- Node6&#45;&gt;Node9 -->
<g id="edge8" class="edge">
<title>Node6&#45;&gt;Node9</title>
<path fill="none" stroke="midnightblue" d="M239.84,-206.92C204.31,-197.21 145.13,-180.71 94.63,-165 91.88,-164.14 89.04,-163.24 86.19,-162.31"/>
<polygon fill="midnightblue" stroke="midnightblue" points="87.17,-158.95 76.58,-159.13 84.97,-165.6 87.17,-158.95"/>
</g>
<!-- Node10 -->
<g id="node10" class="node">
<title>Node10</title>
<g id="a_node10"><a xlink:title=" ">
<polygon fill="white" stroke="#bfbfbf" points="104.13,-140 104.13,-159 159.13,-159 159.13,-140 104.13,-140"/>
<text text-anchor="middle" x="131.63" y="-147" font-family="Helvetica,sans-Serif" font-size="10.00">fstream</text>
</a>
</g>
</g>
<!-- Node6&#45;&gt;Node10 -->
<g id="edge9" class="edge">
<title>Node6&#45;&gt;Node10</title>
<path fill="none" stroke="midnightblue" d="M253.04,-206.87C229.09,-195.75 187.24,-176.32 159.48,-163.43"/>
<polygon fill="midnightblue" stroke="midnightblue" points="160.84,-160.2 150.3,-159.17 157.9,-166.55 160.84,-160.2"/>
</g>
<!-- Node11 -->
<g id="node11" class="node">
<title>Node11</title>
<g id="a_node11"><a xlink:title=" ">
<polygon fill="white" stroke="#bfbfbf" points="177.63,-140 177.63,-159 227.63,-159 227.63,-140 177.63,-140"/>
<text text-anchor="middle" x="202.63" y="-147" font-family="Helvetica,sans-Serif" font-size="10.00">ranges</text>
</a>
</g>
</g>
<!-- Node6&#45;&gt;Node11 -->
<g id="edge10" class="edge">
<title>Node6&#45;&gt;Node11</title>
<path fill="none" stroke="midnightblue" d="M262.33,-206.73C251.36,-196.4 232.92,-179.04 219.44,-166.33"/>
<polygon fill="midnightblue" stroke="midnightblue" points="221.47,-163.44 211.79,-159.13 216.67,-168.53 221.47,-163.44"/>
</g>
<!-- Node12 -->
<g id="node12" class="node">
<title>Node12</title>
<g id="a_node12"><a xlink:title=" ">
<polygon fill="white" stroke="#bfbfbf" points="115.13,-67.5 115.13,-97.5 240.13,-97.5 240.13,-67.5 115.13,-67.5"/>
<text text-anchor="start" x="123.13" y="-85.5" font-family="Helvetica,sans-Serif" font-size="10.00">network_butcher/onnx</text>
<text text-anchor="middle" x="177.63" y="-74.5" font-family="Helvetica,sans-Serif" font-size="10.00">_proto/onnx.pb.h</text>
</a>
</g>
</g>
<!-- Node6&#45;&gt;Node12 -->
<g id="edge11" class="edge">
<title>Node6&#45;&gt;Node12</title>
<path fill="none" stroke="midnightblue" d="M198.09,-211.59C128.83,-206.19 32.29,-193.63 8.63,-165 -23.58,-126.01 45.45,-104.34 104.76,-93.32"/>
<polygon fill="midnightblue" stroke="midnightblue" points="105.7,-96.7 114.94,-91.51 104.48,-89.81 105.7,-96.7"/>
</g>
<!-- Node13 -->
<g id="node13" class="node">
<title>Node13</title>
<g id="a_node13"><a xlink:href="traits_8h.html" target="_top" xlink:title=" ">
<polygon fill="white" stroke="black" points="439.63,-134.5 439.63,-164.5 567.63,-164.5 567.63,-134.5 439.63,-134.5"/>
<text text-anchor="start" x="447.63" y="-152.5" font-family="Helvetica,sans-Serif" font-size="10.00">network_butcher/Traits</text>
<text text-anchor="middle" x="503.63" y="-141.5" font-family="Helvetica,sans-Serif" font-size="10.00">/traits.h</text>
</a>
</g>
</g>
<!-- Node6&#45;&gt;Node13 -->
<g id="edge12" class="edge">
<title>Node6&#45;&gt;Node13</title>
<path fill="none" stroke="midnightblue" d="M302.44,-206.87C338.38,-196.8 398.64,-179.91 443.87,-167.24"/>
<polygon fill="midnightblue" stroke="midnightblue" points="444.88,-170.6 453.56,-164.53 442.99,-163.86 444.88,-170.6"/>
</g>
<!-- Node18 -->
<g id="node18" class="node">
<title>Node18</title>
<g id="a_node18"><a xlink:href="type__info_8h.html" target="_top" xlink:title=" ">
<polygon fill="white" stroke="black" points="588.13,-67.5 588.13,-97.5 717.13,-97.5 717.13,-67.5 588.13,-67.5"/>
<text text-anchor="start" x="596.13" y="-85.5" font-family="Helvetica,sans-Serif" font-size="10.00">network_butcher/Types</text>
<text text-anchor="middle" x="652.63" y="-74.5" font-family="Helvetica,sans-Serif" font-size="10.00">/type_info.h</text>
</a>
</g>
</g>
<!-- Node6&#45;&gt;Node18 -->
<g id="edge30" class="edge">
<title>Node6&#45;&gt;Node18</title>
<path fill="none" stroke="midnightblue" d="M268.72,-206.77C263.81,-190.21 256.11,-154.09 274.63,-134 318.85,-86.04 496.03,-106.66 578.12,-97.75"/>
<polygon fill="midnightblue" stroke="midnightblue" points="578.65,-101.21 588.11,-96.44 577.74,-94.27 578.65,-101.21"/>
</g>
<!-- Node21 -->
<g id="node21" class="node">
<title>Node21</title>
<g id="a_node21"><a xlink:href="dense__tensor_8h.html" target="_top" xlink:title=" ">
<polygon fill="white" stroke="black" points="586.13,-134.5 586.13,-164.5 715.13,-164.5 715.13,-134.5 586.13,-134.5"/>
<text text-anchor="start" x="594.13" y="-152.5" font-family="Helvetica,sans-Serif" font-size="10.00">network_butcher/Types</text>
<text text-anchor="middle" x="650.63" y="-141.5" font-family="Helvetica,sans-Serif" font-size="10.00">/dense_tensor.h</text>
</a>
</g>
</g>
<!-- Node6&#45;&gt;Node21 -->
<g id="edge22" class="edge">
<title>Node6&#45;&gt;Node21</title>
<path fill="none" stroke="midnightblue" d="M319.43,-207C378.05,-197.32 480.09,-180.82 567.63,-165 570.41,-164.5 573.24,-163.98 576.11,-163.45"/>
<polygon fill="midnightblue" stroke="midnightblue" points="576.77,-166.88 585.96,-161.6 575.48,-160 576.77,-166.88"/>
</g>
<!-- Node13&#45;&gt;Node12 -->
<g id="edge21" class="edge">
<title>Node13&#45;&gt;Node12</title>
<path fill="none" stroke="midnightblue" d="M439.61,-135.74C385.21,-124.89 307.13,-109.32 250.38,-98"/>
<polygon fill="midnightblue" stroke="midnightblue" points="250.89,-94.54 240.39,-96.01 249.52,-101.4 250.89,-94.54"/>
</g>
<!-- Node14 -->
<g id="node14" class="node">
<title>Node14</title>
<g id="a_node14"><a xlink:title=" ">
<polygon fill="white" stroke="#bfbfbf" points="537.63,-73 537.63,-92 569.63,-92 569.63,-73 537.63,-73"/>
<text text-anchor="middle" x="553.63" y="-80" font-family="Helvetica,sans-Serif" font-size="10.00">set</text>
</a>
</g>
</g>
<!-- Node13&#45;&gt;Node14 -->
<g id="edge13" class="edge">
<title>Node13&#45;&gt;Node14</title>
<path fill="none" stroke="midnightblue" d="M514.48,-134.4C522.2,-124.36 532.6,-110.84 540.74,-100.25"/>
<polygon fill="midnightblue" stroke="midnightblue" points="543.62,-102.25 546.94,-92.19 538.07,-97.99 543.62,-102.25"/>
</g>
<!-- Node15 -->
<g id="node15" class="node">
<title>Node15</title>
<g id="a_node15"><a xlink:title=" ">
<polygon fill="white" stroke="#bfbfbf" points="481.63,-73 481.63,-92 519.63,-92 519.63,-73 481.63,-73"/>
<text text-anchor="middle" x="500.63" y="-80" font-family="Helvetica,sans-Serif" font-size="10.00">map</text>
</a>
</g>
</g>
<!-- Node13&#45;&gt;Node15 -->
<g id="edge14" class="edge">
<title>Node13&#45;&gt;Node15</title>
<path fill="none" stroke="midnightblue" d="M502.98,-134.4C502.54,-124.96 501.97,-112.45 501.49,-102.19"/>
<polygon fill="midnightblue" stroke="midnightblue" points="504.99,-102.02 501.03,-92.19 498,-102.35 504.99,-102.02"/>
</g>
<!-- Node16 -->
<g id="node16" class="node">
<title>Node16</title>
<g id="a_node16"><a xlink:title=" ">
<polygon fill="white" stroke="#bfbfbf" points="773.63,-73 773.63,-92 831.63,-92 831.63,-73 773.63,-73"/>
<text text-anchor="middle" x="802.63" y="-80" font-family="Helvetica,sans-Serif" font-size="10.00">memory</text>
</a>
</g>
</g>
<!-- Node13&#45;&gt;Node16 -->
<g id="edge15" class="edge">
<title>Node13&#45;&gt;Node16</title>
<path fill="none" stroke="midnightblue" d="M567.77,-134.56C627.21,-121.64 713.71,-102.83 763.46,-92.02"/>
<polygon fill="midnightblue" stroke="midnightblue" points="764.46,-95.38 773.49,-89.83 762.98,-88.54 764.46,-95.38"/>
</g>
<!-- Node17 -->
<g id="node17" class="node">
<title>Node17</title>
<g id="a_node17"><a xlink:href="starting__traits_8h.html" target="_top" xlink:title=" ">
<polygon fill="white" stroke="black" points="451.63,-0.5 451.63,-30.5 579.63,-30.5 579.63,-0.5 451.63,-0.5"/>
<text text-anchor="start" x="459.63" y="-18.5" font-family="Helvetica,sans-Serif" font-size="10.00">network_butcher/Traits</text>
<text text-anchor="middle" x="515.63" y="-7.5" font-family="Helvetica,sans-Serif" font-size="10.00">/starting_traits.h</text>
</a>
</g>
</g>
<!-- Node13&#45;&gt;Node17 -->
<g id="edge16" class="edge">
<title>Node13&#45;&gt;Node17</title>
<path fill="none" stroke="midnightblue" d="M491.83,-134.4C479.75,-118.18 463.9,-90.72 472.63,-67 476.61,-56.19 484.04,-46.12 491.63,-37.86"/>
<polygon fill="midnightblue" stroke="midnightblue" points="494.32,-40.11 498.83,-30.53 489.33,-35.2 494.32,-40.11"/>
</g>
<!-- Node13&#45;&gt;Node18 -->
<g id="edge17" class="edge">
<title>Node13&#45;&gt;Node18</title>
<path fill="none" stroke="midnightblue" d="M535.96,-134.4C557.93,-124.81 587.19,-112.05 610.91,-101.7"/>
<polygon fill="midnightblue" stroke="midnightblue" points="612.6,-104.78 620.36,-97.58 609.8,-98.37 612.6,-104.78"/>
</g>
<!-- Node18&#45;&gt;Node17 -->
<g id="edge20" class="edge">
<title>Node18&#45;&gt;Node17</title>
<path fill="none" stroke="midnightblue" d="M622.9,-67.4C602.89,-57.9 576.28,-45.28 554.58,-34.98"/>
<polygon fill="midnightblue" stroke="midnightblue" points="555.84,-31.7 545.3,-30.58 552.83,-38.03 555.84,-31.7"/>
</g>
<!-- Node19 -->
<g id="node19" class="node">
<title>Node19</title>
<g id="a_node19"><a xlink:title=" ">
<polygon fill="white" stroke="#bfbfbf" points="644.63,-6 644.63,-25 688.63,-25 688.63,-6 644.63,-6"/>
<text text-anchor="middle" x="666.63" y="-13" font-family="Helvetica,sans-Serif" font-size="10.00">string</text>
</a>
</g>
</g>
<!-- Node18&#45;&gt;Node19 -->
<g id="edge18" class="edge">
<title>Node18&#45;&gt;Node19</title>
<path fill="none" stroke="midnightblue" d="M655.67,-67.4C657.7,-57.96 660.4,-45.45 662.61,-35.19"/>
<polygon fill="midnightblue" stroke="midnightblue" points="666.07,-35.71 664.76,-25.19 659.23,-34.23 666.07,-35.71"/>
</g>
<!-- Node20 -->
<g id="node20" class="node">
<title>Node20</title>
<g id="a_node20"><a xlink:title=" ">
<polygon fill="white" stroke="#bfbfbf" points="773.13,-6 773.13,-25 820.13,-25 820.13,-6 773.13,-6"/>
<text text-anchor="middle" x="796.63" y="-13" font-family="Helvetica,sans-Serif" font-size="10.00">vector</text>
</a>
</g>
</g>
<!-- Node18&#45;&gt;Node20 -->
<g id="edge19" class="edge">
<title>Node18&#45;&gt;Node20</title>
<path fill="none" stroke="midnightblue" d="M683.88,-67.4C709.03,-56.04 744.08,-40.22 768.4,-29.24"/>
<polygon fill="midnightblue" stroke="midnightblue" points="770.11,-32.31 777.78,-25.01 767.23,-25.93 770.11,-32.31"/>
</g>
<!-- Node21&#45;&gt;Node6 -->
<g id="edge28" class="edge">
<title>Node21&#45;&gt;Node6</title>
<path fill="none" stroke="midnightblue" d="M588.35,-164.51C587.44,-164.67 586.53,-164.84 585.63,-165 502.53,-180.02 406.37,-195.65 342.51,-205.47"/>
<polygon fill="midnightblue" stroke="midnightblue" points="341.9,-202.02 332.54,-207 342.95,-208.94 341.9,-202.02"/>
</g>
<!-- Node21&#45;&gt;Node18 -->
<g id="edge23" class="edge">
<title>Node21&#45;&gt;Node18</title>
<path fill="none" stroke="midnightblue" d="M651.07,-134.4C651.3,-126.64 651.61,-116.81 651.88,-107.86"/>
<polygon fill="midnightblue" stroke="midnightblue" points="655.39,-107.68 652.2,-97.58 648.39,-107.46 655.39,-107.68"/>
</g>
<!-- Node21&#45;&gt;Node20 -->
<g id="edge29" class="edge">
<title>Node21&#45;&gt;Node20</title>
<path fill="none" stroke="midnightblue" d="M675.47,-134.39C690.95,-125.04 710.84,-111.95 726.63,-98 749.36,-77.91 771.47,-50.45 784.56,-33.09"/>
<polygon fill="midnightblue" stroke="midnightblue" points="787.4,-35.15 790.55,-25.03 781.78,-30.98 787.4,-35.15"/>
</g>
<!-- Node22 -->
<g id="node22" class="node">
<title>Node22</title>
<g id="a_node22"><a xlink:href="variant__attribute_8h.html" target="_top" xlink:title=" ">
<polygon fill="white" stroke="black" points="850.13,-67.5 850.13,-97.5 979.13,-97.5 979.13,-67.5 850.13,-67.5"/>
<text text-anchor="start" x="858.13" y="-85.5" font-family="Helvetica,sans-Serif" font-size="10.00">network_butcher/Types</text>
<text text-anchor="middle" x="914.63" y="-74.5" font-family="Helvetica,sans-Serif" font-size="10.00">/variant_attribute.h</text>
</a>
</g>
</g>
<!-- Node21&#45;&gt;Node22 -->
<g id="edge24" class="edge">
<title>Node21&#45;&gt;Node22</title>
<path fill="none" stroke="midnightblue" d="M707.59,-134.48C748.65,-124.37 804.22,-110.68 847.45,-100.04"/>
<polygon fill="midnightblue" stroke="midnightblue" points="848.45,-103.4 857.32,-97.61 846.77,-96.6 848.45,-103.4"/>
</g>
<!-- Node22&#45;&gt;Node19 -->
<g id="edge25" class="edge">
<title>Node22&#45;&gt;Node19</title>
<path fill="none" stroke="midnightblue" d="M861.12,-67.48C811.64,-54.51 739.72,-35.66 698.62,-24.88"/>
<polygon fill="midnightblue" stroke="midnightblue" points="699.43,-21.48 688.87,-22.33 697.66,-28.25 699.43,-21.48"/>
</g>
<!-- Node22&#45;&gt;Node20 -->
<g id="edge27" class="edge">
<title>Node22&#45;&gt;Node20</title>
<path fill="none" stroke="midnightblue" d="M889.03,-67.4C868.78,-56.24 840.71,-40.78 820.84,-29.83"/>
<polygon fill="midnightblue" stroke="midnightblue" points="822.52,-26.77 812.07,-25.01 819.14,-32.9 822.52,-26.77"/>
</g>
<!-- Node23 -->
<g id="node23" class="node">
<title>Node23</title>
<g id="a_node23"><a xlink:title=" ">
<polygon fill="white" stroke="#bfbfbf" points="889.13,-6 889.13,-25 940.13,-25 940.13,-6 889.13,-6"/>
<text text-anchor="middle" x="914.63" y="-13" font-family="Helvetica,sans-Serif" font-size="10.00">variant</text>
</a>
</g>
</g>
<!-- Node22&#45;&gt;Node23 -->
<g id="edge26" class="edge">
<title>Node22&#45;&gt;Node23</title>
<path fill="none" stroke="midnightblue" d="M914.63,-67.4C914.63,-58.06 914.63,-45.71 914.63,-35.52"/>
<polygon fill="midnightblue" stroke="midnightblue" points="918.13,-35.19 914.63,-25.19 911.13,-35.19 918.13,-35.19"/>
</g>
<!-- Node25 -->
<g id="node25" class="node">
<title>Node25</title>
<g id="a_node25"><a xlink:href="weighted__graph_8h.html" target="_top" xlink:title=" ">
<polygon fill="white" stroke="black" points="531.63,-335.5 531.63,-365.5 681.63,-365.5 681.63,-335.5 531.63,-335.5"/>
<text text-anchor="start" x="539.63" y="-353.5" font-family="Helvetica,sans-Serif" font-size="10.00">network_butcher/K&#45;shortest</text>
<text text-anchor="middle" x="606.63" y="-342.5" font-family="Helvetica,sans-Serif" font-size="10.00">_path/weighted_graph.h</text>
</a>
</g>
</g>
<!-- Node24&#45;&gt;Node25 -->
<g id="edge32" class="edge">
<title>Node24&#45;&gt;Node25</title>
<path fill="none" stroke="midnightblue" d="M620.92,-469.37C618.2,-446.94 612.86,-402.92 609.54,-375.49"/>
<polygon fill="midnightblue" stroke="midnightblue" points="613.01,-375.03 608.33,-365.52 606.06,-375.87 613.01,-375.03"/>
</g>
<!-- Node26 -->
<g id="node26" class="node">
<title>Node26</title>
<g id="a_node26"><a xlink:href="mwgraph_8h.html" target="_top" xlink:title=" ">
<polygon fill="white" stroke="black" points="635.13,-402.5 635.13,-432.5 778.13,-432.5 778.13,-402.5 635.13,-402.5"/>
<text text-anchor="start" x="643.13" y="-420.5" font-family="Helvetica,sans-Serif" font-size="10.00">network_butcher/Network</text>
<text text-anchor="middle" x="706.63" y="-409.5" font-family="Helvetica,sans-Serif" font-size="10.00">/mwgraph.h</text>
</a>
</g>
</g>
<!-- Node24&#45;&gt;Node26 -->
<g id="edge34" class="edge">
<title>Node24&#45;&gt;Node26</title>
<path fill="none" stroke="midnightblue" d="M640.86,-469.4C652.42,-460.45 667.56,-448.74 680.4,-438.8"/>
<polygon fill="midnightblue" stroke="midnightblue" points="682.67,-441.46 688.44,-432.58 678.39,-435.93 682.67,-441.46"/>
</g>
<!-- Node25&#45;&gt;Node13 -->
<g id="edge33" class="edge">
<title>Node25&#45;&gt;Node13</title>
<path fill="none" stroke="midnightblue" d="M599.22,-335.19C581.63,-301.2 537.2,-215.35 515.68,-173.78"/>
<polygon fill="midnightblue" stroke="midnightblue" points="518.68,-171.95 510.97,-164.68 512.46,-175.17 518.68,-171.95"/>
</g>
<!-- Node27 -->
<g id="node27" class="node">
<title>Node27</title>
<g id="a_node27"><a xlink:href="graph_8h.html" target="_top" xlink:title=" ">
<polygon fill="white" stroke="black" points="700.13,-335.5 700.13,-365.5 843.13,-365.5 843.13,-335.5 700.13,-335.5"/>
<text text-anchor="start" x="708.13" y="-353.5" font-family="Helvetica,sans-Serif" font-size="10.00">network_butcher/Network</text>
<text text-anchor="middle" x="771.63" y="-342.5" font-family="Helvetica,sans-Serif" font-size="10.00">/graph.h</text>
</a>
</g>
</g>
<!-- Node26&#45;&gt;Node27 -->
<g id="edge35" class="edge">
<title>Node26&#45;&gt;Node27</title>
<path fill="none" stroke="midnightblue" d="M720.74,-402.4C729.42,-393.71 740.73,-382.4 750.47,-372.66"/>
<polygon fill="midnightblue" stroke="midnightblue" points="752.96,-375.12 757.55,-365.58 748.01,-370.17 752.96,-375.12"/>
</g>
<!-- Node27&#45;&gt;Node7 -->
<g id="edge36" class="edge">
<title>Node27&#45;&gt;Node7</title>
<path fill="none" stroke="midnightblue" d="M723.47,-335.46C693.03,-326.13 653.08,-313.05 618.63,-299 512.13,-255.56 390.75,-191.4 339.97,-163.86"/>
<polygon fill="midnightblue" stroke="midnightblue" points="341.51,-160.71 331.06,-159 338.17,-166.86 341.51,-160.71"/>
</g>
<!-- Node27&#45;&gt;Node8 -->
<g id="edge37" class="edge">
<title>Node27&#45;&gt;Node8</title>
<path fill="none" stroke="midnightblue" d="M744.75,-335.35C674.82,-298.53 487.9,-200.13 419.32,-164.02"/>
<polygon fill="midnightblue" stroke="midnightblue" points="420.57,-160.73 410.09,-159.16 417.31,-166.92 420.57,-160.73"/>
</g>
<!-- Node27&#45;&gt;Node20 -->
<g id="edge39" class="edge">
<title>Node27&#45;&gt;Node20</title>
<path fill="none" stroke="midnightblue" d="M843.15,-347.79C931.03,-341.45 1068.63,-315.82 1068.63,-217.5 1068.63,-217.5 1068.63,-217.5 1068.63,-148.5 1068.63,-97.74 1032.53,-92.48 988.63,-67 961.76,-51.4 877.53,-32.73 830.04,-23.05"/>
<polygon fill="midnightblue" stroke="midnightblue" points="830.71,-19.61 820.22,-21.07 829.33,-26.48 830.71,-19.61"/>
</g>
<!-- Node28 -->
<g id="node28" class="node">
<title>Node28</title>
<g id="a_node28"><a xlink:title=" ">
<polygon fill="white" stroke="#bfbfbf" points="733.13,-140 733.13,-159 778.13,-159 778.13,-140 733.13,-140"/>
<text text-anchor="middle" x="755.63" y="-147" font-family="Helvetica,sans-Serif" font-size="10.00">utility</text>
</a>
</g>
</g>
<!-- Node27&#45;&gt;Node28 -->
<g id="edge38" class="edge">
<title>Node27&#45;&gt;Node28</title>
<path fill="none" stroke="midnightblue" d="M751.51,-335.18C725.66,-315.4 682.06,-277.03 664.63,-232 659.66,-219.15 657.64,-212.87 664.63,-201 668.31,-194.75 703.14,-176.49 728.62,-163.73"/>
<polygon fill="midnightblue" stroke="midnightblue" points="730.45,-166.73 737.84,-159.15 727.33,-160.47 730.45,-166.73"/>
</g>
<!-- Node29 -->
<g id="node29" class="node">
<title>Node29</title>
<g id="a_node29"><a xlink:href="content_8h.html" target="_top" xlink:title=" ">
<polygon fill="white" stroke="black" points="911.13,-201.5 911.13,-231.5 1040.13,-231.5 1040.13,-201.5 911.13,-201.5"/>
<text text-anchor="start" x="919.13" y="-219.5" font-family="Helvetica,sans-Serif" font-size="10.00">network_butcher/Types</text>
<text text-anchor="middle" x="975.63" y="-208.5" font-family="Helvetica,sans-Serif" font-size="10.00">/content.h</text>
</a>
</g>
</g>
<!-- Node27&#45;&gt;Node29 -->
<g id="edge40" class="edge">
<title>Node27&#45;&gt;Node29</title>
<path fill="none" stroke="midnightblue" d="M843.4,-337.06C871.23,-329.55 902.01,-317.66 925.63,-299 944.75,-283.89 958.39,-259.31 966.54,-241.09"/>
<polygon fill="midnightblue" stroke="midnightblue" points="969.83,-242.29 970.5,-231.72 963.38,-239.56 969.83,-242.29"/>
</g>
<!-- Node30 -->
<g id="node30" class="node">
<title>Node30</title>
<g id="a_node30"><a xlink:href="node_8h.html" target="_top" xlink:title=" ">
<polygon fill="white" stroke="black" points="673.13,-201.5 673.13,-231.5 816.13,-231.5 816.13,-201.5 673.13,-201.5"/>
<text text-anchor="start" x="681.13" y="-219.5" font-family="Helvetica,sans-Serif" font-size="10.00">network_butcher/Network</text>
<text text-anchor="middle" x="744.63" y="-208.5" font-family="Helvetica,sans-Serif" font-size="10.00">/node.h</text>
</a>
</g>
</g>
<!-- Node27&#45;&gt;Node30 -->
<g id="edge43" class="edge">
<title>Node27&#45;&gt;Node30</title>
<path fill="none" stroke="midnightblue" d="M768.74,-335.37C764.15,-312.94 755.15,-268.92 749.54,-241.49"/>
<polygon fill="midnightblue" stroke="midnightblue" points="752.93,-240.62 747.5,-231.52 746.07,-242.02 752.93,-240.62"/>
</g>
<!-- Node31 -->
<g id="node31" class="node">
<title>Node31</title>
<g id="a_node31"><a xlink:href="node__traits_8h.html" target="_top" xlink:title=" ">
<polygon fill="white" stroke="black" points="773.13,-268.5 773.13,-298.5 916.13,-298.5 916.13,-268.5 773.13,-268.5"/>
<text text-anchor="start" x="781.13" y="-286.5" font-family="Helvetica,sans-Serif" font-size="10.00">network_butcher/Network</text>
<text text-anchor="middle" x="844.63" y="-275.5" font-family="Helvetica,sans-Serif" font-size="10.00">/node_traits.h</text>
</a>
</g>
</g>
<!-- Node27&#45;&gt;Node31 -->
<g id="edge48" class="edge">
<title>Node27&#45;&gt;Node31</title>
<path fill="none" stroke="midnightblue" d="M787.47,-335.4C797.32,-326.62 810.17,-315.18 821.19,-305.37"/>
<polygon fill="midnightblue" stroke="midnightblue" points="823.68,-307.84 828.82,-298.58 819.03,-302.61 823.68,-307.84"/>
</g>
<!-- Node29&#45;&gt;Node21 -->
<g id="edge41" class="edge">
<title>Node29&#45;&gt;Node21</title>
<path fill="none" stroke="midnightblue" d="M911.03,-202.58C857.51,-191.88 781.39,-176.65 725.27,-165.43"/>
<polygon fill="midnightblue" stroke="midnightblue" points="725.88,-161.98 715.38,-163.45 724.5,-168.84 725.88,-161.98"/>
</g>
<!-- Node29&#45;&gt;Node22 -->
<g id="edge42" class="edge">
<title>Node29&#45;&gt;Node22</title>
<path fill="none" stroke="midnightblue" d="M969.1,-201.37C958.65,-178.75 938.03,-134.14 925.38,-106.76"/>
<polygon fill="midnightblue" stroke="midnightblue" points="928.48,-105.13 921.11,-97.52 922.13,-108.07 928.48,-105.13"/>
</g>
<!-- Node30&#45;&gt;Node13 -->
<g id="edge45" class="edge">
<title>Node30&#45;&gt;Node13</title>
<path fill="none" stroke="midnightblue" d="M692.63,-201.48C655.39,-191.43 605.06,-177.86 565.7,-167.24"/>
<polygon fill="midnightblue" stroke="midnightblue" points="566.52,-163.84 555.95,-164.61 564.69,-170.59 566.52,-163.84"/>
</g>
<!-- Node30&#45;&gt;Node16 -->
<g id="edge46" class="edge">
<title>Node30&#45;&gt;Node16</title>
<path fill="none" stroke="midnightblue" d="M760.53,-201.1C769.88,-191.73 781.11,-178.73 787.63,-165 797.17,-144.94 800.66,-119.44 801.92,-102.35"/>
<polygon fill="midnightblue" stroke="midnightblue" points="805.44,-102.21 802.49,-92.04 798.45,-101.83 805.44,-102.21"/>
</g>
<!-- Node30&#45;&gt;Node21 -->
<g id="edge44" class="edge">
<title>Node30&#45;&gt;Node21</title>
<path fill="none" stroke="midnightblue" d="M724.23,-201.4C711.18,-192.37 694.04,-180.51 679.58,-170.52"/>
<polygon fill="midnightblue" stroke="midnightblue" points="681.2,-167.39 670.99,-164.58 677.22,-173.14 681.2,-167.39"/>
</g>
<!-- Node30&#45;&gt;Node28 -->
<g id="edge47" class="edge">
<title>Node30&#45;&gt;Node28</title>
<path fill="none" stroke="midnightblue" d="M747.02,-201.4C748.61,-191.96 750.73,-179.45 752.47,-169.19"/>
<polygon fill="midnightblue" stroke="midnightblue" points="755.94,-169.64 754.16,-159.19 749.04,-168.47 755.94,-169.64"/>
</g>
<!-- Node31&#45;&gt;Node16 -->
<g id="edge49" class="edge">
<title>Node31&#45;&gt;Node16</title>
<path fill="none" stroke="midnightblue" d="M850.45,-268.24C860.67,-240.88 878.94,-179.67 858.63,-134 851.95,-118.98 838.36,-106.55 826.24,-97.78"/>
<polygon fill="midnightblue" stroke="midnightblue" points="828.03,-94.77 817.79,-92.05 824.1,-100.56 828.03,-94.77"/>
</g>
<!-- Node31&#45;&gt;Node18 -->
<g id="edge52" class="edge">
<title>Node31&#45;&gt;Node18</title>
<path fill="none" stroke="midnightblue" d="M843.54,-268.1C840.46,-238.22 829.01,-169.31 787.63,-134 770.22,-119.14 748.01,-108.45 726.65,-100.85"/>
<polygon fill="midnightblue" stroke="midnightblue" points="727.52,-97.45 716.92,-97.57 725.28,-104.08 727.52,-97.45"/>
</g>
<!-- Node31&#45;&gt;Node29 -->
<g id="edge50" class="edge">
<title>Node31&#45;&gt;Node29</title>
<path fill="none" stroke="midnightblue" d="M873.06,-268.4C892.11,-258.94 917.41,-246.39 938.11,-236.12"/>
<polygon fill="midnightblue" stroke="midnightblue" points="939.86,-239.16 947.26,-231.58 936.75,-232.89 939.86,-239.16"/>
</g>
<!-- Node31&#45;&gt;Node30 -->
<g id="edge51" class="edge">
<title>Node31&#45;&gt;Node30</title>
<path fill="none" stroke="midnightblue" d="M822.93,-268.4C808.91,-259.28 790.46,-247.29 774.99,-237.24"/>
<polygon fill="midnightblue" stroke="midnightblue" points="776.58,-234.09 766.29,-231.58 772.76,-239.96 776.58,-234.09"/>
</g>
<!-- Node32&#45;&gt;Node13 -->
<g id="edge59" class="edge">
<title>Node32&#45;&gt;Node13</title>
<path fill="none" stroke="midnightblue" d="M513.66,-670.26C509.52,-641.74 503.63,-593.91 503.63,-552.5 503.63,-552.5 503.63,-552.5 503.63,-282.5 503.63,-245 503.63,-201.51 503.63,-175.01"/>
<polygon fill="midnightblue" stroke="midnightblue" points="507.13,-174.76 503.63,-164.76 500.13,-174.76 507.13,-174.76"/>
</g>
<!-- Node33 -->
<g id="node33" class="node">
<title>Node33</title>
<g id="a_node33"><a xlink:href="graph__traits_8h.html" target="_top" xlink:title=" ">
<polygon fill="white" stroke="black" points="700.13,-536.5 700.13,-566.5 843.13,-566.5 843.13,-536.5 700.13,-536.5"/>
<text text-anchor="start" x="708.13" y="-554.5" font-family="Helvetica,sans-Serif" font-size="10.00">network_butcher/Network</text>
<text text-anchor="middle" x="771.63" y="-543.5" font-family="Helvetica,sans-Serif" font-size="10.00">/graph_traits.h</text>
</a>
</g>
</g>
<!-- Node32&#45;&gt;Node33 -->
<g id="edge54" class="edge">
<title>Node32&#45;&gt;Node33</title>
<path fill="none" stroke="midnightblue" d="M589.27,-674.88C618.72,-664.8 652.45,-651.11 680.63,-634 707.83,-617.49 734.4,-592.34 751.74,-574.35"/>
<polygon fill="midnightblue" stroke="midnightblue" points="754.7,-576.31 759.03,-566.64 749.61,-571.5 754.7,-576.31"/>
</g>
<!-- Node34 -->
<g id="node34" class="node">
<title>Node34</title>
<g id="a_node34"><a xlink:href="parameters_8h.html" target="_top" xlink:title=" ">
<polygon fill="white" stroke="black" points="542.13,-603.5 542.13,-633.5 671.13,-633.5 671.13,-603.5 542.13,-603.5"/>
<text text-anchor="start" x="550.13" y="-621.5" font-family="Helvetica,sans-Serif" font-size="10.00">network_butcher/Types</text>
<text text-anchor="middle" x="606.63" y="-610.5" font-family="Helvetica,sans-Serif" font-size="10.00">/parameters.h</text>
</a>
</g>
</g>
<!-- Node32&#45;&gt;Node34 -->
<g id="edge60" class="edge">
<title>Node32&#45;&gt;Node34</title>
<path fill="none" stroke="midnightblue" d="M547.27,-670.19C558.63,-660.49 571.45,-649.54 582.27,-640.3"/>
<polygon fill="midnightblue" stroke="midnightblue" points="584.76,-642.78 590.09,-633.63 580.21,-637.46 584.76,-642.78"/>
</g>
<!-- Node33&#45;&gt;Node24 -->
<g id="edge57" class="edge">
<title>Node33&#45;&gt;Node24</title>
<path fill="none" stroke="midnightblue" d="M739.3,-536.4C717.33,-526.81 688.08,-514.05 664.35,-503.7"/>
<polygon fill="midnightblue" stroke="midnightblue" points="665.46,-500.37 654.9,-499.58 662.67,-506.78 665.46,-500.37"/>
</g>
<!-- Node33&#45;&gt;Node26 -->
<g id="edge56" class="edge">
<title>Node33&#45;&gt;Node26</title>
<path fill="none" stroke="midnightblue" d="M764.68,-536.37C753.53,-513.75 731.57,-469.14 718.09,-441.76"/>
<polygon fill="midnightblue" stroke="midnightblue" points="721.09,-439.95 713.54,-432.52 714.82,-443.04 721.09,-439.95"/>
</g>
<!-- Node33&#45;&gt;Node27 -->
<g id="edge55" class="edge">
<title>Node33&#45;&gt;Node27</title>
<path fill="none" stroke="midnightblue" d="M775.67,-536.11C782.57,-509.52 795.2,-450.95 787.63,-402 786.25,-393.08 783.58,-383.58 780.81,-375.26"/>
<polygon fill="midnightblue" stroke="midnightblue" points="784.1,-374.06 777.46,-365.8 777.5,-376.4 784.1,-374.06"/>
</g>
<!-- Node33&#45;&gt;Node29 -->
<g id="edge58" class="edge">
<title>Node33&#45;&gt;Node29</title>
<path fill="none" stroke="midnightblue" d="M843.36,-536.59C904.53,-520.07 982.63,-485.8 982.63,-418.5 982.63,-418.5 982.63,-418.5 982.63,-349.5 982.63,-311.95 979.77,-268.48 977.71,-241.99"/>
<polygon fill="midnightblue" stroke="midnightblue" points="981.17,-241.43 976.88,-231.75 974.2,-241.99 981.17,-241.43"/>
</g>
<!-- Node34&#45;&gt;Node33 -->
<g id="edge61" class="edge">
<title>Node34&#45;&gt;Node33</title>
<path fill="none" stroke="midnightblue" d="M642.43,-603.4C667.08,-593.69 700.02,-580.71 726.47,-570.29"/>
<polygon fill="midnightblue" stroke="midnightblue" points="727.88,-573.5 735.9,-566.58 725.31,-566.99 727.88,-573.5"/>
</g>
<!-- Node35 -->
<g id="node35" class="node">
<title>Node35</title>
<g id="a_node35"><a xlink:href="ksp__method_8h.html" target="_top" xlink:title=" ">
<polygon fill="white" stroke="black" points="531.63,-536.5 531.63,-566.5 681.63,-566.5 681.63,-536.5 531.63,-536.5"/>
<text text-anchor="start" x="539.63" y="-554.5" font-family="Helvetica,sans-Serif" font-size="10.00">network_butcher/K&#45;shortest</text>
<text text-anchor="middle" x="606.63" y="-543.5" font-family="Helvetica,sans-Serif" font-size="10.00">_path/ksp_method.h</text>
</a>
</g>
</g>
<!-- Node34&#45;&gt;Node35 -->
<g id="edge62" class="edge">
<title>Node34&#45;&gt;Node35</title>
<path fill="none" stroke="midnightblue" d="M606.63,-603.4C606.63,-595.64 606.63,-585.81 606.63,-576.86"/>
<polygon fill="midnightblue" stroke="midnightblue" points="610.13,-576.58 606.63,-566.58 603.13,-576.58 610.13,-576.58"/>
</g>
<!-- Node36&#45;&gt;Node6 -->
<g id="edge65" class="edge">
<title>Node36&#45;&gt;Node6</title>
<path fill="none" stroke="midnightblue" d="M349.82,-670.4C342.72,-642.01 332.63,-594.29 332.63,-552.5 332.63,-552.5 332.63,-552.5 332.63,-349.5 332.63,-304.51 303.06,-258.18 285.1,-234.19"/>
<polygon fill="midnightblue" stroke="midnightblue" points="287.76,-231.9 278.87,-226.13 282.22,-236.18 287.76,-231.9"/>
</g>
<!-- Node36&#45;&gt;Node13 -->
<g id="edge64" class="edge">
<title>Node36&#45;&gt;Node13</title>
<path fill="none" stroke="midnightblue" d="M360.61,-670.26C364.74,-641.74 370.63,-593.91 370.63,-552.5 370.63,-552.5 370.63,-552.5 370.63,-349.5 370.63,-273.27 438.93,-204.1 477.64,-171.02"/>
<polygon fill="midnightblue" stroke="midnightblue" points="479.99,-173.62 485.42,-164.52 475.5,-168.25 479.99,-173.62"/>
</g>
<!-- Node37&#45;&gt;Node32 -->
<g id="edge67" class="edge">
<title>Node37&#45;&gt;Node32</title>
<path fill="none" stroke="midnightblue" d="M438.03,-759.34C450.22,-749.87 464.23,-738.98 477.07,-729.01"/>
<polygon fill="midnightblue" stroke="midnightblue" points="479.56,-731.51 485.31,-722.61 475.26,-725.98 479.56,-731.51"/>
</g>
<!-- Node37&#45;&gt;Node36 -->
<g id="edge68" class="edge">
<title>Node37&#45;&gt;Node36</title>
<path fill="none" stroke="midnightblue" d="M391.46,-759.34C386.58,-750.68 381.04,-740.84 375.83,-731.59"/>
<polygon fill="midnightblue" stroke="midnightblue" points="378.73,-729.6 370.77,-722.61 372.63,-733.04 378.73,-729.6"/>
</g>
</g>
</svg>
