<?xml version="1.0" encoding="UTF-8" standalone="no"?>
<!DOCTYPE svg PUBLIC "-//W3C//DTD SVG 1.1//EN"
 "http://www.w3.org/Graphics/SVG/1.1/DTD/svg11.dtd">
<!-- Generated by graphviz version 2.43.0 (0)
 -->
<!-- Title: include/IO_Interaction/Weight_Importer_Helpers/block_aMLLibrary_weight_importer.h Pages: 1 -->
<svg width="544pt" height="541pt"
 viewBox="0.00 0.00 543.50 541.00" xmlns="http://www.w3.org/2000/svg" xmlns:xlink="http://www.w3.org/1999/xlink">
<g id="graph0" class="graph" transform="scale(1 1) rotate(0) translate(4 537)">
<title>include/IO_Interaction/Weight_Importer_Helpers/block_aMLLibrary_weight_importer.h</title>
<polygon fill="white" stroke="transparent" points="-4,4 -4,-537 539.5,-537 539.5,4 -4,4"/>
<!-- Node1 -->
<g id="node1" class="node">
<title>Node1</title>
<g id="a_node1"><a xlink:title=" ">
<polygon fill="#bfbfbf" stroke="black" points="256.5,-480.5 256.5,-532.5 399.5,-532.5 399.5,-480.5 256.5,-480.5"/>
<text text-anchor="start" x="264.5" y="-520.5" font-family="Helvetica,sans-Serif" font-size="10.00">include/IO_Interaction</text>
<text text-anchor="start" x="264.5" y="-509.5" font-family="Helvetica,sans-Serif" font-size="10.00">/Weight_Importer_Helpers</text>
<text text-anchor="start" x="264.5" y="-498.5" font-family="Helvetica,sans-Serif" font-size="10.00">/block_aMLLibrary_weight</text>
<text text-anchor="middle" x="328" y="-487.5" font-family="Helvetica,sans-Serif" font-size="10.00">_importer.h</text>
</a>
</g>
</g>
<!-- Node2 -->
<g id="node2" class="node">
<title>Node2</title>
<g id="a_node2"><a xlink:href="weight__importers_8h.html" target="_top" xlink:title=" ">
<polygon fill="white" stroke="black" points="191.5,-402.5 191.5,-432.5 314.5,-432.5 314.5,-402.5 191.5,-402.5"/>
<text text-anchor="start" x="199.5" y="-420.5" font-family="Helvetica,sans-Serif" font-size="10.00">include/IO_Interaction</text>
<text text-anchor="middle" x="253" y="-409.5" font-family="Helvetica,sans-Serif" font-size="10.00">/weight_importers.h</text>
</a>
</g>
</g>
<!-- Node1&#45;&gt;Node2 -->
<g id="edge1" class="edge">
<title>Node1&#45;&gt;Node2</title>
<path fill="none" stroke="midnightblue" d="M299.52,-472.47C287.69,-458.74 274.58,-443.53 265.3,-432.77"/>
<polygon fill="midnightblue" stroke="midnightblue" points="297.13,-475.05 306.31,-480.34 302.43,-470.48 297.13,-475.05"/>
</g>
<!-- Node15 -->
<g id="node15" class="node">
<title>Node15</title>
<g id="a_node15"><a xlink:href="block__aMLLibrary__weight__importer_8cpp.html" target="_top" xlink:title=" ">
<polygon fill="white" stroke="black" points="332.5,-391.5 332.5,-443.5 475.5,-443.5 475.5,-391.5 332.5,-391.5"/>
<text text-anchor="start" x="340.5" y="-431.5" font-family="Helvetica,sans-Serif" font-size="10.00">src/IO_Interaction</text>
<text text-anchor="start" x="340.5" y="-420.5" font-family="Helvetica,sans-Serif" font-size="10.00">/Weight_Importer_Helpers</text>
<text text-anchor="start" x="340.5" y="-409.5" font-family="Helvetica,sans-Serif" font-size="10.00">/block_aMLLibrary_weight</text>
<text text-anchor="middle" x="404" y="-398.5" font-family="Helvetica,sans-Serif" font-size="10.00">_importer.cpp</text>
</a>
</g>
</g>
<!-- Node1&#45;&gt;Node15 -->
<g id="edge18" class="edge">
<title>Node1&#45;&gt;Node15</title>
<path fill="none" stroke="midnightblue" d="M356.57,-472.79C365.01,-463.13 374.12,-452.71 382.07,-443.61"/>
<polygon fill="midnightblue" stroke="midnightblue" points="353.93,-470.5 349.98,-480.34 359.2,-475.11 353.93,-470.5"/>
</g>
<!-- Node3 -->
<g id="node3" class="node">
<title>Node3</title>
<g id="a_node3"><a xlink:href="butcher_8h.html" target="_top" xlink:title=" ">
<polygon fill="white" stroke="black" points="287,-268.5 287,-287.5 427,-287.5 427,-268.5 287,-268.5"/>
<text text-anchor="middle" x="357" y="-275.5" font-family="Helvetica,sans-Serif" font-size="10.00">include/Butcher/butcher.h</text>
</a>
</g>
</g>
<!-- Node2&#45;&gt;Node3 -->
<g id="edge2" class="edge">
<title>Node2&#45;&gt;Node3</title>
<path fill="none" stroke="midnightblue" d="M291.01,-397.03C307.73,-386.67 326.2,-372.44 338,-355 352.33,-333.82 355.86,-302.76 356.72,-287.76"/>
<polygon fill="midnightblue" stroke="midnightblue" points="288.79,-394.28 281.96,-402.39 292.35,-400.31 288.79,-394.28"/>
</g>
<!-- Node5 -->
<g id="node5" class="node">
<title>Node5</title>
<g id="a_node5"><a xlink:href="io__manager_8h.html" target="_top" xlink:title=" ">
<polygon fill="white" stroke="black" points="170.5,-123.5 170.5,-142.5 291.5,-142.5 291.5,-123.5 170.5,-123.5"/>
<text text-anchor="middle" x="231" y="-130.5" font-family="Helvetica,sans-Serif" font-size="10.00">include/io_manager.h</text>
</a>
</g>
</g>
<!-- Node2&#45;&gt;Node5 -->
<g id="edge17" class="edge">
<title>Node2&#45;&gt;Node5</title>
<path fill="none" stroke="midnightblue" d="M214.39,-396.96C197.72,-386.65 179.46,-372.48 168,-355 137.32,-308.19 147.04,-287.64 141,-232 138.99,-213.44 131.93,-206.32 141,-190 154.32,-166.03 182.62,-150.99 203.95,-142.61"/>
<polygon fill="midnightblue" stroke="midnightblue" points="213.04,-400.22 223.43,-402.29 216.59,-394.19 213.04,-400.22"/>
</g>
<!-- Node14 -->
<g id="node14" class="node">
<title>Node14</title>
<g id="a_node14"><a xlink:href="constrained__block__graph__builder_8h.html" target="_top" xlink:title=" ">
<polygon fill="white" stroke="black" points="177,-324.5 177,-354.5 329,-354.5 329,-324.5 177,-324.5"/>
<text text-anchor="start" x="185" y="-342.5" font-family="Helvetica,sans-Serif" font-size="10.00">include/Butcher/constrained</text>
<text text-anchor="middle" x="253" y="-331.5" font-family="Helvetica,sans-Serif" font-size="10.00">_block_graph_builder.h</text>
</a>
</g>
</g>
<!-- Node2&#45;&gt;Node14 -->
<g id="edge15" class="edge">
<title>Node2&#45;&gt;Node14</title>
<path fill="none" stroke="midnightblue" d="M253,-392.09C253,-379.76 253,-365.22 253,-354.73"/>
<polygon fill="midnightblue" stroke="midnightblue" points="249.5,-392.2 253,-402.2 256.5,-392.21 249.5,-392.2"/>
</g>
<!-- Node4 -->
<g id="node4" class="node">
<title>Node4</title>
<g id="a_node4"><a xlink:href="onnx__importer__helpers_8h.html" target="_top" xlink:title=" ">
<polygon fill="white" stroke="black" points="150.5,-196 150.5,-226 291.5,-226 291.5,-196 150.5,-196"/>
<text text-anchor="start" x="158.5" y="-214" font-family="Helvetica,sans-Serif" font-size="10.00">include/IO_Interaction</text>
<text text-anchor="middle" x="221" y="-203" font-family="Helvetica,sans-Serif" font-size="10.00">/onnx_importer_helpers.h</text>
</a>
</g>
</g>
<!-- Node3&#45;&gt;Node4 -->
<g id="edge3" class="edge">
<title>Node3&#45;&gt;Node4</title>
<path fill="none" stroke="midnightblue" d="M329.75,-263.97C306.75,-252.99 273.92,-237.29 250.35,-226.03"/>
<polygon fill="midnightblue" stroke="midnightblue" points="328.41,-267.21 338.94,-268.37 331.43,-260.9 328.41,-267.21"/>
</g>
<!-- Node9 -->
<g id="node9" class="node">
<title>Node9</title>
<g id="a_node9"><a xlink:href="network__butcher_8h.html" target="_top" xlink:title=" ">
<polygon fill="white" stroke="black" points="390.5,-56.5 390.5,-75.5 535.5,-75.5 535.5,-56.5 390.5,-56.5"/>
<text text-anchor="middle" x="463" y="-63.5" font-family="Helvetica,sans-Serif" font-size="10.00">include/network_butcher.h</text>
</a>
</g>
</g>
<!-- Node3&#45;&gt;Node9 -->
<g id="edge14" class="edge">
<title>Node3&#45;&gt;Node9</title>
<path fill="none" stroke="midnightblue" d="M419.86,-265.29C438.13,-258.66 456.08,-248.27 467,-232 500.7,-181.8 476.13,-102.26 466.45,-75.85"/>
<polygon fill="midnightblue" stroke="midnightblue" points="418.72,-261.98 410.32,-268.43 420.91,-268.63 418.72,-261.98"/>
</g>
<!-- Node12 -->
<g id="node12" class="node">
<title>Node12</title>
<g id="a_node12"><a xlink:href="onnx__model__reconstructor__helpers_8h.html" target="_top" xlink:title=" ">
<polygon fill="white" stroke="black" points="309.5,-190.5 309.5,-231.5 458.5,-231.5 458.5,-190.5 309.5,-190.5"/>
<text text-anchor="start" x="317.5" y="-219.5" font-family="Helvetica,sans-Serif" font-size="10.00">include/IO_Interaction</text>
<text text-anchor="start" x="317.5" y="-208.5" font-family="Helvetica,sans-Serif" font-size="10.00">/onnx_model_reconstructor</text>
<text text-anchor="middle" x="384" y="-197.5" font-family="Helvetica,sans-Serif" font-size="10.00">_helpers.h</text>
</a>
</g>
</g>
<!-- Node3&#45;&gt;Node12 -->
<g id="edge11" class="edge">
<title>Node3&#45;&gt;Node12</title>
<path fill="none" stroke="midnightblue" d="M364.53,-258.88C368.06,-250.38 372.28,-240.22 375.88,-231.54"/>
<polygon fill="midnightblue" stroke="midnightblue" points="361.25,-257.66 360.64,-268.23 367.71,-260.34 361.25,-257.66"/>
</g>
<!-- Node4&#45;&gt;Node5 -->
<g id="edge4" class="edge">
<title>Node4&#45;&gt;Node5</title>
<path fill="none" stroke="midnightblue" d="M224.2,-185.67C226.15,-170.9 228.51,-152.95 229.87,-142.56"/>
<polygon fill="midnightblue" stroke="midnightblue" points="220.72,-185.33 222.88,-195.7 227.66,-186.25 220.72,-185.33"/>
</g>
<!-- Node11 -->
<g id="node11" class="node">
<title>Node11</title>
<g id="a_node11"><a xlink:href="onnx__importer__helpers_8cpp.html" target="_top" xlink:title=" ">
<polygon fill="white" stroke="black" points="0,-118 0,-148 152,-148 152,-118 0,-118"/>
<text text-anchor="start" x="8" y="-136" font-family="Helvetica,sans-Serif" font-size="10.00">src/IO_Interaction</text>
<text text-anchor="middle" x="76" y="-125" font-family="Helvetica,sans-Serif" font-size="10.00">/onnx_importer_helpers.cpp</text>
</a>
</g>
</g>
<!-- Node4&#45;&gt;Node11 -->
<g id="edge10" class="edge">
<title>Node4&#45;&gt;Node11</title>
<path fill="none" stroke="midnightblue" d="M185.08,-191.17C159.6,-177.82 125.94,-160.18 102.79,-148.04"/>
<polygon fill="midnightblue" stroke="midnightblue" points="183.58,-194.34 194.07,-195.88 186.83,-188.14 183.58,-194.34"/>
</g>
<!-- Node6 -->
<g id="node6" class="node">
<title>Node6</title>
<g id="a_node6"><a xlink:href="general__manager_8h.html" target="_top" xlink:title=" ">
<polygon fill="white" stroke="black" points="178.5,-56.5 178.5,-75.5 327.5,-75.5 327.5,-56.5 178.5,-56.5"/>
<text text-anchor="middle" x="253" y="-63.5" font-family="Helvetica,sans-Serif" font-size="10.00">include/general_manager.h</text>
</a>
</g>
</g>
<!-- Node5&#45;&gt;Node6 -->
<g id="edge5" class="edge">
<title>Node5&#45;&gt;Node6</title>
<path fill="none" stroke="midnightblue" d="M237.29,-113.41C241.5,-100.99 246.83,-85.22 250.08,-75.63"/>
<polygon fill="midnightblue" stroke="midnightblue" points="233.86,-112.64 233.97,-123.23 240.49,-114.88 233.86,-112.64"/>
</g>
<!-- Node5&#45;&gt;Node9 -->
<g id="edge8" class="edge">
<title>Node5&#45;&gt;Node9</title>
<path fill="none" stroke="midnightblue" d="M270.32,-120.71C280.32,-117.85 291.05,-114.8 301,-112 346.52,-99.18 399.3,-84.56 431.92,-75.56"/>
<polygon fill="midnightblue" stroke="midnightblue" points="269.27,-117.37 260.62,-123.49 271.2,-124.1 269.27,-117.37"/>
</g>
<!-- Node10 -->
<g id="node10" class="node">
<title>Node10</title>
<g id="a_node10"><a xlink:href="io__manager_8cpp.html" target="_top" xlink:title=" ">
<polygon fill="white" stroke="black" points="49.5,-56.5 49.5,-75.5 160.5,-75.5 160.5,-56.5 49.5,-56.5"/>
<text text-anchor="middle" x="105" y="-63.5" font-family="Helvetica,sans-Serif" font-size="10.00">src/io_manager.cpp</text>
</a>
</g>
</g>
<!-- Node5&#45;&gt;Node10 -->
<g id="edge9" class="edge">
<title>Node5&#45;&gt;Node10</title>
<path fill="none" stroke="midnightblue" d="M205.36,-118.77C180.41,-105.9 143.2,-86.71 121.8,-75.67"/>
<polygon fill="midnightblue" stroke="midnightblue" points="203.78,-121.89 214.27,-123.37 206.99,-115.67 203.78,-121.89"/>
</g>
<!-- Node7 -->
<g id="node7" class="node">
<title>Node7</title>
<g id="a_node7"><a xlink:href="general__manager_8cpp.html" target="_top" xlink:title=" ">
<polygon fill="white" stroke="black" points="120.5,-0.5 120.5,-19.5 259.5,-19.5 259.5,-0.5 120.5,-0.5"/>
<text text-anchor="middle" x="190" y="-7.5" font-family="Helvetica,sans-Serif" font-size="10.00">src/general_manager.cpp</text>
</a>
</g>
</g>
<!-- Node6&#45;&gt;Node7 -->
<g id="edge6" class="edge">
<title>Node6&#45;&gt;Node7</title>
<path fill="none" stroke="midnightblue" d="M234.96,-49.54C223.73,-39.91 209.68,-27.87 200.31,-19.83"/>
<polygon fill="midnightblue" stroke="midnightblue" points="233.01,-52.47 242.88,-56.32 237.56,-47.16 233.01,-52.47"/>
</g>
<!-- Node8 -->
<g id="node8" class="node">
<title>Node8</title>
<g id="a_node8"><a xlink:href="main_8cpp.html" target="_top" xlink:title=" ">
<polygon fill="white" stroke="black" points="277.5,-0.5 277.5,-19.5 356.5,-19.5 356.5,-0.5 277.5,-0.5"/>
<text text-anchor="middle" x="317" y="-7.5" font-family="Helvetica,sans-Serif" font-size="10.00">src/main.cpp</text>
</a>
</g>
</g>
<!-- Node6&#45;&gt;Node8 -->
<g id="edge7" class="edge">
<title>Node6&#45;&gt;Node8</title>
<path fill="none" stroke="midnightblue" d="M270.99,-49.82C282.46,-40.15 296.91,-27.95 306.53,-19.83"/>
<polygon fill="midnightblue" stroke="midnightblue" points="268.67,-47.2 263.28,-56.32 273.18,-52.55 268.67,-47.2"/>
</g>
<!-- Node12&#45;&gt;Node5 -->
<g id="edge12" class="edge">
<title>Node12&#45;&gt;Node5</title>
<path fill="none" stroke="midnightblue" d="M335.57,-185.94C305.72,-171.12 269.25,-153 248.22,-142.55"/>
<polygon fill="midnightblue" stroke="midnightblue" points="334.09,-189.11 344.6,-190.43 337.2,-182.84 334.09,-189.11"/>
</g>
<!-- Node13 -->
<g id="node13" class="node">
<title>Node13</title>
<g id="a_node13"><a xlink:href="onnx__model__reconstructor__helpers_8cpp.html" target="_top" xlink:title=" ">
<polygon fill="white" stroke="black" points="309.5,-112.5 309.5,-153.5 458.5,-153.5 458.5,-112.5 309.5,-112.5"/>
<text text-anchor="start" x="317.5" y="-141.5" font-family="Helvetica,sans-Serif" font-size="10.00">src/IO_Interaction</text>
<text text-anchor="start" x="317.5" y="-130.5" font-family="Helvetica,sans-Serif" font-size="10.00">/onnx_model_reconstructor</text>
<text text-anchor="middle" x="384" y="-119.5" font-family="Helvetica,sans-Serif" font-size="10.00">_helpers.cpp</text>
</a>
</g>
</g>
<!-- Node12&#45;&gt;Node13 -->
<g id="edge13" class="edge">
<title>Node12&#45;&gt;Node13</title>
<path fill="none" stroke="midnightblue" d="M384,-180.3C384,-171.3 384,-161.65 384,-153.51"/>
<polygon fill="midnightblue" stroke="midnightblue" points="380.5,-180.43 384,-190.43 387.5,-180.43 380.5,-180.43"/>
</g>
<!-- Node14&#45;&gt;Node3 -->
<g id="edge16" class="edge">
<title>Node14&#45;&gt;Node3</title>
<path fill="none" stroke="midnightblue" d="M286.45,-319.36C305.1,-308.69 327.4,-295.93 341.87,-287.66"/>
<polygon fill="midnightblue" stroke="midnightblue" points="284.59,-316.4 277.65,-324.4 288.06,-322.47 284.59,-316.4"/>
</g>
</g>
</svg>
