<?xml version="1.0" encoding="UTF-8" standalone="no"?>
<!DOCTYPE svg PUBLIC "-//W3C//DTD SVG 1.1//EN"
 "http://www.w3.org/Graphics/SVG/1.1/DTD/svg11.dtd">
<!-- Generated by graphviz version 2.43.0 (0)
 -->
<!-- Title: include/network_butcher/IO_Interaction/Weight_Importer_Helpers/block_aMLLibrary_weight_importer.h Pages: 1 -->
<svg width="587pt" height="585pt"
 viewBox="0.00 0.00 587.01 585.00" xmlns="http://www.w3.org/2000/svg" xmlns:xlink="http://www.w3.org/1999/xlink">
<g id="graph0" class="graph" transform="scale(1 1) rotate(0) translate(4 581)">
<title>include/network_butcher/IO_Interaction/Weight_Importer_Helpers/block_aMLLibrary_weight_importer.h</title>
<polygon fill="white" stroke="transparent" points="-4,4 -4,-581 583.01,-581 583.01,4 -4,4"/>
<!-- Node1 -->
<g id="node1" class="node">
<title>Node1</title>
<g id="a_node1"><a xlink:title=" ">
<polygon fill="#bfbfbf" stroke="black" points="298.51,-524.5 298.51,-576.5 468.51,-576.5 468.51,-524.5 298.51,-524.5"/>
<text text-anchor="start" x="306.51" y="-564.5" font-family="Helvetica,sans-Serif" font-size="10.00">include/network_butcher</text>
<text text-anchor="start" x="306.51" y="-553.5" font-family="Helvetica,sans-Serif" font-size="10.00">/IO_Interaction/Weight</text>
<text text-anchor="start" x="306.51" y="-542.5" font-family="Helvetica,sans-Serif" font-size="10.00">_Importer_Helpers/block</text>
<text text-anchor="middle" x="383.51" y="-531.5" font-family="Helvetica,sans-Serif" font-size="10.00">_aMLLibrary_weight_importer.h</text>
</a>
</g>
</g>
<!-- Node2 -->
<g id="node2" class="node">
<title>Node2</title>
<g id="a_node2"><a xlink:href="weight__importers_8h.html" target="_top" xlink:title=" ">
<polygon fill="white" stroke="black" points="236.01,-441 236.01,-482 373.01,-482 373.01,-441 236.01,-441"/>
<text text-anchor="start" x="244.01" y="-470" font-family="Helvetica,sans-Serif" font-size="10.00">include/network_butcher</text>
<text text-anchor="start" x="244.01" y="-459" font-family="Helvetica,sans-Serif" font-size="10.00">/IO_Interaction/weight</text>
<text text-anchor="middle" x="304.51" y="-448" font-family="Helvetica,sans-Serif" font-size="10.00">_importers.h</text>
</a>
</g>
</g>
<!-- Node1&#45;&gt;Node2 -->
<g id="edge1" class="edge">
<title>Node1&#45;&gt;Node2</title>
<path fill="none" stroke="midnightblue" d="M353.86,-516.85C343.24,-505.15 331.6,-492.33 322.29,-482.08"/>
<polygon fill="midnightblue" stroke="midnightblue" points="351.35,-519.29 360.66,-524.34 356.53,-514.58 351.35,-519.29"/>
</g>
<!-- Node14 -->
<g id="node14" class="node">
<title>Node14</title>
<g id="a_node14"><a xlink:href="block__aMLLibrary__weight__importer_8cpp.html" target="_top" xlink:title=" ">
<polygon fill="white" stroke="black" points="391.01,-435.5 391.01,-487.5 534.01,-487.5 534.01,-435.5 391.01,-435.5"/>
<text text-anchor="start" x="399.01" y="-475.5" font-family="Helvetica,sans-Serif" font-size="10.00">src/IO_Interaction</text>
<text text-anchor="start" x="399.01" y="-464.5" font-family="Helvetica,sans-Serif" font-size="10.00">/Weight_Importer_Helpers</text>
<text text-anchor="start" x="399.01" y="-453.5" font-family="Helvetica,sans-Serif" font-size="10.00">/block_aMLLibrary_weight</text>
<text text-anchor="middle" x="462.51" y="-442.5" font-family="Helvetica,sans-Serif" font-size="10.00">_importer.cpp</text>
</a>
</g>
</g>
<!-- Node1&#45;&gt;Node14 -->
<g id="edge18" class="edge">
<title>Node1&#45;&gt;Node14</title>
<path fill="none" stroke="midnightblue" d="M413.21,-516.79C421.98,-507.13 431.45,-496.71 439.71,-487.61"/>
<polygon fill="midnightblue" stroke="midnightblue" points="410.49,-514.58 406.36,-524.34 415.67,-519.29 410.49,-514.58"/>
</g>
<!-- Node3 -->
<g id="node3" class="node">
<title>Node3</title>
<g id="a_node3"><a xlink:href="butcher_8h.html" target="_top" xlink:title=" ">
<polygon fill="white" stroke="black" points="134.01,-290.5 134.01,-320.5 271.01,-320.5 271.01,-290.5 134.01,-290.5"/>
<text text-anchor="start" x="142.01" y="-308.5" font-family="Helvetica,sans-Serif" font-size="10.00">include/network_butcher</text>
<text text-anchor="middle" x="202.51" y="-297.5" font-family="Helvetica,sans-Serif" font-size="10.00">/Butcher/butcher.h</text>
</a>
</g>
</g>
<!-- Node2&#45;&gt;Node3 -->
<g id="edge2" class="edge">
<title>Node2&#45;&gt;Node3</title>
<path fill="none" stroke="midnightblue" d="M305.34,-430.62C304.55,-408.51 300.38,-378.6 285.51,-357 274.32,-340.74 256.02,-328.8 239.45,-320.62"/>
<polygon fill="midnightblue" stroke="midnightblue" points="301.84,-430.83 305.49,-440.78 308.84,-430.73 301.84,-430.83"/>
</g>
<!-- Node5 -->
<g id="node5" class="node">
<title>Node5</title>
<g id="a_node5"><a xlink:href="io__manager_8h.html" target="_top" xlink:title=" ">
<polygon fill="white" stroke="black" points="364.01,-140 364.01,-170 501.01,-170 501.01,-140 364.01,-140"/>
<text text-anchor="start" x="372.01" y="-158" font-family="Helvetica,sans-Serif" font-size="10.00">include/network_butcher</text>
<text text-anchor="middle" x="432.51" y="-147" font-family="Helvetica,sans-Serif" font-size="10.00">/io_manager.h</text>
</a>
</g>
</g>
<!-- Node2&#45;&gt;Node5 -->
<g id="edge17" class="edge">
<title>Node2&#45;&gt;Node5</title>
<path fill="none" stroke="midnightblue" d="M316.69,-431.53C343.5,-367.74 406.82,-217.11 426.54,-170.2"/>
<polygon fill="midnightblue" stroke="midnightblue" points="313.36,-430.41 312.71,-440.99 319.81,-433.13 313.36,-430.41"/>
</g>
<!-- Node13 -->
<g id="node13" class="node">
<title>Node13</title>
<g id="a_node13"><a xlink:href="constrained__block__graph__builder_8h.html" target="_top" xlink:title=" ">
<polygon fill="white" stroke="black" points="128.01,-357.5 128.01,-398.5 277.01,-398.5 277.01,-357.5 128.01,-357.5"/>
<text text-anchor="start" x="136.01" y="-386.5" font-family="Helvetica,sans-Serif" font-size="10.00">include/network_butcher</text>
<text text-anchor="start" x="136.01" y="-375.5" font-family="Helvetica,sans-Serif" font-size="10.00">/Butcher/constrained_block</text>
<text text-anchor="middle" x="202.51" y="-364.5" font-family="Helvetica,sans-Serif" font-size="10.00">_graph_builder.h</text>
</a>
</g>
</g>
<!-- Node2&#45;&gt;Node13 -->
<g id="edge15" class="edge">
<title>Node2&#45;&gt;Node13</title>
<path fill="none" stroke="midnightblue" d="M272.24,-434.72C257.64,-423.05 240.65,-409.47 227.1,-398.64"/>
<polygon fill="midnightblue" stroke="midnightblue" points="270.08,-437.47 280.08,-440.98 274.45,-432 270.08,-437.47"/>
</g>
<!-- Node4 -->
<g id="node4" class="node">
<title>Node4</title>
<g id="a_node4"><a xlink:href="onnx__importer__helpers_8h.html" target="_top" xlink:title=" ">
<polygon fill="white" stroke="black" points="219.51,-212.5 219.51,-253.5 381.51,-253.5 381.51,-212.5 219.51,-212.5"/>
<text text-anchor="start" x="227.51" y="-241.5" font-family="Helvetica,sans-Serif" font-size="10.00">include/network_butcher</text>
<text text-anchor="start" x="227.51" y="-230.5" font-family="Helvetica,sans-Serif" font-size="10.00">/IO_Interaction/onnx_importer</text>
<text text-anchor="middle" x="300.51" y="-219.5" font-family="Helvetica,sans-Serif" font-size="10.00">_helpers.h</text>
</a>
</g>
</g>
<!-- Node3&#45;&gt;Node4 -->
<g id="edge3" class="edge">
<title>Node3&#45;&gt;Node4</title>
<path fill="none" stroke="midnightblue" d="M230.72,-284.21C244.1,-274.58 260.02,-263.12 273.28,-253.59"/>
<polygon fill="midnightblue" stroke="midnightblue" points="228.42,-281.55 222.34,-290.23 232.5,-287.23 228.42,-281.55"/>
</g>
<!-- Node7 -->
<g id="node7" class="node">
<title>Node7</title>
<g id="a_node7"><a xlink:href="network__butcher_8h.html" target="_top" xlink:title=" ">
<polygon fill="white" stroke="black" points="285.01,-0.5 285.01,-30.5 422.01,-30.5 422.01,-0.5 285.01,-0.5"/>
<text text-anchor="start" x="293.01" y="-18.5" font-family="Helvetica,sans-Serif" font-size="10.00">include/network_butcher</text>
<text text-anchor="middle" x="353.51" y="-7.5" font-family="Helvetica,sans-Serif" font-size="10.00">/network_butcher.h</text>
</a>
</g>
</g>
<!-- Node3&#45;&gt;Node7 -->
<g id="edge14" class="edge">
<title>Node3&#45;&gt;Node7</title>
<path fill="none" stroke="midnightblue" d="M123.92,-295.68C94.39,-288.69 62.65,-276.22 40.51,-254 2.12,-215.47 -14.99,-178.34 16.51,-134 77.33,-48.38 205.35,-24.63 284.92,-18.35"/>
<polygon fill="midnightblue" stroke="midnightblue" points="123.32,-299.13 133.83,-297.85 124.81,-292.29 123.32,-299.13"/>
</g>
<!-- Node11 -->
<g id="node11" class="node">
<title>Node11</title>
<g id="a_node11"><a xlink:href="onnx__model__reconstructor__helpers_8h.html" target="_top" xlink:title=" ">
<polygon fill="white" stroke="black" points="50.01,-212.5 50.01,-253.5 201.01,-253.5 201.01,-212.5 50.01,-212.5"/>
<text text-anchor="start" x="58.01" y="-241.5" font-family="Helvetica,sans-Serif" font-size="10.00">include/network_butcher</text>
<text text-anchor="start" x="58.01" y="-230.5" font-family="Helvetica,sans-Serif" font-size="10.00">/IO_Interaction/onnx_model</text>
<text text-anchor="middle" x="125.51" y="-219.5" font-family="Helvetica,sans-Serif" font-size="10.00">_reconstructor_helpers.h</text>
</a>
</g>
</g>
<!-- Node3&#45;&gt;Node11 -->
<g id="edge11" class="edge">
<title>Node3&#45;&gt;Node11</title>
<path fill="none" stroke="midnightblue" d="M179.44,-283.38C169.12,-273.93 157.02,-262.85 146.9,-253.59"/>
<polygon fill="midnightblue" stroke="midnightblue" points="177.19,-286.06 186.93,-290.23 181.92,-280.9 177.19,-286.06"/>
</g>
<!-- Node4&#45;&gt;Node5 -->
<g id="edge4" class="edge">
<title>Node4&#45;&gt;Node5</title>
<path fill="none" stroke="midnightblue" d="M343.38,-207.31C364.71,-195.04 389.71,-180.64 407.8,-170.23"/>
<polygon fill="midnightblue" stroke="midnightblue" points="341.42,-204.41 334.5,-212.43 344.92,-210.47 341.42,-204.41"/>
</g>
<!-- Node10 -->
<g id="node10" class="node">
<title>Node10</title>
<g id="a_node10"><a xlink:href="onnx__importer__helpers_8cpp.html" target="_top" xlink:title=" ">
<polygon fill="white" stroke="black" points="193.51,-140 193.51,-170 345.51,-170 345.51,-140 193.51,-140"/>
<text text-anchor="start" x="201.51" y="-158" font-family="Helvetica,sans-Serif" font-size="10.00">src/IO_Interaction</text>
<text text-anchor="middle" x="269.51" y="-147" font-family="Helvetica,sans-Serif" font-size="10.00">/onnx_importer_helpers.cpp</text>
</a>
</g>
</g>
<!-- Node4&#45;&gt;Node10 -->
<g id="edge10" class="edge">
<title>Node4&#45;&gt;Node10</title>
<path fill="none" stroke="midnightblue" d="M288.67,-202.96C284.09,-191.75 279.07,-179.43 275.31,-170.23"/>
<polygon fill="midnightblue" stroke="midnightblue" points="285.51,-204.49 292.53,-212.43 291.99,-201.85 285.51,-204.49"/>
</g>
<!-- Node6 -->
<g id="node6" class="node">
<title>Node6</title>
<g id="a_node6"><a xlink:href="general__manager_8h.html" target="_top" xlink:title=" ">
<polygon fill="white" stroke="black" points="412.01,-67.5 412.01,-97.5 549.01,-97.5 549.01,-67.5 412.01,-67.5"/>
<text text-anchor="start" x="420.01" y="-85.5" font-family="Helvetica,sans-Serif" font-size="10.00">include/network_butcher</text>
<text text-anchor="middle" x="480.51" y="-74.5" font-family="Helvetica,sans-Serif" font-size="10.00">/general_manager.h</text>
</a>
</g>
</g>
<!-- Node5&#45;&gt;Node6 -->
<g id="edge5" class="edge">
<title>Node5&#45;&gt;Node6</title>
<path fill="none" stroke="midnightblue" d="M447.91,-131.39C455.43,-120.34 464.24,-107.39 470.81,-97.75"/>
<polygon fill="midnightblue" stroke="midnightblue" points="444.96,-129.5 442.22,-139.73 450.74,-133.44 444.96,-129.5"/>
</g>
<!-- Node5&#45;&gt;Node7 -->
<g id="edge8" class="edge">
<title>Node5&#45;&gt;Node7</title>
<path fill="none" stroke="midnightblue" d="M419.25,-130.91C402.83,-102.35 375.39,-54.59 361.74,-30.83"/>
<polygon fill="midnightblue" stroke="midnightblue" points="416.34,-132.88 424.35,-139.8 422.41,-129.39 416.34,-132.88"/>
</g>
<!-- Node9 -->
<g id="node9" class="node">
<title>Node9</title>
<g id="a_node9"><a xlink:href="io__manager_8cpp.html" target="_top" xlink:title=" ">
<polygon fill="white" stroke="black" points="244.01,-73 244.01,-92 355.01,-92 355.01,-73 244.01,-73"/>
<text text-anchor="middle" x="299.51" y="-80" font-family="Helvetica,sans-Serif" font-size="10.00">src/io_manager.cpp</text>
</a>
</g>
</g>
<!-- Node5&#45;&gt;Node9 -->
<g id="edge9" class="edge">
<title>Node5&#45;&gt;Node9</title>
<path fill="none" stroke="midnightblue" d="M396.95,-135.15C370.51,-121.13 335.66,-102.66 315.61,-92.03"/>
<polygon fill="midnightblue" stroke="midnightblue" points="395.44,-138.31 405.91,-139.9 398.72,-132.13 395.44,-138.31"/>
</g>
<!-- Node6&#45;&gt;Node7 -->
<g id="edge6" class="edge">
<title>Node6&#45;&gt;Node7</title>
<path fill="none" stroke="midnightblue" d="M443.81,-62.71C423.78,-52.46 399.39,-39.98 381.01,-30.58"/>
<polygon fill="midnightblue" stroke="midnightblue" points="442.46,-65.96 452.95,-67.4 445.65,-59.72 442.46,-65.96"/>
</g>
<!-- Node8 -->
<g id="node8" class="node">
<title>Node8</title>
<g id="a_node8"><a xlink:href="general__manager_8cpp.html" target="_top" xlink:title=" ">
<polygon fill="white" stroke="black" points="440.01,-6 440.01,-25 579.01,-25 579.01,-6 440.01,-6"/>
<text text-anchor="middle" x="509.51" y="-13" font-family="Helvetica,sans-Serif" font-size="10.00">src/general_manager.cpp</text>
</a>
</g>
</g>
<!-- Node6&#45;&gt;Node8 -->
<g id="edge7" class="edge">
<title>Node6&#45;&gt;Node8</title>
<path fill="none" stroke="midnightblue" d="M491.02,-57.94C496.11,-46.54 501.9,-33.55 505.63,-25.19"/>
<polygon fill="midnightblue" stroke="midnightblue" points="487.68,-56.84 486.8,-67.4 494.07,-59.69 487.68,-56.84"/>
</g>
<!-- Node11&#45;&gt;Node5 -->
<g id="edge12" class="edge">
<title>Node11&#45;&gt;Node5</title>
<path fill="none" stroke="midnightblue" d="M210.99,-211.34C254.06,-200.86 307.09,-187.88 354.51,-176 362.1,-174.1 370.11,-172.07 377.98,-170.06"/>
<polygon fill="midnightblue" stroke="midnightblue" points="210,-207.97 201.11,-213.74 211.66,-214.78 210,-207.97"/>
</g>
<!-- Node12 -->
<g id="node12" class="node">
<title>Node12</title>
<g id="a_node12"><a xlink:href="onnx__model__reconstructor__helpers_8cpp.html" target="_top" xlink:title=" ">
<polygon fill="white" stroke="black" points="26.01,-134.5 26.01,-175.5 175.01,-175.5 175.01,-134.5 26.01,-134.5"/>
<text text-anchor="start" x="34.01" y="-163.5" font-family="Helvetica,sans-Serif" font-size="10.00">src/IO_Interaction</text>
<text text-anchor="start" x="34.01" y="-152.5" font-family="Helvetica,sans-Serif" font-size="10.00">/onnx_model_reconstructor</text>
<text text-anchor="middle" x="100.51" y="-141.5" font-family="Helvetica,sans-Serif" font-size="10.00">_helpers.cpp</text>
</a>
</g>
</g>
<!-- Node11&#45;&gt;Node12 -->
<g id="edge13" class="edge">
<title>Node11&#45;&gt;Node12</title>
<path fill="none" stroke="midnightblue" d="M115.93,-202.88C112.92,-193.72 109.66,-183.83 106.93,-175.51"/>
<polygon fill="midnightblue" stroke="midnightblue" points="112.62,-204.02 119.07,-212.43 119.27,-201.84 112.62,-204.02"/>
</g>
<!-- Node13&#45;&gt;Node3 -->
<g id="edge16" class="edge">
<title>Node13&#45;&gt;Node3</title>
<path fill="none" stroke="midnightblue" d="M202.51,-347.08C202.51,-338.01 202.51,-328.45 202.51,-320.89"/>
<polygon fill="midnightblue" stroke="midnightblue" points="199.01,-347.36 202.51,-357.36 206.01,-347.36 199.01,-347.36"/>
</g>
</g>
</svg>
