<?xml version="1.0" encoding="UTF-8" standalone="no"?>
<!DOCTYPE svg PUBLIC "-//W3C//DTD SVG 1.1//EN"
 "http://www.w3.org/Graphics/SVG/1.1/DTD/svg11.dtd">
<!-- Generated by graphviz version 2.43.0 (0)
 -->
<!-- Title: include/APSC/chrono.h Pages: 1 -->
<svg width="728pt" height="553pt"
 viewBox="0.00 0.00 728.00 553.00" xmlns="http://www.w3.org/2000/svg" xmlns:xlink="http://www.w3.org/1999/xlink">
<g id="graph0" class="graph" transform="scale(1 1) rotate(0) translate(4 549)">
<title>include/APSC/chrono.h</title>
<polygon fill="white" stroke="transparent" points="-4,4 -4,-549 724,-549 724,4 -4,4"/>
<!-- Node1 -->
<g id="node1" class="node">
<title>Node1</title>
<g id="a_node1"><a xlink:title=" ">
<polygon fill="#bfbfbf" stroke="black" points="209,-525.5 209,-544.5 334,-544.5 334,-525.5 209,-525.5"/>
<text text-anchor="middle" x="271.5" y="-532.5" font-family="Helvetica,sans-Serif" font-size="10.00">include/APSC/chrono.h</text>
</a>
</g>
</g>
<!-- Node2 -->
<g id="node2" class="node">
<title>Node2</title>
<g id="a_node2"><a xlink:href="general__manager_8h.html" target="_top" xlink:title=" ">
<polygon fill="white" stroke="black" points="58,-56.5 58,-75.5 207,-75.5 207,-56.5 58,-56.5"/>
<text text-anchor="middle" x="132.5" y="-63.5" font-family="Helvetica,sans-Serif" font-size="10.00">include/general_manager.h</text>
</a>
</g>
</g>
<!-- Node1&#45;&gt;Node2 -->
<g id="edge1" class="edge">
<title>Node1&#45;&gt;Node2</title>
<path fill="none" stroke="midnightblue" d="M239.19,-521.45C198.12,-503.14 132.5,-464.89 132.5,-407.5 132.5,-407.5 132.5,-407.5 132.5,-210 132.5,-159.11 132.5,-98.02 132.5,-75.71"/>
<polygon fill="midnightblue" stroke="midnightblue" points="237.98,-524.74 248.55,-525.47 240.74,-518.31 237.98,-524.74"/>
</g>
<!-- Node5 -->
<g id="node5" class="node">
<title>Node5</title>
<g id="a_node5"><a xlink:href="io__manager_8h.html" target="_top" xlink:title=" ">
<polygon fill="white" stroke="black" points="161,-123.5 161,-142.5 282,-142.5 282,-123.5 161,-123.5"/>
<text text-anchor="middle" x="221.5" y="-130.5" font-family="Helvetica,sans-Serif" font-size="10.00">include/io_manager.h</text>
</a>
</g>
</g>
<!-- Node1&#45;&gt;Node5 -->
<g id="edge4" class="edge">
<title>Node1&#45;&gt;Node5</title>
<path fill="none" stroke="midnightblue" d="M260.55,-516.65C246.66,-492.95 224.5,-448.68 224.5,-407.5 224.5,-407.5 224.5,-407.5 224.5,-277 224.5,-226.09 222.58,-165.02 221.81,-142.7"/>
<polygon fill="midnightblue" stroke="midnightblue" points="257.56,-518.48 265.74,-525.22 263.55,-514.85 257.56,-518.48"/>
</g>
<!-- Node8 -->
<g id="node8" class="node">
<title>Node8</title>
<g id="a_node8"><a xlink:href="basic__keppstein_8h.html" target="_top" xlink:title=" ">
<polygon fill="white" stroke="black" points="295.5,-458.5 295.5,-488.5 429.5,-488.5 429.5,-458.5 295.5,-458.5"/>
<text text-anchor="start" x="303.5" y="-476.5" font-family="Helvetica,sans-Serif" font-size="10.00">include/K&#45;shortest</text>
<text text-anchor="middle" x="362.5" y="-465.5" font-family="Helvetica,sans-Serif" font-size="10.00">_path/basic_keppstein.h</text>
</a>
</g>
</g>
<!-- Node1&#45;&gt;Node8 -->
<g id="edge8" class="edge">
<title>Node1&#45;&gt;Node8</title>
<path fill="none" stroke="midnightblue" d="M293.31,-519.74C307.77,-510.28 326.67,-497.93 341.05,-488.52"/>
<polygon fill="midnightblue" stroke="midnightblue" points="290.99,-517.07 284.54,-525.48 294.82,-522.93 290.99,-517.07"/>
</g>
<!-- Node17 -->
<g id="node17" class="node">
<title>Node17</title>
<g id="a_node17"><a xlink:href="chrono_8cpp.html" target="_top" xlink:title=" ">
<polygon fill="white" stroke="black" points="447.5,-464 447.5,-483 563.5,-483 563.5,-464 447.5,-464"/>
<text text-anchor="middle" x="505.5" y="-471" font-family="Helvetica,sans-Serif" font-size="10.00">src/APSC/chrono.cpp</text>
</a>
</g>
</g>
<!-- Node1&#45;&gt;Node17 -->
<g id="edge22" class="edge">
<title>Node1&#45;&gt;Node17</title>
<path fill="none" stroke="midnightblue" d="M314.88,-522.97C360.32,-511.41 430.71,-493.52 472.04,-483.01"/>
<polygon fill="midnightblue" stroke="midnightblue" points="313.86,-519.62 305.03,-525.48 315.58,-526.4 313.86,-519.62"/>
</g>
<!-- Node3 -->
<g id="node3" class="node">
<title>Node3</title>
<g id="a_node3"><a xlink:href="general__manager_8cpp.html" target="_top" xlink:title=" ">
<polygon fill="white" stroke="black" points="0,-0.5 0,-19.5 139,-19.5 139,-0.5 0,-0.5"/>
<text text-anchor="middle" x="69.5" y="-7.5" font-family="Helvetica,sans-Serif" font-size="10.00">src/general_manager.cpp</text>
</a>
</g>
</g>
<!-- Node2&#45;&gt;Node3 -->
<g id="edge2" class="edge">
<title>Node2&#45;&gt;Node3</title>
<path fill="none" stroke="midnightblue" d="M114.46,-49.54C103.23,-39.91 89.18,-27.87 79.81,-19.83"/>
<polygon fill="midnightblue" stroke="midnightblue" points="112.51,-52.47 122.38,-56.32 117.06,-47.16 112.51,-52.47"/>
</g>
<!-- Node4 -->
<g id="node4" class="node">
<title>Node4</title>
<g id="a_node4"><a xlink:href="main_8cpp.html" target="_top" xlink:title=" ">
<polygon fill="white" stroke="black" points="157,-0.5 157,-19.5 236,-19.5 236,-0.5 157,-0.5"/>
<text text-anchor="middle" x="196.5" y="-7.5" font-family="Helvetica,sans-Serif" font-size="10.00">src/main.cpp</text>
</a>
</g>
</g>
<!-- Node2&#45;&gt;Node4 -->
<g id="edge3" class="edge">
<title>Node2&#45;&gt;Node4</title>
<path fill="none" stroke="midnightblue" d="M150.49,-49.82C161.96,-40.15 176.41,-27.95 186.03,-19.83"/>
<polygon fill="midnightblue" stroke="midnightblue" points="148.17,-47.2 142.78,-56.32 152.68,-52.55 148.17,-47.2"/>
</g>
<!-- Node5&#45;&gt;Node2 -->
<g id="edge5" class="edge">
<title>Node5&#45;&gt;Node2</title>
<path fill="none" stroke="midnightblue" d="M201.05,-117.07C183.49,-104.24 158.77,-86.19 144.31,-75.63"/>
<polygon fill="midnightblue" stroke="midnightblue" points="199.36,-120.16 209.5,-123.23 203.49,-114.51 199.36,-120.16"/>
</g>
<!-- Node6 -->
<g id="node6" class="node">
<title>Node6</title>
<g id="a_node6"><a xlink:href="network__butcher_8h.html" target="_top" xlink:title=" ">
<polygon fill="white" stroke="black" points="575,-56.5 575,-75.5 720,-75.5 720,-56.5 575,-56.5"/>
<text text-anchor="middle" x="647.5" y="-63.5" font-family="Helvetica,sans-Serif" font-size="10.00">include/network_butcher.h</text>
</a>
</g>
</g>
<!-- Node5&#45;&gt;Node6 -->
<g id="edge6" class="edge">
<title>Node5&#45;&gt;Node6</title>
<path fill="none" stroke="midnightblue" d="M257.45,-120.59C268.3,-117.46 280.31,-114.29 291.5,-112 388.54,-92.13 502.37,-79.58 574.7,-72.93"/>
<polygon fill="midnightblue" stroke="midnightblue" points="256.45,-117.24 247.86,-123.44 258.44,-123.95 256.45,-117.24"/>
</g>
<!-- Node7 -->
<g id="node7" class="node">
<title>Node7</title>
<g id="a_node7"><a xlink:href="io__manager_8cpp.html" target="_top" xlink:title=" ">
<polygon fill="white" stroke="black" points="225,-56.5 225,-75.5 336,-75.5 336,-56.5 225,-56.5"/>
<text text-anchor="middle" x="280.5" y="-63.5" font-family="Helvetica,sans-Serif" font-size="10.00">src/io_manager.cpp</text>
</a>
</g>
</g>
<!-- Node5&#45;&gt;Node7 -->
<g id="edge7" class="edge">
<title>Node5&#45;&gt;Node7</title>
<path fill="none" stroke="midnightblue" d="M236.35,-115.63C247.89,-102.92 263.44,-85.8 272.67,-75.63"/>
<polygon fill="midnightblue" stroke="midnightblue" points="233.59,-113.48 229.46,-123.23 238.77,-118.18 233.59,-113.48"/>
</g>
<!-- Node9 -->
<g id="node9" class="node">
<title>Node9</title>
<g id="a_node9"><a xlink:href="keppstein_8h.html" target="_top" xlink:title=" ">
<polygon fill="white" stroke="black" points="467.5,-391.5 467.5,-421.5 571.5,-421.5 571.5,-391.5 467.5,-391.5"/>
<text text-anchor="start" x="475.5" y="-409.5" font-family="Helvetica,sans-Serif" font-size="10.00">include/K&#45;shortest</text>
<text text-anchor="middle" x="519.5" y="-398.5" font-family="Helvetica,sans-Serif" font-size="10.00">_path/keppstein.h</text>
</a>
</g>
</g>
<!-- Node8&#45;&gt;Node9 -->
<g id="edge9" class="edge">
<title>Node8&#45;&gt;Node9</title>
<path fill="none" stroke="midnightblue" d="M405.87,-454.54C430.99,-444.14 462.16,-431.24 485.5,-421.58"/>
<polygon fill="midnightblue" stroke="midnightblue" points="404.47,-451.34 396.57,-458.4 407.14,-457.8 404.47,-451.34"/>
</g>
<!-- Node16 -->
<g id="node16" class="node">
<title>Node16</title>
<g id="a_node16"><a xlink:href="keppstein__lazy_8h.html" target="_top" xlink:title=" ">
<polygon fill="white" stroke="black" points="300,-391.5 300,-421.5 427,-421.5 427,-391.5 300,-391.5"/>
<text text-anchor="start" x="308" y="-409.5" font-family="Helvetica,sans-Serif" font-size="10.00">include/K&#45;shortest</text>
<text text-anchor="middle" x="363.5" y="-398.5" font-family="Helvetica,sans-Serif" font-size="10.00">_path/keppstein_lazy.h</text>
</a>
</g>
</g>
<!-- Node8&#45;&gt;Node16 -->
<g id="edge20" class="edge">
<title>Node8&#45;&gt;Node16</title>
<path fill="none" stroke="midnightblue" d="M362.88,-448.11C363.01,-439.15 363.16,-429.32 363.28,-421.58"/>
<polygon fill="midnightblue" stroke="midnightblue" points="359.37,-448.34 362.72,-458.4 366.37,-448.45 359.37,-448.34"/>
</g>
<!-- Node10 -->
<g id="node10" class="node">
<title>Node10</title>
<g id="a_node10"><a xlink:href="kfinder__factory_8h.html" target="_top" xlink:title=" ">
<polygon fill="white" stroke="black" points="456.5,-324.5 456.5,-354.5 584.5,-354.5 584.5,-324.5 456.5,-324.5"/>
<text text-anchor="start" x="464.5" y="-342.5" font-family="Helvetica,sans-Serif" font-size="10.00">include/K&#45;shortest</text>
<text text-anchor="middle" x="520.5" y="-331.5" font-family="Helvetica,sans-Serif" font-size="10.00">_path/kfinder_factory.h</text>
</a>
</g>
</g>
<!-- Node9&#45;&gt;Node10 -->
<g id="edge10" class="edge">
<title>Node9&#45;&gt;Node10</title>
<path fill="none" stroke="midnightblue" d="M519.88,-381.11C520.01,-372.15 520.16,-362.32 520.28,-354.58"/>
<polygon fill="midnightblue" stroke="midnightblue" points="516.37,-381.34 519.72,-391.4 523.37,-381.45 516.37,-381.34"/>
</g>
<!-- Node10&#45;&gt;Node6 -->
<g id="edge19" class="edge">
<title>Node10&#45;&gt;Node6</title>
<path fill="none" stroke="midnightblue" d="M565.94,-320.02C581.55,-311.97 598.19,-301.3 610.5,-288 653.59,-241.48 650.44,-216.76 659.5,-154 662.17,-135.52 661.93,-130.51 659.5,-112 657.82,-99.17 653.55,-84.8 650.59,-75.83"/>
<polygon fill="midnightblue" stroke="midnightblue" points="564.33,-316.9 556.9,-324.45 567.42,-323.19 564.33,-316.9"/>
</g>
<!-- Node11 -->
<g id="node11" class="node">
<title>Node11</title>
<g id="a_node11"><a xlink:href="butcher_8h.html" target="_top" xlink:title=" ">
<polygon fill="white" stroke="black" points="461.5,-268.5 461.5,-287.5 601.5,-287.5 601.5,-268.5 461.5,-268.5"/>
<text text-anchor="middle" x="531.5" y="-275.5" font-family="Helvetica,sans-Serif" font-size="10.00">include/Butcher/butcher.h</text>
</a>
</g>
</g>
<!-- Node10&#45;&gt;Node11 -->
<g id="edge11" class="edge">
<title>Node10&#45;&gt;Node11</title>
<path fill="none" stroke="midnightblue" d="M524.98,-314.29C526.72,-304.86 528.61,-294.65 529.9,-287.66"/>
<polygon fill="midnightblue" stroke="midnightblue" points="521.48,-313.93 523.11,-324.4 528.37,-315.2 521.48,-313.93"/>
</g>
<!-- Node11&#45;&gt;Node6 -->
<g id="edge18" class="edge">
<title>Node11&#45;&gt;Node6</title>
<path fill="none" stroke="midnightblue" d="M568.79,-264.33C584.51,-257.19 601.65,-246.68 612.5,-232 649.39,-182.07 649.18,-101.68 648.02,-75.52"/>
<polygon fill="midnightblue" stroke="midnightblue" points="567.1,-261.25 559.25,-268.36 569.82,-267.7 567.1,-261.25"/>
</g>
<!-- Node12 -->
<g id="node12" class="node">
<title>Node12</title>
<g id="a_node12"><a xlink:href="onnx__importer__helpers_8h.html" target="_top" xlink:title=" ">
<polygon fill="white" stroke="black" points="462,-196 462,-226 603,-226 603,-196 462,-196"/>
<text text-anchor="start" x="470" y="-214" font-family="Helvetica,sans-Serif" font-size="10.00">include/IO_Interaction</text>
<text text-anchor="middle" x="532.5" y="-203" font-family="Helvetica,sans-Serif" font-size="10.00">/onnx_importer_helpers.h</text>
</a>
</g>
</g>
<!-- Node11&#45;&gt;Node12 -->
<g id="edge12" class="edge">
<title>Node11&#45;&gt;Node12</title>
<path fill="none" stroke="midnightblue" d="M531.79,-257.91C531.95,-247.72 532.14,-235.4 532.28,-226.09"/>
<polygon fill="midnightblue" stroke="midnightblue" points="528.29,-258.18 531.63,-268.23 535.29,-258.29 528.29,-258.18"/>
</g>
<!-- Node14 -->
<g id="node14" class="node">
<title>Node14</title>
<g id="a_node14"><a xlink:href="onnx__model__reconstructor__helpers_8h.html" target="_top" xlink:title=" ">
<polygon fill="white" stroke="black" points="295,-190.5 295,-231.5 444,-231.5 444,-190.5 295,-190.5"/>
<text text-anchor="start" x="303" y="-219.5" font-family="Helvetica,sans-Serif" font-size="10.00">include/IO_Interaction</text>
<text text-anchor="start" x="303" y="-208.5" font-family="Helvetica,sans-Serif" font-size="10.00">/onnx_model_reconstructor</text>
<text text-anchor="middle" x="369.5" y="-197.5" font-family="Helvetica,sans-Serif" font-size="10.00">_helpers.h</text>
</a>
</g>
</g>
<!-- Node11&#45;&gt;Node14 -->
<g id="edge15" class="edge">
<title>Node11&#45;&gt;Node14</title>
<path fill="none" stroke="midnightblue" d="M500.63,-264.62C477.41,-255.3 445.13,-242.35 418.41,-231.63"/>
<polygon fill="midnightblue" stroke="midnightblue" points="499.4,-267.89 509.99,-268.37 502.01,-261.4 499.4,-267.89"/>
</g>
<!-- Node12&#45;&gt;Node5 -->
<g id="edge13" class="edge">
<title>Node12&#45;&gt;Node5</title>
<path fill="none" stroke="midnightblue" d="M467.8,-193.46C462.97,-192.27 458.16,-191.11 453.5,-190 381.74,-172.95 362.99,-172.14 291.5,-154 277.78,-150.52 262.67,-146.26 250,-142.56"/>
<polygon fill="midnightblue" stroke="midnightblue" points="467.18,-196.91 477.73,-195.91 468.86,-190.11 467.18,-196.91"/>
</g>
<!-- Node13 -->
<g id="node13" class="node">
<title>Node13</title>
<g id="a_node13"><a xlink:href="onnx__importer__helpers_8cpp.html" target="_top" xlink:title=" ">
<polygon fill="white" stroke="black" points="467.5,-118 467.5,-148 619.5,-148 619.5,-118 467.5,-118"/>
<text text-anchor="start" x="475.5" y="-136" font-family="Helvetica,sans-Serif" font-size="10.00">src/IO_Interaction</text>
<text text-anchor="middle" x="543.5" y="-125" font-family="Helvetica,sans-Serif" font-size="10.00">/onnx_importer_helpers.cpp</text>
</a>
</g>
</g>
<!-- Node12&#45;&gt;Node13 -->
<g id="edge14" class="edge">
<title>Node12&#45;&gt;Node13</title>
<path fill="none" stroke="midnightblue" d="M536.03,-185.59C537.82,-173.26 539.92,-158.72 541.44,-148.23"/>
<polygon fill="midnightblue" stroke="midnightblue" points="532.54,-185.31 534.57,-195.7 539.47,-186.31 532.54,-185.31"/>
</g>
<!-- Node14&#45;&gt;Node5 -->
<g id="edge16" class="edge">
<title>Node14&#45;&gt;Node5</title>
<path fill="none" stroke="midnightblue" d="M322.28,-185.75C293.48,-170.96 258.41,-152.96 238.15,-142.55"/>
<polygon fill="midnightblue" stroke="midnightblue" points="320.89,-188.97 331.39,-190.43 324.09,-182.75 320.89,-188.97"/>
</g>
<!-- Node15 -->
<g id="node15" class="node">
<title>Node15</title>
<g id="a_node15"><a xlink:href="onnx__model__reconstructor__helpers_8cpp.html" target="_top" xlink:title=" ">
<polygon fill="white" stroke="black" points="300,-112.5 300,-153.5 449,-153.5 449,-112.5 300,-112.5"/>
<text text-anchor="start" x="308" y="-141.5" font-family="Helvetica,sans-Serif" font-size="10.00">src/IO_Interaction</text>
<text text-anchor="start" x="308" y="-130.5" font-family="Helvetica,sans-Serif" font-size="10.00">/onnx_model_reconstructor</text>
<text text-anchor="middle" x="374.5" y="-119.5" font-family="Helvetica,sans-Serif" font-size="10.00">_helpers.cpp</text>
</a>
</g>
</g>
<!-- Node14&#45;&gt;Node15 -->
<g id="edge17" class="edge">
<title>Node14&#45;&gt;Node15</title>
<path fill="none" stroke="midnightblue" d="M371.45,-180.3C372.05,-171.3 372.68,-161.65 373.22,-153.51"/>
<polygon fill="midnightblue" stroke="midnightblue" points="367.95,-180.22 370.79,-190.43 374.94,-180.68 367.95,-180.22"/>
</g>
<!-- Node16&#45;&gt;Node10 -->
<g id="edge21" class="edge">
<title>Node16&#45;&gt;Node10</title>
<path fill="none" stroke="midnightblue" d="M406.87,-387.54C431.99,-377.14 463.16,-364.24 486.5,-354.58"/>
<polygon fill="midnightblue" stroke="midnightblue" points="405.47,-384.34 397.57,-391.4 408.14,-390.8 405.47,-384.34"/>
</g>
</g>
</svg>
