<?xml version="1.0" encoding="UTF-8" standalone="no"?>
<!DOCTYPE svg PUBLIC "-//W3C//DTD SVG 1.1//EN"
 "http://www.w3.org/Graphics/SVG/1.1/DTD/svg11.dtd">
<!-- Generated by graphviz version 2.43.0 (0)
 -->
<!-- Title: include/network_butcher/APSC/chrono.h Pages: 1 -->
<svg width="618pt" height="630pt"
 viewBox="0.00 0.00 617.60 630.00" xmlns="http://www.w3.org/2000/svg" xmlns:xlink="http://www.w3.org/1999/xlink">
<g id="graph0" class="graph" transform="scale(1 1) rotate(0) translate(4 626)">
<title>include/network_butcher/APSC/chrono.h</title>
<polygon fill="white" stroke="transparent" points="-4,4 -4,-626 613.6,-626 613.6,4 -4,4"/>
<!-- Node1 -->
<g id="node1" class="node">
<title>Node1</title>
<g id="a_node1"><a xlink:title=" ">
<polygon fill="#bfbfbf" stroke="black" points="69,-591.5 69,-621.5 206,-621.5 206,-591.5 69,-591.5"/>
<text text-anchor="start" x="77" y="-609.5" font-family="Helvetica,sans-Serif" font-size="10.00">include/network_butcher</text>
<text text-anchor="middle" x="137.5" y="-598.5" font-family="Helvetica,sans-Serif" font-size="10.00">/APSC/chrono.h</text>
</a>
</g>
</g>
<!-- Node2 -->
<g id="node2" class="node">
<title>Node2</title>
<g id="a_node2"><a xlink:href="general__manager_8h.html" target="_top" xlink:title=" ">
<polygon fill="white" stroke="black" points="31,-67.5 31,-97.5 168,-97.5 168,-67.5 31,-67.5"/>
<text text-anchor="start" x="39" y="-85.5" font-family="Helvetica,sans-Serif" font-size="10.00">include/network_butcher</text>
<text text-anchor="middle" x="99.5" y="-74.5" font-family="Helvetica,sans-Serif" font-size="10.00">/general_manager.h</text>
</a>
</g>
</g>
<!-- Node1&#45;&gt;Node2 -->
<g id="edge1" class="edge">
<title>Node1&#45;&gt;Node2</title>
<path fill="none" stroke="midnightblue" d="M112.02,-584.21C83.28,-557.67 40.5,-509.35 40.5,-457 40.5,-457 40.5,-457 40.5,-232 40.5,-187.63 40.98,-174.31 59.5,-134 65.76,-120.38 76.42,-107.18 85.17,-97.7"/>
<polygon fill="midnightblue" stroke="midnightblue" points="109.93,-587.04 119.71,-591.11 114.6,-581.83 109.93,-587.04"/>
</g>
<!-- Node3 -->
<g id="node3" class="node">
<title>Node3</title>
<g id="a_node3"><a xlink:href="network__butcher_8h.html" target="_top" xlink:title=" ">
<polygon fill="white" stroke="black" points="157,-0.5 157,-30.5 294,-30.5 294,-0.5 157,-0.5"/>
<text text-anchor="start" x="165" y="-18.5" font-family="Helvetica,sans-Serif" font-size="10.00">include/network_butcher</text>
<text text-anchor="middle" x="225.5" y="-7.5" font-family="Helvetica,sans-Serif" font-size="10.00">/network_butcher.h</text>
</a>
</g>
</g>
<!-- Node1&#45;&gt;Node3 -->
<g id="edge22" class="edge">
<title>Node1&#45;&gt;Node3</title>
<path fill="none" stroke="midnightblue" d="M96.08,-586.55C81.35,-578.37 65.47,-567.73 53.5,-555 19.86,-519.23 2.5,-506.1 2.5,-457 2.5,-457 2.5,-457 2.5,-154 2.5,-114.42 -6.1,-95.37 21.5,-67 31.18,-57.05 101.5,-41.07 156.91,-29.76"/>
<polygon fill="midnightblue" stroke="midnightblue" points="94.59,-589.72 105.06,-591.33 97.87,-583.54 94.59,-589.72"/>
</g>
<!-- Node5 -->
<g id="node5" class="node">
<title>Node5</title>
<g id="a_node5"><a xlink:href="io__manager_8h.html" target="_top" xlink:title=" ">
<polygon fill="white" stroke="black" points="69,-140 69,-170 206,-170 206,-140 69,-140"/>
<text text-anchor="start" x="77" y="-158" font-family="Helvetica,sans-Serif" font-size="10.00">include/network_butcher</text>
<text text-anchor="middle" x="137.5" y="-147" font-family="Helvetica,sans-Serif" font-size="10.00">/io_manager.h</text>
</a>
</g>
</g>
<!-- Node1&#45;&gt;Node5 -->
<g id="edge4" class="edge">
<title>Node1&#45;&gt;Node5</title>
<path fill="none" stroke="midnightblue" d="M137.5,-580.99C137.5,-551.55 137.5,-500.66 137.5,-457 137.5,-457 137.5,-457 137.5,-304.5 137.5,-255.26 137.5,-196.83 137.5,-170.34"/>
<polygon fill="midnightblue" stroke="midnightblue" points="134,-581.16 137.5,-591.16 141,-581.16 134,-581.16"/>
</g>
<!-- Node7 -->
<g id="node7" class="node">
<title>Node7</title>
<g id="a_node7"><a xlink:href="basic__keppstein_8h.html" target="_top" xlink:title=" ">
<polygon fill="white" stroke="black" points="170,-513.5 170,-554.5 307,-554.5 307,-513.5 170,-513.5"/>
<text text-anchor="start" x="178" y="-542.5" font-family="Helvetica,sans-Serif" font-size="10.00">include/network_butcher</text>
<text text-anchor="start" x="178" y="-531.5" font-family="Helvetica,sans-Serif" font-size="10.00">/K&#45;shortest_path/basic</text>
<text text-anchor="middle" x="238.5" y="-520.5" font-family="Helvetica,sans-Serif" font-size="10.00">_keppstein.h</text>
</a>
</g>
</g>
<!-- Node1&#45;&gt;Node7 -->
<g id="edge8" class="edge">
<title>Node1&#45;&gt;Node7</title>
<path fill="none" stroke="midnightblue" d="M166.18,-585.48C180.05,-575.8 196.64,-564.22 210.44,-554.59"/>
<polygon fill="midnightblue" stroke="midnightblue" points="164.14,-582.64 157.94,-591.23 168.14,-588.38 164.14,-582.64"/>
</g>
<!-- Node16 -->
<g id="node16" class="node">
<title>Node16</title>
<g id="a_node16"><a xlink:href="chrono_8cpp.html" target="_top" xlink:title=" ">
<polygon fill="white" stroke="black" points="325.5,-524.5 325.5,-543.5 441.5,-543.5 441.5,-524.5 325.5,-524.5"/>
<text text-anchor="middle" x="383.5" y="-531.5" font-family="Helvetica,sans-Serif" font-size="10.00">src/APSC/chrono.cpp</text>
</a>
</g>
</g>
<!-- Node1&#45;&gt;Node16 -->
<g id="edge23" class="edge">
<title>Node1&#45;&gt;Node16</title>
<path fill="none" stroke="midnightblue" d="M197.34,-588.68C231.9,-578.92 276.18,-566.36 315.5,-555 328.39,-551.28 342.63,-547.1 354.73,-543.53"/>
<polygon fill="midnightblue" stroke="midnightblue" points="196.08,-585.4 187.41,-591.48 197.98,-592.13 196.08,-585.4"/>
</g>
<!-- Node2&#45;&gt;Node3 -->
<g id="edge2" class="edge">
<title>Node2&#45;&gt;Node3</title>
<path fill="none" stroke="midnightblue" d="M135.92,-62.71C155.79,-52.46 179.98,-39.98 198.21,-30.58"/>
<polygon fill="midnightblue" stroke="midnightblue" points="134.12,-59.7 126.84,-67.4 137.33,-65.92 134.12,-59.7"/>
</g>
<!-- Node4 -->
<g id="node4" class="node">
<title>Node4</title>
<g id="a_node4"><a xlink:href="general__manager_8cpp.html" target="_top" xlink:title=" ">
<polygon fill="white" stroke="black" points="0,-6 0,-25 139,-25 139,-6 0,-6"/>
<text text-anchor="middle" x="69.5" y="-13" font-family="Helvetica,sans-Serif" font-size="10.00">src/general_manager.cpp</text>
</a>
</g>
</g>
<!-- Node2&#45;&gt;Node4 -->
<g id="edge3" class="edge">
<title>Node2&#45;&gt;Node4</title>
<path fill="none" stroke="midnightblue" d="M88.79,-58.29C83.49,-46.8 77.41,-33.63 73.51,-25.19"/>
<polygon fill="midnightblue" stroke="midnightblue" points="85.62,-59.78 92.99,-67.4 91.98,-56.85 85.62,-59.78"/>
</g>
<!-- Node5&#45;&gt;Node2 -->
<g id="edge5" class="edge">
<title>Node5&#45;&gt;Node2</title>
<path fill="none" stroke="midnightblue" d="M124.96,-130.73C119.08,-119.83 112.28,-107.2 107.18,-97.75"/>
<polygon fill="midnightblue" stroke="midnightblue" points="121.98,-132.59 129.81,-139.73 128.15,-129.27 121.98,-132.59"/>
</g>
<!-- Node5&#45;&gt;Node3 -->
<g id="edge6" class="edge">
<title>Node5&#45;&gt;Node3</title>
<path fill="none" stroke="midnightblue" d="M153.61,-131.6C160.78,-121.45 169.23,-109.23 176.5,-98 191.58,-74.72 207.97,-46.9 217.46,-30.52"/>
<polygon fill="midnightblue" stroke="midnightblue" points="150.65,-129.73 147.7,-139.91 156.35,-133.79 150.65,-129.73"/>
</g>
<!-- Node6 -->
<g id="node6" class="node">
<title>Node6</title>
<g id="a_node6"><a xlink:href="io__manager_8cpp.html" target="_top" xlink:title=" ">
<polygon fill="white" stroke="black" points="225,-73 225,-92 336,-92 336,-73 225,-73"/>
<text text-anchor="middle" x="280.5" y="-80" font-family="Helvetica,sans-Serif" font-size="10.00">src/io_manager.cpp</text>
</a>
</g>
</g>
<!-- Node5&#45;&gt;Node6 -->
<g id="edge7" class="edge">
<title>Node5&#45;&gt;Node6</title>
<path fill="none" stroke="midnightblue" d="M175.36,-135.33C203.84,-121.29 241.53,-102.71 263.19,-92.03"/>
<polygon fill="midnightblue" stroke="midnightblue" points="173.52,-132.34 166.09,-139.9 176.61,-138.62 173.52,-132.34"/>
</g>
<!-- Node8 -->
<g id="node8" class="node">
<title>Node8</title>
<g id="a_node8"><a xlink:href="keppstein_8h.html" target="_top" xlink:title=" ">
<polygon fill="white" stroke="black" points="179,-441 179,-471 334,-471 334,-441 179,-441"/>
<text text-anchor="start" x="187" y="-459" font-family="Helvetica,sans-Serif" font-size="10.00">include/network_butcher</text>
<text text-anchor="middle" x="256.5" y="-448" font-family="Helvetica,sans-Serif" font-size="10.00">/K&#45;shortest_path/keppstein.h</text>
</a>
</g>
</g>
<!-- Node7&#45;&gt;Node8 -->
<g id="edge9" class="edge">
<title>Node7&#45;&gt;Node8</title>
<path fill="none" stroke="midnightblue" d="M245.46,-503.62C248.09,-492.5 250.97,-480.34 253.13,-471.23"/>
<polygon fill="midnightblue" stroke="midnightblue" points="242.03,-502.89 243.14,-513.43 248.85,-504.5 242.03,-502.89"/>
</g>
<!-- Node15 -->
<g id="node15" class="node">
<title>Node15</title>
<g id="a_node15"><a xlink:href="keppstein__lazy_8h.html" target="_top" xlink:title=" ">
<polygon fill="white" stroke="black" points="359.5,-435.5 359.5,-476.5 505.5,-476.5 505.5,-435.5 359.5,-435.5"/>
<text text-anchor="start" x="367.5" y="-464.5" font-family="Helvetica,sans-Serif" font-size="10.00">include/network_butcher</text>
<text text-anchor="start" x="367.5" y="-453.5" font-family="Helvetica,sans-Serif" font-size="10.00">/K&#45;shortest_path/keppstein</text>
<text text-anchor="middle" x="432.5" y="-442.5" font-family="Helvetica,sans-Serif" font-size="10.00">_lazy.h</text>
</a>
</g>
</g>
<!-- Node7&#45;&gt;Node15 -->
<g id="edge20" class="edge">
<title>Node7&#45;&gt;Node15</title>
<path fill="none" stroke="midnightblue" d="M297.85,-509.75C325.01,-499.11 356.83,-486.65 382.71,-476.51"/>
<polygon fill="midnightblue" stroke="midnightblue" points="296.49,-506.52 288.46,-513.43 299.05,-513.04 296.49,-506.52"/>
</g>
<!-- Node9 -->
<g id="node9" class="node">
<title>Node9</title>
<g id="a_node9"><a xlink:href="kfinder__factory_8h.html" target="_top" xlink:title=" ">
<polygon fill="white" stroke="black" points="367,-357.5 367,-398.5 504,-398.5 504,-357.5 367,-357.5"/>
<text text-anchor="start" x="375" y="-386.5" font-family="Helvetica,sans-Serif" font-size="10.00">include/network_butcher</text>
<text text-anchor="start" x="375" y="-375.5" font-family="Helvetica,sans-Serif" font-size="10.00">/K&#45;shortest_path/kfinder</text>
<text text-anchor="middle" x="435.5" y="-364.5" font-family="Helvetica,sans-Serif" font-size="10.00">_factory.h</text>
</a>
</g>
</g>
<!-- Node8&#45;&gt;Node9 -->
<g id="edge10" class="edge">
<title>Node8&#45;&gt;Node9</title>
<path fill="none" stroke="midnightblue" d="M299,-436.96C326.17,-425.42 361.4,-410.46 389.27,-398.63"/>
<polygon fill="midnightblue" stroke="midnightblue" points="297.59,-433.75 289.75,-440.88 300.32,-440.2 297.59,-433.75"/>
</g>
<!-- Node9&#45;&gt;Node3 -->
<g id="edge19" class="edge">
<title>Node9&#45;&gt;Node3</title>
<path fill="none" stroke="midnightblue" d="M482.82,-352.27C522.07,-327.97 571.5,-286.87 571.5,-234 571.5,-234 571.5,-234 571.5,-154 571.5,-94.94 395.18,-50.13 294.27,-29.32"/>
<polygon fill="midnightblue" stroke="midnightblue" points="480.88,-349.35 474.11,-357.49 484.48,-355.35 480.88,-349.35"/>
</g>
<!-- Node10 -->
<g id="node10" class="node">
<title>Node10</title>
<g id="a_node10"><a xlink:href="butcher_8h.html" target="_top" xlink:title=" ">
<polygon fill="white" stroke="black" points="369,-290.5 369,-320.5 506,-320.5 506,-290.5 369,-290.5"/>
<text text-anchor="start" x="377" y="-308.5" font-family="Helvetica,sans-Serif" font-size="10.00">include/network_butcher</text>
<text text-anchor="middle" x="437.5" y="-297.5" font-family="Helvetica,sans-Serif" font-size="10.00">/Butcher/butcher.h</text>
</a>
</g>
</g>
<!-- Node9&#45;&gt;Node10 -->
<g id="edge11" class="edge">
<title>Node9&#45;&gt;Node10</title>
<path fill="none" stroke="midnightblue" d="M436.35,-347.08C436.61,-338.01 436.88,-328.45 437.09,-320.89"/>
<polygon fill="midnightblue" stroke="midnightblue" points="432.84,-347.27 436.06,-357.36 439.84,-347.47 432.84,-347.27"/>
</g>
<!-- Node10&#45;&gt;Node3 -->
<g id="edge18" class="edge">
<title>Node10&#45;&gt;Node3</title>
<path fill="none" stroke="midnightblue" d="M486.22,-286.01C501.77,-278.12 517.93,-267.55 529.5,-254 585.84,-188.02 642.43,-132.47 585.5,-67 548.54,-24.49 388.1,-16.71 294.34,-15.9"/>
<polygon fill="midnightblue" stroke="midnightblue" points="484.68,-282.86 477.17,-290.34 487.7,-289.18 484.68,-282.86"/>
</g>
<!-- Node11 -->
<g id="node11" class="node">
<title>Node11</title>
<g id="a_node11"><a xlink:href="onnx__model__reconstructor__helpers_8h.html" target="_top" xlink:title=" ">
<polygon fill="white" stroke="black" points="189,-212.5 189,-253.5 340,-253.5 340,-212.5 189,-212.5"/>
<text text-anchor="start" x="197" y="-241.5" font-family="Helvetica,sans-Serif" font-size="10.00">include/network_butcher</text>
<text text-anchor="start" x="197" y="-230.5" font-family="Helvetica,sans-Serif" font-size="10.00">/IO_Interaction/onnx_model</text>
<text text-anchor="middle" x="264.5" y="-219.5" font-family="Helvetica,sans-Serif" font-size="10.00">_reconstructor_helpers.h</text>
</a>
</g>
</g>
<!-- Node10&#45;&gt;Node11 -->
<g id="edge12" class="edge">
<title>Node10&#45;&gt;Node11</title>
<path fill="none" stroke="midnightblue" d="M393.41,-286.53C368.68,-276.45 337.8,-263.87 312.46,-253.55"/>
<polygon fill="midnightblue" stroke="midnightblue" points="392.33,-289.87 402.91,-290.4 394.97,-283.39 392.33,-289.87"/>
</g>
<!-- Node13 -->
<g id="node13" class="node">
<title>Node13</title>
<g id="a_node13"><a xlink:href="onnx__importer__helpers_8h.html" target="_top" xlink:title=" ">
<polygon fill="white" stroke="black" points="358.5,-212.5 358.5,-253.5 520.5,-253.5 520.5,-212.5 358.5,-212.5"/>
<text text-anchor="start" x="366.5" y="-241.5" font-family="Helvetica,sans-Serif" font-size="10.00">include/network_butcher</text>
<text text-anchor="start" x="366.5" y="-230.5" font-family="Helvetica,sans-Serif" font-size="10.00">/IO_Interaction/onnx_importer</text>
<text text-anchor="middle" x="439.5" y="-219.5" font-family="Helvetica,sans-Serif" font-size="10.00">_helpers.h</text>
</a>
</g>
</g>
<!-- Node10&#45;&gt;Node13 -->
<g id="edge15" class="edge">
<title>Node10&#45;&gt;Node13</title>
<path fill="none" stroke="midnightblue" d="M438.2,-279.98C438.44,-271.35 438.71,-261.76 438.94,-253.59"/>
<polygon fill="midnightblue" stroke="midnightblue" points="434.69,-280.14 437.9,-290.23 441.69,-280.34 434.69,-280.14"/>
</g>
<!-- Node11&#45;&gt;Node5 -->
<g id="edge13" class="edge">
<title>Node11&#45;&gt;Node5</title>
<path fill="none" stroke="midnightblue" d="M222.97,-207.15C202.52,-194.91 178.6,-180.59 161.27,-170.23"/>
<polygon fill="midnightblue" stroke="midnightblue" points="221.42,-210.3 231.79,-212.43 225.01,-204.29 221.42,-210.3"/>
</g>
<!-- Node12 -->
<g id="node12" class="node">
<title>Node12</title>
<g id="a_node12"><a xlink:href="onnx__model__reconstructor__helpers_8cpp.html" target="_top" xlink:title=" ">
<polygon fill="white" stroke="black" points="224,-134.5 224,-175.5 373,-175.5 373,-134.5 224,-134.5"/>
<text text-anchor="start" x="232" y="-163.5" font-family="Helvetica,sans-Serif" font-size="10.00">src/IO_Interaction</text>
<text text-anchor="start" x="232" y="-152.5" font-family="Helvetica,sans-Serif" font-size="10.00">/onnx_model_reconstructor</text>
<text text-anchor="middle" x="298.5" y="-141.5" font-family="Helvetica,sans-Serif" font-size="10.00">_helpers.cpp</text>
</a>
</g>
</g>
<!-- Node11&#45;&gt;Node12 -->
<g id="edge14" class="edge">
<title>Node11&#45;&gt;Node12</title>
<path fill="none" stroke="midnightblue" d="M277.4,-203.17C281.53,-193.93 286.01,-183.92 289.77,-175.51"/>
<polygon fill="midnightblue" stroke="midnightblue" points="274.14,-201.87 273.26,-212.43 280.53,-204.73 274.14,-201.87"/>
</g>
<!-- Node13&#45;&gt;Node5 -->
<g id="edge16" class="edge">
<title>Node13&#45;&gt;Node5</title>
<path fill="none" stroke="midnightblue" d="M350.28,-210.02C308.95,-199.77 259.19,-187.37 214.5,-176 207,-174.09 199.1,-172.06 191.33,-170.06"/>
<polygon fill="midnightblue" stroke="midnightblue" points="349.5,-213.43 360.05,-212.44 351.19,-206.63 349.5,-213.43"/>
</g>
<!-- Node14 -->
<g id="node14" class="node">
<title>Node14</title>
<g id="a_node14"><a xlink:href="onnx__importer__helpers_8cpp.html" target="_top" xlink:title=" ">
<polygon fill="white" stroke="black" points="391.5,-140 391.5,-170 543.5,-170 543.5,-140 391.5,-140"/>
<text text-anchor="start" x="399.5" y="-158" font-family="Helvetica,sans-Serif" font-size="10.00">src/IO_Interaction</text>
<text text-anchor="middle" x="467.5" y="-147" font-family="Helvetica,sans-Serif" font-size="10.00">/onnx_importer_helpers.cpp</text>
</a>
</g>
</g>
<!-- Node13&#45;&gt;Node14 -->
<g id="edge17" class="edge">
<title>Node13&#45;&gt;Node14</title>
<path fill="none" stroke="midnightblue" d="M450.2,-202.96C454.33,-191.75 458.87,-179.43 462.26,-170.23"/>
<polygon fill="midnightblue" stroke="midnightblue" points="446.88,-201.83 446.71,-212.43 453.45,-204.25 446.88,-201.83"/>
</g>
<!-- Node15&#45;&gt;Node9 -->
<g id="edge21" class="edge">
<title>Node15&#45;&gt;Node9</title>
<path fill="none" stroke="midnightblue" d="M433.67,-425.3C434.03,-416.3 434.41,-406.65 434.73,-398.51"/>
<polygon fill="midnightblue" stroke="midnightblue" points="430.17,-425.3 433.27,-435.43 437.16,-425.57 430.17,-425.3"/>
</g>
</g>
</svg>
