<?xml version="1.0" encoding="UTF-8" standalone="no"?>
<!DOCTYPE svg PUBLIC "-//W3C//DTD SVG 1.1//EN"
 "http://www.w3.org/Graphics/SVG/1.1/DTD/svg11.dtd">
<!-- Generated by graphviz version 2.43.0 (0)
 -->
<!-- Title: include/APSC/chrono.h Pages: 1 -->
<!--zoomable 553 -->
<svg id="main" version="1.1" xmlns="http://www.w3.org/2000/svg" xmlns:xlink="http://www.w3.org/1999/xlink" xml:space="preserve" onload="init(evt)">
<style type="text/css"><![CDATA[
.edge:hover path { stroke: red; }
.edge:hover polygon { stroke: red; fill: red; }
]]></style>
<script type="text/javascript"><![CDATA[
var edges = document.getElementsByTagName('g');
if (edges && edges.length) {
  for (var i=0;i<edges.length;i++) {
    if (edges[i].id.substr(0,4)=='edge') {
      edges[i].setAttribute('class','edge');
    }
  }
}
]]></script>
        <defs>
                <circle id="rim" cx="0" cy="0" r="7"/>
                <circle id="rim2" cx="0" cy="0" r="3.5"/>
                <g id="zoomPlus">
                        <use xlink:href="#rim" fill="#404040">
                                <set attributeName="fill" to="#808080" begin="zoomplus.mouseover" end="zoomplus.mouseout"/>
                        </use>
                        <path d="M-4,0h8M0,-4v8" fill="none" stroke="white" stroke-width="1.5" pointer-events="none"/>
                </g>
                <g id="zoomMin">
                        <use xlink:href="#rim" fill="#404040">
                                <set attributeName="fill" to="#808080" begin="zoomminus.mouseover" end="zoomminus.mouseout"/>
                        </use>
                        <path d="M-4,0h8" fill="none" stroke="white" stroke-width="1.5" pointer-events="none"/>
                </g>
                <g id="dirArrow">
                        <path fill="none" stroke="white" stroke-width="1.5" d="M0,-3.0v7 M-2.5,-0.5L0,-3.0L2.5,-0.5"/>
                </g>
               <g id="resetDef">
                       <use xlink:href="#rim2" fill="#404040">
                               <set attributeName="fill" to="#808080" begin="reset.mouseover" end="reset.mouseout"/>
                       </use>
               </g>
        </defs>

<script type="text/javascript">
var viewWidth = 698;
var viewHeight = 553;
var sectionId = 'dynsection-1';
</script>
<script xlink:href="svgpan.js"/>
<svg id="graph" class="graph">
<g id="viewport">
<title>include/APSC/chrono.h</title>
<polygon fill="white" stroke="transparent" points="-4,4 -4,-549 694,-549 694,4 -4,4"/>
<!-- Node1 -->
<g id="node1" class="node">
<title>Node1</title>
<g id="a_node1"><a xlink:title=" ">
<polygon fill="#bfbfbf" stroke="black" points="179,-525.5 179,-544.5 304,-544.5 304,-525.5 179,-525.5"/>
<text text-anchor="middle" x="241.5" y="-532.5" font-family="Helvetica,sans-Serif" font-size="10.00">include/APSC/chrono.h</text>
</a>
</g>
</g>
<!-- Node2 -->
<g id="node2" class="node">
<title>Node2</title>
<g id="a_node2"><a xlink:href="general__manager_8h.html" target="_top" xlink:title=" ">
<polygon fill="white" stroke="black" points="28,-56.5 28,-75.5 177,-75.5 177,-56.5 28,-56.5"/>
<text text-anchor="middle" x="102.5" y="-63.5" font-family="Helvetica,sans-Serif" font-size="10.00">include/general_manager.h</text>
</a>
</g>
</g>
<!-- Node1&#45;&gt;Node2 -->
<g id="edge1" class="edge">
<title>Node1&#45;&gt;Node2</title>
<path fill="none" stroke="midnightblue" d="M209.19,-521.45C168.12,-503.14 102.5,-464.89 102.5,-407.5 102.5,-407.5 102.5,-407.5 102.5,-210 102.5,-159.11 102.5,-98.02 102.5,-75.71"/>
<polygon fill="midnightblue" stroke="midnightblue" points="207.98,-524.74 218.55,-525.47 210.74,-518.31 207.98,-524.74"/>
</g>
<!-- Node5 -->
<g id="node5" class="node">
<title>Node5</title>
<g id="a_node5"><a xlink:href="io__manager_8h.html" target="_top" xlink:title=" ">
<polygon fill="white" stroke="black" points="131,-123.5 131,-142.5 252,-142.5 252,-123.5 131,-123.5"/>
<text text-anchor="middle" x="191.5" y="-130.5" font-family="Helvetica,sans-Serif" font-size="10.00">include/io_manager.h</text>
</a>
</g>
</g>
<!-- Node1&#45;&gt;Node5 -->
<g id="edge4" class="edge">
<title>Node1&#45;&gt;Node5</title>
<path fill="none" stroke="midnightblue" d="M230.55,-516.65C216.66,-492.95 194.5,-448.68 194.5,-407.5 194.5,-407.5 194.5,-407.5 194.5,-277 194.5,-226.09 192.58,-165.02 191.81,-142.7"/>
<polygon fill="midnightblue" stroke="midnightblue" points="227.56,-518.48 235.74,-525.22 233.55,-514.85 227.56,-518.48"/>
</g>
<!-- Node8 -->
<g id="node8" class="node">
<title>Node8</title>
<g id="a_node8"><a xlink:href="basic__keppstein_8h.html" target="_top" xlink:title=" ">
<polygon fill="white" stroke="black" points="265.5,-458.5 265.5,-488.5 399.5,-488.5 399.5,-458.5 265.5,-458.5"/>
<text text-anchor="start" x="273.5" y="-476.5" font-family="Helvetica,sans-Serif" font-size="10.00">include/K&#45;shortest</text>
<text text-anchor="middle" x="332.5" y="-465.5" font-family="Helvetica,sans-Serif" font-size="10.00">_path/basic_keppstein.h</text>
</a>
</g>
</g>
<!-- Node1&#45;&gt;Node8 -->
<g id="edge8" class="edge">
<title>Node1&#45;&gt;Node8</title>
<path fill="none" stroke="midnightblue" d="M263.31,-519.74C277.77,-510.28 296.67,-497.93 311.05,-488.52"/>
<polygon fill="midnightblue" stroke="midnightblue" points="260.99,-517.07 254.54,-525.48 264.82,-522.93 260.99,-517.07"/>
</g>
<!-- Node17 -->
<g id="node17" class="node">
<title>Node17</title>
<g id="a_node17"><a xlink:href="chrono_8cpp.html" target="_top" xlink:title=" ">
<polygon fill="white" stroke="black" points="417.5,-464 417.5,-483 533.5,-483 533.5,-464 417.5,-464"/>
<text text-anchor="middle" x="475.5" y="-471" font-family="Helvetica,sans-Serif" font-size="10.00">src/APSC/chrono.cpp</text>
</a>
</g>
</g>
<!-- Node1&#45;&gt;Node17 -->
<g id="edge22" class="edge">
<title>Node1&#45;&gt;Node17</title>
<path fill="none" stroke="midnightblue" d="M284.88,-522.97C330.32,-511.41 400.71,-493.52 442.04,-483.01"/>
<polygon fill="midnightblue" stroke="midnightblue" points="283.86,-519.62 275.03,-525.48 285.58,-526.4 283.86,-519.62"/>
</g>
<!-- Node3 -->
<g id="node3" class="node">
<title>Node3</title>
<g id="a_node3"><a xlink:href="main_8cpp.html" target="_top" xlink:title=" ">
<polygon fill="white" stroke="black" points="0,-0.5 0,-19.5 79,-19.5 79,-0.5 0,-0.5"/>
<text text-anchor="middle" x="39.5" y="-7.5" font-family="Helvetica,sans-Serif" font-size="10.00">src/main.cpp</text>
</a>
</g>
</g>
<!-- Node2&#45;&gt;Node3 -->
<g id="edge2" class="edge">
<title>Node2&#45;&gt;Node3</title>
<path fill="none" stroke="midnightblue" d="M84.46,-49.54C73.23,-39.91 59.18,-27.87 49.81,-19.83"/>
<polygon fill="midnightblue" stroke="midnightblue" points="82.51,-52.47 92.38,-56.32 87.06,-47.16 82.51,-52.47"/>
</g>
<!-- Node4 -->
<g id="node4" class="node">
<title>Node4</title>
<g id="a_node4"><a xlink:href="general__manager_8cpp.html" target="_top" xlink:title=" ">
<polygon fill="white" stroke="black" points="97,-0.5 97,-19.5 236,-19.5 236,-0.5 97,-0.5"/>
<text text-anchor="middle" x="166.5" y="-7.5" font-family="Helvetica,sans-Serif" font-size="10.00">src/general_manager.cpp</text>
</a>
</g>
</g>
<!-- Node2&#45;&gt;Node4 -->
<g id="edge3" class="edge">
<title>Node2&#45;&gt;Node4</title>
<path fill="none" stroke="midnightblue" d="M120.49,-49.82C131.96,-40.15 146.41,-27.95 156.03,-19.83"/>
<polygon fill="midnightblue" stroke="midnightblue" points="118.17,-47.2 112.78,-56.32 122.68,-52.55 118.17,-47.2"/>
</g>
<!-- Node5&#45;&gt;Node2 -->
<g id="edge5" class="edge">
<title>Node5&#45;&gt;Node2</title>
<path fill="none" stroke="midnightblue" d="M171.05,-117.07C153.49,-104.24 128.77,-86.19 114.31,-75.63"/>
<polygon fill="midnightblue" stroke="midnightblue" points="169.36,-120.16 179.5,-123.23 173.49,-114.51 169.36,-120.16"/>
</g>
<!-- Node6 -->
<g id="node6" class="node">
<title>Node6</title>
<g id="a_node6"><a xlink:href="network__butcher_8h.html" target="_top" xlink:title=" ">
<polygon fill="white" stroke="black" points="545,-56.5 545,-75.5 690,-75.5 690,-56.5 545,-56.5"/>
<text text-anchor="middle" x="617.5" y="-63.5" font-family="Helvetica,sans-Serif" font-size="10.00">include/network_butcher.h</text>
</a>
</g>
</g>
<!-- Node5&#45;&gt;Node6 -->
<g id="edge6" class="edge">
<title>Node5&#45;&gt;Node6</title>
<path fill="none" stroke="midnightblue" d="M227.45,-120.59C238.3,-117.46 250.31,-114.29 261.5,-112 358.54,-92.13 472.37,-79.58 544.7,-72.93"/>
<polygon fill="midnightblue" stroke="midnightblue" points="226.45,-117.24 217.86,-123.44 228.44,-123.95 226.45,-117.24"/>
</g>
<!-- Node7 -->
<g id="node7" class="node">
<title>Node7</title>
<g id="a_node7"><a xlink:href="io__manager_8cpp.html" target="_top" xlink:title=" ">
<polygon fill="white" stroke="black" points="195,-56.5 195,-75.5 306,-75.5 306,-56.5 195,-56.5"/>
<text text-anchor="middle" x="250.5" y="-63.5" font-family="Helvetica,sans-Serif" font-size="10.00">src/io_manager.cpp</text>
</a>
</g>
</g>
<!-- Node5&#45;&gt;Node7 -->
<g id="edge7" class="edge">
<title>Node5&#45;&gt;Node7</title>
<path fill="none" stroke="midnightblue" d="M206.35,-115.63C217.89,-102.92 233.44,-85.8 242.67,-75.63"/>
<polygon fill="midnightblue" stroke="midnightblue" points="203.59,-113.48 199.46,-123.23 208.77,-118.18 203.59,-113.48"/>
</g>
<!-- Node9 -->
<g id="node9" class="node">
<title>Node9</title>
<g id="a_node9"><a xlink:href="keppstein_8h.html" target="_top" xlink:title=" ">
<polygon fill="white" stroke="black" points="437.5,-391.5 437.5,-421.5 541.5,-421.5 541.5,-391.5 437.5,-391.5"/>
<text text-anchor="start" x="445.5" y="-409.5" font-family="Helvetica,sans-Serif" font-size="10.00">include/K&#45;shortest</text>
<text text-anchor="middle" x="489.5" y="-398.5" font-family="Helvetica,sans-Serif" font-size="10.00">_path/keppstein.h</text>
</a>
</g>
</g>
<!-- Node8&#45;&gt;Node9 -->
<g id="edge9" class="edge">
<title>Node8&#45;&gt;Node9</title>
<path fill="none" stroke="midnightblue" d="M375.87,-454.54C400.99,-444.14 432.16,-431.24 455.5,-421.58"/>
<polygon fill="midnightblue" stroke="midnightblue" points="374.47,-451.34 366.57,-458.4 377.14,-457.8 374.47,-451.34"/>
</g>
<!-- Node16 -->
<g id="node16" class="node">
<title>Node16</title>
<g id="a_node16"><a xlink:href="keppstein__lazy_8h.html" target="_top" xlink:title=" ">
<polygon fill="white" stroke="black" points="270,-391.5 270,-421.5 397,-421.5 397,-391.5 270,-391.5"/>
<text text-anchor="start" x="278" y="-409.5" font-family="Helvetica,sans-Serif" font-size="10.00">include/K&#45;shortest</text>
<text text-anchor="middle" x="333.5" y="-398.5" font-family="Helvetica,sans-Serif" font-size="10.00">_path/keppstein_lazy.h</text>
</a>
</g>
</g>
<!-- Node8&#45;&gt;Node16 -->
<g id="edge20" class="edge">
<title>Node8&#45;&gt;Node16</title>
<path fill="none" stroke="midnightblue" d="M332.88,-448.11C333.01,-439.15 333.16,-429.32 333.28,-421.58"/>
<polygon fill="midnightblue" stroke="midnightblue" points="329.37,-448.34 332.72,-458.4 336.37,-448.45 329.37,-448.34"/>
</g>
<!-- Node10 -->
<g id="node10" class="node">
<title>Node10</title>
<g id="a_node10"><a xlink:href="kfinder__factory_8h.html" target="_top" xlink:title=" ">
<polygon fill="white" stroke="black" points="426.5,-324.5 426.5,-354.5 554.5,-354.5 554.5,-324.5 426.5,-324.5"/>
<text text-anchor="start" x="434.5" y="-342.5" font-family="Helvetica,sans-Serif" font-size="10.00">include/K&#45;shortest</text>
<text text-anchor="middle" x="490.5" y="-331.5" font-family="Helvetica,sans-Serif" font-size="10.00">_path/kfinder_factory.h</text>
</a>
</g>
</g>
<!-- Node9&#45;&gt;Node10 -->
<g id="edge10" class="edge">
<title>Node9&#45;&gt;Node10</title>
<path fill="none" stroke="midnightblue" d="M489.88,-381.11C490.01,-372.15 490.16,-362.32 490.28,-354.58"/>
<polygon fill="midnightblue" stroke="midnightblue" points="486.37,-381.34 489.72,-391.4 493.37,-381.45 486.37,-381.34"/>
</g>
<!-- Node10&#45;&gt;Node6 -->
<g id="edge19" class="edge">
<title>Node10&#45;&gt;Node6</title>
<path fill="none" stroke="midnightblue" d="M535.94,-320.02C551.55,-311.97 568.19,-301.3 580.5,-288 623.59,-241.48 620.44,-216.76 629.5,-154 632.17,-135.52 631.93,-130.51 629.5,-112 627.82,-99.17 623.55,-84.8 620.59,-75.83"/>
<polygon fill="midnightblue" stroke="midnightblue" points="534.33,-316.9 526.9,-324.45 537.42,-323.19 534.33,-316.9"/>
</g>
<!-- Node11 -->
<g id="node11" class="node">
<title>Node11</title>
<g id="a_node11"><a xlink:href="butcher_8h.html" target="_top" xlink:title=" ">
<polygon fill="white" stroke="black" points="431.5,-268.5 431.5,-287.5 571.5,-287.5 571.5,-268.5 431.5,-268.5"/>
<text text-anchor="middle" x="501.5" y="-275.5" font-family="Helvetica,sans-Serif" font-size="10.00">include/Butcher/butcher.h</text>
</a>
</g>
</g>
<!-- Node10&#45;&gt;Node11 -->
<g id="edge11" class="edge">
<title>Node10&#45;&gt;Node11</title>
<path fill="none" stroke="midnightblue" d="M494.98,-314.29C496.72,-304.86 498.61,-294.65 499.9,-287.66"/>
<polygon fill="midnightblue" stroke="midnightblue" points="491.48,-313.93 493.11,-324.4 498.37,-315.2 491.48,-313.93"/>
</g>
<!-- Node11&#45;&gt;Node6 -->
<g id="edge18" class="edge">
<title>Node11&#45;&gt;Node6</title>
<path fill="none" stroke="midnightblue" d="M538.79,-264.33C554.51,-257.19 571.65,-246.68 582.5,-232 619.39,-182.07 619.18,-101.68 618.02,-75.52"/>
<polygon fill="midnightblue" stroke="midnightblue" points="537.1,-261.25 529.25,-268.36 539.82,-267.7 537.1,-261.25"/>
</g>
<!-- Node12 -->
<g id="node12" class="node">
<title>Node12</title>
<g id="a_node12"><a xlink:href="onnx__importer__helpers_8h.html" target="_top" xlink:title=" ">
<polygon fill="white" stroke="black" points="432,-196 432,-226 573,-226 573,-196 432,-196"/>
<text text-anchor="start" x="440" y="-214" font-family="Helvetica,sans-Serif" font-size="10.00">include/IO_Interaction</text>
<text text-anchor="middle" x="502.5" y="-203" font-family="Helvetica,sans-Serif" font-size="10.00">/onnx_importer_helpers.h</text>
</a>
</g>
</g>
<!-- Node11&#45;&gt;Node12 -->
<g id="edge12" class="edge">
<title>Node11&#45;&gt;Node12</title>
<path fill="none" stroke="midnightblue" d="M501.79,-257.91C501.95,-247.72 502.14,-235.4 502.28,-226.09"/>
<polygon fill="midnightblue" stroke="midnightblue" points="498.29,-258.18 501.63,-268.23 505.29,-258.29 498.29,-258.18"/>
</g>
<!-- Node14 -->
<g id="node14" class="node">
<title>Node14</title>
<g id="a_node14"><a xlink:href="onnx__model__reconstructor__helpers_8h.html" target="_top" xlink:title=" ">
<polygon fill="white" stroke="black" points="265,-190.5 265,-231.5 414,-231.5 414,-190.5 265,-190.5"/>
<text text-anchor="start" x="273" y="-219.5" font-family="Helvetica,sans-Serif" font-size="10.00">include/IO_Interaction</text>
<text text-anchor="start" x="273" y="-208.5" font-family="Helvetica,sans-Serif" font-size="10.00">/onnx_model_reconstructor</text>
<text text-anchor="middle" x="339.5" y="-197.5" font-family="Helvetica,sans-Serif" font-size="10.00">_helpers.h</text>
</a>
</g>
</g>
<!-- Node11&#45;&gt;Node14 -->
<g id="edge15" class="edge">
<title>Node11&#45;&gt;Node14</title>
<path fill="none" stroke="midnightblue" d="M470.63,-264.62C447.41,-255.3 415.13,-242.35 388.41,-231.63"/>
<polygon fill="midnightblue" stroke="midnightblue" points="469.4,-267.89 479.99,-268.37 472.01,-261.4 469.4,-267.89"/>
</g>
<!-- Node12&#45;&gt;Node5 -->
<g id="edge13" class="edge">
<title>Node12&#45;&gt;Node5</title>
<path fill="none" stroke="midnightblue" d="M437.8,-193.46C432.97,-192.27 428.16,-191.11 423.5,-190 351.74,-172.95 332.99,-172.14 261.5,-154 247.78,-150.52 232.67,-146.26 220,-142.56"/>
<polygon fill="midnightblue" stroke="midnightblue" points="437.18,-196.91 447.73,-195.91 438.86,-190.11 437.18,-196.91"/>
</g>
<!-- Node13 -->
<g id="node13" class="node">
<title>Node13</title>
<g id="a_node13"><a xlink:href="onnx__importer__helpers_8cpp.html" target="_top" xlink:title=" ">
<polygon fill="white" stroke="black" points="437.5,-118 437.5,-148 589.5,-148 589.5,-118 437.5,-118"/>
<text text-anchor="start" x="445.5" y="-136" font-family="Helvetica,sans-Serif" font-size="10.00">src/IO_Interaction</text>
<text text-anchor="middle" x="513.5" y="-125" font-family="Helvetica,sans-Serif" font-size="10.00">/onnx_importer_helpers.cpp</text>
</a>
</g>
</g>
<!-- Node12&#45;&gt;Node13 -->
<g id="edge14" class="edge">
<title>Node12&#45;&gt;Node13</title>
<path fill="none" stroke="midnightblue" d="M506.03,-185.59C507.82,-173.26 509.92,-158.72 511.44,-148.23"/>
<polygon fill="midnightblue" stroke="midnightblue" points="502.54,-185.31 504.57,-195.7 509.47,-186.31 502.54,-185.31"/>
</g>
<!-- Node14&#45;&gt;Node5 -->
<g id="edge16" class="edge">
<title>Node14&#45;&gt;Node5</title>
<path fill="none" stroke="midnightblue" d="M292.28,-185.75C263.48,-170.96 228.41,-152.96 208.15,-142.55"/>
<polygon fill="midnightblue" stroke="midnightblue" points="290.89,-188.97 301.39,-190.43 294.09,-182.75 290.89,-188.97"/>
</g>
<!-- Node15 -->
<g id="node15" class="node">
<title>Node15</title>
<g id="a_node15"><a xlink:href="onnx__model__reconstructor__helpers_8cpp.html" target="_top" xlink:title=" ">
<polygon fill="white" stroke="black" points="270,-112.5 270,-153.5 419,-153.5 419,-112.5 270,-112.5"/>
<text text-anchor="start" x="278" y="-141.5" font-family="Helvetica,sans-Serif" font-size="10.00">src/IO_Interaction</text>
<text text-anchor="start" x="278" y="-130.5" font-family="Helvetica,sans-Serif" font-size="10.00">/onnx_model_reconstructor</text>
<text text-anchor="middle" x="344.5" y="-119.5" font-family="Helvetica,sans-Serif" font-size="10.00">_helpers.cpp</text>
</a>
</g>
</g>
<!-- Node14&#45;&gt;Node15 -->
<g id="edge17" class="edge">
<title>Node14&#45;&gt;Node15</title>
<path fill="none" stroke="midnightblue" d="M341.45,-180.3C342.05,-171.3 342.68,-161.65 343.22,-153.51"/>
<polygon fill="midnightblue" stroke="midnightblue" points="337.95,-180.22 340.79,-190.43 344.94,-180.68 337.95,-180.22"/>
</g>
<!-- Node16&#45;&gt;Node10 -->
<g id="edge21" class="edge">
<title>Node16&#45;&gt;Node10</title>
<path fill="none" stroke="midnightblue" d="M376.87,-387.54C401.99,-377.14 433.16,-364.24 456.5,-354.58"/>
<polygon fill="midnightblue" stroke="midnightblue" points="375.47,-384.34 367.57,-391.4 378.14,-390.8 375.47,-384.34"/>
</g>
</g>
</svg>
        <g id="navigator" transform="translate(0 0)" fill="#404254">
                <rect fill="#f2f5e9" fill-opacity="0.5" stroke="#606060" stroke-width=".5" x="0" y="0" width="60" height="60"/>
                <use id="zoomplus" xlink:href="#zoomPlus" x="17" y="9" onmousedown="handleZoom(evt,'in')"/>
                <use id="zoomminus" xlink:href="#zoomMin" x="42" y="9" onmousedown="handleZoom(evt,'out')"/>
                <use id="reset" xlink:href="#resetDef" x="30" y="36" onmousedown="handleReset()"/>
                <g id="arrowUp" xlink:href="#dirArrow" transform="translate(30 24)" onmousedown="handlePan(0,-1)">
                  <use xlink:href="#rim" fill="#404040">
                        <set attributeName="fill" to="#808080" begin="arrowUp.mouseover" end="arrowUp.mouseout"/>
                  </use>
                  <path fill="none" stroke="white" stroke-width="1.5" d="M0,-3.0v7 M-2.5,-0.5L0,-3.0L2.5,-0.5"/>
                </g>
                <g id="arrowRight" xlink:href="#dirArrow" transform="rotate(90) translate(36 -43)" onmousedown="handlePan(1,0)">
                  <use xlink:href="#rim" fill="#404040">
                        <set attributeName="fill" to="#808080" begin="arrowRight.mouseover" end="arrowRight.mouseout"/>
                  </use>
                  <path fill="none" stroke="white" stroke-width="1.5" d="M0,-3.0v7 M-2.5,-0.5L0,-3.0L2.5,-0.5"/>
                </g>
                <g id="arrowDown" xlink:href="#dirArrow" transform="rotate(180) translate(-30 -48)" onmousedown="handlePan(0,1)">
                  <use xlink:href="#rim" fill="#404040">
                        <set attributeName="fill" to="#808080" begin="arrowDown.mouseover" end="arrowDown.mouseout"/>
                  </use>
                  <path fill="none" stroke="white" stroke-width="1.5" d="M0,-3.0v7 M-2.5,-0.5L0,-3.0L2.5,-0.5"/>
                </g>
                <g id="arrowLeft" xlink:href="#dirArrow" transform="rotate(270) translate(-36 17)" onmousedown="handlePan(-1,0)">
                  <use xlink:href="#rim" fill="#404040">
                        <set attributeName="fill" to="#808080" begin="arrowLeft.mouseover" end="arrowLeft.mouseout"/>
                  </use>
                  <path fill="none" stroke="white" stroke-width="1.5" d="M0,-3.0v7 M-2.5,-0.5L0,-3.0L2.5,-0.5"/>
                </g>
        </g>
        <svg viewBox="0 0 15 15" width="100%" height="30px" preserveAspectRatio="xMaxYMin meet">
         <g id="arrow_out" transform="scale(0.3 0.3)">
          <a xlink:href="chrono_8h__dep__incl_org.svg" target="_base">
           <rect id="button" ry="5" rx="5" y="6" x="6" height="38" width="38"
                fill="#f2f5e9" fill-opacity="0.5" stroke="#606060" stroke-width="1.0"/>
           <path id="arrow"
             d="M 11.500037,31.436501 C 11.940474,20.09759 22.043105,11.32322 32.158766,21.979434 L 37.068811,17.246167 C 37.068811,17.246167 37.088388,32 37.088388,32 L 22.160133,31.978069 C 22.160133,31.978069 26.997745,27.140456 26.997745,27.140456 C 18.528582,18.264221 13.291696,25.230495 11.500037,31.436501 z"
             style="fill:#404040;"/>
          </a>
         </g>
        </svg>
</svg>
