<?xml version="1.0" encoding="UTF-8" standalone="no"?>
<!DOCTYPE svg PUBLIC "-//W3C//DTD SVG 1.1//EN"
 "http://www.w3.org/Graphics/SVG/1.1/DTD/svg11.dtd">
<!-- Generated by graphviz version 2.43.0 (0)
 -->
<!-- Title: network_butcher::constraints::Memory_Constraint&lt; GraphType &gt; Pages: 1 -->
<svg width="885pt" height="485pt"
 viewBox="0.00 0.00 885.00 485.00" xmlns="http://www.w3.org/2000/svg" xmlns:xlink="http://www.w3.org/1999/xlink">
<g id="graph0" class="graph" transform="scale(1 1) rotate(0) translate(4 481)">
<title>network_butcher::constraints::Memory_Constraint&lt; GraphType &gt;</title>
<polygon fill="white" stroke="transparent" points="-4,4 -4,-481 881,-481 881,4 -4,4"/>
<!-- Node1 -->
<g id="node1" class="node">
<title>Node1</title>
<g id="a_node1"><a xlink:title=" ">
<polygon fill="#bfbfbf" stroke="black" points="180,-0.5 180,-123.5 373,-123.5 373,-0.5 180,-0.5"/>
<text text-anchor="start" x="188" y="-111.5" font-family="Helvetica,sans-Serif" font-size="10.00">network_butcher::constraints</text>
<text text-anchor="middle" x="276.5" y="-100.5" font-family="Helvetica,sans-Serif" font-size="10.00">::Memory_Constraint&lt; GraphType &gt;</text>
<polyline fill="none" stroke="black" points="180,-93.5 373,-93.5 "/>
<text text-anchor="start" x="188" y="-81.5" font-family="Helvetica,sans-Serif" font-size="10.00">&#45; graph</text>
<polyline fill="none" stroke="black" points="180,-74.5 373,-74.5 "/>
<text text-anchor="start" x="188" y="-62.5" font-family="Helvetica,sans-Serif" font-size="10.00">+ Memory_Constraint()</text>
<text text-anchor="start" x="188" y="-51.5" font-family="Helvetica,sans-Serif" font-size="10.00">+ apply_constraint()</text>
<text text-anchor="start" x="188" y="-40.5" font-family="Helvetica,sans-Serif" font-size="10.00">+ copy()</text>
<text text-anchor="start" x="188" y="-29.5" font-family="Helvetica,sans-Serif" font-size="10.00">+ ~Memory_Constraint()</text>
<text text-anchor="start" x="188" y="-18.5" font-family="Helvetica,sans-Serif" font-size="10.00">&#45; estimate_maximum_memory</text>
<text text-anchor="start" x="188" y="-7.5" font-family="Helvetica,sans-Serif" font-size="10.00">_usage()</text>
</a>
</g>
</g>
<!-- Node2 -->
<g id="node2" class="node">
<title>Node2</title>
<g id="a_node2"><a xlink:href="classnetwork__butcher_1_1constraints_1_1Graph__Constraint.html" target="_top" xlink:title="A simple class representing a constraint to be applied during the block graph construction.">
<polygon fill="white" stroke="black" points="181.5,-171.5 181.5,-272.5 339.5,-272.5 339.5,-171.5 181.5,-171.5"/>
<text text-anchor="start" x="189.5" y="-260.5" font-family="Helvetica,sans-Serif" font-size="10.00">network_butcher::constraints</text>
<text text-anchor="middle" x="260.5" y="-249.5" font-family="Helvetica,sans-Serif" font-size="10.00">::Graph_Constraint</text>
<polyline fill="none" stroke="black" points="181.5,-242.5 339.5,-242.5 "/>
<text text-anchor="middle" x="260.5" y="-230.5" font-family="Helvetica,sans-Serif" font-size="10.00"> </text>
<polyline fill="none" stroke="black" points="181.5,-223.5 339.5,-223.5 "/>
<text text-anchor="start" x="189.5" y="-211.5" font-family="Helvetica,sans-Serif" font-size="10.00">+ Graph_Constraint()</text>
<text text-anchor="start" x="189.5" y="-200.5" font-family="Helvetica,sans-Serif" font-size="10.00">+ apply_constraint()</text>
<text text-anchor="start" x="189.5" y="-189.5" font-family="Helvetica,sans-Serif" font-size="10.00">+ copy()</text>
<text text-anchor="start" x="189.5" y="-178.5" font-family="Helvetica,sans-Serif" font-size="10.00">+ ~Graph_Constraint()</text>
</a>
</g>
</g>
<!-- Node2&#45;&gt;Node1 -->
<g id="edge1" class="edge">
<title>Node2&#45;&gt;Node1</title>
<path fill="none" stroke="midnightblue" d="M266.54,-161.31C267.79,-149.03 269.1,-136.09 270.35,-123.77"/>
<polygon fill="none" stroke="midnightblue" points="263.04,-161.14 265.52,-171.44 270.01,-161.84 263.04,-161.14"/>
</g>
<!-- Node3 -->
<g id="node3" class="node">
<title>Node3</title>
<g id="a_node3"><a xlink:href="structnetwork__butcher_1_1parameters_1_1Parameters.html" target="_top" xlink:title="The collection of parameters.">
<polygon fill="white" stroke="black" points="358,-188 358,-256 519,-256 519,-188 358,-188"/>
<text text-anchor="start" x="366" y="-244" font-family="Helvetica,sans-Serif" font-size="10.00">network_butcher::parameters</text>
<text text-anchor="middle" x="438.5" y="-233" font-family="Helvetica,sans-Serif" font-size="10.00">::Parameters</text>
<polyline fill="none" stroke="black" points="358,-226 519,-226 "/>
<text text-anchor="start" x="366" y="-214" font-family="Helvetica,sans-Serif" font-size="10.00">+ devices</text>
<polyline fill="none" stroke="black" points="358,-207 519,-207 "/>
<text text-anchor="middle" x="438.5" y="-195" font-family="Helvetica,sans-Serif" font-size="10.00"> </text>
</a>
</g>
</g>
<!-- Node3&#45;&gt;Node1 -->
<g id="edge2" class="edge">
<title>Node3&#45;&gt;Node1</title>
<path fill="none" stroke="#404040" d="M404.54,-187.88C387.89,-171.64 367.18,-151.44 347.31,-132.06"/>
<polygon fill="none" stroke="#404040" points="347.15,-131.9 340.06,-130.58 338.56,-123.52 345.64,-124.85 347.15,-131.9"/>
<text text-anchor="middle" x="388.5" y="-145" font-family="Helvetica,sans-Serif" font-size="10.00"> &#45;params</text>
</g>
<!-- Node4 -->
<g id="node4" class="node">
<title>Node4</title>
<g id="a_node4"><a xlink:href="structnetwork__butcher_1_1parameters_1_1Parameters_1_1Block__Graph__Generation.html" target="_top" xlink:title="Structure used to contain all the parameters related to the Block Graph Generation.">
<polygon fill="white" stroke="black" points="0,-337 0,-471 161,-471 161,-337 0,-337"/>
<text text-anchor="start" x="8" y="-459" font-family="Helvetica,sans-Serif" font-size="10.00">network_butcher::parameters</text>
<text text-anchor="start" x="8" y="-448" font-family="Helvetica,sans-Serif" font-size="10.00">::Parameters::Block_Graph</text>
<text text-anchor="middle" x="80.5" y="-437" font-family="Helvetica,sans-Serif" font-size="10.00">_Generation</text>
<polyline fill="none" stroke="black" points="0,-430 161,-430 "/>
<text text-anchor="start" x="8" y="-418" font-family="Helvetica,sans-Serif" font-size="10.00">+ starting_device_id</text>
<text text-anchor="start" x="8" y="-407" font-family="Helvetica,sans-Serif" font-size="10.00">+ ending_device_id</text>
<text text-anchor="start" x="8" y="-396" font-family="Helvetica,sans-Serif" font-size="10.00">+ block_graph_mode</text>
<text text-anchor="start" x="8" y="-385" font-family="Helvetica,sans-Serif" font-size="10.00">+ use_bandwidth_to_manage</text>
<text text-anchor="start" x="8" y="-374" font-family="Helvetica,sans-Serif" font-size="10.00">_connections</text>
<text text-anchor="start" x="8" y="-363" font-family="Helvetica,sans-Serif" font-size="10.00">+ memory_constraint</text>
<polyline fill="none" stroke="black" points="0,-356 161,-356 "/>
<text text-anchor="middle" x="80.5" y="-344" font-family="Helvetica,sans-Serif" font-size="10.00"> </text>
</a>
</g>
</g>
<!-- Node4&#45;&gt;Node3 -->
<g id="edge3" class="edge">
<title>Node4&#45;&gt;Node3</title>
<path fill="none" stroke="#404040" d="M135.12,-336.72C153.12,-319.04 174.49,-301.86 197.5,-291 258.62,-262.14 284.19,-293.8 348.5,-273 357.69,-270.03 367.01,-266.08 375.99,-261.71"/>
<polygon fill="none" stroke="#404040" points="376.08,-261.67 379.59,-255.37 386.76,-256.19 383.24,-262.49 376.08,-261.67"/>
<text text-anchor="start" x="197.5" y="-305" font-family="Helvetica,sans-Serif" font-size="10.00"> +block_graph_generation</text>
<text text-anchor="middle" x="262" y="-294" font-family="Helvetica,sans-Serif" font-size="10.00">_params</text>
</g>
<!-- Node5 -->
<g id="node5" class="node">
<title>Node5</title>
<g id="a_node5"><a xlink:href="structnetwork__butcher_1_1parameters_1_1Parameters_1_1Model.html" target="_top" xlink:title="Structure used to contain all the model related parameters.">
<polygon fill="white" stroke="black" points="179,-353.5 179,-454.5 340,-454.5 340,-353.5 179,-353.5"/>
<text text-anchor="start" x="187" y="-442.5" font-family="Helvetica,sans-Serif" font-size="10.00">network_butcher::parameters</text>
<text text-anchor="middle" x="259.5" y="-431.5" font-family="Helvetica,sans-Serif" font-size="10.00">::Parameters::Model</text>
<polyline fill="none" stroke="black" points="179,-424.5 340,-424.5 "/>
<text text-anchor="start" x="187" y="-412.5" font-family="Helvetica,sans-Serif" font-size="10.00">+ model_name</text>
<text text-anchor="start" x="187" y="-401.5" font-family="Helvetica,sans-Serif" font-size="10.00">+ model_path</text>
<text text-anchor="start" x="187" y="-390.5" font-family="Helvetica,sans-Serif" font-size="10.00">+ export_directory</text>
<text text-anchor="start" x="187" y="-379.5" font-family="Helvetica,sans-Serif" font-size="10.00">+ config_path</text>
<polyline fill="none" stroke="black" points="179,-372.5 340,-372.5 "/>
<text text-anchor="middle" x="259.5" y="-360.5" font-family="Helvetica,sans-Serif" font-size="10.00"> </text>
</a>
</g>
</g>
<!-- Node5&#45;&gt;Node3 -->
<g id="edge4" class="edge">
<title>Node5&#45;&gt;Node3</title>
<path fill="none" stroke="#404040" d="M295.2,-353.41C310.84,-333.11 330.04,-309.99 349.5,-291 359.19,-281.55 370.19,-272.21 381.07,-263.62"/>
<polygon fill="none" stroke="#404040" points="381.07,-263.62 383.37,-256.78 390.57,-256.28 388.26,-263.11 381.07,-263.62"/>
<text text-anchor="middle" x="392" y="-299.5" font-family="Helvetica,sans-Serif" font-size="10.00"> +model_params</text>
</g>
<!-- Node6 -->
<g id="node6" class="node">
<title>Node6</title>
<g id="a_node6"><a xlink:href="structnetwork__butcher_1_1parameters_1_1Parameters_1_1KSP.html" target="_top" xlink:title="Structure used to contain all the parameters related to the K shortest path method.">
<polygon fill="white" stroke="black" points="358,-364.5 358,-443.5 519,-443.5 519,-364.5 358,-364.5"/>
<text text-anchor="start" x="366" y="-431.5" font-family="Helvetica,sans-Serif" font-size="10.00">network_butcher::parameters</text>
<text text-anchor="middle" x="438.5" y="-420.5" font-family="Helvetica,sans-Serif" font-size="10.00">::Parameters::KSP</text>
<polyline fill="none" stroke="black" points="358,-413.5 519,-413.5 "/>
<text text-anchor="start" x="366" y="-401.5" font-family="Helvetica,sans-Serif" font-size="10.00">+ K</text>
<text text-anchor="start" x="366" y="-390.5" font-family="Helvetica,sans-Serif" font-size="10.00">+ method</text>
<polyline fill="none" stroke="black" points="358,-383.5 519,-383.5 "/>
<text text-anchor="middle" x="438.5" y="-371.5" font-family="Helvetica,sans-Serif" font-size="10.00"> </text>
</a>
</g>
</g>
<!-- Node6&#45;&gt;Node3 -->
<g id="edge5" class="edge">
<title>Node6&#45;&gt;Node3</title>
<path fill="none" stroke="#404040" d="M438.5,-364.39C438.5,-336.18 438.5,-297.86 438.5,-268.23"/>
<polygon fill="none" stroke="#404040" points="438.5,-268.11 434.5,-262.11 438.5,-256.11 442.5,-262.11 438.5,-268.11"/>
<text text-anchor="middle" x="474" y="-299.5" font-family="Helvetica,sans-Serif" font-size="10.00"> +ksp_params</text>
</g>
<!-- Node7 -->
<g id="node7" class="node">
<title>Node7</title>
<g id="a_node7"><a xlink:href="structnetwork__butcher_1_1parameters_1_1Parameters_1_1aMLLibrary.html" target="_top" xlink:title="Structure used to contain all the aMLLibrary related parameters.">
<polygon fill="white" stroke="black" points="537,-348 537,-460 698,-460 698,-348 537,-348"/>
<text text-anchor="start" x="545" y="-448" font-family="Helvetica,sans-Serif" font-size="10.00">network_butcher::parameters</text>
<text text-anchor="middle" x="617.5" y="-437" font-family="Helvetica,sans-Serif" font-size="10.00">::Parameters::aMLLibrary</text>
<polyline fill="none" stroke="black" points="537,-430 698,-430 "/>
<text text-anchor="start" x="545" y="-418" font-family="Helvetica,sans-Serif" font-size="10.00">+ temporary_directory</text>
<text text-anchor="start" x="545" y="-407" font-family="Helvetica,sans-Serif" font-size="10.00">+ extra_packages_location</text>
<text text-anchor="start" x="545" y="-396" font-family="Helvetica,sans-Serif" font-size="10.00">+ aMLLibrary_inference</text>
<text text-anchor="start" x="545" y="-385" font-family="Helvetica,sans-Serif" font-size="10.00">_variables</text>
<text text-anchor="start" x="545" y="-374" font-family="Helvetica,sans-Serif" font-size="10.00">+ aMLLibrary_csv_features</text>
<polyline fill="none" stroke="black" points="537,-367 698,-367 "/>
<text text-anchor="middle" x="617.5" y="-355" font-family="Helvetica,sans-Serif" font-size="10.00"> </text>
</a>
</g>
</g>
<!-- Node7&#45;&gt;Node3 -->
<g id="edge6" class="edge">
<title>Node7&#45;&gt;Node3</title>
<path fill="none" stroke="#404040" d="M568.17,-347.99C551.17,-329.55 531.81,-309.09 513.5,-291 504.59,-282.2 494.84,-273.03 485.39,-264.38"/>
<polygon fill="none" stroke="#404040" points="485.35,-264.35 478.22,-263.27 476.47,-256.28 483.6,-257.35 485.35,-264.35"/>
<text text-anchor="middle" x="587.5" y="-299.5" font-family="Helvetica,sans-Serif" font-size="10.00"> +aMLLibrary_params</text>
</g>
<!-- Node8 -->
<g id="node8" class="node">
<title>Node8</title>
<g id="a_node8"><a xlink:href="structnetwork__butcher_1_1parameters_1_1Parameters_1_1Weights.html" target="_top" xlink:title="Structure used to contain all the weights related parameters.">
<polygon fill="white" stroke="black" points="716,-331.5 716,-476.5 877,-476.5 877,-331.5 716,-331.5"/>
<text text-anchor="start" x="724" y="-464.5" font-family="Helvetica,sans-Serif" font-size="10.00">network_butcher::parameters</text>
<text text-anchor="middle" x="796.5" y="-453.5" font-family="Helvetica,sans-Serif" font-size="10.00">::Parameters::Weights</text>
<polyline fill="none" stroke="black" points="716,-446.5 877,-446.5 "/>
<text text-anchor="start" x="724" y="-434.5" font-family="Helvetica,sans-Serif" font-size="10.00">+ weight_import_mode</text>
<text text-anchor="start" x="724" y="-423.5" font-family="Helvetica,sans-Serif" font-size="10.00">+ single_weight_import_path</text>
<text text-anchor="start" x="724" y="-412.5" font-family="Helvetica,sans-Serif" font-size="10.00">+ single_csv_columns</text>
<text text-anchor="start" x="724" y="-401.5" font-family="Helvetica,sans-Serif" font-size="10.00">_weights</text>
<text text-anchor="start" x="724" y="-390.5" font-family="Helvetica,sans-Serif" font-size="10.00">+ separator</text>
<text text-anchor="start" x="724" y="-379.5" font-family="Helvetica,sans-Serif" font-size="10.00">+ bandwidth</text>
<text text-anchor="start" x="724" y="-368.5" font-family="Helvetica,sans-Serif" font-size="10.00">+ in_bandwidth</text>
<text text-anchor="start" x="724" y="-357.5" font-family="Helvetica,sans-Serif" font-size="10.00">+ out_bandwidth</text>
<polyline fill="none" stroke="black" points="716,-350.5 877,-350.5 "/>
<text text-anchor="middle" x="796.5" y="-338.5" font-family="Helvetica,sans-Serif" font-size="10.00"> </text>
</a>
</g>
</g>
<!-- Node8&#45;&gt;Node3 -->
<g id="edge7" class="edge">
<title>Node8&#45;&gt;Node3</title>
<path fill="none" stroke="#404040" d="M715.78,-337.09C713,-335.02 710.24,-332.98 707.5,-331 680.94,-311.77 675.1,-305.12 645.5,-291 609.3,-273.73 567.58,-259.1 531.12,-247.89"/>
<polygon fill="none" stroke="#404040" points="530.97,-247.84 524.07,-249.93 519.48,-244.37 526.38,-242.28 530.97,-247.84"/>
<text text-anchor="middle" x="728.5" y="-299.5" font-family="Helvetica,sans-Serif" font-size="10.00"> +weights_params</text>
</g>
</g>
</svg>
