<?xml version="1.0" encoding="UTF-8" standalone="no"?>
<!DOCTYPE svg PUBLIC "-//W3C//DTD SVG 1.1//EN"
 "http://www.w3.org/Graphics/SVG/1.1/DTD/svg11.dtd">
<!-- Generated by graphviz version 2.43.0 (0)
 -->
<!-- Title: network_butcher::io::block_aMLLibrary_Weight_Importer Pages: 1 -->
<!--zoomable 1107 -->
<svg id="main" version="1.1" xmlns="http://www.w3.org/2000/svg" xmlns:xlink="http://www.w3.org/1999/xlink" xml:space="preserve" onload="init(evt)">
<style type="text/css"><![CDATA[
.edge:hover path { stroke: red; }
.edge:hover polygon { stroke: red; fill: red; }
]]></style>
<script type="text/javascript"><![CDATA[
var edges = document.getElementsByTagName('g');
if (edges && edges.length) {
  for (var i=0;i<edges.length;i++) {
    if (edges[i].id.substr(0,4)=='edge') {
      edges[i].setAttribute('class','edge');
    }
  }
}
]]></script>
        <defs>
                <circle id="rim" cx="0" cy="0" r="7"/>
                <circle id="rim2" cx="0" cy="0" r="3.5"/>
                <g id="zoomPlus">
                        <use xlink:href="#rim" fill="#404040">
                                <set attributeName="fill" to="#808080" begin="zoomplus.mouseover" end="zoomplus.mouseout"/>
                        </use>
                        <path d="M-4,0h8M0,-4v8" fill="none" stroke="white" stroke-width="1.5" pointer-events="none"/>
                </g>
                <g id="zoomMin">
                        <use xlink:href="#rim" fill="#404040">
                                <set attributeName="fill" to="#808080" begin="zoomminus.mouseover" end="zoomminus.mouseout"/>
                        </use>
                        <path d="M-4,0h8" fill="none" stroke="white" stroke-width="1.5" pointer-events="none"/>
                </g>
                <g id="dirArrow">
                        <path fill="none" stroke="white" stroke-width="1.5" d="M0,-3.0v7 M-2.5,-0.5L0,-3.0L2.5,-0.5"/>
                </g>
               <g id="resetDef">
                       <use xlink:href="#rim2" fill="#404040">
                               <set attributeName="fill" to="#808080" begin="reset.mouseover" end="reset.mouseout"/>
                       </use>
               </g>
        </defs>

<script type="text/javascript">
var viewWidth = 1112;
var viewHeight = 1107;
var sectionId = 'dynsection-1';
</script>
<script xlink:href="svgpan.js"/>
<svg id="graph" class="graph">
<g id="viewport">
<title>network_butcher::io::block_aMLLibrary_Weight_Importer</title>
<polygon fill="white" stroke="transparent" points="-4,4 -4,-1103 1107.5,-1103 1107.5,4 -4,4"/>
<!-- Node1 -->
<g id="node1" class="node">
<title>Node1</title>
<g id="a_node1"><a xlink:title="This class will be used to generate and import weights with aMLLibrary into the block graph.">
<polygon fill="#bfbfbf" stroke="black" points="530,-0.5 530,-266.5 694,-266.5 694,-0.5 530,-0.5"/>
<text text-anchor="start" x="538" y="-254.5" font-family="Helvetica,sans-Serif" font-size="10.00">network_butcher::io</text>
<text text-anchor="start" x="538" y="-243.5" font-family="Helvetica,sans-Serif" font-size="10.00">::block_aMLLibrary_Weight</text>
<text text-anchor="middle" x="612" y="-232.5" font-family="Helvetica,sans-Serif" font-size="10.00">_Importer</text>
<polyline fill="none" stroke="black" points="530,-225.5 694,-225.5 "/>
<text text-anchor="start" x="538" y="-213.5" font-family="Helvetica,sans-Serif" font-size="10.00"># devices</text>
<polyline fill="none" stroke="black" points="530,-206.5 694,-206.5 "/>
<text text-anchor="start" x="538" y="-194.5" font-family="Helvetica,sans-Serif" font-size="10.00">+ block_aMLLibrary_Weight</text>
<text text-anchor="start" x="538" y="-183.5" font-family="Helvetica,sans-Serif" font-size="10.00">_Importer()</text>
<text text-anchor="start" x="538" y="-172.5" font-family="Helvetica,sans-Serif" font-size="10.00">+ block_aMLLibrary_Weight</text>
<text text-anchor="start" x="538" y="-161.5" font-family="Helvetica,sans-Serif" font-size="10.00">_Importer()</text>
<text text-anchor="start" x="538" y="-150.5" font-family="Helvetica,sans-Serif" font-size="10.00">+ import_weights()</text>
<text text-anchor="start" x="538" y="-139.5" font-family="Helvetica,sans-Serif" font-size="10.00">+ ~block_aMLLibrary_Weight</text>
<text text-anchor="start" x="538" y="-128.5" font-family="Helvetica,sans-Serif" font-size="10.00">_Importer()</text>
<text text-anchor="start" x="538" y="-117.5" font-family="Helvetica,sans-Serif" font-size="10.00"># check_aMLLibrary()</text>
<text text-anchor="start" x="538" y="-106.5" font-family="Helvetica,sans-Serif" font-size="10.00"># add_python_packages()</text>
<text text-anchor="start" x="538" y="-95.5" font-family="Helvetica,sans-Serif" font-size="10.00"># execute_weight_generator()</text>
<text text-anchor="start" x="538" y="-84.5" font-family="Helvetica,sans-Serif" font-size="10.00"># network_info_onnx_tool()</text>
<text text-anchor="start" x="538" y="-73.5" font-family="Helvetica,sans-Serif" font-size="10.00"># perform_predictions()</text>
<text text-anchor="start" x="538" y="-62.5" font-family="Helvetica,sans-Serif" font-size="10.00"># generate_entry()</text>
<text text-anchor="start" x="538" y="-51.5" font-family="Helvetica,sans-Serif" font-size="10.00"># generate_entries()</text>
<text text-anchor="start" x="538" y="-40.5" font-family="Helvetica,sans-Serif" font-size="10.00"># prepare_predict_file()</text>
<text text-anchor="start" x="538" y="-29.5" font-family="Helvetica,sans-Serif" font-size="10.00"># read_network_info_onnx</text>
<text text-anchor="start" x="538" y="-18.5" font-family="Helvetica,sans-Serif" font-size="10.00">_tool()</text>
<text text-anchor="start" x="538" y="-7.5" font-family="Helvetica,sans-Serif" font-size="10.00"># csv_assembler()</text>
</a>
</g>
</g>
<!-- Node2 -->
<g id="node2" class="node">
<title>Node2</title>
<g id="a_node2"><a xlink:href="classnetwork__butcher_1_1io_1_1Weight__Importer.html" target="_top" xlink:title=" ">
<polygon fill="white" stroke="black" points="18,-353 18,-454 160,-454 160,-353 18,-353"/>
<text text-anchor="start" x="26" y="-442" font-family="Helvetica,sans-Serif" font-size="10.00">network_butcher::io</text>
<text text-anchor="start" x="26" y="-431" font-family="Helvetica,sans-Serif" font-size="10.00">::Weight_Importer&lt; Block</text>
<text text-anchor="middle" x="89" y="-420" font-family="Helvetica,sans-Serif" font-size="10.00">_Graph_Type &gt;</text>
<polyline fill="none" stroke="black" points="18,-413 160,-413 "/>
<text text-anchor="start" x="26" y="-401" font-family="Helvetica,sans-Serif" font-size="10.00"># graph</text>
<polyline fill="none" stroke="black" points="18,-394 160,-394 "/>
<text text-anchor="start" x="26" y="-382" font-family="Helvetica,sans-Serif" font-size="10.00">+ Weight_Importer()</text>
<text text-anchor="start" x="26" y="-371" font-family="Helvetica,sans-Serif" font-size="10.00">+ import_weights()</text>
<text text-anchor="start" x="26" y="-360" font-family="Helvetica,sans-Serif" font-size="10.00">+ ~Weight_Importer()</text>
</a>
</g>
</g>
<!-- Node2&#45;&gt;Node1 -->
<g id="edge1" class="edge">
<title>Node2&#45;&gt;Node1</title>
<path fill="none" stroke="midnightblue" d="M142.4,-345.76C150.88,-338.26 159.88,-331.08 169,-325 285,-247.7 437.5,-190.37 529.95,-159.73"/>
<polygon fill="none" stroke="midnightblue" points="139.79,-343.4 134.76,-352.72 144.51,-348.57 139.79,-343.4"/>
</g>
<!-- Node3 -->
<g id="node3" class="node">
<title>Node3</title>
<g id="a_node3"><a xlink:href="classnetwork__butcher_1_1io_1_1Weight__Importer.html" target="_top" xlink:title=" ">
<polygon fill="white" stroke="black" points="0,-612 0,-702 178,-702 178,-612 0,-612"/>
<text text-anchor="start" x="8" y="-690" font-family="Helvetica,sans-Serif" font-size="10.00">network_butcher::io</text>
<text text-anchor="middle" x="89" y="-679" font-family="Helvetica,sans-Serif" font-size="10.00">::Weight_Importer&lt; GraphType &gt;</text>
<polyline fill="none" stroke="black" points="0,-672 178,-672 "/>
<text text-anchor="start" x="8" y="-660" font-family="Helvetica,sans-Serif" font-size="10.00"># graph</text>
<polyline fill="none" stroke="black" points="0,-653 178,-653 "/>
<text text-anchor="start" x="8" y="-641" font-family="Helvetica,sans-Serif" font-size="10.00">+ Weight_Importer()</text>
<text text-anchor="start" x="8" y="-630" font-family="Helvetica,sans-Serif" font-size="10.00">+ import_weights()</text>
<text text-anchor="start" x="8" y="-619" font-family="Helvetica,sans-Serif" font-size="10.00">+ ~Weight_Importer()</text>
</a>
</g>
</g>
<!-- Node3&#45;&gt;Node2 -->
<g id="edge2" class="edge">
<title>Node3&#45;&gt;Node2</title>
<path fill="none" stroke="orange" d="M89,-601.71C89,-557.88 89,-496.7 89,-454.16"/>
<polygon fill="orange" stroke="orange" points="85.5,-601.9 89,-611.9 92.5,-601.9 85.5,-601.9"/>
<text text-anchor="middle" x="146.5" y="-503" font-family="Helvetica,sans-Serif" font-size="10.00"> &lt; Block_Graph_Type &gt;</text>
</g>
<!-- Node4 -->
<g id="node4" class="node">
<title>Node4</title>
<g id="a_node4"><a xlink:href="structnetwork__butcher_1_1parameters_1_1Parameters_1_1Block__Graph__Generation.html" target="_top" xlink:title="Structure used to contain all the parameters related to the Block Graph Generation.">
<polygon fill="white" stroke="black" points="178.5,-336.5 178.5,-470.5 339.5,-470.5 339.5,-336.5 178.5,-336.5"/>
<text text-anchor="start" x="186.5" y="-458.5" font-family="Helvetica,sans-Serif" font-size="10.00">network_butcher::parameters</text>
<text text-anchor="start" x="186.5" y="-447.5" font-family="Helvetica,sans-Serif" font-size="10.00">::Parameters::Block_Graph</text>
<text text-anchor="middle" x="259" y="-436.5" font-family="Helvetica,sans-Serif" font-size="10.00">_Generation</text>
<polyline fill="none" stroke="black" points="178.5,-429.5 339.5,-429.5 "/>
<text text-anchor="start" x="186.5" y="-417.5" font-family="Helvetica,sans-Serif" font-size="10.00">+ starting_device_id</text>
<text text-anchor="start" x="186.5" y="-406.5" font-family="Helvetica,sans-Serif" font-size="10.00">+ ending_device_id</text>
<text text-anchor="start" x="186.5" y="-395.5" font-family="Helvetica,sans-Serif" font-size="10.00">+ block_graph_mode</text>
<text text-anchor="start" x="186.5" y="-384.5" font-family="Helvetica,sans-Serif" font-size="10.00">+ use_bandwidth_to_manage</text>
<text text-anchor="start" x="186.5" y="-373.5" font-family="Helvetica,sans-Serif" font-size="10.00">_connections</text>
<text text-anchor="start" x="186.5" y="-362.5" font-family="Helvetica,sans-Serif" font-size="10.00">+ memory_constraint</text>
<polyline fill="none" stroke="black" points="178.5,-355.5 339.5,-355.5 "/>
<text text-anchor="middle" x="259" y="-343.5" font-family="Helvetica,sans-Serif" font-size="10.00"> </text>
</a>
</g>
</g>
<!-- Node4&#45;&gt;Node1 -->
<g id="edge3" class="edge">
<title>Node4&#45;&gt;Node1</title>
<path fill="none" stroke="#404040" d="M326.44,-336.4C345.2,-319.06 365.94,-300.8 386,-285 428.26,-251.73 477.74,-218.22 519.61,-191.29"/>
<polygon fill="none" stroke="#404040" points="519.69,-191.24 522.59,-184.64 529.8,-184.77 526.9,-191.37 519.69,-191.24"/>
<text text-anchor="start" x="386" y="-299" font-family="Helvetica,sans-Serif" font-size="10.00"> #block_graph_generation</text>
<text text-anchor="middle" x="450.5" y="-288" font-family="Helvetica,sans-Serif" font-size="10.00">_params</text>
</g>
<!-- Node5 -->
<g id="node5" class="node">
<title>Node5</title>
<g id="a_node5"><a xlink:href="classnetwork__butcher_1_1types_1_1MWGraph.html" target="_top" xlink:title=" ">
<polygon fill="white" stroke="black" points="357.5,-325.5 357.5,-481.5 566.5,-481.5 566.5,-325.5 357.5,-325.5"/>
<text text-anchor="start" x="365.5" y="-469.5" font-family="Helvetica,sans-Serif" font-size="10.00">network_butcher::types</text>
<text text-anchor="start" x="365.5" y="-458.5" font-family="Helvetica,sans-Serif" font-size="10.00">::MWGraph&lt; Parallel_Edges,</text>
<text text-anchor="middle" x="462" y="-447.5" font-family="Helvetica,sans-Serif" font-size="10.00"> Template_Node_Type, t_weight_type &gt;</text>
<polyline fill="none" stroke="black" points="357.5,-440.5 566.5,-440.5 "/>
<text text-anchor="start" x="365.5" y="-428.5" font-family="Helvetica,sans-Serif" font-size="10.00"># weigth_map</text>
<polyline fill="none" stroke="black" points="357.5,-421.5 566.5,-421.5 "/>
<text text-anchor="start" x="365.5" y="-409.5" font-family="Helvetica,sans-Serif" font-size="10.00">+ MWGraph()</text>
<text text-anchor="start" x="365.5" y="-398.5" font-family="Helvetica,sans-Serif" font-size="10.00">+ check_weight()</text>
<text text-anchor="start" x="365.5" y="-387.5" font-family="Helvetica,sans-Serif" font-size="10.00">+ get_weight()</text>
<text text-anchor="start" x="365.5" y="-376.5" font-family="Helvetica,sans-Serif" font-size="10.00">+ set_weight()</text>
<text text-anchor="start" x="365.5" y="-365.5" font-family="Helvetica,sans-Serif" font-size="10.00">+ set_weight()</text>
<text text-anchor="start" x="365.5" y="-354.5" font-family="Helvetica,sans-Serif" font-size="10.00">+ get_num_devices()</text>
<text text-anchor="start" x="365.5" y="-343.5" font-family="Helvetica,sans-Serif" font-size="10.00">+ print_graph()</text>
<text text-anchor="start" x="365.5" y="-332.5" font-family="Helvetica,sans-Serif" font-size="10.00">+ ~MWGraph()</text>
</a>
</g>
</g>
<!-- Node5&#45;&gt;Node1 -->
<g id="edge4" class="edge">
<title>Node5&#45;&gt;Node1</title>
<path fill="none" stroke="#404040" d="M505.18,-325.34C513.63,-310.25 522.74,-293.97 531.96,-277.51"/>
<polygon fill="none" stroke="#404040" points="532.16,-277.15 531.6,-269.96 538.02,-266.68 538.58,-273.87 532.16,-277.15"/>
<text text-anchor="middle" x="564" y="-293.5" font-family="Helvetica,sans-Serif" font-size="10.00"> #original_graph</text>
</g>
<!-- Node6 -->
<g id="node6" class="node">
<title>Node6</title>
<g id="a_node6"><a xlink:href="classnetwork__butcher_1_1types_1_1Graph.html" target="_top" xlink:title=" ">
<polygon fill="white" stroke="black" points="396.5,-529.5 396.5,-784.5 527.5,-784.5 527.5,-529.5 396.5,-529.5"/>
<text text-anchor="start" x="404.5" y="-772.5" font-family="Helvetica,sans-Serif" font-size="10.00">network_butcher::types</text>
<text text-anchor="middle" x="462" y="-761.5" font-family="Helvetica,sans-Serif" font-size="10.00">::Graph&lt; Node &gt;</text>
<polyline fill="none" stroke="black" points="396.5,-754.5 527.5,-754.5 "/>
<text text-anchor="start" x="404.5" y="-742.5" font-family="Helvetica,sans-Serif" font-size="10.00"># nodes</text>
<text text-anchor="start" x="404.5" y="-731.5" font-family="Helvetica,sans-Serif" font-size="10.00"># neighbours</text>
<polyline fill="none" stroke="black" points="396.5,-724.5 527.5,-724.5 "/>
<text text-anchor="start" x="404.5" y="-712.5" font-family="Helvetica,sans-Serif" font-size="10.00">+ Graph()</text>
<text text-anchor="start" x="404.5" y="-701.5" font-family="Helvetica,sans-Serif" font-size="10.00">+ Graph()</text>
<text text-anchor="start" x="404.5" y="-690.5" font-family="Helvetica,sans-Serif" font-size="10.00">+ get_nodes()</text>
<text text-anchor="start" x="404.5" y="-679.5" font-family="Helvetica,sans-Serif" font-size="10.00">+ get_neighbors_ref()</text>
<text text-anchor="start" x="404.5" y="-668.5" font-family="Helvetica,sans-Serif" font-size="10.00">+ get_input_nodes()</text>
<text text-anchor="start" x="404.5" y="-657.5" font-family="Helvetica,sans-Serif" font-size="10.00">+ get_output_nodes()</text>
<text text-anchor="start" x="404.5" y="-646.5" font-family="Helvetica,sans-Serif" font-size="10.00">+ check_edge()</text>
<text text-anchor="start" x="404.5" y="-635.5" font-family="Helvetica,sans-Serif" font-size="10.00">+ size()</text>
<text text-anchor="start" x="404.5" y="-624.5" font-family="Helvetica,sans-Serif" font-size="10.00">+ empty()</text>
<text text-anchor="start" x="404.5" y="-613.5" font-family="Helvetica,sans-Serif" font-size="10.00">+ operator[]()</text>
<text text-anchor="start" x="404.5" y="-602.5" font-family="Helvetica,sans-Serif" font-size="10.00">+ begin()</text>
<text text-anchor="start" x="404.5" y="-591.5" font-family="Helvetica,sans-Serif" font-size="10.00">+ begin()</text>
<text text-anchor="start" x="404.5" y="-580.5" font-family="Helvetica,sans-Serif" font-size="10.00">+ end()</text>
<text text-anchor="start" x="404.5" y="-569.5" font-family="Helvetica,sans-Serif" font-size="10.00">+ end()</text>
<text text-anchor="start" x="404.5" y="-558.5" font-family="Helvetica,sans-Serif" font-size="10.00">+ cbegin()</text>
<text text-anchor="start" x="404.5" y="-547.5" font-family="Helvetica,sans-Serif" font-size="10.00">+ cend()</text>
<text text-anchor="start" x="404.5" y="-536.5" font-family="Helvetica,sans-Serif" font-size="10.00">+ ~Graph()</text>
</a>
</g>
</g>
<!-- Node6&#45;&gt;Node5 -->
<g id="edge5" class="edge">
<title>Node6&#45;&gt;Node5</title>
<path fill="none" stroke="midnightblue" d="M462,-518.88C462,-506.12 462,-493.51 462,-481.59"/>
<polygon fill="none" stroke="midnightblue" points="458.5,-519.14 462,-529.14 465.5,-519.14 458.5,-519.14"/>
</g>
<!-- Node7 -->
<g id="node7" class="node">
<title>Node7</title>
<g id="a_node7"><a xlink:href="classnetwork__butcher_1_1types_1_1Graph.html" target="_top" xlink:title=" ">
<polygon fill="white" stroke="black" points="392.5,-832.5 392.5,-1098.5 531.5,-1098.5 531.5,-832.5 392.5,-832.5"/>
<text text-anchor="start" x="400.5" y="-1086.5" font-family="Helvetica,sans-Serif" font-size="10.00">network_butcher::types</text>
<text text-anchor="start" x="400.5" y="-1075.5" font-family="Helvetica,sans-Serif" font-size="10.00">::Graph&lt; Template_Node</text>
<text text-anchor="middle" x="462" y="-1064.5" font-family="Helvetica,sans-Serif" font-size="10.00">_Type &gt;</text>
<polyline fill="none" stroke="black" points="392.5,-1057.5 531.5,-1057.5 "/>
<text text-anchor="start" x="400.5" y="-1045.5" font-family="Helvetica,sans-Serif" font-size="10.00"># nodes</text>
<text text-anchor="start" x="400.5" y="-1034.5" font-family="Helvetica,sans-Serif" font-size="10.00"># neighbours</text>
<polyline fill="none" stroke="black" points="392.5,-1027.5 531.5,-1027.5 "/>
<text text-anchor="start" x="400.5" y="-1015.5" font-family="Helvetica,sans-Serif" font-size="10.00">+ Graph()</text>
<text text-anchor="start" x="400.5" y="-1004.5" font-family="Helvetica,sans-Serif" font-size="10.00">+ Graph()</text>
<text text-anchor="start" x="400.5" y="-993.5" font-family="Helvetica,sans-Serif" font-size="10.00">+ get_nodes()</text>
<text text-anchor="start" x="400.5" y="-982.5" font-family="Helvetica,sans-Serif" font-size="10.00">+ get_neighbors_ref()</text>
<text text-anchor="start" x="400.5" y="-971.5" font-family="Helvetica,sans-Serif" font-size="10.00">+ get_input_nodes()</text>
<text text-anchor="start" x="400.5" y="-960.5" font-family="Helvetica,sans-Serif" font-size="10.00">+ get_output_nodes()</text>
<text text-anchor="start" x="400.5" y="-949.5" font-family="Helvetica,sans-Serif" font-size="10.00">+ check_edge()</text>
<text text-anchor="start" x="400.5" y="-938.5" font-family="Helvetica,sans-Serif" font-size="10.00">+ size()</text>
<text text-anchor="start" x="400.5" y="-927.5" font-family="Helvetica,sans-Serif" font-size="10.00">+ empty()</text>
<text text-anchor="start" x="400.5" y="-916.5" font-family="Helvetica,sans-Serif" font-size="10.00">+ operator[]()</text>
<text text-anchor="start" x="400.5" y="-905.5" font-family="Helvetica,sans-Serif" font-size="10.00">+ begin()</text>
<text text-anchor="start" x="400.5" y="-894.5" font-family="Helvetica,sans-Serif" font-size="10.00">+ end()</text>
<text text-anchor="start" x="400.5" y="-883.5" font-family="Helvetica,sans-Serif" font-size="10.00">+ begin()</text>
<text text-anchor="start" x="400.5" y="-872.5" font-family="Helvetica,sans-Serif" font-size="10.00">+ end()</text>
<text text-anchor="start" x="400.5" y="-861.5" font-family="Helvetica,sans-Serif" font-size="10.00">+ cbegin()</text>
<text text-anchor="start" x="400.5" y="-850.5" font-family="Helvetica,sans-Serif" font-size="10.00">+ cend()</text>
<text text-anchor="start" x="400.5" y="-839.5" font-family="Helvetica,sans-Serif" font-size="10.00">+ ~Graph()</text>
</a>
</g>
</g>
<!-- Node7&#45;&gt;Node6 -->
<g id="edge6" class="edge">
<title>Node7&#45;&gt;Node6</title>
<path fill="none" stroke="orange" d="M462,-821.94C462,-809.59 462,-797.14 462,-784.92"/>
<polygon fill="orange" stroke="orange" points="458.5,-822.29 462,-832.29 465.5,-822.29 458.5,-822.29"/>
<text text-anchor="middle" x="488" y="-806" font-family="Helvetica,sans-Serif" font-size="10.00"> &lt; Node &gt;</text>
</g>
<!-- Node8 -->
<g id="node8" class="node">
<title>Node8</title>
<g id="a_node8"><a xlink:href="structnetwork__butcher_1_1parameters_1_1Parameters_1_1Model.html" target="_top" xlink:title="Structure used to contain all the model related parameters.">
<polygon fill="white" stroke="black" points="584.5,-353 584.5,-454 745.5,-454 745.5,-353 584.5,-353"/>
<text text-anchor="start" x="592.5" y="-442" font-family="Helvetica,sans-Serif" font-size="10.00">network_butcher::parameters</text>
<text text-anchor="middle" x="665" y="-431" font-family="Helvetica,sans-Serif" font-size="10.00">::Parameters::Model</text>
<polyline fill="none" stroke="black" points="584.5,-424 745.5,-424 "/>
<text text-anchor="start" x="592.5" y="-412" font-family="Helvetica,sans-Serif" font-size="10.00">+ model_name</text>
<text text-anchor="start" x="592.5" y="-401" font-family="Helvetica,sans-Serif" font-size="10.00">+ model_path</text>
<text text-anchor="start" x="592.5" y="-390" font-family="Helvetica,sans-Serif" font-size="10.00">+ export_directory</text>
<text text-anchor="start" x="592.5" y="-379" font-family="Helvetica,sans-Serif" font-size="10.00">+ config_path</text>
<polyline fill="none" stroke="black" points="584.5,-372 745.5,-372 "/>
<text text-anchor="middle" x="665" y="-360" font-family="Helvetica,sans-Serif" font-size="10.00"> </text>
</a>
</g>
</g>
<!-- Node8&#45;&gt;Node1 -->
<g id="edge7" class="edge">
<title>Node8&#45;&gt;Node1</title>
<path fill="none" stroke="#404040" d="M655.16,-352.72C650.93,-331.36 645.76,-305.19 640.48,-278.5"/>
<polygon fill="none" stroke="#404040" points="640.46,-278.4 635.37,-273.29 638.13,-266.63 643.22,-271.74 640.46,-278.4"/>
<text text-anchor="middle" x="686.5" y="-293.5" font-family="Helvetica,sans-Serif" font-size="10.00"> #model_params</text>
</g>
<!-- Node9 -->
<g id="node9" class="node">
<title>Node9</title>
<g id="a_node9"><a xlink:href="structnetwork__butcher_1_1parameters_1_1Parameters_1_1aMLLibrary.html" target="_top" xlink:title="Structure used to contain all the aMLLibrary related parameters.">
<polygon fill="white" stroke="black" points="763.5,-347.5 763.5,-459.5 924.5,-459.5 924.5,-347.5 763.5,-347.5"/>
<text text-anchor="start" x="771.5" y="-447.5" font-family="Helvetica,sans-Serif" font-size="10.00">network_butcher::parameters</text>
<text text-anchor="middle" x="844" y="-436.5" font-family="Helvetica,sans-Serif" font-size="10.00">::Parameters::aMLLibrary</text>
<polyline fill="none" stroke="black" points="763.5,-429.5 924.5,-429.5 "/>
<text text-anchor="start" x="771.5" y="-417.5" font-family="Helvetica,sans-Serif" font-size="10.00">+ temporary_directory</text>
<text text-anchor="start" x="771.5" y="-406.5" font-family="Helvetica,sans-Serif" font-size="10.00">+ extra_packages_location</text>
<text text-anchor="start" x="771.5" y="-395.5" font-family="Helvetica,sans-Serif" font-size="10.00">+ aMLLibrary_inference</text>
<text text-anchor="start" x="771.5" y="-384.5" font-family="Helvetica,sans-Serif" font-size="10.00">_variables</text>
<text text-anchor="start" x="771.5" y="-373.5" font-family="Helvetica,sans-Serif" font-size="10.00">+ aMLLibrary_csv_features</text>
<polyline fill="none" stroke="black" points="763.5,-366.5 924.5,-366.5 "/>
<text text-anchor="middle" x="844" y="-354.5" font-family="Helvetica,sans-Serif" font-size="10.00"> </text>
</a>
</g>
</g>
<!-- Node9&#45;&gt;Node1 -->
<g id="edge8" class="edge">
<title>Node9&#45;&gt;Node1</title>
<path fill="none" stroke="#404040" d="M796.21,-347.3C769.06,-315.94 734.19,-275.65 702.1,-238.58"/>
<polygon fill="none" stroke="#404040" points="701.86,-238.3 694.91,-236.38 694,-229.23 700.96,-231.15 701.86,-238.3"/>
<text text-anchor="middle" x="809" y="-293.5" font-family="Helvetica,sans-Serif" font-size="10.00"> #aMLLibrary_params</text>
</g>
<!-- Node10 -->
<g id="node10" class="node">
<title>Node10</title>
<g id="a_node10"><a xlink:href="structnetwork__butcher_1_1parameters_1_1Parameters_1_1Weights.html" target="_top" xlink:title="Structure used to contain all the weights related parameters.">
<polygon fill="white" stroke="black" points="942.5,-331 942.5,-476 1103.5,-476 1103.5,-331 942.5,-331"/>
<text text-anchor="start" x="950.5" y="-464" font-family="Helvetica,sans-Serif" font-size="10.00">network_butcher::parameters</text>
<text text-anchor="middle" x="1023" y="-453" font-family="Helvetica,sans-Serif" font-size="10.00">::Parameters::Weights</text>
<polyline fill="none" stroke="black" points="942.5,-446 1103.5,-446 "/>
<text text-anchor="start" x="950.5" y="-434" font-family="Helvetica,sans-Serif" font-size="10.00">+ weight_import_mode</text>
<text text-anchor="start" x="950.5" y="-423" font-family="Helvetica,sans-Serif" font-size="10.00">+ single_weight_import_path</text>
<text text-anchor="start" x="950.5" y="-412" font-family="Helvetica,sans-Serif" font-size="10.00">+ single_csv_columns</text>
<text text-anchor="start" x="950.5" y="-401" font-family="Helvetica,sans-Serif" font-size="10.00">_weights</text>
<text text-anchor="start" x="950.5" y="-390" font-family="Helvetica,sans-Serif" font-size="10.00">+ separator</text>
<text text-anchor="start" x="950.5" y="-379" font-family="Helvetica,sans-Serif" font-size="10.00">+ bandwidth</text>
<text text-anchor="start" x="950.5" y="-368" font-family="Helvetica,sans-Serif" font-size="10.00">+ in_bandwidth</text>
<text text-anchor="start" x="950.5" y="-357" font-family="Helvetica,sans-Serif" font-size="10.00">+ out_bandwidth</text>
<polyline fill="none" stroke="black" points="942.5,-350 1103.5,-350 "/>
<text text-anchor="middle" x="1023" y="-338" font-family="Helvetica,sans-Serif" font-size="10.00"> </text>
</a>
</g>
</g>
<!-- Node10&#45;&gt;Node1 -->
<g id="edge9" class="edge">
<title>Node10&#45;&gt;Node1</title>
<path fill="none" stroke="#404040" d="M942.5,-331.33C939.66,-329.16 936.82,-327.04 934,-325 860.28,-271.55 770.73,-219.51 704.8,-183.36"/>
<polygon fill="none" stroke="#404040" points="704.55,-183.23 697.37,-183.86 694.02,-177.48 701.2,-176.84 704.55,-183.23"/>
<text text-anchor="middle" x="946" y="-293.5" font-family="Helvetica,sans-Serif" font-size="10.00"> #weights_params</text>
</g>
</g>
</svg>
        <g id="navigator" transform="translate(0 0)" fill="#404254">
                <rect fill="#f2f5e9" fill-opacity="0.5" stroke="#606060" stroke-width=".5" x="0" y="0" width="60" height="60"/>
                <use id="zoomplus" xlink:href="#zoomPlus" x="17" y="9" onmousedown="handleZoom(evt,'in')"/>
                <use id="zoomminus" xlink:href="#zoomMin" x="42" y="9" onmousedown="handleZoom(evt,'out')"/>
                <use id="reset" xlink:href="#resetDef" x="30" y="36" onmousedown="handleReset()"/>
                <g id="arrowUp" xlink:href="#dirArrow" transform="translate(30 24)" onmousedown="handlePan(0,-1)">
                  <use xlink:href="#rim" fill="#404040">
                        <set attributeName="fill" to="#808080" begin="arrowUp.mouseover" end="arrowUp.mouseout"/>
                  </use>
                  <path fill="none" stroke="white" stroke-width="1.5" d="M0,-3.0v7 M-2.5,-0.5L0,-3.0L2.5,-0.5"/>
                </g>
                <g id="arrowRight" xlink:href="#dirArrow" transform="rotate(90) translate(36 -43)" onmousedown="handlePan(1,0)">
                  <use xlink:href="#rim" fill="#404040">
                        <set attributeName="fill" to="#808080" begin="arrowRight.mouseover" end="arrowRight.mouseout"/>
                  </use>
                  <path fill="none" stroke="white" stroke-width="1.5" d="M0,-3.0v7 M-2.5,-0.5L0,-3.0L2.5,-0.5"/>
                </g>
                <g id="arrowDown" xlink:href="#dirArrow" transform="rotate(180) translate(-30 -48)" onmousedown="handlePan(0,1)">
                  <use xlink:href="#rim" fill="#404040">
                        <set attributeName="fill" to="#808080" begin="arrowDown.mouseover" end="arrowDown.mouseout"/>
                  </use>
                  <path fill="none" stroke="white" stroke-width="1.5" d="M0,-3.0v7 M-2.5,-0.5L0,-3.0L2.5,-0.5"/>
                </g>
                <g id="arrowLeft" xlink:href="#dirArrow" transform="rotate(270) translate(-36 17)" onmousedown="handlePan(-1,0)">
                  <use xlink:href="#rim" fill="#404040">
                        <set attributeName="fill" to="#808080" begin="arrowLeft.mouseover" end="arrowLeft.mouseout"/>
                  </use>
                  <path fill="none" stroke="white" stroke-width="1.5" d="M0,-3.0v7 M-2.5,-0.5L0,-3.0L2.5,-0.5"/>
                </g>
        </g>
        <svg viewBox="0 0 15 15" width="100%" height="30px" preserveAspectRatio="xMaxYMin meet">
         <g id="arrow_out" transform="scale(0.3 0.3)">
          <a xlink:href="classnetwork__butcher_1_1io_1_1block__aMLLibrary__Weight__Importer__coll__graph_org.svg" target="_base">
           <rect id="button" ry="5" rx="5" y="6" x="6" height="38" width="38"
                fill="#f2f5e9" fill-opacity="0.5" stroke="#606060" stroke-width="1.0"/>
           <path id="arrow"
             d="M 11.500037,31.436501 C 11.940474,20.09759 22.043105,11.32322 32.158766,21.979434 L 37.068811,17.246167 C 37.068811,17.246167 37.088388,32 37.088388,32 L 22.160133,31.978069 C 22.160133,31.978069 26.997745,27.140456 26.997745,27.140456 C 18.528582,18.264221 13.291696,25.230495 11.500037,31.436501 z"
             style="fill:#404040;"/>
          </a>
         </g>
        </svg>
</svg>
