<?xml version="1.0" encoding="UTF-8" standalone="no"?>
<!DOCTYPE svg PUBLIC "-//W3C//DTD SVG 1.1//EN"
 "http://www.w3.org/Graphics/SVG/1.1/DTD/svg11.dtd">
<!-- Generated by graphviz version 2.43.0 (0)
 -->
<!-- Title: network_butcher::kfinder::KFinder&lt; GraphType, Only_Distance, t_Weighted_Graph_Complete_Type &gt; Pages: 1 -->
<svg width="333pt" height="756pt"
 viewBox="0.00 0.00 332.50 756.00" xmlns="http://www.w3.org/2000/svg" xmlns:xlink="http://www.w3.org/1999/xlink">
<g id="graph0" class="graph" transform="scale(1 1) rotate(0) translate(4 752)">
<title>network_butcher::kfinder::KFinder&lt; GraphType, Only_Distance, t_Weighted_Graph_Complete_Type &gt;</title>
<polygon fill="white" stroke="transparent" points="-4,4 -4,-752 328.5,-752 328.5,4 -4,4"/>
<!-- Node1 -->
<g id="node1" class="node">
<title>Node1</title>
<g id="a_node1"><a xlink:title=" ">
<polygon fill="#bfbfbf" stroke="black" points="8.5,-0.5 8.5,-134.5 168.5,-134.5 168.5,-0.5 8.5,-0.5"/>
<text text-anchor="start" x="16.5" y="-122.5" font-family="Helvetica,sans-Serif" font-size="10.00">network_butcher::kfinder</text>
<text text-anchor="start" x="16.5" y="-111.5" font-family="Helvetica,sans-Serif" font-size="10.00">::KFinder&lt; GraphType, Only</text>
<text text-anchor="start" x="16.5" y="-100.5" font-family="Helvetica,sans-Serif" font-size="10.00">_Distance, t_Weighted_Graph</text>
<text text-anchor="middle" x="88.5" y="-89.5" font-family="Helvetica,sans-Serif" font-size="10.00">_Complete_Type &gt;</text>
<polyline fill="none" stroke="black" points="8.5,-82.5 168.5,-82.5 "/>
<text text-anchor="start" x="16.5" y="-70.5" font-family="Helvetica,sans-Serif" font-size="10.00"># root</text>
<text text-anchor="start" x="16.5" y="-59.5" font-family="Helvetica,sans-Serif" font-size="10.00"># sink</text>
<polyline fill="none" stroke="black" points="8.5,-52.5 168.5,-52.5 "/>
<text text-anchor="start" x="16.5" y="-40.5" font-family="Helvetica,sans-Serif" font-size="10.00">+ compute()</text>
<text text-anchor="start" x="16.5" y="-29.5" font-family="Helvetica,sans-Serif" font-size="10.00">+ KFinder()</text>
<text text-anchor="start" x="16.5" y="-18.5" font-family="Helvetica,sans-Serif" font-size="10.00">+ KFinder()</text>
<text text-anchor="start" x="16.5" y="-7.5" font-family="Helvetica,sans-Serif" font-size="10.00">+ ~KFinder()</text>
</a>
</g>
</g>
<!-- Node2 -->
<g id="node2" class="node">
<title>Node2</title>
<g id="a_node2"><a xlink:href="classnetwork__butcher_1_1kfinder_1_1Weighted__Graph.html" target="_top" xlink:title=" ">
<polygon fill="white" stroke="black" points="0,-182.5 0,-371.5 177,-371.5 177,-182.5 0,-182.5"/>
<text text-anchor="start" x="8" y="-359.5" font-family="Helvetica,sans-Serif" font-size="10.00">network_butcher::kfinder</text>
<text text-anchor="middle" x="88.5" y="-348.5" font-family="Helvetica,sans-Serif" font-size="10.00">::Weighted_Graph&lt; GraphType &gt;</text>
<polyline fill="none" stroke="black" points="0,-341.5 177,-341.5 "/>
<text text-anchor="start" x="8" y="-329.5" font-family="Helvetica,sans-Serif" font-size="10.00">&#45; graph</text>
<polyline fill="none" stroke="black" points="0,-322.5 177,-322.5 "/>
<text text-anchor="start" x="8" y="-310.5" font-family="Helvetica,sans-Serif" font-size="10.00">+ get_weight()</text>
<text text-anchor="start" x="8" y="-299.5" font-family="Helvetica,sans-Serif" font-size="10.00">+ size()</text>
<text text-anchor="start" x="8" y="-288.5" font-family="Helvetica,sans-Serif" font-size="10.00">+ empty()</text>
<text text-anchor="start" x="8" y="-277.5" font-family="Helvetica,sans-Serif" font-size="10.00">+ get_output_nodes()</text>
<text text-anchor="start" x="8" y="-266.5" font-family="Helvetica,sans-Serif" font-size="10.00">+ operator[]()</text>
<text text-anchor="start" x="8" y="-255.5" font-family="Helvetica,sans-Serif" font-size="10.00">+ cbegin()</text>
<text text-anchor="start" x="8" y="-244.5" font-family="Helvetica,sans-Serif" font-size="10.00">+ cend()</text>
<text text-anchor="start" x="8" y="-233.5" font-family="Helvetica,sans-Serif" font-size="10.00">+ begin()</text>
<text text-anchor="start" x="8" y="-222.5" font-family="Helvetica,sans-Serif" font-size="10.00">+ end()</text>
<text text-anchor="start" x="8" y="-211.5" font-family="Helvetica,sans-Serif" font-size="10.00">+ reverse()</text>
<text text-anchor="start" x="8" y="-200.5" font-family="Helvetica,sans-Serif" font-size="10.00">+ Weighted_Graph()</text>
<text text-anchor="start" x="8" y="-189.5" font-family="Helvetica,sans-Serif" font-size="10.00">+ ~Weighted_Graph()</text>
</a>
</g>
</g>
<!-- Node2&#45;&gt;Node1 -->
<g id="edge1" class="edge">
<title>Node2&#45;&gt;Node1</title>
<path fill="none" stroke="#404040" d="M88.5,-182.27C88.5,-170.44 88.5,-158.43 88.5,-146.87"/>
<polygon fill="none" stroke="#404040" points="88.5,-146.53 84.5,-140.53 88.5,-134.53 92.5,-140.53 88.5,-146.53"/>
<text text-anchor="middle" x="108.5" y="-156" font-family="Helvetica,sans-Serif" font-size="10.00"> #graph</text>
</g>
<!-- Node3 -->
<g id="node3" class="node">
<title>Node3</title>
<g id="a_node3"><a xlink:href="classnetwork__butcher_1_1kfinder_1_1Base__Weighted__Graph.html" target="_top" xlink:title="Helper Weighted graph class. It is used to identify Weighted_Graph independently of its template para...">
<polygon fill="white" stroke="black" points="8,-668.5 8,-747.5 161,-747.5 161,-668.5 8,-668.5"/>
<text text-anchor="start" x="16" y="-735.5" font-family="Helvetica,sans-Serif" font-size="10.00">network_butcher::kfinder</text>
<text text-anchor="middle" x="84.5" y="-724.5" font-family="Helvetica,sans-Serif" font-size="10.00">::Base_Weighted_Graph</text>
<polyline fill="none" stroke="black" points="8,-717.5 161,-717.5 "/>
<text text-anchor="middle" x="84.5" y="-705.5" font-family="Helvetica,sans-Serif" font-size="10.00"> </text>
<polyline fill="none" stroke="black" points="8,-698.5 161,-698.5 "/>
<text text-anchor="start" x="16" y="-686.5" font-family="Helvetica,sans-Serif" font-size="10.00">+ ~Base_Weighted_Graph()</text>
<text text-anchor="start" x="16" y="-675.5" font-family="Helvetica,sans-Serif" font-size="10.00">&#45; Base_Weighted_Graph()</text>
</a>
</g>
</g>
<!-- Node3&#45;&gt;Node2 -->
<g id="edge2" class="edge">
<title>Node3&#45;&gt;Node2</title>
<path fill="none" stroke="#8b1a1a" d="M84.96,-657.95C85.61,-588.47 86.8,-460.03 87.62,-371.88"/>
<polygon fill="none" stroke="#8b1a1a" points="81.46,-658.14 84.86,-668.17 88.46,-658.21 81.46,-658.14"/>
</g>
<!-- Node4 -->
<g id="node4" class="node">
<title>Node4</title>
<g id="a_node4"><a xlink:href="classnetwork__butcher_1_1kfinder_1_1Weighted__Graph.html" target="_top" xlink:title=" ">
<polygon fill="white" stroke="black" points="100.5,-419.5 100.5,-630.5 324.5,-630.5 324.5,-419.5 100.5,-419.5"/>
<text text-anchor="start" x="108.5" y="-618.5" font-family="Helvetica,sans-Serif" font-size="10.00">network_butcher::kfinder</text>
<text text-anchor="start" x="108.5" y="-607.5" font-family="Helvetica,sans-Serif" font-size="10.00">::Weighted_Graph&lt; InternalGraph</text>
<text text-anchor="start" x="108.5" y="-596.5" font-family="Helvetica,sans-Serif" font-size="10.00">Type, t_Reversed, t_Node_Type,</text>
<text text-anchor="middle" x="212.5" y="-585.5" font-family="Helvetica,sans-Serif" font-size="10.00"> t_Node_Collection_Type, t_Weight_Type &gt;</text>
<polyline fill="none" stroke="black" points="100.5,-578.5 324.5,-578.5 "/>
<text text-anchor="start" x="108.5" y="-566.5" font-family="Helvetica,sans-Serif" font-size="10.00">&#45; graph</text>
<polyline fill="none" stroke="black" points="100.5,-559.5 324.5,-559.5 "/>
<text text-anchor="start" x="108.5" y="-547.5" font-family="Helvetica,sans-Serif" font-size="10.00">+ get_weight()</text>
<text text-anchor="start" x="108.5" y="-536.5" font-family="Helvetica,sans-Serif" font-size="10.00">+ size()</text>
<text text-anchor="start" x="108.5" y="-525.5" font-family="Helvetica,sans-Serif" font-size="10.00">+ empty()</text>
<text text-anchor="start" x="108.5" y="-514.5" font-family="Helvetica,sans-Serif" font-size="10.00">+ get_output_nodes()</text>
<text text-anchor="start" x="108.5" y="-503.5" font-family="Helvetica,sans-Serif" font-size="10.00">+ operator[]()</text>
<text text-anchor="start" x="108.5" y="-492.5" font-family="Helvetica,sans-Serif" font-size="10.00">+ cbegin()</text>
<text text-anchor="start" x="108.5" y="-481.5" font-family="Helvetica,sans-Serif" font-size="10.00">+ cend()</text>
<text text-anchor="start" x="108.5" y="-470.5" font-family="Helvetica,sans-Serif" font-size="10.00">+ begin()</text>
<text text-anchor="start" x="108.5" y="-459.5" font-family="Helvetica,sans-Serif" font-size="10.00">+ end()</text>
<text text-anchor="start" x="108.5" y="-448.5" font-family="Helvetica,sans-Serif" font-size="10.00">+ reverse()</text>
<text text-anchor="start" x="108.5" y="-437.5" font-family="Helvetica,sans-Serif" font-size="10.00">+ Weighted_Graph()</text>
<text text-anchor="start" x="108.5" y="-426.5" font-family="Helvetica,sans-Serif" font-size="10.00">+ ~Weighted_Graph()</text>
</a>
</g>
</g>
<!-- Node3&#45;&gt;Node4 -->
<g id="edge4" class="edge">
<title>Node3&#45;&gt;Node4</title>
<path fill="none" stroke="#8b1a1a" d="M117.77,-659.96C124.27,-650.76 131.34,-640.77 138.57,-630.54"/>
<polygon fill="none" stroke="#8b1a1a" points="114.88,-657.99 111.96,-668.17 120.59,-662.03 114.88,-657.99"/>
</g>
<!-- Node4&#45;&gt;Node2 -->
<g id="edge3" class="edge">
<title>Node4&#45;&gt;Node2</title>
<path fill="none" stroke="orange" d="M155.23,-410.38C148.7,-397.43 142.1,-384.34 135.72,-371.69"/>
<polygon fill="orange" stroke="orange" points="152.11,-411.96 159.73,-419.32 158.36,-408.81 152.11,-411.96"/>
<text text-anchor="middle" x="189.5" y="-393" font-family="Helvetica,sans-Serif" font-size="10.00"> &lt; GraphType &gt;</text>
</g>
</g>
</svg>
