<?xml version="1.0" encoding="UTF-8" standalone="no"?>
<!DOCTYPE svg PUBLIC "-//W3C//DTD SVG 1.1//EN"
 "http://www.w3.org/Graphics/SVG/1.1/DTD/svg11.dtd">
<!-- Generated by graphviz version 2.43.0 (0)
 -->
<!-- Title: network_butcher::kfinder::Basic_KEppstein&lt; GraphType, Only_Distance, t_Weighted_Graph_Complete_Type &gt; Pages: 1 -->
<svg width="333pt" height="1165pt"
 viewBox="0.00 0.00 332.50 1165.00" xmlns="http://www.w3.org/2000/svg" xmlns:xlink="http://www.w3.org/1999/xlink">
<g id="graph0" class="graph" transform="scale(1 1) rotate(0) translate(4 1161)">
<title>network_butcher::kfinder::Basic_KEppstein&lt; GraphType, Only_Distance, t_Weighted_Graph_Complete_Type &gt;</title>
<polygon fill="white" stroke="transparent" points="-4,4 -4,-1161 328.5,-1161 328.5,4 -4,4"/>
<!-- Node1 -->
<g id="node1" class="node">
<title>Node1</title>
<g id="a_node1"><a xlink:title=" ">
<polygon fill="#bfbfbf" stroke="black" points="4,-0.5 4,-167.5 173,-167.5 173,-0.5 4,-0.5"/>
<text text-anchor="start" x="12" y="-155.5" font-family="Helvetica,sans-Serif" font-size="10.00">network_butcher::kfinder</text>
<text text-anchor="start" x="12" y="-144.5" font-family="Helvetica,sans-Serif" font-size="10.00">::Basic_KEppstein&lt; GraphType,</text>
<text text-anchor="start" x="12" y="-133.5" font-family="Helvetica,sans-Serif" font-size="10.00"> Only_Distance, t_Weighted</text>
<text text-anchor="middle" x="88.5" y="-122.5" font-family="Helvetica,sans-Serif" font-size="10.00">_Graph_Complete_Type &gt;</text>
<polyline fill="none" stroke="black" points="4,-115.5 173,-115.5 "/>
<text text-anchor="middle" x="88.5" y="-103.5" font-family="Helvetica,sans-Serif" font-size="10.00"> </text>
<polyline fill="none" stroke="black" points="4,-96.5 173,-96.5 "/>
<text text-anchor="start" x="12" y="-84.5" font-family="Helvetica,sans-Serif" font-size="10.00">+ compute()</text>
<text text-anchor="start" x="12" y="-73.5" font-family="Helvetica,sans-Serif" font-size="10.00">+ Basic_KEppstein()</text>
<text text-anchor="start" x="12" y="-62.5" font-family="Helvetica,sans-Serif" font-size="10.00">+ Basic_KEppstein()</text>
<text text-anchor="start" x="12" y="-51.5" font-family="Helvetica,sans-Serif" font-size="10.00">+ ~Basic_KEppstein()</text>
<text text-anchor="start" x="12" y="-40.5" font-family="Helvetica,sans-Serif" font-size="10.00"># sidetrack_distances()</text>
<text text-anchor="start" x="12" y="-29.5" font-family="Helvetica,sans-Serif" font-size="10.00"># helper_eppstein()</text>
<text text-anchor="start" x="12" y="-18.5" font-family="Helvetica,sans-Serif" font-size="10.00"># start()</text>
<text text-anchor="start" x="12" y="-7.5" font-family="Helvetica,sans-Serif" font-size="10.00"># general_algo_eppstein()</text>
</a>
</g>
</g>
<!-- Node2 -->
<g id="node2" class="node">
<title>Node2</title>
<g id="a_node2"><a xlink:href="classnetwork__butcher_1_1kfinder_1_1KFinder.html" target="_top" xlink:title=" ">
<polygon fill="white" stroke="black" points="13,-205.5 13,-350.5 164,-350.5 164,-205.5 13,-205.5"/>
<text text-anchor="start" x="21" y="-338.5" font-family="Helvetica,sans-Serif" font-size="10.00">network_butcher::kfinder</text>
<text text-anchor="start" x="21" y="-327.5" font-family="Helvetica,sans-Serif" font-size="10.00">::KFinder&lt; GraphType, Only</text>
<text text-anchor="start" x="21" y="-316.5" font-family="Helvetica,sans-Serif" font-size="10.00">_Distance, Weighted_Graph</text>
<text text-anchor="middle" x="88.5" y="-305.5" font-family="Helvetica,sans-Serif" font-size="10.00">&lt; GraphType &gt; &gt;</text>
<polyline fill="none" stroke="black" points="13,-298.5 164,-298.5 "/>
<text text-anchor="start" x="21" y="-286.5" font-family="Helvetica,sans-Serif" font-size="10.00"># graph</text>
<text text-anchor="start" x="21" y="-275.5" font-family="Helvetica,sans-Serif" font-size="10.00"># root</text>
<text text-anchor="start" x="21" y="-264.5" font-family="Helvetica,sans-Serif" font-size="10.00"># sink</text>
<polyline fill="none" stroke="black" points="13,-257.5 164,-257.5 "/>
<text text-anchor="start" x="21" y="-245.5" font-family="Helvetica,sans-Serif" font-size="10.00">+ compute()</text>
<text text-anchor="start" x="21" y="-234.5" font-family="Helvetica,sans-Serif" font-size="10.00">+ KFinder()</text>
<text text-anchor="start" x="21" y="-223.5" font-family="Helvetica,sans-Serif" font-size="10.00">+ KFinder()</text>
<text text-anchor="start" x="21" y="-212.5" font-family="Helvetica,sans-Serif" font-size="10.00">+ ~KFinder()</text>
</a>
</g>
</g>
<!-- Node2&#45;&gt;Node1 -->
<g id="edge1" class="edge">
<title>Node2&#45;&gt;Node1</title>
<path fill="none" stroke="midnightblue" d="M88.5,-195.08C88.5,-186 88.5,-176.75 88.5,-167.67"/>
<polygon fill="none" stroke="midnightblue" points="85,-195.23 88.5,-205.23 92,-195.23 85,-195.23"/>
</g>
<!-- Node3 -->
<g id="node3" class="node">
<title>Node3</title>
<g id="a_node3"><a xlink:href="classnetwork__butcher_1_1kfinder_1_1KFinder.html" target="_top" xlink:title=" ">
<polygon fill="white" stroke="black" points="8.5,-409.5 8.5,-543.5 168.5,-543.5 168.5,-409.5 8.5,-409.5"/>
<text text-anchor="start" x="16.5" y="-531.5" font-family="Helvetica,sans-Serif" font-size="10.00">network_butcher::kfinder</text>
<text text-anchor="start" x="16.5" y="-520.5" font-family="Helvetica,sans-Serif" font-size="10.00">::KFinder&lt; GraphType, Only</text>
<text text-anchor="start" x="16.5" y="-509.5" font-family="Helvetica,sans-Serif" font-size="10.00">_Distance, t_Weighted_Graph</text>
<text text-anchor="middle" x="88.5" y="-498.5" font-family="Helvetica,sans-Serif" font-size="10.00">_Complete_Type &gt;</text>
<polyline fill="none" stroke="black" points="8.5,-491.5 168.5,-491.5 "/>
<text text-anchor="start" x="16.5" y="-479.5" font-family="Helvetica,sans-Serif" font-size="10.00"># root</text>
<text text-anchor="start" x="16.5" y="-468.5" font-family="Helvetica,sans-Serif" font-size="10.00"># sink</text>
<polyline fill="none" stroke="black" points="8.5,-461.5 168.5,-461.5 "/>
<text text-anchor="start" x="16.5" y="-449.5" font-family="Helvetica,sans-Serif" font-size="10.00">+ compute()</text>
<text text-anchor="start" x="16.5" y="-438.5" font-family="Helvetica,sans-Serif" font-size="10.00">+ KFinder()</text>
<text text-anchor="start" x="16.5" y="-427.5" font-family="Helvetica,sans-Serif" font-size="10.00">+ KFinder()</text>
<text text-anchor="start" x="16.5" y="-416.5" font-family="Helvetica,sans-Serif" font-size="10.00">+ ~KFinder()</text>
</a>
</g>
</g>
<!-- Node3&#45;&gt;Node2 -->
<g id="edge2" class="edge">
<title>Node3&#45;&gt;Node2</title>
<path fill="none" stroke="orange" d="M88.5,-398.95C88.5,-383.07 88.5,-366.39 88.5,-350.69"/>
<polygon fill="orange" stroke="orange" points="85,-399.25 88.5,-409.25 92,-399.25 85,-399.25"/>
<text text-anchor="start" x="88.5" y="-383" font-family="Helvetica,sans-Serif" font-size="10.00"> &lt; GraphType, Only_Distance,</text>
<text text-anchor="middle" x="173" y="-372" font-family="Helvetica,sans-Serif" font-size="10.00"> Weighted_Graph&lt; GraphType &gt; &gt;</text>
</g>
<!-- Node4 -->
<g id="node4" class="node">
<title>Node4</title>
<g id="a_node4"><a xlink:href="classnetwork__butcher_1_1kfinder_1_1Weighted__Graph.html" target="_top" xlink:title=" ">
<polygon fill="white" stroke="black" points="0,-591.5 0,-780.5 177,-780.5 177,-591.5 0,-591.5"/>
<text text-anchor="start" x="8" y="-768.5" font-family="Helvetica,sans-Serif" font-size="10.00">network_butcher::kfinder</text>
<text text-anchor="middle" x="88.5" y="-757.5" font-family="Helvetica,sans-Serif" font-size="10.00">::Weighted_Graph&lt; GraphType &gt;</text>
<polyline fill="none" stroke="black" points="0,-750.5 177,-750.5 "/>
<text text-anchor="start" x="8" y="-738.5" font-family="Helvetica,sans-Serif" font-size="10.00">&#45; graph</text>
<polyline fill="none" stroke="black" points="0,-731.5 177,-731.5 "/>
<text text-anchor="start" x="8" y="-719.5" font-family="Helvetica,sans-Serif" font-size="10.00">+ get_weight()</text>
<text text-anchor="start" x="8" y="-708.5" font-family="Helvetica,sans-Serif" font-size="10.00">+ size()</text>
<text text-anchor="start" x="8" y="-697.5" font-family="Helvetica,sans-Serif" font-size="10.00">+ empty()</text>
<text text-anchor="start" x="8" y="-686.5" font-family="Helvetica,sans-Serif" font-size="10.00">+ get_output_nodes()</text>
<text text-anchor="start" x="8" y="-675.5" font-family="Helvetica,sans-Serif" font-size="10.00">+ operator[]()</text>
<text text-anchor="start" x="8" y="-664.5" font-family="Helvetica,sans-Serif" font-size="10.00">+ cbegin()</text>
<text text-anchor="start" x="8" y="-653.5" font-family="Helvetica,sans-Serif" font-size="10.00">+ cend()</text>
<text text-anchor="start" x="8" y="-642.5" font-family="Helvetica,sans-Serif" font-size="10.00">+ begin()</text>
<text text-anchor="start" x="8" y="-631.5" font-family="Helvetica,sans-Serif" font-size="10.00">+ end()</text>
<text text-anchor="start" x="8" y="-620.5" font-family="Helvetica,sans-Serif" font-size="10.00">+ reverse()</text>
<text text-anchor="start" x="8" y="-609.5" font-family="Helvetica,sans-Serif" font-size="10.00">+ Weighted_Graph()</text>
<text text-anchor="start" x="8" y="-598.5" font-family="Helvetica,sans-Serif" font-size="10.00">+ ~Weighted_Graph()</text>
</a>
</g>
</g>
<!-- Node4&#45;&gt;Node3 -->
<g id="edge3" class="edge">
<title>Node4&#45;&gt;Node3</title>
<path fill="none" stroke="#404040" d="M88.5,-591.27C88.5,-579.44 88.5,-567.43 88.5,-555.87"/>
<polygon fill="none" stroke="#404040" points="88.5,-555.53 84.5,-549.53 88.5,-543.53 92.5,-549.53 88.5,-555.53"/>
<text text-anchor="middle" x="108.5" y="-565" font-family="Helvetica,sans-Serif" font-size="10.00"> #graph</text>
</g>
<!-- Node5 -->
<g id="node5" class="node">
<title>Node5</title>
<g id="a_node5"><a xlink:href="classnetwork__butcher_1_1kfinder_1_1Base__Weighted__Graph.html" target="_top" xlink:title="Helper Weighted graph class. It is used to identify Weighted_Graph independently of its template para...">
<polygon fill="white" stroke="black" points="8,-1077.5 8,-1156.5 161,-1156.5 161,-1077.5 8,-1077.5"/>
<text text-anchor="start" x="16" y="-1144.5" font-family="Helvetica,sans-Serif" font-size="10.00">network_butcher::kfinder</text>
<text text-anchor="middle" x="84.5" y="-1133.5" font-family="Helvetica,sans-Serif" font-size="10.00">::Base_Weighted_Graph</text>
<polyline fill="none" stroke="black" points="8,-1126.5 161,-1126.5 "/>
<text text-anchor="middle" x="84.5" y="-1114.5" font-family="Helvetica,sans-Serif" font-size="10.00"> </text>
<polyline fill="none" stroke="black" points="8,-1107.5 161,-1107.5 "/>
<text text-anchor="start" x="16" y="-1095.5" font-family="Helvetica,sans-Serif" font-size="10.00">+ ~Base_Weighted_Graph()</text>
<text text-anchor="start" x="16" y="-1084.5" font-family="Helvetica,sans-Serif" font-size="10.00">&#45; Base_Weighted_Graph()</text>
</a>
</g>
</g>
<!-- Node5&#45;&gt;Node4 -->
<g id="edge4" class="edge">
<title>Node5&#45;&gt;Node4</title>
<path fill="none" stroke="#8b1a1a" d="M84.96,-1066.95C85.61,-997.47 86.8,-869.03 87.62,-780.88"/>
<polygon fill="none" stroke="#8b1a1a" points="81.46,-1067.14 84.86,-1077.17 88.46,-1067.21 81.46,-1067.14"/>
</g>
<!-- Node6 -->
<g id="node6" class="node">
<title>Node6</title>
<g id="a_node6"><a xlink:href="classnetwork__butcher_1_1kfinder_1_1Weighted__Graph.html" target="_top" xlink:title=" ">
<polygon fill="white" stroke="black" points="100.5,-828.5 100.5,-1039.5 324.5,-1039.5 324.5,-828.5 100.5,-828.5"/>
<text text-anchor="start" x="108.5" y="-1027.5" font-family="Helvetica,sans-Serif" font-size="10.00">network_butcher::kfinder</text>
<text text-anchor="start" x="108.5" y="-1016.5" font-family="Helvetica,sans-Serif" font-size="10.00">::Weighted_Graph&lt; InternalGraph</text>
<text text-anchor="start" x="108.5" y="-1005.5" font-family="Helvetica,sans-Serif" font-size="10.00">Type, t_Reversed, t_Node_Type,</text>
<text text-anchor="middle" x="212.5" y="-994.5" font-family="Helvetica,sans-Serif" font-size="10.00"> t_Node_Collection_Type, t_Weight_Type &gt;</text>
<polyline fill="none" stroke="black" points="100.5,-987.5 324.5,-987.5 "/>
<text text-anchor="start" x="108.5" y="-975.5" font-family="Helvetica,sans-Serif" font-size="10.00">&#45; graph</text>
<polyline fill="none" stroke="black" points="100.5,-968.5 324.5,-968.5 "/>
<text text-anchor="start" x="108.5" y="-956.5" font-family="Helvetica,sans-Serif" font-size="10.00">+ get_weight()</text>
<text text-anchor="start" x="108.5" y="-945.5" font-family="Helvetica,sans-Serif" font-size="10.00">+ size()</text>
<text text-anchor="start" x="108.5" y="-934.5" font-family="Helvetica,sans-Serif" font-size="10.00">+ empty()</text>
<text text-anchor="start" x="108.5" y="-923.5" font-family="Helvetica,sans-Serif" font-size="10.00">+ get_output_nodes()</text>
<text text-anchor="start" x="108.5" y="-912.5" font-family="Helvetica,sans-Serif" font-size="10.00">+ operator[]()</text>
<text text-anchor="start" x="108.5" y="-901.5" font-family="Helvetica,sans-Serif" font-size="10.00">+ cbegin()</text>
<text text-anchor="start" x="108.5" y="-890.5" font-family="Helvetica,sans-Serif" font-size="10.00">+ cend()</text>
<text text-anchor="start" x="108.5" y="-879.5" font-family="Helvetica,sans-Serif" font-size="10.00">+ begin()</text>
<text text-anchor="start" x="108.5" y="-868.5" font-family="Helvetica,sans-Serif" font-size="10.00">+ end()</text>
<text text-anchor="start" x="108.5" y="-857.5" font-family="Helvetica,sans-Serif" font-size="10.00">+ reverse()</text>
<text text-anchor="start" x="108.5" y="-846.5" font-family="Helvetica,sans-Serif" font-size="10.00">+ Weighted_Graph()</text>
<text text-anchor="start" x="108.5" y="-835.5" font-family="Helvetica,sans-Serif" font-size="10.00">+ ~Weighted_Graph()</text>
</a>
</g>
</g>
<!-- Node5&#45;&gt;Node6 -->
<g id="edge6" class="edge">
<title>Node5&#45;&gt;Node6</title>
<path fill="none" stroke="#8b1a1a" d="M117.77,-1068.96C124.27,-1059.76 131.34,-1049.77 138.57,-1039.54"/>
<polygon fill="none" stroke="#8b1a1a" points="114.88,-1066.99 111.96,-1077.17 120.59,-1071.03 114.88,-1066.99"/>
</g>
<!-- Node6&#45;&gt;Node4 -->
<g id="edge5" class="edge">
<title>Node6&#45;&gt;Node4</title>
<path fill="none" stroke="orange" d="M155.23,-819.38C148.7,-806.43 142.1,-793.34 135.72,-780.69"/>
<polygon fill="orange" stroke="orange" points="152.11,-820.96 159.73,-828.32 158.36,-817.81 152.11,-820.96"/>
<text text-anchor="middle" x="189.5" y="-802" font-family="Helvetica,sans-Serif" font-size="10.00"> &lt; GraphType &gt;</text>
</g>
</g>
</svg>
