<?xml version="1.0" encoding="UTF-8" standalone="no"?>
<!DOCTYPE svg PUBLIC "-//W3C//DTD SVG 1.1//EN"
 "http://www.w3.org/Graphics/SVG/1.1/DTD/svg11.dtd">
<!-- Generated by graphviz version 2.43.0 (0)
 -->
<!-- Title: network_butcher::Constrained_Block_Graph_Builder&lt; GraphType &gt; Pages: 1 -->
<svg width="706pt" height="534pt"
 viewBox="0.00 0.00 706.00 534.00" xmlns="http://www.w3.org/2000/svg" xmlns:xlink="http://www.w3.org/1999/xlink">
<g id="graph0" class="graph" transform="scale(1 1) rotate(0) translate(4 530)">
<title>network_butcher::Constrained_Block_Graph_Builder&lt; GraphType &gt;</title>
<polygon fill="white" stroke="transparent" points="-4,4 -4,-530 702,-530 702,4 -4,4"/>
<!-- Node1 -->
<g id="node1" class="node">
<title>Node1</title>
<g id="a_node1"><a xlink:title=" ">
<polygon fill="#bfbfbf" stroke="black" points="250,-0.5 250,-321.5 447,-321.5 447,-0.5 250,-0.5"/>
<text text-anchor="start" x="258" y="-309.5" font-family="Helvetica,sans-Serif" font-size="10.00">network_butcher::Constrained</text>
<text text-anchor="middle" x="348.5" y="-298.5" font-family="Helvetica,sans-Serif" font-size="10.00">_Block_Graph_Builder&lt; GraphType &gt;</text>
<polyline fill="none" stroke="black" points="250,-291.5 447,-291.5 "/>
<text text-anchor="start" x="258" y="-279.5" font-family="Helvetica,sans-Serif" font-size="10.00"># original_graph</text>
<text text-anchor="start" x="258" y="-268.5" font-family="Helvetica,sans-Serif" font-size="10.00"># constraints</text>
<text text-anchor="start" x="258" y="-257.5" font-family="Helvetica,sans-Serif" font-size="10.00"># devices</text>
<text text-anchor="start" x="258" y="-246.5" font-family="Helvetica,sans-Serif" font-size="10.00"># weights</text>
<text text-anchor="start" x="258" y="-235.5" font-family="Helvetica,sans-Serif" font-size="10.00"># transmission_weights</text>
<polyline fill="none" stroke="black" points="250,-228.5 447,-228.5 "/>
<text text-anchor="start" x="258" y="-216.5" font-family="Helvetica,sans-Serif" font-size="10.00">+ Constrained_Block_Graph</text>
<text text-anchor="start" x="258" y="-205.5" font-family="Helvetica,sans-Serif" font-size="10.00">_Builder()</text>
<text text-anchor="start" x="258" y="-194.5" font-family="Helvetica,sans-Serif" font-size="10.00">+ Constrained_Block_Graph</text>
<text text-anchor="start" x="258" y="-183.5" font-family="Helvetica,sans-Serif" font-size="10.00">_Builder()</text>
<text text-anchor="start" x="258" y="-172.5" font-family="Helvetica,sans-Serif" font-size="10.00">+ construct_transmission</text>
<text text-anchor="start" x="258" y="-161.5" font-family="Helvetica,sans-Serif" font-size="10.00">_weights()</text>
<text text-anchor="start" x="258" y="-150.5" font-family="Helvetica,sans-Serif" font-size="10.00">+ construct_operation</text>
<text text-anchor="start" x="258" y="-139.5" font-family="Helvetica,sans-Serif" font-size="10.00">_weights()</text>
<text text-anchor="start" x="258" y="-128.5" font-family="Helvetica,sans-Serif" font-size="10.00">+ construct_weights()</text>
<text text-anchor="start" x="258" y="-117.5" font-family="Helvetica,sans-Serif" font-size="10.00">+ add_constraint()</text>
<text text-anchor="start" x="258" y="-106.5" font-family="Helvetica,sans-Serif" font-size="10.00">+ construct_block_graph()</text>
<text text-anchor="start" x="258" y="-95.5" font-family="Helvetica,sans-Serif" font-size="10.00">+ ~Constrained_Block</text>
<text text-anchor="start" x="258" y="-84.5" font-family="Helvetica,sans-Serif" font-size="10.00">_Graph_Builder()</text>
<text text-anchor="start" x="258" y="-73.5" font-family="Helvetica,sans-Serif" font-size="10.00"># build_block_graph()</text>
<text text-anchor="start" x="258" y="-62.5" font-family="Helvetica,sans-Serif" font-size="10.00"># apply_operation_weights()</text>
<text text-anchor="start" x="258" y="-51.5" font-family="Helvetica,sans-Serif" font-size="10.00"># apply_transmission</text>
<text text-anchor="start" x="258" y="-40.5" font-family="Helvetica,sans-Serif" font-size="10.00">_weights()</text>
<text text-anchor="start" x="258" y="-29.5" font-family="Helvetica,sans-Serif" font-size="10.00"># apply_constraints()</text>
<text text-anchor="start" x="258" y="-18.5" font-family="Helvetica,sans-Serif" font-size="10.00"># apply_weights_from</text>
<text text-anchor="start" x="258" y="-7.5" font-family="Helvetica,sans-Serif" font-size="10.00">_importer()</text>
</a>
</g>
</g>
<!-- Node2 -->
<g id="node2" class="node">
<title>Node2</title>
<g id="a_node2"><a xlink:href="structnetwork__butcher_1_1parameters_1_1Parameters_1_1Block__Graph__Generation.html" target="_top" xlink:title="Structure used to contain all the parameters related to the Block Graph Generation.">
<polygon fill="white" stroke="black" points="0,-386 0,-520 161,-520 161,-386 0,-386"/>
<text text-anchor="start" x="8" y="-508" font-family="Helvetica,sans-Serif" font-size="10.00">network_butcher::parameters</text>
<text text-anchor="start" x="8" y="-497" font-family="Helvetica,sans-Serif" font-size="10.00">::Parameters::Block_Graph</text>
<text text-anchor="middle" x="80.5" y="-486" font-family="Helvetica,sans-Serif" font-size="10.00">_Generation</text>
<polyline fill="none" stroke="black" points="0,-479 161,-479 "/>
<text text-anchor="start" x="8" y="-467" font-family="Helvetica,sans-Serif" font-size="10.00">+ starting_device_id</text>
<text text-anchor="start" x="8" y="-456" font-family="Helvetica,sans-Serif" font-size="10.00">+ ending_device_id</text>
<text text-anchor="start" x="8" y="-445" font-family="Helvetica,sans-Serif" font-size="10.00">+ block_graph_mode</text>
<text text-anchor="start" x="8" y="-434" font-family="Helvetica,sans-Serif" font-size="10.00">+ use_bandwidth_to_manage</text>
<text text-anchor="start" x="8" y="-423" font-family="Helvetica,sans-Serif" font-size="10.00">_connections</text>
<text text-anchor="start" x="8" y="-412" font-family="Helvetica,sans-Serif" font-size="10.00">+ memory_constraint</text>
<polyline fill="none" stroke="black" points="0,-405 161,-405 "/>
<text text-anchor="middle" x="80.5" y="-393" font-family="Helvetica,sans-Serif" font-size="10.00"> </text>
</a>
</g>
</g>
<!-- Node2&#45;&gt;Node1 -->
<g id="edge1" class="edge">
<title>Node2&#45;&gt;Node1</title>
<path fill="none" stroke="#404040" d="M120.38,-385.8C130.79,-370.24 142.48,-354.1 154.5,-340 180.44,-309.58 211.3,-279.18 240.68,-252.32"/>
<polygon fill="none" stroke="#404040" points="240.86,-252.16 242.62,-245.17 249.75,-244.1 247.99,-251.1 240.86,-252.16"/>
<text text-anchor="start" x="154.5" y="-354" font-family="Helvetica,sans-Serif" font-size="10.00"> #block_graph_generation</text>
<text text-anchor="middle" x="219" y="-343" font-family="Helvetica,sans-Serif" font-size="10.00">_params</text>
</g>
<!-- Node3 -->
<g id="node3" class="node">
<title>Node3</title>
<g id="a_node3"><a xlink:href="structnetwork__butcher_1_1parameters_1_1Parameters_1_1Model.html" target="_top" xlink:title="Structure used to contain all the model related parameters.">
<polygon fill="white" stroke="black" points="179,-402.5 179,-503.5 340,-503.5 340,-402.5 179,-402.5"/>
<text text-anchor="start" x="187" y="-491.5" font-family="Helvetica,sans-Serif" font-size="10.00">network_butcher::parameters</text>
<text text-anchor="middle" x="259.5" y="-480.5" font-family="Helvetica,sans-Serif" font-size="10.00">::Parameters::Model</text>
<polyline fill="none" stroke="black" points="179,-473.5 340,-473.5 "/>
<text text-anchor="start" x="187" y="-461.5" font-family="Helvetica,sans-Serif" font-size="10.00">+ model_name</text>
<text text-anchor="start" x="187" y="-450.5" font-family="Helvetica,sans-Serif" font-size="10.00">+ model_path</text>
<text text-anchor="start" x="187" y="-439.5" font-family="Helvetica,sans-Serif" font-size="10.00">+ export_directory</text>
<text text-anchor="start" x="187" y="-428.5" font-family="Helvetica,sans-Serif" font-size="10.00">+ config_path</text>
<polyline fill="none" stroke="black" points="179,-421.5 340,-421.5 "/>
<text text-anchor="middle" x="259.5" y="-409.5" font-family="Helvetica,sans-Serif" font-size="10.00"> </text>
</a>
</g>
</g>
<!-- Node3&#45;&gt;Node1 -->
<g id="edge2" class="edge">
<title>Node3&#45;&gt;Node1</title>
<path fill="none" stroke="#404040" d="M274.7,-402.48C280.79,-382.63 288.2,-358.48 295.95,-333.23"/>
<polygon fill="none" stroke="#404040" points="296.01,-333.04 293.95,-326.13 299.53,-321.57 301.59,-328.48 296.01,-333.04"/>
<text text-anchor="middle" x="335" y="-348.5" font-family="Helvetica,sans-Serif" font-size="10.00"> #model_params</text>
</g>
<!-- Node4 -->
<g id="node4" class="node">
<title>Node4</title>
<g id="a_node4"><a xlink:href="structnetwork__butcher_1_1parameters_1_1Parameters_1_1aMLLibrary.html" target="_top" xlink:title="Structure used to contain all the aMLLibrary related parameters.">
<polygon fill="white" stroke="black" points="358,-397 358,-509 519,-509 519,-397 358,-397"/>
<text text-anchor="start" x="366" y="-497" font-family="Helvetica,sans-Serif" font-size="10.00">network_butcher::parameters</text>
<text text-anchor="middle" x="438.5" y="-486" font-family="Helvetica,sans-Serif" font-size="10.00">::Parameters::aMLLibrary</text>
<polyline fill="none" stroke="black" points="358,-479 519,-479 "/>
<text text-anchor="start" x="366" y="-467" font-family="Helvetica,sans-Serif" font-size="10.00">+ temporary_directory</text>
<text text-anchor="start" x="366" y="-456" font-family="Helvetica,sans-Serif" font-size="10.00">+ extra_packages_location</text>
<text text-anchor="start" x="366" y="-445" font-family="Helvetica,sans-Serif" font-size="10.00">+ aMLLibrary_inference</text>
<text text-anchor="start" x="366" y="-434" font-family="Helvetica,sans-Serif" font-size="10.00">_variables</text>
<text text-anchor="start" x="366" y="-423" font-family="Helvetica,sans-Serif" font-size="10.00">+ aMLLibrary_csv_features</text>
<polyline fill="none" stroke="black" points="358,-416 519,-416 "/>
<text text-anchor="middle" x="438.5" y="-404" font-family="Helvetica,sans-Serif" font-size="10.00"> </text>
</a>
</g>
</g>
<!-- Node4&#45;&gt;Node1 -->
<g id="edge3" class="edge">
<title>Node4&#45;&gt;Node1</title>
<path fill="none" stroke="#404040" d="M421.36,-396.77C415.56,-378.07 408.74,-356.09 401.63,-333.21"/>
<polygon fill="none" stroke="#404040" points="401.57,-333.01 395.97,-328.46 398.01,-321.55 403.61,-326.09 401.57,-333.01"/>
<text text-anchor="middle" x="462.5" y="-348.5" font-family="Helvetica,sans-Serif" font-size="10.00"> #aMLLibrary_params</text>
</g>
<!-- Node5 -->
<g id="node5" class="node">
<title>Node5</title>
<g id="a_node5"><a xlink:href="structnetwork__butcher_1_1parameters_1_1Parameters_1_1Weights.html" target="_top" xlink:title="Structure used to contain all the weights related parameters.">
<polygon fill="white" stroke="black" points="537,-380.5 537,-525.5 698,-525.5 698,-380.5 537,-380.5"/>
<text text-anchor="start" x="545" y="-513.5" font-family="Helvetica,sans-Serif" font-size="10.00">network_butcher::parameters</text>
<text text-anchor="middle" x="617.5" y="-502.5" font-family="Helvetica,sans-Serif" font-size="10.00">::Parameters::Weights</text>
<polyline fill="none" stroke="black" points="537,-495.5 698,-495.5 "/>
<text text-anchor="start" x="545" y="-483.5" font-family="Helvetica,sans-Serif" font-size="10.00">+ weight_import_mode</text>
<text text-anchor="start" x="545" y="-472.5" font-family="Helvetica,sans-Serif" font-size="10.00">+ single_weight_import_path</text>
<text text-anchor="start" x="545" y="-461.5" font-family="Helvetica,sans-Serif" font-size="10.00">+ single_csv_columns</text>
<text text-anchor="start" x="545" y="-450.5" font-family="Helvetica,sans-Serif" font-size="10.00">_weights</text>
<text text-anchor="start" x="545" y="-439.5" font-family="Helvetica,sans-Serif" font-size="10.00">+ separator</text>
<text text-anchor="start" x="545" y="-428.5" font-family="Helvetica,sans-Serif" font-size="10.00">+ bandwidth</text>
<text text-anchor="start" x="545" y="-417.5" font-family="Helvetica,sans-Serif" font-size="10.00">+ in_bandwidth</text>
<text text-anchor="start" x="545" y="-406.5" font-family="Helvetica,sans-Serif" font-size="10.00">+ out_bandwidth</text>
<polyline fill="none" stroke="black" points="537,-399.5 698,-399.5 "/>
<text text-anchor="middle" x="617.5" y="-387.5" font-family="Helvetica,sans-Serif" font-size="10.00"> </text>
</a>
</g>
</g>
<!-- Node5&#45;&gt;Node1 -->
<g id="edge4" class="edge">
<title>Node5&#45;&gt;Node1</title>
<path fill="none" stroke="#404040" d="M556.5,-380.39C544.69,-366.86 532.31,-352.91 520.5,-340 499.89,-317.47 477.46,-293.73 455.82,-271.19"/>
<polygon fill="none" stroke="#404040" points="455.57,-270.93 448.53,-269.38 447.25,-262.28 454.29,-263.83 455.57,-270.93"/>
<text text-anchor="middle" x="584.5" y="-348.5" font-family="Helvetica,sans-Serif" font-size="10.00"> #weights_params</text>
</g>
</g>
</svg>
