<?xml version="1.0" encoding="UTF-8" standalone="no"?>
<!DOCTYPE svg PUBLIC "-//W3C//DTD SVG 1.1//EN"
 "http://www.w3.org/Graphics/SVG/1.1/DTD/svg11.dtd">
<!-- Generated by graphviz version 2.43.0 (0)
 -->
<!-- Title: network_butcher::kfinder::KFinder&lt; GraphType, Only_Distance, t_Weighted_Graph_Complete_Type &gt; Pages: 1 -->
<!--zoomable 961 -->
<svg id="main" version="1.1" xmlns="http://www.w3.org/2000/svg" xmlns:xlink="http://www.w3.org/1999/xlink" xml:space="preserve" onload="init(evt)">
<style type="text/css"><![CDATA[
.edge:hover path { stroke: red; }
.edge:hover polygon { stroke: red; fill: red; }
]]></style>
<script type="text/javascript"><![CDATA[
var edges = document.getElementsByTagName('g');
if (edges && edges.length) {
  for (var i=0;i<edges.length;i++) {
    if (edges[i].id.substr(0,4)=='edge') {
      edges[i].setAttribute('class','edge');
    }
  }
}
]]></script>
        <defs>
                <circle id="rim" cx="0" cy="0" r="7"/>
                <circle id="rim2" cx="0" cy="0" r="3.5"/>
                <g id="zoomPlus">
                        <use xlink:href="#rim" fill="#404040">
                                <set attributeName="fill" to="#808080" begin="zoomplus.mouseover" end="zoomplus.mouseout"/>
                        </use>
                        <path d="M-4,0h8M0,-4v8" fill="none" stroke="white" stroke-width="1.5" pointer-events="none"/>
                </g>
                <g id="zoomMin">
                        <use xlink:href="#rim" fill="#404040">
                                <set attributeName="fill" to="#808080" begin="zoomminus.mouseover" end="zoomminus.mouseout"/>
                        </use>
                        <path d="M-4,0h8" fill="none" stroke="white" stroke-width="1.5" pointer-events="none"/>
                </g>
                <g id="dirArrow">
                        <path fill="none" stroke="white" stroke-width="1.5" d="M0,-3.0v7 M-2.5,-0.5L0,-3.0L2.5,-0.5"/>
                </g>
               <g id="resetDef">
                       <use xlink:href="#rim2" fill="#404040">
                               <set attributeName="fill" to="#808080" begin="reset.mouseover" end="reset.mouseout"/>
                       </use>
               </g>
        </defs>

<script type="text/javascript">
var viewWidth = 681;
var viewHeight = 961;
var sectionId = 'dynsection-0';
</script>
<script xlink:href="svgpan.js"/>
<svg id="graph" class="graph">
<g id="viewport">
<title>network_butcher::kfinder::KFinder&lt; GraphType, Only_Distance, t_Weighted_Graph_Complete_Type &gt;</title>
<polygon fill="white" stroke="transparent" points="-4,4 -4,-957 676.5,-957 676.5,4 -4,4"/>
<!-- Node1 -->
<g id="node1" class="node">
<title>Node1</title>
<g id="a_node1"><a xlink:title=" ">
<polygon fill="#bfbfbf" stroke="black" points="108.5,-807.5 108.5,-952.5 268.5,-952.5 268.5,-807.5 108.5,-807.5"/>
<text text-anchor="start" x="116.5" y="-940.5" font-family="Helvetica,sans-Serif" font-size="10.00">network_butcher::kfinder</text>
<text text-anchor="start" x="116.5" y="-929.5" font-family="Helvetica,sans-Serif" font-size="10.00">::KFinder&lt; GraphType, Only</text>
<text text-anchor="start" x="116.5" y="-918.5" font-family="Helvetica,sans-Serif" font-size="10.00">_Distance, t_Weighted_Graph</text>
<text text-anchor="middle" x="188.5" y="-907.5" font-family="Helvetica,sans-Serif" font-size="10.00">_Complete_Type &gt;</text>
<polyline fill="none" stroke="black" points="108.5,-900.5 268.5,-900.5 "/>
<text text-anchor="start" x="116.5" y="-888.5" font-family="Helvetica,sans-Serif" font-size="10.00"># graph</text>
<text text-anchor="start" x="116.5" y="-877.5" font-family="Helvetica,sans-Serif" font-size="10.00"># root</text>
<text text-anchor="start" x="116.5" y="-866.5" font-family="Helvetica,sans-Serif" font-size="10.00"># sink</text>
<polyline fill="none" stroke="black" points="108.5,-859.5 268.5,-859.5 "/>
<text text-anchor="start" x="116.5" y="-847.5" font-family="Helvetica,sans-Serif" font-size="10.00">+ compute()</text>
<text text-anchor="start" x="116.5" y="-836.5" font-family="Helvetica,sans-Serif" font-size="10.00">+ KFinder()</text>
<text text-anchor="start" x="116.5" y="-825.5" font-family="Helvetica,sans-Serif" font-size="10.00">+ KFinder()</text>
<text text-anchor="start" x="116.5" y="-814.5" font-family="Helvetica,sans-Serif" font-size="10.00">+ ~KFinder()</text>
</a>
</g>
</g>
<!-- Node1&#45;&gt;Node1 -->
<g id="edge1" class="edge">
<title>Node1&#45;&gt;Node1</title>
<path fill="none" stroke="orange" d="M278.75,-886.35C283.61,-884.8 286.5,-882.68 286.5,-880 286.5,-875.82 279.47,-873.01 268.86,-871.57"/>
<polygon fill="orange" stroke="orange" points="277.92,-882.95 268.86,-888.43 279.37,-889.8 277.92,-882.95"/>
<text text-anchor="start" x="286.5" y="-883" font-family="Helvetica,sans-Serif" font-size="10.00"> &lt; GraphType, Only_Distance,</text>
<text text-anchor="middle" x="378.5" y="-872" font-family="Helvetica,sans-Serif" font-size="10.00"> t_Weighted_Graph_Complete_Type &gt;</text>
</g>
<!-- Node1&#45;&gt;Node1 -->
<g id="edge7" class="edge">
<title>Node1&#45;&gt;Node1</title>
<path fill="none" stroke="orange" d="M278.59,-896.99C362.17,-902.68 470.5,-897.01 470.5,-880 470.5,-862.29 353.19,-856.88 268.53,-863.76"/>
<polygon fill="orange" stroke="orange" points="278.76,-893.49 268.53,-896.24 278.24,-900.47 278.76,-893.49"/>
<text text-anchor="start" x="470.5" y="-883" font-family="Helvetica,sans-Serif" font-size="10.00"> &lt; GraphType, Only_Distance,</text>
<text text-anchor="middle" x="562.5" y="-872" font-family="Helvetica,sans-Serif" font-size="10.00"> t_Weighted_Graph_Complete_Type &gt;</text>
</g>
<!-- Node2 -->
<g id="node2" class="node">
<title>Node2</title>
<g id="a_node2"><a xlink:href="classnetwork__butcher_1_1kfinder_1_1KFinder.html" target="_top" xlink:title=" ">
<polygon fill="white" stroke="black" points="113,-603.5 113,-748.5 264,-748.5 264,-603.5 113,-603.5"/>
<text text-anchor="start" x="121" y="-736.5" font-family="Helvetica,sans-Serif" font-size="10.00">network_butcher::kfinder</text>
<text text-anchor="start" x="121" y="-725.5" font-family="Helvetica,sans-Serif" font-size="10.00">::KFinder&lt; GraphType, Only</text>
<text text-anchor="start" x="121" y="-714.5" font-family="Helvetica,sans-Serif" font-size="10.00">_Distance, Weighted_Graph</text>
<text text-anchor="middle" x="188.5" y="-703.5" font-family="Helvetica,sans-Serif" font-size="10.00">&lt; GraphType &gt; &gt;</text>
<polyline fill="none" stroke="black" points="113,-696.5 264,-696.5 "/>
<text text-anchor="start" x="121" y="-684.5" font-family="Helvetica,sans-Serif" font-size="10.00"># graph</text>
<text text-anchor="start" x="121" y="-673.5" font-family="Helvetica,sans-Serif" font-size="10.00"># root</text>
<text text-anchor="start" x="121" y="-662.5" font-family="Helvetica,sans-Serif" font-size="10.00"># sink</text>
<polyline fill="none" stroke="black" points="113,-655.5 264,-655.5 "/>
<text text-anchor="start" x="121" y="-643.5" font-family="Helvetica,sans-Serif" font-size="10.00">+ compute()</text>
<text text-anchor="start" x="121" y="-632.5" font-family="Helvetica,sans-Serif" font-size="10.00">+ KFinder()</text>
<text text-anchor="start" x="121" y="-621.5" font-family="Helvetica,sans-Serif" font-size="10.00">+ KFinder()</text>
<text text-anchor="start" x="121" y="-610.5" font-family="Helvetica,sans-Serif" font-size="10.00">+ ~KFinder()</text>
</a>
</g>
</g>
<!-- Node1&#45;&gt;Node2 -->
<g id="edge2" class="edge">
<title>Node1&#45;&gt;Node2</title>
<path fill="none" stroke="orange" d="M188.5,-797.09C188.5,-781.08 188.5,-764.4 188.5,-748.75"/>
<polygon fill="orange" stroke="orange" points="185,-797.5 188.5,-807.5 192,-797.5 185,-797.5"/>
<text text-anchor="start" x="188.5" y="-781" font-family="Helvetica,sans-Serif" font-size="10.00"> &lt; GraphType, Only_Distance,</text>
<text text-anchor="middle" x="273" y="-770" font-family="Helvetica,sans-Serif" font-size="10.00"> Weighted_Graph&lt; GraphType &gt; &gt;</text>
</g>
<!-- Node3 -->
<g id="node3" class="node">
<title>Node3</title>
<g id="a_node3"><a xlink:href="classnetwork__butcher_1_1kfinder_1_1Basic__KEppstein.html" target="_top" xlink:title=" ">
<polygon fill="white" stroke="black" points="104,-398.5 104,-565.5 273,-565.5 273,-398.5 104,-398.5"/>
<text text-anchor="start" x="112" y="-553.5" font-family="Helvetica,sans-Serif" font-size="10.00">network_butcher::kfinder</text>
<text text-anchor="start" x="112" y="-542.5" font-family="Helvetica,sans-Serif" font-size="10.00">::Basic_KEppstein&lt; GraphType,</text>
<text text-anchor="start" x="112" y="-531.5" font-family="Helvetica,sans-Serif" font-size="10.00"> Only_Distance, t_Weighted</text>
<text text-anchor="middle" x="188.5" y="-520.5" font-family="Helvetica,sans-Serif" font-size="10.00">_Graph_Complete_Type &gt;</text>
<polyline fill="none" stroke="black" points="104,-513.5 273,-513.5 "/>
<text text-anchor="middle" x="188.5" y="-501.5" font-family="Helvetica,sans-Serif" font-size="10.00"> </text>
<polyline fill="none" stroke="black" points="104,-494.5 273,-494.5 "/>
<text text-anchor="start" x="112" y="-482.5" font-family="Helvetica,sans-Serif" font-size="10.00">+ compute()</text>
<text text-anchor="start" x="112" y="-471.5" font-family="Helvetica,sans-Serif" font-size="10.00">+ Basic_KEppstein()</text>
<text text-anchor="start" x="112" y="-460.5" font-family="Helvetica,sans-Serif" font-size="10.00">+ Basic_KEppstein()</text>
<text text-anchor="start" x="112" y="-449.5" font-family="Helvetica,sans-Serif" font-size="10.00">+ ~Basic_KEppstein()</text>
<text text-anchor="start" x="112" y="-438.5" font-family="Helvetica,sans-Serif" font-size="10.00"># sidetrack_distances()</text>
<text text-anchor="start" x="112" y="-427.5" font-family="Helvetica,sans-Serif" font-size="10.00"># helper_eppstein()</text>
<text text-anchor="start" x="112" y="-416.5" font-family="Helvetica,sans-Serif" font-size="10.00"># start()</text>
<text text-anchor="start" x="112" y="-405.5" font-family="Helvetica,sans-Serif" font-size="10.00"># general_algo_eppstein()</text>
</a>
</g>
</g>
<!-- Node2&#45;&gt;Node3 -->
<g id="edge3" class="edge">
<title>Node2&#45;&gt;Node3</title>
<path fill="none" stroke="midnightblue" d="M188.5,-593.08C188.5,-584 188.5,-574.75 188.5,-565.67"/>
<polygon fill="none" stroke="midnightblue" points="185,-593.23 188.5,-603.23 192,-593.23 185,-593.23"/>
</g>
<!-- Node4 -->
<g id="node4" class="node">
<title>Node4</title>
<g id="a_node4"><a xlink:href="classnetwork__butcher_1_1kfinder_1_1Basic__KEppstein.html" target="_top" xlink:title=" ">
<polygon fill="white" stroke="black" points="81,-183.5 81,-339.5 296,-339.5 296,-183.5 81,-183.5"/>
<text text-anchor="start" x="89" y="-327.5" font-family="Helvetica,sans-Serif" font-size="10.00">network_butcher::kfinder</text>
<text text-anchor="start" x="89" y="-316.5" font-family="Helvetica,sans-Serif" font-size="10.00">::Basic_KEppstein&lt; GraphType,</text>
<text text-anchor="middle" x="188.5" y="-305.5" font-family="Helvetica,sans-Serif" font-size="10.00"> false, Weighted_Graph&lt; GraphType &gt; &gt;</text>
<polyline fill="none" stroke="black" points="81,-298.5 296,-298.5 "/>
<text text-anchor="middle" x="188.5" y="-286.5" font-family="Helvetica,sans-Serif" font-size="10.00"> </text>
<polyline fill="none" stroke="black" points="81,-279.5 296,-279.5 "/>
<text text-anchor="start" x="89" y="-267.5" font-family="Helvetica,sans-Serif" font-size="10.00">+ compute()</text>
<text text-anchor="start" x="89" y="-256.5" font-family="Helvetica,sans-Serif" font-size="10.00">+ Basic_KEppstein()</text>
<text text-anchor="start" x="89" y="-245.5" font-family="Helvetica,sans-Serif" font-size="10.00">+ Basic_KEppstein()</text>
<text text-anchor="start" x="89" y="-234.5" font-family="Helvetica,sans-Serif" font-size="10.00">+ ~Basic_KEppstein()</text>
<text text-anchor="start" x="89" y="-223.5" font-family="Helvetica,sans-Serif" font-size="10.00"># sidetrack_distances()</text>
<text text-anchor="start" x="89" y="-212.5" font-family="Helvetica,sans-Serif" font-size="10.00"># helper_eppstein()</text>
<text text-anchor="start" x="89" y="-201.5" font-family="Helvetica,sans-Serif" font-size="10.00"># start()</text>
<text text-anchor="start" x="89" y="-190.5" font-family="Helvetica,sans-Serif" font-size="10.00"># general_algo_eppstein()</text>
</a>
</g>
</g>
<!-- Node3&#45;&gt;Node4 -->
<g id="edge4" class="edge">
<title>Node3&#45;&gt;Node4</title>
<path fill="none" stroke="orange" d="M188.5,-387.94C188.5,-371.9 188.5,-355.38 188.5,-339.82"/>
<polygon fill="orange" stroke="orange" points="185,-388.39 188.5,-398.39 192,-388.39 185,-388.39"/>
<text text-anchor="start" x="188.5" y="-372" font-family="Helvetica,sans-Serif" font-size="10.00"> &lt; GraphType, false,</text>
<text text-anchor="middle" x="273" y="-361" font-family="Helvetica,sans-Serif" font-size="10.00"> Weighted_Graph&lt; GraphType &gt; &gt;</text>
</g>
<!-- Node5 -->
<g id="node5" class="node">
<title>Node5</title>
<g id="a_node5"><a xlink:href="classnetwork__butcher_1_1kfinder_1_1KFinder__Eppstein.html" target="_top" xlink:title=" ">
<polygon fill="white" stroke="black" points="0,-0.5 0,-145.5 173,-145.5 173,-0.5 0,-0.5"/>
<text text-anchor="start" x="8" y="-133.5" font-family="Helvetica,sans-Serif" font-size="10.00">network_butcher::kfinder</text>
<text text-anchor="start" x="8" y="-122.5" font-family="Helvetica,sans-Serif" font-size="10.00">::KFinder_Eppstein&lt; GraphType,</text>
<text text-anchor="start" x="8" y="-111.5" font-family="Helvetica,sans-Serif" font-size="10.00"> Only_Distance, t_Weighted</text>
<text text-anchor="middle" x="86.5" y="-100.5" font-family="Helvetica,sans-Serif" font-size="10.00">_Graph_Complete_Type &gt;</text>
<polyline fill="none" stroke="black" points="0,-93.5 173,-93.5 "/>
<text text-anchor="middle" x="86.5" y="-81.5" font-family="Helvetica,sans-Serif" font-size="10.00"> </text>
<polyline fill="none" stroke="black" points="0,-74.5 173,-74.5 "/>
<text text-anchor="start" x="8" y="-62.5" font-family="Helvetica,sans-Serif" font-size="10.00">+ KFinder_Eppstein()</text>
<text text-anchor="start" x="8" y="-51.5" font-family="Helvetica,sans-Serif" font-size="10.00">+ KFinder_Eppstein()</text>
<text text-anchor="start" x="8" y="-40.5" font-family="Helvetica,sans-Serif" font-size="10.00">+ ~KFinder_Eppstein()</text>
<text text-anchor="start" x="8" y="-29.5" font-family="Helvetica,sans-Serif" font-size="10.00">&#45; construct_h_out()</text>
<text text-anchor="start" x="8" y="-18.5" font-family="Helvetica,sans-Serif" font-size="10.00">&#45; construct_h_g()</text>
<text text-anchor="start" x="8" y="-7.5" font-family="Helvetica,sans-Serif" font-size="10.00">&#45; start()</text>
</a>
</g>
</g>
<!-- Node4&#45;&gt;Node5 -->
<g id="edge5" class="edge">
<title>Node4&#45;&gt;Node5</title>
<path fill="none" stroke="midnightblue" d="M141.47,-174.51C136.21,-164.89 130.89,-155.17 125.75,-145.76"/>
<polygon fill="none" stroke="midnightblue" points="138.41,-176.2 146.28,-183.3 144.55,-172.84 138.41,-176.2"/>
</g>
<!-- Node6 -->
<g id="node6" class="node">
<title>Node6</title>
<g id="a_node6"><a xlink:href="classnetwork__butcher_1_1kfinder_1_1KFinder__Lazy__Eppstein.html" target="_top" xlink:title=" ">
<polygon fill="white" stroke="black" points="191.5,-6 191.5,-140 391.5,-140 391.5,-6 191.5,-6"/>
<text text-anchor="start" x="199.5" y="-128" font-family="Helvetica,sans-Serif" font-size="10.00">network_butcher::kfinder</text>
<text text-anchor="start" x="199.5" y="-117" font-family="Helvetica,sans-Serif" font-size="10.00">::KFinder_Lazy_Eppstein</text>
<text text-anchor="start" x="199.5" y="-106" font-family="Helvetica,sans-Serif" font-size="10.00">&lt; GraphType, Only_Distance,</text>
<text text-anchor="middle" x="291.5" y="-95" font-family="Helvetica,sans-Serif" font-size="10.00"> t_Weighted_Graph_Complete_Type &gt;</text>
<polyline fill="none" stroke="black" points="191.5,-88 391.5,-88 "/>
<text text-anchor="middle" x="291.5" y="-76" font-family="Helvetica,sans-Serif" font-size="10.00"> </text>
<polyline fill="none" stroke="black" points="191.5,-69 391.5,-69 "/>
<text text-anchor="start" x="199.5" y="-57" font-family="Helvetica,sans-Serif" font-size="10.00">+ KFinder_Lazy_Eppstein()</text>
<text text-anchor="start" x="199.5" y="-46" font-family="Helvetica,sans-Serif" font-size="10.00">+ KFinder_Lazy_Eppstein()</text>
<text text-anchor="start" x="199.5" y="-35" font-family="Helvetica,sans-Serif" font-size="10.00">+ ~KFinder_Lazy_Eppstein()</text>
<text text-anchor="start" x="199.5" y="-24" font-family="Helvetica,sans-Serif" font-size="10.00">&#45; construct_h_g_builder()</text>
<text text-anchor="start" x="199.5" y="-13" font-family="Helvetica,sans-Serif" font-size="10.00">&#45; start()</text>
</a>
</g>
</g>
<!-- Node4&#45;&gt;Node6 -->
<g id="edge6" class="edge">
<title>Node4&#45;&gt;Node6</title>
<path fill="none" stroke="midnightblue" d="M235.99,-174.51C242.36,-162.97 248.82,-151.28 254.97,-140.15"/>
<polygon fill="none" stroke="midnightblue" points="232.91,-172.85 231.14,-183.3 239.04,-176.24 232.91,-172.85"/>
</g>
</g>
</svg>
        <g id="navigator" transform="translate(0 0)" fill="#404254">
                <rect fill="#f2f5e9" fill-opacity="0.5" stroke="#606060" stroke-width=".5" x="0" y="0" width="60" height="60"/>
                <use id="zoomplus" xlink:href="#zoomPlus" x="17" y="9" onmousedown="handleZoom(evt,'in')"/>
                <use id="zoomminus" xlink:href="#zoomMin" x="42" y="9" onmousedown="handleZoom(evt,'out')"/>
                <use id="reset" xlink:href="#resetDef" x="30" y="36" onmousedown="handleReset()"/>
                <g id="arrowUp" xlink:href="#dirArrow" transform="translate(30 24)" onmousedown="handlePan(0,-1)">
                  <use xlink:href="#rim" fill="#404040">
                        <set attributeName="fill" to="#808080" begin="arrowUp.mouseover" end="arrowUp.mouseout"/>
                  </use>
                  <path fill="none" stroke="white" stroke-width="1.5" d="M0,-3.0v7 M-2.5,-0.5L0,-3.0L2.5,-0.5"/>
                </g>
                <g id="arrowRight" xlink:href="#dirArrow" transform="rotate(90) translate(36 -43)" onmousedown="handlePan(1,0)">
                  <use xlink:href="#rim" fill="#404040">
                        <set attributeName="fill" to="#808080" begin="arrowRight.mouseover" end="arrowRight.mouseout"/>
                  </use>
                  <path fill="none" stroke="white" stroke-width="1.5" d="M0,-3.0v7 M-2.5,-0.5L0,-3.0L2.5,-0.5"/>
                </g>
                <g id="arrowDown" xlink:href="#dirArrow" transform="rotate(180) translate(-30 -48)" onmousedown="handlePan(0,1)">
                  <use xlink:href="#rim" fill="#404040">
                        <set attributeName="fill" to="#808080" begin="arrowDown.mouseover" end="arrowDown.mouseout"/>
                  </use>
                  <path fill="none" stroke="white" stroke-width="1.5" d="M0,-3.0v7 M-2.5,-0.5L0,-3.0L2.5,-0.5"/>
                </g>
                <g id="arrowLeft" xlink:href="#dirArrow" transform="rotate(270) translate(-36 17)" onmousedown="handlePan(-1,0)">
                  <use xlink:href="#rim" fill="#404040">
                        <set attributeName="fill" to="#808080" begin="arrowLeft.mouseover" end="arrowLeft.mouseout"/>
                  </use>
                  <path fill="none" stroke="white" stroke-width="1.5" d="M0,-3.0v7 M-2.5,-0.5L0,-3.0L2.5,-0.5"/>
                </g>
        </g>
        <svg viewBox="0 0 15 15" width="100%" height="30px" preserveAspectRatio="xMaxYMin meet">
         <g id="arrow_out" transform="scale(0.3 0.3)">
          <a xlink:href="classnetwork__butcher_1_1kfinder_1_1KFinder__inherit__graph_org.svg" target="_base">
           <rect id="button" ry="5" rx="5" y="6" x="6" height="38" width="38"
                fill="#f2f5e9" fill-opacity="0.5" stroke="#606060" stroke-width="1.0"/>
           <path id="arrow"
             d="M 11.500037,31.436501 C 11.940474,20.09759 22.043105,11.32322 32.158766,21.979434 L 37.068811,17.246167 C 37.068811,17.246167 37.088388,32 37.088388,32 L 22.160133,31.978069 C 22.160133,31.978069 26.997745,27.140456 26.997745,27.140456 C 18.528582,18.264221 13.291696,25.230495 11.500037,31.436501 z"
             style="fill:#404040;"/>
          </a>
         </g>
        </svg>
</svg>
