<?xml version="1.0" encoding="UTF-8" standalone="no"?>
<!DOCTYPE svg PUBLIC "-//W3C//DTD SVG 1.1//EN"
 "http://www.w3.org/Graphics/SVG/1.1/DTD/svg11.dtd">
<!-- Generated by graphviz version 2.43.0 (0)
 -->
<!-- Title: network_butcher::kfinder::KFinder_Lazy_Eppstein&lt; GraphType, Only_Distance, t_Weighted_Graph_Complete_Type &gt; Pages: 1 -->
<!--zoomable 950 -->
<svg id="main" version="1.1" xmlns="http://www.w3.org/2000/svg" xmlns:xlink="http://www.w3.org/1999/xlink" xml:space="preserve" onload="init(evt)">
<style type="text/css"><![CDATA[
.edge:hover path { stroke: red; }
.edge:hover polygon { stroke: red; fill: red; }
]]></style>
<script type="text/javascript"><![CDATA[
var edges = document.getElementsByTagName('g');
if (edges && edges.length) {
  for (var i=0;i<edges.length;i++) {
    if (edges[i].id.substr(0,4)=='edge') {
      edges[i].setAttribute('class','edge');
    }
  }
}
]]></script>
        <defs>
                <circle id="rim" cx="0" cy="0" r="7"/>
                <circle id="rim2" cx="0" cy="0" r="3.5"/>
                <g id="zoomPlus">
                        <use xlink:href="#rim" fill="#404040">
                                <set attributeName="fill" to="#808080" begin="zoomplus.mouseover" end="zoomplus.mouseout"/>
                        </use>
                        <path d="M-4,0h8M0,-4v8" fill="none" stroke="white" stroke-width="1.5" pointer-events="none"/>
                </g>
                <g id="zoomMin">
                        <use xlink:href="#rim" fill="#404040">
                                <set attributeName="fill" to="#808080" begin="zoomminus.mouseover" end="zoomminus.mouseout"/>
                        </use>
                        <path d="M-4,0h8" fill="none" stroke="white" stroke-width="1.5" pointer-events="none"/>
                </g>
                <g id="dirArrow">
                        <path fill="none" stroke="white" stroke-width="1.5" d="M0,-3.0v7 M-2.5,-0.5L0,-3.0L2.5,-0.5"/>
                </g>
               <g id="resetDef">
                       <use xlink:href="#rim2" fill="#404040">
                               <set attributeName="fill" to="#808080" begin="reset.mouseover" end="reset.mouseout"/>
                       </use>
               </g>
        </defs>

<script type="text/javascript">
var viewWidth = 398;
var viewHeight = 950;
var sectionId = 'dynsection-1';
</script>
<script xlink:href="svgpan.js"/>
<svg id="graph" class="graph">
<g id="viewport">
<title>network_butcher::kfinder::KFinder_Lazy_Eppstein&lt; GraphType, Only_Distance, t_Weighted_Graph_Complete_Type &gt;</title>
<polygon fill="white" stroke="transparent" points="-4,4 -4,-946 393.5,-946 393.5,4 -4,4"/>
<!-- Node1 -->
<g id="node1" class="node">
<title>Node1</title>
<g id="a_node1"><a xlink:title=" ">
<polygon fill="#bfbfbf" stroke="black" points="7.5,-0.5 7.5,-134.5 207.5,-134.5 207.5,-0.5 7.5,-0.5"/>
<text text-anchor="start" x="15.5" y="-122.5" font-family="Helvetica,sans-Serif" font-size="10.00">network_butcher::kfinder</text>
<text text-anchor="start" x="15.5" y="-111.5" font-family="Helvetica,sans-Serif" font-size="10.00">::KFinder_Lazy_Eppstein</text>
<text text-anchor="start" x="15.5" y="-100.5" font-family="Helvetica,sans-Serif" font-size="10.00">&lt; GraphType, Only_Distance,</text>
<text text-anchor="middle" x="107.5" y="-89.5" font-family="Helvetica,sans-Serif" font-size="10.00"> t_Weighted_Graph_Complete_Type &gt;</text>
<polyline fill="none" stroke="black" points="7.5,-82.5 207.5,-82.5 "/>
<text text-anchor="middle" x="107.5" y="-70.5" font-family="Helvetica,sans-Serif" font-size="10.00"> </text>
<polyline fill="none" stroke="black" points="7.5,-63.5 207.5,-63.5 "/>
<text text-anchor="start" x="15.5" y="-51.5" font-family="Helvetica,sans-Serif" font-size="10.00">+ KFinder_Lazy_Eppstein()</text>
<text text-anchor="start" x="15.5" y="-40.5" font-family="Helvetica,sans-Serif" font-size="10.00">+ KFinder_Lazy_Eppstein()</text>
<text text-anchor="start" x="15.5" y="-29.5" font-family="Helvetica,sans-Serif" font-size="10.00">+ ~KFinder_Lazy_Eppstein()</text>
<text text-anchor="start" x="15.5" y="-18.5" font-family="Helvetica,sans-Serif" font-size="10.00">&#45; construct_h_g_builder()</text>
<text text-anchor="start" x="15.5" y="-7.5" font-family="Helvetica,sans-Serif" font-size="10.00">&#45; start()</text>
</a>
</g>
</g>
<!-- Node2 -->
<g id="node2" class="node">
<title>Node2</title>
<g id="a_node2"><a xlink:href="classnetwork__butcher_1_1kfinder_1_1Basic__KEppstein.html" target="_top" xlink:title=" ">
<polygon fill="white" stroke="black" points="0,-172.5 0,-328.5 215,-328.5 215,-172.5 0,-172.5"/>
<text text-anchor="start" x="8" y="-316.5" font-family="Helvetica,sans-Serif" font-size="10.00">network_butcher::kfinder</text>
<text text-anchor="start" x="8" y="-305.5" font-family="Helvetica,sans-Serif" font-size="10.00">::Basic_KEppstein&lt; GraphType,</text>
<text text-anchor="middle" x="107.5" y="-294.5" font-family="Helvetica,sans-Serif" font-size="10.00"> false, Weighted_Graph&lt; GraphType &gt; &gt;</text>
<polyline fill="none" stroke="black" points="0,-287.5 215,-287.5 "/>
<text text-anchor="middle" x="107.5" y="-275.5" font-family="Helvetica,sans-Serif" font-size="10.00"> </text>
<polyline fill="none" stroke="black" points="0,-268.5 215,-268.5 "/>
<text text-anchor="start" x="8" y="-256.5" font-family="Helvetica,sans-Serif" font-size="10.00">+ compute()</text>
<text text-anchor="start" x="8" y="-245.5" font-family="Helvetica,sans-Serif" font-size="10.00">+ Basic_KEppstein()</text>
<text text-anchor="start" x="8" y="-234.5" font-family="Helvetica,sans-Serif" font-size="10.00">+ Basic_KEppstein()</text>
<text text-anchor="start" x="8" y="-223.5" font-family="Helvetica,sans-Serif" font-size="10.00">+ ~Basic_KEppstein()</text>
<text text-anchor="start" x="8" y="-212.5" font-family="Helvetica,sans-Serif" font-size="10.00"># sidetrack_distances()</text>
<text text-anchor="start" x="8" y="-201.5" font-family="Helvetica,sans-Serif" font-size="10.00"># helper_eppstein()</text>
<text text-anchor="start" x="8" y="-190.5" font-family="Helvetica,sans-Serif" font-size="10.00"># start()</text>
<text text-anchor="start" x="8" y="-179.5" font-family="Helvetica,sans-Serif" font-size="10.00"># general_algo_eppstein()</text>
</a>
</g>
</g>
<!-- Node2&#45;&gt;Node1 -->
<g id="edge1" class="edge">
<title>Node2&#45;&gt;Node1</title>
<path fill="none" stroke="midnightblue" d="M107.5,-162.38C107.5,-153.03 107.5,-143.64 107.5,-134.6"/>
<polygon fill="none" stroke="midnightblue" points="104,-162.48 107.5,-172.48 111,-162.48 104,-162.48"/>
</g>
<!-- Node3 -->
<g id="node3" class="node">
<title>Node3</title>
<g id="a_node3"><a xlink:href="classnetwork__butcher_1_1kfinder_1_1KFinder.html" target="_top" xlink:title=" ">
<polygon fill="white" stroke="black" points="27.5,-796.5 27.5,-941.5 187.5,-941.5 187.5,-796.5 27.5,-796.5"/>
<text text-anchor="start" x="35.5" y="-929.5" font-family="Helvetica,sans-Serif" font-size="10.00">network_butcher::kfinder</text>
<text text-anchor="start" x="35.5" y="-918.5" font-family="Helvetica,sans-Serif" font-size="10.00">::KFinder&lt; GraphType, Only</text>
<text text-anchor="start" x="35.5" y="-907.5" font-family="Helvetica,sans-Serif" font-size="10.00">_Distance, t_Weighted_Graph</text>
<text text-anchor="middle" x="107.5" y="-896.5" font-family="Helvetica,sans-Serif" font-size="10.00">_Complete_Type &gt;</text>
<polyline fill="none" stroke="black" points="27.5,-889.5 187.5,-889.5 "/>
<text text-anchor="start" x="35.5" y="-877.5" font-family="Helvetica,sans-Serif" font-size="10.00"># graph</text>
<text text-anchor="start" x="35.5" y="-866.5" font-family="Helvetica,sans-Serif" font-size="10.00"># root</text>
<text text-anchor="start" x="35.5" y="-855.5" font-family="Helvetica,sans-Serif" font-size="10.00"># sink</text>
<polyline fill="none" stroke="black" points="27.5,-848.5 187.5,-848.5 "/>
<text text-anchor="start" x="35.5" y="-836.5" font-family="Helvetica,sans-Serif" font-size="10.00">+ compute()</text>
<text text-anchor="start" x="35.5" y="-825.5" font-family="Helvetica,sans-Serif" font-size="10.00">+ KFinder()</text>
<text text-anchor="start" x="35.5" y="-814.5" font-family="Helvetica,sans-Serif" font-size="10.00">+ KFinder()</text>
<text text-anchor="start" x="35.5" y="-803.5" font-family="Helvetica,sans-Serif" font-size="10.00">+ ~KFinder()</text>
</a>
</g>
</g>
<!-- Node3&#45;&gt;Node2 -->
<g id="edge2" class="edge">
<title>Node3&#45;&gt;Node2</title>
<path fill="none" stroke="midnightblue" d="M107.5,-786.19C107.5,-666.65 107.5,-445.8 107.5,-328.85"/>
<polygon fill="none" stroke="midnightblue" points="104,-786.38 107.5,-796.38 111,-786.38 104,-786.38"/>
</g>
<!-- Node3&#45;&gt;Node3 -->
<g id="edge3" class="edge">
<title>Node3&#45;&gt;Node3</title>
<path fill="none" stroke="orange" d="M197.39,-881.93C202.47,-878.8 205.5,-874.49 205.5,-869 205.5,-860.63 198.47,-855.01 187.86,-852.13"/>
<polygon fill="orange" stroke="orange" points="195.76,-878.81 187.86,-885.87 198.44,-885.28 195.76,-878.81"/>
<text text-anchor="start" x="205.5" y="-872" font-family="Helvetica,sans-Serif" font-size="10.00"> &lt; GraphType, Only_Distance,</text>
<text text-anchor="middle" x="297.5" y="-861" font-family="Helvetica,sans-Serif" font-size="10.00"> t_Weighted_Graph_Complete_Type &gt;</text>
</g>
<!-- Node5 -->
<g id="node5" class="node">
<title>Node5</title>
<g id="a_node5"><a xlink:href="classnetwork__butcher_1_1kfinder_1_1KFinder.html" target="_top" xlink:title=" ">
<polygon fill="white" stroke="black" points="124,-592.5 124,-737.5 275,-737.5 275,-592.5 124,-592.5"/>
<text text-anchor="start" x="132" y="-725.5" font-family="Helvetica,sans-Serif" font-size="10.00">network_butcher::kfinder</text>
<text text-anchor="start" x="132" y="-714.5" font-family="Helvetica,sans-Serif" font-size="10.00">::KFinder&lt; GraphType, Only</text>
<text text-anchor="start" x="132" y="-703.5" font-family="Helvetica,sans-Serif" font-size="10.00">_Distance, Weighted_Graph</text>
<text text-anchor="middle" x="199.5" y="-692.5" font-family="Helvetica,sans-Serif" font-size="10.00">&lt; GraphType &gt; &gt;</text>
<polyline fill="none" stroke="black" points="124,-685.5 275,-685.5 "/>
<text text-anchor="start" x="132" y="-673.5" font-family="Helvetica,sans-Serif" font-size="10.00"># graph</text>
<text text-anchor="start" x="132" y="-662.5" font-family="Helvetica,sans-Serif" font-size="10.00"># root</text>
<text text-anchor="start" x="132" y="-651.5" font-family="Helvetica,sans-Serif" font-size="10.00"># sink</text>
<polyline fill="none" stroke="black" points="124,-644.5 275,-644.5 "/>
<text text-anchor="start" x="132" y="-632.5" font-family="Helvetica,sans-Serif" font-size="10.00">+ compute()</text>
<text text-anchor="start" x="132" y="-621.5" font-family="Helvetica,sans-Serif" font-size="10.00">+ KFinder()</text>
<text text-anchor="start" x="132" y="-610.5" font-family="Helvetica,sans-Serif" font-size="10.00">+ KFinder()</text>
<text text-anchor="start" x="132" y="-599.5" font-family="Helvetica,sans-Serif" font-size="10.00">+ ~KFinder()</text>
</a>
</g>
</g>
<!-- Node3&#45;&gt;Node5 -->
<g id="edge6" class="edge">
<title>Node3&#45;&gt;Node5</title>
<path fill="none" stroke="orange" d="M144.39,-787C151.81,-770.71 159.56,-753.7 166.82,-737.75"/>
<polygon fill="orange" stroke="orange" points="141.02,-785.95 140.07,-796.5 147.4,-788.85 141.02,-785.95"/>
<text text-anchor="start" x="155.5" y="-770" font-family="Helvetica,sans-Serif" font-size="10.00"> &lt; GraphType, Only_Distance,</text>
<text text-anchor="middle" x="240" y="-759" font-family="Helvetica,sans-Serif" font-size="10.00"> Weighted_Graph&lt; GraphType &gt; &gt;</text>
</g>
<!-- Node4 -->
<g id="node4" class="node">
<title>Node4</title>
<g id="a_node4"><a xlink:href="classnetwork__butcher_1_1kfinder_1_1Basic__KEppstein.html" target="_top" xlink:title=" ">
<polygon fill="white" stroke="black" points="119,-387.5 119,-554.5 288,-554.5 288,-387.5 119,-387.5"/>
<text text-anchor="start" x="127" y="-542.5" font-family="Helvetica,sans-Serif" font-size="10.00">network_butcher::kfinder</text>
<text text-anchor="start" x="127" y="-531.5" font-family="Helvetica,sans-Serif" font-size="10.00">::Basic_KEppstein&lt; GraphType,</text>
<text text-anchor="start" x="127" y="-520.5" font-family="Helvetica,sans-Serif" font-size="10.00"> Only_Distance, t_Weighted</text>
<text text-anchor="middle" x="203.5" y="-509.5" font-family="Helvetica,sans-Serif" font-size="10.00">_Graph_Complete_Type &gt;</text>
<polyline fill="none" stroke="black" points="119,-502.5 288,-502.5 "/>
<text text-anchor="middle" x="203.5" y="-490.5" font-family="Helvetica,sans-Serif" font-size="10.00"> </text>
<polyline fill="none" stroke="black" points="119,-483.5 288,-483.5 "/>
<text text-anchor="start" x="127" y="-471.5" font-family="Helvetica,sans-Serif" font-size="10.00">+ compute()</text>
<text text-anchor="start" x="127" y="-460.5" font-family="Helvetica,sans-Serif" font-size="10.00">+ Basic_KEppstein()</text>
<text text-anchor="start" x="127" y="-449.5" font-family="Helvetica,sans-Serif" font-size="10.00">+ Basic_KEppstein()</text>
<text text-anchor="start" x="127" y="-438.5" font-family="Helvetica,sans-Serif" font-size="10.00">+ ~Basic_KEppstein()</text>
<text text-anchor="start" x="127" y="-427.5" font-family="Helvetica,sans-Serif" font-size="10.00"># sidetrack_distances()</text>
<text text-anchor="start" x="127" y="-416.5" font-family="Helvetica,sans-Serif" font-size="10.00"># helper_eppstein()</text>
<text text-anchor="start" x="127" y="-405.5" font-family="Helvetica,sans-Serif" font-size="10.00"># start()</text>
<text text-anchor="start" x="127" y="-394.5" font-family="Helvetica,sans-Serif" font-size="10.00"># general_algo_eppstein()</text>
</a>
</g>
</g>
<!-- Node4&#45;&gt;Node2 -->
<g id="edge4" class="edge">
<title>Node4&#45;&gt;Node2</title>
<path fill="none" stroke="orange" d="M163.01,-377.85C155.84,-361.53 148.44,-344.68 141.47,-328.82"/>
<polygon fill="orange" stroke="orange" points="159.98,-379.65 167.21,-387.39 166.39,-376.83 159.98,-379.65"/>
<text text-anchor="start" x="157.5" y="-361" font-family="Helvetica,sans-Serif" font-size="10.00"> &lt; GraphType, false,</text>
<text text-anchor="middle" x="242" y="-350" font-family="Helvetica,sans-Serif" font-size="10.00"> Weighted_Graph&lt; GraphType &gt; &gt;</text>
</g>
<!-- Node5&#45;&gt;Node4 -->
<g id="edge5" class="edge">
<title>Node5&#45;&gt;Node4</title>
<path fill="none" stroke="midnightblue" d="M201.21,-582.08C201.4,-573 201.59,-563.75 201.78,-554.67"/>
<polygon fill="none" stroke="midnightblue" points="197.7,-582.16 201,-592.23 204.7,-582.31 197.7,-582.16"/>
</g>
</g>
</svg>
        <g id="navigator" transform="translate(0 0)" fill="#404254">
                <rect fill="#f2f5e9" fill-opacity="0.5" stroke="#606060" stroke-width=".5" x="0" y="0" width="60" height="60"/>
                <use id="zoomplus" xlink:href="#zoomPlus" x="17" y="9" onmousedown="handleZoom(evt,'in')"/>
                <use id="zoomminus" xlink:href="#zoomMin" x="42" y="9" onmousedown="handleZoom(evt,'out')"/>
                <use id="reset" xlink:href="#resetDef" x="30" y="36" onmousedown="handleReset()"/>
                <g id="arrowUp" xlink:href="#dirArrow" transform="translate(30 24)" onmousedown="handlePan(0,-1)">
                  <use xlink:href="#rim" fill="#404040">
                        <set attributeName="fill" to="#808080" begin="arrowUp.mouseover" end="arrowUp.mouseout"/>
                  </use>
                  <path fill="none" stroke="white" stroke-width="1.5" d="M0,-3.0v7 M-2.5,-0.5L0,-3.0L2.5,-0.5"/>
                </g>
                <g id="arrowRight" xlink:href="#dirArrow" transform="rotate(90) translate(36 -43)" onmousedown="handlePan(1,0)">
                  <use xlink:href="#rim" fill="#404040">
                        <set attributeName="fill" to="#808080" begin="arrowRight.mouseover" end="arrowRight.mouseout"/>
                  </use>
                  <path fill="none" stroke="white" stroke-width="1.5" d="M0,-3.0v7 M-2.5,-0.5L0,-3.0L2.5,-0.5"/>
                </g>
                <g id="arrowDown" xlink:href="#dirArrow" transform="rotate(180) translate(-30 -48)" onmousedown="handlePan(0,1)">
                  <use xlink:href="#rim" fill="#404040">
                        <set attributeName="fill" to="#808080" begin="arrowDown.mouseover" end="arrowDown.mouseout"/>
                  </use>
                  <path fill="none" stroke="white" stroke-width="1.5" d="M0,-3.0v7 M-2.5,-0.5L0,-3.0L2.5,-0.5"/>
                </g>
                <g id="arrowLeft" xlink:href="#dirArrow" transform="rotate(270) translate(-36 17)" onmousedown="handlePan(-1,0)">
                  <use xlink:href="#rim" fill="#404040">
                        <set attributeName="fill" to="#808080" begin="arrowLeft.mouseover" end="arrowLeft.mouseout"/>
                  </use>
                  <path fill="none" stroke="white" stroke-width="1.5" d="M0,-3.0v7 M-2.5,-0.5L0,-3.0L2.5,-0.5"/>
                </g>
        </g>
        <svg viewBox="0 0 15 15" width="100%" height="30px" preserveAspectRatio="xMaxYMin meet">
         <g id="arrow_out" transform="scale(0.3 0.3)">
          <a xlink:href="classnetwork__butcher_1_1kfinder_1_1KFinder__Lazy__Eppstein__coll__graph_org.svg" target="_base">
           <rect id="button" ry="5" rx="5" y="6" x="6" height="38" width="38"
                fill="#f2f5e9" fill-opacity="0.5" stroke="#606060" stroke-width="1.0"/>
           <path id="arrow"
             d="M 11.500037,31.436501 C 11.940474,20.09759 22.043105,11.32322 32.158766,21.979434 L 37.068811,17.246167 C 37.068811,17.246167 37.088388,32 37.088388,32 L 22.160133,31.978069 C 22.160133,31.978069 26.997745,27.140456 26.997745,27.140456 C 18.528582,18.264221 13.291696,25.230495 11.500037,31.436501 z"
             style="fill:#404040;"/>
          </a>
         </g>
        </svg>
</svg>
