<?xml version="1.0" encoding="UTF-8" standalone="no"?>
<!DOCTYPE svg PUBLIC "-//W3C//DTD SVG 1.1//EN"
 "http://www.w3.org/Graphics/SVG/1.1/DTD/svg11.dtd">
<!-- Generated by graphviz version 2.43.0 (0)
 -->
<!-- Title: network_butcher::constraints::Memory_Constraint&lt; GraphType &gt; Pages: 1 -->
<svg width="201pt" height="292pt"
 viewBox="0.00 0.00 201.00 292.00" xmlns="http://www.w3.org/2000/svg" xmlns:xlink="http://www.w3.org/1999/xlink">
<g id="graph0" class="graph" transform="scale(1 1) rotate(0) translate(4 288)">
<title>network_butcher::constraints::Memory_Constraint&lt; GraphType &gt;</title>
<polygon fill="white" stroke="transparent" points="-4,4 -4,-288 197,-288 197,4 -4,4"/>
<!-- Node1 -->
<g id="node1" class="node">
<title>Node1</title>
<g id="a_node1"><a xlink:title=" ">
<polygon fill="#bfbfbf" stroke="black" points="0,-0.5 0,-145.5 193,-145.5 193,-0.5 0,-0.5"/>
<text text-anchor="start" x="8" y="-133.5" font-family="Helvetica,sans-Serif" font-size="10.00">network_butcher::constraints</text>
<text text-anchor="middle" x="96.5" y="-122.5" font-family="Helvetica,sans-Serif" font-size="10.00">::Memory_Constraint&lt; GraphType &gt;</text>
<polyline fill="none" stroke="black" points="0,-115.5 193,-115.5 "/>
<text text-anchor="start" x="8" y="-103.5" font-family="Helvetica,sans-Serif" font-size="10.00">&#45; params</text>
<text text-anchor="start" x="8" y="-92.5" font-family="Helvetica,sans-Serif" font-size="10.00">&#45; graph</text>
<polyline fill="none" stroke="black" points="0,-85.5 193,-85.5 "/>
<text text-anchor="start" x="8" y="-73.5" font-family="Helvetica,sans-Serif" font-size="10.00">+ Memory_Constraint()</text>
<text text-anchor="start" x="8" y="-62.5" font-family="Helvetica,sans-Serif" font-size="10.00">+ apply_constraint()</text>
<text text-anchor="start" x="8" y="-51.5" font-family="Helvetica,sans-Serif" font-size="10.00">+ copy()</text>
<text text-anchor="start" x="8" y="-40.5" font-family="Helvetica,sans-Serif" font-size="10.00">+ ~Memory_Constraint()</text>
<text text-anchor="start" x="8" y="-29.5" font-family="Helvetica,sans-Serif" font-size="10.00">&#45; estimate_maximum_memory</text>
<text text-anchor="start" x="8" y="-18.5" font-family="Helvetica,sans-Serif" font-size="10.00">_usage()</text>
<text text-anchor="start" x="8" y="-7.5" font-family="Helvetica,sans-Serif" font-size="10.00">&#45; check_if_applicable()</text>
</a>
</g>
</g>
<!-- Node2 -->
<g id="node2" class="node">
<title>Node2</title>
<g id="a_node2"><a xlink:href="classnetwork__butcher_1_1constraints_1_1Graph__Constraint.html" target="_top" xlink:title="A simple class representing a constraint to be applied during the block graph construction.">
<polygon fill="white" stroke="black" points="17.5,-182.5 17.5,-283.5 175.5,-283.5 175.5,-182.5 17.5,-182.5"/>
<text text-anchor="start" x="25.5" y="-271.5" font-family="Helvetica,sans-Serif" font-size="10.00">network_butcher::constraints</text>
<text text-anchor="middle" x="96.5" y="-260.5" font-family="Helvetica,sans-Serif" font-size="10.00">::Graph_Constraint</text>
<polyline fill="none" stroke="black" points="17.5,-253.5 175.5,-253.5 "/>
<text text-anchor="middle" x="96.5" y="-241.5" font-family="Helvetica,sans-Serif" font-size="10.00"> </text>
<polyline fill="none" stroke="black" points="17.5,-234.5 175.5,-234.5 "/>
<text text-anchor="start" x="25.5" y="-222.5" font-family="Helvetica,sans-Serif" font-size="10.00">+ Graph_Constraint()</text>
<text text-anchor="start" x="25.5" y="-211.5" font-family="Helvetica,sans-Serif" font-size="10.00">+ apply_constraint()</text>
<text text-anchor="start" x="25.5" y="-200.5" font-family="Helvetica,sans-Serif" font-size="10.00">+ copy()</text>
<text text-anchor="start" x="25.5" y="-189.5" font-family="Helvetica,sans-Serif" font-size="10.00">+ ~Graph_Constraint()</text>
</a>
</g>
</g>
<!-- Node2&#45;&gt;Node1 -->
<g id="edge1" class="edge">
<title>Node2&#45;&gt;Node1</title>
<path fill="none" stroke="midnightblue" d="M96.5,-172.38C96.5,-163.66 96.5,-154.59 96.5,-145.66"/>
<polygon fill="none" stroke="midnightblue" points="93,-172.44 96.5,-182.44 100,-172.44 93,-172.44"/>
</g>
</g>
</svg>
