<?xml version="1.0" encoding="UTF-8" standalone="no"?>
<!DOCTYPE svg PUBLIC "-//W3C//DTD SVG 1.1//EN"
 "http://www.w3.org/Graphics/SVG/1.1/DTD/svg11.dtd">
<!-- Generated by graphviz version 2.43.0 (0)
 -->
<!-- Title: network_butcher::constraints::Memory_Constraint&lt; GraphType &gt; Pages: 1 -->
<!--zoomable 496 -->
<svg id="main" version="1.1" xmlns="http://www.w3.org/2000/svg" xmlns:xlink="http://www.w3.org/1999/xlink" xml:space="preserve" onload="init(evt)">
<style type="text/css"><![CDATA[
.edge:hover path { stroke: red; }
.edge:hover polygon { stroke: red; fill: red; }
]]></style>
<script type="text/javascript"><![CDATA[
var edges = document.getElementsByTagName('g');
if (edges && edges.length) {
  for (var i=0;i<edges.length;i++) {
    if (edges[i].id.substr(0,4)=='edge') {
      edges[i].setAttribute('class','edge');
    }
  }
}
]]></script>
        <defs>
                <circle id="rim" cx="0" cy="0" r="7"/>
                <circle id="rim2" cx="0" cy="0" r="3.5"/>
                <g id="zoomPlus">
                        <use xlink:href="#rim" fill="#404040">
                                <set attributeName="fill" to="#808080" begin="zoomplus.mouseover" end="zoomplus.mouseout"/>
                        </use>
                        <path d="M-4,0h8M0,-4v8" fill="none" stroke="white" stroke-width="1.5" pointer-events="none"/>
                </g>
                <g id="zoomMin">
                        <use xlink:href="#rim" fill="#404040">
                                <set attributeName="fill" to="#808080" begin="zoomminus.mouseover" end="zoomminus.mouseout"/>
                        </use>
                        <path d="M-4,0h8" fill="none" stroke="white" stroke-width="1.5" pointer-events="none"/>
                </g>
                <g id="dirArrow">
                        <path fill="none" stroke="white" stroke-width="1.5" d="M0,-3.0v7 M-2.5,-0.5L0,-3.0L2.5,-0.5"/>
                </g>
               <g id="resetDef">
                       <use xlink:href="#rim2" fill="#404040">
                               <set attributeName="fill" to="#808080" begin="reset.mouseover" end="reset.mouseout"/>
                       </use>
               </g>
        </defs>

<script type="text/javascript">
var viewWidth = 885;
var viewHeight = 496;
var sectionId = 'dynsection-1';
</script>
<script xlink:href="svgpan.js"/>
<svg id="graph" class="graph">
<g id="viewport">
<title>network_butcher::constraints::Memory_Constraint&lt; GraphType &gt;</title>
<polygon fill="white" stroke="transparent" points="-4,4 -4,-492 881,-492 881,4 -4,4"/>
<!-- Node1 -->
<g id="node1" class="node">
<title>Node1</title>
<g id="a_node1"><a xlink:title=" ">
<polygon fill="#bfbfbf" stroke="black" points="180,-0.5 180,-134.5 373,-134.5 373,-0.5 180,-0.5"/>
<text text-anchor="start" x="188" y="-122.5" font-family="Helvetica,sans-Serif" font-size="10.00">network_butcher::constraints</text>
<text text-anchor="middle" x="276.5" y="-111.5" font-family="Helvetica,sans-Serif" font-size="10.00">::Memory_Constraint&lt; GraphType &gt;</text>
<polyline fill="none" stroke="black" points="180,-104.5 373,-104.5 "/>
<text text-anchor="start" x="188" y="-92.5" font-family="Helvetica,sans-Serif" font-size="10.00">&#45; graph</text>
<polyline fill="none" stroke="black" points="180,-85.5 373,-85.5 "/>
<text text-anchor="start" x="188" y="-73.5" font-family="Helvetica,sans-Serif" font-size="10.00">+ Memory_Constraint()</text>
<text text-anchor="start" x="188" y="-62.5" font-family="Helvetica,sans-Serif" font-size="10.00">+ apply_constraint()</text>
<text text-anchor="start" x="188" y="-51.5" font-family="Helvetica,sans-Serif" font-size="10.00">+ copy()</text>
<text text-anchor="start" x="188" y="-40.5" font-family="Helvetica,sans-Serif" font-size="10.00">+ ~Memory_Constraint()</text>
<text text-anchor="start" x="188" y="-29.5" font-family="Helvetica,sans-Serif" font-size="10.00">&#45; estimate_maximum_memory</text>
<text text-anchor="start" x="188" y="-18.5" font-family="Helvetica,sans-Serif" font-size="10.00">_usage()</text>
<text text-anchor="start" x="188" y="-7.5" font-family="Helvetica,sans-Serif" font-size="10.00">&#45; check_if_applicable()</text>
</a>
</g>
</g>
<!-- Node2 -->
<g id="node2" class="node">
<title>Node2</title>
<g id="a_node2"><a xlink:href="classnetwork__butcher_1_1constraints_1_1Graph__Constraint.html" target="_top" xlink:title="A simple class representing a constraint to be applied during the block graph construction.">
<polygon fill="white" stroke="black" points="181.5,-182.5 181.5,-283.5 339.5,-283.5 339.5,-182.5 181.5,-182.5"/>
<text text-anchor="start" x="189.5" y="-271.5" font-family="Helvetica,sans-Serif" font-size="10.00">network_butcher::constraints</text>
<text text-anchor="middle" x="260.5" y="-260.5" font-family="Helvetica,sans-Serif" font-size="10.00">::Graph_Constraint</text>
<polyline fill="none" stroke="black" points="181.5,-253.5 339.5,-253.5 "/>
<text text-anchor="middle" x="260.5" y="-241.5" font-family="Helvetica,sans-Serif" font-size="10.00"> </text>
<polyline fill="none" stroke="black" points="181.5,-234.5 339.5,-234.5 "/>
<text text-anchor="start" x="189.5" y="-222.5" font-family="Helvetica,sans-Serif" font-size="10.00">+ Graph_Constraint()</text>
<text text-anchor="start" x="189.5" y="-211.5" font-family="Helvetica,sans-Serif" font-size="10.00">+ apply_constraint()</text>
<text text-anchor="start" x="189.5" y="-200.5" font-family="Helvetica,sans-Serif" font-size="10.00">+ copy()</text>
<text text-anchor="start" x="189.5" y="-189.5" font-family="Helvetica,sans-Serif" font-size="10.00">+ ~Graph_Constraint()</text>
</a>
</g>
</g>
<!-- Node2&#45;&gt;Node1 -->
<g id="edge1" class="edge">
<title>Node2&#45;&gt;Node1</title>
<path fill="none" stroke="midnightblue" d="M266.37,-172.04C267.56,-159.9 268.81,-147.06 270.02,-134.71"/>
<polygon fill="none" stroke="midnightblue" points="262.88,-171.76 265.39,-182.06 269.84,-172.44 262.88,-171.76"/>
</g>
<!-- Node3 -->
<g id="node3" class="node">
<title>Node3</title>
<g id="a_node3"><a xlink:href="structnetwork__butcher_1_1parameters_1_1Parameters.html" target="_top" xlink:title="The collection of parameters.">
<polygon fill="white" stroke="black" points="358,-199 358,-267 519,-267 519,-199 358,-199"/>
<text text-anchor="start" x="366" y="-255" font-family="Helvetica,sans-Serif" font-size="10.00">network_butcher::parameters</text>
<text text-anchor="middle" x="438.5" y="-244" font-family="Helvetica,sans-Serif" font-size="10.00">::Parameters</text>
<polyline fill="none" stroke="black" points="358,-237 519,-237 "/>
<text text-anchor="start" x="366" y="-225" font-family="Helvetica,sans-Serif" font-size="10.00">+ devices</text>
<polyline fill="none" stroke="black" points="358,-218 519,-218 "/>
<text text-anchor="middle" x="438.5" y="-206" font-family="Helvetica,sans-Serif" font-size="10.00"> </text>
</a>
</g>
</g>
<!-- Node3&#45;&gt;Node1 -->
<g id="edge2" class="edge">
<title>Node3&#45;&gt;Node1</title>
<path fill="none" stroke="#404040" d="M405.72,-198.91C389.77,-182.82 369.9,-162.77 350.57,-143.25"/>
<polygon fill="none" stroke="#404040" points="350.48,-143.17 343.42,-141.72 342.03,-134.64 349.1,-136.09 350.48,-143.17"/>
<text text-anchor="middle" x="388.5" y="-156" font-family="Helvetica,sans-Serif" font-size="10.00"> &#45;params</text>
</g>
<!-- Node4 -->
<g id="node4" class="node">
<title>Node4</title>
<g id="a_node4"><a xlink:href="structnetwork__butcher_1_1parameters_1_1Parameters_1_1Block__Graph__Generation.html" target="_top" xlink:title="Structure used to contain all the parameters related to the Block Graph Generation.">
<polygon fill="white" stroke="black" points="0,-348 0,-482 161,-482 161,-348 0,-348"/>
<text text-anchor="start" x="8" y="-470" font-family="Helvetica,sans-Serif" font-size="10.00">network_butcher::parameters</text>
<text text-anchor="start" x="8" y="-459" font-family="Helvetica,sans-Serif" font-size="10.00">::Parameters::Block_Graph</text>
<text text-anchor="middle" x="80.5" y="-448" font-family="Helvetica,sans-Serif" font-size="10.00">_Generation</text>
<polyline fill="none" stroke="black" points="0,-441 161,-441 "/>
<text text-anchor="start" x="8" y="-429" font-family="Helvetica,sans-Serif" font-size="10.00">+ starting_device_id</text>
<text text-anchor="start" x="8" y="-418" font-family="Helvetica,sans-Serif" font-size="10.00">+ ending_device_id</text>
<text text-anchor="start" x="8" y="-407" font-family="Helvetica,sans-Serif" font-size="10.00">+ block_graph_mode</text>
<text text-anchor="start" x="8" y="-396" font-family="Helvetica,sans-Serif" font-size="10.00">+ use_bandwidth_to_manage</text>
<text text-anchor="start" x="8" y="-385" font-family="Helvetica,sans-Serif" font-size="10.00">_connections</text>
<text text-anchor="start" x="8" y="-374" font-family="Helvetica,sans-Serif" font-size="10.00">+ memory_constraint</text>
<polyline fill="none" stroke="black" points="0,-367 161,-367 "/>
<text text-anchor="middle" x="80.5" y="-355" font-family="Helvetica,sans-Serif" font-size="10.00"> </text>
</a>
</g>
</g>
<!-- Node4&#45;&gt;Node3 -->
<g id="edge3" class="edge">
<title>Node4&#45;&gt;Node3</title>
<path fill="none" stroke="#404040" d="M135.12,-347.72C153.12,-330.04 174.49,-312.86 197.5,-302 258.62,-273.14 284.19,-304.8 348.5,-284 357.69,-281.03 367.01,-277.08 375.99,-272.71"/>
<polygon fill="none" stroke="#404040" points="376.08,-272.67 379.59,-266.37 386.76,-267.19 383.24,-273.49 376.08,-272.67"/>
<text text-anchor="start" x="197.5" y="-316" font-family="Helvetica,sans-Serif" font-size="10.00"> +block_graph_generation</text>
<text text-anchor="middle" x="262" y="-305" font-family="Helvetica,sans-Serif" font-size="10.00">_params</text>
</g>
<!-- Node5 -->
<g id="node5" class="node">
<title>Node5</title>
<g id="a_node5"><a xlink:href="structnetwork__butcher_1_1parameters_1_1Parameters_1_1Model.html" target="_top" xlink:title="Structure used to contain all the model related parameters.">
<polygon fill="white" stroke="black" points="179,-364.5 179,-465.5 340,-465.5 340,-364.5 179,-364.5"/>
<text text-anchor="start" x="187" y="-453.5" font-family="Helvetica,sans-Serif" font-size="10.00">network_butcher::parameters</text>
<text text-anchor="middle" x="259.5" y="-442.5" font-family="Helvetica,sans-Serif" font-size="10.00">::Parameters::Model</text>
<polyline fill="none" stroke="black" points="179,-435.5 340,-435.5 "/>
<text text-anchor="start" x="187" y="-423.5" font-family="Helvetica,sans-Serif" font-size="10.00">+ model_name</text>
<text text-anchor="start" x="187" y="-412.5" font-family="Helvetica,sans-Serif" font-size="10.00">+ model_path</text>
<text text-anchor="start" x="187" y="-401.5" font-family="Helvetica,sans-Serif" font-size="10.00">+ export_directory</text>
<text text-anchor="start" x="187" y="-390.5" font-family="Helvetica,sans-Serif" font-size="10.00">+ config_path</text>
<polyline fill="none" stroke="black" points="179,-383.5 340,-383.5 "/>
<text text-anchor="middle" x="259.5" y="-371.5" font-family="Helvetica,sans-Serif" font-size="10.00"> </text>
</a>
</g>
</g>
<!-- Node5&#45;&gt;Node3 -->
<g id="edge4" class="edge">
<title>Node5&#45;&gt;Node3</title>
<path fill="none" stroke="#404040" d="M295.2,-364.41C310.84,-344.11 330.04,-320.99 349.5,-302 359.19,-292.55 370.19,-283.21 381.07,-274.62"/>
<polygon fill="none" stroke="#404040" points="381.07,-274.62 383.37,-267.78 390.57,-267.28 388.26,-274.11 381.07,-274.62"/>
<text text-anchor="middle" x="392" y="-310.5" font-family="Helvetica,sans-Serif" font-size="10.00"> +model_params</text>
</g>
<!-- Node6 -->
<g id="node6" class="node">
<title>Node6</title>
<g id="a_node6"><a xlink:href="structnetwork__butcher_1_1parameters_1_1Parameters_1_1KSP.html" target="_top" xlink:title="Structure used to contain all the parameters related to the K shortest path method.">
<polygon fill="white" stroke="black" points="358,-375.5 358,-454.5 519,-454.5 519,-375.5 358,-375.5"/>
<text text-anchor="start" x="366" y="-442.5" font-family="Helvetica,sans-Serif" font-size="10.00">network_butcher::parameters</text>
<text text-anchor="middle" x="438.5" y="-431.5" font-family="Helvetica,sans-Serif" font-size="10.00">::Parameters::KSP</text>
<polyline fill="none" stroke="black" points="358,-424.5 519,-424.5 "/>
<text text-anchor="start" x="366" y="-412.5" font-family="Helvetica,sans-Serif" font-size="10.00">+ K</text>
<text text-anchor="start" x="366" y="-401.5" font-family="Helvetica,sans-Serif" font-size="10.00">+ method</text>
<polyline fill="none" stroke="black" points="358,-394.5 519,-394.5 "/>
<text text-anchor="middle" x="438.5" y="-382.5" font-family="Helvetica,sans-Serif" font-size="10.00"> </text>
</a>
</g>
</g>
<!-- Node6&#45;&gt;Node3 -->
<g id="edge5" class="edge">
<title>Node6&#45;&gt;Node3</title>
<path fill="none" stroke="#404040" d="M438.5,-375.39C438.5,-347.18 438.5,-308.86 438.5,-279.23"/>
<polygon fill="none" stroke="#404040" points="438.5,-279.11 434.5,-273.11 438.5,-267.11 442.5,-273.11 438.5,-279.11"/>
<text text-anchor="middle" x="474" y="-310.5" font-family="Helvetica,sans-Serif" font-size="10.00"> +ksp_params</text>
</g>
<!-- Node7 -->
<g id="node7" class="node">
<title>Node7</title>
<g id="a_node7"><a xlink:href="structnetwork__butcher_1_1parameters_1_1Parameters_1_1aMLLibrary.html" target="_top" xlink:title="Structure used to contain all the aMLLibrary related parameters.">
<polygon fill="white" stroke="black" points="537,-359 537,-471 698,-471 698,-359 537,-359"/>
<text text-anchor="start" x="545" y="-459" font-family="Helvetica,sans-Serif" font-size="10.00">network_butcher::parameters</text>
<text text-anchor="middle" x="617.5" y="-448" font-family="Helvetica,sans-Serif" font-size="10.00">::Parameters::aMLLibrary</text>
<polyline fill="none" stroke="black" points="537,-441 698,-441 "/>
<text text-anchor="start" x="545" y="-429" font-family="Helvetica,sans-Serif" font-size="10.00">+ temporary_directory</text>
<text text-anchor="start" x="545" y="-418" font-family="Helvetica,sans-Serif" font-size="10.00">+ extra_packages_location</text>
<text text-anchor="start" x="545" y="-407" font-family="Helvetica,sans-Serif" font-size="10.00">+ aMLLibrary_inference</text>
<text text-anchor="start" x="545" y="-396" font-family="Helvetica,sans-Serif" font-size="10.00">_variables</text>
<text text-anchor="start" x="545" y="-385" font-family="Helvetica,sans-Serif" font-size="10.00">+ aMLLibrary_csv_features</text>
<polyline fill="none" stroke="black" points="537,-378 698,-378 "/>
<text text-anchor="middle" x="617.5" y="-366" font-family="Helvetica,sans-Serif" font-size="10.00"> </text>
</a>
</g>
</g>
<!-- Node7&#45;&gt;Node3 -->
<g id="edge6" class="edge">
<title>Node7&#45;&gt;Node3</title>
<path fill="none" stroke="#404040" d="M568.17,-358.99C551.17,-340.55 531.81,-320.09 513.5,-302 504.59,-293.2 494.84,-284.03 485.39,-275.38"/>
<polygon fill="none" stroke="#404040" points="485.35,-275.35 478.22,-274.27 476.47,-267.28 483.6,-268.35 485.35,-275.35"/>
<text text-anchor="middle" x="587.5" y="-310.5" font-family="Helvetica,sans-Serif" font-size="10.00"> +aMLLibrary_params</text>
</g>
<!-- Node8 -->
<g id="node8" class="node">
<title>Node8</title>
<g id="a_node8"><a xlink:href="structnetwork__butcher_1_1parameters_1_1Parameters_1_1Weights.html" target="_top" xlink:title="Structure used to contain all the weights related parameters.">
<polygon fill="white" stroke="black" points="716,-342.5 716,-487.5 877,-487.5 877,-342.5 716,-342.5"/>
<text text-anchor="start" x="724" y="-475.5" font-family="Helvetica,sans-Serif" font-size="10.00">network_butcher::parameters</text>
<text text-anchor="middle" x="796.5" y="-464.5" font-family="Helvetica,sans-Serif" font-size="10.00">::Parameters::Weights</text>
<polyline fill="none" stroke="black" points="716,-457.5 877,-457.5 "/>
<text text-anchor="start" x="724" y="-445.5" font-family="Helvetica,sans-Serif" font-size="10.00">+ weight_import_mode</text>
<text text-anchor="start" x="724" y="-434.5" font-family="Helvetica,sans-Serif" font-size="10.00">+ single_weight_import_path</text>
<text text-anchor="start" x="724" y="-423.5" font-family="Helvetica,sans-Serif" font-size="10.00">+ single_csv_columns</text>
<text text-anchor="start" x="724" y="-412.5" font-family="Helvetica,sans-Serif" font-size="10.00">_weights</text>
<text text-anchor="start" x="724" y="-401.5" font-family="Helvetica,sans-Serif" font-size="10.00">+ separator</text>
<text text-anchor="start" x="724" y="-390.5" font-family="Helvetica,sans-Serif" font-size="10.00">+ bandwidth</text>
<text text-anchor="start" x="724" y="-379.5" font-family="Helvetica,sans-Serif" font-size="10.00">+ in_bandwidth</text>
<text text-anchor="start" x="724" y="-368.5" font-family="Helvetica,sans-Serif" font-size="10.00">+ out_bandwidth</text>
<polyline fill="none" stroke="black" points="716,-361.5 877,-361.5 "/>
<text text-anchor="middle" x="796.5" y="-349.5" font-family="Helvetica,sans-Serif" font-size="10.00"> </text>
</a>
</g>
</g>
<!-- Node8&#45;&gt;Node3 -->
<g id="edge7" class="edge">
<title>Node8&#45;&gt;Node3</title>
<path fill="none" stroke="#404040" d="M715.78,-348.09C713,-346.02 710.24,-343.98 707.5,-342 680.94,-322.77 675.1,-316.12 645.5,-302 609.3,-284.73 567.58,-270.1 531.12,-258.89"/>
<polygon fill="none" stroke="#404040" points="530.97,-258.84 524.07,-260.93 519.48,-255.37 526.38,-253.28 530.97,-258.84"/>
<text text-anchor="middle" x="728.5" y="-310.5" font-family="Helvetica,sans-Serif" font-size="10.00"> +weights_params</text>
</g>
</g>
</svg>
        <g id="navigator" transform="translate(0 0)" fill="#404254">
                <rect fill="#f2f5e9" fill-opacity="0.5" stroke="#606060" stroke-width=".5" x="0" y="0" width="60" height="60"/>
                <use id="zoomplus" xlink:href="#zoomPlus" x="17" y="9" onmousedown="handleZoom(evt,'in')"/>
                <use id="zoomminus" xlink:href="#zoomMin" x="42" y="9" onmousedown="handleZoom(evt,'out')"/>
                <use id="reset" xlink:href="#resetDef" x="30" y="36" onmousedown="handleReset()"/>
                <g id="arrowUp" xlink:href="#dirArrow" transform="translate(30 24)" onmousedown="handlePan(0,-1)">
                  <use xlink:href="#rim" fill="#404040">
                        <set attributeName="fill" to="#808080" begin="arrowUp.mouseover" end="arrowUp.mouseout"/>
                  </use>
                  <path fill="none" stroke="white" stroke-width="1.5" d="M0,-3.0v7 M-2.5,-0.5L0,-3.0L2.5,-0.5"/>
                </g>
                <g id="arrowRight" xlink:href="#dirArrow" transform="rotate(90) translate(36 -43)" onmousedown="handlePan(1,0)">
                  <use xlink:href="#rim" fill="#404040">
                        <set attributeName="fill" to="#808080" begin="arrowRight.mouseover" end="arrowRight.mouseout"/>
                  </use>
                  <path fill="none" stroke="white" stroke-width="1.5" d="M0,-3.0v7 M-2.5,-0.5L0,-3.0L2.5,-0.5"/>
                </g>
                <g id="arrowDown" xlink:href="#dirArrow" transform="rotate(180) translate(-30 -48)" onmousedown="handlePan(0,1)">
                  <use xlink:href="#rim" fill="#404040">
                        <set attributeName="fill" to="#808080" begin="arrowDown.mouseover" end="arrowDown.mouseout"/>
                  </use>
                  <path fill="none" stroke="white" stroke-width="1.5" d="M0,-3.0v7 M-2.5,-0.5L0,-3.0L2.5,-0.5"/>
                </g>
                <g id="arrowLeft" xlink:href="#dirArrow" transform="rotate(270) translate(-36 17)" onmousedown="handlePan(-1,0)">
                  <use xlink:href="#rim" fill="#404040">
                        <set attributeName="fill" to="#808080" begin="arrowLeft.mouseover" end="arrowLeft.mouseout"/>
                  </use>
                  <path fill="none" stroke="white" stroke-width="1.5" d="M0,-3.0v7 M-2.5,-0.5L0,-3.0L2.5,-0.5"/>
                </g>
        </g>
        <svg viewBox="0 0 15 15" width="100%" height="30px" preserveAspectRatio="xMaxYMin meet">
         <g id="arrow_out" transform="scale(0.3 0.3)">
          <a xlink:href="classnetwork__butcher_1_1constraints_1_1Memory__Constraint__coll__graph_org.svg" target="_base">
           <rect id="button" ry="5" rx="5" y="6" x="6" height="38" width="38"
                fill="#f2f5e9" fill-opacity="0.5" stroke="#606060" stroke-width="1.0"/>
           <path id="arrow"
             d="M 11.500037,31.436501 C 11.940474,20.09759 22.043105,11.32322 32.158766,21.979434 L 37.068811,17.246167 C 37.068811,17.246167 37.088388,32 37.088388,32 L 22.160133,31.978069 C 22.160133,31.978069 26.997745,27.140456 26.997745,27.140456 C 18.528582,18.264221 13.291696,25.230495 11.500037,31.436501 z"
             style="fill:#404040;"/>
          </a>
         </g>
        </svg>
</svg>
