<?xml version="1.0" encoding="UTF-8" standalone="no"?>
<!DOCTYPE svg PUBLIC "-//W3C//DTD SVG 1.1//EN"
 "http://www.w3.org/Graphics/SVG/1.1/DTD/svg11.dtd">
<!-- Generated by graphviz version 2.43.0 (0)
 -->
<!-- Title: network_butcher::kfinder::KFinder_Eppstein&lt; GraphType, Only_Distance, t_Weighted_Graph_Complete_Type &gt; Pages: 1 -->
<!--zoomable 961 -->
<svg id="main" version="1.1" xmlns="http://www.w3.org/2000/svg" xmlns:xlink="http://www.w3.org/1999/xlink" xml:space="preserve" onload="init(evt)">
<style type="text/css"><![CDATA[
.edge:hover path { stroke: red; }
.edge:hover polygon { stroke: red; fill: red; }
]]></style>
<script type="text/javascript"><![CDATA[
var edges = document.getElementsByTagName('g');
if (edges && edges.length) {
  for (var i=0;i<edges.length;i++) {
    if (edges[i].id.substr(0,4)=='edge') {
      edges[i].setAttribute('class','edge');
    }
  }
}
]]></script>
        <defs>
                <circle id="rim" cx="0" cy="0" r="7"/>
                <circle id="rim2" cx="0" cy="0" r="3.5"/>
                <g id="zoomPlus">
                        <use xlink:href="#rim" fill="#404040">
                                <set attributeName="fill" to="#808080" begin="zoomplus.mouseover" end="zoomplus.mouseout"/>
                        </use>
                        <path d="M-4,0h8M0,-4v8" fill="none" stroke="white" stroke-width="1.5" pointer-events="none"/>
                </g>
                <g id="zoomMin">
                        <use xlink:href="#rim" fill="#404040">
                                <set attributeName="fill" to="#808080" begin="zoomminus.mouseover" end="zoomminus.mouseout"/>
                        </use>
                        <path d="M-4,0h8" fill="none" stroke="white" stroke-width="1.5" pointer-events="none"/>
                </g>
                <g id="dirArrow">
                        <path fill="none" stroke="white" stroke-width="1.5" d="M0,-3.0v7 M-2.5,-0.5L0,-3.0L2.5,-0.5"/>
                </g>
               <g id="resetDef">
                       <use xlink:href="#rim2" fill="#404040">
                               <set attributeName="fill" to="#808080" begin="reset.mouseover" end="reset.mouseout"/>
                       </use>
               </g>
        </defs>

<script type="text/javascript">
var viewWidth = 398;
var viewHeight = 961;
var sectionId = 'dynsection-1';
</script>
<script xlink:href="svgpan.js"/>
<svg id="graph" class="graph">
<g id="viewport">
<title>network_butcher::kfinder::KFinder_Eppstein&lt; GraphType, Only_Distance, t_Weighted_Graph_Complete_Type &gt;</title>
<polygon fill="white" stroke="transparent" points="-4,4 -4,-957 393.5,-957 393.5,4 -4,4"/>
<!-- Node1 -->
<g id="node1" class="node">
<title>Node1</title>
<g id="a_node1"><a xlink:title=" ">
<polygon fill="#bfbfbf" stroke="black" points="21,-0.5 21,-145.5 194,-145.5 194,-0.5 21,-0.5"/>
<text text-anchor="start" x="29" y="-133.5" font-family="Helvetica,sans-Serif" font-size="10.00">network_butcher::kfinder</text>
<text text-anchor="start" x="29" y="-122.5" font-family="Helvetica,sans-Serif" font-size="10.00">::KFinder_Eppstein&lt; GraphType,</text>
<text text-anchor="start" x="29" y="-111.5" font-family="Helvetica,sans-Serif" font-size="10.00"> Only_Distance, t_Weighted</text>
<text text-anchor="middle" x="107.5" y="-100.5" font-family="Helvetica,sans-Serif" font-size="10.00">_Graph_Complete_Type &gt;</text>
<polyline fill="none" stroke="black" points="21,-93.5 194,-93.5 "/>
<text text-anchor="middle" x="107.5" y="-81.5" font-family="Helvetica,sans-Serif" font-size="10.00"> </text>
<polyline fill="none" stroke="black" points="21,-74.5 194,-74.5 "/>
<text text-anchor="start" x="29" y="-62.5" font-family="Helvetica,sans-Serif" font-size="10.00">+ KFinder_Eppstein()</text>
<text text-anchor="start" x="29" y="-51.5" font-family="Helvetica,sans-Serif" font-size="10.00">+ KFinder_Eppstein()</text>
<text text-anchor="start" x="29" y="-40.5" font-family="Helvetica,sans-Serif" font-size="10.00">+ ~KFinder_Eppstein()</text>
<text text-anchor="start" x="29" y="-29.5" font-family="Helvetica,sans-Serif" font-size="10.00">&#45; construct_h_out()</text>
<text text-anchor="start" x="29" y="-18.5" font-family="Helvetica,sans-Serif" font-size="10.00">&#45; construct_h_g()</text>
<text text-anchor="start" x="29" y="-7.5" font-family="Helvetica,sans-Serif" font-size="10.00">&#45; start()</text>
</a>
</g>
</g>
<!-- Node2 -->
<g id="node2" class="node">
<title>Node2</title>
<g id="a_node2"><a xlink:href="classnetwork__butcher_1_1kfinder_1_1Basic__KEppstein.html" target="_top" xlink:title=" ">
<polygon fill="white" stroke="black" points="0,-183.5 0,-339.5 215,-339.5 215,-183.5 0,-183.5"/>
<text text-anchor="start" x="8" y="-327.5" font-family="Helvetica,sans-Serif" font-size="10.00">network_butcher::kfinder</text>
<text text-anchor="start" x="8" y="-316.5" font-family="Helvetica,sans-Serif" font-size="10.00">::Basic_KEppstein&lt; GraphType,</text>
<text text-anchor="middle" x="107.5" y="-305.5" font-family="Helvetica,sans-Serif" font-size="10.00"> false, Weighted_Graph&lt; GraphType &gt; &gt;</text>
<polyline fill="none" stroke="black" points="0,-298.5 215,-298.5 "/>
<text text-anchor="middle" x="107.5" y="-286.5" font-family="Helvetica,sans-Serif" font-size="10.00"> </text>
<polyline fill="none" stroke="black" points="0,-279.5 215,-279.5 "/>
<text text-anchor="start" x="8" y="-267.5" font-family="Helvetica,sans-Serif" font-size="10.00">+ compute()</text>
<text text-anchor="start" x="8" y="-256.5" font-family="Helvetica,sans-Serif" font-size="10.00">+ Basic_KEppstein()</text>
<text text-anchor="start" x="8" y="-245.5" font-family="Helvetica,sans-Serif" font-size="10.00">+ Basic_KEppstein()</text>
<text text-anchor="start" x="8" y="-234.5" font-family="Helvetica,sans-Serif" font-size="10.00">+ ~Basic_KEppstein()</text>
<text text-anchor="start" x="8" y="-223.5" font-family="Helvetica,sans-Serif" font-size="10.00"># sidetrack_distances()</text>
<text text-anchor="start" x="8" y="-212.5" font-family="Helvetica,sans-Serif" font-size="10.00"># helper_eppstein()</text>
<text text-anchor="start" x="8" y="-201.5" font-family="Helvetica,sans-Serif" font-size="10.00"># start()</text>
<text text-anchor="start" x="8" y="-190.5" font-family="Helvetica,sans-Serif" font-size="10.00"># general_algo_eppstein()</text>
</a>
</g>
</g>
<!-- Node2&#45;&gt;Node1 -->
<g id="edge1" class="edge">
<title>Node2&#45;&gt;Node1</title>
<path fill="none" stroke="midnightblue" d="M107.5,-173.03C107.5,-163.9 107.5,-154.69 107.5,-145.76"/>
<polygon fill="none" stroke="midnightblue" points="104,-173.3 107.5,-183.3 111,-173.3 104,-173.3"/>
</g>
<!-- Node3 -->
<g id="node3" class="node">
<title>Node3</title>
<g id="a_node3"><a xlink:href="classnetwork__butcher_1_1kfinder_1_1KFinder.html" target="_top" xlink:title=" ">
<polygon fill="white" stroke="black" points="27.5,-807.5 27.5,-952.5 187.5,-952.5 187.5,-807.5 27.5,-807.5"/>
<text text-anchor="start" x="35.5" y="-940.5" font-family="Helvetica,sans-Serif" font-size="10.00">network_butcher::kfinder</text>
<text text-anchor="start" x="35.5" y="-929.5" font-family="Helvetica,sans-Serif" font-size="10.00">::KFinder&lt; GraphType, Only</text>
<text text-anchor="start" x="35.5" y="-918.5" font-family="Helvetica,sans-Serif" font-size="10.00">_Distance, t_Weighted_Graph</text>
<text text-anchor="middle" x="107.5" y="-907.5" font-family="Helvetica,sans-Serif" font-size="10.00">_Complete_Type &gt;</text>
<polyline fill="none" stroke="black" points="27.5,-900.5 187.5,-900.5 "/>
<text text-anchor="start" x="35.5" y="-888.5" font-family="Helvetica,sans-Serif" font-size="10.00"># graph</text>
<text text-anchor="start" x="35.5" y="-877.5" font-family="Helvetica,sans-Serif" font-size="10.00"># root</text>
<text text-anchor="start" x="35.5" y="-866.5" font-family="Helvetica,sans-Serif" font-size="10.00"># sink</text>
<polyline fill="none" stroke="black" points="27.5,-859.5 187.5,-859.5 "/>
<text text-anchor="start" x="35.5" y="-847.5" font-family="Helvetica,sans-Serif" font-size="10.00">+ compute()</text>
<text text-anchor="start" x="35.5" y="-836.5" font-family="Helvetica,sans-Serif" font-size="10.00">+ KFinder()</text>
<text text-anchor="start" x="35.5" y="-825.5" font-family="Helvetica,sans-Serif" font-size="10.00">+ KFinder()</text>
<text text-anchor="start" x="35.5" y="-814.5" font-family="Helvetica,sans-Serif" font-size="10.00">+ ~KFinder()</text>
</a>
</g>
</g>
<!-- Node3&#45;&gt;Node2 -->
<g id="edge2" class="edge">
<title>Node3&#45;&gt;Node2</title>
<path fill="none" stroke="midnightblue" d="M107.5,-797.19C107.5,-677.65 107.5,-456.8 107.5,-339.85"/>
<polygon fill="none" stroke="midnightblue" points="104,-797.38 107.5,-807.38 111,-797.38 104,-797.38"/>
</g>
<!-- Node3&#45;&gt;Node3 -->
<g id="edge3" class="edge">
<title>Node3&#45;&gt;Node3</title>
<path fill="none" stroke="orange" d="M197.39,-892.93C202.47,-889.8 205.5,-885.49 205.5,-880 205.5,-871.63 198.47,-866.01 187.86,-863.13"/>
<polygon fill="orange" stroke="orange" points="195.76,-889.81 187.86,-896.87 198.44,-896.28 195.76,-889.81"/>
<text text-anchor="start" x="205.5" y="-883" font-family="Helvetica,sans-Serif" font-size="10.00"> &lt; GraphType, Only_Distance,</text>
<text text-anchor="middle" x="297.5" y="-872" font-family="Helvetica,sans-Serif" font-size="10.00"> t_Weighted_Graph_Complete_Type &gt;</text>
</g>
<!-- Node5 -->
<g id="node5" class="node">
<title>Node5</title>
<g id="a_node5"><a xlink:href="classnetwork__butcher_1_1kfinder_1_1KFinder.html" target="_top" xlink:title=" ">
<polygon fill="white" stroke="black" points="124,-603.5 124,-748.5 275,-748.5 275,-603.5 124,-603.5"/>
<text text-anchor="start" x="132" y="-736.5" font-family="Helvetica,sans-Serif" font-size="10.00">network_butcher::kfinder</text>
<text text-anchor="start" x="132" y="-725.5" font-family="Helvetica,sans-Serif" font-size="10.00">::KFinder&lt; GraphType, Only</text>
<text text-anchor="start" x="132" y="-714.5" font-family="Helvetica,sans-Serif" font-size="10.00">_Distance, Weighted_Graph</text>
<text text-anchor="middle" x="199.5" y="-703.5" font-family="Helvetica,sans-Serif" font-size="10.00">&lt; GraphType &gt; &gt;</text>
<polyline fill="none" stroke="black" points="124,-696.5 275,-696.5 "/>
<text text-anchor="start" x="132" y="-684.5" font-family="Helvetica,sans-Serif" font-size="10.00"># graph</text>
<text text-anchor="start" x="132" y="-673.5" font-family="Helvetica,sans-Serif" font-size="10.00"># root</text>
<text text-anchor="start" x="132" y="-662.5" font-family="Helvetica,sans-Serif" font-size="10.00"># sink</text>
<polyline fill="none" stroke="black" points="124,-655.5 275,-655.5 "/>
<text text-anchor="start" x="132" y="-643.5" font-family="Helvetica,sans-Serif" font-size="10.00">+ compute()</text>
<text text-anchor="start" x="132" y="-632.5" font-family="Helvetica,sans-Serif" font-size="10.00">+ KFinder()</text>
<text text-anchor="start" x="132" y="-621.5" font-family="Helvetica,sans-Serif" font-size="10.00">+ KFinder()</text>
<text text-anchor="start" x="132" y="-610.5" font-family="Helvetica,sans-Serif" font-size="10.00">+ ~KFinder()</text>
</a>
</g>
</g>
<!-- Node3&#45;&gt;Node5 -->
<g id="edge6" class="edge">
<title>Node3&#45;&gt;Node5</title>
<path fill="none" stroke="orange" d="M144.39,-798C151.81,-781.71 159.56,-764.7 166.82,-748.75"/>
<polygon fill="orange" stroke="orange" points="141.02,-796.95 140.07,-807.5 147.4,-799.85 141.02,-796.95"/>
<text text-anchor="start" x="155.5" y="-781" font-family="Helvetica,sans-Serif" font-size="10.00"> &lt; GraphType, Only_Distance,</text>
<text text-anchor="middle" x="240" y="-770" font-family="Helvetica,sans-Serif" font-size="10.00"> Weighted_Graph&lt; GraphType &gt; &gt;</text>
</g>
<!-- Node4 -->
<g id="node4" class="node">
<title>Node4</title>
<g id="a_node4"><a xlink:href="classnetwork__butcher_1_1kfinder_1_1Basic__KEppstein.html" target="_top" xlink:title=" ">
<polygon fill="white" stroke="black" points="119,-398.5 119,-565.5 288,-565.5 288,-398.5 119,-398.5"/>
<text text-anchor="start" x="127" y="-553.5" font-family="Helvetica,sans-Serif" font-size="10.00">network_butcher::kfinder</text>
<text text-anchor="start" x="127" y="-542.5" font-family="Helvetica,sans-Serif" font-size="10.00">::Basic_KEppstein&lt; GraphType,</text>
<text text-anchor="start" x="127" y="-531.5" font-family="Helvetica,sans-Serif" font-size="10.00"> Only_Distance, t_Weighted</text>
<text text-anchor="middle" x="203.5" y="-520.5" font-family="Helvetica,sans-Serif" font-size="10.00">_Graph_Complete_Type &gt;</text>
<polyline fill="none" stroke="black" points="119,-513.5 288,-513.5 "/>
<text text-anchor="middle" x="203.5" y="-501.5" font-family="Helvetica,sans-Serif" font-size="10.00"> </text>
<polyline fill="none" stroke="black" points="119,-494.5 288,-494.5 "/>
<text text-anchor="start" x="127" y="-482.5" font-family="Helvetica,sans-Serif" font-size="10.00">+ compute()</text>
<text text-anchor="start" x="127" y="-471.5" font-family="Helvetica,sans-Serif" font-size="10.00">+ Basic_KEppstein()</text>
<text text-anchor="start" x="127" y="-460.5" font-family="Helvetica,sans-Serif" font-size="10.00">+ Basic_KEppstein()</text>
<text text-anchor="start" x="127" y="-449.5" font-family="Helvetica,sans-Serif" font-size="10.00">+ ~Basic_KEppstein()</text>
<text text-anchor="start" x="127" y="-438.5" font-family="Helvetica,sans-Serif" font-size="10.00"># sidetrack_distances()</text>
<text text-anchor="start" x="127" y="-427.5" font-family="Helvetica,sans-Serif" font-size="10.00"># helper_eppstein()</text>
<text text-anchor="start" x="127" y="-416.5" font-family="Helvetica,sans-Serif" font-size="10.00"># start()</text>
<text text-anchor="start" x="127" y="-405.5" font-family="Helvetica,sans-Serif" font-size="10.00"># general_algo_eppstein()</text>
</a>
</g>
</g>
<!-- Node4&#45;&gt;Node2 -->
<g id="edge4" class="edge">
<title>Node4&#45;&gt;Node2</title>
<path fill="none" stroke="orange" d="M163.01,-388.85C155.84,-372.53 148.44,-355.68 141.47,-339.82"/>
<polygon fill="orange" stroke="orange" points="159.98,-390.65 167.21,-398.39 166.39,-387.83 159.98,-390.65"/>
<text text-anchor="start" x="157.5" y="-372" font-family="Helvetica,sans-Serif" font-size="10.00"> &lt; GraphType, false,</text>
<text text-anchor="middle" x="242" y="-361" font-family="Helvetica,sans-Serif" font-size="10.00"> Weighted_Graph&lt; GraphType &gt; &gt;</text>
</g>
<!-- Node5&#45;&gt;Node4 -->
<g id="edge5" class="edge">
<title>Node5&#45;&gt;Node4</title>
<path fill="none" stroke="midnightblue" d="M201.21,-593.08C201.4,-584 201.59,-574.75 201.78,-565.67"/>
<polygon fill="none" stroke="midnightblue" points="197.7,-593.16 201,-603.23 204.7,-593.31 197.7,-593.16"/>
</g>
</g>
</svg>
        <g id="navigator" transform="translate(0 0)" fill="#404254">
                <rect fill="#f2f5e9" fill-opacity="0.5" stroke="#606060" stroke-width=".5" x="0" y="0" width="60" height="60"/>
                <use id="zoomplus" xlink:href="#zoomPlus" x="17" y="9" onmousedown="handleZoom(evt,'in')"/>
                <use id="zoomminus" xlink:href="#zoomMin" x="42" y="9" onmousedown="handleZoom(evt,'out')"/>
                <use id="reset" xlink:href="#resetDef" x="30" y="36" onmousedown="handleReset()"/>
                <g id="arrowUp" xlink:href="#dirArrow" transform="translate(30 24)" onmousedown="handlePan(0,-1)">
                  <use xlink:href="#rim" fill="#404040">
                        <set attributeName="fill" to="#808080" begin="arrowUp.mouseover" end="arrowUp.mouseout"/>
                  </use>
                  <path fill="none" stroke="white" stroke-width="1.5" d="M0,-3.0v7 M-2.5,-0.5L0,-3.0L2.5,-0.5"/>
                </g>
                <g id="arrowRight" xlink:href="#dirArrow" transform="rotate(90) translate(36 -43)" onmousedown="handlePan(1,0)">
                  <use xlink:href="#rim" fill="#404040">
                        <set attributeName="fill" to="#808080" begin="arrowRight.mouseover" end="arrowRight.mouseout"/>
                  </use>
                  <path fill="none" stroke="white" stroke-width="1.5" d="M0,-3.0v7 M-2.5,-0.5L0,-3.0L2.5,-0.5"/>
                </g>
                <g id="arrowDown" xlink:href="#dirArrow" transform="rotate(180) translate(-30 -48)" onmousedown="handlePan(0,1)">
                  <use xlink:href="#rim" fill="#404040">
                        <set attributeName="fill" to="#808080" begin="arrowDown.mouseover" end="arrowDown.mouseout"/>
                  </use>
                  <path fill="none" stroke="white" stroke-width="1.5" d="M0,-3.0v7 M-2.5,-0.5L0,-3.0L2.5,-0.5"/>
                </g>
                <g id="arrowLeft" xlink:href="#dirArrow" transform="rotate(270) translate(-36 17)" onmousedown="handlePan(-1,0)">
                  <use xlink:href="#rim" fill="#404040">
                        <set attributeName="fill" to="#808080" begin="arrowLeft.mouseover" end="arrowLeft.mouseout"/>
                  </use>
                  <path fill="none" stroke="white" stroke-width="1.5" d="M0,-3.0v7 M-2.5,-0.5L0,-3.0L2.5,-0.5"/>
                </g>
        </g>
        <svg viewBox="0 0 15 15" width="100%" height="30px" preserveAspectRatio="xMaxYMin meet">
         <g id="arrow_out" transform="scale(0.3 0.3)">
          <a xlink:href="classnetwork__butcher_1_1kfinder_1_1KFinder__Eppstein__coll__graph_org.svg" target="_base">
           <rect id="button" ry="5" rx="5" y="6" x="6" height="38" width="38"
                fill="#f2f5e9" fill-opacity="0.5" stroke="#606060" stroke-width="1.0"/>
           <path id="arrow"
             d="M 11.500037,31.436501 C 11.940474,20.09759 22.043105,11.32322 32.158766,21.979434 L 37.068811,17.246167 C 37.068811,17.246167 37.088388,32 37.088388,32 L 22.160133,31.978069 C 22.160133,31.978069 26.997745,27.140456 26.997745,27.140456 C 18.528582,18.264221 13.291696,25.230495 11.500037,31.436501 z"
             style="fill:#404040;"/>
          </a>
         </g>
        </svg>
</svg>
