<?xml version="1.0" encoding="UTF-8" standalone="no"?>
<!DOCTYPE svg PUBLIC "-//W3C//DTD SVG 1.1//EN"
 "http://www.w3.org/Graphics/SVG/1.1/DTD/svg11.dtd">
<!-- Generated by graphviz version 2.43.0 (0)
 -->
<!-- Title: network_butcher::kfinder::Crtp_Greater&lt; T &gt; Pages: 1 -->
<!--zoomable 398 -->
<svg id="main" version="1.1" xmlns="http://www.w3.org/2000/svg" xmlns:xlink="http://www.w3.org/1999/xlink" xml:space="preserve" onload="init(evt)">
<style type="text/css"><![CDATA[
.edge:hover path { stroke: red; }
.edge:hover polygon { stroke: red; fill: red; }
]]></style>
<script type="text/javascript"><![CDATA[
var edges = document.getElementsByTagName('g');
if (edges && edges.length) {
  for (var i=0;i<edges.length;i++) {
    if (edges[i].id.substr(0,4)=='edge') {
      edges[i].setAttribute('class','edge');
    }
  }
}
]]></script>
        <defs>
                <circle id="rim" cx="0" cy="0" r="7"/>
                <circle id="rim2" cx="0" cy="0" r="3.5"/>
                <g id="zoomPlus">
                        <use xlink:href="#rim" fill="#404040">
                                <set attributeName="fill" to="#808080" begin="zoomplus.mouseover" end="zoomplus.mouseout"/>
                        </use>
                        <path d="M-4,0h8M0,-4v8" fill="none" stroke="white" stroke-width="1.5" pointer-events="none"/>
                </g>
                <g id="zoomMin">
                        <use xlink:href="#rim" fill="#404040">
                                <set attributeName="fill" to="#808080" begin="zoomminus.mouseover" end="zoomminus.mouseout"/>
                        </use>
                        <path d="M-4,0h8" fill="none" stroke="white" stroke-width="1.5" pointer-events="none"/>
                </g>
                <g id="dirArrow">
                        <path fill="none" stroke="white" stroke-width="1.5" d="M0,-3.0v7 M-2.5,-0.5L0,-3.0L2.5,-0.5"/>
                </g>
               <g id="resetDef">
                       <use xlink:href="#rim2" fill="#404040">
                               <set attributeName="fill" to="#808080" begin="reset.mouseover" end="reset.mouseout"/>
                       </use>
               </g>
        </defs>

<script type="text/javascript">
var viewWidth = 675;
var viewHeight = 398;
var sectionId = 'dynsection-0';
</script>
<script xlink:href="svgpan.js"/>
<svg id="graph" class="graph">
<g id="viewport">
<title>network_butcher::kfinder::Crtp_Greater&lt; T &gt;</title>
<polygon fill="white" stroke="transparent" points="-4,4 -4,-394 670.5,-394 670.5,4 -4,4"/>
<!-- Node1 -->
<g id="node1" class="node">
<title>Node1</title>
<g id="a_node1"><a xlink:title=" ">
<polygon fill="#bfbfbf" stroke="black" points="257,-321.5 257,-389.5 395,-389.5 395,-321.5 257,-321.5"/>
<text text-anchor="start" x="265" y="-377.5" font-family="Helvetica,sans-Serif" font-size="10.00">network_butcher::kfinder</text>
<text text-anchor="middle" x="326" y="-366.5" font-family="Helvetica,sans-Serif" font-size="10.00">::Crtp_Greater&lt; T &gt;</text>
<polyline fill="none" stroke="black" points="257,-359.5 395,-359.5 "/>
<text text-anchor="middle" x="326" y="-347.5" font-family="Helvetica,sans-Serif" font-size="10.00"> </text>
<polyline fill="none" stroke="black" points="257,-340.5 395,-340.5 "/>
<text text-anchor="start" x="265" y="-328.5" font-family="Helvetica,sans-Serif" font-size="10.00">+ operator&gt;()</text>
</a>
</g>
</g>
<!-- Node2 -->
<g id="node2" class="node">
<title>Node2</title>
<g id="a_node2"><a xlink:href="classnetwork__butcher_1_1kfinder_1_1Crtp__Greater.html" target="_top" xlink:title=" ">
<polygon fill="white" stroke="black" points="0,-183.5 0,-262.5 156,-262.5 156,-183.5 0,-183.5"/>
<text text-anchor="start" x="8" y="-250.5" font-family="Helvetica,sans-Serif" font-size="10.00">network_butcher::kfinder</text>
<text text-anchor="start" x="8" y="-239.5" font-family="Helvetica,sans-Serif" font-size="10.00">::Crtp_Greater&lt; Templated</text>
<text text-anchor="middle" x="78" y="-228.5" font-family="Helvetica,sans-Serif" font-size="10.00">_Edge_Info&lt; Time_Type &gt; &gt;</text>
<polyline fill="none" stroke="black" points="0,-221.5 156,-221.5 "/>
<text text-anchor="middle" x="78" y="-209.5" font-family="Helvetica,sans-Serif" font-size="10.00"> </text>
<polyline fill="none" stroke="black" points="0,-202.5 156,-202.5 "/>
<text text-anchor="start" x="8" y="-190.5" font-family="Helvetica,sans-Serif" font-size="10.00">+ operator&gt;()</text>
</a>
</g>
</g>
<!-- Node1&#45;&gt;Node2 -->
<g id="edge1" class="edge">
<title>Node1&#45;&gt;Node2</title>
<path fill="none" stroke="orange" d="M246.81,-344.62C211.25,-337.33 170.16,-324.74 138,-303 122.73,-292.68 109.74,-277.19 99.8,-262.65"/>
<polygon fill="orange" stroke="orange" points="246.2,-348.06 256.68,-346.54 247.53,-341.19 246.2,-348.06"/>
<text text-anchor="start" x="138" y="-295" font-family="Helvetica,sans-Serif" font-size="10.00"> &lt; Templated_Edge_Info</text>
<text text-anchor="middle" x="197.5" y="-284" font-family="Helvetica,sans-Serif" font-size="10.00">&lt; Time_Type &gt; &gt;</text>
</g>
<!-- Node4 -->
<g id="node4" class="node">
<title>Node4</title>
<g id="a_node4"><a xlink:href="classnetwork__butcher_1_1kfinder_1_1Crtp__Greater.html" target="_top" xlink:title=" ">
<polygon fill="white" stroke="black" points="174.5,-183.5 174.5,-262.5 327.5,-262.5 327.5,-183.5 174.5,-183.5"/>
<text text-anchor="start" x="182.5" y="-250.5" font-family="Helvetica,sans-Serif" font-size="10.00">network_butcher::kfinder</text>
<text text-anchor="start" x="182.5" y="-239.5" font-family="Helvetica,sans-Serif" font-size="10.00">::Crtp_Greater&lt; Templated</text>
<text text-anchor="middle" x="251" y="-228.5" font-family="Helvetica,sans-Serif" font-size="10.00">_Path_Info&lt; Time_Type &gt; &gt;</text>
<polyline fill="none" stroke="black" points="174.5,-221.5 327.5,-221.5 "/>
<text text-anchor="middle" x="251" y="-209.5" font-family="Helvetica,sans-Serif" font-size="10.00"> </text>
<polyline fill="none" stroke="black" points="174.5,-202.5 327.5,-202.5 "/>
<text text-anchor="start" x="182.5" y="-190.5" font-family="Helvetica,sans-Serif" font-size="10.00">+ operator&gt;()</text>
</a>
</g>
</g>
<!-- Node1&#45;&gt;Node4 -->
<g id="edge3" class="edge">
<title>Node1&#45;&gt;Node4</title>
<path fill="none" stroke="orange" d="M277.34,-313.6C274.63,-310.19 272.15,-306.65 270,-303 262.85,-290.84 258.39,-276.13 255.6,-262.71"/>
<polygon fill="orange" stroke="orange" points="274.81,-316.03 284.01,-321.29 280.1,-311.44 274.81,-316.03"/>
<text text-anchor="start" x="270" y="-295" font-family="Helvetica,sans-Serif" font-size="10.00"> &lt; Templated_Path_Info</text>
<text text-anchor="middle" x="328" y="-284" font-family="Helvetica,sans-Serif" font-size="10.00">&lt; Time_Type &gt; &gt;</text>
</g>
<!-- Node6 -->
<g id="node6" class="node">
<title>Node6</title>
<g id="a_node6"><a xlink:href="classnetwork__butcher_1_1kfinder_1_1Crtp__Greater.html" target="_top" xlink:title=" ">
<polygon fill="white" stroke="black" points="346,-183.5 346,-262.5 484,-262.5 484,-183.5 346,-183.5"/>
<text text-anchor="start" x="354" y="-250.5" font-family="Helvetica,sans-Serif" font-size="10.00">network_butcher::kfinder</text>
<text text-anchor="start" x="354" y="-239.5" font-family="Helvetica,sans-Serif" font-size="10.00">::Crtp_Greater&lt; Implicit</text>
<text text-anchor="middle" x="415" y="-228.5" font-family="Helvetica,sans-Serif" font-size="10.00">_Path_Info &gt;</text>
<polyline fill="none" stroke="black" points="346,-221.5 484,-221.5 "/>
<text text-anchor="middle" x="415" y="-209.5" font-family="Helvetica,sans-Serif" font-size="10.00"> </text>
<polyline fill="none" stroke="black" points="346,-202.5 484,-202.5 "/>
<text text-anchor="start" x="354" y="-190.5" font-family="Helvetica,sans-Serif" font-size="10.00">+ operator&gt;()</text>
</a>
</g>
</g>
<!-- Node1&#45;&gt;Node6 -->
<g id="edge5" class="edge">
<title>Node1&#45;&gt;Node6</title>
<path fill="none" stroke="orange" d="M376.98,-314.27C380.25,-310.65 383.3,-306.88 386,-303 394.33,-291 400.58,-276.32 405.1,-262.88"/>
<polygon fill="orange" stroke="orange" points="374.45,-311.85 370.01,-321.47 379.48,-316.72 374.45,-311.85"/>
<text text-anchor="middle" x="454.5" y="-289.5" font-family="Helvetica,sans-Serif" font-size="10.00"> &lt; Implicit_Path_Info &gt;</text>
</g>
<!-- Node8 -->
<g id="node8" class="node">
<title>Node8</title>
<g id="a_node8"><a xlink:href="classnetwork__butcher_1_1kfinder_1_1Crtp__Greater.html" target="_top" xlink:title=" ">
<polygon fill="white" stroke="black" points="515,-183.5 515,-262.5 655,-262.5 655,-183.5 515,-183.5"/>
<text text-anchor="start" x="523" y="-250.5" font-family="Helvetica,sans-Serif" font-size="10.00">network_butcher::kfinder</text>
<text text-anchor="start" x="523" y="-239.5" font-family="Helvetica,sans-Serif" font-size="10.00">::Crtp_Greater&lt; Dijkstra</text>
<text text-anchor="middle" x="585" y="-228.5" font-family="Helvetica,sans-Serif" font-size="10.00">_Helper&lt; Time_Type &gt; &gt;</text>
<polyline fill="none" stroke="black" points="515,-221.5 655,-221.5 "/>
<text text-anchor="middle" x="585" y="-209.5" font-family="Helvetica,sans-Serif" font-size="10.00"> </text>
<polyline fill="none" stroke="black" points="515,-202.5 655,-202.5 "/>
<text text-anchor="start" x="523" y="-190.5" font-family="Helvetica,sans-Serif" font-size="10.00">+ operator&gt;()</text>
</a>
</g>
</g>
<!-- Node1&#45;&gt;Node8 -->
<g id="edge7" class="edge">
<title>Node1&#45;&gt;Node8</title>
<path fill="none" stroke="orange" d="M404.88,-343.57C440.47,-336.06 481.86,-323.59 515,-303 531.66,-292.65 546.62,-277.15 558.39,-262.62"/>
<polygon fill="orange" stroke="orange" points="404.12,-340.15 395,-345.55 405.5,-347.01 404.12,-340.15"/>
<text text-anchor="start" x="542" y="-295" font-family="Helvetica,sans-Serif" font-size="10.00"> &lt; Dijkstra_Helper&lt;</text>
<text text-anchor="middle" x="591.5" y="-284" font-family="Helvetica,sans-Serif" font-size="10.00"> Time_Type &gt; &gt;</text>
</g>
<!-- Node3 -->
<g id="node3" class="node">
<title>Node3</title>
<g id="a_node3"><a xlink:href="structnetwork__butcher_1_1kfinder_1_1Templated__Edge__Info.html" target="_top" xlink:title=" ">
<polygon fill="white" stroke="black" points="8,-22.5 8,-123.5 148,-123.5 148,-22.5 8,-22.5"/>
<text text-anchor="start" x="16" y="-111.5" font-family="Helvetica,sans-Serif" font-size="10.00">network_butcher::kfinder</text>
<text text-anchor="start" x="16" y="-100.5" font-family="Helvetica,sans-Serif" font-size="10.00">::Templated_Edge_Info&lt;</text>
<text text-anchor="middle" x="78" y="-89.5" font-family="Helvetica,sans-Serif" font-size="10.00"> Weight_Type &gt;</text>
<polyline fill="none" stroke="black" points="8,-82.5 148,-82.5 "/>
<text text-anchor="start" x="16" y="-70.5" font-family="Helvetica,sans-Serif" font-size="10.00">+ edge</text>
<text text-anchor="start" x="16" y="-59.5" font-family="Helvetica,sans-Serif" font-size="10.00">+ delta_weight</text>
<polyline fill="none" stroke="black" points="8,-52.5 148,-52.5 "/>
<text text-anchor="start" x="16" y="-40.5" font-family="Helvetica,sans-Serif" font-size="10.00">+ Templated_Edge_Info()</text>
<text text-anchor="start" x="16" y="-29.5" font-family="Helvetica,sans-Serif" font-size="10.00">+ operator&lt;()</text>
</a>
</g>
</g>
<!-- Node2&#45;&gt;Node3 -->
<g id="edge2" class="edge">
<title>Node2&#45;&gt;Node3</title>
<path fill="none" stroke="midnightblue" d="M78,-172.96C78,-157.07 78,-139.44 78,-123.51"/>
<polygon fill="none" stroke="midnightblue" points="74.5,-173.11 78,-183.11 81.5,-173.11 74.5,-173.11"/>
</g>
<!-- Node5 -->
<g id="node5" class="node">
<title>Node5</title>
<g id="a_node5"><a xlink:href="structnetwork__butcher_1_1kfinder_1_1Templated__Path__Info.html" target="_top" xlink:title="Simple struct to represent an explicit path.">
<polygon fill="white" stroke="black" points="166,-28 166,-118 304,-118 304,-28 166,-28"/>
<text text-anchor="start" x="174" y="-106" font-family="Helvetica,sans-Serif" font-size="10.00">network_butcher::kfinder</text>
<text text-anchor="start" x="174" y="-95" font-family="Helvetica,sans-Serif" font-size="10.00">::Templated_Path_Info&lt;</text>
<text text-anchor="middle" x="235" y="-84" font-family="Helvetica,sans-Serif" font-size="10.00"> Weight_Type &gt;</text>
<polyline fill="none" stroke="black" points="166,-77 304,-77 "/>
<text text-anchor="start" x="174" y="-65" font-family="Helvetica,sans-Serif" font-size="10.00">+ length</text>
<text text-anchor="start" x="174" y="-54" font-family="Helvetica,sans-Serif" font-size="10.00">+ path</text>
<polyline fill="none" stroke="black" points="166,-47 304,-47 "/>
<text text-anchor="start" x="174" y="-35" font-family="Helvetica,sans-Serif" font-size="10.00">+ operator&lt;()</text>
</a>
</g>
</g>
<!-- Node4&#45;&gt;Node5 -->
<g id="edge4" class="edge">
<title>Node4&#45;&gt;Node5</title>
<path fill="none" stroke="midnightblue" d="M245.7,-172.97C243.78,-155.26 241.64,-135.38 239.77,-118.11"/>
<polygon fill="none" stroke="midnightblue" points="242.24,-173.55 246.8,-183.11 249.2,-172.8 242.24,-173.55"/>
</g>
<!-- Node7 -->
<g id="node7" class="node">
<title>Node7</title>
<g id="a_node7"><a xlink:href="structnetwork__butcher_1_1kfinder_1_1Basic__KEppstein_1_1Implicit__Path__Info.html" target="_top" xlink:title="Simple struct to represent an implicit path.">
<polygon fill="white" stroke="black" points="322.5,-0.5 322.5,-145.5 507.5,-145.5 507.5,-0.5 322.5,-0.5"/>
<text text-anchor="start" x="330.5" y="-133.5" font-family="Helvetica,sans-Serif" font-size="10.00">network_butcher::kfinder</text>
<text text-anchor="start" x="330.5" y="-122.5" font-family="Helvetica,sans-Serif" font-size="10.00">::Basic_KEppstein&lt; GraphType,</text>
<text text-anchor="start" x="330.5" y="-111.5" font-family="Helvetica,sans-Serif" font-size="10.00"> Only_Distance, t_Weighted</text>
<text text-anchor="start" x="330.5" y="-100.5" font-family="Helvetica,sans-Serif" font-size="10.00">_Graph_Complete_Type &gt;::Implicit</text>
<text text-anchor="middle" x="415" y="-89.5" font-family="Helvetica,sans-Serif" font-size="10.00">_Path_Info</text>
<polyline fill="none" stroke="black" points="322.5,-82.5 507.5,-82.5 "/>
<text text-anchor="start" x="330.5" y="-70.5" font-family="Helvetica,sans-Serif" font-size="10.00">+ current_sidetrack</text>
<text text-anchor="start" x="330.5" y="-59.5" font-family="Helvetica,sans-Serif" font-size="10.00">+ previous_sidetracks</text>
<text text-anchor="start" x="330.5" y="-48.5" font-family="Helvetica,sans-Serif" font-size="10.00">+ length</text>
<polyline fill="none" stroke="black" points="322.5,-41.5 507.5,-41.5 "/>
<text text-anchor="start" x="330.5" y="-29.5" font-family="Helvetica,sans-Serif" font-size="10.00">+ operator&lt;()</text>
<text text-anchor="start" x="330.5" y="-18.5" font-family="Helvetica,sans-Serif" font-size="10.00">+ compute_sidetracks()</text>
<text text-anchor="start" x="330.5" y="-7.5" font-family="Helvetica,sans-Serif" font-size="10.00">+ compute_sidetracks()</text>
</a>
</g>
</g>
<!-- Node6&#45;&gt;Node7 -->
<g id="edge6" class="edge">
<title>Node6&#45;&gt;Node7</title>
<path fill="none" stroke="midnightblue" d="M415,-173.04C415,-164.22 415,-154.86 415,-145.55"/>
<polygon fill="none" stroke="midnightblue" points="411.5,-173.11 415,-183.11 418.5,-173.11 411.5,-173.11"/>
</g>
<!-- Node9 -->
<g id="node9" class="node">
<title>Node9</title>
<g id="a_node9"><a xlink:href="structnetwork__butcher_1_1kfinder_1_1Shortest__path__finder_1_1utilities_1_1Dijkstra__Helper.html" target="_top" xlink:title=" ">
<polygon fill="white" stroke="black" points="525.5,-17 525.5,-129 666.5,-129 666.5,-17 525.5,-17"/>
<text text-anchor="start" x="533.5" y="-117" font-family="Helvetica,sans-Serif" font-size="10.00">network_butcher::kfinder</text>
<text text-anchor="start" x="533.5" y="-106" font-family="Helvetica,sans-Serif" font-size="10.00">::Shortest_path_finder</text>
<text text-anchor="start" x="533.5" y="-95" font-family="Helvetica,sans-Serif" font-size="10.00">::utilities::Dijkstra_Helper</text>
<text text-anchor="middle" x="596" y="-84" font-family="Helvetica,sans-Serif" font-size="10.00">&lt; Weight_Type &gt;</text>
<polyline fill="none" stroke="black" points="525.5,-77 666.5,-77 "/>
<text text-anchor="start" x="533.5" y="-65" font-family="Helvetica,sans-Serif" font-size="10.00">+ weight</text>
<text text-anchor="start" x="533.5" y="-54" font-family="Helvetica,sans-Serif" font-size="10.00">+ id</text>
<polyline fill="none" stroke="black" points="525.5,-47 666.5,-47 "/>
<text text-anchor="start" x="533.5" y="-35" font-family="Helvetica,sans-Serif" font-size="10.00">+ Dijkstra_Helper()</text>
<text text-anchor="start" x="533.5" y="-24" font-family="Helvetica,sans-Serif" font-size="10.00">+ operator&lt;()</text>
</a>
</g>
</g>
<!-- Node8&#45;&gt;Node9 -->
<g id="edge8" class="edge">
<title>Node8&#45;&gt;Node9</title>
<path fill="none" stroke="midnightblue" d="M588.63,-173.12C589.68,-159 590.83,-143.5 591.91,-129.04"/>
<polygon fill="none" stroke="midnightblue" points="585.14,-172.88 587.89,-183.11 592.12,-173.4 585.14,-172.88"/>
</g>
</g>
</svg>
        <g id="navigator" transform="translate(0 0)" fill="#404254">
                <rect fill="#f2f5e9" fill-opacity="0.5" stroke="#606060" stroke-width=".5" x="0" y="0" width="60" height="60"/>
                <use id="zoomplus" xlink:href="#zoomPlus" x="17" y="9" onmousedown="handleZoom(evt,'in')"/>
                <use id="zoomminus" xlink:href="#zoomMin" x="42" y="9" onmousedown="handleZoom(evt,'out')"/>
                <use id="reset" xlink:href="#resetDef" x="30" y="36" onmousedown="handleReset()"/>
                <g id="arrowUp" xlink:href="#dirArrow" transform="translate(30 24)" onmousedown="handlePan(0,-1)">
                  <use xlink:href="#rim" fill="#404040">
                        <set attributeName="fill" to="#808080" begin="arrowUp.mouseover" end="arrowUp.mouseout"/>
                  </use>
                  <path fill="none" stroke="white" stroke-width="1.5" d="M0,-3.0v7 M-2.5,-0.5L0,-3.0L2.5,-0.5"/>
                </g>
                <g id="arrowRight" xlink:href="#dirArrow" transform="rotate(90) translate(36 -43)" onmousedown="handlePan(1,0)">
                  <use xlink:href="#rim" fill="#404040">
                        <set attributeName="fill" to="#808080" begin="arrowRight.mouseover" end="arrowRight.mouseout"/>
                  </use>
                  <path fill="none" stroke="white" stroke-width="1.5" d="M0,-3.0v7 M-2.5,-0.5L0,-3.0L2.5,-0.5"/>
                </g>
                <g id="arrowDown" xlink:href="#dirArrow" transform="rotate(180) translate(-30 -48)" onmousedown="handlePan(0,1)">
                  <use xlink:href="#rim" fill="#404040">
                        <set attributeName="fill" to="#808080" begin="arrowDown.mouseover" end="arrowDown.mouseout"/>
                  </use>
                  <path fill="none" stroke="white" stroke-width="1.5" d="M0,-3.0v7 M-2.5,-0.5L0,-3.0L2.5,-0.5"/>
                </g>
                <g id="arrowLeft" xlink:href="#dirArrow" transform="rotate(270) translate(-36 17)" onmousedown="handlePan(-1,0)">
                  <use xlink:href="#rim" fill="#404040">
                        <set attributeName="fill" to="#808080" begin="arrowLeft.mouseover" end="arrowLeft.mouseout"/>
                  </use>
                  <path fill="none" stroke="white" stroke-width="1.5" d="M0,-3.0v7 M-2.5,-0.5L0,-3.0L2.5,-0.5"/>
                </g>
        </g>
        <svg viewBox="0 0 15 15" width="100%" height="30px" preserveAspectRatio="xMaxYMin meet">
         <g id="arrow_out" transform="scale(0.3 0.3)">
          <a xlink:href="classnetwork__butcher_1_1kfinder_1_1Crtp__Greater__inherit__graph_org.svg" target="_base">
           <rect id="button" ry="5" rx="5" y="6" x="6" height="38" width="38"
                fill="#f2f5e9" fill-opacity="0.5" stroke="#606060" stroke-width="1.0"/>
           <path id="arrow"
             d="M 11.500037,31.436501 C 11.940474,20.09759 22.043105,11.32322 32.158766,21.979434 L 37.068811,17.246167 C 37.068811,17.246167 37.088388,32 37.088388,32 L 22.160133,31.978069 C 22.160133,31.978069 26.997745,27.140456 26.997745,27.140456 C 18.528582,18.264221 13.291696,25.230495 11.500037,31.436501 z"
             style="fill:#404040;"/>
          </a>
         </g>
        </svg>
</svg>
