<?xml version="1.0" encoding="UTF-8" standalone="no"?>
<!DOCTYPE svg PUBLIC "-//W3C//DTD SVG 1.1//EN"
 "http://www.w3.org/Graphics/SVG/1.1/DTD/svg11.dtd">
<!-- Generated by graphviz version 2.43.0 (0)
 -->
<!-- Title: network_butcher::kfinder::Basic_KEppstein&lt; GraphType, Only_Distance, t_Weighted_Graph_Complete_Type &gt; Pages: 1 -->
<svg width="333pt" height="1198pt"
 viewBox="0.00 0.00 332.50 1198.00" xmlns="http://www.w3.org/2000/svg" xmlns:xlink="http://www.w3.org/1999/xlink">
<g id="graph0" class="graph" transform="scale(1 1) rotate(0) translate(4 1194)">
<title>network_butcher::kfinder::Basic_KEppstein&lt; GraphType, Only_Distance, t_Weighted_Graph_Complete_Type &gt;</title>
<polygon fill="white" stroke="transparent" points="-4,4 -4,-1194 328.5,-1194 328.5,4 -4,4"/>
<!-- Node1 -->
<g id="node1" class="node">
<title>Node1</title>
<g id="a_node1"><a xlink:title=" ">
<polygon fill="#bfbfbf" stroke="black" points="4,-0.5 4,-200.5 173,-200.5 173,-0.5 4,-0.5"/>
<text text-anchor="start" x="12" y="-188.5" font-family="Helvetica,sans-Serif" font-size="10.00">network_butcher::kfinder</text>
<text text-anchor="start" x="12" y="-177.5" font-family="Helvetica,sans-Serif" font-size="10.00">::Basic_KEppstein&lt; GraphType,</text>
<text text-anchor="start" x="12" y="-166.5" font-family="Helvetica,sans-Serif" font-size="10.00"> Only_Distance, t_Weighted</text>
<text text-anchor="middle" x="88.5" y="-155.5" font-family="Helvetica,sans-Serif" font-size="10.00">_Graph_Complete_Type &gt;</text>
<polyline fill="none" stroke="black" points="4,-148.5 173,-148.5 "/>
<text text-anchor="middle" x="88.5" y="-136.5" font-family="Helvetica,sans-Serif" font-size="10.00"> </text>
<polyline fill="none" stroke="black" points="4,-129.5 173,-129.5 "/>
<text text-anchor="start" x="12" y="-117.5" font-family="Helvetica,sans-Serif" font-size="10.00">+ compute()</text>
<text text-anchor="start" x="12" y="-106.5" font-family="Helvetica,sans-Serif" font-size="10.00">+ Basic_KEppstein()</text>
<text text-anchor="start" x="12" y="-95.5" font-family="Helvetica,sans-Serif" font-size="10.00">+ Basic_KEppstein()</text>
<text text-anchor="start" x="12" y="-84.5" font-family="Helvetica,sans-Serif" font-size="10.00">+ ~Basic_KEppstein()</text>
<text text-anchor="start" x="12" y="-73.5" font-family="Helvetica,sans-Serif" font-size="10.00"># extract_first_sidetrack</text>
<text text-anchor="start" x="12" y="-62.5" font-family="Helvetica,sans-Serif" font-size="10.00">_edge()</text>
<text text-anchor="start" x="12" y="-51.5" font-family="Helvetica,sans-Serif" font-size="10.00"># sidetrack_distances()</text>
<text text-anchor="start" x="12" y="-40.5" font-family="Helvetica,sans-Serif" font-size="10.00"># get_alternatives()</text>
<text text-anchor="start" x="12" y="-29.5" font-family="Helvetica,sans-Serif" font-size="10.00"># helper_eppstein()</text>
<text text-anchor="start" x="12" y="-18.5" font-family="Helvetica,sans-Serif" font-size="10.00"># start()</text>
<text text-anchor="start" x="12" y="-7.5" font-family="Helvetica,sans-Serif" font-size="10.00"># general_algo_eppstein()</text>
</a>
</g>
</g>
<!-- Node2 -->
<g id="node2" class="node">
<title>Node2</title>
<g id="a_node2"><a xlink:href="classnetwork__butcher_1_1kfinder_1_1KFinder.html" target="_top" xlink:title=" ">
<polygon fill="white" stroke="black" points="13,-238.5 13,-383.5 164,-383.5 164,-238.5 13,-238.5"/>
<text text-anchor="start" x="21" y="-371.5" font-family="Helvetica,sans-Serif" font-size="10.00">network_butcher::kfinder</text>
<text text-anchor="start" x="21" y="-360.5" font-family="Helvetica,sans-Serif" font-size="10.00">::KFinder&lt; GraphType, Only</text>
<text text-anchor="start" x="21" y="-349.5" font-family="Helvetica,sans-Serif" font-size="10.00">_Distance, Weighted_Graph</text>
<text text-anchor="middle" x="88.5" y="-338.5" font-family="Helvetica,sans-Serif" font-size="10.00">&lt; GraphType &gt; &gt;</text>
<polyline fill="none" stroke="black" points="13,-331.5 164,-331.5 "/>
<text text-anchor="start" x="21" y="-319.5" font-family="Helvetica,sans-Serif" font-size="10.00"># graph</text>
<text text-anchor="start" x="21" y="-308.5" font-family="Helvetica,sans-Serif" font-size="10.00"># root</text>
<text text-anchor="start" x="21" y="-297.5" font-family="Helvetica,sans-Serif" font-size="10.00"># sink</text>
<polyline fill="none" stroke="black" points="13,-290.5 164,-290.5 "/>
<text text-anchor="start" x="21" y="-278.5" font-family="Helvetica,sans-Serif" font-size="10.00">+ compute()</text>
<text text-anchor="start" x="21" y="-267.5" font-family="Helvetica,sans-Serif" font-size="10.00">+ KFinder()</text>
<text text-anchor="start" x="21" y="-256.5" font-family="Helvetica,sans-Serif" font-size="10.00">+ KFinder()</text>
<text text-anchor="start" x="21" y="-245.5" font-family="Helvetica,sans-Serif" font-size="10.00">+ ~KFinder()</text>
</a>
</g>
</g>
<!-- Node2&#45;&gt;Node1 -->
<g id="edge1" class="edge">
<title>Node2&#45;&gt;Node1</title>
<path fill="none" stroke="midnightblue" d="M88.5,-228.16C88.5,-219.13 88.5,-209.86 88.5,-200.64"/>
<polygon fill="none" stroke="midnightblue" points="85,-228.25 88.5,-238.25 92,-228.25 85,-228.25"/>
</g>
<!-- Node3 -->
<g id="node3" class="node">
<title>Node3</title>
<g id="a_node3"><a xlink:href="classnetwork__butcher_1_1kfinder_1_1KFinder.html" target="_top" xlink:title=" ">
<polygon fill="white" stroke="black" points="8.5,-442.5 8.5,-576.5 168.5,-576.5 168.5,-442.5 8.5,-442.5"/>
<text text-anchor="start" x="16.5" y="-564.5" font-family="Helvetica,sans-Serif" font-size="10.00">network_butcher::kfinder</text>
<text text-anchor="start" x="16.5" y="-553.5" font-family="Helvetica,sans-Serif" font-size="10.00">::KFinder&lt; GraphType, Only</text>
<text text-anchor="start" x="16.5" y="-542.5" font-family="Helvetica,sans-Serif" font-size="10.00">_Distance, t_Weighted_Graph</text>
<text text-anchor="middle" x="88.5" y="-531.5" font-family="Helvetica,sans-Serif" font-size="10.00">_Complete_Type &gt;</text>
<polyline fill="none" stroke="black" points="8.5,-524.5 168.5,-524.5 "/>
<text text-anchor="start" x="16.5" y="-512.5" font-family="Helvetica,sans-Serif" font-size="10.00"># root</text>
<text text-anchor="start" x="16.5" y="-501.5" font-family="Helvetica,sans-Serif" font-size="10.00"># sink</text>
<polyline fill="none" stroke="black" points="8.5,-494.5 168.5,-494.5 "/>
<text text-anchor="start" x="16.5" y="-482.5" font-family="Helvetica,sans-Serif" font-size="10.00">+ compute()</text>
<text text-anchor="start" x="16.5" y="-471.5" font-family="Helvetica,sans-Serif" font-size="10.00">+ KFinder()</text>
<text text-anchor="start" x="16.5" y="-460.5" font-family="Helvetica,sans-Serif" font-size="10.00">+ KFinder()</text>
<text text-anchor="start" x="16.5" y="-449.5" font-family="Helvetica,sans-Serif" font-size="10.00">+ ~KFinder()</text>
</a>
</g>
</g>
<!-- Node3&#45;&gt;Node2 -->
<g id="edge2" class="edge">
<title>Node3&#45;&gt;Node2</title>
<path fill="none" stroke="orange" d="M88.5,-431.95C88.5,-416.07 88.5,-399.39 88.5,-383.69"/>
<polygon fill="orange" stroke="orange" points="85,-432.25 88.5,-442.25 92,-432.25 85,-432.25"/>
<text text-anchor="start" x="88.5" y="-416" font-family="Helvetica,sans-Serif" font-size="10.00"> &lt; GraphType, Only_Distance,</text>
<text text-anchor="middle" x="173" y="-405" font-family="Helvetica,sans-Serif" font-size="10.00"> Weighted_Graph&lt; GraphType &gt; &gt;</text>
</g>
<!-- Node4 -->
<g id="node4" class="node">
<title>Node4</title>
<g id="a_node4"><a xlink:href="classnetwork__butcher_1_1kfinder_1_1Weighted__Graph.html" target="_top" xlink:title=" ">
<polygon fill="white" stroke="black" points="0,-624.5 0,-813.5 177,-813.5 177,-624.5 0,-624.5"/>
<text text-anchor="start" x="8" y="-801.5" font-family="Helvetica,sans-Serif" font-size="10.00">network_butcher::kfinder</text>
<text text-anchor="middle" x="88.5" y="-790.5" font-family="Helvetica,sans-Serif" font-size="10.00">::Weighted_Graph&lt; GraphType &gt;</text>
<polyline fill="none" stroke="black" points="0,-783.5 177,-783.5 "/>
<text text-anchor="start" x="8" y="-771.5" font-family="Helvetica,sans-Serif" font-size="10.00">&#45; graph</text>
<polyline fill="none" stroke="black" points="0,-764.5 177,-764.5 "/>
<text text-anchor="start" x="8" y="-752.5" font-family="Helvetica,sans-Serif" font-size="10.00">+ get_weight()</text>
<text text-anchor="start" x="8" y="-741.5" font-family="Helvetica,sans-Serif" font-size="10.00">+ size()</text>
<text text-anchor="start" x="8" y="-730.5" font-family="Helvetica,sans-Serif" font-size="10.00">+ empty()</text>
<text text-anchor="start" x="8" y="-719.5" font-family="Helvetica,sans-Serif" font-size="10.00">+ get_output_nodes()</text>
<text text-anchor="start" x="8" y="-708.5" font-family="Helvetica,sans-Serif" font-size="10.00">+ operator[]()</text>
<text text-anchor="start" x="8" y="-697.5" font-family="Helvetica,sans-Serif" font-size="10.00">+ cbegin()</text>
<text text-anchor="start" x="8" y="-686.5" font-family="Helvetica,sans-Serif" font-size="10.00">+ cend()</text>
<text text-anchor="start" x="8" y="-675.5" font-family="Helvetica,sans-Serif" font-size="10.00">+ begin()</text>
<text text-anchor="start" x="8" y="-664.5" font-family="Helvetica,sans-Serif" font-size="10.00">+ end()</text>
<text text-anchor="start" x="8" y="-653.5" font-family="Helvetica,sans-Serif" font-size="10.00">+ reverse()</text>
<text text-anchor="start" x="8" y="-642.5" font-family="Helvetica,sans-Serif" font-size="10.00">+ Weighted_Graph()</text>
<text text-anchor="start" x="8" y="-631.5" font-family="Helvetica,sans-Serif" font-size="10.00">+ ~Weighted_Graph()</text>
</a>
</g>
</g>
<!-- Node4&#45;&gt;Node3 -->
<g id="edge3" class="edge">
<title>Node4&#45;&gt;Node3</title>
<path fill="none" stroke="#404040" d="M88.5,-624.27C88.5,-612.44 88.5,-600.43 88.5,-588.87"/>
<polygon fill="none" stroke="#404040" points="88.5,-588.53 84.5,-582.53 88.5,-576.53 92.5,-582.53 88.5,-588.53"/>
<text text-anchor="middle" x="108.5" y="-598" font-family="Helvetica,sans-Serif" font-size="10.00"> #graph</text>
</g>
<!-- Node5 -->
<g id="node5" class="node">
<title>Node5</title>
<g id="a_node5"><a xlink:href="classnetwork__butcher_1_1kfinder_1_1Base__Weighted__Graph.html" target="_top" xlink:title="Helper Weighted graph class. It is used to identify Weighted_Graph independently of its template para...">
<polygon fill="white" stroke="black" points="8,-1110.5 8,-1189.5 161,-1189.5 161,-1110.5 8,-1110.5"/>
<text text-anchor="start" x="16" y="-1177.5" font-family="Helvetica,sans-Serif" font-size="10.00">network_butcher::kfinder</text>
<text text-anchor="middle" x="84.5" y="-1166.5" font-family="Helvetica,sans-Serif" font-size="10.00">::Base_Weighted_Graph</text>
<polyline fill="none" stroke="black" points="8,-1159.5 161,-1159.5 "/>
<text text-anchor="middle" x="84.5" y="-1147.5" font-family="Helvetica,sans-Serif" font-size="10.00"> </text>
<polyline fill="none" stroke="black" points="8,-1140.5 161,-1140.5 "/>
<text text-anchor="start" x="16" y="-1128.5" font-family="Helvetica,sans-Serif" font-size="10.00">+ ~Base_Weighted_Graph()</text>
<text text-anchor="start" x="16" y="-1117.5" font-family="Helvetica,sans-Serif" font-size="10.00">&#45; Base_Weighted_Graph()</text>
</a>
</g>
</g>
<!-- Node5&#45;&gt;Node4 -->
<g id="edge4" class="edge">
<title>Node5&#45;&gt;Node4</title>
<path fill="none" stroke="#8b1a1a" d="M84.96,-1099.95C85.61,-1030.47 86.8,-902.03 87.62,-813.88"/>
<polygon fill="none" stroke="#8b1a1a" points="81.46,-1100.14 84.86,-1110.17 88.46,-1100.21 81.46,-1100.14"/>
</g>
<!-- Node6 -->
<g id="node6" class="node">
<title>Node6</title>
<g id="a_node6"><a xlink:href="classnetwork__butcher_1_1kfinder_1_1Weighted__Graph.html" target="_top" xlink:title=" ">
<polygon fill="white" stroke="black" points="100.5,-861.5 100.5,-1072.5 324.5,-1072.5 324.5,-861.5 100.5,-861.5"/>
<text text-anchor="start" x="108.5" y="-1060.5" font-family="Helvetica,sans-Serif" font-size="10.00">network_butcher::kfinder</text>
<text text-anchor="start" x="108.5" y="-1049.5" font-family="Helvetica,sans-Serif" font-size="10.00">::Weighted_Graph&lt; InternalGraph</text>
<text text-anchor="start" x="108.5" y="-1038.5" font-family="Helvetica,sans-Serif" font-size="10.00">Type, t_Reversed, t_Node_Type,</text>
<text text-anchor="middle" x="212.5" y="-1027.5" font-family="Helvetica,sans-Serif" font-size="10.00"> t_Node_Collection_Type, t_Weight_Type &gt;</text>
<polyline fill="none" stroke="black" points="100.5,-1020.5 324.5,-1020.5 "/>
<text text-anchor="start" x="108.5" y="-1008.5" font-family="Helvetica,sans-Serif" font-size="10.00">&#45; graph</text>
<polyline fill="none" stroke="black" points="100.5,-1001.5 324.5,-1001.5 "/>
<text text-anchor="start" x="108.5" y="-989.5" font-family="Helvetica,sans-Serif" font-size="10.00">+ get_weight()</text>
<text text-anchor="start" x="108.5" y="-978.5" font-family="Helvetica,sans-Serif" font-size="10.00">+ size()</text>
<text text-anchor="start" x="108.5" y="-967.5" font-family="Helvetica,sans-Serif" font-size="10.00">+ empty()</text>
<text text-anchor="start" x="108.5" y="-956.5" font-family="Helvetica,sans-Serif" font-size="10.00">+ get_output_nodes()</text>
<text text-anchor="start" x="108.5" y="-945.5" font-family="Helvetica,sans-Serif" font-size="10.00">+ operator[]()</text>
<text text-anchor="start" x="108.5" y="-934.5" font-family="Helvetica,sans-Serif" font-size="10.00">+ cbegin()</text>
<text text-anchor="start" x="108.5" y="-923.5" font-family="Helvetica,sans-Serif" font-size="10.00">+ cend()</text>
<text text-anchor="start" x="108.5" y="-912.5" font-family="Helvetica,sans-Serif" font-size="10.00">+ begin()</text>
<text text-anchor="start" x="108.5" y="-901.5" font-family="Helvetica,sans-Serif" font-size="10.00">+ end()</text>
<text text-anchor="start" x="108.5" y="-890.5" font-family="Helvetica,sans-Serif" font-size="10.00">+ reverse()</text>
<text text-anchor="start" x="108.5" y="-879.5" font-family="Helvetica,sans-Serif" font-size="10.00">+ Weighted_Graph()</text>
<text text-anchor="start" x="108.5" y="-868.5" font-family="Helvetica,sans-Serif" font-size="10.00">+ ~Weighted_Graph()</text>
</a>
</g>
</g>
<!-- Node5&#45;&gt;Node6 -->
<g id="edge6" class="edge">
<title>Node5&#45;&gt;Node6</title>
<path fill="none" stroke="#8b1a1a" d="M117.77,-1101.96C124.27,-1092.76 131.34,-1082.77 138.57,-1072.54"/>
<polygon fill="none" stroke="#8b1a1a" points="114.88,-1099.99 111.96,-1110.17 120.59,-1104.03 114.88,-1099.99"/>
</g>
<!-- Node6&#45;&gt;Node4 -->
<g id="edge5" class="edge">
<title>Node6&#45;&gt;Node4</title>
<path fill="none" stroke="orange" d="M155.23,-852.38C148.7,-839.43 142.1,-826.34 135.72,-813.69"/>
<polygon fill="orange" stroke="orange" points="152.11,-853.96 159.73,-861.32 158.36,-850.81 152.11,-853.96"/>
<text text-anchor="middle" x="189.5" y="-835" font-family="Helvetica,sans-Serif" font-size="10.00"> &lt; GraphType &gt;</text>
</g>
</g>
</svg>
