<?xml version="1.0" encoding="UTF-8" standalone="no"?>
<!DOCTYPE svg PUBLIC "-//W3C//DTD SVG 1.1//EN"
 "http://www.w3.org/Graphics/SVG/1.1/DTD/svg11.dtd">
<!-- Generated by graphviz version 2.43.0 (0)
 -->
<!-- Title: network_butcher::constraints::Memory_Constraint&lt; GraphType &gt; Pages: 1 -->
<svg width="201pt" height="281pt"
 viewBox="0.00 0.00 201.00 281.00" xmlns="http://www.w3.org/2000/svg" xmlns:xlink="http://www.w3.org/1999/xlink">
<g id="graph0" class="graph" transform="scale(1 1) rotate(0) translate(4 277)">
<title>network_butcher::constraints::Memory_Constraint&lt; GraphType &gt;</title>
<polygon fill="white" stroke="transparent" points="-4,4 -4,-277 197,-277 197,4 -4,4"/>
<!-- Node1 -->
<g id="node1" class="node">
<title>Node1</title>
<g id="a_node1"><a xlink:title=" ">
<polygon fill="#bfbfbf" stroke="black" points="0,-0.5 0,-134.5 193,-134.5 193,-0.5 0,-0.5"/>
<text text-anchor="start" x="8" y="-122.5" font-family="Helvetica,sans-Serif" font-size="10.00">network_butcher::constraints</text>
<text text-anchor="middle" x="96.5" y="-111.5" font-family="Helvetica,sans-Serif" font-size="10.00">::Memory_Constraint&lt; GraphType &gt;</text>
<polyline fill="none" stroke="black" points="0,-104.5 193,-104.5 "/>
<text text-anchor="start" x="8" y="-92.5" font-family="Helvetica,sans-Serif" font-size="10.00">&#45; params</text>
<text text-anchor="start" x="8" y="-81.5" font-family="Helvetica,sans-Serif" font-size="10.00">&#45; graph</text>
<polyline fill="none" stroke="black" points="0,-74.5 193,-74.5 "/>
<text text-anchor="start" x="8" y="-62.5" font-family="Helvetica,sans-Serif" font-size="10.00">+ Memory_Constraint()</text>
<text text-anchor="start" x="8" y="-51.5" font-family="Helvetica,sans-Serif" font-size="10.00">+ apply_constraint()</text>
<text text-anchor="start" x="8" y="-40.5" font-family="Helvetica,sans-Serif" font-size="10.00">+ copy()</text>
<text text-anchor="start" x="8" y="-29.5" font-family="Helvetica,sans-Serif" font-size="10.00">+ ~Memory_Constraint()</text>
<text text-anchor="start" x="8" y="-18.5" font-family="Helvetica,sans-Serif" font-size="10.00">&#45; estimate_maximum_memory</text>
<text text-anchor="start" x="8" y="-7.5" font-family="Helvetica,sans-Serif" font-size="10.00">_usage()</text>
</a>
</g>
</g>
<!-- Node2 -->
<g id="node2" class="node">
<title>Node2</title>
<g id="a_node2"><a xlink:href="classnetwork__butcher_1_1constraints_1_1Graph__Constraint.html" target="_top" xlink:title="A simple class representing a constraint to be applied during the block graph construction.">
<polygon fill="white" stroke="black" points="17.5,-171.5 17.5,-272.5 175.5,-272.5 175.5,-171.5 17.5,-171.5"/>
<text text-anchor="start" x="25.5" y="-260.5" font-family="Helvetica,sans-Serif" font-size="10.00">network_butcher::constraints</text>
<text text-anchor="middle" x="96.5" y="-249.5" font-family="Helvetica,sans-Serif" font-size="10.00">::Graph_Constraint</text>
<polyline fill="none" stroke="black" points="17.5,-242.5 175.5,-242.5 "/>
<text text-anchor="middle" x="96.5" y="-230.5" font-family="Helvetica,sans-Serif" font-size="10.00"> </text>
<polyline fill="none" stroke="black" points="17.5,-223.5 175.5,-223.5 "/>
<text text-anchor="start" x="25.5" y="-211.5" font-family="Helvetica,sans-Serif" font-size="10.00">+ Graph_Constraint()</text>
<text text-anchor="start" x="25.5" y="-200.5" font-family="Helvetica,sans-Serif" font-size="10.00">+ apply_constraint()</text>
<text text-anchor="start" x="25.5" y="-189.5" font-family="Helvetica,sans-Serif" font-size="10.00">+ copy()</text>
<text text-anchor="start" x="25.5" y="-178.5" font-family="Helvetica,sans-Serif" font-size="10.00">+ ~Graph_Constraint()</text>
</a>
</g>
</g>
<!-- Node2&#45;&gt;Node1 -->
<g id="edge1" class="edge">
<title>Node2&#45;&gt;Node1</title>
<path fill="none" stroke="midnightblue" d="M96.5,-161.38C96.5,-152.63 96.5,-143.56 96.5,-134.69"/>
<polygon fill="none" stroke="midnightblue" points="93,-161.49 96.5,-171.49 100,-161.49 93,-161.49"/>
</g>
</g>
</svg>
