<?xml version="1.0" encoding="UTF-8" standalone="no"?>
<!DOCTYPE svg PUBLIC "-//W3C//DTD SVG 1.1//EN"
 "http://www.w3.org/Graphics/SVG/1.1/DTD/svg11.dtd">
<!-- Generated by graphviz version 2.43.0 (0)
 -->
<!-- Title: include/network_butcher/Computer/computer_memory.h Pages: 1 -->
<svg width="977pt" height="575pt"
 viewBox="0.00 0.00 977.00 575.00" xmlns="http://www.w3.org/2000/svg" xmlns:xlink="http://www.w3.org/1999/xlink">
<g id="graph0" class="graph" transform="scale(1 1) rotate(0) translate(4 571)">
<title>include/network_butcher/Computer/computer_memory.h</title>
<polygon fill="white" stroke="transparent" points="-4,4 -4,-571 973,-571 973,4 -4,4"/>
<!-- Node1 -->
<g id="node1" class="node">
<title>Node1</title>
<g id="a_node1"><a xlink:title=" ">
<polygon fill="#bfbfbf" stroke="black" points="152.5,-536.5 152.5,-566.5 323.5,-566.5 323.5,-536.5 152.5,-536.5"/>
<text text-anchor="start" x="160.5" y="-554.5" font-family="Helvetica,sans-Serif" font-size="10.00">include/network_butcher</text>
<text text-anchor="middle" x="238" y="-543.5" font-family="Helvetica,sans-Serif" font-size="10.00">/Computer/computer_memory.h</text>
</a>
</g>
</g>
<!-- Node2 -->
<g id="node2" class="node">
<title>Node2</title>
<g id="a_node2"><a xlink:title=" ">
<polygon fill="white" stroke="#bfbfbf" points="144.5,-475 144.5,-494 209.5,-494 209.5,-475 144.5,-475"/>
<text text-anchor="middle" x="177" y="-482" font-family="Helvetica,sans-Serif" font-size="10.00">functional</text>
</a>
</g>
</g>
<!-- Node1&#45;&gt;Node2 -->
<g id="edge1" class="edge">
<title>Node1&#45;&gt;Node2</title>
<path fill="none" stroke="midnightblue" d="M224.76,-536.4C215.16,-526.16 202.15,-512.3 192.13,-501.62"/>
<polygon fill="midnightblue" stroke="midnightblue" points="194.55,-499.09 185.16,-494.19 189.45,-503.88 194.55,-499.09"/>
</g>
<!-- Node3 -->
<g id="node3" class="node">
<title>Node3</title>
<g id="a_node3"><a xlink:href="utilities_8h.html" target="_top" xlink:title=" ">
<polygon fill="white" stroke="black" points="304.5,-207 304.5,-226 451.5,-226 451.5,-207 304.5,-207"/>
<text text-anchor="middle" x="378" y="-214" font-family="Helvetica,sans-Serif" font-size="10.00">network_butcher/utilities.h</text>
</a>
</g>
</g>
<!-- Node1&#45;&gt;Node3 -->
<g id="edge2" class="edge">
<title>Node1&#45;&gt;Node3</title>
<path fill="none" stroke="midnightblue" d="M238,-536.24C238,-512.03 238,-461.35 238,-418.5 238,-418.5 238,-418.5 238,-349.5 238,-290.12 305.49,-249.56 346.76,-230.32"/>
<polygon fill="midnightblue" stroke="midnightblue" points="348.44,-233.39 356.12,-226.1 345.57,-227.01 348.44,-233.39"/>
</g>
<!-- Node21 -->
<g id="node21" class="node">
<title>Node21</title>
<g id="a_node21"><a xlink:href="wgraph_8h.html" target="_top" xlink:title=" ">
<polygon fill="white" stroke="black" points="519.5,-469.5 519.5,-499.5 662.5,-499.5 662.5,-469.5 519.5,-469.5"/>
<text text-anchor="start" x="527.5" y="-487.5" font-family="Helvetica,sans-Serif" font-size="10.00">network_butcher/Network</text>
<text text-anchor="middle" x="591" y="-476.5" font-family="Helvetica,sans-Serif" font-size="10.00">/wgraph.h</text>
</a>
</g>
</g>
<!-- Node1&#45;&gt;Node21 -->
<g id="edge28" class="edge">
<title>Node1&#45;&gt;Node21</title>
<path fill="none" stroke="midnightblue" d="M314.16,-536.48C371.74,-525.87 450.64,-511.35 509.48,-500.51"/>
<polygon fill="midnightblue" stroke="midnightblue" points="510.29,-503.92 519.49,-498.67 509.02,-497.04 510.29,-503.92"/>
</g>
<!-- Node4 -->
<g id="node4" class="node">
<title>Node4</title>
<g id="a_node4"><a xlink:title=" ">
<polygon fill="white" stroke="#bfbfbf" points="406,-140 406,-159 470,-159 470,-140 406,-140"/>
<text text-anchor="middle" x="438" y="-147" font-family="Helvetica,sans-Serif" font-size="10.00">algorithm</text>
</a>
</g>
</g>
<!-- Node3&#45;&gt;Node4 -->
<g id="edge3" class="edge">
<title>Node3&#45;&gt;Node4</title>
<path fill="none" stroke="midnightblue" d="M386.09,-206.73C395.54,-196.5 411.36,-179.36 423.05,-166.69"/>
<polygon fill="midnightblue" stroke="midnightblue" points="425.83,-168.85 430.04,-159.13 420.68,-164.1 425.83,-168.85"/>
</g>
<!-- Node5 -->
<g id="node5" class="node">
<title>Node5</title>
<g id="a_node5"><a xlink:title=" ">
<polygon fill="white" stroke="#bfbfbf" points="28,-140 28,-159 84,-159 84,-140 28,-140"/>
<text text-anchor="middle" x="56" y="-147" font-family="Helvetica,sans-Serif" font-size="10.00">numeric</text>
</a>
</g>
</g>
<!-- Node3&#45;&gt;Node5 -->
<g id="edge4" class="edge">
<title>Node3&#45;&gt;Node5</title>
<path fill="none" stroke="midnightblue" d="M326.78,-206.99C250.88,-194.3 115.1,-171.22 93,-165 90.41,-164.27 87.75,-163.43 85.11,-162.52"/>
<polygon fill="midnightblue" stroke="midnightblue" points="86.32,-159.24 75.72,-159.06 83.89,-165.81 86.32,-159.24"/>
</g>
<!-- Node6 -->
<g id="node6" class="node">
<title>Node6</title>
<g id="a_node6"><a xlink:title=" ">
<polygon fill="white" stroke="#bfbfbf" points="282,-140 282,-159 350,-159 350,-140 282,-140"/>
<text text-anchor="middle" x="316" y="-147" font-family="Helvetica,sans-Serif" font-size="10.00">filesystem</text>
</a>
</g>
</g>
<!-- Node3&#45;&gt;Node6 -->
<g id="edge5" class="edge">
<title>Node3&#45;&gt;Node6</title>
<path fill="none" stroke="midnightblue" d="M369.64,-206.73C359.88,-196.5 343.53,-179.36 331.45,-166.69"/>
<polygon fill="midnightblue" stroke="midnightblue" points="333.66,-163.95 324.23,-159.13 328.6,-168.78 333.66,-163.95"/>
</g>
<!-- Node7 -->
<g id="node7" class="node">
<title>Node7</title>
<g id="a_node7"><a xlink:title=" ">
<polygon fill="white" stroke="#bfbfbf" points="102.5,-140 102.5,-159 157.5,-159 157.5,-140 102.5,-140"/>
<text text-anchor="middle" x="130" y="-147" font-family="Helvetica,sans-Serif" font-size="10.00">fstream</text>
</a>
</g>
</g>
<!-- Node3&#45;&gt;Node7 -->
<g id="edge6" class="edge">
<title>Node3&#45;&gt;Node7</title>
<path fill="none" stroke="midnightblue" d="M334.69,-206.97C291.7,-198.08 224.14,-182.94 167,-165 164.72,-164.29 162.39,-163.5 160.05,-162.67"/>
<polygon fill="midnightblue" stroke="midnightblue" points="161.16,-159.35 150.56,-159.14 158.71,-165.91 161.16,-159.35"/>
</g>
<!-- Node8 -->
<g id="node8" class="node">
<title>Node8</title>
<g id="a_node8"><a xlink:title=" ">
<polygon fill="white" stroke="#bfbfbf" points="176,-140 176,-159 226,-159 226,-140 176,-140"/>
<text text-anchor="middle" x="201" y="-147" font-family="Helvetica,sans-Serif" font-size="10.00">ranges</text>
</a>
</g>
</g>
<!-- Node3&#45;&gt;Node8 -->
<g id="edge7" class="edge">
<title>Node3&#45;&gt;Node8</title>
<path fill="none" stroke="midnightblue" d="M354.55,-206.96C327.08,-196.95 280.21,-179.83 240,-165 237.91,-164.23 235.75,-163.43 233.58,-162.63"/>
<polygon fill="midnightblue" stroke="midnightblue" points="234.68,-159.3 224.09,-159.11 232.25,-165.87 234.68,-159.3"/>
</g>
<!-- Node9 -->
<g id="node9" class="node">
<title>Node9</title>
<g id="a_node9"><a xlink:title=" ">
<polygon fill="white" stroke="#bfbfbf" points="240.5,-67.5 240.5,-97.5 365.5,-97.5 365.5,-67.5 240.5,-67.5"/>
<text text-anchor="start" x="248.5" y="-85.5" font-family="Helvetica,sans-Serif" font-size="10.00">network_butcher/onnx</text>
<text text-anchor="middle" x="303" y="-74.5" font-family="Helvetica,sans-Serif" font-size="10.00">_proto/onnx.pb.h</text>
</a>
</g>
</g>
<!-- Node3&#45;&gt;Node9 -->
<g id="edge8" class="edge">
<title>Node3&#45;&gt;Node9</title>
<path fill="none" stroke="midnightblue" d="M336.64,-206.94C313.65,-199.84 286.94,-187.18 273,-165 261.38,-146.52 272.5,-122.88 284.35,-105.82"/>
<polygon fill="midnightblue" stroke="midnightblue" points="287.33,-107.68 290.5,-97.57 281.72,-103.5 287.33,-107.68"/>
</g>
<!-- Node10 -->
<g id="node10" class="node">
<title>Node10</title>
<g id="a_node10"><a xlink:href="traits_8h.html" target="_top" xlink:title=" ">
<polygon fill="white" stroke="black" points="776,-134.5 776,-164.5 904,-164.5 904,-134.5 776,-134.5"/>
<text text-anchor="start" x="784" y="-152.5" font-family="Helvetica,sans-Serif" font-size="10.00">network_butcher/Traits</text>
<text text-anchor="middle" x="840" y="-141.5" font-family="Helvetica,sans-Serif" font-size="10.00">/traits.h</text>
</a>
</g>
</g>
<!-- Node3&#45;&gt;Node10 -->
<g id="edge9" class="edge">
<title>Node3&#45;&gt;Node10</title>
<path fill="none" stroke="midnightblue" d="M451.7,-207.42C527.88,-198.73 650.44,-183.82 765.88,-165.12"/>
<polygon fill="midnightblue" stroke="midnightblue" points="766.64,-168.54 775.95,-163.47 765.52,-161.63 766.64,-168.54"/>
</g>
<!-- Node15 -->
<g id="node15" class="node">
<title>Node15</title>
<g id="a_node15"><a xlink:href="type__info_8h.html" target="_top" xlink:title=" ">
<polygon fill="white" stroke="black" points="619.5,-67.5 619.5,-97.5 748.5,-97.5 748.5,-67.5 619.5,-67.5"/>
<text text-anchor="start" x="627.5" y="-85.5" font-family="Helvetica,sans-Serif" font-size="10.00">network_butcher/Types</text>
<text text-anchor="middle" x="684" y="-74.5" font-family="Helvetica,sans-Serif" font-size="10.00">/type_info.h</text>
</a>
</g>
</g>
<!-- Node3&#45;&gt;Node15 -->
<g id="edge27" class="edge">
<title>Node3&#45;&gt;Node15</title>
<path fill="none" stroke="midnightblue" d="M377.2,-206.88C376.17,-190.19 376.53,-153.38 397,-134 404.75,-126.67 526.94,-107.06 609.36,-94.55"/>
<polygon fill="midnightblue" stroke="midnightblue" points="610.09,-97.98 619.45,-93.02 609.04,-91.06 610.09,-97.98"/>
</g>
<!-- Node18 -->
<g id="node18" class="node">
<title>Node18</title>
<g id="a_node18"><a xlink:href="dense__tensor_8h.html" target="_top" xlink:title=" ">
<polygon fill="white" stroke="black" points="526.5,-134.5 526.5,-164.5 655.5,-164.5 655.5,-134.5 526.5,-134.5"/>
<text text-anchor="start" x="534.5" y="-152.5" font-family="Helvetica,sans-Serif" font-size="10.00">network_butcher/Types</text>
<text text-anchor="middle" x="591" y="-141.5" font-family="Helvetica,sans-Serif" font-size="10.00">/dense_tensor.h</text>
</a>
</g>
</g>
<!-- Node3&#45;&gt;Node18 -->
<g id="edge19" class="edge">
<title>Node3&#45;&gt;Node18</title>
<path fill="none" stroke="midnightblue" d="M401.52,-206.87C432.25,-196.84 486.83,-180.06 529.6,-167.4"/>
<polygon fill="midnightblue" stroke="midnightblue" points="530.76,-170.71 539.36,-164.53 528.78,-164 530.76,-170.71"/>
</g>
<!-- Node10&#45;&gt;Node9 -->
<g id="edge18" class="edge">
<title>Node10&#45;&gt;Node9</title>
<path fill="none" stroke="midnightblue" d="M775.96,-135.44C772.94,-134.93 769.94,-134.45 767,-134 615.89,-111.09 576.89,-115.02 425,-98 409.03,-96.21 391.88,-94.22 375.65,-92.3"/>
<polygon fill="midnightblue" stroke="midnightblue" points="376.02,-88.82 365.67,-91.11 375.19,-95.77 376.02,-88.82"/>
</g>
<!-- Node11 -->
<g id="node11" class="node">
<title>Node11</title>
<g id="a_node11"><a xlink:title=" ">
<polygon fill="white" stroke="#bfbfbf" points="861,-73 861,-92 893,-92 893,-73 861,-73"/>
<text text-anchor="middle" x="877" y="-80" font-family="Helvetica,sans-Serif" font-size="10.00">set</text>
</a>
</g>
</g>
<!-- Node10&#45;&gt;Node11 -->
<g id="edge10" class="edge">
<title>Node10&#45;&gt;Node11</title>
<path fill="none" stroke="midnightblue" d="M848.03,-134.4C853.63,-124.56 861.13,-111.38 867.1,-100.89"/>
<polygon fill="midnightblue" stroke="midnightblue" points="870.15,-102.62 872.05,-92.19 864.06,-99.15 870.15,-102.62"/>
</g>
<!-- Node12 -->
<g id="node12" class="node">
<title>Node12</title>
<g id="a_node12"><a xlink:title=" ">
<polygon fill="white" stroke="#bfbfbf" points="767,-73 767,-92 805,-92 805,-73 767,-73"/>
<text text-anchor="middle" x="786" y="-80" font-family="Helvetica,sans-Serif" font-size="10.00">map</text>
</a>
</g>
</g>
<!-- Node10&#45;&gt;Node12 -->
<g id="edge11" class="edge">
<title>Node10&#45;&gt;Node12</title>
<path fill="none" stroke="midnightblue" d="M828.28,-134.4C819.86,-124.26 808.49,-110.57 799.66,-99.94"/>
<polygon fill="midnightblue" stroke="midnightblue" points="802.31,-97.65 793.22,-92.19 796.92,-102.12 802.31,-97.65"/>
</g>
<!-- Node13 -->
<g id="node13" class="node">
<title>Node13</title>
<g id="a_node13"><a xlink:title=" ">
<polygon fill="white" stroke="#bfbfbf" points="911,-73 911,-92 969,-92 969,-73 911,-73"/>
<text text-anchor="middle" x="940" y="-80" font-family="Helvetica,sans-Serif" font-size="10.00">memory</text>
</a>
</g>
</g>
<!-- Node10&#45;&gt;Node13 -->
<g id="edge12" class="edge">
<title>Node10&#45;&gt;Node13</title>
<path fill="none" stroke="midnightblue" d="M861.7,-134.4C878.47,-123.5 901.57,-108.48 918.33,-97.58"/>
<polygon fill="midnightblue" stroke="midnightblue" points="920.44,-100.39 926.91,-92.01 916.62,-94.52 920.44,-100.39"/>
</g>
<!-- Node14 -->
<g id="node14" class="node">
<title>Node14</title>
<g id="a_node14"><a xlink:href="starting__traits_8h.html" target="_top" xlink:title=" ">
<polygon fill="white" stroke="black" points="736,-0.5 736,-30.5 864,-30.5 864,-0.5 736,-0.5"/>
<text text-anchor="start" x="744" y="-18.5" font-family="Helvetica,sans-Serif" font-size="10.00">network_butcher/Traits</text>
<text text-anchor="middle" x="800" y="-7.5" font-family="Helvetica,sans-Serif" font-size="10.00">/starting_traits.h</text>
</a>
</g>
</g>
<!-- Node10&#45;&gt;Node14 -->
<g id="edge13" class="edge">
<title>Node10&#45;&gt;Node14</title>
<path fill="none" stroke="midnightblue" d="M835.72,-134.37C828.89,-111.85 815.46,-67.53 807.16,-40.12"/>
<polygon fill="midnightblue" stroke="midnightblue" points="810.5,-39.08 804.25,-30.52 803.8,-41.11 810.5,-39.08"/>
</g>
<!-- Node10&#45;&gt;Node15 -->
<g id="edge14" class="edge">
<title>Node10&#45;&gt;Node15</title>
<path fill="none" stroke="midnightblue" d="M806.15,-134.4C782.95,-124.73 751.97,-111.82 727.02,-101.43"/>
<polygon fill="midnightblue" stroke="midnightblue" points="728.36,-98.19 717.78,-97.58 725.67,-104.65 728.36,-98.19"/>
</g>
<!-- Node15&#45;&gt;Node14 -->
<g id="edge17" class="edge">
<title>Node15&#45;&gt;Node14</title>
<path fill="none" stroke="midnightblue" d="M709.17,-67.4C725.74,-58.11 747.64,-45.84 765.78,-35.67"/>
<polygon fill="midnightblue" stroke="midnightblue" points="767.87,-38.52 774.88,-30.58 764.44,-32.41 767.87,-38.52"/>
</g>
<!-- Node16 -->
<g id="node16" class="node">
<title>Node16</title>
<g id="a_node16"><a xlink:title=" ">
<polygon fill="white" stroke="#bfbfbf" points="641,-6 641,-25 685,-25 685,-6 641,-6"/>
<text text-anchor="middle" x="663" y="-13" font-family="Helvetica,sans-Serif" font-size="10.00">string</text>
</a>
</g>
</g>
<!-- Node15&#45;&gt;Node16 -->
<g id="edge15" class="edge">
<title>Node15&#45;&gt;Node16</title>
<path fill="none" stroke="midnightblue" d="M679.44,-67.4C676.36,-57.86 672.27,-45.18 668.93,-34.86"/>
<polygon fill="midnightblue" stroke="midnightblue" points="672.21,-33.63 665.81,-25.19 665.55,-35.79 672.21,-33.63"/>
</g>
<!-- Node17 -->
<g id="node17" class="node">
<title>Node17</title>
<g id="a_node17"><a xlink:title=" ">
<polygon fill="white" stroke="#bfbfbf" points="554.5,-6 554.5,-25 601.5,-25 601.5,-6 554.5,-6"/>
<text text-anchor="middle" x="578" y="-13" font-family="Helvetica,sans-Serif" font-size="10.00">vector</text>
</a>
</g>
</g>
<!-- Node15&#45;&gt;Node17 -->
<g id="edge16" class="edge">
<title>Node15&#45;&gt;Node17</title>
<path fill="none" stroke="midnightblue" d="M661,-67.4C643.06,-56.39 618.28,-41.2 600.48,-30.28"/>
<polygon fill="midnightblue" stroke="midnightblue" points="602.23,-27.25 591.87,-25.01 598.57,-33.22 602.23,-27.25"/>
</g>
<!-- Node18&#45;&gt;Node3 -->
<g id="edge25" class="edge">
<title>Node18&#45;&gt;Node3</title>
<path fill="none" stroke="midnightblue" d="M550.7,-164.53C513.54,-176.34 458.71,-193.04 420.78,-204.06"/>
<polygon fill="midnightblue" stroke="midnightblue" points="419.68,-200.73 411.04,-206.87 421.62,-207.46 419.68,-200.73"/>
</g>
<!-- Node18&#45;&gt;Node15 -->
<g id="edge20" class="edge">
<title>Node18&#45;&gt;Node15</title>
<path fill="none" stroke="midnightblue" d="M611.18,-134.4C624.1,-125.37 641.06,-113.51 655.36,-103.52"/>
<polygon fill="midnightblue" stroke="midnightblue" points="657.67,-106.17 663.86,-97.58 653.66,-100.44 657.67,-106.17"/>
</g>
<!-- Node18&#45;&gt;Node17 -->
<g id="edge26" class="edge">
<title>Node18&#45;&gt;Node17</title>
<path fill="none" stroke="midnightblue" d="M589.61,-134.37C587.25,-110.4 582.46,-61.75 579.83,-35.06"/>
<polygon fill="midnightblue" stroke="midnightblue" points="583.31,-34.71 578.85,-25.1 576.34,-35.39 583.31,-34.71"/>
</g>
<!-- Node19 -->
<g id="node19" class="node">
<title>Node19</title>
<g id="a_node19"><a xlink:href="variant__attribute_8h.html" target="_top" xlink:title=" ">
<polygon fill="white" stroke="black" points="433.5,-67.5 433.5,-97.5 562.5,-97.5 562.5,-67.5 433.5,-67.5"/>
<text text-anchor="start" x="441.5" y="-85.5" font-family="Helvetica,sans-Serif" font-size="10.00">network_butcher/Types</text>
<text text-anchor="middle" x="498" y="-74.5" font-family="Helvetica,sans-Serif" font-size="10.00">/variant_attribute.h</text>
</a>
</g>
</g>
<!-- Node18&#45;&gt;Node19 -->
<g id="edge21" class="edge">
<title>Node18&#45;&gt;Node19</title>
<path fill="none" stroke="midnightblue" d="M570.82,-134.4C557.9,-125.37 540.94,-113.51 526.64,-103.52"/>
<polygon fill="midnightblue" stroke="midnightblue" points="528.34,-100.44 518.14,-97.58 524.33,-106.17 528.34,-100.44"/>
</g>
<!-- Node19&#45;&gt;Node16 -->
<g id="edge22" class="edge">
<title>Node19&#45;&gt;Node16</title>
<path fill="none" stroke="midnightblue" d="M533.8,-67.4C563.01,-55.89 603.86,-39.8 631.76,-28.81"/>
<polygon fill="midnightblue" stroke="midnightblue" points="633.38,-31.93 641.41,-25.01 630.82,-25.42 633.38,-31.93"/>
</g>
<!-- Node19&#45;&gt;Node17 -->
<g id="edge24" class="edge">
<title>Node19&#45;&gt;Node17</title>
<path fill="none" stroke="midnightblue" d="M515.36,-67.4C528.33,-56.86 546.03,-42.48 559.31,-31.69"/>
<polygon fill="midnightblue" stroke="midnightblue" points="561.74,-34.22 567.3,-25.19 557.33,-28.78 561.74,-34.22"/>
</g>
<!-- Node20 -->
<g id="node20" class="node">
<title>Node20</title>
<g id="a_node20"><a xlink:title=" ">
<polygon fill="white" stroke="#bfbfbf" points="472.5,-6 472.5,-25 523.5,-25 523.5,-6 472.5,-6"/>
<text text-anchor="middle" x="498" y="-13" font-family="Helvetica,sans-Serif" font-size="10.00">variant</text>
</a>
</g>
</g>
<!-- Node19&#45;&gt;Node20 -->
<g id="edge23" class="edge">
<title>Node19&#45;&gt;Node20</title>
<path fill="none" stroke="midnightblue" d="M498,-67.4C498,-58.06 498,-45.71 498,-35.52"/>
<polygon fill="midnightblue" stroke="midnightblue" points="501.5,-35.19 498,-25.19 494.5,-35.19 501.5,-35.19"/>
</g>
<!-- Node22 -->
<g id="node22" class="node">
<title>Node22</title>
<g id="a_node22"><a xlink:href="weighted__graph_8h.html" target="_top" xlink:title=" ">
<polygon fill="white" stroke="black" points="764,-335.5 764,-365.5 914,-365.5 914,-335.5 764,-335.5"/>
<text text-anchor="start" x="772" y="-353.5" font-family="Helvetica,sans-Serif" font-size="10.00">network_butcher/K&#45;shortest</text>
<text text-anchor="middle" x="839" y="-342.5" font-family="Helvetica,sans-Serif" font-size="10.00">_path/weighted_graph.h</text>
</a>
</g>
</g>
<!-- Node21&#45;&gt;Node22 -->
<g id="edge29" class="edge">
<title>Node21&#45;&gt;Node22</title>
<path fill="none" stroke="midnightblue" d="M617.54,-469.37C662.48,-445.46 753.54,-396.99 803.77,-370.25"/>
<polygon fill="midnightblue" stroke="midnightblue" points="805.47,-373.31 812.65,-365.52 802.18,-367.13 805.47,-373.31"/>
</g>
<!-- Node23 -->
<g id="node23" class="node">
<title>Node23</title>
<g id="a_node23"><a xlink:href="mwgraph_8h.html" target="_top" xlink:title=" ">
<polygon fill="white" stroke="black" points="519.5,-402.5 519.5,-432.5 662.5,-432.5 662.5,-402.5 519.5,-402.5"/>
<text text-anchor="start" x="527.5" y="-420.5" font-family="Helvetica,sans-Serif" font-size="10.00">network_butcher/Network</text>
<text text-anchor="middle" x="591" y="-409.5" font-family="Helvetica,sans-Serif" font-size="10.00">/mwgraph.h</text>
</a>
</g>
</g>
<!-- Node21&#45;&gt;Node23 -->
<g id="edge31" class="edge">
<title>Node21&#45;&gt;Node23</title>
<path fill="none" stroke="midnightblue" d="M591,-469.4C591,-461.64 591,-451.81 591,-442.86"/>
<polygon fill="midnightblue" stroke="midnightblue" points="594.5,-442.58 591,-432.58 587.5,-442.58 594.5,-442.58"/>
</g>
<!-- Node22&#45;&gt;Node10 -->
<g id="edge30" class="edge">
<title>Node22&#45;&gt;Node10</title>
<path fill="none" stroke="midnightblue" d="M849.84,-335.29C865.23,-314.15 892.68,-272.52 903,-232 906.4,-218.65 908.96,-213.42 903,-201 897.05,-188.61 886.43,-178.31 875.57,-170.31"/>
<polygon fill="midnightblue" stroke="midnightblue" points="877.53,-167.41 867.3,-164.64 873.57,-173.18 877.53,-167.41"/>
</g>
<!-- Node24 -->
<g id="node24" class="node">
<title>Node24</title>
<g id="a_node24"><a xlink:href="graph_8h.html" target="_top" xlink:title=" ">
<polygon fill="white" stroke="black" points="519.5,-335.5 519.5,-365.5 662.5,-365.5 662.5,-335.5 519.5,-335.5"/>
<text text-anchor="start" x="527.5" y="-353.5" font-family="Helvetica,sans-Serif" font-size="10.00">network_butcher/Network</text>
<text text-anchor="middle" x="591" y="-342.5" font-family="Helvetica,sans-Serif" font-size="10.00">/graph.h</text>
</a>
</g>
</g>
<!-- Node23&#45;&gt;Node24 -->
<g id="edge32" class="edge">
<title>Node23&#45;&gt;Node24</title>
<path fill="none" stroke="midnightblue" d="M591,-402.4C591,-394.64 591,-384.81 591,-375.86"/>
<polygon fill="midnightblue" stroke="midnightblue" points="594.5,-375.58 591,-365.58 587.5,-375.58 594.5,-375.58"/>
</g>
<!-- Node24&#45;&gt;Node4 -->
<g id="edge33" class="edge">
<title>Node24&#45;&gt;Node4</title>
<path fill="none" stroke="midnightblue" d="M580,-335.19C552.47,-299.38 480.7,-206.04 451.08,-167.51"/>
<polygon fill="midnightblue" stroke="midnightblue" points="453.68,-165.15 444.81,-159.36 448.13,-169.42 453.68,-165.15"/>
</g>
<!-- Node24&#45;&gt;Node5 -->
<g id="edge34" class="edge">
<title>Node24&#45;&gt;Node5</title>
<path fill="none" stroke="midnightblue" d="M552.16,-335.39C468.2,-304.83 263.59,-230.02 93,-165 91.11,-164.28 89.18,-163.54 87.22,-162.78"/>
<polygon fill="midnightblue" stroke="midnightblue" points="88.08,-159.36 77.5,-159 85.55,-165.89 88.08,-159.36"/>
</g>
<!-- Node24&#45;&gt;Node17 -->
<g id="edge36" class="edge">
<title>Node24&#45;&gt;Node17</title>
<path fill="none" stroke="midnightblue" d="M519.42,-348.43C362.07,-344.14 0,-322.83 0,-217.5 0,-217.5 0,-217.5 0,-148.5 0,-45.1 509.05,-36.24 533,-31 536.86,-30.16 540.86,-29.12 544.81,-27.99"/>
<polygon fill="midnightblue" stroke="midnightblue" points="545.88,-31.32 554.41,-25.04 543.83,-24.63 545.88,-31.32"/>
</g>
<!-- Node25 -->
<g id="node25" class="node">
<title>Node25</title>
<g id="a_node25"><a xlink:title=" ">
<polygon fill="white" stroke="#bfbfbf" points="712.5,-140 712.5,-159 757.5,-159 757.5,-140 712.5,-140"/>
<text text-anchor="middle" x="735" y="-147" font-family="Helvetica,sans-Serif" font-size="10.00">utility</text>
</a>
</g>
</g>
<!-- Node24&#45;&gt;Node25 -->
<g id="edge35" class="edge">
<title>Node24&#45;&gt;Node25</title>
<path fill="none" stroke="midnightblue" d="M601.36,-335.19C627.27,-299.38 694.81,-206.04 722.69,-167.51"/>
<polygon fill="midnightblue" stroke="midnightblue" points="725.56,-169.51 728.59,-159.36 719.89,-165.41 725.56,-169.51"/>
</g>
<!-- Node26 -->
<g id="node26" class="node">
<title>Node26</title>
<g id="a_node26"><a xlink:href="content_8h.html" target="_top" xlink:title=" ">
<polygon fill="white" stroke="black" points="526.5,-201.5 526.5,-231.5 655.5,-231.5 655.5,-201.5 526.5,-201.5"/>
<text text-anchor="start" x="534.5" y="-219.5" font-family="Helvetica,sans-Serif" font-size="10.00">network_butcher/Types</text>
<text text-anchor="middle" x="591" y="-208.5" font-family="Helvetica,sans-Serif" font-size="10.00">/content.h</text>
</a>
</g>
</g>
<!-- Node24&#45;&gt;Node26 -->
<g id="edge37" class="edge">
<title>Node24&#45;&gt;Node26</title>
<path fill="none" stroke="midnightblue" d="M591,-335.37C591,-313.04 591,-269.31 591,-241.85"/>
<polygon fill="midnightblue" stroke="midnightblue" points="594.5,-241.52 591,-231.52 587.5,-241.52 594.5,-241.52"/>
</g>
<!-- Node27 -->
<g id="node27" class="node">
<title>Node27</title>
<g id="a_node27"><a xlink:href="node_8h.html" target="_top" xlink:title=" ">
<polygon fill="white" stroke="black" points="750.5,-201.5 750.5,-231.5 893.5,-231.5 893.5,-201.5 750.5,-201.5"/>
<text text-anchor="start" x="758.5" y="-219.5" font-family="Helvetica,sans-Serif" font-size="10.00">network_butcher/Network</text>
<text text-anchor="middle" x="822" y="-208.5" font-family="Helvetica,sans-Serif" font-size="10.00">/node.h</text>
</a>
</g>
</g>
<!-- Node24&#45;&gt;Node27 -->
<g id="edge40" class="edge">
<title>Node24&#45;&gt;Node27</title>
<path fill="none" stroke="midnightblue" d="M662.57,-344.71C727.45,-338.7 816.17,-325.74 838,-299 851.31,-282.69 844.24,-258.49 835.7,-240.69"/>
<polygon fill="midnightblue" stroke="midnightblue" points="838.66,-238.79 830.93,-231.55 832.46,-242.04 838.66,-238.79"/>
</g>
<!-- Node28 -->
<g id="node28" class="node">
<title>Node28</title>
<g id="a_node28"><a xlink:href="node__traits_8h.html" target="_top" xlink:title=" ">
<polygon fill="white" stroke="black" points="685.5,-268.5 685.5,-298.5 828.5,-298.5 828.5,-268.5 685.5,-268.5"/>
<text text-anchor="start" x="693.5" y="-286.5" font-family="Helvetica,sans-Serif" font-size="10.00">network_butcher/Network</text>
<text text-anchor="middle" x="757" y="-275.5" font-family="Helvetica,sans-Serif" font-size="10.00">/node_traits.h</text>
</a>
</g>
</g>
<!-- Node24&#45;&gt;Node28 -->
<g id="edge45" class="edge">
<title>Node24&#45;&gt;Node28</title>
<path fill="none" stroke="midnightblue" d="M627.02,-335.4C651.82,-325.69 684.96,-312.71 711.57,-302.29"/>
<polygon fill="midnightblue" stroke="midnightblue" points="713.02,-305.48 721.05,-298.58 710.46,-298.96 713.02,-305.48"/>
</g>
<!-- Node26&#45;&gt;Node18 -->
<g id="edge38" class="edge">
<title>Node26&#45;&gt;Node18</title>
<path fill="none" stroke="midnightblue" d="M591,-201.4C591,-193.64 591,-183.81 591,-174.86"/>
<polygon fill="midnightblue" stroke="midnightblue" points="594.5,-174.58 591,-164.58 587.5,-174.58 594.5,-174.58"/>
</g>
<!-- Node26&#45;&gt;Node19 -->
<g id="edge39" class="edge">
<title>Node26&#45;&gt;Node19</title>
<path fill="none" stroke="midnightblue" d="M561.07,-201.41C546.02,-192.88 528.75,-180.61 518,-165 506.41,-148.17 501.51,-125.31 499.46,-108.09"/>
<polygon fill="midnightblue" stroke="midnightblue" points="502.9,-107.33 498.48,-97.7 495.93,-107.99 502.9,-107.33"/>
</g>
<!-- Node27&#45;&gt;Node10 -->
<g id="edge42" class="edge">
<title>Node27&#45;&gt;Node10</title>
<path fill="none" stroke="midnightblue" d="M825.91,-201.4C828.1,-193.47 830.9,-183.38 833.42,-174.27"/>
<polygon fill="midnightblue" stroke="midnightblue" points="836.81,-175.15 836.1,-164.58 830.06,-173.28 836.81,-175.15"/>
</g>
<!-- Node27&#45;&gt;Node13 -->
<g id="edge43" class="edge">
<title>Node27&#45;&gt;Node13</title>
<path fill="none" stroke="midnightblue" d="M861.42,-201.4C879.34,-193.22 899.51,-181.28 913,-165 928.05,-146.84 934.81,-119.99 937.78,-102.13"/>
<polygon fill="midnightblue" stroke="midnightblue" points="941.26,-102.5 939.21,-92.1 934.33,-101.51 941.26,-102.5"/>
</g>
<!-- Node27&#45;&gt;Node18 -->
<g id="edge41" class="edge">
<title>Node27&#45;&gt;Node18</title>
<path fill="none" stroke="midnightblue" d="M772.16,-201.48C736.61,-191.47 688.63,-177.97 650.98,-167.38"/>
<polygon fill="midnightblue" stroke="midnightblue" points="651.72,-163.95 641.15,-164.61 649.83,-170.69 651.72,-163.95"/>
</g>
<!-- Node27&#45;&gt;Node25 -->
<g id="edge44" class="edge">
<title>Node27&#45;&gt;Node25</title>
<path fill="none" stroke="midnightblue" d="M803.12,-201.4C788.89,-190.76 769.4,-176.2 754.92,-165.38"/>
<polygon fill="midnightblue" stroke="midnightblue" points="756.74,-162.38 746.64,-159.19 752.55,-167.98 756.74,-162.38"/>
</g>
<!-- Node28&#45;&gt;Node13 -->
<g id="edge46" class="edge">
<title>Node28&#45;&gt;Node13</title>
<path fill="none" stroke="midnightblue" d="M828.66,-269.78C854.47,-262.29 882.3,-250.49 903,-232 940.24,-198.74 942.74,-134.29 941.44,-102.36"/>
<polygon fill="midnightblue" stroke="midnightblue" points="944.92,-101.97 940.85,-92.19 937.94,-102.38 944.92,-101.97"/>
</g>
<!-- Node28&#45;&gt;Node15 -->
<g id="edge49" class="edge">
<title>Node28&#45;&gt;Node15</title>
<path fill="none" stroke="midnightblue" d="M749.6,-268.37C738.47,-246.65 717.28,-203.5 704,-165 697.45,-146.02 692.16,-123.86 688.67,-107.44"/>
<polygon fill="midnightblue" stroke="midnightblue" points="692.08,-106.66 686.64,-97.57 685.22,-108.07 692.08,-106.66"/>
</g>
<!-- Node28&#45;&gt;Node26 -->
<g id="edge47" class="edge">
<title>Node28&#45;&gt;Node26</title>
<path fill="none" stroke="midnightblue" d="M720.98,-268.4C696.18,-258.69 663.04,-245.71 636.43,-235.29"/>
<polygon fill="midnightblue" stroke="midnightblue" points="637.54,-231.96 626.95,-231.58 634.98,-238.48 637.54,-231.96"/>
</g>
<!-- Node28&#45;&gt;Node27 -->
<g id="edge48" class="edge">
<title>Node28&#45;&gt;Node27</title>
<path fill="none" stroke="midnightblue" d="M771.1,-268.4C779.79,-259.71 791.1,-248.4 800.84,-238.66"/>
<polygon fill="midnightblue" stroke="midnightblue" points="803.33,-241.12 807.92,-231.58 798.38,-236.17 803.33,-241.12"/>
</g>
</g>
</svg>
