<?xml version="1.0" encoding="UTF-8" standalone="no"?>
<!DOCTYPE svg PUBLIC "-//W3C//DTD SVG 1.1//EN"
 "http://www.w3.org/Graphics/SVG/1.1/DTD/svg11.dtd">
<!-- Generated by graphviz version 2.43.0 (0)
 -->
<!-- Title: include/network_butcher/Computer/computer_memory.h Pages: 1 -->
<svg width="580pt" height="652pt"
 viewBox="0.00 0.00 579.50 652.00" xmlns="http://www.w3.org/2000/svg" xmlns:xlink="http://www.w3.org/1999/xlink">
<g id="graph0" class="graph" transform="scale(1 1) rotate(0) translate(4 648)">
<title>include/network_butcher/Computer/computer_memory.h</title>
<polygon fill="white" stroke="transparent" points="-4,4 -4,-648 575.5,-648 575.5,4 -4,4"/>
<!-- Node1 -->
<g id="node1" class="node">
<title>Node1</title>
<g id="a_node1"><a xlink:title=" ">
<polygon fill="#bfbfbf" stroke="black" points="35,-613.5 35,-643.5 206,-643.5 206,-613.5 35,-613.5"/>
<text text-anchor="start" x="43" y="-631.5" font-family="Helvetica,sans-Serif" font-size="10.00">include/network_butcher</text>
<text text-anchor="middle" x="120.5" y="-620.5" font-family="Helvetica,sans-Serif" font-size="10.00">/Computer/computer_memory.h</text>
</a>
</g>
</g>
<!-- Node2 -->
<g id="node2" class="node">
<title>Node2</title>
<g id="a_node2"><a xlink:href="butcher_8h.html" target="_top" xlink:title=" ">
<polygon fill="white" stroke="black" points="104,-290.5 104,-320.5 241,-320.5 241,-290.5 104,-290.5"/>
<text text-anchor="start" x="112" y="-308.5" font-family="Helvetica,sans-Serif" font-size="10.00">include/network_butcher</text>
<text text-anchor="middle" x="172.5" y="-297.5" font-family="Helvetica,sans-Serif" font-size="10.00">/Butcher/butcher.h</text>
</a>
</g>
</g>
<!-- Node1&#45;&gt;Node2 -->
<g id="edge1" class="edge">
<title>Node1&#45;&gt;Node2</title>
<path fill="none" stroke="midnightblue" d="M101.91,-605.14C96.12,-596.83 90.47,-586.98 87.5,-577 74.12,-532.07 50.29,-425.78 89.5,-357 98.94,-340.44 116.22,-328.66 132.57,-320.67"/>
<polygon fill="midnightblue" stroke="midnightblue" points="99.11,-607.25 107.89,-613.19 104.73,-603.07 99.11,-607.25"/>
</g>
<!-- Node6 -->
<g id="node6" class="node">
<title>Node6</title>
<g id="a_node6"><a xlink:href="network__butcher_8h.html" target="_top" xlink:title=" ">
<polygon fill="white" stroke="black" points="0,-0.5 0,-30.5 137,-30.5 137,-0.5 0,-0.5"/>
<text text-anchor="start" x="8" y="-18.5" font-family="Helvetica,sans-Serif" font-size="10.00">include/network_butcher</text>
<text text-anchor="middle" x="68.5" y="-7.5" font-family="Helvetica,sans-Serif" font-size="10.00">/network_butcher.h</text>
</a>
</g>
</g>
<!-- Node1&#45;&gt;Node6 -->
<g id="edge23" class="edge">
<title>Node1&#45;&gt;Node6</title>
<path fill="none" stroke="midnightblue" d="M96.2,-606.55C87.5,-598.07 78.19,-587.75 71.5,-577 42.92,-531.12 30.5,-516.55 30.5,-462.5 30.5,-462.5 30.5,-462.5 30.5,-154 30.5,-107.44 50.99,-55.11 61.88,-30.6"/>
<polygon fill="midnightblue" stroke="midnightblue" points="93.93,-609.21 103.62,-613.49 98.71,-604.1 93.93,-609.21"/>
</g>
<!-- Node12 -->
<g id="node12" class="node">
<title>Node12</title>
<g id="a_node12"><a xlink:href="graph__constraint_8h.html" target="_top" xlink:title=" ">
<polygon fill="white" stroke="black" points="97,-535.5 97,-565.5 248,-565.5 248,-535.5 97,-535.5"/>
<text text-anchor="start" x="105" y="-553.5" font-family="Helvetica,sans-Serif" font-size="10.00">include/network_butcher</text>
<text text-anchor="middle" x="172.5" y="-542.5" font-family="Helvetica,sans-Serif" font-size="10.00">/Butcher/graph_constraint.h</text>
</a>
</g>
</g>
<!-- Node1&#45;&gt;Node12 -->
<g id="edge14" class="edge">
<title>Node1&#45;&gt;Node12</title>
<path fill="none" stroke="midnightblue" d="M135.94,-604.94C144.63,-592.23 155.22,-576.75 162.76,-565.73"/>
<polygon fill="midnightblue" stroke="midnightblue" points="133.04,-602.98 130.28,-613.2 138.82,-606.93 133.04,-602.98"/>
</g>
<!-- Node14 -->
<g id="node14" class="node">
<title>Node14</title>
<g id="a_node14"><a xlink:href="block__aMLLibrary__weight__importer_8h.html" target="_top" xlink:title=" ">
<polygon fill="white" stroke="black" points="266.5,-524.5 266.5,-576.5 436.5,-576.5 436.5,-524.5 266.5,-524.5"/>
<text text-anchor="start" x="274.5" y="-564.5" font-family="Helvetica,sans-Serif" font-size="10.00">include/network_butcher</text>
<text text-anchor="start" x="274.5" y="-553.5" font-family="Helvetica,sans-Serif" font-size="10.00">/IO_Interaction/Weight</text>
<text text-anchor="start" x="274.5" y="-542.5" font-family="Helvetica,sans-Serif" font-size="10.00">_Importer_Helpers/block</text>
<text text-anchor="middle" x="351.5" y="-531.5" font-family="Helvetica,sans-Serif" font-size="10.00">_aMLLibrary_weight_importer.h</text>
</a>
</g>
</g>
<!-- Node1&#45;&gt;Node14 -->
<g id="edge17" class="edge">
<title>Node1&#45;&gt;Node14</title>
<path fill="none" stroke="midnightblue" d="M172.67,-610.33C203.01,-600.35 241.78,-587.6 275.46,-576.52"/>
<polygon fill="midnightblue" stroke="midnightblue" points="171.54,-607.02 163.14,-613.47 173.73,-613.67 171.54,-607.02"/>
</g>
<!-- Node3 -->
<g id="node3" class="node">
<title>Node3</title>
<g id="a_node3"><a xlink:href="onnx__importer__helpers_8h.html" target="_top" xlink:title=" ">
<polygon fill="white" stroke="black" points="266.5,-212.5 266.5,-253.5 428.5,-253.5 428.5,-212.5 266.5,-212.5"/>
<text text-anchor="start" x="274.5" y="-241.5" font-family="Helvetica,sans-Serif" font-size="10.00">include/network_butcher</text>
<text text-anchor="start" x="274.5" y="-230.5" font-family="Helvetica,sans-Serif" font-size="10.00">/IO_Interaction/onnx_importer</text>
<text text-anchor="middle" x="347.5" y="-219.5" font-family="Helvetica,sans-Serif" font-size="10.00">_helpers.h</text>
</a>
</g>
</g>
<!-- Node2&#45;&gt;Node3 -->
<g id="edge2" class="edge">
<title>Node2&#45;&gt;Node3</title>
<path fill="none" stroke="midnightblue" d="M217.1,-286.53C242.12,-276.45 273.35,-263.87 298.98,-253.55"/>
<polygon fill="midnightblue" stroke="midnightblue" points="215.46,-283.42 207.49,-290.4 218.08,-289.91 215.46,-283.42"/>
</g>
<!-- Node2&#45;&gt;Node6 -->
<g id="edge13" class="edge">
<title>Node2&#45;&gt;Node6</title>
<path fill="none" stroke="midnightblue" d="M123.5,-285.76C109.62,-278.03 95.99,-267.62 87.5,-254 42,-180.98 57.89,-69.83 65.45,-30.72"/>
<polygon fill="midnightblue" stroke="midnightblue" points="122.12,-288.98 132.61,-290.45 125.32,-282.76 122.12,-288.98"/>
</g>
<!-- Node10 -->
<g id="node10" class="node">
<title>Node10</title>
<g id="a_node10"><a xlink:href="onnx__model__reconstructor__helpers_8h.html" target="_top" xlink:title=" ">
<polygon fill="white" stroke="black" points="97,-212.5 97,-253.5 248,-253.5 248,-212.5 97,-212.5"/>
<text text-anchor="start" x="105" y="-241.5" font-family="Helvetica,sans-Serif" font-size="10.00">include/network_butcher</text>
<text text-anchor="start" x="105" y="-230.5" font-family="Helvetica,sans-Serif" font-size="10.00">/IO_Interaction/onnx_model</text>
<text text-anchor="middle" x="172.5" y="-219.5" font-family="Helvetica,sans-Serif" font-size="10.00">_reconstructor_helpers.h</text>
</a>
</g>
</g>
<!-- Node2&#45;&gt;Node10 -->
<g id="edge10" class="edge">
<title>Node2&#45;&gt;Node10</title>
<path fill="none" stroke="midnightblue" d="M172.5,-279.98C172.5,-271.35 172.5,-261.76 172.5,-253.59"/>
<polygon fill="midnightblue" stroke="midnightblue" points="169,-280.23 172.5,-290.23 176,-280.23 169,-280.23"/>
</g>
<!-- Node4 -->
<g id="node4" class="node">
<title>Node4</title>
<g id="a_node4"><a xlink:href="io__manager_8h.html" target="_top" xlink:title=" ">
<polygon fill="white" stroke="black" points="264,-140 264,-170 401,-170 401,-140 264,-140"/>
<text text-anchor="start" x="272" y="-158" font-family="Helvetica,sans-Serif" font-size="10.00">include/network_butcher</text>
<text text-anchor="middle" x="332.5" y="-147" font-family="Helvetica,sans-Serif" font-size="10.00">/io_manager.h</text>
</a>
</g>
</g>
<!-- Node3&#45;&gt;Node4 -->
<g id="edge3" class="edge">
<title>Node3&#45;&gt;Node4</title>
<path fill="none" stroke="midnightblue" d="M341.63,-202.28C339.46,-191.25 337.09,-179.25 335.31,-170.23"/>
<polygon fill="midnightblue" stroke="midnightblue" points="338.27,-203.3 343.64,-212.43 345.13,-201.94 338.27,-203.3"/>
</g>
<!-- Node9 -->
<g id="node9" class="node">
<title>Node9</title>
<g id="a_node9"><a xlink:href="onnx__importer__helpers_8cpp.html" target="_top" xlink:title=" ">
<polygon fill="white" stroke="black" points="419.5,-140 419.5,-170 571.5,-170 571.5,-140 419.5,-140"/>
<text text-anchor="start" x="427.5" y="-158" font-family="Helvetica,sans-Serif" font-size="10.00">src/IO_Interaction</text>
<text text-anchor="middle" x="495.5" y="-147" font-family="Helvetica,sans-Serif" font-size="10.00">/onnx_importer_helpers.cpp</text>
</a>
</g>
</g>
<!-- Node3&#45;&gt;Node9 -->
<g id="edge9" class="edge">
<title>Node3&#45;&gt;Node9</title>
<path fill="none" stroke="midnightblue" d="M394.61,-207.81C418.72,-195.43 447.24,-180.78 467.8,-170.23"/>
<polygon fill="midnightblue" stroke="midnightblue" points="392.91,-204.75 385.61,-212.43 396.11,-210.97 392.91,-204.75"/>
</g>
<!-- Node5 -->
<g id="node5" class="node">
<title>Node5</title>
<g id="a_node5"><a xlink:href="general__manager_8h.html" target="_top" xlink:title=" ">
<polygon fill="white" stroke="black" points="151,-67.5 151,-97.5 288,-97.5 288,-67.5 151,-67.5"/>
<text text-anchor="start" x="159" y="-85.5" font-family="Helvetica,sans-Serif" font-size="10.00">include/network_butcher</text>
<text text-anchor="middle" x="219.5" y="-74.5" font-family="Helvetica,sans-Serif" font-size="10.00">/general_manager.h</text>
</a>
</g>
</g>
<!-- Node4&#45;&gt;Node5 -->
<g id="edge4" class="edge">
<title>Node4&#45;&gt;Node5</title>
<path fill="none" stroke="midnightblue" d="M301.38,-134.58C282.58,-122.86 259.06,-108.18 242.06,-97.57"/>
<polygon fill="midnightblue" stroke="midnightblue" points="299.57,-137.58 309.9,-139.9 303.27,-131.64 299.57,-137.58"/>
</g>
<!-- Node4&#45;&gt;Node6 -->
<g id="edge7" class="edge">
<title>Node4&#45;&gt;Node6</title>
<path fill="none" stroke="midnightblue" d="M269.24,-137.3C218.02,-123.48 152.62,-105.01 141.5,-98 113.55,-80.37 89.87,-49.05 77.57,-30.8"/>
<polygon fill="midnightblue" stroke="midnightblue" points="268.38,-140.7 278.94,-139.91 270.2,-133.94 268.38,-140.7"/>
</g>
<!-- Node8 -->
<g id="node8" class="node">
<title>Node8</title>
<g id="a_node8"><a xlink:href="io__manager_8cpp.html" target="_top" xlink:title=" ">
<polygon fill="white" stroke="black" points="306,-73 306,-92 417,-92 417,-73 306,-73"/>
<text text-anchor="middle" x="361.5" y="-80" font-family="Helvetica,sans-Serif" font-size="10.00">src/io_manager.cpp</text>
</a>
</g>
</g>
<!-- Node4&#45;&gt;Node8 -->
<g id="edge8" class="edge">
<title>Node4&#45;&gt;Node8</title>
<path fill="none" stroke="midnightblue" d="M342.22,-130.36C347.59,-117.32 353.94,-101.88 357.84,-92.39"/>
<polygon fill="midnightblue" stroke="midnightblue" points="338.94,-129.15 338.37,-139.73 345.41,-131.82 338.94,-129.15"/>
</g>
<!-- Node5&#45;&gt;Node6 -->
<g id="edge5" class="edge">
<title>Node5&#45;&gt;Node6</title>
<path fill="none" stroke="midnightblue" d="M177.47,-63.41C153.36,-53.03 123.55,-40.2 101.2,-30.58"/>
<polygon fill="midnightblue" stroke="midnightblue" points="176.17,-66.66 186.74,-67.4 178.93,-60.23 176.17,-66.66"/>
</g>
<!-- Node7 -->
<g id="node7" class="node">
<title>Node7</title>
<g id="a_node7"><a xlink:href="general__manager_8cpp.html" target="_top" xlink:title=" ">
<polygon fill="white" stroke="black" points="155,-6 155,-25 294,-25 294,-6 155,-6"/>
<text text-anchor="middle" x="224.5" y="-13" font-family="Helvetica,sans-Serif" font-size="10.00">src/general_manager.cpp</text>
</a>
</g>
</g>
<!-- Node5&#45;&gt;Node7 -->
<g id="edge6" class="edge">
<title>Node5&#45;&gt;Node7</title>
<path fill="none" stroke="midnightblue" d="M221.37,-57.25C222.23,-46.02 223.2,-33.38 223.83,-25.19"/>
<polygon fill="midnightblue" stroke="midnightblue" points="217.86,-57.16 220.58,-67.4 224.84,-57.69 217.86,-57.16"/>
</g>
<!-- Node10&#45;&gt;Node4 -->
<g id="edge11" class="edge">
<title>Node10&#45;&gt;Node4</title>
<path fill="none" stroke="midnightblue" d="M222.75,-208.13C248.96,-195.68 280.14,-180.87 302.55,-170.23"/>
<polygon fill="midnightblue" stroke="midnightblue" points="221.24,-204.98 213.7,-212.43 224.24,-211.3 221.24,-204.98"/>
</g>
<!-- Node11 -->
<g id="node11" class="node">
<title>Node11</title>
<g id="a_node11"><a xlink:href="onnx__model__reconstructor__helpers_8cpp.html" target="_top" xlink:title=" ">
<polygon fill="white" stroke="black" points="97,-134.5 97,-175.5 246,-175.5 246,-134.5 97,-134.5"/>
<text text-anchor="start" x="105" y="-163.5" font-family="Helvetica,sans-Serif" font-size="10.00">src/IO_Interaction</text>
<text text-anchor="start" x="105" y="-152.5" font-family="Helvetica,sans-Serif" font-size="10.00">/onnx_model_reconstructor</text>
<text text-anchor="middle" x="171.5" y="-141.5" font-family="Helvetica,sans-Serif" font-size="10.00">_helpers.cpp</text>
</a>
</g>
</g>
<!-- Node10&#45;&gt;Node11 -->
<g id="edge12" class="edge">
<title>Node10&#45;&gt;Node11</title>
<path fill="none" stroke="midnightblue" d="M172.11,-202.3C171.99,-193.3 171.86,-183.65 171.76,-175.51"/>
<polygon fill="midnightblue" stroke="midnightblue" points="168.61,-202.48 172.24,-212.43 175.61,-202.38 168.61,-202.48"/>
</g>
<!-- Node13 -->
<g id="node13" class="node">
<title>Node13</title>
<g id="a_node13"><a xlink:href="constrained__block__graph__builder_8h.html" target="_top" xlink:title=" ">
<polygon fill="white" stroke="black" points="98,-357.5 98,-398.5 247,-398.5 247,-357.5 98,-357.5"/>
<text text-anchor="start" x="106" y="-386.5" font-family="Helvetica,sans-Serif" font-size="10.00">include/network_butcher</text>
<text text-anchor="start" x="106" y="-375.5" font-family="Helvetica,sans-Serif" font-size="10.00">/Butcher/constrained_block</text>
<text text-anchor="middle" x="172.5" y="-364.5" font-family="Helvetica,sans-Serif" font-size="10.00">_graph_builder.h</text>
</a>
</g>
</g>
<!-- Node12&#45;&gt;Node13 -->
<g id="edge15" class="edge">
<title>Node12&#45;&gt;Node13</title>
<path fill="none" stroke="midnightblue" d="M172.5,-525.25C172.5,-491.26 172.5,-430.11 172.5,-398.74"/>
<polygon fill="midnightblue" stroke="midnightblue" points="169,-525.26 172.5,-535.26 176,-525.26 169,-525.26"/>
</g>
<!-- Node13&#45;&gt;Node2 -->
<g id="edge16" class="edge">
<title>Node13&#45;&gt;Node2</title>
<path fill="none" stroke="midnightblue" d="M172.5,-347.08C172.5,-338.01 172.5,-328.45 172.5,-320.89"/>
<polygon fill="midnightblue" stroke="midnightblue" points="169,-347.36 172.5,-357.36 176,-347.36 169,-347.36"/>
</g>
<!-- Node15 -->
<g id="node15" class="node">
<title>Node15</title>
<g id="a_node15"><a xlink:href="weight__importers_8h.html" target="_top" xlink:title=" ">
<polygon fill="white" stroke="black" points="206,-441 206,-482 343,-482 343,-441 206,-441"/>
<text text-anchor="start" x="214" y="-470" font-family="Helvetica,sans-Serif" font-size="10.00">include/network_butcher</text>
<text text-anchor="start" x="214" y="-459" font-family="Helvetica,sans-Serif" font-size="10.00">/IO_Interaction/weight</text>
<text text-anchor="middle" x="274.5" y="-448" font-family="Helvetica,sans-Serif" font-size="10.00">_importers.h</text>
</a>
</g>
</g>
<!-- Node14&#45;&gt;Node15 -->
<g id="edge18" class="edge">
<title>Node14&#45;&gt;Node15</title>
<path fill="none" stroke="midnightblue" d="M322.6,-516.85C312.25,-505.15 300.9,-492.33 291.83,-482.08"/>
<polygon fill="midnightblue" stroke="midnightblue" points="319.98,-519.17 329.23,-524.34 325.22,-514.53 319.98,-519.17"/>
</g>
<!-- Node16 -->
<g id="node16" class="node">
<title>Node16</title>
<g id="a_node16"><a xlink:href="block__aMLLibrary__weight__importer_8cpp.html" target="_top" xlink:title=" ">
<polygon fill="white" stroke="black" points="361,-435.5 361,-487.5 504,-487.5 504,-435.5 361,-435.5"/>
<text text-anchor="start" x="369" y="-475.5" font-family="Helvetica,sans-Serif" font-size="10.00">src/IO_Interaction</text>
<text text-anchor="start" x="369" y="-464.5" font-family="Helvetica,sans-Serif" font-size="10.00">/Weight_Importer_Helpers</text>
<text text-anchor="start" x="369" y="-453.5" font-family="Helvetica,sans-Serif" font-size="10.00">/block_aMLLibrary_weight</text>
<text text-anchor="middle" x="432.5" y="-442.5" font-family="Helvetica,sans-Serif" font-size="10.00">_importer.cpp</text>
</a>
</g>
</g>
<!-- Node14&#45;&gt;Node16 -->
<g id="edge22" class="edge">
<title>Node14&#45;&gt;Node16</title>
<path fill="none" stroke="midnightblue" d="M381.95,-516.79C390.95,-507.13 400.65,-496.71 409.12,-487.61"/>
<polygon fill="midnightblue" stroke="midnightblue" points="379.18,-514.63 374.93,-524.34 384.3,-519.4 379.18,-514.63"/>
</g>
<!-- Node15&#45;&gt;Node2 -->
<g id="edge19" class="edge">
<title>Node15&#45;&gt;Node2</title>
<path fill="none" stroke="midnightblue" d="M275.33,-430.62C274.54,-408.51 270.37,-378.6 255.5,-357 244.31,-340.74 226.01,-328.8 209.44,-320.62"/>
<polygon fill="midnightblue" stroke="midnightblue" points="271.83,-430.83 275.48,-440.78 278.83,-430.73 271.83,-430.83"/>
</g>
<!-- Node15&#45;&gt;Node4 -->
<g id="edge21" class="edge">
<title>Node15&#45;&gt;Node4</title>
<path fill="none" stroke="midnightblue" d="M305.36,-434.14C344.86,-398.16 411.31,-329.44 437.5,-254 443.62,-236.37 447.1,-228.01 437.5,-212 425.44,-191.89 403.43,-178.61 382.67,-170.05"/>
<polygon fill="midnightblue" stroke="midnightblue" points="302.94,-431.61 297.84,-440.9 307.62,-436.82 302.94,-431.61"/>
</g>
<!-- Node15&#45;&gt;Node13 -->
<g id="edge20" class="edge">
<title>Node15&#45;&gt;Node13</title>
<path fill="none" stroke="midnightblue" d="M242.24,-434.72C227.63,-423.05 210.64,-409.47 197.09,-398.64"/>
<polygon fill="midnightblue" stroke="midnightblue" points="240.07,-437.47 250.07,-440.98 244.44,-432 240.07,-437.47"/>
</g>
</g>
</svg>
