<?xml version="1.0" encoding="UTF-8" standalone="no"?>
<!DOCTYPE svg PUBLIC "-//W3C//DTD SVG 1.1//EN"
 "http://www.w3.org/Graphics/SVG/1.1/DTD/svg11.dtd">
<!-- Generated by graphviz version 2.43.0 (0)
 -->
<!-- Title: include/Computer/computer_memory.h Pages: 1 -->
<svg width="636pt" height="608pt"
 viewBox="0.00 0.00 636.00 608.00" xmlns="http://www.w3.org/2000/svg" xmlns:xlink="http://www.w3.org/1999/xlink">
<g id="graph0" class="graph" transform="scale(1 1) rotate(0) translate(4 604)">
<title>include/Computer/computer_memory.h</title>
<polygon fill="white" stroke="transparent" points="-4,4 -4,-604 632,-604 632,4 -4,4"/>
<!-- Node1 -->
<g id="node1" class="node">
<title>Node1</title>
<g id="a_node1"><a xlink:title=" ">
<polygon fill="#bfbfbf" stroke="black" points="433.5,-569.5 433.5,-599.5 585.5,-599.5 585.5,-569.5 433.5,-569.5"/>
<text text-anchor="start" x="441.5" y="-587.5" font-family="Helvetica,sans-Serif" font-size="10.00">include/Computer/computer</text>
<text text-anchor="middle" x="509.5" y="-576.5" font-family="Helvetica,sans-Serif" font-size="10.00">_memory.h</text>
</a>
</g>
</g>
<!-- Node2 -->
<g id="node2" class="node">
<title>Node2</title>
<g id="a_node2"><a xlink:href="butcher_8h.html" target="_top" xlink:title=" ">
<polygon fill="white" stroke="black" points="378.5,-268.5 378.5,-287.5 518.5,-287.5 518.5,-268.5 378.5,-268.5"/>
<text text-anchor="middle" x="448.5" y="-275.5" font-family="Helvetica,sans-Serif" font-size="10.00">include/Butcher/butcher.h</text>
</a>
</g>
</g>
<!-- Node1&#45;&gt;Node2 -->
<g id="edge1" class="edge">
<title>Node1&#45;&gt;Node2</title>
<path fill="none" stroke="midnightblue" d="M524.27,-560.47C528.81,-552.15 533.21,-542.47 535.5,-533 546.43,-487.9 562.7,-371.81 533.5,-324 522.18,-305.48 500.44,-294.16 481.78,-287.51"/>
<polygon fill="midnightblue" stroke="midnightblue" points="521.2,-558.8 519.2,-569.21 527.25,-562.32 521.2,-558.8"/>
</g>
<!-- Node8 -->
<g id="node8" class="node">
<title>Node8</title>
<g id="a_node8"><a xlink:href="network__butcher_8h.html" target="_top" xlink:title=" ">
<polygon fill="white" stroke="black" points="483,-56.5 483,-75.5 628,-75.5 628,-56.5 483,-56.5"/>
<text text-anchor="middle" x="555.5" y="-63.5" font-family="Helvetica,sans-Serif" font-size="10.00">include/network_butcher.h</text>
</a>
</g>
</g>
<!-- Node1&#45;&gt;Node8 -->
<g id="edge23" class="edge">
<title>Node1&#45;&gt;Node8</title>
<path fill="none" stroke="midnightblue" d="M531.51,-561.94C539.25,-553.47 547.51,-543.31 553.5,-533 580.58,-486.39 593.5,-472.4 593.5,-418.5 593.5,-418.5 593.5,-418.5 593.5,-210 593.5,-157.6 569.37,-97.9 559.57,-75.82"/>
<polygon fill="midnightblue" stroke="midnightblue" points="528.96,-559.54 524.62,-569.2 534.04,-564.36 528.96,-559.54"/>
</g>
<!-- Node13 -->
<g id="node13" class="node">
<title>Node13</title>
<g id="a_node13"><a xlink:href="graph__constraint_8h.html" target="_top" xlink:title=" ">
<polygon fill="white" stroke="black" points="403,-491.5 403,-521.5 526,-521.5 526,-491.5 403,-491.5"/>
<text text-anchor="start" x="411" y="-509.5" font-family="Helvetica,sans-Serif" font-size="10.00">include/Butcher/graph</text>
<text text-anchor="middle" x="464.5" y="-498.5" font-family="Helvetica,sans-Serif" font-size="10.00">_constraint.h</text>
</a>
</g>
</g>
<!-- Node1&#45;&gt;Node13 -->
<g id="edge14" class="edge">
<title>Node1&#45;&gt;Node13</title>
<path fill="none" stroke="midnightblue" d="M495.93,-560.57C488.44,-547.94 479.39,-532.65 472.93,-521.73"/>
<polygon fill="midnightblue" stroke="midnightblue" points="492.93,-562.38 501.04,-569.2 498.95,-558.82 492.93,-562.38"/>
</g>
<!-- Node15 -->
<g id="node15" class="node">
<title>Node15</title>
<g id="a_node15"><a xlink:href="block__aMLLibrary__weight__importer_8h.html" target="_top" xlink:title=" ">
<polygon fill="white" stroke="black" points="242,-480.5 242,-532.5 385,-532.5 385,-480.5 242,-480.5"/>
<text text-anchor="start" x="250" y="-520.5" font-family="Helvetica,sans-Serif" font-size="10.00">include/IO_Interaction</text>
<text text-anchor="start" x="250" y="-509.5" font-family="Helvetica,sans-Serif" font-size="10.00">/Weight_Importer_Helpers</text>
<text text-anchor="start" x="250" y="-498.5" font-family="Helvetica,sans-Serif" font-size="10.00">/block_aMLLibrary_weight</text>
<text text-anchor="middle" x="313.5" y="-487.5" font-family="Helvetica,sans-Serif" font-size="10.00">_importer.h</text>
</a>
</g>
</g>
<!-- Node1&#45;&gt;Node15 -->
<g id="edge17" class="edge">
<title>Node1&#45;&gt;Node15</title>
<path fill="none" stroke="midnightblue" d="M463.7,-565.74C438.27,-555.88 406.23,-543.45 378.27,-532.62"/>
<polygon fill="midnightblue" stroke="midnightblue" points="462.5,-569.03 473.09,-569.38 465.03,-562.5 462.5,-569.03"/>
</g>
<!-- Node3 -->
<g id="node3" class="node">
<title>Node3</title>
<g id="a_node3"><a xlink:href="onnx__importer__helpers_8h.html" target="_top" xlink:title=" ">
<polygon fill="white" stroke="black" points="214,-196 214,-226 355,-226 355,-196 214,-196"/>
<text text-anchor="start" x="222" y="-214" font-family="Helvetica,sans-Serif" font-size="10.00">include/IO_Interaction</text>
<text text-anchor="middle" x="284.5" y="-203" font-family="Helvetica,sans-Serif" font-size="10.00">/onnx_importer_helpers.h</text>
</a>
</g>
</g>
<!-- Node2&#45;&gt;Node3 -->
<g id="edge2" class="edge">
<title>Node2&#45;&gt;Node3</title>
<path fill="none" stroke="midnightblue" d="M417.11,-264.56C389.33,-253.55 348.82,-237.49 319.89,-226.03"/>
<polygon fill="midnightblue" stroke="midnightblue" points="416.14,-267.94 426.72,-268.37 418.72,-261.43 416.14,-267.94"/>
</g>
<!-- Node2&#45;&gt;Node8 -->
<g id="edge13" class="edge">
<title>Node2&#45;&gt;Node8</title>
<path fill="none" stroke="midnightblue" d="M488.21,-264.4C504.11,-257.36 521.09,-246.92 531.5,-232 566.45,-181.91 560.09,-102.3 556.78,-75.86"/>
<polygon fill="midnightblue" stroke="midnightblue" points="486.46,-261.33 478.52,-268.35 489.1,-267.82 486.46,-261.33"/>
</g>
<!-- Node11 -->
<g id="node11" class="node">
<title>Node11</title>
<g id="a_node11"><a xlink:href="onnx__model__reconstructor__helpers_8h.html" target="_top" xlink:title=" ">
<polygon fill="white" stroke="black" points="374,-190.5 374,-231.5 523,-231.5 523,-190.5 374,-190.5"/>
<text text-anchor="start" x="382" y="-219.5" font-family="Helvetica,sans-Serif" font-size="10.00">include/IO_Interaction</text>
<text text-anchor="start" x="382" y="-208.5" font-family="Helvetica,sans-Serif" font-size="10.00">/onnx_model_reconstructor</text>
<text text-anchor="middle" x="448.5" y="-197.5" font-family="Helvetica,sans-Serif" font-size="10.00">_helpers.h</text>
</a>
</g>
</g>
<!-- Node2&#45;&gt;Node11 -->
<g id="edge10" class="edge">
<title>Node2&#45;&gt;Node11</title>
<path fill="none" stroke="midnightblue" d="M448.5,-258.04C448.5,-249.71 448.5,-239.94 448.5,-231.54"/>
<polygon fill="midnightblue" stroke="midnightblue" points="445,-258.23 448.5,-268.23 452,-258.23 445,-258.23"/>
</g>
<!-- Node4 -->
<g id="node4" class="node">
<title>Node4</title>
<g id="a_node4"><a xlink:href="io__manager_8h.html" target="_top" xlink:title=" ">
<polygon fill="white" stroke="black" points="69,-123.5 69,-142.5 190,-142.5 190,-123.5 69,-123.5"/>
<text text-anchor="middle" x="129.5" y="-130.5" font-family="Helvetica,sans-Serif" font-size="10.00">include/io_manager.h</text>
</a>
</g>
</g>
<!-- Node3&#45;&gt;Node4 -->
<g id="edge3" class="edge">
<title>Node3&#45;&gt;Node4</title>
<path fill="none" stroke="midnightblue" d="M246.7,-191.47C214.99,-175.92 171.12,-154.41 147.05,-142.61"/>
<polygon fill="midnightblue" stroke="midnightblue" points="245.19,-194.62 255.71,-195.88 248.27,-188.34 245.19,-194.62"/>
</g>
<!-- Node10 -->
<g id="node10" class="node">
<title>Node10</title>
<g id="a_node10"><a xlink:href="onnx__importer__helpers_8cpp.html" target="_top" xlink:title=" ">
<polygon fill="white" stroke="black" points="208.5,-118 208.5,-148 360.5,-148 360.5,-118 208.5,-118"/>
<text text-anchor="start" x="216.5" y="-136" font-family="Helvetica,sans-Serif" font-size="10.00">src/IO_Interaction</text>
<text text-anchor="middle" x="284.5" y="-125" font-family="Helvetica,sans-Serif" font-size="10.00">/onnx_importer_helpers.cpp</text>
</a>
</g>
</g>
<!-- Node3&#45;&gt;Node10 -->
<g id="edge9" class="edge">
<title>Node3&#45;&gt;Node10</title>
<path fill="none" stroke="midnightblue" d="M284.5,-185.59C284.5,-173.26 284.5,-158.72 284.5,-148.23"/>
<polygon fill="midnightblue" stroke="midnightblue" points="281,-185.7 284.5,-195.7 288,-185.71 281,-185.7"/>
</g>
<!-- Node5 -->
<g id="node5" class="node">
<title>Node5</title>
<g id="a_node5"><a xlink:href="general__manager_8h.html" target="_top" xlink:title=" ">
<polygon fill="white" stroke="black" points="129,-56.5 129,-75.5 278,-75.5 278,-56.5 129,-56.5"/>
<text text-anchor="middle" x="203.5" y="-63.5" font-family="Helvetica,sans-Serif" font-size="10.00">include/general_manager.h</text>
</a>
</g>
</g>
<!-- Node4&#45;&gt;Node5 -->
<g id="edge4" class="edge">
<title>Node4&#45;&gt;Node5</title>
<path fill="none" stroke="midnightblue" d="M147.31,-116.36C161.86,-103.58 181.88,-85.99 193.68,-75.63"/>
<polygon fill="midnightblue" stroke="midnightblue" points="144.68,-114 139.48,-123.23 149.3,-119.26 144.68,-114"/>
</g>
<!-- Node4&#45;&gt;Node8 -->
<g id="edge7" class="edge">
<title>Node4&#45;&gt;Node8</title>
<path fill="none" stroke="midnightblue" d="M165.45,-120.59C176.3,-117.46 188.31,-114.29 199.5,-112 296.54,-92.13 410.37,-79.58 482.7,-72.93"/>
<polygon fill="midnightblue" stroke="midnightblue" points="164.45,-117.24 155.86,-123.44 166.44,-123.95 164.45,-117.24"/>
</g>
<!-- Node9 -->
<g id="node9" class="node">
<title>Node9</title>
<g id="a_node9"><a xlink:href="io__manager_8cpp.html" target="_top" xlink:title=" ">
<polygon fill="white" stroke="black" points="0,-56.5 0,-75.5 111,-75.5 111,-56.5 0,-56.5"/>
<text text-anchor="middle" x="55.5" y="-63.5" font-family="Helvetica,sans-Serif" font-size="10.00">src/io_manager.cpp</text>
</a>
</g>
</g>
<!-- Node4&#45;&gt;Node9 -->
<g id="edge8" class="edge">
<title>Node4&#45;&gt;Node9</title>
<path fill="none" stroke="midnightblue" d="M111.69,-116.36C97.14,-103.58 77.12,-85.99 65.32,-75.63"/>
<polygon fill="midnightblue" stroke="midnightblue" points="109.7,-119.26 119.52,-123.23 114.32,-114 109.7,-119.26"/>
</g>
<!-- Node6 -->
<g id="node6" class="node">
<title>Node6</title>
<g id="a_node6"><a xlink:href="main_8cpp.html" target="_top" xlink:title=" ">
<polygon fill="white" stroke="black" points="101,-0.5 101,-19.5 180,-19.5 180,-0.5 101,-0.5"/>
<text text-anchor="middle" x="140.5" y="-7.5" font-family="Helvetica,sans-Serif" font-size="10.00">src/main.cpp</text>
</a>
</g>
</g>
<!-- Node5&#45;&gt;Node6 -->
<g id="edge5" class="edge">
<title>Node5&#45;&gt;Node6</title>
<path fill="none" stroke="midnightblue" d="M185.46,-49.54C174.23,-39.91 160.18,-27.87 150.81,-19.83"/>
<polygon fill="midnightblue" stroke="midnightblue" points="183.51,-52.47 193.38,-56.32 188.06,-47.16 183.51,-52.47"/>
</g>
<!-- Node7 -->
<g id="node7" class="node">
<title>Node7</title>
<g id="a_node7"><a xlink:href="general__manager_8cpp.html" target="_top" xlink:title=" ">
<polygon fill="white" stroke="black" points="198,-0.5 198,-19.5 337,-19.5 337,-0.5 198,-0.5"/>
<text text-anchor="middle" x="267.5" y="-7.5" font-family="Helvetica,sans-Serif" font-size="10.00">src/general_manager.cpp</text>
</a>
</g>
</g>
<!-- Node5&#45;&gt;Node7 -->
<g id="edge6" class="edge">
<title>Node5&#45;&gt;Node7</title>
<path fill="none" stroke="midnightblue" d="M221.49,-49.82C232.96,-40.15 247.41,-27.95 257.03,-19.83"/>
<polygon fill="midnightblue" stroke="midnightblue" points="219.17,-47.2 213.78,-56.32 223.68,-52.55 219.17,-47.2"/>
</g>
<!-- Node11&#45;&gt;Node4 -->
<g id="edge11" class="edge">
<title>Node11&#45;&gt;Node4</title>
<path fill="none" stroke="midnightblue" d="M363.82,-190.07C363.71,-190.05 363.61,-190.02 363.5,-190 290.73,-173.45 271.86,-172.26 199.5,-154 185.77,-150.54 170.66,-146.28 158,-142.58"/>
<polygon fill="midnightblue" stroke="midnightblue" points="363.36,-193.56 373.88,-192.38 364.92,-186.73 363.36,-193.56"/>
</g>
<!-- Node12 -->
<g id="node12" class="node">
<title>Node12</title>
<g id="a_node12"><a xlink:href="onnx__model__reconstructor__helpers_8cpp.html" target="_top" xlink:title=" ">
<polygon fill="white" stroke="black" points="379,-112.5 379,-153.5 528,-153.5 528,-112.5 379,-112.5"/>
<text text-anchor="start" x="387" y="-141.5" font-family="Helvetica,sans-Serif" font-size="10.00">src/IO_Interaction</text>
<text text-anchor="start" x="387" y="-130.5" font-family="Helvetica,sans-Serif" font-size="10.00">/onnx_model_reconstructor</text>
<text text-anchor="middle" x="453.5" y="-119.5" font-family="Helvetica,sans-Serif" font-size="10.00">_helpers.cpp</text>
</a>
</g>
</g>
<!-- Node11&#45;&gt;Node12 -->
<g id="edge12" class="edge">
<title>Node11&#45;&gt;Node12</title>
<path fill="none" stroke="midnightblue" d="M450.45,-180.3C451.05,-171.3 451.68,-161.65 452.22,-153.51"/>
<polygon fill="midnightblue" stroke="midnightblue" points="446.95,-180.22 449.79,-190.43 453.94,-180.68 446.95,-180.22"/>
</g>
<!-- Node14 -->
<g id="node14" class="node">
<title>Node14</title>
<g id="a_node14"><a xlink:href="constrained__block__graph__builder_8h.html" target="_top" xlink:title=" ">
<polygon fill="white" stroke="black" points="372.5,-324.5 372.5,-354.5 524.5,-354.5 524.5,-324.5 372.5,-324.5"/>
<text text-anchor="start" x="380.5" y="-342.5" font-family="Helvetica,sans-Serif" font-size="10.00">include/Butcher/constrained</text>
<text text-anchor="middle" x="448.5" y="-331.5" font-family="Helvetica,sans-Serif" font-size="10.00">_block_graph_builder.h</text>
</a>
</g>
</g>
<!-- Node13&#45;&gt;Node14 -->
<g id="edge15" class="edge">
<title>Node13&#45;&gt;Node14</title>
<path fill="none" stroke="midnightblue" d="M462.14,-481.14C458.74,-446.11 452.59,-382.63 449.86,-354.53"/>
<polygon fill="midnightblue" stroke="midnightblue" points="458.69,-481.82 463.14,-491.43 465.65,-481.14 458.69,-481.82"/>
</g>
<!-- Node14&#45;&gt;Node2 -->
<g id="edge16" class="edge">
<title>Node14&#45;&gt;Node2</title>
<path fill="none" stroke="midnightblue" d="M448.5,-314.29C448.5,-304.86 448.5,-294.65 448.5,-287.66"/>
<polygon fill="midnightblue" stroke="midnightblue" points="445,-314.4 448.5,-324.4 452,-314.4 445,-314.4"/>
</g>
<!-- Node16 -->
<g id="node16" class="node">
<title>Node16</title>
<g id="a_node16"><a xlink:href="weight__importers_8h.html" target="_top" xlink:title=" ">
<polygon fill="white" stroke="black" points="152,-402.5 152,-432.5 275,-432.5 275,-402.5 152,-402.5"/>
<text text-anchor="start" x="160" y="-420.5" font-family="Helvetica,sans-Serif" font-size="10.00">include/IO_Interaction</text>
<text text-anchor="middle" x="213.5" y="-409.5" font-family="Helvetica,sans-Serif" font-size="10.00">/weight_importers.h</text>
</a>
</g>
</g>
<!-- Node15&#45;&gt;Node16 -->
<g id="edge18" class="edge">
<title>Node15&#45;&gt;Node16</title>
<path fill="none" stroke="midnightblue" d="M276.8,-473.57C260.57,-459.45 242.33,-443.58 229.61,-432.52"/>
<polygon fill="midnightblue" stroke="midnightblue" points="274.73,-476.41 284.58,-480.34 279.33,-471.13 274.73,-476.41"/>
</g>
<!-- Node17 -->
<g id="node17" class="node">
<title>Node17</title>
<g id="a_node17"><a xlink:href="block__aMLLibrary__weight__importer_8cpp.html" target="_top" xlink:title=" ">
<polygon fill="white" stroke="black" points="293,-391.5 293,-443.5 436,-443.5 436,-391.5 293,-391.5"/>
<text text-anchor="start" x="301" y="-431.5" font-family="Helvetica,sans-Serif" font-size="10.00">src/IO_Interaction</text>
<text text-anchor="start" x="301" y="-420.5" font-family="Helvetica,sans-Serif" font-size="10.00">/Weight_Importer_Helpers</text>
<text text-anchor="start" x="301" y="-409.5" font-family="Helvetica,sans-Serif" font-size="10.00">/block_aMLLibrary_weight</text>
<text text-anchor="middle" x="364.5" y="-398.5" font-family="Helvetica,sans-Serif" font-size="10.00">_importer.cpp</text>
</a>
</g>
</g>
<!-- Node15&#45;&gt;Node17 -->
<g id="edge22" class="edge">
<title>Node15&#45;&gt;Node17</title>
<path fill="none" stroke="midnightblue" d="M333.35,-471.64C338.82,-462.31 344.66,-452.35 349.78,-443.61"/>
<polygon fill="midnightblue" stroke="midnightblue" points="330.29,-469.94 328.25,-480.34 336.33,-473.48 330.29,-469.94"/>
</g>
<!-- Node16&#45;&gt;Node2 -->
<g id="edge20" class="edge">
<title>Node16&#45;&gt;Node2</title>
<path fill="none" stroke="midnightblue" d="M244.35,-396.65C274.43,-377.5 321.63,-347.96 363.5,-324 386.69,-310.73 414.09,-296.47 431.39,-287.64"/>
<polygon fill="midnightblue" stroke="midnightblue" points="242.13,-393.91 235.59,-402.25 245.9,-399.81 242.13,-393.91"/>
</g>
<!-- Node16&#45;&gt;Node4 -->
<g id="edge21" class="edge">
<title>Node16&#45;&gt;Node4</title>
<path fill="none" stroke="midnightblue" d="M206.48,-392.87C188.85,-333.61 143.38,-180.67 132.07,-142.65"/>
<polygon fill="midnightblue" stroke="midnightblue" points="203.13,-393.9 209.33,-402.49 209.84,-391.91 203.13,-393.9"/>
</g>
<!-- Node16&#45;&gt;Node14 -->
<g id="edge19" class="edge">
<title>Node16&#45;&gt;Node14</title>
<path fill="none" stroke="midnightblue" d="M260.65,-398.94C268.27,-396.22 276.08,-393.48 283.5,-391 322.56,-377.92 367.26,-364.32 400.28,-354.54"/>
<polygon fill="midnightblue" stroke="midnightblue" points="259.37,-395.68 251.15,-402.37 261.75,-402.27 259.37,-395.68"/>
</g>
</g>
</svg>
