<?xml version="1.0" encoding="UTF-8" standalone="no"?>
<!DOCTYPE svg PUBLIC "-//W3C//DTD SVG 1.1//EN"
 "http://www.w3.org/Graphics/SVG/1.1/DTD/svg11.dtd">
<!-- Generated by graphviz version 2.43.0 (0)
 -->
<!-- Title: include/Computer/computer_memory.h Pages: 1 -->
<!--zoomable 487 -->
<svg id="main" version="1.1" xmlns="http://www.w3.org/2000/svg" xmlns:xlink="http://www.w3.org/1999/xlink" xml:space="preserve" onload="init(evt)">
<style type="text/css"><![CDATA[
.edge:hover path { stroke: red; }
.edge:hover polygon { stroke: red; fill: red; }
]]></style>
<script type="text/javascript"><![CDATA[
var edges = document.getElementsByTagName('g');
if (edges && edges.length) {
  for (var i=0;i<edges.length;i++) {
    if (edges[i].id.substr(0,4)=='edge') {
      edges[i].setAttribute('class','edge');
    }
  }
}
]]></script>
        <defs>
                <circle id="rim" cx="0" cy="0" r="7"/>
                <circle id="rim2" cx="0" cy="0" r="3.5"/>
                <g id="zoomPlus">
                        <use xlink:href="#rim" fill="#404040">
                                <set attributeName="fill" to="#808080" begin="zoomplus.mouseover" end="zoomplus.mouseout"/>
                        </use>
                        <path d="M-4,0h8M0,-4v8" fill="none" stroke="white" stroke-width="1.5" pointer-events="none"/>
                </g>
                <g id="zoomMin">
                        <use xlink:href="#rim" fill="#404040">
                                <set attributeName="fill" to="#808080" begin="zoomminus.mouseover" end="zoomminus.mouseout"/>
                        </use>
                        <path d="M-4,0h8" fill="none" stroke="white" stroke-width="1.5" pointer-events="none"/>
                </g>
                <g id="dirArrow">
                        <path fill="none" stroke="white" stroke-width="1.5" d="M0,-3.0v7 M-2.5,-0.5L0,-3.0L2.5,-0.5"/>
                </g>
               <g id="resetDef">
                       <use xlink:href="#rim2" fill="#404040">
                               <set attributeName="fill" to="#808080" begin="reset.mouseover" end="reset.mouseout"/>
                       </use>
               </g>
        </defs>

<script type="text/javascript">
var viewWidth = 1032;
var viewHeight = 487;
var sectionId = 'dynsection-0';
</script>
<script xlink:href="svgpan.js"/>
<svg id="graph" class="graph">
<g id="viewport">
<title>include/Computer/computer_memory.h</title>
<polygon fill="white" stroke="transparent" points="-4,4 -4,-483 1027.5,-483 1027.5,4 -4,4"/>
<!-- Node1 -->
<g id="node1" class="node">
<title>Node1</title>
<g id="a_node1"><a xlink:title=" ">
<polygon fill="#bfbfbf" stroke="black" points="17.5,-448.5 17.5,-478.5 169.5,-478.5 169.5,-448.5 17.5,-448.5"/>
<text text-anchor="start" x="25.5" y="-466.5" font-family="Helvetica,sans-Serif" font-size="10.00">include/Computer/computer</text>
<text text-anchor="middle" x="93.5" y="-455.5" font-family="Helvetica,sans-Serif" font-size="10.00">_memory.h</text>
</a>
</g>
</g>
<!-- Node2 -->
<g id="node2" class="node">
<title>Node2</title>
<g id="a_node2"><a xlink:title=" ">
<polygon fill="white" stroke="#bfbfbf" points="0,-392.5 0,-411.5 65,-411.5 65,-392.5 0,-392.5"/>
<text text-anchor="middle" x="32.5" y="-399.5" font-family="Helvetica,sans-Serif" font-size="10.00">functional</text>
</a>
</g>
</g>
<!-- Node1&#45;&gt;Node2 -->
<g id="edge1" class="edge">
<title>Node1&#45;&gt;Node2</title>
<path fill="none" stroke="midnightblue" d="M79.04,-448.4C69.91,-439.49 58.08,-427.95 48.64,-418.74"/>
<polygon fill="midnightblue" stroke="midnightblue" points="50.98,-416.13 41.38,-411.66 46.09,-421.15 50.98,-416.13"/>
</g>
<!-- Node3 -->
<g id="node3" class="node">
<title>Node3</title>
<g id="a_node3"><a xlink:href="utilities_8h.html" target="_top" xlink:title=" ">
<polygon fill="white" stroke="black" points="448.5,-168.5 448.5,-187.5 510.5,-187.5 510.5,-168.5 448.5,-168.5"/>
<text text-anchor="middle" x="479.5" y="-175.5" font-family="Helvetica,sans-Serif" font-size="10.00">utilities.h</text>
</a>
</g>
</g>
<!-- Node1&#45;&gt;Node3 -->
<g id="edge2" class="edge">
<title>Node1&#45;&gt;Node3</title>
<path fill="none" stroke="midnightblue" d="M93.5,-448.28C93.5,-426.48 93.5,-383.49 93.5,-347 93.5,-347 93.5,-347 93.5,-289 93.5,-217.91 338.68,-190.27 438.23,-181.97"/>
<polygon fill="midnightblue" stroke="midnightblue" points="438.55,-185.46 448.24,-181.16 437.99,-178.48 438.55,-185.46"/>
</g>
<!-- Node21 -->
<g id="node21" class="node">
<title>Node21</title>
<g id="a_node21"><a xlink:href="wgraph_8h.html" target="_top" xlink:title=" ">
<polygon fill="white" stroke="black" points="576.5,-392.5 576.5,-411.5 638.5,-411.5 638.5,-392.5 576.5,-392.5"/>
<text text-anchor="middle" x="607.5" y="-399.5" font-family="Helvetica,sans-Serif" font-size="10.00">wgraph.h</text>
</a>
</g>
</g>
<!-- Node1&#45;&gt;Node21 -->
<g id="edge28" class="edge">
<title>Node1&#45;&gt;Node21</title>
<path fill="none" stroke="midnightblue" d="M169.62,-453.69C279.74,-440.94 479.74,-417.79 566.03,-407.8"/>
<polygon fill="midnightblue" stroke="midnightblue" points="566.69,-411.25 576.22,-406.62 565.89,-404.29 566.69,-411.25"/>
</g>
<!-- Node4 -->
<g id="node4" class="node">
<title>Node4</title>
<g id="a_node4"><a xlink:title=" ">
<polygon fill="white" stroke="#bfbfbf" points="159.5,-112.5 159.5,-131.5 223.5,-131.5 223.5,-112.5 159.5,-112.5"/>
<text text-anchor="middle" x="191.5" y="-119.5" font-family="Helvetica,sans-Serif" font-size="10.00">algorithm</text>
</a>
</g>
</g>
<!-- Node3&#45;&gt;Node4 -->
<g id="edge3" class="edge">
<title>Node3&#45;&gt;Node4</title>
<path fill="none" stroke="midnightblue" d="M448.24,-171.67C403.08,-163.9 316.75,-148.74 233.57,-132.16"/>
<polygon fill="midnightblue" stroke="midnightblue" points="234.2,-128.72 223.71,-130.18 232.82,-135.58 234.2,-128.72"/>
</g>
<!-- Node5 -->
<g id="node5" class="node">
<title>Node5</title>
<g id="a_node5"><a xlink:title=" ">
<polygon fill="white" stroke="#bfbfbf" points="507.5,-112.5 507.5,-131.5 563.5,-131.5 563.5,-112.5 507.5,-112.5"/>
<text text-anchor="middle" x="535.5" y="-119.5" font-family="Helvetica,sans-Serif" font-size="10.00">numeric</text>
</a>
</g>
</g>
<!-- Node3&#45;&gt;Node5 -->
<g id="edge4" class="edge">
<title>Node3&#45;&gt;Node5</title>
<path fill="none" stroke="midnightblue" d="M488.5,-168.32C496.69,-160.42 509.01,-148.55 518.97,-138.94"/>
<polygon fill="midnightblue" stroke="midnightblue" points="521.57,-141.29 526.34,-131.83 516.71,-136.26 521.57,-141.29"/>
</g>
<!-- Node6 -->
<g id="node6" class="node">
<title>Node6</title>
<g id="a_node6"><a xlink:title=" ">
<polygon fill="white" stroke="#bfbfbf" points="241.5,-112.5 241.5,-131.5 309.5,-131.5 309.5,-112.5 241.5,-112.5"/>
<text text-anchor="middle" x="275.5" y="-119.5" font-family="Helvetica,sans-Serif" font-size="10.00">filesystem</text>
</a>
</g>
</g>
<!-- Node3&#45;&gt;Node6 -->
<g id="edge5" class="edge">
<title>Node3&#45;&gt;Node6</title>
<path fill="none" stroke="midnightblue" d="M448.07,-168.68C413.09,-159.42 356.37,-144.41 317.58,-134.14"/>
<polygon fill="midnightblue" stroke="midnightblue" points="318.2,-130.68 307.64,-131.51 316.41,-137.45 318.2,-130.68"/>
</g>
<!-- Node7 -->
<g id="node7" class="node">
<title>Node7</title>
<g id="a_node7"><a xlink:title=" ">
<polygon fill="white" stroke="#bfbfbf" points="328,-112.5 328,-131.5 383,-131.5 383,-112.5 328,-112.5"/>
<text text-anchor="middle" x="355.5" y="-119.5" font-family="Helvetica,sans-Serif" font-size="10.00">fstream</text>
</a>
</g>
</g>
<!-- Node3&#45;&gt;Node7 -->
<g id="edge6" class="edge">
<title>Node3&#45;&gt;Node7</title>
<path fill="none" stroke="midnightblue" d="M459.85,-168.44C439.54,-159.6 407.6,-145.69 384.4,-135.59"/>
<polygon fill="midnightblue" stroke="midnightblue" points="385.62,-132.3 375.06,-131.52 382.83,-138.72 385.62,-132.3"/>
</g>
<!-- Node8 -->
<g id="node8" class="node">
<title>Node8</title>
<g id="a_node8"><a xlink:title=" ">
<polygon fill="white" stroke="#bfbfbf" points="401.5,-112.5 401.5,-131.5 451.5,-131.5 451.5,-112.5 401.5,-112.5"/>
<text text-anchor="middle" x="426.5" y="-119.5" font-family="Helvetica,sans-Serif" font-size="10.00">ranges</text>
</a>
</g>
</g>
<!-- Node3&#45;&gt;Node8 -->
<g id="edge7" class="edge">
<title>Node3&#45;&gt;Node8</title>
<path fill="none" stroke="midnightblue" d="M470.75,-168.08C463.03,-160.22 451.6,-148.57 442.28,-139.08"/>
<polygon fill="midnightblue" stroke="midnightblue" points="444.59,-136.44 435.09,-131.75 439.6,-141.34 444.59,-136.44"/>
</g>
<!-- Node9 -->
<g id="node9" class="node">
<title>Node9</title>
<g id="a_node9"><a xlink:title=" ">
<polygon fill="white" stroke="#bfbfbf" points="436,-56.5 436,-75.5 501,-75.5 501,-56.5 436,-56.5"/>
<text text-anchor="middle" x="468.5" y="-63.5" font-family="Helvetica,sans-Serif" font-size="10.00">onnx.pb.h</text>
</a>
</g>
</g>
<!-- Node3&#45;&gt;Node9 -->
<g id="edge8" class="edge">
<title>Node3&#45;&gt;Node9</title>
<path fill="none" stroke="midnightblue" d="M478.64,-168.37C476.86,-150.62 472.77,-109.67 470.36,-85.6"/>
<polygon fill="midnightblue" stroke="midnightblue" points="473.84,-85.19 469.36,-75.59 466.87,-85.89 473.84,-85.19"/>
</g>
<!-- Node10 -->
<g id="node10" class="node">
<title>Node10</title>
<g id="a_node10"><a xlink:href="traits_8h.html" target="_top" xlink:title=" ">
<polygon fill="white" stroke="black" points="582,-112.5 582,-131.5 633,-131.5 633,-112.5 582,-112.5"/>
<text text-anchor="middle" x="607.5" y="-119.5" font-family="Helvetica,sans-Serif" font-size="10.00">traits.h</text>
</a>
</g>
</g>
<!-- Node3&#45;&gt;Node10 -->
<g id="edge9" class="edge">
<title>Node3&#45;&gt;Node10</title>
<path fill="none" stroke="midnightblue" d="M499.78,-168.44C520.85,-159.56 554.02,-145.56 577.99,-135.45"/>
<polygon fill="midnightblue" stroke="midnightblue" points="579.46,-138.63 587.31,-131.52 576.74,-132.18 579.46,-138.63"/>
</g>
<!-- Node15 -->
<g id="node15" class="node">
<title>Node15</title>
<g id="a_node15"><a xlink:href="type__info_8h.html" target="_top" xlink:title=" ">
<polygon fill="white" stroke="black" points="664,-56.5 664,-75.5 735,-75.5 735,-56.5 664,-56.5"/>
<text text-anchor="middle" x="699.5" y="-63.5" font-family="Helvetica,sans-Serif" font-size="10.00">type_info.h</text>
</a>
</g>
</g>
<!-- Node3&#45;&gt;Node15 -->
<g id="edge27" class="edge">
<title>Node3&#45;&gt;Node15</title>
<path fill="none" stroke="midnightblue" d="M510.54,-173.67C544.79,-168.85 600.48,-157.52 641.5,-132 661.09,-119.81 677.93,-99.06 688.34,-84.29"/>
<polygon fill="midnightblue" stroke="midnightblue" points="691.52,-85.83 694.22,-75.59 685.72,-81.91 691.52,-85.83"/>
</g>
<!-- Node18 -->
<g id="node18" class="node">
<title>Node18</title>
<g id="a_node18"><a xlink:href="dense__tensor_8h.html" target="_top" xlink:title=" ">
<polygon fill="white" stroke="black" points="765.5,-112.5 765.5,-131.5 855.5,-131.5 855.5,-112.5 765.5,-112.5"/>
<text text-anchor="middle" x="810.5" y="-119.5" font-family="Helvetica,sans-Serif" font-size="10.00">dense_tensor.h</text>
</a>
</g>
</g>
<!-- Node3&#45;&gt;Node18 -->
<g id="edge19" class="edge">
<title>Node3&#45;&gt;Node18</title>
<path fill="none" stroke="midnightblue" d="M510.55,-171.22C566.66,-161.59 685.19,-142.22 755.34,-131.18"/>
<polygon fill="midnightblue" stroke="midnightblue" points="755.99,-134.62 765.33,-129.62 754.9,-127.71 755.99,-134.62"/>
</g>
<!-- Node10&#45;&gt;Node9 -->
<g id="edge14" class="edge">
<title>Node10&#45;&gt;Node9</title>
<path fill="none" stroke="midnightblue" d="M585.48,-112.44C562.4,-103.48 525.94,-89.31 499.86,-79.18"/>
<polygon fill="midnightblue" stroke="midnightblue" points="501.01,-75.88 490.42,-75.52 498.48,-82.4 501.01,-75.88"/>
</g>
<!-- Node11 -->
<g id="node11" class="node">
<title>Node11</title>
<g id="a_node11"><a xlink:title=" ">
<polygon fill="white" stroke="#bfbfbf" points="613.5,-56.5 613.5,-75.5 645.5,-75.5 645.5,-56.5 613.5,-56.5"/>
<text text-anchor="middle" x="629.5" y="-63.5" font-family="Helvetica,sans-Serif" font-size="10.00">set</text>
</a>
</g>
</g>
<!-- Node10&#45;&gt;Node11 -->
<g id="edge10" class="edge">
<title>Node10&#45;&gt;Node11</title>
<path fill="none" stroke="midnightblue" d="M611.13,-112.08C614.11,-104.77 618.43,-94.18 622.12,-85.1"/>
<polygon fill="midnightblue" stroke="midnightblue" points="625.4,-86.33 625.93,-75.75 618.92,-83.69 625.4,-86.33"/>
</g>
<!-- Node12 -->
<g id="node12" class="node">
<title>Node12</title>
<g id="a_node12"><a xlink:title=" ">
<polygon fill="white" stroke="#bfbfbf" points="557.5,-56.5 557.5,-75.5 595.5,-75.5 595.5,-56.5 557.5,-56.5"/>
<text text-anchor="middle" x="576.5" y="-63.5" font-family="Helvetica,sans-Serif" font-size="10.00">map</text>
</a>
</g>
</g>
<!-- Node10&#45;&gt;Node12 -->
<g id="edge11" class="edge">
<title>Node10&#45;&gt;Node12</title>
<path fill="none" stroke="midnightblue" d="M602.38,-112.08C598.09,-104.61 591.84,-93.72 586.56,-84.52"/>
<polygon fill="midnightblue" stroke="midnightblue" points="589.54,-82.68 581.52,-75.75 583.47,-86.17 589.54,-82.68"/>
</g>
<!-- Node13 -->
<g id="node13" class="node">
<title>Node13</title>
<g id="a_node13"><a xlink:title=" ">
<polygon fill="white" stroke="#bfbfbf" points="753.5,-56.5 753.5,-75.5 811.5,-75.5 811.5,-56.5 753.5,-56.5"/>
<text text-anchor="middle" x="782.5" y="-63.5" font-family="Helvetica,sans-Serif" font-size="10.00">memory</text>
</a>
</g>
</g>
<!-- Node10&#45;&gt;Node13 -->
<g id="edge12" class="edge">
<title>Node10&#45;&gt;Node13</title>
<path fill="none" stroke="midnightblue" d="M633.32,-113.03C662.79,-103.94 711.25,-88.99 744.9,-78.6"/>
<polygon fill="midnightblue" stroke="midnightblue" points="746.31,-81.83 754.84,-75.54 744.25,-75.14 746.31,-81.83"/>
</g>
<!-- Node14 -->
<g id="node14" class="node">
<title>Node14</title>
<g id="a_node14"><a xlink:href="starting__traits_8h.html" target="_top" xlink:title=" ">
<polygon fill="white" stroke="black" points="567.5,-0.5 567.5,-19.5 661.5,-19.5 661.5,-0.5 567.5,-0.5"/>
<text text-anchor="middle" x="614.5" y="-7.5" font-family="Helvetica,sans-Serif" font-size="10.00">starting_traits.h</text>
</a>
</g>
</g>
<!-- Node10&#45;&gt;Node14 -->
<g id="edge13" class="edge">
<title>Node10&#45;&gt;Node14</title>
<path fill="none" stroke="midnightblue" d="M589.4,-112.48C567.82,-101.05 536.11,-79.45 548.5,-56 555.92,-41.95 569.92,-31.47 583.12,-24.17"/>
<polygon fill="midnightblue" stroke="midnightblue" points="584.72,-27.28 592.04,-19.62 581.54,-21.04 584.72,-27.28"/>
</g>
<!-- Node10&#45;&gt;Node15 -->
<g id="edge15" class="edge">
<title>Node10&#45;&gt;Node15</title>
<path fill="none" stroke="midnightblue" d="M622.28,-112.32C636.77,-103.82 659.07,-90.73 675.99,-80.8"/>
<polygon fill="midnightblue" stroke="midnightblue" points="677.9,-83.74 684.76,-75.65 674.36,-77.7 677.9,-83.74"/>
</g>
<!-- Node15&#45;&gt;Node14 -->
<g id="edge18" class="edge">
<title>Node15&#45;&gt;Node14</title>
<path fill="none" stroke="midnightblue" d="M685.84,-56.32C672.58,-47.9 652.23,-34.97 636.65,-25.07"/>
<polygon fill="midnightblue" stroke="midnightblue" points="638.44,-22.06 628.12,-19.65 634.69,-27.97 638.44,-22.06"/>
</g>
<!-- Node16 -->
<g id="node16" class="node">
<title>Node16</title>
<g id="a_node16"><a xlink:title=" ">
<polygon fill="white" stroke="#bfbfbf" points="765.5,-0.5 765.5,-19.5 809.5,-19.5 809.5,-0.5 765.5,-0.5"/>
<text text-anchor="middle" x="787.5" y="-7.5" font-family="Helvetica,sans-Serif" font-size="10.00">string</text>
</a>
</g>
</g>
<!-- Node15&#45;&gt;Node16 -->
<g id="edge16" class="edge">
<title>Node15&#45;&gt;Node16</title>
<path fill="none" stroke="midnightblue" d="M713.64,-56.32C727.37,-47.9 748.44,-34.97 764.56,-25.07"/>
<polygon fill="midnightblue" stroke="midnightblue" points="766.7,-27.87 773.4,-19.65 763.04,-21.9 766.7,-27.87"/>
</g>
<!-- Node17 -->
<g id="node17" class="node">
<title>Node17</title>
<g id="a_node17"><a xlink:title=" ">
<polygon fill="white" stroke="#bfbfbf" points="830,-0.5 830,-19.5 877,-19.5 877,-0.5 830,-0.5"/>
<text text-anchor="middle" x="853.5" y="-7.5" font-family="Helvetica,sans-Serif" font-size="10.00">vector</text>
</a>
</g>
</g>
<!-- Node15&#45;&gt;Node17 -->
<g id="edge17" class="edge">
<title>Node15&#45;&gt;Node17</title>
<path fill="none" stroke="midnightblue" d="M723.9,-56.44C749.92,-47.32 791.3,-32.81 820.28,-22.65"/>
<polygon fill="midnightblue" stroke="midnightblue" points="821.69,-25.86 829.97,-19.25 819.38,-19.26 821.69,-25.86"/>
</g>
<!-- Node18&#45;&gt;Node3 -->
<g id="edge25" class="edge">
<title>Node18&#45;&gt;Node3</title>
<path fill="none" stroke="midnightblue" d="M765.27,-131.2C700.76,-142.13 583.5,-161.23 521.06,-170.95"/>
<polygon fill="midnightblue" stroke="midnightblue" points="520.14,-167.55 510.8,-172.54 521.22,-174.46 520.14,-167.55"/>
</g>
<!-- Node18&#45;&gt;Node15 -->
<g id="edge20" class="edge">
<title>Node18&#45;&gt;Node15</title>
<path fill="none" stroke="midnightblue" d="M792.67,-112.32C774.78,-103.62 747.02,-90.12 726.45,-80.11"/>
<polygon fill="midnightblue" stroke="midnightblue" points="727.81,-76.88 717.29,-75.65 724.75,-83.18 727.81,-76.88"/>
</g>
<!-- Node18&#45;&gt;Node17 -->
<g id="edge26" class="edge">
<title>Node18&#45;&gt;Node17</title>
<path fill="none" stroke="midnightblue" d="M813.87,-112.37C820.88,-94.46 837.11,-52.92 846.48,-28.95"/>
<polygon fill="midnightblue" stroke="midnightblue" points="849.76,-30.18 850.14,-19.59 843.24,-27.63 849.76,-30.18"/>
</g>
<!-- Node19 -->
<g id="node19" class="node">
<title>Node19</title>
<g id="a_node19"><a xlink:href="variant__attribute_8h.html" target="_top" xlink:title=" ">
<polygon fill="white" stroke="black" points="868,-56.5 868,-75.5 975,-75.5 975,-56.5 868,-56.5"/>
<text text-anchor="middle" x="921.5" y="-63.5" font-family="Helvetica,sans-Serif" font-size="10.00">variant_attribute.h</text>
</a>
</g>
</g>
<!-- Node18&#45;&gt;Node19 -->
<g id="edge21" class="edge">
<title>Node18&#45;&gt;Node19</title>
<path fill="none" stroke="midnightblue" d="M828.33,-112.32C846.22,-103.62 873.98,-90.12 894.55,-80.11"/>
<polygon fill="midnightblue" stroke="midnightblue" points="896.25,-83.18 903.71,-75.65 893.19,-76.88 896.25,-83.18"/>
</g>
<!-- Node19&#45;&gt;Node16 -->
<g id="edge22" class="edge">
<title>Node19&#45;&gt;Node16</title>
<path fill="none" stroke="midnightblue" d="M900.27,-56.44C878.12,-47.52 843.18,-33.44 818.06,-23.32"/>
<polygon fill="midnightblue" stroke="midnightblue" points="819.22,-20.01 808.63,-19.52 816.6,-26.5 819.22,-20.01"/>
</g>
<!-- Node19&#45;&gt;Node17 -->
<g id="edge24" class="edge">
<title>Node19&#45;&gt;Node17</title>
<path fill="none" stroke="midnightblue" d="M910.57,-56.32C900.33,-48.18 884.78,-35.84 872.5,-26.09"/>
<polygon fill="midnightblue" stroke="midnightblue" points="874.63,-23.31 864.62,-19.83 870.28,-28.79 874.63,-23.31"/>
</g>
<!-- Node20 -->
<g id="node20" class="node">
<title>Node20</title>
<g id="a_node20"><a xlink:title=" ">
<polygon fill="white" stroke="#bfbfbf" points="896,-0.5 896,-19.5 947,-19.5 947,-0.5 896,-0.5"/>
<text text-anchor="middle" x="921.5" y="-7.5" font-family="Helvetica,sans-Serif" font-size="10.00">variant</text>
</a>
</g>
</g>
<!-- Node19&#45;&gt;Node20 -->
<g id="edge23" class="edge">
<title>Node19&#45;&gt;Node20</title>
<path fill="none" stroke="midnightblue" d="M921.5,-56.08C921.5,-49.01 921.5,-38.86 921.5,-29.99"/>
<polygon fill="midnightblue" stroke="midnightblue" points="925,-29.75 921.5,-19.75 918,-29.75 925,-29.75"/>
</g>
<!-- Node22 -->
<g id="node22" class="node">
<title>Node22</title>
<g id="a_node22"><a xlink:href="mwgraph_8h.html" target="_top" xlink:title=" ">
<polygon fill="white" stroke="black" points="664,-336.5 664,-355.5 735,-355.5 735,-336.5 664,-336.5"/>
<text text-anchor="middle" x="699.5" y="-343.5" font-family="Helvetica,sans-Serif" font-size="10.00">mwgraph.h</text>
</a>
</g>
</g>
<!-- Node21&#45;&gt;Node22 -->
<g id="edge29" class="edge">
<title>Node21&#45;&gt;Node22</title>
<path fill="none" stroke="midnightblue" d="M622.28,-392.32C636.77,-383.82 659.07,-370.73 675.99,-360.8"/>
<polygon fill="midnightblue" stroke="midnightblue" points="677.9,-363.74 684.76,-355.65 674.36,-357.7 677.9,-363.74"/>
</g>
<!-- Node28 -->
<g id="node28" class="node">
<title>Node28</title>
<g id="a_node28"><a xlink:href="weighted__graph_8h.html" target="_top" xlink:title=" ">
<polygon fill="white" stroke="black" points="555.5,-280.5 555.5,-299.5 659.5,-299.5 659.5,-280.5 555.5,-280.5"/>
<text text-anchor="middle" x="607.5" y="-287.5" font-family="Helvetica,sans-Serif" font-size="10.00">weighted_graph.h</text>
</a>
</g>
</g>
<!-- Node21&#45;&gt;Node28 -->
<g id="edge49" class="edge">
<title>Node21&#45;&gt;Node28</title>
<path fill="none" stroke="midnightblue" d="M607.5,-392.37C607.5,-374.62 607.5,-333.67 607.5,-309.6"/>
<polygon fill="midnightblue" stroke="midnightblue" points="611,-309.59 607.5,-299.59 604,-309.59 611,-309.59"/>
</g>
<!-- Node23 -->
<g id="node23" class="node">
<title>Node23</title>
<g id="a_node23"><a xlink:href="graph_8h.html" target="_top" xlink:title=" ">
<polygon fill="white" stroke="black" points="706,-280.5 706,-299.5 759,-299.5 759,-280.5 706,-280.5"/>
<text text-anchor="middle" x="732.5" y="-287.5" font-family="Helvetica,sans-Serif" font-size="10.00">graph.h</text>
</a>
</g>
</g>
<!-- Node22&#45;&gt;Node23 -->
<g id="edge30" class="edge">
<title>Node22&#45;&gt;Node23</title>
<path fill="none" stroke="midnightblue" d="M704.95,-336.08C709.51,-328.61 716.17,-317.72 721.79,-308.52"/>
<polygon fill="midnightblue" stroke="midnightblue" points="724.92,-310.11 727.15,-299.75 718.95,-306.46 724.92,-310.11"/>
</g>
<!-- Node23&#45;&gt;Node4 -->
<g id="edge31" class="edge">
<title>Node23&#45;&gt;Node4</title>
<path fill="none" stroke="midnightblue" d="M705.67,-280.77C616.84,-253.51 332.12,-166.15 229.13,-134.55"/>
<polygon fill="midnightblue" stroke="midnightblue" points="230.05,-131.17 219.46,-131.58 227.99,-137.86 230.05,-131.17"/>
</g>
<!-- Node23&#45;&gt;Node5 -->
<g id="edge32" class="edge">
<title>Node23&#45;&gt;Node5</title>
<path fill="none" stroke="midnightblue" d="M722.19,-280.31C690.4,-253.53 593.69,-172.03 553.41,-138.09"/>
<polygon fill="midnightblue" stroke="midnightblue" points="555.61,-135.37 545.71,-131.61 551.1,-140.73 555.61,-135.37"/>
</g>
<!-- Node23&#45;&gt;Node9 -->
<g id="edge35" class="edge">
<title>Node23&#45;&gt;Node9</title>
<path fill="none" stroke="midnightblue" d="M705.89,-283.82C596.44,-262.27 185.07,-178.59 150.5,-132 145.2,-124.86 144.67,-118.71 150.5,-112 185.66,-71.51 347.54,-66.46 425.84,-66.45"/>
<polygon fill="midnightblue" stroke="midnightblue" points="425.85,-69.95 435.86,-66.48 425.87,-62.95 425.85,-69.95"/>
</g>
<!-- Node23&#45;&gt;Node17 -->
<g id="edge34" class="edge">
<title>Node23&#45;&gt;Node17</title>
<path fill="none" stroke="midnightblue" d="M759.1,-284.82C830.93,-272.77 1023.5,-235.24 1023.5,-179 1023.5,-179 1023.5,-179 1023.5,-121 1023.5,-87.31 1010.68,-77.2 984.5,-56 976.66,-49.65 922.86,-32.31 886.69,-21.1"/>
<polygon fill="midnightblue" stroke="midnightblue" points="887.59,-17.71 877.01,-18.11 885.53,-24.4 887.59,-17.71"/>
</g>
<!-- Node24 -->
<g id="node24" class="node">
<title>Node24</title>
<g id="a_node24"><a xlink:title=" ">
<polygon fill="white" stroke="#bfbfbf" points="912,-112.5 912,-131.5 957,-131.5 957,-112.5 912,-112.5"/>
<text text-anchor="middle" x="934.5" y="-119.5" font-family="Helvetica,sans-Serif" font-size="10.00">utility</text>
</a>
</g>
</g>
<!-- Node23&#45;&gt;Node24 -->
<g id="edge33" class="edge">
<title>Node23&#45;&gt;Node24</title>
<path fill="none" stroke="midnightblue" d="M759.12,-280.78C797.81,-267.49 869.33,-237.64 909.5,-188 920.42,-174.5 926.96,-155.69 930.59,-141.78"/>
<polygon fill="midnightblue" stroke="midnightblue" points="934.04,-142.4 932.91,-131.87 927.22,-140.81 934.04,-142.4"/>
</g>
<!-- Node25 -->
<g id="node25" class="node">
<title>Node25</title>
<g id="a_node25"><a xlink:href="content_8h.html" target="_top" xlink:title=" ">
<polygon fill="white" stroke="black" points="838.5,-168.5 838.5,-187.5 900.5,-187.5 900.5,-168.5 838.5,-168.5"/>
<text text-anchor="middle" x="869.5" y="-175.5" font-family="Helvetica,sans-Serif" font-size="10.00">content.h</text>
</a>
</g>
</g>
<!-- Node23&#45;&gt;Node25 -->
<g id="edge36" class="edge">
<title>Node23&#45;&gt;Node25</title>
<path fill="none" stroke="midnightblue" d="M746.3,-280.41C759.94,-271.73 781.21,-257.69 798.5,-244 818.21,-228.39 839.28,-208.67 853.3,-195.07"/>
<polygon fill="midnightblue" stroke="midnightblue" points="855.98,-197.34 860.68,-187.85 851.08,-192.34 855.98,-197.34"/>
</g>
<!-- Node26 -->
<g id="node26" class="node">
<title>Node26</title>
<g id="a_node26"><a xlink:href="node_8h.html" target="_top" xlink:title=" ">
<polygon fill="white" stroke="black" points="770.5,-168.5 770.5,-187.5 820.5,-187.5 820.5,-168.5 770.5,-168.5"/>
<text text-anchor="middle" x="795.5" y="-175.5" font-family="Helvetica,sans-Serif" font-size="10.00">node.h</text>
</a>
</g>
</g>
<!-- Node23&#45;&gt;Node26 -->
<g id="edge39" class="edge">
<title>Node23&#45;&gt;Node26</title>
<path fill="none" stroke="midnightblue" d="M745.87,-280.3C757.14,-272.24 772.78,-259.24 781.5,-244 789.66,-229.76 793.07,-211.28 794.5,-197.67"/>
<polygon fill="midnightblue" stroke="midnightblue" points="797.99,-197.83 795.28,-187.58 791.02,-197.28 797.99,-197.83"/>
</g>
<!-- Node27 -->
<g id="node27" class="node">
<title>Node27</title>
<g id="a_node27"><a xlink:href="node__traits_8h.html" target="_top" xlink:title=" ">
<polygon fill="white" stroke="black" points="692.5,-224.5 692.5,-243.5 772.5,-243.5 772.5,-224.5 692.5,-224.5"/>
<text text-anchor="middle" x="732.5" y="-231.5" font-family="Helvetica,sans-Serif" font-size="10.00">node_traits.h</text>
</a>
</g>
</g>
<!-- Node23&#45;&gt;Node27 -->
<g id="edge44" class="edge">
<title>Node23&#45;&gt;Node27</title>
<path fill="none" stroke="midnightblue" d="M732.5,-280.08C732.5,-273.01 732.5,-262.86 732.5,-253.99"/>
<polygon fill="midnightblue" stroke="midnightblue" points="736,-253.75 732.5,-243.75 729,-253.75 736,-253.75"/>
</g>
<!-- Node25&#45;&gt;Node18 -->
<g id="edge37" class="edge">
<title>Node25&#45;&gt;Node18</title>
<path fill="none" stroke="midnightblue" d="M860.02,-168.32C851.3,-160.34 838.16,-148.31 827.6,-138.65"/>
<polygon fill="midnightblue" stroke="midnightblue" points="829.89,-136 820.15,-131.83 825.17,-141.17 829.89,-136"/>
</g>
<!-- Node25&#45;&gt;Node19 -->
<g id="edge38" class="edge">
<title>Node25&#45;&gt;Node19</title>
<path fill="none" stroke="midnightblue" d="M900.69,-171.63C923.22,-165.95 952.11,-154.53 966.5,-132 977.7,-114.46 959.86,-94.91 943.44,-81.87"/>
<polygon fill="midnightblue" stroke="midnightblue" points="945.26,-78.86 935.15,-75.69 941.08,-84.47 945.26,-78.86"/>
</g>
<!-- Node26&#45;&gt;Node10 -->
<g id="edge41" class="edge">
<title>Node26&#45;&gt;Node10</title>
<path fill="none" stroke="midnightblue" d="M770.15,-169.72C737.35,-160.3 680.04,-143.83 642.94,-133.18"/>
<polygon fill="midnightblue" stroke="midnightblue" points="643.63,-129.74 633.05,-130.34 641.7,-136.46 643.63,-129.74"/>
</g>
<!-- Node26&#45;&gt;Node13 -->
<g id="edge42" class="edge">
<title>Node26&#45;&gt;Node13</title>
<path fill="none" stroke="midnightblue" d="M817.57,-168.47C842.81,-157.33 878.92,-136.36 864.5,-112 855.03,-96 837.62,-85.31 821.27,-78.38"/>
<polygon fill="midnightblue" stroke="midnightblue" points="822.43,-75.07 811.84,-74.72 819.9,-81.6 822.43,-75.07"/>
</g>
<!-- Node26&#45;&gt;Node18 -->
<g id="edge40" class="edge">
<title>Node26&#45;&gt;Node18</title>
<path fill="none" stroke="midnightblue" d="M797.98,-168.08C799.99,-160.85 802.89,-150.41 805.39,-141.4"/>
<polygon fill="midnightblue" stroke="midnightblue" points="808.76,-142.32 808.07,-131.75 802.02,-140.45 808.76,-142.32"/>
</g>
<!-- Node26&#45;&gt;Node24 -->
<g id="edge43" class="edge">
<title>Node26&#45;&gt;Node24</title>
<path fill="none" stroke="midnightblue" d="M817.52,-168.44C840.6,-159.48 877.06,-145.31 903.14,-135.18"/>
<polygon fill="midnightblue" stroke="midnightblue" points="904.52,-138.4 912.58,-131.52 901.99,-131.88 904.52,-138.4"/>
</g>
<!-- Node27&#45;&gt;Node13 -->
<g id="edge45" class="edge">
<title>Node27&#45;&gt;Node13</title>
<path fill="none" stroke="midnightblue" d="M733.25,-224.22C735.19,-203.9 741.34,-152.29 756.5,-112 760.15,-102.29 765.77,-92.22 770.85,-84.08"/>
<polygon fill="midnightblue" stroke="midnightblue" points="773.89,-85.83 776.42,-75.54 768.03,-82 773.89,-85.83"/>
</g>
<!-- Node27&#45;&gt;Node15 -->
<g id="edge48" class="edge">
<title>Node27&#45;&gt;Node15</title>
<path fill="none" stroke="midnightblue" d="M730.77,-224.37C728.96,-215.32 726.02,-200.66 723.5,-188 716.27,-151.72 707.87,-109.31 703.17,-85.56"/>
<polygon fill="midnightblue" stroke="midnightblue" points="706.56,-84.64 701.18,-75.51 699.69,-86 706.56,-84.64"/>
</g>
<!-- Node27&#45;&gt;Node25 -->
<g id="edge46" class="edge">
<title>Node27&#45;&gt;Node25</title>
<path fill="none" stroke="midnightblue" d="M754.21,-224.44C776.85,-215.52 812.57,-201.44 838.25,-191.32"/>
<polygon fill="midnightblue" stroke="midnightblue" points="839.87,-194.44 847.89,-187.52 837.31,-187.93 839.87,-194.44"/>
</g>
<!-- Node27&#45;&gt;Node26 -->
<g id="edge47" class="edge">
<title>Node27&#45;&gt;Node26</title>
<path fill="none" stroke="midnightblue" d="M742.62,-224.32C752.03,-216.26 766.24,-204.08 777.57,-194.37"/>
<polygon fill="midnightblue" stroke="midnightblue" points="779.88,-197 785.19,-187.83 775.32,-191.68 779.88,-197"/>
</g>
<!-- Node28&#45;&gt;Node10 -->
<g id="edge50" class="edge">
<title>Node28&#45;&gt;Node10</title>
<path fill="none" stroke="midnightblue" d="M607.5,-280.08C607.5,-253.95 607.5,-177.21 607.5,-141.58"/>
<polygon fill="midnightblue" stroke="midnightblue" points="611,-141.57 607.5,-131.57 604,-141.57 611,-141.57"/>
</g>
</g>
</svg>
        <g id="navigator" transform="translate(0 0)" fill="#404254">
                <rect fill="#f2f5e9" fill-opacity="0.5" stroke="#606060" stroke-width=".5" x="0" y="0" width="60" height="60"/>
                <use id="zoomplus" xlink:href="#zoomPlus" x="17" y="9" onmousedown="handleZoom(evt,'in')"/>
                <use id="zoomminus" xlink:href="#zoomMin" x="42" y="9" onmousedown="handleZoom(evt,'out')"/>
                <use id="reset" xlink:href="#resetDef" x="30" y="36" onmousedown="handleReset()"/>
                <g id="arrowUp" xlink:href="#dirArrow" transform="translate(30 24)" onmousedown="handlePan(0,-1)">
                  <use xlink:href="#rim" fill="#404040">
                        <set attributeName="fill" to="#808080" begin="arrowUp.mouseover" end="arrowUp.mouseout"/>
                  </use>
                  <path fill="none" stroke="white" stroke-width="1.5" d="M0,-3.0v7 M-2.5,-0.5L0,-3.0L2.5,-0.5"/>
                </g>
                <g id="arrowRight" xlink:href="#dirArrow" transform="rotate(90) translate(36 -43)" onmousedown="handlePan(1,0)">
                  <use xlink:href="#rim" fill="#404040">
                        <set attributeName="fill" to="#808080" begin="arrowRight.mouseover" end="arrowRight.mouseout"/>
                  </use>
                  <path fill="none" stroke="white" stroke-width="1.5" d="M0,-3.0v7 M-2.5,-0.5L0,-3.0L2.5,-0.5"/>
                </g>
                <g id="arrowDown" xlink:href="#dirArrow" transform="rotate(180) translate(-30 -48)" onmousedown="handlePan(0,1)">
                  <use xlink:href="#rim" fill="#404040">
                        <set attributeName="fill" to="#808080" begin="arrowDown.mouseover" end="arrowDown.mouseout"/>
                  </use>
                  <path fill="none" stroke="white" stroke-width="1.5" d="M0,-3.0v7 M-2.5,-0.5L0,-3.0L2.5,-0.5"/>
                </g>
                <g id="arrowLeft" xlink:href="#dirArrow" transform="rotate(270) translate(-36 17)" onmousedown="handlePan(-1,0)">
                  <use xlink:href="#rim" fill="#404040">
                        <set attributeName="fill" to="#808080" begin="arrowLeft.mouseover" end="arrowLeft.mouseout"/>
                  </use>
                  <path fill="none" stroke="white" stroke-width="1.5" d="M0,-3.0v7 M-2.5,-0.5L0,-3.0L2.5,-0.5"/>
                </g>
        </g>
        <svg viewBox="0 0 15 15" width="100%" height="30px" preserveAspectRatio="xMaxYMin meet">
         <g id="arrow_out" transform="scale(0.3 0.3)">
          <a xlink:href="computer__memory_8h__incl_org.svg" target="_base">
           <rect id="button" ry="5" rx="5" y="6" x="6" height="38" width="38"
                fill="#f2f5e9" fill-opacity="0.5" stroke="#606060" stroke-width="1.0"/>
           <path id="arrow"
             d="M 11.500037,31.436501 C 11.940474,20.09759 22.043105,11.32322 32.158766,21.979434 L 37.068811,17.246167 C 37.068811,17.246167 37.088388,32 37.088388,32 L 22.160133,31.978069 C 22.160133,31.978069 26.997745,27.140456 26.997745,27.140456 C 18.528582,18.264221 13.291696,25.230495 11.500037,31.436501 z"
             style="fill:#404040;"/>
          </a>
         </g>
        </svg>
</svg>
