<?xml version="1.0" encoding="UTF-8" standalone="no"?>
<!DOCTYPE svg PUBLIC "-//W3C//DTD SVG 1.1//EN"
 "http://www.w3.org/Graphics/SVG/1.1/DTD/svg11.dtd">
<!-- Generated by graphviz version 2.43.0 (0)
 -->
<!-- Title: include/network_butcher/Butcher/constrained_block_graph_builder.h Pages: 1 -->
<svg width="1048pt" height="1221pt"
 viewBox="0.00 0.00 1048.00 1221.00" xmlns="http://www.w3.org/2000/svg" xmlns:xlink="http://www.w3.org/1999/xlink">
<g id="graph0" class="graph" transform="scale(1 1) rotate(0) translate(4 1217)">
<title>include/network_butcher/Butcher/constrained_block_graph_builder.h</title>
<polygon fill="white" stroke="transparent" points="-4,4 -4,-1217 1044,-1217 1044,4 -4,4"/>
<!-- Node1 -->
<g id="node1" class="node">
<title>Node1</title>
<g id="a_node1"><a xlink:title=" ">
<polygon fill="#bfbfbf" stroke="black" points="316.5,-1171.5 316.5,-1212.5 465.5,-1212.5 465.5,-1171.5 316.5,-1171.5"/>
<text text-anchor="start" x="324.5" y="-1200.5" font-family="Helvetica,sans-Serif" font-size="10.00">include/network_butcher</text>
<text text-anchor="start" x="324.5" y="-1189.5" font-family="Helvetica,sans-Serif" font-size="10.00">/Butcher/constrained_block</text>
<text text-anchor="middle" x="391" y="-1178.5" font-family="Helvetica,sans-Serif" font-size="10.00">_graph_builder.h</text>
</a>
</g>
</g>
<!-- Node2 -->
<g id="node2" class="node">
<title>Node2</title>
<g id="a_node2"><a xlink:title=" ">
<polygon fill="white" stroke="#bfbfbf" points="181,-1104.5 181,-1123.5 213,-1123.5 213,-1104.5 181,-1104.5"/>
<text text-anchor="middle" x="197" y="-1111.5" font-family="Helvetica,sans-Serif" font-size="10.00">list</text>
</a>
</g>
</g>
<!-- Node1&#45;&gt;Node2 -->
<g id="edge1" class="edge">
<title>Node1&#45;&gt;Node2</title>
<path fill="none" stroke="midnightblue" d="M316.27,-1172.46C286,-1163.38 251.34,-1150.93 222,-1135 219.34,-1133.56 216.69,-1131.83 214.15,-1129.99"/>
<polygon fill="midnightblue" stroke="midnightblue" points="216.17,-1127.13 206.17,-1123.64 211.82,-1132.61 216.17,-1127.13"/>
</g>
<!-- Node3 -->
<g id="node3" class="node">
<title>Node3</title>
<g id="a_node3"><a xlink:href="graph__traits_8h.html" target="_top" xlink:title=" ">
<polygon fill="white" stroke="black" points="550.5,-692.5 550.5,-722.5 693.5,-722.5 693.5,-692.5 550.5,-692.5"/>
<text text-anchor="start" x="558.5" y="-710.5" font-family="Helvetica,sans-Serif" font-size="10.00">network_butcher/Network</text>
<text text-anchor="middle" x="622" y="-699.5" font-family="Helvetica,sans-Serif" font-size="10.00">/graph_traits.h</text>
</a>
</g>
</g>
<!-- Node1&#45;&gt;Node3 -->
<g id="edge2" class="edge">
<title>Node1&#45;&gt;Node3</title>
<path fill="none" stroke="midnightblue" d="M465.68,-1173.52C534.16,-1152.54 625,-1109.92 625,-1031.5 625,-1031.5 625,-1031.5 625,-851.5 625,-809.85 623.71,-761.39 622.82,-732.92"/>
<polygon fill="midnightblue" stroke="midnightblue" points="626.32,-732.59 622.5,-722.71 619.32,-732.81 626.32,-732.59"/>
</g>
<!-- Node30 -->
<g id="node30" class="node">
<title>Node30</title>
<g id="a_node30"><a xlink:href="weight__importers_8h.html" target="_top" xlink:title=" ">
<polygon fill="white" stroke="black" points="231,-1093.5 231,-1134.5 343,-1134.5 343,-1093.5 231,-1093.5"/>
<text text-anchor="start" x="239" y="-1122.5" font-family="Helvetica,sans-Serif" font-size="10.00">network_butcher/IO</text>
<text text-anchor="start" x="239" y="-1111.5" font-family="Helvetica,sans-Serif" font-size="10.00">_Interaction/weight</text>
<text text-anchor="middle" x="287" y="-1100.5" font-family="Helvetica,sans-Serif" font-size="10.00">_importers.h</text>
</a>
</g>
</g>
<!-- Node1&#45;&gt;Node30 -->
<g id="edge53" class="edge">
<title>Node1&#45;&gt;Node30</title>
<path fill="none" stroke="midnightblue" d="M364.22,-1171.43C351.36,-1162.03 335.79,-1150.65 322,-1140.58"/>
<polygon fill="midnightblue" stroke="midnightblue" points="323.83,-1137.58 313.69,-1134.51 319.7,-1143.23 323.83,-1137.58"/>
</g>
<!-- Node40 -->
<g id="node40" class="node">
<title>Node40</title>
<g id="a_node40"><a xlink:href="graph__constraint_8h.html" target="_top" xlink:title=" ">
<polygon fill="white" stroke="black" points="377.5,-837.5 377.5,-867.5 516.5,-867.5 516.5,-837.5 377.5,-837.5"/>
<text text-anchor="start" x="385.5" y="-855.5" font-family="Helvetica,sans-Serif" font-size="10.00">network_butcher/Butcher</text>
<text text-anchor="middle" x="447" y="-844.5" font-family="Helvetica,sans-Serif" font-size="10.00">/graph_constraint.h</text>
</a>
</g>
</g>
<!-- Node1&#45;&gt;Node40 -->
<g id="edge73" class="edge">
<title>Node1&#45;&gt;Node40</title>
<path fill="none" stroke="midnightblue" d="M394.25,-1171.4C403.92,-1113.15 432.45,-941.21 443.01,-877.56"/>
<polygon fill="midnightblue" stroke="midnightblue" points="446.47,-878.08 444.65,-867.64 439.56,-876.93 446.47,-878.08"/>
</g>
<!-- Node4 -->
<g id="node4" class="node">
<title>Node4</title>
<g id="a_node4"><a xlink:href="graph_8h.html" target="_top" xlink:title=" ">
<polygon fill="white" stroke="black" points="616.5,-469.5 616.5,-499.5 759.5,-499.5 759.5,-469.5 616.5,-469.5"/>
<text text-anchor="start" x="624.5" y="-487.5" font-family="Helvetica,sans-Serif" font-size="10.00">network_butcher/Network</text>
<text text-anchor="middle" x="688" y="-476.5" font-family="Helvetica,sans-Serif" font-size="10.00">/graph.h</text>
</a>
</g>
</g>
<!-- Node3&#45;&gt;Node4 -->
<g id="edge3" class="edge">
<title>Node3&#45;&gt;Node4</title>
<path fill="none" stroke="midnightblue" d="M627.26,-692.38C636.47,-667.35 655.79,-613.46 669,-567 674.44,-547.86 679.5,-525.86 683.03,-509.55"/>
<polygon fill="midnightblue" stroke="midnightblue" points="686.46,-510.25 685.11,-499.74 679.61,-508.79 686.46,-510.25"/>
</g>
<!-- Node9 -->
<g id="node9" class="node">
<title>Node9</title>
<g id="a_node9"><a xlink:href="content_8h.html" target="_top" xlink:title=" ">
<polygon fill="white" stroke="black" points="844.5,-335.5 844.5,-365.5 973.5,-365.5 973.5,-335.5 844.5,-335.5"/>
<text text-anchor="start" x="852.5" y="-353.5" font-family="Helvetica,sans-Serif" font-size="10.00">network_butcher/Types</text>
<text text-anchor="middle" x="909" y="-342.5" font-family="Helvetica,sans-Serif" font-size="10.00">/content.h</text>
</a>
</g>
</g>
<!-- Node3&#45;&gt;Node9 -->
<g id="edge52" class="edge">
<title>Node3&#45;&gt;Node9</title>
<path fill="none" stroke="midnightblue" d="M693.86,-695.23C813.37,-674.43 1040,-625.39 1040,-552.5 1040,-552.5 1040,-552.5 1040,-483.5 1040,-431.04 987.23,-392 948.68,-370.48"/>
<polygon fill="midnightblue" stroke="midnightblue" points="950.18,-367.31 939.71,-365.64 946.85,-373.47 950.18,-367.31"/>
</g>
<!-- Node27 -->
<g id="node27" class="node">
<title>Node27</title>
<g id="a_node27"><a xlink:href="mwgraph_8h.html" target="_top" xlink:title=" ">
<polygon fill="white" stroke="black" points="516.5,-536.5 516.5,-566.5 659.5,-566.5 659.5,-536.5 516.5,-536.5"/>
<text text-anchor="start" x="524.5" y="-554.5" font-family="Helvetica,sans-Serif" font-size="10.00">network_butcher/Network</text>
<text text-anchor="middle" x="588" y="-543.5" font-family="Helvetica,sans-Serif" font-size="10.00">/mwgraph.h</text>
</a>
</g>
</g>
<!-- Node3&#45;&gt;Node27 -->
<g id="edge46" class="edge">
<title>Node3&#45;&gt;Node27</title>
<path fill="none" stroke="midnightblue" d="M619.89,-692.34C616.8,-672.31 610.58,-634.62 603,-603 600.88,-594.15 598.14,-584.54 595.58,-576.11"/>
<polygon fill="midnightblue" stroke="midnightblue" points="598.92,-575.05 592.61,-566.54 592.23,-577.13 598.92,-575.05"/>
</g>
<!-- Node28 -->
<g id="node28" class="node">
<title>Node28</title>
<g id="a_node28"><a xlink:href="wgraph_8h.html" target="_top" xlink:title=" ">
<polygon fill="white" stroke="black" points="450.5,-614.5 450.5,-644.5 593.5,-644.5 593.5,-614.5 450.5,-614.5"/>
<text text-anchor="start" x="458.5" y="-632.5" font-family="Helvetica,sans-Serif" font-size="10.00">network_butcher/Network</text>
<text text-anchor="middle" x="522" y="-621.5" font-family="Helvetica,sans-Serif" font-size="10.00">/wgraph.h</text>
</a>
</g>
</g>
<!-- Node3&#45;&gt;Node28 -->
<g id="edge48" class="edge">
<title>Node3&#45;&gt;Node28</title>
<path fill="none" stroke="midnightblue" d="M603.19,-692.2C587.83,-680.53 565.92,-663.88 548.73,-650.82"/>
<polygon fill="midnightblue" stroke="midnightblue" points="550.8,-648 540.72,-644.73 546.57,-653.57 550.8,-648"/>
</g>
<!-- Node5 -->
<g id="node5" class="node">
<title>Node5</title>
<g id="a_node5"><a xlink:title=" ">
<polygon fill="white" stroke="#bfbfbf" points="474,-140 474,-159 538,-159 538,-140 474,-140"/>
<text text-anchor="middle" x="506" y="-147" font-family="Helvetica,sans-Serif" font-size="10.00">algorithm</text>
</a>
</g>
</g>
<!-- Node4&#45;&gt;Node5 -->
<g id="edge4" class="edge">
<title>Node4&#45;&gt;Node5</title>
<path fill="none" stroke="midnightblue" d="M621.16,-469.41C596.99,-461.76 570.8,-450.21 551,-433 472.94,-365.16 492.1,-220.75 501.96,-169.24"/>
<polygon fill="midnightblue" stroke="midnightblue" points="505.44,-169.71 504,-159.22 498.58,-168.32 505.44,-169.71"/>
</g>
<!-- Node6 -->
<g id="node6" class="node">
<title>Node6</title>
<g id="a_node6"><a xlink:title=" ">
<polygon fill="white" stroke="#bfbfbf" points="556,-140 556,-159 612,-159 612,-140 556,-140"/>
<text text-anchor="middle" x="584" y="-147" font-family="Helvetica,sans-Serif" font-size="10.00">numeric</text>
</a>
</g>
</g>
<!-- Node4&#45;&gt;Node6 -->
<g id="edge5" class="edge">
<title>Node4&#45;&gt;Node6</title>
<path fill="none" stroke="midnightblue" d="M653.42,-469.49C614.97,-451.79 554.89,-417.33 529,-366 494.37,-297.35 546.89,-205.11 571.93,-167.52"/>
<polygon fill="midnightblue" stroke="midnightblue" points="574.88,-169.41 577.64,-159.19 569.1,-165.46 574.88,-169.41"/>
</g>
<!-- Node7 -->
<g id="node7" class="node">
<title>Node7</title>
<g id="a_node7"><a xlink:title=" ">
<polygon fill="white" stroke="#bfbfbf" points="604.5,-274 604.5,-293 649.5,-293 649.5,-274 604.5,-274"/>
<text text-anchor="middle" x="627" y="-281" font-family="Helvetica,sans-Serif" font-size="10.00">utility</text>
</a>
</g>
</g>
<!-- Node4&#45;&gt;Node7 -->
<g id="edge6" class="edge">
<title>Node4&#45;&gt;Node7</title>
<path fill="none" stroke="midnightblue" d="M692.22,-469.1C699.46,-441.48 711.53,-379.86 690,-335 682.46,-319.29 667.39,-306.93 653.87,-298.37"/>
<polygon fill="midnightblue" stroke="midnightblue" points="655.27,-295.13 644.88,-293.06 651.71,-301.16 655.27,-295.13"/>
</g>
<!-- Node8 -->
<g id="node8" class="node">
<title>Node8</title>
<g id="a_node8"><a xlink:title=" ">
<polygon fill="white" stroke="#bfbfbf" points="902.5,-6 902.5,-25 949.5,-25 949.5,-6 902.5,-6"/>
<text text-anchor="middle" x="926" y="-13" font-family="Helvetica,sans-Serif" font-size="10.00">vector</text>
</a>
</g>
</g>
<!-- Node4&#45;&gt;Node8 -->
<g id="edge7" class="edge">
<title>Node4&#45;&gt;Node8</title>
<path fill="none" stroke="midnightblue" d="M759.64,-483.43C852.32,-479.14 1002,-456.02 1002,-351.5 1002,-351.5 1002,-351.5 1002,-148.5 1002,-101.19 964.88,-55.54 942.53,-32.33"/>
<polygon fill="midnightblue" stroke="midnightblue" points="944.86,-29.71 935.32,-25.09 939.89,-34.65 944.86,-29.71"/>
</g>
<!-- Node4&#45;&gt;Node9 -->
<g id="edge8" class="edge">
<title>Node4&#45;&gt;Node9</title>
<path fill="none" stroke="midnightblue" d="M759.68,-473.61C810.11,-465.21 871.74,-451.55 890,-433 904.75,-418.01 908.9,-393.91 909.71,-375.8"/>
<polygon fill="midnightblue" stroke="midnightblue" points="913.21,-375.73 909.86,-365.68 906.21,-375.63 913.21,-375.73"/>
</g>
<!-- Node25 -->
<g id="node25" class="node">
<title>Node25</title>
<g id="a_node25"><a xlink:href="node_8h.html" target="_top" xlink:title=" ">
<polygon fill="white" stroke="black" points="537.5,-335.5 537.5,-365.5 680.5,-365.5 680.5,-335.5 537.5,-335.5"/>
<text text-anchor="start" x="545.5" y="-353.5" font-family="Helvetica,sans-Serif" font-size="10.00">network_butcher/Network</text>
<text text-anchor="middle" x="609" y="-342.5" font-family="Helvetica,sans-Serif" font-size="10.00">/node.h</text>
</a>
</g>
</g>
<!-- Node4&#45;&gt;Node25 -->
<g id="edge36" class="edge">
<title>Node4&#45;&gt;Node25</title>
<path fill="none" stroke="midnightblue" d="M679.55,-469.37C665.94,-446.65 639.07,-401.75 622.71,-374.4"/>
<polygon fill="midnightblue" stroke="midnightblue" points="625.53,-372.31 617.39,-365.52 619.53,-375.9 625.53,-372.31"/>
</g>
<!-- Node26 -->
<g id="node26" class="node">
<title>Node26</title>
<g id="a_node26"><a xlink:href="node__traits_8h.html" target="_top" xlink:title=" ">
<polygon fill="white" stroke="black" points="737.5,-402.5 737.5,-432.5 880.5,-432.5 880.5,-402.5 737.5,-402.5"/>
<text text-anchor="start" x="745.5" y="-420.5" font-family="Helvetica,sans-Serif" font-size="10.00">network_butcher/Network</text>
<text text-anchor="middle" x="809" y="-409.5" font-family="Helvetica,sans-Serif" font-size="10.00">/node_traits.h</text>
</a>
</g>
</g>
<!-- Node4&#45;&gt;Node26 -->
<g id="edge41" class="edge">
<title>Node4&#45;&gt;Node26</title>
<path fill="none" stroke="midnightblue" d="M714.26,-469.4C731.7,-460.03 754.8,-447.62 773.83,-437.39"/>
<polygon fill="midnightblue" stroke="midnightblue" points="775.64,-440.39 782.8,-432.58 772.33,-434.23 775.64,-440.39"/>
</g>
<!-- Node10 -->
<g id="node10" class="node">
<title>Node10</title>
<g id="a_node10"><a xlink:href="dense__tensor_8h.html" target="_top" xlink:title=" ">
<polygon fill="white" stroke="black" points="706.5,-268.5 706.5,-298.5 835.5,-298.5 835.5,-268.5 706.5,-268.5"/>
<text text-anchor="start" x="714.5" y="-286.5" font-family="Helvetica,sans-Serif" font-size="10.00">network_butcher/Types</text>
<text text-anchor="middle" x="771" y="-275.5" font-family="Helvetica,sans-Serif" font-size="10.00">/dense_tensor.h</text>
</a>
</g>
</g>
<!-- Node9&#45;&gt;Node10 -->
<g id="edge9" class="edge">
<title>Node9&#45;&gt;Node10</title>
<path fill="none" stroke="midnightblue" d="M879.06,-335.4C858.8,-325.86 831.85,-313.16 809.94,-302.84"/>
<polygon fill="midnightblue" stroke="midnightblue" points="811.42,-299.67 800.89,-298.58 808.44,-306 811.42,-299.67"/>
</g>
<!-- Node14 -->
<g id="node14" class="node">
<title>Node14</title>
<g id="a_node14"><a xlink:href="variant__attribute_8h.html" target="_top" xlink:title=" ">
<polygon fill="white" stroke="black" points="844.5,-201.5 844.5,-231.5 973.5,-231.5 973.5,-201.5 844.5,-201.5"/>
<text text-anchor="start" x="852.5" y="-219.5" font-family="Helvetica,sans-Serif" font-size="10.00">network_butcher/Types</text>
<text text-anchor="middle" x="909" y="-208.5" font-family="Helvetica,sans-Serif" font-size="10.00">/variant_attribute.h</text>
</a>
</g>
</g>
<!-- Node9&#45;&gt;Node14 -->
<g id="edge35" class="edge">
<title>Node9&#45;&gt;Node14</title>
<path fill="none" stroke="midnightblue" d="M909,-335.37C909,-313.04 909,-269.31 909,-241.85"/>
<polygon fill="midnightblue" stroke="midnightblue" points="912.5,-241.52 909,-231.52 905.5,-241.52 912.5,-241.52"/>
</g>
<!-- Node10&#45;&gt;Node8 -->
<g id="edge34" class="edge">
<title>Node10&#45;&gt;Node8</title>
<path fill="none" stroke="midnightblue" d="M779.33,-268.2C805.69,-222.97 887.18,-83.12 915.87,-33.88"/>
<polygon fill="midnightblue" stroke="midnightblue" points="919.01,-35.45 921.02,-25.05 912.96,-31.93 919.01,-35.45"/>
</g>
<!-- Node11 -->
<g id="node11" class="node">
<title>Node11</title>
<g id="a_node11"><a xlink:href="type__info_8h.html" target="_top" xlink:title=" ">
<polygon fill="white" stroke="black" points="680.5,-67.5 680.5,-97.5 809.5,-97.5 809.5,-67.5 680.5,-67.5"/>
<text text-anchor="start" x="688.5" y="-85.5" font-family="Helvetica,sans-Serif" font-size="10.00">network_butcher/Types</text>
<text text-anchor="middle" x="745" y="-74.5" font-family="Helvetica,sans-Serif" font-size="10.00">/type_info.h</text>
</a>
</g>
</g>
<!-- Node10&#45;&gt;Node11 -->
<g id="edge10" class="edge">
<title>Node10&#45;&gt;Node11</title>
<path fill="none" stroke="midnightblue" d="M769,-268.36C767.58,-258.23 765.64,-244.28 764,-232 758.18,-188.37 751.75,-137.47 748.06,-108.02"/>
<polygon fill="midnightblue" stroke="midnightblue" points="751.5,-107.33 746.78,-97.84 744.55,-108.2 751.5,-107.33"/>
</g>
<!-- Node10&#45;&gt;Node14 -->
<g id="edge14" class="edge">
<title>Node10&#45;&gt;Node14</title>
<path fill="none" stroke="midnightblue" d="M800.94,-268.4C821.2,-258.86 848.15,-246.16 870.06,-235.84"/>
<polygon fill="midnightblue" stroke="midnightblue" points="871.56,-239 879.11,-231.58 868.58,-232.67 871.56,-239"/>
</g>
<!-- Node16 -->
<g id="node16" class="node">
<title>Node16</title>
<g id="a_node16"><a xlink:href="utilities_8h.html" target="_top" xlink:title=" ">
<polygon fill="white" stroke="black" points="320.5,-207 320.5,-226 467.5,-226 467.5,-207 320.5,-207"/>
<text text-anchor="middle" x="394" y="-214" font-family="Helvetica,sans-Serif" font-size="10.00">network_butcher/utilities.h</text>
</a>
</g>
</g>
<!-- Node10&#45;&gt;Node16 -->
<g id="edge18" class="edge">
<title>Node10&#45;&gt;Node16</title>
<path fill="none" stroke="midnightblue" d="M706.17,-272.2C633.56,-260.06 517.25,-240.01 448.92,-227.85"/>
<polygon fill="midnightblue" stroke="midnightblue" points="449.25,-224.35 438.79,-226.04 448.02,-231.24 449.25,-224.35"/>
</g>
<!-- Node11&#45;&gt;Node8 -->
<g id="edge12" class="edge">
<title>Node11&#45;&gt;Node8</title>
<path fill="none" stroke="midnightblue" d="M784.27,-67.4C816.59,-55.79 861.91,-39.51 892.53,-28.52"/>
<polygon fill="midnightblue" stroke="midnightblue" points="894.08,-31.68 902.31,-25.01 891.72,-25.09 894.08,-31.68"/>
</g>
<!-- Node12 -->
<g id="node12" class="node">
<title>Node12</title>
<g id="a_node12"><a xlink:title=" ">
<polygon fill="white" stroke="#bfbfbf" points="761,-6 761,-25 805,-25 805,-6 761,-6"/>
<text text-anchor="middle" x="783" y="-13" font-family="Helvetica,sans-Serif" font-size="10.00">string</text>
</a>
</g>
</g>
<!-- Node11&#45;&gt;Node12 -->
<g id="edge11" class="edge">
<title>Node11&#45;&gt;Node12</title>
<path fill="none" stroke="midnightblue" d="M753.25,-67.4C758.99,-57.56 766.7,-44.38 772.83,-33.89"/>
<polygon fill="midnightblue" stroke="midnightblue" points="775.89,-35.59 777.92,-25.19 769.85,-32.06 775.89,-35.59"/>
</g>
<!-- Node13 -->
<g id="node13" class="node">
<title>Node13</title>
<g id="a_node13"><a xlink:href="starting__traits_8h.html" target="_top" xlink:title=" ">
<polygon fill="white" stroke="black" points="283,-0.5 283,-30.5 411,-30.5 411,-0.5 283,-0.5"/>
<text text-anchor="start" x="291" y="-18.5" font-family="Helvetica,sans-Serif" font-size="10.00">network_butcher/Traits</text>
<text text-anchor="middle" x="347" y="-7.5" font-family="Helvetica,sans-Serif" font-size="10.00">/starting_traits.h</text>
</a>
</g>
</g>
<!-- Node11&#45;&gt;Node13 -->
<g id="edge13" class="edge">
<title>Node11&#45;&gt;Node13</title>
<path fill="none" stroke="midnightblue" d="M680.45,-68.7C677.26,-68.11 674.09,-67.54 671,-67 585.58,-51.98 487.08,-36.95 421.32,-27.25"/>
<polygon fill="midnightblue" stroke="midnightblue" points="421.46,-23.73 411.06,-25.73 420.44,-30.65 421.46,-23.73"/>
</g>
<!-- Node14&#45;&gt;Node8 -->
<g id="edge17" class="edge">
<title>Node14&#45;&gt;Node8</title>
<path fill="none" stroke="midnightblue" d="M921.99,-201.25C929.74,-191.75 938.86,-178.55 943,-165 956.85,-119.65 942.26,-63.37 932.78,-34.88"/>
<polygon fill="midnightblue" stroke="midnightblue" points="935.96,-33.37 929.35,-25.09 929.36,-35.69 935.96,-33.37"/>
</g>
<!-- Node14&#45;&gt;Node12 -->
<g id="edge15" class="edge">
<title>Node14&#45;&gt;Node12</title>
<path fill="none" stroke="midnightblue" d="M898.52,-201.16C891.36,-191.18 881.8,-177.48 874,-165 847.52,-122.65 845.76,-109.17 819,-67 811.74,-55.56 802.93,-43.17 795.83,-33.53"/>
<polygon fill="midnightblue" stroke="midnightblue" points="798.45,-31.17 789.67,-25.24 792.83,-35.35 798.45,-31.17"/>
</g>
<!-- Node15 -->
<g id="node15" class="node">
<title>Node15</title>
<g id="a_node15"><a xlink:title=" ">
<polygon fill="white" stroke="#bfbfbf" points="882.5,-140 882.5,-159 933.5,-159 933.5,-140 882.5,-140"/>
<text text-anchor="middle" x="908" y="-147" font-family="Helvetica,sans-Serif" font-size="10.00">variant</text>
</a>
</g>
</g>
<!-- Node14&#45;&gt;Node15 -->
<g id="edge16" class="edge">
<title>Node14&#45;&gt;Node15</title>
<path fill="none" stroke="midnightblue" d="M908.78,-201.4C908.64,-192.06 908.45,-179.71 908.29,-169.52"/>
<polygon fill="midnightblue" stroke="midnightblue" points="911.79,-169.14 908.13,-159.19 904.79,-169.25 911.79,-169.14"/>
</g>
<!-- Node16&#45;&gt;Node5 -->
<g id="edge19" class="edge">
<title>Node16&#45;&gt;Node5</title>
<path fill="none" stroke="midnightblue" d="M409.1,-206.73C427.91,-195.82 460.25,-177.05 482.36,-164.22"/>
<polygon fill="midnightblue" stroke="midnightblue" points="484.24,-167.17 491.13,-159.13 480.73,-161.12 484.24,-167.17"/>
</g>
<!-- Node16&#45;&gt;Node6 -->
<g id="edge20" class="edge">
<title>Node16&#45;&gt;Node6</title>
<path fill="none" stroke="midnightblue" d="M421.52,-206.92C452.27,-197.21 503.45,-180.71 547,-165 548.9,-164.32 550.85,-163.6 552.81,-162.86"/>
<polygon fill="midnightblue" stroke="midnightblue" points="554.47,-165.98 562.55,-159.13 551.96,-159.44 554.47,-165.98"/>
</g>
<!-- Node16&#45;&gt;Node10 -->
<g id="edge32" class="edge">
<title>Node16&#45;&gt;Node10</title>
<path fill="none" stroke="midnightblue" d="M448.26,-226.04C513.48,-236.88 623.11,-255.73 696.29,-268.64"/>
<polygon fill="midnightblue" stroke="midnightblue" points="695.9,-272.13 706.36,-270.43 697.12,-265.24 695.9,-272.13"/>
</g>
<!-- Node16&#45;&gt;Node11 -->
<g id="edge33" class="edge">
<title>Node16&#45;&gt;Node11</title>
<path fill="none" stroke="midnightblue" d="M398.74,-206.89C408.62,-189.86 433.13,-151.98 465,-134 543.19,-89.9 577.26,-113.2 670.33,-97.99"/>
<polygon fill="midnightblue" stroke="midnightblue" points="671.19,-101.4 680.44,-96.23 669.99,-94.5 671.19,-101.4"/>
</g>
<!-- Node17 -->
<g id="node17" class="node">
<title>Node17</title>
<g id="a_node17"><a xlink:title=" ">
<polygon fill="white" stroke="#bfbfbf" points="208,-140 208,-159 276,-159 276,-140 208,-140"/>
<text text-anchor="middle" x="242" y="-147" font-family="Helvetica,sans-Serif" font-size="10.00">filesystem</text>
</a>
</g>
</g>
<!-- Node16&#45;&gt;Node17 -->
<g id="edge21" class="edge">
<title>Node16&#45;&gt;Node17</title>
<path fill="none" stroke="midnightblue" d="M373.82,-206.87C347.7,-195.7 301.97,-176.15 271.84,-163.26"/>
<polygon fill="midnightblue" stroke="midnightblue" points="272.84,-159.88 262.27,-159.17 270.09,-166.32 272.84,-159.88"/>
</g>
<!-- Node18 -->
<g id="node18" class="node">
<title>Node18</title>
<g id="a_node18"><a xlink:title=" ">
<polygon fill="white" stroke="#bfbfbf" points="294.5,-140 294.5,-159 349.5,-159 349.5,-140 294.5,-140"/>
<text text-anchor="middle" x="322" y="-147" font-family="Helvetica,sans-Serif" font-size="10.00">fstream</text>
</a>
</g>
</g>
<!-- Node16&#45;&gt;Node18 -->
<g id="edge22" class="edge">
<title>Node16&#45;&gt;Node18</title>
<path fill="none" stroke="midnightblue" d="M384.29,-206.73C372.74,-196.31 353.25,-178.71 339.14,-165.97"/>
<polygon fill="midnightblue" stroke="midnightblue" points="341.32,-163.23 331.56,-159.13 336.63,-168.43 341.32,-163.23"/>
</g>
<!-- Node19 -->
<g id="node19" class="node">
<title>Node19</title>
<g id="a_node19"><a xlink:title=" ">
<polygon fill="white" stroke="#bfbfbf" points="368,-140 368,-159 418,-159 418,-140 368,-140"/>
<text text-anchor="middle" x="393" y="-147" font-family="Helvetica,sans-Serif" font-size="10.00">ranges</text>
</a>
</g>
</g>
<!-- Node16&#45;&gt;Node19 -->
<g id="edge23" class="edge">
<title>Node16&#45;&gt;Node19</title>
<path fill="none" stroke="midnightblue" d="M393.87,-206.73C393.72,-197.18 393.48,-181.62 393.29,-169.28"/>
<polygon fill="midnightblue" stroke="midnightblue" points="396.79,-169.07 393.13,-159.13 389.79,-169.18 396.79,-169.07"/>
</g>
<!-- Node20 -->
<g id="node20" class="node">
<title>Node20</title>
<g id="a_node20"><a xlink:title=" ">
<polygon fill="white" stroke="#bfbfbf" points="144.5,-67.5 144.5,-97.5 269.5,-97.5 269.5,-67.5 144.5,-67.5"/>
<text text-anchor="start" x="152.5" y="-85.5" font-family="Helvetica,sans-Serif" font-size="10.00">network_butcher/onnx</text>
<text text-anchor="middle" x="207" y="-74.5" font-family="Helvetica,sans-Serif" font-size="10.00">_proto/onnx.pb.h</text>
</a>
</g>
</g>
<!-- Node16&#45;&gt;Node20 -->
<g id="edge24" class="edge">
<title>Node16&#45;&gt;Node20</title>
<path fill="none" stroke="midnightblue" d="M349.66,-206.98C295.05,-196.04 208.31,-177.03 199,-165 186.42,-148.74 190.6,-124.84 196.63,-107.13"/>
<polygon fill="midnightblue" stroke="midnightblue" points="200,-108.1 200.27,-97.51 193.46,-105.62 200,-108.1"/>
</g>
<!-- Node21 -->
<g id="node21" class="node">
<title>Node21</title>
<g id="a_node21"><a xlink:href="traits_8h.html" target="_top" xlink:title=" ">
<polygon fill="white" stroke="black" points="24,-134.5 24,-164.5 152,-164.5 152,-134.5 24,-134.5"/>
<text text-anchor="start" x="32" y="-152.5" font-family="Helvetica,sans-Serif" font-size="10.00">network_butcher/Traits</text>
<text text-anchor="middle" x="88" y="-141.5" font-family="Helvetica,sans-Serif" font-size="10.00">/traits.h</text>
</a>
</g>
</g>
<!-- Node16&#45;&gt;Node21 -->
<g id="edge25" class="edge">
<title>Node16&#45;&gt;Node21</title>
<path fill="none" stroke="midnightblue" d="M353.68,-206.94C305.03,-196.6 222.25,-179.02 162,-166.22"/>
<polygon fill="midnightblue" stroke="midnightblue" points="162.67,-162.78 152.16,-164.13 161.21,-169.63 162.67,-162.78"/>
</g>
<!-- Node21&#45;&gt;Node11 -->
<g id="edge30" class="edge">
<title>Node21&#45;&gt;Node11</title>
<path fill="none" stroke="midnightblue" d="M152.2,-139.52C167.52,-137.54 183.82,-135.57 199,-134 405,-112.7 460.79,-125.85 670.02,-98.02"/>
<polygon fill="midnightblue" stroke="midnightblue" points="670.66,-101.47 680.1,-96.66 669.72,-94.53 670.66,-101.47"/>
</g>
<!-- Node21&#45;&gt;Node13 -->
<g id="edge29" class="edge">
<title>Node21&#45;&gt;Node13</title>
<path fill="none" stroke="midnightblue" d="M82.34,-134.31C76.26,-116.47 69.4,-85.89 85,-67 108.42,-38.63 203.65,-26.02 272.56,-20.54"/>
<polygon fill="midnightblue" stroke="midnightblue" points="273.24,-24 282.95,-19.75 272.71,-17.02 273.24,-24"/>
</g>
<!-- Node21&#45;&gt;Node20 -->
<g id="edge31" class="edge">
<title>Node21&#45;&gt;Node20</title>
<path fill="none" stroke="midnightblue" d="M113.82,-134.4C130.97,-125.03 153.7,-112.62 172.41,-102.39"/>
<polygon fill="midnightblue" stroke="midnightblue" points="174.13,-105.44 181.23,-97.58 170.78,-99.3 174.13,-105.44"/>
</g>
<!-- Node22 -->
<g id="node22" class="node">
<title>Node22</title>
<g id="a_node22"><a xlink:title=" ">
<polygon fill="white" stroke="#bfbfbf" points="94,-73 94,-92 126,-92 126,-73 94,-73"/>
<text text-anchor="middle" x="110" y="-80" font-family="Helvetica,sans-Serif" font-size="10.00">set</text>
</a>
</g>
</g>
<!-- Node21&#45;&gt;Node22 -->
<g id="edge26" class="edge">
<title>Node21&#45;&gt;Node22</title>
<path fill="none" stroke="midnightblue" d="M92.77,-134.4C96,-124.86 100.29,-112.18 103.79,-101.86"/>
<polygon fill="midnightblue" stroke="midnightblue" points="107.17,-102.79 107.06,-92.19 100.54,-100.54 107.17,-102.79"/>
</g>
<!-- Node23 -->
<g id="node23" class="node">
<title>Node23</title>
<g id="a_node23"><a xlink:title=" ">
<polygon fill="white" stroke="#bfbfbf" points="0,-73 0,-92 38,-92 38,-73 0,-73"/>
<text text-anchor="middle" x="19" y="-80" font-family="Helvetica,sans-Serif" font-size="10.00">map</text>
</a>
</g>
</g>
<!-- Node21&#45;&gt;Node23 -->
<g id="edge27" class="edge">
<title>Node21&#45;&gt;Node23</title>
<path fill="none" stroke="midnightblue" d="M73.03,-134.4C62.06,-124.06 47.16,-110.02 35.78,-99.31"/>
<polygon fill="midnightblue" stroke="midnightblue" points="37.91,-96.5 28.23,-92.19 33.11,-101.6 37.91,-96.5"/>
</g>
<!-- Node24 -->
<g id="node24" class="node">
<title>Node24</title>
<g id="a_node24"><a xlink:title=" ">
<polygon fill="white" stroke="#bfbfbf" points="604,-73 604,-92 662,-92 662,-73 604,-73"/>
<text text-anchor="middle" x="633" y="-80" font-family="Helvetica,sans-Serif" font-size="10.00">memory</text>
</a>
</g>
</g>
<!-- Node21&#45;&gt;Node24 -->
<g id="edge28" class="edge">
<title>Node21&#45;&gt;Node24</title>
<path fill="none" stroke="midnightblue" d="M152.25,-139.95C167.57,-137.96 183.86,-135.87 199,-134 344.42,-116.04 517.48,-96.43 593.68,-87.89"/>
<polygon fill="midnightblue" stroke="midnightblue" points="594.23,-91.35 603.77,-86.76 593.45,-84.39 594.23,-91.35"/>
</g>
<!-- Node25&#45;&gt;Node7 -->
<g id="edge40" class="edge">
<title>Node25&#45;&gt;Node7</title>
<path fill="none" stroke="midnightblue" d="M612.91,-335.4C615.55,-325.86 619.06,-313.18 621.92,-302.86"/>
<polygon fill="midnightblue" stroke="midnightblue" points="625.3,-303.77 624.59,-293.19 618.55,-301.9 625.3,-303.77"/>
</g>
<!-- Node25&#45;&gt;Node10 -->
<g id="edge37" class="edge">
<title>Node25&#45;&gt;Node10</title>
<path fill="none" stroke="midnightblue" d="M644.15,-335.4C668.25,-325.73 700.41,-312.82 726.32,-302.43"/>
<polygon fill="midnightblue" stroke="midnightblue" points="727.94,-305.55 735.92,-298.58 725.33,-299.05 727.94,-305.55"/>
</g>
<!-- Node25&#45;&gt;Node21 -->
<g id="edge38" class="edge">
<title>Node25&#45;&gt;Node21</title>
<path fill="none" stroke="midnightblue" d="M571.95,-335.35C479.05,-299.86 236.36,-207.17 134.29,-168.18"/>
<polygon fill="midnightblue" stroke="midnightblue" points="135.45,-164.88 124.86,-164.58 132.96,-171.42 135.45,-164.88"/>
</g>
<!-- Node25&#45;&gt;Node24 -->
<g id="edge39" class="edge">
<title>Node25&#45;&gt;Node24</title>
<path fill="none" stroke="midnightblue" d="M604.26,-335.1C601.22,-325.1 597.57,-311.39 596,-299 588.39,-238.9 609.43,-224.47 621,-165 625.17,-143.56 628.64,-118.69 630.75,-102.11"/>
<polygon fill="midnightblue" stroke="midnightblue" points="634.24,-102.46 632,-92.11 627.29,-101.6 634.24,-102.46"/>
</g>
<!-- Node26&#45;&gt;Node9 -->
<g id="edge43" class="edge">
<title>Node26&#45;&gt;Node9</title>
<path fill="none" stroke="midnightblue" d="M830.7,-402.4C844.72,-393.28 863.17,-381.29 878.64,-371.24"/>
<polygon fill="midnightblue" stroke="midnightblue" points="880.87,-373.96 887.34,-365.58 877.05,-368.09 880.87,-373.96"/>
</g>
<!-- Node26&#45;&gt;Node11 -->
<g id="edge45" class="edge">
<title>Node26&#45;&gt;Node11</title>
<path fill="none" stroke="midnightblue" d="M813.91,-402.35C823.04,-375.81 841.95,-319.36 845,-299 847.04,-285.37 848.39,-281.36 845,-268 828.89,-204.46 786.03,-139.1 761.98,-105.86"/>
<polygon fill="midnightblue" stroke="midnightblue" points="764.75,-103.73 756.01,-97.75 759.11,-107.88 764.75,-103.73"/>
</g>
<!-- Node26&#45;&gt;Node24 -->
<g id="edge42" class="edge">
<title>Node26&#45;&gt;Node24</title>
<path fill="none" stroke="midnightblue" d="M791.34,-402.46C766.92,-382.15 723.03,-342.22 698,-299 659.5,-232.52 641.8,-141.06 635.66,-102.19"/>
<polygon fill="midnightblue" stroke="midnightblue" points="639.12,-101.66 634.17,-92.29 632.19,-102.7 639.12,-101.66"/>
</g>
<!-- Node26&#45;&gt;Node25 -->
<g id="edge44" class="edge">
<title>Node26&#45;&gt;Node25</title>
<path fill="none" stroke="midnightblue" d="M765.6,-402.4C735.2,-392.52 694.39,-379.25 662.06,-368.74"/>
<polygon fill="midnightblue" stroke="midnightblue" points="662.9,-365.34 652.31,-365.58 660.74,-372 662.9,-365.34"/>
</g>
<!-- Node27&#45;&gt;Node4 -->
<g id="edge47" class="edge">
<title>Node27&#45;&gt;Node4</title>
<path fill="none" stroke="midnightblue" d="M609.7,-536.4C623.72,-527.28 642.17,-515.29 657.64,-505.24"/>
<polygon fill="midnightblue" stroke="midnightblue" points="659.87,-507.96 666.34,-499.58 656.05,-502.09 659.87,-507.96"/>
</g>
<!-- Node28&#45;&gt;Node27 -->
<g id="edge51" class="edge">
<title>Node28&#45;&gt;Node27</title>
<path fill="none" stroke="midnightblue" d="M534.41,-614.2C544.09,-603.06 557.71,-587.38 568.79,-574.62"/>
<polygon fill="midnightblue" stroke="midnightblue" points="571.73,-576.58 575.64,-566.73 566.44,-571.99 571.73,-576.58"/>
</g>
<!-- Node29 -->
<g id="node29" class="node">
<title>Node29</title>
<g id="a_node29"><a xlink:href="weighted__graph_8h.html" target="_top" xlink:title=" ">
<polygon fill="white" stroke="black" points="236,-469.5 236,-499.5 386,-499.5 386,-469.5 236,-469.5"/>
<text text-anchor="start" x="244" y="-487.5" font-family="Helvetica,sans-Serif" font-size="10.00">network_butcher/K&#45;shortest</text>
<text text-anchor="middle" x="311" y="-476.5" font-family="Helvetica,sans-Serif" font-size="10.00">_path/weighted_graph.h</text>
</a>
</g>
</g>
<!-- Node28&#45;&gt;Node29 -->
<g id="edge49" class="edge">
<title>Node28&#45;&gt;Node29</title>
<path fill="none" stroke="midnightblue" d="M501,-614.27C463.16,-588.62 383.47,-534.62 340.3,-505.35"/>
<polygon fill="midnightblue" stroke="midnightblue" points="342.16,-502.39 331.92,-499.68 338.23,-508.18 342.16,-502.39"/>
</g>
<!-- Node29&#45;&gt;Node21 -->
<g id="edge50" class="edge">
<title>Node29&#45;&gt;Node21</title>
<path fill="none" stroke="midnightblue" d="M277.35,-469.37C236.21,-449.58 172,-409.41 172,-351.5 172,-351.5 172,-351.5 172,-282.5 172,-244.74 168.65,-232.61 148,-201 140.42,-189.4 129.38,-179.04 118.83,-170.77"/>
<polygon fill="midnightblue" stroke="midnightblue" points="120.66,-167.77 110.56,-164.6 116.48,-173.38 120.66,-167.77"/>
</g>
<!-- Node31 -->
<g id="node31" class="node">
<title>Node31</title>
<g id="a_node31"><a xlink:href="block__aMLLibrary__weight__importer_8h.html" target="_top" xlink:title=" ">
<polygon fill="white" stroke="black" points="150,-1004.5 150,-1056.5 320,-1056.5 320,-1004.5 150,-1004.5"/>
<text text-anchor="start" x="158" y="-1044.5" font-family="Helvetica,sans-Serif" font-size="10.00">network_butcher/IO</text>
<text text-anchor="start" x="158" y="-1033.5" font-family="Helvetica,sans-Serif" font-size="10.00">_Interaction/Weight</text>
<text text-anchor="start" x="158" y="-1022.5" font-family="Helvetica,sans-Serif" font-size="10.00">_Importer_Helpers/block</text>
<text text-anchor="middle" x="235" y="-1011.5" font-family="Helvetica,sans-Serif" font-size="10.00">_aMLLibrary_weight_importer.h</text>
</a>
</g>
</g>
<!-- Node30&#45;&gt;Node31 -->
<g id="edge54" class="edge">
<title>Node30&#45;&gt;Node31</title>
<path fill="none" stroke="midnightblue" d="M274.41,-1093.27C269.03,-1084.83 262.59,-1074.73 256.49,-1065.17"/>
<polygon fill="midnightblue" stroke="midnightblue" points="259.35,-1063.15 251.02,-1056.61 253.45,-1066.92 259.35,-1063.15"/>
</g>
<!-- Node39 -->
<g id="node39" class="node">
<title>Node39</title>
<g id="a_node39"><a xlink:href="csv__weight__importer_8h.html" target="_top" xlink:title=" ">
<polygon fill="white" stroke="black" points="3,-915.5 3,-967.5 129,-967.5 129,-915.5 3,-915.5"/>
<text text-anchor="start" x="11" y="-955.5" font-family="Helvetica,sans-Serif" font-size="10.00">network_butcher/IO</text>
<text text-anchor="start" x="11" y="-944.5" font-family="Helvetica,sans-Serif" font-size="10.00">_Interaction/Weight</text>
<text text-anchor="start" x="11" y="-933.5" font-family="Helvetica,sans-Serif" font-size="10.00">_Importer_Helpers/csv</text>
<text text-anchor="middle" x="66" y="-922.5" font-family="Helvetica,sans-Serif" font-size="10.00">_weight_importer.h</text>
</a>
</g>
</g>
<!-- Node30&#45;&gt;Node39 -->
<g id="edge72" class="edge">
<title>Node30&#45;&gt;Node39</title>
<path fill="none" stroke="midnightblue" d="M230.69,-1095.39C195.97,-1083.78 155.42,-1068.63 141,-1057 114.43,-1035.57 94.06,-1002.14 81.3,-976.92"/>
<polygon fill="midnightblue" stroke="midnightblue" points="84.33,-975.14 76.79,-967.7 78.04,-978.22 84.33,-975.14"/>
</g>
<!-- Node32 -->
<g id="node32" class="node">
<title>Node32</title>
<g id="a_node32"><a xlink:title=" ">
<polygon fill="white" stroke="#bfbfbf" points="185.5,-932 185.5,-951 232.5,-951 232.5,-932 185.5,-932"/>
<text text-anchor="middle" x="209" y="-939" font-family="Helvetica,sans-Serif" font-size="10.00">cmath</text>
</a>
</g>
</g>
<!-- Node31&#45;&gt;Node32 -->
<g id="edge55" class="edge">
<title>Node31&#45;&gt;Node32</title>
<path fill="none" stroke="midnightblue" d="M227.48,-1004.34C223.35,-990.52 218.32,-973.68 214.55,-961.06"/>
<polygon fill="midnightblue" stroke="midnightblue" points="217.83,-959.83 211.61,-951.25 211.12,-961.83 217.83,-959.83"/>
</g>
<!-- Node33 -->
<g id="node33" class="node">
<title>Node33</title>
<g id="a_node33"><a xlink:href="computer__memory_8h.html" target="_top" xlink:title=" ">
<polygon fill="white" stroke="black" points="372.5,-759.5 372.5,-789.5 521.5,-789.5 521.5,-759.5 372.5,-759.5"/>
<text text-anchor="start" x="380.5" y="-777.5" font-family="Helvetica,sans-Serif" font-size="10.00">network_butcher/Computer</text>
<text text-anchor="middle" x="447" y="-766.5" font-family="Helvetica,sans-Serif" font-size="10.00">/computer_memory.h</text>
</a>
</g>
</g>
<!-- Node31&#45;&gt;Node33 -->
<g id="edge56" class="edge">
<title>Node31&#45;&gt;Node33</title>
<path fill="none" stroke="midnightblue" d="M250.72,-1004.39C282.83,-953.27 354.21,-840.67 369,-826 381.12,-813.98 396.55,-803.26 410.48,-794.83"/>
<polygon fill="midnightblue" stroke="midnightblue" points="412.5,-797.7 419.36,-789.63 408.97,-791.66 412.5,-797.7"/>
</g>
<!-- Node35 -->
<g id="node35" class="node">
<title>Node35</title>
<g id="a_node35"><a xlink:href="weight__importer_8h.html" target="_top" xlink:title=" ">
<polygon fill="white" stroke="black" points="177.5,-826.5 177.5,-878.5 320.5,-878.5 320.5,-826.5 177.5,-826.5"/>
<text text-anchor="start" x="185.5" y="-866.5" font-family="Helvetica,sans-Serif" font-size="10.00">network_butcher/IO</text>
<text text-anchor="start" x="185.5" y="-855.5" font-family="Helvetica,sans-Serif" font-size="10.00">_Interaction/Weight</text>
<text text-anchor="start" x="185.5" y="-844.5" font-family="Helvetica,sans-Serif" font-size="10.00">_Importer_Helpers/weight</text>
<text text-anchor="middle" x="249" y="-833.5" font-family="Helvetica,sans-Serif" font-size="10.00">_importer.h</text>
</a>
</g>
</g>
<!-- Node31&#45;&gt;Node35 -->
<g id="edge60" class="edge">
<title>Node31&#45;&gt;Node35</title>
<path fill="none" stroke="midnightblue" d="M238.16,-1004.4C239.48,-993.26 240.95,-979.99 242,-968 244.32,-941.45 246.13,-911.38 247.32,-888.71"/>
<polygon fill="midnightblue" stroke="midnightblue" points="250.83,-888.71 247.85,-878.54 243.84,-888.35 250.83,-888.71"/>
</g>
<!-- Node38 -->
<g id="node38" class="node">
<title>Node38</title>
<g id="a_node38"><a xlink:href="weight__importer__utils_8h.html" target="_top" xlink:title=" ">
<polygon fill="white" stroke="black" points="15.5,-603.5 15.5,-655.5 158.5,-655.5 158.5,-603.5 15.5,-603.5"/>
<text text-anchor="start" x="23.5" y="-643.5" font-family="Helvetica,sans-Serif" font-size="10.00">network_butcher/IO</text>
<text text-anchor="start" x="23.5" y="-632.5" font-family="Helvetica,sans-Serif" font-size="10.00">_Interaction/Weight</text>
<text text-anchor="start" x="23.5" y="-621.5" font-family="Helvetica,sans-Serif" font-size="10.00">_Importer_Helpers/weight</text>
<text text-anchor="middle" x="87" y="-610.5" font-family="Helvetica,sans-Serif" font-size="10.00">_importer_utils.h</text>
</a>
</g>
</g>
<!-- Node31&#45;&gt;Node38 -->
<g id="edge66" class="edge">
<title>Node31&#45;&gt;Node38</title>
<path fill="none" stroke="midnightblue" d="M205.8,-1004.3C195.39,-993.98 184.43,-981.33 177,-968 147.68,-915.38 109.67,-741.19 94.11,-665.8"/>
<polygon fill="midnightblue" stroke="midnightblue" points="97.51,-664.93 92.07,-655.84 90.65,-666.34 97.51,-664.93"/>
</g>
<!-- Node31&#45;&gt;Node39 -->
<g id="edge69" class="edge">
<title>Node31&#45;&gt;Node39</title>
<path fill="none" stroke="midnightblue" d="M186.12,-1004.34C166.67,-994.33 144.15,-982.73 123.9,-972.31"/>
<polygon fill="midnightblue" stroke="midnightblue" points="125.26,-969.07 114.77,-967.61 122.06,-975.3 125.26,-969.07"/>
</g>
<!-- Node33&#45;&gt;Node16 -->
<g id="edge58" class="edge">
<title>Node33&#45;&gt;Node16</title>
<path fill="none" stroke="midnightblue" d="M450.55,-759.46C452.9,-749.39 455.78,-735.45 457,-723 458.34,-709.29 459.7,-705.51 457,-692 453.6,-675 447,-672.6 442,-656 428.48,-611.14 422,-599.35 422,-552.5 422,-552.5 422,-552.5 422,-349.5 422,-308.07 408.64,-260.9 400.38,-235.68"/>
<polygon fill="midnightblue" stroke="midnightblue" points="403.63,-234.36 397.1,-226.02 397,-236.61 403.63,-234.36"/>
</g>
<!-- Node33&#45;&gt;Node28 -->
<g id="edge59" class="edge">
<title>Node33&#45;&gt;Node28</title>
<path fill="none" stroke="midnightblue" d="M461.77,-759.15C470.92,-749.61 482.34,-736.4 490,-723 502.45,-701.22 511.18,-673.79 516.35,-654.47"/>
<polygon fill="midnightblue" stroke="midnightblue" points="519.77,-655.22 518.85,-644.67 512.99,-653.49 519.77,-655.22"/>
</g>
<!-- Node34 -->
<g id="node34" class="node">
<title>Node34</title>
<g id="a_node34"><a xlink:title=" ">
<polygon fill="white" stroke="#bfbfbf" points="382.5,-698 382.5,-717 447.5,-717 447.5,-698 382.5,-698"/>
<text text-anchor="middle" x="415" y="-705" font-family="Helvetica,sans-Serif" font-size="10.00">functional</text>
</a>
</g>
</g>
<!-- Node33&#45;&gt;Node34 -->
<g id="edge57" class="edge">
<title>Node33&#45;&gt;Node34</title>
<path fill="none" stroke="midnightblue" d="M440.06,-759.4C435.26,-749.66 428.86,-736.65 423.72,-726.21"/>
<polygon fill="midnightblue" stroke="midnightblue" points="426.84,-724.62 419.28,-717.19 420.56,-727.71 426.84,-724.62"/>
</g>
<!-- Node35&#45;&gt;Node3 -->
<g id="edge61" class="edge">
<title>Node35&#45;&gt;Node3</title>
<path fill="none" stroke="midnightblue" d="M320.84,-836.08C403.61,-818.28 528.64,-791.27 531,-790 548.45,-780.64 548.36,-772.33 563,-759 574.04,-748.94 586.57,-738.14 597.24,-729.11"/>
<polygon fill="midnightblue" stroke="midnightblue" points="599.58,-731.71 604.98,-722.6 595.07,-726.36 599.58,-731.71"/>
</g>
<!-- Node35&#45;&gt;Node21 -->
<g id="edge65" class="edge">
<title>Node35&#45;&gt;Node21</title>
<path fill="none" stroke="midnightblue" d="M230.57,-826.31C212.29,-798.8 187,-752.74 187,-708.5 187,-708.5 187,-708.5 187,-628.5 187,-503.16 134,-476.84 134,-351.5 134,-351.5 134,-351.5 134,-282.5 134,-242.47 114.91,-199.23 101.32,-173.53"/>
<polygon fill="midnightblue" stroke="midnightblue" points="104.3,-171.69 96.44,-164.59 98.16,-175.04 104.3,-171.69"/>
</g>
<!-- Node36 -->
<g id="node36" class="node">
<title>Node36</title>
<g id="a_node36"><a xlink:href="parameters_8h.html" target="_top" xlink:title=" ">
<polygon fill="white" stroke="black" points="225.5,-759.5 225.5,-789.5 354.5,-789.5 354.5,-759.5 225.5,-759.5"/>
<text text-anchor="start" x="233.5" y="-777.5" font-family="Helvetica,sans-Serif" font-size="10.00">network_butcher/Types</text>
<text text-anchor="middle" x="290" y="-766.5" font-family="Helvetica,sans-Serif" font-size="10.00">/parameters.h</text>
</a>
</g>
</g>
<!-- Node35&#45;&gt;Node36 -->
<g id="edge62" class="edge">
<title>Node35&#45;&gt;Node36</title>
<path fill="none" stroke="midnightblue" d="M262.65,-826.19C267.44,-817.31 272.8,-807.39 277.49,-798.69"/>
<polygon fill="midnightblue" stroke="midnightblue" points="280.59,-800.31 282.26,-789.85 274.43,-796.98 280.59,-800.31"/>
</g>
<!-- Node36&#45;&gt;Node3 -->
<g id="edge63" class="edge">
<title>Node36&#45;&gt;Node3</title>
<path fill="none" stroke="midnightblue" d="M354.57,-760.85C357.76,-760.22 360.92,-759.6 364,-759 423,-747.45 489.59,-734.41 540.33,-724.48"/>
<polygon fill="midnightblue" stroke="midnightblue" points="541.12,-727.89 550.27,-722.54 539.78,-721.02 541.12,-727.89"/>
</g>
<!-- Node37 -->
<g id="node37" class="node">
<title>Node37</title>
<g id="a_node37"><a xlink:href="ksp__method_8h.html" target="_top" xlink:title=" ">
<polygon fill="white" stroke="black" points="215,-692.5 215,-722.5 365,-722.5 365,-692.5 215,-692.5"/>
<text text-anchor="start" x="223" y="-710.5" font-family="Helvetica,sans-Serif" font-size="10.00">network_butcher/K&#45;shortest</text>
<text text-anchor="middle" x="290" y="-699.5" font-family="Helvetica,sans-Serif" font-size="10.00">_path/ksp_method.h</text>
</a>
</g>
</g>
<!-- Node36&#45;&gt;Node37 -->
<g id="edge64" class="edge">
<title>Node36&#45;&gt;Node37</title>
<path fill="none" stroke="midnightblue" d="M290,-759.4C290,-751.64 290,-741.81 290,-732.86"/>
<polygon fill="midnightblue" stroke="midnightblue" points="293.5,-732.58 290,-722.58 286.5,-732.58 293.5,-732.58"/>
</g>
<!-- Node38&#45;&gt;Node16 -->
<g id="edge68" class="edge">
<title>Node38&#45;&gt;Node16</title>
<path fill="none" stroke="midnightblue" d="M105.74,-603.41C162.82,-527 333.52,-298.47 381.39,-234.38"/>
<polygon fill="midnightblue" stroke="midnightblue" points="384.36,-236.26 387.54,-226.15 378.75,-232.07 384.36,-236.26"/>
</g>
<!-- Node38&#45;&gt;Node21 -->
<g id="edge67" class="edge">
<title>Node38&#45;&gt;Node21</title>
<path fill="none" stroke="midnightblue" d="M87.28,-603.44C87.58,-574.89 88,-526.84 88,-485.5 88,-485.5 88,-485.5 88,-282.5 88,-245 88,-201.51 88,-175.01"/>
<polygon fill="midnightblue" stroke="midnightblue" points="91.5,-174.76 88,-164.76 84.5,-174.76 91.5,-174.76"/>
</g>
<!-- Node39&#45;&gt;Node35 -->
<g id="edge70" class="edge">
<title>Node39&#45;&gt;Node35</title>
<path fill="none" stroke="midnightblue" d="M118.93,-915.34C140.18,-905.24 164.81,-893.52 186.9,-883.02"/>
<polygon fill="midnightblue" stroke="midnightblue" points="188.66,-886.06 196.19,-878.61 185.65,-879.74 188.66,-886.06"/>
</g>
<!-- Node39&#45;&gt;Node38 -->
<g id="edge71" class="edge">
<title>Node39&#45;&gt;Node38</title>
<path fill="none" stroke="midnightblue" d="M67.7,-915.39C71.42,-860.48 80.29,-729.56 84.59,-666.14"/>
<polygon fill="midnightblue" stroke="midnightblue" points="88.1,-666.05 85.28,-655.84 81.12,-665.58 88.1,-666.05"/>
</g>
<!-- Node40&#45;&gt;Node3 -->
<g id="edge75" class="edge">
<title>Node40&#45;&gt;Node3</title>
<path fill="none" stroke="midnightblue" d="M483.35,-837.39C507.64,-826.78 539.35,-810.57 563,-790 582.13,-773.36 598.53,-749.4 609.15,-731.76"/>
<polygon fill="midnightblue" stroke="midnightblue" points="612.42,-733.1 614.43,-722.7 606.37,-729.57 612.42,-733.1"/>
</g>
<!-- Node40&#45;&gt;Node33 -->
<g id="edge74" class="edge">
<title>Node40&#45;&gt;Node33</title>
<path fill="none" stroke="midnightblue" d="M447,-837.2C447,-826.7 447,-812.16 447,-799.83"/>
<polygon fill="midnightblue" stroke="midnightblue" points="450.5,-799.73 447,-789.73 443.5,-799.73 450.5,-799.73"/>
</g>
<!-- Node40&#45;&gt;Node36 -->
<g id="edge76" class="edge">
<title>Node40&#45;&gt;Node36</title>
<path fill="none" stroke="midnightblue" d="M417.84,-837.38C392.61,-825.17 355.96,-807.43 328.36,-794.07"/>
<polygon fill="midnightblue" stroke="midnightblue" points="329.53,-790.75 319.01,-789.54 326.48,-797.05 329.53,-790.75"/>
</g>
</g>
</svg>
