<?xml version="1.0" encoding="UTF-8" standalone="no"?>
<!DOCTYPE svg PUBLIC "-//W3C//DTD SVG 1.1//EN"
 "http://www.w3.org/Graphics/SVG/1.1/DTD/svg11.dtd">
<!-- Generated by graphviz version 2.43.0 (0)
 -->
<!-- Title: include/Butcher/constrained_block_graph_builder.h Pages: 1 -->
<svg width="545pt" height="363pt"
 viewBox="0.00 0.00 544.50 363.00" xmlns="http://www.w3.org/2000/svg" xmlns:xlink="http://www.w3.org/1999/xlink">
<g id="graph0" class="graph" transform="scale(1 1) rotate(0) translate(4 359)">
<title>include/Butcher/constrained_block_graph_builder.h</title>
<polygon fill="white" stroke="transparent" points="-4,4 -4,-359 540.5,-359 540.5,4 -4,4"/>
<!-- Node1 -->
<g id="node1" class="node">
<title>Node1</title>
<g id="a_node1"><a xlink:title=" ">
<polygon fill="#bfbfbf" stroke="black" points="308,-324.5 308,-354.5 460,-354.5 460,-324.5 308,-324.5"/>
<text text-anchor="start" x="316" y="-342.5" font-family="Helvetica,sans-Serif" font-size="10.00">include/Butcher/constrained</text>
<text text-anchor="middle" x="384" y="-331.5" font-family="Helvetica,sans-Serif" font-size="10.00">_block_graph_builder.h</text>
</a>
</g>
</g>
<!-- Node2 -->
<g id="node2" class="node">
<title>Node2</title>
<g id="a_node2"><a xlink:href="butcher_8h.html" target="_top" xlink:title=" ">
<polygon fill="white" stroke="black" points="314,-268.5 314,-287.5 454,-287.5 454,-268.5 314,-268.5"/>
<text text-anchor="middle" x="384" y="-275.5" font-family="Helvetica,sans-Serif" font-size="10.00">include/Butcher/butcher.h</text>
</a>
</g>
</g>
<!-- Node1&#45;&gt;Node2 -->
<g id="edge1" class="edge">
<title>Node1&#45;&gt;Node2</title>
<path fill="none" stroke="midnightblue" d="M384,-314.29C384,-304.86 384,-294.65 384,-287.66"/>
<polygon fill="midnightblue" stroke="midnightblue" points="380.5,-314.4 384,-324.4 387.5,-314.4 380.5,-314.4"/>
</g>
<!-- Node3 -->
<g id="node3" class="node">
<title>Node3</title>
<g id="a_node3"><a xlink:href="onnx__importer__helpers_8h.html" target="_top" xlink:title=" ">
<polygon fill="white" stroke="black" points="150.5,-196 150.5,-226 291.5,-226 291.5,-196 150.5,-196"/>
<text text-anchor="start" x="158.5" y="-214" font-family="Helvetica,sans-Serif" font-size="10.00">include/IO_Interaction</text>
<text text-anchor="middle" x="221" y="-203" font-family="Helvetica,sans-Serif" font-size="10.00">/onnx_importer_helpers.h</text>
</a>
</g>
</g>
<!-- Node2&#45;&gt;Node3 -->
<g id="edge2" class="edge">
<title>Node2&#45;&gt;Node3</title>
<path fill="none" stroke="midnightblue" d="M352.8,-264.56C325.19,-253.55 284.93,-237.49 256.18,-226.03"/>
<polygon fill="midnightblue" stroke="midnightblue" points="351.77,-267.92 362.35,-268.37 354.36,-261.41 351.77,-267.92"/>
</g>
<!-- Node8 -->
<g id="node8" class="node">
<title>Node8</title>
<g id="a_node8"><a xlink:href="network__butcher_8h.html" target="_top" xlink:title=" ">
<polygon fill="white" stroke="black" points="391.5,-56.5 391.5,-75.5 536.5,-75.5 536.5,-56.5 391.5,-56.5"/>
<text text-anchor="middle" x="464" y="-63.5" font-family="Helvetica,sans-Serif" font-size="10.00">include/network_butcher.h</text>
</a>
</g>
</g>
<!-- Node2&#45;&gt;Node8 -->
<g id="edge13" class="edge">
<title>Node2&#45;&gt;Node8</title>
<path fill="none" stroke="midnightblue" d="M425.86,-264.61C441.61,-257.69 457.9,-247.28 467,-232 497.92,-180.06 475.83,-101.65 467.11,-75.69"/>
<polygon fill="midnightblue" stroke="midnightblue" points="424.17,-261.52 416.18,-268.49 426.77,-268.02 424.17,-261.52"/>
</g>
<!-- Node11 -->
<g id="node11" class="node">
<title>Node11</title>
<g id="a_node11"><a xlink:href="onnx__model__reconstructor__helpers_8h.html" target="_top" xlink:title=" ">
<polygon fill="white" stroke="black" points="309.5,-190.5 309.5,-231.5 458.5,-231.5 458.5,-190.5 309.5,-190.5"/>
<text text-anchor="start" x="317.5" y="-219.5" font-family="Helvetica,sans-Serif" font-size="10.00">include/IO_Interaction</text>
<text text-anchor="start" x="317.5" y="-208.5" font-family="Helvetica,sans-Serif" font-size="10.00">/onnx_model_reconstructor</text>
<text text-anchor="middle" x="384" y="-197.5" font-family="Helvetica,sans-Serif" font-size="10.00">_helpers.h</text>
</a>
</g>
</g>
<!-- Node2&#45;&gt;Node11 -->
<g id="edge10" class="edge">
<title>Node2&#45;&gt;Node11</title>
<path fill="none" stroke="midnightblue" d="M384,-258.04C384,-249.71 384,-239.94 384,-231.54"/>
<polygon fill="midnightblue" stroke="midnightblue" points="380.5,-258.23 384,-268.23 387.5,-258.23 380.5,-258.23"/>
</g>
<!-- Node4 -->
<g id="node4" class="node">
<title>Node4</title>
<g id="a_node4"><a xlink:href="io__manager_8h.html" target="_top" xlink:title=" ">
<polygon fill="white" stroke="black" points="170.5,-123.5 170.5,-142.5 291.5,-142.5 291.5,-123.5 170.5,-123.5"/>
<text text-anchor="middle" x="231" y="-130.5" font-family="Helvetica,sans-Serif" font-size="10.00">include/io_manager.h</text>
</a>
</g>
</g>
<!-- Node3&#45;&gt;Node4 -->
<g id="edge3" class="edge">
<title>Node3&#45;&gt;Node4</title>
<path fill="none" stroke="midnightblue" d="M224.2,-185.67C226.15,-170.9 228.51,-152.95 229.87,-142.56"/>
<polygon fill="midnightblue" stroke="midnightblue" points="220.72,-185.33 222.88,-195.7 227.66,-186.25 220.72,-185.33"/>
</g>
<!-- Node10 -->
<g id="node10" class="node">
<title>Node10</title>
<g id="a_node10"><a xlink:href="onnx__importer__helpers_8cpp.html" target="_top" xlink:title=" ">
<polygon fill="white" stroke="black" points="0,-118 0,-148 152,-148 152,-118 0,-118"/>
<text text-anchor="start" x="8" y="-136" font-family="Helvetica,sans-Serif" font-size="10.00">src/IO_Interaction</text>
<text text-anchor="middle" x="76" y="-125" font-family="Helvetica,sans-Serif" font-size="10.00">/onnx_importer_helpers.cpp</text>
</a>
</g>
</g>
<!-- Node3&#45;&gt;Node10 -->
<g id="edge9" class="edge">
<title>Node3&#45;&gt;Node10</title>
<path fill="none" stroke="midnightblue" d="M185.08,-191.17C159.6,-177.82 125.94,-160.18 102.79,-148.04"/>
<polygon fill="midnightblue" stroke="midnightblue" points="183.58,-194.34 194.07,-195.88 186.83,-188.14 183.58,-194.34"/>
</g>
<!-- Node5 -->
<g id="node5" class="node">
<title>Node5</title>
<g id="a_node5"><a xlink:href="general__manager_8h.html" target="_top" xlink:title=" ">
<polygon fill="white" stroke="black" points="179.5,-56.5 179.5,-75.5 328.5,-75.5 328.5,-56.5 179.5,-56.5"/>
<text text-anchor="middle" x="254" y="-63.5" font-family="Helvetica,sans-Serif" font-size="10.00">include/general_manager.h</text>
</a>
</g>
</g>
<!-- Node4&#45;&gt;Node5 -->
<g id="edge4" class="edge">
<title>Node4&#45;&gt;Node5</title>
<path fill="none" stroke="midnightblue" d="M237.44,-113.79C241.86,-101.31 247.52,-85.31 250.95,-75.63"/>
<polygon fill="midnightblue" stroke="midnightblue" points="234.14,-112.64 234.1,-123.23 240.74,-114.97 234.14,-112.64"/>
</g>
<!-- Node4&#45;&gt;Node8 -->
<g id="edge7" class="edge">
<title>Node4&#45;&gt;Node8</title>
<path fill="none" stroke="midnightblue" d="M270.32,-120.7C280.32,-117.84 291.05,-114.79 301,-112 346.79,-99.14 399.9,-84.53 432.73,-75.54"/>
<polygon fill="midnightblue" stroke="midnightblue" points="269.27,-117.36 260.62,-123.47 271.19,-124.09 269.27,-117.36"/>
</g>
<!-- Node9 -->
<g id="node9" class="node">
<title>Node9</title>
<g id="a_node9"><a xlink:href="io__manager_8cpp.html" target="_top" xlink:title=" ">
<polygon fill="white" stroke="black" points="50.5,-56.5 50.5,-75.5 161.5,-75.5 161.5,-56.5 50.5,-56.5"/>
<text text-anchor="middle" x="106" y="-63.5" font-family="Helvetica,sans-Serif" font-size="10.00">src/io_manager.cpp</text>
</a>
</g>
</g>
<!-- Node4&#45;&gt;Node9 -->
<g id="edge8" class="edge">
<title>Node4&#45;&gt;Node9</title>
<path fill="none" stroke="midnightblue" d="M205.24,-118.6C180.48,-105.73 143.81,-86.66 122.67,-75.67"/>
<polygon fill="midnightblue" stroke="midnightblue" points="203.91,-121.86 214.4,-123.37 207.14,-115.65 203.91,-121.86"/>
</g>
<!-- Node6 -->
<g id="node6" class="node">
<title>Node6</title>
<g id="a_node6"><a xlink:href="main_8cpp.html" target="_top" xlink:title=" ">
<polygon fill="white" stroke="black" points="150.5,-0.5 150.5,-19.5 229.5,-19.5 229.5,-0.5 150.5,-0.5"/>
<text text-anchor="middle" x="190" y="-7.5" font-family="Helvetica,sans-Serif" font-size="10.00">src/main.cpp</text>
</a>
</g>
</g>
<!-- Node5&#45;&gt;Node6 -->
<g id="edge5" class="edge">
<title>Node5&#45;&gt;Node6</title>
<path fill="none" stroke="midnightblue" d="M236.01,-49.82C224.54,-40.15 210.09,-27.95 200.47,-19.83"/>
<polygon fill="midnightblue" stroke="midnightblue" points="233.82,-52.55 243.72,-56.32 238.33,-47.2 233.82,-52.55"/>
</g>
<!-- Node7 -->
<g id="node7" class="node">
<title>Node7</title>
<g id="a_node7"><a xlink:href="general__manager_8cpp.html" target="_top" xlink:title=" ">
<polygon fill="white" stroke="black" points="247.5,-0.5 247.5,-19.5 386.5,-19.5 386.5,-0.5 247.5,-0.5"/>
<text text-anchor="middle" x="317" y="-7.5" font-family="Helvetica,sans-Serif" font-size="10.00">src/general_manager.cpp</text>
</a>
</g>
</g>
<!-- Node5&#45;&gt;Node7 -->
<g id="edge6" class="edge">
<title>Node5&#45;&gt;Node7</title>
<path fill="none" stroke="midnightblue" d="M272.04,-49.54C283.27,-39.91 297.32,-27.87 306.69,-19.83"/>
<polygon fill="midnightblue" stroke="midnightblue" points="269.44,-47.16 264.12,-56.32 273.99,-52.47 269.44,-47.16"/>
</g>
<!-- Node11&#45;&gt;Node4 -->
<g id="edge11" class="edge">
<title>Node11&#45;&gt;Node4</title>
<path fill="none" stroke="midnightblue" d="M335.57,-185.94C305.72,-171.12 269.25,-153 248.22,-142.55"/>
<polygon fill="midnightblue" stroke="midnightblue" points="334.09,-189.11 344.6,-190.43 337.2,-182.84 334.09,-189.11"/>
</g>
<!-- Node12 -->
<g id="node12" class="node">
<title>Node12</title>
<g id="a_node12"><a xlink:href="onnx__model__reconstructor__helpers_8cpp.html" target="_top" xlink:title=" ">
<polygon fill="white" stroke="black" points="309.5,-112.5 309.5,-153.5 458.5,-153.5 458.5,-112.5 309.5,-112.5"/>
<text text-anchor="start" x="317.5" y="-141.5" font-family="Helvetica,sans-Serif" font-size="10.00">src/IO_Interaction</text>
<text text-anchor="start" x="317.5" y="-130.5" font-family="Helvetica,sans-Serif" font-size="10.00">/onnx_model_reconstructor</text>
<text text-anchor="middle" x="384" y="-119.5" font-family="Helvetica,sans-Serif" font-size="10.00">_helpers.cpp</text>
</a>
</g>
</g>
<!-- Node11&#45;&gt;Node12 -->
<g id="edge12" class="edge">
<title>Node11&#45;&gt;Node12</title>
<path fill="none" stroke="midnightblue" d="M384,-180.3C384,-171.3 384,-161.65 384,-153.51"/>
<polygon fill="midnightblue" stroke="midnightblue" points="380.5,-180.43 384,-190.43 387.5,-180.43 380.5,-180.43"/>
</g>
</g>
</svg>
