<?xml version="1.0" encoding="UTF-8" standalone="no"?>
<!DOCTYPE svg PUBLIC "-//W3C//DTD SVG 1.1//EN"
 "http://www.w3.org/Graphics/SVG/1.1/DTD/svg11.dtd">
<!-- Generated by graphviz version 2.43.0 (0)
 -->
<!-- Title: include/Butcher/constrained_block_graph_builder.h Pages: 1 -->
<!--zoomable 834 -->
<svg id="main" version="1.1" xmlns="http://www.w3.org/2000/svg" xmlns:xlink="http://www.w3.org/1999/xlink" xml:space="preserve" onload="init(evt)">
<style type="text/css"><![CDATA[
.edge:hover path { stroke: red; }
.edge:hover polygon { stroke: red; fill: red; }
]]></style>
<script type="text/javascript"><![CDATA[
var edges = document.getElementsByTagName('g');
if (edges && edges.length) {
  for (var i=0;i<edges.length;i++) {
    if (edges[i].id.substr(0,4)=='edge') {
      edges[i].setAttribute('class','edge');
    }
  }
}
]]></script>
        <defs>
                <circle id="rim" cx="0" cy="0" r="7"/>
                <circle id="rim2" cx="0" cy="0" r="3.5"/>
                <g id="zoomPlus">
                        <use xlink:href="#rim" fill="#404040">
                                <set attributeName="fill" to="#808080" begin="zoomplus.mouseover" end="zoomplus.mouseout"/>
                        </use>
                        <path d="M-4,0h8M0,-4v8" fill="none" stroke="white" stroke-width="1.5" pointer-events="none"/>
                </g>
                <g id="zoomMin">
                        <use xlink:href="#rim" fill="#404040">
                                <set attributeName="fill" to="#808080" begin="zoomminus.mouseover" end="zoomminus.mouseout"/>
                        </use>
                        <path d="M-4,0h8" fill="none" stroke="white" stroke-width="1.5" pointer-events="none"/>
                </g>
                <g id="dirArrow">
                        <path fill="none" stroke="white" stroke-width="1.5" d="M0,-3.0v7 M-2.5,-0.5L0,-3.0L2.5,-0.5"/>
                </g>
               <g id="resetDef">
                       <use xlink:href="#rim2" fill="#404040">
                               <set attributeName="fill" to="#808080" begin="reset.mouseover" end="reset.mouseout"/>
                       </use>
               </g>
        </defs>

<script type="text/javascript">
var viewWidth = 991;
var viewHeight = 834;
var sectionId = 'dynsection-0';
</script>
<script xlink:href="svgpan.js"/>
<svg id="graph" class="graph">
<g id="viewport">
<title>include/Butcher/constrained_block_graph_builder.h</title>
<polygon fill="white" stroke="transparent" points="-4,4 -4,-830 987.36,-830 987.36,4 -4,4"/>
<!-- Node1 -->
<g id="node1" class="node">
<title>Node1</title>
<g id="a_node1"><a xlink:title=" ">
<polygon fill="#bfbfbf" stroke="black" points="442,-795.5 442,-825.5 594,-825.5 594,-795.5 442,-795.5"/>
<text text-anchor="start" x="450" y="-813.5" font-family="Helvetica,sans-Serif" font-size="10.00">include/Butcher/constrained</text>
<text text-anchor="middle" x="518" y="-802.5" font-family="Helvetica,sans-Serif" font-size="10.00">_block_graph_builder.h</text>
</a>
</g>
</g>
<!-- Node2 -->
<g id="node2" class="node">
<title>Node2</title>
<g id="a_node2"><a xlink:title=" ">
<polygon fill="white" stroke="#bfbfbf" points="458,-739.5 458,-758.5 490,-758.5 490,-739.5 458,-739.5"/>
<text text-anchor="middle" x="474" y="-746.5" font-family="Helvetica,sans-Serif" font-size="10.00">list</text>
</a>
</g>
</g>
<!-- Node1&#45;&gt;Node2 -->
<g id="edge1" class="edge">
<title>Node1&#45;&gt;Node2</title>
<path fill="none" stroke="midnightblue" d="M507.57,-795.4C501.24,-786.84 493.13,-775.87 486.47,-766.86"/>
<polygon fill="midnightblue" stroke="midnightblue" points="489.16,-764.62 480.4,-758.66 483.53,-768.78 489.16,-764.62"/>
</g>
<!-- Node3 -->
<g id="node3" class="node">
<title>Node3</title>
<g id="a_node3"><a xlink:href="graph__constraint_8h.html" target="_top" xlink:title=" ">
<polygon fill="white" stroke="black" points="464.5,-560.5 464.5,-579.5 571.5,-579.5 571.5,-560.5 464.5,-560.5"/>
<text text-anchor="middle" x="518" y="-567.5" font-family="Helvetica,sans-Serif" font-size="10.00">graph_constraint.h</text>
</a>
</g>
</g>
<!-- Node1&#45;&gt;Node3 -->
<g id="edge2" class="edge">
<title>Node1&#45;&gt;Node3</title>
<path fill="none" stroke="midnightblue" d="M518,-795.29C518,-754.43 518,-636.55 518,-590.12"/>
<polygon fill="midnightblue" stroke="midnightblue" points="521.5,-589.95 518,-579.95 514.5,-589.95 521.5,-589.95"/>
</g>
<!-- Node35 -->
<g id="node35" class="node">
<title>Node35</title>
<g id="a_node35"><a xlink:href="weight__importers_8h.html" target="_top" xlink:title=" ">
<polygon fill="white" stroke="black" points="592.5,-739.5 592.5,-758.5 703.5,-758.5 703.5,-739.5 592.5,-739.5"/>
<text text-anchor="middle" x="648" y="-746.5" font-family="Helvetica,sans-Serif" font-size="10.00">weight_importers.h</text>
</a>
</g>
</g>
<!-- Node1&#45;&gt;Node35 -->
<g id="edge62" class="edge">
<title>Node1&#45;&gt;Node35</title>
<path fill="none" stroke="midnightblue" d="M548.81,-795.4C570.33,-785.55 598.84,-772.5 619.77,-762.92"/>
<polygon fill="midnightblue" stroke="midnightblue" points="621.45,-766 629.08,-758.66 618.53,-759.64 621.45,-766"/>
</g>
<!-- Node4 -->
<g id="node4" class="node">
<title>Node4</title>
<g id="a_node4"><a xlink:href="computer__memory_8h.html" target="_top" xlink:title=" ">
<polygon fill="white" stroke="black" points="598.5,-504.5 598.5,-523.5 715.5,-523.5 715.5,-504.5 598.5,-504.5"/>
<text text-anchor="middle" x="657" y="-511.5" font-family="Helvetica,sans-Serif" font-size="10.00">computer_memory.h</text>
</a>
</g>
</g>
<!-- Node3&#45;&gt;Node4 -->
<g id="edge3" class="edge">
<title>Node3&#45;&gt;Node4</title>
<path fill="none" stroke="midnightblue" d="M540.02,-560.44C563.1,-551.48 599.56,-537.31 625.64,-527.18"/>
<polygon fill="midnightblue" stroke="midnightblue" points="627.02,-530.4 635.08,-523.52 624.49,-523.88 627.02,-530.4"/>
</g>
<!-- Node32 -->
<g id="node32" class="node">
<title>Node32</title>
<g id="a_node32"><a xlink:href="graph__traits_8h.html" target="_top" xlink:title=" ">
<polygon fill="white" stroke="black" points="392,-448.5 392,-467.5 476,-467.5 476,-448.5 392,-448.5"/>
<text text-anchor="middle" x="434" y="-455.5" font-family="Helvetica,sans-Serif" font-size="10.00">graph_traits.h</text>
</a>
</g>
</g>
<!-- Node3&#45;&gt;Node32 -->
<g id="edge54" class="edge">
<title>Node3&#45;&gt;Node32</title>
<path fill="none" stroke="midnightblue" d="M500.72,-560.35C486.83,-552.58 467.75,-539.96 456,-524 445.86,-510.22 440.17,-491.45 437.13,-477.62"/>
<polygon fill="midnightblue" stroke="midnightblue" points="440.56,-476.93 435.23,-467.78 433.69,-478.26 440.56,-476.93"/>
</g>
<!-- Node33 -->
<g id="node33" class="node">
<title>Node33</title>
<g id="a_node33"><a xlink:href="parameters_8h.html" target="_top" xlink:title=" ">
<polygon fill="white" stroke="black" points="498,-504.5 498,-523.5 580,-523.5 580,-504.5 498,-504.5"/>
<text text-anchor="middle" x="539" y="-511.5" font-family="Helvetica,sans-Serif" font-size="10.00">parameters.h</text>
</a>
</g>
</g>
<!-- Node3&#45;&gt;Node33 -->
<g id="edge59" class="edge">
<title>Node3&#45;&gt;Node33</title>
<path fill="none" stroke="midnightblue" d="M521.47,-560.08C524.31,-552.77 528.43,-542.18 531.96,-533.1"/>
<polygon fill="midnightblue" stroke="midnightblue" points="535.23,-534.34 535.6,-523.75 528.71,-531.8 535.23,-534.34"/>
</g>
<!-- Node5 -->
<g id="node5" class="node">
<title>Node5</title>
<g id="a_node5"><a xlink:title=" ">
<polygon fill="white" stroke="#bfbfbf" points="682.5,-448.5 682.5,-467.5 747.5,-467.5 747.5,-448.5 682.5,-448.5"/>
<text text-anchor="middle" x="715" y="-455.5" font-family="Helvetica,sans-Serif" font-size="10.00">functional</text>
</a>
</g>
</g>
<!-- Node4&#45;&gt;Node5 -->
<g id="edge4" class="edge">
<title>Node4&#45;&gt;Node5</title>
<path fill="none" stroke="midnightblue" d="M666.32,-504.32C674.89,-496.34 687.81,-484.31 698.19,-474.65"/>
<polygon fill="midnightblue" stroke="midnightblue" points="700.58,-477.21 705.51,-467.83 695.81,-472.09 700.58,-477.21"/>
</g>
<!-- Node6 -->
<g id="node6" class="node">
<title>Node6</title>
<g id="a_node6"><a xlink:href="utilities_8h.html" target="_top" xlink:title=" ">
<polygon fill="white" stroke="black" points="623,-168.5 623,-187.5 685,-187.5 685,-168.5 623,-168.5"/>
<text text-anchor="middle" x="654" y="-175.5" font-family="Helvetica,sans-Serif" font-size="10.00">utilities.h</text>
</a>
</g>
</g>
<!-- Node4&#45;&gt;Node6 -->
<g id="edge5" class="edge">
<title>Node4&#45;&gt;Node6</title>
<path fill="none" stroke="midnightblue" d="M656.61,-504.44C655.79,-485.94 654,-440.83 654,-403 654,-403 654,-403 654,-289 654,-256.95 654,-219.64 654,-197.75"/>
<polygon fill="midnightblue" stroke="midnightblue" points="657.5,-197.56 654,-187.56 650.5,-197.56 657.5,-197.56"/>
</g>
<!-- Node24 -->
<g id="node24" class="node">
<title>Node24</title>
<g id="a_node24"><a xlink:href="wgraph_8h.html" target="_top" xlink:title=" ">
<polygon fill="white" stroke="black" points="517,-392.5 517,-411.5 579,-411.5 579,-392.5 517,-392.5"/>
<text text-anchor="middle" x="548" y="-399.5" font-family="Helvetica,sans-Serif" font-size="10.00">wgraph.h</text>
</a>
</g>
</g>
<!-- Node4&#45;&gt;Node24 -->
<g id="edge31" class="edge">
<title>Node4&#45;&gt;Node24</title>
<path fill="none" stroke="midnightblue" d="M648.45,-504.37C630.14,-485.89 586.94,-442.29 563.6,-418.74"/>
<polygon fill="midnightblue" stroke="midnightblue" points="566.04,-416.23 556.51,-411.59 561.07,-421.16 566.04,-416.23"/>
</g>
<!-- Node7 -->
<g id="node7" class="node">
<title>Node7</title>
<g id="a_node7"><a xlink:title=" ">
<polygon fill="white" stroke="#bfbfbf" points="426,-112.5 426,-131.5 490,-131.5 490,-112.5 426,-112.5"/>
<text text-anchor="middle" x="458" y="-119.5" font-family="Helvetica,sans-Serif" font-size="10.00">algorithm</text>
</a>
</g>
</g>
<!-- Node6&#45;&gt;Node7 -->
<g id="edge6" class="edge">
<title>Node6&#45;&gt;Node7</title>
<path fill="none" stroke="midnightblue" d="M622.94,-168.44C589.4,-159.2 535.8,-144.44 498.86,-134.26"/>
<polygon fill="midnightblue" stroke="midnightblue" points="499.48,-130.8 488.91,-131.52 497.62,-137.55 499.48,-130.8"/>
</g>
<!-- Node8 -->
<g id="node8" class="node">
<title>Node8</title>
<g id="a_node8"><a xlink:title=" ">
<polygon fill="white" stroke="#bfbfbf" points="508,-112.5 508,-131.5 564,-131.5 564,-112.5 508,-112.5"/>
<text text-anchor="middle" x="536" y="-119.5" font-family="Helvetica,sans-Serif" font-size="10.00">numeric</text>
</a>
</g>
</g>
<!-- Node6&#45;&gt;Node8 -->
<g id="edge7" class="edge">
<title>Node6&#45;&gt;Node8</title>
<path fill="none" stroke="midnightblue" d="M635.3,-168.44C616.06,-159.64 585.85,-145.81 563.8,-135.72"/>
<polygon fill="midnightblue" stroke="midnightblue" points="565.16,-132.5 554.61,-131.52 562.25,-138.86 565.16,-132.5"/>
</g>
<!-- Node9 -->
<g id="node9" class="node">
<title>Node9</title>
<g id="a_node9"><a xlink:title=" ">
<polygon fill="white" stroke="#bfbfbf" points="620,-112.5 620,-131.5 688,-131.5 688,-112.5 620,-112.5"/>
<text text-anchor="middle" x="654" y="-119.5" font-family="Helvetica,sans-Serif" font-size="10.00">filesystem</text>
</a>
</g>
</g>
<!-- Node6&#45;&gt;Node9 -->
<g id="edge8" class="edge">
<title>Node6&#45;&gt;Node9</title>
<path fill="none" stroke="midnightblue" d="M654,-168.08C654,-161.01 654,-150.86 654,-141.99"/>
<polygon fill="midnightblue" stroke="midnightblue" points="657.5,-141.75 654,-131.75 650.5,-141.75 657.5,-141.75"/>
</g>
<!-- Node10 -->
<g id="node10" class="node">
<title>Node10</title>
<g id="a_node10"><a xlink:title=" ">
<polygon fill="white" stroke="#bfbfbf" points="744.5,-112.5 744.5,-131.5 799.5,-131.5 799.5,-112.5 744.5,-112.5"/>
<text text-anchor="middle" x="772" y="-119.5" font-family="Helvetica,sans-Serif" font-size="10.00">fstream</text>
</a>
</g>
</g>
<!-- Node6&#45;&gt;Node10 -->
<g id="edge9" class="edge">
<title>Node6&#45;&gt;Node10</title>
<path fill="none" stroke="midnightblue" d="M672.7,-168.44C691.94,-159.64 722.15,-145.81 744.2,-135.72"/>
<polygon fill="midnightblue" stroke="midnightblue" points="745.75,-138.86 753.39,-131.52 742.84,-132.5 745.75,-138.86"/>
</g>
<!-- Node11 -->
<g id="node11" class="node">
<title>Node11</title>
<g id="a_node11"><a xlink:title=" ">
<polygon fill="white" stroke="#bfbfbf" points="818,-112.5 818,-131.5 868,-131.5 868,-112.5 818,-112.5"/>
<text text-anchor="middle" x="843" y="-119.5" font-family="Helvetica,sans-Serif" font-size="10.00">ranges</text>
</a>
</g>
</g>
<!-- Node6&#45;&gt;Node11 -->
<g id="edge10" class="edge">
<title>Node6&#45;&gt;Node11</title>
<path fill="none" stroke="midnightblue" d="M683.95,-168.44C717.58,-158.83 772.1,-143.26 807.76,-133.07"/>
<polygon fill="midnightblue" stroke="midnightblue" points="809.08,-136.33 817.73,-130.22 807.15,-129.6 809.08,-136.33"/>
</g>
<!-- Node12 -->
<g id="node12" class="node">
<title>Node12</title>
<g id="a_node12"><a xlink:title=" ">
<polygon fill="white" stroke="#bfbfbf" points="797.5,-56.5 797.5,-75.5 862.5,-75.5 862.5,-56.5 797.5,-56.5"/>
<text text-anchor="middle" x="830" y="-63.5" font-family="Helvetica,sans-Serif" font-size="10.00">onnx.pb.h</text>
</a>
</g>
</g>
<!-- Node6&#45;&gt;Node12 -->
<g id="edge11" class="edge">
<title>Node6&#45;&gt;Node12</title>
<path fill="none" stroke="midnightblue" d="M663.56,-168.24C678.34,-154.98 707.96,-129.52 736,-112 756.25,-99.35 780.61,-87.78 799.46,-79.54"/>
<polygon fill="midnightblue" stroke="midnightblue" points="800.95,-82.71 808.76,-75.55 798.19,-76.28 800.95,-82.71"/>
</g>
<!-- Node13 -->
<g id="node13" class="node">
<title>Node13</title>
<g id="a_node13"><a xlink:href="traits_8h.html" target="_top" xlink:title=" ">
<polygon fill="white" stroke="black" points="924.5,-112.5 924.5,-131.5 975.5,-131.5 975.5,-112.5 924.5,-112.5"/>
<text text-anchor="middle" x="950" y="-119.5" font-family="Helvetica,sans-Serif" font-size="10.00">traits.h</text>
</a>
</g>
</g>
<!-- Node6&#45;&gt;Node13 -->
<g id="edge12" class="edge">
<title>Node6&#45;&gt;Node13</title>
<path fill="none" stroke="midnightblue" d="M685.12,-171.32C740.57,-161.21 856.11,-140.13 914.54,-129.47"/>
<polygon fill="midnightblue" stroke="midnightblue" points="915.21,-132.9 924.42,-127.67 913.96,-126.02 915.21,-132.9"/>
</g>
<!-- Node18 -->
<g id="node18" class="node">
<title>Node18</title>
<g id="a_node18"><a xlink:href="type__info_8h.html" target="_top" xlink:title=" ">
<polygon fill="white" stroke="black" points="359.5,-56.5 359.5,-75.5 430.5,-75.5 430.5,-56.5 359.5,-56.5"/>
<text text-anchor="middle" x="395" y="-63.5" font-family="Helvetica,sans-Serif" font-size="10.00">type_info.h</text>
</a>
</g>
</g>
<!-- Node6&#45;&gt;Node18 -->
<g id="edge30" class="edge">
<title>Node6&#45;&gt;Node18</title>
<path fill="none" stroke="midnightblue" d="M645.88,-168.43C632.18,-154.49 603.02,-126.95 573,-112 530.75,-90.96 477.82,-79.21 440.7,-73.03"/>
<polygon fill="midnightblue" stroke="midnightblue" points="441.1,-69.55 430.68,-71.44 440,-76.47 441.1,-69.55"/>
</g>
<!-- Node21 -->
<g id="node21" class="node">
<title>Node21</title>
<g id="a_node21"><a xlink:href="dense__tensor_8h.html" target="_top" xlink:title=" ">
<polygon fill="white" stroke="black" points="318,-112.5 318,-131.5 408,-131.5 408,-112.5 318,-112.5"/>
<text text-anchor="middle" x="363" y="-119.5" font-family="Helvetica,sans-Serif" font-size="10.00">dense_tensor.h</text>
</a>
</g>
</g>
<!-- Node6&#45;&gt;Node21 -->
<g id="edge22" class="edge">
<title>Node6&#45;&gt;Node21</title>
<path fill="none" stroke="midnightblue" d="M622.76,-171.97C572.71,-163.23 474.46,-145.08 414.12,-133.5"/>
<polygon fill="midnightblue" stroke="midnightblue" points="414.52,-130.02 404.04,-131.56 413.2,-136.89 414.52,-130.02"/>
</g>
<!-- Node13&#45;&gt;Node12 -->
<g id="edge17" class="edge">
<title>Node13&#45;&gt;Node12</title>
<path fill="none" stroke="midnightblue" d="M930.99,-112.44C911.41,-103.64 880.69,-89.81 858.27,-79.72"/>
<polygon fill="midnightblue" stroke="midnightblue" points="859.48,-76.43 848.93,-75.52 856.61,-82.81 859.48,-76.43"/>
</g>
<!-- Node14 -->
<g id="node14" class="node">
<title>Node14</title>
<g id="a_node14"><a xlink:title=" ">
<polygon fill="white" stroke="#bfbfbf" points="881,-56.5 881,-75.5 913,-75.5 913,-56.5 881,-56.5"/>
<text text-anchor="middle" x="897" y="-63.5" font-family="Helvetica,sans-Serif" font-size="10.00">set</text>
</a>
</g>
</g>
<!-- Node13&#45;&gt;Node14 -->
<g id="edge13" class="edge">
<title>Node13&#45;&gt;Node14</title>
<path fill="none" stroke="midnightblue" d="M941.25,-112.08C933.53,-104.22 922.1,-92.57 912.78,-83.08"/>
<polygon fill="midnightblue" stroke="midnightblue" points="915.09,-80.44 905.59,-75.75 910.1,-85.34 915.09,-80.44"/>
</g>
<!-- Node15 -->
<g id="node15" class="node">
<title>Node15</title>
<g id="a_node15"><a xlink:title=" ">
<polygon fill="white" stroke="#bfbfbf" points="931,-56.5 931,-75.5 969,-75.5 969,-56.5 931,-56.5"/>
<text text-anchor="middle" x="950" y="-63.5" font-family="Helvetica,sans-Serif" font-size="10.00">map</text>
</a>
</g>
</g>
<!-- Node13&#45;&gt;Node15 -->
<g id="edge14" class="edge">
<title>Node13&#45;&gt;Node15</title>
<path fill="none" stroke="midnightblue" d="M950,-112.08C950,-105.01 950,-94.86 950,-85.99"/>
<polygon fill="midnightblue" stroke="midnightblue" points="953.5,-85.75 950,-75.75 946.5,-85.75 953.5,-85.75"/>
</g>
<!-- Node16 -->
<g id="node16" class="node">
<title>Node16</title>
<g id="a_node16"><a xlink:title=" ">
<polygon fill="white" stroke="#bfbfbf" points="245,-56.5 245,-75.5 303,-75.5 303,-56.5 245,-56.5"/>
<text text-anchor="middle" x="274" y="-63.5" font-family="Helvetica,sans-Serif" font-size="10.00">memory</text>
</a>
</g>
</g>
<!-- Node13&#45;&gt;Node16 -->
<g id="edge15" class="edge">
<title>Node13&#45;&gt;Node16</title>
<path fill="none" stroke="midnightblue" d="M924.36,-117.49C910.38,-115.67 892.76,-113.51 877,-112 643.74,-89.66 584.33,-97.61 351,-76 338.77,-74.87 325.47,-73.4 313.42,-71.98"/>
<polygon fill="midnightblue" stroke="midnightblue" points="313.56,-68.47 303.22,-70.75 312.73,-75.42 313.56,-68.47"/>
</g>
<!-- Node17 -->
<g id="node17" class="node">
<title>Node17</title>
<g id="a_node17"><a xlink:href="starting__traits_8h.html" target="_top" xlink:title=" ">
<polygon fill="white" stroke="black" points="392,-0.5 392,-19.5 486,-19.5 486,-0.5 392,-0.5"/>
<text text-anchor="middle" x="439" y="-7.5" font-family="Helvetica,sans-Serif" font-size="10.00">starting_traits.h</text>
</a>
</g>
</g>
<!-- Node13&#45;&gt;Node17 -->
<g id="edge16" class="edge">
<title>Node13&#45;&gt;Node17</title>
<path fill="none" stroke="midnightblue" d="M959.03,-112.42C972.15,-98.94 993.31,-72.64 978,-56 945.89,-21.1 628.77,-13.26 496.49,-11.5"/>
<polygon fill="midnightblue" stroke="midnightblue" points="496.2,-8 486.16,-11.37 496.11,-15 496.2,-8"/>
</g>
<!-- Node13&#45;&gt;Node18 -->
<g id="edge18" class="edge">
<title>Node13&#45;&gt;Node18</title>
<path fill="none" stroke="midnightblue" d="M924.35,-117.65C910.36,-115.87 892.74,-113.7 877,-112 716.98,-94.67 526.63,-78.08 440.89,-70.83"/>
<polygon fill="midnightblue" stroke="midnightblue" points="440.97,-67.32 430.71,-69.97 440.38,-74.3 440.97,-67.32"/>
</g>
<!-- Node18&#45;&gt;Node17 -->
<g id="edge21" class="edge">
<title>Node18&#45;&gt;Node17</title>
<path fill="none" stroke="midnightblue" d="M402.27,-56.08C408.54,-48.38 417.79,-37.03 425.43,-27.65"/>
<polygon fill="midnightblue" stroke="midnightblue" points="428.27,-29.71 431.87,-19.75 422.84,-25.29 428.27,-29.71"/>
</g>
<!-- Node19 -->
<g id="node19" class="node">
<title>Node19</title>
<g id="a_node19"><a xlink:title=" ">
<polygon fill="white" stroke="#bfbfbf" points="329,-0.5 329,-19.5 373,-19.5 373,-0.5 329,-0.5"/>
<text text-anchor="middle" x="351" y="-7.5" font-family="Helvetica,sans-Serif" font-size="10.00">string</text>
</a>
</g>
</g>
<!-- Node18&#45;&gt;Node19 -->
<g id="edge19" class="edge">
<title>Node18&#45;&gt;Node19</title>
<path fill="none" stroke="midnightblue" d="M387.73,-56.08C381.46,-48.38 372.21,-37.03 364.57,-27.65"/>
<polygon fill="midnightblue" stroke="midnightblue" points="367.16,-25.29 358.13,-19.75 361.73,-29.71 367.16,-25.29"/>
</g>
<!-- Node20 -->
<g id="node20" class="node">
<title>Node20</title>
<g id="a_node20"><a xlink:title=" ">
<polygon fill="white" stroke="#bfbfbf" points="261.5,-0.5 261.5,-19.5 308.5,-19.5 308.5,-0.5 261.5,-0.5"/>
<text text-anchor="middle" x="285" y="-7.5" font-family="Helvetica,sans-Serif" font-size="10.00">vector</text>
</a>
</g>
</g>
<!-- Node18&#45;&gt;Node20 -->
<g id="edge20" class="edge">
<title>Node18&#45;&gt;Node20</title>
<path fill="none" stroke="midnightblue" d="M377.33,-56.32C359.61,-47.62 332.1,-34.12 311.71,-24.11"/>
<polygon fill="midnightblue" stroke="midnightblue" points="313.15,-20.92 302.63,-19.65 310.06,-27.2 313.15,-20.92"/>
</g>
<!-- Node21&#45;&gt;Node6 -->
<g id="edge28" class="edge">
<title>Node21&#45;&gt;Node6</title>
<path fill="none" stroke="midnightblue" d="M408.01,-130.46C464.08,-140.4 558.84,-157.97 612.99,-168.45"/>
<polygon fill="midnightblue" stroke="midnightblue" points="612.45,-171.91 622.93,-170.38 613.78,-165.03 612.45,-171.91"/>
</g>
<!-- Node21&#45;&gt;Node18 -->
<g id="edge23" class="edge">
<title>Node21&#45;&gt;Node18</title>
<path fill="none" stroke="midnightblue" d="M368.28,-112.08C372.71,-104.61 379.16,-93.72 384.62,-84.52"/>
<polygon fill="midnightblue" stroke="midnightblue" points="387.73,-86.14 389.81,-75.75 381.71,-82.57 387.73,-86.14"/>
</g>
<!-- Node21&#45;&gt;Node20 -->
<g id="edge29" class="edge">
<title>Node21&#45;&gt;Node20</title>
<path fill="none" stroke="midnightblue" d="M356.88,-112.37C344.01,-94.22 313.93,-51.8 297.05,-27.99"/>
<polygon fill="midnightblue" stroke="midnightblue" points="299.73,-25.72 291.09,-19.59 294.02,-29.77 299.73,-25.72"/>
</g>
<!-- Node22 -->
<g id="node22" class="node">
<title>Node22</title>
<g id="a_node22"><a xlink:href="variant__attribute_8h.html" target="_top" xlink:title=" ">
<polygon fill="white" stroke="black" points="119.5,-56.5 119.5,-75.5 226.5,-75.5 226.5,-56.5 119.5,-56.5"/>
<text text-anchor="middle" x="173" y="-63.5" font-family="Helvetica,sans-Serif" font-size="10.00">variant_attribute.h</text>
</a>
</g>
</g>
<!-- Node21&#45;&gt;Node22 -->
<g id="edge24" class="edge">
<title>Node21&#45;&gt;Node22</title>
<path fill="none" stroke="midnightblue" d="M332.89,-112.44C300.37,-103.2 248.42,-88.44 212.61,-78.26"/>
<polygon fill="midnightblue" stroke="midnightblue" points="213.54,-74.88 202.97,-75.52 211.63,-81.62 213.54,-74.88"/>
</g>
<!-- Node22&#45;&gt;Node19 -->
<g id="edge25" class="edge">
<title>Node22&#45;&gt;Node19</title>
<path fill="none" stroke="midnightblue" d="M201.2,-56.44C233.28,-46.71 285.52,-30.86 319.07,-20.69"/>
<polygon fill="midnightblue" stroke="midnightblue" points="320.28,-23.98 328.83,-17.73 318.25,-17.28 320.28,-23.98"/>
</g>
<!-- Node22&#45;&gt;Node20 -->
<g id="edge27" class="edge">
<title>Node22&#45;&gt;Node20</title>
<path fill="none" stroke="midnightblue" d="M190.99,-56.32C209.04,-47.62 237.05,-34.12 257.8,-24.11"/>
<polygon fill="midnightblue" stroke="midnightblue" points="259.56,-27.15 267.05,-19.65 256.52,-20.84 259.56,-27.15"/>
</g>
<!-- Node23 -->
<g id="node23" class="node">
<title>Node23</title>
<g id="a_node23"><a xlink:title=" ">
<polygon fill="white" stroke="#bfbfbf" points="147.5,-0.5 147.5,-19.5 198.5,-19.5 198.5,-0.5 147.5,-0.5"/>
<text text-anchor="middle" x="173" y="-7.5" font-family="Helvetica,sans-Serif" font-size="10.00">variant</text>
</a>
</g>
</g>
<!-- Node22&#45;&gt;Node23 -->
<g id="edge26" class="edge">
<title>Node22&#45;&gt;Node23</title>
<path fill="none" stroke="midnightblue" d="M173,-56.08C173,-49.01 173,-38.86 173,-29.99"/>
<polygon fill="midnightblue" stroke="midnightblue" points="176.5,-29.75 173,-19.75 169.5,-29.75 176.5,-29.75"/>
</g>
<!-- Node25 -->
<g id="node25" class="node">
<title>Node25</title>
<g id="a_node25"><a xlink:href="mwgraph_8h.html" target="_top" xlink:title=" ">
<polygon fill="white" stroke="black" points="398.5,-336.5 398.5,-355.5 469.5,-355.5 469.5,-336.5 398.5,-336.5"/>
<text text-anchor="middle" x="434" y="-343.5" font-family="Helvetica,sans-Serif" font-size="10.00">mwgraph.h</text>
</a>
</g>
</g>
<!-- Node24&#45;&gt;Node25 -->
<g id="edge32" class="edge">
<title>Node24&#45;&gt;Node25</title>
<path fill="none" stroke="midnightblue" d="M529.94,-392.44C511.43,-383.68 482.42,-369.94 461.14,-359.86"/>
<polygon fill="midnightblue" stroke="midnightblue" points="462.51,-356.63 451.98,-355.52 459.52,-362.96 462.51,-356.63"/>
</g>
<!-- Node31 -->
<g id="node31" class="node">
<title>Node31</title>
<g id="a_node31"><a xlink:href="weighted__graph_8h.html" target="_top" xlink:title=" ">
<polygon fill="white" stroke="black" points="688,-280.5 688,-299.5 792,-299.5 792,-280.5 688,-280.5"/>
<text text-anchor="middle" x="740" y="-287.5" font-family="Helvetica,sans-Serif" font-size="10.00">weighted_graph.h</text>
</a>
</g>
</g>
<!-- Node24&#45;&gt;Node31 -->
<g id="edge52" class="edge">
<title>Node24&#45;&gt;Node31</title>
<path fill="none" stroke="midnightblue" d="M563.07,-392.37C596.29,-373.33 676.09,-327.62 716.17,-304.65"/>
<polygon fill="midnightblue" stroke="midnightblue" points="718.07,-307.6 725,-299.59 714.59,-301.53 718.07,-307.6"/>
</g>
<!-- Node26 -->
<g id="node26" class="node">
<title>Node26</title>
<g id="a_node26"><a xlink:href="graph_8h.html" target="_top" xlink:title=" ">
<polygon fill="white" stroke="black" points="338.5,-280.5 338.5,-299.5 391.5,-299.5 391.5,-280.5 338.5,-280.5"/>
<text text-anchor="middle" x="365" y="-287.5" font-family="Helvetica,sans-Serif" font-size="10.00">graph.h</text>
</a>
</g>
</g>
<!-- Node25&#45;&gt;Node26 -->
<g id="edge33" class="edge">
<title>Node25&#45;&gt;Node26</title>
<path fill="none" stroke="midnightblue" d="M422.91,-336.32C412.51,-328.18 396.74,-315.84 384.28,-306.09"/>
<polygon fill="midnightblue" stroke="midnightblue" points="386.32,-303.24 376.29,-299.83 382.01,-308.75 386.32,-303.24"/>
</g>
<!-- Node26&#45;&gt;Node7 -->
<g id="edge34" class="edge">
<title>Node26&#45;&gt;Node7</title>
<path fill="none" stroke="midnightblue" d="M370,-280.08C384.77,-253.72 428.38,-175.88 448.11,-140.66"/>
<polygon fill="midnightblue" stroke="midnightblue" points="451.37,-142 453.2,-131.57 445.26,-138.58 451.37,-142"/>
</g>
<!-- Node26&#45;&gt;Node8 -->
<g id="edge35" class="edge">
<title>Node26&#45;&gt;Node8</title>
<path fill="none" stroke="midnightblue" d="M374.19,-280.08C401.81,-253.27 484.3,-173.19 519.64,-138.89"/>
<polygon fill="midnightblue" stroke="midnightblue" points="522.44,-141.04 527.17,-131.57 517.56,-136.02 522.44,-141.04"/>
</g>
<!-- Node26&#45;&gt;Node12 -->
<g id="edge38" class="edge">
<title>Node26&#45;&gt;Node12</title>
<path fill="none" stroke="midnightblue" d="M391.51,-285.04C487.83,-270.04 816.75,-213.49 877,-132 889.73,-114.77 870.19,-94.78 852.57,-81.57"/>
<polygon fill="midnightblue" stroke="midnightblue" points="854.41,-78.58 844.22,-75.66 850.37,-84.29 854.41,-78.58"/>
</g>
<!-- Node26&#45;&gt;Node20 -->
<g id="edge37" class="edge">
<title>Node26&#45;&gt;Node20</title>
<path fill="none" stroke="midnightblue" d="M338.49,-288.22C292.33,-285.99 195.03,-277.36 121,-244 78.28,-224.75 38,-225.85 38,-179 38,-179 38,-179 38,-121 38,-77.89 72.02,-76.4 110,-56 155.4,-31.61 214.6,-19.99 251.19,-14.8"/>
<polygon fill="midnightblue" stroke="midnightblue" points="251.88,-18.24 261.33,-13.44 250.95,-11.3 251.88,-18.24"/>
</g>
<!-- Node27 -->
<g id="node27" class="node">
<title>Node27</title>
<g id="a_node27"><a xlink:title=" ">
<polygon fill="white" stroke="#bfbfbf" points="254.5,-112.5 254.5,-131.5 299.5,-131.5 299.5,-112.5 254.5,-112.5"/>
<text text-anchor="middle" x="277" y="-119.5" font-family="Helvetica,sans-Serif" font-size="10.00">utility</text>
</a>
</g>
</g>
<!-- Node26&#45;&gt;Node27 -->
<g id="edge36" class="edge">
<title>Node26&#45;&gt;Node27</title>
<path fill="none" stroke="midnightblue" d="M364.33,-280.37C362.35,-259.48 355.09,-205.17 331,-168 323.04,-155.72 310.69,-145.07 299.8,-137.21"/>
<polygon fill="midnightblue" stroke="midnightblue" points="301.73,-134.29 291.5,-131.54 297.78,-140.07 301.73,-134.29"/>
</g>
<!-- Node28 -->
<g id="node28" class="node">
<title>Node28</title>
<g id="a_node28"><a xlink:href="content_8h.html" target="_top" xlink:title=" ">
<polygon fill="white" stroke="black" points="66,-168.5 66,-187.5 128,-187.5 128,-168.5 66,-168.5"/>
<text text-anchor="middle" x="97" y="-175.5" font-family="Helvetica,sans-Serif" font-size="10.00">content.h</text>
</a>
</g>
</g>
<!-- Node26&#45;&gt;Node28 -->
<g id="edge39" class="edge">
<title>Node26&#45;&gt;Node28</title>
<path fill="none" stroke="midnightblue" d="M338.36,-289.5C294.56,-289.1 206.12,-283.02 145,-244 127.13,-232.59 113.63,-212 105.57,-197.04"/>
<polygon fill="midnightblue" stroke="midnightblue" points="108.51,-195.11 100.87,-187.77 102.27,-198.27 108.51,-195.11"/>
</g>
<!-- Node29 -->
<g id="node29" class="node">
<title>Node29</title>
<g id="a_node29"><a xlink:href="node_8h.html" target="_top" xlink:title=" ">
<polygon fill="white" stroke="black" points="272,-168.5 272,-187.5 322,-187.5 322,-168.5 272,-168.5"/>
<text text-anchor="middle" x="297" y="-175.5" font-family="Helvetica,sans-Serif" font-size="10.00">node.h</text>
</a>
</g>
</g>
<!-- Node26&#45;&gt;Node29 -->
<g id="edge42" class="edge">
<title>Node26&#45;&gt;Node29</title>
<path fill="none" stroke="midnightblue" d="M359.66,-280.37C348.49,-262.3 322.45,-220.18 307.7,-196.31"/>
<polygon fill="midnightblue" stroke="midnightblue" points="310.55,-194.26 302.31,-187.59 304.59,-197.94 310.55,-194.26"/>
</g>
<!-- Node30 -->
<g id="node30" class="node">
<title>Node30</title>
<g id="a_node30"><a xlink:href="node__traits_8h.html" target="_top" xlink:title=" ">
<polygon fill="white" stroke="black" points="154,-224.5 154,-243.5 234,-243.5 234,-224.5 154,-224.5"/>
<text text-anchor="middle" x="194" y="-231.5" font-family="Helvetica,sans-Serif" font-size="10.00">node_traits.h</text>
</a>
</g>
</g>
<!-- Node26&#45;&gt;Node30 -->
<g id="edge47" class="edge">
<title>Node26&#45;&gt;Node30</title>
<path fill="none" stroke="midnightblue" d="M338.28,-280.56C309.34,-271.42 262.98,-256.78 230.64,-246.57"/>
<polygon fill="midnightblue" stroke="midnightblue" points="231.69,-243.23 221.1,-243.56 229.58,-249.91 231.69,-243.23"/>
</g>
<!-- Node28&#45;&gt;Node21 -->
<g id="edge40" class="edge">
<title>Node28&#45;&gt;Node21</title>
<path fill="none" stroke="midnightblue" d="M128.03,-170.7C172.93,-161.59 256.57,-144.61 311,-133.56"/>
<polygon fill="midnightblue" stroke="midnightblue" points="311.7,-136.99 320.8,-131.57 310.3,-130.13 311.7,-136.99"/>
</g>
<!-- Node28&#45;&gt;Node22 -->
<g id="edge41" class="edge">
<title>Node28&#45;&gt;Node22</title>
<path fill="none" stroke="midnightblue" d="M101.66,-168.33C108.61,-155.63 122.35,-131.36 136,-112 142.92,-102.19 151.38,-91.79 158.47,-83.47"/>
<polygon fill="midnightblue" stroke="midnightblue" points="161.33,-85.51 165.23,-75.66 156.04,-80.93 161.33,-85.51"/>
</g>
<!-- Node29&#45;&gt;Node13 -->
<g id="edge44" class="edge">
<title>Node29&#45;&gt;Node13</title>
<path fill="none" stroke="midnightblue" d="M322.19,-175.45C402.96,-170.41 662.7,-153.51 877,-132 889.19,-130.78 902.49,-129.21 914.36,-127.72"/>
<polygon fill="midnightblue" stroke="midnightblue" points="914.88,-131.18 924.36,-126.45 913.99,-124.24 914.88,-131.18"/>
</g>
<!-- Node29&#45;&gt;Node16 -->
<g id="edge45" class="edge">
<title>Node29&#45;&gt;Node16</title>
<path fill="none" stroke="midnightblue" d="M281.22,-168.47C268.8,-160.77 252.39,-148.18 245,-132 237.5,-115.59 247.99,-96.75 258.39,-83.6"/>
<polygon fill="midnightblue" stroke="midnightblue" points="261.17,-85.73 265.02,-75.85 255.85,-81.17 261.17,-85.73"/>
</g>
<!-- Node29&#45;&gt;Node21 -->
<g id="edge43" class="edge">
<title>Node29&#45;&gt;Node21</title>
<path fill="none" stroke="midnightblue" d="M307.6,-168.32C317.46,-160.26 332.35,-148.08 344.22,-138.37"/>
<polygon fill="midnightblue" stroke="midnightblue" points="346.68,-140.88 352.2,-131.83 342.25,-135.46 346.68,-140.88"/>
</g>
<!-- Node29&#45;&gt;Node27 -->
<g id="edge46" class="edge">
<title>Node29&#45;&gt;Node27</title>
<path fill="none" stroke="midnightblue" d="M293.7,-168.08C291.02,-160.85 287.15,-150.41 283.81,-141.4"/>
<polygon fill="midnightblue" stroke="midnightblue" points="287,-139.91 280.24,-131.75 280.43,-142.34 287,-139.91"/>
</g>
<!-- Node30&#45;&gt;Node16 -->
<g id="edge48" class="edge">
<title>Node30&#45;&gt;Node16</title>
<path fill="none" stroke="midnightblue" d="M188.77,-224.26C176.86,-203.11 150.53,-148.3 174,-112 181.39,-100.57 211.73,-87.86 237.08,-78.88"/>
<polygon fill="midnightblue" stroke="midnightblue" points="238.53,-82.08 246.84,-75.51 236.25,-75.46 238.53,-82.08"/>
</g>
<!-- Node30&#45;&gt;Node18 -->
<g id="edge51" class="edge">
<title>Node30&#45;&gt;Node18</title>
<path fill="none" stroke="midnightblue" d="M195.13,-224.22C198.44,-202.03 210.23,-143.22 245,-112 273.66,-86.27 316.53,-75.23 349.12,-70.51"/>
<polygon fill="midnightblue" stroke="midnightblue" points="349.84,-73.95 359.3,-69.19 348.93,-67.01 349.84,-73.95"/>
</g>
<!-- Node30&#45;&gt;Node28 -->
<g id="edge49" class="edge">
<title>Node30&#45;&gt;Node28</title>
<path fill="none" stroke="midnightblue" d="M178.42,-224.32C163,-215.74 139.19,-202.49 121.29,-192.52"/>
<polygon fill="midnightblue" stroke="midnightblue" points="122.99,-189.46 112.55,-187.65 119.58,-195.58 122.99,-189.46"/>
</g>
<!-- Node30&#45;&gt;Node29 -->
<g id="edge50" class="edge">
<title>Node30&#45;&gt;Node29</title>
<path fill="none" stroke="midnightblue" d="M210.55,-224.32C226.99,-215.7 252.43,-202.36 271.47,-192.39"/>
<polygon fill="midnightblue" stroke="midnightblue" points="273.26,-195.4 280.49,-187.65 270.01,-189.2 273.26,-195.4"/>
</g>
<!-- Node31&#45;&gt;Node13 -->
<g id="edge53" class="edge">
<title>Node31&#45;&gt;Node13</title>
<path fill="none" stroke="midnightblue" d="M792.01,-280.95C819.55,-274.59 852.62,-263.42 877,-244 886.18,-236.69 922.4,-172.74 940.13,-140.88"/>
<polygon fill="midnightblue" stroke="midnightblue" points="943.39,-142.22 945.17,-131.78 937.26,-138.83 943.39,-142.22"/>
</g>
<!-- Node32&#45;&gt;Node24 -->
<g id="edge57" class="edge">
<title>Node32&#45;&gt;Node24</title>
<path fill="none" stroke="midnightblue" d="M452.06,-448.44C470.57,-439.68 499.58,-425.94 520.86,-415.86"/>
<polygon fill="midnightblue" stroke="midnightblue" points="522.48,-418.96 530.02,-411.52 519.49,-412.63 522.48,-418.96"/>
</g>
<!-- Node32&#45;&gt;Node25 -->
<g id="edge56" class="edge">
<title>Node32&#45;&gt;Node25</title>
<path fill="none" stroke="midnightblue" d="M434,-448.37C434,-430.62 434,-389.67 434,-365.6"/>
<polygon fill="midnightblue" stroke="midnightblue" points="437.5,-365.59 434,-355.59 430.5,-365.59 437.5,-365.59"/>
</g>
<!-- Node32&#45;&gt;Node26 -->
<g id="edge55" class="edge">
<title>Node32&#45;&gt;Node26</title>
<path fill="none" stroke="midnightblue" d="M430.11,-448.41C422.27,-431.05 404.15,-390.51 390,-356 383.62,-340.44 376.8,-322.61 371.89,-309.56"/>
<polygon fill="midnightblue" stroke="midnightblue" points="375.05,-308.02 368.28,-299.88 368.5,-310.47 375.05,-308.02"/>
</g>
<!-- Node32&#45;&gt;Node28 -->
<g id="edge58" class="edge">
<title>Node32&#45;&gt;Node28</title>
<path fill="none" stroke="midnightblue" d="M391.99,-455.27C283.07,-449.66 0,-427.35 0,-347 0,-347 0,-347 0,-289 0,-245.35 43.51,-210.83 72.24,-192.79"/>
<polygon fill="midnightblue" stroke="midnightblue" points="74.23,-195.68 80.98,-187.52 70.61,-189.68 74.23,-195.68"/>
</g>
<!-- Node33&#45;&gt;Node32 -->
<g id="edge60" class="edge">
<title>Node33&#45;&gt;Node32</title>
<path fill="none" stroke="midnightblue" d="M522.13,-504.32C505.29,-495.66 479.19,-482.24 459.76,-472.25"/>
<polygon fill="midnightblue" stroke="midnightblue" points="461.32,-469.12 450.83,-467.65 458.12,-475.34 461.32,-469.12"/>
</g>
<!-- Node34 -->
<g id="node34" class="node">
<title>Node34</title>
<g id="a_node34"><a xlink:href="ksp__method_8h.html" target="_top" xlink:title=" ">
<polygon fill="white" stroke="black" points="496,-448.5 496,-467.5 582,-467.5 582,-448.5 496,-448.5"/>
<text text-anchor="middle" x="539" y="-455.5" font-family="Helvetica,sans-Serif" font-size="10.00">ksp_method.h</text>
</a>
</g>
</g>
<!-- Node33&#45;&gt;Node34 -->
<g id="edge61" class="edge">
<title>Node33&#45;&gt;Node34</title>
<path fill="none" stroke="midnightblue" d="M539,-504.08C539,-497.01 539,-486.86 539,-477.99"/>
<polygon fill="midnightblue" stroke="midnightblue" points="542.5,-477.75 539,-467.75 535.5,-477.75 542.5,-477.75"/>
</g>
<!-- Node36 -->
<g id="node36" class="node">
<title>Node36</title>
<g id="a_node36"><a xlink:href="block__aMLLibrary__weight__importer_8h.html" target="_top" xlink:title=" ">
<polygon fill="white" stroke="black" points="679,-672.5 679,-702.5 819,-702.5 819,-672.5 679,-672.5"/>
<text text-anchor="start" x="687" y="-690.5" font-family="Helvetica,sans-Serif" font-size="10.00">block_aMLLibrary_weight</text>
<text text-anchor="middle" x="749" y="-679.5" font-family="Helvetica,sans-Serif" font-size="10.00">_importer.h</text>
</a>
</g>
</g>
<!-- Node35&#45;&gt;Node36 -->
<g id="edge63" class="edge">
<title>Node35&#45;&gt;Node36</title>
<path fill="none" stroke="midnightblue" d="M662.47,-739.48C676.41,-731.27 697.98,-718.56 716.1,-707.88"/>
<polygon fill="midnightblue" stroke="midnightblue" points="718.36,-710.61 725.2,-702.52 714.8,-704.58 718.36,-710.61"/>
</g>
<!-- Node40 -->
<g id="node40" class="node">
<title>Node40</title>
<g id="a_node40"><a xlink:href="csv__weight__importer_8h.html" target="_top" xlink:title=" ">
<polygon fill="white" stroke="black" points="584.5,-616.5 584.5,-635.5 711.5,-635.5 711.5,-616.5 584.5,-616.5"/>
<text text-anchor="middle" x="648" y="-623.5" font-family="Helvetica,sans-Serif" font-size="10.00">csv_weight_importer.h</text>
</a>
</g>
</g>
<!-- Node35&#45;&gt;Node40 -->
<g id="edge76" class="edge">
<title>Node35&#45;&gt;Node40</title>
<path fill="none" stroke="midnightblue" d="M648,-739.3C648,-719.85 648,-672.49 648,-645.9"/>
<polygon fill="midnightblue" stroke="midnightblue" points="651.5,-645.62 648,-635.62 644.5,-645.62 651.5,-645.62"/>
</g>
<!-- Node36&#45;&gt;Node4 -->
<g id="edge65" class="edge">
<title>Node36&#45;&gt;Node4</title>
<path fill="none" stroke="midnightblue" d="M765.06,-672.32C779.02,-658.17 795.62,-635.76 786,-616 765.34,-573.59 717.31,-543.74 686.04,-527.98"/>
<polygon fill="midnightblue" stroke="midnightblue" points="687.45,-524.77 676.93,-523.54 684.38,-531.06 687.45,-524.77"/>
</g>
<!-- Node37 -->
<g id="node37" class="node">
<title>Node37</title>
<g id="a_node37"><a xlink:title=" ">
<polygon fill="white" stroke="#bfbfbf" points="729.5,-616.5 729.5,-635.5 776.5,-635.5 776.5,-616.5 729.5,-616.5"/>
<text text-anchor="middle" x="753" y="-623.5" font-family="Helvetica,sans-Serif" font-size="10.00">cmath</text>
</a>
</g>
</g>
<!-- Node36&#45;&gt;Node37 -->
<g id="edge64" class="edge">
<title>Node36&#45;&gt;Node37</title>
<path fill="none" stroke="midnightblue" d="M749.95,-672.4C750.48,-664.47 751.15,-654.46 751.73,-645.86"/>
<polygon fill="midnightblue" stroke="midnightblue" points="755.24,-645.87 752.42,-635.66 748.26,-645.4 755.24,-645.87"/>
</g>
<!-- Node38 -->
<g id="node38" class="node">
<title>Node38</title>
<g id="a_node38"><a xlink:href="weight__importer_8h.html" target="_top" xlink:title=" ">
<polygon fill="white" stroke="black" points="589.5,-560.5 589.5,-579.5 694.5,-579.5 694.5,-560.5 589.5,-560.5"/>
<text text-anchor="middle" x="642" y="-567.5" font-family="Helvetica,sans-Serif" font-size="10.00">weight_importer.h</text>
</a>
</g>
</g>
<!-- Node36&#45;&gt;Node38 -->
<g id="edge66" class="edge">
<title>Node36&#45;&gt;Node38</title>
<path fill="none" stroke="midnightblue" d="M678.55,-674.74C636.44,-666.11 588.72,-652.96 576,-636 561.09,-616.12 588.22,-596.56 612.07,-584.18"/>
<polygon fill="midnightblue" stroke="midnightblue" points="613.86,-587.2 621.29,-579.64 610.77,-580.92 613.86,-587.2"/>
</g>
<!-- Node39 -->
<g id="node39" class="node">
<title>Node39</title>
<g id="a_node39"><a xlink:href="weight__importer__utils_8h.html" target="_top" xlink:title=" ">
<polygon fill="white" stroke="black" points="815,-392.5 815,-411.5 947,-411.5 947,-392.5 815,-392.5"/>
<text text-anchor="middle" x="881" y="-399.5" font-family="Helvetica,sans-Serif" font-size="10.00">weight_importer_utils.h</text>
</a>
</g>
</g>
<!-- Node36&#45;&gt;Node39 -->
<g id="edge70" class="edge">
<title>Node36&#45;&gt;Node39</title>
<path fill="none" stroke="midnightblue" d="M786.47,-672.45C825.5,-655.11 881,-621.55 881,-571 881,-571 881,-571 881,-513 881,-480.95 881,-443.64 881,-421.75"/>
<polygon fill="midnightblue" stroke="midnightblue" points="884.5,-421.56 881,-411.56 877.5,-421.56 884.5,-421.56"/>
</g>
<!-- Node36&#45;&gt;Node40 -->
<g id="edge73" class="edge">
<title>Node36&#45;&gt;Node40</title>
<path fill="none" stroke="midnightblue" d="M725.06,-672.4C708.87,-662.86 687.59,-650.32 671.5,-640.84"/>
<polygon fill="midnightblue" stroke="midnightblue" points="673.09,-637.72 662.7,-635.66 669.54,-643.75 673.09,-637.72"/>
</g>
<!-- Node38&#45;&gt;Node13 -->
<g id="edge69" class="edge">
<title>Node38&#45;&gt;Node13</title>
<path fill="none" stroke="midnightblue" d="M673.46,-560.48C716.11,-546.8 787,-515.56 787,-459 787,-459 787,-459 787,-401 787,-315.8 853.39,-317.19 897,-244 911.24,-220.1 913.77,-213.46 925,-188 931.86,-172.44 938.73,-154.36 943.52,-141.23"/>
<polygon fill="midnightblue" stroke="midnightblue" points="946.93,-142.11 947.02,-131.52 940.34,-139.74 946.93,-142.11"/>
</g>
<!-- Node38&#45;&gt;Node32 -->
<g id="edge67" class="edge">
<title>Node38&#45;&gt;Node32</title>
<path fill="none" stroke="midnightblue" d="M589.21,-561.3C558.14,-554.94 519.16,-543.64 489,-524 470.1,-511.69 454.19,-490.96 444.42,-476.23"/>
<polygon fill="midnightblue" stroke="midnightblue" points="447.23,-474.12 438.92,-467.56 441.32,-477.87 447.23,-474.12"/>
</g>
<!-- Node38&#45;&gt;Node33 -->
<g id="edge68" class="edge">
<title>Node38&#45;&gt;Node33</title>
<path fill="none" stroke="midnightblue" d="M625.45,-560.32C609.01,-551.7 583.57,-538.36 564.53,-528.39"/>
<polygon fill="midnightblue" stroke="midnightblue" points="565.99,-525.2 555.51,-523.65 562.74,-531.4 565.99,-525.2"/>
</g>
<!-- Node39&#45;&gt;Node6 -->
<g id="edge72" class="edge">
<title>Node39&#45;&gt;Node6</title>
<path fill="none" stroke="midnightblue" d="M876.74,-392.28C866.14,-371.19 836.83,-316.47 801,-280 763.83,-242.17 710.6,-209.75 679.43,-192.43"/>
<polygon fill="midnightblue" stroke="midnightblue" points="680.96,-189.28 670.51,-187.55 677.6,-195.42 680.96,-189.28"/>
</g>
<!-- Node39&#45;&gt;Node13 -->
<g id="edge71" class="edge">
<title>Node39&#45;&gt;Node13</title>
<path fill="none" stroke="midnightblue" d="M896.85,-392.44C924.12,-376.43 977,-339.16 977,-291 977,-291 977,-291 977,-233 977,-199.86 965.3,-162.68 957.3,-141.14"/>
<polygon fill="midnightblue" stroke="midnightblue" points="960.51,-139.73 953.64,-131.66 953.98,-142.25 960.51,-139.73"/>
</g>
<!-- Node40&#45;&gt;Node38 -->
<g id="edge74" class="edge">
<title>Node40&#45;&gt;Node38</title>
<path fill="none" stroke="midnightblue" d="M647.01,-616.08C646.21,-608.93 645.07,-598.64 644.08,-589.69"/>
<polygon fill="midnightblue" stroke="midnightblue" points="647.56,-589.3 642.97,-579.75 640.6,-590.08 647.56,-589.3"/>
</g>
<!-- Node40&#45;&gt;Node39 -->
<g id="edge75" class="edge">
<title>Node40&#45;&gt;Node39</title>
<path fill="none" stroke="midnightblue" d="M665.69,-616.36C696,-600.94 758.67,-566.3 801,-524 832.78,-492.24 859.12,-445.98 872.17,-420.85"/>
<polygon fill="midnightblue" stroke="midnightblue" points="875.38,-422.27 876.78,-411.76 869.13,-419.1 875.38,-422.27"/>
</g>
</g>
</svg>
        <g id="navigator" transform="translate(0 0)" fill="#404254">
                <rect fill="#f2f5e9" fill-opacity="0.5" stroke="#606060" stroke-width=".5" x="0" y="0" width="60" height="60"/>
                <use id="zoomplus" xlink:href="#zoomPlus" x="17" y="9" onmousedown="handleZoom(evt,'in')"/>
                <use id="zoomminus" xlink:href="#zoomMin" x="42" y="9" onmousedown="handleZoom(evt,'out')"/>
                <use id="reset" xlink:href="#resetDef" x="30" y="36" onmousedown="handleReset()"/>
                <g id="arrowUp" xlink:href="#dirArrow" transform="translate(30 24)" onmousedown="handlePan(0,-1)">
                  <use xlink:href="#rim" fill="#404040">
                        <set attributeName="fill" to="#808080" begin="arrowUp.mouseover" end="arrowUp.mouseout"/>
                  </use>
                  <path fill="none" stroke="white" stroke-width="1.5" d="M0,-3.0v7 M-2.5,-0.5L0,-3.0L2.5,-0.5"/>
                </g>
                <g id="arrowRight" xlink:href="#dirArrow" transform="rotate(90) translate(36 -43)" onmousedown="handlePan(1,0)">
                  <use xlink:href="#rim" fill="#404040">
                        <set attributeName="fill" to="#808080" begin="arrowRight.mouseover" end="arrowRight.mouseout"/>
                  </use>
                  <path fill="none" stroke="white" stroke-width="1.5" d="M0,-3.0v7 M-2.5,-0.5L0,-3.0L2.5,-0.5"/>
                </g>
                <g id="arrowDown" xlink:href="#dirArrow" transform="rotate(180) translate(-30 -48)" onmousedown="handlePan(0,1)">
                  <use xlink:href="#rim" fill="#404040">
                        <set attributeName="fill" to="#808080" begin="arrowDown.mouseover" end="arrowDown.mouseout"/>
                  </use>
                  <path fill="none" stroke="white" stroke-width="1.5" d="M0,-3.0v7 M-2.5,-0.5L0,-3.0L2.5,-0.5"/>
                </g>
                <g id="arrowLeft" xlink:href="#dirArrow" transform="rotate(270) translate(-36 17)" onmousedown="handlePan(-1,0)">
                  <use xlink:href="#rim" fill="#404040">
                        <set attributeName="fill" to="#808080" begin="arrowLeft.mouseover" end="arrowLeft.mouseout"/>
                  </use>
                  <path fill="none" stroke="white" stroke-width="1.5" d="M0,-3.0v7 M-2.5,-0.5L0,-3.0L2.5,-0.5"/>
                </g>
        </g>
        <svg viewBox="0 0 15 15" width="100%" height="30px" preserveAspectRatio="xMaxYMin meet">
         <g id="arrow_out" transform="scale(0.3 0.3)">
          <a xlink:href="constrained__block__graph__builder_8h__incl_org.svg" target="_base">
           <rect id="button" ry="5" rx="5" y="6" x="6" height="38" width="38"
                fill="#f2f5e9" fill-opacity="0.5" stroke="#606060" stroke-width="1.0"/>
           <path id="arrow"
             d="M 11.500037,31.436501 C 11.940474,20.09759 22.043105,11.32322 32.158766,21.979434 L 37.068811,17.246167 C 37.068811,17.246167 37.088388,32 37.088388,32 L 22.160133,31.978069 C 22.160133,31.978069 26.997745,27.140456 26.997745,27.140456 C 18.528582,18.264221 13.291696,25.230495 11.500037,31.436501 z"
             style="fill:#404040;"/>
          </a>
         </g>
        </svg>
</svg>
