<?xml version="1.0" encoding="UTF-8" standalone="no"?>
<!DOCTYPE svg PUBLIC "-//W3C//DTD SVG 1.1//EN"
 "http://www.w3.org/Graphics/SVG/1.1/DTD/svg11.dtd">
<!-- Generated by graphviz version 2.43.0 (0)
 -->
<!-- Title: include/network_butcher/Types/content.h Pages: 1 -->
<!--zoomable 1232 -->
<svg id="main" version="1.1" xmlns="http://www.w3.org/2000/svg" xmlns:xlink="http://www.w3.org/1999/xlink" xml:space="preserve" onload="init(evt)">
<style type="text/css"><![CDATA[
.edge:hover path { stroke: red; }
.edge:hover polygon { stroke: red; fill: red; }
]]></style>
<script type="text/javascript"><![CDATA[
var edges = document.getElementsByTagName('g');
if (edges && edges.length) {
  for (var i=0;i<edges.length;i++) {
    if (edges[i].id.substr(0,4)=='edge') {
      edges[i].setAttribute('class','edge');
    }
  }
}
]]></script>
        <defs>
                <circle id="rim" cx="0" cy="0" r="7"/>
                <circle id="rim2" cx="0" cy="0" r="3.5"/>
                <g id="zoomPlus">
                        <use xlink:href="#rim" fill="#404040">
                                <set attributeName="fill" to="#808080" begin="zoomplus.mouseover" end="zoomplus.mouseout"/>
                        </use>
                        <path d="M-4,0h8M0,-4v8" fill="none" stroke="white" stroke-width="1.5" pointer-events="none"/>
                </g>
                <g id="zoomMin">
                        <use xlink:href="#rim" fill="#404040">
                                <set attributeName="fill" to="#808080" begin="zoomminus.mouseover" end="zoomminus.mouseout"/>
                        </use>
                        <path d="M-4,0h8" fill="none" stroke="white" stroke-width="1.5" pointer-events="none"/>
                </g>
                <g id="dirArrow">
                        <path fill="none" stroke="white" stroke-width="1.5" d="M0,-3.0v7 M-2.5,-0.5L0,-3.0L2.5,-0.5"/>
                </g>
               <g id="resetDef">
                       <use xlink:href="#rim2" fill="#404040">
                               <set attributeName="fill" to="#808080" begin="reset.mouseover" end="reset.mouseout"/>
                       </use>
               </g>
        </defs>

<script type="text/javascript">
var viewWidth = 1113;
var viewHeight = 1232;
var sectionId = 'dynsection-1';
</script>
<script xlink:href="svgpan.js"/>
<svg id="graph" class="graph">
<g id="viewport">
<title>include/network_butcher/Types/content.h</title>
<polygon fill="white" stroke="transparent" points="-4,4 -4,-1228 1108.5,-1228 1108.5,4 -4,4"/>
<!-- Node1 -->
<g id="node1" class="node">
<title>Node1</title>
<g id="a_node1"><a xlink:title=" ">
<polygon fill="#bfbfbf" stroke="black" points="655,-1193.5 655,-1223.5 792,-1223.5 792,-1193.5 655,-1193.5"/>
<text text-anchor="start" x="663" y="-1211.5" font-family="Helvetica,sans-Serif" font-size="10.00">include/network_butcher</text>
<text text-anchor="middle" x="723.5" y="-1200.5" font-family="Helvetica,sans-Serif" font-size="10.00">/Types/content.h</text>
</a>
</g>
</g>
<!-- Node2 -->
<g id="node2" class="node">
<title>Node2</title>
<g id="a_node2"><a xlink:href="graph_8h.html" target="_top" xlink:title=" ">
<polygon fill="white" stroke="black" points="577,-1059.5 577,-1089.5 714,-1089.5 714,-1059.5 577,-1059.5"/>
<text text-anchor="start" x="585" y="-1077.5" font-family="Helvetica,sans-Serif" font-size="10.00">include/network_butcher</text>
<text text-anchor="middle" x="645.5" y="-1066.5" font-family="Helvetica,sans-Serif" font-size="10.00">/Network/graph.h</text>
</a>
</g>
</g>
<!-- Node1&#45;&gt;Node2 -->
<g id="edge1" class="edge">
<title>Node1&#45;&gt;Node2</title>
<path fill="none" stroke="midnightblue" d="M721.42,-1182.99C719.07,-1165.98 714.08,-1143.35 703.5,-1126 694.53,-1111.29 679.88,-1098.59 667.54,-1089.6"/>
<polygon fill="midnightblue" stroke="midnightblue" points="717.98,-1183.72 722.61,-1193.25 724.93,-1182.91 717.98,-1183.72"/>
</g>
<!-- Node3 -->
<g id="node3" class="node">
<title>Node3</title>
<g id="a_node3"><a xlink:href="graph__traits_8h.html" target="_top" xlink:title=" ">
<polygon fill="white" stroke="black" points="655,-858.5 655,-888.5 792,-888.5 792,-858.5 655,-858.5"/>
<text text-anchor="start" x="663" y="-876.5" font-family="Helvetica,sans-Serif" font-size="10.00">include/network_butcher</text>
<text text-anchor="middle" x="723.5" y="-865.5" font-family="Helvetica,sans-Serif" font-size="10.00">/Network/graph_traits.h</text>
</a>
</g>
</g>
<!-- Node1&#45;&gt;Node3 -->
<g id="edge50" class="edge">
<title>Node1&#45;&gt;Node3</title>
<path fill="none" stroke="midnightblue" d="M734.65,-1183.86C745.87,-1157.89 761.5,-1114.66 761.5,-1075.5 761.5,-1075.5 761.5,-1075.5 761.5,-1006.5 761.5,-962.14 741.44,-912.56 730.47,-888.76"/>
<polygon fill="midnightblue" stroke="midnightblue" points="731.35,-1182.68 730.47,-1193.24 737.74,-1185.53 731.35,-1182.68"/>
</g>
<!-- Node27 -->
<g id="node27" class="node">
<title>Node27</title>
<g id="a_node27"><a xlink:href="node__traits_8h.html" target="_top" xlink:title=" ">
<polygon fill="white" stroke="black" points="558,-1126.5 558,-1156.5 695,-1156.5 695,-1126.5 558,-1126.5"/>
<text text-anchor="start" x="566" y="-1144.5" font-family="Helvetica,sans-Serif" font-size="10.00">include/network_butcher</text>
<text text-anchor="middle" x="626.5" y="-1133.5" font-family="Helvetica,sans-Serif" font-size="10.00">/Network/node_traits.h</text>
</a>
</g>
</g>
<!-- Node1&#45;&gt;Node27 -->
<g id="edge51" class="edge">
<title>Node1&#45;&gt;Node27</title>
<path fill="none" stroke="midnightblue" d="M694,-1187.73C678.99,-1177.68 661.1,-1165.68 647.51,-1156.58"/>
<polygon fill="midnightblue" stroke="midnightblue" points="692.2,-1190.74 702.45,-1193.4 696.09,-1184.92 692.2,-1190.74"/>
</g>
<!-- Node2&#45;&gt;Node3 -->
<g id="edge2" class="edge">
<title>Node2&#45;&gt;Node3</title>
<path fill="none" stroke="midnightblue" d="M676.75,-1053.24C686.89,-1045.07 697.15,-1034.78 703.5,-1023 727.44,-978.57 726.58,-916.2 724.76,-888.59"/>
<polygon fill="midnightblue" stroke="midnightblue" points="674.57,-1050.5 668.71,-1059.33 678.8,-1056.08 674.57,-1050.5"/>
</g>
<!-- Node24 -->
<g id="node24" class="node">
<title>Node24</title>
<g id="a_node24"><a xlink:href="mwgraph_8h.html" target="_top" xlink:title=" ">
<polygon fill="white" stroke="black" points="558,-992.5 558,-1022.5 695,-1022.5 695,-992.5 558,-992.5"/>
<text text-anchor="start" x="566" y="-1010.5" font-family="Helvetica,sans-Serif" font-size="10.00">include/network_butcher</text>
<text text-anchor="middle" x="626.5" y="-999.5" font-family="Helvetica,sans-Serif" font-size="10.00">/Network/mwgraph.h</text>
</a>
</g>
</g>
<!-- Node2&#45;&gt;Node24 -->
<g id="edge41" class="edge">
<title>Node2&#45;&gt;Node24</title>
<path fill="none" stroke="midnightblue" d="M638.54,-1049.7C635.88,-1040.59 632.93,-1030.49 630.61,-1022.58"/>
<polygon fill="midnightblue" stroke="midnightblue" points="635.21,-1050.78 641.38,-1059.4 641.93,-1048.82 635.21,-1050.78"/>
</g>
<!-- Node4 -->
<g id="node4" class="node">
<title>Node4</title>
<g id="a_node4"><a xlink:href="butcher_8h.html" target="_top" xlink:title=" ">
<polygon fill="white" stroke="black" points="458,-290.5 458,-320.5 595,-320.5 595,-290.5 458,-290.5"/>
<text text-anchor="start" x="466" y="-308.5" font-family="Helvetica,sans-Serif" font-size="10.00">include/network_butcher</text>
<text text-anchor="middle" x="526.5" y="-297.5" font-family="Helvetica,sans-Serif" font-size="10.00">/Butcher/butcher.h</text>
</a>
</g>
</g>
<!-- Node3&#45;&gt;Node4 -->
<g id="edge3" class="edge">
<title>Node3&#45;&gt;Node4</title>
<path fill="none" stroke="midnightblue" d="M660.13,-855.48C632.78,-847.04 600.85,-835.71 573.5,-822 526.66,-798.52 516.63,-788.69 476.5,-755 408.63,-698.01 408.63,-664.5 336.5,-613 306.41,-591.52 281.19,-608.29 261.5,-577 249.85,-558.48 260.05,-447.52 268.5,-435 294.85,-395.96 421.96,-344.85 487.39,-320.53"/>
<polygon fill="midnightblue" stroke="midnightblue" points="659.4,-858.91 669.99,-858.45 661.42,-852.21 659.4,-858.91"/>
</g>
<!-- Node5 -->
<g id="node5" class="node">
<title>Node5</title>
<g id="a_node5"><a xlink:href="onnx__importer__helpers_8h.html" target="_top" xlink:title=" ">
<polygon fill="white" stroke="black" points="692.5,-212.5 692.5,-253.5 854.5,-253.5 854.5,-212.5 692.5,-212.5"/>
<text text-anchor="start" x="700.5" y="-241.5" font-family="Helvetica,sans-Serif" font-size="10.00">include/network_butcher</text>
<text text-anchor="start" x="700.5" y="-230.5" font-family="Helvetica,sans-Serif" font-size="10.00">/IO_Interaction/onnx_importer</text>
<text text-anchor="middle" x="773.5" y="-219.5" font-family="Helvetica,sans-Serif" font-size="10.00">_helpers.h</text>
</a>
</g>
</g>
<!-- Node3&#45;&gt;Node5 -->
<g id="edge22" class="edge">
<title>Node3&#45;&gt;Node5</title>
<path fill="none" stroke="midnightblue" d="M802.29,-872.63C903.57,-868.18 1066.5,-843.33 1066.5,-729.5 1066.5,-729.5 1066.5,-729.5 1066.5,-377 1066.5,-282.33 941.44,-250.32 854.73,-239.51"/>
<polygon fill="midnightblue" stroke="midnightblue" points="801.95,-869.14 792.09,-873.02 802.21,-876.14 801.95,-869.14"/>
</g>
<!-- Node8 -->
<g id="node8" class="node">
<title>Node8</title>
<g id="a_node8"><a xlink:href="network__butcher_8h.html" target="_top" xlink:title=" ">
<polygon fill="white" stroke="black" points="283,-0.5 283,-30.5 420,-30.5 420,-0.5 283,-0.5"/>
<text text-anchor="start" x="291" y="-18.5" font-family="Helvetica,sans-Serif" font-size="10.00">include/network_butcher</text>
<text text-anchor="middle" x="351.5" y="-7.5" font-family="Helvetica,sans-Serif" font-size="10.00">/network_butcher.h</text>
</a>
</g>
</g>
<!-- Node3&#45;&gt;Node8 -->
<g id="edge35" class="edge">
<title>Node3&#45;&gt;Node8</title>
<path fill="none" stroke="midnightblue" d="M802.42,-867.32C883.97,-860.71 1004.67,-847.01 1043.5,-822 1084.9,-795.34 1104.5,-778.75 1104.5,-729.5 1104.5,-729.5 1104.5,-729.5 1104.5,-154 1104.5,-84.81 606.21,-37.2 420.32,-21.85"/>
<polygon fill="midnightblue" stroke="midnightblue" points="801.87,-863.86 792.18,-868.13 802.43,-870.83 801.87,-863.86"/>
</g>
<!-- Node12 -->
<g id="node12" class="node">
<title>Node12</title>
<g id="a_node12"><a xlink:href="onnx__model__reconstructor__helpers_8h.html" target="_top" xlink:title=" ">
<polygon fill="white" stroke="black" points="195,-212.5 195,-253.5 346,-253.5 346,-212.5 195,-212.5"/>
<text text-anchor="start" x="203" y="-241.5" font-family="Helvetica,sans-Serif" font-size="10.00">include/network_butcher</text>
<text text-anchor="start" x="203" y="-230.5" font-family="Helvetica,sans-Serif" font-size="10.00">/IO_Interaction/onnx_model</text>
<text text-anchor="middle" x="270.5" y="-219.5" font-family="Helvetica,sans-Serif" font-size="10.00">_reconstructor_helpers.h</text>
</a>
</g>
</g>
<!-- Node3&#45;&gt;Node12 -->
<g id="edge23" class="edge">
<title>Node3&#45;&gt;Node12</title>
<path fill="none" stroke="midnightblue" d="M645.07,-858.95C483.48,-828.81 128.5,-750.12 128.5,-640.5 128.5,-640.5 128.5,-640.5 128.5,-460.5 128.5,-372.09 207.13,-289.83 247.37,-253.53"/>
<polygon fill="midnightblue" stroke="midnightblue" points="644.49,-862.4 654.96,-860.78 645.76,-855.52 644.49,-862.4"/>
</g>
<!-- Node14 -->
<g id="node14" class="node">
<title>Node14</title>
<g id="a_node14"><a xlink:href="graph__constraint_8h.html" target="_top" xlink:title=" ">
<polygon fill="white" stroke="black" points="697,-535.5 697,-565.5 848,-565.5 848,-535.5 697,-535.5"/>
<text text-anchor="start" x="705" y="-553.5" font-family="Helvetica,sans-Serif" font-size="10.00">include/network_butcher</text>
<text text-anchor="middle" x="772.5" y="-542.5" font-family="Helvetica,sans-Serif" font-size="10.00">/Butcher/graph_constraint.h</text>
</a>
</g>
</g>
<!-- Node3&#45;&gt;Node14 -->
<g id="edge16" class="edge">
<title>Node3&#45;&gt;Node14</title>
<path fill="none" stroke="midnightblue" d="M739.97,-849.91C745.23,-841.54 750.46,-831.72 753.5,-822 782.94,-727.87 776.92,-606.65 773.76,-565.71"/>
<polygon fill="midnightblue" stroke="midnightblue" points="736.99,-848.07 734.37,-858.34 742.82,-851.95 736.99,-848.07"/>
</g>
<!-- Node15 -->
<g id="node15" class="node">
<title>Node15</title>
<g id="a_node15"><a xlink:href="constrained__block__graph__builder_8h.html" target="_top" xlink:title=" ">
<polygon fill="white" stroke="black" points="696,-357.5 696,-398.5 845,-398.5 845,-357.5 696,-357.5"/>
<text text-anchor="start" x="704" y="-386.5" font-family="Helvetica,sans-Serif" font-size="10.00">include/network_butcher</text>
<text text-anchor="start" x="704" y="-375.5" font-family="Helvetica,sans-Serif" font-size="10.00">/Butcher/constrained_block</text>
<text text-anchor="middle" x="770.5" y="-364.5" font-family="Helvetica,sans-Serif" font-size="10.00">_graph_builder.h</text>
</a>
</g>
</g>
<!-- Node3&#45;&gt;Node15 -->
<g id="edge19" class="edge">
<title>Node3&#45;&gt;Node15</title>
<path fill="none" stroke="midnightblue" d="M753.25,-852.22C781.46,-831.29 822.69,-796 844.5,-755 863.38,-719.52 856.93,-706.03 860.5,-666 866.11,-603.12 875.37,-584.54 857.5,-524 842.95,-474.73 807.64,-425.06 786.75,-398.56"/>
<polygon fill="midnightblue" stroke="midnightblue" points="750.99,-849.54 744.95,-858.24 755.1,-855.2 750.99,-849.54"/>
</g>
<!-- Node16 -->
<g id="node16" class="node">
<title>Node16</title>
<g id="a_node16"><a xlink:href="path__converter_8h.html" target="_top" xlink:title=" ">
<polygon fill="white" stroke="black" points="896.5,-713.5 896.5,-743.5 1038.5,-743.5 1038.5,-713.5 896.5,-713.5"/>
<text text-anchor="start" x="904.5" y="-731.5" font-family="Helvetica,sans-Serif" font-size="10.00">include/network_butcher</text>
<text text-anchor="middle" x="967.5" y="-720.5" font-family="Helvetica,sans-Serif" font-size="10.00">/Butcher/path_converter.h</text>
</a>
</g>
</g>
<!-- Node3&#45;&gt;Node16 -->
<g id="edge20" class="edge">
<title>Node3&#45;&gt;Node16</title>
<path fill="none" stroke="midnightblue" d="M802.03,-856.28C828.89,-848.53 858.25,-837.46 882.5,-822 915.6,-800.9 944.18,-763.74 958.23,-743.54"/>
<polygon fill="midnightblue" stroke="midnightblue" points="800.96,-852.94 792.26,-858.99 802.83,-859.69 800.96,-852.94"/>
</g>
<!-- Node17 -->
<g id="node17" class="node">
<title>Node17</title>
<g id="a_node17"><a xlink:href="weight__importer_8h.html" target="_top" xlink:title=" ">
<polygon fill="white" stroke="black" points="486,-702.5 486,-754.5 629,-754.5 629,-702.5 486,-702.5"/>
<text text-anchor="start" x="494" y="-742.5" font-family="Helvetica,sans-Serif" font-size="10.00">include/network_butcher</text>
<text text-anchor="start" x="494" y="-731.5" font-family="Helvetica,sans-Serif" font-size="10.00">/IO_Interaction/Weight</text>
<text text-anchor="start" x="494" y="-720.5" font-family="Helvetica,sans-Serif" font-size="10.00">_Importer_Helpers/weight</text>
<text text-anchor="middle" x="557.5" y="-709.5" font-family="Helvetica,sans-Serif" font-size="10.00">_importer.h</text>
</a>
</g>
</g>
<!-- Node3&#45;&gt;Node17 -->
<g id="edge24" class="edge">
<title>Node3&#45;&gt;Node17</title>
<path fill="none" stroke="midnightblue" d="M652.31,-854.95C632.7,-847.38 612.67,-836.76 597.5,-822 578.69,-803.69 568.19,-775.08 562.72,-754.53"/>
<polygon fill="midnightblue" stroke="midnightblue" points="651.29,-858.3 661.89,-858.42 653.68,-851.72 651.29,-858.3"/>
</g>
<!-- Node23 -->
<g id="node23" class="node">
<title>Node23</title>
<g id="a_node23"><a xlink:href="parameters_8h.html" target="_top" xlink:title=" ">
<polygon fill="white" stroke="black" points="607,-791.5 607,-821.5 744,-821.5 744,-791.5 607,-791.5"/>
<text text-anchor="start" x="615" y="-809.5" font-family="Helvetica,sans-Serif" font-size="10.00">include/network_butcher</text>
<text text-anchor="middle" x="675.5" y="-798.5" font-family="Helvetica,sans-Serif" font-size="10.00">/Types/parameters.h</text>
</a>
</g>
</g>
<!-- Node3&#45;&gt;Node23 -->
<g id="edge36" class="edge">
<title>Node3&#45;&gt;Node23</title>
<path fill="none" stroke="midnightblue" d="M707,-850.16C700,-840.68 692.06,-829.92 685.89,-821.58"/>
<polygon fill="midnightblue" stroke="midnightblue" points="704.33,-852.43 713.08,-858.4 709.96,-848.27 704.33,-852.43"/>
</g>
<!-- Node4&#45;&gt;Node5 -->
<g id="edge4" class="edge">
<title>Node4&#45;&gt;Node5</title>
<path fill="none" stroke="midnightblue" d="M585.43,-287.68C621.32,-277.44 667.33,-264.3 704.86,-253.59"/>
<polygon fill="midnightblue" stroke="midnightblue" points="584.25,-284.38 575.59,-290.49 586.17,-291.11 584.25,-284.38"/>
</g>
<!-- Node4&#45;&gt;Node8 -->
<g id="edge15" class="edge">
<title>Node4&#45;&gt;Node8</title>
<path fill="none" stroke="midnightblue" d="M531.41,-280.42C539.46,-233.66 549.94,-129.69 499.5,-67 480.18,-42.99 448.9,-30.35 420.06,-23.71"/>
<polygon fill="midnightblue" stroke="midnightblue" points="527.97,-279.79 529.6,-290.26 534.85,-281.05 527.97,-279.79"/>
</g>
<!-- Node4&#45;&gt;Node12 -->
<g id="edge12" class="edge">
<title>Node4&#45;&gt;Node12</title>
<path fill="none" stroke="midnightblue" d="M465.9,-287.81C428.63,-277.55 380.7,-264.35 341.64,-253.59"/>
<polygon fill="midnightblue" stroke="midnightblue" points="465.05,-291.21 475.62,-290.49 466.9,-284.46 465.05,-291.21"/>
</g>
<!-- Node6 -->
<g id="node6" class="node">
<title>Node6</title>
<g id="a_node6"><a xlink:href="io__manager_8h.html" target="_top" xlink:title=" ">
<polygon fill="white" stroke="black" points="361,-140 361,-170 498,-170 498,-140 361,-140"/>
<text text-anchor="start" x="369" y="-158" font-family="Helvetica,sans-Serif" font-size="10.00">include/network_butcher</text>
<text text-anchor="middle" x="429.5" y="-147" font-family="Helvetica,sans-Serif" font-size="10.00">/io_manager.h</text>
</a>
</g>
</g>
<!-- Node5&#45;&gt;Node6 -->
<g id="edge5" class="edge">
<title>Node5&#45;&gt;Node6</title>
<path fill="none" stroke="midnightblue" d="M682.61,-211.92C622.93,-198.74 546.36,-181.82 493.14,-170.06"/>
<polygon fill="midnightblue" stroke="midnightblue" points="681.89,-215.35 692.41,-214.09 683.4,-208.51 681.89,-215.35"/>
</g>
<!-- Node11 -->
<g id="node11" class="node">
<title>Node11</title>
<g id="a_node11"><a xlink:href="onnx__importer__helpers_8cpp.html" target="_top" xlink:title=" ">
<polygon fill="white" stroke="black" points="697.5,-140 697.5,-170 849.5,-170 849.5,-140 697.5,-140"/>
<text text-anchor="start" x="705.5" y="-158" font-family="Helvetica,sans-Serif" font-size="10.00">src/IO_Interaction</text>
<text text-anchor="middle" x="773.5" y="-147" font-family="Helvetica,sans-Serif" font-size="10.00">/onnx_importer_helpers.cpp</text>
</a>
</g>
</g>
<!-- Node5&#45;&gt;Node11 -->
<g id="edge11" class="edge">
<title>Node5&#45;&gt;Node11</title>
<path fill="none" stroke="midnightblue" d="M773.5,-202.28C773.5,-191.25 773.5,-179.25 773.5,-170.23"/>
<polygon fill="midnightblue" stroke="midnightblue" points="770,-202.43 773.5,-212.43 777,-202.43 770,-202.43"/>
</g>
<!-- Node7 -->
<g id="node7" class="node">
<title>Node7</title>
<g id="a_node7"><a xlink:href="general__manager_8h.html" target="_top" xlink:title=" ">
<polygon fill="white" stroke="black" points="1,-67.5 1,-97.5 138,-97.5 138,-67.5 1,-67.5"/>
<text text-anchor="start" x="9" y="-85.5" font-family="Helvetica,sans-Serif" font-size="10.00">include/network_butcher</text>
<text text-anchor="middle" x="69.5" y="-74.5" font-family="Helvetica,sans-Serif" font-size="10.00">/general_manager.h</text>
</a>
</g>
</g>
<!-- Node6&#45;&gt;Node7 -->
<g id="edge6" class="edge">
<title>Node6&#45;&gt;Node7</title>
<path fill="none" stroke="midnightblue" d="M366.83,-137.5C361.65,-136.27 356.49,-135.09 351.5,-134 279.08,-118.25 195.43,-103.73 138.16,-94.34"/>
<polygon fill="midnightblue" stroke="midnightblue" points="366.22,-140.95 376.76,-139.91 367.87,-134.15 366.22,-140.95"/>
</g>
<!-- Node6&#45;&gt;Node8 -->
<g id="edge9" class="edge">
<title>Node6&#45;&gt;Node8</title>
<path fill="none" stroke="midnightblue" d="M401.43,-133.35C390.25,-123.77 378.24,-111.51 370.5,-98 358.22,-76.57 353.87,-47.66 352.34,-30.66"/>
<polygon fill="midnightblue" stroke="midnightblue" points="399.39,-136.2 409.34,-139.83 403.82,-130.79 399.39,-136.2"/>
</g>
<!-- Node10 -->
<g id="node10" class="node">
<title>Node10</title>
<g id="a_node10"><a xlink:href="io__manager_8cpp.html" target="_top" xlink:title=" ">
<polygon fill="white" stroke="black" points="380,-73 380,-92 491,-92 491,-73 380,-73"/>
<text text-anchor="middle" x="435.5" y="-80" font-family="Helvetica,sans-Serif" font-size="10.00">src/io_manager.cpp</text>
</a>
</g>
</g>
<!-- Node6&#45;&gt;Node10 -->
<g id="edge10" class="edge">
<title>Node6&#45;&gt;Node10</title>
<path fill="none" stroke="midnightblue" d="M431.58,-129.59C432.67,-116.71 433.95,-101.7 434.74,-92.39"/>
<polygon fill="midnightblue" stroke="midnightblue" points="428.07,-129.47 430.71,-139.73 435.05,-130.07 428.07,-129.47"/>
</g>
<!-- Node7&#45;&gt;Node8 -->
<g id="edge7" class="edge">
<title>Node7&#45;&gt;Node8</title>
<path fill="none" stroke="midnightblue" d="M140.28,-65.19C186.46,-54.54 246.14,-40.78 290.28,-30.61"/>
<polygon fill="midnightblue" stroke="midnightblue" points="139.3,-61.82 130.34,-67.48 140.87,-68.64 139.3,-61.82"/>
</g>
<!-- Node9 -->
<g id="node9" class="node">
<title>Node9</title>
<g id="a_node9"><a xlink:href="general__manager_8cpp.html" target="_top" xlink:title=" ">
<polygon fill="white" stroke="black" points="0,-6 0,-25 139,-25 139,-6 0,-6"/>
<text text-anchor="middle" x="69.5" y="-13" font-family="Helvetica,sans-Serif" font-size="10.00">src/general_manager.cpp</text>
</a>
</g>
</g>
<!-- Node7&#45;&gt;Node9 -->
<g id="edge8" class="edge">
<title>Node7&#45;&gt;Node9</title>
<path fill="none" stroke="midnightblue" d="M69.5,-57.25C69.5,-46.02 69.5,-33.38 69.5,-25.19"/>
<polygon fill="midnightblue" stroke="midnightblue" points="66,-57.4 69.5,-67.4 73,-57.4 66,-57.4"/>
</g>
<!-- Node12&#45;&gt;Node6 -->
<g id="edge13" class="edge">
<title>Node12&#45;&gt;Node6</title>
<path fill="none" stroke="midnightblue" d="M320.77,-207.97C346.75,-195.55 377.56,-180.83 399.74,-170.23"/>
<polygon fill="midnightblue" stroke="midnightblue" points="318.96,-204.96 311.45,-212.43 321.98,-211.27 318.96,-204.96"/>
</g>
<!-- Node13 -->
<g id="node13" class="node">
<title>Node13</title>
<g id="a_node13"><a xlink:href="onnx__model__reconstructor__helpers_8cpp.html" target="_top" xlink:title=" ">
<polygon fill="white" stroke="black" points="194,-134.5 194,-175.5 343,-175.5 343,-134.5 194,-134.5"/>
<text text-anchor="start" x="202" y="-163.5" font-family="Helvetica,sans-Serif" font-size="10.00">src/IO_Interaction</text>
<text text-anchor="start" x="202" y="-152.5" font-family="Helvetica,sans-Serif" font-size="10.00">/onnx_model_reconstructor</text>
<text text-anchor="middle" x="268.5" y="-141.5" font-family="Helvetica,sans-Serif" font-size="10.00">_helpers.cpp</text>
</a>
</g>
</g>
<!-- Node12&#45;&gt;Node13 -->
<g id="edge14" class="edge">
<title>Node12&#45;&gt;Node13</title>
<path fill="none" stroke="midnightblue" d="M269.72,-202.3C269.48,-193.3 269.23,-183.65 269.01,-175.51"/>
<polygon fill="midnightblue" stroke="midnightblue" points="266.22,-202.52 269.98,-212.43 273.22,-202.34 266.22,-202.52"/>
</g>
<!-- Node14&#45;&gt;Node15 -->
<g id="edge17" class="edge">
<title>Node14&#45;&gt;Node15</title>
<path fill="none" stroke="midnightblue" d="M772.22,-525.25C771.82,-491.26 771.1,-430.11 770.73,-398.74"/>
<polygon fill="midnightblue" stroke="midnightblue" points="768.72,-525.3 772.33,-535.26 775.72,-525.22 768.72,-525.3"/>
</g>
<!-- Node15&#45;&gt;Node4 -->
<g id="edge18" class="edge">
<title>Node15&#45;&gt;Node4</title>
<path fill="none" stroke="midnightblue" d="M693.2,-354.66C654.57,-343.5 609.01,-330.34 575.29,-320.6"/>
<polygon fill="midnightblue" stroke="midnightblue" points="692.28,-358.04 702.86,-357.46 694.22,-351.32 692.28,-358.04"/>
</g>
<!-- Node16&#45;&gt;Node4 -->
<g id="edge21" class="edge">
<title>Node16&#45;&gt;Node4</title>
<path fill="none" stroke="midnightblue" d="M969.93,-703C975.47,-631.29 980.05,-422.72 854.5,-357 810.6,-334.02 677.63,-319.12 595.09,-311.82"/>
<polygon fill="midnightblue" stroke="midnightblue" points="966.41,-703.03 969.05,-713.29 973.39,-703.63 966.41,-703.03"/>
</g>
<!-- Node18 -->
<g id="node18" class="node">
<title>Node18</title>
<g id="a_node18"><a xlink:href="block__aMLLibrary__weight__importer_8h.html" target="_top" xlink:title=" ">
<polygon fill="white" stroke="black" points="270.5,-524.5 270.5,-576.5 440.5,-576.5 440.5,-524.5 270.5,-524.5"/>
<text text-anchor="start" x="278.5" y="-564.5" font-family="Helvetica,sans-Serif" font-size="10.00">include/network_butcher</text>
<text text-anchor="start" x="278.5" y="-553.5" font-family="Helvetica,sans-Serif" font-size="10.00">/IO_Interaction/Weight</text>
<text text-anchor="start" x="278.5" y="-542.5" font-family="Helvetica,sans-Serif" font-size="10.00">_Importer_Helpers/block</text>
<text text-anchor="middle" x="355.5" y="-531.5" font-family="Helvetica,sans-Serif" font-size="10.00">_aMLLibrary_weight_importer.h</text>
</a>
</g>
</g>
<!-- Node17&#45;&gt;Node18 -->
<g id="edge25" class="edge">
<title>Node17&#45;&gt;Node18</title>
<path fill="none" stroke="midnightblue" d="M499.55,-697.29C484.23,-688.15 468.17,-677.47 454.5,-666 422.49,-639.14 392.05,-601.48 373.58,-576.79"/>
<polygon fill="midnightblue" stroke="midnightblue" points="498.05,-700.47 508.45,-702.48 501.58,-694.42 498.05,-700.47"/>
</g>
<!-- Node21 -->
<g id="node21" class="node">
<title>Node21</title>
<g id="a_node21"><a xlink:href="csv__weight__importer_8h.html" target="_top" xlink:title=" ">
<polygon fill="white" stroke="black" points="463.5,-613.5 463.5,-665.5 627.5,-665.5 627.5,-613.5 463.5,-613.5"/>
<text text-anchor="start" x="471.5" y="-653.5" font-family="Helvetica,sans-Serif" font-size="10.00">include/network_butcher</text>
<text text-anchor="start" x="471.5" y="-642.5" font-family="Helvetica,sans-Serif" font-size="10.00">/IO_Interaction/Weight</text>
<text text-anchor="start" x="471.5" y="-631.5" font-family="Helvetica,sans-Serif" font-size="10.00">_Importer_Helpers/csv_weight</text>
<text text-anchor="middle" x="545.5" y="-620.5" font-family="Helvetica,sans-Serif" font-size="10.00">_importer.h</text>
</a>
</g>
</g>
<!-- Node17&#45;&gt;Node21 -->
<g id="edge31" class="edge">
<title>Node17&#45;&gt;Node21</title>
<path fill="none" stroke="midnightblue" d="M552.63,-692.19C551.4,-683.28 550.11,-673.9 548.96,-665.61"/>
<polygon fill="midnightblue" stroke="midnightblue" points="549.2,-692.91 554.03,-702.34 556.13,-691.95 549.2,-692.91"/>
</g>
<!-- Node19 -->
<g id="node19" class="node">
<title>Node19</title>
<g id="a_node19"><a xlink:href="weight__importers_8h.html" target="_top" xlink:title=" ">
<polygon fill="white" stroke="black" points="439,-441 439,-482 576,-482 576,-441 439,-441"/>
<text text-anchor="start" x="447" y="-470" font-family="Helvetica,sans-Serif" font-size="10.00">include/network_butcher</text>
<text text-anchor="start" x="447" y="-459" font-family="Helvetica,sans-Serif" font-size="10.00">/IO_Interaction/weight</text>
<text text-anchor="middle" x="507.5" y="-448" font-family="Helvetica,sans-Serif" font-size="10.00">_importers.h</text>
</a>
</g>
</g>
<!-- Node18&#45;&gt;Node19 -->
<g id="edge26" class="edge">
<title>Node18&#45;&gt;Node19</title>
<path fill="none" stroke="midnightblue" d="M408.2,-519.34C429.77,-506.99 454.1,-493.06 473.29,-482.08"/>
<polygon fill="midnightblue" stroke="midnightblue" points="406.4,-516.33 399.46,-524.34 409.88,-522.41 406.4,-516.33"/>
</g>
<!-- Node20 -->
<g id="node20" class="node">
<title>Node20</title>
<g id="a_node20"><a xlink:href="block__aMLLibrary__weight__importer_8cpp.html" target="_top" xlink:title=" ">
<polygon fill="white" stroke="black" points="278,-435.5 278,-487.5 421,-487.5 421,-435.5 278,-435.5"/>
<text text-anchor="start" x="286" y="-475.5" font-family="Helvetica,sans-Serif" font-size="10.00">src/IO_Interaction</text>
<text text-anchor="start" x="286" y="-464.5" font-family="Helvetica,sans-Serif" font-size="10.00">/Weight_Importer_Helpers</text>
<text text-anchor="start" x="286" y="-453.5" font-family="Helvetica,sans-Serif" font-size="10.00">/block_aMLLibrary_weight</text>
<text text-anchor="middle" x="349.5" y="-442.5" font-family="Helvetica,sans-Serif" font-size="10.00">_importer.cpp</text>
</a>
</g>
</g>
<!-- Node18&#45;&gt;Node20 -->
<g id="edge30" class="edge">
<title>Node18&#45;&gt;Node20</title>
<path fill="none" stroke="midnightblue" d="M353.06,-514.19C352.45,-505.28 351.8,-495.9 351.23,-487.61"/>
<polygon fill="midnightblue" stroke="midnightblue" points="349.58,-514.6 353.76,-524.34 356.57,-514.12 349.58,-514.6"/>
</g>
<!-- Node19&#45;&gt;Node4 -->
<g id="edge27" class="edge">
<title>Node19&#45;&gt;Node4</title>
<path fill="none" stroke="midnightblue" d="M511.14,-431.01C515.21,-397.99 521.65,-345.84 524.73,-320.82"/>
<polygon fill="midnightblue" stroke="midnightblue" points="507.66,-430.64 509.91,-441 514.6,-431.5 507.66,-430.64"/>
</g>
<!-- Node19&#45;&gt;Node6 -->
<g id="edge29" class="edge">
<title>Node19&#45;&gt;Node6</title>
<path fill="none" stroke="midnightblue" d="M492.45,-431.72C478.7,-404.09 458.98,-360.81 448.5,-321 434.19,-266.62 430.65,-199.35 429.78,-170.38"/>
<polygon fill="midnightblue" stroke="midnightblue" points="489.4,-433.46 497.04,-440.81 495.65,-430.3 489.4,-433.46"/>
</g>
<!-- Node19&#45;&gt;Node15 -->
<g id="edge28" class="edge">
<title>Node19&#45;&gt;Node15</title>
<path fill="none" stroke="midnightblue" d="M580.18,-437.98C620.15,-425.59 669.25,-410.38 707.56,-398.5"/>
<polygon fill="midnightblue" stroke="midnightblue" points="579.01,-434.68 570.5,-440.98 581.08,-441.36 579.01,-434.68"/>
</g>
<!-- Node21&#45;&gt;Node18 -->
<g id="edge32" class="edge">
<title>Node21&#45;&gt;Node18</title>
<path fill="none" stroke="midnightblue" d="M481.41,-609.15C458.27,-598.56 432.4,-586.71 410.14,-576.52"/>
<polygon fill="midnightblue" stroke="midnightblue" points="480.25,-612.47 490.8,-613.45 483.16,-606.11 480.25,-612.47"/>
</g>
<!-- Node21&#45;&gt;Node19 -->
<g id="edge33" class="edge">
<title>Node21&#45;&gt;Node19</title>
<path fill="none" stroke="midnightblue" d="M506.3,-605.86C498.64,-597.33 491.69,-587.55 487.5,-577 474.91,-545.31 487.66,-505.56 497.78,-482.2"/>
<polygon fill="midnightblue" stroke="midnightblue" points="504.02,-608.54 513.48,-613.32 509.07,-603.68 504.02,-608.54"/>
</g>
<!-- Node22 -->
<g id="node22" class="node">
<title>Node22</title>
<g id="a_node22"><a xlink:href="csv__weight__importer_8cpp.html" target="_top" xlink:title=" ">
<polygon fill="white" stroke="black" points="497,-530 497,-571 640,-571 640,-530 497,-530"/>
<text text-anchor="start" x="505" y="-559" font-family="Helvetica,sans-Serif" font-size="10.00">src/IO_Interaction</text>
<text text-anchor="start" x="505" y="-548" font-family="Helvetica,sans-Serif" font-size="10.00">/Weight_Importer_Helpers</text>
<text text-anchor="middle" x="568.5" y="-537" font-family="Helvetica,sans-Serif" font-size="10.00">/csv_weight_importer.cpp</text>
</a>
</g>
</g>
<!-- Node21&#45;&gt;Node22 -->
<g id="edge34" class="edge">
<title>Node21&#45;&gt;Node22</title>
<path fill="none" stroke="midnightblue" d="M554.75,-603.49C557.67,-592.45 560.79,-580.65 563.32,-571.08"/>
<polygon fill="midnightblue" stroke="midnightblue" points="551.32,-602.77 552.15,-613.34 558.09,-604.56 551.32,-602.77"/>
</g>
<!-- Node23&#45;&gt;Node4 -->
<g id="edge37" class="edge">
<title>Node23&#45;&gt;Node4</title>
<path fill="none" stroke="midnightblue" d="M673.82,-781.15C671.75,-748.98 668.5,-690.51 668.5,-640.5 668.5,-640.5 668.5,-640.5 668.5,-460.5 668.5,-393.77 595.54,-343.58 554.22,-320.5"/>
<polygon fill="midnightblue" stroke="midnightblue" points="670.35,-781.64 674.5,-791.38 677.33,-781.17 670.35,-781.64"/>
</g>
<!-- Node23&#45;&gt;Node5 -->
<g id="edge39" class="edge">
<title>Node23&#45;&gt;Node5</title>
<path fill="none" stroke="midnightblue" d="M700.74,-784.73C743.04,-748.06 826.64,-667.16 857.5,-577 869.09,-543.14 886.6,-460.71 854.5,-357 841.95,-316.45 811.62,-276.77 791.84,-253.88"/>
<polygon fill="midnightblue" stroke="midnightblue" points="698.43,-782.1 693.1,-791.26 702.98,-787.42 698.43,-782.1"/>
</g>
<!-- Node23&#45;&gt;Node14 -->
<g id="edge38" class="edge">
<title>Node23&#45;&gt;Node14</title>
<path fill="none" stroke="midnightblue" d="M684.42,-782.14C704.16,-730.45 751.05,-607.67 767.04,-565.79"/>
<polygon fill="midnightblue" stroke="midnightblue" points="681.15,-780.89 680.85,-791.48 687.69,-783.39 681.15,-780.89"/>
</g>
<!-- Node23&#45;&gt;Node17 -->
<g id="edge40" class="edge">
<title>Node23&#45;&gt;Node17</title>
<path fill="none" stroke="midnightblue" d="M644.84,-785.75C630.08,-776.24 612.21,-764.74 596.5,-754.62"/>
<polygon fill="midnightblue" stroke="midnightblue" points="643.28,-788.91 653.58,-791.38 647.07,-783.03 643.28,-788.91"/>
</g>
<!-- Node24&#45;&gt;Node3 -->
<g id="edge42" class="edge">
<title>Node24&#45;&gt;Node3</title>
<path fill="none" stroke="midnightblue" d="M643.76,-984.54C650.6,-975.73 658.5,-965.44 665.5,-956 682.77,-932.7 702.19,-905.12 713.61,-888.76"/>
<polygon fill="midnightblue" stroke="midnightblue" points="640.97,-982.43 637.58,-992.46 646.49,-986.73 640.97,-982.43"/>
</g>
<!-- Node25 -->
<g id="node25" class="node">
<title>Node25</title>
<g id="a_node25"><a xlink:href="wgraph_8h.html" target="_top" xlink:title=" ">
<polygon fill="white" stroke="black" points="520,-925.5 520,-955.5 657,-955.5 657,-925.5 520,-925.5"/>
<text text-anchor="start" x="528" y="-943.5" font-family="Helvetica,sans-Serif" font-size="10.00">include/network_butcher</text>
<text text-anchor="middle" x="588.5" y="-932.5" font-family="Helvetica,sans-Serif" font-size="10.00">/Network/wgraph.h</text>
</a>
</g>
</g>
<!-- Node24&#45;&gt;Node25 -->
<g id="edge43" class="edge">
<title>Node24&#45;&gt;Node25</title>
<path fill="none" stroke="midnightblue" d="M613.1,-983.58C607.64,-974.24 601.51,-963.75 596.73,-955.58"/>
<polygon fill="midnightblue" stroke="midnightblue" points="610.19,-985.53 618.25,-992.4 616.23,-982 610.19,-985.53"/>
</g>
<!-- Node25&#45;&gt;Node3 -->
<g id="edge49" class="edge">
<title>Node25&#45;&gt;Node3</title>
<path fill="none" stroke="midnightblue" d="M626.94,-920.99C648.34,-910.69 674.55,-898.07 694.26,-888.58"/>
<polygon fill="midnightblue" stroke="midnightblue" points="625.28,-917.9 617.79,-925.4 628.32,-924.21 625.28,-917.9"/>
</g>
<!-- Node26 -->
<g id="node26" class="node">
<title>Node26</title>
<g id="a_node26"><a xlink:href="computer__memory_8h.html" target="_top" xlink:title=" ">
<polygon fill="white" stroke="black" points="157,-624.5 157,-654.5 328,-654.5 328,-624.5 157,-624.5"/>
<text text-anchor="start" x="165" y="-642.5" font-family="Helvetica,sans-Serif" font-size="10.00">include/network_butcher</text>
<text text-anchor="middle" x="242.5" y="-631.5" font-family="Helvetica,sans-Serif" font-size="10.00">/Computer/computer_memory.h</text>
</a>
</g>
</g>
<!-- Node25&#45;&gt;Node26 -->
<g id="edge44" class="edge">
<title>Node25&#45;&gt;Node26</title>
<path fill="none" stroke="midnightblue" d="M527.62,-922.2C473.68,-904.35 395.48,-872 342.5,-822 289.64,-772.12 257.94,-687.95 246.92,-654.66"/>
<polygon fill="midnightblue" stroke="midnightblue" points="526.81,-925.62 537.4,-925.37 528.97,-918.96 526.81,-925.62"/>
</g>
<!-- Node26&#45;&gt;Node4 -->
<g id="edge45" class="edge">
<title>Node26&#45;&gt;Node4</title>
<path fill="none" stroke="midnightblue" d="M232.98,-614.84C218.32,-574.25 195.58,-490.36 232.5,-435 282.8,-359.58 387.97,-328.12 457.92,-315.21"/>
<polygon fill="midnightblue" stroke="midnightblue" points="229.78,-616.29 236.58,-624.41 236.33,-613.82 229.78,-616.29"/>
</g>
<!-- Node26&#45;&gt;Node8 -->
<g id="edge48" class="edge">
<title>Node26&#45;&gt;Node8</title>
<path fill="none" stroke="midnightblue" d="M225.72,-616.07C203.34,-583.86 166.5,-521.82 166.5,-462.5 166.5,-462.5 166.5,-462.5 166.5,-154 166.5,-87.17 245.23,-49.02 299.97,-30.57"/>
<polygon fill="midnightblue" stroke="midnightblue" points="222.96,-618.22 231.61,-624.34 228.66,-614.16 222.96,-618.22"/>
</g>
<!-- Node26&#45;&gt;Node14 -->
<g id="edge46" class="edge">
<title>Node26&#45;&gt;Node14</title>
<path fill="none" stroke="midnightblue" d="M338.36,-625.43C420.78,-613.84 542.73,-595.87 648.5,-577 667.76,-573.56 688.61,-569.44 707.62,-565.51"/>
<polygon fill="midnightblue" stroke="midnightblue" points="337.67,-621.99 328.26,-626.84 338.65,-628.92 337.67,-621.99"/>
</g>
<!-- Node26&#45;&gt;Node18 -->
<g id="edge47" class="edge">
<title>Node26&#45;&gt;Node18</title>
<path fill="none" stroke="midnightblue" d="M268.88,-618.19C285.02,-605.76 305.79,-589.77 322.95,-576.56"/>
<polygon fill="midnightblue" stroke="midnightblue" points="266.7,-615.45 260.91,-624.33 270.97,-621 266.7,-615.45"/>
</g>
<!-- Node27&#45;&gt;Node2 -->
<g id="edge52" class="edge">
<title>Node27&#45;&gt;Node2</title>
<path fill="none" stroke="midnightblue" d="M633.46,-1116.7C636.12,-1107.59 639.07,-1097.49 641.39,-1089.58"/>
<polygon fill="midnightblue" stroke="midnightblue" points="630.07,-1115.82 630.62,-1126.4 636.79,-1117.78 630.07,-1115.82"/>
</g>
</g>
</svg>
        <g id="navigator" transform="translate(0 0)" fill="#404254">
                <rect fill="#f2f5e9" fill-opacity="0.5" stroke="#606060" stroke-width=".5" x="0" y="0" width="60" height="60"/>
                <use id="zoomplus" xlink:href="#zoomPlus" x="17" y="9" onmousedown="handleZoom(evt,'in')"/>
                <use id="zoomminus" xlink:href="#zoomMin" x="42" y="9" onmousedown="handleZoom(evt,'out')"/>
                <use id="reset" xlink:href="#resetDef" x="30" y="36" onmousedown="handleReset()"/>
                <g id="arrowUp" xlink:href="#dirArrow" transform="translate(30 24)" onmousedown="handlePan(0,-1)">
                  <use xlink:href="#rim" fill="#404040">
                        <set attributeName="fill" to="#808080" begin="arrowUp.mouseover" end="arrowUp.mouseout"/>
                  </use>
                  <path fill="none" stroke="white" stroke-width="1.5" d="M0,-3.0v7 M-2.5,-0.5L0,-3.0L2.5,-0.5"/>
                </g>
                <g id="arrowRight" xlink:href="#dirArrow" transform="rotate(90) translate(36 -43)" onmousedown="handlePan(1,0)">
                  <use xlink:href="#rim" fill="#404040">
                        <set attributeName="fill" to="#808080" begin="arrowRight.mouseover" end="arrowRight.mouseout"/>
                  </use>
                  <path fill="none" stroke="white" stroke-width="1.5" d="M0,-3.0v7 M-2.5,-0.5L0,-3.0L2.5,-0.5"/>
                </g>
                <g id="arrowDown" xlink:href="#dirArrow" transform="rotate(180) translate(-30 -48)" onmousedown="handlePan(0,1)">
                  <use xlink:href="#rim" fill="#404040">
                        <set attributeName="fill" to="#808080" begin="arrowDown.mouseover" end="arrowDown.mouseout"/>
                  </use>
                  <path fill="none" stroke="white" stroke-width="1.5" d="M0,-3.0v7 M-2.5,-0.5L0,-3.0L2.5,-0.5"/>
                </g>
                <g id="arrowLeft" xlink:href="#dirArrow" transform="rotate(270) translate(-36 17)" onmousedown="handlePan(-1,0)">
                  <use xlink:href="#rim" fill="#404040">
                        <set attributeName="fill" to="#808080" begin="arrowLeft.mouseover" end="arrowLeft.mouseout"/>
                  </use>
                  <path fill="none" stroke="white" stroke-width="1.5" d="M0,-3.0v7 M-2.5,-0.5L0,-3.0L2.5,-0.5"/>
                </g>
        </g>
        <svg viewBox="0 0 15 15" width="100%" height="30px" preserveAspectRatio="xMaxYMin meet">
         <g id="arrow_out" transform="scale(0.3 0.3)">
          <a xlink:href="content_8h__dep__incl_org.svg" target="_base">
           <rect id="button" ry="5" rx="5" y="6" x="6" height="38" width="38"
                fill="#f2f5e9" fill-opacity="0.5" stroke="#606060" stroke-width="1.0"/>
           <path id="arrow"
             d="M 11.500037,31.436501 C 11.940474,20.09759 22.043105,11.32322 32.158766,21.979434 L 37.068811,17.246167 C 37.068811,17.246167 37.088388,32 37.088388,32 L 22.160133,31.978069 C 22.160133,31.978069 26.997745,27.140456 26.997745,27.140456 C 18.528582,18.264221 13.291696,25.230495 11.500037,31.436501 z"
             style="fill:#404040;"/>
          </a>
         </g>
        </svg>
</svg>
