<?xml version="1.0" encoding="UTF-8" standalone="no"?>
<!DOCTYPE svg PUBLIC "-//W3C//DTD SVG 1.1//EN"
 "http://www.w3.org/Graphics/SVG/1.1/DTD/svg11.dtd">
<!-- Generated by graphviz version 2.43.0 (0)
 -->
<!-- Title: include/network_butcher/Types/content.h Pages: 1 -->
<!--zoomable 1232 -->
<svg id="main" version="1.1" xmlns="http://www.w3.org/2000/svg" xmlns:xlink="http://www.w3.org/1999/xlink" xml:space="preserve" onload="init(evt)">
<style type="text/css"><![CDATA[
.edge:hover path { stroke: red; }
.edge:hover polygon { stroke: red; fill: red; }
]]></style>
<script type="text/javascript"><![CDATA[
var edges = document.getElementsByTagName('g');
if (edges && edges.length) {
  for (var i=0;i<edges.length;i++) {
    if (edges[i].id.substr(0,4)=='edge') {
      edges[i].setAttribute('class','edge');
    }
  }
}
]]></script>
        <defs>
                <circle id="rim" cx="0" cy="0" r="7"/>
                <circle id="rim2" cx="0" cy="0" r="3.5"/>
                <g id="zoomPlus">
                        <use xlink:href="#rim" fill="#404040">
                                <set attributeName="fill" to="#808080" begin="zoomplus.mouseover" end="zoomplus.mouseout"/>
                        </use>
                        <path d="M-4,0h8M0,-4v8" fill="none" stroke="white" stroke-width="1.5" pointer-events="none"/>
                </g>
                <g id="zoomMin">
                        <use xlink:href="#rim" fill="#404040">
                                <set attributeName="fill" to="#808080" begin="zoomminus.mouseover" end="zoomminus.mouseout"/>
                        </use>
                        <path d="M-4,0h8" fill="none" stroke="white" stroke-width="1.5" pointer-events="none"/>
                </g>
                <g id="dirArrow">
                        <path fill="none" stroke="white" stroke-width="1.5" d="M0,-3.0v7 M-2.5,-0.5L0,-3.0L2.5,-0.5"/>
                </g>
               <g id="resetDef">
                       <use xlink:href="#rim2" fill="#404040">
                               <set attributeName="fill" to="#808080" begin="reset.mouseover" end="reset.mouseout"/>
                       </use>
               </g>
        </defs>

<script type="text/javascript">
var viewWidth = 1025;
var viewHeight = 1232;
var sectionId = 'dynsection-1';
</script>
<script xlink:href="svgpan.js"/>
<svg id="graph" class="graph">
<g id="viewport">
<title>include/network_butcher/Types/content.h</title>
<polygon fill="white" stroke="transparent" points="-4,4 -4,-1228 1021,-1228 1021,4 -4,4"/>
<!-- Node1 -->
<g id="node1" class="node">
<title>Node1</title>
<g id="a_node1"><a xlink:title=" ">
<polygon fill="#bfbfbf" stroke="black" points="485.5,-1193.5 485.5,-1223.5 622.5,-1223.5 622.5,-1193.5 485.5,-1193.5"/>
<text text-anchor="start" x="493.5" y="-1211.5" font-family="Helvetica,sans-Serif" font-size="10.00">include/network_butcher</text>
<text text-anchor="middle" x="554" y="-1200.5" font-family="Helvetica,sans-Serif" font-size="10.00">/Types/content.h</text>
</a>
</g>
</g>
<!-- Node2 -->
<g id="node2" class="node">
<title>Node2</title>
<g id="a_node2"><a xlink:href="graph__traits_8h.html" target="_top" xlink:title=" ">
<polygon fill="white" stroke="black" points="544.5,-858.5 544.5,-888.5 681.5,-888.5 681.5,-858.5 544.5,-858.5"/>
<text text-anchor="start" x="552.5" y="-876.5" font-family="Helvetica,sans-Serif" font-size="10.00">include/network_butcher</text>
<text text-anchor="middle" x="613" y="-865.5" font-family="Helvetica,sans-Serif" font-size="10.00">/Network/graph_traits.h</text>
</a>
</g>
</g>
<!-- Node1&#45;&gt;Node2 -->
<g id="edge1" class="edge">
<title>Node1&#45;&gt;Node2</title>
<path fill="none" stroke="midnightblue" d="M595.33,-1188.23C608.47,-1180.26 621.93,-1169.83 631,-1157 652.53,-1126.55 651,-1112.8 651,-1075.5 651,-1075.5 651,-1075.5 651,-1006.5 651,-962.14 630.94,-912.56 619.97,-888.76"/>
<polygon fill="midnightblue" stroke="midnightblue" points="593.29,-1185.36 586.34,-1193.36 596.76,-1191.44 593.29,-1185.36"/>
</g>
<!-- Node23 -->
<g id="node23" class="node">
<title>Node23</title>
<g id="a_node23"><a xlink:href="graph_8h.html" target="_top" xlink:title=" ">
<polygon fill="white" stroke="black" points="466.5,-1059.5 466.5,-1089.5 603.5,-1089.5 603.5,-1059.5 466.5,-1059.5"/>
<text text-anchor="start" x="474.5" y="-1077.5" font-family="Helvetica,sans-Serif" font-size="10.00">include/network_butcher</text>
<text text-anchor="middle" x="535" y="-1066.5" font-family="Helvetica,sans-Serif" font-size="10.00">/Network/graph.h</text>
</a>
</g>
</g>
<!-- Node1&#45;&gt;Node23 -->
<g id="edge40" class="edge">
<title>Node1&#45;&gt;Node23</title>
<path fill="none" stroke="midnightblue" d="M508.63,-1188.49C495.75,-1180.72 483.26,-1170.36 476,-1157 469.42,-1144.9 470.24,-1138.52 476,-1126 483.05,-1110.69 497.28,-1098.29 510,-1089.61"/>
<polygon fill="midnightblue" stroke="midnightblue" points="507.11,-1191.65 517.55,-1193.46 510.52,-1185.54 507.11,-1191.65"/>
</g>
<!-- Node27 -->
<g id="node27" class="node">
<title>Node27</title>
<g id="a_node27"><a xlink:href="node__traits_8h.html" target="_top" xlink:title=" ">
<polygon fill="white" stroke="black" points="485.5,-1126.5 485.5,-1156.5 622.5,-1156.5 622.5,-1126.5 485.5,-1126.5"/>
<text text-anchor="start" x="493.5" y="-1144.5" font-family="Helvetica,sans-Serif" font-size="10.00">include/network_butcher</text>
<text text-anchor="middle" x="554" y="-1133.5" font-family="Helvetica,sans-Serif" font-size="10.00">/Network/node_traits.h</text>
</a>
</g>
</g>
<!-- Node1&#45;&gt;Node27 -->
<g id="edge51" class="edge">
<title>Node1&#45;&gt;Node27</title>
<path fill="none" stroke="midnightblue" d="M554,-1183.11C554,-1174.15 554,-1164.32 554,-1156.58"/>
<polygon fill="midnightblue" stroke="midnightblue" points="550.5,-1183.4 554,-1193.4 557.5,-1183.4 550.5,-1183.4"/>
</g>
<!-- Node3 -->
<g id="node3" class="node">
<title>Node3</title>
<g id="a_node3"><a xlink:href="butcher_8h.html" target="_top" xlink:title=" ">
<polygon fill="white" stroke="black" points="489.5,-290.5 489.5,-320.5 626.5,-320.5 626.5,-290.5 489.5,-290.5"/>
<text text-anchor="start" x="497.5" y="-308.5" font-family="Helvetica,sans-Serif" font-size="10.00">include/network_butcher</text>
<text text-anchor="middle" x="558" y="-297.5" font-family="Helvetica,sans-Serif" font-size="10.00">/Butcher/butcher.h</text>
</a>
</g>
</g>
<!-- Node2&#45;&gt;Node3 -->
<g id="edge2" class="edge">
<title>Node2&#45;&gt;Node3</title>
<path fill="none" stroke="midnightblue" d="M549.6,-855.51C522,-847.05 489.7,-835.68 462,-822 330.93,-757.25 324.16,-701.76 208,-613 184.19,-594.81 165.46,-603.24 151,-577 137.18,-551.92 161.28,-438.23 164,-435 245.26,-338.58 399.9,-313.96 489.38,-308.01"/>
<polygon fill="midnightblue" stroke="midnightblue" points="548.95,-858.97 559.54,-858.49 550.96,-852.26 548.95,-858.97"/>
</g>
<!-- Node4 -->
<g id="node4" class="node">
<title>Node4</title>
<g id="a_node4"><a xlink:href="onnx__importer__helpers_8h.html" target="_top" xlink:title=" ">
<polygon fill="white" stroke="black" points="668,-212.5 668,-253.5 830,-253.5 830,-212.5 668,-212.5"/>
<text text-anchor="start" x="676" y="-241.5" font-family="Helvetica,sans-Serif" font-size="10.00">include/network_butcher</text>
<text text-anchor="start" x="676" y="-230.5" font-family="Helvetica,sans-Serif" font-size="10.00">/IO_Interaction/onnx_importer</text>
<text text-anchor="middle" x="749" y="-219.5" font-family="Helvetica,sans-Serif" font-size="10.00">_helpers.h</text>
</a>
</g>
</g>
<!-- Node2&#45;&gt;Node4 -->
<g id="edge21" class="edge">
<title>Node2&#45;&gt;Node4</title>
<path fill="none" stroke="midnightblue" d="M691.7,-858.19C799.26,-836.35 979,-790.69 979,-729.5 979,-729.5 979,-729.5 979,-377 979,-304.83 896.31,-267.79 830.09,-249.71"/>
<polygon fill="midnightblue" stroke="midnightblue" points="690.96,-854.77 681.84,-860.16 692.33,-861.63 690.96,-854.77"/>
</g>
<!-- Node7 -->
<g id="node7" class="node">
<title>Node7</title>
<g id="a_node7"><a xlink:href="network__butcher_8h.html" target="_top" xlink:title=" ">
<polygon fill="white" stroke="black" points="377.5,-0.5 377.5,-30.5 514.5,-30.5 514.5,-0.5 377.5,-0.5"/>
<text text-anchor="start" x="385.5" y="-18.5" font-family="Helvetica,sans-Serif" font-size="10.00">include/network_butcher</text>
<text text-anchor="middle" x="446" y="-7.5" font-family="Helvetica,sans-Serif" font-size="10.00">/network_butcher.h</text>
</a>
</g>
</g>
<!-- Node2&#45;&gt;Node7 -->
<g id="edge34" class="edge">
<title>Node2&#45;&gt;Node7</title>
<path fill="none" stroke="midnightblue" d="M691.56,-866.91C748.17,-860.8 825.47,-848.14 889,-822 953.91,-795.29 1017,-799.69 1017,-729.5 1017,-729.5 1017,-729.5 1017,-154 1017,-51.72 666.31,-25.3 514.59,-18.66"/>
<polygon fill="midnightblue" stroke="midnightblue" points="691.18,-863.43 681.59,-867.94 691.9,-870.39 691.18,-863.43"/>
</g>
<!-- Node11 -->
<g id="node11" class="node">
<title>Node11</title>
<g id="a_node11"><a xlink:href="onnx__model__reconstructor__helpers_8h.html" target="_top" xlink:title=" ">
<polygon fill="white" stroke="black" points="215.5,-212.5 215.5,-253.5 366.5,-253.5 366.5,-212.5 215.5,-212.5"/>
<text text-anchor="start" x="223.5" y="-241.5" font-family="Helvetica,sans-Serif" font-size="10.00">include/network_butcher</text>
<text text-anchor="start" x="223.5" y="-230.5" font-family="Helvetica,sans-Serif" font-size="10.00">/IO_Interaction/onnx_model</text>
<text text-anchor="middle" x="291" y="-219.5" font-family="Helvetica,sans-Serif" font-size="10.00">_reconstructor_helpers.h</text>
</a>
</g>
</g>
<!-- Node2&#45;&gt;Node11 -->
<g id="edge22" class="edge">
<title>Node2&#45;&gt;Node11</title>
<path fill="none" stroke="midnightblue" d="M534.35,-870.52C368.9,-864.22 0,-838.01 0,-729.5 0,-729.5 0,-729.5 0,-377 0,-281.02 129.08,-249.46 215.3,-239.08"/>
<polygon fill="midnightblue" stroke="midnightblue" points="534.34,-874.02 544.47,-870.89 534.6,-867.03 534.34,-874.02"/>
</g>
<!-- Node13 -->
<g id="node13" class="node">
<title>Node13</title>
<g id="a_node13"><a xlink:href="graph__constraint_8h.html" target="_top" xlink:title=" ">
<polygon fill="white" stroke="black" points="586.5,-535.5 586.5,-565.5 737.5,-565.5 737.5,-535.5 586.5,-535.5"/>
<text text-anchor="start" x="594.5" y="-553.5" font-family="Helvetica,sans-Serif" font-size="10.00">include/network_butcher</text>
<text text-anchor="middle" x="662" y="-542.5" font-family="Helvetica,sans-Serif" font-size="10.00">/Butcher/graph_constraint.h</text>
</a>
</g>
</g>
<!-- Node2&#45;&gt;Node13 -->
<g id="edge15" class="edge">
<title>Node2&#45;&gt;Node13</title>
<path fill="none" stroke="midnightblue" d="M628.9,-849.83C633.98,-841.46 639.04,-831.65 642,-822 670.92,-727.68 665.9,-606.58 663.12,-565.7"/>
<polygon fill="midnightblue" stroke="midnightblue" points="625.94,-847.97 623.49,-858.28 631.83,-851.75 625.94,-847.97"/>
</g>
<!-- Node14 -->
<g id="node14" class="node">
<title>Node14</title>
<g id="a_node14"><a xlink:href="constrained__block__graph__builder_8h.html" target="_top" xlink:title=" ">
<polygon fill="white" stroke="black" points="586.5,-357.5 586.5,-398.5 735.5,-398.5 735.5,-357.5 586.5,-357.5"/>
<text text-anchor="start" x="594.5" y="-386.5" font-family="Helvetica,sans-Serif" font-size="10.00">include/network_butcher</text>
<text text-anchor="start" x="594.5" y="-375.5" font-family="Helvetica,sans-Serif" font-size="10.00">/Butcher/constrained_block</text>
<text text-anchor="middle" x="661" y="-364.5" font-family="Helvetica,sans-Serif" font-size="10.00">_graph_builder.h</text>
</a>
</g>
</g>
<!-- Node2&#45;&gt;Node14 -->
<g id="edge18" class="edge">
<title>Node2&#45;&gt;Node14</title>
<path fill="none" stroke="midnightblue" d="M636.56,-851.16C644.84,-842.71 653.65,-832.52 660,-822 719.68,-723.23 726.61,-690.76 746,-577 749.96,-553.78 752.17,-546.73 746,-524 732.62,-474.72 697.81,-425.06 677.13,-398.56"/>
<polygon fill="midnightblue" stroke="midnightblue" points="633.88,-848.88 629.19,-858.38 638.78,-853.88 633.88,-848.88"/>
</g>
<!-- Node15 -->
<g id="node15" class="node">
<title>Node15</title>
<g id="a_node15"><a xlink:href="path__converter_8h.html" target="_top" xlink:title=" ">
<polygon fill="white" stroke="black" points="809,-713.5 809,-743.5 951,-743.5 951,-713.5 809,-713.5"/>
<text text-anchor="start" x="817" y="-731.5" font-family="Helvetica,sans-Serif" font-size="10.00">include/network_butcher</text>
<text text-anchor="middle" x="880" y="-720.5" font-family="Helvetica,sans-Serif" font-size="10.00">/Butcher/path_converter.h</text>
</a>
</g>
</g>
<!-- Node2&#45;&gt;Node15 -->
<g id="edge19" class="edge">
<title>Node2&#45;&gt;Node15</title>
<path fill="none" stroke="midnightblue" d="M675.04,-855.36C701.13,-846.99 731.31,-835.74 757,-822 798.94,-799.57 842.02,-763.61 864.38,-743.78"/>
<polygon fill="midnightblue" stroke="midnightblue" points="673.76,-852.09 665.27,-858.42 675.86,-858.77 673.76,-852.09"/>
</g>
<!-- Node16 -->
<g id="node16" class="node">
<title>Node16</title>
<g id="a_node16"><a xlink:href="weight__importer_8h.html" target="_top" xlink:title=" ">
<polygon fill="white" stroke="black" points="372.5,-702.5 372.5,-754.5 515.5,-754.5 515.5,-702.5 372.5,-702.5"/>
<text text-anchor="start" x="380.5" y="-742.5" font-family="Helvetica,sans-Serif" font-size="10.00">include/network_butcher</text>
<text text-anchor="start" x="380.5" y="-731.5" font-family="Helvetica,sans-Serif" font-size="10.00">/IO_Interaction/Weight</text>
<text text-anchor="start" x="380.5" y="-720.5" font-family="Helvetica,sans-Serif" font-size="10.00">_Importer_Helpers/weight</text>
<text text-anchor="middle" x="444" y="-709.5" font-family="Helvetica,sans-Serif" font-size="10.00">_importer.h</text>
</a>
</g>
</g>
<!-- Node2&#45;&gt;Node16 -->
<g id="edge23" class="edge">
<title>Node2&#45;&gt;Node16</title>
<path fill="none" stroke="midnightblue" d="M542.63,-854.9C522.84,-847.32 502.51,-836.7 487,-822 467.72,-803.73 456.27,-775.11 450.09,-754.55"/>
<polygon fill="midnightblue" stroke="midnightblue" points="541.68,-858.28 552.27,-858.39 544.06,-851.7 541.68,-858.28"/>
</g>
<!-- Node22 -->
<g id="node22" class="node">
<title>Node22</title>
<g id="a_node22"><a xlink:href="parameters_8h.html" target="_top" xlink:title=" ">
<polygon fill="white" stroke="black" points="496.5,-791.5 496.5,-821.5 633.5,-821.5 633.5,-791.5 496.5,-791.5"/>
<text text-anchor="start" x="504.5" y="-809.5" font-family="Helvetica,sans-Serif" font-size="10.00">include/network_butcher</text>
<text text-anchor="middle" x="565" y="-798.5" font-family="Helvetica,sans-Serif" font-size="10.00">/Types/parameters.h</text>
</a>
</g>
</g>
<!-- Node2&#45;&gt;Node22 -->
<g id="edge35" class="edge">
<title>Node2&#45;&gt;Node22</title>
<path fill="none" stroke="midnightblue" d="M596.5,-850.16C589.5,-840.68 581.56,-829.92 575.39,-821.58"/>
<polygon fill="midnightblue" stroke="midnightblue" points="593.83,-852.43 602.58,-858.4 599.46,-848.27 593.83,-852.43"/>
</g>
<!-- Node3&#45;&gt;Node4 -->
<g id="edge3" class="edge">
<title>Node3&#45;&gt;Node4</title>
<path fill="none" stroke="midnightblue" d="M605.59,-286.93C633.08,-276.79 667.7,-264.01 696.04,-253.55"/>
<polygon fill="midnightblue" stroke="midnightblue" points="604.36,-283.66 596.19,-290.4 606.79,-290.22 604.36,-283.66"/>
</g>
<!-- Node3&#45;&gt;Node7 -->
<g id="edge14" class="edge">
<title>Node3&#45;&gt;Node7</title>
<path fill="none" stroke="midnightblue" d="M566.94,-280.8C582.53,-235.12 609.04,-133.54 565,-67 553.36,-49.41 534.22,-37.93 514.66,-30.44"/>
<polygon fill="midnightblue" stroke="midnightblue" points="563.58,-279.82 563.54,-290.41 570.18,-282.15 563.58,-279.82"/>
</g>
<!-- Node3&#45;&gt;Node11 -->
<g id="edge11" class="edge">
<title>Node3&#45;&gt;Node11</title>
<path fill="none" stroke="midnightblue" d="M494.77,-287.8C455.83,-277.52 405.72,-264.29 364.95,-253.53"/>
<polygon fill="midnightblue" stroke="midnightblue" points="494.37,-291.32 504.93,-290.49 496.16,-284.55 494.37,-291.32"/>
</g>
<!-- Node5 -->
<g id="node5" class="node">
<title>Node5</title>
<g id="a_node5"><a xlink:href="io__manager_8h.html" target="_top" xlink:title=" ">
<polygon fill="white" stroke="black" points="354.5,-140 354.5,-170 491.5,-170 491.5,-140 354.5,-140"/>
<text text-anchor="start" x="362.5" y="-158" font-family="Helvetica,sans-Serif" font-size="10.00">include/network_butcher</text>
<text text-anchor="middle" x="423" y="-147" font-family="Helvetica,sans-Serif" font-size="10.00">/io_manager.h</text>
</a>
</g>
</g>
<!-- Node4&#45;&gt;Node5 -->
<g id="edge4" class="edge">
<title>Node4&#45;&gt;Node5</title>
<path fill="none" stroke="midnightblue" d="M658.09,-210.81C602.18,-197.77 532.1,-181.44 483.07,-170"/>
<polygon fill="midnightblue" stroke="midnightblue" points="657.46,-214.25 668,-213.12 659.05,-207.44 657.46,-214.25"/>
</g>
<!-- Node10 -->
<g id="node10" class="node">
<title>Node10</title>
<g id="a_node10"><a xlink:href="onnx__importer__helpers_8cpp.html" target="_top" xlink:title=" ">
<polygon fill="white" stroke="black" points="673,-140 673,-170 825,-170 825,-140 673,-140"/>
<text text-anchor="start" x="681" y="-158" font-family="Helvetica,sans-Serif" font-size="10.00">src/IO_Interaction</text>
<text text-anchor="middle" x="749" y="-147" font-family="Helvetica,sans-Serif" font-size="10.00">/onnx_importer_helpers.cpp</text>
</a>
</g>
</g>
<!-- Node4&#45;&gt;Node10 -->
<g id="edge10" class="edge">
<title>Node4&#45;&gt;Node10</title>
<path fill="none" stroke="midnightblue" d="M749,-202.28C749,-191.25 749,-179.25 749,-170.23"/>
<polygon fill="midnightblue" stroke="midnightblue" points="745.5,-202.43 749,-212.43 752.5,-202.43 745.5,-202.43"/>
</g>
<!-- Node6 -->
<g id="node6" class="node">
<title>Node6</title>
<g id="a_node6"><a xlink:href="general__manager_8h.html" target="_top" xlink:title=" ">
<polygon fill="white" stroke="black" points="251.5,-67.5 251.5,-97.5 388.5,-97.5 388.5,-67.5 251.5,-67.5"/>
<text text-anchor="start" x="259.5" y="-85.5" font-family="Helvetica,sans-Serif" font-size="10.00">include/network_butcher</text>
<text text-anchor="middle" x="320" y="-74.5" font-family="Helvetica,sans-Serif" font-size="10.00">/general_manager.h</text>
</a>
</g>
</g>
<!-- Node5&#45;&gt;Node6 -->
<g id="edge5" class="edge">
<title>Node5&#45;&gt;Node6</title>
<path fill="none" stroke="midnightblue" d="M393.68,-133.93C376.68,-122.29 355.68,-107.92 340.46,-97.5"/>
<polygon fill="midnightblue" stroke="midnightblue" points="391.93,-136.97 402.16,-139.73 395.88,-131.2 391.93,-136.97"/>
</g>
<!-- Node5&#45;&gt;Node7 -->
<g id="edge8" class="edge">
<title>Node5&#45;&gt;Node7</title>
<path fill="none" stroke="midnightblue" d="M426.29,-129.87C428.76,-112.38 432.32,-88.18 436,-67 438.14,-54.67 440.93,-40.72 443.02,-30.62"/>
<polygon fill="midnightblue" stroke="midnightblue" points="422.82,-129.42 424.91,-139.8 429.76,-130.38 422.82,-129.42"/>
</g>
<!-- Node9 -->
<g id="node9" class="node">
<title>Node9</title>
<g id="a_node9"><a xlink:href="io__manager_8cpp.html" target="_top" xlink:title=" ">
<polygon fill="white" stroke="black" points="445.5,-73 445.5,-92 556.5,-92 556.5,-73 445.5,-73"/>
<text text-anchor="middle" x="501" y="-80" font-family="Helvetica,sans-Serif" font-size="10.00">src/io_manager.cpp</text>
</a>
</g>
</g>
<!-- Node5&#45;&gt;Node9 -->
<g id="edge9" class="edge">
<title>Node5&#45;&gt;Node9</title>
<path fill="none" stroke="midnightblue" d="M446.22,-133.01C461.21,-119.46 479.94,-102.53 491.16,-92.39"/>
<polygon fill="midnightblue" stroke="midnightblue" points="443.86,-130.43 438.78,-139.73 448.55,-135.62 443.86,-130.43"/>
</g>
<!-- Node6&#45;&gt;Node7 -->
<g id="edge6" class="edge">
<title>Node6&#45;&gt;Node7</title>
<path fill="none" stroke="midnightblue" d="M356.42,-62.71C376.29,-52.46 400.48,-39.98 418.71,-30.58"/>
<polygon fill="midnightblue" stroke="midnightblue" points="354.62,-59.7 347.34,-67.4 357.83,-65.92 354.62,-59.7"/>
</g>
<!-- Node8 -->
<g id="node8" class="node">
<title>Node8</title>
<g id="a_node8"><a xlink:href="general__manager_8cpp.html" target="_top" xlink:title=" ">
<polygon fill="white" stroke="black" points="220.5,-6 220.5,-25 359.5,-25 359.5,-6 220.5,-6"/>
<text text-anchor="middle" x="290" y="-13" font-family="Helvetica,sans-Serif" font-size="10.00">src/general_manager.cpp</text>
</a>
</g>
</g>
<!-- Node6&#45;&gt;Node8 -->
<g id="edge7" class="edge">
<title>Node6&#45;&gt;Node8</title>
<path fill="none" stroke="midnightblue" d="M309.29,-58.29C303.99,-46.8 297.91,-33.63 294.01,-25.19"/>
<polygon fill="midnightblue" stroke="midnightblue" points="306.12,-59.78 313.49,-67.4 312.48,-56.85 306.12,-59.78"/>
</g>
<!-- Node11&#45;&gt;Node5 -->
<g id="edge12" class="edge">
<title>Node11&#45;&gt;Node5</title>
<path fill="none" stroke="midnightblue" d="M333.87,-207.31C355.2,-195.04 380.2,-180.64 398.29,-170.23"/>
<polygon fill="midnightblue" stroke="midnightblue" points="331.91,-204.41 324.99,-212.43 335.41,-210.47 331.91,-204.41"/>
</g>
<!-- Node12 -->
<g id="node12" class="node">
<title>Node12</title>
<g id="a_node12"><a xlink:href="onnx__model__reconstructor__helpers_8cpp.html" target="_top" xlink:title=" ">
<polygon fill="white" stroke="black" points="187.5,-134.5 187.5,-175.5 336.5,-175.5 336.5,-134.5 187.5,-134.5"/>
<text text-anchor="start" x="195.5" y="-163.5" font-family="Helvetica,sans-Serif" font-size="10.00">src/IO_Interaction</text>
<text text-anchor="start" x="195.5" y="-152.5" font-family="Helvetica,sans-Serif" font-size="10.00">/onnx_model_reconstructor</text>
<text text-anchor="middle" x="262" y="-141.5" font-family="Helvetica,sans-Serif" font-size="10.00">_helpers.cpp</text>
</a>
</g>
</g>
<!-- Node11&#45;&gt;Node12 -->
<g id="edge13" class="edge">
<title>Node11&#45;&gt;Node12</title>
<path fill="none" stroke="midnightblue" d="M279.89,-202.88C276.39,-193.72 272.62,-183.83 269.44,-175.51"/>
<polygon fill="midnightblue" stroke="midnightblue" points="276.7,-204.33 283.53,-212.43 283.24,-201.84 276.7,-204.33"/>
</g>
<!-- Node13&#45;&gt;Node14 -->
<g id="edge16" class="edge">
<title>Node13&#45;&gt;Node14</title>
<path fill="none" stroke="midnightblue" d="M661.86,-525.25C661.66,-491.26 661.3,-430.11 661.12,-398.74"/>
<polygon fill="midnightblue" stroke="midnightblue" points="658.36,-525.28 661.92,-535.26 665.36,-525.24 658.36,-525.28"/>
</g>
<!-- Node14&#45;&gt;Node3 -->
<g id="edge17" class="edge">
<title>Node14&#45;&gt;Node3</title>
<path fill="none" stroke="midnightblue" d="M623.64,-351.43C608.49,-341.06 591.57,-329.48 578.7,-320.67"/>
<polygon fill="midnightblue" stroke="midnightblue" points="622.08,-354.6 632.31,-357.36 626.03,-348.83 622.08,-354.6"/>
</g>
<!-- Node15&#45;&gt;Node3 -->
<g id="edge20" class="edge">
<title>Node15&#45;&gt;Node3</title>
<path fill="none" stroke="midnightblue" d="M878.18,-703.03C875.82,-669.04 872,-605.64 872,-551.5 872,-551.5 872,-551.5 872,-460.5 872,-351.97 718.91,-319.92 626.52,-310.46"/>
<polygon fill="midnightblue" stroke="midnightblue" points="874.72,-703.64 878.92,-713.37 881.7,-703.14 874.72,-703.64"/>
</g>
<!-- Node17 -->
<g id="node17" class="node">
<title>Node17</title>
<g id="a_node17"><a xlink:href="block__aMLLibrary__weight__importer_8h.html" target="_top" xlink:title=" ">
<polygon fill="white" stroke="black" points="160,-524.5 160,-576.5 330,-576.5 330,-524.5 160,-524.5"/>
<text text-anchor="start" x="168" y="-564.5" font-family="Helvetica,sans-Serif" font-size="10.00">include/network_butcher</text>
<text text-anchor="start" x="168" y="-553.5" font-family="Helvetica,sans-Serif" font-size="10.00">/IO_Interaction/Weight</text>
<text text-anchor="start" x="168" y="-542.5" font-family="Helvetica,sans-Serif" font-size="10.00">_Importer_Helpers/block</text>
<text text-anchor="middle" x="245" y="-531.5" font-family="Helvetica,sans-Serif" font-size="10.00">_aMLLibrary_weight_importer.h</text>
</a>
</g>
</g>
<!-- Node16&#45;&gt;Node17 -->
<g id="edge24" class="edge">
<title>Node16&#45;&gt;Node17</title>
<path fill="none" stroke="midnightblue" d="M384.01,-697.26C368.6,-688.21 352.57,-677.58 339,-666 307.9,-639.45 279.17,-601.71 261.86,-576.92"/>
<polygon fill="midnightblue" stroke="midnightblue" points="382.57,-700.47 392.98,-702.4 386.04,-694.39 382.57,-700.47"/>
</g>
<!-- Node20 -->
<g id="node20" class="node">
<title>Node20</title>
<g id="a_node20"><a xlink:href="csv__weight__importer_8h.html" target="_top" xlink:title=" ">
<polygon fill="white" stroke="black" points="348,-613.5 348,-665.5 512,-665.5 512,-613.5 348,-613.5"/>
<text text-anchor="start" x="356" y="-653.5" font-family="Helvetica,sans-Serif" font-size="10.00">include/network_butcher</text>
<text text-anchor="start" x="356" y="-642.5" font-family="Helvetica,sans-Serif" font-size="10.00">/IO_Interaction/Weight</text>
<text text-anchor="start" x="356" y="-631.5" font-family="Helvetica,sans-Serif" font-size="10.00">_Importer_Helpers/csv_weight</text>
<text text-anchor="middle" x="430" y="-620.5" font-family="Helvetica,sans-Serif" font-size="10.00">_importer.h</text>
</a>
</g>
</g>
<!-- Node16&#45;&gt;Node20 -->
<g id="edge30" class="edge">
<title>Node16&#45;&gt;Node20</title>
<path fill="none" stroke="midnightblue" d="M438.32,-692.19C436.88,-683.28 435.37,-673.9 434.04,-665.61"/>
<polygon fill="midnightblue" stroke="midnightblue" points="434.91,-693.02 439.95,-702.34 441.82,-691.91 434.91,-693.02"/>
</g>
<!-- Node18 -->
<g id="node18" class="node">
<title>Node18</title>
<g id="a_node18"><a xlink:href="weight__importers_8h.html" target="_top" xlink:title=" ">
<polygon fill="white" stroke="black" points="354.5,-441 354.5,-482 491.5,-482 491.5,-441 354.5,-441"/>
<text text-anchor="start" x="362.5" y="-470" font-family="Helvetica,sans-Serif" font-size="10.00">include/network_butcher</text>
<text text-anchor="start" x="362.5" y="-459" font-family="Helvetica,sans-Serif" font-size="10.00">/IO_Interaction/weight</text>
<text text-anchor="middle" x="423" y="-448" font-family="Helvetica,sans-Serif" font-size="10.00">_importers.h</text>
</a>
</g>
</g>
<!-- Node17&#45;&gt;Node18 -->
<g id="edge25" class="edge">
<title>Node17&#45;&gt;Node18</title>
<path fill="none" stroke="midnightblue" d="M305.71,-519.83C331.21,-507.36 360.17,-493.21 382.94,-482.08"/>
<polygon fill="midnightblue" stroke="midnightblue" points="303.93,-516.8 296.48,-524.34 307.01,-523.09 303.93,-516.8"/>
</g>
<!-- Node19 -->
<g id="node19" class="node">
<title>Node19</title>
<g id="a_node19"><a xlink:href="block__aMLLibrary__weight__importer_8cpp.html" target="_top" xlink:title=" ">
<polygon fill="white" stroke="black" points="173.5,-435.5 173.5,-487.5 316.5,-487.5 316.5,-435.5 173.5,-435.5"/>
<text text-anchor="start" x="181.5" y="-475.5" font-family="Helvetica,sans-Serif" font-size="10.00">src/IO_Interaction</text>
<text text-anchor="start" x="181.5" y="-464.5" font-family="Helvetica,sans-Serif" font-size="10.00">/Weight_Importer_Helpers</text>
<text text-anchor="start" x="181.5" y="-453.5" font-family="Helvetica,sans-Serif" font-size="10.00">/block_aMLLibrary_weight</text>
<text text-anchor="middle" x="245" y="-442.5" font-family="Helvetica,sans-Serif" font-size="10.00">_importer.cpp</text>
</a>
</g>
</g>
<!-- Node17&#45;&gt;Node19 -->
<g id="edge29" class="edge">
<title>Node17&#45;&gt;Node19</title>
<path fill="none" stroke="midnightblue" d="M245,-514.19C245,-505.28 245,-495.9 245,-487.61"/>
<polygon fill="midnightblue" stroke="midnightblue" points="241.5,-514.34 245,-524.34 248.5,-514.34 241.5,-514.34"/>
</g>
<!-- Node18&#45;&gt;Node3 -->
<g id="edge26" class="edge">
<title>Node18&#45;&gt;Node3</title>
<path fill="none" stroke="midnightblue" d="M447,-433.12C475.81,-400.26 523.04,-346.38 545.45,-320.82"/>
<polygon fill="midnightblue" stroke="midnightblue" points="444.06,-431.17 440.1,-441 449.32,-435.78 444.06,-431.17"/>
</g>
<!-- Node18&#45;&gt;Node5 -->
<g id="edge28" class="edge">
<title>Node18&#45;&gt;Node5</title>
<path fill="none" stroke="midnightblue" d="M423,-430.73C423,-366.5 423,-216.92 423,-170.2"/>
<polygon fill="midnightblue" stroke="midnightblue" points="419.5,-430.99 423,-440.99 426.5,-430.99 419.5,-430.99"/>
</g>
<!-- Node18&#45;&gt;Node14 -->
<g id="edge27" class="edge">
<title>Node18&#45;&gt;Node14</title>
<path fill="none" stroke="midnightblue" d="M489.92,-437.58C525.88,-425.27 569.74,-410.25 604.05,-398.5"/>
<polygon fill="midnightblue" stroke="midnightblue" points="488.33,-434.43 480.01,-440.98 490.6,-441.05 488.33,-434.43"/>
</g>
<!-- Node20&#45;&gt;Node17 -->
<g id="edge31" class="edge">
<title>Node20&#45;&gt;Node17</title>
<path fill="none" stroke="midnightblue" d="M367.39,-609.06C344.98,-598.52 319.95,-586.75 298.39,-576.61"/>
<polygon fill="midnightblue" stroke="midnightblue" points="365.95,-612.25 376.49,-613.34 368.93,-605.91 365.95,-612.25"/>
</g>
<!-- Node20&#45;&gt;Node18 -->
<g id="edge32" class="edge">
<title>Node20&#45;&gt;Node18</title>
<path fill="none" stroke="midnightblue" d="M394.55,-605.88C387.39,-597.26 380.87,-587.42 377,-577 368.8,-554.92 369.57,-546.35 377,-524 382.22,-508.31 393.17,-493.39 403.08,-482.18"/>
<polygon fill="midnightblue" stroke="midnightblue" points="392,-608.28 401.25,-613.44 397.24,-603.63 392,-608.28"/>
</g>
<!-- Node21 -->
<g id="node21" class="node">
<title>Node21</title>
<g id="a_node21"><a xlink:href="csv__weight__importer_8cpp.html" target="_top" xlink:title=" ">
<polygon fill="white" stroke="black" points="386.5,-530 386.5,-571 529.5,-571 529.5,-530 386.5,-530"/>
<text text-anchor="start" x="394.5" y="-559" font-family="Helvetica,sans-Serif" font-size="10.00">src/IO_Interaction</text>
<text text-anchor="start" x="394.5" y="-548" font-family="Helvetica,sans-Serif" font-size="10.00">/Weight_Importer_Helpers</text>
<text text-anchor="middle" x="458" y="-537" font-family="Helvetica,sans-Serif" font-size="10.00">/csv_weight_importer.cpp</text>
</a>
</g>
</g>
<!-- Node20&#45;&gt;Node21 -->
<g id="edge33" class="edge">
<title>Node20&#45;&gt;Node21</title>
<path fill="none" stroke="midnightblue" d="M441.27,-603.49C444.82,-592.45 448.62,-580.65 451.7,-571.08"/>
<polygon fill="midnightblue" stroke="midnightblue" points="437.83,-602.74 438.1,-613.34 444.49,-604.89 437.83,-602.74"/>
</g>
<!-- Node22&#45;&gt;Node3 -->
<g id="edge36" class="edge">
<title>Node22&#45;&gt;Node3</title>
<path fill="none" stroke="midnightblue" d="M563.32,-781.15C561.25,-748.98 558,-690.51 558,-640.5 558,-640.5 558,-640.5 558,-460.5 558,-408.9 558,-347.57 558,-320.51"/>
<polygon fill="midnightblue" stroke="midnightblue" points="559.85,-781.64 564,-791.38 566.83,-781.17 559.85,-781.64"/>
</g>
<!-- Node22&#45;&gt;Node4 -->
<g id="edge38" class="edge">
<title>Node22&#45;&gt;Node4</title>
<path fill="none" stroke="midnightblue" d="M593.31,-785.04C656.6,-736.69 804,-608.42 804,-462.5 804,-462.5 804,-462.5 804,-377 804,-330.45 778.3,-280.72 762.03,-253.91"/>
<polygon fill="midnightblue" stroke="midnightblue" points="590.85,-782.51 584.97,-791.32 595.06,-788.11 590.85,-782.51"/>
</g>
<!-- Node22&#45;&gt;Node13 -->
<g id="edge37" class="edge">
<title>Node22&#45;&gt;Node13</title>
<path fill="none" stroke="midnightblue" d="M573.92,-782.14C593.66,-730.45 640.55,-607.67 656.54,-565.79"/>
<polygon fill="midnightblue" stroke="midnightblue" points="570.65,-780.89 570.35,-791.48 577.19,-783.39 570.65,-780.89"/>
</g>
<!-- Node22&#45;&gt;Node16 -->
<g id="edge39" class="edge">
<title>Node22&#45;&gt;Node16</title>
<path fill="none" stroke="midnightblue" d="M533.99,-786.02C518.77,-776.46 500.26,-764.83 483.99,-754.62"/>
<polygon fill="midnightblue" stroke="midnightblue" points="532.19,-789.03 542.52,-791.38 535.92,-783.1 532.19,-789.03"/>
</g>
<!-- Node23&#45;&gt;Node2 -->
<g id="edge41" class="edge">
<title>Node23&#45;&gt;Node2</title>
<path fill="none" stroke="midnightblue" d="M566.25,-1053.24C576.39,-1045.07 586.65,-1034.78 593,-1023 616.94,-978.57 616.08,-916.2 614.26,-888.59"/>
<polygon fill="midnightblue" stroke="midnightblue" points="564.07,-1050.5 558.21,-1059.33 568.3,-1056.08 564.07,-1050.5"/>
</g>
<!-- Node24 -->
<g id="node24" class="node">
<title>Node24</title>
<g id="a_node24"><a xlink:href="mwgraph_8h.html" target="_top" xlink:title=" ">
<polygon fill="white" stroke="black" points="447.5,-992.5 447.5,-1022.5 584.5,-1022.5 584.5,-992.5 447.5,-992.5"/>
<text text-anchor="start" x="455.5" y="-1010.5" font-family="Helvetica,sans-Serif" font-size="10.00">include/network_butcher</text>
<text text-anchor="middle" x="516" y="-999.5" font-family="Helvetica,sans-Serif" font-size="10.00">/Network/mwgraph.h</text>
</a>
</g>
</g>
<!-- Node23&#45;&gt;Node24 -->
<g id="edge42" class="edge">
<title>Node23&#45;&gt;Node24</title>
<path fill="none" stroke="midnightblue" d="M528.04,-1049.7C525.38,-1040.59 522.43,-1030.49 520.11,-1022.58"/>
<polygon fill="midnightblue" stroke="midnightblue" points="524.71,-1050.78 530.88,-1059.4 531.43,-1048.82 524.71,-1050.78"/>
</g>
<!-- Node24&#45;&gt;Node2 -->
<g id="edge43" class="edge">
<title>Node24&#45;&gt;Node2</title>
<path fill="none" stroke="midnightblue" d="M533.26,-984.54C540.1,-975.73 548,-965.44 555,-956 572.27,-932.7 591.69,-905.12 603.11,-888.76"/>
<polygon fill="midnightblue" stroke="midnightblue" points="530.47,-982.43 527.08,-992.46 535.99,-986.73 530.47,-982.43"/>
</g>
<!-- Node25 -->
<g id="node25" class="node">
<title>Node25</title>
<g id="a_node25"><a xlink:href="wgraph_8h.html" target="_top" xlink:title=" ">
<polygon fill="white" stroke="black" points="409.5,-925.5 409.5,-955.5 546.5,-955.5 546.5,-925.5 409.5,-925.5"/>
<text text-anchor="start" x="417.5" y="-943.5" font-family="Helvetica,sans-Serif" font-size="10.00">include/network_butcher</text>
<text text-anchor="middle" x="478" y="-932.5" font-family="Helvetica,sans-Serif" font-size="10.00">/Network/wgraph.h</text>
</a>
</g>
</g>
<!-- Node24&#45;&gt;Node25 -->
<g id="edge44" class="edge">
<title>Node24&#45;&gt;Node25</title>
<path fill="none" stroke="midnightblue" d="M502.6,-983.58C497.14,-974.24 491.01,-963.75 486.23,-955.58"/>
<polygon fill="midnightblue" stroke="midnightblue" points="499.69,-985.53 507.75,-992.4 505.73,-982 499.69,-985.53"/>
</g>
<!-- Node25&#45;&gt;Node2 -->
<g id="edge50" class="edge">
<title>Node25&#45;&gt;Node2</title>
<path fill="none" stroke="midnightblue" d="M516.44,-920.99C537.84,-910.69 564.05,-898.07 583.76,-888.58"/>
<polygon fill="midnightblue" stroke="midnightblue" points="514.78,-917.9 507.29,-925.4 517.82,-924.21 514.78,-917.9"/>
</g>
<!-- Node26 -->
<g id="node26" class="node">
<title>Node26</title>
<g id="a_node26"><a xlink:href="computer__memory_8h.html" target="_top" xlink:title=" ">
<polygon fill="white" stroke="black" points="28.5,-624.5 28.5,-654.5 199.5,-654.5 199.5,-624.5 28.5,-624.5"/>
<text text-anchor="start" x="36.5" y="-642.5" font-family="Helvetica,sans-Serif" font-size="10.00">include/network_butcher</text>
<text text-anchor="middle" x="114" y="-631.5" font-family="Helvetica,sans-Serif" font-size="10.00">/Computer/computer_memory.h</text>
</a>
</g>
</g>
<!-- Node25&#45;&gt;Node26 -->
<g id="edge45" class="edge">
<title>Node25&#45;&gt;Node26</title>
<path fill="none" stroke="midnightblue" d="M410.45,-922.61C352.65,-905.32 270.14,-873.57 214,-822 160.48,-772.84 129.16,-688.25 118.33,-654.76"/>
<polygon fill="midnightblue" stroke="midnightblue" points="409.64,-926.02 420.22,-925.46 411.6,-919.3 409.64,-926.02"/>
</g>
<!-- Node26&#45;&gt;Node3 -->
<g id="edge46" class="edge">
<title>Node26&#45;&gt;Node3</title>
<path fill="none" stroke="midnightblue" d="M105.12,-614.52C86.92,-560.73 52.37,-429.55 118,-357 142.44,-329.99 371.79,-315.29 489.3,-309.48"/>
<polygon fill="midnightblue" stroke="midnightblue" points="101.9,-615.92 108.51,-624.2 108.51,-613.6 101.9,-615.92"/>
</g>
<!-- Node26&#45;&gt;Node7 -->
<g id="edge49" class="edge">
<title>Node26&#45;&gt;Node7</title>
<path fill="none" stroke="midnightblue" d="M99.24,-615.68C92.53,-604.42 84.98,-590.4 80,-577 61.89,-528.26 56,-514.49 56,-462.5 56,-462.5 56,-462.5 56,-154 56,-62.74 155.96,-97.44 242,-67 286.2,-51.36 337.43,-38.7 377.49,-29.96"/>
<polygon fill="midnightblue" stroke="midnightblue" points="96.4,-617.74 104.62,-624.42 102.36,-614.07 96.4,-617.74"/>
</g>
<!-- Node26&#45;&gt;Node13 -->
<g id="edge47" class="edge">
<title>Node26&#45;&gt;Node13</title>
<path fill="none" stroke="midnightblue" d="M209.52,-626.28C295.63,-614.87 425.59,-596.69 538,-577 557.38,-573.61 578.36,-569.47 597.46,-565.52"/>
<polygon fill="midnightblue" stroke="midnightblue" points="208.96,-622.82 199.51,-627.6 209.88,-629.76 208.96,-622.82"/>
</g>
<!-- Node26&#45;&gt;Node17 -->
<g id="edge48" class="edge">
<title>Node26&#45;&gt;Node17</title>
<path fill="none" stroke="midnightblue" d="M143.81,-618.7C162.63,-606.21 187.1,-589.95 207.26,-576.56"/>
<polygon fill="midnightblue" stroke="midnightblue" points="141.73,-615.88 135.34,-624.33 145.61,-621.71 141.73,-615.88"/>
</g>
<!-- Node27&#45;&gt;Node23 -->
<g id="edge52" class="edge">
<title>Node27&#45;&gt;Node23</title>
<path fill="none" stroke="midnightblue" d="M547.04,-1116.7C544.38,-1107.59 541.43,-1097.49 539.11,-1089.58"/>
<polygon fill="midnightblue" stroke="midnightblue" points="543.71,-1117.78 549.88,-1126.4 550.43,-1115.82 543.71,-1117.78"/>
</g>
</g>
</svg>
        <g id="navigator" transform="translate(0 0)" fill="#404254">
                <rect fill="#f2f5e9" fill-opacity="0.5" stroke="#606060" stroke-width=".5" x="0" y="0" width="60" height="60"/>
                <use id="zoomplus" xlink:href="#zoomPlus" x="17" y="9" onmousedown="handleZoom(evt,'in')"/>
                <use id="zoomminus" xlink:href="#zoomMin" x="42" y="9" onmousedown="handleZoom(evt,'out')"/>
                <use id="reset" xlink:href="#resetDef" x="30" y="36" onmousedown="handleReset()"/>
                <g id="arrowUp" xlink:href="#dirArrow" transform="translate(30 24)" onmousedown="handlePan(0,-1)">
                  <use xlink:href="#rim" fill="#404040">
                        <set attributeName="fill" to="#808080" begin="arrowUp.mouseover" end="arrowUp.mouseout"/>
                  </use>
                  <path fill="none" stroke="white" stroke-width="1.5" d="M0,-3.0v7 M-2.5,-0.5L0,-3.0L2.5,-0.5"/>
                </g>
                <g id="arrowRight" xlink:href="#dirArrow" transform="rotate(90) translate(36 -43)" onmousedown="handlePan(1,0)">
                  <use xlink:href="#rim" fill="#404040">
                        <set attributeName="fill" to="#808080" begin="arrowRight.mouseover" end="arrowRight.mouseout"/>
                  </use>
                  <path fill="none" stroke="white" stroke-width="1.5" d="M0,-3.0v7 M-2.5,-0.5L0,-3.0L2.5,-0.5"/>
                </g>
                <g id="arrowDown" xlink:href="#dirArrow" transform="rotate(180) translate(-30 -48)" onmousedown="handlePan(0,1)">
                  <use xlink:href="#rim" fill="#404040">
                        <set attributeName="fill" to="#808080" begin="arrowDown.mouseover" end="arrowDown.mouseout"/>
                  </use>
                  <path fill="none" stroke="white" stroke-width="1.5" d="M0,-3.0v7 M-2.5,-0.5L0,-3.0L2.5,-0.5"/>
                </g>
                <g id="arrowLeft" xlink:href="#dirArrow" transform="rotate(270) translate(-36 17)" onmousedown="handlePan(-1,0)">
                  <use xlink:href="#rim" fill="#404040">
                        <set attributeName="fill" to="#808080" begin="arrowLeft.mouseover" end="arrowLeft.mouseout"/>
                  </use>
                  <path fill="none" stroke="white" stroke-width="1.5" d="M0,-3.0v7 M-2.5,-0.5L0,-3.0L2.5,-0.5"/>
                </g>
        </g>
        <svg viewBox="0 0 15 15" width="100%" height="30px" preserveAspectRatio="xMaxYMin meet">
         <g id="arrow_out" transform="scale(0.3 0.3)">
          <a xlink:href="content_8h__dep__incl_org.svg" target="_base">
           <rect id="button" ry="5" rx="5" y="6" x="6" height="38" width="38"
                fill="#f2f5e9" fill-opacity="0.5" stroke="#606060" stroke-width="1.0"/>
           <path id="arrow"
             d="M 11.500037,31.436501 C 11.940474,20.09759 22.043105,11.32322 32.158766,21.979434 L 37.068811,17.246167 C 37.068811,17.246167 37.088388,32 37.088388,32 L 22.160133,31.978069 C 22.160133,31.978069 26.997745,27.140456 26.997745,27.140456 C 18.528582,18.264221 13.291696,25.230495 11.500037,31.436501 z"
             style="fill:#404040;"/>
          </a>
         </g>
        </svg>
</svg>
