<?xml version="1.0" encoding="UTF-8" standalone="no"?>
<!DOCTYPE svg PUBLIC "-//W3C//DTD SVG 1.1//EN"
 "http://www.w3.org/Graphics/SVG/1.1/DTD/svg11.dtd">
<!-- Generated by graphviz version 2.43.0 (0)
 -->
<!-- Title: include/Types/content.h Pages: 1 -->
<svg width="1092pt" height="1111pt"
 viewBox="0.00 0.00 1091.50 1111.00" xmlns="http://www.w3.org/2000/svg" xmlns:xlink="http://www.w3.org/1999/xlink">
<g id="graph0" class="graph" transform="scale(1 1) rotate(0) translate(4 1107)">
<title>include/Types/content.h</title>
<polygon fill="white" stroke="transparent" points="-4,4 -4,-1107 1087.5,-1107 1087.5,4 -4,4"/>
<!-- Node1 -->
<g id="node1" class="node">
<title>Node1</title>
<g id="a_node1"><a xlink:title=" ">
<polygon fill="#bfbfbf" stroke="black" points="366.5,-1083.5 366.5,-1102.5 497.5,-1102.5 497.5,-1083.5 366.5,-1083.5"/>
<text text-anchor="middle" x="432" y="-1090.5" font-family="Helvetica,sans-Serif" font-size="10.00">include/Types/content.h</text>
</a>
</g>
</g>
<!-- Node2 -->
<g id="node2" class="node">
<title>Node2</title>
<g id="a_node2"><a xlink:href="graph_8h.html" target="_top" xlink:title=" ">
<polygon fill="white" stroke="black" points="393,-960.5 393,-979.5 529,-979.5 529,-960.5 393,-960.5"/>
<text text-anchor="middle" x="461" y="-967.5" font-family="Helvetica,sans-Serif" font-size="10.00">include/Network/graph.h</text>
</a>
</g>
</g>
<!-- Node1&#45;&gt;Node2 -->
<g id="edge1" class="edge">
<title>Node1&#45;&gt;Node2</title>
<path fill="none" stroke="midnightblue" d="M466.6,-1078.92C480.51,-1071.75 495.11,-1061.34 503,-1047 509.64,-1034.93 508.05,-1028.82 503,-1016 497.04,-1000.89 483.35,-987.86 473.21,-979.76"/>
<polygon fill="midnightblue" stroke="midnightblue" points="464.71,-1075.94 457.16,-1083.38 467.7,-1082.27 464.71,-1075.94"/>
</g>
<!-- Node4 -->
<g id="node4" class="node">
<title>Node4</title>
<g id="a_node4"><a xlink:href="graph__traits_8h.html" target="_top" xlink:title=" ">
<polygon fill="white" stroke="black" points="316.5,-781.5 316.5,-811.5 443.5,-811.5 443.5,-781.5 316.5,-781.5"/>
<text text-anchor="start" x="324.5" y="-799.5" font-family="Helvetica,sans-Serif" font-size="10.00">include/Network/graph</text>
<text text-anchor="middle" x="380" y="-788.5" font-family="Helvetica,sans-Serif" font-size="10.00">_traits.h</text>
</a>
</g>
</g>
<!-- Node1&#45;&gt;Node4 -->
<g id="edge51" class="edge">
<title>Node1&#45;&gt;Node4</title>
<path fill="none" stroke="midnightblue" d="M401.18,-1079.06C386.99,-1071.63 371.09,-1060.98 361,-1047 340.62,-1018.77 342,-1005.82 342,-971 342,-971 342,-971 342,-913 342,-874.79 361,-832.87 372.13,-811.59"/>
<polygon fill="midnightblue" stroke="midnightblue" points="399.67,-1082.22 410.19,-1083.48 402.75,-1075.93 399.67,-1082.22"/>
</g>
<!-- Node28 -->
<g id="node28" class="node">
<title>Node28</title>
<g id="a_node28"><a xlink:href="node__traits_8h.html" target="_top" xlink:title=" ">
<polygon fill="white" stroke="black" points="370.5,-1016.5 370.5,-1046.5 493.5,-1046.5 493.5,-1016.5 370.5,-1016.5"/>
<text text-anchor="start" x="378.5" y="-1034.5" font-family="Helvetica,sans-Serif" font-size="10.00">include/Network/node</text>
<text text-anchor="middle" x="432" y="-1023.5" font-family="Helvetica,sans-Serif" font-size="10.00">_traits.h</text>
</a>
</g>
</g>
<!-- Node1&#45;&gt;Node28 -->
<g id="edge49" class="edge">
<title>Node1&#45;&gt;Node28</title>
<path fill="none" stroke="midnightblue" d="M432,-1073.23C432,-1064.59 432,-1054.5 432,-1046.52"/>
<polygon fill="midnightblue" stroke="midnightblue" points="428.5,-1073.48 432,-1083.48 435.5,-1073.48 428.5,-1073.48"/>
</g>
<!-- Node3 -->
<g id="node3" class="node">
<title>Node3</title>
<g id="a_node3"><a xlink:href="mwgraph_8h.html" target="_top" xlink:title=" ">
<polygon fill="white" stroke="black" points="408,-904.5 408,-923.5 562,-923.5 562,-904.5 408,-904.5"/>
<text text-anchor="middle" x="485" y="-911.5" font-family="Helvetica,sans-Serif" font-size="10.00">include/Network/mwgraph.h</text>
</a>
</g>
</g>
<!-- Node2&#45;&gt;Node3 -->
<g id="edge2" class="edge">
<title>Node2&#45;&gt;Node3</title>
<path fill="none" stroke="midnightblue" d="M469.14,-950.69C473.18,-941.59 477.88,-931.01 481.11,-923.75"/>
<polygon fill="midnightblue" stroke="midnightblue" points="465.83,-949.52 464.96,-960.08 472.22,-952.37 465.83,-949.52"/>
</g>
<!-- Node2&#45;&gt;Node4 -->
<g id="edge48" class="edge">
<title>Node2&#45;&gt;Node4</title>
<path fill="none" stroke="midnightblue" d="M433.32,-955.46C420.84,-947.93 407.11,-937.35 399,-924 377.2,-888.13 377.23,-836.27 378.74,-811.59"/>
<polygon fill="midnightblue" stroke="midnightblue" points="431.65,-958.54 442.08,-960.41 435.09,-952.45 431.65,-958.54"/>
</g>
<!-- Node3&#45;&gt;Node4 -->
<g id="edge3" class="edge">
<title>Node3&#45;&gt;Node4</title>
<path fill="none" stroke="midnightblue" d="M467.51,-897.67C458.16,-889.21 446.62,-878.35 437,-868 419.75,-849.44 401.65,-826.34 390.6,-811.75"/>
<polygon fill="midnightblue" stroke="midnightblue" points="465.27,-900.36 475.06,-904.41 469.93,-895.14 465.27,-900.36"/>
</g>
<!-- Node26 -->
<g id="node26" class="node">
<title>Node26</title>
<g id="a_node26"><a xlink:href="wgraph_8h.html" target="_top" xlink:title=" ">
<polygon fill="white" stroke="black" points="446,-848.5 446,-867.5 590,-867.5 590,-848.5 446,-848.5"/>
<text text-anchor="middle" x="518" y="-855.5" font-family="Helvetica,sans-Serif" font-size="10.00">include/Network/wgraph.h</text>
</a>
</g>
</g>
<!-- Node3&#45;&gt;Node26 -->
<g id="edge41" class="edge">
<title>Node3&#45;&gt;Node26</title>
<path fill="none" stroke="midnightblue" d="M495.83,-895.27C501.47,-886.05 508.12,-875.17 512.65,-867.75"/>
<polygon fill="midnightblue" stroke="midnightblue" points="492.68,-893.73 490.45,-904.08 498.65,-897.38 492.68,-893.73"/>
</g>
<!-- Node5 -->
<g id="node5" class="node">
<title>Node5</title>
<g id="a_node5"><a xlink:href="butcher_8h.html" target="_top" xlink:title=" ">
<polygon fill="white" stroke="black" points="464,-268.5 464,-287.5 604,-287.5 604,-268.5 464,-268.5"/>
<text text-anchor="middle" x="534" y="-275.5" font-family="Helvetica,sans-Serif" font-size="10.00">include/Butcher/butcher.h</text>
</a>
</g>
</g>
<!-- Node4&#45;&gt;Node5 -->
<g id="edge4" class="edge">
<title>Node4&#45;&gt;Node5</title>
<path fill="none" stroke="midnightblue" d="M306.1,-795.48C216.12,-791.11 76,-768.35 76,-669 76,-669 76,-669 76,-416.5 76,-391.96 108.81,-355.28 181,-324 230.32,-302.63 375.67,-289.52 463.73,-283.31"/>
<polygon fill="midnightblue" stroke="midnightblue" points="306.13,-798.98 316.27,-795.91 306.43,-791.99 306.13,-798.98"/>
</g>
<!-- Node6 -->
<g id="node6" class="node">
<title>Node6</title>
<g id="a_node6"><a xlink:href="onnx__importer__helpers_8h.html" target="_top" xlink:title=" ">
<polygon fill="white" stroke="black" points="778.5,-196 778.5,-226 919.5,-226 919.5,-196 778.5,-196"/>
<text text-anchor="start" x="786.5" y="-214" font-family="Helvetica,sans-Serif" font-size="10.00">include/IO_Interaction</text>
<text text-anchor="middle" x="849" y="-203" font-family="Helvetica,sans-Serif" font-size="10.00">/onnx_importer_helpers.h</text>
</a>
</g>
</g>
<!-- Node4&#45;&gt;Node6 -->
<g id="edge22" class="edge">
<title>Node4&#45;&gt;Node6</title>
<path fill="none" stroke="midnightblue" d="M453.79,-790.87C585.86,-780.56 849,-749.86 849,-669 849,-669 849,-669 849,-338.5 849,-297.65 849,-249.38 849,-226.04"/>
<polygon fill="midnightblue" stroke="midnightblue" points="453.44,-787.39 443.74,-791.64 453.98,-794.37 453.44,-787.39"/>
</g>
<!-- Node11 -->
<g id="node11" class="node">
<title>Node11</title>
<g id="a_node11"><a xlink:href="network__butcher_8h.html" target="_top" xlink:title=" ">
<polygon fill="white" stroke="black" points="599.5,-56.5 599.5,-75.5 744.5,-75.5 744.5,-56.5 599.5,-56.5"/>
<text text-anchor="middle" x="672" y="-63.5" font-family="Helvetica,sans-Serif" font-size="10.00">include/network_butcher.h</text>
</a>
</g>
</g>
<!-- Node4&#45;&gt;Node11 -->
<g id="edge35" class="edge">
<title>Node4&#45;&gt;Node11</title>
<path fill="none" stroke="midnightblue" d="M306.32,-790C225.42,-782.89 101.58,-768.54 61,-745 23.54,-723.26 0,-712.31 0,-669 0,-669 0,-669 0,-210 0,-88.48 425.68,-69.81 599.45,-67.25"/>
<polygon fill="midnightblue" stroke="midnightblue" points="306.19,-793.5 316.46,-790.87 306.8,-786.52 306.19,-793.5"/>
</g>
<!-- Node14 -->
<g id="node14" class="node">
<title>Node14</title>
<g id="a_node14"><a xlink:href="onnx__model__reconstructor__helpers_8h.html" target="_top" xlink:title=" ">
<polygon fill="white" stroke="black" points="459.5,-190.5 459.5,-231.5 608.5,-231.5 608.5,-190.5 459.5,-190.5"/>
<text text-anchor="start" x="467.5" y="-219.5" font-family="Helvetica,sans-Serif" font-size="10.00">include/IO_Interaction</text>
<text text-anchor="start" x="467.5" y="-208.5" font-family="Helvetica,sans-Serif" font-size="10.00">/onnx_model_reconstructor</text>
<text text-anchor="middle" x="534" y="-197.5" font-family="Helvetica,sans-Serif" font-size="10.00">_helpers.h</text>
</a>
</g>
</g>
<!-- Node4&#45;&gt;Node14 -->
<g id="edge23" class="edge">
<title>Node4&#45;&gt;Node14</title>
<path fill="none" stroke="midnightblue" d="M306.23,-788.85C233.29,-781.17 127.71,-766.73 93,-745 57.66,-722.88 38,-710.69 38,-669 38,-669 38,-669 38,-338.5 38,-252.58 321.01,-224.28 459.48,-215.58"/>
<polygon fill="midnightblue" stroke="midnightblue" points="305.98,-792.35 316.29,-789.89 306.7,-785.38 305.98,-792.35"/>
</g>
<!-- Node16 -->
<g id="node16" class="node">
<title>Node16</title>
<g id="a_node16"><a xlink:href="graph__constraint_8h.html" target="_top" xlink:title=" ">
<polygon fill="white" stroke="black" points="503.5,-491.5 503.5,-521.5 626.5,-521.5 626.5,-491.5 503.5,-491.5"/>
<text text-anchor="start" x="511.5" y="-509.5" font-family="Helvetica,sans-Serif" font-size="10.00">include/Butcher/graph</text>
<text text-anchor="middle" x="565" y="-498.5" font-family="Helvetica,sans-Serif" font-size="10.00">_constraint.h</text>
</a>
</g>
</g>
<!-- Node4&#45;&gt;Node16 -->
<g id="edge17" class="edge">
<title>Node4&#45;&gt;Node16</title>
<path fill="none" stroke="midnightblue" d="M398.11,-773.45C415.13,-752.33 440.92,-719.29 461,-689 500.92,-628.76 541.62,-552.5 557.77,-521.53"/>
<polygon fill="midnightblue" stroke="midnightblue" points="395.2,-771.49 391.61,-781.46 400.63,-775.9 395.2,-771.49"/>
</g>
<!-- Node18 -->
<g id="node18" class="node">
<title>Node18</title>
<g id="a_node18"><a xlink:href="path__converter_8h.html" target="_top" xlink:title=" ">
<polygon fill="white" stroke="black" points="138.5,-653 138.5,-683 255.5,-683 255.5,-653 138.5,-653"/>
<text text-anchor="start" x="146.5" y="-671" font-family="Helvetica,sans-Serif" font-size="10.00">include/Butcher/path</text>
<text text-anchor="middle" x="197" y="-660" font-family="Helvetica,sans-Serif" font-size="10.00">_converter.h</text>
</a>
</g>
</g>
<!-- Node4&#45;&gt;Node18 -->
<g id="edge20" class="edge">
<title>Node4&#45;&gt;Node18</title>
<path fill="none" stroke="midnightblue" d="M351.31,-775.67C314.07,-749.92 250,-705.64 217.37,-683.08"/>
<polygon fill="midnightblue" stroke="midnightblue" points="349.5,-778.67 359.72,-781.48 353.48,-772.91 349.5,-778.67"/>
</g>
<!-- Node19 -->
<g id="node19" class="node">
<title>Node19</title>
<g id="a_node19"><a xlink:href="weight__importer_8h.html" target="_top" xlink:title=" ">
<polygon fill="white" stroke="black" points="308.5,-647.5 308.5,-688.5 451.5,-688.5 451.5,-647.5 308.5,-647.5"/>
<text text-anchor="start" x="316.5" y="-676.5" font-family="Helvetica,sans-Serif" font-size="10.00">include/IO_Interaction</text>
<text text-anchor="start" x="316.5" y="-665.5" font-family="Helvetica,sans-Serif" font-size="10.00">/Weight_Importer_Helpers</text>
<text text-anchor="middle" x="380" y="-654.5" font-family="Helvetica,sans-Serif" font-size="10.00">/weight_importer.h</text>
</a>
</g>
</g>
<!-- Node4&#45;&gt;Node19 -->
<g id="edge24" class="edge">
<title>Node4&#45;&gt;Node19</title>
<path fill="none" stroke="midnightblue" d="M380,-771.45C380,-747.53 380,-711.25 380,-688.89"/>
<polygon fill="midnightblue" stroke="midnightblue" points="376.5,-771.48 380,-781.48 383.5,-771.48 376.5,-771.48"/>
</g>
<!-- Node25 -->
<g id="node25" class="node">
<title>Node25</title>
<g id="a_node25"><a xlink:href="parameters_8h.html" target="_top" xlink:title=" ">
<polygon fill="white" stroke="black" points="508.5,-725.5 508.5,-744.5 659.5,-744.5 659.5,-725.5 508.5,-725.5"/>
<text text-anchor="middle" x="584" y="-732.5" font-family="Helvetica,sans-Serif" font-size="10.00">include/Types/parameters.h</text>
</a>
</g>
</g>
<!-- Node4&#45;&gt;Node25 -->
<g id="edge36" class="edge">
<title>Node4&#45;&gt;Node25</title>
<path fill="none" stroke="midnightblue" d="M438.05,-778.57C476.21,-767.44 524.5,-753.35 554.84,-744.51"/>
<polygon fill="midnightblue" stroke="midnightblue" points="436.71,-775.31 428.09,-781.47 438.67,-782.03 436.71,-775.31"/>
</g>
<!-- Node5&#45;&gt;Node6 -->
<g id="edge5" class="edge">
<title>Node5&#45;&gt;Node6</title>
<path fill="none" stroke="midnightblue" d="M585.41,-266.39C638.66,-255.4 722.15,-238.18 780.87,-226.06"/>
<polygon fill="midnightblue" stroke="midnightblue" points="584.59,-262.99 575.5,-268.44 586.01,-269.84 584.59,-262.99"/>
</g>
<!-- Node5&#45;&gt;Node11 -->
<g id="edge16" class="edge">
<title>Node5&#45;&gt;Node11</title>
<path fill="none" stroke="midnightblue" d="M570.74,-264.58C587.21,-257.36 605.65,-246.73 618,-232 659.05,-183.03 669.14,-102.01 671.4,-75.61"/>
<polygon fill="midnightblue" stroke="midnightblue" points="569.26,-261.4 561.34,-268.44 571.92,-267.88 569.26,-261.4"/>
</g>
<!-- Node5&#45;&gt;Node14 -->
<g id="edge13" class="edge">
<title>Node5&#45;&gt;Node14</title>
<path fill="none" stroke="midnightblue" d="M534,-258.04C534,-249.71 534,-239.94 534,-231.54"/>
<polygon fill="midnightblue" stroke="midnightblue" points="530.5,-258.23 534,-268.23 537.5,-258.23 530.5,-258.23"/>
</g>
<!-- Node7 -->
<g id="node7" class="node">
<title>Node7</title>
<g id="a_node7"><a xlink:href="io__manager_8h.html" target="_top" xlink:title=" ">
<polygon fill="white" stroke="black" points="774.5,-123.5 774.5,-142.5 895.5,-142.5 895.5,-123.5 774.5,-123.5"/>
<text text-anchor="middle" x="835" y="-130.5" font-family="Helvetica,sans-Serif" font-size="10.00">include/io_manager.h</text>
</a>
</g>
</g>
<!-- Node6&#45;&gt;Node7 -->
<g id="edge6" class="edge">
<title>Node6&#45;&gt;Node7</title>
<path fill="none" stroke="midnightblue" d="M844.52,-185.67C841.8,-170.9 838.49,-152.95 836.58,-142.56"/>
<polygon fill="midnightblue" stroke="midnightblue" points="841.11,-186.5 846.37,-195.7 848,-185.24 841.11,-186.5"/>
</g>
<!-- Node13 -->
<g id="node13" class="node">
<title>Node13</title>
<g id="a_node13"><a xlink:href="onnx__importer__helpers_8cpp.html" target="_top" xlink:title=" ">
<polygon fill="white" stroke="black" points="914,-118 914,-148 1066,-148 1066,-118 914,-118"/>
<text text-anchor="start" x="922" y="-136" font-family="Helvetica,sans-Serif" font-size="10.00">src/IO_Interaction</text>
<text text-anchor="middle" x="990" y="-125" font-family="Helvetica,sans-Serif" font-size="10.00">/onnx_importer_helpers.cpp</text>
</a>
</g>
</g>
<!-- Node6&#45;&gt;Node13 -->
<g id="edge12" class="edge">
<title>Node6&#45;&gt;Node13</title>
<path fill="none" stroke="midnightblue" d="M884.25,-191C909,-177.66 941.53,-160.12 963.95,-148.04"/>
<polygon fill="midnightblue" stroke="midnightblue" points="882.33,-188.06 875.19,-195.88 885.65,-194.22 882.33,-188.06"/>
</g>
<!-- Node8 -->
<g id="node8" class="node">
<title>Node8</title>
<g id="a_node8"><a xlink:href="general__manager_8h.html" target="_top" xlink:title=" ">
<polygon fill="white" stroke="black" points="906.5,-56.5 906.5,-75.5 1055.5,-75.5 1055.5,-56.5 906.5,-56.5"/>
<text text-anchor="middle" x="981" y="-63.5" font-family="Helvetica,sans-Serif" font-size="10.00">include/general_manager.h</text>
</a>
</g>
</g>
<!-- Node7&#45;&gt;Node8 -->
<g id="edge7" class="edge">
<title>Node7&#45;&gt;Node8</title>
<path fill="none" stroke="midnightblue" d="M863.57,-119.28C892.48,-106.41 936.4,-86.85 961.53,-75.67"/>
<polygon fill="midnightblue" stroke="midnightblue" points="862.1,-116.1 854.39,-123.37 864.95,-122.5 862.1,-116.1"/>
</g>
<!-- Node7&#45;&gt;Node11 -->
<g id="edge10" class="edge">
<title>Node7&#45;&gt;Node11</title>
<path fill="none" stroke="midnightblue" d="M803.92,-119.6C771.55,-106.7 721.72,-86.83 693.48,-75.56"/>
<polygon fill="midnightblue" stroke="midnightblue" points="802.77,-122.92 813.35,-123.37 805.36,-116.41 802.77,-122.92"/>
</g>
<!-- Node12 -->
<g id="node12" class="node">
<title>Node12</title>
<g id="a_node12"><a xlink:href="io__manager_8cpp.html" target="_top" xlink:title=" ">
<polygon fill="white" stroke="black" points="777.5,-56.5 777.5,-75.5 888.5,-75.5 888.5,-56.5 777.5,-56.5"/>
<text text-anchor="middle" x="833" y="-63.5" font-family="Helvetica,sans-Serif" font-size="10.00">src/io_manager.cpp</text>
</a>
</g>
</g>
<!-- Node7&#45;&gt;Node12 -->
<g id="edge11" class="edge">
<title>Node7&#45;&gt;Node12</title>
<path fill="none" stroke="midnightblue" d="M834.42,-113.04C834.04,-100.67 833.56,-85.12 833.27,-75.63"/>
<polygon fill="midnightblue" stroke="midnightblue" points="830.92,-113.35 834.73,-123.23 837.92,-113.13 830.92,-113.35"/>
</g>
<!-- Node9 -->
<g id="node9" class="node">
<title>Node9</title>
<g id="a_node9"><a xlink:href="general__manager_8cpp.html" target="_top" xlink:title=" ">
<polygon fill="white" stroke="black" points="847.5,-0.5 847.5,-19.5 986.5,-19.5 986.5,-0.5 847.5,-0.5"/>
<text text-anchor="middle" x="917" y="-7.5" font-family="Helvetica,sans-Serif" font-size="10.00">src/general_manager.cpp</text>
</a>
</g>
</g>
<!-- Node8&#45;&gt;Node9 -->
<g id="edge8" class="edge">
<title>Node8&#45;&gt;Node9</title>
<path fill="none" stroke="midnightblue" d="M963.01,-49.82C951.54,-40.15 937.09,-27.95 927.47,-19.83"/>
<polygon fill="midnightblue" stroke="midnightblue" points="960.82,-52.55 970.72,-56.32 965.33,-47.2 960.82,-52.55"/>
</g>
<!-- Node10 -->
<g id="node10" class="node">
<title>Node10</title>
<g id="a_node10"><a xlink:href="main_8cpp.html" target="_top" xlink:title=" ">
<polygon fill="white" stroke="black" points="1004.5,-0.5 1004.5,-19.5 1083.5,-19.5 1083.5,-0.5 1004.5,-0.5"/>
<text text-anchor="middle" x="1044" y="-7.5" font-family="Helvetica,sans-Serif" font-size="10.00">src/main.cpp</text>
</a>
</g>
</g>
<!-- Node8&#45;&gt;Node10 -->
<g id="edge9" class="edge">
<title>Node8&#45;&gt;Node10</title>
<path fill="none" stroke="midnightblue" d="M999.04,-49.54C1010.27,-39.91 1024.32,-27.87 1033.69,-19.83"/>
<polygon fill="midnightblue" stroke="midnightblue" points="996.44,-47.16 991.12,-56.32 1000.99,-52.47 996.44,-47.16"/>
</g>
<!-- Node14&#45;&gt;Node7 -->
<g id="edge14" class="edge">
<title>Node14&#45;&gt;Node7</title>
<path fill="none" stroke="midnightblue" d="M618.72,-188.61C679.24,-173.33 757.41,-153.59 801.28,-142.51"/>
<polygon fill="midnightblue" stroke="midnightblue" points="617.63,-185.27 608.79,-191.12 619.34,-192.06 617.63,-185.27"/>
</g>
<!-- Node15 -->
<g id="node15" class="node">
<title>Node15</title>
<g id="a_node15"><a xlink:href="onnx__model__reconstructor__helpers_8cpp.html" target="_top" xlink:title=" ">
<polygon fill="white" stroke="black" points="459.5,-112.5 459.5,-153.5 608.5,-153.5 608.5,-112.5 459.5,-112.5"/>
<text text-anchor="start" x="467.5" y="-141.5" font-family="Helvetica,sans-Serif" font-size="10.00">src/IO_Interaction</text>
<text text-anchor="start" x="467.5" y="-130.5" font-family="Helvetica,sans-Serif" font-size="10.00">/onnx_model_reconstructor</text>
<text text-anchor="middle" x="534" y="-119.5" font-family="Helvetica,sans-Serif" font-size="10.00">_helpers.cpp</text>
</a>
</g>
</g>
<!-- Node14&#45;&gt;Node15 -->
<g id="edge15" class="edge">
<title>Node14&#45;&gt;Node15</title>
<path fill="none" stroke="midnightblue" d="M534,-180.3C534,-171.3 534,-161.65 534,-153.51"/>
<polygon fill="midnightblue" stroke="midnightblue" points="530.5,-180.43 534,-190.43 537.5,-180.43 530.5,-180.43"/>
</g>
<!-- Node17 -->
<g id="node17" class="node">
<title>Node17</title>
<g id="a_node17"><a xlink:href="constrained__block__graph__builder_8h.html" target="_top" xlink:title=" ">
<polygon fill="white" stroke="black" points="456,-324.5 456,-354.5 608,-354.5 608,-324.5 456,-324.5"/>
<text text-anchor="start" x="464" y="-342.5" font-family="Helvetica,sans-Serif" font-size="10.00">include/Butcher/constrained</text>
<text text-anchor="middle" x="532" y="-331.5" font-family="Helvetica,sans-Serif" font-size="10.00">_block_graph_builder.h</text>
</a>
</g>
</g>
<!-- Node16&#45;&gt;Node17 -->
<g id="edge18" class="edge">
<title>Node16&#45;&gt;Node17</title>
<path fill="none" stroke="midnightblue" d="M570.14,-481.48C574.16,-457.85 577.62,-421.06 568,-391 563.6,-377.26 553.95,-364.07 545.74,-354.61"/>
<polygon fill="midnightblue" stroke="midnightblue" points="566.69,-480.86 568.3,-491.33 573.57,-482.15 566.69,-480.86"/>
</g>
<!-- Node17&#45;&gt;Node5 -->
<g id="edge19" class="edge">
<title>Node17&#45;&gt;Node5</title>
<path fill="none" stroke="midnightblue" d="M532.81,-314.29C533.13,-304.86 533.47,-294.65 533.71,-287.66"/>
<polygon fill="midnightblue" stroke="midnightblue" points="529.31,-314.29 532.47,-324.4 536.31,-314.52 529.31,-314.29"/>
</g>
<!-- Node18&#45;&gt;Node5 -->
<g id="edge21" class="edge">
<title>Node18&#45;&gt;Node5</title>
<path fill="none" stroke="midnightblue" d="M176.84,-645.03C152.27,-615.88 114,-561.77 114,-507.5 114,-507.5 114,-507.5 114,-416.5 114,-343.8 344.14,-303.39 463.7,-287.3"/>
<polygon fill="midnightblue" stroke="midnightblue" points="174.47,-647.64 183.66,-652.9 179.76,-643.05 174.47,-647.64"/>
</g>
<!-- Node20 -->
<g id="node20" class="node">
<title>Node20</title>
<g id="a_node20"><a xlink:href="block__aMLLibrary__weight__importer_8h.html" target="_top" xlink:title=" ">
<polygon fill="white" stroke="black" points="342.5,-480.5 342.5,-532.5 485.5,-532.5 485.5,-480.5 342.5,-480.5"/>
<text text-anchor="start" x="350.5" y="-520.5" font-family="Helvetica,sans-Serif" font-size="10.00">include/IO_Interaction</text>
<text text-anchor="start" x="350.5" y="-509.5" font-family="Helvetica,sans-Serif" font-size="10.00">/Weight_Importer_Helpers</text>
<text text-anchor="start" x="350.5" y="-498.5" font-family="Helvetica,sans-Serif" font-size="10.00">/block_aMLLibrary_weight</text>
<text text-anchor="middle" x="414" y="-487.5" font-family="Helvetica,sans-Serif" font-size="10.00">_importer.h</text>
</a>
</g>
</g>
<!-- Node19&#45;&gt;Node20 -->
<g id="edge25" class="edge">
<title>Node19&#45;&gt;Node20</title>
<path fill="none" stroke="midnightblue" d="M388.37,-637.51C390.66,-628.99 393.05,-619.66 395,-611 400.98,-584.45 406.44,-553.74 409.95,-532.71"/>
<polygon fill="midnightblue" stroke="midnightblue" points="384.93,-636.83 385.66,-647.4 391.68,-638.68 384.93,-636.83"/>
</g>
<!-- Node23 -->
<g id="node23" class="node">
<title>Node23</title>
<g id="a_node23"><a xlink:href="csv__weight__importer_8h.html" target="_top" xlink:title=" ">
<polygon fill="white" stroke="black" points="242.5,-569.5 242.5,-610.5 385.5,-610.5 385.5,-569.5 242.5,-569.5"/>
<text text-anchor="start" x="250.5" y="-598.5" font-family="Helvetica,sans-Serif" font-size="10.00">include/IO_Interaction</text>
<text text-anchor="start" x="250.5" y="-587.5" font-family="Helvetica,sans-Serif" font-size="10.00">/Weight_Importer_Helpers</text>
<text text-anchor="middle" x="314" y="-576.5" font-family="Helvetica,sans-Serif" font-size="10.00">/csv_weight_importer.h</text>
</a>
</g>
</g>
<!-- Node19&#45;&gt;Node23 -->
<g id="edge31" class="edge">
<title>Node19&#45;&gt;Node23</title>
<path fill="none" stroke="midnightblue" d="M356.23,-639.63C347.86,-629.99 338.63,-619.36 330.94,-610.51"/>
<polygon fill="midnightblue" stroke="midnightblue" points="353.8,-642.17 363,-647.43 359.09,-637.58 353.8,-642.17"/>
</g>
<!-- Node21 -->
<g id="node21" class="node">
<title>Node21</title>
<g id="a_node21"><a xlink:href="weight__importers_8h.html" target="_top" xlink:title=" ">
<polygon fill="white" stroke="black" points="274.5,-402.5 274.5,-432.5 397.5,-432.5 397.5,-402.5 274.5,-402.5"/>
<text text-anchor="start" x="282.5" y="-420.5" font-family="Helvetica,sans-Serif" font-size="10.00">include/IO_Interaction</text>
<text text-anchor="middle" x="336" y="-409.5" font-family="Helvetica,sans-Serif" font-size="10.00">/weight_importers.h</text>
</a>
</g>
</g>
<!-- Node20&#45;&gt;Node21 -->
<g id="edge26" class="edge">
<title>Node20&#45;&gt;Node21</title>
<path fill="none" stroke="midnightblue" d="M384.73,-472.85C372.33,-459.02 358.53,-443.63 348.79,-432.77"/>
<polygon fill="midnightblue" stroke="midnightblue" points="382.16,-475.23 391.44,-480.34 387.37,-470.55 382.16,-475.23"/>
</g>
<!-- Node22 -->
<g id="node22" class="node">
<title>Node22</title>
<g id="a_node22"><a xlink:href="block__aMLLibrary__weight__importer_8cpp.html" target="_top" xlink:title=" ">
<polygon fill="white" stroke="black" points="415.5,-391.5 415.5,-443.5 558.5,-443.5 558.5,-391.5 415.5,-391.5"/>
<text text-anchor="start" x="423.5" y="-431.5" font-family="Helvetica,sans-Serif" font-size="10.00">src/IO_Interaction</text>
<text text-anchor="start" x="423.5" y="-420.5" font-family="Helvetica,sans-Serif" font-size="10.00">/Weight_Importer_Helpers</text>
<text text-anchor="start" x="423.5" y="-409.5" font-family="Helvetica,sans-Serif" font-size="10.00">/block_aMLLibrary_weight</text>
<text text-anchor="middle" x="487" y="-398.5" font-family="Helvetica,sans-Serif" font-size="10.00">_importer.cpp</text>
</a>
</g>
</g>
<!-- Node20&#45;&gt;Node22 -->
<g id="edge30" class="edge">
<title>Node20&#45;&gt;Node22</title>
<path fill="none" stroke="midnightblue" d="M441.69,-472.5C449.73,-462.92 458.37,-452.62 465.93,-443.61"/>
<polygon fill="midnightblue" stroke="midnightblue" points="438.86,-470.43 435.11,-480.34 444.22,-474.93 438.86,-470.43"/>
</g>
<!-- Node21&#45;&gt;Node5 -->
<g id="edge27" class="edge">
<title>Node21&#45;&gt;Node5</title>
<path fill="none" stroke="midnightblue" d="M358.34,-395.38C379.98,-375.54 414.24,-345.75 447,-324 469.1,-309.33 496.57,-295.83 514.66,-287.52"/>
<polygon fill="midnightblue" stroke="midnightblue" points="355.93,-392.84 350.97,-402.2 360.69,-397.98 355.93,-392.84"/>
</g>
<!-- Node21&#45;&gt;Node7 -->
<g id="edge29" class="edge">
<title>Node21&#45;&gt;Node7</title>
<path fill="none" stroke="midnightblue" d="M380.86,-399.05C389.45,-396.09 398.44,-393.25 407,-391 498.58,-366.9 533.74,-400.1 617,-355 704.94,-307.37 698,-259.41 770,-190 788.23,-172.42 810.91,-153.5 824.09,-142.76"/>
<polygon fill="midnightblue" stroke="midnightblue" points="379.62,-395.78 371.37,-402.42 381.97,-402.37 379.62,-395.78"/>
</g>
<!-- Node21&#45;&gt;Node17 -->
<g id="edge28" class="edge">
<title>Node21&#45;&gt;Node17</title>
<path fill="none" stroke="midnightblue" d="M381.86,-398.72C416.6,-385.25 463.67,-367 495.79,-354.54"/>
<polygon fill="midnightblue" stroke="midnightblue" points="380.47,-395.5 372.41,-402.38 383,-402.03 380.47,-395.5"/>
</g>
<!-- Node23&#45;&gt;Node20 -->
<g id="edge32" class="edge">
<title>Node23&#45;&gt;Node20</title>
<path fill="none" stroke="midnightblue" d="M345.89,-563.01C357.78,-553.32 371.24,-542.35 383.05,-532.73"/>
<polygon fill="midnightblue" stroke="midnightblue" points="343.49,-560.45 337.95,-569.48 347.92,-565.87 343.49,-560.45"/>
</g>
<!-- Node23&#45;&gt;Node21 -->
<g id="edge33" class="edge">
<title>Node23&#45;&gt;Node21</title>
<path fill="none" stroke="midnightblue" d="M317.84,-559.27C322.6,-522.31 330.55,-460.71 334.14,-432.9"/>
<polygon fill="midnightblue" stroke="midnightblue" points="314.33,-559.08 316.52,-569.44 321.27,-559.97 314.33,-559.08"/>
</g>
<!-- Node24 -->
<g id="node24" class="node">
<title>Node24</title>
<g id="a_node24"><a xlink:href="csv__weight__importer_8cpp.html" target="_top" xlink:title=" ">
<polygon fill="white" stroke="black" points="142.5,-486 142.5,-527 285.5,-527 285.5,-486 142.5,-486"/>
<text text-anchor="start" x="150.5" y="-515" font-family="Helvetica,sans-Serif" font-size="10.00">src/IO_Interaction</text>
<text text-anchor="start" x="150.5" y="-504" font-family="Helvetica,sans-Serif" font-size="10.00">/Weight_Importer_Helpers</text>
<text text-anchor="middle" x="214" y="-493" font-family="Helvetica,sans-Serif" font-size="10.00">/csv_weight_importer.cpp</text>
</a>
</g>
</g>
<!-- Node23&#45;&gt;Node24 -->
<g id="edge34" class="edge">
<title>Node23&#45;&gt;Node24</title>
<path fill="none" stroke="midnightblue" d="M281.97,-562.89C267.74,-551.3 251.27,-537.87 238.1,-527.14"/>
<polygon fill="midnightblue" stroke="midnightblue" points="280.08,-565.87 290.05,-569.48 284.51,-560.45 280.08,-565.87"/>
</g>
<!-- Node25&#45;&gt;Node5 -->
<g id="edge37" class="edge">
<title>Node25&#45;&gt;Node5</title>
<path fill="none" stroke="midnightblue" d="M587.42,-715.12C593.24,-684.22 605.97,-621.07 622,-569 627.05,-552.59 632.83,-549.87 636,-533 640.34,-509.85 637.43,-503.51 636,-480 631.77,-410.28 656.3,-381.74 617,-324 604.64,-305.84 582.48,-294.36 564.16,-287.55"/>
<polygon fill="midnightblue" stroke="midnightblue" points="583.92,-714.83 585.54,-725.29 590.8,-716.1 583.92,-714.83"/>
</g>
<!-- Node25&#45;&gt;Node6 -->
<g id="edge39" class="edge">
<title>Node25&#45;&gt;Node6</title>
<path fill="none" stroke="midnightblue" d="M643.9,-723.18C711.15,-707.17 811,-670.08 811,-591 811,-591 811,-591 811,-338.5 811,-296.08 830.84,-248.91 841.85,-226"/>
<polygon fill="midnightblue" stroke="midnightblue" points="642.79,-719.84 633.82,-725.48 644.34,-726.66 642.79,-719.84"/>
</g>
<!-- Node25&#45;&gt;Node16 -->
<g id="edge38" class="edge">
<title>Node25&#45;&gt;Node16</title>
<path fill="none" stroke="midnightblue" d="M582.42,-715.19C578.7,-670.88 569.46,-560.69 566.18,-521.56"/>
<polygon fill="midnightblue" stroke="midnightblue" points="578.95,-715.73 583.28,-725.4 585.93,-715.14 578.95,-715.73"/>
</g>
<!-- Node25&#45;&gt;Node19 -->
<g id="edge40" class="edge">
<title>Node25&#45;&gt;Node19</title>
<path fill="none" stroke="midnightblue" d="M547.07,-722.23C517.71,-712.88 475.99,-699.59 441.59,-688.63"/>
<polygon fill="midnightblue" stroke="midnightblue" points="546.32,-725.67 556.91,-725.37 548.44,-719 546.32,-725.67"/>
</g>
<!-- Node26&#45;&gt;Node4 -->
<g id="edge47" class="edge">
<title>Node26&#45;&gt;Node4</title>
<path fill="none" stroke="midnightblue" d="M488.92,-844.46C466.56,-834.82 435.69,-821.51 412.52,-811.52"/>
<polygon fill="midnightblue" stroke="midnightblue" points="487.66,-847.73 498.23,-848.48 490.43,-841.3 487.66,-847.73"/>
</g>
<!-- Node27 -->
<g id="node27" class="node">
<title>Node27</title>
<g id="a_node27"><a xlink:href="computer__memory_8h.html" target="_top" xlink:title=" ">
<polygon fill="white" stroke="black" points="631,-575 631,-605 783,-605 783,-575 631,-575"/>
<text text-anchor="start" x="639" y="-593" font-family="Helvetica,sans-Serif" font-size="10.00">include/Computer/computer</text>
<text text-anchor="middle" x="707" y="-582" font-family="Helvetica,sans-Serif" font-size="10.00">_memory.h</text>
</a>
</g>
</g>
<!-- Node26&#45;&gt;Node27 -->
<g id="edge42" class="edge">
<title>Node26&#45;&gt;Node27</title>
<path fill="none" stroke="midnightblue" d="M545.88,-843.92C580.22,-826.35 637.84,-791.82 669,-745 698.91,-700.07 705.29,-633.67 706.64,-605.01"/>
<polygon fill="midnightblue" stroke="midnightblue" points="544.23,-840.83 536.85,-848.43 547.36,-847.1 544.23,-840.83"/>
</g>
<!-- Node27&#45;&gt;Node5 -->
<g id="edge43" class="edge">
<title>Node27&#45;&gt;Node5</title>
<path fill="none" stroke="midnightblue" d="M708.88,-564.89C711.49,-514.05 710.32,-394.71 650,-324 633.74,-304.94 608.4,-293.91 585.54,-287.55"/>
<polygon fill="midnightblue" stroke="midnightblue" points="705.38,-564.74 708.27,-574.93 712.37,-565.16 705.38,-564.74"/>
</g>
<!-- Node27&#45;&gt;Node11 -->
<g id="edge46" class="edge">
<title>Node27&#45;&gt;Node11</title>
<path fill="none" stroke="midnightblue" d="M716.98,-565.17C729.69,-532.64 750,-472.22 750,-418.5 750,-418.5 750,-418.5 750,-277 750,-194.16 696,-103.79 677.86,-75.77"/>
<polygon fill="midnightblue" stroke="midnightblue" points="713.63,-564.13 713.16,-574.71 720.13,-566.73 713.63,-564.13"/>
</g>
<!-- Node27&#45;&gt;Node16 -->
<g id="edge44" class="edge">
<title>Node27&#45;&gt;Node16</title>
<path fill="none" stroke="midnightblue" d="M673.9,-570C648.11,-555.2 612.89,-534.98 589.57,-521.6"/>
<polygon fill="midnightblue" stroke="midnightblue" points="672.17,-573.05 682.59,-574.99 675.66,-566.98 672.17,-573.05"/>
</g>
<!-- Node27&#45;&gt;Node20 -->
<g id="edge45" class="edge">
<title>Node27&#45;&gt;Node20</title>
<path fill="none" stroke="midnightblue" d="M641.19,-572.46C599.22,-561.7 543.75,-547.1 495,-533 492.03,-532.14 488.99,-531.25 485.94,-530.34"/>
<polygon fill="midnightblue" stroke="midnightblue" points="640.45,-575.89 651.01,-574.97 642.19,-569.1 640.45,-575.89"/>
</g>
<!-- Node28&#45;&gt;Node2 -->
<g id="edge50" class="edge">
<title>Node28&#45;&gt;Node2</title>
<path fill="none" stroke="midnightblue" d="M443.36,-1007.2C448.07,-997.52 453.26,-986.88 456.78,-979.66"/>
<polygon fill="midnightblue" stroke="midnightblue" points="440.11,-1005.88 438.87,-1016.4 446.4,-1008.94 440.11,-1005.88"/>
</g>
</g>
</svg>
