<?xml version="1.0" encoding="UTF-8" standalone="no"?>
<!DOCTYPE svg PUBLIC "-//W3C//DTD SVG 1.1//EN"
 "http://www.w3.org/Graphics/SVG/1.1/DTD/svg11.dtd">
<!-- Generated by graphviz version 2.43.0 (0)
 -->
<!-- Title: include/network_butcher/Types/content.h Pages: 1 -->
<svg width="927pt" height="1232pt"
 viewBox="0.00 0.00 927.00 1232.00" xmlns="http://www.w3.org/2000/svg" xmlns:xlink="http://www.w3.org/1999/xlink">
<g id="graph0" class="graph" transform="scale(1 1) rotate(0) translate(4 1228)">
<title>include/network_butcher/Types/content.h</title>
<polygon fill="white" stroke="transparent" points="-4,4 -4,-1228 923,-1228 923,4 -4,4"/>
<!-- Node1 -->
<g id="node1" class="node">
<title>Node1</title>
<g id="a_node1"><a xlink:title=" ">
<polygon fill="#bfbfbf" stroke="black" points="561.5,-1193.5 561.5,-1223.5 698.5,-1223.5 698.5,-1193.5 561.5,-1193.5"/>
<text text-anchor="start" x="569.5" y="-1211.5" font-family="Helvetica,sans-Serif" font-size="10.00">include/network_butcher</text>
<text text-anchor="middle" x="630" y="-1200.5" font-family="Helvetica,sans-Serif" font-size="10.00">/Types/content.h</text>
</a>
</g>
</g>
<!-- Node2 -->
<g id="node2" class="node">
<title>Node2</title>
<g id="a_node2"><a xlink:href="graph_8h.html" target="_top" xlink:title=" ">
<polygon fill="white" stroke="black" points="483.5,-1059.5 483.5,-1089.5 620.5,-1089.5 620.5,-1059.5 483.5,-1059.5"/>
<text text-anchor="start" x="491.5" y="-1077.5" font-family="Helvetica,sans-Serif" font-size="10.00">include/network_butcher</text>
<text text-anchor="middle" x="552" y="-1066.5" font-family="Helvetica,sans-Serif" font-size="10.00">/Network/graph.h</text>
</a>
</g>
</g>
<!-- Node1&#45;&gt;Node2 -->
<g id="edge1" class="edge">
<title>Node1&#45;&gt;Node2</title>
<path fill="none" stroke="midnightblue" d="M627.92,-1182.99C625.57,-1165.98 620.58,-1143.35 610,-1126 601.03,-1111.29 586.38,-1098.59 574.04,-1089.6"/>
<polygon fill="midnightblue" stroke="midnightblue" points="624.48,-1183.72 629.11,-1193.25 631.43,-1182.91 624.48,-1183.72"/>
</g>
<!-- Node21 -->
<g id="node21" class="node">
<title>Node21</title>
<g id="a_node21"><a xlink:href="graph__traits_8h.html" target="_top" xlink:title=" ">
<polygon fill="white" stroke="black" points="561.5,-858.5 561.5,-888.5 698.5,-888.5 698.5,-858.5 561.5,-858.5"/>
<text text-anchor="start" x="569.5" y="-876.5" font-family="Helvetica,sans-Serif" font-size="10.00">include/network_butcher</text>
<text text-anchor="middle" x="630" y="-865.5" font-family="Helvetica,sans-Serif" font-size="10.00">/Network/graph_traits.h</text>
</a>
</g>
</g>
<!-- Node1&#45;&gt;Node21 -->
<g id="edge52" class="edge">
<title>Node1&#45;&gt;Node21</title>
<path fill="none" stroke="midnightblue" d="M641.15,-1183.86C652.37,-1157.89 668,-1114.66 668,-1075.5 668,-1075.5 668,-1075.5 668,-1006.5 668,-962.14 647.94,-912.56 636.97,-888.76"/>
<polygon fill="midnightblue" stroke="midnightblue" points="637.85,-1182.68 636.97,-1193.24 644.24,-1185.53 637.85,-1182.68"/>
</g>
<!-- Node27 -->
<g id="node27" class="node">
<title>Node27</title>
<g id="a_node27"><a xlink:href="node__traits_8h.html" target="_top" xlink:title=" ">
<polygon fill="white" stroke="black" points="464.5,-1126.5 464.5,-1156.5 601.5,-1156.5 601.5,-1126.5 464.5,-1126.5"/>
<text text-anchor="start" x="472.5" y="-1144.5" font-family="Helvetica,sans-Serif" font-size="10.00">include/network_butcher</text>
<text text-anchor="middle" x="533" y="-1133.5" font-family="Helvetica,sans-Serif" font-size="10.00">/Network/node_traits.h</text>
</a>
</g>
</g>
<!-- Node1&#45;&gt;Node27 -->
<g id="edge50" class="edge">
<title>Node1&#45;&gt;Node27</title>
<path fill="none" stroke="midnightblue" d="M600.5,-1187.73C585.49,-1177.68 567.6,-1165.68 554.01,-1156.58"/>
<polygon fill="midnightblue" stroke="midnightblue" points="598.7,-1190.74 608.95,-1193.4 602.59,-1184.92 598.7,-1190.74"/>
</g>
<!-- Node3 -->
<g id="node3" class="node">
<title>Node3</title>
<g id="a_node3"><a xlink:href="mwgraph_8h.html" target="_top" xlink:title=" ">
<polygon fill="white" stroke="black" points="464.5,-992.5 464.5,-1022.5 601.5,-1022.5 601.5,-992.5 464.5,-992.5"/>
<text text-anchor="start" x="472.5" y="-1010.5" font-family="Helvetica,sans-Serif" font-size="10.00">include/network_butcher</text>
<text text-anchor="middle" x="533" y="-999.5" font-family="Helvetica,sans-Serif" font-size="10.00">/Network/mwgraph.h</text>
</a>
</g>
</g>
<!-- Node2&#45;&gt;Node3 -->
<g id="edge2" class="edge">
<title>Node2&#45;&gt;Node3</title>
<path fill="none" stroke="midnightblue" d="M545.04,-1049.7C542.38,-1040.59 539.43,-1030.49 537.11,-1022.58"/>
<polygon fill="midnightblue" stroke="midnightblue" points="541.71,-1050.78 547.88,-1059.4 548.43,-1048.82 541.71,-1050.78"/>
</g>
<!-- Node2&#45;&gt;Node21 -->
<g id="edge49" class="edge">
<title>Node2&#45;&gt;Node21</title>
<path fill="none" stroke="midnightblue" d="M583.25,-1053.24C593.39,-1045.07 603.65,-1034.78 610,-1023 633.94,-978.57 633.08,-916.2 631.26,-888.59"/>
<polygon fill="midnightblue" stroke="midnightblue" points="581.07,-1050.5 575.21,-1059.33 585.3,-1056.08 581.07,-1050.5"/>
</g>
<!-- Node4 -->
<g id="node4" class="node">
<title>Node4</title>
<g id="a_node4"><a xlink:href="wgraph_8h.html" target="_top" xlink:title=" ">
<polygon fill="white" stroke="black" points="426.5,-925.5 426.5,-955.5 563.5,-955.5 563.5,-925.5 426.5,-925.5"/>
<text text-anchor="start" x="434.5" y="-943.5" font-family="Helvetica,sans-Serif" font-size="10.00">include/network_butcher</text>
<text text-anchor="middle" x="495" y="-932.5" font-family="Helvetica,sans-Serif" font-size="10.00">/Network/wgraph.h</text>
</a>
</g>
</g>
<!-- Node3&#45;&gt;Node4 -->
<g id="edge3" class="edge">
<title>Node3&#45;&gt;Node4</title>
<path fill="none" stroke="midnightblue" d="M519.6,-983.58C514.14,-974.24 508.01,-963.75 503.23,-955.58"/>
<polygon fill="midnightblue" stroke="midnightblue" points="516.69,-985.53 524.75,-992.4 522.73,-982 516.69,-985.53"/>
</g>
<!-- Node3&#45;&gt;Node21 -->
<g id="edge48" class="edge">
<title>Node3&#45;&gt;Node21</title>
<path fill="none" stroke="midnightblue" d="M550.26,-984.54C557.1,-975.73 565,-965.44 572,-956 589.27,-932.7 608.69,-905.12 620.11,-888.76"/>
<polygon fill="midnightblue" stroke="midnightblue" points="547.47,-982.43 544.08,-992.46 552.99,-986.73 547.47,-982.43"/>
</g>
<!-- Node5 -->
<g id="node5" class="node">
<title>Node5</title>
<g id="a_node5"><a xlink:href="computer__memory_8h.html" target="_top" xlink:title=" ">
<polygon fill="white" stroke="black" points="28.5,-624.5 28.5,-654.5 199.5,-654.5 199.5,-624.5 28.5,-624.5"/>
<text text-anchor="start" x="36.5" y="-642.5" font-family="Helvetica,sans-Serif" font-size="10.00">include/network_butcher</text>
<text text-anchor="middle" x="114" y="-631.5" font-family="Helvetica,sans-Serif" font-size="10.00">/Computer/computer_memory.h</text>
</a>
</g>
</g>
<!-- Node4&#45;&gt;Node5 -->
<g id="edge4" class="edge">
<title>Node4&#45;&gt;Node5</title>
<path fill="none" stroke="midnightblue" d="M455.66,-921.01C395.77,-891.61 280.14,-829.8 199,-755 165.33,-723.96 135.93,-677.98 122.22,-654.87"/>
<polygon fill="midnightblue" stroke="midnightblue" points="454.25,-924.22 464.78,-925.45 457.32,-917.93 454.25,-924.22"/>
</g>
<!-- Node4&#45;&gt;Node21 -->
<g id="edge28" class="edge">
<title>Node4&#45;&gt;Node21</title>
<path fill="none" stroke="midnightblue" d="M533.44,-920.99C554.84,-910.69 581.05,-898.07 600.76,-888.58"/>
<polygon fill="midnightblue" stroke="midnightblue" points="531.78,-917.9 524.29,-925.4 534.82,-924.21 531.78,-917.9"/>
</g>
<!-- Node6 -->
<g id="node6" class="node">
<title>Node6</title>
<g id="a_node6"><a xlink:href="butcher_8h.html" target="_top" xlink:title=" ">
<polygon fill="white" stroke="black" points="504.5,-290.5 504.5,-320.5 641.5,-320.5 641.5,-290.5 504.5,-290.5"/>
<text text-anchor="start" x="512.5" y="-308.5" font-family="Helvetica,sans-Serif" font-size="10.00">include/network_butcher</text>
<text text-anchor="middle" x="573" y="-297.5" font-family="Helvetica,sans-Serif" font-size="10.00">/Butcher/butcher.h</text>
</a>
</g>
</g>
<!-- Node5&#45;&gt;Node6 -->
<g id="edge5" class="edge">
<title>Node5&#45;&gt;Node6</title>
<path fill="none" stroke="midnightblue" d="M108.38,-614.37C96.86,-558.03 77.89,-417.97 157,-357 209.8,-316.31 400.17,-308 504.1,-306.56"/>
<polygon fill="midnightblue" stroke="midnightblue" points="105.03,-615.44 110.55,-624.48 111.87,-613.96 105.03,-615.44"/>
</g>
<!-- Node10 -->
<g id="node10" class="node">
<title>Node10</title>
<g id="a_node10"><a xlink:href="network__butcher_8h.html" target="_top" xlink:title=" ">
<polygon fill="white" stroke="black" points="26.5,-0.5 26.5,-30.5 163.5,-30.5 163.5,-0.5 26.5,-0.5"/>
<text text-anchor="start" x="34.5" y="-18.5" font-family="Helvetica,sans-Serif" font-size="10.00">include/network_butcher</text>
<text text-anchor="middle" x="95" y="-7.5" font-family="Helvetica,sans-Serif" font-size="10.00">/network_butcher.h</text>
</a>
</g>
</g>
<!-- Node5&#45;&gt;Node10 -->
<g id="edge27" class="edge">
<title>Node5&#45;&gt;Node10</title>
<path fill="none" stroke="midnightblue" d="M101.24,-615.15C84.44,-582.16 57,-519.55 57,-462.5 57,-462.5 57,-462.5 57,-154 57,-107.44 77.49,-55.11 88.38,-30.6"/>
<polygon fill="midnightblue" stroke="midnightblue" points="98.34,-617.16 106.07,-624.4 104.55,-613.92 98.34,-617.16"/>
</g>
<!-- Node16 -->
<g id="node16" class="node">
<title>Node16</title>
<g id="a_node16"><a xlink:href="graph__constraint_8h.html" target="_top" xlink:title=" ">
<polygon fill="white" stroke="black" points="549.5,-535.5 549.5,-565.5 700.5,-565.5 700.5,-535.5 549.5,-535.5"/>
<text text-anchor="start" x="557.5" y="-553.5" font-family="Helvetica,sans-Serif" font-size="10.00">include/network_butcher</text>
<text text-anchor="middle" x="625" y="-542.5" font-family="Helvetica,sans-Serif" font-size="10.00">/Butcher/graph_constraint.h</text>
</a>
</g>
</g>
<!-- Node5&#45;&gt;Node16 -->
<g id="edge18" class="edge">
<title>Node5&#45;&gt;Node16</title>
<path fill="none" stroke="midnightblue" d="M209.85,-624.5C288.29,-612.75 402.04,-595.03 501,-577 520.03,-573.53 540.63,-569.44 559.47,-565.55"/>
<polygon fill="midnightblue" stroke="midnightblue" points="208.87,-621.11 199.5,-626.05 209.91,-628.03 208.87,-621.11"/>
</g>
<!-- Node18 -->
<g id="node18" class="node">
<title>Node18</title>
<g id="a_node18"><a xlink:href="block__aMLLibrary__weight__importer_8h.html" target="_top" xlink:title=" ">
<polygon fill="white" stroke="black" points="161,-524.5 161,-576.5 331,-576.5 331,-524.5 161,-524.5"/>
<text text-anchor="start" x="169" y="-564.5" font-family="Helvetica,sans-Serif" font-size="10.00">include/network_butcher</text>
<text text-anchor="start" x="169" y="-553.5" font-family="Helvetica,sans-Serif" font-size="10.00">/IO_Interaction/Weight</text>
<text text-anchor="start" x="169" y="-542.5" font-family="Helvetica,sans-Serif" font-size="10.00">_Importer_Helpers/block</text>
<text text-anchor="middle" x="246" y="-531.5" font-family="Helvetica,sans-Serif" font-size="10.00">_aMLLibrary_weight_importer.h</text>
</a>
</g>
</g>
<!-- Node5&#45;&gt;Node18 -->
<g id="edge21" class="edge">
<title>Node5&#45;&gt;Node18</title>
<path fill="none" stroke="midnightblue" d="M144.04,-618.7C163,-606.21 187.66,-589.95 207.97,-576.56"/>
<polygon fill="midnightblue" stroke="midnightblue" points="141.93,-615.9 135.5,-624.33 145.78,-621.75 141.93,-615.9"/>
</g>
<!-- Node7 -->
<g id="node7" class="node">
<title>Node7</title>
<g id="a_node7"><a xlink:href="onnx__importer__helpers_8h.html" target="_top" xlink:title=" ">
<polygon fill="white" stroke="black" points="492,-212.5 492,-253.5 654,-253.5 654,-212.5 492,-212.5"/>
<text text-anchor="start" x="500" y="-241.5" font-family="Helvetica,sans-Serif" font-size="10.00">include/network_butcher</text>
<text text-anchor="start" x="500" y="-230.5" font-family="Helvetica,sans-Serif" font-size="10.00">/IO_Interaction/onnx_importer</text>
<text text-anchor="middle" x="573" y="-219.5" font-family="Helvetica,sans-Serif" font-size="10.00">_helpers.h</text>
</a>
</g>
</g>
<!-- Node6&#45;&gt;Node7 -->
<g id="edge6" class="edge">
<title>Node6&#45;&gt;Node7</title>
<path fill="none" stroke="midnightblue" d="M573,-279.98C573,-271.35 573,-261.76 573,-253.59"/>
<polygon fill="midnightblue" stroke="midnightblue" points="569.5,-280.23 573,-290.23 576.5,-280.23 569.5,-280.23"/>
</g>
<!-- Node6&#45;&gt;Node10 -->
<g id="edge17" class="edge">
<title>Node6&#45;&gt;Node10</title>
<path fill="none" stroke="midnightblue" d="M501.89,-287.9C426.09,-268.3 304.26,-231.22 210,-176 164.62,-149.41 149.82,-142 121,-98 107.16,-76.88 100.24,-47.87 97.15,-30.76"/>
<polygon fill="midnightblue" stroke="midnightblue" points="501.26,-291.35 511.81,-290.44 502.99,-284.57 501.26,-291.35"/>
</g>
<!-- Node14 -->
<g id="node14" class="node">
<title>Node14</title>
<g id="a_node14"><a xlink:href="onnx__model__reconstructor__helpers_8h.html" target="_top" xlink:title=" ">
<polygon fill="white" stroke="black" points="672.5,-212.5 672.5,-253.5 823.5,-253.5 823.5,-212.5 672.5,-212.5"/>
<text text-anchor="start" x="680.5" y="-241.5" font-family="Helvetica,sans-Serif" font-size="10.00">include/network_butcher</text>
<text text-anchor="start" x="680.5" y="-230.5" font-family="Helvetica,sans-Serif" font-size="10.00">/IO_Interaction/onnx_model</text>
<text text-anchor="middle" x="748" y="-219.5" font-family="Helvetica,sans-Serif" font-size="10.00">_reconstructor_helpers.h</text>
</a>
</g>
</g>
<!-- Node6&#45;&gt;Node14 -->
<g id="edge14" class="edge">
<title>Node6&#45;&gt;Node14</title>
<path fill="none" stroke="midnightblue" d="M617.6,-286.53C642.62,-276.45 673.85,-263.87 699.48,-253.55"/>
<polygon fill="midnightblue" stroke="midnightblue" points="615.96,-283.42 607.99,-290.4 618.58,-289.91 615.96,-283.42"/>
</g>
<!-- Node8 -->
<g id="node8" class="node">
<title>Node8</title>
<g id="a_node8"><a xlink:href="io__manager_8h.html" target="_top" xlink:title=" ">
<polygon fill="white" stroke="black" points="219.5,-140 219.5,-170 356.5,-170 356.5,-140 219.5,-140"/>
<text text-anchor="start" x="227.5" y="-158" font-family="Helvetica,sans-Serif" font-size="10.00">include/network_butcher</text>
<text text-anchor="middle" x="288" y="-147" font-family="Helvetica,sans-Serif" font-size="10.00">/io_manager.h</text>
</a>
</g>
</g>
<!-- Node7&#45;&gt;Node8 -->
<g id="edge7" class="edge">
<title>Node7&#45;&gt;Node8</title>
<path fill="none" stroke="midnightblue" d="M489.83,-209.82C441.74,-197 382.68,-181.25 340.9,-170.11"/>
<polygon fill="midnightblue" stroke="midnightblue" points="489.04,-213.23 499.61,-212.43 490.84,-206.47 489.04,-213.23"/>
</g>
<!-- Node13 -->
<g id="node13" class="node">
<title>Node13</title>
<g id="a_node13"><a xlink:href="onnx__importer__helpers_8cpp.html" target="_top" xlink:title=" ">
<polygon fill="white" stroke="black" points="497,-140 497,-170 649,-170 649,-140 497,-140"/>
<text text-anchor="start" x="505" y="-158" font-family="Helvetica,sans-Serif" font-size="10.00">src/IO_Interaction</text>
<text text-anchor="middle" x="573" y="-147" font-family="Helvetica,sans-Serif" font-size="10.00">/onnx_importer_helpers.cpp</text>
</a>
</g>
</g>
<!-- Node7&#45;&gt;Node13 -->
<g id="edge13" class="edge">
<title>Node7&#45;&gt;Node13</title>
<path fill="none" stroke="midnightblue" d="M573,-202.28C573,-191.25 573,-179.25 573,-170.23"/>
<polygon fill="midnightblue" stroke="midnightblue" points="569.5,-202.43 573,-212.43 576.5,-202.43 569.5,-202.43"/>
</g>
<!-- Node9 -->
<g id="node9" class="node">
<title>Node9</title>
<g id="a_node9"><a xlink:href="general__manager_8h.html" target="_top" xlink:title=" ">
<polygon fill="white" stroke="black" points="290.5,-67.5 290.5,-97.5 427.5,-97.5 427.5,-67.5 290.5,-67.5"/>
<text text-anchor="start" x="298.5" y="-85.5" font-family="Helvetica,sans-Serif" font-size="10.00">include/network_butcher</text>
<text text-anchor="middle" x="359" y="-74.5" font-family="Helvetica,sans-Serif" font-size="10.00">/general_manager.h</text>
</a>
</g>
</g>
<!-- Node8&#45;&gt;Node9 -->
<g id="edge8" class="edge">
<title>Node8&#45;&gt;Node9</title>
<path fill="none" stroke="midnightblue" d="M309.79,-132.36C321.12,-121.11 334.65,-107.68 344.65,-97.75"/>
<polygon fill="midnightblue" stroke="midnightblue" points="307,-130.2 302.37,-139.73 311.93,-135.17 307,-130.2"/>
</g>
<!-- Node8&#45;&gt;Node10 -->
<g id="edge11" class="edge">
<title>Node8&#45;&gt;Node10</title>
<path fill="none" stroke="midnightblue" d="M225.26,-136.6C200.71,-127.73 173.37,-115.13 152,-98 128.69,-79.32 110.85,-48.67 101.74,-30.76"/>
<polygon fill="midnightblue" stroke="midnightblue" points="224.28,-139.96 234.87,-139.93 226.57,-133.35 224.28,-139.96"/>
</g>
<!-- Node12 -->
<g id="node12" class="node">
<title>Node12</title>
<g id="a_node12"><a xlink:href="io__manager_8cpp.html" target="_top" xlink:title=" ">
<polygon fill="white" stroke="black" points="161.5,-73 161.5,-92 272.5,-92 272.5,-73 161.5,-73"/>
<text text-anchor="middle" x="217" y="-80" font-family="Helvetica,sans-Serif" font-size="10.00">src/io_manager.cpp</text>
</a>
</g>
</g>
<!-- Node8&#45;&gt;Node12 -->
<g id="edge12" class="edge">
<title>Node8&#45;&gt;Node12</title>
<path fill="none" stroke="midnightblue" d="M266.49,-132.64C252.91,-119.15 236.08,-102.44 225.96,-92.39"/>
<polygon fill="midnightblue" stroke="midnightblue" points="264.07,-135.17 273.63,-139.73 269,-130.2 264.07,-135.17"/>
</g>
<!-- Node9&#45;&gt;Node10 -->
<g id="edge9" class="edge">
<title>Node9&#45;&gt;Node10</title>
<path fill="none" stroke="midnightblue" d="M292.19,-65.05C249.03,-54.43 193.46,-40.74 152.31,-30.61"/>
<polygon fill="midnightblue" stroke="midnightblue" points="291.49,-68.48 302.04,-67.48 293.17,-61.69 291.49,-68.48"/>
</g>
<!-- Node11 -->
<g id="node11" class="node">
<title>Node11</title>
<g id="a_node11"><a xlink:href="general__manager_8cpp.html" target="_top" xlink:title=" ">
<polygon fill="white" stroke="black" points="289.5,-6 289.5,-25 428.5,-25 428.5,-6 289.5,-6"/>
<text text-anchor="middle" x="359" y="-13" font-family="Helvetica,sans-Serif" font-size="10.00">src/general_manager.cpp</text>
</a>
</g>
</g>
<!-- Node9&#45;&gt;Node11 -->
<g id="edge10" class="edge">
<title>Node9&#45;&gt;Node11</title>
<path fill="none" stroke="midnightblue" d="M359,-57.25C359,-46.02 359,-33.38 359,-25.19"/>
<polygon fill="midnightblue" stroke="midnightblue" points="355.5,-57.4 359,-67.4 362.5,-57.4 355.5,-57.4"/>
</g>
<!-- Node14&#45;&gt;Node8 -->
<g id="edge15" class="edge">
<title>Node14&#45;&gt;Node8</title>
<path fill="none" stroke="midnightblue" d="M662.24,-211.93C549.64,-190.61 430.01,-174.01 356.72,-164.52"/>
<polygon fill="midnightblue" stroke="midnightblue" points="661.59,-215.37 672.07,-213.8 662.9,-208.49 661.59,-215.37"/>
</g>
<!-- Node15 -->
<g id="node15" class="node">
<title>Node15</title>
<g id="a_node15"><a xlink:href="onnx__model__reconstructor__helpers_8cpp.html" target="_top" xlink:title=" ">
<polygon fill="white" stroke="black" points="673.5,-134.5 673.5,-175.5 822.5,-175.5 822.5,-134.5 673.5,-134.5"/>
<text text-anchor="start" x="681.5" y="-163.5" font-family="Helvetica,sans-Serif" font-size="10.00">src/IO_Interaction</text>
<text text-anchor="start" x="681.5" y="-152.5" font-family="Helvetica,sans-Serif" font-size="10.00">/onnx_model_reconstructor</text>
<text text-anchor="middle" x="748" y="-141.5" font-family="Helvetica,sans-Serif" font-size="10.00">_helpers.cpp</text>
</a>
</g>
</g>
<!-- Node14&#45;&gt;Node15 -->
<g id="edge16" class="edge">
<title>Node14&#45;&gt;Node15</title>
<path fill="none" stroke="midnightblue" d="M748,-202.3C748,-193.3 748,-183.65 748,-175.51"/>
<polygon fill="midnightblue" stroke="midnightblue" points="744.5,-202.43 748,-212.43 751.5,-202.43 744.5,-202.43"/>
</g>
<!-- Node17 -->
<g id="node17" class="node">
<title>Node17</title>
<g id="a_node17"><a xlink:href="constrained__block__graph__builder_8h.html" target="_top" xlink:title=" ">
<polygon fill="white" stroke="black" points="550.5,-357.5 550.5,-398.5 699.5,-398.5 699.5,-357.5 550.5,-357.5"/>
<text text-anchor="start" x="558.5" y="-386.5" font-family="Helvetica,sans-Serif" font-size="10.00">include/network_butcher</text>
<text text-anchor="start" x="558.5" y="-375.5" font-family="Helvetica,sans-Serif" font-size="10.00">/Butcher/constrained_block</text>
<text text-anchor="middle" x="625" y="-364.5" font-family="Helvetica,sans-Serif" font-size="10.00">_graph_builder.h</text>
</a>
</g>
</g>
<!-- Node16&#45;&gt;Node17 -->
<g id="edge19" class="edge">
<title>Node16&#45;&gt;Node17</title>
<path fill="none" stroke="midnightblue" d="M625,-525.25C625,-491.26 625,-430.11 625,-398.74"/>
<polygon fill="midnightblue" stroke="midnightblue" points="621.5,-525.26 625,-535.26 628.5,-525.26 621.5,-525.26"/>
</g>
<!-- Node17&#45;&gt;Node6 -->
<g id="edge20" class="edge">
<title>Node17&#45;&gt;Node6</title>
<path fill="none" stroke="midnightblue" d="M604.45,-349.14C597.32,-339.47 589.61,-329.02 583.62,-320.89"/>
<polygon fill="midnightblue" stroke="midnightblue" points="601.76,-351.39 610.52,-357.36 607.4,-347.24 601.76,-351.39"/>
</g>
<!-- Node19 -->
<g id="node19" class="node">
<title>Node19</title>
<g id="a_node19"><a xlink:href="weight__importers_8h.html" target="_top" xlink:title=" ">
<polygon fill="white" stroke="black" points="452.5,-441 452.5,-482 589.5,-482 589.5,-441 452.5,-441"/>
<text text-anchor="start" x="460.5" y="-470" font-family="Helvetica,sans-Serif" font-size="10.00">include/network_butcher</text>
<text text-anchor="start" x="460.5" y="-459" font-family="Helvetica,sans-Serif" font-size="10.00">/IO_Interaction/weight</text>
<text text-anchor="middle" x="521" y="-448" font-family="Helvetica,sans-Serif" font-size="10.00">_importers.h</text>
</a>
</g>
</g>
<!-- Node18&#45;&gt;Node19 -->
<g id="edge22" class="edge">
<title>Node18&#45;&gt;Node19</title>
<path fill="none" stroke="midnightblue" d="M334.78,-521.41C375.3,-508.59 422.3,-493.73 458.94,-482.13"/>
<polygon fill="midnightblue" stroke="midnightblue" points="333.65,-518.1 325.17,-524.45 335.76,-524.77 333.65,-518.1"/>
</g>
<!-- Node20 -->
<g id="node20" class="node">
<title>Node20</title>
<g id="a_node20"><a xlink:href="block__aMLLibrary__weight__importer_8cpp.html" target="_top" xlink:title=" ">
<polygon fill="white" stroke="black" points="174.5,-435.5 174.5,-487.5 317.5,-487.5 317.5,-435.5 174.5,-435.5"/>
<text text-anchor="start" x="182.5" y="-475.5" font-family="Helvetica,sans-Serif" font-size="10.00">src/IO_Interaction</text>
<text text-anchor="start" x="182.5" y="-464.5" font-family="Helvetica,sans-Serif" font-size="10.00">/Weight_Importer_Helpers</text>
<text text-anchor="start" x="182.5" y="-453.5" font-family="Helvetica,sans-Serif" font-size="10.00">/block_aMLLibrary_weight</text>
<text text-anchor="middle" x="246" y="-442.5" font-family="Helvetica,sans-Serif" font-size="10.00">_importer.cpp</text>
</a>
</g>
</g>
<!-- Node18&#45;&gt;Node20 -->
<g id="edge26" class="edge">
<title>Node18&#45;&gt;Node20</title>
<path fill="none" stroke="midnightblue" d="M246,-514.19C246,-505.28 246,-495.9 246,-487.61"/>
<polygon fill="midnightblue" stroke="midnightblue" points="242.5,-514.34 246,-524.34 249.5,-514.34 242.5,-514.34"/>
</g>
<!-- Node19&#45;&gt;Node6 -->
<g id="edge23" class="edge">
<title>Node19&#45;&gt;Node6</title>
<path fill="none" stroke="midnightblue" d="M524.21,-430.85C527.17,-409.72 532.57,-380.93 542,-357 547.13,-343.98 555.56,-330.54 562.33,-320.81"/>
<polygon fill="midnightblue" stroke="midnightblue" points="520.73,-430.48 522.92,-440.85 527.67,-431.38 520.73,-430.48"/>
</g>
<!-- Node19&#45;&gt;Node8 -->
<g id="edge25" class="edge">
<title>Node19&#45;&gt;Node8</title>
<path fill="none" stroke="midnightblue" d="M499.73,-432.7C451.45,-369.6 334.98,-217.4 298.87,-170.2"/>
<polygon fill="midnightblue" stroke="midnightblue" points="497.21,-435.17 506.07,-440.99 502.77,-430.92 497.21,-435.17"/>
</g>
<!-- Node19&#45;&gt;Node17 -->
<g id="edge24" class="edge">
<title>Node19&#45;&gt;Node17</title>
<path fill="none" stroke="midnightblue" d="M553.9,-434.72C568.79,-423.05 586.11,-409.47 599.93,-398.64"/>
<polygon fill="midnightblue" stroke="midnightblue" points="551.62,-432.06 545.91,-440.98 555.94,-437.57 551.62,-432.06"/>
</g>
<!-- Node21&#45;&gt;Node6 -->
<g id="edge29" class="edge">
<title>Node21&#45;&gt;Node6</title>
<path fill="none" stroke="midnightblue" d="M708.84,-860.62C755.24,-852.03 807.9,-838.96 824,-822 852.89,-791.56 843,-771.47 843,-729.5 843,-729.5 843,-729.5 843,-549.5 843,-453.09 817.34,-418.39 743,-357 714.51,-333.48 675.38,-320.91 641.84,-314.2"/>
<polygon fill="midnightblue" stroke="midnightblue" points="707.97,-857.22 698.75,-862.44 709.21,-864.11 707.97,-857.22"/>
</g>
<!-- Node21&#45;&gt;Node7 -->
<g id="edge34" class="edge">
<title>Node21&#45;&gt;Node7</title>
<path fill="none" stroke="midnightblue" d="M708.69,-862.17C762.03,-853.7 826.44,-840.16 847,-822 879.83,-793 881,-773.3 881,-729.5 881,-729.5 881,-729.5 881,-377 881,-326.23 741.56,-279.04 650.32,-253.6"/>
<polygon fill="midnightblue" stroke="midnightblue" points="707.87,-858.75 698.53,-863.74 708.94,-865.67 707.87,-858.75"/>
</g>
<!-- Node21&#45;&gt;Node10 -->
<g id="edge42" class="edge">
<title>Node21&#45;&gt;Node10</title>
<path fill="none" stroke="midnightblue" d="M551.3,-860.54C382.32,-832.66 0,-756.72 0,-640.5 0,-640.5 0,-640.5 0,-154 0,-100.9 48.55,-53.46 76.23,-30.71"/>
<polygon fill="midnightblue" stroke="midnightblue" points="550.95,-864.03 561.38,-862.19 552.08,-857.13 550.95,-864.03"/>
</g>
<!-- Node21&#45;&gt;Node14 -->
<g id="edge35" class="edge">
<title>Node21&#45;&gt;Node14</title>
<path fill="none" stroke="midnightblue" d="M708.6,-863.68C769.48,-855.49 847.59,-841.6 873,-822 909.35,-793.95 919,-775.41 919,-729.5 919,-729.5 919,-729.5 919,-377 919,-315.47 853.04,-275.21 803.05,-253.53"/>
<polygon fill="midnightblue" stroke="midnightblue" points="708.06,-860.22 698.6,-864.99 708.98,-867.16 708.06,-860.22"/>
</g>
<!-- Node21&#45;&gt;Node16 -->
<g id="edge31" class="edge">
<title>Node21&#45;&gt;Node16</title>
<path fill="none" stroke="midnightblue" d="M629.62,-848.03C628.63,-784.42 626,-615.42 625.22,-565.54"/>
<polygon fill="midnightblue" stroke="midnightblue" points="626.12,-848.35 629.78,-858.29 633.12,-848.24 626.12,-848.35"/>
</g>
<!-- Node21&#45;&gt;Node17 -->
<g id="edge30" class="edge">
<title>Node21&#45;&gt;Node17</title>
<path fill="none" stroke="midnightblue" d="M638.55,-848.66C662.44,-780.7 727.06,-586.84 710,-524 696.62,-474.72 661.81,-425.06 641.13,-398.56"/>
<polygon fill="midnightblue" stroke="midnightblue" points="635.12,-847.86 635.09,-858.45 641.72,-850.19 635.12,-847.86"/>
</g>
<!-- Node22 -->
<g id="node22" class="node">
<title>Node22</title>
<g id="a_node22"><a xlink:href="path__converter_8h.html" target="_top" xlink:title=" ">
<polygon fill="white" stroke="black" points="208,-713.5 208,-743.5 350,-743.5 350,-713.5 208,-713.5"/>
<text text-anchor="start" x="216" y="-731.5" font-family="Helvetica,sans-Serif" font-size="10.00">include/network_butcher</text>
<text text-anchor="middle" x="279" y="-720.5" font-family="Helvetica,sans-Serif" font-size="10.00">/Butcher/path_converter.h</text>
</a>
</g>
</g>
<!-- Node21&#45;&gt;Node22 -->
<g id="edge32" class="edge">
<title>Node21&#45;&gt;Node22</title>
<path fill="none" stroke="midnightblue" d="M585.86,-854.52C515.11,-825.69 377.79,-769.75 313.62,-743.6"/>
<polygon fill="midnightblue" stroke="midnightblue" points="584.8,-857.87 595.38,-858.4 587.44,-851.38 584.8,-857.87"/>
</g>
<!-- Node23 -->
<g id="node23" class="node">
<title>Node23</title>
<g id="a_node23"><a xlink:href="weight__importer_8h.html" target="_top" xlink:title=" ">
<polygon fill="white" stroke="black" points="419.5,-702.5 419.5,-754.5 562.5,-754.5 562.5,-702.5 419.5,-702.5"/>
<text text-anchor="start" x="427.5" y="-742.5" font-family="Helvetica,sans-Serif" font-size="10.00">include/network_butcher</text>
<text text-anchor="start" x="427.5" y="-731.5" font-family="Helvetica,sans-Serif" font-size="10.00">/IO_Interaction/Weight</text>
<text text-anchor="start" x="427.5" y="-720.5" font-family="Helvetica,sans-Serif" font-size="10.00">_Importer_Helpers/weight</text>
<text text-anchor="middle" x="491" y="-709.5" font-family="Helvetica,sans-Serif" font-size="10.00">_importer.h</text>
</a>
</g>
</g>
<!-- Node21&#45;&gt;Node23 -->
<g id="edge36" class="edge">
<title>Node21&#45;&gt;Node23</title>
<path fill="none" stroke="midnightblue" d="M608.95,-850.84C583.85,-825.02 541.98,-781.95 515.47,-754.67"/>
<polygon fill="midnightblue" stroke="midnightblue" points="606.68,-853.53 616.16,-858.27 611.7,-848.66 606.68,-853.53"/>
</g>
<!-- Node26 -->
<g id="node26" class="node">
<title>Node26</title>
<g id="a_node26"><a xlink:href="parameters_8h.html" target="_top" xlink:title=" ">
<polygon fill="white" stroke="black" points="677.5,-791.5 677.5,-821.5 814.5,-821.5 814.5,-791.5 677.5,-791.5"/>
<text text-anchor="start" x="685.5" y="-809.5" font-family="Helvetica,sans-Serif" font-size="10.00">include/network_butcher</text>
<text text-anchor="middle" x="746" y="-798.5" font-family="Helvetica,sans-Serif" font-size="10.00">/Types/parameters.h</text>
</a>
</g>
</g>
<!-- Node21&#45;&gt;Node26 -->
<g id="edge43" class="edge">
<title>Node21&#45;&gt;Node26</title>
<path fill="none" stroke="midnightblue" d="M664.27,-853.3C682.42,-843.12 704.32,-830.85 720.88,-821.58"/>
<polygon fill="midnightblue" stroke="midnightblue" points="662.18,-850.45 655.17,-858.4 665.6,-856.56 662.18,-850.45"/>
</g>
<!-- Node22&#45;&gt;Node6 -->
<g id="edge33" class="edge">
<title>Node22&#45;&gt;Node6</title>
<path fill="none" stroke="midnightblue" d="M268.39,-704.12C256.34,-679.39 234.82,-640.26 208,-613 187.25,-591.91 166.18,-602.97 152,-577 138.25,-551.81 162.4,-438.05 165,-435 250.1,-335.06 412.18,-311.87 504.37,-307.09"/>
<polygon fill="midnightblue" stroke="midnightblue" points="265.37,-705.92 272.82,-713.46 271.69,-702.92 265.37,-705.92"/>
</g>
<!-- Node23&#45;&gt;Node18 -->
<g id="edge37" class="edge">
<title>Node23&#45;&gt;Node18</title>
<path fill="none" stroke="midnightblue" d="M431.15,-697.63C413.87,-688.22 395.3,-677.31 379,-666 339.45,-638.56 298.05,-601.38 272.16,-576.93"/>
<polygon fill="midnightblue" stroke="midnightblue" points="429.58,-700.76 440.04,-702.41 432.89,-694.59 429.58,-700.76"/>
</g>
<!-- Node24 -->
<g id="node24" class="node">
<title>Node24</title>
<g id="a_node24"><a xlink:href="csv__weight__importer_8h.html" target="_top" xlink:title=" ">
<polygon fill="white" stroke="black" points="388,-613.5 388,-665.5 552,-665.5 552,-613.5 388,-613.5"/>
<text text-anchor="start" x="396" y="-653.5" font-family="Helvetica,sans-Serif" font-size="10.00">include/network_butcher</text>
<text text-anchor="start" x="396" y="-642.5" font-family="Helvetica,sans-Serif" font-size="10.00">/IO_Interaction/Weight</text>
<text text-anchor="start" x="396" y="-631.5" font-family="Helvetica,sans-Serif" font-size="10.00">_Importer_Helpers/csv_weight</text>
<text text-anchor="middle" x="470" y="-620.5" font-family="Helvetica,sans-Serif" font-size="10.00">_importer.h</text>
</a>
</g>
</g>
<!-- Node23&#45;&gt;Node24 -->
<g id="edge38" class="edge">
<title>Node23&#45;&gt;Node24</title>
<path fill="none" stroke="midnightblue" d="M482.55,-692.48C480.38,-683.49 478.08,-673.99 476.06,-665.61"/>
<polygon fill="midnightblue" stroke="midnightblue" points="479.18,-693.44 484.93,-702.34 485.98,-691.79 479.18,-693.44"/>
</g>
<!-- Node24&#45;&gt;Node18 -->
<g id="edge39" class="edge">
<title>Node24&#45;&gt;Node18</title>
<path fill="none" stroke="midnightblue" d="M395.89,-609.72C368.25,-598.98 337.12,-586.89 310.42,-576.52"/>
<polygon fill="midnightblue" stroke="midnightblue" points="394.92,-613.09 405.51,-613.45 397.46,-606.57 394.92,-613.09"/>
</g>
<!-- Node24&#45;&gt;Node19 -->
<g id="edge40" class="edge">
<title>Node24&#45;&gt;Node19</title>
<path fill="none" stroke="midnightblue" d="M489.42,-604.39C493.76,-595.67 497.96,-586.17 501,-577 511.66,-544.82 516.94,-505.56 519.31,-482.38"/>
<polygon fill="midnightblue" stroke="midnightblue" points="486.2,-603 484.71,-613.49 492.42,-606.22 486.2,-603"/>
</g>
<!-- Node25 -->
<g id="node25" class="node">
<title>Node25</title>
<g id="a_node25"><a xlink:href="csv__weight__importer_8cpp.html" target="_top" xlink:title=" ">
<polygon fill="white" stroke="black" points="349.5,-530 349.5,-571 492.5,-571 492.5,-530 349.5,-530"/>
<text text-anchor="start" x="357.5" y="-559" font-family="Helvetica,sans-Serif" font-size="10.00">src/IO_Interaction</text>
<text text-anchor="start" x="357.5" y="-548" font-family="Helvetica,sans-Serif" font-size="10.00">/Weight_Importer_Helpers</text>
<text text-anchor="middle" x="421" y="-537" font-family="Helvetica,sans-Serif" font-size="10.00">/csv_weight_importer.cpp</text>
</a>
</g>
</g>
<!-- Node24&#45;&gt;Node25 -->
<g id="edge41" class="edge">
<title>Node24&#45;&gt;Node25</title>
<path fill="none" stroke="midnightblue" d="M450.85,-604.51C444.47,-593.17 437.58,-580.94 432.03,-571.08"/>
<polygon fill="midnightblue" stroke="midnightblue" points="447.87,-606.34 455.83,-613.34 453.97,-602.91 447.87,-606.34"/>
</g>
<!-- Node26&#45;&gt;Node6 -->
<g id="edge44" class="edge">
<title>Node26&#45;&gt;Node6</title>
<path fill="none" stroke="midnightblue" d="M751.04,-781.26C757.25,-749.2 767,-690.87 767,-640.5 767,-640.5 767,-640.5 767,-460.5 767,-407.55 748.32,-391.33 708,-357 687.9,-339.89 661.44,-328.3 637.27,-320.59"/>
<polygon fill="midnightblue" stroke="midnightblue" points="747.53,-780.96 749.01,-791.45 754.39,-782.33 747.53,-780.96"/>
</g>
<!-- Node26&#45;&gt;Node7 -->
<g id="edge46" class="edge">
<title>Node26&#45;&gt;Node7</title>
<path fill="none" stroke="midnightblue" d="M760.01,-782.34C777.46,-751.23 805,-693.71 805,-640.5 805,-640.5 805,-640.5 805,-549.5 805,-459.62 800.72,-425.9 743,-357 705.34,-312.04 647.81,-274.98 610.3,-253.67"/>
<polygon fill="midnightblue" stroke="midnightblue" points="756.92,-780.7 754.96,-791.11 762.98,-784.19 756.92,-780.7"/>
</g>
<!-- Node26&#45;&gt;Node16 -->
<g id="edge45" class="edge">
<title>Node26&#45;&gt;Node16</title>
<path fill="none" stroke="midnightblue" d="M734.87,-782.14C710.25,-730.45 651.76,-607.67 631.81,-565.79"/>
<polygon fill="midnightblue" stroke="midnightblue" points="731.86,-783.96 739.32,-791.48 738.18,-780.95 731.86,-783.96"/>
</g>
<!-- Node26&#45;&gt;Node23 -->
<g id="edge47" class="edge">
<title>Node26&#45;&gt;Node23</title>
<path fill="none" stroke="midnightblue" d="M689.23,-788.58C651.95,-777.47 602.86,-762.84 562.86,-750.92"/>
<polygon fill="midnightblue" stroke="midnightblue" points="688.35,-791.97 698.93,-791.47 690.35,-785.26 688.35,-791.97"/>
</g>
<!-- Node27&#45;&gt;Node2 -->
<g id="edge51" class="edge">
<title>Node27&#45;&gt;Node2</title>
<path fill="none" stroke="midnightblue" d="M539.96,-1116.7C542.62,-1107.59 545.57,-1097.49 547.89,-1089.58"/>
<polygon fill="midnightblue" stroke="midnightblue" points="536.57,-1115.82 537.12,-1126.4 543.29,-1117.78 536.57,-1115.82"/>
</g>
</g>
</svg>
