<?xml version="1.0" encoding="UTF-8" standalone="no"?>
<!DOCTYPE svg PUBLIC "-//W3C//DTD SVG 1.1//EN"
 "http://www.w3.org/Graphics/SVG/1.1/DTD/svg11.dtd">
<!-- Generated by graphviz version 2.43.0 (0)
 -->
<!-- Title: include/network_butcher/Types/content.h Pages: 1 -->
<svg width="1026pt" height="1232pt"
 viewBox="0.00 0.00 1026.00 1232.00" xmlns="http://www.w3.org/2000/svg" xmlns:xlink="http://www.w3.org/1999/xlink">
<g id="graph0" class="graph" transform="scale(1 1) rotate(0) translate(4 1228)">
<title>include/network_butcher/Types/content.h</title>
<polygon fill="white" stroke="transparent" points="-4,4 -4,-1228 1022,-1228 1022,4 -4,4"/>
<!-- Node1 -->
<g id="node1" class="node">
<title>Node1</title>
<g id="a_node1"><a xlink:title=" ">
<polygon fill="#bfbfbf" stroke="black" points="486.5,-1193.5 486.5,-1223.5 623.5,-1223.5 623.5,-1193.5 486.5,-1193.5"/>
<text text-anchor="start" x="494.5" y="-1211.5" font-family="Helvetica,sans-Serif" font-size="10.00">include/network_butcher</text>
<text text-anchor="middle" x="555" y="-1200.5" font-family="Helvetica,sans-Serif" font-size="10.00">/Types/content.h</text>
</a>
</g>
</g>
<!-- Node2 -->
<g id="node2" class="node">
<title>Node2</title>
<g id="a_node2"><a xlink:href="graph__traits_8h.html" target="_top" xlink:title=" ">
<polygon fill="white" stroke="black" points="545.5,-858.5 545.5,-888.5 682.5,-888.5 682.5,-858.5 545.5,-858.5"/>
<text text-anchor="start" x="553.5" y="-876.5" font-family="Helvetica,sans-Serif" font-size="10.00">include/network_butcher</text>
<text text-anchor="middle" x="614" y="-865.5" font-family="Helvetica,sans-Serif" font-size="10.00">/Network/graph_traits.h</text>
</a>
</g>
</g>
<!-- Node1&#45;&gt;Node2 -->
<g id="edge1" class="edge">
<title>Node1&#45;&gt;Node2</title>
<path fill="none" stroke="midnightblue" d="M596.33,-1188.23C609.47,-1180.26 622.93,-1169.83 632,-1157 653.53,-1126.55 652,-1112.8 652,-1075.5 652,-1075.5 652,-1075.5 652,-1006.5 652,-962.14 631.94,-912.56 620.97,-888.76"/>
<polygon fill="midnightblue" stroke="midnightblue" points="594.29,-1185.36 587.34,-1193.36 597.76,-1191.44 594.29,-1185.36"/>
</g>
<!-- Node23 -->
<g id="node23" class="node">
<title>Node23</title>
<g id="a_node23"><a xlink:href="graph_8h.html" target="_top" xlink:title=" ">
<polygon fill="white" stroke="black" points="467.5,-1059.5 467.5,-1089.5 604.5,-1089.5 604.5,-1059.5 467.5,-1059.5"/>
<text text-anchor="start" x="475.5" y="-1077.5" font-family="Helvetica,sans-Serif" font-size="10.00">include/network_butcher</text>
<text text-anchor="middle" x="536" y="-1066.5" font-family="Helvetica,sans-Serif" font-size="10.00">/Network/graph.h</text>
</a>
</g>
</g>
<!-- Node1&#45;&gt;Node23 -->
<g id="edge40" class="edge">
<title>Node1&#45;&gt;Node23</title>
<path fill="none" stroke="midnightblue" d="M509.63,-1188.49C496.75,-1180.72 484.26,-1170.36 477,-1157 470.42,-1144.9 471.24,-1138.52 477,-1126 484.05,-1110.69 498.28,-1098.29 511,-1089.61"/>
<polygon fill="midnightblue" stroke="midnightblue" points="508.11,-1191.65 518.55,-1193.46 511.52,-1185.54 508.11,-1191.65"/>
</g>
<!-- Node27 -->
<g id="node27" class="node">
<title>Node27</title>
<g id="a_node27"><a xlink:href="node__traits_8h.html" target="_top" xlink:title=" ">
<polygon fill="white" stroke="black" points="486.5,-1126.5 486.5,-1156.5 623.5,-1156.5 623.5,-1126.5 486.5,-1126.5"/>
<text text-anchor="start" x="494.5" y="-1144.5" font-family="Helvetica,sans-Serif" font-size="10.00">include/network_butcher</text>
<text text-anchor="middle" x="555" y="-1133.5" font-family="Helvetica,sans-Serif" font-size="10.00">/Network/node_traits.h</text>
</a>
</g>
</g>
<!-- Node1&#45;&gt;Node27 -->
<g id="edge51" class="edge">
<title>Node1&#45;&gt;Node27</title>
<path fill="none" stroke="midnightblue" d="M555,-1183.11C555,-1174.15 555,-1164.32 555,-1156.58"/>
<polygon fill="midnightblue" stroke="midnightblue" points="551.5,-1183.4 555,-1193.4 558.5,-1183.4 551.5,-1183.4"/>
</g>
<!-- Node3 -->
<g id="node3" class="node">
<title>Node3</title>
<g id="a_node3"><a xlink:href="butcher_8h.html" target="_top" xlink:title=" ">
<polygon fill="white" stroke="black" points="490.5,-290.5 490.5,-320.5 627.5,-320.5 627.5,-290.5 490.5,-290.5"/>
<text text-anchor="start" x="498.5" y="-308.5" font-family="Helvetica,sans-Serif" font-size="10.00">include/network_butcher</text>
<text text-anchor="middle" x="559" y="-297.5" font-family="Helvetica,sans-Serif" font-size="10.00">/Butcher/butcher.h</text>
</a>
</g>
</g>
<!-- Node2&#45;&gt;Node3 -->
<g id="edge2" class="edge">
<title>Node2&#45;&gt;Node3</title>
<path fill="none" stroke="midnightblue" d="M550.6,-855.51C523,-847.05 490.7,-835.68 463,-822 331.62,-757.1 324.22,-702.25 208,-613 184.53,-594.98 166.18,-602.97 152,-577 138.26,-551.83 162.41,-438.07 165,-435 246.26,-338.58 400.9,-313.96 490.38,-308.01"/>
<polygon fill="midnightblue" stroke="midnightblue" points="549.95,-858.97 560.54,-858.49 551.96,-852.26 549.95,-858.97"/>
</g>
<!-- Node4 -->
<g id="node4" class="node">
<title>Node4</title>
<g id="a_node4"><a xlink:href="onnx__model__reconstructor__helpers_8h.html" target="_top" xlink:title=" ">
<polygon fill="white" stroke="black" points="236.5,-212.5 236.5,-253.5 387.5,-253.5 387.5,-212.5 236.5,-212.5"/>
<text text-anchor="start" x="244.5" y="-241.5" font-family="Helvetica,sans-Serif" font-size="10.00">include/network_butcher</text>
<text text-anchor="start" x="244.5" y="-230.5" font-family="Helvetica,sans-Serif" font-size="10.00">/IO_Interaction/onnx_model</text>
<text text-anchor="middle" x="312" y="-219.5" font-family="Helvetica,sans-Serif" font-size="10.00">_reconstructor_helpers.h</text>
</a>
</g>
</g>
<!-- Node2&#45;&gt;Node4 -->
<g id="edge21" class="edge">
<title>Node2&#45;&gt;Node4</title>
<path fill="none" stroke="midnightblue" d="M535.22,-870.55C369.5,-864.3 0,-838.18 0,-729.5 0,-729.5 0,-729.5 0,-377 0,-273.32 144.14,-244.52 236.47,-236.7"/>
<polygon fill="midnightblue" stroke="midnightblue" points="535.23,-874.05 545.35,-870.91 535.49,-867.05 535.23,-874.05"/>
</g>
<!-- Node7 -->
<g id="node7" class="node">
<title>Node7</title>
<g id="a_node7"><a xlink:href="network__butcher_8h.html" target="_top" xlink:title=" ">
<polygon fill="white" stroke="black" points="369.5,-0.5 369.5,-30.5 506.5,-30.5 506.5,-0.5 369.5,-0.5"/>
<text text-anchor="start" x="377.5" y="-18.5" font-family="Helvetica,sans-Serif" font-size="10.00">include/network_butcher</text>
<text text-anchor="middle" x="438" y="-7.5" font-family="Helvetica,sans-Serif" font-size="10.00">/network_butcher.h</text>
</a>
</g>
</g>
<!-- Node2&#45;&gt;Node7 -->
<g id="edge34" class="edge">
<title>Node2&#45;&gt;Node7</title>
<path fill="none" stroke="midnightblue" d="M692.56,-866.91C749.17,-860.8 826.47,-848.14 890,-822 954.91,-795.29 1018,-799.69 1018,-729.5 1018,-729.5 1018,-729.5 1018,-154 1018,-49.93 660,-24.52 506.52,-18.4"/>
<polygon fill="midnightblue" stroke="midnightblue" points="692.18,-863.43 682.59,-867.94 692.9,-870.39 692.18,-863.43"/>
</g>
<!-- Node11 -->
<g id="node11" class="node">
<title>Node11</title>
<g id="a_node11"><a xlink:href="onnx__importer__helpers_8h.html" target="_top" xlink:title=" ">
<polygon fill="white" stroke="black" points="655,-212.5 655,-253.5 817,-253.5 817,-212.5 655,-212.5"/>
<text text-anchor="start" x="663" y="-241.5" font-family="Helvetica,sans-Serif" font-size="10.00">include/network_butcher</text>
<text text-anchor="start" x="663" y="-230.5" font-family="Helvetica,sans-Serif" font-size="10.00">/IO_Interaction/onnx_importer</text>
<text text-anchor="middle" x="736" y="-219.5" font-family="Helvetica,sans-Serif" font-size="10.00">_helpers.h</text>
</a>
</g>
</g>
<!-- Node2&#45;&gt;Node11 -->
<g id="edge22" class="edge">
<title>Node2&#45;&gt;Node11</title>
<path fill="none" stroke="midnightblue" d="M692.7,-858.19C800.26,-836.35 980,-790.69 980,-729.5 980,-729.5 980,-729.5 980,-377 980,-299.91 888.23,-263.59 817.25,-247.03"/>
<polygon fill="midnightblue" stroke="midnightblue" points="691.96,-854.77 682.84,-860.16 693.33,-861.63 691.96,-854.77"/>
</g>
<!-- Node13 -->
<g id="node13" class="node">
<title>Node13</title>
<g id="a_node13"><a xlink:href="graph__constraint_8h.html" target="_top" xlink:title=" ">
<polygon fill="white" stroke="black" points="587.5,-535.5 587.5,-565.5 738.5,-565.5 738.5,-535.5 587.5,-535.5"/>
<text text-anchor="start" x="595.5" y="-553.5" font-family="Helvetica,sans-Serif" font-size="10.00">include/network_butcher</text>
<text text-anchor="middle" x="663" y="-542.5" font-family="Helvetica,sans-Serif" font-size="10.00">/Butcher/graph_constraint.h</text>
</a>
</g>
</g>
<!-- Node2&#45;&gt;Node13 -->
<g id="edge15" class="edge">
<title>Node2&#45;&gt;Node13</title>
<path fill="none" stroke="midnightblue" d="M629.9,-849.83C634.98,-841.46 640.04,-831.65 643,-822 671.92,-727.68 666.9,-606.58 664.12,-565.7"/>
<polygon fill="midnightblue" stroke="midnightblue" points="626.94,-847.97 624.49,-858.28 632.83,-851.75 626.94,-847.97"/>
</g>
<!-- Node14 -->
<g id="node14" class="node">
<title>Node14</title>
<g id="a_node14"><a xlink:href="constrained__block__graph__builder_8h.html" target="_top" xlink:title=" ">
<polygon fill="white" stroke="black" points="587.5,-357.5 587.5,-398.5 736.5,-398.5 736.5,-357.5 587.5,-357.5"/>
<text text-anchor="start" x="595.5" y="-386.5" font-family="Helvetica,sans-Serif" font-size="10.00">include/network_butcher</text>
<text text-anchor="start" x="595.5" y="-375.5" font-family="Helvetica,sans-Serif" font-size="10.00">/Butcher/constrained_block</text>
<text text-anchor="middle" x="662" y="-364.5" font-family="Helvetica,sans-Serif" font-size="10.00">_graph_builder.h</text>
</a>
</g>
</g>
<!-- Node2&#45;&gt;Node14 -->
<g id="edge18" class="edge">
<title>Node2&#45;&gt;Node14</title>
<path fill="none" stroke="midnightblue" d="M637.56,-851.16C645.84,-842.71 654.65,-832.52 661,-822 720.68,-723.23 727.61,-690.76 747,-577 750.96,-553.78 753.17,-546.73 747,-524 733.62,-474.72 698.81,-425.06 678.13,-398.56"/>
<polygon fill="midnightblue" stroke="midnightblue" points="634.88,-848.88 630.19,-858.38 639.78,-853.88 634.88,-848.88"/>
</g>
<!-- Node15 -->
<g id="node15" class="node">
<title>Node15</title>
<g id="a_node15"><a xlink:href="path__converter_8h.html" target="_top" xlink:title=" ">
<polygon fill="white" stroke="black" points="810,-713.5 810,-743.5 952,-743.5 952,-713.5 810,-713.5"/>
<text text-anchor="start" x="818" y="-731.5" font-family="Helvetica,sans-Serif" font-size="10.00">include/network_butcher</text>
<text text-anchor="middle" x="881" y="-720.5" font-family="Helvetica,sans-Serif" font-size="10.00">/Butcher/path_converter.h</text>
</a>
</g>
</g>
<!-- Node2&#45;&gt;Node15 -->
<g id="edge19" class="edge">
<title>Node2&#45;&gt;Node15</title>
<path fill="none" stroke="midnightblue" d="M676.04,-855.36C702.13,-846.99 732.31,-835.74 758,-822 799.94,-799.57 843.02,-763.61 865.38,-743.78"/>
<polygon fill="midnightblue" stroke="midnightblue" points="674.76,-852.09 666.27,-858.42 676.86,-858.77 674.76,-852.09"/>
</g>
<!-- Node16 -->
<g id="node16" class="node">
<title>Node16</title>
<g id="a_node16"><a xlink:href="weight__importer_8h.html" target="_top" xlink:title=" ">
<polygon fill="white" stroke="black" points="373.5,-702.5 373.5,-754.5 516.5,-754.5 516.5,-702.5 373.5,-702.5"/>
<text text-anchor="start" x="381.5" y="-742.5" font-family="Helvetica,sans-Serif" font-size="10.00">include/network_butcher</text>
<text text-anchor="start" x="381.5" y="-731.5" font-family="Helvetica,sans-Serif" font-size="10.00">/IO_Interaction/Weight</text>
<text text-anchor="start" x="381.5" y="-720.5" font-family="Helvetica,sans-Serif" font-size="10.00">_Importer_Helpers/weight</text>
<text text-anchor="middle" x="445" y="-709.5" font-family="Helvetica,sans-Serif" font-size="10.00">_importer.h</text>
</a>
</g>
</g>
<!-- Node2&#45;&gt;Node16 -->
<g id="edge23" class="edge">
<title>Node2&#45;&gt;Node16</title>
<path fill="none" stroke="midnightblue" d="M543.63,-854.9C523.84,-847.32 503.51,-836.7 488,-822 468.72,-803.73 457.27,-775.11 451.09,-754.55"/>
<polygon fill="midnightblue" stroke="midnightblue" points="542.68,-858.28 553.27,-858.39 545.06,-851.7 542.68,-858.28"/>
</g>
<!-- Node22 -->
<g id="node22" class="node">
<title>Node22</title>
<g id="a_node22"><a xlink:href="parameters_8h.html" target="_top" xlink:title=" ">
<polygon fill="white" stroke="black" points="497.5,-791.5 497.5,-821.5 634.5,-821.5 634.5,-791.5 497.5,-791.5"/>
<text text-anchor="start" x="505.5" y="-809.5" font-family="Helvetica,sans-Serif" font-size="10.00">include/network_butcher</text>
<text text-anchor="middle" x="566" y="-798.5" font-family="Helvetica,sans-Serif" font-size="10.00">/Types/parameters.h</text>
</a>
</g>
</g>
<!-- Node2&#45;&gt;Node22 -->
<g id="edge35" class="edge">
<title>Node2&#45;&gt;Node22</title>
<path fill="none" stroke="midnightblue" d="M597.5,-850.16C590.5,-840.68 582.56,-829.92 576.39,-821.58"/>
<polygon fill="midnightblue" stroke="midnightblue" points="594.83,-852.43 603.58,-858.4 600.46,-848.27 594.83,-852.43"/>
</g>
<!-- Node3&#45;&gt;Node4 -->
<g id="edge3" class="edge">
<title>Node3&#45;&gt;Node4</title>
<path fill="none" stroke="midnightblue" d="M500.07,-287.68C464.18,-277.44 418.17,-264.3 380.64,-253.59"/>
<polygon fill="midnightblue" stroke="midnightblue" points="499.33,-291.11 509.91,-290.49 501.25,-284.38 499.33,-291.11"/>
</g>
<!-- Node3&#45;&gt;Node7 -->
<g id="edge14" class="edge">
<title>Node3&#45;&gt;Node7</title>
<path fill="none" stroke="midnightblue" d="M566.64,-280.76C579.8,-235.01 601.31,-133.32 557,-67 545.28,-49.46 526.12,-37.99 506.57,-30.5"/>
<polygon fill="midnightblue" stroke="midnightblue" points="563.27,-279.8 563.75,-290.39 569.98,-281.82 563.27,-279.8"/>
</g>
<!-- Node3&#45;&gt;Node11 -->
<g id="edge11" class="edge">
<title>Node3&#45;&gt;Node11</title>
<path fill="none" stroke="midnightblue" d="M603.77,-286.67C629.13,-276.57 660.89,-263.92 686.93,-253.55"/>
<polygon fill="midnightblue" stroke="midnightblue" points="602.39,-283.45 594.39,-290.4 604.98,-289.95 602.39,-283.45"/>
</g>
<!-- Node5 -->
<g id="node5" class="node">
<title>Node5</title>
<g id="a_node5"><a xlink:href="io__manager_8h.html" target="_top" xlink:title=" ">
<polygon fill="white" stroke="black" points="375.5,-140 375.5,-170 512.5,-170 512.5,-140 375.5,-140"/>
<text text-anchor="start" x="383.5" y="-158" font-family="Helvetica,sans-Serif" font-size="10.00">include/network_butcher</text>
<text text-anchor="middle" x="444" y="-147" font-family="Helvetica,sans-Serif" font-size="10.00">/io_manager.h</text>
</a>
</g>
</g>
<!-- Node4&#45;&gt;Node5 -->
<g id="edge4" class="edge">
<title>Node4&#45;&gt;Node5</title>
<path fill="none" stroke="midnightblue" d="M354.87,-207.31C376.2,-195.04 401.2,-180.64 419.29,-170.23"/>
<polygon fill="midnightblue" stroke="midnightblue" points="352.91,-204.41 345.99,-212.43 356.41,-210.47 352.91,-204.41"/>
</g>
<!-- Node10 -->
<g id="node10" class="node">
<title>Node10</title>
<g id="a_node10"><a xlink:href="onnx__model__reconstructor__helpers_8cpp.html" target="_top" xlink:title=" ">
<polygon fill="white" stroke="black" points="208.5,-134.5 208.5,-175.5 357.5,-175.5 357.5,-134.5 208.5,-134.5"/>
<text text-anchor="start" x="216.5" y="-163.5" font-family="Helvetica,sans-Serif" font-size="10.00">src/IO_Interaction</text>
<text text-anchor="start" x="216.5" y="-152.5" font-family="Helvetica,sans-Serif" font-size="10.00">/onnx_model_reconstructor</text>
<text text-anchor="middle" x="283" y="-141.5" font-family="Helvetica,sans-Serif" font-size="10.00">_helpers.cpp</text>
</a>
</g>
</g>
<!-- Node4&#45;&gt;Node10 -->
<g id="edge10" class="edge">
<title>Node4&#45;&gt;Node10</title>
<path fill="none" stroke="midnightblue" d="M300.89,-202.88C297.39,-193.72 293.62,-183.83 290.44,-175.51"/>
<polygon fill="midnightblue" stroke="midnightblue" points="297.7,-204.33 304.53,-212.43 304.24,-201.84 297.7,-204.33"/>
</g>
<!-- Node6 -->
<g id="node6" class="node">
<title>Node6</title>
<g id="a_node6"><a xlink:href="general__manager_8h.html" target="_top" xlink:title=" ">
<polygon fill="white" stroke="black" points="243.5,-67.5 243.5,-97.5 380.5,-97.5 380.5,-67.5 243.5,-67.5"/>
<text text-anchor="start" x="251.5" y="-85.5" font-family="Helvetica,sans-Serif" font-size="10.00">include/network_butcher</text>
<text text-anchor="middle" x="312" y="-74.5" font-family="Helvetica,sans-Serif" font-size="10.00">/general_manager.h</text>
</a>
</g>
</g>
<!-- Node5&#45;&gt;Node6 -->
<g id="edge5" class="edge">
<title>Node5&#45;&gt;Node6</title>
<path fill="none" stroke="midnightblue" d="M408.53,-135.06C386.44,-123.26 358.48,-108.33 338.35,-97.57"/>
<polygon fill="midnightblue" stroke="midnightblue" points="407.14,-138.28 417.61,-139.9 410.43,-132.1 407.14,-138.28"/>
</g>
<!-- Node5&#45;&gt;Node7 -->
<g id="edge8" class="edge">
<title>Node5&#45;&gt;Node7</title>
<path fill="none" stroke="midnightblue" d="M435.69,-130.43C432.62,-120.55 429.52,-108.85 428,-98 426.09,-84.36 426.66,-80.71 428,-67 429.22,-54.55 432.1,-40.61 434.45,-30.54"/>
<polygon fill="midnightblue" stroke="midnightblue" points="432.37,-131.55 438.81,-139.97 439.03,-129.37 432.37,-131.55"/>
</g>
<!-- Node9 -->
<g id="node9" class="node">
<title>Node9</title>
<g id="a_node9"><a xlink:href="io__manager_8cpp.html" target="_top" xlink:title=" ">
<polygon fill="white" stroke="black" points="437.5,-73 437.5,-92 548.5,-92 548.5,-73 437.5,-73"/>
<text text-anchor="middle" x="493" y="-80" font-family="Helvetica,sans-Serif" font-size="10.00">src/io_manager.cpp</text>
</a>
</g>
</g>
<!-- Node5&#45;&gt;Node9 -->
<g id="edge9" class="edge">
<title>Node5&#45;&gt;Node9</title>
<path fill="none" stroke="midnightblue" d="M459.63,-131.51C468.86,-118.23 480.03,-102.16 486.82,-92.39"/>
<polygon fill="midnightblue" stroke="midnightblue" points="456.75,-129.52 453.92,-139.73 462.5,-133.52 456.75,-129.52"/>
</g>
<!-- Node6&#45;&gt;Node7 -->
<g id="edge6" class="edge">
<title>Node6&#45;&gt;Node7</title>
<path fill="none" stroke="midnightblue" d="M348.42,-62.71C368.29,-52.46 392.48,-39.98 410.71,-30.58"/>
<polygon fill="midnightblue" stroke="midnightblue" points="346.62,-59.7 339.34,-67.4 349.83,-65.92 346.62,-59.7"/>
</g>
<!-- Node8 -->
<g id="node8" class="node">
<title>Node8</title>
<g id="a_node8"><a xlink:href="general__manager_8cpp.html" target="_top" xlink:title=" ">
<polygon fill="white" stroke="black" points="212.5,-6 212.5,-25 351.5,-25 351.5,-6 212.5,-6"/>
<text text-anchor="middle" x="282" y="-13" font-family="Helvetica,sans-Serif" font-size="10.00">src/general_manager.cpp</text>
</a>
</g>
</g>
<!-- Node6&#45;&gt;Node8 -->
<g id="edge7" class="edge">
<title>Node6&#45;&gt;Node8</title>
<path fill="none" stroke="midnightblue" d="M301.29,-58.29C295.99,-46.8 289.91,-33.63 286.01,-25.19"/>
<polygon fill="midnightblue" stroke="midnightblue" points="298.12,-59.78 305.49,-67.4 304.48,-56.85 298.12,-59.78"/>
</g>
<!-- Node11&#45;&gt;Node5 -->
<g id="edge12" class="edge">
<title>Node11&#45;&gt;Node5</title>
<path fill="none" stroke="midnightblue" d="M651.1,-209.9C601.77,-197.06 541.09,-181.27 498.2,-170.11"/>
<polygon fill="midnightblue" stroke="midnightblue" points="650.24,-213.3 660.8,-212.43 652.01,-206.52 650.24,-213.3"/>
</g>
<!-- Node12 -->
<g id="node12" class="node">
<title>Node12</title>
<g id="a_node12"><a xlink:href="onnx__importer__helpers_8cpp.html" target="_top" xlink:title=" ">
<polygon fill="white" stroke="black" points="660,-140 660,-170 812,-170 812,-140 660,-140"/>
<text text-anchor="start" x="668" y="-158" font-family="Helvetica,sans-Serif" font-size="10.00">src/IO_Interaction</text>
<text text-anchor="middle" x="736" y="-147" font-family="Helvetica,sans-Serif" font-size="10.00">/onnx_importer_helpers.cpp</text>
</a>
</g>
</g>
<!-- Node11&#45;&gt;Node12 -->
<g id="edge13" class="edge">
<title>Node11&#45;&gt;Node12</title>
<path fill="none" stroke="midnightblue" d="M736,-202.28C736,-191.25 736,-179.25 736,-170.23"/>
<polygon fill="midnightblue" stroke="midnightblue" points="732.5,-202.43 736,-212.43 739.5,-202.43 732.5,-202.43"/>
</g>
<!-- Node13&#45;&gt;Node14 -->
<g id="edge16" class="edge">
<title>Node13&#45;&gt;Node14</title>
<path fill="none" stroke="midnightblue" d="M662.86,-525.25C662.66,-491.26 662.3,-430.11 662.12,-398.74"/>
<polygon fill="midnightblue" stroke="midnightblue" points="659.36,-525.28 662.92,-535.26 666.36,-525.24 659.36,-525.28"/>
</g>
<!-- Node14&#45;&gt;Node3 -->
<g id="edge17" class="edge">
<title>Node14&#45;&gt;Node3</title>
<path fill="none" stroke="midnightblue" d="M624.64,-351.43C609.49,-341.06 592.57,-329.48 579.7,-320.67"/>
<polygon fill="midnightblue" stroke="midnightblue" points="623.08,-354.6 633.31,-357.36 627.03,-348.83 623.08,-354.6"/>
</g>
<!-- Node15&#45;&gt;Node3 -->
<g id="edge20" class="edge">
<title>Node15&#45;&gt;Node3</title>
<path fill="none" stroke="midnightblue" d="M879.18,-703.03C876.82,-669.04 873,-605.64 873,-551.5 873,-551.5 873,-551.5 873,-460.5 873,-351.97 719.91,-319.92 627.52,-310.46"/>
<polygon fill="midnightblue" stroke="midnightblue" points="875.72,-703.64 879.92,-713.37 882.7,-703.14 875.72,-703.64"/>
</g>
<!-- Node17 -->
<g id="node17" class="node">
<title>Node17</title>
<g id="a_node17"><a xlink:href="block__aMLLibrary__weight__importer_8h.html" target="_top" xlink:title=" ">
<polygon fill="white" stroke="black" points="161,-524.5 161,-576.5 331,-576.5 331,-524.5 161,-524.5"/>
<text text-anchor="start" x="169" y="-564.5" font-family="Helvetica,sans-Serif" font-size="10.00">include/network_butcher</text>
<text text-anchor="start" x="169" y="-553.5" font-family="Helvetica,sans-Serif" font-size="10.00">/IO_Interaction/Weight</text>
<text text-anchor="start" x="169" y="-542.5" font-family="Helvetica,sans-Serif" font-size="10.00">_Importer_Helpers/block</text>
<text text-anchor="middle" x="246" y="-531.5" font-family="Helvetica,sans-Serif" font-size="10.00">_aMLLibrary_weight_importer.h</text>
</a>
</g>
</g>
<!-- Node16&#45;&gt;Node17 -->
<g id="edge24" class="edge">
<title>Node16&#45;&gt;Node17</title>
<path fill="none" stroke="midnightblue" d="M385.01,-697.26C369.6,-688.21 353.57,-677.58 340,-666 308.9,-639.45 280.17,-601.71 262.86,-576.92"/>
<polygon fill="midnightblue" stroke="midnightblue" points="383.57,-700.47 393.98,-702.4 387.04,-694.39 383.57,-700.47"/>
</g>
<!-- Node20 -->
<g id="node20" class="node">
<title>Node20</title>
<g id="a_node20"><a xlink:href="csv__weight__importer_8h.html" target="_top" xlink:title=" ">
<polygon fill="white" stroke="black" points="349,-613.5 349,-665.5 513,-665.5 513,-613.5 349,-613.5"/>
<text text-anchor="start" x="357" y="-653.5" font-family="Helvetica,sans-Serif" font-size="10.00">include/network_butcher</text>
<text text-anchor="start" x="357" y="-642.5" font-family="Helvetica,sans-Serif" font-size="10.00">/IO_Interaction/Weight</text>
<text text-anchor="start" x="357" y="-631.5" font-family="Helvetica,sans-Serif" font-size="10.00">_Importer_Helpers/csv_weight</text>
<text text-anchor="middle" x="431" y="-620.5" font-family="Helvetica,sans-Serif" font-size="10.00">_importer.h</text>
</a>
</g>
</g>
<!-- Node16&#45;&gt;Node20 -->
<g id="edge30" class="edge">
<title>Node16&#45;&gt;Node20</title>
<path fill="none" stroke="midnightblue" d="M439.32,-692.19C437.88,-683.28 436.37,-673.9 435.04,-665.61"/>
<polygon fill="midnightblue" stroke="midnightblue" points="435.91,-693.02 440.95,-702.34 442.82,-691.91 435.91,-693.02"/>
</g>
<!-- Node18 -->
<g id="node18" class="node">
<title>Node18</title>
<g id="a_node18"><a xlink:href="weight__importers_8h.html" target="_top" xlink:title=" ">
<polygon fill="white" stroke="black" points="375.5,-441 375.5,-482 512.5,-482 512.5,-441 375.5,-441"/>
<text text-anchor="start" x="383.5" y="-470" font-family="Helvetica,sans-Serif" font-size="10.00">include/network_butcher</text>
<text text-anchor="start" x="383.5" y="-459" font-family="Helvetica,sans-Serif" font-size="10.00">/IO_Interaction/weight</text>
<text text-anchor="middle" x="444" y="-448" font-family="Helvetica,sans-Serif" font-size="10.00">_importers.h</text>
</a>
</g>
</g>
<!-- Node17&#45;&gt;Node18 -->
<g id="edge25" class="edge">
<title>Node17&#45;&gt;Node18</title>
<path fill="none" stroke="midnightblue" d="M312.52,-520.27C341.09,-507.72 373.71,-493.38 399.32,-482.13"/>
<polygon fill="midnightblue" stroke="midnightblue" points="310.75,-517.23 303,-524.45 313.57,-523.63 310.75,-517.23"/>
</g>
<!-- Node19 -->
<g id="node19" class="node">
<title>Node19</title>
<g id="a_node19"><a xlink:href="block__aMLLibrary__weight__importer_8cpp.html" target="_top" xlink:title=" ">
<polygon fill="white" stroke="black" points="174.5,-435.5 174.5,-487.5 317.5,-487.5 317.5,-435.5 174.5,-435.5"/>
<text text-anchor="start" x="182.5" y="-475.5" font-family="Helvetica,sans-Serif" font-size="10.00">src/IO_Interaction</text>
<text text-anchor="start" x="182.5" y="-464.5" font-family="Helvetica,sans-Serif" font-size="10.00">/Weight_Importer_Helpers</text>
<text text-anchor="start" x="182.5" y="-453.5" font-family="Helvetica,sans-Serif" font-size="10.00">/block_aMLLibrary_weight</text>
<text text-anchor="middle" x="246" y="-442.5" font-family="Helvetica,sans-Serif" font-size="10.00">_importer.cpp</text>
</a>
</g>
</g>
<!-- Node17&#45;&gt;Node19 -->
<g id="edge29" class="edge">
<title>Node17&#45;&gt;Node19</title>
<path fill="none" stroke="midnightblue" d="M246,-514.19C246,-505.28 246,-495.9 246,-487.61"/>
<polygon fill="midnightblue" stroke="midnightblue" points="242.5,-514.34 246,-524.34 249.5,-514.34 242.5,-514.34"/>
</g>
<!-- Node18&#45;&gt;Node3 -->
<g id="edge26" class="edge">
<title>Node18&#45;&gt;Node3</title>
<path fill="none" stroke="midnightblue" d="M464.76,-432.7C489.33,-399.8 529.3,-346.27 548.31,-320.82"/>
<polygon fill="midnightblue" stroke="midnightblue" points="461.74,-430.89 458.56,-441 467.35,-435.08 461.74,-430.89"/>
</g>
<!-- Node18&#45;&gt;Node5 -->
<g id="edge28" class="edge">
<title>Node18&#45;&gt;Node5</title>
<path fill="none" stroke="midnightblue" d="M444,-430.73C444,-366.5 444,-216.92 444,-170.2"/>
<polygon fill="midnightblue" stroke="midnightblue" points="440.5,-430.99 444,-440.99 447.5,-430.99 440.5,-430.99"/>
</g>
<!-- Node18&#45;&gt;Node14 -->
<g id="edge27" class="edge">
<title>Node18&#45;&gt;Node14</title>
<path fill="none" stroke="midnightblue" d="M505.72,-437.42C538.58,-425.14 578.54,-410.2 609.83,-398.5"/>
<polygon fill="midnightblue" stroke="midnightblue" points="504.36,-434.2 496.22,-440.98 506.81,-440.76 504.36,-434.2"/>
</g>
<!-- Node20&#45;&gt;Node17 -->
<g id="edge31" class="edge">
<title>Node20&#45;&gt;Node17</title>
<path fill="none" stroke="midnightblue" d="M368.39,-609.06C345.98,-598.52 320.95,-586.75 299.39,-576.61"/>
<polygon fill="midnightblue" stroke="midnightblue" points="366.95,-612.25 377.49,-613.34 369.93,-605.91 366.95,-612.25"/>
</g>
<!-- Node20&#45;&gt;Node18 -->
<g id="edge32" class="edge">
<title>Node20&#45;&gt;Node18</title>
<path fill="none" stroke="midnightblue" d="M395.55,-605.88C388.39,-597.26 381.87,-587.42 378,-577 369.8,-554.92 368.6,-545.6 378,-524 385.37,-507.05 399.97,-492.66 413.57,-482.07"/>
<polygon fill="midnightblue" stroke="midnightblue" points="393,-608.28 402.25,-613.44 398.24,-603.63 393,-608.28"/>
</g>
<!-- Node21 -->
<g id="node21" class="node">
<title>Node21</title>
<g id="a_node21"><a xlink:href="csv__weight__importer_8cpp.html" target="_top" xlink:title=" ">
<polygon fill="white" stroke="black" points="387.5,-530 387.5,-571 530.5,-571 530.5,-530 387.5,-530"/>
<text text-anchor="start" x="395.5" y="-559" font-family="Helvetica,sans-Serif" font-size="10.00">src/IO_Interaction</text>
<text text-anchor="start" x="395.5" y="-548" font-family="Helvetica,sans-Serif" font-size="10.00">/Weight_Importer_Helpers</text>
<text text-anchor="middle" x="459" y="-537" font-family="Helvetica,sans-Serif" font-size="10.00">/csv_weight_importer.cpp</text>
</a>
</g>
</g>
<!-- Node20&#45;&gt;Node21 -->
<g id="edge33" class="edge">
<title>Node20&#45;&gt;Node21</title>
<path fill="none" stroke="midnightblue" d="M442.27,-603.49C445.82,-592.45 449.62,-580.65 452.7,-571.08"/>
<polygon fill="midnightblue" stroke="midnightblue" points="438.83,-602.74 439.1,-613.34 445.49,-604.89 438.83,-602.74"/>
</g>
<!-- Node22&#45;&gt;Node3 -->
<g id="edge36" class="edge">
<title>Node22&#45;&gt;Node3</title>
<path fill="none" stroke="midnightblue" d="M564.32,-781.15C562.25,-748.98 559,-690.51 559,-640.5 559,-640.5 559,-640.5 559,-460.5 559,-408.9 559,-347.57 559,-320.51"/>
<polygon fill="midnightblue" stroke="midnightblue" points="560.85,-781.64 565,-791.38 567.83,-781.17 560.85,-781.64"/>
</g>
<!-- Node22&#45;&gt;Node11 -->
<g id="edge38" class="edge">
<title>Node22&#45;&gt;Node11</title>
<path fill="none" stroke="midnightblue" d="M594.31,-785.04C657.6,-736.69 805,-608.42 805,-462.5 805,-462.5 805,-462.5 805,-377 805,-329.04 773.12,-280.21 752.7,-253.85"/>
<polygon fill="midnightblue" stroke="midnightblue" points="591.85,-782.51 585.97,-791.32 596.06,-788.11 591.85,-782.51"/>
</g>
<!-- Node22&#45;&gt;Node13 -->
<g id="edge37" class="edge">
<title>Node22&#45;&gt;Node13</title>
<path fill="none" stroke="midnightblue" d="M574.92,-782.14C594.66,-730.45 641.55,-607.67 657.54,-565.79"/>
<polygon fill="midnightblue" stroke="midnightblue" points="571.65,-780.89 571.35,-791.48 578.19,-783.39 571.65,-780.89"/>
</g>
<!-- Node22&#45;&gt;Node16 -->
<g id="edge39" class="edge">
<title>Node22&#45;&gt;Node16</title>
<path fill="none" stroke="midnightblue" d="M534.99,-786.02C519.77,-776.46 501.26,-764.83 484.99,-754.62"/>
<polygon fill="midnightblue" stroke="midnightblue" points="533.19,-789.03 543.52,-791.38 536.92,-783.1 533.19,-789.03"/>
</g>
<!-- Node23&#45;&gt;Node2 -->
<g id="edge41" class="edge">
<title>Node23&#45;&gt;Node2</title>
<path fill="none" stroke="midnightblue" d="M567.25,-1053.24C577.39,-1045.07 587.65,-1034.78 594,-1023 617.94,-978.57 617.08,-916.2 615.26,-888.59"/>
<polygon fill="midnightblue" stroke="midnightblue" points="565.07,-1050.5 559.21,-1059.33 569.3,-1056.08 565.07,-1050.5"/>
</g>
<!-- Node24 -->
<g id="node24" class="node">
<title>Node24</title>
<g id="a_node24"><a xlink:href="mwgraph_8h.html" target="_top" xlink:title=" ">
<polygon fill="white" stroke="black" points="448.5,-992.5 448.5,-1022.5 585.5,-1022.5 585.5,-992.5 448.5,-992.5"/>
<text text-anchor="start" x="456.5" y="-1010.5" font-family="Helvetica,sans-Serif" font-size="10.00">include/network_butcher</text>
<text text-anchor="middle" x="517" y="-999.5" font-family="Helvetica,sans-Serif" font-size="10.00">/Network/mwgraph.h</text>
</a>
</g>
</g>
<!-- Node23&#45;&gt;Node24 -->
<g id="edge42" class="edge">
<title>Node23&#45;&gt;Node24</title>
<path fill="none" stroke="midnightblue" d="M529.04,-1049.7C526.38,-1040.59 523.43,-1030.49 521.11,-1022.58"/>
<polygon fill="midnightblue" stroke="midnightblue" points="525.71,-1050.78 531.88,-1059.4 532.43,-1048.82 525.71,-1050.78"/>
</g>
<!-- Node24&#45;&gt;Node2 -->
<g id="edge43" class="edge">
<title>Node24&#45;&gt;Node2</title>
<path fill="none" stroke="midnightblue" d="M534.26,-984.54C541.1,-975.73 549,-965.44 556,-956 573.27,-932.7 592.69,-905.12 604.11,-888.76"/>
<polygon fill="midnightblue" stroke="midnightblue" points="531.47,-982.43 528.08,-992.46 536.99,-986.73 531.47,-982.43"/>
</g>
<!-- Node25 -->
<g id="node25" class="node">
<title>Node25</title>
<g id="a_node25"><a xlink:href="wgraph_8h.html" target="_top" xlink:title=" ">
<polygon fill="white" stroke="black" points="410.5,-925.5 410.5,-955.5 547.5,-955.5 547.5,-925.5 410.5,-925.5"/>
<text text-anchor="start" x="418.5" y="-943.5" font-family="Helvetica,sans-Serif" font-size="10.00">include/network_butcher</text>
<text text-anchor="middle" x="479" y="-932.5" font-family="Helvetica,sans-Serif" font-size="10.00">/Network/wgraph.h</text>
</a>
</g>
</g>
<!-- Node24&#45;&gt;Node25 -->
<g id="edge44" class="edge">
<title>Node24&#45;&gt;Node25</title>
<path fill="none" stroke="midnightblue" d="M503.6,-983.58C498.14,-974.24 492.01,-963.75 487.23,-955.58"/>
<polygon fill="midnightblue" stroke="midnightblue" points="500.69,-985.53 508.75,-992.4 506.73,-982 500.69,-985.53"/>
</g>
<!-- Node25&#45;&gt;Node2 -->
<g id="edge50" class="edge">
<title>Node25&#45;&gt;Node2</title>
<path fill="none" stroke="midnightblue" d="M517.44,-920.99C538.84,-910.69 565.05,-898.07 584.76,-888.58"/>
<polygon fill="midnightblue" stroke="midnightblue" points="515.78,-917.9 508.29,-925.4 518.82,-924.21 515.78,-917.9"/>
</g>
<!-- Node26 -->
<g id="node26" class="node">
<title>Node26</title>
<g id="a_node26"><a xlink:href="computer__memory_8h.html" target="_top" xlink:title=" ">
<polygon fill="white" stroke="black" points="28.5,-624.5 28.5,-654.5 199.5,-654.5 199.5,-624.5 28.5,-624.5"/>
<text text-anchor="start" x="36.5" y="-642.5" font-family="Helvetica,sans-Serif" font-size="10.00">include/network_butcher</text>
<text text-anchor="middle" x="114" y="-631.5" font-family="Helvetica,sans-Serif" font-size="10.00">/Computer/computer_memory.h</text>
</a>
</g>
</g>
<!-- Node25&#45;&gt;Node26 -->
<g id="edge45" class="edge">
<title>Node25&#45;&gt;Node26</title>
<path fill="none" stroke="midnightblue" d="M410.92,-922.59C352.92,-905.32 270.27,-873.62 214,-822 160.45,-772.88 129.14,-688.27 118.32,-654.76"/>
<polygon fill="midnightblue" stroke="midnightblue" points="410.15,-926.01 420.73,-925.44 412.11,-919.29 410.15,-926.01"/>
</g>
<!-- Node26&#45;&gt;Node3 -->
<g id="edge46" class="edge">
<title>Node26&#45;&gt;Node3</title>
<path fill="none" stroke="midnightblue" d="M105.22,-614.5C87.25,-560.68 53.24,-429.44 119,-357 143.49,-330.03 372.82,-315.32 490.31,-309.49"/>
<polygon fill="midnightblue" stroke="midnightblue" points="102,-615.88 108.57,-624.19 108.61,-613.59 102,-615.88"/>
</g>
<!-- Node26&#45;&gt;Node7 -->
<g id="edge49" class="edge">
<title>Node26&#45;&gt;Node7</title>
<path fill="none" stroke="midnightblue" d="M99.19,-615.7C92.46,-604.44 84.92,-590.42 80,-577 62.12,-528.27 57,-514.41 57,-462.5 57,-462.5 57,-462.5 57,-154 57,-66.34 151.65,-97.04 234,-67 278.05,-50.93 329.27,-38.27 369.37,-29.65"/>
<polygon fill="midnightblue" stroke="midnightblue" points="96.35,-617.76 104.58,-624.44 102.31,-614.09 96.35,-617.76"/>
</g>
<!-- Node26&#45;&gt;Node13 -->
<g id="edge47" class="edge">
<title>Node26&#45;&gt;Node13</title>
<path fill="none" stroke="midnightblue" d="M209.75,-626.29C296.06,-614.89 426.33,-596.72 539,-577 558.38,-573.61 579.36,-569.47 598.46,-565.53"/>
<polygon fill="midnightblue" stroke="midnightblue" points="209.17,-622.84 199.71,-627.61 210.08,-629.78 209.17,-622.84"/>
</g>
<!-- Node26&#45;&gt;Node17 -->
<g id="edge48" class="edge">
<title>Node26&#45;&gt;Node17</title>
<path fill="none" stroke="midnightblue" d="M144.04,-618.7C163,-606.21 187.66,-589.95 207.97,-576.56"/>
<polygon fill="midnightblue" stroke="midnightblue" points="141.93,-615.9 135.5,-624.33 145.78,-621.75 141.93,-615.9"/>
</g>
<!-- Node27&#45;&gt;Node23 -->
<g id="edge52" class="edge">
<title>Node27&#45;&gt;Node23</title>
<path fill="none" stroke="midnightblue" d="M548.04,-1116.7C545.38,-1107.59 542.43,-1097.49 540.11,-1089.58"/>
<polygon fill="midnightblue" stroke="midnightblue" points="544.71,-1117.78 550.88,-1126.4 551.43,-1115.82 544.71,-1117.78"/>
</g>
</g>
</svg>
