<?xml version="1.0" encoding="UTF-8" standalone="no"?>
<!DOCTYPE svg PUBLIC "-//W3C//DTD SVG 1.1//EN"
 "http://www.w3.org/Graphics/SVG/1.1/DTD/svg11.dtd">
<!-- Generated by graphviz version 2.43.0 (0)
 -->
<!-- Title: include/network_butcher/Types/content.h Pages: 1 -->
<svg width="797pt" height="374pt"
 viewBox="0.00 0.00 796.62 374.00" xmlns="http://www.w3.org/2000/svg" xmlns:xlink="http://www.w3.org/1999/xlink">
<g id="graph0" class="graph" transform="scale(1 1) rotate(0) translate(4 370)">
<title>include/network_butcher/Types/content.h</title>
<polygon fill="white" stroke="transparent" points="-4,4 -4,-370 792.62,-370 792.62,4 -4,4"/>
<!-- Node1 -->
<g id="node1" class="node">
<title>Node1</title>
<g id="a_node1"><a xlink:title=" ">
<polygon fill="#bfbfbf" stroke="black" points="589.62,-335.5 589.62,-365.5 726.62,-365.5 726.62,-335.5 589.62,-335.5"/>
<text text-anchor="start" x="597.62" y="-353.5" font-family="Helvetica,sans-Serif" font-size="10.00">include/network_butcher</text>
<text text-anchor="middle" x="658.12" y="-342.5" font-family="Helvetica,sans-Serif" font-size="10.00">/Types/content.h</text>
</a>
</g>
</g>
<!-- Node2 -->
<g id="node2" class="node">
<title>Node2</title>
<g id="a_node2"><a xlink:href="dense__tensor_8h.html" target="_top" xlink:title=" ">
<polygon fill="white" stroke="black" points="547.62,-268.5 547.62,-298.5 676.62,-298.5 676.62,-268.5 547.62,-268.5"/>
<text text-anchor="start" x="555.62" y="-286.5" font-family="Helvetica,sans-Serif" font-size="10.00">network_butcher/Types</text>
<text text-anchor="middle" x="612.12" y="-275.5" font-family="Helvetica,sans-Serif" font-size="10.00">/dense_tensor.h</text>
</a>
</g>
</g>
<!-- Node1&#45;&gt;Node2 -->
<g id="edge1" class="edge">
<title>Node1&#45;&gt;Node2</title>
<path fill="none" stroke="midnightblue" d="M648.14,-335.4C642.23,-327.05 634.62,-316.29 627.91,-306.81"/>
<polygon fill="midnightblue" stroke="midnightblue" points="630.72,-304.72 622.08,-298.58 625,-308.76 630.72,-304.72"/>
</g>
<!-- Node7 -->
<g id="node7" class="node">
<title>Node7</title>
<g id="a_node7"><a xlink:href="variant__attribute_8h.html" target="_top" xlink:title=" ">
<polygon fill="white" stroke="black" points="659.62,-201.5 659.62,-231.5 788.62,-231.5 788.62,-201.5 659.62,-201.5"/>
<text text-anchor="start" x="667.62" y="-219.5" font-family="Helvetica,sans-Serif" font-size="10.00">network_butcher/Types</text>
<text text-anchor="middle" x="724.12" y="-208.5" font-family="Helvetica,sans-Serif" font-size="10.00">/variant_attribute.h</text>
</a>
</g>
</g>
<!-- Node1&#45;&gt;Node7 -->
<g id="edge27" class="edge">
<title>Node1&#45;&gt;Node7</title>
<path fill="none" stroke="midnightblue" d="M666.23,-335.49C671.97,-325.44 679.75,-311.5 686.12,-299 695.92,-279.76 706.22,-257.53 713.63,-241.14"/>
<polygon fill="midnightblue" stroke="midnightblue" points="716.93,-242.34 717.83,-231.78 710.54,-239.47 716.93,-242.34"/>
</g>
<!-- Node3 -->
<g id="node3" class="node">
<title>Node3</title>
<g id="a_node3"><a xlink:href="type__info_8h.html" target="_top" xlink:title=" ">
<polygon fill="white" stroke="black" points="473.62,-67.5 473.62,-97.5 602.62,-97.5 602.62,-67.5 473.62,-67.5"/>
<text text-anchor="start" x="481.62" y="-85.5" font-family="Helvetica,sans-Serif" font-size="10.00">network_butcher/Types</text>
<text text-anchor="middle" x="538.12" y="-74.5" font-family="Helvetica,sans-Serif" font-size="10.00">/type_info.h</text>
</a>
</g>
</g>
<!-- Node2&#45;&gt;Node3 -->
<g id="edge2" class="edge">
<title>Node2&#45;&gt;Node3</title>
<path fill="none" stroke="midnightblue" d="M610.28,-268.41C606.37,-241.33 595.76,-180.58 574.12,-134 569.54,-124.14 562.98,-114.21 556.7,-105.79"/>
<polygon fill="midnightblue" stroke="midnightblue" points="559.27,-103.38 550.37,-97.63 553.74,-107.68 559.27,-103.38"/>
</g>
<!-- Node5 -->
<g id="node5" class="node">
<title>Node5</title>
<g id="a_node5"><a xlink:title=" ">
<polygon fill="white" stroke="#bfbfbf" points="607.62,-6 607.62,-25 654.62,-25 654.62,-6 607.62,-6"/>
<text text-anchor="middle" x="631.12" y="-13" font-family="Helvetica,sans-Serif" font-size="10.00">vector</text>
</a>
</g>
</g>
<!-- Node2&#45;&gt;Node5 -->
<g id="edge26" class="edge">
<title>Node2&#45;&gt;Node5</title>
<path fill="none" stroke="midnightblue" d="M613.14,-268.2C616.35,-223.35 626.2,-85.45 629.79,-35.13"/>
<polygon fill="midnightblue" stroke="midnightblue" points="633.29,-35.27 630.51,-25.05 626.31,-34.77 633.29,-35.27"/>
</g>
<!-- Node2&#45;&gt;Node7 -->
<g id="edge6" class="edge">
<title>Node2&#45;&gt;Node7</title>
<path fill="none" stroke="midnightblue" d="M636.42,-268.4C652.42,-259.11 673.56,-246.84 691.08,-236.67"/>
<polygon fill="midnightblue" stroke="midnightblue" points="692.97,-239.62 699.87,-231.58 689.46,-233.57 692.97,-239.62"/>
</g>
<!-- Node9 -->
<g id="node9" class="node">
<title>Node9</title>
<g id="a_node9"><a xlink:href="utilities_8h.html" target="_top" xlink:title=" ">
<polygon fill="white" stroke="black" points="254.62,-207 254.62,-226 401.62,-226 401.62,-207 254.62,-207"/>
<text text-anchor="middle" x="328.12" y="-214" font-family="Helvetica,sans-Serif" font-size="10.00">network_butcher/utilities.h</text>
</a>
</g>
</g>
<!-- Node2&#45;&gt;Node9 -->
<g id="edge10" class="edge">
<title>Node2&#45;&gt;Node9</title>
<path fill="none" stroke="midnightblue" d="M547.33,-268.95C493.12,-256.92 417.44,-239.57 370.62,-228.42"/>
<polygon fill="midnightblue" stroke="midnightblue" points="371.33,-224.99 360.79,-226.06 369.71,-231.8 371.33,-224.99"/>
</g>
<!-- Node4 -->
<g id="node4" class="node">
<title>Node4</title>
<g id="a_node4"><a xlink:title=" ">
<polygon fill="white" stroke="#bfbfbf" points="714.12,-6 714.12,-25 758.12,-25 758.12,-6 714.12,-6"/>
<text text-anchor="middle" x="736.12" y="-13" font-family="Helvetica,sans-Serif" font-size="10.00">string</text>
</a>
</g>
</g>
<!-- Node3&#45;&gt;Node4 -->
<g id="edge3" class="edge">
<title>Node3&#45;&gt;Node4</title>
<path fill="none" stroke="midnightblue" d="M581.08,-67.4C618.19,-55.21 670.96,-37.89 704.36,-26.93"/>
<polygon fill="midnightblue" stroke="midnightblue" points="705.66,-30.18 714.07,-23.74 703.47,-23.53 705.66,-30.18"/>
</g>
<!-- Node3&#45;&gt;Node5 -->
<g id="edge4" class="edge">
<title>Node3&#45;&gt;Node5</title>
<path fill="none" stroke="midnightblue" d="M558.3,-67.4C573.75,-56.6 594.98,-41.76 610.54,-30.89"/>
<polygon fill="midnightblue" stroke="midnightblue" points="612.76,-33.6 618.95,-25.01 608.75,-27.87 612.76,-33.6"/>
</g>
<!-- Node6 -->
<g id="node6" class="node">
<title>Node6</title>
<g id="a_node6"><a xlink:href="starting__traits_8h.html" target="_top" xlink:title=" ">
<polygon fill="white" stroke="black" points="421.12,-0.5 421.12,-30.5 549.12,-30.5 549.12,-0.5 421.12,-0.5"/>
<text text-anchor="start" x="429.12" y="-18.5" font-family="Helvetica,sans-Serif" font-size="10.00">network_butcher/Traits</text>
<text text-anchor="middle" x="485.12" y="-7.5" font-family="Helvetica,sans-Serif" font-size="10.00">/starting_traits.h</text>
</a>
</g>
</g>
<!-- Node3&#45;&gt;Node6 -->
<g id="edge5" class="edge">
<title>Node3&#45;&gt;Node6</title>
<path fill="none" stroke="midnightblue" d="M526.62,-67.4C519.75,-58.96 510.86,-48.07 503.08,-38.52"/>
<polygon fill="midnightblue" stroke="midnightblue" points="505.63,-36.11 496.6,-30.58 500.21,-40.54 505.63,-36.11"/>
</g>
<!-- Node7&#45;&gt;Node4 -->
<g id="edge7" class="edge">
<title>Node7&#45;&gt;Node4</title>
<path fill="none" stroke="midnightblue" d="M737.11,-201.25C744.86,-191.75 753.99,-178.55 758.12,-165 772.09,-119.25 754.72,-62.76 743.77,-34.46"/>
<polygon fill="midnightblue" stroke="midnightblue" points="746.96,-33.02 739.96,-25.07 740.47,-35.65 746.96,-33.02"/>
</g>
<!-- Node7&#45;&gt;Node5 -->
<g id="edge9" class="edge">
<title>Node7&#45;&gt;Node5</title>
<path fill="none" stroke="midnightblue" d="M713.08,-201.49C705.67,-191.65 696.04,-177.99 689.12,-165 665.35,-120.35 645.96,-63.78 636.81,-35.05"/>
<polygon fill="midnightblue" stroke="midnightblue" points="640.05,-33.68 633.72,-25.18 633.37,-35.77 640.05,-33.68"/>
</g>
<!-- Node8 -->
<g id="node8" class="node">
<title>Node8</title>
<g id="a_node8"><a xlink:title=" ">
<polygon fill="white" stroke="#bfbfbf" points="697.62,-140 697.62,-159 748.62,-159 748.62,-140 697.62,-140"/>
<text text-anchor="middle" x="723.12" y="-147" font-family="Helvetica,sans-Serif" font-size="10.00">variant</text>
</a>
</g>
</g>
<!-- Node7&#45;&gt;Node8 -->
<g id="edge8" class="edge">
<title>Node7&#45;&gt;Node8</title>
<path fill="none" stroke="midnightblue" d="M723.9,-201.4C723.76,-192.06 723.57,-179.71 723.41,-169.52"/>
<polygon fill="midnightblue" stroke="midnightblue" points="726.91,-169.14 723.25,-159.19 719.91,-169.25 726.91,-169.14"/>
</g>
<!-- Node9&#45;&gt;Node2 -->
<g id="edge24" class="edge">
<title>Node9&#45;&gt;Node2</title>
<path fill="none" stroke="midnightblue" d="M370.12,-226.03C416.71,-236.19 492.28,-253.39 546.63,-266.15"/>
<polygon fill="midnightblue" stroke="midnightblue" points="545.98,-269.59 556.51,-268.48 547.58,-262.78 545.98,-269.59"/>
</g>
<!-- Node9&#45;&gt;Node3 -->
<g id="edge25" class="edge">
<title>Node9&#45;&gt;Node3</title>
<path fill="none" stroke="midnightblue" d="M358.73,-206.92C385.29,-198.65 424.07,-184.5 454.12,-165 467.86,-156.08 497.6,-126.08 517.75,-105.08"/>
<polygon fill="midnightblue" stroke="midnightblue" points="520.32,-107.46 524.69,-97.81 515.25,-102.63 520.32,-107.46"/>
</g>
<!-- Node10 -->
<g id="node10" class="node">
<title>Node10</title>
<g id="a_node10"><a xlink:title=" ">
<polygon fill="white" stroke="#bfbfbf" points="501.12,-140 501.12,-159 565.12,-159 565.12,-140 501.12,-140"/>
<text text-anchor="middle" x="533.12" y="-147" font-family="Helvetica,sans-Serif" font-size="10.00">algorithm</text>
</a>
</g>
</g>
<!-- Node9&#45;&gt;Node10 -->
<g id="edge11" class="edge">
<title>Node9&#45;&gt;Node10</title>
<path fill="none" stroke="midnightblue" d="M355.34,-206.87C391.59,-195.38 455.83,-175.01 496.35,-162.16"/>
<polygon fill="midnightblue" stroke="midnightblue" points="497.64,-165.42 506.11,-159.06 495.52,-158.75 497.64,-165.42"/>
</g>
<!-- Node11 -->
<g id="node11" class="node">
<title>Node11</title>
<g id="a_node11"><a xlink:title=" ">
<polygon fill="white" stroke="#bfbfbf" points="15.12,-140 15.12,-159 71.12,-159 71.12,-140 15.12,-140"/>
<text text-anchor="middle" x="43.12" y="-147" font-family="Helvetica,sans-Serif" font-size="10.00">numeric</text>
</a>
</g>
</g>
<!-- Node9&#45;&gt;Node11 -->
<g id="edge12" class="edge">
<title>Node9&#45;&gt;Node11</title>
<path fill="none" stroke="midnightblue" d="M272.29,-206.97C221.58,-198.55 145.02,-184.17 80.12,-165 77.69,-164.28 75.19,-163.47 72.7,-162.61"/>
<polygon fill="midnightblue" stroke="midnightblue" points="73.85,-159.3 63.26,-159.12 71.42,-165.87 73.85,-159.3"/>
</g>
<!-- Node12 -->
<g id="node12" class="node">
<title>Node12</title>
<g id="a_node12"><a xlink:title=" ">
<polygon fill="white" stroke="#bfbfbf" points="89.12,-140 89.12,-159 157.12,-159 157.12,-140 89.12,-140"/>
<text text-anchor="middle" x="123.12" y="-147" font-family="Helvetica,sans-Serif" font-size="10.00">filesystem</text>
</a>
</g>
</g>
<!-- Node9&#45;&gt;Node12 -->
<g id="edge13" class="edge">
<title>Node9&#45;&gt;Node12</title>
<path fill="none" stroke="midnightblue" d="M300.45,-206.95C268.34,-197.01 213.83,-180.02 167.12,-165 164.39,-164.12 161.57,-163.21 158.74,-162.29"/>
<polygon fill="midnightblue" stroke="midnightblue" points="159.75,-158.93 149.16,-159.15 157.57,-165.59 159.75,-158.93"/>
</g>
<!-- Node13 -->
<g id="node13" class="node">
<title>Node13</title>
<g id="a_node13"><a xlink:title=" ">
<polygon fill="white" stroke="#bfbfbf" points="175.62,-140 175.62,-159 230.62,-159 230.62,-140 175.62,-140"/>
<text text-anchor="middle" x="203.12" y="-147" font-family="Helvetica,sans-Serif" font-size="10.00">fstream</text>
</a>
</g>
</g>
<!-- Node9&#45;&gt;Node13 -->
<g id="edge14" class="edge">
<title>Node9&#45;&gt;Node13</title>
<path fill="none" stroke="midnightblue" d="M311.52,-206.87C290.42,-195.89 253.74,-176.82 228.96,-163.94"/>
<polygon fill="midnightblue" stroke="midnightblue" points="230.28,-160.68 219.79,-159.17 227.05,-166.89 230.28,-160.68"/>
</g>
<!-- Node14 -->
<g id="node14" class="node">
<title>Node14</title>
<g id="a_node14"><a xlink:title=" ">
<polygon fill="white" stroke="#bfbfbf" points="249.12,-140 249.12,-159 299.12,-159 299.12,-140 249.12,-140"/>
<text text-anchor="middle" x="274.12" y="-147" font-family="Helvetica,sans-Serif" font-size="10.00">ranges</text>
</a>
</g>
</g>
<!-- Node9&#45;&gt;Node14 -->
<g id="edge15" class="edge">
<title>Node9&#45;&gt;Node14</title>
<path fill="none" stroke="midnightblue" d="M320.84,-206.73C312.42,-196.6 298.37,-179.69 287.87,-167.06"/>
<polygon fill="midnightblue" stroke="midnightblue" points="290.37,-164.58 281.29,-159.13 284.99,-169.06 290.37,-164.58"/>
</g>
<!-- Node15 -->
<g id="node15" class="node">
<title>Node15</title>
<g id="a_node15"><a xlink:title=" ">
<polygon fill="white" stroke="#bfbfbf" points="17.62,-67.5 17.62,-97.5 142.62,-97.5 142.62,-67.5 17.62,-67.5"/>
<text text-anchor="start" x="25.62" y="-85.5" font-family="Helvetica,sans-Serif" font-size="10.00">network_butcher/onnx</text>
<text text-anchor="middle" x="80.12" y="-74.5" font-family="Helvetica,sans-Serif" font-size="10.00">_proto/onnx.pb.h</text>
</a>
</g>
</g>
<!-- Node9&#45;&gt;Node15 -->
<g id="edge16" class="edge">
<title>Node9&#45;&gt;Node15</title>
<path fill="none" stroke="midnightblue" d="M254.48,-214.62C169.51,-211.86 37.43,-201.6 6.12,-165 -12.46,-143.27 15.94,-119.11 42.76,-102.78"/>
<polygon fill="midnightblue" stroke="midnightblue" points="44.85,-105.61 51.73,-97.55 41.32,-99.56 44.85,-105.61"/>
</g>
<!-- Node16 -->
<g id="node16" class="node">
<title>Node16</title>
<g id="a_node16"><a xlink:href="traits_8h.html" target="_top" xlink:title=" ">
<polygon fill="white" stroke="black" points="317.12,-134.5 317.12,-164.5 445.12,-164.5 445.12,-134.5 317.12,-134.5"/>
<text text-anchor="start" x="325.12" y="-152.5" font-family="Helvetica,sans-Serif" font-size="10.00">network_butcher/Traits</text>
<text text-anchor="middle" x="381.12" y="-141.5" font-family="Helvetica,sans-Serif" font-size="10.00">/traits.h</text>
</a>
</g>
</g>
<!-- Node9&#45;&gt;Node16 -->
<g id="edge17" class="edge">
<title>Node9&#45;&gt;Node16</title>
<path fill="none" stroke="midnightblue" d="M335.27,-206.73C342.36,-198.03 353.52,-184.34 363.06,-172.65"/>
<polygon fill="midnightblue" stroke="midnightblue" points="366.03,-174.55 369.63,-164.59 360.6,-170.13 366.03,-174.55"/>
</g>
<!-- Node16&#45;&gt;Node3 -->
<g id="edge22" class="edge">
<title>Node16&#45;&gt;Node3</title>
<path fill="none" stroke="midnightblue" d="M415.19,-134.4C438.54,-124.73 469.71,-111.82 494.82,-101.43"/>
<polygon fill="midnightblue" stroke="midnightblue" points="496.22,-104.64 504.12,-97.58 493.54,-98.17 496.22,-104.64"/>
</g>
<!-- Node16&#45;&gt;Node6 -->
<g id="edge21" class="edge">
<title>Node16&#45;&gt;Node6</title>
<path fill="none" stroke="midnightblue" d="M394.52,-134.25C403.68,-124.32 415.97,-110.63 426.12,-98 441.64,-78.7 458.06,-55.79 469.63,-39.18"/>
<polygon fill="midnightblue" stroke="midnightblue" points="472.71,-40.88 475.52,-30.66 466.95,-36.9 472.71,-40.88"/>
</g>
<!-- Node16&#45;&gt;Node15 -->
<g id="edge23" class="edge">
<title>Node16&#45;&gt;Node15</title>
<path fill="none" stroke="midnightblue" d="M316.92,-134.64C268.68,-124.22 202.58,-109.95 152.48,-99.12"/>
<polygon fill="midnightblue" stroke="midnightblue" points="153.19,-95.7 142.68,-97.01 151.71,-102.54 153.19,-95.7"/>
</g>
<!-- Node17 -->
<g id="node17" class="node">
<title>Node17</title>
<g id="a_node17"><a xlink:title=" ">
<polygon fill="white" stroke="#bfbfbf" points="253.12,-73 253.12,-92 285.12,-92 285.12,-73 253.12,-73"/>
<text text-anchor="middle" x="269.12" y="-80" font-family="Helvetica,sans-Serif" font-size="10.00">set</text>
</a>
</g>
</g>
<!-- Node16&#45;&gt;Node17 -->
<g id="edge18" class="edge">
<title>Node16&#45;&gt;Node17</title>
<path fill="none" stroke="midnightblue" d="M356.82,-134.4C337.78,-123.34 311.44,-108.06 292.61,-97.13"/>
<polygon fill="midnightblue" stroke="midnightblue" points="294.19,-94 283.78,-92.01 290.67,-100.05 294.19,-94"/>
</g>
<!-- Node18 -->
<g id="node18" class="node">
<title>Node18</title>
<g id="a_node18"><a xlink:title=" ">
<polygon fill="white" stroke="#bfbfbf" points="303.12,-73 303.12,-92 341.12,-92 341.12,-73 303.12,-73"/>
<text text-anchor="middle" x="322.12" y="-80" font-family="Helvetica,sans-Serif" font-size="10.00">map</text>
</a>
</g>
</g>
<!-- Node16&#45;&gt;Node18 -->
<g id="edge19" class="edge">
<title>Node16&#45;&gt;Node18</title>
<path fill="none" stroke="midnightblue" d="M368.32,-134.4C359.03,-124.16 346.44,-110.3 336.75,-99.62"/>
<polygon fill="midnightblue" stroke="midnightblue" points="339.33,-97.25 330.01,-92.19 334.14,-101.95 339.33,-97.25"/>
</g>
<!-- Node19 -->
<g id="node19" class="node">
<title>Node19</title>
<g id="a_node19"><a xlink:title=" ">
<polygon fill="white" stroke="#bfbfbf" points="359.12,-73 359.12,-92 417.12,-92 417.12,-73 359.12,-73"/>
<text text-anchor="middle" x="388.12" y="-80" font-family="Helvetica,sans-Serif" font-size="10.00">memory</text>
</a>
</g>
</g>
<!-- Node16&#45;&gt;Node19 -->
<g id="edge20" class="edge">
<title>Node16&#45;&gt;Node19</title>
<path fill="none" stroke="midnightblue" d="M382.64,-134.4C383.66,-124.96 385,-112.45 386.11,-102.19"/>
<polygon fill="midnightblue" stroke="midnightblue" points="389.59,-102.51 387.18,-92.19 382.63,-101.76 389.59,-102.51"/>
</g>
</g>
</svg>
