<?xml version="1.0" encoding="UTF-8" standalone="no"?>
<!DOCTYPE svg PUBLIC "-//W3C//DTD SVG 1.1//EN"
 "http://www.w3.org/Graphics/SVG/1.1/DTD/svg11.dtd">
<!-- Generated by graphviz version 2.43.0 (0)
 -->
<!-- Title: include/K&#45;shortest_path/crtp_greater.h Pages: 1 -->
<svg width="611pt" height="776pt"
 viewBox="0.00 0.00 611.00 776.00" xmlns="http://www.w3.org/2000/svg" xmlns:xlink="http://www.w3.org/1999/xlink">
<g id="graph0" class="graph" transform="scale(1 1) rotate(0) translate(4 772)">
<title>include/K&#45;shortest_path/crtp_greater.h</title>
<polygon fill="white" stroke="transparent" points="-4,4 -4,-772 607,-772 607,4 -4,4"/>
<!-- Node1 -->
<g id="node1" class="node">
<title>Node1</title>
<g id="a_node1"><a xlink:title=" ">
<polygon fill="#bfbfbf" stroke="black" points="148,-737.5 148,-767.5 262,-767.5 262,-737.5 148,-737.5"/>
<text text-anchor="start" x="156" y="-755.5" font-family="Helvetica,sans-Serif" font-size="10.00">include/K&#45;shortest</text>
<text text-anchor="middle" x="205" y="-744.5" font-family="Helvetica,sans-Serif" font-size="10.00">_path/crtp_greater.h</text>
</a>
</g>
</g>
<!-- Node2 -->
<g id="node2" class="node">
<title>Node2</title>
<g id="a_node2"><a xlink:href="heap__eppstein_8h.html" target="_top" xlink:title=" ">
<polygon fill="white" stroke="black" points="74.5,-670.5 74.5,-700.5 201.5,-700.5 201.5,-670.5 74.5,-670.5"/>
<text text-anchor="start" x="82.5" y="-688.5" font-family="Helvetica,sans-Serif" font-size="10.00">include/K&#45;shortest</text>
<text text-anchor="middle" x="138" y="-677.5" font-family="Helvetica,sans-Serif" font-size="10.00">_path/heap_eppstein.h</text>
</a>
</g>
</g>
<!-- Node1&#45;&gt;Node2 -->
<g id="edge1" class="edge">
<title>Node1&#45;&gt;Node2</title>
<path fill="none" stroke="midnightblue" d="M183.16,-730.31C173.11,-720.56 161.46,-709.26 152.51,-700.58"/>
<polygon fill="midnightblue" stroke="midnightblue" points="180.85,-732.94 190.46,-737.4 185.72,-727.92 180.85,-732.94"/>
</g>
<!-- Node20 -->
<g id="node20" class="node">
<title>Node20</title>
<g id="a_node20"><a xlink:href="path__info_8h.html" target="_top" xlink:title=" ">
<polygon fill="white" stroke="black" points="220,-670.5 220,-700.5 324,-700.5 324,-670.5 220,-670.5"/>
<text text-anchor="start" x="228" y="-688.5" font-family="Helvetica,sans-Serif" font-size="10.00">include/K&#45;shortest</text>
<text text-anchor="middle" x="272" y="-677.5" font-family="Helvetica,sans-Serif" font-size="10.00">_path/path_info.h</text>
</a>
</g>
</g>
<!-- Node1&#45;&gt;Node20 -->
<g id="edge25" class="edge">
<title>Node1&#45;&gt;Node20</title>
<path fill="none" stroke="midnightblue" d="M226.84,-730.31C236.89,-720.56 248.54,-709.26 257.49,-700.58"/>
<polygon fill="midnightblue" stroke="midnightblue" points="224.28,-727.92 219.54,-737.4 229.15,-732.94 224.28,-727.92"/>
</g>
<!-- Node3 -->
<g id="node3" class="node">
<title>Node3</title>
<g id="a_node3"><a xlink:href="heap__traits_8h.html" target="_top" xlink:title=" ">
<polygon fill="white" stroke="black" points="83,-603.5 83,-633.5 193,-633.5 193,-603.5 83,-603.5"/>
<text text-anchor="start" x="91" y="-621.5" font-family="Helvetica,sans-Serif" font-size="10.00">include/K&#45;shortest</text>
<text text-anchor="middle" x="138" y="-610.5" font-family="Helvetica,sans-Serif" font-size="10.00">_path/heap_traits.h</text>
</a>
</g>
</g>
<!-- Node2&#45;&gt;Node3 -->
<g id="edge2" class="edge">
<title>Node2&#45;&gt;Node3</title>
<path fill="none" stroke="midnightblue" d="M138,-660.11C138,-651.15 138,-641.32 138,-633.58"/>
<polygon fill="midnightblue" stroke="midnightblue" points="134.5,-660.4 138,-670.4 141.5,-660.4 134.5,-660.4"/>
</g>
<!-- Node4 -->
<g id="node4" class="node">
<title>Node4</title>
<g id="a_node4"><a xlink:href="basic__keppstein_8h.html" target="_top" xlink:title=" ">
<polygon fill="white" stroke="black" points="81,-458.5 81,-488.5 215,-488.5 215,-458.5 81,-458.5"/>
<text text-anchor="start" x="89" y="-476.5" font-family="Helvetica,sans-Serif" font-size="10.00">include/K&#45;shortest</text>
<text text-anchor="middle" x="148" y="-465.5" font-family="Helvetica,sans-Serif" font-size="10.00">_path/basic_keppstein.h</text>
</a>
</g>
</g>
<!-- Node3&#45;&gt;Node4 -->
<g id="edge3" class="edge">
<title>Node3&#45;&gt;Node4</title>
<path fill="none" stroke="midnightblue" d="M156.59,-595.14C162.38,-586.83 168.03,-576.98 171,-567 176.33,-549.11 174.96,-543.24 171,-525 168.18,-512.01 161.72,-498.35 156.36,-488.52"/>
<polygon fill="midnightblue" stroke="midnightblue" points="153.77,-593.07 150.61,-603.19 159.39,-597.25 153.77,-593.07"/>
</g>
<!-- Node13 -->
<g id="node13" class="node">
<title>Node13</title>
<g id="a_node13"><a xlink:href="network__butcher_8h.html" target="_top" xlink:title=" ">
<polygon fill="white" stroke="black" points="25.5,-56.5 25.5,-75.5 170.5,-75.5 170.5,-56.5 25.5,-56.5"/>
<text text-anchor="middle" x="98" y="-63.5" font-family="Helvetica,sans-Serif" font-size="10.00">include/network_butcher.h</text>
</a>
</g>
</g>
<!-- Node3&#45;&gt;Node13 -->
<g id="edge24" class="edge">
<title>Node3&#45;&gt;Node13</title>
<path fill="none" stroke="midnightblue" d="M86.07,-599.33C69.36,-591.47 51.86,-580.83 39,-567 8.62,-534.33 0,-519.12 0,-474.5 0,-474.5 0,-474.5 0,-210 0,-149.51 60.41,-95.85 86.37,-75.59"/>
<polygon fill="midnightblue" stroke="midnightblue" points="84.67,-602.54 95.23,-603.42 87.52,-596.15 84.67,-602.54"/>
</g>
<!-- Node19 -->
<g id="node19" class="node">
<title>Node19</title>
<g id="a_node19"><a xlink:href="shortest__path__finder_8h.html" target="_top" xlink:title=" ">
<polygon fill="white" stroke="black" points="48.5,-525.5 48.5,-566.5 161.5,-566.5 161.5,-525.5 48.5,-525.5"/>
<text text-anchor="start" x="56.5" y="-554.5" font-family="Helvetica,sans-Serif" font-size="10.00">include/K&#45;shortest</text>
<text text-anchor="start" x="56.5" y="-543.5" font-family="Helvetica,sans-Serif" font-size="10.00">_path/shortest_path</text>
<text text-anchor="middle" x="105" y="-532.5" font-family="Helvetica,sans-Serif" font-size="10.00">_finder.h</text>
</a>
</g>
</g>
<!-- Node3&#45;&gt;Node19 -->
<g id="edge22" class="edge">
<title>Node3&#45;&gt;Node19</title>
<path fill="none" stroke="midnightblue" d="M127.06,-594.13C122.88,-585.2 118.17,-575.13 114.17,-566.59"/>
<polygon fill="midnightblue" stroke="midnightblue" points="123.91,-595.66 131.32,-603.23 130.25,-592.69 123.91,-595.66"/>
</g>
<!-- Node5 -->
<g id="node5" class="node">
<title>Node5</title>
<g id="a_node5"><a xlink:href="keppstein_8h.html" target="_top" xlink:title=" ">
<polygon fill="white" stroke="black" points="28,-391.5 28,-421.5 132,-421.5 132,-391.5 28,-391.5"/>
<text text-anchor="start" x="36" y="-409.5" font-family="Helvetica,sans-Serif" font-size="10.00">include/K&#45;shortest</text>
<text text-anchor="middle" x="80" y="-398.5" font-family="Helvetica,sans-Serif" font-size="10.00">_path/keppstein.h</text>
</a>
</g>
</g>
<!-- Node4&#45;&gt;Node5 -->
<g id="edge4" class="edge">
<title>Node4&#45;&gt;Node5</title>
<path fill="none" stroke="midnightblue" d="M125.83,-451.31C115.63,-441.56 103.81,-430.26 94.73,-421.58"/>
<polygon fill="midnightblue" stroke="midnightblue" points="123.6,-454.02 133.25,-458.4 128.43,-448.96 123.6,-454.02"/>
</g>
<!-- Node18 -->
<g id="node18" class="node">
<title>Node18</title>
<g id="a_node18"><a xlink:href="keppstein__lazy_8h.html" target="_top" xlink:title=" ">
<polygon fill="white" stroke="black" points="150.5,-391.5 150.5,-421.5 277.5,-421.5 277.5,-391.5 150.5,-391.5"/>
<text text-anchor="start" x="158.5" y="-409.5" font-family="Helvetica,sans-Serif" font-size="10.00">include/K&#45;shortest</text>
<text text-anchor="middle" x="214" y="-398.5" font-family="Helvetica,sans-Serif" font-size="10.00">_path/keppstein_lazy.h</text>
</a>
</g>
</g>
<!-- Node4&#45;&gt;Node18 -->
<g id="edge20" class="edge">
<title>Node4&#45;&gt;Node18</title>
<path fill="none" stroke="midnightblue" d="M169.51,-451.31C179.41,-441.56 190.89,-430.26 199.71,-421.58"/>
<polygon fill="midnightblue" stroke="midnightblue" points="166.99,-448.89 162.32,-458.4 171.9,-453.87 166.99,-448.89"/>
</g>
<!-- Node6 -->
<g id="node6" class="node">
<title>Node6</title>
<g id="a_node6"><a xlink:href="kfinder__factory_8h.html" target="_top" xlink:title=" ">
<polygon fill="white" stroke="black" points="109,-324.5 109,-354.5 237,-354.5 237,-324.5 109,-324.5"/>
<text text-anchor="start" x="117" y="-342.5" font-family="Helvetica,sans-Serif" font-size="10.00">include/K&#45;shortest</text>
<text text-anchor="middle" x="173" y="-331.5" font-family="Helvetica,sans-Serif" font-size="10.00">_path/kfinder_factory.h</text>
</a>
</g>
</g>
<!-- Node5&#45;&gt;Node6 -->
<g id="edge5" class="edge">
<title>Node5&#45;&gt;Node6</title>
<path fill="none" stroke="midnightblue" d="M108.69,-385.45C122.99,-375.45 139.95,-363.6 152.86,-354.58"/>
<polygon fill="midnightblue" stroke="midnightblue" points="106.37,-382.8 100.18,-391.4 110.38,-388.54 106.37,-382.8"/>
</g>
<!-- Node7 -->
<g id="node7" class="node">
<title>Node7</title>
<g id="a_node7"><a xlink:href="butcher_8h.html" target="_top" xlink:title=" ">
<polygon fill="white" stroke="black" points="149,-268.5 149,-287.5 289,-287.5 289,-268.5 149,-268.5"/>
<text text-anchor="middle" x="219" y="-275.5" font-family="Helvetica,sans-Serif" font-size="10.00">include/Butcher/butcher.h</text>
</a>
</g>
</g>
<!-- Node6&#45;&gt;Node7 -->
<g id="edge6" class="edge">
<title>Node6&#45;&gt;Node7</title>
<path fill="none" stroke="midnightblue" d="M190.08,-316.4C197.81,-306.41 206.49,-295.18 212.31,-287.66"/>
<polygon fill="midnightblue" stroke="midnightblue" points="187.25,-314.35 183.9,-324.4 192.79,-318.63 187.25,-314.35"/>
</g>
<!-- Node6&#45;&gt;Node13 -->
<g id="edge19" class="edge">
<title>Node6&#45;&gt;Node13</title>
<path fill="none" stroke="midnightblue" d="M157.53,-315.74C151.85,-307.15 145.47,-297.23 140,-288 125.6,-263.71 119.44,-258.61 110,-232 98.2,-198.73 98.35,-189.14 95,-154 92.28,-125.41 95.25,-91.34 96.96,-75.67"/>
<polygon fill="midnightblue" stroke="midnightblue" points="154.66,-317.76 163.13,-324.13 160.48,-313.87 154.66,-317.76"/>
</g>
<!-- Node8 -->
<g id="node8" class="node">
<title>Node8</title>
<g id="a_node8"><a xlink:href="onnx__importer__helpers_8h.html" target="_top" xlink:title=" ">
<polygon fill="white" stroke="black" points="311.5,-196 311.5,-226 452.5,-226 452.5,-196 311.5,-196"/>
<text text-anchor="start" x="319.5" y="-214" font-family="Helvetica,sans-Serif" font-size="10.00">include/IO_Interaction</text>
<text text-anchor="middle" x="382" y="-203" font-family="Helvetica,sans-Serif" font-size="10.00">/onnx_importer_helpers.h</text>
</a>
</g>
</g>
<!-- Node7&#45;&gt;Node8 -->
<g id="edge7" class="edge">
<title>Node7&#45;&gt;Node8</title>
<path fill="none" stroke="midnightblue" d="M250.2,-264.56C277.81,-253.55 318.07,-237.49 346.82,-226.03"/>
<polygon fill="midnightblue" stroke="midnightblue" points="248.64,-261.41 240.65,-268.37 251.23,-267.92 248.64,-261.41"/>
</g>
<!-- Node7&#45;&gt;Node13 -->
<g id="edge18" class="edge">
<title>Node7&#45;&gt;Node13</title>
<path fill="none" stroke="midnightblue" d="M181.38,-264.65C165.17,-257.52 147.36,-246.94 136,-232 98.28,-182.4 96.97,-101.79 97.64,-75.55"/>
<polygon fill="midnightblue" stroke="midnightblue" points="180.1,-267.91 190.68,-268.46 182.75,-261.43 180.1,-267.91"/>
</g>
<!-- Node16 -->
<g id="node16" class="node">
<title>Node16</title>
<g id="a_node16"><a xlink:href="onnx__model__reconstructor__helpers_8h.html" target="_top" xlink:title=" ">
<polygon fill="white" stroke="black" points="144.5,-190.5 144.5,-231.5 293.5,-231.5 293.5,-190.5 144.5,-190.5"/>
<text text-anchor="start" x="152.5" y="-219.5" font-family="Helvetica,sans-Serif" font-size="10.00">include/IO_Interaction</text>
<text text-anchor="start" x="152.5" y="-208.5" font-family="Helvetica,sans-Serif" font-size="10.00">/onnx_model_reconstructor</text>
<text text-anchor="middle" x="219" y="-197.5" font-family="Helvetica,sans-Serif" font-size="10.00">_helpers.h</text>
</a>
</g>
</g>
<!-- Node7&#45;&gt;Node16 -->
<g id="edge15" class="edge">
<title>Node7&#45;&gt;Node16</title>
<path fill="none" stroke="midnightblue" d="M219,-258.04C219,-249.71 219,-239.94 219,-231.54"/>
<polygon fill="midnightblue" stroke="midnightblue" points="215.5,-258.23 219,-268.23 222.5,-258.23 215.5,-258.23"/>
</g>
<!-- Node9 -->
<g id="node9" class="node">
<title>Node9</title>
<g id="a_node9"><a xlink:href="io__manager_8h.html" target="_top" xlink:title=" ">
<polygon fill="white" stroke="black" points="311.5,-123.5 311.5,-142.5 432.5,-142.5 432.5,-123.5 311.5,-123.5"/>
<text text-anchor="middle" x="372" y="-130.5" font-family="Helvetica,sans-Serif" font-size="10.00">include/io_manager.h</text>
</a>
</g>
</g>
<!-- Node8&#45;&gt;Node9 -->
<g id="edge8" class="edge">
<title>Node8&#45;&gt;Node9</title>
<path fill="none" stroke="midnightblue" d="M378.8,-185.67C376.85,-170.9 374.49,-152.95 373.13,-142.56"/>
<polygon fill="midnightblue" stroke="midnightblue" points="375.34,-186.25 380.12,-195.7 382.28,-185.33 375.34,-186.25"/>
</g>
<!-- Node15 -->
<g id="node15" class="node">
<title>Node15</title>
<g id="a_node15"><a xlink:href="onnx__importer__helpers_8cpp.html" target="_top" xlink:title=" ">
<polygon fill="white" stroke="black" points="451,-118 451,-148 603,-148 603,-118 451,-118"/>
<text text-anchor="start" x="459" y="-136" font-family="Helvetica,sans-Serif" font-size="10.00">src/IO_Interaction</text>
<text text-anchor="middle" x="527" y="-125" font-family="Helvetica,sans-Serif" font-size="10.00">/onnx_importer_helpers.cpp</text>
</a>
</g>
</g>
<!-- Node8&#45;&gt;Node15 -->
<g id="edge14" class="edge">
<title>Node8&#45;&gt;Node15</title>
<path fill="none" stroke="midnightblue" d="M417.92,-191.17C443.4,-177.82 477.06,-160.18 500.21,-148.04"/>
<polygon fill="midnightblue" stroke="midnightblue" points="416.17,-188.14 408.93,-195.88 419.42,-194.34 416.17,-188.14"/>
</g>
<!-- Node10 -->
<g id="node10" class="node">
<title>Node10</title>
<g id="a_node10"><a xlink:href="general__manager_8h.html" target="_top" xlink:title=" ">
<polygon fill="white" stroke="black" points="381.5,-56.5 381.5,-75.5 530.5,-75.5 530.5,-56.5 381.5,-56.5"/>
<text text-anchor="middle" x="456" y="-63.5" font-family="Helvetica,sans-Serif" font-size="10.00">include/general_manager.h</text>
</a>
</g>
</g>
<!-- Node9&#45;&gt;Node10 -->
<g id="edge9" class="edge">
<title>Node9&#45;&gt;Node10</title>
<path fill="none" stroke="midnightblue" d="M391.3,-117.07C407.88,-104.24 431.21,-86.19 444.85,-75.63"/>
<polygon fill="midnightblue" stroke="midnightblue" points="389.1,-114.35 383.33,-123.23 393.38,-119.88 389.1,-114.35"/>
</g>
<!-- Node9&#45;&gt;Node13 -->
<g id="edge12" class="edge">
<title>Node9&#45;&gt;Node13</title>
<path fill="none" stroke="midnightblue" d="M334.16,-120.54C324.07,-117.62 313.15,-114.58 303,-112 247.38,-97.85 182.61,-84.08 140.99,-75.58"/>
<polygon fill="midnightblue" stroke="midnightblue" points="333.33,-123.95 343.92,-123.4 335.3,-117.23 333.33,-123.95"/>
</g>
<!-- Node14 -->
<g id="node14" class="node">
<title>Node14</title>
<g id="a_node14"><a xlink:href="io__manager_8cpp.html" target="_top" xlink:title=" ">
<polygon fill="white" stroke="black" points="252.5,-56.5 252.5,-75.5 363.5,-75.5 363.5,-56.5 252.5,-56.5"/>
<text text-anchor="middle" x="308" y="-63.5" font-family="Helvetica,sans-Serif" font-size="10.00">src/io_manager.cpp</text>
</a>
</g>
</g>
<!-- Node9&#45;&gt;Node14 -->
<g id="edge13" class="edge">
<title>Node9&#45;&gt;Node14</title>
<path fill="none" stroke="midnightblue" d="M356.24,-116C343.69,-103.25 326.6,-85.89 316.49,-75.63"/>
<polygon fill="midnightblue" stroke="midnightblue" points="353.86,-118.56 363.37,-123.23 358.85,-113.65 353.86,-118.56"/>
</g>
<!-- Node11 -->
<g id="node11" class="node">
<title>Node11</title>
<g id="a_node11"><a xlink:href="general__manager_8cpp.html" target="_top" xlink:title=" ">
<polygon fill="white" stroke="black" points="322.5,-0.5 322.5,-19.5 461.5,-19.5 461.5,-0.5 322.5,-0.5"/>
<text text-anchor="middle" x="392" y="-7.5" font-family="Helvetica,sans-Serif" font-size="10.00">src/general_manager.cpp</text>
</a>
</g>
</g>
<!-- Node10&#45;&gt;Node11 -->
<g id="edge10" class="edge">
<title>Node10&#45;&gt;Node11</title>
<path fill="none" stroke="midnightblue" d="M438.01,-49.82C426.54,-40.15 412.09,-27.95 402.47,-19.83"/>
<polygon fill="midnightblue" stroke="midnightblue" points="435.82,-52.55 445.72,-56.32 440.33,-47.2 435.82,-52.55"/>
</g>
<!-- Node12 -->
<g id="node12" class="node">
<title>Node12</title>
<g id="a_node12"><a xlink:href="main_8cpp.html" target="_top" xlink:title=" ">
<polygon fill="white" stroke="black" points="479.5,-0.5 479.5,-19.5 558.5,-19.5 558.5,-0.5 479.5,-0.5"/>
<text text-anchor="middle" x="519" y="-7.5" font-family="Helvetica,sans-Serif" font-size="10.00">src/main.cpp</text>
</a>
</g>
</g>
<!-- Node10&#45;&gt;Node12 -->
<g id="edge11" class="edge">
<title>Node10&#45;&gt;Node12</title>
<path fill="none" stroke="midnightblue" d="M474.04,-49.54C485.27,-39.91 499.32,-27.87 508.69,-19.83"/>
<polygon fill="midnightblue" stroke="midnightblue" points="471.44,-47.16 466.12,-56.32 475.99,-52.47 471.44,-47.16"/>
</g>
<!-- Node16&#45;&gt;Node9 -->
<g id="edge16" class="edge">
<title>Node16&#45;&gt;Node9</title>
<path fill="none" stroke="midnightblue" d="M267.43,-185.94C297.28,-171.12 333.75,-153 354.78,-142.55"/>
<polygon fill="midnightblue" stroke="midnightblue" points="265.8,-182.84 258.4,-190.43 268.91,-189.11 265.8,-182.84"/>
</g>
<!-- Node17 -->
<g id="node17" class="node">
<title>Node17</title>
<g id="a_node17"><a xlink:href="onnx__model__reconstructor__helpers_8cpp.html" target="_top" xlink:title=" ">
<polygon fill="white" stroke="black" points="144.5,-112.5 144.5,-153.5 293.5,-153.5 293.5,-112.5 144.5,-112.5"/>
<text text-anchor="start" x="152.5" y="-141.5" font-family="Helvetica,sans-Serif" font-size="10.00">src/IO_Interaction</text>
<text text-anchor="start" x="152.5" y="-130.5" font-family="Helvetica,sans-Serif" font-size="10.00">/onnx_model_reconstructor</text>
<text text-anchor="middle" x="219" y="-119.5" font-family="Helvetica,sans-Serif" font-size="10.00">_helpers.cpp</text>
</a>
</g>
</g>
<!-- Node16&#45;&gt;Node17 -->
<g id="edge17" class="edge">
<title>Node16&#45;&gt;Node17</title>
<path fill="none" stroke="midnightblue" d="M219,-180.3C219,-171.3 219,-161.65 219,-153.51"/>
<polygon fill="midnightblue" stroke="midnightblue" points="215.5,-180.43 219,-190.43 222.5,-180.43 215.5,-180.43"/>
</g>
<!-- Node18&#45;&gt;Node6 -->
<g id="edge21" class="edge">
<title>Node18&#45;&gt;Node6</title>
<path fill="none" stroke="midnightblue" d="M199.72,-382.87C193.79,-373.46 187.09,-362.83 181.88,-354.58"/>
<polygon fill="midnightblue" stroke="midnightblue" points="196.81,-384.81 205.1,-391.4 202.73,-381.07 196.81,-384.81"/>
</g>
<!-- Node19&#45;&gt;Node4 -->
<g id="edge23" class="edge">
<title>Node19&#45;&gt;Node4</title>
<path fill="none" stroke="midnightblue" d="M122.35,-516.55C128.15,-507.05 134.36,-496.86 139.22,-488.89"/>
<polygon fill="midnightblue" stroke="midnightblue" points="119.2,-515 116.98,-525.36 125.17,-518.65 119.2,-515"/>
</g>
<!-- Node20&#45;&gt;Node3 -->
<g id="edge28" class="edge">
<title>Node20&#45;&gt;Node3</title>
<path fill="none" stroke="midnightblue" d="M233.85,-665.99C212.61,-655.69 186.59,-643.07 167.02,-633.58"/>
<polygon fill="midnightblue" stroke="midnightblue" points="232.4,-669.18 242.92,-670.4 235.45,-662.88 232.4,-669.18"/>
</g>
<!-- Node21 -->
<g id="node21" class="node">
<title>Node21</title>
<g id="a_node21"><a xlink:href="path__converter_8h.html" target="_top" xlink:title=" ">
<polygon fill="white" stroke="black" points="233.5,-531 233.5,-561 350.5,-561 350.5,-531 233.5,-531"/>
<text text-anchor="start" x="241.5" y="-549" font-family="Helvetica,sans-Serif" font-size="10.00">include/Butcher/path</text>
<text text-anchor="middle" x="292" y="-538" font-family="Helvetica,sans-Serif" font-size="10.00">_converter.h</text>
</a>
</g>
</g>
<!-- Node20&#45;&gt;Node21 -->
<g id="edge26" class="edge">
<title>Node20&#45;&gt;Node21</title>
<path fill="none" stroke="midnightblue" d="M275.52,-660.29C279.69,-631.61 286.51,-584.78 289.92,-561.33"/>
<polygon fill="midnightblue" stroke="midnightblue" points="272.04,-659.9 274.07,-670.3 278.97,-660.91 272.04,-659.9"/>
</g>
<!-- Node21&#45;&gt;Node7 -->
<g id="edge27" class="edge">
<title>Node21&#45;&gt;Node7</title>
<path fill="none" stroke="midnightblue" d="M294.98,-520.32C297.87,-489.39 300.11,-435.07 287,-391 274.29,-348.26 241.18,-305.32 226.36,-287.53"/>
<polygon fill="midnightblue" stroke="midnightblue" points="291.46,-520.29 293.91,-530.6 298.43,-521.02 291.46,-520.29"/>
</g>
</g>
</svg>
