<?xml version="1.0" encoding="UTF-8" standalone="no"?>
<!DOCTYPE svg PUBLIC "-//W3C//DTD SVG 1.1//EN"
 "http://www.w3.org/Graphics/SVG/1.1/DTD/svg11.dtd">
<!-- Generated by graphviz version 2.43.0 (0)
 -->
<!-- Title: include/network_butcher/K&#45;shortest_path/crtp_greater.h Pages: 1 -->
<svg width="657pt" height="875pt"
 viewBox="0.00 0.00 656.50 875.00" xmlns="http://www.w3.org/2000/svg" xmlns:xlink="http://www.w3.org/1999/xlink">
<g id="graph0" class="graph" transform="scale(1 1) rotate(0) translate(4 871)">
<title>include/network_butcher/K&#45;shortest_path/crtp_greater.h</title>
<polygon fill="white" stroke="transparent" points="-4,4 -4,-871 652.5,-871 652.5,4 -4,4"/>
<!-- Node1 -->
<g id="node1" class="node">
<title>Node1</title>
<g id="a_node1"><a xlink:title=" ">
<polygon fill="#bfbfbf" stroke="black" points="313,-825.5 313,-866.5 450,-866.5 450,-825.5 313,-825.5"/>
<text text-anchor="start" x="321" y="-854.5" font-family="Helvetica,sans-Serif" font-size="10.00">include/network_butcher</text>
<text text-anchor="start" x="321" y="-843.5" font-family="Helvetica,sans-Serif" font-size="10.00">/K&#45;shortest_path/crtp</text>
<text text-anchor="middle" x="381.5" y="-832.5" font-family="Helvetica,sans-Serif" font-size="10.00">_greater.h</text>
</a>
</g>
</g>
<!-- Node2 -->
<g id="node2" class="node">
<title>Node2</title>
<g id="a_node2"><a xlink:href="heap__eppstein_8h.html" target="_top" xlink:title=" ">
<polygon fill="white" stroke="black" points="391,-747.5 391,-788.5 528,-788.5 528,-747.5 391,-747.5"/>
<text text-anchor="start" x="399" y="-776.5" font-family="Helvetica,sans-Serif" font-size="10.00">include/network_butcher</text>
<text text-anchor="start" x="399" y="-765.5" font-family="Helvetica,sans-Serif" font-size="10.00">/K&#45;shortest_path/heap</text>
<text text-anchor="middle" x="459.5" y="-754.5" font-family="Helvetica,sans-Serif" font-size="10.00">_eppstein.h</text>
</a>
</g>
</g>
<!-- Node1&#45;&gt;Node2 -->
<g id="edge1" class="edge">
<title>Node1&#45;&gt;Node2</title>
<path fill="none" stroke="midnightblue" d="M409,-818.2C419.05,-808.42 430.21,-797.54 439.48,-788.51"/>
<polygon fill="midnightblue" stroke="midnightblue" points="406.31,-815.94 401.59,-825.43 411.19,-820.96 406.31,-815.94"/>
</g>
<!-- Node19 -->
<g id="node19" class="node">
<title>Node19</title>
<g id="a_node19"><a xlink:href="path__info_8h.html" target="_top" xlink:title=" ">
<polygon fill="white" stroke="black" points="236,-747.5 236,-788.5 373,-788.5 373,-747.5 236,-747.5"/>
<text text-anchor="start" x="244" y="-776.5" font-family="Helvetica,sans-Serif" font-size="10.00">include/network_butcher</text>
<text text-anchor="start" x="244" y="-765.5" font-family="Helvetica,sans-Serif" font-size="10.00">/K&#45;shortest_path/path</text>
<text text-anchor="middle" x="304.5" y="-754.5" font-family="Helvetica,sans-Serif" font-size="10.00">_info.h</text>
</a>
</g>
</g>
<!-- Node1&#45;&gt;Node19 -->
<g id="edge25" class="edge">
<title>Node1&#45;&gt;Node19</title>
<path fill="none" stroke="midnightblue" d="M354.35,-818.2C344.43,-808.42 333.41,-797.54 324.26,-788.51"/>
<polygon fill="midnightblue" stroke="midnightblue" points="352.09,-820.89 361.67,-825.43 357.01,-815.91 352.09,-820.89"/>
</g>
<!-- Node3 -->
<g id="node3" class="node">
<title>Node3</title>
<g id="a_node3"><a xlink:href="heap__traits_8h.html" target="_top" xlink:title=" ">
<polygon fill="white" stroke="black" points="391,-669.5 391,-710.5 528,-710.5 528,-669.5 391,-669.5"/>
<text text-anchor="start" x="399" y="-698.5" font-family="Helvetica,sans-Serif" font-size="10.00">include/network_butcher</text>
<text text-anchor="start" x="399" y="-687.5" font-family="Helvetica,sans-Serif" font-size="10.00">/K&#45;shortest_path/heap</text>
<text text-anchor="middle" x="459.5" y="-676.5" font-family="Helvetica,sans-Serif" font-size="10.00">_traits.h</text>
</a>
</g>
</g>
<!-- Node2&#45;&gt;Node3 -->
<g id="edge2" class="edge">
<title>Node2&#45;&gt;Node3</title>
<path fill="none" stroke="midnightblue" d="M459.5,-737.3C459.5,-728.3 459.5,-718.65 459.5,-710.51"/>
<polygon fill="midnightblue" stroke="midnightblue" points="456,-737.43 459.5,-747.43 463,-737.43 456,-737.43"/>
</g>
<!-- Node4 -->
<g id="node4" class="node">
<title>Node4</title>
<g id="a_node4"><a xlink:href="basic__keppstein_8h.html" target="_top" xlink:title=" ">
<polygon fill="white" stroke="black" points="346,-513.5 346,-554.5 483,-554.5 483,-513.5 346,-513.5"/>
<text text-anchor="start" x="354" y="-542.5" font-family="Helvetica,sans-Serif" font-size="10.00">include/network_butcher</text>
<text text-anchor="start" x="354" y="-531.5" font-family="Helvetica,sans-Serif" font-size="10.00">/K&#45;shortest_path/basic</text>
<text text-anchor="middle" x="414.5" y="-520.5" font-family="Helvetica,sans-Serif" font-size="10.00">_keppstein.h</text>
</a>
</g>
</g>
<!-- Node3&#45;&gt;Node4 -->
<g id="edge3" class="edge">
<title>Node3&#45;&gt;Node4</title>
<path fill="none" stroke="midnightblue" d="M443.78,-660.15C439.62,-651.61 435.47,-642.1 432.5,-633 423.86,-606.52 418.97,-574.59 416.53,-554.53"/>
<polygon fill="midnightblue" stroke="midnightblue" points="440.77,-661.98 448.41,-669.32 447.02,-658.82 440.77,-661.98"/>
</g>
<!-- Node11 -->
<g id="node11" class="node">
<title>Node11</title>
<g id="a_node11"><a xlink:href="network__butcher_8h.html" target="_top" xlink:title=" ">
<polygon fill="white" stroke="black" points="434,-0.5 434,-30.5 571,-30.5 571,-0.5 434,-0.5"/>
<text text-anchor="start" x="442" y="-18.5" font-family="Helvetica,sans-Serif" font-size="10.00">include/network_butcher</text>
<text text-anchor="middle" x="502.5" y="-7.5" font-family="Helvetica,sans-Serif" font-size="10.00">/network_butcher.h</text>
</a>
</g>
</g>
<!-- Node3&#45;&gt;Node11 -->
<g id="edge24" class="edge">
<title>Node3&#45;&gt;Node11</title>
<path fill="none" stroke="midnightblue" d="M534.55,-665.54C553.51,-657.27 572.9,-646.56 588.5,-633 627.05,-599.5 648.5,-586.07 648.5,-535 648.5,-535 648.5,-535 648.5,-154 648.5,-92.89 579.88,-50.95 536.73,-30.61"/>
<polygon fill="midnightblue" stroke="midnightblue" points="533.17,-662.32 525.29,-669.41 535.87,-668.78 533.17,-662.32"/>
</g>
<!-- Node18 -->
<g id="node18" class="node">
<title>Node18</title>
<g id="a_node18"><a xlink:href="shortest__path__finder_8h.html" target="_top" xlink:title=" ">
<polygon fill="white" stroke="black" points="441.5,-591.5 441.5,-632.5 579.5,-632.5 579.5,-591.5 441.5,-591.5"/>
<text text-anchor="start" x="449.5" y="-620.5" font-family="Helvetica,sans-Serif" font-size="10.00">include/network_butcher</text>
<text text-anchor="start" x="449.5" y="-609.5" font-family="Helvetica,sans-Serif" font-size="10.00">/K&#45;shortest_path/shortest</text>
<text text-anchor="middle" x="510.5" y="-598.5" font-family="Helvetica,sans-Serif" font-size="10.00">_path_finder.h</text>
</a>
</g>
</g>
<!-- Node3&#45;&gt;Node18 -->
<g id="edge22" class="edge">
<title>Node3&#45;&gt;Node18</title>
<path fill="none" stroke="midnightblue" d="M478.26,-661.05C484.62,-651.57 491.59,-641.18 497.41,-632.51"/>
<polygon fill="midnightblue" stroke="midnightblue" points="475.3,-659.17 472.63,-669.43 481.11,-663.07 475.3,-659.17"/>
</g>
<!-- Node5 -->
<g id="node5" class="node">
<title>Node5</title>
<g id="a_node5"><a xlink:href="keppstein_8h.html" target="_top" xlink:title=" ">
<polygon fill="white" stroke="black" points="465,-441 465,-471 620,-471 620,-441 465,-441"/>
<text text-anchor="start" x="473" y="-459" font-family="Helvetica,sans-Serif" font-size="10.00">include/network_butcher</text>
<text text-anchor="middle" x="542.5" y="-448" font-family="Helvetica,sans-Serif" font-size="10.00">/K&#45;shortest_path/keppstein.h</text>
</a>
</g>
</g>
<!-- Node4&#45;&gt;Node5 -->
<g id="edge4" class="edge">
<title>Node4&#45;&gt;Node5</title>
<path fill="none" stroke="midnightblue" d="M456.08,-508.31C476.75,-496.04 501,-481.64 518.54,-471.23"/>
<polygon fill="midnightblue" stroke="midnightblue" points="454.27,-505.31 447.46,-513.43 457.85,-511.33 454.27,-505.31"/>
</g>
<!-- Node17 -->
<g id="node17" class="node">
<title>Node17</title>
<g id="a_node17"><a xlink:href="keppstein__lazy_8h.html" target="_top" xlink:title=" ">
<polygon fill="white" stroke="black" points="300.5,-435.5 300.5,-476.5 446.5,-476.5 446.5,-435.5 300.5,-435.5"/>
<text text-anchor="start" x="308.5" y="-464.5" font-family="Helvetica,sans-Serif" font-size="10.00">include/network_butcher</text>
<text text-anchor="start" x="308.5" y="-453.5" font-family="Helvetica,sans-Serif" font-size="10.00">/K&#45;shortest_path/keppstein</text>
<text text-anchor="middle" x="373.5" y="-442.5" font-family="Helvetica,sans-Serif" font-size="10.00">_lazy.h</text>
</a>
</g>
</g>
<!-- Node4&#45;&gt;Node17 -->
<g id="edge20" class="edge">
<title>Node4&#45;&gt;Node17</title>
<path fill="none" stroke="midnightblue" d="M399.11,-504.47C394.08,-495.14 388.61,-485.01 384.02,-476.51"/>
<polygon fill="midnightblue" stroke="midnightblue" points="396.11,-506.29 403.94,-513.43 402.27,-502.97 396.11,-506.29"/>
</g>
<!-- Node6 -->
<g id="node6" class="node">
<title>Node6</title>
<g id="a_node6"><a xlink:href="kfinder__factory_8h.html" target="_top" xlink:title=" ">
<polygon fill="white" stroke="black" points="375,-357.5 375,-398.5 512,-398.5 512,-357.5 375,-357.5"/>
<text text-anchor="start" x="383" y="-386.5" font-family="Helvetica,sans-Serif" font-size="10.00">include/network_butcher</text>
<text text-anchor="start" x="383" y="-375.5" font-family="Helvetica,sans-Serif" font-size="10.00">/K&#45;shortest_path/kfinder</text>
<text text-anchor="middle" x="443.5" y="-364.5" font-family="Helvetica,sans-Serif" font-size="10.00">_factory.h</text>
</a>
</g>
</g>
<!-- Node5&#45;&gt;Node6 -->
<g id="edge5" class="edge">
<title>Node5&#45;&gt;Node6</title>
<path fill="none" stroke="midnightblue" d="M515.78,-434.49C501.29,-423.36 483.46,-409.68 469.14,-398.68"/>
<polygon fill="midnightblue" stroke="midnightblue" points="513.82,-437.39 523.88,-440.7 518.08,-431.84 513.82,-437.39"/>
</g>
<!-- Node7 -->
<g id="node7" class="node">
<title>Node7</title>
<g id="a_node7"><a xlink:href="butcher_8h.html" target="_top" xlink:title=" ">
<polygon fill="white" stroke="black" points="325,-290.5 325,-320.5 462,-320.5 462,-290.5 325,-290.5"/>
<text text-anchor="start" x="333" y="-308.5" font-family="Helvetica,sans-Serif" font-size="10.00">include/network_butcher</text>
<text text-anchor="middle" x="393.5" y="-297.5" font-family="Helvetica,sans-Serif" font-size="10.00">/Butcher/butcher.h</text>
</a>
</g>
</g>
<!-- Node6&#45;&gt;Node7 -->
<g id="edge6" class="edge">
<title>Node6&#45;&gt;Node7</title>
<path fill="none" stroke="midnightblue" d="M423.74,-349.14C416.88,-339.47 409.48,-329.02 403.71,-320.89"/>
<polygon fill="midnightblue" stroke="midnightblue" points="420.93,-351.23 429.57,-357.36 426.64,-347.18 420.93,-351.23"/>
</g>
<!-- Node6&#45;&gt;Node11 -->
<g id="edge19" class="edge">
<title>Node6&#45;&gt;Node11</title>
<path fill="none" stroke="midnightblue" d="M475.93,-350.39C504.13,-324.08 540.5,-281.03 540.5,-234 540.5,-234 540.5,-234 540.5,-154 540.5,-114.84 538.13,-104.4 526.5,-67 522.52,-54.21 515.86,-40.53 510.56,-30.64"/>
<polygon fill="midnightblue" stroke="midnightblue" points="473.3,-348.06 468.23,-357.36 477.99,-353.25 473.3,-348.06"/>
</g>
<!-- Node8 -->
<g id="node8" class="node">
<title>Node8</title>
<g id="a_node8"><a xlink:href="onnx__importer__helpers_8h.html" target="_top" xlink:title=" ">
<polygon fill="white" stroke="black" points="312.5,-212.5 312.5,-253.5 474.5,-253.5 474.5,-212.5 312.5,-212.5"/>
<text text-anchor="start" x="320.5" y="-241.5" font-family="Helvetica,sans-Serif" font-size="10.00">include/network_butcher</text>
<text text-anchor="start" x="320.5" y="-230.5" font-family="Helvetica,sans-Serif" font-size="10.00">/IO_Interaction/onnx_importer</text>
<text text-anchor="middle" x="393.5" y="-219.5" font-family="Helvetica,sans-Serif" font-size="10.00">_helpers.h</text>
</a>
</g>
</g>
<!-- Node7&#45;&gt;Node8 -->
<g id="edge7" class="edge">
<title>Node7&#45;&gt;Node8</title>
<path fill="none" stroke="midnightblue" d="M393.5,-279.98C393.5,-271.35 393.5,-261.76 393.5,-253.59"/>
<polygon fill="midnightblue" stroke="midnightblue" points="390,-280.23 393.5,-290.23 397,-280.23 390,-280.23"/>
</g>
<!-- Node7&#45;&gt;Node11 -->
<g id="edge18" class="edge">
<title>Node7&#45;&gt;Node11</title>
<path fill="none" stroke="midnightblue" d="M446.08,-285.95C460.51,-278.29 474.62,-267.87 483.5,-254 529.9,-181.55 513.44,-70.04 505.64,-30.78"/>
<polygon fill="midnightblue" stroke="midnightblue" points="444.52,-282.81 437.09,-290.37 447.61,-289.1 444.52,-282.81"/>
</g>
<!-- Node15 -->
<g id="node15" class="node">
<title>Node15</title>
<g id="a_node15"><a xlink:href="onnx__model__reconstructor__helpers_8h.html" target="_top" xlink:title=" ">
<polygon fill="white" stroke="black" points="143,-212.5 143,-253.5 294,-253.5 294,-212.5 143,-212.5"/>
<text text-anchor="start" x="151" y="-241.5" font-family="Helvetica,sans-Serif" font-size="10.00">include/network_butcher</text>
<text text-anchor="start" x="151" y="-230.5" font-family="Helvetica,sans-Serif" font-size="10.00">/IO_Interaction/onnx_model</text>
<text text-anchor="middle" x="218.5" y="-219.5" font-family="Helvetica,sans-Serif" font-size="10.00">_reconstructor_helpers.h</text>
</a>
</g>
</g>
<!-- Node7&#45;&gt;Node15 -->
<g id="edge15" class="edge">
<title>Node7&#45;&gt;Node15</title>
<path fill="none" stroke="midnightblue" d="M348.9,-286.53C323.88,-276.45 292.65,-263.87 267.02,-253.55"/>
<polygon fill="midnightblue" stroke="midnightblue" points="347.92,-289.91 358.51,-290.4 350.54,-283.42 347.92,-289.91"/>
</g>
<!-- Node9 -->
<g id="node9" class="node">
<title>Node9</title>
<g id="a_node9"><a xlink:href="io__manager_8h.html" target="_top" xlink:title=" ">
<polygon fill="white" stroke="black" points="167,-140 167,-170 304,-170 304,-140 167,-140"/>
<text text-anchor="start" x="175" y="-158" font-family="Helvetica,sans-Serif" font-size="10.00">include/network_butcher</text>
<text text-anchor="middle" x="235.5" y="-147" font-family="Helvetica,sans-Serif" font-size="10.00">/io_manager.h</text>
</a>
</g>
</g>
<!-- Node8&#45;&gt;Node9 -->
<g id="edge8" class="edge">
<title>Node8&#45;&gt;Node9</title>
<path fill="none" stroke="midnightblue" d="M343.54,-207.97C317.73,-195.55 287.11,-180.83 265.07,-170.23"/>
<polygon fill="midnightblue" stroke="midnightblue" points="342.28,-211.25 352.81,-212.43 345.32,-204.94 342.28,-211.25"/>
</g>
<!-- Node14 -->
<g id="node14" class="node">
<title>Node14</title>
<g id="a_node14"><a xlink:href="onnx__importer__helpers_8cpp.html" target="_top" xlink:title=" ">
<polygon fill="white" stroke="black" points="322.5,-140 322.5,-170 474.5,-170 474.5,-140 322.5,-140"/>
<text text-anchor="start" x="330.5" y="-158" font-family="Helvetica,sans-Serif" font-size="10.00">src/IO_Interaction</text>
<text text-anchor="middle" x="398.5" y="-147" font-family="Helvetica,sans-Serif" font-size="10.00">/onnx_importer_helpers.cpp</text>
</a>
</g>
</g>
<!-- Node8&#45;&gt;Node14 -->
<g id="edge14" class="edge">
<title>Node8&#45;&gt;Node14</title>
<path fill="none" stroke="midnightblue" d="M395.46,-202.28C396.18,-191.25 396.97,-179.25 397.56,-170.23"/>
<polygon fill="midnightblue" stroke="midnightblue" points="391.95,-202.22 394.79,-212.43 398.94,-202.68 391.95,-202.22"/>
</g>
<!-- Node10 -->
<g id="node10" class="node">
<title>Node10</title>
<g id="a_node10"><a xlink:href="general__manager_8h.html" target="_top" xlink:title=" ">
<polygon fill="white" stroke="black" points="167,-67.5 167,-97.5 304,-97.5 304,-67.5 167,-67.5"/>
<text text-anchor="start" x="175" y="-85.5" font-family="Helvetica,sans-Serif" font-size="10.00">include/network_butcher</text>
<text text-anchor="middle" x="235.5" y="-74.5" font-family="Helvetica,sans-Serif" font-size="10.00">/general_manager.h</text>
</a>
</g>
</g>
<!-- Node9&#45;&gt;Node10 -->
<g id="edge9" class="edge">
<title>Node9&#45;&gt;Node10</title>
<path fill="none" stroke="midnightblue" d="M235.5,-129.73C235.5,-119.07 235.5,-106.91 235.5,-97.75"/>
<polygon fill="midnightblue" stroke="midnightblue" points="232,-129.73 235.5,-139.73 239,-129.73 232,-129.73"/>
</g>
<!-- Node9&#45;&gt;Node11 -->
<g id="edge12" class="edge">
<title>Node9&#45;&gt;Node11</title>
<path fill="none" stroke="midnightblue" d="M263.43,-134C278.12,-123.4 296.37,-110.11 312.5,-98 330.49,-84.5 332.68,-77.63 352.5,-67 382.05,-51.16 417.5,-38.95 446.52,-30.51"/>
<polygon fill="midnightblue" stroke="midnightblue" points="261.31,-131.21 255.24,-139.89 265.4,-136.89 261.31,-131.21"/>
</g>
<!-- Node13 -->
<g id="node13" class="node">
<title>Node13</title>
<g id="a_node13"><a xlink:href="io__manager_8cpp.html" target="_top" xlink:title=" ">
<polygon fill="white" stroke="black" points="361,-73 361,-92 472,-92 472,-73 361,-73"/>
<text text-anchor="middle" x="416.5" y="-80" font-family="Helvetica,sans-Serif" font-size="10.00">src/io_manager.cpp</text>
</a>
</g>
</g>
<!-- Node9&#45;&gt;Node13 -->
<g id="edge13" class="edge">
<title>Node9&#45;&gt;Node13</title>
<path fill="none" stroke="midnightblue" d="M281.09,-136.24C317.38,-122.11 366.58,-102.94 394.59,-92.03"/>
<polygon fill="midnightblue" stroke="midnightblue" points="279.74,-133.01 271.69,-139.9 282.28,-139.53 279.74,-133.01"/>
</g>
<!-- Node10&#45;&gt;Node11 -->
<g id="edge10" class="edge">
<title>Node10&#45;&gt;Node11</title>
<path fill="none" stroke="midnightblue" d="M303.07,-65.05C346.72,-54.43 402.92,-40.74 444.54,-30.61"/>
<polygon fill="midnightblue" stroke="midnightblue" points="301.99,-61.71 293.11,-67.48 303.65,-68.51 301.99,-61.71"/>
</g>
<!-- Node12 -->
<g id="node12" class="node">
<title>Node12</title>
<g id="a_node12"><a xlink:href="general__manager_8cpp.html" target="_top" xlink:title=" ">
<polygon fill="white" stroke="black" points="166,-6 166,-25 305,-25 305,-6 166,-6"/>
<text text-anchor="middle" x="235.5" y="-13" font-family="Helvetica,sans-Serif" font-size="10.00">src/general_manager.cpp</text>
</a>
</g>
</g>
<!-- Node10&#45;&gt;Node12 -->
<g id="edge11" class="edge">
<title>Node10&#45;&gt;Node12</title>
<path fill="none" stroke="midnightblue" d="M235.5,-57.25C235.5,-46.02 235.5,-33.38 235.5,-25.19"/>
<polygon fill="midnightblue" stroke="midnightblue" points="232,-57.4 235.5,-67.4 239,-57.4 232,-57.4"/>
</g>
<!-- Node15&#45;&gt;Node9 -->
<g id="edge16" class="edge">
<title>Node15&#45;&gt;Node9</title>
<path fill="none" stroke="midnightblue" d="M225.07,-202.62C227.56,-191.5 230.28,-179.34 232.32,-170.23"/>
<polygon fill="midnightblue" stroke="midnightblue" points="221.65,-201.91 222.88,-212.43 228.48,-203.43 221.65,-201.91"/>
</g>
<!-- Node16 -->
<g id="node16" class="node">
<title>Node16</title>
<g id="a_node16"><a xlink:href="onnx__model__reconstructor__helpers_8cpp.html" target="_top" xlink:title=" ">
<polygon fill="white" stroke="black" points="0,-134.5 0,-175.5 149,-175.5 149,-134.5 0,-134.5"/>
<text text-anchor="start" x="8" y="-163.5" font-family="Helvetica,sans-Serif" font-size="10.00">src/IO_Interaction</text>
<text text-anchor="start" x="8" y="-152.5" font-family="Helvetica,sans-Serif" font-size="10.00">/onnx_model_reconstructor</text>
<text text-anchor="middle" x="74.5" y="-141.5" font-family="Helvetica,sans-Serif" font-size="10.00">_helpers.cpp</text>
</a>
</g>
</g>
<!-- Node15&#45;&gt;Node16 -->
<g id="edge17" class="edge">
<title>Node15&#45;&gt;Node16</title>
<path fill="none" stroke="midnightblue" d="M172.32,-207.63C152.64,-197.24 130,-185.29 111.46,-175.51"/>
<polygon fill="midnightblue" stroke="midnightblue" points="170.94,-210.86 181.42,-212.43 174.21,-204.67 170.94,-210.86"/>
</g>
<!-- Node17&#45;&gt;Node6 -->
<g id="edge21" class="edge">
<title>Node17&#45;&gt;Node6</title>
<path fill="none" stroke="midnightblue" d="M398.45,-427.92C407.39,-418.2 417.3,-407.45 425.53,-398.51"/>
<polygon fill="midnightblue" stroke="midnightblue" points="395.73,-425.7 391.53,-435.43 400.88,-430.44 395.73,-425.7"/>
</g>
<!-- Node18&#45;&gt;Node4 -->
<g id="edge23" class="edge">
<title>Node18&#45;&gt;Node4</title>
<path fill="none" stroke="midnightblue" d="M477.74,-585.06C465.1,-575.06 450.88,-563.8 439.14,-554.51"/>
<polygon fill="midnightblue" stroke="midnightblue" points="475.76,-587.97 485.78,-591.43 480.11,-582.48 475.76,-587.97"/>
</g>
<!-- Node19&#45;&gt;Node3 -->
<g id="edge28" class="edge">
<title>Node19&#45;&gt;Node3</title>
<path fill="none" stroke="midnightblue" d="M353.63,-742.91C374.95,-732.46 399.58,-720.38 419.72,-710.51"/>
<polygon fill="midnightblue" stroke="midnightblue" points="351.85,-739.88 344.42,-747.43 354.94,-746.17 351.85,-739.88"/>
</g>
<!-- Node20 -->
<g id="node20" class="node">
<title>Node20</title>
<g id="a_node20"><a xlink:href="path__converter_8h.html" target="_top" xlink:title=" ">
<polygon fill="white" stroke="black" points="201.5,-597 201.5,-627 343.5,-627 343.5,-597 201.5,-597"/>
<text text-anchor="start" x="209.5" y="-615" font-family="Helvetica,sans-Serif" font-size="10.00">include/network_butcher</text>
<text text-anchor="middle" x="272.5" y="-604" font-family="Helvetica,sans-Serif" font-size="10.00">/Butcher/path_converter.h</text>
</a>
</g>
</g>
<!-- Node19&#45;&gt;Node20 -->
<g id="edge26" class="edge">
<title>Node19&#45;&gt;Node20</title>
<path fill="none" stroke="midnightblue" d="M298.37,-737.51C291.51,-704.49 280.67,-652.34 275.48,-627.32"/>
<polygon fill="midnightblue" stroke="midnightblue" points="294.99,-738.42 300.45,-747.5 301.84,-736.99 294.99,-738.42"/>
</g>
<!-- Node20&#45;&gt;Node7 -->
<g id="edge27" class="edge">
<title>Node20&#45;&gt;Node7</title>
<path fill="none" stroke="midnightblue" d="M270.95,-586.43C269.66,-551.42 270.66,-485.8 291.5,-435 311.06,-387.3 353.95,-342.82 377.4,-320.84"/>
<polygon fill="midnightblue" stroke="midnightblue" points="267.46,-586.84 271.43,-596.66 274.46,-586.51 267.46,-586.84"/>
</g>
</g>
</svg>
