<?xml version="1.0" encoding="UTF-8" standalone="no"?>
<!DOCTYPE svg PUBLIC "-//W3C//DTD SVG 1.1//EN"
 "http://www.w3.org/Graphics/SVG/1.1/DTD/svg11.dtd">
<!-- Generated by graphviz version 2.43.0 (0)
 -->
<!-- Title: include/IO_Interaction/Weight_Importer_Helpers/csv_weight_importer.h Pages: 1 -->
<!--zoomable 778 -->
<svg id="main" version="1.1" xmlns="http://www.w3.org/2000/svg" xmlns:xlink="http://www.w3.org/1999/xlink" xml:space="preserve" onload="init(evt)">
<style type="text/css"><![CDATA[
.edge:hover path { stroke: red; }
.edge:hover polygon { stroke: red; fill: red; }
]]></style>
<script type="text/javascript"><![CDATA[
var edges = document.getElementsByTagName('g');
if (edges && edges.length) {
  for (var i=0;i<edges.length;i++) {
    if (edges[i].id.substr(0,4)=='edge') {
      edges[i].setAttribute('class','edge');
    }
  }
}
]]></script>
        <defs>
                <circle id="rim" cx="0" cy="0" r="7"/>
                <circle id="rim2" cx="0" cy="0" r="3.5"/>
                <g id="zoomPlus">
                        <use xlink:href="#rim" fill="#404040">
                                <set attributeName="fill" to="#808080" begin="zoomplus.mouseover" end="zoomplus.mouseout"/>
                        </use>
                        <path d="M-4,0h8M0,-4v8" fill="none" stroke="white" stroke-width="1.5" pointer-events="none"/>
                </g>
                <g id="zoomMin">
                        <use xlink:href="#rim" fill="#404040">
                                <set attributeName="fill" to="#808080" begin="zoomminus.mouseover" end="zoomminus.mouseout"/>
                        </use>
                        <path d="M-4,0h8" fill="none" stroke="white" stroke-width="1.5" pointer-events="none"/>
                </g>
                <g id="dirArrow">
                        <path fill="none" stroke="white" stroke-width="1.5" d="M0,-3.0v7 M-2.5,-0.5L0,-3.0L2.5,-0.5"/>
                </g>
               <g id="resetDef">
                       <use xlink:href="#rim2" fill="#404040">
                               <set attributeName="fill" to="#808080" begin="reset.mouseover" end="reset.mouseout"/>
                       </use>
               </g>
        </defs>

<script type="text/javascript">
var viewWidth = 1023;
var viewHeight = 778;
var sectionId = 'dynsection-0';
</script>
<script xlink:href="svgpan.js"/>
<svg id="graph" class="graph">
<g id="viewport">
<title>include/IO_Interaction/Weight_Importer_Helpers/csv_weight_importer.h</title>
<polygon fill="white" stroke="transparent" points="-4,4 -4,-774 1019,-774 1019,4 -4,4"/>
<!-- Node1 -->
<g id="node1" class="node">
<title>Node1</title>
<g id="a_node1"><a xlink:title=" ">
<polygon fill="#bfbfbf" stroke="black" points="62.5,-728.5 62.5,-769.5 205.5,-769.5 205.5,-728.5 62.5,-728.5"/>
<text text-anchor="start" x="70.5" y="-757.5" font-family="Helvetica,sans-Serif" font-size="10.00">include/IO_Interaction</text>
<text text-anchor="start" x="70.5" y="-746.5" font-family="Helvetica,sans-Serif" font-size="10.00">/Weight_Importer_Helpers</text>
<text text-anchor="middle" x="134" y="-735.5" font-family="Helvetica,sans-Serif" font-size="10.00">/csv_weight_importer.h</text>
</a>
</g>
</g>
<!-- Node2 -->
<g id="node2" class="node">
<title>Node2</title>
<g id="a_node2"><a xlink:href="weight__importer_8h.html" target="_top" xlink:title=" ">
<polygon fill="white" stroke="black" points="136.5,-672.5 136.5,-691.5 241.5,-691.5 241.5,-672.5 136.5,-672.5"/>
<text text-anchor="middle" x="189" y="-679.5" font-family="Helvetica,sans-Serif" font-size="10.00">weight_importer.h</text>
</a>
</g>
</g>
<!-- Node1&#45;&gt;Node2 -->
<g id="edge1" class="edge">
<title>Node1&#45;&gt;Node2</title>
<path fill="none" stroke="midnightblue" d="M150.5,-728.5C158.37,-719.2 167.67,-708.21 175.16,-699.36"/>
<polygon fill="midnightblue" stroke="midnightblue" points="177.89,-701.55 181.68,-691.65 172.55,-697.03 177.89,-701.55"/>
</g>
<!-- Node32 -->
<g id="node32" class="node">
<title>Node32</title>
<g id="a_node32"><a xlink:href="weight__importer__utils_8h.html" target="_top" xlink:title=" ">
<polygon fill="white" stroke="black" points="0,-224.5 0,-243.5 132,-243.5 132,-224.5 0,-224.5"/>
<text text-anchor="middle" x="66" y="-231.5" font-family="Helvetica,sans-Serif" font-size="10.00">weight_importer_utils.h</text>
</a>
</g>
</g>
<!-- Node1&#45;&gt;Node32 -->
<g id="edge58" class="edge">
<title>Node1&#45;&gt;Node32</title>
<path fill="none" stroke="midnightblue" d="M123.07,-728.11C111.23,-704.66 94,-664.17 94,-627 94,-627 94,-627 94,-345 94,-311.79 81.87,-274.63 73.57,-253.12"/>
<polygon fill="midnightblue" stroke="midnightblue" points="76.75,-251.63 69.78,-243.65 70.25,-254.23 76.75,-251.63"/>
</g>
<!-- Node3 -->
<g id="node3" class="node">
<title>Node3</title>
<g id="a_node3"><a xlink:href="graph__traits_8h.html" target="_top" xlink:title=" ">
<polygon fill="white" stroke="black" points="403,-560.5 403,-579.5 487,-579.5 487,-560.5 403,-560.5"/>
<text text-anchor="middle" x="445" y="-567.5" font-family="Helvetica,sans-Serif" font-size="10.00">graph_traits.h</text>
</a>
</g>
</g>
<!-- Node2&#45;&gt;Node3 -->
<g id="edge2" class="edge">
<title>Node2&#45;&gt;Node3</title>
<path fill="none" stroke="midnightblue" d="M238.59,-672.44C272.48,-665.43 317.81,-653.74 355,-636 382.51,-622.88 410.37,-601.17 427.66,-586.48"/>
<polygon fill="midnightblue" stroke="midnightblue" points="429.98,-589.1 435.24,-579.91 425.39,-583.81 429.98,-589.1"/>
</g>
<!-- Node21 -->
<g id="node21" class="node">
<title>Node21</title>
<g id="a_node21"><a xlink:href="traits_8h.html" target="_top" xlink:title=" ">
<polygon fill="white" stroke="black" points="101.5,-112.5 101.5,-131.5 152.5,-131.5 152.5,-112.5 101.5,-112.5"/>
<text text-anchor="middle" x="127" y="-119.5" font-family="Helvetica,sans-Serif" font-size="10.00">traits.h</text>
</a>
</g>
</g>
<!-- Node2&#45;&gt;Node21 -->
<g id="edge57" class="edge">
<title>Node2&#45;&gt;Node21</title>
<path fill="none" stroke="midnightblue" d="M185.09,-672.36C177.17,-654.07 160,-609.91 160,-571 160,-571 160,-571 160,-233 160,-199.25 145.57,-162.03 135.79,-140.69"/>
<polygon fill="midnightblue" stroke="midnightblue" points="138.91,-139.1 131.45,-131.58 132.59,-142.11 138.91,-139.1"/>
</g>
<!-- Node30 -->
<g id="node30" class="node">
<title>Node30</title>
<g id="a_node30"><a xlink:href="parameters_8h.html" target="_top" xlink:title=" ">
<polygon fill="white" stroke="black" points="264,-616.5 264,-635.5 346,-635.5 346,-616.5 264,-616.5"/>
<text text-anchor="middle" x="305" y="-623.5" font-family="Helvetica,sans-Serif" font-size="10.00">parameters.h</text>
</a>
</g>
</g>
<!-- Node2&#45;&gt;Node30 -->
<g id="edge54" class="edge">
<title>Node2&#45;&gt;Node30</title>
<path fill="none" stroke="midnightblue" d="M207.38,-672.44C226.22,-663.68 255.73,-649.94 277.38,-639.86"/>
<polygon fill="midnightblue" stroke="midnightblue" points="279.12,-642.91 286.71,-635.52 276.16,-636.56 279.12,-642.91"/>
</g>
<!-- Node4 -->
<g id="node4" class="node">
<title>Node4</title>
<g id="a_node4"><a xlink:href="graph_8h.html" target="_top" xlink:title=" ">
<polygon fill="white" stroke="black" points="514.5,-392.5 514.5,-411.5 567.5,-411.5 567.5,-392.5 514.5,-392.5"/>
<text text-anchor="middle" x="541" y="-399.5" font-family="Helvetica,sans-Serif" font-size="10.00">graph.h</text>
</a>
</g>
</g>
<!-- Node3&#45;&gt;Node4 -->
<g id="edge3" class="edge">
<title>Node3&#45;&gt;Node4</title>
<path fill="none" stroke="midnightblue" d="M450.16,-560.08C465.4,-533.72 510.42,-455.88 530.79,-420.66"/>
<polygon fill="midnightblue" stroke="midnightblue" points="534.07,-421.98 536.04,-411.57 528.01,-418.47 534.07,-421.98"/>
</g>
<!-- Node10 -->
<g id="node10" class="node">
<title>Node10</title>
<g id="a_node10"><a xlink:href="content_8h.html" target="_top" xlink:title=" ">
<polygon fill="white" stroke="black" points="862,-280.5 862,-299.5 924,-299.5 924,-280.5 862,-280.5"/>
<text text-anchor="middle" x="893" y="-287.5" font-family="Helvetica,sans-Serif" font-size="10.00">content.h</text>
</a>
</g>
</g>
<!-- Node3&#45;&gt;Node10 -->
<g id="edge53" class="edge">
<title>Node3&#45;&gt;Node10</title>
<path fill="none" stroke="midnightblue" d="M487.2,-567.31C596.62,-561.8 881,-539.7 881,-459 881,-459 881,-459 881,-401 881,-368.76 886.16,-331.51 889.71,-309.68"/>
<polygon fill="midnightblue" stroke="midnightblue" points="893.21,-309.97 891.43,-299.52 886.31,-308.8 893.21,-309.97"/>
</g>
<!-- Node27 -->
<g id="node27" class="node">
<title>Node27</title>
<g id="a_node27"><a xlink:href="mwgraph_8h.html" target="_top" xlink:title=" ">
<polygon fill="white" stroke="black" points="418.5,-448.5 418.5,-467.5 489.5,-467.5 489.5,-448.5 418.5,-448.5"/>
<text text-anchor="middle" x="454" y="-455.5" font-family="Helvetica,sans-Serif" font-size="10.00">mwgraph.h</text>
</a>
</g>
</g>
<!-- Node3&#45;&gt;Node27 -->
<g id="edge47" class="edge">
<title>Node3&#45;&gt;Node27</title>
<path fill="none" stroke="midnightblue" d="M445.71,-560.37C447.16,-542.62 450.51,-501.67 452.48,-477.6"/>
<polygon fill="midnightblue" stroke="midnightblue" points="455.97,-477.84 453.3,-467.59 448.99,-477.27 455.97,-477.84"/>
</g>
<!-- Node28 -->
<g id="node28" class="node">
<title>Node28</title>
<g id="a_node28"><a xlink:href="wgraph_8h.html" target="_top" xlink:title=" ">
<polygon fill="white" stroke="black" points="364,-504.5 364,-523.5 426,-523.5 426,-504.5 364,-504.5"/>
<text text-anchor="middle" x="395" y="-511.5" font-family="Helvetica,sans-Serif" font-size="10.00">wgraph.h</text>
</a>
</g>
</g>
<!-- Node3&#45;&gt;Node28 -->
<g id="edge49" class="edge">
<title>Node3&#45;&gt;Node28</title>
<path fill="none" stroke="midnightblue" d="M436.74,-560.08C429.54,-552.3 418.89,-540.8 410.15,-531.37"/>
<polygon fill="midnightblue" stroke="midnightblue" points="412.47,-528.71 403.1,-523.75 407.33,-533.47 412.47,-528.71"/>
</g>
<!-- Node5 -->
<g id="node5" class="node">
<title>Node5</title>
<g id="a_node5"><a xlink:title=" ">
<polygon fill="white" stroke="#bfbfbf" points="587,-112.5 587,-131.5 651,-131.5 651,-112.5 587,-112.5"/>
<text text-anchor="middle" x="619" y="-119.5" font-family="Helvetica,sans-Serif" font-size="10.00">algorithm</text>
</a>
</g>
</g>
<!-- Node4&#45;&gt;Node5 -->
<g id="edge4" class="edge">
<title>Node4&#45;&gt;Node5</title>
<path fill="none" stroke="midnightblue" d="M538.17,-392.27C532.44,-373.79 520,-329.3 520,-291 520,-291 520,-291 520,-233 520,-189.18 563.94,-154.93 593.27,-136.94"/>
<polygon fill="midnightblue" stroke="midnightblue" points="595.36,-139.77 602.21,-131.68 591.81,-133.74 595.36,-139.77"/>
</g>
<!-- Node6 -->
<g id="node6" class="node">
<title>Node6</title>
<g id="a_node6"><a xlink:title=" ">
<polygon fill="white" stroke="#bfbfbf" points="209,-112.5 209,-131.5 265,-131.5 265,-112.5 209,-112.5"/>
<text text-anchor="middle" x="237" y="-119.5" font-family="Helvetica,sans-Serif" font-size="10.00">numeric</text>
</a>
</g>
</g>
<!-- Node4&#45;&gt;Node6 -->
<g id="edge5" class="edge">
<title>Node4&#45;&gt;Node6</title>
<path fill="none" stroke="midnightblue" d="M514.42,-401.87C446.89,-402.57 274,-394.28 274,-291 274,-291 274,-291 274,-233 274,-198.89 257.82,-161.79 246.86,-140.57"/>
<polygon fill="midnightblue" stroke="midnightblue" points="249.81,-138.66 241.99,-131.51 243.64,-141.98 249.81,-138.66"/>
</g>
<!-- Node7 -->
<g id="node7" class="node">
<title>Node7</title>
<g id="a_node7"><a xlink:title=" ">
<polygon fill="white" stroke="#bfbfbf" points="548.5,-224.5 548.5,-243.5 593.5,-243.5 593.5,-224.5 548.5,-224.5"/>
<text text-anchor="middle" x="571" y="-231.5" font-family="Helvetica,sans-Serif" font-size="10.00">utility</text>
</a>
</g>
</g>
<!-- Node4&#45;&gt;Node7 -->
<g id="edge6" class="edge">
<title>Node4&#45;&gt;Node7</title>
<path fill="none" stroke="midnightblue" d="M542.61,-392.08C547.34,-365.95 561.2,-289.21 567.64,-253.58"/>
<polygon fill="midnightblue" stroke="midnightblue" points="571.12,-254.03 569.45,-243.57 564.23,-252.79 571.12,-254.03"/>
</g>
<!-- Node8 -->
<g id="node8" class="node">
<title>Node8</title>
<g id="a_node8"><a xlink:title=" ">
<polygon fill="white" stroke="#bfbfbf" points="888.5,-0.5 888.5,-19.5 935.5,-19.5 935.5,-0.5 888.5,-0.5"/>
<text text-anchor="middle" x="912" y="-7.5" font-family="Helvetica,sans-Serif" font-size="10.00">vector</text>
</a>
</g>
</g>
<!-- Node4&#45;&gt;Node8 -->
<g id="edge7" class="edge">
<title>Node4&#45;&gt;Node8</title>
<path fill="none" stroke="midnightblue" d="M567.84,-400.57C668.11,-398.24 1015,-383.5 1015,-291 1015,-291 1015,-291 1015,-121 1015,-76.43 969.38,-42.46 938.86,-24.73"/>
<polygon fill="midnightblue" stroke="midnightblue" points="940.38,-21.57 929.94,-19.75 936.97,-27.68 940.38,-21.57"/>
</g>
<!-- Node9 -->
<g id="node9" class="node">
<title>Node9</title>
<g id="a_node9"><a xlink:title=" ">
<polygon fill="white" stroke="#bfbfbf" points="202.5,-56.5 202.5,-75.5 267.5,-75.5 267.5,-56.5 202.5,-56.5"/>
<text text-anchor="middle" x="235" y="-63.5" font-family="Helvetica,sans-Serif" font-size="10.00">onnx.pb.h</text>
</a>
</g>
</g>
<!-- Node4&#45;&gt;Node9 -->
<g id="edge8" class="edge">
<title>Node4&#45;&gt;Node9</title>
<path fill="none" stroke="midnightblue" d="M514.27,-398.79C456.74,-393.63 323.29,-379.45 285,-356 254.15,-337.11 236,-327.18 236,-291 236,-291 236,-291 236,-233 236,-176.89 181.79,-165.07 200,-112 203.72,-101.16 211.23,-90.92 218.35,-82.96"/>
<polygon fill="midnightblue" stroke="midnightblue" points="221.05,-85.19 225.44,-75.55 216,-80.35 221.05,-85.19"/>
</g>
<!-- Node4&#45;&gt;Node10 -->
<g id="edge9" class="edge">
<title>Node4&#45;&gt;Node10</title>
<path fill="none" stroke="midnightblue" d="M567.55,-397.16C607.72,-390.93 686.04,-377.15 750,-356 792.85,-341.83 840.06,-318.82 868.08,-304.32"/>
<polygon fill="midnightblue" stroke="midnightblue" points="869.92,-307.31 877.16,-299.57 866.67,-301.1 869.92,-307.31"/>
</g>
<!-- Node25 -->
<g id="node25" class="node">
<title>Node25</title>
<g id="a_node25"><a xlink:href="node_8h.html" target="_top" xlink:title=" ">
<polygon fill="white" stroke="black" points="602,-280.5 602,-299.5 652,-299.5 652,-280.5 602,-280.5"/>
<text text-anchor="middle" x="627" y="-287.5" font-family="Helvetica,sans-Serif" font-size="10.00">node.h</text>
</a>
</g>
</g>
<!-- Node4&#45;&gt;Node25 -->
<g id="edge37" class="edge">
<title>Node4&#45;&gt;Node25</title>
<path fill="none" stroke="midnightblue" d="M549.01,-392.23C557.06,-383.3 569.73,-368.96 580,-356 592.53,-340.19 605.92,-321.46 615.2,-308.18"/>
<polygon fill="midnightblue" stroke="midnightblue" points="618.33,-309.8 621.15,-299.59 612.58,-305.82 618.33,-309.8"/>
</g>
<!-- Node26 -->
<g id="node26" class="node">
<title>Node26</title>
<g id="a_node26"><a xlink:href="node__traits_8h.html" target="_top" xlink:title=" ">
<polygon fill="white" stroke="black" points="661,-336.5 661,-355.5 741,-355.5 741,-336.5 661,-336.5"/>
<text text-anchor="middle" x="701" y="-343.5" font-family="Helvetica,sans-Serif" font-size="10.00">node_traits.h</text>
</a>
</g>
</g>
<!-- Node4&#45;&gt;Node26 -->
<g id="edge42" class="edge">
<title>Node4&#45;&gt;Node26</title>
<path fill="none" stroke="midnightblue" d="M566.35,-392.44C593.27,-383.36 636,-368.94 666.09,-358.78"/>
<polygon fill="midnightblue" stroke="midnightblue" points="667.41,-362.03 675.77,-355.52 665.17,-355.4 667.41,-362.03"/>
</g>
<!-- Node11 -->
<g id="node11" class="node">
<title>Node11</title>
<g id="a_node11"><a xlink:href="dense__tensor_8h.html" target="_top" xlink:title=" ">
<polygon fill="white" stroke="black" points="729,-224.5 729,-243.5 819,-243.5 819,-224.5 729,-224.5"/>
<text text-anchor="middle" x="774" y="-231.5" font-family="Helvetica,sans-Serif" font-size="10.00">dense_tensor.h</text>
</a>
</g>
</g>
<!-- Node10&#45;&gt;Node11 -->
<g id="edge10" class="edge">
<title>Node10&#45;&gt;Node11</title>
<path fill="none" stroke="midnightblue" d="M874.14,-280.44C854.73,-271.64 824.27,-257.81 802.04,-247.72"/>
<polygon fill="midnightblue" stroke="midnightblue" points="803.32,-244.46 792.77,-243.52 800.43,-250.84 803.32,-244.46"/>
</g>
<!-- Node15 -->
<g id="node15" class="node">
<title>Node15</title>
<g id="a_node15"><a xlink:href="variant__attribute_8h.html" target="_top" xlink:title=" ">
<polygon fill="white" stroke="black" points="875.5,-168.5 875.5,-187.5 982.5,-187.5 982.5,-168.5 875.5,-168.5"/>
<text text-anchor="middle" x="929" y="-175.5" font-family="Helvetica,sans-Serif" font-size="10.00">variant_attribute.h</text>
</a>
</g>
</g>
<!-- Node10&#45;&gt;Node15 -->
<g id="edge36" class="edge">
<title>Node10&#45;&gt;Node15</title>
<path fill="none" stroke="midnightblue" d="M895.82,-280.37C901.66,-262.54 915.16,-221.3 923.02,-197.27"/>
<polygon fill="midnightblue" stroke="midnightblue" points="926.4,-198.18 926.19,-187.59 919.75,-196.01 926.4,-198.18"/>
</g>
<!-- Node11&#45;&gt;Node8 -->
<g id="edge35" class="edge">
<title>Node11&#45;&gt;Node8</title>
<path fill="none" stroke="midnightblue" d="M779.41,-224.3C799.93,-191.29 873.21,-73.4 901.11,-28.52"/>
<polygon fill="midnightblue" stroke="midnightblue" points="904.17,-30.22 906.48,-19.88 898.23,-26.53 904.17,-30.22"/>
</g>
<!-- Node12 -->
<g id="node12" class="node">
<title>Node12</title>
<g id="a_node12"><a xlink:href="type__info_8h.html" target="_top" xlink:title=" ">
<polygon fill="white" stroke="black" points="722.5,-56.5 722.5,-75.5 793.5,-75.5 793.5,-56.5 722.5,-56.5"/>
<text text-anchor="middle" x="758" y="-63.5" font-family="Helvetica,sans-Serif" font-size="10.00">type_info.h</text>
</a>
</g>
</g>
<!-- Node11&#45;&gt;Node12 -->
<g id="edge11" class="edge">
<title>Node11&#45;&gt;Node12</title>
<path fill="none" stroke="midnightblue" d="M773.14,-224.08C770.62,-197.95 763.23,-121.21 759.79,-85.58"/>
<polygon fill="midnightblue" stroke="midnightblue" points="763.27,-85.19 758.83,-75.57 756.3,-85.86 763.27,-85.19"/>
</g>
<!-- Node11&#45;&gt;Node15 -->
<g id="edge15" class="edge">
<title>Node11&#45;&gt;Node15</title>
<path fill="none" stroke="midnightblue" d="M798.56,-224.44C824.52,-215.4 865.67,-201.06 894.8,-190.92"/>
<polygon fill="midnightblue" stroke="midnightblue" points="896.26,-194.11 904.55,-187.52 893.96,-187.5 896.26,-194.11"/>
</g>
<!-- Node17 -->
<g id="node17" class="node">
<title>Node17</title>
<g id="a_node17"><a xlink:href="utilities_8h.html" target="_top" xlink:title=" ">
<polygon fill="white" stroke="black" points="430,-168.5 430,-187.5 492,-187.5 492,-168.5 430,-168.5"/>
<text text-anchor="middle" x="461" y="-175.5" font-family="Helvetica,sans-Serif" font-size="10.00">utilities.h</text>
</a>
</g>
</g>
<!-- Node11&#45;&gt;Node17 -->
<g id="edge19" class="edge">
<title>Node11&#45;&gt;Node17</title>
<path fill="none" stroke="midnightblue" d="M728.68,-226C667.85,-215.95 560.91,-197.52 502.23,-186.97"/>
<polygon fill="midnightblue" stroke="midnightblue" points="502.67,-183.49 492.2,-185.16 501.42,-190.38 502.67,-183.49"/>
</g>
<!-- Node12&#45;&gt;Node8 -->
<g id="edge13" class="edge">
<title>Node12&#45;&gt;Node8</title>
<path fill="none" stroke="midnightblue" d="M782.4,-56.44C808.42,-47.32 849.8,-32.81 878.78,-22.65"/>
<polygon fill="midnightblue" stroke="midnightblue" points="880.19,-25.86 888.47,-19.25 877.88,-19.26 880.19,-25.86"/>
</g>
<!-- Node13 -->
<g id="node13" class="node">
<title>Node13</title>
<g id="a_node13"><a xlink:title=" ">
<polygon fill="white" stroke="#bfbfbf" points="795,-0.5 795,-19.5 839,-19.5 839,-0.5 795,-0.5"/>
<text text-anchor="middle" x="817" y="-7.5" font-family="Helvetica,sans-Serif" font-size="10.00">string</text>
</a>
</g>
</g>
<!-- Node12&#45;&gt;Node13 -->
<g id="edge12" class="edge">
<title>Node12&#45;&gt;Node13</title>
<path fill="none" stroke="midnightblue" d="M767.48,-56.32C776.2,-48.34 789.34,-36.31 799.9,-26.65"/>
<polygon fill="midnightblue" stroke="midnightblue" points="802.33,-29.17 807.35,-19.83 797.61,-24 802.33,-29.17"/>
</g>
<!-- Node14 -->
<g id="node14" class="node">
<title>Node14</title>
<g id="a_node14"><a xlink:href="starting__traits_8h.html" target="_top" xlink:title=" ">
<polygon fill="white" stroke="black" points="405,-0.5 405,-19.5 499,-19.5 499,-0.5 405,-0.5"/>
<text text-anchor="middle" x="452" y="-7.5" font-family="Helvetica,sans-Serif" font-size="10.00">starting_traits.h</text>
</a>
</g>
</g>
<!-- Node12&#45;&gt;Node14 -->
<g id="edge14" class="edge">
<title>Node12&#45;&gt;Node14</title>
<path fill="none" stroke="midnightblue" d="M722.16,-57.74C719.06,-57.14 715.98,-56.55 713,-56 642.93,-42.95 562.02,-29.21 509.09,-20.39"/>
<polygon fill="midnightblue" stroke="midnightblue" points="509.66,-16.94 499.22,-18.75 508.51,-23.84 509.66,-16.94"/>
</g>
<!-- Node15&#45;&gt;Node8 -->
<g id="edge18" class="edge">
<title>Node15&#45;&gt;Node8</title>
<path fill="none" stroke="midnightblue" d="M935.37,-168.23C941.26,-159.53 949.61,-145.57 953,-132 955.16,-123.38 954.7,-120.72 953,-112 947.01,-81.32 931.68,-48.17 921.55,-28.52"/>
<polygon fill="midnightblue" stroke="midnightblue" points="924.58,-26.76 916.81,-19.56 918.4,-30.04 924.58,-26.76"/>
</g>
<!-- Node15&#45;&gt;Node13 -->
<g id="edge16" class="edge">
<title>Node15&#45;&gt;Node13</title>
<path fill="none" stroke="midnightblue" d="M929.52,-168.49C929.94,-155.56 929.32,-130.52 920,-112 901.14,-74.54 862.89,-42.88 838.68,-25.45"/>
<polygon fill="midnightblue" stroke="midnightblue" points="840.66,-22.56 830.46,-19.69 836.64,-28.3 840.66,-22.56"/>
</g>
<!-- Node16 -->
<g id="node16" class="node">
<title>Node16</title>
<g id="a_node16"><a xlink:title=" ">
<polygon fill="white" stroke="#bfbfbf" points="859.5,-112.5 859.5,-131.5 910.5,-131.5 910.5,-112.5 859.5,-112.5"/>
<text text-anchor="middle" x="885" y="-119.5" font-family="Helvetica,sans-Serif" font-size="10.00">variant</text>
</a>
</g>
</g>
<!-- Node15&#45;&gt;Node16 -->
<g id="edge17" class="edge">
<title>Node15&#45;&gt;Node16</title>
<path fill="none" stroke="midnightblue" d="M921.73,-168.08C915.46,-160.38 906.21,-149.03 898.57,-139.65"/>
<polygon fill="midnightblue" stroke="midnightblue" points="901.16,-137.29 892.13,-131.75 895.73,-141.71 901.16,-137.29"/>
</g>
<!-- Node17&#45;&gt;Node5 -->
<g id="edge20" class="edge">
<title>Node17&#45;&gt;Node5</title>
<path fill="none" stroke="midnightblue" d="M486.04,-168.44C512.62,-159.36 554.81,-144.94 584.52,-134.78"/>
<polygon fill="midnightblue" stroke="midnightblue" points="585.75,-138.06 594.08,-131.52 583.49,-131.44 585.75,-138.06"/>
</g>
<!-- Node17&#45;&gt;Node6 -->
<g id="edge21" class="edge">
<title>Node17&#45;&gt;Node6</title>
<path fill="none" stroke="midnightblue" d="M429.85,-169.49C389.34,-159.73 318.62,-142.68 275,-132.16"/>
<polygon fill="midnightblue" stroke="midnightblue" points="275.6,-128.71 265.06,-129.76 273.96,-135.51 275.6,-128.71"/>
</g>
<!-- Node17&#45;&gt;Node9 -->
<g id="edge25" class="edge">
<title>Node17&#45;&gt;Node9</title>
<path fill="none" stroke="midnightblue" d="M429.93,-170.77C399.86,-163.96 353.58,-151.35 317,-132 291.84,-118.69 266.76,-97.32 251.09,-82.75"/>
<polygon fill="midnightblue" stroke="midnightblue" points="253.46,-80.17 243.8,-75.82 248.64,-85.25 253.46,-80.17"/>
</g>
<!-- Node17&#45;&gt;Node11 -->
<g id="edge33" class="edge">
<title>Node17&#45;&gt;Node11</title>
<path fill="none" stroke="midnightblue" d="M492.1,-183.67C545.16,-192.3 653.4,-210.89 719.3,-222.62"/>
<polygon fill="midnightblue" stroke="midnightblue" points="719.03,-226.13 729.49,-224.44 720.26,-219.24 719.03,-226.13"/>
</g>
<!-- Node17&#45;&gt;Node12 -->
<g id="edge34" class="edge">
<title>Node17&#45;&gt;Node12</title>
<path fill="none" stroke="midnightblue" d="M429.98,-171.02C388.49,-161.71 323.09,-141.71 350,-112 375.72,-83.6 641.37,-82.07 711.98,-75.66"/>
<polygon fill="midnightblue" stroke="midnightblue" points="712.66,-79.11 722.19,-74.49 711.86,-72.15 712.66,-79.11"/>
</g>
<!-- Node18 -->
<g id="node18" class="node">
<title>Node18</title>
<g id="a_node18"><a xlink:title=" ">
<polygon fill="white" stroke="#bfbfbf" points="427,-112.5 427,-131.5 495,-131.5 495,-112.5 427,-112.5"/>
<text text-anchor="middle" x="461" y="-119.5" font-family="Helvetica,sans-Serif" font-size="10.00">filesystem</text>
</a>
</g>
</g>
<!-- Node17&#45;&gt;Node18 -->
<g id="edge22" class="edge">
<title>Node17&#45;&gt;Node18</title>
<path fill="none" stroke="midnightblue" d="M461,-168.08C461,-161.01 461,-150.86 461,-141.99"/>
<polygon fill="midnightblue" stroke="midnightblue" points="464.5,-141.75 461,-131.75 457.5,-141.75 464.5,-141.75"/>
</g>
<!-- Node19 -->
<g id="node19" class="node">
<title>Node19</title>
<g id="a_node19"><a xlink:title=" ">
<polygon fill="white" stroke="#bfbfbf" points="513.5,-112.5 513.5,-131.5 568.5,-131.5 568.5,-112.5 513.5,-112.5"/>
<text text-anchor="middle" x="541" y="-119.5" font-family="Helvetica,sans-Serif" font-size="10.00">fstream</text>
</a>
</g>
</g>
<!-- Node17&#45;&gt;Node19 -->
<g id="edge23" class="edge">
<title>Node17&#45;&gt;Node19</title>
<path fill="none" stroke="midnightblue" d="M473.85,-168.32C486.22,-159.98 505.13,-147.21 519.74,-137.35"/>
<polygon fill="midnightblue" stroke="midnightblue" points="521.85,-140.15 528.18,-131.65 517.93,-134.35 521.85,-140.15"/>
</g>
<!-- Node20 -->
<g id="node20" class="node">
<title>Node20</title>
<g id="a_node20"><a xlink:title=" ">
<polygon fill="white" stroke="#bfbfbf" points="359,-112.5 359,-131.5 409,-131.5 409,-112.5 359,-112.5"/>
<text text-anchor="middle" x="384" y="-119.5" font-family="Helvetica,sans-Serif" font-size="10.00">ranges</text>
</a>
</g>
</g>
<!-- Node17&#45;&gt;Node20 -->
<g id="edge24" class="edge">
<title>Node17&#45;&gt;Node20</title>
<path fill="none" stroke="midnightblue" d="M448.63,-168.32C436.84,-160.06 418.87,-147.45 404.86,-137.63"/>
<polygon fill="midnightblue" stroke="midnightblue" points="406.54,-134.53 396.34,-131.65 402.52,-140.26 406.54,-134.53"/>
</g>
<!-- Node17&#45;&gt;Node21 -->
<g id="edge26" class="edge">
<title>Node17&#45;&gt;Node21</title>
<path fill="none" stroke="midnightblue" d="M429.56,-170.53C425.02,-169.65 420.39,-168.78 416,-168 325.07,-151.84 217.47,-135.93 162.79,-128.07"/>
<polygon fill="midnightblue" stroke="midnightblue" points="162.97,-124.56 152.58,-126.61 161.98,-131.49 162.97,-124.56"/>
</g>
<!-- Node21&#45;&gt;Node9 -->
<g id="edge31" class="edge">
<title>Node21&#45;&gt;Node9</title>
<path fill="none" stroke="midnightblue" d="M144.35,-112.32C161.67,-103.66 188.52,-90.24 208.5,-80.25"/>
<polygon fill="midnightblue" stroke="midnightblue" points="210.31,-83.26 217.69,-75.65 207.18,-77 210.31,-83.26"/>
</g>
<!-- Node21&#45;&gt;Node12 -->
<g id="edge32" class="edge">
<title>Node21&#45;&gt;Node12</title>
<path fill="none" stroke="midnightblue" d="M152.64,-117.5C166.62,-115.68 184.24,-113.52 200,-112 424.17,-90.33 484.72,-106 711.96,-75.96"/>
<polygon fill="midnightblue" stroke="midnightblue" points="712.76,-79.38 722.21,-74.59 711.83,-72.44 712.76,-79.38"/>
</g>
<!-- Node21&#45;&gt;Node14 -->
<g id="edge30" class="edge">
<title>Node21&#45;&gt;Node14</title>
<path fill="none" stroke="midnightblue" d="M133.14,-112.15C143.61,-97.79 166.4,-69.68 193,-56 256.87,-23.16 340.08,-13.69 394.72,-11.27"/>
<polygon fill="midnightblue" stroke="midnightblue" points="395.06,-14.76 404.92,-10.88 394.79,-7.76 395.06,-14.76"/>
</g>
<!-- Node22 -->
<g id="node22" class="node">
<title>Node22</title>
<g id="a_node22"><a xlink:title=" ">
<polygon fill="white" stroke="#bfbfbf" points="58,-56.5 58,-75.5 90,-75.5 90,-56.5 58,-56.5"/>
<text text-anchor="middle" x="74" y="-63.5" font-family="Helvetica,sans-Serif" font-size="10.00">set</text>
</a>
</g>
</g>
<!-- Node21&#45;&gt;Node22 -->
<g id="edge27" class="edge">
<title>Node21&#45;&gt;Node22</title>
<path fill="none" stroke="midnightblue" d="M118.25,-112.08C110.53,-104.22 99.1,-92.57 89.78,-83.08"/>
<polygon fill="midnightblue" stroke="midnightblue" points="92.09,-80.44 82.59,-75.75 87.1,-85.34 92.09,-80.44"/>
</g>
<!-- Node23 -->
<g id="node23" class="node">
<title>Node23</title>
<g id="a_node23"><a xlink:title=" ">
<polygon fill="white" stroke="#bfbfbf" points="108,-56.5 108,-75.5 146,-75.5 146,-56.5 108,-56.5"/>
<text text-anchor="middle" x="127" y="-63.5" font-family="Helvetica,sans-Serif" font-size="10.00">map</text>
</a>
</g>
</g>
<!-- Node21&#45;&gt;Node23 -->
<g id="edge28" class="edge">
<title>Node21&#45;&gt;Node23</title>
<path fill="none" stroke="midnightblue" d="M127,-112.08C127,-105.01 127,-94.86 127,-85.99"/>
<polygon fill="midnightblue" stroke="midnightblue" points="130.5,-85.75 127,-75.75 123.5,-85.75 130.5,-85.75"/>
</g>
<!-- Node24 -->
<g id="node24" class="node">
<title>Node24</title>
<g id="a_node24"><a xlink:title=" ">
<polygon fill="white" stroke="#bfbfbf" points="646,-56.5 646,-75.5 704,-75.5 704,-56.5 646,-56.5"/>
<text text-anchor="middle" x="675" y="-63.5" font-family="Helvetica,sans-Serif" font-size="10.00">memory</text>
</a>
</g>
</g>
<!-- Node21&#45;&gt;Node24 -->
<g id="edge29" class="edge">
<title>Node21&#45;&gt;Node24</title>
<path fill="none" stroke="midnightblue" d="M152.66,-117.66C166.64,-115.88 184.26,-113.72 200,-112 361.36,-94.41 554,-77.38 635.49,-70.36"/>
<polygon fill="midnightblue" stroke="midnightblue" points="636.12,-73.82 645.78,-69.48 635.52,-66.85 636.12,-73.82"/>
</g>
<!-- Node25&#45;&gt;Node7 -->
<g id="edge41" class="edge">
<title>Node25&#45;&gt;Node7</title>
<path fill="none" stroke="midnightblue" d="M618,-280.32C609.81,-272.42 597.49,-260.55 587.53,-250.94"/>
<polygon fill="midnightblue" stroke="midnightblue" points="589.79,-248.26 580.16,-243.83 584.93,-253.29 589.79,-248.26"/>
</g>
<!-- Node25&#45;&gt;Node11 -->
<g id="edge38" class="edge">
<title>Node25&#45;&gt;Node11</title>
<path fill="none" stroke="midnightblue" d="M650.29,-280.44C674.81,-271.44 713.6,-257.19 741.2,-247.05"/>
<polygon fill="midnightblue" stroke="midnightblue" points="742.64,-250.25 750.82,-243.52 740.22,-243.68 742.64,-250.25"/>
</g>
<!-- Node25&#45;&gt;Node21 -->
<g id="edge39" class="edge">
<title>Node25&#45;&gt;Node21</title>
<path fill="none" stroke="midnightblue" d="M626.42,-280.33C624.98,-266.25 620.02,-238.52 603,-224 540.26,-170.49 501.71,-204.9 421,-188 327.51,-168.42 217.7,-143.68 162.49,-131.12"/>
<polygon fill="midnightblue" stroke="midnightblue" points="163.05,-127.65 152.52,-128.84 161.49,-134.48 163.05,-127.65"/>
</g>
<!-- Node25&#45;&gt;Node24 -->
<g id="edge40" class="edge">
<title>Node25&#45;&gt;Node24</title>
<path fill="none" stroke="midnightblue" d="M628.88,-280.3C635.96,-247.56 661.08,-131.38 670.96,-85.67"/>
<polygon fill="midnightblue" stroke="midnightblue" points="674.39,-86.4 673.08,-75.88 667.54,-84.92 674.39,-86.4"/>
</g>
<!-- Node26&#45;&gt;Node10 -->
<g id="edge44" class="edge">
<title>Node26&#45;&gt;Node10</title>
<path fill="none" stroke="midnightblue" d="M731.42,-336.44C764.28,-327.2 816.78,-312.44 852.97,-302.26"/>
<polygon fill="midnightblue" stroke="midnightblue" points="854.04,-305.59 862.72,-299.52 852.15,-298.85 854.04,-305.59"/>
</g>
<!-- Node26&#45;&gt;Node12 -->
<g id="edge46" class="edge">
<title>Node26&#45;&gt;Node12</title>
<path fill="none" stroke="midnightblue" d="M720.63,-336.37C750.33,-322.09 805.6,-290.43 828,-244 855.81,-186.35 801.47,-114.61 773.36,-83.11"/>
<polygon fill="midnightblue" stroke="midnightblue" points="775.88,-80.67 766.54,-75.66 770.72,-85.4 775.88,-80.67"/>
</g>
<!-- Node26&#45;&gt;Node24 -->
<g id="edge43" class="edge">
<title>Node26&#45;&gt;Node24</title>
<path fill="none" stroke="midnightblue" d="M700.19,-336.38C696.58,-297.78 681.87,-140.45 676.76,-85.81"/>
<polygon fill="midnightblue" stroke="midnightblue" points="680.21,-85.15 675.8,-75.52 673.24,-85.81 680.21,-85.15"/>
</g>
<!-- Node26&#45;&gt;Node25 -->
<g id="edge45" class="edge">
<title>Node26&#45;&gt;Node25</title>
<path fill="none" stroke="midnightblue" d="M689.11,-336.32C677.85,-328.11 660.71,-315.6 647.29,-305.81"/>
<polygon fill="midnightblue" stroke="midnightblue" points="649.25,-302.9 639.11,-299.83 645.12,-308.56 649.25,-302.9"/>
</g>
<!-- Node27&#45;&gt;Node4 -->
<g id="edge48" class="edge">
<title>Node27&#45;&gt;Node4</title>
<path fill="none" stroke="midnightblue" d="M467.98,-448.32C481.55,-439.9 502.38,-426.97 518.32,-417.07"/>
<polygon fill="midnightblue" stroke="midnightblue" points="520.41,-419.9 527.06,-411.65 516.71,-413.95 520.41,-419.9"/>
</g>
<!-- Node28&#45;&gt;Node27 -->
<g id="edge50" class="edge">
<title>Node28&#45;&gt;Node27</title>
<path fill="none" stroke="midnightblue" d="M404.48,-504.32C413.2,-496.34 426.34,-484.31 436.9,-474.65"/>
<polygon fill="midnightblue" stroke="midnightblue" points="439.33,-477.17 444.35,-467.83 434.61,-472 439.33,-477.17"/>
</g>
<!-- Node29 -->
<g id="node29" class="node">
<title>Node29</title>
<g id="a_node29"><a xlink:href="weighted__graph_8h.html" target="_top" xlink:title=" ">
<polygon fill="white" stroke="black" points="256,-392.5 256,-411.5 360,-411.5 360,-392.5 256,-392.5"/>
<text text-anchor="middle" x="308" y="-399.5" font-family="Helvetica,sans-Serif" font-size="10.00">weighted_graph.h</text>
</a>
</g>
</g>
<!-- Node28&#45;&gt;Node29 -->
<g id="edge51" class="edge">
<title>Node28&#45;&gt;Node29</title>
<path fill="none" stroke="midnightblue" d="M388.17,-504.37C373.75,-486.14 339.97,-443.43 321.19,-419.68"/>
<polygon fill="midnightblue" stroke="midnightblue" points="323.74,-417.26 314.8,-411.59 318.25,-421.61 323.74,-417.26"/>
</g>
<!-- Node29&#45;&gt;Node21 -->
<g id="edge52" class="edge">
<title>Node29&#45;&gt;Node21</title>
<path fill="none" stroke="midnightblue" d="M280.22,-392.42C261.49,-385.35 237.47,-373.59 222,-356 201.67,-332.87 198,-321.8 198,-291 198,-291 198,-291 198,-233 198,-202.2 190.89,-193.75 174,-168 166.62,-156.75 155.93,-146.23 146.62,-138.19"/>
<polygon fill="midnightblue" stroke="midnightblue" points="148.83,-135.48 138.89,-131.81 144.37,-140.88 148.83,-135.48"/>
</g>
<!-- Node30&#45;&gt;Node3 -->
<g id="edge55" class="edge">
<title>Node30&#45;&gt;Node3</title>
<path fill="none" stroke="midnightblue" d="M327.18,-616.44C350.43,-607.48 387.15,-593.31 413.42,-583.18"/>
<polygon fill="midnightblue" stroke="midnightblue" points="414.85,-586.38 422.92,-579.52 412.33,-579.85 414.85,-586.38"/>
</g>
<!-- Node31 -->
<g id="node31" class="node">
<title>Node31</title>
<g id="a_node31"><a xlink:href="ksp__method_8h.html" target="_top" xlink:title=" ">
<polygon fill="white" stroke="black" points="262,-560.5 262,-579.5 348,-579.5 348,-560.5 262,-560.5"/>
<text text-anchor="middle" x="305" y="-567.5" font-family="Helvetica,sans-Serif" font-size="10.00">ksp_method.h</text>
</a>
</g>
</g>
<!-- Node30&#45;&gt;Node31 -->
<g id="edge56" class="edge">
<title>Node30&#45;&gt;Node31</title>
<path fill="none" stroke="midnightblue" d="M305,-616.08C305,-609.01 305,-598.86 305,-589.99"/>
<polygon fill="midnightblue" stroke="midnightblue" points="308.5,-589.75 305,-579.75 301.5,-589.75 308.5,-589.75"/>
</g>
<!-- Node32&#45;&gt;Node17 -->
<g id="edge60" class="edge">
<title>Node32&#45;&gt;Node17</title>
<path fill="none" stroke="midnightblue" d="M128.59,-224.44C210.11,-213.3 350.39,-194.12 419.73,-184.64"/>
<polygon fill="midnightblue" stroke="midnightblue" points="420.39,-188.08 429.83,-183.26 419.45,-181.15 420.39,-188.08"/>
</g>
<!-- Node32&#45;&gt;Node21 -->
<g id="edge59" class="edge">
<title>Node32&#45;&gt;Node21</title>
<path fill="none" stroke="midnightblue" d="M70.79,-224.37C80.76,-206.38 103.96,-164.55 117.23,-140.63"/>
<polygon fill="midnightblue" stroke="midnightblue" points="120.45,-142.03 122.24,-131.59 114.33,-138.64 120.45,-142.03"/>
</g>
</g>
</svg>
        <g id="navigator" transform="translate(0 0)" fill="#404254">
                <rect fill="#f2f5e9" fill-opacity="0.5" stroke="#606060" stroke-width=".5" x="0" y="0" width="60" height="60"/>
                <use id="zoomplus" xlink:href="#zoomPlus" x="17" y="9" onmousedown="handleZoom(evt,'in')"/>
                <use id="zoomminus" xlink:href="#zoomMin" x="42" y="9" onmousedown="handleZoom(evt,'out')"/>
                <use id="reset" xlink:href="#resetDef" x="30" y="36" onmousedown="handleReset()"/>
                <g id="arrowUp" xlink:href="#dirArrow" transform="translate(30 24)" onmousedown="handlePan(0,-1)">
                  <use xlink:href="#rim" fill="#404040">
                        <set attributeName="fill" to="#808080" begin="arrowUp.mouseover" end="arrowUp.mouseout"/>
                  </use>
                  <path fill="none" stroke="white" stroke-width="1.5" d="M0,-3.0v7 M-2.5,-0.5L0,-3.0L2.5,-0.5"/>
                </g>
                <g id="arrowRight" xlink:href="#dirArrow" transform="rotate(90) translate(36 -43)" onmousedown="handlePan(1,0)">
                  <use xlink:href="#rim" fill="#404040">
                        <set attributeName="fill" to="#808080" begin="arrowRight.mouseover" end="arrowRight.mouseout"/>
                  </use>
                  <path fill="none" stroke="white" stroke-width="1.5" d="M0,-3.0v7 M-2.5,-0.5L0,-3.0L2.5,-0.5"/>
                </g>
                <g id="arrowDown" xlink:href="#dirArrow" transform="rotate(180) translate(-30 -48)" onmousedown="handlePan(0,1)">
                  <use xlink:href="#rim" fill="#404040">
                        <set attributeName="fill" to="#808080" begin="arrowDown.mouseover" end="arrowDown.mouseout"/>
                  </use>
                  <path fill="none" stroke="white" stroke-width="1.5" d="M0,-3.0v7 M-2.5,-0.5L0,-3.0L2.5,-0.5"/>
                </g>
                <g id="arrowLeft" xlink:href="#dirArrow" transform="rotate(270) translate(-36 17)" onmousedown="handlePan(-1,0)">
                  <use xlink:href="#rim" fill="#404040">
                        <set attributeName="fill" to="#808080" begin="arrowLeft.mouseover" end="arrowLeft.mouseout"/>
                  </use>
                  <path fill="none" stroke="white" stroke-width="1.5" d="M0,-3.0v7 M-2.5,-0.5L0,-3.0L2.5,-0.5"/>
                </g>
        </g>
        <svg viewBox="0 0 15 15" width="100%" height="30px" preserveAspectRatio="xMaxYMin meet">
         <g id="arrow_out" transform="scale(0.3 0.3)">
          <a xlink:href="csv__weight__importer_8h__incl_org.svg" target="_base">
           <rect id="button" ry="5" rx="5" y="6" x="6" height="38" width="38"
                fill="#f2f5e9" fill-opacity="0.5" stroke="#606060" stroke-width="1.0"/>
           <path id="arrow"
             d="M 11.500037,31.436501 C 11.940474,20.09759 22.043105,11.32322 32.158766,21.979434 L 37.068811,17.246167 C 37.068811,17.246167 37.088388,32 37.088388,32 L 22.160133,31.978069 C 22.160133,31.978069 26.997745,27.140456 26.997745,27.140456 C 18.528582,18.264221 13.291696,25.230495 11.500037,31.436501 z"
             style="fill:#404040;"/>
          </a>
         </g>
        </svg>
</svg>
