<?xml version="1.0" encoding="UTF-8" standalone="no"?>
<!DOCTYPE svg PUBLIC "-//W3C//DTD SVG 1.1//EN"
 "http://www.w3.org/Graphics/SVG/1.1/DTD/svg11.dtd">
<!-- Generated by graphviz version 2.43.0 (0)
 -->
<!-- Title: src/IO_Interaction/Weight_Importer_Helpers/csv_weight_importer.cpp Pages: 1 -->
<svg width="962pt" height="1054pt"
 viewBox="0.00 0.00 962.00 1054.00" xmlns="http://www.w3.org/2000/svg" xmlns:xlink="http://www.w3.org/1999/xlink">
<g id="graph0" class="graph" transform="scale(1 1) rotate(0) translate(4 1050)">
<title>src/IO_Interaction/Weight_Importer_Helpers/csv_weight_importer.cpp</title>
<polygon fill="white" stroke="transparent" points="-4,4 -4,-1050 958,-1050 958,4 -4,4"/>
<!-- Node1 -->
<g id="node1" class="node">
<title>Node1</title>
<g id="a_node1"><a xlink:title=" ">
<polygon fill="#bfbfbf" stroke="black" points="80.5,-1004.5 80.5,-1045.5 223.5,-1045.5 223.5,-1004.5 80.5,-1004.5"/>
<text text-anchor="start" x="88.5" y="-1033.5" font-family="Helvetica,sans-Serif" font-size="10.00">src/IO_Interaction</text>
<text text-anchor="start" x="88.5" y="-1022.5" font-family="Helvetica,sans-Serif" font-size="10.00">/Weight_Importer_Helpers</text>
<text text-anchor="middle" x="152" y="-1011.5" font-family="Helvetica,sans-Serif" font-size="10.00">/csv_weight_importer.cpp</text>
</a>
</g>
</g>
<!-- Node2 -->
<g id="node2" class="node">
<title>Node2</title>
<g id="a_node2"><a xlink:href="csv__weight__importer_8h.html" target="_top" xlink:title=" ">
<polygon fill="white" stroke="black" points="89,-915.5 89,-967.5 215,-967.5 215,-915.5 89,-915.5"/>
<text text-anchor="start" x="97" y="-955.5" font-family="Helvetica,sans-Serif" font-size="10.00">network_butcher/IO</text>
<text text-anchor="start" x="97" y="-944.5" font-family="Helvetica,sans-Serif" font-size="10.00">_Interaction/Weight</text>
<text text-anchor="start" x="97" y="-933.5" font-family="Helvetica,sans-Serif" font-size="10.00">_Importer_Helpers/csv</text>
<text text-anchor="middle" x="152" y="-922.5" font-family="Helvetica,sans-Serif" font-size="10.00">_weight_importer.h</text>
</a>
</g>
</g>
<!-- Node1&#45;&gt;Node2 -->
<g id="edge1" class="edge">
<title>Node1&#45;&gt;Node2</title>
<path fill="none" stroke="midnightblue" d="M152,-1004.27C152,-996.26 152,-986.76 152,-977.64"/>
<polygon fill="midnightblue" stroke="midnightblue" points="155.5,-977.61 152,-967.61 148.5,-977.61 155.5,-977.61"/>
</g>
<!-- Node3 -->
<g id="node3" class="node">
<title>Node3</title>
<g id="a_node3"><a xlink:href="weight__importer_8h.html" target="_top" xlink:title=" ">
<polygon fill="white" stroke="black" points="150.5,-826.5 150.5,-878.5 293.5,-878.5 293.5,-826.5 150.5,-826.5"/>
<text text-anchor="start" x="158.5" y="-866.5" font-family="Helvetica,sans-Serif" font-size="10.00">network_butcher/IO</text>
<text text-anchor="start" x="158.5" y="-855.5" font-family="Helvetica,sans-Serif" font-size="10.00">_Interaction/Weight</text>
<text text-anchor="start" x="158.5" y="-844.5" font-family="Helvetica,sans-Serif" font-size="10.00">_Importer_Helpers/weight</text>
<text text-anchor="middle" x="222" y="-833.5" font-family="Helvetica,sans-Serif" font-size="10.00">_importer.h</text>
</a>
</g>
</g>
<!-- Node2&#45;&gt;Node3 -->
<g id="edge2" class="edge">
<title>Node2&#45;&gt;Node3</title>
<path fill="none" stroke="midnightblue" d="M172.25,-915.34C179.5,-906.32 187.79,-896.01 195.5,-886.44"/>
<polygon fill="midnightblue" stroke="midnightblue" points="198.26,-888.59 201.8,-878.61 192.8,-884.2 198.26,-888.59"/>
</g>
<!-- Node33 -->
<g id="node33" class="node">
<title>Node33</title>
<g id="a_node33"><a xlink:href="weight__importer__utils_8h.html" target="_top" xlink:title=" ">
<polygon fill="white" stroke="black" points="92.5,-268.5 92.5,-320.5 235.5,-320.5 235.5,-268.5 92.5,-268.5"/>
<text text-anchor="start" x="100.5" y="-308.5" font-family="Helvetica,sans-Serif" font-size="10.00">network_butcher/IO</text>
<text text-anchor="start" x="100.5" y="-297.5" font-family="Helvetica,sans-Serif" font-size="10.00">_Interaction/Weight</text>
<text text-anchor="start" x="100.5" y="-286.5" font-family="Helvetica,sans-Serif" font-size="10.00">_Importer_Helpers/weight</text>
<text text-anchor="middle" x="164" y="-275.5" font-family="Helvetica,sans-Serif" font-size="10.00">_importer_utils.h</text>
</a>
</g>
</g>
<!-- Node2&#45;&gt;Node33 -->
<g id="edge58" class="edge">
<title>Node2&#45;&gt;Node33</title>
<path fill="none" stroke="midnightblue" d="M139.38,-915.49C124.57,-883.77 102,-826.98 102,-775.5 102,-775.5 102,-775.5 102,-438.5 102,-398.58 122.59,-357.18 140.04,-329.26"/>
<polygon fill="midnightblue" stroke="midnightblue" points="143.09,-330.99 145.57,-320.69 137.21,-327.2 143.09,-330.99"/>
</g>
<!-- Node4 -->
<g id="node4" class="node">
<title>Node4</title>
<g id="a_node4"><a xlink:href="graph__traits_8h.html" target="_top" xlink:title=" ">
<polygon fill="white" stroke="black" points="360.5,-692.5 360.5,-722.5 503.5,-722.5 503.5,-692.5 360.5,-692.5"/>
<text text-anchor="start" x="368.5" y="-710.5" font-family="Helvetica,sans-Serif" font-size="10.00">network_butcher/Network</text>
<text text-anchor="middle" x="432" y="-699.5" font-family="Helvetica,sans-Serif" font-size="10.00">/graph_traits.h</text>
</a>
</g>
</g>
<!-- Node3&#45;&gt;Node4 -->
<g id="edge3" class="edge">
<title>Node3&#45;&gt;Node4</title>
<path fill="none" stroke="midnightblue" d="M271.78,-826.43C291.34,-815.94 313.69,-803.13 333,-790 360.5,-771.29 389.63,-746.66 409.11,-729.39"/>
<polygon fill="midnightblue" stroke="midnightblue" points="411.46,-731.98 416.58,-722.71 406.8,-726.76 411.46,-731.98"/>
</g>
<!-- Node22 -->
<g id="node22" class="node">
<title>Node22</title>
<g id="a_node22"><a xlink:href="traits_8h.html" target="_top" xlink:title=" ">
<polygon fill="white" stroke="black" points="0,-134.5 0,-164.5 128,-164.5 128,-134.5 0,-134.5"/>
<text text-anchor="start" x="8" y="-152.5" font-family="Helvetica,sans-Serif" font-size="10.00">network_butcher/Traits</text>
<text text-anchor="middle" x="64" y="-141.5" font-family="Helvetica,sans-Serif" font-size="10.00">/traits.h</text>
</a>
</g>
</g>
<!-- Node3&#45;&gt;Node22 -->
<g id="edge57" class="edge">
<title>Node3&#45;&gt;Node22</title>
<path fill="none" stroke="midnightblue" d="M195.55,-826.37C150.58,-780.79 64,-679.41 64,-574.5 64,-574.5 64,-574.5 64,-293.5 64,-251.86 64,-203.39 64,-174.93"/>
<polygon fill="midnightblue" stroke="midnightblue" points="67.5,-174.71 64,-164.71 60.5,-174.71 67.5,-174.71"/>
</g>
<!-- Node31 -->
<g id="node31" class="node">
<title>Node31</title>
<g id="a_node31"><a xlink:href="parameters_8h.html" target="_top" xlink:title=" ">
<polygon fill="white" stroke="black" points="194.5,-759.5 194.5,-789.5 323.5,-789.5 323.5,-759.5 194.5,-759.5"/>
<text text-anchor="start" x="202.5" y="-777.5" font-family="Helvetica,sans-Serif" font-size="10.00">network_butcher/Types</text>
<text text-anchor="middle" x="259" y="-766.5" font-family="Helvetica,sans-Serif" font-size="10.00">/parameters.h</text>
</a>
</g>
</g>
<!-- Node3&#45;&gt;Node31 -->
<g id="edge54" class="edge">
<title>Node3&#45;&gt;Node31</title>
<path fill="none" stroke="midnightblue" d="M234.32,-826.19C238.6,-817.41 243.37,-807.6 247.57,-798.97"/>
<polygon fill="midnightblue" stroke="midnightblue" points="250.79,-800.37 252.02,-789.85 244.49,-797.3 250.79,-800.37"/>
</g>
<!-- Node5 -->
<g id="node5" class="node">
<title>Node5</title>
<g id="a_node5"><a xlink:href="graph_8h.html" target="_top" xlink:title=" ">
<polygon fill="white" stroke="black" points="468.5,-491.5 468.5,-521.5 611.5,-521.5 611.5,-491.5 468.5,-491.5"/>
<text text-anchor="start" x="476.5" y="-509.5" font-family="Helvetica,sans-Serif" font-size="10.00">network_butcher/Network</text>
<text text-anchor="middle" x="540" y="-498.5" font-family="Helvetica,sans-Serif" font-size="10.00">/graph.h</text>
</a>
</g>
</g>
<!-- Node4&#45;&gt;Node5 -->
<g id="edge4" class="edge">
<title>Node4&#45;&gt;Node5</title>
<path fill="none" stroke="midnightblue" d="M444.36,-692.25C462.2,-671.05 495.19,-629.36 515,-589 524.04,-570.58 530.62,-548.21 534.75,-531.57"/>
<polygon fill="midnightblue" stroke="midnightblue" points="538.23,-532.1 537.12,-521.56 531.41,-530.49 538.23,-532.1"/>
</g>
<!-- Node10 -->
<g id="node10" class="node">
<title>Node10</title>
<g id="a_node10"><a xlink:href="content_8h.html" target="_top" xlink:title=" ">
<polygon fill="white" stroke="black" points="790.5,-357.5 790.5,-387.5 919.5,-387.5 919.5,-357.5 790.5,-357.5"/>
<text text-anchor="start" x="798.5" y="-375.5" font-family="Helvetica,sans-Serif" font-size="10.00">network_butcher/Types</text>
<text text-anchor="middle" x="855" y="-364.5" font-family="Helvetica,sans-Serif" font-size="10.00">/content.h</text>
</a>
</g>
</g>
<!-- Node4&#45;&gt;Node10 -->
<g id="edge53" class="edge">
<title>Node4&#45;&gt;Node10</title>
<path fill="none" stroke="midnightblue" d="M503.69,-697.84C619.03,-681.87 833,-643.03 833,-574.5 833,-574.5 833,-574.5 833,-505.5 833,-467.32 842.07,-423.75 848.56,-397.46"/>
<polygon fill="midnightblue" stroke="midnightblue" points="851.99,-398.19 851.07,-387.63 845.2,-396.46 851.99,-398.19"/>
</g>
<!-- Node28 -->
<g id="node28" class="node">
<title>Node28</title>
<g id="a_node28"><a xlink:href="mwgraph_8h.html" target="_top" xlink:title=" ">
<polygon fill="white" stroke="black" points="362.5,-558.5 362.5,-588.5 505.5,-588.5 505.5,-558.5 362.5,-558.5"/>
<text text-anchor="start" x="370.5" y="-576.5" font-family="Helvetica,sans-Serif" font-size="10.00">network_butcher/Network</text>
<text text-anchor="middle" x="434" y="-565.5" font-family="Helvetica,sans-Serif" font-size="10.00">/mwgraph.h</text>
</a>
</g>
</g>
<!-- Node4&#45;&gt;Node28 -->
<g id="edge47" class="edge">
<title>Node4&#45;&gt;Node28</title>
<path fill="none" stroke="midnightblue" d="M432.21,-692.37C432.55,-670.04 433.21,-626.31 433.63,-598.85"/>
<polygon fill="midnightblue" stroke="midnightblue" points="437.14,-598.58 433.79,-588.52 430.14,-598.47 437.14,-598.58"/>
</g>
<!-- Node29 -->
<g id="node29" class="node">
<title>Node29</title>
<g id="a_node29"><a xlink:href="wgraph_8h.html" target="_top" xlink:title=" ">
<polygon fill="white" stroke="black" points="262.5,-625.5 262.5,-655.5 405.5,-655.5 405.5,-625.5 262.5,-625.5"/>
<text text-anchor="start" x="270.5" y="-643.5" font-family="Helvetica,sans-Serif" font-size="10.00">network_butcher/Network</text>
<text text-anchor="middle" x="334" y="-632.5" font-family="Helvetica,sans-Serif" font-size="10.00">/wgraph.h</text>
</a>
</g>
</g>
<!-- Node4&#45;&gt;Node29 -->
<g id="edge49" class="edge">
<title>Node4&#45;&gt;Node29</title>
<path fill="none" stroke="midnightblue" d="M410.74,-692.4C396.99,-683.28 378.91,-671.29 363.76,-661.24"/>
<polygon fill="midnightblue" stroke="midnightblue" points="365.49,-658.19 355.22,-655.58 361.62,-664.02 365.49,-658.19"/>
</g>
<!-- Node6 -->
<g id="node6" class="node">
<title>Node6</title>
<g id="a_node6"><a xlink:title=" ">
<polygon fill="white" stroke="#bfbfbf" points="146,-140 146,-159 210,-159 210,-140 146,-140"/>
<text text-anchor="middle" x="178" y="-147" font-family="Helvetica,sans-Serif" font-size="10.00">algorithm</text>
</a>
</g>
</g>
<!-- Node5&#45;&gt;Node6 -->
<g id="edge5" class="edge">
<title>Node5&#45;&gt;Node6</title>
<path fill="none" stroke="midnightblue" d="M475.62,-491.5C417.15,-474.55 340,-439.65 340,-373.5 340,-373.5 340,-373.5 340,-293.5 340,-225.76 259.41,-182.44 211.91,-162.79"/>
<polygon fill="midnightblue" stroke="midnightblue" points="213.19,-159.53 202.6,-159.06 210.59,-166.03 213.19,-159.53"/>
</g>
<!-- Node7 -->
<g id="node7" class="node">
<title>Node7</title>
<g id="a_node7"><a xlink:title=" ">
<polygon fill="white" stroke="#bfbfbf" points="532,-140 532,-159 588,-159 588,-140 532,-140"/>
<text text-anchor="middle" x="560" y="-147" font-family="Helvetica,sans-Serif" font-size="10.00">numeric</text>
</a>
</g>
</g>
<!-- Node5&#45;&gt;Node7 -->
<g id="edge6" class="edge">
<title>Node5&#45;&gt;Node7</title>
<path fill="none" stroke="midnightblue" d="M546.97,-491.24C557.94,-467.44 578,-417.86 578,-373.5 578,-373.5 578,-373.5 578,-293.5 578,-248.62 569.16,-196.42 563.87,-169.2"/>
<polygon fill="midnightblue" stroke="midnightblue" points="567.26,-168.27 561.86,-159.16 560.39,-169.65 567.26,-168.27"/>
</g>
<!-- Node8 -->
<g id="node8" class="node">
<title>Node8</title>
<g id="a_node8"><a xlink:title=" ">
<polygon fill="white" stroke="#bfbfbf" points="504.5,-285 504.5,-304 549.5,-304 549.5,-285 504.5,-285"/>
<text text-anchor="middle" x="527" y="-292" font-family="Helvetica,sans-Serif" font-size="10.00">utility</text>
</a>
</g>
</g>
<!-- Node5&#45;&gt;Node8 -->
<g id="edge7" class="edge">
<title>Node5&#45;&gt;Node8</title>
<path fill="none" stroke="midnightblue" d="M539.13,-491.4C536.85,-454.58 530.72,-355.56 528.15,-314.13"/>
<polygon fill="midnightblue" stroke="midnightblue" points="531.64,-313.83 527.53,-304.07 524.66,-314.27 531.64,-313.83"/>
</g>
<!-- Node9 -->
<g id="node9" class="node">
<title>Node9</title>
<g id="a_node9"><a xlink:title=" ">
<polygon fill="white" stroke="#bfbfbf" points="854.5,-6 854.5,-25 901.5,-25 901.5,-6 854.5,-6"/>
<text text-anchor="middle" x="878" y="-13" font-family="Helvetica,sans-Serif" font-size="10.00">vector</text>
</a>
</g>
</g>
<!-- Node5&#45;&gt;Node9 -->
<g id="edge8" class="edge">
<title>Node5&#45;&gt;Node9</title>
<path fill="none" stroke="midnightblue" d="M611.64,-497.58C730.13,-482.46 954,-444.51 954,-373.5 954,-373.5 954,-373.5 954,-148.5 954,-101.19 916.88,-55.54 894.53,-32.33"/>
<polygon fill="midnightblue" stroke="midnightblue" points="896.86,-29.71 887.32,-25.09 891.89,-34.65 896.86,-29.71"/>
</g>
<!-- Node5&#45;&gt;Node10 -->
<g id="edge9" class="edge">
<title>Node5&#45;&gt;Node10</title>
<path fill="none" stroke="midnightblue" d="M611.72,-497.74C655.97,-490.86 712.88,-478.15 759,-455 788.92,-439.98 817.39,-413.77 835.45,-395.13"/>
<polygon fill="midnightblue" stroke="midnightblue" points="838.19,-397.33 842.52,-387.66 833.1,-392.51 838.19,-397.33"/>
</g>
<!-- Node26 -->
<g id="node26" class="node">
<title>Node26</title>
<g id="a_node26"><a xlink:href="node_8h.html" target="_top" xlink:title=" ">
<polygon fill="white" stroke="black" points="368.5,-357.5 368.5,-387.5 511.5,-387.5 511.5,-357.5 368.5,-357.5"/>
<text text-anchor="start" x="376.5" y="-375.5" font-family="Helvetica,sans-Serif" font-size="10.00">network_butcher/Network</text>
<text text-anchor="middle" x="440" y="-364.5" font-family="Helvetica,sans-Serif" font-size="10.00">/node.h</text>
</a>
</g>
</g>
<!-- Node5&#45;&gt;Node26 -->
<g id="edge37" class="edge">
<title>Node5&#45;&gt;Node26</title>
<path fill="none" stroke="midnightblue" d="M529.3,-491.37C511.93,-468.45 477.47,-422.97 456.81,-395.69"/>
<polygon fill="midnightblue" stroke="midnightblue" points="459.45,-393.38 450.62,-387.52 453.87,-397.61 459.45,-393.38"/>
</g>
<!-- Node27 -->
<g id="node27" class="node">
<title>Node27</title>
<g id="a_node27"><a xlink:href="node__traits_8h.html" target="_top" xlink:title=" ">
<polygon fill="white" stroke="black" points="606.5,-424.5 606.5,-454.5 749.5,-454.5 749.5,-424.5 606.5,-424.5"/>
<text text-anchor="start" x="614.5" y="-442.5" font-family="Helvetica,sans-Serif" font-size="10.00">network_butcher/Network</text>
<text text-anchor="middle" x="678" y="-431.5" font-family="Helvetica,sans-Serif" font-size="10.00">/node_traits.h</text>
</a>
</g>
</g>
<!-- Node5&#45;&gt;Node27 -->
<g id="edge42" class="edge">
<title>Node5&#45;&gt;Node27</title>
<path fill="none" stroke="midnightblue" d="M569.94,-491.4C590.2,-481.86 617.15,-469.16 639.06,-458.84"/>
<polygon fill="midnightblue" stroke="midnightblue" points="640.56,-462 648.11,-454.58 637.58,-455.67 640.56,-462"/>
</g>
<!-- Node11 -->
<g id="node11" class="node">
<title>Node11</title>
<g id="a_node11"><a xlink:href="dense__tensor_8h.html" target="_top" xlink:title=" ">
<polygon fill="white" stroke="black" points="644.5,-279.5 644.5,-309.5 773.5,-309.5 773.5,-279.5 644.5,-279.5"/>
<text text-anchor="start" x="652.5" y="-297.5" font-family="Helvetica,sans-Serif" font-size="10.00">network_butcher/Types</text>
<text text-anchor="middle" x="709" y="-286.5" font-family="Helvetica,sans-Serif" font-size="10.00">/dense_tensor.h</text>
</a>
</g>
</g>
<!-- Node10&#45;&gt;Node11 -->
<g id="edge10" class="edge">
<title>Node10&#45;&gt;Node11</title>
<path fill="none" stroke="midnightblue" d="M827.88,-357.38C804.53,-345.23 770.63,-327.58 745.01,-314.24"/>
<polygon fill="midnightblue" stroke="midnightblue" points="746.46,-311.05 735.97,-309.54 743.23,-317.26 746.46,-311.05"/>
</g>
<!-- Node15 -->
<g id="node15" class="node">
<title>Node15</title>
<g id="a_node15"><a xlink:href="variant__attribute_8h.html" target="_top" xlink:title=" ">
<polygon fill="white" stroke="black" points="796.5,-201.5 796.5,-231.5 925.5,-231.5 925.5,-201.5 796.5,-201.5"/>
<text text-anchor="start" x="804.5" y="-219.5" font-family="Helvetica,sans-Serif" font-size="10.00">network_butcher/Types</text>
<text text-anchor="middle" x="861" y="-208.5" font-family="Helvetica,sans-Serif" font-size="10.00">/variant_attribute.h</text>
</a>
</g>
</g>
<!-- Node10&#45;&gt;Node15 -->
<g id="edge36" class="edge">
<title>Node10&#45;&gt;Node15</title>
<path fill="none" stroke="midnightblue" d="M855.55,-357.29C856.58,-330.93 858.79,-274.2 860.06,-241.69"/>
<polygon fill="midnightblue" stroke="midnightblue" points="863.56,-241.81 860.45,-231.68 856.56,-241.53 863.56,-241.81"/>
</g>
<!-- Node11&#45;&gt;Node9 -->
<g id="edge35" class="edge">
<title>Node11&#45;&gt;Node9</title>
<path fill="none" stroke="midnightblue" d="M717.61,-279.38C745.99,-232.88 836.47,-84.57 867.47,-33.77"/>
<polygon fill="midnightblue" stroke="midnightblue" points="870.46,-35.57 872.68,-25.21 864.49,-31.93 870.46,-35.57"/>
</g>
<!-- Node12 -->
<g id="node12" class="node">
<title>Node12</title>
<g id="a_node12"><a xlink:href="type__info_8h.html" target="_top" xlink:title=" ">
<polygon fill="white" stroke="black" points="632.5,-67.5 632.5,-97.5 761.5,-97.5 761.5,-67.5 632.5,-67.5"/>
<text text-anchor="start" x="640.5" y="-85.5" font-family="Helvetica,sans-Serif" font-size="10.00">network_butcher/Types</text>
<text text-anchor="middle" x="697" y="-74.5" font-family="Helvetica,sans-Serif" font-size="10.00">/type_info.h</text>
</a>
</g>
</g>
<!-- Node11&#45;&gt;Node12 -->
<g id="edge11" class="edge">
<title>Node11&#45;&gt;Node12</title>
<path fill="none" stroke="midnightblue" d="M708.19,-279.4C706.18,-244.13 700.9,-151.79 698.38,-107.66"/>
<polygon fill="midnightblue" stroke="midnightblue" points="701.87,-107.33 697.8,-97.54 694.88,-107.73 701.87,-107.33"/>
</g>
<!-- Node11&#45;&gt;Node15 -->
<g id="edge15" class="edge">
<title>Node11&#45;&gt;Node15</title>
<path fill="none" stroke="midnightblue" d="M737.23,-279.38C761.66,-267.17 797.14,-249.43 823.86,-236.07"/>
<polygon fill="midnightblue" stroke="midnightblue" points="825.54,-239.14 832.92,-231.54 822.41,-232.88 825.54,-239.14"/>
</g>
<!-- Node17 -->
<g id="node17" class="node">
<title>Node17</title>
<g id="a_node17"><a xlink:href="utilities_8h.html" target="_top" xlink:title=" ">
<polygon fill="white" stroke="black" points="368.5,-207 368.5,-226 515.5,-226 515.5,-207 368.5,-207"/>
<text text-anchor="middle" x="442" y="-214" font-family="Helvetica,sans-Serif" font-size="10.00">network_butcher/utilities.h</text>
</a>
</g>
</g>
<!-- Node11&#45;&gt;Node17 -->
<g id="edge19" class="edge">
<title>Node11&#45;&gt;Node17</title>
<path fill="none" stroke="midnightblue" d="M654.34,-279.47C601.26,-264.92 522.4,-242.43 477.15,-228.92"/>
<polygon fill="midnightblue" stroke="midnightblue" points="478.07,-225.55 467.48,-226.02 476.05,-232.25 478.07,-225.55"/>
</g>
<!-- Node12&#45;&gt;Node9 -->
<g id="edge13" class="edge">
<title>Node12&#45;&gt;Node9</title>
<path fill="none" stroke="midnightblue" d="M736.27,-67.4C768.59,-55.79 813.91,-39.51 844.53,-28.52"/>
<polygon fill="midnightblue" stroke="midnightblue" points="846.08,-31.68 854.31,-25.01 843.72,-25.09 846.08,-31.68"/>
</g>
<!-- Node13 -->
<g id="node13" class="node">
<title>Node13</title>
<g id="a_node13"><a xlink:title=" ">
<polygon fill="white" stroke="#bfbfbf" points="713,-6 713,-25 757,-25 757,-6 713,-6"/>
<text text-anchor="middle" x="735" y="-13" font-family="Helvetica,sans-Serif" font-size="10.00">string</text>
</a>
</g>
</g>
<!-- Node12&#45;&gt;Node13 -->
<g id="edge12" class="edge">
<title>Node12&#45;&gt;Node13</title>
<path fill="none" stroke="midnightblue" d="M705.25,-67.4C710.99,-57.56 718.7,-44.38 724.83,-33.89"/>
<polygon fill="midnightblue" stroke="midnightblue" points="727.89,-35.59 729.92,-25.19 721.85,-32.06 727.89,-35.59"/>
</g>
<!-- Node14 -->
<g id="node14" class="node">
<title>Node14</title>
<g id="a_node14"><a xlink:href="starting__traits_8h.html" target="_top" xlink:title=" ">
<polygon fill="white" stroke="black" points="294,-0.5 294,-30.5 422,-30.5 422,-0.5 294,-0.5"/>
<text text-anchor="start" x="302" y="-18.5" font-family="Helvetica,sans-Serif" font-size="10.00">network_butcher/Traits</text>
<text text-anchor="middle" x="358" y="-7.5" font-family="Helvetica,sans-Serif" font-size="10.00">/starting_traits.h</text>
</a>
</g>
</g>
<!-- Node12&#45;&gt;Node14 -->
<g id="edge14" class="edge">
<title>Node12&#45;&gt;Node14</title>
<path fill="none" stroke="midnightblue" d="M632.43,-68.83C629.24,-68.21 626.08,-67.6 623,-67 558.52,-54.54 485.18,-40.58 432.02,-30.5"/>
<polygon fill="midnightblue" stroke="midnightblue" points="432.48,-27.02 422.01,-28.6 431.18,-33.9 432.48,-27.02"/>
</g>
<!-- Node15&#45;&gt;Node9 -->
<g id="edge18" class="edge">
<title>Node15&#45;&gt;Node9</title>
<path fill="none" stroke="midnightblue" d="M873.99,-201.25C881.74,-191.75 890.86,-178.55 895,-165 908.85,-119.65 894.26,-63.37 884.78,-34.88"/>
<polygon fill="midnightblue" stroke="midnightblue" points="887.96,-33.37 881.35,-25.09 881.36,-35.69 887.96,-33.37"/>
</g>
<!-- Node15&#45;&gt;Node13 -->
<g id="edge16" class="edge">
<title>Node15&#45;&gt;Node13</title>
<path fill="none" stroke="midnightblue" d="M850.52,-201.16C843.36,-191.18 833.8,-177.48 826,-165 799.52,-122.65 797.76,-109.17 771,-67 763.74,-55.56 754.93,-43.17 747.83,-33.53"/>
<polygon fill="midnightblue" stroke="midnightblue" points="750.45,-31.17 741.67,-25.24 744.83,-35.35 750.45,-31.17"/>
</g>
<!-- Node16 -->
<g id="node16" class="node">
<title>Node16</title>
<g id="a_node16"><a xlink:title=" ">
<polygon fill="white" stroke="#bfbfbf" points="834.5,-140 834.5,-159 885.5,-159 885.5,-140 834.5,-140"/>
<text text-anchor="middle" x="860" y="-147" font-family="Helvetica,sans-Serif" font-size="10.00">variant</text>
</a>
</g>
</g>
<!-- Node15&#45;&gt;Node16 -->
<g id="edge17" class="edge">
<title>Node15&#45;&gt;Node16</title>
<path fill="none" stroke="midnightblue" d="M860.78,-201.4C860.64,-192.06 860.45,-179.71 860.29,-169.52"/>
<polygon fill="midnightblue" stroke="midnightblue" points="863.79,-169.14 860.13,-159.19 856.79,-169.25 863.79,-169.14"/>
</g>
<!-- Node17&#45;&gt;Node6 -->
<g id="edge20" class="edge">
<title>Node17&#45;&gt;Node6</title>
<path fill="none" stroke="midnightblue" d="M400.78,-206.95C356.76,-197.59 285.09,-181.68 224,-165 220.67,-164.09 217.22,-163.1 213.77,-162.07"/>
<polygon fill="midnightblue" stroke="midnightblue" points="214.75,-158.71 204.17,-159.14 212.71,-165.41 214.75,-158.71"/>
</g>
<!-- Node17&#45;&gt;Node7 -->
<g id="edge21" class="edge">
<title>Node17&#45;&gt;Node7</title>
<path fill="none" stroke="midnightblue" d="M457.91,-206.73C477.82,-195.77 512.11,-176.88 535.4,-164.05"/>
<polygon fill="midnightblue" stroke="midnightblue" points="537.27,-167.02 544.34,-159.13 533.89,-160.89 537.27,-167.02"/>
</g>
<!-- Node17&#45;&gt;Node11 -->
<g id="edge33" class="edge">
<title>Node17&#45;&gt;Node11</title>
<path fill="none" stroke="midnightblue" d="M476.39,-226.02C521.83,-238.23 602.07,-260.95 655.45,-276.63"/>
<polygon fill="midnightblue" stroke="midnightblue" points="654.51,-280 665.09,-279.47 656.49,-273.29 654.51,-280"/>
</g>
<!-- Node17&#45;&gt;Node12 -->
<g id="edge34" class="edge">
<title>Node17&#45;&gt;Node12</title>
<path fill="none" stroke="midnightblue" d="M449.47,-206.97C466.06,-188.2 505.84,-144.18 523,-134 540.93,-123.36 586.95,-110.2 627.16,-99.98"/>
<polygon fill="midnightblue" stroke="midnightblue" points="628.13,-103.35 636.97,-97.51 626.42,-96.56 628.13,-103.35"/>
</g>
<!-- Node18 -->
<g id="node18" class="node">
<title>Node18</title>
<g id="a_node18"><a xlink:title=" ">
<polygon fill="white" stroke="#bfbfbf" points="266,-140 266,-159 334,-159 334,-140 266,-140"/>
<text text-anchor="middle" x="300" y="-147" font-family="Helvetica,sans-Serif" font-size="10.00">filesystem</text>
</a>
</g>
</g>
<!-- Node17&#45;&gt;Node18 -->
<g id="edge22" class="edge">
<title>Node17&#45;&gt;Node18</title>
<path fill="none" stroke="midnightblue" d="M423.14,-206.87C398.85,-195.75 356.4,-176.32 328.24,-163.43"/>
<polygon fill="midnightblue" stroke="midnightblue" points="329.48,-160.15 318.93,-159.17 326.57,-166.51 329.48,-160.15"/>
</g>
<!-- Node19 -->
<g id="node19" class="node">
<title>Node19</title>
<g id="a_node19"><a xlink:title=" ">
<polygon fill="white" stroke="#bfbfbf" points="352.5,-140 352.5,-159 407.5,-159 407.5,-140 352.5,-140"/>
<text text-anchor="middle" x="380" y="-147" font-family="Helvetica,sans-Serif" font-size="10.00">fstream</text>
</a>
</g>
</g>
<!-- Node17&#45;&gt;Node19 -->
<g id="edge23" class="edge">
<title>Node17&#45;&gt;Node19</title>
<path fill="none" stroke="midnightblue" d="M433.64,-206.73C423.88,-196.5 407.53,-179.36 395.45,-166.69"/>
<polygon fill="midnightblue" stroke="midnightblue" points="397.66,-163.95 388.23,-159.13 392.6,-168.78 397.66,-163.95"/>
</g>
<!-- Node20 -->
<g id="node20" class="node">
<title>Node20</title>
<g id="a_node20"><a xlink:title=" ">
<polygon fill="white" stroke="#bfbfbf" points="426,-140 426,-159 476,-159 476,-140 426,-140"/>
<text text-anchor="middle" x="451" y="-147" font-family="Helvetica,sans-Serif" font-size="10.00">ranges</text>
</a>
</g>
</g>
<!-- Node17&#45;&gt;Node20 -->
<g id="edge24" class="edge">
<title>Node17&#45;&gt;Node20</title>
<path fill="none" stroke="midnightblue" d="M443.21,-206.73C444.54,-197.18 446.69,-181.62 448.4,-169.28"/>
<polygon fill="midnightblue" stroke="midnightblue" points="451.9,-169.51 449.81,-159.13 444.97,-168.55 451.9,-169.51"/>
</g>
<!-- Node21 -->
<g id="node21" class="node">
<title>Node21</title>
<g id="a_node21"><a xlink:title=" ">
<polygon fill="white" stroke="#bfbfbf" points="169.5,-67.5 169.5,-97.5 294.5,-97.5 294.5,-67.5 169.5,-67.5"/>
<text text-anchor="start" x="177.5" y="-85.5" font-family="Helvetica,sans-Serif" font-size="10.00">network_butcher/onnx</text>
<text text-anchor="middle" x="232" y="-74.5" font-family="Helvetica,sans-Serif" font-size="10.00">_proto/onnx.pb.h</text>
</a>
</g>
</g>
<!-- Node17&#45;&gt;Node21 -->
<g id="edge25" class="edge">
<title>Node17&#45;&gt;Node21</title>
<path fill="none" stroke="midnightblue" d="M389.27,-206.93C341.51,-198.16 275.83,-183.25 257,-165 241.61,-150.09 235.64,-125.98 233.34,-107.84"/>
<polygon fill="midnightblue" stroke="midnightblue" points="236.81,-107.33 232.36,-97.71 229.84,-108 236.81,-107.33"/>
</g>
<!-- Node17&#45;&gt;Node22 -->
<g id="edge26" class="edge">
<title>Node17&#45;&gt;Node22</title>
<path fill="none" stroke="midnightblue" d="M387.36,-206.99C328.35,-197.68 231.31,-182.03 137.97,-165.14"/>
<polygon fill="midnightblue" stroke="midnightblue" points="138.54,-161.69 128.07,-163.35 137.29,-168.58 138.54,-161.69"/>
</g>
<!-- Node22&#45;&gt;Node12 -->
<g id="edge31" class="edge">
<title>Node22&#45;&gt;Node12</title>
<path fill="none" stroke="midnightblue" d="M128.02,-135.32C131.05,-134.85 134.06,-134.4 137,-134 348.37,-105.29 406.59,-126.22 622.05,-98.01"/>
<polygon fill="midnightblue" stroke="midnightblue" points="622.65,-101.46 632.1,-96.67 621.73,-94.52 622.65,-101.46"/>
</g>
<!-- Node22&#45;&gt;Node14 -->
<g id="edge30" class="edge">
<title>Node22&#45;&gt;Node14</title>
<path fill="none" stroke="midnightblue" d="M53.37,-134.44C41.38,-116.73 25.55,-86.29 42,-67 72.41,-31.34 199.99,-20.75 283.45,-17.67"/>
<polygon fill="midnightblue" stroke="midnightblue" points="283.78,-21.16 293.65,-17.33 283.54,-14.17 283.78,-21.16"/>
</g>
<!-- Node22&#45;&gt;Node21 -->
<g id="edge32" class="edge">
<title>Node22&#45;&gt;Node21</title>
<path fill="none" stroke="midnightblue" d="M100.45,-134.4C125.55,-124.69 159.09,-111.71 186.02,-101.29"/>
<polygon fill="midnightblue" stroke="midnightblue" points="187.55,-104.45 195.62,-97.58 185.03,-97.92 187.55,-104.45"/>
</g>
<!-- Node23 -->
<g id="node23" class="node">
<title>Node23</title>
<g id="a_node23"><a xlink:title=" ">
<polygon fill="white" stroke="#bfbfbf" points="107,-73 107,-92 139,-92 139,-73 107,-73"/>
<text text-anchor="middle" x="123" y="-80" font-family="Helvetica,sans-Serif" font-size="10.00">set</text>
</a>
</g>
</g>
<!-- Node22&#45;&gt;Node23 -->
<g id="edge27" class="edge">
<title>Node22&#45;&gt;Node23</title>
<path fill="none" stroke="midnightblue" d="M76.8,-134.4C86.09,-124.16 98.68,-110.3 108.37,-99.62"/>
<polygon fill="midnightblue" stroke="midnightblue" points="110.98,-101.95 115.11,-92.19 105.8,-97.25 110.98,-101.95"/>
</g>
<!-- Node24 -->
<g id="node24" class="node">
<title>Node24</title>
<g id="a_node24"><a xlink:title=" ">
<polygon fill="white" stroke="#bfbfbf" points="51,-73 51,-92 89,-92 89,-73 51,-73"/>
<text text-anchor="middle" x="70" y="-80" font-family="Helvetica,sans-Serif" font-size="10.00">map</text>
</a>
</g>
</g>
<!-- Node22&#45;&gt;Node24 -->
<g id="edge28" class="edge">
<title>Node22&#45;&gt;Node24</title>
<path fill="none" stroke="midnightblue" d="M65.3,-134.4C66.17,-124.96 67.33,-112.45 68.27,-102.19"/>
<polygon fill="midnightblue" stroke="midnightblue" points="71.76,-102.47 69.2,-92.19 64.79,-101.83 71.76,-102.47"/>
</g>
<!-- Node25 -->
<g id="node25" class="node">
<title>Node25</title>
<g id="a_node25"><a xlink:title=" ">
<polygon fill="white" stroke="#bfbfbf" points="556,-73 556,-92 614,-92 614,-73 556,-73"/>
<text text-anchor="middle" x="585" y="-80" font-family="Helvetica,sans-Serif" font-size="10.00">memory</text>
</a>
</g>
</g>
<!-- Node22&#45;&gt;Node25 -->
<g id="edge29" class="edge">
<title>Node22&#45;&gt;Node25</title>
<path fill="none" stroke="midnightblue" d="M128.04,-135.46C131.07,-134.95 134.06,-134.46 137,-134 287.14,-110.67 467.18,-93.68 545.44,-86.84"/>
<polygon fill="midnightblue" stroke="midnightblue" points="546.14,-90.29 555.8,-85.94 545.53,-83.32 546.14,-90.29"/>
</g>
<!-- Node26&#45;&gt;Node8 -->
<g id="edge41" class="edge">
<title>Node26&#45;&gt;Node8</title>
<path fill="none" stroke="midnightblue" d="M456.36,-357.2C471.48,-344 493.88,-324.43 509.38,-310.89"/>
<polygon fill="midnightblue" stroke="midnightblue" points="511.97,-313.28 517.2,-304.06 507.36,-308.01 511.97,-313.28"/>
</g>
<!-- Node26&#45;&gt;Node11 -->
<g id="edge38" class="edge">
<title>Node26&#45;&gt;Node11</title>
<path fill="none" stroke="midnightblue" d="M489.65,-357.47C534.82,-344.71 601.55,-325.86 649.54,-312.3"/>
<polygon fill="midnightblue" stroke="midnightblue" points="650.51,-315.66 659.18,-309.57 648.61,-308.93 650.51,-315.66"/>
</g>
<!-- Node26&#45;&gt;Node22 -->
<g id="edge39" class="edge">
<title>Node26&#45;&gt;Node22</title>
<path fill="none" stroke="midnightblue" d="M430.96,-357.42C409.04,-324.49 349.52,-242.08 278,-201 265.65,-193.9 194.93,-177.91 138.11,-165.81"/>
<polygon fill="midnightblue" stroke="midnightblue" points="138.56,-162.33 128.05,-163.68 137.1,-169.17 138.56,-162.33"/>
</g>
<!-- Node26&#45;&gt;Node25 -->
<g id="edge40" class="edge">
<title>Node26&#45;&gt;Node25</title>
<path fill="none" stroke="midnightblue" d="M446.1,-357.37C455.35,-336.74 474.16,-297.59 496,-268 534.07,-216.41 572.76,-224.35 597,-165 605.42,-144.39 599.16,-118.7 592.96,-101.74"/>
<polygon fill="midnightblue" stroke="midnightblue" points="596.2,-100.42 589.24,-92.43 589.7,-103.01 596.2,-100.42"/>
</g>
<!-- Node27&#45;&gt;Node10 -->
<g id="edge44" class="edge">
<title>Node27&#45;&gt;Node10</title>
<path fill="none" stroke="midnightblue" d="M716.41,-424.4C742.96,-414.64 778.5,-401.59 806.93,-391.15"/>
<polygon fill="midnightblue" stroke="midnightblue" points="808.49,-394.31 816.67,-387.58 806.07,-387.74 808.49,-394.31"/>
</g>
<!-- Node27&#45;&gt;Node12 -->
<g id="edge46" class="edge">
<title>Node27&#45;&gt;Node12</title>
<path fill="none" stroke="midnightblue" d="M697.32,-424.43C722.64,-404.65 765.83,-365.98 783,-321 813.07,-242.23 749.47,-147.83 715.93,-105.69"/>
<polygon fill="midnightblue" stroke="midnightblue" points="718.5,-103.3 709.47,-97.75 713.07,-107.72 718.5,-103.3"/>
</g>
<!-- Node27&#45;&gt;Node25 -->
<g id="edge43" class="edge">
<title>Node27&#45;&gt;Node25</title>
<path fill="none" stroke="midnightblue" d="M671.78,-424.34C662.49,-402.57 645.1,-359.36 636,-321 616.68,-239.52 638.89,-213.63 613,-134 609.19,-122.27 602.58,-110.16 596.73,-100.73"/>
<polygon fill="midnightblue" stroke="midnightblue" points="599.66,-98.81 591.28,-92.32 593.78,-102.62 599.66,-98.81"/>
</g>
<!-- Node27&#45;&gt;Node26 -->
<g id="edge45" class="edge">
<title>Node27&#45;&gt;Node26</title>
<path fill="none" stroke="midnightblue" d="M626.65,-424.48C590.02,-414.47 540.59,-400.97 501.8,-390.38"/>
<polygon fill="midnightblue" stroke="midnightblue" points="502.24,-386.87 491.67,-387.61 500.39,-393.62 502.24,-386.87"/>
</g>
<!-- Node28&#45;&gt;Node5 -->
<g id="edge48" class="edge">
<title>Node28&#45;&gt;Node5</title>
<path fill="none" stroke="midnightblue" d="M457,-558.4C472,-549.2 491.79,-537.07 508.27,-526.95"/>
<polygon fill="midnightblue" stroke="midnightblue" points="510.35,-529.79 517.04,-521.58 506.69,-523.82 510.35,-529.79"/>
</g>
<!-- Node29&#45;&gt;Node28 -->
<g id="edge52" class="edge">
<title>Node29&#45;&gt;Node28</title>
<path fill="none" stroke="midnightblue" d="M355.7,-625.4C369.72,-616.28 388.17,-604.29 403.64,-594.24"/>
<polygon fill="midnightblue" stroke="midnightblue" points="405.87,-596.96 412.34,-588.58 402.05,-591.09 405.87,-596.96"/>
</g>
<!-- Node30 -->
<g id="node30" class="node">
<title>Node30</title>
<g id="a_node30"><a xlink:href="weighted__graph_8h.html" target="_top" xlink:title=" ">
<polygon fill="white" stroke="black" points="224,-491.5 224,-521.5 374,-521.5 374,-491.5 224,-491.5"/>
<text text-anchor="start" x="232" y="-509.5" font-family="Helvetica,sans-Serif" font-size="10.00">network_butcher/K&#45;shortest</text>
<text text-anchor="middle" x="299" y="-498.5" font-family="Helvetica,sans-Serif" font-size="10.00">_path/weighted_graph.h</text>
</a>
</g>
</g>
<!-- Node29&#45;&gt;Node30 -->
<g id="edge50" class="edge">
<title>Node29&#45;&gt;Node30</title>
<path fill="none" stroke="midnightblue" d="M330.25,-625.37C324.31,-602.94 312.64,-558.92 305.36,-531.49"/>
<polygon fill="midnightblue" stroke="midnightblue" points="308.66,-530.29 302.72,-521.52 301.9,-532.09 308.66,-530.29"/>
</g>
<!-- Node30&#45;&gt;Node22 -->
<g id="edge51" class="edge">
<title>Node30&#45;&gt;Node22</title>
<path fill="none" stroke="midnightblue" d="M292.58,-491.18C282.48,-467.3 264,-417.6 264,-373.5 264,-373.5 264,-373.5 264,-293.5 264,-226.08 187.86,-187.41 129.54,-167.69"/>
<polygon fill="midnightblue" stroke="midnightblue" points="130.57,-164.35 119.98,-164.57 128.4,-171 130.57,-164.35"/>
</g>
<!-- Node31&#45;&gt;Node4 -->
<g id="edge55" class="edge">
<title>Node31&#45;&gt;Node4</title>
<path fill="none" stroke="midnightblue" d="M296.54,-759.4C322.5,-749.64 357.22,-736.59 385.02,-726.15"/>
<polygon fill="midnightblue" stroke="midnightblue" points="386.4,-729.37 394.53,-722.58 383.94,-722.82 386.4,-729.37"/>
</g>
<!-- Node32 -->
<g id="node32" class="node">
<title>Node32</title>
<g id="a_node32"><a xlink:href="ksp__method_8h.html" target="_top" xlink:title=" ">
<polygon fill="white" stroke="black" points="184,-692.5 184,-722.5 334,-722.5 334,-692.5 184,-692.5"/>
<text text-anchor="start" x="192" y="-710.5" font-family="Helvetica,sans-Serif" font-size="10.00">network_butcher/K&#45;shortest</text>
<text text-anchor="middle" x="259" y="-699.5" font-family="Helvetica,sans-Serif" font-size="10.00">_path/ksp_method.h</text>
</a>
</g>
</g>
<!-- Node31&#45;&gt;Node32 -->
<g id="edge56" class="edge">
<title>Node31&#45;&gt;Node32</title>
<path fill="none" stroke="midnightblue" d="M259,-759.4C259,-751.64 259,-741.81 259,-732.86"/>
<polygon fill="midnightblue" stroke="midnightblue" points="262.5,-732.58 259,-722.58 255.5,-732.58 262.5,-732.58"/>
</g>
<!-- Node33&#45;&gt;Node17 -->
<g id="edge60" class="edge">
<title>Node33&#45;&gt;Node17</title>
<path fill="none" stroke="midnightblue" d="M235.59,-273.93C288.13,-259.57 357.62,-240.57 401.06,-228.69"/>
<polygon fill="midnightblue" stroke="midnightblue" points="401.99,-232.07 410.72,-226.05 400.15,-225.31 401.99,-232.07"/>
</g>
<!-- Node33&#45;&gt;Node22 -->
<g id="edge59" class="edge">
<title>Node33&#45;&gt;Node22</title>
<path fill="none" stroke="midnightblue" d="M146.35,-268.26C127.49,-241.3 97.87,-198.94 79.77,-173.05"/>
<polygon fill="midnightblue" stroke="midnightblue" points="82.48,-170.82 73.88,-164.63 76.74,-174.83 82.48,-170.82"/>
</g>
</g>
</svg>
