<?xml version="1.0" encoding="UTF-8" standalone="no"?>
<!DOCTYPE svg PUBLIC "-//W3C//DTD SVG 1.1//EN"
 "http://www.w3.org/Graphics/SVG/1.1/DTD/svg11.dtd">
<!-- Generated by graphviz version 2.43.0 (0)
 -->
<!-- Title: include/network_butcher/Types/dense_tensor.h Pages: 1 -->
<svg width="1184pt" height="1299pt"
 viewBox="0.00 0.00 1183.50 1299.00" xmlns="http://www.w3.org/2000/svg" xmlns:xlink="http://www.w3.org/1999/xlink">
<g id="graph0" class="graph" transform="scale(1 1) rotate(0) translate(4 1295)">
<title>include/network_butcher/Types/dense_tensor.h</title>
<polygon fill="white" stroke="transparent" points="-4,4 -4,-1295 1179.5,-1295 1179.5,4 -4,4"/>
<!-- Node1 -->
<g id="node1" class="node">
<title>Node1</title>
<g id="a_node1"><a xlink:title=" ">
<polygon fill="#bfbfbf" stroke="black" points="707.5,-1260.5 707.5,-1290.5 844.5,-1290.5 844.5,-1260.5 707.5,-1260.5"/>
<text text-anchor="start" x="715.5" y="-1278.5" font-family="Helvetica,sans-Serif" font-size="10.00">include/network_butcher</text>
<text text-anchor="middle" x="776" y="-1267.5" font-family="Helvetica,sans-Serif" font-size="10.00">/Types/dense_tensor.h</text>
</a>
</g>
</g>
<!-- Node2 -->
<g id="node2" class="node">
<title>Node2</title>
<g id="a_node2"><a xlink:href="node_8h.html" target="_top" xlink:title=" ">
<polygon fill="white" stroke="black" points="561.5,-1193.5 561.5,-1223.5 698.5,-1223.5 698.5,-1193.5 561.5,-1193.5"/>
<text text-anchor="start" x="569.5" y="-1211.5" font-family="Helvetica,sans-Serif" font-size="10.00">include/network_butcher</text>
<text text-anchor="middle" x="630" y="-1200.5" font-family="Helvetica,sans-Serif" font-size="10.00">/Network/node.h</text>
</a>
</g>
</g>
<!-- Node1&#45;&gt;Node2 -->
<g id="edge1" class="edge">
<title>Node1&#45;&gt;Node2</title>
<path fill="none" stroke="midnightblue" d="M735.05,-1256.27C711.8,-1245.92 683.13,-1233.15 661.62,-1223.58"/>
<polygon fill="midnightblue" stroke="midnightblue" points="733.76,-1259.53 744.32,-1260.4 736.61,-1253.13 733.76,-1259.53"/>
</g>
<!-- Node29 -->
<g id="node29" class="node">
<title>Node29</title>
<g id="a_node29"><a xlink:href="utilities_8h.html" target="_top" xlink:title=" ">
<polygon fill="white" stroke="black" points="817.5,-791.5 817.5,-821.5 954.5,-821.5 954.5,-791.5 817.5,-791.5"/>
<text text-anchor="start" x="825.5" y="-809.5" font-family="Helvetica,sans-Serif" font-size="10.00">include/network_butcher</text>
<text text-anchor="middle" x="886" y="-798.5" font-family="Helvetica,sans-Serif" font-size="10.00">/utilities.h</text>
</a>
</g>
</g>
<!-- Node1&#45;&gt;Node29 -->
<g id="edge53" class="edge">
<title>Node1&#45;&gt;Node29</title>
<path fill="none" stroke="midnightblue" d="M769.35,-1249.99C767,-1223.49 767,-1180 767,-1142.5 767,-1142.5 767,-1142.5 767,-939.5 767,-886.1 820.78,-842.84 856.21,-821.65"/>
<polygon fill="midnightblue" stroke="midnightblue" points="765.91,-1250.7 770.51,-1260.24 772.86,-1249.91 765.91,-1250.7"/>
</g>
<!-- Node33 -->
<g id="node33" class="node">
<title>Node33</title>
<g id="a_node33"><a xlink:href="content_8h.html" target="_top" xlink:title=" ">
<polygon fill="white" stroke="black" points="387.5,-1193.5 387.5,-1223.5 524.5,-1223.5 524.5,-1193.5 387.5,-1193.5"/>
<text text-anchor="start" x="395.5" y="-1211.5" font-family="Helvetica,sans-Serif" font-size="10.00">include/network_butcher</text>
<text text-anchor="middle" x="456" y="-1200.5" font-family="Helvetica,sans-Serif" font-size="10.00">/Types/content.h</text>
</a>
</g>
</g>
<!-- Node1&#45;&gt;Node33 -->
<g id="edge63" class="edge">
<title>Node1&#45;&gt;Node33</title>
<path fill="none" stroke="midnightblue" d="M697.32,-1258.52C644.37,-1247.76 575.23,-1233.72 524.53,-1223.42"/>
<polygon fill="midnightblue" stroke="midnightblue" points="696.86,-1262 707.35,-1260.56 698.25,-1255.14 696.86,-1262"/>
</g>
<!-- Node34 -->
<g id="node34" class="node">
<title>Node34</title>
<g id="a_node34"><a xlink:href="dense__tensor_8cpp.html" target="_top" xlink:title=" ">
<polygon fill="white" stroke="black" points="812.5,-1199 812.5,-1218 961.5,-1218 961.5,-1199 812.5,-1199"/>
<text text-anchor="middle" x="887" y="-1206" font-family="Helvetica,sans-Serif" font-size="10.00">src/Types/dense_tensor.cpp</text>
</a>
</g>
</g>
<!-- Node1&#45;&gt;Node34 -->
<g id="edge67" class="edge">
<title>Node1&#45;&gt;Node34</title>
<path fill="none" stroke="midnightblue" d="M808.78,-1255.31C829.92,-1242.93 856.38,-1227.43 872.47,-1218.01"/>
<polygon fill="midnightblue" stroke="midnightblue" points="806.95,-1252.32 800.09,-1260.4 810.48,-1258.36 806.95,-1252.32"/>
</g>
<!-- Node3 -->
<g id="node3" class="node">
<title>Node3</title>
<g id="a_node3"><a xlink:href="graph_8h.html" target="_top" xlink:title=" ">
<polygon fill="white" stroke="black" points="455.5,-1059.5 455.5,-1089.5 592.5,-1089.5 592.5,-1059.5 455.5,-1059.5"/>
<text text-anchor="start" x="463.5" y="-1077.5" font-family="Helvetica,sans-Serif" font-size="10.00">include/network_butcher</text>
<text text-anchor="middle" x="524" y="-1066.5" font-family="Helvetica,sans-Serif" font-size="10.00">/Network/graph.h</text>
</a>
</g>
</g>
<!-- Node2&#45;&gt;Node3 -->
<g id="edge2" class="edge">
<title>Node2&#45;&gt;Node3</title>
<path fill="none" stroke="midnightblue" d="M629.37,-1183.44C627.8,-1165.99 623.31,-1142.64 611,-1126 598.95,-1109.71 579.96,-1097.82 562.79,-1089.68"/>
<polygon fill="midnightblue" stroke="midnightblue" points="625.87,-1183.67 630.01,-1193.42 632.86,-1183.22 625.87,-1183.67"/>
</g>
<!-- Node28 -->
<g id="node28" class="node">
<title>Node28</title>
<g id="a_node28"><a xlink:href="node__traits_8h.html" target="_top" xlink:title=" ">
<polygon fill="white" stroke="black" points="464.5,-1126.5 464.5,-1156.5 601.5,-1156.5 601.5,-1126.5 464.5,-1126.5"/>
<text text-anchor="start" x="472.5" y="-1144.5" font-family="Helvetica,sans-Serif" font-size="10.00">include/network_butcher</text>
<text text-anchor="middle" x="533" y="-1133.5" font-family="Helvetica,sans-Serif" font-size="10.00">/Network/node_traits.h</text>
</a>
</g>
</g>
<!-- Node2&#45;&gt;Node28 -->
<g id="edge51" class="edge">
<title>Node2&#45;&gt;Node28</title>
<path fill="none" stroke="midnightblue" d="M600.5,-1187.73C585.49,-1177.68 567.6,-1165.68 554.01,-1156.58"/>
<polygon fill="midnightblue" stroke="midnightblue" points="598.7,-1190.74 608.95,-1193.4 602.59,-1184.92 598.7,-1190.74"/>
</g>
<!-- Node4 -->
<g id="node4" class="node">
<title>Node4</title>
<g id="a_node4"><a xlink:href="graph__traits_8h.html" target="_top" xlink:title=" ">
<polygon fill="white" stroke="black" points="310.5,-858.5 310.5,-888.5 447.5,-888.5 447.5,-858.5 310.5,-858.5"/>
<text text-anchor="start" x="318.5" y="-876.5" font-family="Helvetica,sans-Serif" font-size="10.00">include/network_butcher</text>
<text text-anchor="middle" x="379" y="-865.5" font-family="Helvetica,sans-Serif" font-size="10.00">/Network/graph_traits.h</text>
</a>
</g>
</g>
<!-- Node3&#45;&gt;Node4 -->
<g id="edge3" class="edge">
<title>Node3&#45;&gt;Node4</title>
<path fill="none" stroke="midnightblue" d="M485.14,-1054.34C471.44,-1046.14 456.78,-1035.54 446,-1023 410.05,-981.17 389.99,-916.91 382.48,-888.65"/>
<polygon fill="midnightblue" stroke="midnightblue" points="483.54,-1057.45 493.96,-1059.38 487.01,-1051.38 483.54,-1057.45"/>
</g>
<!-- Node25 -->
<g id="node25" class="node">
<title>Node25</title>
<g id="a_node25"><a xlink:href="mwgraph_8h.html" target="_top" xlink:title=" ">
<polygon fill="white" stroke="black" points="455.5,-992.5 455.5,-1022.5 592.5,-1022.5 592.5,-992.5 455.5,-992.5"/>
<text text-anchor="start" x="463.5" y="-1010.5" font-family="Helvetica,sans-Serif" font-size="10.00">include/network_butcher</text>
<text text-anchor="middle" x="524" y="-999.5" font-family="Helvetica,sans-Serif" font-size="10.00">/Network/mwgraph.h</text>
</a>
</g>
</g>
<!-- Node3&#45;&gt;Node25 -->
<g id="edge42" class="edge">
<title>Node3&#45;&gt;Node25</title>
<path fill="none" stroke="midnightblue" d="M524,-1049.11C524,-1040.15 524,-1030.32 524,-1022.58"/>
<polygon fill="midnightblue" stroke="midnightblue" points="520.5,-1049.4 524,-1059.4 527.5,-1049.4 520.5,-1049.4"/>
</g>
<!-- Node5 -->
<g id="node5" class="node">
<title>Node5</title>
<g id="a_node5"><a xlink:href="butcher_8h.html" target="_top" xlink:title=" ">
<polygon fill="white" stroke="black" points="375.5,-290.5 375.5,-320.5 512.5,-320.5 512.5,-290.5 375.5,-290.5"/>
<text text-anchor="start" x="383.5" y="-308.5" font-family="Helvetica,sans-Serif" font-size="10.00">include/network_butcher</text>
<text text-anchor="middle" x="444" y="-297.5" font-family="Helvetica,sans-Serif" font-size="10.00">/Butcher/butcher.h</text>
</a>
</g>
</g>
<!-- Node4&#45;&gt;Node5 -->
<g id="edge4" class="edge">
<title>Node4&#45;&gt;Node5</title>
<path fill="none" stroke="midnightblue" d="M379.06,-848.16C379.53,-758.95 383.32,-450.23 413,-357 417.24,-343.67 425.73,-330.25 432.75,-320.6"/>
<polygon fill="midnightblue" stroke="midnightblue" points="375.56,-848.35 379.02,-858.37 382.56,-848.39 375.56,-848.35"/>
</g>
<!-- Node6 -->
<g id="node6" class="node">
<title>Node6</title>
<g id="a_node6"><a xlink:href="onnx__importer__helpers_8h.html" target="_top" xlink:title=" ">
<polygon fill="white" stroke="black" points="281,-212.5 281,-253.5 443,-253.5 443,-212.5 281,-212.5"/>
<text text-anchor="start" x="289" y="-241.5" font-family="Helvetica,sans-Serif" font-size="10.00">include/network_butcher</text>
<text text-anchor="start" x="289" y="-230.5" font-family="Helvetica,sans-Serif" font-size="10.00">/IO_Interaction/onnx_importer</text>
<text text-anchor="middle" x="362" y="-219.5" font-family="Helvetica,sans-Serif" font-size="10.00">_helpers.h</text>
</a>
</g>
</g>
<!-- Node4&#45;&gt;Node6 -->
<g id="edge23" class="edge">
<title>Node4&#45;&gt;Node6</title>
<path fill="none" stroke="midnightblue" d="M300.07,-868.48C210.3,-859.15 76,-828.64 76,-729.5 76,-729.5 76,-729.5 76,-377 76,-320.07 120.47,-318.05 170,-290 189.49,-278.96 238.09,-264.83 281.51,-253.52"/>
<polygon fill="midnightblue" stroke="midnightblue" points="299.95,-871.98 310.24,-869.47 300.63,-865.02 299.95,-871.98"/>
</g>
<!-- Node9 -->
<g id="node9" class="node">
<title>Node9</title>
<g id="a_node9"><a xlink:href="network__butcher_8h.html" target="_top" xlink:title=" ">
<polygon fill="white" stroke="black" points="533.5,-0.5 533.5,-30.5 670.5,-30.5 670.5,-0.5 533.5,-0.5"/>
<text text-anchor="start" x="541.5" y="-18.5" font-family="Helvetica,sans-Serif" font-size="10.00">include/network_butcher</text>
<text text-anchor="middle" x="602" y="-7.5" font-family="Helvetica,sans-Serif" font-size="10.00">/network_butcher.h</text>
</a>
</g>
</g>
<!-- Node4&#45;&gt;Node9 -->
<g id="edge36" class="edge">
<title>Node4&#45;&gt;Node9</title>
<path fill="none" stroke="midnightblue" d="M300.33,-867.57C218.42,-861.15 96.76,-847.58 58,-822 17.5,-795.27 0,-778.02 0,-729.5 0,-729.5 0,-729.5 0,-154 0,-99.83 375.28,-45.48 533.24,-25.01"/>
<polygon fill="midnightblue" stroke="midnightblue" points="300.13,-871.06 310.36,-868.34 300.66,-864.08 300.13,-871.06"/>
</g>
<!-- Node13 -->
<g id="node13" class="node">
<title>Node13</title>
<g id="a_node13"><a xlink:href="onnx__model__reconstructor__helpers_8h.html" target="_top" xlink:title=" ">
<polygon fill="white" stroke="black" points="111.5,-212.5 111.5,-253.5 262.5,-253.5 262.5,-212.5 111.5,-212.5"/>
<text text-anchor="start" x="119.5" y="-241.5" font-family="Helvetica,sans-Serif" font-size="10.00">include/network_butcher</text>
<text text-anchor="start" x="119.5" y="-230.5" font-family="Helvetica,sans-Serif" font-size="10.00">/IO_Interaction/onnx_model</text>
<text text-anchor="middle" x="187" y="-219.5" font-family="Helvetica,sans-Serif" font-size="10.00">_reconstructor_helpers.h</text>
</a>
</g>
</g>
<!-- Node4&#45;&gt;Node13 -->
<g id="edge24" class="edge">
<title>Node4&#45;&gt;Node13</title>
<path fill="none" stroke="midnightblue" d="M300.25,-872.45C199.54,-867.76 38,-842.61 38,-729.5 38,-729.5 38,-729.5 38,-377 38,-318.38 98.78,-276.31 142.7,-253.56"/>
<polygon fill="midnightblue" stroke="midnightblue" points="300.27,-875.95 310.4,-872.86 300.55,-868.96 300.27,-875.95"/>
</g>
<!-- Node15 -->
<g id="node15" class="node">
<title>Node15</title>
<g id="a_node15"><a xlink:href="graph__constraint_8h.html" target="_top" xlink:title=" ">
<polygon fill="white" stroke="black" points="218.5,-624.5 218.5,-654.5 369.5,-654.5 369.5,-624.5 218.5,-624.5"/>
<text text-anchor="start" x="226.5" y="-642.5" font-family="Helvetica,sans-Serif" font-size="10.00">include/network_butcher</text>
<text text-anchor="middle" x="294" y="-631.5" font-family="Helvetica,sans-Serif" font-size="10.00">/Butcher/graph_constraint.h</text>
</a>
</g>
</g>
<!-- Node4&#45;&gt;Node15 -->
<g id="edge17" class="edge">
<title>Node4&#45;&gt;Node15</title>
<path fill="none" stroke="midnightblue" d="M370.31,-848.78C352.73,-800.8 313.41,-693.49 299.23,-654.77"/>
<polygon fill="midnightblue" stroke="midnightblue" points="367.08,-850.15 373.81,-858.34 373.66,-847.74 367.08,-850.15"/>
</g>
<!-- Node16 -->
<g id="node16" class="node">
<title>Node16</title>
<g id="a_node16"><a xlink:href="constrained__block__graph__builder_8h.html" target="_top" xlink:title=" ">
<polygon fill="white" stroke="black" points="217.5,-357.5 217.5,-398.5 366.5,-398.5 366.5,-357.5 217.5,-357.5"/>
<text text-anchor="start" x="225.5" y="-386.5" font-family="Helvetica,sans-Serif" font-size="10.00">include/network_butcher</text>
<text text-anchor="start" x="225.5" y="-375.5" font-family="Helvetica,sans-Serif" font-size="10.00">/Butcher/constrained_block</text>
<text text-anchor="middle" x="292" y="-364.5" font-family="Helvetica,sans-Serif" font-size="10.00">_graph_builder.h</text>
</a>
</g>
</g>
<!-- Node4&#45;&gt;Node16 -->
<g id="edge20" class="edge">
<title>Node4&#45;&gt;Node16</title>
<path fill="none" stroke="midnightblue" d="M300.08,-863.44C221.98,-849.56 114,-814.93 114,-729.5 114,-729.5 114,-729.5 114,-638.5 114,-532.51 216.22,-438.14 265.74,-398.64"/>
<polygon fill="midnightblue" stroke="midnightblue" points="299.97,-866.97 310.41,-865.18 301.13,-860.07 299.97,-866.97"/>
</g>
<!-- Node17 -->
<g id="node17" class="node">
<title>Node17</title>
<g id="a_node17"><a xlink:href="path__converter_8h.html" target="_top" xlink:title=" ">
<polygon fill="white" stroke="black" points="422,-363 422,-393 564,-393 564,-363 422,-363"/>
<text text-anchor="start" x="430" y="-381" font-family="Helvetica,sans-Serif" font-size="10.00">include/network_butcher</text>
<text text-anchor="middle" x="493" y="-370" font-family="Helvetica,sans-Serif" font-size="10.00">/Butcher/path_converter.h</text>
</a>
</g>
</g>
<!-- Node4&#45;&gt;Node17 -->
<g id="edge21" class="edge">
<title>Node4&#45;&gt;Node17</title>
<path fill="none" stroke="midnightblue" d="M396.62,-850.27C402.42,-841.86 408.33,-831.91 412,-822 458.36,-696.73 423.67,-654.75 451,-524 461.19,-475.26 479.39,-418.99 488.1,-393.22"/>
<polygon fill="midnightblue" stroke="midnightblue" points="393.74,-848.27 390.7,-858.42 399.41,-852.39 393.74,-848.27"/>
</g>
<!-- Node18 -->
<g id="node18" class="node">
<title>Node18</title>
<g id="a_node18"><a xlink:href="weight__importer_8h.html" target="_top" xlink:title=" ">
<polygon fill="white" stroke="black" points="464.5,-702.5 464.5,-754.5 607.5,-754.5 607.5,-702.5 464.5,-702.5"/>
<text text-anchor="start" x="472.5" y="-742.5" font-family="Helvetica,sans-Serif" font-size="10.00">include/network_butcher</text>
<text text-anchor="start" x="472.5" y="-731.5" font-family="Helvetica,sans-Serif" font-size="10.00">/IO_Interaction/Weight</text>
<text text-anchor="start" x="472.5" y="-720.5" font-family="Helvetica,sans-Serif" font-size="10.00">_Importer_Helpers/weight</text>
<text text-anchor="middle" x="536" y="-709.5" font-family="Helvetica,sans-Serif" font-size="10.00">_importer.h</text>
</a>
</g>
</g>
<!-- Node4&#45;&gt;Node18 -->
<g id="edge25" class="edge">
<title>Node4&#45;&gt;Node18</title>
<path fill="none" stroke="midnightblue" d="M409.84,-852.59C422.71,-843.78 437.53,-832.94 450,-822 473.9,-801.03 498.32,-774.14 515,-754.77"/>
<polygon fill="midnightblue" stroke="midnightblue" points="407.64,-849.85 401.3,-858.34 411.55,-855.66 407.64,-849.85"/>
</g>
<!-- Node24 -->
<g id="node24" class="node">
<title>Node24</title>
<g id="a_node24"><a xlink:href="parameters_8h.html" target="_top" xlink:title=" ">
<polygon fill="white" stroke="black" points="194.5,-791.5 194.5,-821.5 331.5,-821.5 331.5,-791.5 194.5,-791.5"/>
<text text-anchor="start" x="202.5" y="-809.5" font-family="Helvetica,sans-Serif" font-size="10.00">include/network_butcher</text>
<text text-anchor="middle" x="263" y="-798.5" font-family="Helvetica,sans-Serif" font-size="10.00">/Types/parameters.h</text>
</a>
</g>
</g>
<!-- Node4&#45;&gt;Node24 -->
<g id="edge37" class="edge">
<title>Node4&#45;&gt;Node24</title>
<path fill="none" stroke="midnightblue" d="M344.73,-853.3C326.58,-843.12 304.68,-830.85 288.12,-821.58"/>
<polygon fill="midnightblue" stroke="midnightblue" points="343.4,-856.56 353.83,-858.4 346.82,-850.45 343.4,-856.56"/>
</g>
<!-- Node5&#45;&gt;Node6 -->
<g id="edge5" class="edge">
<title>Node5&#45;&gt;Node6</title>
<path fill="none" stroke="midnightblue" d="M419.76,-283.66C408.69,-274.15 395.66,-262.94 384.78,-253.59"/>
<polygon fill="midnightblue" stroke="midnightblue" points="417.54,-286.37 427.41,-290.23 422.11,-281.06 417.54,-286.37"/>
</g>
<!-- Node5&#45;&gt;Node9 -->
<g id="edge16" class="edge">
<title>Node5&#45;&gt;Node9</title>
<path fill="none" stroke="midnightblue" d="M483.53,-285.7C522.1,-264.92 578.43,-227.44 603,-176 626.39,-127.02 613.38,-59.55 605.99,-30.61"/>
<polygon fill="midnightblue" stroke="midnightblue" points="481.86,-282.63 474.63,-290.38 485.11,-288.83 481.86,-282.63"/>
</g>
<!-- Node5&#45;&gt;Node13 -->
<g id="edge13" class="edge">
<title>Node5&#45;&gt;Node13</title>
<path fill="none" stroke="midnightblue" d="M383.16,-287.81C345.75,-277.55 297.63,-264.35 258.42,-253.59"/>
<polygon fill="midnightblue" stroke="midnightblue" points="382.35,-291.22 392.92,-290.49 384.2,-284.47 382.35,-291.22"/>
</g>
<!-- Node7 -->
<g id="node7" class="node">
<title>Node7</title>
<g id="a_node7"><a xlink:href="io__manager_8h.html" target="_top" xlink:title=" ">
<polygon fill="white" stroke="black" points="286.5,-140 286.5,-170 423.5,-170 423.5,-140 286.5,-140"/>
<text text-anchor="start" x="294.5" y="-158" font-family="Helvetica,sans-Serif" font-size="10.00">include/network_butcher</text>
<text text-anchor="middle" x="355" y="-147" font-family="Helvetica,sans-Serif" font-size="10.00">/io_manager.h</text>
</a>
</g>
</g>
<!-- Node6&#45;&gt;Node7 -->
<g id="edge6" class="edge">
<title>Node6&#45;&gt;Node7</title>
<path fill="none" stroke="midnightblue" d="M359.26,-202.28C358.25,-191.25 357.14,-179.25 356.31,-170.23"/>
<polygon fill="midnightblue" stroke="midnightblue" points="355.79,-202.79 360.2,-212.43 362.77,-202.15 355.79,-202.79"/>
</g>
<!-- Node12 -->
<g id="node12" class="node">
<title>Node12</title>
<g id="a_node12"><a xlink:href="onnx__importer__helpers_8cpp.html" target="_top" xlink:title=" ">
<polygon fill="white" stroke="black" points="442,-140 442,-170 594,-170 594,-140 442,-140"/>
<text text-anchor="start" x="450" y="-158" font-family="Helvetica,sans-Serif" font-size="10.00">src/IO_Interaction</text>
<text text-anchor="middle" x="518" y="-147" font-family="Helvetica,sans-Serif" font-size="10.00">/onnx_importer_helpers.cpp</text>
</a>
</g>
</g>
<!-- Node6&#45;&gt;Node12 -->
<g id="edge12" class="edge">
<title>Node6&#45;&gt;Node12</title>
<path fill="none" stroke="midnightblue" d="M411.32,-207.97C436.81,-195.55 467.04,-180.83 488.8,-170.23"/>
<polygon fill="midnightblue" stroke="midnightblue" points="409.63,-204.9 402.17,-212.43 412.7,-211.19 409.63,-204.9"/>
</g>
<!-- Node8 -->
<g id="node8" class="node">
<title>Node8</title>
<g id="a_node8"><a xlink:href="general__manager_8h.html" target="_top" xlink:title=" ">
<polygon fill="white" stroke="black" points="286.5,-67.5 286.5,-97.5 423.5,-97.5 423.5,-67.5 286.5,-67.5"/>
<text text-anchor="start" x="294.5" y="-85.5" font-family="Helvetica,sans-Serif" font-size="10.00">include/network_butcher</text>
<text text-anchor="middle" x="355" y="-74.5" font-family="Helvetica,sans-Serif" font-size="10.00">/general_manager.h</text>
</a>
</g>
</g>
<!-- Node7&#45;&gt;Node8 -->
<g id="edge7" class="edge">
<title>Node7&#45;&gt;Node8</title>
<path fill="none" stroke="midnightblue" d="M355,-129.73C355,-119.07 355,-106.91 355,-97.75"/>
<polygon fill="midnightblue" stroke="midnightblue" points="351.5,-129.73 355,-139.73 358.5,-129.73 351.5,-129.73"/>
</g>
<!-- Node7&#45;&gt;Node9 -->
<g id="edge10" class="edge">
<title>Node7&#45;&gt;Node9</title>
<path fill="none" stroke="midnightblue" d="M418.66,-137.44C478.42,-121.8 559.12,-100.38 562,-98 583.28,-80.46 594.16,-48.81 598.91,-30.55"/>
<polygon fill="midnightblue" stroke="midnightblue" points="417.68,-134.08 408.89,-140 419.45,-140.86 417.68,-134.08"/>
</g>
<!-- Node11 -->
<g id="node11" class="node">
<title>Node11</title>
<g id="a_node11"><a xlink:href="io__manager_8cpp.html" target="_top" xlink:title=" ">
<polygon fill="white" stroke="black" points="441.5,-73 441.5,-92 552.5,-92 552.5,-73 441.5,-73"/>
<text text-anchor="middle" x="497" y="-80" font-family="Helvetica,sans-Serif" font-size="10.00">src/io_manager.cpp</text>
</a>
</g>
</g>
<!-- Node7&#45;&gt;Node11 -->
<g id="edge11" class="edge">
<title>Node7&#45;&gt;Node11</title>
<path fill="none" stroke="midnightblue" d="M392.6,-135.33C420.87,-121.29 458.31,-102.71 479.81,-92.03"/>
<polygon fill="midnightblue" stroke="midnightblue" points="390.79,-132.32 383.39,-139.9 393.91,-138.59 390.79,-132.32"/>
</g>
<!-- Node8&#45;&gt;Node9 -->
<g id="edge8" class="edge">
<title>Node8&#45;&gt;Node9</title>
<path fill="none" stroke="midnightblue" d="M418.01,-64.92C458.32,-54.31 510.04,-40.7 548.38,-30.61"/>
<polygon fill="midnightblue" stroke="midnightblue" points="417.07,-61.55 408.29,-67.48 418.85,-68.32 417.07,-61.55"/>
</g>
<!-- Node10 -->
<g id="node10" class="node">
<title>Node10</title>
<g id="a_node10"><a xlink:href="general__manager_8cpp.html" target="_top" xlink:title=" ">
<polygon fill="white" stroke="black" points="285.5,-6 285.5,-25 424.5,-25 424.5,-6 285.5,-6"/>
<text text-anchor="middle" x="355" y="-13" font-family="Helvetica,sans-Serif" font-size="10.00">src/general_manager.cpp</text>
</a>
</g>
</g>
<!-- Node8&#45;&gt;Node10 -->
<g id="edge9" class="edge">
<title>Node8&#45;&gt;Node10</title>
<path fill="none" stroke="midnightblue" d="M355,-57.25C355,-46.02 355,-33.38 355,-25.19"/>
<polygon fill="midnightblue" stroke="midnightblue" points="351.5,-57.4 355,-67.4 358.5,-57.4 351.5,-57.4"/>
</g>
<!-- Node13&#45;&gt;Node7 -->
<g id="edge14" class="edge">
<title>Node13&#45;&gt;Node7</title>
<path fill="none" stroke="midnightblue" d="M239.43,-208.28C267.12,-195.76 300.17,-180.81 323.82,-170.11"/>
<polygon fill="midnightblue" stroke="midnightblue" points="237.93,-205.12 230.26,-212.43 240.82,-211.5 237.93,-205.12"/>
</g>
<!-- Node14 -->
<g id="node14" class="node">
<title>Node14</title>
<g id="a_node14"><a xlink:href="onnx__model__reconstructor__helpers_8cpp.html" target="_top" xlink:title=" ">
<polygon fill="white" stroke="black" points="112.5,-134.5 112.5,-175.5 261.5,-175.5 261.5,-134.5 112.5,-134.5"/>
<text text-anchor="start" x="120.5" y="-163.5" font-family="Helvetica,sans-Serif" font-size="10.00">src/IO_Interaction</text>
<text text-anchor="start" x="120.5" y="-152.5" font-family="Helvetica,sans-Serif" font-size="10.00">/onnx_model_reconstructor</text>
<text text-anchor="middle" x="187" y="-141.5" font-family="Helvetica,sans-Serif" font-size="10.00">_helpers.cpp</text>
</a>
</g>
</g>
<!-- Node13&#45;&gt;Node14 -->
<g id="edge15" class="edge">
<title>Node13&#45;&gt;Node14</title>
<path fill="none" stroke="midnightblue" d="M187,-202.3C187,-193.3 187,-183.65 187,-175.51"/>
<polygon fill="midnightblue" stroke="midnightblue" points="183.5,-202.43 187,-212.43 190.5,-202.43 183.5,-202.43"/>
</g>
<!-- Node15&#45;&gt;Node16 -->
<g id="edge18" class="edge">
<title>Node15&#45;&gt;Node16</title>
<path fill="none" stroke="midnightblue" d="M293.81,-614.04C293.42,-562.9 292.51,-445.53 292.15,-398.76"/>
<polygon fill="midnightblue" stroke="midnightblue" points="290.31,-614.21 293.89,-624.18 297.31,-614.15 290.31,-614.21"/>
</g>
<!-- Node16&#45;&gt;Node5 -->
<g id="edge19" class="edge">
<title>Node16&#45;&gt;Node5</title>
<path fill="none" stroke="midnightblue" d="M343.71,-353.02C366.91,-342.25 393.49,-329.93 413.45,-320.67"/>
<polygon fill="midnightblue" stroke="midnightblue" points="341.94,-349.98 334.34,-357.36 344.88,-356.33 341.94,-349.98"/>
</g>
<!-- Node17&#45;&gt;Node5 -->
<g id="edge22" class="edge">
<title>Node17&#45;&gt;Node5</title>
<path fill="none" stroke="midnightblue" d="M477.28,-354.39C469.61,-343.34 460.61,-330.39 453.9,-320.75"/>
<polygon fill="midnightblue" stroke="midnightblue" points="474.5,-356.52 483.08,-362.73 480.25,-352.52 474.5,-356.52"/>
</g>
<!-- Node19 -->
<g id="node19" class="node">
<title>Node19</title>
<g id="a_node19"><a xlink:href="block__aMLLibrary__weight__importer_8h.html" target="_top" xlink:title=" ">
<polygon fill="white" stroke="black" points="660,-524.5 660,-576.5 830,-576.5 830,-524.5 660,-524.5"/>
<text text-anchor="start" x="668" y="-564.5" font-family="Helvetica,sans-Serif" font-size="10.00">include/network_butcher</text>
<text text-anchor="start" x="668" y="-553.5" font-family="Helvetica,sans-Serif" font-size="10.00">/IO_Interaction/Weight</text>
<text text-anchor="start" x="668" y="-542.5" font-family="Helvetica,sans-Serif" font-size="10.00">_Importer_Helpers/block</text>
<text text-anchor="middle" x="745" y="-531.5" font-family="Helvetica,sans-Serif" font-size="10.00">_aMLLibrary_weight_importer.h</text>
</a>
</g>
</g>
<!-- Node18&#45;&gt;Node19 -->
<g id="edge26" class="edge">
<title>Node18&#45;&gt;Node19</title>
<path fill="none" stroke="midnightblue" d="M597.63,-697.52C613.76,-688.41 630.64,-677.69 645,-666 677.54,-639.51 708.24,-601.75 726.83,-576.95"/>
<polygon fill="midnightblue" stroke="midnightblue" points="595.84,-694.51 588.77,-702.4 599.22,-700.64 595.84,-694.51"/>
</g>
<!-- Node22 -->
<g id="node22" class="node">
<title>Node22</title>
<g id="a_node22"><a xlink:href="csv__weight__importer_8h.html" target="_top" xlink:title=" ">
<polygon fill="white" stroke="black" points="472,-613.5 472,-665.5 636,-665.5 636,-613.5 472,-613.5"/>
<text text-anchor="start" x="480" y="-653.5" font-family="Helvetica,sans-Serif" font-size="10.00">include/network_butcher</text>
<text text-anchor="start" x="480" y="-642.5" font-family="Helvetica,sans-Serif" font-size="10.00">/IO_Interaction/Weight</text>
<text text-anchor="start" x="480" y="-631.5" font-family="Helvetica,sans-Serif" font-size="10.00">_Importer_Helpers/csv_weight</text>
<text text-anchor="middle" x="554" y="-620.5" font-family="Helvetica,sans-Serif" font-size="10.00">_importer.h</text>
</a>
</g>
</g>
<!-- Node18&#45;&gt;Node22 -->
<g id="edge32" class="edge">
<title>Node18&#45;&gt;Node22</title>
<path fill="none" stroke="midnightblue" d="M543.25,-692.48C545.11,-683.49 547.07,-673.99 548.81,-665.61"/>
<polygon fill="midnightblue" stroke="midnightblue" points="539.81,-691.83 541.21,-702.34 546.66,-693.25 539.81,-691.83"/>
</g>
<!-- Node20 -->
<g id="node20" class="node">
<title>Node20</title>
<g id="a_node20"><a xlink:href="weight__importers_8h.html" target="_top" xlink:title=" ">
<polygon fill="white" stroke="black" points="523.5,-441 523.5,-482 660.5,-482 660.5,-441 523.5,-441"/>
<text text-anchor="start" x="531.5" y="-470" font-family="Helvetica,sans-Serif" font-size="10.00">include/network_butcher</text>
<text text-anchor="start" x="531.5" y="-459" font-family="Helvetica,sans-Serif" font-size="10.00">/IO_Interaction/weight</text>
<text text-anchor="middle" x="592" y="-448" font-family="Helvetica,sans-Serif" font-size="10.00">_importers.h</text>
</a>
</g>
</g>
<!-- Node19&#45;&gt;Node20 -->
<g id="edge27" class="edge">
<title>Node19&#45;&gt;Node20</title>
<path fill="none" stroke="midnightblue" d="M691.95,-519.34C670.24,-506.99 645.75,-493.06 626.44,-482.08"/>
<polygon fill="midnightblue" stroke="midnightblue" points="690.32,-522.44 700.75,-524.34 693.78,-516.35 690.32,-522.44"/>
</g>
<!-- Node21 -->
<g id="node21" class="node">
<title>Node21</title>
<g id="a_node21"><a xlink:href="block__aMLLibrary__weight__importer_8cpp.html" target="_top" xlink:title=" ">
<polygon fill="white" stroke="black" points="678.5,-435.5 678.5,-487.5 821.5,-487.5 821.5,-435.5 678.5,-435.5"/>
<text text-anchor="start" x="686.5" y="-475.5" font-family="Helvetica,sans-Serif" font-size="10.00">src/IO_Interaction</text>
<text text-anchor="start" x="686.5" y="-464.5" font-family="Helvetica,sans-Serif" font-size="10.00">/Weight_Importer_Helpers</text>
<text text-anchor="start" x="686.5" y="-453.5" font-family="Helvetica,sans-Serif" font-size="10.00">/block_aMLLibrary_weight</text>
<text text-anchor="middle" x="750" y="-442.5" font-family="Helvetica,sans-Serif" font-size="10.00">_importer.cpp</text>
</a>
</g>
</g>
<!-- Node19&#45;&gt;Node21 -->
<g id="edge31" class="edge">
<title>Node19&#45;&gt;Node21</title>
<path fill="none" stroke="midnightblue" d="M747.03,-514.19C747.54,-505.28 748.08,-495.9 748.56,-487.61"/>
<polygon fill="midnightblue" stroke="midnightblue" points="743.53,-514.15 746.45,-524.34 750.51,-514.55 743.53,-514.15"/>
</g>
<!-- Node20&#45;&gt;Node5 -->
<g id="edge28" class="edge">
<title>Node20&#45;&gt;Node5</title>
<path fill="none" stroke="midnightblue" d="M593.89,-430.54C593.71,-407.94 589.86,-377.44 573,-357 557.77,-338.54 534.9,-326.8 512.62,-319.34"/>
<polygon fill="midnightblue" stroke="midnightblue" points="590.39,-430.56 593.73,-440.61 597.39,-430.67 590.39,-430.56"/>
</g>
<!-- Node20&#45;&gt;Node7 -->
<g id="edge30" class="edge">
<title>Node20&#45;&gt;Node7</title>
<path fill="none" stroke="midnightblue" d="M599.08,-430.87C602.73,-409.53 604.63,-380.48 595,-357 555.81,-261.46 442.59,-197.02 386.82,-170.14"/>
<polygon fill="midnightblue" stroke="midnightblue" points="595.59,-430.48 597.13,-440.97 602.47,-431.81 595.59,-430.48"/>
</g>
<!-- Node20&#45;&gt;Node16 -->
<g id="edge29" class="edge">
<title>Node20&#45;&gt;Node16</title>
<path fill="none" stroke="midnightblue" d="M513.48,-439.17C467.17,-426.59 409,-410.79 363.9,-398.53"/>
<polygon fill="midnightblue" stroke="midnightblue" points="512.61,-442.56 523.17,-441.8 514.44,-435.8 512.61,-442.56"/>
</g>
<!-- Node22&#45;&gt;Node19 -->
<g id="edge33" class="edge">
<title>Node22&#45;&gt;Node19</title>
<path fill="none" stroke="midnightblue" d="M618.12,-609.29C641.45,-598.67 667.6,-586.76 690.07,-576.52"/>
<polygon fill="midnightblue" stroke="midnightblue" points="616.64,-606.12 608.99,-613.45 619.54,-612.49 616.64,-606.12"/>
</g>
<!-- Node22&#45;&gt;Node20 -->
<g id="edge34" class="edge">
<title>Node22&#45;&gt;Node20</title>
<path fill="none" stroke="midnightblue" d="M593.63,-606.22C601.51,-597.63 608.69,-587.72 613,-577 625.74,-545.31 612.51,-505.56 602.04,-482.2"/>
<polygon fill="midnightblue" stroke="midnightblue" points="591.07,-603.82 586.56,-613.41 596.07,-608.73 591.07,-603.82"/>
</g>
<!-- Node23 -->
<g id="node23" class="node">
<title>Node23</title>
<g id="a_node23"><a xlink:href="csv__weight__importer_8cpp.html" target="_top" xlink:title=" ">
<polygon fill="white" stroke="black" points="460.5,-530 460.5,-571 603.5,-571 603.5,-530 460.5,-530"/>
<text text-anchor="start" x="468.5" y="-559" font-family="Helvetica,sans-Serif" font-size="10.00">src/IO_Interaction</text>
<text text-anchor="start" x="468.5" y="-548" font-family="Helvetica,sans-Serif" font-size="10.00">/Weight_Importer_Helpers</text>
<text text-anchor="middle" x="532" y="-537" font-family="Helvetica,sans-Serif" font-size="10.00">/csv_weight_importer.cpp</text>
</a>
</g>
</g>
<!-- Node22&#45;&gt;Node23 -->
<g id="edge35" class="edge">
<title>Node22&#45;&gt;Node23</title>
<path fill="none" stroke="midnightblue" d="M545.15,-603.49C542.36,-592.45 539.37,-580.65 536.95,-571.08"/>
<polygon fill="midnightblue" stroke="midnightblue" points="541.79,-604.5 547.64,-613.34 548.58,-602.78 541.79,-604.5"/>
</g>
<!-- Node24&#45;&gt;Node5 -->
<g id="edge38" class="edge">
<title>Node24&#45;&gt;Node5</title>
<path fill="none" stroke="midnightblue" d="M245.94,-783.21C224.37,-752.72 190,-695.52 190,-640.5 190,-640.5 190,-640.5 190,-460.5 190,-413.81 175.63,-390.65 208,-357 230.77,-333.34 314.13,-319.72 375.35,-312.72"/>
<polygon fill="midnightblue" stroke="midnightblue" points="243.2,-785.39 251.91,-791.42 248.87,-781.28 243.2,-785.39"/>
</g>
<!-- Node24&#45;&gt;Node6 -->
<g id="edge40" class="edge">
<title>Node24&#45;&gt;Node6</title>
<path fill="none" stroke="midnightblue" d="M231.08,-785.37C219.8,-777.05 207.76,-766.62 199,-755 165.88,-711.08 152,-695.51 152,-640.5 152,-640.5 152,-640.5 152,-377 152,-311.17 223.38,-273.49 282.91,-253.52"/>
<polygon fill="midnightblue" stroke="midnightblue" points="229.3,-788.4 239.49,-791.31 233.34,-782.68 229.3,-788.4"/>
</g>
<!-- Node24&#45;&gt;Node15 -->
<g id="edge39" class="edge">
<title>Node24&#45;&gt;Node15</title>
<path fill="none" stroke="midnightblue" d="M267.49,-781.59C274.06,-746.66 286.06,-682.75 291.36,-654.53"/>
<polygon fill="midnightblue" stroke="midnightblue" points="264.05,-780.96 265.64,-791.43 270.93,-782.25 264.05,-780.96"/>
</g>
<!-- Node24&#45;&gt;Node18 -->
<g id="edge41" class="edge">
<title>Node24&#45;&gt;Node18</title>
<path fill="none" stroke="midnightblue" d="M323.12,-788.76C364.75,-777.17 420.36,-761.69 464.3,-749.46"/>
<polygon fill="midnightblue" stroke="midnightblue" points="322.09,-785.42 313.39,-791.47 323.96,-792.16 322.09,-785.42"/>
</g>
<!-- Node25&#45;&gt;Node4 -->
<g id="edge43" class="edge">
<title>Node25&#45;&gt;Node4</title>
<path fill="none" stroke="midnightblue" d="M501.03,-985.59C471.21,-958.44 419.95,-911.78 394.41,-888.52"/>
<polygon fill="midnightblue" stroke="midnightblue" points="498.73,-988.23 508.48,-992.37 503.44,-983.05 498.73,-988.23"/>
</g>
<!-- Node26 -->
<g id="node26" class="node">
<title>Node26</title>
<g id="a_node26"><a xlink:href="wgraph_8h.html" target="_top" xlink:title=" ">
<polygon fill="white" stroke="black" points="483.5,-925.5 483.5,-955.5 620.5,-955.5 620.5,-925.5 483.5,-925.5"/>
<text text-anchor="start" x="491.5" y="-943.5" font-family="Helvetica,sans-Serif" font-size="10.00">include/network_butcher</text>
<text text-anchor="middle" x="552" y="-932.5" font-family="Helvetica,sans-Serif" font-size="10.00">/Network/wgraph.h</text>
</a>
</g>
</g>
<!-- Node25&#45;&gt;Node26 -->
<g id="edge44" class="edge">
<title>Node25&#45;&gt;Node26</title>
<path fill="none" stroke="midnightblue" d="M534.13,-982.99C538.08,-973.8 542.49,-963.58 545.94,-955.58"/>
<polygon fill="midnightblue" stroke="midnightblue" points="530.82,-981.83 530.08,-992.4 537.25,-984.6 530.82,-981.83"/>
</g>
<!-- Node26&#45;&gt;Node4 -->
<g id="edge50" class="edge">
<title>Node26&#45;&gt;Node4</title>
<path fill="none" stroke="midnightblue" d="M504.94,-921.82C477.13,-911.37 442.41,-898.32 416.47,-888.58"/>
<polygon fill="midnightblue" stroke="midnightblue" points="503.87,-925.16 514.46,-925.4 506.33,-918.6 503.87,-925.16"/>
</g>
<!-- Node27 -->
<g id="node27" class="node">
<title>Node27</title>
<g id="a_node27"><a xlink:href="computer__memory_8h.html" target="_top" xlink:title=" ">
<polygon fill="white" stroke="black" points="625.5,-713.5 625.5,-743.5 796.5,-743.5 796.5,-713.5 625.5,-713.5"/>
<text text-anchor="start" x="633.5" y="-731.5" font-family="Helvetica,sans-Serif" font-size="10.00">include/network_butcher</text>
<text text-anchor="middle" x="711" y="-720.5" font-family="Helvetica,sans-Serif" font-size="10.00">/Computer/computer_memory.h</text>
</a>
</g>
</g>
<!-- Node26&#45;&gt;Node27 -->
<g id="edge45" class="edge">
<title>Node26&#45;&gt;Node27</title>
<path fill="none" stroke="midnightblue" d="M568.89,-917.2C601.72,-873.83 673.32,-779.27 700.37,-743.54"/>
<polygon fill="midnightblue" stroke="midnightblue" points="565.93,-915.31 562.68,-925.4 571.51,-919.54 565.93,-915.31"/>
</g>
<!-- Node27&#45;&gt;Node5 -->
<g id="edge46" class="edge">
<title>Node27&#45;&gt;Node5</title>
<path fill="none" stroke="midnightblue" d="M716.89,-703.5C724.19,-678.19 738.83,-638.52 764,-613 789.96,-586.67 819.31,-608.29 839,-577 851.5,-557.13 839.3,-445.48 831,-435 754.07,-337.89 601.47,-313.5 512.61,-307.79"/>
<polygon fill="midnightblue" stroke="midnightblue" points="713.45,-702.82 714.21,-713.39 720.21,-704.65 713.45,-702.82"/>
</g>
<!-- Node27&#45;&gt;Node9 -->
<g id="edge49" class="edge">
<title>Node27&#45;&gt;Node9</title>
<path fill="none" stroke="midnightblue" d="M736.96,-706.45C768.74,-679.46 822.35,-629.8 855,-577 904.17,-497.49 926,-472.49 926,-379 926,-379 926,-379 926,-154 926,-44.01 765.82,-20.72 670.71,-16.58"/>
<polygon fill="midnightblue" stroke="midnightblue" points="734.41,-704.02 728.99,-713.13 738.9,-709.39 734.41,-704.02"/>
</g>
<!-- Node27&#45;&gt;Node15 -->
<g id="edge47" class="edge">
<title>Node27&#45;&gt;Node15</title>
<path fill="none" stroke="midnightblue" d="M651.92,-710.73C640.38,-707.67 628.34,-704.61 617,-702 532.87,-682.61 435.4,-664.66 369.72,-653.22"/>
<polygon fill="midnightblue" stroke="midnightblue" points="651.34,-714.2 661.91,-713.42 653.16,-707.44 651.34,-714.2"/>
</g>
<!-- Node27&#45;&gt;Node19 -->
<g id="edge48" class="edge">
<title>Node27&#45;&gt;Node19</title>
<path fill="none" stroke="midnightblue" d="M712.98,-703.22C715.16,-679.9 719.28,-643.77 726,-613 728.65,-600.88 732.57,-587.71 736.17,-576.68"/>
<polygon fill="midnightblue" stroke="midnightblue" points="709.48,-702.99 712.08,-713.27 716.46,-703.61 709.48,-702.99"/>
</g>
<!-- Node28&#45;&gt;Node3 -->
<g id="edge52" class="edge">
<title>Node28&#45;&gt;Node3</title>
<path fill="none" stroke="midnightblue" d="M529.66,-1116.4C528.41,-1107.37 527.03,-1097.41 525.95,-1089.58"/>
<polygon fill="midnightblue" stroke="midnightblue" points="526.21,-1116.97 531.05,-1126.4 533.14,-1116.01 526.21,-1116.97"/>
</g>
<!-- Node29&#45;&gt;Node1 -->
<g id="edge61" class="edge">
<title>Node29&#45;&gt;Node1</title>
<path fill="none" stroke="midnightblue" d="M859.63,-827.89C829.55,-850.7 785,-890.9 785,-939.5 785,-1142.5 785,-1142.5 785,-1142.5 785,-1185.35 785,-1236.03 781.49,-1260.24"/>
<polygon fill="midnightblue" stroke="midnightblue" points="862.1,-830.41 868.05,-821.65 857.93,-824.79 862.1,-830.41"/>
</g>
<!-- Node29&#45;&gt;Node5 -->
<g id="edge54" class="edge">
<title>Node29&#45;&gt;Node5</title>
<path fill="none" stroke="midnightblue" d="M927.95,-786.48C941.93,-778.44 956.58,-767.9 967,-755 1007.64,-704.66 1021.09,-673.81 999,-613 963.77,-516.03 918.91,-511.79 850,-435 817.88,-399.21 817.7,-379.13 775,-357 730.55,-333.96 596.06,-319.06 512.83,-311.78"/>
<polygon fill="midnightblue" stroke="midnightblue" points="926.01,-783.55 918.91,-791.41 929.36,-789.69 926.01,-783.55"/>
</g>
<!-- Node29&#45;&gt;Node9 -->
<g id="edge60" class="edge">
<title>Node29&#45;&gt;Node9</title>
<path fill="none" stroke="midnightblue" d="M944.83,-787.72C963.48,-779.93 983.09,-769.25 998,-755 1039.24,-715.59 1056,-697.55 1056,-640.5 1056,-640.5 1056,-640.5 1056,-154 1056,-74.53 797.96,-36.73 670.95,-22.94"/>
<polygon fill="midnightblue" stroke="midnightblue" points="943.5,-784.48 935.49,-791.42 946.07,-790.99 943.5,-784.48"/>
</g>
<!-- Node29&#45;&gt;Node27 -->
<g id="edge55" class="edge">
<title>Node29&#45;&gt;Node27</title>
<path fill="none" stroke="midnightblue" d="M844.26,-787.37C813.32,-773.94 771.76,-755.89 743.33,-743.54"/>
<polygon fill="midnightblue" stroke="midnightblue" points="842.93,-790.61 853.49,-791.38 845.72,-784.19 842.93,-790.61"/>
</g>
<!-- Node30 -->
<g id="node30" class="node">
<title>Node30</title>
<g id="a_node30"><a xlink:href="weight__importer__utils_8h.html" target="_top" xlink:title=" ">
<polygon fill="white" stroke="black" points="814.5,-702.5 814.5,-754.5 957.5,-754.5 957.5,-702.5 814.5,-702.5"/>
<text text-anchor="start" x="822.5" y="-742.5" font-family="Helvetica,sans-Serif" font-size="10.00">include/network_butcher</text>
<text text-anchor="start" x="822.5" y="-731.5" font-family="Helvetica,sans-Serif" font-size="10.00">/IO_Interaction/Weight</text>
<text text-anchor="start" x="822.5" y="-720.5" font-family="Helvetica,sans-Serif" font-size="10.00">_Importer_Helpers/weight</text>
<text text-anchor="middle" x="886" y="-709.5" font-family="Helvetica,sans-Serif" font-size="10.00">_importer_utils.h</text>
</a>
</g>
</g>
<!-- Node29&#45;&gt;Node30 -->
<g id="edge56" class="edge">
<title>Node29&#45;&gt;Node30</title>
<path fill="none" stroke="midnightblue" d="M886,-781.14C886,-772.63 886,-763.07 886,-754.5"/>
<polygon fill="midnightblue" stroke="midnightblue" points="882.5,-781.2 886,-791.2 889.5,-781.21 882.5,-781.2"/>
</g>
<!-- Node32 -->
<g id="node32" class="node">
<title>Node32</title>
<g id="a_node32"><a xlink:href="utilities_8cpp.html" target="_top" xlink:title=" ">
<polygon fill="white" stroke="black" points="1084.5,-719 1084.5,-738 1175.5,-738 1175.5,-719 1084.5,-719"/>
<text text-anchor="middle" x="1130" y="-726" font-family="Helvetica,sans-Serif" font-size="10.00">src/utilities.cpp</text>
</a>
</g>
</g>
<!-- Node29&#45;&gt;Node32 -->
<g id="edge62" class="edge">
<title>Node29&#45;&gt;Node32</title>
<path fill="none" stroke="midnightblue" d="M955.1,-788.88C989.91,-779.91 1032.56,-768.03 1070,-755 1084.22,-750.05 1099.86,-743.36 1111.6,-738.08"/>
<polygon fill="midnightblue" stroke="midnightblue" points="953.86,-785.58 945.04,-791.44 955.59,-792.36 953.86,-785.58"/>
</g>
<!-- Node30&#45;&gt;Node19 -->
<g id="edge57" class="edge">
<title>Node30&#45;&gt;Node19</title>
<path fill="none" stroke="midnightblue" d="M858.48,-694.64C850.83,-685.41 842.55,-675.35 835,-666 810.38,-635.51 782.58,-599.97 764.48,-576.67"/>
<polygon fill="midnightblue" stroke="midnightblue" points="855.92,-697.04 865.01,-702.49 861.31,-692.56 855.92,-697.04"/>
</g>
<!-- Node30&#45;&gt;Node22 -->
<g id="edge58" class="edge">
<title>Node30&#45;&gt;Node22</title>
<path fill="none" stroke="midnightblue" d="M804.3,-701.58C743.17,-684.59 683.02,-669.96 636.09,-659.02"/>
<polygon fill="midnightblue" stroke="midnightblue" points="803.54,-705 814.11,-704.33 805.43,-698.26 803.54,-705"/>
</g>
<!-- Node31 -->
<g id="node31" class="node">
<title>Node31</title>
<g id="a_node31"><a xlink:href="weight__importer__utils_8cpp.html" target="_top" xlink:title=" ">
<polygon fill="white" stroke="black" points="844,-619 844,-660 990,-660 990,-619 844,-619"/>
<text text-anchor="start" x="852" y="-648" font-family="Helvetica,sans-Serif" font-size="10.00">src/IO_Interaction</text>
<text text-anchor="start" x="852" y="-637" font-family="Helvetica,sans-Serif" font-size="10.00">/Weight_Importer_Helpers</text>
<text text-anchor="middle" x="917" y="-626" font-family="Helvetica,sans-Serif" font-size="10.00">/weight_importer_utils.cpp</text>
</a>
</g>
</g>
<!-- Node30&#45;&gt;Node31 -->
<g id="edge59" class="edge">
<title>Node30&#45;&gt;Node31</title>
<path fill="none" stroke="midnightblue" d="M898.35,-692.83C902.32,-681.69 906.58,-669.74 910.02,-660.08"/>
<polygon fill="midnightblue" stroke="midnightblue" points="895.03,-691.74 894.97,-702.34 901.62,-694.09 895.03,-691.74"/>
</g>
<!-- Node33&#45;&gt;Node3 -->
<g id="edge64" class="edge">
<title>Node33&#45;&gt;Node3</title>
<path fill="none" stroke="midnightblue" d="M450.02,-1183.15C447.17,-1166.21 446.07,-1143.6 455,-1126 463.06,-1110.11 478.72,-1098.02 493.09,-1089.66"/>
<polygon fill="midnightblue" stroke="midnightblue" points="446.66,-1184.23 452.05,-1193.35 453.53,-1182.86 446.66,-1184.23"/>
</g>
<!-- Node33&#45;&gt;Node4 -->
<g id="edge65" class="edge">
<title>Node33&#45;&gt;Node4</title>
<path fill="none" stroke="midnightblue" d="M433.78,-1185.97C411.04,-1161.52 379,-1119.31 379,-1075.5 379,-1075.5 379,-1075.5 379,-1006.5 379,-963.65 379,-912.97 379,-888.76"/>
<polygon fill="midnightblue" stroke="midnightblue" points="431.34,-1188.48 440.79,-1193.26 436.38,-1183.63 431.34,-1188.48"/>
</g>
<!-- Node33&#45;&gt;Node28 -->
<g id="edge66" class="edge">
<title>Node33&#45;&gt;Node28</title>
<path fill="none" stroke="midnightblue" d="M480.42,-1186.88C492.12,-1177.01 505.84,-1165.43 516.32,-1156.58"/>
<polygon fill="midnightblue" stroke="midnightblue" points="478.09,-1184.27 472.71,-1193.4 482.61,-1189.62 478.09,-1184.27"/>
</g>
</g>
</svg>
