<?xml version="1.0" encoding="UTF-8" standalone="no"?>
<!DOCTYPE svg PUBLIC "-//W3C//DTD SVG 1.1//EN"
 "http://www.w3.org/Graphics/SVG/1.1/DTD/svg11.dtd">
<!-- Generated by graphviz version 2.43.0 (0)
 -->
<!-- Title: include/network_butcher/Types/dense_tensor.h Pages: 1 -->
<svg width="1184pt" height="1299pt"
 viewBox="0.00 0.00 1183.50 1299.00" xmlns="http://www.w3.org/2000/svg" xmlns:xlink="http://www.w3.org/1999/xlink">
<g id="graph0" class="graph" transform="scale(1 1) rotate(0) translate(4 1295)">
<title>include/network_butcher/Types/dense_tensor.h</title>
<polygon fill="white" stroke="transparent" points="-4,4 -4,-1295 1179.5,-1295 1179.5,4 -4,4"/>
<!-- Node1 -->
<g id="node1" class="node">
<title>Node1</title>
<g id="a_node1"><a xlink:title=" ">
<polygon fill="#bfbfbf" stroke="black" points="693.5,-1260.5 693.5,-1290.5 830.5,-1290.5 830.5,-1260.5 693.5,-1260.5"/>
<text text-anchor="start" x="701.5" y="-1278.5" font-family="Helvetica,sans-Serif" font-size="10.00">include/network_butcher</text>
<text text-anchor="middle" x="762" y="-1267.5" font-family="Helvetica,sans-Serif" font-size="10.00">/Types/dense_tensor.h</text>
</a>
</g>
</g>
<!-- Node2 -->
<g id="node2" class="node">
<title>Node2</title>
<g id="a_node2"><a xlink:href="node_8h.html" target="_top" xlink:title=" ">
<polygon fill="white" stroke="black" points="557.5,-1193.5 557.5,-1223.5 694.5,-1223.5 694.5,-1193.5 557.5,-1193.5"/>
<text text-anchor="start" x="565.5" y="-1211.5" font-family="Helvetica,sans-Serif" font-size="10.00">include/network_butcher</text>
<text text-anchor="middle" x="626" y="-1200.5" font-family="Helvetica,sans-Serif" font-size="10.00">/Network/node.h</text>
</a>
</g>
</g>
<!-- Node1&#45;&gt;Node2 -->
<g id="edge1" class="edge">
<title>Node1&#45;&gt;Node2</title>
<path fill="none" stroke="midnightblue" d="M723.28,-1255.99C701.72,-1245.69 675.31,-1233.07 655.45,-1223.58"/>
<polygon fill="midnightblue" stroke="midnightblue" points="721.96,-1259.24 732.49,-1260.4 724.98,-1252.93 721.96,-1259.24"/>
</g>
<!-- Node29 -->
<g id="node29" class="node">
<title>Node29</title>
<g id="a_node29"><a xlink:href="content_8h.html" target="_top" xlink:title=" ">
<polygon fill="white" stroke="black" points="383.5,-1193.5 383.5,-1223.5 520.5,-1223.5 520.5,-1193.5 383.5,-1193.5"/>
<text text-anchor="start" x="391.5" y="-1211.5" font-family="Helvetica,sans-Serif" font-size="10.00">include/network_butcher</text>
<text text-anchor="middle" x="452" y="-1200.5" font-family="Helvetica,sans-Serif" font-size="10.00">/Types/content.h</text>
</a>
</g>
</g>
<!-- Node1&#45;&gt;Node29 -->
<g id="edge53" class="edge">
<title>Node1&#45;&gt;Node29</title>
<path fill="none" stroke="midnightblue" d="M685.13,-1258.38C634.14,-1247.69 567.87,-1233.8 519.03,-1223.55"/>
<polygon fill="midnightblue" stroke="midnightblue" points="684.61,-1261.85 695.12,-1260.48 686.05,-1255 684.61,-1261.85"/>
</g>
<!-- Node30 -->
<g id="node30" class="node">
<title>Node30</title>
<g id="a_node30"><a xlink:href="utilities_8h.html" target="_top" xlink:title=" ">
<polygon fill="white" stroke="black" points="817.5,-791.5 817.5,-821.5 954.5,-821.5 954.5,-791.5 817.5,-791.5"/>
<text text-anchor="start" x="825.5" y="-809.5" font-family="Helvetica,sans-Serif" font-size="10.00">include/network_butcher</text>
<text text-anchor="middle" x="886" y="-798.5" font-family="Helvetica,sans-Serif" font-size="10.00">/utilities.h</text>
</a>
</g>
</g>
<!-- Node1&#45;&gt;Node30 -->
<g id="edge57" class="edge">
<title>Node1&#45;&gt;Node30</title>
<path fill="none" stroke="midnightblue" d="M755.35,-1249.99C753,-1223.49 753,-1180 753,-1142.5 753,-1142.5 753,-1142.5 753,-939.5 753,-883.85 812.28,-842.05 851.84,-821.55"/>
<polygon fill="midnightblue" stroke="midnightblue" points="751.91,-1250.7 756.51,-1260.24 758.86,-1249.91 751.91,-1250.7"/>
</g>
<!-- Node34 -->
<g id="node34" class="node">
<title>Node34</title>
<g id="a_node34"><a xlink:href="dense__tensor_8cpp.html" target="_top" xlink:title=" ">
<polygon fill="white" stroke="black" points="798.5,-1199 798.5,-1218 947.5,-1218 947.5,-1199 798.5,-1199"/>
<text text-anchor="middle" x="873" y="-1206" font-family="Helvetica,sans-Serif" font-size="10.00">src/Types/dense_tensor.cpp</text>
</a>
</g>
</g>
<!-- Node1&#45;&gt;Node34 -->
<g id="edge67" class="edge">
<title>Node1&#45;&gt;Node34</title>
<path fill="none" stroke="midnightblue" d="M794.78,-1255.31C815.92,-1242.93 842.38,-1227.43 858.47,-1218.01"/>
<polygon fill="midnightblue" stroke="midnightblue" points="792.95,-1252.32 786.09,-1260.4 796.48,-1258.36 792.95,-1252.32"/>
</g>
<!-- Node3 -->
<g id="node3" class="node">
<title>Node3</title>
<g id="a_node3"><a xlink:href="node__traits_8h.html" target="_top" xlink:title=" ">
<polygon fill="white" stroke="black" points="460.5,-1126.5 460.5,-1156.5 597.5,-1156.5 597.5,-1126.5 460.5,-1126.5"/>
<text text-anchor="start" x="468.5" y="-1144.5" font-family="Helvetica,sans-Serif" font-size="10.00">include/network_butcher</text>
<text text-anchor="middle" x="529" y="-1133.5" font-family="Helvetica,sans-Serif" font-size="10.00">/Network/node_traits.h</text>
</a>
</g>
</g>
<!-- Node2&#45;&gt;Node3 -->
<g id="edge2" class="edge">
<title>Node2&#45;&gt;Node3</title>
<path fill="none" stroke="midnightblue" d="M596.5,-1187.73C581.49,-1177.68 563.6,-1165.68 550.01,-1156.58"/>
<polygon fill="midnightblue" stroke="midnightblue" points="594.7,-1190.74 604.95,-1193.4 598.59,-1184.92 594.7,-1190.74"/>
</g>
<!-- Node4 -->
<g id="node4" class="node">
<title>Node4</title>
<g id="a_node4"><a xlink:href="graph_8h.html" target="_top" xlink:title=" ">
<polygon fill="white" stroke="black" points="460.5,-1059.5 460.5,-1089.5 597.5,-1089.5 597.5,-1059.5 460.5,-1059.5"/>
<text text-anchor="start" x="468.5" y="-1077.5" font-family="Helvetica,sans-Serif" font-size="10.00">include/network_butcher</text>
<text text-anchor="middle" x="529" y="-1066.5" font-family="Helvetica,sans-Serif" font-size="10.00">/Network/graph.h</text>
</a>
</g>
</g>
<!-- Node2&#45;&gt;Node4 -->
<g id="edge52" class="edge">
<title>Node2&#45;&gt;Node4</title>
<path fill="none" stroke="midnightblue" d="M625.05,-1182.82C623.3,-1165.54 618.72,-1142.67 607,-1126 595.87,-1110.16 578.03,-1098.08 562.23,-1089.7"/>
<polygon fill="midnightblue" stroke="midnightblue" points="621.59,-1183.53 625.83,-1193.23 628.57,-1183 621.59,-1183.53"/>
</g>
<!-- Node3&#45;&gt;Node4 -->
<g id="edge3" class="edge">
<title>Node3&#45;&gt;Node4</title>
<path fill="none" stroke="midnightblue" d="M529,-1116.11C529,-1107.15 529,-1097.32 529,-1089.58"/>
<polygon fill="midnightblue" stroke="midnightblue" points="525.5,-1116.4 529,-1126.4 532.5,-1116.4 525.5,-1116.4"/>
</g>
<!-- Node5 -->
<g id="node5" class="node">
<title>Node5</title>
<g id="a_node5"><a xlink:href="graph__traits_8h.html" target="_top" xlink:title=" ">
<polygon fill="white" stroke="black" points="306.5,-858.5 306.5,-888.5 443.5,-888.5 443.5,-858.5 306.5,-858.5"/>
<text text-anchor="start" x="314.5" y="-876.5" font-family="Helvetica,sans-Serif" font-size="10.00">include/network_butcher</text>
<text text-anchor="middle" x="375" y="-865.5" font-family="Helvetica,sans-Serif" font-size="10.00">/Network/graph_traits.h</text>
</a>
</g>
</g>
<!-- Node4&#45;&gt;Node5 -->
<g id="edge4" class="edge">
<title>Node4&#45;&gt;Node5</title>
<path fill="none" stroke="midnightblue" d="M490.8,-1054.25C477.04,-1045.99 462.18,-1035.37 451,-1023 413.14,-981.09 388.86,-916.87 379.44,-888.64"/>
<polygon fill="midnightblue" stroke="midnightblue" points="489.21,-1057.37 499.63,-1059.33 492.71,-1051.31 489.21,-1057.37"/>
</g>
<!-- Node26 -->
<g id="node26" class="node">
<title>Node26</title>
<g id="a_node26"><a xlink:href="mwgraph_8h.html" target="_top" xlink:title=" ">
<polygon fill="white" stroke="black" points="460.5,-992.5 460.5,-1022.5 597.5,-1022.5 597.5,-992.5 460.5,-992.5"/>
<text text-anchor="start" x="468.5" y="-1010.5" font-family="Helvetica,sans-Serif" font-size="10.00">include/network_butcher</text>
<text text-anchor="middle" x="529" y="-999.5" font-family="Helvetica,sans-Serif" font-size="10.00">/Network/mwgraph.h</text>
</a>
</g>
</g>
<!-- Node4&#45;&gt;Node26 -->
<g id="edge43" class="edge">
<title>Node4&#45;&gt;Node26</title>
<path fill="none" stroke="midnightblue" d="M529,-1049.11C529,-1040.15 529,-1030.32 529,-1022.58"/>
<polygon fill="midnightblue" stroke="midnightblue" points="525.5,-1049.4 529,-1059.4 532.5,-1049.4 525.5,-1049.4"/>
</g>
<!-- Node6 -->
<g id="node6" class="node">
<title>Node6</title>
<g id="a_node6"><a xlink:href="butcher_8h.html" target="_top" xlink:title=" ">
<polygon fill="white" stroke="black" points="374.5,-290.5 374.5,-320.5 511.5,-320.5 511.5,-290.5 374.5,-290.5"/>
<text text-anchor="start" x="382.5" y="-308.5" font-family="Helvetica,sans-Serif" font-size="10.00">include/network_butcher</text>
<text text-anchor="middle" x="443" y="-297.5" font-family="Helvetica,sans-Serif" font-size="10.00">/Butcher/butcher.h</text>
</a>
</g>
</g>
<!-- Node5&#45;&gt;Node6 -->
<g id="edge5" class="edge">
<title>Node5&#45;&gt;Node6</title>
<path fill="none" stroke="midnightblue" d="M375.32,-848.17C376.72,-759 383.62,-450.38 413,-357 417.16,-343.77 425.37,-330.34 432.15,-320.67"/>
<polygon fill="midnightblue" stroke="midnightblue" points="371.82,-848.33 375.17,-858.38 378.82,-848.43 371.82,-848.33"/>
</g>
<!-- Node7 -->
<g id="node7" class="node">
<title>Node7</title>
<g id="a_node7"><a xlink:href="onnx__importer__helpers_8h.html" target="_top" xlink:title=" ">
<polygon fill="white" stroke="black" points="255,-212.5 255,-253.5 417,-253.5 417,-212.5 255,-212.5"/>
<text text-anchor="start" x="263" y="-241.5" font-family="Helvetica,sans-Serif" font-size="10.00">include/network_butcher</text>
<text text-anchor="start" x="263" y="-230.5" font-family="Helvetica,sans-Serif" font-size="10.00">/IO_Interaction/onnx_importer</text>
<text text-anchor="middle" x="336" y="-219.5" font-family="Helvetica,sans-Serif" font-size="10.00">_helpers.h</text>
</a>
</g>
</g>
<!-- Node5&#45;&gt;Node7 -->
<g id="edge24" class="edge">
<title>Node5&#45;&gt;Node7</title>
<path fill="none" stroke="midnightblue" d="M296.36,-868.04C207.78,-858.26 76,-827.29 76,-729.5 76,-729.5 76,-729.5 76,-377 76,-319.75 121.73,-319.16 171,-290 197.29,-274.44 228.52,-262.44 256.7,-253.62"/>
<polygon fill="midnightblue" stroke="midnightblue" points="296.1,-871.53 306.4,-869.08 296.82,-864.57 296.1,-871.53"/>
</g>
<!-- Node10 -->
<g id="node10" class="node">
<title>Node10</title>
<g id="a_node10"><a xlink:href="network__butcher_8h.html" target="_top" xlink:title=" ">
<polygon fill="white" stroke="black" points="507.5,-0.5 507.5,-30.5 644.5,-30.5 644.5,-0.5 507.5,-0.5"/>
<text text-anchor="start" x="515.5" y="-18.5" font-family="Helvetica,sans-Serif" font-size="10.00">include/network_butcher</text>
<text text-anchor="middle" x="576" y="-7.5" font-family="Helvetica,sans-Serif" font-size="10.00">/network_butcher.h</text>
</a>
</g>
</g>
<!-- Node5&#45;&gt;Node10 -->
<g id="edge37" class="edge">
<title>Node5&#45;&gt;Node10</title>
<path fill="none" stroke="midnightblue" d="M296,-867.36C215.12,-860.8 96.06,-847.17 58,-822 17.53,-795.23 0,-778.02 0,-729.5 0,-729.5 0,-729.5 0,-154 0,-35.93 136.43,-95.51 251,-67 338.27,-45.28 441.18,-31.17 507.44,-23.53"/>
<polygon fill="midnightblue" stroke="midnightblue" points="295.91,-870.86 306.15,-868.16 296.46,-863.88 295.91,-870.86"/>
</g>
<!-- Node14 -->
<g id="node14" class="node">
<title>Node14</title>
<g id="a_node14"><a xlink:href="onnx__model__reconstructor__helpers_8h.html" target="_top" xlink:title=" ">
<polygon fill="white" stroke="black" points="85.5,-212.5 85.5,-253.5 236.5,-253.5 236.5,-212.5 85.5,-212.5"/>
<text text-anchor="start" x="93.5" y="-241.5" font-family="Helvetica,sans-Serif" font-size="10.00">include/network_butcher</text>
<text text-anchor="start" x="93.5" y="-230.5" font-family="Helvetica,sans-Serif" font-size="10.00">/IO_Interaction/onnx_model</text>
<text text-anchor="middle" x="161" y="-219.5" font-family="Helvetica,sans-Serif" font-size="10.00">_reconstructor_helpers.h</text>
</a>
</g>
</g>
<!-- Node5&#45;&gt;Node14 -->
<g id="edge25" class="edge">
<title>Node5&#45;&gt;Node14</title>
<path fill="none" stroke="midnightblue" d="M296.35,-872.08C196.77,-866.92 38,-841.18 38,-729.5 38,-729.5 38,-729.5 38,-377 38,-321.99 90.97,-277.59 127.39,-253.57"/>
<polygon fill="midnightblue" stroke="midnightblue" points="296.25,-875.58 306.4,-872.54 296.57,-868.59 296.25,-875.58"/>
</g>
<!-- Node16 -->
<g id="node16" class="node">
<title>Node16</title>
<g id="a_node16"><a xlink:href="graph__constraint_8h.html" target="_top" xlink:title=" ">
<polygon fill="white" stroke="black" points="218.5,-624.5 218.5,-654.5 369.5,-654.5 369.5,-624.5 218.5,-624.5"/>
<text text-anchor="start" x="226.5" y="-642.5" font-family="Helvetica,sans-Serif" font-size="10.00">include/network_butcher</text>
<text text-anchor="middle" x="294" y="-631.5" font-family="Helvetica,sans-Serif" font-size="10.00">/Butcher/graph_constraint.h</text>
</a>
</g>
</g>
<!-- Node5&#45;&gt;Node16 -->
<g id="edge18" class="edge">
<title>Node5&#45;&gt;Node16</title>
<path fill="none" stroke="midnightblue" d="M366.72,-848.78C349.97,-800.8 312.5,-693.49 298.98,-654.77"/>
<polygon fill="midnightblue" stroke="midnightblue" points="363.45,-850.05 370.06,-858.34 370.06,-847.74 363.45,-850.05"/>
</g>
<!-- Node17 -->
<g id="node17" class="node">
<title>Node17</title>
<g id="a_node17"><a xlink:href="constrained__block__graph__builder_8h.html" target="_top" xlink:title=" ">
<polygon fill="white" stroke="black" points="217.5,-357.5 217.5,-398.5 366.5,-398.5 366.5,-357.5 217.5,-357.5"/>
<text text-anchor="start" x="225.5" y="-386.5" font-family="Helvetica,sans-Serif" font-size="10.00">include/network_butcher</text>
<text text-anchor="start" x="225.5" y="-375.5" font-family="Helvetica,sans-Serif" font-size="10.00">/Butcher/constrained_block</text>
<text text-anchor="middle" x="292" y="-364.5" font-family="Helvetica,sans-Serif" font-size="10.00">_graph_builder.h</text>
</a>
</g>
</g>
<!-- Node5&#45;&gt;Node17 -->
<g id="edge21" class="edge">
<title>Node5&#45;&gt;Node17</title>
<path fill="none" stroke="midnightblue" d="M296.26,-862.86C219.42,-848.53 114,-813.56 114,-729.5 114,-729.5 114,-729.5 114,-638.5 114,-532.51 216.22,-438.14 265.74,-398.64"/>
<polygon fill="midnightblue" stroke="midnightblue" points="295.97,-866.36 306.43,-864.67 297.19,-859.47 295.97,-866.36"/>
</g>
<!-- Node18 -->
<g id="node18" class="node">
<title>Node18</title>
<g id="a_node18"><a xlink:href="path__converter_8h.html" target="_top" xlink:title=" ">
<polygon fill="white" stroke="black" points="422,-363 422,-393 564,-393 564,-363 422,-363"/>
<text text-anchor="start" x="430" y="-381" font-family="Helvetica,sans-Serif" font-size="10.00">include/network_butcher</text>
<text text-anchor="middle" x="493" y="-370" font-family="Helvetica,sans-Serif" font-size="10.00">/Butcher/path_converter.h</text>
</a>
</g>
</g>
<!-- Node5&#45;&gt;Node18 -->
<g id="edge22" class="edge">
<title>Node5&#45;&gt;Node18</title>
<path fill="none" stroke="midnightblue" d="M394.87,-850.46C401.36,-842.1 407.94,-832.14 412,-822 461.7,-698.02 423.67,-654.75 451,-524 461.19,-475.26 479.39,-418.99 488.1,-393.22"/>
<polygon fill="midnightblue" stroke="midnightblue" points="392.13,-848.28 388.51,-858.23 397.55,-852.71 392.13,-848.28"/>
</g>
<!-- Node19 -->
<g id="node19" class="node">
<title>Node19</title>
<g id="a_node19"><a xlink:href="weight__importer_8h.html" target="_top" xlink:title=" ">
<polygon fill="white" stroke="black" points="464.5,-702.5 464.5,-754.5 607.5,-754.5 607.5,-702.5 464.5,-702.5"/>
<text text-anchor="start" x="472.5" y="-742.5" font-family="Helvetica,sans-Serif" font-size="10.00">include/network_butcher</text>
<text text-anchor="start" x="472.5" y="-731.5" font-family="Helvetica,sans-Serif" font-size="10.00">/IO_Interaction/Weight</text>
<text text-anchor="start" x="472.5" y="-720.5" font-family="Helvetica,sans-Serif" font-size="10.00">_Importer_Helpers/weight</text>
<text text-anchor="middle" x="536" y="-709.5" font-family="Helvetica,sans-Serif" font-size="10.00">_importer.h</text>
</a>
</g>
</g>
<!-- Node5&#45;&gt;Node19 -->
<g id="edge26" class="edge">
<title>Node5&#45;&gt;Node19</title>
<path fill="none" stroke="midnightblue" d="M407.58,-852.89C421.2,-844.1 436.88,-833.21 450,-822 474.34,-801.2 498.89,-774.04 515.49,-754.54"/>
<polygon fill="midnightblue" stroke="midnightblue" points="405.55,-850.03 398.97,-858.34 409.29,-855.94 405.55,-850.03"/>
</g>
<!-- Node25 -->
<g id="node25" class="node">
<title>Node25</title>
<g id="a_node25"><a xlink:href="parameters_8h.html" target="_top" xlink:title=" ">
<polygon fill="white" stroke="black" points="194.5,-791.5 194.5,-821.5 331.5,-821.5 331.5,-791.5 194.5,-791.5"/>
<text text-anchor="start" x="202.5" y="-809.5" font-family="Helvetica,sans-Serif" font-size="10.00">include/network_butcher</text>
<text text-anchor="middle" x="263" y="-798.5" font-family="Helvetica,sans-Serif" font-size="10.00">/Types/parameters.h</text>
</a>
</g>
</g>
<!-- Node5&#45;&gt;Node25 -->
<g id="edge38" class="edge">
<title>Node5&#45;&gt;Node25</title>
<path fill="none" stroke="midnightblue" d="M341.91,-853.3C324.38,-843.12 303.24,-830.85 287.25,-821.58"/>
<polygon fill="midnightblue" stroke="midnightblue" points="340.29,-856.4 350.7,-858.4 343.81,-850.35 340.29,-856.4"/>
</g>
<!-- Node6&#45;&gt;Node7 -->
<g id="edge6" class="edge">
<title>Node6&#45;&gt;Node7</title>
<path fill="none" stroke="midnightblue" d="M412.88,-284.65C398.18,-274.97 380.54,-263.35 365.87,-253.68"/>
<polygon fill="midnightblue" stroke="midnightblue" points="411.33,-287.82 421.6,-290.4 415.18,-281.98 411.33,-287.82"/>
</g>
<!-- Node6&#45;&gt;Node10 -->
<g id="edge17" class="edge">
<title>Node6&#45;&gt;Node10</title>
<path fill="none" stroke="midnightblue" d="M475.77,-284.59C508.42,-262.63 556.54,-223.97 577,-176 598.19,-126.33 586.52,-59.79 579.75,-30.89"/>
<polygon fill="midnightblue" stroke="midnightblue" points="473.46,-281.92 467.01,-290.33 477.29,-287.78 473.46,-281.92"/>
</g>
<!-- Node6&#45;&gt;Node14 -->
<g id="edge14" class="edge">
<title>Node6&#45;&gt;Node14</title>
<path fill="none" stroke="midnightblue" d="M377.1,-288.02C335.08,-277.52 280.5,-263.88 236.71,-252.93"/>
<polygon fill="midnightblue" stroke="midnightblue" points="376.4,-291.46 386.95,-290.49 378.1,-284.67 376.4,-291.46"/>
</g>
<!-- Node8 -->
<g id="node8" class="node">
<title>Node8</title>
<g id="a_node8"><a xlink:href="io__manager_8h.html" target="_top" xlink:title=" ">
<polygon fill="white" stroke="black" points="260.5,-140 260.5,-170 397.5,-170 397.5,-140 260.5,-140"/>
<text text-anchor="start" x="268.5" y="-158" font-family="Helvetica,sans-Serif" font-size="10.00">include/network_butcher</text>
<text text-anchor="middle" x="329" y="-147" font-family="Helvetica,sans-Serif" font-size="10.00">/io_manager.h</text>
</a>
</g>
</g>
<!-- Node7&#45;&gt;Node8 -->
<g id="edge7" class="edge">
<title>Node7&#45;&gt;Node8</title>
<path fill="none" stroke="midnightblue" d="M333.26,-202.28C332.25,-191.25 331.14,-179.25 330.31,-170.23"/>
<polygon fill="midnightblue" stroke="midnightblue" points="329.79,-202.79 334.2,-212.43 336.77,-202.15 329.79,-202.79"/>
</g>
<!-- Node13 -->
<g id="node13" class="node">
<title>Node13</title>
<g id="a_node13"><a xlink:href="onnx__importer__helpers_8cpp.html" target="_top" xlink:title=" ">
<polygon fill="white" stroke="black" points="416,-140 416,-170 568,-170 568,-140 416,-140"/>
<text text-anchor="start" x="424" y="-158" font-family="Helvetica,sans-Serif" font-size="10.00">src/IO_Interaction</text>
<text text-anchor="middle" x="492" y="-147" font-family="Helvetica,sans-Serif" font-size="10.00">/onnx_importer_helpers.cpp</text>
</a>
</g>
</g>
<!-- Node7&#45;&gt;Node13 -->
<g id="edge13" class="edge">
<title>Node7&#45;&gt;Node13</title>
<path fill="none" stroke="midnightblue" d="M385.32,-207.97C410.81,-195.55 441.04,-180.83 462.8,-170.23"/>
<polygon fill="midnightblue" stroke="midnightblue" points="383.63,-204.9 376.17,-212.43 386.7,-211.19 383.63,-204.9"/>
</g>
<!-- Node9 -->
<g id="node9" class="node">
<title>Node9</title>
<g id="a_node9"><a xlink:href="general__manager_8h.html" target="_top" xlink:title=" ">
<polygon fill="white" stroke="black" points="260.5,-67.5 260.5,-97.5 397.5,-97.5 397.5,-67.5 260.5,-67.5"/>
<text text-anchor="start" x="268.5" y="-85.5" font-family="Helvetica,sans-Serif" font-size="10.00">include/network_butcher</text>
<text text-anchor="middle" x="329" y="-74.5" font-family="Helvetica,sans-Serif" font-size="10.00">/general_manager.h</text>
</a>
</g>
</g>
<!-- Node8&#45;&gt;Node9 -->
<g id="edge8" class="edge">
<title>Node8&#45;&gt;Node9</title>
<path fill="none" stroke="midnightblue" d="M329,-129.73C329,-119.07 329,-106.91 329,-97.75"/>
<polygon fill="midnightblue" stroke="midnightblue" points="325.5,-129.73 329,-139.73 332.5,-129.73 325.5,-129.73"/>
</g>
<!-- Node8&#45;&gt;Node10 -->
<g id="edge11" class="edge">
<title>Node8&#45;&gt;Node10</title>
<path fill="none" stroke="midnightblue" d="M392.66,-137.44C452.42,-121.8 533.12,-100.38 536,-98 557.28,-80.46 568.16,-48.81 572.91,-30.55"/>
<polygon fill="midnightblue" stroke="midnightblue" points="391.68,-134.08 382.89,-140 393.45,-140.86 391.68,-134.08"/>
</g>
<!-- Node12 -->
<g id="node12" class="node">
<title>Node12</title>
<g id="a_node12"><a xlink:href="io__manager_8cpp.html" target="_top" xlink:title=" ">
<polygon fill="white" stroke="black" points="415.5,-73 415.5,-92 526.5,-92 526.5,-73 415.5,-73"/>
<text text-anchor="middle" x="471" y="-80" font-family="Helvetica,sans-Serif" font-size="10.00">src/io_manager.cpp</text>
</a>
</g>
</g>
<!-- Node8&#45;&gt;Node12 -->
<g id="edge12" class="edge">
<title>Node8&#45;&gt;Node12</title>
<path fill="none" stroke="midnightblue" d="M366.6,-135.33C394.87,-121.29 432.31,-102.71 453.81,-92.03"/>
<polygon fill="midnightblue" stroke="midnightblue" points="364.79,-132.32 357.39,-139.9 367.91,-138.59 364.79,-132.32"/>
</g>
<!-- Node9&#45;&gt;Node10 -->
<g id="edge9" class="edge">
<title>Node9&#45;&gt;Node10</title>
<path fill="none" stroke="midnightblue" d="M392.01,-64.92C432.32,-54.31 484.04,-40.7 522.38,-30.61"/>
<polygon fill="midnightblue" stroke="midnightblue" points="391.07,-61.55 382.29,-67.48 392.85,-68.32 391.07,-61.55"/>
</g>
<!-- Node11 -->
<g id="node11" class="node">
<title>Node11</title>
<g id="a_node11"><a xlink:href="general__manager_8cpp.html" target="_top" xlink:title=" ">
<polygon fill="white" stroke="black" points="259.5,-6 259.5,-25 398.5,-25 398.5,-6 259.5,-6"/>
<text text-anchor="middle" x="329" y="-13" font-family="Helvetica,sans-Serif" font-size="10.00">src/general_manager.cpp</text>
</a>
</g>
</g>
<!-- Node9&#45;&gt;Node11 -->
<g id="edge10" class="edge">
<title>Node9&#45;&gt;Node11</title>
<path fill="none" stroke="midnightblue" d="M329,-57.25C329,-46.02 329,-33.38 329,-25.19"/>
<polygon fill="midnightblue" stroke="midnightblue" points="325.5,-57.4 329,-67.4 332.5,-57.4 325.5,-57.4"/>
</g>
<!-- Node14&#45;&gt;Node8 -->
<g id="edge15" class="edge">
<title>Node14&#45;&gt;Node8</title>
<path fill="none" stroke="midnightblue" d="M213.43,-208.28C241.12,-195.76 274.17,-180.81 297.82,-170.11"/>
<polygon fill="midnightblue" stroke="midnightblue" points="211.93,-205.12 204.26,-212.43 214.82,-211.5 211.93,-205.12"/>
</g>
<!-- Node15 -->
<g id="node15" class="node">
<title>Node15</title>
<g id="a_node15"><a xlink:href="onnx__model__reconstructor__helpers_8cpp.html" target="_top" xlink:title=" ">
<polygon fill="white" stroke="black" points="86.5,-134.5 86.5,-175.5 235.5,-175.5 235.5,-134.5 86.5,-134.5"/>
<text text-anchor="start" x="94.5" y="-163.5" font-family="Helvetica,sans-Serif" font-size="10.00">src/IO_Interaction</text>
<text text-anchor="start" x="94.5" y="-152.5" font-family="Helvetica,sans-Serif" font-size="10.00">/onnx_model_reconstructor</text>
<text text-anchor="middle" x="161" y="-141.5" font-family="Helvetica,sans-Serif" font-size="10.00">_helpers.cpp</text>
</a>
</g>
</g>
<!-- Node14&#45;&gt;Node15 -->
<g id="edge16" class="edge">
<title>Node14&#45;&gt;Node15</title>
<path fill="none" stroke="midnightblue" d="M161,-202.3C161,-193.3 161,-183.65 161,-175.51"/>
<polygon fill="midnightblue" stroke="midnightblue" points="157.5,-202.43 161,-212.43 164.5,-202.43 157.5,-202.43"/>
</g>
<!-- Node16&#45;&gt;Node17 -->
<g id="edge19" class="edge">
<title>Node16&#45;&gt;Node17</title>
<path fill="none" stroke="midnightblue" d="M293.81,-614.04C293.42,-562.9 292.51,-445.53 292.15,-398.76"/>
<polygon fill="midnightblue" stroke="midnightblue" points="290.31,-614.21 293.89,-624.18 297.31,-614.15 290.31,-614.21"/>
</g>
<!-- Node17&#45;&gt;Node6 -->
<g id="edge20" class="edge">
<title>Node17&#45;&gt;Node6</title>
<path fill="none" stroke="midnightblue" d="M343.37,-353.02C366.42,-342.25 392.82,-329.93 412.65,-320.67"/>
<polygon fill="midnightblue" stroke="midnightblue" points="341.64,-349.96 334.06,-357.36 344.6,-356.3 341.64,-349.96"/>
</g>
<!-- Node18&#45;&gt;Node6 -->
<g id="edge23" class="edge">
<title>Node18&#45;&gt;Node6</title>
<path fill="none" stroke="midnightblue" d="M476.96,-354.39C469.13,-343.34 459.94,-330.39 453.1,-320.75"/>
<polygon fill="midnightblue" stroke="midnightblue" points="474.24,-356.6 482.88,-362.73 479.95,-352.55 474.24,-356.6"/>
</g>
<!-- Node20 -->
<g id="node20" class="node">
<title>Node20</title>
<g id="a_node20"><a xlink:href="block__aMLLibrary__weight__importer_8h.html" target="_top" xlink:title=" ">
<polygon fill="white" stroke="black" points="660,-524.5 660,-576.5 830,-576.5 830,-524.5 660,-524.5"/>
<text text-anchor="start" x="668" y="-564.5" font-family="Helvetica,sans-Serif" font-size="10.00">include/network_butcher</text>
<text text-anchor="start" x="668" y="-553.5" font-family="Helvetica,sans-Serif" font-size="10.00">/IO_Interaction/Weight</text>
<text text-anchor="start" x="668" y="-542.5" font-family="Helvetica,sans-Serif" font-size="10.00">_Importer_Helpers/block</text>
<text text-anchor="middle" x="745" y="-531.5" font-family="Helvetica,sans-Serif" font-size="10.00">_aMLLibrary_weight_importer.h</text>
</a>
</g>
</g>
<!-- Node19&#45;&gt;Node20 -->
<g id="edge27" class="edge">
<title>Node19&#45;&gt;Node20</title>
<path fill="none" stroke="midnightblue" d="M597.63,-697.52C613.76,-688.41 630.64,-677.69 645,-666 677.54,-639.51 708.24,-601.75 726.83,-576.95"/>
<polygon fill="midnightblue" stroke="midnightblue" points="595.84,-694.51 588.77,-702.4 599.22,-700.64 595.84,-694.51"/>
</g>
<!-- Node23 -->
<g id="node23" class="node">
<title>Node23</title>
<g id="a_node23"><a xlink:href="csv__weight__importer_8h.html" target="_top" xlink:title=" ">
<polygon fill="white" stroke="black" points="472,-613.5 472,-665.5 636,-665.5 636,-613.5 472,-613.5"/>
<text text-anchor="start" x="480" y="-653.5" font-family="Helvetica,sans-Serif" font-size="10.00">include/network_butcher</text>
<text text-anchor="start" x="480" y="-642.5" font-family="Helvetica,sans-Serif" font-size="10.00">/IO_Interaction/Weight</text>
<text text-anchor="start" x="480" y="-631.5" font-family="Helvetica,sans-Serif" font-size="10.00">_Importer_Helpers/csv_weight</text>
<text text-anchor="middle" x="554" y="-620.5" font-family="Helvetica,sans-Serif" font-size="10.00">_importer.h</text>
</a>
</g>
</g>
<!-- Node19&#45;&gt;Node23 -->
<g id="edge33" class="edge">
<title>Node19&#45;&gt;Node23</title>
<path fill="none" stroke="midnightblue" d="M543.25,-692.48C545.11,-683.49 547.07,-673.99 548.81,-665.61"/>
<polygon fill="midnightblue" stroke="midnightblue" points="539.81,-691.83 541.21,-702.34 546.66,-693.25 539.81,-691.83"/>
</g>
<!-- Node21 -->
<g id="node21" class="node">
<title>Node21</title>
<g id="a_node21"><a xlink:href="weight__importers_8h.html" target="_top" xlink:title=" ">
<polygon fill="white" stroke="black" points="523.5,-441 523.5,-482 660.5,-482 660.5,-441 523.5,-441"/>
<text text-anchor="start" x="531.5" y="-470" font-family="Helvetica,sans-Serif" font-size="10.00">include/network_butcher</text>
<text text-anchor="start" x="531.5" y="-459" font-family="Helvetica,sans-Serif" font-size="10.00">/IO_Interaction/weight</text>
<text text-anchor="middle" x="592" y="-448" font-family="Helvetica,sans-Serif" font-size="10.00">_importers.h</text>
</a>
</g>
</g>
<!-- Node20&#45;&gt;Node21 -->
<g id="edge28" class="edge">
<title>Node20&#45;&gt;Node21</title>
<path fill="none" stroke="midnightblue" d="M691.95,-519.34C670.24,-506.99 645.75,-493.06 626.44,-482.08"/>
<polygon fill="midnightblue" stroke="midnightblue" points="690.32,-522.44 700.75,-524.34 693.78,-516.35 690.32,-522.44"/>
</g>
<!-- Node22 -->
<g id="node22" class="node">
<title>Node22</title>
<g id="a_node22"><a xlink:href="block__aMLLibrary__weight__importer_8cpp.html" target="_top" xlink:title=" ">
<polygon fill="white" stroke="black" points="678.5,-435.5 678.5,-487.5 821.5,-487.5 821.5,-435.5 678.5,-435.5"/>
<text text-anchor="start" x="686.5" y="-475.5" font-family="Helvetica,sans-Serif" font-size="10.00">src/IO_Interaction</text>
<text text-anchor="start" x="686.5" y="-464.5" font-family="Helvetica,sans-Serif" font-size="10.00">/Weight_Importer_Helpers</text>
<text text-anchor="start" x="686.5" y="-453.5" font-family="Helvetica,sans-Serif" font-size="10.00">/block_aMLLibrary_weight</text>
<text text-anchor="middle" x="750" y="-442.5" font-family="Helvetica,sans-Serif" font-size="10.00">_importer.cpp</text>
</a>
</g>
</g>
<!-- Node20&#45;&gt;Node22 -->
<g id="edge32" class="edge">
<title>Node20&#45;&gt;Node22</title>
<path fill="none" stroke="midnightblue" d="M747.03,-514.19C747.54,-505.28 748.08,-495.9 748.56,-487.61"/>
<polygon fill="midnightblue" stroke="midnightblue" points="743.53,-514.15 746.45,-524.34 750.51,-514.55 743.53,-514.15"/>
</g>
<!-- Node21&#45;&gt;Node6 -->
<g id="edge29" class="edge">
<title>Node21&#45;&gt;Node6</title>
<path fill="none" stroke="midnightblue" d="M593.9,-430.53C593.74,-407.92 589.88,-377.42 573,-357 557.57,-338.34 534.36,-326.55 511.8,-319.12"/>
<polygon fill="midnightblue" stroke="midnightblue" points="590.4,-430.55 593.74,-440.6 597.4,-430.66 590.4,-430.55"/>
</g>
<!-- Node21&#45;&gt;Node8 -->
<g id="edge31" class="edge">
<title>Node21&#45;&gt;Node8</title>
<path fill="none" stroke="midnightblue" d="M599.43,-431C603.3,-409.54 605.34,-380.3 595,-357 550.99,-257.79 428.76,-196.08 366.49,-170.16"/>
<polygon fill="midnightblue" stroke="midnightblue" points="595.99,-430.34 597.43,-440.84 602.85,-431.74 595.99,-430.34"/>
</g>
<!-- Node21&#45;&gt;Node17 -->
<g id="edge30" class="edge">
<title>Node21&#45;&gt;Node17</title>
<path fill="none" stroke="midnightblue" d="M513.48,-439.17C467.17,-426.59 409,-410.79 363.9,-398.53"/>
<polygon fill="midnightblue" stroke="midnightblue" points="512.61,-442.56 523.17,-441.8 514.44,-435.8 512.61,-442.56"/>
</g>
<!-- Node23&#45;&gt;Node20 -->
<g id="edge34" class="edge">
<title>Node23&#45;&gt;Node20</title>
<path fill="none" stroke="midnightblue" d="M618.12,-609.29C641.45,-598.67 667.6,-586.76 690.07,-576.52"/>
<polygon fill="midnightblue" stroke="midnightblue" points="616.64,-606.12 608.99,-613.45 619.54,-612.49 616.64,-606.12"/>
</g>
<!-- Node23&#45;&gt;Node21 -->
<g id="edge35" class="edge">
<title>Node23&#45;&gt;Node21</title>
<path fill="none" stroke="midnightblue" d="M593.63,-606.22C601.51,-597.63 608.69,-587.72 613,-577 625.74,-545.31 612.51,-505.56 602.04,-482.2"/>
<polygon fill="midnightblue" stroke="midnightblue" points="591.07,-603.82 586.56,-613.41 596.07,-608.73 591.07,-603.82"/>
</g>
<!-- Node24 -->
<g id="node24" class="node">
<title>Node24</title>
<g id="a_node24"><a xlink:href="csv__weight__importer_8cpp.html" target="_top" xlink:title=" ">
<polygon fill="white" stroke="black" points="460.5,-530 460.5,-571 603.5,-571 603.5,-530 460.5,-530"/>
<text text-anchor="start" x="468.5" y="-559" font-family="Helvetica,sans-Serif" font-size="10.00">src/IO_Interaction</text>
<text text-anchor="start" x="468.5" y="-548" font-family="Helvetica,sans-Serif" font-size="10.00">/Weight_Importer_Helpers</text>
<text text-anchor="middle" x="532" y="-537" font-family="Helvetica,sans-Serif" font-size="10.00">/csv_weight_importer.cpp</text>
</a>
</g>
</g>
<!-- Node23&#45;&gt;Node24 -->
<g id="edge36" class="edge">
<title>Node23&#45;&gt;Node24</title>
<path fill="none" stroke="midnightblue" d="M545.15,-603.49C542.36,-592.45 539.37,-580.65 536.95,-571.08"/>
<polygon fill="midnightblue" stroke="midnightblue" points="541.79,-604.5 547.64,-613.34 548.58,-602.78 541.79,-604.5"/>
</g>
<!-- Node25&#45;&gt;Node6 -->
<g id="edge39" class="edge">
<title>Node25&#45;&gt;Node6</title>
<path fill="none" stroke="midnightblue" d="M245.94,-783.21C224.37,-752.72 190,-695.52 190,-640.5 190,-640.5 190,-640.5 190,-460.5 190,-413.81 175.64,-390.66 208,-357 230.63,-333.46 313.42,-319.83 374.35,-312.79"/>
<polygon fill="midnightblue" stroke="midnightblue" points="243.2,-785.39 251.91,-791.42 248.87,-781.28 243.2,-785.39"/>
</g>
<!-- Node25&#45;&gt;Node7 -->
<g id="edge41" class="edge">
<title>Node25&#45;&gt;Node7</title>
<path fill="none" stroke="midnightblue" d="M231.08,-785.37C219.8,-777.05 207.76,-766.62 199,-755 165.88,-711.08 152,-695.51 152,-640.5 152,-640.5 152,-640.5 152,-377 152,-313.89 220.33,-274.59 273.71,-253.52"/>
<polygon fill="midnightblue" stroke="midnightblue" points="229.3,-788.4 239.49,-791.31 233.34,-782.68 229.3,-788.4"/>
</g>
<!-- Node25&#45;&gt;Node16 -->
<g id="edge40" class="edge">
<title>Node25&#45;&gt;Node16</title>
<path fill="none" stroke="midnightblue" d="M267.49,-781.59C274.06,-746.66 286.06,-682.75 291.36,-654.53"/>
<polygon fill="midnightblue" stroke="midnightblue" points="264.05,-780.96 265.64,-791.43 270.93,-782.25 264.05,-780.96"/>
</g>
<!-- Node25&#45;&gt;Node19 -->
<g id="edge42" class="edge">
<title>Node25&#45;&gt;Node19</title>
<path fill="none" stroke="midnightblue" d="M323.12,-788.76C364.75,-777.17 420.36,-761.69 464.3,-749.46"/>
<polygon fill="midnightblue" stroke="midnightblue" points="322.09,-785.42 313.39,-791.47 323.96,-792.16 322.09,-785.42"/>
</g>
<!-- Node26&#45;&gt;Node5 -->
<g id="edge44" class="edge">
<title>Node26&#45;&gt;Node5</title>
<path fill="none" stroke="midnightblue" d="M504.61,-985.59C472.93,-958.44 418.49,-911.78 391.36,-888.52"/>
<polygon fill="midnightblue" stroke="midnightblue" points="502.65,-988.52 512.52,-992.37 507.2,-983.21 502.65,-988.52"/>
</g>
<!-- Node27 -->
<g id="node27" class="node">
<title>Node27</title>
<g id="a_node27"><a xlink:href="wgraph_8h.html" target="_top" xlink:title=" ">
<polygon fill="white" stroke="black" points="479.5,-925.5 479.5,-955.5 616.5,-955.5 616.5,-925.5 479.5,-925.5"/>
<text text-anchor="start" x="487.5" y="-943.5" font-family="Helvetica,sans-Serif" font-size="10.00">include/network_butcher</text>
<text text-anchor="middle" x="548" y="-932.5" font-family="Helvetica,sans-Serif" font-size="10.00">/Network/wgraph.h</text>
</a>
</g>
</g>
<!-- Node26&#45;&gt;Node27 -->
<g id="edge45" class="edge">
<title>Node26&#45;&gt;Node27</title>
<path fill="none" stroke="midnightblue" d="M535.96,-982.7C538.62,-973.59 541.57,-963.49 543.89,-955.58"/>
<polygon fill="midnightblue" stroke="midnightblue" points="532.57,-981.82 533.12,-992.4 539.29,-983.78 532.57,-981.82"/>
</g>
<!-- Node27&#45;&gt;Node5 -->
<g id="edge51" class="edge">
<title>Node27&#45;&gt;Node5</title>
<path fill="none" stroke="midnightblue" d="M500.94,-921.82C473.13,-911.37 438.41,-898.32 412.47,-888.58"/>
<polygon fill="midnightblue" stroke="midnightblue" points="499.87,-925.16 510.46,-925.4 502.33,-918.6 499.87,-925.16"/>
</g>
<!-- Node28 -->
<g id="node28" class="node">
<title>Node28</title>
<g id="a_node28"><a xlink:href="computer__memory_8h.html" target="_top" xlink:title=" ">
<polygon fill="white" stroke="black" points="625.5,-713.5 625.5,-743.5 796.5,-743.5 796.5,-713.5 625.5,-713.5"/>
<text text-anchor="start" x="633.5" y="-731.5" font-family="Helvetica,sans-Serif" font-size="10.00">include/network_butcher</text>
<text text-anchor="middle" x="711" y="-720.5" font-family="Helvetica,sans-Serif" font-size="10.00">/Computer/computer_memory.h</text>
</a>
</g>
</g>
<!-- Node27&#45;&gt;Node28 -->
<g id="edge46" class="edge">
<title>Node27&#45;&gt;Node28</title>
<path fill="none" stroke="midnightblue" d="M565.1,-917.47C598.67,-874.23 672.31,-779.34 700.1,-743.54"/>
<polygon fill="midnightblue" stroke="midnightblue" points="562.31,-915.35 558.95,-925.4 567.84,-919.64 562.31,-915.35"/>
</g>
<!-- Node28&#45;&gt;Node6 -->
<g id="edge47" class="edge">
<title>Node28&#45;&gt;Node6</title>
<path fill="none" stroke="midnightblue" d="M716.89,-703.5C724.19,-678.19 738.83,-638.52 764,-613 789.96,-586.67 819.31,-608.29 839,-577 851.5,-557.13 839.3,-445.48 831,-435 753.86,-337.69 600.87,-313.37 511.78,-307.73"/>
<polygon fill="midnightblue" stroke="midnightblue" points="713.45,-702.82 714.21,-713.39 720.21,-704.65 713.45,-702.82"/>
</g>
<!-- Node28&#45;&gt;Node10 -->
<g id="edge50" class="edge">
<title>Node28&#45;&gt;Node10</title>
<path fill="none" stroke="midnightblue" d="M736.96,-706.45C768.74,-679.46 822.35,-629.8 855,-577 904.17,-497.49 926,-472.49 926,-379 926,-379 926,-379 926,-154 926,-94.18 746.66,-49.55 644.73,-29.01"/>
<polygon fill="midnightblue" stroke="midnightblue" points="734.41,-704.02 728.99,-713.13 738.9,-709.39 734.41,-704.02"/>
</g>
<!-- Node28&#45;&gt;Node16 -->
<g id="edge48" class="edge">
<title>Node28&#45;&gt;Node16</title>
<path fill="none" stroke="midnightblue" d="M651.92,-710.73C640.38,-707.67 628.34,-704.61 617,-702 532.87,-682.61 435.4,-664.66 369.72,-653.22"/>
<polygon fill="midnightblue" stroke="midnightblue" points="651.34,-714.2 661.91,-713.42 653.16,-707.44 651.34,-714.2"/>
</g>
<!-- Node28&#45;&gt;Node20 -->
<g id="edge49" class="edge">
<title>Node28&#45;&gt;Node20</title>
<path fill="none" stroke="midnightblue" d="M712.98,-703.22C715.16,-679.9 719.28,-643.77 726,-613 728.65,-600.88 732.57,-587.71 736.17,-576.68"/>
<polygon fill="midnightblue" stroke="midnightblue" points="709.48,-702.99 712.08,-713.27 716.46,-703.61 709.48,-702.99"/>
</g>
<!-- Node29&#45;&gt;Node3 -->
<g id="edge55" class="edge">
<title>Node29&#45;&gt;Node3</title>
<path fill="none" stroke="midnightblue" d="M476.42,-1186.88C488.12,-1177.01 501.84,-1165.43 512.32,-1156.58"/>
<polygon fill="midnightblue" stroke="midnightblue" points="474.09,-1184.27 468.71,-1193.4 478.61,-1189.62 474.09,-1184.27"/>
</g>
<!-- Node29&#45;&gt;Node4 -->
<g id="edge56" class="edge">
<title>Node29&#45;&gt;Node4</title>
<path fill="none" stroke="midnightblue" d="M445.7,-1182.98C442.71,-1165.97 441.57,-1143.34 451,-1126 459.94,-1109.56 476.79,-1097.65 492.55,-1089.54"/>
<polygon fill="midnightblue" stroke="midnightblue" points="442.38,-1184.17 447.85,-1193.24 449.23,-1182.74 442.38,-1184.17"/>
</g>
<!-- Node29&#45;&gt;Node5 -->
<g id="edge54" class="edge">
<title>Node29&#45;&gt;Node5</title>
<path fill="none" stroke="midnightblue" d="M429.78,-1185.97C407.04,-1161.52 375,-1119.31 375,-1075.5 375,-1075.5 375,-1075.5 375,-1006.5 375,-963.65 375,-912.97 375,-888.76"/>
<polygon fill="midnightblue" stroke="midnightblue" points="427.34,-1188.48 436.79,-1193.26 432.38,-1183.63 427.34,-1188.48"/>
</g>
<!-- Node30&#45;&gt;Node1 -->
<g id="edge65" class="edge">
<title>Node30&#45;&gt;Node1</title>
<path fill="none" stroke="midnightblue" d="M855.15,-827.02C820.95,-849 771,-888.41 771,-939.5 771,-1142.5 771,-1142.5 771,-1142.5 771,-1185.35 771,-1236.03 767.49,-1260.24"/>
<polygon fill="midnightblue" stroke="midnightblue" points="857.27,-829.82 863.89,-821.55 853.55,-823.89 857.27,-829.82"/>
</g>
<!-- Node30&#45;&gt;Node6 -->
<g id="edge58" class="edge">
<title>Node30&#45;&gt;Node6</title>
<path fill="none" stroke="midnightblue" d="M927.95,-786.48C941.93,-778.44 956.58,-767.9 967,-755 1007.64,-704.66 1021.09,-673.81 999,-613 963.77,-516.03 918.91,-511.79 850,-435 817.88,-399.21 817.7,-379.12 775,-357 730.35,-333.87 595.13,-318.98 511.67,-311.73"/>
<polygon fill="midnightblue" stroke="midnightblue" points="926.01,-783.55 918.91,-791.41 929.36,-789.69 926.01,-783.55"/>
</g>
<!-- Node30&#45;&gt;Node10 -->
<g id="edge64" class="edge">
<title>Node30&#45;&gt;Node10</title>
<path fill="none" stroke="midnightblue" d="M944.83,-787.72C963.48,-779.93 983.09,-769.25 998,-755 1039.24,-715.59 1056,-697.55 1056,-640.5 1056,-640.5 1056,-640.5 1056,-154 1056,-69.43 777.14,-33.9 644.52,-21.78"/>
<polygon fill="midnightblue" stroke="midnightblue" points="943.5,-784.48 935.49,-791.42 946.07,-790.99 943.5,-784.48"/>
</g>
<!-- Node30&#45;&gt;Node28 -->
<g id="edge59" class="edge">
<title>Node30&#45;&gt;Node28</title>
<path fill="none" stroke="midnightblue" d="M844.26,-787.37C813.32,-773.94 771.76,-755.89 743.33,-743.54"/>
<polygon fill="midnightblue" stroke="midnightblue" points="842.93,-790.61 853.49,-791.38 845.72,-784.19 842.93,-790.61"/>
</g>
<!-- Node31 -->
<g id="node31" class="node">
<title>Node31</title>
<g id="a_node31"><a xlink:href="weight__importer__utils_8h.html" target="_top" xlink:title=" ">
<polygon fill="white" stroke="black" points="814.5,-702.5 814.5,-754.5 957.5,-754.5 957.5,-702.5 814.5,-702.5"/>
<text text-anchor="start" x="822.5" y="-742.5" font-family="Helvetica,sans-Serif" font-size="10.00">include/network_butcher</text>
<text text-anchor="start" x="822.5" y="-731.5" font-family="Helvetica,sans-Serif" font-size="10.00">/IO_Interaction/Weight</text>
<text text-anchor="start" x="822.5" y="-720.5" font-family="Helvetica,sans-Serif" font-size="10.00">_Importer_Helpers/weight</text>
<text text-anchor="middle" x="886" y="-709.5" font-family="Helvetica,sans-Serif" font-size="10.00">_importer_utils.h</text>
</a>
</g>
</g>
<!-- Node30&#45;&gt;Node31 -->
<g id="edge60" class="edge">
<title>Node30&#45;&gt;Node31</title>
<path fill="none" stroke="midnightblue" d="M886,-781.14C886,-772.63 886,-763.07 886,-754.5"/>
<polygon fill="midnightblue" stroke="midnightblue" points="882.5,-781.2 886,-791.2 889.5,-781.21 882.5,-781.2"/>
</g>
<!-- Node33 -->
<g id="node33" class="node">
<title>Node33</title>
<g id="a_node33"><a xlink:href="utilities_8cpp.html" target="_top" xlink:title=" ">
<polygon fill="white" stroke="black" points="1084.5,-719 1084.5,-738 1175.5,-738 1175.5,-719 1084.5,-719"/>
<text text-anchor="middle" x="1130" y="-726" font-family="Helvetica,sans-Serif" font-size="10.00">src/utilities.cpp</text>
</a>
</g>
</g>
<!-- Node30&#45;&gt;Node33 -->
<g id="edge66" class="edge">
<title>Node30&#45;&gt;Node33</title>
<path fill="none" stroke="midnightblue" d="M955.1,-788.88C989.91,-779.91 1032.56,-768.03 1070,-755 1084.22,-750.05 1099.86,-743.36 1111.6,-738.08"/>
<polygon fill="midnightblue" stroke="midnightblue" points="953.86,-785.58 945.04,-791.44 955.59,-792.36 953.86,-785.58"/>
</g>
<!-- Node31&#45;&gt;Node20 -->
<g id="edge61" class="edge">
<title>Node31&#45;&gt;Node20</title>
<path fill="none" stroke="midnightblue" d="M858.48,-694.64C850.83,-685.41 842.55,-675.35 835,-666 810.38,-635.51 782.58,-599.97 764.48,-576.67"/>
<polygon fill="midnightblue" stroke="midnightblue" points="855.92,-697.04 865.01,-702.49 861.31,-692.56 855.92,-697.04"/>
</g>
<!-- Node31&#45;&gt;Node23 -->
<g id="edge62" class="edge">
<title>Node31&#45;&gt;Node23</title>
<path fill="none" stroke="midnightblue" d="M804.3,-701.58C743.17,-684.59 683.02,-669.96 636.09,-659.02"/>
<polygon fill="midnightblue" stroke="midnightblue" points="803.54,-705 814.11,-704.33 805.43,-698.26 803.54,-705"/>
</g>
<!-- Node32 -->
<g id="node32" class="node">
<title>Node32</title>
<g id="a_node32"><a xlink:href="weight__importer__utils_8cpp.html" target="_top" xlink:title=" ">
<polygon fill="white" stroke="black" points="844,-619 844,-660 990,-660 990,-619 844,-619"/>
<text text-anchor="start" x="852" y="-648" font-family="Helvetica,sans-Serif" font-size="10.00">src/IO_Interaction</text>
<text text-anchor="start" x="852" y="-637" font-family="Helvetica,sans-Serif" font-size="10.00">/Weight_Importer_Helpers</text>
<text text-anchor="middle" x="917" y="-626" font-family="Helvetica,sans-Serif" font-size="10.00">/weight_importer_utils.cpp</text>
</a>
</g>
</g>
<!-- Node31&#45;&gt;Node32 -->
<g id="edge63" class="edge">
<title>Node31&#45;&gt;Node32</title>
<path fill="none" stroke="midnightblue" d="M898.35,-692.83C902.32,-681.69 906.58,-669.74 910.02,-660.08"/>
<polygon fill="midnightblue" stroke="midnightblue" points="895.03,-691.74 894.97,-702.34 901.62,-694.09 895.03,-691.74"/>
</g>
</g>
</svg>
