<?xml version="1.0" encoding="UTF-8" standalone="no"?>
<!DOCTYPE svg PUBLIC "-//W3C//DTD SVG 1.1//EN"
 "http://www.w3.org/Graphics/SVG/1.1/DTD/svg11.dtd">
<!-- Generated by graphviz version 2.43.0 (0)
 -->
<!-- Title: include/network_butcher/Types/dense_tensor.h Pages: 1 -->
<!--zoomable 1299 -->
<svg id="main" version="1.1" xmlns="http://www.w3.org/2000/svg" xmlns:xlink="http://www.w3.org/1999/xlink" xml:space="preserve" onload="init(evt)">
<style type="text/css"><![CDATA[
.edge:hover path { stroke: red; }
.edge:hover polygon { stroke: red; fill: red; }
]]></style>
<script type="text/javascript"><![CDATA[
var edges = document.getElementsByTagName('g');
if (edges && edges.length) {
  for (var i=0;i<edges.length;i++) {
    if (edges[i].id.substr(0,4)=='edge') {
      edges[i].setAttribute('class','edge');
    }
  }
}
]]></script>
        <defs>
                <circle id="rim" cx="0" cy="0" r="7"/>
                <circle id="rim2" cx="0" cy="0" r="3.5"/>
                <g id="zoomPlus">
                        <use xlink:href="#rim" fill="#404040">
                                <set attributeName="fill" to="#808080" begin="zoomplus.mouseover" end="zoomplus.mouseout"/>
                        </use>
                        <path d="M-4,0h8M0,-4v8" fill="none" stroke="white" stroke-width="1.5" pointer-events="none"/>
                </g>
                <g id="zoomMin">
                        <use xlink:href="#rim" fill="#404040">
                                <set attributeName="fill" to="#808080" begin="zoomminus.mouseover" end="zoomminus.mouseout"/>
                        </use>
                        <path d="M-4,0h8" fill="none" stroke="white" stroke-width="1.5" pointer-events="none"/>
                </g>
                <g id="dirArrow">
                        <path fill="none" stroke="white" stroke-width="1.5" d="M0,-3.0v7 M-2.5,-0.5L0,-3.0L2.5,-0.5"/>
                </g>
               <g id="resetDef">
                       <use xlink:href="#rim2" fill="#404040">
                               <set attributeName="fill" to="#808080" begin="reset.mouseover" end="reset.mouseout"/>
                       </use>
               </g>
        </defs>

<script type="text/javascript">
var viewWidth = 1176;
var viewHeight = 1299;
var sectionId = 'dynsection-1';
</script>
<script xlink:href="svgpan.js"/>
<svg id="graph" class="graph">
<g id="viewport">
<title>include/network_butcher/Types/dense_tensor.h</title>
<polygon fill="white" stroke="transparent" points="-4,4 -4,-1295 1171.5,-1295 1171.5,4 -4,4"/>
<!-- Node1 -->
<g id="node1" class="node">
<title>Node1</title>
<g id="a_node1"><a xlink:title=" ">
<polygon fill="#bfbfbf" stroke="black" points="692.5,-1260.5 692.5,-1290.5 829.5,-1290.5 829.5,-1260.5 692.5,-1260.5"/>
<text text-anchor="start" x="700.5" y="-1278.5" font-family="Helvetica,sans-Serif" font-size="10.00">include/network_butcher</text>
<text text-anchor="middle" x="761" y="-1267.5" font-family="Helvetica,sans-Serif" font-size="10.00">/Types/dense_tensor.h</text>
</a>
</g>
</g>
<!-- Node2 -->
<g id="node2" class="node">
<title>Node2</title>
<g id="a_node2"><a xlink:href="node_8h.html" target="_top" xlink:title=" ">
<polygon fill="white" stroke="black" points="561.5,-1193.5 561.5,-1223.5 698.5,-1223.5 698.5,-1193.5 561.5,-1193.5"/>
<text text-anchor="start" x="569.5" y="-1211.5" font-family="Helvetica,sans-Serif" font-size="10.00">include/network_butcher</text>
<text text-anchor="middle" x="630" y="-1200.5" font-family="Helvetica,sans-Serif" font-size="10.00">/Network/node.h</text>
</a>
</g>
</g>
<!-- Node1&#45;&gt;Node2 -->
<g id="edge1" class="edge">
<title>Node1&#45;&gt;Node2</title>
<path fill="none" stroke="midnightblue" d="M723.42,-1255.85C702.71,-1245.58 677.41,-1233.03 658.37,-1223.58"/>
<polygon fill="midnightblue" stroke="midnightblue" points="722.06,-1259.09 732.57,-1260.4 725.17,-1252.82 722.06,-1259.09"/>
</g>
<!-- Node29 -->
<g id="node29" class="node">
<title>Node29</title>
<g id="a_node29"><a xlink:href="content_8h.html" target="_top" xlink:title=" ">
<polygon fill="white" stroke="black" points="387.5,-1193.5 387.5,-1223.5 524.5,-1223.5 524.5,-1193.5 387.5,-1193.5"/>
<text text-anchor="start" x="395.5" y="-1211.5" font-family="Helvetica,sans-Serif" font-size="10.00">include/network_butcher</text>
<text text-anchor="middle" x="456" y="-1200.5" font-family="Helvetica,sans-Serif" font-size="10.00">/Types/content.h</text>
</a>
</g>
</g>
<!-- Node1&#45;&gt;Node29 -->
<g id="edge53" class="edge">
<title>Node1&#45;&gt;Node29</title>
<path fill="none" stroke="midnightblue" d="M685.37,-1258.38C635.2,-1247.69 570.01,-1233.8 521.95,-1223.55"/>
<polygon fill="midnightblue" stroke="midnightblue" points="684.69,-1261.81 695.2,-1260.48 686.14,-1254.97 684.69,-1261.81"/>
</g>
<!-- Node30 -->
<g id="node30" class="node">
<title>Node30</title>
<g id="a_node30"><a xlink:href="utilities_8h.html" target="_top" xlink:title=" ">
<polygon fill="white" stroke="black" points="840.5,-791.5 840.5,-821.5 977.5,-821.5 977.5,-791.5 840.5,-791.5"/>
<text text-anchor="start" x="848.5" y="-809.5" font-family="Helvetica,sans-Serif" font-size="10.00">include/network_butcher</text>
<text text-anchor="middle" x="909" y="-798.5" font-family="Helvetica,sans-Serif" font-size="10.00">/utilities.h</text>
</a>
</g>
</g>
<!-- Node1&#45;&gt;Node30 -->
<g id="edge57" class="edge">
<title>Node1&#45;&gt;Node30</title>
<path fill="none" stroke="midnightblue" d="M754.35,-1249.99C752,-1223.49 752,-1180 752,-1142.5 752,-1142.5 752,-1142.5 752,-939.5 752,-880.11 819.2,-840.82 865.79,-821.51"/>
<polygon fill="midnightblue" stroke="midnightblue" points="750.91,-1250.7 755.51,-1260.24 757.86,-1249.91 750.91,-1250.7"/>
</g>
<!-- Node34 -->
<g id="node34" class="node">
<title>Node34</title>
<g id="a_node34"><a xlink:href="dense__tensor_8cpp.html" target="_top" xlink:title=" ">
<polygon fill="white" stroke="black" points="797.5,-1199 797.5,-1218 946.5,-1218 946.5,-1199 797.5,-1199"/>
<text text-anchor="middle" x="872" y="-1206" font-family="Helvetica,sans-Serif" font-size="10.00">src/Types/dense_tensor.cpp</text>
</a>
</g>
</g>
<!-- Node1&#45;&gt;Node34 -->
<g id="edge67" class="edge">
<title>Node1&#45;&gt;Node34</title>
<path fill="none" stroke="midnightblue" d="M793.78,-1255.31C814.92,-1242.93 841.38,-1227.43 857.47,-1218.01"/>
<polygon fill="midnightblue" stroke="midnightblue" points="791.95,-1252.32 785.09,-1260.4 795.48,-1258.36 791.95,-1252.32"/>
</g>
<!-- Node3 -->
<g id="node3" class="node">
<title>Node3</title>
<g id="a_node3"><a xlink:href="graph_8h.html" target="_top" xlink:title=" ">
<polygon fill="white" stroke="black" points="464.5,-1059.5 464.5,-1089.5 601.5,-1089.5 601.5,-1059.5 464.5,-1059.5"/>
<text text-anchor="start" x="472.5" y="-1077.5" font-family="Helvetica,sans-Serif" font-size="10.00">include/network_butcher</text>
<text text-anchor="middle" x="533" y="-1066.5" font-family="Helvetica,sans-Serif" font-size="10.00">/Network/graph.h</text>
</a>
</g>
</g>
<!-- Node2&#45;&gt;Node3 -->
<g id="edge2" class="edge">
<title>Node2&#45;&gt;Node3</title>
<path fill="none" stroke="midnightblue" d="M629.05,-1182.82C627.3,-1165.54 622.72,-1142.67 611,-1126 599.87,-1110.16 582.03,-1098.08 566.23,-1089.7"/>
<polygon fill="midnightblue" stroke="midnightblue" points="625.59,-1183.53 629.83,-1193.23 632.57,-1183 625.59,-1183.53"/>
</g>
<!-- Node28 -->
<g id="node28" class="node">
<title>Node28</title>
<g id="a_node28"><a xlink:href="node__traits_8h.html" target="_top" xlink:title=" ">
<polygon fill="white" stroke="black" points="464.5,-1126.5 464.5,-1156.5 601.5,-1156.5 601.5,-1126.5 464.5,-1126.5"/>
<text text-anchor="start" x="472.5" y="-1144.5" font-family="Helvetica,sans-Serif" font-size="10.00">include/network_butcher</text>
<text text-anchor="middle" x="533" y="-1133.5" font-family="Helvetica,sans-Serif" font-size="10.00">/Network/node_traits.h</text>
</a>
</g>
</g>
<!-- Node2&#45;&gt;Node28 -->
<g id="edge51" class="edge">
<title>Node2&#45;&gt;Node28</title>
<path fill="none" stroke="midnightblue" d="M600.5,-1187.73C585.49,-1177.68 567.6,-1165.68 554.01,-1156.58"/>
<polygon fill="midnightblue" stroke="midnightblue" points="598.7,-1190.74 608.95,-1193.4 602.59,-1184.92 598.7,-1190.74"/>
</g>
<!-- Node4 -->
<g id="node4" class="node">
<title>Node4</title>
<g id="a_node4"><a xlink:href="graph__traits_8h.html" target="_top" xlink:title=" ">
<polygon fill="white" stroke="black" points="310.5,-858.5 310.5,-888.5 447.5,-888.5 447.5,-858.5 310.5,-858.5"/>
<text text-anchor="start" x="318.5" y="-876.5" font-family="Helvetica,sans-Serif" font-size="10.00">include/network_butcher</text>
<text text-anchor="middle" x="379" y="-865.5" font-family="Helvetica,sans-Serif" font-size="10.00">/Network/graph_traits.h</text>
</a>
</g>
</g>
<!-- Node3&#45;&gt;Node4 -->
<g id="edge3" class="edge">
<title>Node3&#45;&gt;Node4</title>
<path fill="none" stroke="midnightblue" d="M494.8,-1054.25C481.04,-1045.99 466.18,-1035.37 455,-1023 417.14,-981.09 392.86,-916.87 383.44,-888.64"/>
<polygon fill="midnightblue" stroke="midnightblue" points="493.21,-1057.37 503.63,-1059.33 496.71,-1051.31 493.21,-1057.37"/>
</g>
<!-- Node25 -->
<g id="node25" class="node">
<title>Node25</title>
<g id="a_node25"><a xlink:href="mwgraph_8h.html" target="_top" xlink:title=" ">
<polygon fill="white" stroke="black" points="464.5,-992.5 464.5,-1022.5 601.5,-1022.5 601.5,-992.5 464.5,-992.5"/>
<text text-anchor="start" x="472.5" y="-1010.5" font-family="Helvetica,sans-Serif" font-size="10.00">include/network_butcher</text>
<text text-anchor="middle" x="533" y="-999.5" font-family="Helvetica,sans-Serif" font-size="10.00">/Network/mwgraph.h</text>
</a>
</g>
</g>
<!-- Node3&#45;&gt;Node25 -->
<g id="edge42" class="edge">
<title>Node3&#45;&gt;Node25</title>
<path fill="none" stroke="midnightblue" d="M533,-1049.11C533,-1040.15 533,-1030.32 533,-1022.58"/>
<polygon fill="midnightblue" stroke="midnightblue" points="529.5,-1049.4 533,-1059.4 536.5,-1049.4 529.5,-1049.4"/>
</g>
<!-- Node5 -->
<g id="node5" class="node">
<title>Node5</title>
<g id="a_node5"><a xlink:href="butcher_8h.html" target="_top" xlink:title=" ">
<polygon fill="white" stroke="black" points="429.5,-290.5 429.5,-320.5 566.5,-320.5 566.5,-290.5 429.5,-290.5"/>
<text text-anchor="start" x="437.5" y="-308.5" font-family="Helvetica,sans-Serif" font-size="10.00">include/network_butcher</text>
<text text-anchor="middle" x="498" y="-297.5" font-family="Helvetica,sans-Serif" font-size="10.00">/Butcher/butcher.h</text>
</a>
</g>
</g>
<!-- Node4&#45;&gt;Node5 -->
<g id="edge4" class="edge">
<title>Node4&#45;&gt;Node5</title>
<path fill="none" stroke="midnightblue" d="M424.23,-854.56C445.05,-845.69 469.78,-834.26 491,-822 535.11,-796.51 547.93,-790.97 584,-755 653.18,-686.01 682.86,-669.94 713,-577 732.52,-516.79 735.94,-488.43 702,-435 664.3,-375.64 588.23,-338.85 540.38,-320.57"/>
<polygon fill="midnightblue" stroke="midnightblue" points="422.83,-851.35 414.96,-858.45 425.54,-857.81 422.83,-851.35"/>
</g>
<!-- Node6 -->
<g id="node6" class="node">
<title>Node6</title>
<g id="a_node6"><a xlink:href="onnx__model__reconstructor__helpers_8h.html" target="_top" xlink:title=" ">
<polygon fill="white" stroke="black" points="114.5,-212.5 114.5,-253.5 265.5,-253.5 265.5,-212.5 114.5,-212.5"/>
<text text-anchor="start" x="122.5" y="-241.5" font-family="Helvetica,sans-Serif" font-size="10.00">include/network_butcher</text>
<text text-anchor="start" x="122.5" y="-230.5" font-family="Helvetica,sans-Serif" font-size="10.00">/IO_Interaction/onnx_model</text>
<text text-anchor="middle" x="190" y="-219.5" font-family="Helvetica,sans-Serif" font-size="10.00">_reconstructor_helpers.h</text>
</a>
</g>
</g>
<!-- Node4&#45;&gt;Node6 -->
<g id="edge23" class="edge">
<title>Node4&#45;&gt;Node6</title>
<path fill="none" stroke="midnightblue" d="M300.25,-872.45C199.54,-867.76 38,-842.61 38,-729.5 38,-729.5 38,-729.5 38,-377 38,-317.94 99.62,-276.12 144.39,-253.52"/>
<polygon fill="midnightblue" stroke="midnightblue" points="300.27,-875.95 310.4,-872.86 300.55,-868.96 300.27,-875.95"/>
</g>
<!-- Node9 -->
<g id="node9" class="node">
<title>Node9</title>
<g id="a_node9"><a xlink:href="network__butcher_8h.html" target="_top" xlink:title=" ">
<polygon fill="white" stroke="black" points="559.5,-0.5 559.5,-30.5 696.5,-30.5 696.5,-0.5 559.5,-0.5"/>
<text text-anchor="start" x="567.5" y="-18.5" font-family="Helvetica,sans-Serif" font-size="10.00">include/network_butcher</text>
<text text-anchor="middle" x="628" y="-7.5" font-family="Helvetica,sans-Serif" font-size="10.00">/network_butcher.h</text>
</a>
</g>
</g>
<!-- Node4&#45;&gt;Node9 -->
<g id="edge36" class="edge">
<title>Node4&#45;&gt;Node9</title>
<path fill="none" stroke="midnightblue" d="M300.33,-867.57C218.42,-861.15 96.76,-847.58 58,-822 17.5,-795.27 0,-778.02 0,-729.5 0,-729.5 0,-729.5 0,-154 0,-97.25 396.35,-43.89 559.3,-24.35"/>
<polygon fill="midnightblue" stroke="midnightblue" points="300.13,-871.06 310.36,-868.34 300.66,-864.08 300.13,-871.06"/>
</g>
<!-- Node13 -->
<g id="node13" class="node">
<title>Node13</title>
<g id="a_node13"><a xlink:href="onnx__importer__helpers_8h.html" target="_top" xlink:title=" ">
<polygon fill="white" stroke="black" points="284,-212.5 284,-253.5 446,-253.5 446,-212.5 284,-212.5"/>
<text text-anchor="start" x="292" y="-241.5" font-family="Helvetica,sans-Serif" font-size="10.00">include/network_butcher</text>
<text text-anchor="start" x="292" y="-230.5" font-family="Helvetica,sans-Serif" font-size="10.00">/IO_Interaction/onnx_importer</text>
<text text-anchor="middle" x="365" y="-219.5" font-family="Helvetica,sans-Serif" font-size="10.00">_helpers.h</text>
</a>
</g>
</g>
<!-- Node4&#45;&gt;Node13 -->
<g id="edge24" class="edge">
<title>Node4&#45;&gt;Node13</title>
<path fill="none" stroke="midnightblue" d="M300.07,-868.48C210.3,-859.15 76,-828.64 76,-729.5 76,-729.5 76,-729.5 76,-377 76,-321.68 117.09,-317.65 165,-290 185.57,-278.13 237.94,-263.64 283.93,-252.38"/>
<polygon fill="midnightblue" stroke="midnightblue" points="299.95,-871.98 310.24,-869.47 300.63,-865.02 299.95,-871.98"/>
</g>
<!-- Node15 -->
<g id="node15" class="node">
<title>Node15</title>
<g id="a_node15"><a xlink:href="graph__constraint_8h.html" target="_top" xlink:title=" ">
<polygon fill="white" stroke="black" points="218.5,-624.5 218.5,-654.5 369.5,-654.5 369.5,-624.5 218.5,-624.5"/>
<text text-anchor="start" x="226.5" y="-642.5" font-family="Helvetica,sans-Serif" font-size="10.00">include/network_butcher</text>
<text text-anchor="middle" x="294" y="-631.5" font-family="Helvetica,sans-Serif" font-size="10.00">/Butcher/graph_constraint.h</text>
</a>
</g>
</g>
<!-- Node4&#45;&gt;Node15 -->
<g id="edge17" class="edge">
<title>Node4&#45;&gt;Node15</title>
<path fill="none" stroke="midnightblue" d="M342.52,-852.63C331.21,-844.63 319.92,-834.34 313,-822 282.01,-766.73 287.85,-687.04 291.88,-654.82"/>
<polygon fill="midnightblue" stroke="midnightblue" points="340.82,-855.71 351.09,-858.31 344.68,-849.87 340.82,-855.71"/>
</g>
<!-- Node16 -->
<g id="node16" class="node">
<title>Node16</title>
<g id="a_node16"><a xlink:href="constrained__block__graph__builder_8h.html" target="_top" xlink:title=" ">
<polygon fill="white" stroke="black" points="302.5,-357.5 302.5,-398.5 451.5,-398.5 451.5,-357.5 302.5,-357.5"/>
<text text-anchor="start" x="310.5" y="-386.5" font-family="Helvetica,sans-Serif" font-size="10.00">include/network_butcher</text>
<text text-anchor="start" x="310.5" y="-375.5" font-family="Helvetica,sans-Serif" font-size="10.00">/Butcher/constrained_block</text>
<text text-anchor="middle" x="377" y="-364.5" font-family="Helvetica,sans-Serif" font-size="10.00">_graph_builder.h</text>
</a>
</g>
</g>
<!-- Node4&#45;&gt;Node16 -->
<g id="edge20" class="edge">
<title>Node4&#45;&gt;Node16</title>
<path fill="none" stroke="midnightblue" d="M319.09,-854.99C263.74,-834.69 190,-795.29 190,-729.5 190,-729.5 190,-729.5 190,-549.5 190,-474.81 272.46,-424.13 327.87,-398.51"/>
<polygon fill="midnightblue" stroke="midnightblue" points="318.25,-858.4 328.85,-858.44 320.59,-851.81 318.25,-858.4"/>
</g>
<!-- Node17 -->
<g id="node17" class="node">
<title>Node17</title>
<g id="a_node17"><a xlink:href="path__converter_8h.html" target="_top" xlink:title=" ">
<polygon fill="white" stroke="black" points="142,-363 142,-393 284,-393 284,-363 142,-363"/>
<text text-anchor="start" x="150" y="-381" font-family="Helvetica,sans-Serif" font-size="10.00">include/network_butcher</text>
<text text-anchor="middle" x="213" y="-370" font-family="Helvetica,sans-Serif" font-size="10.00">/Butcher/path_converter.h</text>
</a>
</g>
</g>
<!-- Node4&#45;&gt;Node17 -->
<g id="edge21" class="edge">
<title>Node4&#45;&gt;Node17</title>
<path fill="none" stroke="midnightblue" d="M300.07,-862.85C270.15,-855.75 237.64,-843.41 214,-822 190.08,-800.33 194.11,-786.24 186,-755 160.19,-655.53 163.2,-625.96 176,-524 182.15,-475.02 199.55,-418.87 208.12,-393.18"/>
<polygon fill="midnightblue" stroke="midnightblue" points="299.58,-866.33 310.1,-865.07 301.09,-859.49 299.58,-866.33"/>
</g>
<!-- Node18 -->
<g id="node18" class="node">
<title>Node18</title>
<g id="a_node18"><a xlink:href="weight__importer_8h.html" target="_top" xlink:title=" ">
<polygon fill="white" stroke="black" points="431.5,-702.5 431.5,-754.5 574.5,-754.5 574.5,-702.5 431.5,-702.5"/>
<text text-anchor="start" x="439.5" y="-742.5" font-family="Helvetica,sans-Serif" font-size="10.00">include/network_butcher</text>
<text text-anchor="start" x="439.5" y="-731.5" font-family="Helvetica,sans-Serif" font-size="10.00">/IO_Interaction/Weight</text>
<text text-anchor="start" x="439.5" y="-720.5" font-family="Helvetica,sans-Serif" font-size="10.00">_Importer_Helpers/weight</text>
<text text-anchor="middle" x="503" y="-709.5" font-family="Helvetica,sans-Serif" font-size="10.00">_importer.h</text>
</a>
</g>
</g>
<!-- Node4&#45;&gt;Node18 -->
<g id="edge25" class="edge">
<title>Node4&#45;&gt;Node18</title>
<path fill="none" stroke="midnightblue" d="M425.66,-853.78C440.8,-845.84 456.61,-835.3 468,-822 484.53,-802.7 493.64,-774.8 498.39,-754.69"/>
<polygon fill="midnightblue" stroke="midnightblue" points="423.78,-850.81 416.37,-858.39 426.88,-857.08 423.78,-850.81"/>
</g>
<!-- Node24 -->
<g id="node24" class="node">
<title>Node24</title>
<g id="a_node24"><a xlink:href="parameters_8h.html" target="_top" xlink:title=" ">
<polygon fill="white" stroke="black" points="322.5,-791.5 322.5,-821.5 459.5,-821.5 459.5,-791.5 322.5,-791.5"/>
<text text-anchor="start" x="330.5" y="-809.5" font-family="Helvetica,sans-Serif" font-size="10.00">include/network_butcher</text>
<text text-anchor="middle" x="391" y="-798.5" font-family="Helvetica,sans-Serif" font-size="10.00">/Types/parameters.h</text>
</a>
</g>
</g>
<!-- Node4&#45;&gt;Node24 -->
<g id="edge37" class="edge">
<title>Node4&#45;&gt;Node24</title>
<path fill="none" stroke="midnightblue" d="M383.45,-848.4C385.12,-839.37 386.96,-829.41 388.4,-821.58"/>
<polygon fill="midnightblue" stroke="midnightblue" points="379.98,-847.93 381.6,-858.4 386.86,-849.2 379.98,-847.93"/>
</g>
<!-- Node5&#45;&gt;Node6 -->
<g id="edge5" class="edge">
<title>Node5&#45;&gt;Node6</title>
<path fill="none" stroke="midnightblue" d="M425.54,-288.25C381.9,-278.43 325.24,-265.6 275,-254 271.9,-253.28 268.73,-252.55 265.54,-251.81"/>
<polygon fill="midnightblue" stroke="midnightblue" points="424.96,-291.71 435.49,-290.49 426.5,-284.88 424.96,-291.71"/>
</g>
<!-- Node5&#45;&gt;Node9 -->
<g id="edge16" class="edge">
<title>Node5&#45;&gt;Node9</title>
<path fill="none" stroke="midnightblue" d="M521.36,-283.45C545.95,-259.85 583.7,-219.2 603,-176 625.3,-126.1 628.13,-59.68 628.22,-30.85"/>
<polygon fill="midnightblue" stroke="midnightblue" points="518.77,-281.09 513.89,-290.5 523.56,-286.19 518.77,-281.09"/>
</g>
<!-- Node5&#45;&gt;Node13 -->
<g id="edge13" class="edge">
<title>Node5&#45;&gt;Node13</title>
<path fill="none" stroke="midnightblue" d="M462.32,-285.59C443.62,-275.68 420.75,-263.55 401.87,-253.55"/>
<polygon fill="midnightblue" stroke="midnightblue" points="460.93,-288.81 471.41,-290.4 464.21,-282.63 460.93,-288.81"/>
</g>
<!-- Node7 -->
<g id="node7" class="node">
<title>Node7</title>
<g id="a_node7"><a xlink:href="io__manager_8h.html" target="_top" xlink:title=" ">
<polygon fill="white" stroke="black" points="456.5,-140 456.5,-170 593.5,-170 593.5,-140 456.5,-140"/>
<text text-anchor="start" x="464.5" y="-158" font-family="Helvetica,sans-Serif" font-size="10.00">include/network_butcher</text>
<text text-anchor="middle" x="525" y="-147" font-family="Helvetica,sans-Serif" font-size="10.00">/io_manager.h</text>
</a>
</g>
</g>
<!-- Node6&#45;&gt;Node7 -->
<g id="edge6" class="edge">
<title>Node6&#45;&gt;Node7</title>
<path fill="none" stroke="midnightblue" d="M275.74,-211.87C352.95,-194.92 374.05,-192.98 447,-176 454.9,-174.16 463.22,-172.13 471.37,-170.09"/>
<polygon fill="midnightblue" stroke="midnightblue" points="274.53,-208.55 265.52,-214.13 276.04,-215.39 274.53,-208.55"/>
</g>
<!-- Node12 -->
<g id="node12" class="node">
<title>Node12</title>
<g id="a_node12"><a xlink:href="onnx__model__reconstructor__helpers_8cpp.html" target="_top" xlink:title=" ">
<polygon fill="white" stroke="black" points="115.5,-134.5 115.5,-175.5 264.5,-175.5 264.5,-134.5 115.5,-134.5"/>
<text text-anchor="start" x="123.5" y="-163.5" font-family="Helvetica,sans-Serif" font-size="10.00">src/IO_Interaction</text>
<text text-anchor="start" x="123.5" y="-152.5" font-family="Helvetica,sans-Serif" font-size="10.00">/onnx_model_reconstructor</text>
<text text-anchor="middle" x="190" y="-141.5" font-family="Helvetica,sans-Serif" font-size="10.00">_helpers.cpp</text>
</a>
</g>
</g>
<!-- Node6&#45;&gt;Node12 -->
<g id="edge12" class="edge">
<title>Node6&#45;&gt;Node12</title>
<path fill="none" stroke="midnightblue" d="M190,-202.3C190,-193.3 190,-183.65 190,-175.51"/>
<polygon fill="midnightblue" stroke="midnightblue" points="186.5,-202.43 190,-212.43 193.5,-202.43 186.5,-202.43"/>
</g>
<!-- Node8 -->
<g id="node8" class="node">
<title>Node8</title>
<g id="a_node8"><a xlink:href="general__manager_8h.html" target="_top" xlink:title=" ">
<polygon fill="white" stroke="black" points="314.5,-67.5 314.5,-97.5 451.5,-97.5 451.5,-67.5 314.5,-67.5"/>
<text text-anchor="start" x="322.5" y="-85.5" font-family="Helvetica,sans-Serif" font-size="10.00">include/network_butcher</text>
<text text-anchor="middle" x="383" y="-74.5" font-family="Helvetica,sans-Serif" font-size="10.00">/general_manager.h</text>
</a>
</g>
</g>
<!-- Node7&#45;&gt;Node8 -->
<g id="edge7" class="edge">
<title>Node7&#45;&gt;Node8</title>
<path fill="none" stroke="midnightblue" d="M487.48,-135.37C463.61,-123.52 433.2,-108.42 411.35,-97.57"/>
<polygon fill="midnightblue" stroke="midnightblue" points="486.09,-138.59 496.61,-139.9 489.21,-132.32 486.09,-138.59"/>
</g>
<!-- Node7&#45;&gt;Node9 -->
<g id="edge10" class="edge">
<title>Node7&#45;&gt;Node9</title>
<path fill="none" stroke="midnightblue" d="M553.7,-133.65C566,-123.89 579.85,-111.41 590,-98 606.02,-76.84 617.52,-47.84 623.44,-30.75"/>
<polygon fill="midnightblue" stroke="midnightblue" points="551.29,-131.08 545.49,-139.94 555.55,-136.63 551.29,-131.08"/>
</g>
<!-- Node11 -->
<g id="node11" class="node">
<title>Node11</title>
<g id="a_node11"><a xlink:href="io__manager_8cpp.html" target="_top" xlink:title=" ">
<polygon fill="white" stroke="black" points="469.5,-73 469.5,-92 580.5,-92 580.5,-73 469.5,-73"/>
<text text-anchor="middle" x="525" y="-80" font-family="Helvetica,sans-Serif" font-size="10.00">src/io_manager.cpp</text>
</a>
</g>
</g>
<!-- Node7&#45;&gt;Node11 -->
<g id="edge11" class="edge">
<title>Node7&#45;&gt;Node11</title>
<path fill="none" stroke="midnightblue" d="M525,-129.59C525,-116.71 525,-101.7 525,-92.39"/>
<polygon fill="midnightblue" stroke="midnightblue" points="521.5,-129.73 525,-139.73 528.5,-129.73 521.5,-129.73"/>
</g>
<!-- Node8&#45;&gt;Node9 -->
<g id="edge8" class="edge">
<title>Node8&#45;&gt;Node9</title>
<path fill="none" stroke="midnightblue" d="M445.76,-64.85C485.7,-54.25 536.87,-40.68 574.81,-30.61"/>
<polygon fill="midnightblue" stroke="midnightblue" points="444.63,-61.53 435.86,-67.48 446.42,-68.29 444.63,-61.53"/>
</g>
<!-- Node10 -->
<g id="node10" class="node">
<title>Node10</title>
<g id="a_node10"><a xlink:href="general__manager_8cpp.html" target="_top" xlink:title=" ">
<polygon fill="white" stroke="black" points="313.5,-6 313.5,-25 452.5,-25 452.5,-6 313.5,-6"/>
<text text-anchor="middle" x="383" y="-13" font-family="Helvetica,sans-Serif" font-size="10.00">src/general_manager.cpp</text>
</a>
</g>
</g>
<!-- Node8&#45;&gt;Node10 -->
<g id="edge9" class="edge">
<title>Node8&#45;&gt;Node10</title>
<path fill="none" stroke="midnightblue" d="M383,-57.25C383,-46.02 383,-33.38 383,-25.19"/>
<polygon fill="midnightblue" stroke="midnightblue" points="379.5,-57.4 383,-67.4 386.5,-57.4 379.5,-57.4"/>
</g>
<!-- Node13&#45;&gt;Node7 -->
<g id="edge14" class="edge">
<title>Node13&#45;&gt;Node7</title>
<path fill="none" stroke="midnightblue" d="M415.25,-208.13C441.46,-195.68 472.64,-180.87 495.05,-170.23"/>
<polygon fill="midnightblue" stroke="midnightblue" points="413.74,-204.98 406.2,-212.43 416.74,-211.3 413.74,-204.98"/>
</g>
<!-- Node14 -->
<g id="node14" class="node">
<title>Node14</title>
<g id="a_node14"><a xlink:href="onnx__importer__helpers_8cpp.html" target="_top" xlink:title=" ">
<polygon fill="white" stroke="black" points="286,-140 286,-170 438,-170 438,-140 286,-140"/>
<text text-anchor="start" x="294" y="-158" font-family="Helvetica,sans-Serif" font-size="10.00">src/IO_Interaction</text>
<text text-anchor="middle" x="362" y="-147" font-family="Helvetica,sans-Serif" font-size="10.00">/onnx_importer_helpers.cpp</text>
</a>
</g>
</g>
<!-- Node13&#45;&gt;Node14 -->
<g id="edge15" class="edge">
<title>Node13&#45;&gt;Node14</title>
<path fill="none" stroke="midnightblue" d="M363.83,-202.28C363.39,-191.25 362.92,-179.25 362.56,-170.23"/>
<polygon fill="midnightblue" stroke="midnightblue" points="360.34,-202.57 364.23,-212.43 367.33,-202.3 360.34,-202.57"/>
</g>
<!-- Node15&#45;&gt;Node16 -->
<g id="edge18" class="edge">
<title>Node15&#45;&gt;Node16</title>
<path fill="none" stroke="midnightblue" d="M293.03,-614.32C292.62,-602.99 292.2,-589.3 292,-577 290.95,-512.59 287.32,-489.91 321,-435 329.34,-421.4 341.62,-408.63 352.56,-398.73"/>
<polygon fill="midnightblue" stroke="midnightblue" points="289.54,-614.47 293.41,-624.34 296.53,-614.21 289.54,-614.47"/>
</g>
<!-- Node16&#45;&gt;Node5 -->
<g id="edge19" class="edge">
<title>Node16&#45;&gt;Node5</title>
<path fill="none" stroke="midnightblue" d="M419.4,-352.3C437.57,-341.71 458.14,-329.72 473.68,-320.67"/>
<polygon fill="midnightblue" stroke="midnightblue" points="417.58,-349.3 410.71,-357.36 421.11,-355.35 417.58,-349.3"/>
</g>
<!-- Node17&#45;&gt;Node5 -->
<g id="edge22" class="edge">
<title>Node17&#45;&gt;Node5</title>
<path fill="none" stroke="midnightblue" d="M278.81,-360.53C283.61,-359.33 288.38,-358.15 293,-357 342.81,-344.64 399.45,-330.7 440.55,-320.6"/>
<polygon fill="midnightblue" stroke="midnightblue" points="277.8,-357.17 268.94,-362.99 279.49,-363.97 277.8,-357.17"/>
</g>
<!-- Node19 -->
<g id="node19" class="node">
<title>Node19</title>
<g id="a_node19"><a xlink:href="block__aMLLibrary__weight__importer_8h.html" target="_top" xlink:title=" ">
<polygon fill="white" stroke="black" points="534,-524.5 534,-576.5 704,-576.5 704,-524.5 534,-524.5"/>
<text text-anchor="start" x="542" y="-564.5" font-family="Helvetica,sans-Serif" font-size="10.00">include/network_butcher</text>
<text text-anchor="start" x="542" y="-553.5" font-family="Helvetica,sans-Serif" font-size="10.00">/IO_Interaction/Weight</text>
<text text-anchor="start" x="542" y="-542.5" font-family="Helvetica,sans-Serif" font-size="10.00">_Importer_Helpers/block</text>
<text text-anchor="middle" x="619" y="-531.5" font-family="Helvetica,sans-Serif" font-size="10.00">_aMLLibrary_weight_importer.h</text>
</a>
</g>
</g>
<!-- Node18&#45;&gt;Node19 -->
<g id="edge26" class="edge">
<title>Node18&#45;&gt;Node19</title>
<path fill="none" stroke="midnightblue" d="M567.3,-696.92C579.46,-688.46 590.89,-678.19 599,-666 616.77,-639.29 620.18,-601.59 620.22,-576.85"/>
<polygon fill="midnightblue" stroke="midnightblue" points="565.25,-694.07 558.8,-702.48 569.08,-699.93 565.25,-694.07"/>
</g>
<!-- Node22 -->
<g id="node22" class="node">
<title>Node22</title>
<g id="a_node22"><a xlink:href="csv__weight__importer_8h.html" target="_top" xlink:title=" ">
<polygon fill="white" stroke="black" points="426,-613.5 426,-665.5 590,-665.5 590,-613.5 426,-613.5"/>
<text text-anchor="start" x="434" y="-653.5" font-family="Helvetica,sans-Serif" font-size="10.00">include/network_butcher</text>
<text text-anchor="start" x="434" y="-642.5" font-family="Helvetica,sans-Serif" font-size="10.00">/IO_Interaction/Weight</text>
<text text-anchor="start" x="434" y="-631.5" font-family="Helvetica,sans-Serif" font-size="10.00">_Importer_Helpers/csv_weight</text>
<text text-anchor="middle" x="508" y="-620.5" font-family="Helvetica,sans-Serif" font-size="10.00">_importer.h</text>
</a>
</g>
</g>
<!-- Node18&#45;&gt;Node22 -->
<g id="edge32" class="edge">
<title>Node18&#45;&gt;Node22</title>
<path fill="none" stroke="midnightblue" d="M505.03,-692.19C505.54,-683.28 506.08,-673.9 506.56,-665.61"/>
<polygon fill="midnightblue" stroke="midnightblue" points="501.53,-692.15 504.45,-702.34 508.51,-692.55 501.53,-692.15"/>
</g>
<!-- Node20 -->
<g id="node20" class="node">
<title>Node20</title>
<g id="a_node20"><a xlink:href="weight__importers_8h.html" target="_top" xlink:title=" ">
<polygon fill="white" stroke="black" points="394.5,-441 394.5,-482 531.5,-482 531.5,-441 394.5,-441"/>
<text text-anchor="start" x="402.5" y="-470" font-family="Helvetica,sans-Serif" font-size="10.00">include/network_butcher</text>
<text text-anchor="start" x="402.5" y="-459" font-family="Helvetica,sans-Serif" font-size="10.00">/IO_Interaction/weight</text>
<text text-anchor="middle" x="463" y="-448" font-family="Helvetica,sans-Serif" font-size="10.00">_importers.h</text>
</a>
</g>
</g>
<!-- Node19&#45;&gt;Node20 -->
<g id="edge27" class="edge">
<title>Node19&#45;&gt;Node20</title>
<path fill="none" stroke="midnightblue" d="M564.91,-519.34C542.78,-506.99 517.8,-493.06 498.11,-482.08"/>
<polygon fill="midnightblue" stroke="midnightblue" points="563.44,-522.52 573.88,-524.34 566.85,-516.41 563.44,-522.52"/>
</g>
<!-- Node21 -->
<g id="node21" class="node">
<title>Node21</title>
<g id="a_node21"><a xlink:href="block__aMLLibrary__weight__importer_8cpp.html" target="_top" xlink:title=" ">
<polygon fill="white" stroke="black" points="549.5,-435.5 549.5,-487.5 692.5,-487.5 692.5,-435.5 549.5,-435.5"/>
<text text-anchor="start" x="557.5" y="-475.5" font-family="Helvetica,sans-Serif" font-size="10.00">src/IO_Interaction</text>
<text text-anchor="start" x="557.5" y="-464.5" font-family="Helvetica,sans-Serif" font-size="10.00">/Weight_Importer_Helpers</text>
<text text-anchor="start" x="557.5" y="-453.5" font-family="Helvetica,sans-Serif" font-size="10.00">/block_aMLLibrary_weight</text>
<text text-anchor="middle" x="621" y="-442.5" font-family="Helvetica,sans-Serif" font-size="10.00">_importer.cpp</text>
</a>
</g>
</g>
<!-- Node19&#45;&gt;Node21 -->
<g id="edge31" class="edge">
<title>Node19&#45;&gt;Node21</title>
<path fill="none" stroke="midnightblue" d="M619.81,-514.19C620.02,-505.28 620.23,-495.9 620.42,-487.61"/>
<polygon fill="midnightblue" stroke="midnightblue" points="616.31,-514.26 619.58,-524.34 623.31,-514.42 616.31,-514.26"/>
</g>
<!-- Node20&#45;&gt;Node5 -->
<g id="edge28" class="edge">
<title>Node20&#45;&gt;Node5</title>
<path fill="none" stroke="midnightblue" d="M479.99,-431.71C485.1,-421.68 490.11,-410.15 493,-399 500.03,-371.91 499.81,-338.92 498.95,-320.55"/>
<polygon fill="midnightblue" stroke="midnightblue" points="476.76,-430.32 475.14,-440.79 482.94,-433.62 476.76,-430.32"/>
</g>
<!-- Node20&#45;&gt;Node7 -->
<g id="edge30" class="edge">
<title>Node20&#45;&gt;Node7</title>
<path fill="none" stroke="midnightblue" d="M494.15,-433.95C521.66,-408.28 559.83,-366.65 576,-321 595.52,-265.89 555.71,-199 535.63,-170.25"/>
<polygon fill="midnightblue" stroke="midnightblue" points="491.72,-431.43 486.7,-440.76 496.44,-436.59 491.72,-431.43"/>
</g>
<!-- Node20&#45;&gt;Node16 -->
<g id="edge29" class="edge">
<title>Node20&#45;&gt;Node16</title>
<path fill="none" stroke="midnightblue" d="M434.89,-433.86C422.75,-422.35 408.79,-409.13 397.63,-398.55"/>
<polygon fill="midnightblue" stroke="midnightblue" points="432.52,-436.43 442.18,-440.77 437.33,-431.35 432.52,-436.43"/>
</g>
<!-- Node22&#45;&gt;Node19 -->
<g id="edge33" class="edge">
<title>Node22&#45;&gt;Node19</title>
<path fill="none" stroke="midnightblue" d="M548.27,-606.93C561,-596.96 574.89,-586.07 586.97,-576.61"/>
<polygon fill="midnightblue" stroke="midnightblue" points="545.82,-604.41 540.11,-613.34 550.14,-609.92 545.82,-604.41"/>
</g>
<!-- Node22&#45;&gt;Node20 -->
<g id="edge34" class="edge">
<title>Node22&#45;&gt;Node20</title>
<path fill="none" stroke="midnightblue" d="M418.56,-609.76C393.16,-599.69 370.36,-588.12 363,-577 350,-557.36 351.51,-544.56 363,-524 373.39,-505.41 391.96,-491.75 410.3,-482.09"/>
<polygon fill="midnightblue" stroke="midnightblue" points="417.42,-613.07 428.01,-613.39 419.94,-606.54 417.42,-613.07"/>
</g>
<!-- Node23 -->
<g id="node23" class="node">
<title>Node23</title>
<g id="a_node23"><a xlink:href="csv__weight__importer_8cpp.html" target="_top" xlink:title=" ">
<polygon fill="white" stroke="black" points="372.5,-530 372.5,-571 515.5,-571 515.5,-530 372.5,-530"/>
<text text-anchor="start" x="380.5" y="-559" font-family="Helvetica,sans-Serif" font-size="10.00">src/IO_Interaction</text>
<text text-anchor="start" x="380.5" y="-548" font-family="Helvetica,sans-Serif" font-size="10.00">/Weight_Importer_Helpers</text>
<text text-anchor="middle" x="444" y="-537" font-family="Helvetica,sans-Serif" font-size="10.00">/csv_weight_importer.cpp</text>
</a>
</g>
</g>
<!-- Node22&#45;&gt;Node23 -->
<g id="edge35" class="edge">
<title>Node22&#45;&gt;Node23</title>
<path fill="none" stroke="midnightblue" d="M483.49,-605.18C475.01,-593.66 465.8,-581.13 458.41,-571.08"/>
<polygon fill="midnightblue" stroke="midnightblue" points="480.74,-607.35 489.49,-613.34 486.38,-603.21 480.74,-607.35"/>
</g>
<!-- Node24&#45;&gt;Node5 -->
<g id="edge38" class="edge">
<title>Node24&#45;&gt;Node5</title>
<path fill="none" stroke="midnightblue" d="M393.76,-781.4C397.1,-743.99 399.83,-670.26 378,-613 370.78,-594.06 356.58,-596.17 350,-577 342.36,-554.72 345.61,-547.14 350,-524 357.92,-482.24 356.06,-466.13 385,-435 410.18,-407.92 434.62,-425.89 460,-399 481.21,-376.53 491.3,-340.59 495.47,-320.77"/>
<polygon fill="midnightblue" stroke="midnightblue" points="390.28,-781.08 392.78,-791.37 397.24,-781.76 390.28,-781.08"/>
</g>
<!-- Node24&#45;&gt;Node13 -->
<g id="edge40" class="edge">
<title>Node24&#45;&gt;Node13</title>
<path fill="none" stroke="midnightblue" d="M356.72,-786.23C316.84,-762.37 251.1,-718.4 209,-666 146.49,-588.19 114,-562.31 114,-462.5 114,-462.5 114,-462.5 114,-377 114,-332.49 234.67,-280.96 308.67,-253.54"/>
<polygon fill="midnightblue" stroke="midnightblue" points="355.15,-789.36 365.54,-791.43 358.71,-783.34 355.15,-789.36"/>
</g>
<!-- Node24&#45;&gt;Node15 -->
<g id="edge39" class="edge">
<title>Node24&#45;&gt;Node15</title>
<path fill="none" stroke="midnightblue" d="M377.47,-782.49C357.06,-747.76 318.98,-683 302.25,-654.53"/>
<polygon fill="midnightblue" stroke="midnightblue" points="374.64,-784.59 382.73,-791.43 380.68,-781.04 374.64,-784.59"/>
</g>
<!-- Node24&#45;&gt;Node18 -->
<g id="edge41" class="edge">
<title>Node24&#45;&gt;Node18</title>
<path fill="none" stroke="midnightblue" d="M420.1,-785.75C434.11,-776.24 451.07,-764.74 465.99,-754.62"/>
<polygon fill="midnightblue" stroke="midnightblue" points="418.11,-782.87 411.8,-791.38 422.04,-788.66 418.11,-782.87"/>
</g>
<!-- Node25&#45;&gt;Node4 -->
<g id="edge43" class="edge">
<title>Node25&#45;&gt;Node4</title>
<path fill="none" stroke="midnightblue" d="M508.61,-985.59C476.93,-958.44 422.49,-911.78 395.36,-888.52"/>
<polygon fill="midnightblue" stroke="midnightblue" points="506.65,-988.52 516.52,-992.37 511.2,-983.21 506.65,-988.52"/>
</g>
<!-- Node26 -->
<g id="node26" class="node">
<title>Node26</title>
<g id="a_node26"><a xlink:href="wgraph_8h.html" target="_top" xlink:title=" ">
<polygon fill="white" stroke="black" points="483.5,-925.5 483.5,-955.5 620.5,-955.5 620.5,-925.5 483.5,-925.5"/>
<text text-anchor="start" x="491.5" y="-943.5" font-family="Helvetica,sans-Serif" font-size="10.00">include/network_butcher</text>
<text text-anchor="middle" x="552" y="-932.5" font-family="Helvetica,sans-Serif" font-size="10.00">/Network/wgraph.h</text>
</a>
</g>
</g>
<!-- Node25&#45;&gt;Node26 -->
<g id="edge44" class="edge">
<title>Node25&#45;&gt;Node26</title>
<path fill="none" stroke="midnightblue" d="M539.96,-982.7C542.62,-973.59 545.57,-963.49 547.89,-955.58"/>
<polygon fill="midnightblue" stroke="midnightblue" points="536.57,-981.82 537.12,-992.4 543.29,-983.78 536.57,-981.82"/>
</g>
<!-- Node26&#45;&gt;Node4 -->
<g id="edge50" class="edge">
<title>Node26&#45;&gt;Node4</title>
<path fill="none" stroke="midnightblue" d="M504.94,-921.82C477.13,-911.37 442.41,-898.32 416.47,-888.58"/>
<polygon fill="midnightblue" stroke="midnightblue" points="503.87,-925.16 514.46,-925.4 506.33,-918.6 503.87,-925.16"/>
</g>
<!-- Node27 -->
<g id="node27" class="node">
<title>Node27</title>
<g id="a_node27"><a xlink:href="computer__memory_8h.html" target="_top" xlink:title=" ">
<polygon fill="white" stroke="black" points="648.5,-713.5 648.5,-743.5 819.5,-743.5 819.5,-713.5 648.5,-713.5"/>
<text text-anchor="start" x="656.5" y="-731.5" font-family="Helvetica,sans-Serif" font-size="10.00">include/network_butcher</text>
<text text-anchor="middle" x="734" y="-720.5" font-family="Helvetica,sans-Serif" font-size="10.00">/Computer/computer_memory.h</text>
</a>
</g>
</g>
<!-- Node26&#45;&gt;Node27 -->
<g id="edge45" class="edge">
<title>Node26&#45;&gt;Node27</title>
<path fill="none" stroke="midnightblue" d="M570.86,-917.74C608.23,-874.62 690.74,-779.42 721.83,-743.54"/>
<polygon fill="midnightblue" stroke="midnightblue" points="568.13,-915.55 564.22,-925.4 573.42,-920.13 568.13,-915.55"/>
</g>
<!-- Node27&#45;&gt;Node5 -->
<g id="edge46" class="edge">
<title>Node27&#45;&gt;Node5</title>
<path fill="none" stroke="midnightblue" d="M741.94,-703.5C762.43,-636.46 808.75,-446.34 708,-357 687.13,-338.5 619.61,-324.45 566.7,-315.92"/>
<polygon fill="midnightblue" stroke="midnightblue" points="738.56,-702.57 738.9,-713.16 745.24,-704.67 738.56,-702.57"/>
</g>
<!-- Node27&#45;&gt;Node9 -->
<g id="edge49" class="edge">
<title>Node27&#45;&gt;Node9</title>
<path fill="none" stroke="midnightblue" d="M750.33,-705C772.13,-672.71 808,-610.58 808,-551.5 808,-551.5 808,-551.5 808,-154 808,-87.93 730.48,-49.36 677.19,-30.65"/>
<polygon fill="midnightblue" stroke="midnightblue" points="747.41,-703.08 744.6,-713.29 753.17,-707.06 747.41,-703.08"/>
</g>
<!-- Node27&#45;&gt;Node15 -->
<g id="edge47" class="edge">
<title>Node27&#45;&gt;Node15</title>
<path fill="none" stroke="midnightblue" d="M650.26,-711.56C586.31,-699.31 496.04,-681.86 417,-666 398.83,-662.35 379.16,-658.32 361,-654.55"/>
<polygon fill="midnightblue" stroke="midnightblue" points="649.81,-715.03 660.29,-713.48 651.12,-708.16 649.81,-715.03"/>
</g>
<!-- Node27&#45;&gt;Node19 -->
<g id="edge48" class="edge">
<title>Node27&#45;&gt;Node19</title>
<path fill="none" stroke="midnightblue" d="M719.22,-704.88C697.67,-671.9 657.75,-610.8 635.34,-576.51"/>
<polygon fill="midnightblue" stroke="midnightblue" points="716.38,-706.94 724.78,-713.39 722.24,-703.11 716.38,-706.94"/>
</g>
<!-- Node28&#45;&gt;Node3 -->
<g id="edge52" class="edge">
<title>Node28&#45;&gt;Node3</title>
<path fill="none" stroke="midnightblue" d="M533,-1116.11C533,-1107.15 533,-1097.32 533,-1089.58"/>
<polygon fill="midnightblue" stroke="midnightblue" points="529.5,-1116.4 533,-1126.4 536.5,-1116.4 529.5,-1116.4"/>
</g>
<!-- Node29&#45;&gt;Node3 -->
<g id="edge55" class="edge">
<title>Node29&#45;&gt;Node3</title>
<path fill="none" stroke="midnightblue" d="M449.7,-1182.98C446.71,-1165.97 445.57,-1143.34 455,-1126 463.94,-1109.56 480.79,-1097.65 496.55,-1089.54"/>
<polygon fill="midnightblue" stroke="midnightblue" points="446.38,-1184.17 451.85,-1193.24 453.23,-1182.74 446.38,-1184.17"/>
</g>
<!-- Node29&#45;&gt;Node4 -->
<g id="edge54" class="edge">
<title>Node29&#45;&gt;Node4</title>
<path fill="none" stroke="midnightblue" d="M433.78,-1185.97C411.04,-1161.52 379,-1119.31 379,-1075.5 379,-1075.5 379,-1075.5 379,-1006.5 379,-963.65 379,-912.97 379,-888.76"/>
<polygon fill="midnightblue" stroke="midnightblue" points="431.34,-1188.48 440.79,-1193.26 436.38,-1183.63 431.34,-1188.48"/>
</g>
<!-- Node29&#45;&gt;Node28 -->
<g id="edge56" class="edge">
<title>Node29&#45;&gt;Node28</title>
<path fill="none" stroke="midnightblue" d="M480.42,-1186.88C492.12,-1177.01 505.84,-1165.43 516.32,-1156.58"/>
<polygon fill="midnightblue" stroke="midnightblue" points="478.09,-1184.27 472.71,-1193.4 482.61,-1189.62 478.09,-1184.27"/>
</g>
<!-- Node30&#45;&gt;Node1 -->
<g id="edge65" class="edge">
<title>Node30&#45;&gt;Node1</title>
<path fill="none" stroke="midnightblue" d="M869.26,-825.88C828.08,-846.45 770,-884.29 770,-939.5 770,-1142.5 770,-1142.5 770,-1142.5 770,-1185.35 770,-1236.03 766.49,-1260.24"/>
<polygon fill="midnightblue" stroke="midnightblue" points="870.81,-829.02 878.28,-821.51 867.76,-822.72 870.81,-829.02"/>
</g>
<!-- Node30&#45;&gt;Node5 -->
<g id="edge58" class="edge">
<title>Node30&#45;&gt;Node5</title>
<path fill="none" stroke="midnightblue" d="M953.61,-786.63C967.27,-778.76 981.03,-768.3 990,-755 1018.87,-712.16 1010,-692.16 1010,-640.5 1010,-640.5 1010,-640.5 1010,-460.5 1010,-368.95 706.03,-327.05 566.52,-312.65"/>
<polygon fill="midnightblue" stroke="midnightblue" points="951.85,-783.61 944.71,-791.43 955.17,-789.77 951.85,-783.61"/>
</g>
<!-- Node30&#45;&gt;Node9 -->
<g id="edge64" class="edge">
<title>Node30&#45;&gt;Node9</title>
<path fill="none" stroke="midnightblue" d="M967.76,-787.52C984.68,-779.86 1001.83,-769.29 1014,-755 1048.42,-714.59 1048,-693.59 1048,-640.5 1048,-640.5 1048,-640.5 1048,-154 1048,-81.02 816.04,-40.57 696.88,-24.61"/>
<polygon fill="midnightblue" stroke="midnightblue" points="966.26,-784.36 958.42,-791.49 968.99,-790.8 966.26,-784.36"/>
</g>
<!-- Node30&#45;&gt;Node27 -->
<g id="edge59" class="edge">
<title>Node30&#45;&gt;Node27</title>
<path fill="none" stroke="midnightblue" d="M867.26,-787.37C836.32,-773.94 794.76,-755.89 766.33,-743.54"/>
<polygon fill="midnightblue" stroke="midnightblue" points="865.93,-790.61 876.49,-791.38 868.72,-784.19 865.93,-790.61"/>
</g>
<!-- Node31 -->
<g id="node31" class="node">
<title>Node31</title>
<g id="a_node31"><a xlink:href="weight__importer__utils_8h.html" target="_top" xlink:title=" ">
<polygon fill="white" stroke="black" points="837.5,-702.5 837.5,-754.5 980.5,-754.5 980.5,-702.5 837.5,-702.5"/>
<text text-anchor="start" x="845.5" y="-742.5" font-family="Helvetica,sans-Serif" font-size="10.00">include/network_butcher</text>
<text text-anchor="start" x="845.5" y="-731.5" font-family="Helvetica,sans-Serif" font-size="10.00">/IO_Interaction/Weight</text>
<text text-anchor="start" x="845.5" y="-720.5" font-family="Helvetica,sans-Serif" font-size="10.00">_Importer_Helpers/weight</text>
<text text-anchor="middle" x="909" y="-709.5" font-family="Helvetica,sans-Serif" font-size="10.00">_importer_utils.h</text>
</a>
</g>
</g>
<!-- Node30&#45;&gt;Node31 -->
<g id="edge60" class="edge">
<title>Node30&#45;&gt;Node31</title>
<path fill="none" stroke="midnightblue" d="M909,-781.14C909,-772.63 909,-763.07 909,-754.5"/>
<polygon fill="midnightblue" stroke="midnightblue" points="905.5,-781.2 909,-791.2 912.5,-781.21 905.5,-781.2"/>
</g>
<!-- Node33 -->
<g id="node33" class="node">
<title>Node33</title>
<g id="a_node33"><a xlink:href="utilities_8cpp.html" target="_top" xlink:title=" ">
<polygon fill="white" stroke="black" points="1076.5,-719 1076.5,-738 1167.5,-738 1167.5,-719 1076.5,-719"/>
<text text-anchor="middle" x="1122" y="-726" font-family="Helvetica,sans-Serif" font-size="10.00">src/utilities.cpp</text>
</a>
</g>
</g>
<!-- Node30&#45;&gt;Node33 -->
<g id="edge66" class="edge">
<title>Node30&#45;&gt;Node33</title>
<path fill="none" stroke="midnightblue" d="M964.49,-788.41C993.71,-779.1 1030.02,-767.05 1062,-755 1075.87,-749.77 1091.26,-743.22 1102.98,-738.06"/>
<polygon fill="midnightblue" stroke="midnightblue" points="963.35,-785.1 954.87,-791.46 965.46,-791.77 963.35,-785.1"/>
</g>
<!-- Node31&#45;&gt;Node19 -->
<g id="edge61" class="edge">
<title>Node31&#45;&gt;Node19</title>
<path fill="none" stroke="midnightblue" d="M859.06,-697.19C802.98,-663.15 712.97,-608.53 660.57,-576.73"/>
<polygon fill="midnightblue" stroke="midnightblue" points="857.39,-700.27 867.76,-702.47 861.03,-694.29 857.39,-700.27"/>
</g>
<!-- Node31&#45;&gt;Node22 -->
<g id="edge62" class="edge">
<title>Node31&#45;&gt;Node22</title>
<path fill="none" stroke="midnightblue" d="M827.28,-701.66C741.69,-680.29 652.85,-663.99 590.06,-653.45"/>
<polygon fill="midnightblue" stroke="midnightblue" points="826.61,-705.1 837.16,-704.16 828.32,-698.31 826.61,-705.1"/>
</g>
<!-- Node32 -->
<g id="node32" class="node">
<title>Node32</title>
<g id="a_node32"><a xlink:href="weight__importer__utils_8cpp.html" target="_top" xlink:title=" ">
<polygon fill="white" stroke="black" points="836,-619 836,-660 982,-660 982,-619 836,-619"/>
<text text-anchor="start" x="844" y="-648" font-family="Helvetica,sans-Serif" font-size="10.00">src/IO_Interaction</text>
<text text-anchor="start" x="844" y="-637" font-family="Helvetica,sans-Serif" font-size="10.00">/Weight_Importer_Helpers</text>
<text text-anchor="middle" x="909" y="-626" font-family="Helvetica,sans-Serif" font-size="10.00">/weight_importer_utils.cpp</text>
</a>
</g>
</g>
<!-- Node31&#45;&gt;Node32 -->
<g id="edge63" class="edge">
<title>Node31&#45;&gt;Node32</title>
<path fill="none" stroke="midnightblue" d="M909,-692.16C909,-681.21 909,-669.55 909,-660.08"/>
<polygon fill="midnightblue" stroke="midnightblue" points="905.5,-692.34 909,-702.34 912.5,-692.34 905.5,-692.34"/>
</g>
</g>
</svg>
        <g id="navigator" transform="translate(0 0)" fill="#404254">
                <rect fill="#f2f5e9" fill-opacity="0.5" stroke="#606060" stroke-width=".5" x="0" y="0" width="60" height="60"/>
                <use id="zoomplus" xlink:href="#zoomPlus" x="17" y="9" onmousedown="handleZoom(evt,'in')"/>
                <use id="zoomminus" xlink:href="#zoomMin" x="42" y="9" onmousedown="handleZoom(evt,'out')"/>
                <use id="reset" xlink:href="#resetDef" x="30" y="36" onmousedown="handleReset()"/>
                <g id="arrowUp" xlink:href="#dirArrow" transform="translate(30 24)" onmousedown="handlePan(0,-1)">
                  <use xlink:href="#rim" fill="#404040">
                        <set attributeName="fill" to="#808080" begin="arrowUp.mouseover" end="arrowUp.mouseout"/>
                  </use>
                  <path fill="none" stroke="white" stroke-width="1.5" d="M0,-3.0v7 M-2.5,-0.5L0,-3.0L2.5,-0.5"/>
                </g>
                <g id="arrowRight" xlink:href="#dirArrow" transform="rotate(90) translate(36 -43)" onmousedown="handlePan(1,0)">
                  <use xlink:href="#rim" fill="#404040">
                        <set attributeName="fill" to="#808080" begin="arrowRight.mouseover" end="arrowRight.mouseout"/>
                  </use>
                  <path fill="none" stroke="white" stroke-width="1.5" d="M0,-3.0v7 M-2.5,-0.5L0,-3.0L2.5,-0.5"/>
                </g>
                <g id="arrowDown" xlink:href="#dirArrow" transform="rotate(180) translate(-30 -48)" onmousedown="handlePan(0,1)">
                  <use xlink:href="#rim" fill="#404040">
                        <set attributeName="fill" to="#808080" begin="arrowDown.mouseover" end="arrowDown.mouseout"/>
                  </use>
                  <path fill="none" stroke="white" stroke-width="1.5" d="M0,-3.0v7 M-2.5,-0.5L0,-3.0L2.5,-0.5"/>
                </g>
                <g id="arrowLeft" xlink:href="#dirArrow" transform="rotate(270) translate(-36 17)" onmousedown="handlePan(-1,0)">
                  <use xlink:href="#rim" fill="#404040">
                        <set attributeName="fill" to="#808080" begin="arrowLeft.mouseover" end="arrowLeft.mouseout"/>
                  </use>
                  <path fill="none" stroke="white" stroke-width="1.5" d="M0,-3.0v7 M-2.5,-0.5L0,-3.0L2.5,-0.5"/>
                </g>
        </g>
        <svg viewBox="0 0 15 15" width="100%" height="30px" preserveAspectRatio="xMaxYMin meet">
         <g id="arrow_out" transform="scale(0.3 0.3)">
          <a xlink:href="dense__tensor_8h__dep__incl_org.svg" target="_base">
           <rect id="button" ry="5" rx="5" y="6" x="6" height="38" width="38"
                fill="#f2f5e9" fill-opacity="0.5" stroke="#606060" stroke-width="1.0"/>
           <path id="arrow"
             d="M 11.500037,31.436501 C 11.940474,20.09759 22.043105,11.32322 32.158766,21.979434 L 37.068811,17.246167 C 37.068811,17.246167 37.088388,32 37.088388,32 L 22.160133,31.978069 C 22.160133,31.978069 26.997745,27.140456 26.997745,27.140456 C 18.528582,18.264221 13.291696,25.230495 11.500037,31.436501 z"
             style="fill:#404040;"/>
          </a>
         </g>
        </svg>
</svg>
