<?xml version="1.0" encoding="UTF-8" standalone="no"?>
<!DOCTYPE svg PUBLIC "-//W3C//DTD SVG 1.1//EN"
 "http://www.w3.org/Graphics/SVG/1.1/DTD/svg11.dtd">
<!-- Generated by graphviz version 2.43.0 (0)
 -->
<!-- Title: src/Types/dense_tensor.cpp Pages: 1 -->
<svg width="674pt" height="308pt"
 viewBox="0.00 0.00 673.50 308.00" xmlns="http://www.w3.org/2000/svg" xmlns:xlink="http://www.w3.org/1999/xlink">
<g id="graph0" class="graph" transform="scale(1 1) rotate(0) translate(4 304)">
<title>src/Types/dense_tensor.cpp</title>
<polygon fill="white" stroke="transparent" points="-4,4 -4,-304 669.5,-304 669.5,4 -4,4"/>
<!-- Node1 -->
<g id="node1" class="node">
<title>Node1</title>
<g id="a_node1"><a xlink:title=" ">
<polygon fill="#bfbfbf" stroke="black" points="51,-280.5 51,-299.5 200,-299.5 200,-280.5 51,-280.5"/>
<text text-anchor="middle" x="125.5" y="-287.5" font-family="Helvetica,sans-Serif" font-size="10.00">src/Types/dense_tensor.cpp</text>
</a>
</g>
</g>
<!-- Node2 -->
<g id="node2" class="node">
<title>Node2</title>
<g id="a_node2"><a xlink:href="dense__tensor_8h.html" target="_top" xlink:title=" ">
<polygon fill="white" stroke="black" points="80.5,-224.5 80.5,-243.5 170.5,-243.5 170.5,-224.5 80.5,-224.5"/>
<text text-anchor="middle" x="125.5" y="-231.5" font-family="Helvetica,sans-Serif" font-size="10.00">dense_tensor.h</text>
</a>
</g>
</g>
<!-- Node1&#45;&gt;Node2 -->
<g id="edge1" class="edge">
<title>Node1&#45;&gt;Node2</title>
<path fill="none" stroke="midnightblue" d="M125.5,-280.08C125.5,-273.01 125.5,-262.86 125.5,-253.99"/>
<polygon fill="midnightblue" stroke="midnightblue" points="129,-253.75 125.5,-243.75 122,-253.75 129,-253.75"/>
</g>
<!-- Node3 -->
<g id="node3" class="node">
<title>Node3</title>
<g id="a_node3"><a xlink:href="type__info_8h.html" target="_top" xlink:title=" ">
<polygon fill="white" stroke="black" points="153,-56.5 153,-75.5 224,-75.5 224,-56.5 153,-56.5"/>
<text text-anchor="middle" x="188.5" y="-63.5" font-family="Helvetica,sans-Serif" font-size="10.00">type_info.h</text>
</a>
</g>
</g>
<!-- Node2&#45;&gt;Node3 -->
<g id="edge2" class="edge">
<title>Node2&#45;&gt;Node3</title>
<path fill="none" stroke="midnightblue" d="M128.89,-224.08C138.85,-197.83 168.18,-120.55 181.62,-85.12"/>
<polygon fill="midnightblue" stroke="midnightblue" points="184.97,-86.16 185.25,-75.57 178.43,-83.68 184.97,-86.16"/>
</g>
<!-- Node5 -->
<g id="node5" class="node">
<title>Node5</title>
<g id="a_node5"><a xlink:title=" ">
<polygon fill="white" stroke="#bfbfbf" points="69,-0.5 69,-19.5 116,-19.5 116,-0.5 69,-0.5"/>
<text text-anchor="middle" x="92.5" y="-7.5" font-family="Helvetica,sans-Serif" font-size="10.00">vector</text>
</a>
</g>
</g>
<!-- Node2&#45;&gt;Node5 -->
<g id="edge26" class="edge">
<title>Node2&#45;&gt;Node5</title>
<path fill="none" stroke="midnightblue" d="M116.82,-224.48C95.05,-202.42 38.43,-140.62 18.5,-76 15.88,-67.51 14.14,-63.75 18.5,-56 27.35,-40.26 44.18,-29.39 59.55,-22.28"/>
<polygon fill="midnightblue" stroke="midnightblue" points="61.02,-25.46 68.85,-18.33 58.28,-19.01 61.02,-25.46"/>
</g>
<!-- Node7 -->
<g id="node7" class="node">
<title>Node7</title>
<g id="a_node7"><a xlink:href="variant__attribute_8h.html" target="_top" xlink:title=" ">
<polygon fill="white" stroke="black" points="28,-56.5 28,-75.5 135,-75.5 135,-56.5 28,-56.5"/>
<text text-anchor="middle" x="81.5" y="-63.5" font-family="Helvetica,sans-Serif" font-size="10.00">variant_attribute.h</text>
</a>
</g>
</g>
<!-- Node2&#45;&gt;Node7 -->
<g id="edge6" class="edge">
<title>Node2&#45;&gt;Node7</title>
<path fill="none" stroke="midnightblue" d="M122.67,-224.42C119.72,-215.4 115.07,-200.77 111.5,-188 101.4,-151.83 91.21,-109.1 85.69,-85.32"/>
<polygon fill="midnightblue" stroke="midnightblue" points="89.09,-84.51 83.44,-75.55 82.27,-86.08 89.09,-84.51"/>
</g>
<!-- Node9 -->
<g id="node9" class="node">
<title>Node9</title>
<g id="a_node9"><a xlink:href="utilities_8h.html" target="_top" xlink:title=" ">
<polygon fill="white" stroke="black" points="293.5,-168.5 293.5,-187.5 355.5,-187.5 355.5,-168.5 293.5,-168.5"/>
<text text-anchor="middle" x="324.5" y="-175.5" font-family="Helvetica,sans-Serif" font-size="10.00">utilities.h</text>
</a>
</g>
</g>
<!-- Node2&#45;&gt;Node9 -->
<g id="edge10" class="edge">
<title>Node2&#45;&gt;Node9</title>
<path fill="none" stroke="midnightblue" d="M151.94,-224.44C185.7,-214.7 244.12,-198.83 283.6,-188.66"/>
<polygon fill="midnightblue" stroke="midnightblue" points="284.63,-192.01 293.45,-186.14 282.89,-185.22 284.63,-192.01"/>
</g>
<!-- Node4 -->
<g id="node4" class="node">
<title>Node4</title>
<g id="a_node4"><a xlink:title=" ">
<polygon fill="white" stroke="#bfbfbf" points="155.5,-0.5 155.5,-19.5 199.5,-19.5 199.5,-0.5 155.5,-0.5"/>
<text text-anchor="middle" x="177.5" y="-7.5" font-family="Helvetica,sans-Serif" font-size="10.00">string</text>
</a>
</g>
</g>
<!-- Node3&#45;&gt;Node4 -->
<g id="edge3" class="edge">
<title>Node3&#45;&gt;Node4</title>
<path fill="none" stroke="midnightblue" d="M186.68,-56.08C185.23,-48.93 183.13,-38.64 181.31,-29.69"/>
<polygon fill="midnightblue" stroke="midnightblue" points="184.71,-28.85 179.28,-19.75 177.85,-30.25 184.71,-28.85"/>
</g>
<!-- Node3&#45;&gt;Node5 -->
<g id="edge4" class="edge">
<title>Node3&#45;&gt;Node5</title>
<path fill="none" stroke="midnightblue" d="M173.08,-56.32C157.96,-47.82 134.68,-34.73 117.03,-24.8"/>
<polygon fill="midnightblue" stroke="midnightblue" points="118.32,-21.51 107.89,-19.65 114.89,-27.61 118.32,-21.51"/>
</g>
<!-- Node6 -->
<g id="node6" class="node">
<title>Node6</title>
<g id="a_node6"><a xlink:href="starting__traits_8h.html" target="_top" xlink:title=" ">
<polygon fill="white" stroke="black" points="307.5,-0.5 307.5,-19.5 401.5,-19.5 401.5,-0.5 307.5,-0.5"/>
<text text-anchor="middle" x="354.5" y="-7.5" font-family="Helvetica,sans-Serif" font-size="10.00">starting_traits.h</text>
</a>
</g>
</g>
<!-- Node3&#45;&gt;Node6 -->
<g id="edge5" class="edge">
<title>Node3&#45;&gt;Node6</title>
<path fill="none" stroke="midnightblue" d="M214.8,-56.44C242.85,-47.32 287.44,-32.81 318.68,-22.65"/>
<polygon fill="midnightblue" stroke="midnightblue" points="319.89,-25.94 328.32,-19.52 317.73,-19.28 319.89,-25.94"/>
</g>
<!-- Node7&#45;&gt;Node4 -->
<g id="edge7" class="edge">
<title>Node7&#45;&gt;Node4</title>
<path fill="none" stroke="midnightblue" d="M96.92,-56.32C112.04,-47.82 135.32,-34.73 152.97,-24.8"/>
<polygon fill="midnightblue" stroke="midnightblue" points="155.11,-27.61 162.11,-19.65 151.68,-21.51 155.11,-27.61"/>
</g>
<!-- Node7&#45;&gt;Node5 -->
<g id="edge9" class="edge">
<title>Node7&#45;&gt;Node5</title>
<path fill="none" stroke="midnightblue" d="M83.32,-56.08C84.77,-48.93 86.87,-38.64 88.69,-29.69"/>
<polygon fill="midnightblue" stroke="midnightblue" points="92.15,-30.25 90.72,-19.75 85.29,-28.85 92.15,-30.25"/>
</g>
<!-- Node8 -->
<g id="node8" class="node">
<title>Node8</title>
<g id="a_node8"><a xlink:title=" ">
<polygon fill="white" stroke="#bfbfbf" points="0,-0.5 0,-19.5 51,-19.5 51,-0.5 0,-0.5"/>
<text text-anchor="middle" x="25.5" y="-7.5" font-family="Helvetica,sans-Serif" font-size="10.00">variant</text>
</a>
</g>
</g>
<!-- Node7&#45;&gt;Node8 -->
<g id="edge8" class="edge">
<title>Node7&#45;&gt;Node8</title>
<path fill="none" stroke="midnightblue" d="M72.5,-56.32C64.31,-48.42 51.99,-36.55 42.03,-26.94"/>
<polygon fill="midnightblue" stroke="midnightblue" points="44.29,-24.26 34.66,-19.83 39.43,-29.29 44.29,-24.26"/>
</g>
<!-- Node9&#45;&gt;Node2 -->
<g id="edge24" class="edge">
<title>Node9&#45;&gt;Node2</title>
<path fill="none" stroke="midnightblue" d="M298.2,-187.52C266.02,-196.8 211.3,-211.7 172.01,-221.89"/>
<polygon fill="midnightblue" stroke="midnightblue" points="170.93,-218.56 162.12,-224.44 172.68,-225.34 170.93,-218.56"/>
</g>
<!-- Node9&#45;&gt;Node3 -->
<g id="edge25" class="edge">
<title>Node9&#45;&gt;Node3</title>
<path fill="none" stroke="midnightblue" d="M293.29,-177.05C259.72,-175.22 207.78,-166.53 182.5,-132 172.68,-118.59 176.08,-99.22 180.77,-85.11"/>
<polygon fill="midnightblue" stroke="midnightblue" points="184.13,-86.13 184.42,-75.54 177.59,-83.64 184.13,-86.13"/>
</g>
<!-- Node10 -->
<g id="node10" class="node">
<title>Node10</title>
<g id="a_node10"><a xlink:title=" ">
<polygon fill="white" stroke="#bfbfbf" points="403.5,-112.5 403.5,-131.5 467.5,-131.5 467.5,-112.5 403.5,-112.5"/>
<text text-anchor="middle" x="435.5" y="-119.5" font-family="Helvetica,sans-Serif" font-size="10.00">algorithm</text>
</a>
</g>
</g>
<!-- Node9&#45;&gt;Node10 -->
<g id="edge11" class="edge">
<title>Node9&#45;&gt;Node10</title>
<path fill="none" stroke="midnightblue" d="M342.33,-168.32C360.22,-159.62 387.98,-146.12 408.55,-136.11"/>
<polygon fill="midnightblue" stroke="midnightblue" points="410.25,-139.18 417.71,-131.65 407.19,-132.88 410.25,-139.18"/>
</g>
<!-- Node11 -->
<g id="node11" class="node">
<title>Node11</title>
<g id="a_node11"><a xlink:title=" ">
<polygon fill="white" stroke="#bfbfbf" points="523.5,-112.5 523.5,-131.5 579.5,-131.5 579.5,-112.5 523.5,-112.5"/>
<text text-anchor="middle" x="551.5" y="-119.5" font-family="Helvetica,sans-Serif" font-size="10.00">numeric</text>
</a>
</g>
</g>
<!-- Node9&#45;&gt;Node11 -->
<g id="edge12" class="edge">
<title>Node9&#45;&gt;Node11</title>
<path fill="none" stroke="midnightblue" d="M355.59,-169.6C396.7,-159.82 469.13,-142.59 513.46,-132.05"/>
<polygon fill="midnightblue" stroke="midnightblue" points="514.37,-135.43 523.29,-129.71 512.75,-128.62 514.37,-135.43"/>
</g>
<!-- Node12 -->
<g id="node12" class="node">
<title>Node12</title>
<g id="a_node12"><a xlink:title=" ">
<polygon fill="white" stroke="#bfbfbf" points="597.5,-112.5 597.5,-131.5 665.5,-131.5 665.5,-112.5 597.5,-112.5"/>
<text text-anchor="middle" x="631.5" y="-119.5" font-family="Helvetica,sans-Serif" font-size="10.00">filesystem</text>
</a>
</g>
</g>
<!-- Node9&#45;&gt;Node12 -->
<g id="edge13" class="edge">
<title>Node9&#45;&gt;Node12</title>
<path fill="none" stroke="midnightblue" d="M355.86,-172.04C403.59,-164.42 497.57,-149.07 587.2,-132.19"/>
<polygon fill="midnightblue" stroke="midnightblue" points="588.08,-135.59 597.26,-130.29 586.78,-128.71 588.08,-135.59"/>
</g>
<!-- Node13 -->
<g id="node13" class="node">
<title>Node13</title>
<g id="a_node13"><a xlink:title=" ">
<polygon fill="white" stroke="#bfbfbf" points="192,-112.5 192,-131.5 247,-131.5 247,-112.5 192,-112.5"/>
<text text-anchor="middle" x="219.5" y="-119.5" font-family="Helvetica,sans-Serif" font-size="10.00">fstream</text>
</a>
</g>
</g>
<!-- Node9&#45;&gt;Node13 -->
<g id="edge14" class="edge">
<title>Node9&#45;&gt;Node13</title>
<path fill="none" stroke="midnightblue" d="M307.63,-168.32C290.79,-159.66 264.69,-146.24 245.26,-136.25"/>
<polygon fill="midnightblue" stroke="midnightblue" points="246.82,-133.12 236.33,-131.65 243.62,-139.34 246.82,-133.12"/>
</g>
<!-- Node14 -->
<g id="node14" class="node">
<title>Node14</title>
<g id="a_node14"><a xlink:title=" ">
<polygon fill="white" stroke="#bfbfbf" points="265.5,-112.5 265.5,-131.5 315.5,-131.5 315.5,-112.5 265.5,-112.5"/>
<text text-anchor="middle" x="290.5" y="-119.5" font-family="Helvetica,sans-Serif" font-size="10.00">ranges</text>
</a>
</g>
</g>
<!-- Node9&#45;&gt;Node14 -->
<g id="edge15" class="edge">
<title>Node9&#45;&gt;Node14</title>
<path fill="none" stroke="midnightblue" d="M318.89,-168.08C314.13,-160.53 307.18,-149.49 301.35,-140.23"/>
<polygon fill="midnightblue" stroke="midnightblue" points="304.3,-138.35 296.01,-131.75 298.38,-142.08 304.3,-138.35"/>
</g>
<!-- Node15 -->
<g id="node15" class="node">
<title>Node15</title>
<g id="a_node15"><a xlink:title=" ">
<polygon fill="white" stroke="#bfbfbf" points="463,-56.5 463,-75.5 528,-75.5 528,-56.5 463,-56.5"/>
<text text-anchor="middle" x="495.5" y="-63.5" font-family="Helvetica,sans-Serif" font-size="10.00">onnx.pb.h</text>
</a>
</g>
</g>
<!-- Node9&#45;&gt;Node15 -->
<g id="edge16" class="edge">
<title>Node9&#45;&gt;Node15</title>
<path fill="none" stroke="midnightblue" d="M355.69,-176.22C389.91,-173.67 444.25,-164.36 476.5,-132 488.55,-119.91 493.04,-100.63 494.67,-86.2"/>
<polygon fill="midnightblue" stroke="midnightblue" points="498.19,-86.13 495.46,-75.9 491.21,-85.6 498.19,-86.13"/>
</g>
<!-- Node16 -->
<g id="node16" class="node">
<title>Node16</title>
<g id="a_node16"><a xlink:href="traits_8h.html" target="_top" xlink:title=" ">
<polygon fill="white" stroke="black" points="334,-112.5 334,-131.5 385,-131.5 385,-112.5 334,-112.5"/>
<text text-anchor="middle" x="359.5" y="-119.5" font-family="Helvetica,sans-Serif" font-size="10.00">traits.h</text>
</a>
</g>
</g>
<!-- Node9&#45;&gt;Node16 -->
<g id="edge17" class="edge">
<title>Node9&#45;&gt;Node16</title>
<path fill="none" stroke="midnightblue" d="M330.28,-168.08C335.17,-160.53 342.33,-149.49 348.33,-140.23"/>
<polygon fill="midnightblue" stroke="midnightblue" points="351.33,-142.05 353.83,-131.75 345.45,-138.24 351.33,-142.05"/>
</g>
<!-- Node16&#45;&gt;Node3 -->
<g id="edge23" class="edge">
<title>Node16&#45;&gt;Node3</title>
<path fill="none" stroke="midnightblue" d="M333.9,-112.92C305.11,-103.82 258.1,-88.98 225.36,-78.64"/>
<polygon fill="midnightblue" stroke="midnightblue" points="226.28,-75.26 215.69,-75.59 224.17,-81.94 226.28,-75.26"/>
</g>
<!-- Node16&#45;&gt;Node6 -->
<g id="edge21" class="edge">
<title>Node16&#45;&gt;Node6</title>
<path fill="none" stroke="midnightblue" d="M376.65,-112.39C397.11,-100.85 427.18,-79.14 415.5,-56 408.69,-42.52 395.73,-32.08 383.5,-24.67"/>
<polygon fill="midnightblue" stroke="midnightblue" points="384.84,-21.41 374.41,-19.59 381.43,-27.52 384.84,-21.41"/>
</g>
<!-- Node16&#45;&gt;Node15 -->
<g id="edge22" class="edge">
<title>Node16&#45;&gt;Node15</title>
<path fill="none" stroke="midnightblue" d="M381.05,-112.44C403.53,-103.52 438.99,-89.44 464.48,-79.32"/>
<polygon fill="midnightblue" stroke="midnightblue" points="466.05,-82.46 474.05,-75.52 463.47,-75.95 466.05,-82.46"/>
</g>
<!-- Node17 -->
<g id="node17" class="node">
<title>Node17</title>
<g id="a_node17"><a xlink:title=" ">
<polygon fill="white" stroke="#bfbfbf" points="374.5,-56.5 374.5,-75.5 406.5,-75.5 406.5,-56.5 374.5,-56.5"/>
<text text-anchor="middle" x="390.5" y="-63.5" font-family="Helvetica,sans-Serif" font-size="10.00">set</text>
</a>
</g>
</g>
<!-- Node16&#45;&gt;Node17 -->
<g id="edge18" class="edge">
<title>Node16&#45;&gt;Node17</title>
<path fill="none" stroke="midnightblue" d="M364.62,-112.08C368.91,-104.61 375.16,-93.72 380.44,-84.52"/>
<polygon fill="midnightblue" stroke="midnightblue" points="383.53,-86.17 385.48,-75.75 377.46,-82.68 383.53,-86.17"/>
</g>
<!-- Node18 -->
<g id="node18" class="node">
<title>Node18</title>
<g id="a_node18"><a xlink:title=" ">
<polygon fill="white" stroke="#bfbfbf" points="242.5,-56.5 242.5,-75.5 280.5,-75.5 280.5,-56.5 242.5,-56.5"/>
<text text-anchor="middle" x="261.5" y="-63.5" font-family="Helvetica,sans-Serif" font-size="10.00">map</text>
</a>
</g>
</g>
<!-- Node16&#45;&gt;Node18 -->
<g id="edge19" class="edge">
<title>Node16&#45;&gt;Node18</title>
<path fill="none" stroke="midnightblue" d="M343.75,-112.32C328.18,-103.74 304.12,-90.49 286.04,-80.52"/>
<polygon fill="midnightblue" stroke="midnightblue" points="287.65,-77.42 277.21,-75.65 284.28,-83.55 287.65,-77.42"/>
</g>
<!-- Node19 -->
<g id="node19" class="node">
<title>Node19</title>
<g id="a_node19"><a xlink:title=" ">
<polygon fill="white" stroke="#bfbfbf" points="298.5,-56.5 298.5,-75.5 356.5,-75.5 356.5,-56.5 298.5,-56.5"/>
<text text-anchor="middle" x="327.5" y="-63.5" font-family="Helvetica,sans-Serif" font-size="10.00">memory</text>
</a>
</g>
</g>
<!-- Node16&#45;&gt;Node19 -->
<g id="edge20" class="edge">
<title>Node16&#45;&gt;Node19</title>
<path fill="none" stroke="midnightblue" d="M354.22,-112.08C349.79,-104.61 343.34,-93.72 337.88,-84.52"/>
<polygon fill="midnightblue" stroke="midnightblue" points="340.79,-82.57 332.69,-75.75 334.77,-86.14 340.79,-82.57"/>
</g>
</g>
</svg>
