<?xml version="1.0" encoding="UTF-8" standalone="no"?>
<!DOCTYPE svg PUBLIC "-//W3C//DTD SVG 1.1//EN"
 "http://www.w3.org/Graphics/SVG/1.1/DTD/svg11.dtd">
<!-- Generated by graphviz version 2.43.0 (0)
 -->
<!-- Title: include/network_butcher/Types/dense_tensor.h Pages: 1 -->
<svg width="1233pt" height="1299pt"
 viewBox="0.00 0.00 1232.50 1299.00" xmlns="http://www.w3.org/2000/svg" xmlns:xlink="http://www.w3.org/1999/xlink">
<g id="graph0" class="graph" transform="scale(1 1) rotate(0) translate(4 1295)">
<title>include/network_butcher/Types/dense_tensor.h</title>
<polygon fill="white" stroke="transparent" points="-4,4 -4,-1295 1228.5,-1295 1228.5,4 -4,4"/>
<!-- Node1 -->
<g id="node1" class="node">
<title>Node1</title>
<g id="a_node1"><a xlink:title=" ">
<polygon fill="#bfbfbf" stroke="black" points="569.5,-1260.5 569.5,-1290.5 706.5,-1290.5 706.5,-1260.5 569.5,-1260.5"/>
<text text-anchor="start" x="577.5" y="-1278.5" font-family="Helvetica,sans-Serif" font-size="10.00">include/network_butcher</text>
<text text-anchor="middle" x="638" y="-1267.5" font-family="Helvetica,sans-Serif" font-size="10.00">/Types/dense_tensor.h</text>
</a>
</g>
</g>
<!-- Node2 -->
<g id="node2" class="node">
<title>Node2</title>
<g id="a_node2"><a xlink:href="node_8h.html" target="_top" xlink:title=" ">
<polygon fill="white" stroke="black" points="448.5,-1193.5 448.5,-1223.5 585.5,-1223.5 585.5,-1193.5 448.5,-1193.5"/>
<text text-anchor="start" x="456.5" y="-1211.5" font-family="Helvetica,sans-Serif" font-size="10.00">include/network_butcher</text>
<text text-anchor="middle" x="517" y="-1200.5" font-family="Helvetica,sans-Serif" font-size="10.00">/Network/node.h</text>
</a>
</g>
</g>
<!-- Node1&#45;&gt;Node2 -->
<g id="edge1" class="edge">
<title>Node1&#45;&gt;Node2</title>
<path fill="none" stroke="midnightblue" d="M602.77,-1255.57C583.74,-1245.35 560.63,-1232.94 543.2,-1223.58"/>
<polygon fill="midnightblue" stroke="midnightblue" points="601.28,-1258.75 611.74,-1260.4 604.59,-1252.58 601.28,-1258.75"/>
</g>
<!-- Node29 -->
<g id="node29" class="node">
<title>Node29</title>
<g id="a_node29"><a xlink:href="content_8h.html" target="_top" xlink:title=" ">
<polygon fill="white" stroke="black" points="274.5,-1193.5 274.5,-1223.5 411.5,-1223.5 411.5,-1193.5 274.5,-1193.5"/>
<text text-anchor="start" x="282.5" y="-1211.5" font-family="Helvetica,sans-Serif" font-size="10.00">include/network_butcher</text>
<text text-anchor="middle" x="343" y="-1200.5" font-family="Helvetica,sans-Serif" font-size="10.00">/Types/content.h</text>
</a>
</g>
</g>
<!-- Node1&#45;&gt;Node29 -->
<g id="edge53" class="edge">
<title>Node1&#45;&gt;Node29</title>
<path fill="none" stroke="midnightblue" d="M564.55,-1258.32C516.06,-1247.63 453.17,-1233.77 406.79,-1223.55"/>
<polygon fill="midnightblue" stroke="midnightblue" points="563.83,-1261.74 574.35,-1260.48 565.34,-1254.91 563.83,-1261.74"/>
</g>
<!-- Node30 -->
<g id="node30" class="node">
<title>Node30</title>
<g id="a_node30"><a xlink:href="utilities_8h.html" target="_top" xlink:title=" ">
<polygon fill="white" stroke="black" points="829.5,-791.5 829.5,-821.5 966.5,-821.5 966.5,-791.5 829.5,-791.5"/>
<text text-anchor="start" x="837.5" y="-809.5" font-family="Helvetica,sans-Serif" font-size="10.00">include/network_butcher</text>
<text text-anchor="middle" x="898" y="-798.5" font-family="Helvetica,sans-Serif" font-size="10.00">/utilities.h</text>
</a>
</g>
</g>
<!-- Node1&#45;&gt;Node30 -->
<g id="edge57" class="edge">
<title>Node1&#45;&gt;Node30</title>
<path fill="none" stroke="midnightblue" d="M631.35,-1249.99C629,-1223.49 629,-1180 629,-1142.5 629,-1142.5 629,-1142.5 629,-939.5 629,-851.29 749.46,-822.01 829.23,-812.3"/>
<polygon fill="midnightblue" stroke="midnightblue" points="627.91,-1250.7 632.51,-1260.24 634.86,-1249.91 627.91,-1250.7"/>
</g>
<!-- Node34 -->
<g id="node34" class="node">
<title>Node34</title>
<g id="a_node34"><a xlink:href="dense__tensor_8cpp.html" target="_top" xlink:title=" ">
<polygon fill="white" stroke="black" points="674.5,-1199 674.5,-1218 823.5,-1218 823.5,-1199 674.5,-1199"/>
<text text-anchor="middle" x="749" y="-1206" font-family="Helvetica,sans-Serif" font-size="10.00">src/Types/dense_tensor.cpp</text>
</a>
</g>
</g>
<!-- Node1&#45;&gt;Node34 -->
<g id="edge67" class="edge">
<title>Node1&#45;&gt;Node34</title>
<path fill="none" stroke="midnightblue" d="M670.78,-1255.31C691.92,-1242.93 718.38,-1227.43 734.47,-1218.01"/>
<polygon fill="midnightblue" stroke="midnightblue" points="668.95,-1252.32 662.09,-1260.4 672.48,-1258.36 668.95,-1252.32"/>
</g>
<!-- Node3 -->
<g id="node3" class="node">
<title>Node3</title>
<g id="a_node3"><a xlink:href="graph_8h.html" target="_top" xlink:title=" ">
<polygon fill="white" stroke="black" points="351.5,-1059.5 351.5,-1089.5 488.5,-1089.5 488.5,-1059.5 351.5,-1059.5"/>
<text text-anchor="start" x="359.5" y="-1077.5" font-family="Helvetica,sans-Serif" font-size="10.00">include/network_butcher</text>
<text text-anchor="middle" x="420" y="-1066.5" font-family="Helvetica,sans-Serif" font-size="10.00">/Network/graph.h</text>
</a>
</g>
</g>
<!-- Node2&#45;&gt;Node3 -->
<g id="edge2" class="edge">
<title>Node2&#45;&gt;Node3</title>
<path fill="none" stroke="midnightblue" d="M516.05,-1182.82C514.3,-1165.54 509.72,-1142.67 498,-1126 486.87,-1110.16 469.03,-1098.08 453.23,-1089.7"/>
<polygon fill="midnightblue" stroke="midnightblue" points="512.59,-1183.53 516.83,-1193.23 519.57,-1183 512.59,-1183.53"/>
</g>
<!-- Node28 -->
<g id="node28" class="node">
<title>Node28</title>
<g id="a_node28"><a xlink:href="node__traits_8h.html" target="_top" xlink:title=" ">
<polygon fill="white" stroke="black" points="351.5,-1126.5 351.5,-1156.5 488.5,-1156.5 488.5,-1126.5 351.5,-1126.5"/>
<text text-anchor="start" x="359.5" y="-1144.5" font-family="Helvetica,sans-Serif" font-size="10.00">include/network_butcher</text>
<text text-anchor="middle" x="420" y="-1133.5" font-family="Helvetica,sans-Serif" font-size="10.00">/Network/node_traits.h</text>
</a>
</g>
</g>
<!-- Node2&#45;&gt;Node28 -->
<g id="edge51" class="edge">
<title>Node2&#45;&gt;Node28</title>
<path fill="none" stroke="midnightblue" d="M487.5,-1187.73C472.49,-1177.68 454.6,-1165.68 441.01,-1156.58"/>
<polygon fill="midnightblue" stroke="midnightblue" points="485.7,-1190.74 495.95,-1193.4 489.59,-1184.92 485.7,-1190.74"/>
</g>
<!-- Node4 -->
<g id="node4" class="node">
<title>Node4</title>
<g id="a_node4"><a xlink:href="mwgraph_8h.html" target="_top" xlink:title=" ">
<polygon fill="white" stroke="black" points="351.5,-992.5 351.5,-1022.5 488.5,-1022.5 488.5,-992.5 351.5,-992.5"/>
<text text-anchor="start" x="359.5" y="-1010.5" font-family="Helvetica,sans-Serif" font-size="10.00">include/network_butcher</text>
<text text-anchor="middle" x="420" y="-999.5" font-family="Helvetica,sans-Serif" font-size="10.00">/Network/mwgraph.h</text>
</a>
</g>
</g>
<!-- Node3&#45;&gt;Node4 -->
<g id="edge3" class="edge">
<title>Node3&#45;&gt;Node4</title>
<path fill="none" stroke="midnightblue" d="M420,-1049.11C420,-1040.15 420,-1030.32 420,-1022.58"/>
<polygon fill="midnightblue" stroke="midnightblue" points="416.5,-1049.4 420,-1059.4 423.5,-1049.4 416.5,-1049.4"/>
</g>
<!-- Node22 -->
<g id="node22" class="node">
<title>Node22</title>
<g id="a_node22"><a xlink:href="graph__traits_8h.html" target="_top" xlink:title=" ">
<polygon fill="white" stroke="black" points="197.5,-858.5 197.5,-888.5 334.5,-888.5 334.5,-858.5 197.5,-858.5"/>
<text text-anchor="start" x="205.5" y="-876.5" font-family="Helvetica,sans-Serif" font-size="10.00">include/network_butcher</text>
<text text-anchor="middle" x="266" y="-865.5" font-family="Helvetica,sans-Serif" font-size="10.00">/Network/graph_traits.h</text>
</a>
</g>
</g>
<!-- Node3&#45;&gt;Node22 -->
<g id="edge50" class="edge">
<title>Node3&#45;&gt;Node22</title>
<path fill="none" stroke="midnightblue" d="M381.8,-1054.25C368.04,-1045.99 353.18,-1035.37 342,-1023 304.14,-981.09 279.86,-916.87 270.44,-888.64"/>
<polygon fill="midnightblue" stroke="midnightblue" points="380.21,-1057.37 390.63,-1059.33 383.71,-1051.31 380.21,-1057.37"/>
</g>
<!-- Node5 -->
<g id="node5" class="node">
<title>Node5</title>
<g id="a_node5"><a xlink:href="wgraph_8h.html" target="_top" xlink:title=" ">
<polygon fill="white" stroke="black" points="370.5,-925.5 370.5,-955.5 507.5,-955.5 507.5,-925.5 370.5,-925.5"/>
<text text-anchor="start" x="378.5" y="-943.5" font-family="Helvetica,sans-Serif" font-size="10.00">include/network_butcher</text>
<text text-anchor="middle" x="439" y="-932.5" font-family="Helvetica,sans-Serif" font-size="10.00">/Network/wgraph.h</text>
</a>
</g>
</g>
<!-- Node4&#45;&gt;Node5 -->
<g id="edge4" class="edge">
<title>Node4&#45;&gt;Node5</title>
<path fill="none" stroke="midnightblue" d="M426.96,-982.7C429.62,-973.59 432.57,-963.49 434.89,-955.58"/>
<polygon fill="midnightblue" stroke="midnightblue" points="423.57,-981.82 424.12,-992.4 430.29,-983.78 423.57,-981.82"/>
</g>
<!-- Node4&#45;&gt;Node22 -->
<g id="edge49" class="edge">
<title>Node4&#45;&gt;Node22</title>
<path fill="none" stroke="midnightblue" d="M395.61,-985.59C363.93,-958.44 309.49,-911.78 282.36,-888.52"/>
<polygon fill="midnightblue" stroke="midnightblue" points="393.65,-988.52 403.52,-992.37 398.2,-983.21 393.65,-988.52"/>
</g>
<!-- Node6 -->
<g id="node6" class="node">
<title>Node6</title>
<g id="a_node6"><a xlink:href="computer__memory_8h.html" target="_top" xlink:title=" ">
<polygon fill="white" stroke="black" points="637.5,-713.5 637.5,-743.5 808.5,-743.5 808.5,-713.5 637.5,-713.5"/>
<text text-anchor="start" x="645.5" y="-731.5" font-family="Helvetica,sans-Serif" font-size="10.00">include/network_butcher</text>
<text text-anchor="middle" x="723" y="-720.5" font-family="Helvetica,sans-Serif" font-size="10.00">/Computer/computer_memory.h</text>
</a>
</g>
</g>
<!-- Node5&#45;&gt;Node6 -->
<g id="edge5" class="edge">
<title>Node5&#45;&gt;Node6</title>
<path fill="none" stroke="midnightblue" d="M466.28,-919.33C523.52,-877.01 654.89,-779.86 704.01,-743.54"/>
<polygon fill="midnightblue" stroke="midnightblue" points="464.03,-916.64 458.08,-925.4 468.2,-922.26 464.03,-916.64"/>
</g>
<!-- Node5&#45;&gt;Node22 -->
<g id="edge29" class="edge">
<title>Node5&#45;&gt;Node22</title>
<path fill="none" stroke="midnightblue" d="M391.94,-921.82C364.13,-911.37 329.41,-898.32 303.47,-888.58"/>
<polygon fill="midnightblue" stroke="midnightblue" points="390.87,-925.16 401.46,-925.4 393.33,-918.6 390.87,-925.16"/>
</g>
<!-- Node7 -->
<g id="node7" class="node">
<title>Node7</title>
<g id="a_node7"><a xlink:href="butcher_8h.html" target="_top" xlink:title=" ">
<polygon fill="white" stroke="black" points="397.5,-290.5 397.5,-320.5 534.5,-320.5 534.5,-290.5 397.5,-290.5"/>
<text text-anchor="start" x="405.5" y="-308.5" font-family="Helvetica,sans-Serif" font-size="10.00">include/network_butcher</text>
<text text-anchor="middle" x="466" y="-297.5" font-family="Helvetica,sans-Serif" font-size="10.00">/Butcher/butcher.h</text>
</a>
</g>
</g>
<!-- Node6&#45;&gt;Node7 -->
<g id="edge6" class="edge">
<title>Node6&#45;&gt;Node7</title>
<path fill="none" stroke="midnightblue" d="M682.82,-708.7C662.17,-697.91 637.35,-683.11 618,-666 580.71,-633.02 567.97,-623.42 550,-577 514.58,-485.47 577.9,-443.21 531,-357 522.53,-341.43 507.02,-329.1 493.27,-320.52"/>
<polygon fill="midnightblue" stroke="midnightblue" points="681.48,-711.94 691.98,-713.36 684.66,-705.71 681.48,-711.94"/>
</g>
<!-- Node11 -->
<g id="node11" class="node">
<title>Node11</title>
<g id="a_node11"><a xlink:href="network__butcher_8h.html" target="_top" xlink:title=" ">
<polygon fill="white" stroke="black" points="544.5,-0.5 544.5,-30.5 681.5,-30.5 681.5,-0.5 544.5,-0.5"/>
<text text-anchor="start" x="552.5" y="-18.5" font-family="Helvetica,sans-Serif" font-size="10.00">include/network_butcher</text>
<text text-anchor="middle" x="613" y="-7.5" font-family="Helvetica,sans-Serif" font-size="10.00">/network_butcher.h</text>
</a>
</g>
</g>
<!-- Node6&#45;&gt;Node11 -->
<g id="edge28" class="edge">
<title>Node6&#45;&gt;Node11</title>
<path fill="none" stroke="midnightblue" d="M772.03,-709.51C795.99,-699.17 824.27,-684.53 846,-666 868.05,-647.19 863.16,-633.14 884,-613 904.74,-592.95 922.35,-601.23 938,-577 965.99,-533.67 957,-514.08 957,-462.5 957,-462.5 957,-462.5 957,-154 957,-95.31 782.17,-50.42 681.79,-29.48"/>
<polygon fill="midnightblue" stroke="midnightblue" points="770.61,-706.31 762.74,-713.4 773.32,-712.77 770.61,-706.31"/>
</g>
<!-- Node17 -->
<g id="node17" class="node">
<title>Node17</title>
<g id="a_node17"><a xlink:href="graph__constraint_8h.html" target="_top" xlink:title=" ">
<polygon fill="white" stroke="black" points="313.5,-624.5 313.5,-654.5 464.5,-654.5 464.5,-624.5 313.5,-624.5"/>
<text text-anchor="start" x="321.5" y="-642.5" font-family="Helvetica,sans-Serif" font-size="10.00">include/network_butcher</text>
<text text-anchor="middle" x="389" y="-631.5" font-family="Helvetica,sans-Serif" font-size="10.00">/Butcher/graph_constraint.h</text>
</a>
</g>
</g>
<!-- Node6&#45;&gt;Node17 -->
<g id="edge19" class="edge">
<title>Node6&#45;&gt;Node17</title>
<path fill="none" stroke="midnightblue" d="M661.89,-710.79C650.95,-707.83 639.64,-704.81 629,-702 565.99,-685.38 493.5,-666.89 444.83,-654.57"/>
<polygon fill="midnightblue" stroke="midnightblue" points="661.24,-714.24 671.81,-713.47 663.07,-707.48 661.24,-714.24"/>
</g>
<!-- Node19 -->
<g id="node19" class="node">
<title>Node19</title>
<g id="a_node19"><a xlink:href="block__aMLLibrary__weight__importer_8h.html" target="_top" xlink:title=" ">
<polygon fill="white" stroke="black" points="559,-524.5 559,-576.5 729,-576.5 729,-524.5 559,-524.5"/>
<text text-anchor="start" x="567" y="-564.5" font-family="Helvetica,sans-Serif" font-size="10.00">include/network_butcher</text>
<text text-anchor="start" x="567" y="-553.5" font-family="Helvetica,sans-Serif" font-size="10.00">/IO_Interaction/Weight</text>
<text text-anchor="start" x="567" y="-542.5" font-family="Helvetica,sans-Serif" font-size="10.00">_Importer_Helpers/block</text>
<text text-anchor="middle" x="644" y="-531.5" font-family="Helvetica,sans-Serif" font-size="10.00">_aMLLibrary_weight_importer.h</text>
</a>
</g>
</g>
<!-- Node6&#45;&gt;Node19 -->
<g id="edge22" class="edge">
<title>Node6&#45;&gt;Node19</title>
<path fill="none" stroke="midnightblue" d="M677.42,-708.68C659.58,-698.79 641.02,-684.76 631,-666 616.1,-638.12 624.55,-601.04 633.19,-576.74"/>
<polygon fill="midnightblue" stroke="midnightblue" points="676.15,-711.97 686.63,-713.48 679.38,-705.76 676.15,-711.97"/>
</g>
<!-- Node8 -->
<g id="node8" class="node">
<title>Node8</title>
<g id="a_node8"><a xlink:href="onnx__importer__helpers_8h.html" target="_top" xlink:title=" ">
<polygon fill="white" stroke="black" points="292,-212.5 292,-253.5 454,-253.5 454,-212.5 292,-212.5"/>
<text text-anchor="start" x="300" y="-241.5" font-family="Helvetica,sans-Serif" font-size="10.00">include/network_butcher</text>
<text text-anchor="start" x="300" y="-230.5" font-family="Helvetica,sans-Serif" font-size="10.00">/IO_Interaction/onnx_importer</text>
<text text-anchor="middle" x="373" y="-219.5" font-family="Helvetica,sans-Serif" font-size="10.00">_helpers.h</text>
</a>
</g>
</g>
<!-- Node7&#45;&gt;Node8 -->
<g id="edge7" class="edge">
<title>Node7&#45;&gt;Node8</title>
<path fill="none" stroke="midnightblue" d="M438.87,-283.93C426.24,-274.36 411.3,-263.03 398.84,-253.59"/>
<polygon fill="midnightblue" stroke="midnightblue" points="437.1,-286.98 447.18,-290.23 441.33,-281.4 437.1,-286.98"/>
</g>
<!-- Node7&#45;&gt;Node11 -->
<g id="edge18" class="edge">
<title>Node7&#45;&gt;Node11</title>
<path fill="none" stroke="midnightblue" d="M502.1,-285.45C538.07,-264.19 591.15,-226.09 614,-176 636.52,-126.62 623.97,-59.36 616.85,-30.54"/>
<polygon fill="midnightblue" stroke="midnightblue" points="500.27,-282.47 493.35,-290.49 503.76,-288.53 500.27,-282.47"/>
</g>
<!-- Node15 -->
<g id="node15" class="node">
<title>Node15</title>
<g id="a_node15"><a xlink:href="onnx__model__reconstructor__helpers_8h.html" target="_top" xlink:title=" ">
<polygon fill="white" stroke="black" points="122.5,-212.5 122.5,-253.5 273.5,-253.5 273.5,-212.5 122.5,-212.5"/>
<text text-anchor="start" x="130.5" y="-241.5" font-family="Helvetica,sans-Serif" font-size="10.00">include/network_butcher</text>
<text text-anchor="start" x="130.5" y="-230.5" font-family="Helvetica,sans-Serif" font-size="10.00">/IO_Interaction/onnx_model</text>
<text text-anchor="middle" x="198" y="-219.5" font-family="Helvetica,sans-Serif" font-size="10.00">_reconstructor_helpers.h</text>
</a>
</g>
</g>
<!-- Node7&#45;&gt;Node15 -->
<g id="edge15" class="edge">
<title>Node7&#45;&gt;Node15</title>
<path fill="none" stroke="midnightblue" d="M403.03,-287.94C363.87,-277.63 313.33,-264.34 272.22,-253.53"/>
<polygon fill="midnightblue" stroke="midnightblue" points="402.17,-291.33 412.73,-290.49 403.95,-284.56 402.17,-291.33"/>
</g>
<!-- Node9 -->
<g id="node9" class="node">
<title>Node9</title>
<g id="a_node9"><a xlink:href="io__manager_8h.html" target="_top" xlink:title=" ">
<polygon fill="white" stroke="black" points="297.5,-140 297.5,-170 434.5,-170 434.5,-140 297.5,-140"/>
<text text-anchor="start" x="305.5" y="-158" font-family="Helvetica,sans-Serif" font-size="10.00">include/network_butcher</text>
<text text-anchor="middle" x="366" y="-147" font-family="Helvetica,sans-Serif" font-size="10.00">/io_manager.h</text>
</a>
</g>
</g>
<!-- Node8&#45;&gt;Node9 -->
<g id="edge8" class="edge">
<title>Node8&#45;&gt;Node9</title>
<path fill="none" stroke="midnightblue" d="M370.26,-202.28C369.25,-191.25 368.14,-179.25 367.31,-170.23"/>
<polygon fill="midnightblue" stroke="midnightblue" points="366.79,-202.79 371.2,-212.43 373.77,-202.15 366.79,-202.79"/>
</g>
<!-- Node14 -->
<g id="node14" class="node">
<title>Node14</title>
<g id="a_node14"><a xlink:href="onnx__importer__helpers_8cpp.html" target="_top" xlink:title=" ">
<polygon fill="white" stroke="black" points="453,-140 453,-170 605,-170 605,-140 453,-140"/>
<text text-anchor="start" x="461" y="-158" font-family="Helvetica,sans-Serif" font-size="10.00">src/IO_Interaction</text>
<text text-anchor="middle" x="529" y="-147" font-family="Helvetica,sans-Serif" font-size="10.00">/onnx_importer_helpers.cpp</text>
</a>
</g>
</g>
<!-- Node8&#45;&gt;Node14 -->
<g id="edge14" class="edge">
<title>Node8&#45;&gt;Node14</title>
<path fill="none" stroke="midnightblue" d="M422.32,-207.97C447.81,-195.55 478.04,-180.83 499.8,-170.23"/>
<polygon fill="midnightblue" stroke="midnightblue" points="420.63,-204.9 413.17,-212.43 423.7,-211.19 420.63,-204.9"/>
</g>
<!-- Node10 -->
<g id="node10" class="node">
<title>Node10</title>
<g id="a_node10"><a xlink:href="general__manager_8h.html" target="_top" xlink:title=" ">
<polygon fill="white" stroke="black" points="297.5,-67.5 297.5,-97.5 434.5,-97.5 434.5,-67.5 297.5,-67.5"/>
<text text-anchor="start" x="305.5" y="-85.5" font-family="Helvetica,sans-Serif" font-size="10.00">include/network_butcher</text>
<text text-anchor="middle" x="366" y="-74.5" font-family="Helvetica,sans-Serif" font-size="10.00">/general_manager.h</text>
</a>
</g>
</g>
<!-- Node9&#45;&gt;Node10 -->
<g id="edge9" class="edge">
<title>Node9&#45;&gt;Node10</title>
<path fill="none" stroke="midnightblue" d="M366,-129.73C366,-119.07 366,-106.91 366,-97.75"/>
<polygon fill="midnightblue" stroke="midnightblue" points="362.5,-129.73 366,-139.73 369.5,-129.73 362.5,-129.73"/>
</g>
<!-- Node9&#45;&gt;Node11 -->
<g id="edge12" class="edge">
<title>Node9&#45;&gt;Node11</title>
<path fill="none" stroke="midnightblue" d="M429.66,-137.44C489.42,-121.8 570.12,-100.38 573,-98 594.28,-80.46 605.16,-48.81 609.91,-30.55"/>
<polygon fill="midnightblue" stroke="midnightblue" points="428.68,-134.08 419.89,-140 430.45,-140.86 428.68,-134.08"/>
</g>
<!-- Node13 -->
<g id="node13" class="node">
<title>Node13</title>
<g id="a_node13"><a xlink:href="io__manager_8cpp.html" target="_top" xlink:title=" ">
<polygon fill="white" stroke="black" points="452.5,-73 452.5,-92 563.5,-92 563.5,-73 452.5,-73"/>
<text text-anchor="middle" x="508" y="-80" font-family="Helvetica,sans-Serif" font-size="10.00">src/io_manager.cpp</text>
</a>
</g>
</g>
<!-- Node9&#45;&gt;Node13 -->
<g id="edge13" class="edge">
<title>Node9&#45;&gt;Node13</title>
<path fill="none" stroke="midnightblue" d="M403.6,-135.33C431.87,-121.29 469.31,-102.71 490.81,-92.03"/>
<polygon fill="midnightblue" stroke="midnightblue" points="401.79,-132.32 394.39,-139.9 404.91,-138.59 401.79,-132.32"/>
</g>
<!-- Node10&#45;&gt;Node11 -->
<g id="edge10" class="edge">
<title>Node10&#45;&gt;Node11</title>
<path fill="none" stroke="midnightblue" d="M429.01,-64.92C469.32,-54.31 521.04,-40.7 559.38,-30.61"/>
<polygon fill="midnightblue" stroke="midnightblue" points="428.07,-61.55 419.29,-67.48 429.85,-68.32 428.07,-61.55"/>
</g>
<!-- Node12 -->
<g id="node12" class="node">
<title>Node12</title>
<g id="a_node12"><a xlink:href="general__manager_8cpp.html" target="_top" xlink:title=" ">
<polygon fill="white" stroke="black" points="296.5,-6 296.5,-25 435.5,-25 435.5,-6 296.5,-6"/>
<text text-anchor="middle" x="366" y="-13" font-family="Helvetica,sans-Serif" font-size="10.00">src/general_manager.cpp</text>
</a>
</g>
</g>
<!-- Node10&#45;&gt;Node12 -->
<g id="edge11" class="edge">
<title>Node10&#45;&gt;Node12</title>
<path fill="none" stroke="midnightblue" d="M366,-57.25C366,-46.02 366,-33.38 366,-25.19"/>
<polygon fill="midnightblue" stroke="midnightblue" points="362.5,-57.4 366,-67.4 369.5,-57.4 362.5,-57.4"/>
</g>
<!-- Node15&#45;&gt;Node9 -->
<g id="edge16" class="edge">
<title>Node15&#45;&gt;Node9</title>
<path fill="none" stroke="midnightblue" d="M250.43,-208.28C278.12,-195.76 311.17,-180.81 334.82,-170.11"/>
<polygon fill="midnightblue" stroke="midnightblue" points="248.93,-205.12 241.26,-212.43 251.82,-211.5 248.93,-205.12"/>
</g>
<!-- Node16 -->
<g id="node16" class="node">
<title>Node16</title>
<g id="a_node16"><a xlink:href="onnx__model__reconstructor__helpers_8cpp.html" target="_top" xlink:title=" ">
<polygon fill="white" stroke="black" points="123.5,-134.5 123.5,-175.5 272.5,-175.5 272.5,-134.5 123.5,-134.5"/>
<text text-anchor="start" x="131.5" y="-163.5" font-family="Helvetica,sans-Serif" font-size="10.00">src/IO_Interaction</text>
<text text-anchor="start" x="131.5" y="-152.5" font-family="Helvetica,sans-Serif" font-size="10.00">/onnx_model_reconstructor</text>
<text text-anchor="middle" x="198" y="-141.5" font-family="Helvetica,sans-Serif" font-size="10.00">_helpers.cpp</text>
</a>
</g>
</g>
<!-- Node15&#45;&gt;Node16 -->
<g id="edge17" class="edge">
<title>Node15&#45;&gt;Node16</title>
<path fill="none" stroke="midnightblue" d="M198,-202.3C198,-193.3 198,-183.65 198,-175.51"/>
<polygon fill="midnightblue" stroke="midnightblue" points="194.5,-202.43 198,-212.43 201.5,-202.43 194.5,-202.43"/>
</g>
<!-- Node18 -->
<g id="node18" class="node">
<title>Node18</title>
<g id="a_node18"><a xlink:href="constrained__block__graph__builder_8h.html" target="_top" xlink:title=" ">
<polygon fill="white" stroke="black" points="340.5,-357.5 340.5,-398.5 489.5,-398.5 489.5,-357.5 340.5,-357.5"/>
<text text-anchor="start" x="348.5" y="-386.5" font-family="Helvetica,sans-Serif" font-size="10.00">include/network_butcher</text>
<text text-anchor="start" x="348.5" y="-375.5" font-family="Helvetica,sans-Serif" font-size="10.00">/Butcher/constrained_block</text>
<text text-anchor="middle" x="415" y="-364.5" font-family="Helvetica,sans-Serif" font-size="10.00">_graph_builder.h</text>
</a>
</g>
</g>
<!-- Node17&#45;&gt;Node18 -->
<g id="edge20" class="edge">
<title>Node17&#45;&gt;Node18</title>
<path fill="none" stroke="midnightblue" d="M391.45,-614.04C396.57,-562.9 408.33,-445.53 413.02,-398.76"/>
<polygon fill="midnightblue" stroke="midnightblue" points="387.95,-613.88 390.43,-624.18 394.91,-614.58 387.95,-613.88"/>
</g>
<!-- Node18&#45;&gt;Node7 -->
<g id="edge21" class="edge">
<title>Node18&#45;&gt;Node7</title>
<path fill="none" stroke="midnightblue" d="M435.15,-349.14C442.15,-339.47 449.71,-329.02 455.59,-320.89"/>
<polygon fill="midnightblue" stroke="midnightblue" points="432.23,-347.21 429.21,-357.36 437.9,-351.31 432.23,-347.21"/>
</g>
<!-- Node20 -->
<g id="node20" class="node">
<title>Node20</title>
<g id="a_node20"><a xlink:href="weight__importers_8h.html" target="_top" xlink:title=" ">
<polygon fill="white" stroke="black" points="720.5,-441 720.5,-482 857.5,-482 857.5,-441 720.5,-441"/>
<text text-anchor="start" x="728.5" y="-470" font-family="Helvetica,sans-Serif" font-size="10.00">include/network_butcher</text>
<text text-anchor="start" x="728.5" y="-459" font-family="Helvetica,sans-Serif" font-size="10.00">/IO_Interaction/weight</text>
<text text-anchor="middle" x="789" y="-448" font-family="Helvetica,sans-Serif" font-size="10.00">_importers.h</text>
</a>
</g>
</g>
<!-- Node19&#45;&gt;Node20 -->
<g id="edge23" class="edge">
<title>Node19&#45;&gt;Node20</title>
<path fill="none" stroke="midnightblue" d="M694.55,-519.17C715.05,-506.87 738.14,-493.01 756.36,-482.08"/>
<polygon fill="midnightblue" stroke="midnightblue" points="692.71,-516.19 685.94,-524.34 696.32,-522.19 692.71,-516.19"/>
</g>
<!-- Node21 -->
<g id="node21" class="node">
<title>Node21</title>
<g id="a_node21"><a xlink:href="block__aMLLibrary__weight__importer_8cpp.html" target="_top" xlink:title=" ">
<polygon fill="white" stroke="black" points="559.5,-435.5 559.5,-487.5 702.5,-487.5 702.5,-435.5 559.5,-435.5"/>
<text text-anchor="start" x="567.5" y="-475.5" font-family="Helvetica,sans-Serif" font-size="10.00">src/IO_Interaction</text>
<text text-anchor="start" x="567.5" y="-464.5" font-family="Helvetica,sans-Serif" font-size="10.00">/Weight_Importer_Helpers</text>
<text text-anchor="start" x="567.5" y="-453.5" font-family="Helvetica,sans-Serif" font-size="10.00">/block_aMLLibrary_weight</text>
<text text-anchor="middle" x="631" y="-442.5" font-family="Helvetica,sans-Serif" font-size="10.00">_importer.cpp</text>
</a>
</g>
</g>
<!-- Node19&#45;&gt;Node21 -->
<g id="edge27" class="edge">
<title>Node19&#45;&gt;Node21</title>
<path fill="none" stroke="midnightblue" d="M638.72,-514.19C637.39,-505.28 635.99,-495.9 634.75,-487.61"/>
<polygon fill="midnightblue" stroke="midnightblue" points="635.3,-514.96 640.24,-524.34 642.22,-513.93 635.3,-514.96"/>
</g>
<!-- Node20&#45;&gt;Node7 -->
<g id="edge24" class="edge">
<title>Node20&#45;&gt;Node7</title>
<path fill="none" stroke="midnightblue" d="M738.83,-436.58C670.65,-404.07 550.93,-346.99 495.59,-320.61"/>
<polygon fill="midnightblue" stroke="midnightblue" points="737.56,-439.85 748.09,-441 740.57,-433.53 737.56,-439.85"/>
</g>
<!-- Node20&#45;&gt;Node9 -->
<g id="edge26" class="edge">
<title>Node20&#45;&gt;Node9</title>
<path fill="none" stroke="midnightblue" d="M757.31,-434.17C700.17,-387.18 575.35,-286.81 463,-212 439.85,-196.59 412.3,-180.92 392.48,-170.09"/>
<polygon fill="midnightblue" stroke="midnightblue" points="755.3,-437.04 765.24,-440.7 759.75,-431.64 755.3,-437.04"/>
</g>
<!-- Node20&#45;&gt;Node18 -->
<g id="edge25" class="edge">
<title>Node20&#45;&gt;Node18</title>
<path fill="none" stroke="midnightblue" d="M723.04,-438.02C719.32,-436.95 715.62,-435.94 712,-435 637.2,-415.65 550.18,-400.04 489.76,-390.26"/>
<polygon fill="midnightblue" stroke="midnightblue" points="722.32,-441.46 732.91,-440.96 724.32,-434.75 722.32,-441.46"/>
</g>
<!-- Node22&#45;&gt;Node7 -->
<g id="edge30" class="edge">
<title>Node22&#45;&gt;Node7</title>
<path fill="none" stroke="midnightblue" d="M235.27,-852.64C201.51,-828.13 152,-783.06 152,-729.5 152,-729.5 152,-729.5 152,-460.5 152,-413.73 137.73,-389.87 171,-357 202.19,-326.19 320.44,-314.05 397.42,-309.36"/>
<polygon fill="midnightblue" stroke="midnightblue" points="233.29,-855.52 243.48,-858.42 237.32,-849.8 233.29,-855.52"/>
</g>
<!-- Node22&#45;&gt;Node8 -->
<g id="edge35" class="edge">
<title>Node22&#45;&gt;Node8</title>
<path fill="none" stroke="midnightblue" d="M205.63,-855.03C149.99,-834.78 76,-795.46 76,-729.5 76,-729.5 76,-729.5 76,-377 76,-327.35 212.42,-279.32 300.35,-253.51"/>
<polygon fill="midnightblue" stroke="midnightblue" points="204.49,-858.34 215.08,-858.35 206.81,-851.73 204.49,-858.34"/>
</g>
<!-- Node22&#45;&gt;Node11 -->
<g id="edge43" class="edge">
<title>Node22&#45;&gt;Node11</title>
<path fill="none" stroke="midnightblue" d="M187.31,-862.93C130.69,-854.62 60.5,-840.93 38,-822 3.99,-793.39 0,-773.94 0,-729.5 0,-729.5 0,-729.5 0,-154 0,-98.72 384.51,-44.75 544.47,-24.7"/>
<polygon fill="midnightblue" stroke="midnightblue" points="186.95,-866.42 197.35,-864.37 187.95,-859.49 186.95,-866.42"/>
</g>
<!-- Node22&#45;&gt;Node15 -->
<g id="edge36" class="edge">
<title>Node22&#45;&gt;Node15</title>
<path fill="none" stroke="midnightblue" d="M187.33,-861.48C137.78,-852.99 79.9,-839.7 62,-822 31.8,-792.14 38,-771.97 38,-729.5 38,-729.5 38,-729.5 38,-377 38,-336.89 35.41,-320.03 62,-290 77.83,-272.12 100.23,-259.84 122.3,-251.44"/>
<polygon fill="midnightblue" stroke="midnightblue" points="187,-864.98 197.44,-863.17 188.15,-858.07 187,-864.98"/>
</g>
<!-- Node22&#45;&gt;Node17 -->
<g id="edge32" class="edge">
<title>Node22&#45;&gt;Node17</title>
<path fill="none" stroke="midnightblue" d="M278.26,-849.38C303.54,-801.7 360.82,-693.65 381.43,-654.77"/>
<polygon fill="midnightblue" stroke="midnightblue" points="275.1,-847.86 273.51,-858.34 281.29,-851.14 275.1,-847.86"/>
</g>
<!-- Node22&#45;&gt;Node18 -->
<g id="edge31" class="edge">
<title>Node22&#45;&gt;Node18</title>
<path fill="none" stroke="midnightblue" d="M267.14,-848.39C269.86,-801.92 278.52,-697.11 304,-613 329.36,-529.3 380.26,-437.71 403.25,-398.53"/>
<polygon fill="midnightblue" stroke="midnightblue" points="263.64,-848.22 266.6,-858.4 270.63,-848.6 263.64,-848.22"/>
</g>
<!-- Node23 -->
<g id="node23" class="node">
<title>Node23</title>
<g id="a_node23"><a xlink:href="path__converter_8h.html" target="_top" xlink:title=" ">
<polygon fill="white" stroke="black" points="180,-363 180,-393 322,-393 322,-363 180,-363"/>
<text text-anchor="start" x="188" y="-381" font-family="Helvetica,sans-Serif" font-size="10.00">include/network_butcher</text>
<text text-anchor="middle" x="251" y="-370" font-family="Helvetica,sans-Serif" font-size="10.00">/Butcher/path_converter.h</text>
</a>
</g>
</g>
<!-- Node22&#45;&gt;Node23 -->
<g id="edge33" class="edge">
<title>Node22&#45;&gt;Node23</title>
<path fill="none" stroke="midnightblue" d="M249.05,-850C243.31,-841.56 237.28,-831.67 233,-822 215.82,-783.16 209,-771.97 209,-729.5 209,-729.5 209,-729.5 209,-638.5 209,-543.8 236.59,-432.13 247.05,-393.22"/>
<polygon fill="midnightblue" stroke="midnightblue" points="246.21,-852.05 254.84,-858.2 251.93,-848.01 246.21,-852.05"/>
</g>
<!-- Node24 -->
<g id="node24" class="node">
<title>Node24</title>
<g id="a_node24"><a xlink:href="weight__importer_8h.html" target="_top" xlink:title=" ">
<polygon fill="white" stroke="black" points="476.5,-702.5 476.5,-754.5 619.5,-754.5 619.5,-702.5 476.5,-702.5"/>
<text text-anchor="start" x="484.5" y="-742.5" font-family="Helvetica,sans-Serif" font-size="10.00">include/network_butcher</text>
<text text-anchor="start" x="484.5" y="-731.5" font-family="Helvetica,sans-Serif" font-size="10.00">/IO_Interaction/Weight</text>
<text text-anchor="start" x="484.5" y="-720.5" font-family="Helvetica,sans-Serif" font-size="10.00">_Importer_Helpers/weight</text>
<text text-anchor="middle" x="548" y="-709.5" font-family="Helvetica,sans-Serif" font-size="10.00">_importer.h</text>
</a>
</g>
</g>
<!-- Node22&#45;&gt;Node24 -->
<g id="edge37" class="edge">
<title>Node22&#45;&gt;Node24</title>
<path fill="none" stroke="midnightblue" d="M344.92,-863.92C383.86,-856.99 430.23,-844.49 467,-822 494.68,-805.07 518.05,-775.64 532.46,-754.51"/>
<polygon fill="midnightblue" stroke="midnightblue" points="343.95,-860.54 334.67,-865.65 345.12,-867.44 343.95,-860.54"/>
</g>
<!-- Node27 -->
<g id="node27" class="node">
<title>Node27</title>
<g id="a_node27"><a xlink:href="parameters_8h.html" target="_top" xlink:title=" ">
<polygon fill="white" stroke="black" points="320.5,-791.5 320.5,-821.5 457.5,-821.5 457.5,-791.5 320.5,-791.5"/>
<text text-anchor="start" x="328.5" y="-809.5" font-family="Helvetica,sans-Serif" font-size="10.00">include/network_butcher</text>
<text text-anchor="middle" x="389" y="-798.5" font-family="Helvetica,sans-Serif" font-size="10.00">/Types/parameters.h</text>
</a>
</g>
</g>
<!-- Node22&#45;&gt;Node27 -->
<g id="edge44" class="edge">
<title>Node22&#45;&gt;Node27</title>
<path fill="none" stroke="midnightblue" d="M301.55,-853.71C320.95,-843.46 344.56,-830.98 362.36,-821.58"/>
<polygon fill="midnightblue" stroke="midnightblue" points="299.9,-850.63 292.69,-858.4 303.17,-856.82 299.9,-850.63"/>
</g>
<!-- Node23&#45;&gt;Node7 -->
<g id="edge34" class="edge">
<title>Node23&#45;&gt;Node7</title>
<path fill="none" stroke="midnightblue" d="M303.28,-359.86C339.99,-347.82 388.5,-331.91 422.98,-320.61"/>
<polygon fill="midnightblue" stroke="midnightblue" points="302.15,-356.55 293.73,-362.99 304.33,-363.2 302.15,-356.55"/>
</g>
<!-- Node24&#45;&gt;Node19 -->
<g id="edge38" class="edge">
<title>Node24&#45;&gt;Node19</title>
<path fill="none" stroke="midnightblue" d="M566.75,-693.13C585.41,-658.92 613.6,-607.23 630.27,-576.67"/>
<polygon fill="midnightblue" stroke="midnightblue" points="563.47,-691.83 561.75,-702.28 569.62,-695.18 563.47,-691.83"/>
</g>
<!-- Node25 -->
<g id="node25" class="node">
<title>Node25</title>
<g id="a_node25"><a xlink:href="csv__weight__importer_8h.html" target="_top" xlink:title=" ">
<polygon fill="white" stroke="black" points="673,-613.5 673,-665.5 837,-665.5 837,-613.5 673,-613.5"/>
<text text-anchor="start" x="681" y="-653.5" font-family="Helvetica,sans-Serif" font-size="10.00">include/network_butcher</text>
<text text-anchor="start" x="681" y="-642.5" font-family="Helvetica,sans-Serif" font-size="10.00">/IO_Interaction/Weight</text>
<text text-anchor="start" x="681" y="-631.5" font-family="Helvetica,sans-Serif" font-size="10.00">_Importer_Helpers/csv_weight</text>
<text text-anchor="middle" x="755" y="-620.5" font-family="Helvetica,sans-Serif" font-size="10.00">_importer.h</text>
</a>
</g>
</g>
<!-- Node24&#45;&gt;Node25 -->
<g id="edge39" class="edge">
<title>Node24&#45;&gt;Node25</title>
<path fill="none" stroke="midnightblue" d="M616.82,-698.58C642.28,-687.88 670.9,-675.85 695.47,-665.52"/>
<polygon fill="midnightblue" stroke="midnightblue" points="615.46,-695.35 607.6,-702.45 618.17,-701.8 615.46,-695.35"/>
</g>
<!-- Node25&#45;&gt;Node19 -->
<g id="edge40" class="edge">
<title>Node25&#45;&gt;Node19</title>
<path fill="none" stroke="midnightblue" d="M714.73,-606.93C702,-596.96 688.11,-586.07 676.03,-576.61"/>
<polygon fill="midnightblue" stroke="midnightblue" points="712.86,-609.92 722.89,-613.34 717.18,-604.41 712.86,-609.92"/>
</g>
<!-- Node25&#45;&gt;Node20 -->
<g id="edge41" class="edge">
<title>Node25&#45;&gt;Node20</title>
<path fill="none" stroke="midnightblue" d="M761.67,-603.63C766.02,-580.94 771.83,-550.71 777,-524 779.71,-510.01 782.79,-494.23 785.15,-482.16"/>
<polygon fill="midnightblue" stroke="midnightblue" points="758.23,-603 759.79,-613.48 765.11,-604.32 758.23,-603"/>
</g>
<!-- Node26 -->
<g id="node26" class="node">
<title>Node26</title>
<g id="a_node26"><a xlink:href="csv__weight__importer_8cpp.html" target="_top" xlink:title=" ">
<polygon fill="white" stroke="black" points="785.5,-530 785.5,-571 928.5,-571 928.5,-530 785.5,-530"/>
<text text-anchor="start" x="793.5" y="-559" font-family="Helvetica,sans-Serif" font-size="10.00">src/IO_Interaction</text>
<text text-anchor="start" x="793.5" y="-548" font-family="Helvetica,sans-Serif" font-size="10.00">/Weight_Importer_Helpers</text>
<text text-anchor="middle" x="857" y="-537" font-family="Helvetica,sans-Serif" font-size="10.00">/csv_weight_importer.cpp</text>
</a>
</g>
</g>
<!-- Node25&#45;&gt;Node26 -->
<g id="edge42" class="edge">
<title>Node25&#45;&gt;Node26</title>
<path fill="none" stroke="midnightblue" d="M792.5,-606.51C806.43,-594.64 821.8,-581.53 834.04,-571.08"/>
<polygon fill="midnightblue" stroke="midnightblue" points="789.84,-604.18 784.5,-613.34 794.38,-609.51 789.84,-604.18"/>
</g>
<!-- Node27&#45;&gt;Node7 -->
<g id="edge45" class="edge">
<title>Node27&#45;&gt;Node7</title>
<path fill="none" stroke="midnightblue" d="M407.23,-782.99C427.42,-756.68 459.08,-710.98 474,-666 511.53,-552.88 493.44,-518.06 499,-399 499.87,-380.35 504.33,-374.89 499,-357 494.99,-343.55 486.14,-330.34 478.61,-320.81"/>
<polygon fill="midnightblue" stroke="midnightblue" points="404.26,-781.11 400.86,-791.14 409.78,-785.42 404.26,-781.11"/>
</g>
<!-- Node27&#45;&gt;Node8 -->
<g id="edge47" class="edge">
<title>Node27&#45;&gt;Node8</title>
<path fill="none" stroke="midnightblue" d="M371.27,-782.95C326.29,-724.07 208.68,-559.16 171,-399 166.72,-380.83 161.86,-373.27 171,-357 200.37,-304.74 261.94,-272.08 309.43,-253.67"/>
<polygon fill="midnightblue" stroke="midnightblue" points="368.72,-785.38 377.6,-791.16 374.27,-781.1 368.72,-785.38"/>
</g>
<!-- Node27&#45;&gt;Node17 -->
<g id="edge46" class="edge">
<title>Node27&#45;&gt;Node17</title>
<path fill="none" stroke="midnightblue" d="M389,-781.14C389,-746.11 389,-682.63 389,-654.53"/>
<polygon fill="midnightblue" stroke="midnightblue" points="385.5,-781.43 389,-791.43 392.5,-781.43 385.5,-781.43"/>
</g>
<!-- Node27&#45;&gt;Node24 -->
<g id="edge48" class="edge">
<title>Node27&#45;&gt;Node24</title>
<path fill="none" stroke="midnightblue" d="M427.8,-786.95C448.16,-777.22 473.38,-765.17 495.46,-754.62"/>
<polygon fill="midnightblue" stroke="midnightblue" points="426.05,-783.91 418.53,-791.38 429.07,-790.23 426.05,-783.91"/>
</g>
<!-- Node28&#45;&gt;Node3 -->
<g id="edge52" class="edge">
<title>Node28&#45;&gt;Node3</title>
<path fill="none" stroke="midnightblue" d="M420,-1116.11C420,-1107.15 420,-1097.32 420,-1089.58"/>
<polygon fill="midnightblue" stroke="midnightblue" points="416.5,-1116.4 420,-1126.4 423.5,-1116.4 416.5,-1116.4"/>
</g>
<!-- Node29&#45;&gt;Node3 -->
<g id="edge54" class="edge">
<title>Node29&#45;&gt;Node3</title>
<path fill="none" stroke="midnightblue" d="M336.7,-1182.98C333.71,-1165.97 332.57,-1143.34 342,-1126 350.94,-1109.56 367.79,-1097.65 383.55,-1089.54"/>
<polygon fill="midnightblue" stroke="midnightblue" points="333.38,-1184.17 338.85,-1193.24 340.23,-1182.74 333.38,-1184.17"/>
</g>
<!-- Node29&#45;&gt;Node22 -->
<g id="edge56" class="edge">
<title>Node29&#45;&gt;Node22</title>
<path fill="none" stroke="midnightblue" d="M320.78,-1185.97C298.04,-1161.52 266,-1119.31 266,-1075.5 266,-1075.5 266,-1075.5 266,-1006.5 266,-963.65 266,-912.97 266,-888.76"/>
<polygon fill="midnightblue" stroke="midnightblue" points="318.34,-1188.48 327.79,-1193.26 323.38,-1183.63 318.34,-1188.48"/>
</g>
<!-- Node29&#45;&gt;Node28 -->
<g id="edge55" class="edge">
<title>Node29&#45;&gt;Node28</title>
<path fill="none" stroke="midnightblue" d="M367.42,-1186.88C379.12,-1177.01 392.84,-1165.43 403.32,-1156.58"/>
<polygon fill="midnightblue" stroke="midnightblue" points="365.09,-1184.27 359.71,-1193.4 369.61,-1189.62 365.09,-1184.27"/>
</g>
<!-- Node30&#45;&gt;Node1 -->
<g id="edge65" class="edge">
<title>Node30&#45;&gt;Node1</title>
<path fill="none" stroke="midnightblue" d="M819.17,-815.66C745.52,-828.15 647,-859.72 647,-939.5 647,-1142.5 647,-1142.5 647,-1142.5 647,-1185.35 647,-1236.03 643.49,-1260.24"/>
<polygon fill="midnightblue" stroke="midnightblue" points="820.07,-819.06 829.39,-814.02 818.96,-812.14 820.07,-819.06"/>
</g>
<!-- Node30&#45;&gt;Node6 -->
<g id="edge59" class="edge">
<title>Node30&#45;&gt;Node6</title>
<path fill="none" stroke="midnightblue" d="M856.26,-787.37C825.32,-773.94 783.76,-755.89 755.33,-743.54"/>
<polygon fill="midnightblue" stroke="midnightblue" points="854.93,-790.61 865.49,-791.38 857.72,-784.19 854.93,-790.61"/>
</g>
<!-- Node30&#45;&gt;Node7 -->
<g id="edge58" class="edge">
<title>Node30&#45;&gt;Node7</title>
<path fill="none" stroke="midnightblue" d="M934.73,-786.32C949.33,-777.79 965.76,-766.96 979,-755 1031.08,-707.98 1075.12,-677.71 1048,-613 961.92,-407.62 669.29,-337.29 534.72,-315.43"/>
<polygon fill="midnightblue" stroke="midnightblue" points="932.89,-783.35 925.93,-791.33 936.35,-789.43 932.89,-783.35"/>
</g>
<!-- Node30&#45;&gt;Node11 -->
<g id="edge64" class="edge">
<title>Node30&#45;&gt;Node11</title>
<path fill="none" stroke="midnightblue" d="M954.03,-787.98C1015.34,-764.91 1105,-717.93 1105,-640.5 1105,-640.5 1105,-640.5 1105,-154 1105,-67.14 816.97,-32.7 681.67,-21.32"/>
<polygon fill="midnightblue" stroke="midnightblue" points="952.65,-784.76 944.45,-791.48 955.05,-791.34 952.65,-784.76"/>
</g>
<!-- Node31 -->
<g id="node31" class="node">
<title>Node31</title>
<g id="a_node31"><a xlink:href="weight__importer__utils_8h.html" target="_top" xlink:title=" ">
<polygon fill="white" stroke="black" points="826.5,-702.5 826.5,-754.5 969.5,-754.5 969.5,-702.5 826.5,-702.5"/>
<text text-anchor="start" x="834.5" y="-742.5" font-family="Helvetica,sans-Serif" font-size="10.00">include/network_butcher</text>
<text text-anchor="start" x="834.5" y="-731.5" font-family="Helvetica,sans-Serif" font-size="10.00">/IO_Interaction/Weight</text>
<text text-anchor="start" x="834.5" y="-720.5" font-family="Helvetica,sans-Serif" font-size="10.00">_Importer_Helpers/weight</text>
<text text-anchor="middle" x="898" y="-709.5" font-family="Helvetica,sans-Serif" font-size="10.00">_importer_utils.h</text>
</a>
</g>
</g>
<!-- Node30&#45;&gt;Node31 -->
<g id="edge60" class="edge">
<title>Node30&#45;&gt;Node31</title>
<path fill="none" stroke="midnightblue" d="M898,-781.14C898,-772.63 898,-763.07 898,-754.5"/>
<polygon fill="midnightblue" stroke="midnightblue" points="894.5,-781.2 898,-791.2 901.5,-781.21 894.5,-781.2"/>
</g>
<!-- Node33 -->
<g id="node33" class="node">
<title>Node33</title>
<g id="a_node33"><a xlink:href="utilities_8cpp.html" target="_top" xlink:title=" ">
<polygon fill="white" stroke="black" points="1133.5,-719 1133.5,-738 1224.5,-738 1224.5,-719 1133.5,-719"/>
<text text-anchor="middle" x="1179" y="-726" font-family="Helvetica,sans-Serif" font-size="10.00">src/utilities.cpp</text>
</a>
</g>
</g>
<!-- Node30&#45;&gt;Node33 -->
<g id="edge66" class="edge">
<title>Node30&#45;&gt;Node33</title>
<path fill="none" stroke="midnightblue" d="M976.59,-791.07C1019.22,-782.37 1072.55,-770.05 1119,-755 1133.54,-750.29 1149.43,-743.46 1161.2,-738.05"/>
<polygon fill="midnightblue" stroke="midnightblue" points="975.66,-787.69 966.55,-793.1 977.05,-794.55 975.66,-787.69"/>
</g>
<!-- Node31&#45;&gt;Node19 -->
<g id="edge61" class="edge">
<title>Node31&#45;&gt;Node19</title>
<path fill="none" stroke="midnightblue" d="M816.12,-701.79C746.81,-686.18 710.1,-714.8 664,-666 641.55,-642.24 639.5,-602.7 641.03,-576.86"/>
<polygon fill="midnightblue" stroke="midnightblue" points="815.57,-705.26 826.12,-704.29 817.27,-698.47 815.57,-705.26"/>
</g>
<!-- Node31&#45;&gt;Node25 -->
<g id="edge62" class="edge">
<title>Node31&#45;&gt;Node25</title>
<path fill="none" stroke="midnightblue" d="M847.98,-697.07C831.08,-686.79 812.41,-675.43 796.27,-665.61"/>
<polygon fill="midnightblue" stroke="midnightblue" points="846.28,-700.13 856.64,-702.34 849.91,-694.15 846.28,-700.13"/>
</g>
<!-- Node32 -->
<g id="node32" class="node">
<title>Node32</title>
<g id="a_node32"><a xlink:href="weight__importer__utils_8cpp.html" target="_top" xlink:title=" ">
<polygon fill="white" stroke="black" points="893,-619 893,-660 1039,-660 1039,-619 893,-619"/>
<text text-anchor="start" x="901" y="-648" font-family="Helvetica,sans-Serif" font-size="10.00">src/IO_Interaction</text>
<text text-anchor="start" x="901" y="-637" font-family="Helvetica,sans-Serif" font-size="10.00">/Weight_Importer_Helpers</text>
<text text-anchor="middle" x="966" y="-626" font-family="Helvetica,sans-Serif" font-size="10.00">/weight_importer_utils.cpp</text>
</a>
</g>
</g>
<!-- Node31&#45;&gt;Node32 -->
<g id="edge63" class="edge">
<title>Node31&#45;&gt;Node32</title>
<path fill="none" stroke="midnightblue" d="M924.05,-694.18C933.05,-682.66 942.84,-670.13 950.69,-660.08"/>
<polygon fill="midnightblue" stroke="midnightblue" points="921.07,-692.3 917.67,-702.34 926.58,-696.61 921.07,-692.3"/>
</g>
</g>
</svg>
