<?xml version="1.0" encoding="UTF-8" standalone="no"?>
<!DOCTYPE svg PUBLIC "-//W3C//DTD SVG 1.1//EN"
 "http://www.w3.org/Graphics/SVG/1.1/DTD/svg11.dtd">
<!-- Generated by graphviz version 2.43.0 (0)
 -->
<!-- Title: src/Types/dense_tensor.cpp Pages: 1 -->
<!--zoomable 352 -->
<svg id="main" version="1.1" xmlns="http://www.w3.org/2000/svg" xmlns:xlink="http://www.w3.org/1999/xlink" xml:space="preserve" onload="init(evt)">
<style type="text/css"><![CDATA[
.edge:hover path { stroke: red; }
.edge:hover polygon { stroke: red; fill: red; }
]]></style>
<script type="text/javascript"><![CDATA[
var edges = document.getElementsByTagName('g');
if (edges && edges.length) {
  for (var i=0;i<edges.length;i++) {
    if (edges[i].id.substr(0,4)=='edge') {
      edges[i].setAttribute('class','edge');
    }
  }
}
]]></script>
        <defs>
                <circle id="rim" cx="0" cy="0" r="7"/>
                <circle id="rim2" cx="0" cy="0" r="3.5"/>
                <g id="zoomPlus">
                        <use xlink:href="#rim" fill="#404040">
                                <set attributeName="fill" to="#808080" begin="zoomplus.mouseover" end="zoomplus.mouseout"/>
                        </use>
                        <path d="M-4,0h8M0,-4v8" fill="none" stroke="white" stroke-width="1.5" pointer-events="none"/>
                </g>
                <g id="zoomMin">
                        <use xlink:href="#rim" fill="#404040">
                                <set attributeName="fill" to="#808080" begin="zoomminus.mouseover" end="zoomminus.mouseout"/>
                        </use>
                        <path d="M-4,0h8" fill="none" stroke="white" stroke-width="1.5" pointer-events="none"/>
                </g>
                <g id="dirArrow">
                        <path fill="none" stroke="white" stroke-width="1.5" d="M0,-3.0v7 M-2.5,-0.5L0,-3.0L2.5,-0.5"/>
                </g>
               <g id="resetDef">
                       <use xlink:href="#rim2" fill="#404040">
                               <set attributeName="fill" to="#808080" begin="reset.mouseover" end="reset.mouseout"/>
                       </use>
               </g>
        </defs>

<script type="text/javascript">
var viewWidth = 770;
var viewHeight = 352;
var sectionId = 'dynsection-0';
</script>
<script xlink:href="svgpan.js"/>
<svg id="graph" class="graph">
<g id="viewport">
<title>src/Types/dense_tensor.cpp</title>
<polygon fill="white" stroke="transparent" points="-4,4 -4,-348 765.7,-348 765.7,4 -4,4"/>
<!-- Node1 -->
<g id="node1" class="node">
<title>Node1</title>
<g id="a_node1"><a xlink:title=" ">
<polygon fill="#bfbfbf" stroke="black" points="71.2,-324.5 71.2,-343.5 220.2,-343.5 220.2,-324.5 71.2,-324.5"/>
<text text-anchor="middle" x="145.7" y="-331.5" font-family="Helvetica,sans-Serif" font-size="10.00">src/Types/dense_tensor.cpp</text>
</a>
</g>
</g>
<!-- Node2 -->
<g id="node2" class="node">
<title>Node2</title>
<g id="a_node2"><a xlink:href="dense__tensor_8h.html" target="_top" xlink:title=" ">
<polygon fill="white" stroke="black" points="81.2,-257.5 81.2,-287.5 210.2,-287.5 210.2,-257.5 81.2,-257.5"/>
<text text-anchor="start" x="89.2" y="-275.5" font-family="Helvetica,sans-Serif" font-size="10.00">network_butcher/Types</text>
<text text-anchor="middle" x="145.7" y="-264.5" font-family="Helvetica,sans-Serif" font-size="10.00">/dense_tensor.h</text>
</a>
</g>
</g>
<!-- Node1&#45;&gt;Node2 -->
<g id="edge1" class="edge">
<title>Node1&#45;&gt;Node2</title>
<path fill="none" stroke="midnightblue" d="M145.7,-324.48C145.7,-317.47 145.7,-307.19 145.7,-297.7"/>
<polygon fill="midnightblue" stroke="midnightblue" points="149.2,-297.52 145.7,-287.52 142.2,-297.52 149.2,-297.52"/>
</g>
<!-- Node3 -->
<g id="node3" class="node">
<title>Node3</title>
<g id="a_node3"><a xlink:href="type__info_8h.html" target="_top" xlink:title=" ">
<polygon fill="white" stroke="black" points="161.2,-67.5 161.2,-97.5 290.2,-97.5 290.2,-67.5 161.2,-67.5"/>
<text text-anchor="start" x="169.2" y="-85.5" font-family="Helvetica,sans-Serif" font-size="10.00">network_butcher/Types</text>
<text text-anchor="middle" x="225.7" y="-74.5" font-family="Helvetica,sans-Serif" font-size="10.00">/type_info.h</text>
</a>
</g>
</g>
<!-- Node2&#45;&gt;Node3 -->
<g id="edge2" class="edge">
<title>Node2&#45;&gt;Node3</title>
<path fill="none" stroke="midnightblue" d="M149.27,-257.38C155.97,-231.95 171.68,-177.08 192.7,-134 197.41,-124.36 203.63,-114.35 209.4,-105.81"/>
<polygon fill="midnightblue" stroke="midnightblue" points="212.33,-107.73 215.17,-97.52 206.59,-103.73 212.33,-107.73"/>
</g>
<!-- Node5 -->
<g id="node5" class="node">
<title>Node5</title>
<g id="a_node5"><a xlink:title=" ">
<polygon fill="white" stroke="#bfbfbf" points="76.2,-6 76.2,-25 123.2,-25 123.2,-6 76.2,-6"/>
<text text-anchor="middle" x="99.7" y="-13" font-family="Helvetica,sans-Serif" font-size="10.00">vector</text>
</a>
</g>
</g>
<!-- Node2&#45;&gt;Node5 -->
<g id="edge26" class="edge">
<title>Node2&#45;&gt;Node5</title>
<path fill="none" stroke="midnightblue" d="M128.1,-257.35C96.13,-230.38 29.57,-168.04 4.7,-98 0.09,-85.02 -2.4,-78.81 4.7,-67 8.58,-60.55 45.24,-42.2 71.86,-29.49"/>
<polygon fill="midnightblue" stroke="midnightblue" points="73.6,-32.54 81.14,-25.1 70.6,-26.22 73.6,-32.54"/>
</g>
<!-- Node7 -->
<g id="node7" class="node">
<title>Node7</title>
<g id="a_node7"><a xlink:href="variant__attribute_8h.html" target="_top" xlink:title=" ">
<polygon fill="white" stroke="black" points="14.2,-67.5 14.2,-97.5 143.2,-97.5 143.2,-67.5 14.2,-67.5"/>
<text text-anchor="start" x="22.2" y="-85.5" font-family="Helvetica,sans-Serif" font-size="10.00">network_butcher/Types</text>
<text text-anchor="middle" x="78.7" y="-74.5" font-family="Helvetica,sans-Serif" font-size="10.00">/variant_attribute.h</text>
</a>
</g>
</g>
<!-- Node2&#45;&gt;Node7 -->
<g id="edge6" class="edge">
<title>Node2&#45;&gt;Node7</title>
<path fill="none" stroke="midnightblue" d="M140.67,-257.37C129.24,-225.31 101.25,-146.77 87.13,-107.16"/>
<polygon fill="midnightblue" stroke="midnightblue" points="90.36,-105.78 83.7,-97.54 83.76,-108.13 90.36,-105.78"/>
</g>
<!-- Node9 -->
<g id="node9" class="node">
<title>Node9</title>
<g id="a_node9"><a xlink:href="utilities_8h.html" target="_top" xlink:title=" ">
<polygon fill="white" stroke="black" points="290.2,-201.5 290.2,-220.5 437.2,-220.5 437.2,-201.5 290.2,-201.5"/>
<text text-anchor="middle" x="363.7" y="-208.5" font-family="Helvetica,sans-Serif" font-size="10.00">network_butcher/utilities.h</text>
</a>
</g>
</g>
<!-- Node2&#45;&gt;Node9 -->
<g id="edge10" class="edge">
<title>Node2&#45;&gt;Node9</title>
<path fill="none" stroke="midnightblue" d="M191.26,-257.47C228.33,-246.99 280.32,-232.84 317.55,-223.12"/>
<polygon fill="midnightblue" stroke="midnightblue" points="318.84,-226.4 327.64,-220.51 317.08,-219.63 318.84,-226.4"/>
</g>
<!-- Node4 -->
<g id="node4" class="node">
<title>Node4</title>
<g id="a_node4"><a xlink:title=" ">
<polygon fill="white" stroke="#bfbfbf" points="182.7,-6 182.7,-25 226.7,-25 226.7,-6 182.7,-6"/>
<text text-anchor="middle" x="204.7" y="-13" font-family="Helvetica,sans-Serif" font-size="10.00">string</text>
</a>
</g>
</g>
<!-- Node3&#45;&gt;Node4 -->
<g id="edge3" class="edge">
<title>Node3&#45;&gt;Node4</title>
<path fill="none" stroke="midnightblue" d="M221.14,-67.4C218.06,-57.86 213.97,-45.18 210.63,-34.86"/>
<polygon fill="midnightblue" stroke="midnightblue" points="213.91,-33.63 207.51,-25.19 207.25,-35.79 213.91,-33.63"/>
</g>
<!-- Node3&#45;&gt;Node5 -->
<g id="edge4" class="edge">
<title>Node3&#45;&gt;Node5</title>
<path fill="none" stroke="midnightblue" d="M198.36,-67.4C176.64,-56.19 146.5,-40.64 125.26,-29.69"/>
<polygon fill="midnightblue" stroke="midnightblue" points="126.68,-26.48 116.19,-25.01 123.47,-32.7 126.68,-26.48"/>
</g>
<!-- Node6 -->
<g id="node6" class="node">
<title>Node6</title>
<g id="a_node6"><a xlink:href="starting__traits_8h.html" target="_top" xlink:title=" ">
<polygon fill="white" stroke="black" points="350.7,-0.5 350.7,-30.5 478.7,-30.5 478.7,-0.5 350.7,-0.5"/>
<text text-anchor="start" x="358.7" y="-18.5" font-family="Helvetica,sans-Serif" font-size="10.00">network_butcher/Traits</text>
<text text-anchor="middle" x="414.7" y="-7.5" font-family="Helvetica,sans-Serif" font-size="10.00">/starting_traits.h</text>
</a>
</g>
</g>
<!-- Node3&#45;&gt;Node6 -->
<g id="edge5" class="edge">
<title>Node3&#45;&gt;Node6</title>
<path fill="none" stroke="midnightblue" d="M266.71,-67.4C295.32,-57.56 333.67,-44.37 364.17,-33.88"/>
<polygon fill="midnightblue" stroke="midnightblue" points="365.45,-37.14 373.77,-30.58 363.18,-30.52 365.45,-37.14"/>
</g>
<!-- Node7&#45;&gt;Node4 -->
<g id="edge7" class="edge">
<title>Node7&#45;&gt;Node4</title>
<path fill="none" stroke="midnightblue" d="M106.04,-67.4C127.76,-56.19 157.9,-40.64 179.14,-29.69"/>
<polygon fill="midnightblue" stroke="midnightblue" points="180.93,-32.7 188.21,-25.01 177.72,-26.48 180.93,-32.7"/>
</g>
<!-- Node7&#45;&gt;Node5 -->
<g id="edge9" class="edge">
<title>Node7&#45;&gt;Node5</title>
<path fill="none" stroke="midnightblue" d="M83.26,-67.4C86.34,-57.86 90.43,-45.18 93.77,-34.86"/>
<polygon fill="midnightblue" stroke="midnightblue" points="97.15,-35.79 96.89,-25.19 90.49,-33.63 97.15,-35.79"/>
</g>
<!-- Node8 -->
<g id="node8" class="node">
<title>Node8</title>
<g id="a_node8"><a xlink:title=" ">
<polygon fill="white" stroke="#bfbfbf" points="7.2,-6 7.2,-25 58.2,-25 58.2,-6 7.2,-6"/>
<text text-anchor="middle" x="32.7" y="-13" font-family="Helvetica,sans-Serif" font-size="10.00">variant</text>
</a>
</g>
</g>
<!-- Node7&#45;&gt;Node8 -->
<g id="edge8" class="edge">
<title>Node7&#45;&gt;Node8</title>
<path fill="none" stroke="midnightblue" d="M68.72,-67.4C61.69,-57.46 52.24,-44.11 44.78,-33.57"/>
<polygon fill="midnightblue" stroke="midnightblue" points="47.49,-31.34 38.85,-25.19 41.77,-35.38 47.49,-31.34"/>
</g>
<!-- Node9&#45;&gt;Node2 -->
<g id="edge24" class="edge">
<title>Node9&#45;&gt;Node2</title>
<path fill="none" stroke="midnightblue" d="M337.43,-220.51C306.69,-229.43 254.89,-243.68 212.83,-254.85"/>
<polygon fill="midnightblue" stroke="midnightblue" points="211.69,-251.53 202.92,-257.47 213.48,-258.3 211.69,-251.53"/>
</g>
<!-- Node9&#45;&gt;Node3 -->
<g id="edge25" class="edge">
<title>Node9&#45;&gt;Node3</title>
<path fill="none" stroke="midnightblue" d="M306.74,-201.49C265.73,-194.06 215.46,-181.82 202.7,-165 189.68,-147.85 199.09,-123.64 209.52,-106.07"/>
<polygon fill="midnightblue" stroke="midnightblue" points="212.53,-107.87 214.96,-97.56 206.63,-104.1 212.53,-107.87"/>
</g>
<!-- Node10 -->
<g id="node10" class="node">
<title>Node10</title>
<g id="a_node10"><a xlink:title=" ">
<polygon fill="white" stroke="#bfbfbf" points="499.7,-140 499.7,-159 563.7,-159 563.7,-140 499.7,-140"/>
<text text-anchor="middle" x="531.7" y="-147" font-family="Helvetica,sans-Serif" font-size="10.00">algorithm</text>
</a>
</g>
</g>
<!-- Node9&#45;&gt;Node10 -->
<g id="edge11" class="edge">
<title>Node9&#45;&gt;Node10</title>
<path fill="none" stroke="midnightblue" d="M387.77,-201.48C416.71,-191.22 465.46,-173.96 498.1,-162.4"/>
<polygon fill="midnightblue" stroke="midnightblue" points="499.42,-165.65 507.68,-159.01 497.08,-159.05 499.42,-165.65"/>
</g>
<!-- Node11 -->
<g id="node11" class="node">
<title>Node11</title>
<g id="a_node11"><a xlink:title=" ">
<polygon fill="white" stroke="#bfbfbf" points="619.7,-140 619.7,-159 675.7,-159 675.7,-140 619.7,-140"/>
<text text-anchor="middle" x="647.7" y="-147" font-family="Helvetica,sans-Serif" font-size="10.00">numeric</text>
</a>
</g>
</g>
<!-- Node9&#45;&gt;Node11 -->
<g id="edge12" class="edge">
<title>Node9&#45;&gt;Node11</title>
<path fill="none" stroke="midnightblue" d="M423.42,-201.43C472.74,-193.75 544.34,-181.2 605.7,-165 608.74,-164.2 611.87,-163.29 614.99,-162.32"/>
<polygon fill="midnightblue" stroke="midnightblue" points="616.37,-165.55 624.78,-159.1 614.19,-158.89 616.37,-165.55"/>
</g>
<!-- Node12 -->
<g id="node12" class="node">
<title>Node12</title>
<g id="a_node12"><a xlink:title=" ">
<polygon fill="white" stroke="#bfbfbf" points="693.7,-140 693.7,-159 761.7,-159 761.7,-140 693.7,-140"/>
<text text-anchor="middle" x="727.7" y="-147" font-family="Helvetica,sans-Serif" font-size="10.00">filesystem</text>
</a>
</g>
</g>
<!-- Node9&#45;&gt;Node12 -->
<g id="edge13" class="edge">
<title>Node9&#45;&gt;Node12</title>
<path fill="none" stroke="midnightblue" d="M437.41,-203.6C502.94,-196.98 601.05,-184.79 684.7,-165 688.1,-164.2 691.61,-163.24 695.1,-162.2"/>
<polygon fill="midnightblue" stroke="midnightblue" points="696.26,-165.5 704.72,-159.13 694.13,-158.83 696.26,-165.5"/>
</g>
<!-- Node13 -->
<g id="node13" class="node">
<title>Node13</title>
<g id="a_node13"><a xlink:title=" ">
<polygon fill="white" stroke="#bfbfbf" points="212.2,-140 212.2,-159 267.2,-159 267.2,-140 212.2,-140"/>
<text text-anchor="middle" x="239.7" y="-147" font-family="Helvetica,sans-Serif" font-size="10.00">fstream</text>
</a>
</g>
</g>
<!-- Node9&#45;&gt;Node13 -->
<g id="edge14" class="edge">
<title>Node9&#45;&gt;Node13</title>
<path fill="none" stroke="midnightblue" d="M345.93,-201.48C325.22,-191.53 290.75,-174.99 266.71,-163.46"/>
<polygon fill="midnightblue" stroke="midnightblue" points="267.96,-160.18 257.43,-159.01 264.94,-166.49 267.96,-160.18"/>
</g>
<!-- Node14 -->
<g id="node14" class="node">
<title>Node14</title>
<g id="a_node14"><a xlink:title=" ">
<polygon fill="white" stroke="#bfbfbf" points="285.7,-140 285.7,-159 335.7,-159 335.7,-140 285.7,-140"/>
<text text-anchor="middle" x="310.7" y="-147" font-family="Helvetica,sans-Serif" font-size="10.00">ranges</text>
</a>
</g>
</g>
<!-- Node9&#45;&gt;Node14 -->
<g id="edge15" class="edge">
<title>Node9&#45;&gt;Node14</title>
<path fill="none" stroke="midnightblue" d="M356.11,-201.48C348,-192.37 334.97,-177.74 324.94,-166.48"/>
<polygon fill="midnightblue" stroke="midnightblue" points="327.55,-164.15 318.28,-159.01 322.32,-168.8 327.55,-164.15"/>
</g>
<!-- Node15 -->
<g id="node15" class="node">
<title>Node15</title>
<g id="a_node15"><a xlink:title=" ">
<polygon fill="white" stroke="#bfbfbf" points="529.2,-67.5 529.2,-97.5 654.2,-97.5 654.2,-67.5 529.2,-67.5"/>
<text text-anchor="start" x="537.2" y="-85.5" font-family="Helvetica,sans-Serif" font-size="10.00">network_butcher/onnx</text>
<text text-anchor="middle" x="591.7" y="-74.5" font-family="Helvetica,sans-Serif" font-size="10.00">_proto/onnx.pb.h</text>
</a>
</g>
</g>
<!-- Node9&#45;&gt;Node15 -->
<g id="edge16" class="edge">
<title>Node9&#45;&gt;Node15</title>
<path fill="none" stroke="midnightblue" d="M437.22,-202.53C489.45,-195.71 553.58,-183.8 572.7,-165 587.7,-150.25 591.81,-126.12 592.55,-107.93"/>
<polygon fill="midnightblue" stroke="midnightblue" points="596.05,-107.81 592.65,-97.77 589.05,-107.74 596.05,-107.81"/>
</g>
<!-- Node16 -->
<g id="node16" class="node">
<title>Node16</title>
<g id="a_node16"><a xlink:href="traits_8h.html" target="_top" xlink:title=" ">
<polygon fill="white" stroke="black" points="353.7,-134.5 353.7,-164.5 481.7,-164.5 481.7,-134.5 353.7,-134.5"/>
<text text-anchor="start" x="361.7" y="-152.5" font-family="Helvetica,sans-Serif" font-size="10.00">network_butcher/Traits</text>
<text text-anchor="middle" x="417.7" y="-141.5" font-family="Helvetica,sans-Serif" font-size="10.00">/traits.h</text>
</a>
</g>
</g>
<!-- Node9&#45;&gt;Node16 -->
<g id="edge17" class="edge">
<title>Node9&#45;&gt;Node16</title>
<path fill="none" stroke="midnightblue" d="M371.44,-201.48C378.41,-193.79 388.96,-182.17 398.22,-171.96"/>
<polygon fill="midnightblue" stroke="midnightblue" points="400.85,-174.28 404.97,-164.52 395.66,-169.58 400.85,-174.28"/>
</g>
<!-- Node16&#45;&gt;Node3 -->
<g id="edge22" class="edge">
<title>Node16&#45;&gt;Node3</title>
<path fill="none" stroke="midnightblue" d="M376.04,-134.4C346.98,-124.56 308.02,-111.37 277.04,-100.88"/>
<polygon fill="midnightblue" stroke="midnightblue" points="277.88,-97.47 267.28,-97.58 275.63,-104.1 277.88,-97.47"/>
</g>
<!-- Node16&#45;&gt;Node6 -->
<g id="edge21" class="edge">
<title>Node16&#45;&gt;Node6</title>
<path fill="none" stroke="midnightblue" d="M445.43,-134.46C459.04,-125.94 474.11,-113.67 481.7,-98 487.71,-85.6 487.85,-79.33 481.7,-67 475.43,-54.43 464.38,-44.17 453.04,-36.25"/>
<polygon fill="midnightblue" stroke="midnightblue" points="454.68,-33.15 444.39,-30.66 450.89,-39.03 454.68,-33.15"/>
</g>
<!-- Node16&#45;&gt;Node15 -->
<g id="edge23" class="edge">
<title>Node16&#45;&gt;Node15</title>
<path fill="none" stroke="midnightblue" d="M455.46,-134.4C481.56,-124.64 516.49,-111.59 544.45,-101.15"/>
<polygon fill="midnightblue" stroke="midnightblue" points="545.88,-104.35 554.02,-97.58 543.43,-97.8 545.88,-104.35"/>
</g>
<!-- Node17 -->
<g id="node17" class="node">
<title>Node17</title>
<g id="a_node17"><a xlink:title=" ">
<polygon fill="white" stroke="#bfbfbf" points="440.7,-73 440.7,-92 472.7,-92 472.7,-73 440.7,-73"/>
<text text-anchor="middle" x="456.7" y="-80" font-family="Helvetica,sans-Serif" font-size="10.00">set</text>
</a>
</g>
</g>
<!-- Node16&#45;&gt;Node17 -->
<g id="edge18" class="edge">
<title>Node16&#45;&gt;Node17</title>
<path fill="none" stroke="midnightblue" d="M426.16,-134.4C432.06,-124.56 439.97,-111.38 446.27,-100.89"/>
<polygon fill="midnightblue" stroke="midnightblue" points="449.34,-102.57 451.48,-92.19 443.34,-98.97 449.34,-102.57"/>
</g>
<!-- Node18 -->
<g id="node18" class="node">
<title>Node18</title>
<g id="a_node18"><a xlink:title=" ">
<polygon fill="white" stroke="#bfbfbf" points="308.7,-73 308.7,-92 346.7,-92 346.7,-73 308.7,-73"/>
<text text-anchor="middle" x="327.7" y="-80" font-family="Helvetica,sans-Serif" font-size="10.00">map</text>
</a>
</g>
</g>
<!-- Node16&#45;&gt;Node18 -->
<g id="edge19" class="edge">
<title>Node16&#45;&gt;Node18</title>
<path fill="none" stroke="midnightblue" d="M398.17,-134.4C383.22,-123.6 362.67,-108.76 347.62,-97.89"/>
<polygon fill="midnightblue" stroke="midnightblue" points="349.64,-95.02 339.48,-92.01 345.54,-100.7 349.64,-95.02"/>
</g>
<!-- Node19 -->
<g id="node19" class="node">
<title>Node19</title>
<g id="a_node19"><a xlink:title=" ">
<polygon fill="white" stroke="#bfbfbf" points="364.7,-73 364.7,-92 422.7,-92 422.7,-73 364.7,-73"/>
<text text-anchor="middle" x="393.7" y="-80" font-family="Helvetica,sans-Serif" font-size="10.00">memory</text>
</a>
</g>
</g>
<!-- Node16&#45;&gt;Node19 -->
<g id="edge20" class="edge">
<title>Node16&#45;&gt;Node19</title>
<path fill="none" stroke="midnightblue" d="M412.49,-134.4C408.97,-124.86 404.29,-112.18 400.48,-101.86"/>
<polygon fill="midnightblue" stroke="midnightblue" points="403.66,-100.36 396.91,-92.19 397.09,-102.79 403.66,-100.36"/>
</g>
</g>
</svg>
        <g id="navigator" transform="translate(0 0)" fill="#404254">
                <rect fill="#f2f5e9" fill-opacity="0.5" stroke="#606060" stroke-width=".5" x="0" y="0" width="60" height="60"/>
                <use id="zoomplus" xlink:href="#zoomPlus" x="17" y="9" onmousedown="handleZoom(evt,'in')"/>
                <use id="zoomminus" xlink:href="#zoomMin" x="42" y="9" onmousedown="handleZoom(evt,'out')"/>
                <use id="reset" xlink:href="#resetDef" x="30" y="36" onmousedown="handleReset()"/>
                <g id="arrowUp" xlink:href="#dirArrow" transform="translate(30 24)" onmousedown="handlePan(0,-1)">
                  <use xlink:href="#rim" fill="#404040">
                        <set attributeName="fill" to="#808080" begin="arrowUp.mouseover" end="arrowUp.mouseout"/>
                  </use>
                  <path fill="none" stroke="white" stroke-width="1.5" d="M0,-3.0v7 M-2.5,-0.5L0,-3.0L2.5,-0.5"/>
                </g>
                <g id="arrowRight" xlink:href="#dirArrow" transform="rotate(90) translate(36 -43)" onmousedown="handlePan(1,0)">
                  <use xlink:href="#rim" fill="#404040">
                        <set attributeName="fill" to="#808080" begin="arrowRight.mouseover" end="arrowRight.mouseout"/>
                  </use>
                  <path fill="none" stroke="white" stroke-width="1.5" d="M0,-3.0v7 M-2.5,-0.5L0,-3.0L2.5,-0.5"/>
                </g>
                <g id="arrowDown" xlink:href="#dirArrow" transform="rotate(180) translate(-30 -48)" onmousedown="handlePan(0,1)">
                  <use xlink:href="#rim" fill="#404040">
                        <set attributeName="fill" to="#808080" begin="arrowDown.mouseover" end="arrowDown.mouseout"/>
                  </use>
                  <path fill="none" stroke="white" stroke-width="1.5" d="M0,-3.0v7 M-2.5,-0.5L0,-3.0L2.5,-0.5"/>
                </g>
                <g id="arrowLeft" xlink:href="#dirArrow" transform="rotate(270) translate(-36 17)" onmousedown="handlePan(-1,0)">
                  <use xlink:href="#rim" fill="#404040">
                        <set attributeName="fill" to="#808080" begin="arrowLeft.mouseover" end="arrowLeft.mouseout"/>
                  </use>
                  <path fill="none" stroke="white" stroke-width="1.5" d="M0,-3.0v7 M-2.5,-0.5L0,-3.0L2.5,-0.5"/>
                </g>
        </g>
        <svg viewBox="0 0 15 15" width="100%" height="30px" preserveAspectRatio="xMaxYMin meet">
         <g id="arrow_out" transform="scale(0.3 0.3)">
          <a xlink:href="dense__tensor_8cpp__incl_org.svg" target="_base">
           <rect id="button" ry="5" rx="5" y="6" x="6" height="38" width="38"
                fill="#f2f5e9" fill-opacity="0.5" stroke="#606060" stroke-width="1.0"/>
           <path id="arrow"
             d="M 11.500037,31.436501 C 11.940474,20.09759 22.043105,11.32322 32.158766,21.979434 L 37.068811,17.246167 C 37.068811,17.246167 37.088388,32 37.088388,32 L 22.160133,31.978069 C 22.160133,31.978069 26.997745,27.140456 26.997745,27.140456 C 18.528582,18.264221 13.291696,25.230495 11.500037,31.436501 z"
             style="fill:#404040;"/>
          </a>
         </g>
        </svg>
</svg>
