<?xml version="1.0" encoding="UTF-8" standalone="no"?>
<!DOCTYPE svg PUBLIC "-//W3C//DTD SVG 1.1//EN"
 "http://www.w3.org/Graphics/SVG/1.1/DTD/svg11.dtd">
<!-- Generated by graphviz version 2.43.0 (0)
 -->
<!-- Title: include/Types/dense_tensor.h Pages: 1 -->
<svg width="1089pt" height="1178pt"
 viewBox="0.00 0.00 1088.50 1178.00" xmlns="http://www.w3.org/2000/svg" xmlns:xlink="http://www.w3.org/1999/xlink">
<g id="graph0" class="graph" transform="scale(1 1) rotate(0) translate(4 1174)">
<title>include/Types/dense_tensor.h</title>
<polygon fill="white" stroke="transparent" points="-4,4 -4,-1174 1084.5,-1174 1084.5,4 -4,4"/>
<!-- Node1 -->
<g id="node1" class="node">
<title>Node1</title>
<g id="a_node1"><a xlink:title=" ">
<polygon fill="#bfbfbf" stroke="black" points="734.5,-1139.5 734.5,-1169.5 849.5,-1169.5 849.5,-1139.5 734.5,-1139.5"/>
<text text-anchor="start" x="742.5" y="-1157.5" font-family="Helvetica,sans-Serif" font-size="10.00">include/Types/dense</text>
<text text-anchor="middle" x="792" y="-1146.5" font-family="Helvetica,sans-Serif" font-size="10.00">_tensor.h</text>
</a>
</g>
</g>
<!-- Node2 -->
<g id="node2" class="node">
<title>Node2</title>
<g id="a_node2"><a xlink:href="node_8h.html" target="_top" xlink:title=" ">
<polygon fill="white" stroke="black" points="583,-1083.5 583,-1102.5 715,-1102.5 715,-1083.5 583,-1083.5"/>
<text text-anchor="middle" x="649" y="-1090.5" font-family="Helvetica,sans-Serif" font-size="10.00">include/Network/node.h</text>
</a>
</g>
</g>
<!-- Node1&#45;&gt;Node2 -->
<g id="edge1" class="edge">
<title>Node1&#45;&gt;Node2</title>
<path fill="none" stroke="midnightblue" d="M748.78,-1135.52C722.61,-1124.63 690.42,-1111.23 669.81,-1102.66"/>
<polygon fill="midnightblue" stroke="midnightblue" points="747.53,-1138.79 758.11,-1139.4 750.22,-1132.33 747.53,-1138.79"/>
</g>
<!-- Node30 -->
<g id="node30" class="node">
<title>Node30</title>
<g id="a_node30"><a xlink:href="content_8h.html" target="_top" xlink:title=" ">
<polygon fill="white" stroke="black" points="418.5,-1083.5 418.5,-1102.5 549.5,-1102.5 549.5,-1083.5 418.5,-1083.5"/>
<text text-anchor="middle" x="484" y="-1090.5" font-family="Helvetica,sans-Serif" font-size="10.00">include/Types/content.h</text>
</a>
</g>
</g>
<!-- Node1&#45;&gt;Node30 -->
<g id="edge52" class="edge">
<title>Node1&#45;&gt;Node30</title>
<path fill="none" stroke="midnightblue" d="M724.35,-1140.43C664.75,-1128.92 579.64,-1112.48 528.32,-1102.56"/>
<polygon fill="midnightblue" stroke="midnightblue" points="723.95,-1143.92 734.43,-1142.38 725.27,-1137.05 723.95,-1143.92"/>
</g>
<!-- Node31 -->
<g id="node31" class="node">
<title>Node31</title>
<g id="a_node31"><a xlink:href="utilities_8h.html" target="_top" xlink:title=" ">
<polygon fill="white" stroke="black" points="757.5,-725.5 757.5,-744.5 858.5,-744.5 858.5,-725.5 757.5,-725.5"/>
<text text-anchor="middle" x="808" y="-732.5" font-family="Helvetica,sans-Serif" font-size="10.00">include/utilities.h</text>
</a>
</g>
</g>
<!-- Node1&#45;&gt;Node31 -->
<g id="edge56" class="edge">
<title>Node1&#45;&gt;Node31</title>
<path fill="none" stroke="midnightblue" d="M785.18,-1129.19C783,-1104.76 783,-1066.02 783,-1032.5 783,-1032.5 783,-1032.5 783,-857 783,-814.62 792.77,-764.61 801.33,-744.75"/>
<polygon fill="midnightblue" stroke="midnightblue" points="781.73,-1129.81 786.34,-1139.34 788.68,-1129.01 781.73,-1129.81"/>
</g>
<!-- Node35 -->
<g id="node35" class="node">
<title>Node35</title>
<g id="a_node35"><a xlink:href="dense__tensor_8cpp.html" target="_top" xlink:title=" ">
<polygon fill="white" stroke="black" points="828.5,-1083.5 828.5,-1102.5 977.5,-1102.5 977.5,-1083.5 828.5,-1083.5"/>
<text text-anchor="middle" x="903" y="-1090.5" font-family="Helvetica,sans-Serif" font-size="10.00">src/Types/dense_tensor.cpp</text>
</a>
</g>
</g>
<!-- Node1&#45;&gt;Node35 -->
<g id="edge66" class="edge">
<title>Node1&#45;&gt;Node35</title>
<path fill="none" stroke="midnightblue" d="M827.16,-1134.65C847.17,-1123.93 871.27,-1111.01 886.85,-1102.66"/>
<polygon fill="midnightblue" stroke="midnightblue" points="825.47,-1131.59 818.31,-1139.4 828.77,-1137.76 825.47,-1131.59"/>
</g>
<!-- Node3 -->
<g id="node3" class="node">
<title>Node3</title>
<g id="a_node3"><a xlink:href="graph_8h.html" target="_top" xlink:title=" ">
<polygon fill="white" stroke="black" points="426,-960.5 426,-979.5 562,-979.5 562,-960.5 426,-960.5"/>
<text text-anchor="middle" x="494" y="-967.5" font-family="Helvetica,sans-Serif" font-size="10.00">include/Network/graph.h</text>
</a>
</g>
</g>
<!-- Node2&#45;&gt;Node3 -->
<g id="edge2" class="edge">
<title>Node2&#45;&gt;Node3</title>
<path fill="none" stroke="midnightblue" d="M649.15,-1072.85C648.25,-1055.86 644.28,-1031.39 630,-1016 612.24,-996.86 586.17,-985.85 561.59,-979.52"/>
<polygon fill="midnightblue" stroke="midnightblue" points="645.66,-1073.3 649.37,-1083.23 652.65,-1073.15 645.66,-1073.3"/>
</g>
<!-- Node29 -->
<g id="node29" class="node">
<title>Node29</title>
<g id="a_node29"><a xlink:href="node__traits_8h.html" target="_top" xlink:title=" ">
<polygon fill="white" stroke="black" points="497.5,-1016.5 497.5,-1046.5 620.5,-1046.5 620.5,-1016.5 497.5,-1016.5"/>
<text text-anchor="start" x="505.5" y="-1034.5" font-family="Helvetica,sans-Serif" font-size="10.00">include/Network/node</text>
<text text-anchor="middle" x="559" y="-1023.5" font-family="Helvetica,sans-Serif" font-size="10.00">_traits.h</text>
</a>
</g>
</g>
<!-- Node2&#45;&gt;Node29 -->
<g id="edge50" class="edge">
<title>Node2&#45;&gt;Node29</title>
<path fill="none" stroke="midnightblue" d="M627.43,-1077.74C613.12,-1068.28 594.44,-1055.93 580.21,-1046.52"/>
<polygon fill="midnightblue" stroke="midnightblue" points="625.83,-1080.88 636.11,-1083.48 629.69,-1075.04 625.83,-1080.88"/>
</g>
<!-- Node4 -->
<g id="node4" class="node">
<title>Node4</title>
<g id="a_node4"><a xlink:href="mwgraph_8h.html" target="_top" xlink:title=" ">
<polygon fill="white" stroke="black" points="417,-904.5 417,-923.5 571,-923.5 571,-904.5 417,-904.5"/>
<text text-anchor="middle" x="494" y="-911.5" font-family="Helvetica,sans-Serif" font-size="10.00">include/Network/mwgraph.h</text>
</a>
</g>
</g>
<!-- Node3&#45;&gt;Node4 -->
<g id="edge3" class="edge">
<title>Node3&#45;&gt;Node4</title>
<path fill="none" stroke="midnightblue" d="M494,-949.8C494,-940.91 494,-930.78 494,-923.75"/>
<polygon fill="midnightblue" stroke="midnightblue" points="490.5,-950.08 494,-960.08 497.5,-950.08 490.5,-950.08"/>
</g>
<!-- Node23 -->
<g id="node23" class="node">
<title>Node23</title>
<g id="a_node23"><a xlink:href="graph__traits_8h.html" target="_top" xlink:title=" ">
<polygon fill="white" stroke="black" points="262.5,-781.5 262.5,-811.5 389.5,-811.5 389.5,-781.5 262.5,-781.5"/>
<text text-anchor="start" x="270.5" y="-799.5" font-family="Helvetica,sans-Serif" font-size="10.00">include/Network/graph</text>
<text text-anchor="middle" x="326" y="-788.5" font-family="Helvetica,sans-Serif" font-size="10.00">_traits.h</text>
</a>
</g>
</g>
<!-- Node3&#45;&gt;Node23 -->
<g id="edge49" class="edge">
<title>Node3&#45;&gt;Node23</title>
<path fill="none" stroke="midnightblue" d="M460.49,-956.31C443.46,-948.72 423.2,-937.85 408,-924 371.24,-890.51 343.88,-837.05 332.21,-811.71"/>
<polygon fill="midnightblue" stroke="midnightblue" points="459.51,-959.7 470.08,-960.39 462.25,-953.25 459.51,-959.7"/>
</g>
<!-- Node5 -->
<g id="node5" class="node">
<title>Node5</title>
<g id="a_node5"><a xlink:href="wgraph_8h.html" target="_top" xlink:title=" ">
<polygon fill="white" stroke="black" points="430,-848.5 430,-867.5 574,-867.5 574,-848.5 430,-848.5"/>
<text text-anchor="middle" x="502" y="-855.5" font-family="Helvetica,sans-Serif" font-size="10.00">include/Network/wgraph.h</text>
</a>
</g>
</g>
<!-- Node4&#45;&gt;Node5 -->
<g id="edge4" class="edge">
<title>Node4&#45;&gt;Node5</title>
<path fill="none" stroke="midnightblue" d="M496.8,-894.1C498.13,-885.14 499.65,-874.86 500.7,-867.75"/>
<polygon fill="midnightblue" stroke="midnightblue" points="493.32,-893.68 495.32,-904.08 500.25,-894.7 493.32,-893.68"/>
</g>
<!-- Node4&#45;&gt;Node23 -->
<g id="edge48" class="edge">
<title>Node4&#45;&gt;Node23</title>
<path fill="none" stroke="midnightblue" d="M470.41,-899.16C455.96,-890.51 437.18,-878.96 421,-868 393.62,-849.45 363.11,-826.35 344.23,-811.76"/>
<polygon fill="midnightblue" stroke="midnightblue" points="468.84,-902.3 479.22,-904.4 472.41,-896.28 468.84,-902.3"/>
</g>
<!-- Node6 -->
<g id="node6" class="node">
<title>Node6</title>
<g id="a_node6"><a xlink:href="computer__memory_8h.html" target="_top" xlink:title=" ">
<polygon fill="white" stroke="black" points="542,-653 542,-683 694,-683 694,-653 542,-653"/>
<text text-anchor="start" x="550" y="-671" font-family="Helvetica,sans-Serif" font-size="10.00">include/Computer/computer</text>
<text text-anchor="middle" x="618" y="-660" font-family="Helvetica,sans-Serif" font-size="10.00">_memory.h</text>
</a>
</g>
</g>
<!-- Node5&#45;&gt;Node6 -->
<g id="edge5" class="edge">
<title>Node5&#45;&gt;Node6</title>
<path fill="none" stroke="midnightblue" d="M512.6,-839.81C535.31,-803.01 588.28,-717.17 609.24,-683.2"/>
<polygon fill="midnightblue" stroke="midnightblue" points="509.56,-838.09 507.29,-848.43 515.52,-841.76 509.56,-838.09"/>
</g>
<!-- Node5&#45;&gt;Node23 -->
<g id="edge29" class="edge">
<title>Node5&#45;&gt;Node23</title>
<path fill="none" stroke="midnightblue" d="M467.19,-845.23C438.53,-835.54 397.82,-821.78 367.48,-811.52"/>
<polygon fill="midnightblue" stroke="midnightblue" points="466.19,-848.59 476.78,-848.48 468.43,-841.96 466.19,-848.59"/>
</g>
<!-- Node7 -->
<g id="node7" class="node">
<title>Node7</title>
<g id="a_node7"><a xlink:href="butcher_8h.html" target="_top" xlink:title=" ">
<polygon fill="white" stroke="black" points="322,-268.5 322,-287.5 462,-287.5 462,-268.5 322,-268.5"/>
<text text-anchor="middle" x="392" y="-275.5" font-family="Helvetica,sans-Serif" font-size="10.00">include/Butcher/butcher.h</text>
</a>
</g>
</g>
<!-- Node6&#45;&gt;Node7 -->
<g id="edge6" class="edge">
<title>Node6&#45;&gt;Node7</title>
<path fill="none" stroke="midnightblue" d="M626.85,-642.94C643.95,-592.06 675.64,-471.59 626,-391 587.14,-327.92 501.6,-299.66 445.42,-287.52"/>
<polygon fill="midnightblue" stroke="midnightblue" points="623.44,-642.11 623.46,-652.71 630.05,-644.41 623.44,-642.11"/>
</g>
<!-- Node13 -->
<g id="node13" class="node">
<title>Node13</title>
<g id="a_node13"><a xlink:href="network__butcher_8h.html" target="_top" xlink:title=" ">
<polygon fill="white" stroke="black" points="649.5,-56.5 649.5,-75.5 794.5,-75.5 794.5,-56.5 649.5,-56.5"/>
<text text-anchor="middle" x="722" y="-63.5" font-family="Helvetica,sans-Serif" font-size="10.00">include/network_butcher.h</text>
</a>
</g>
</g>
<!-- Node6&#45;&gt;Node13 -->
<g id="edge28" class="edge">
<title>Node6&#45;&gt;Node13</title>
<path fill="none" stroke="midnightblue" d="M635.85,-644.35C642.76,-634.57 650.17,-622.71 655,-611 712.44,-471.86 722,-429.53 722,-279 722,-279 722,-279 722,-210 722,-159.11 722,-98.02 722,-75.71"/>
<polygon fill="midnightblue" stroke="midnightblue" points="632.83,-642.55 629.72,-652.67 638.47,-646.7 632.83,-642.55"/>
</g>
<!-- Node18 -->
<g id="node18" class="node">
<title>Node18</title>
<g id="a_node18"><a xlink:href="graph__constraint_8h.html" target="_top" xlink:title=" ">
<polygon fill="white" stroke="black" points="218.5,-575 218.5,-605 341.5,-605 341.5,-575 218.5,-575"/>
<text text-anchor="start" x="226.5" y="-593" font-family="Helvetica,sans-Serif" font-size="10.00">include/Butcher/graph</text>
<text text-anchor="middle" x="280" y="-582" font-family="Helvetica,sans-Serif" font-size="10.00">_constraint.h</text>
</a>
</g>
</g>
<!-- Node6&#45;&gt;Node18 -->
<g id="edge19" class="edge">
<title>Node6&#45;&gt;Node18</title>
<path fill="none" stroke="midnightblue" d="M533.71,-651.01C480.75,-640.56 411.13,-626.1 350,-611 342.64,-609.18 334.88,-607.12 327.32,-605.02"/>
<polygon fill="midnightblue" stroke="midnightblue" points="533.25,-654.49 543.73,-652.98 534.6,-647.62 533.25,-654.49"/>
</g>
<!-- Node20 -->
<g id="node20" class="node">
<title>Node20</title>
<g id="a_node20"><a xlink:href="block__aMLLibrary__weight__importer_8h.html" target="_top" xlink:title=" ">
<polygon fill="white" stroke="black" points="473.5,-480.5 473.5,-532.5 616.5,-532.5 616.5,-480.5 473.5,-480.5"/>
<text text-anchor="start" x="481.5" y="-520.5" font-family="Helvetica,sans-Serif" font-size="10.00">include/IO_Interaction</text>
<text text-anchor="start" x="481.5" y="-509.5" font-family="Helvetica,sans-Serif" font-size="10.00">/Weight_Importer_Helpers</text>
<text text-anchor="start" x="481.5" y="-498.5" font-family="Helvetica,sans-Serif" font-size="10.00">/block_aMLLibrary_weight</text>
<text text-anchor="middle" x="545" y="-487.5" font-family="Helvetica,sans-Serif" font-size="10.00">_importer.h</text>
</a>
</g>
</g>
<!-- Node6&#45;&gt;Node20 -->
<g id="edge22" class="edge">
<title>Node6&#45;&gt;Node20</title>
<path fill="none" stroke="midnightblue" d="M607.33,-643.69C593.79,-614.1 570.52,-563.26 556.57,-532.77"/>
<polygon fill="midnightblue" stroke="midnightblue" points="604.18,-645.21 611.52,-652.85 610.54,-642.3 604.18,-645.21"/>
</g>
<!-- Node8 -->
<g id="node8" class="node">
<title>Node8</title>
<g id="a_node8"><a xlink:href="onnx__importer__helpers_8h.html" target="_top" xlink:title=" ">
<polygon fill="white" stroke="black" points="62.5,-196 62.5,-226 203.5,-226 203.5,-196 62.5,-196"/>
<text text-anchor="start" x="70.5" y="-214" font-family="Helvetica,sans-Serif" font-size="10.00">include/IO_Interaction</text>
<text text-anchor="middle" x="133" y="-203" font-family="Helvetica,sans-Serif" font-size="10.00">/onnx_importer_helpers.h</text>
</a>
</g>
</g>
<!-- Node7&#45;&gt;Node8 -->
<g id="edge7" class="edge">
<title>Node7&#45;&gt;Node8</title>
<path fill="none" stroke="midnightblue" d="M348.08,-265.98C304.24,-254.97 236.7,-238.02 189.02,-226.06"/>
<polygon fill="midnightblue" stroke="midnightblue" points="347.32,-269.4 357.87,-268.44 349.03,-262.61 347.32,-269.4"/>
</g>
<!-- Node7&#45;&gt;Node13 -->
<g id="edge18" class="edge">
<title>Node7&#45;&gt;Node13</title>
<path fill="none" stroke="midnightblue" d="M422.29,-264.49C468.87,-244.56 559.91,-202.84 629,-154 663.84,-129.37 699.01,-92.43 714.21,-75.74"/>
<polygon fill="midnightblue" stroke="midnightblue" points="420.9,-261.28 413.05,-268.4 423.63,-267.72 420.9,-261.28"/>
</g>
<!-- Node16 -->
<g id="node16" class="node">
<title>Node16</title>
<g id="a_node16"><a xlink:href="onnx__model__reconstructor__helpers_8h.html" target="_top" xlink:title=" ">
<polygon fill="white" stroke="black" points="317.5,-190.5 317.5,-231.5 466.5,-231.5 466.5,-190.5 317.5,-190.5"/>
<text text-anchor="start" x="325.5" y="-219.5" font-family="Helvetica,sans-Serif" font-size="10.00">include/IO_Interaction</text>
<text text-anchor="start" x="325.5" y="-208.5" font-family="Helvetica,sans-Serif" font-size="10.00">/onnx_model_reconstructor</text>
<text text-anchor="middle" x="392" y="-197.5" font-family="Helvetica,sans-Serif" font-size="10.00">_helpers.h</text>
</a>
</g>
</g>
<!-- Node7&#45;&gt;Node16 -->
<g id="edge15" class="edge">
<title>Node7&#45;&gt;Node16</title>
<path fill="none" stroke="midnightblue" d="M392,-258.04C392,-249.71 392,-239.94 392,-231.54"/>
<polygon fill="midnightblue" stroke="midnightblue" points="388.5,-258.23 392,-268.23 395.5,-258.23 388.5,-258.23"/>
</g>
<!-- Node9 -->
<g id="node9" class="node">
<title>Node9</title>
<g id="a_node9"><a xlink:href="io__manager_8h.html" target="_top" xlink:title=" ">
<polygon fill="white" stroke="black" points="331.5,-123.5 331.5,-142.5 452.5,-142.5 452.5,-123.5 331.5,-123.5"/>
<text text-anchor="middle" x="392" y="-130.5" font-family="Helvetica,sans-Serif" font-size="10.00">include/io_manager.h</text>
</a>
</g>
</g>
<!-- Node8&#45;&gt;Node9 -->
<g id="edge8" class="edge">
<title>Node8&#45;&gt;Node9</title>
<path fill="none" stroke="midnightblue" d="M190.49,-193.13C243.93,-177.45 321.36,-154.73 362.96,-142.52"/>
<polygon fill="midnightblue" stroke="midnightblue" points="189.42,-189.8 180.81,-195.97 191.39,-196.51 189.42,-189.8"/>
</g>
<!-- Node15 -->
<g id="node15" class="node">
<title>Node15</title>
<g id="a_node15"><a xlink:href="onnx__importer__helpers_8cpp.html" target="_top" xlink:title=" ">
<polygon fill="white" stroke="black" points="57,-118 57,-148 209,-148 209,-118 57,-118"/>
<text text-anchor="start" x="65" y="-136" font-family="Helvetica,sans-Serif" font-size="10.00">src/IO_Interaction</text>
<text text-anchor="middle" x="133" y="-125" font-family="Helvetica,sans-Serif" font-size="10.00">/onnx_importer_helpers.cpp</text>
</a>
</g>
</g>
<!-- Node8&#45;&gt;Node15 -->
<g id="edge14" class="edge">
<title>Node8&#45;&gt;Node15</title>
<path fill="none" stroke="midnightblue" d="M133,-185.59C133,-173.26 133,-158.72 133,-148.23"/>
<polygon fill="midnightblue" stroke="midnightblue" points="129.5,-185.7 133,-195.7 136.5,-185.71 129.5,-185.7"/>
</g>
<!-- Node10 -->
<g id="node10" class="node">
<title>Node10</title>
<g id="a_node10"><a xlink:href="general__manager_8h.html" target="_top" xlink:title=" ">
<polygon fill="white" stroke="black" points="243.5,-56.5 243.5,-75.5 392.5,-75.5 392.5,-56.5 243.5,-56.5"/>
<text text-anchor="middle" x="318" y="-63.5" font-family="Helvetica,sans-Serif" font-size="10.00">include/general_manager.h</text>
</a>
</g>
</g>
<!-- Node9&#45;&gt;Node10 -->
<g id="edge9" class="edge">
<title>Node9&#45;&gt;Node10</title>
<path fill="none" stroke="midnightblue" d="M374.19,-116.36C359.64,-103.58 339.62,-85.99 327.82,-75.63"/>
<polygon fill="midnightblue" stroke="midnightblue" points="372.2,-119.26 382.02,-123.23 376.82,-114 372.2,-119.26"/>
</g>
<!-- Node9&#45;&gt;Node13 -->
<g id="edge12" class="edge">
<title>Node9&#45;&gt;Node13</title>
<path fill="none" stroke="midnightblue" d="M429.17,-120.58C439.72,-117.56 451.26,-114.46 462,-112 529.99,-96.45 609.07,-83.48 662,-75.52"/>
<polygon fill="midnightblue" stroke="midnightblue" points="428.04,-117.27 419.42,-123.43 430,-123.99 428.04,-117.27"/>
</g>
<!-- Node14 -->
<g id="node14" class="node">
<title>Node14</title>
<g id="a_node14"><a xlink:href="io__manager_8cpp.html" target="_top" xlink:title=" ">
<polygon fill="white" stroke="black" points="410.5,-56.5 410.5,-75.5 521.5,-75.5 521.5,-56.5 410.5,-56.5"/>
<text text-anchor="middle" x="466" y="-63.5" font-family="Helvetica,sans-Serif" font-size="10.00">src/io_manager.cpp</text>
</a>
</g>
</g>
<!-- Node9&#45;&gt;Node14 -->
<g id="edge13" class="edge">
<title>Node9&#45;&gt;Node14</title>
<path fill="none" stroke="midnightblue" d="M409.81,-116.36C424.36,-103.58 444.38,-85.99 456.18,-75.63"/>
<polygon fill="midnightblue" stroke="midnightblue" points="407.18,-114 401.98,-123.23 411.8,-119.26 407.18,-114"/>
</g>
<!-- Node11 -->
<g id="node11" class="node">
<title>Node11</title>
<g id="a_node11"><a xlink:href="general__manager_8cpp.html" target="_top" xlink:title=" ">
<polygon fill="white" stroke="black" points="185.5,-0.5 185.5,-19.5 324.5,-19.5 324.5,-0.5 185.5,-0.5"/>
<text text-anchor="middle" x="255" y="-7.5" font-family="Helvetica,sans-Serif" font-size="10.00">src/general_manager.cpp</text>
</a>
</g>
</g>
<!-- Node10&#45;&gt;Node11 -->
<g id="edge10" class="edge">
<title>Node10&#45;&gt;Node11</title>
<path fill="none" stroke="midnightblue" d="M299.96,-49.54C288.73,-39.91 274.68,-27.87 265.31,-19.83"/>
<polygon fill="midnightblue" stroke="midnightblue" points="298.01,-52.47 307.88,-56.32 302.56,-47.16 298.01,-52.47"/>
</g>
<!-- Node12 -->
<g id="node12" class="node">
<title>Node12</title>
<g id="a_node12"><a xlink:href="main_8cpp.html" target="_top" xlink:title=" ">
<polygon fill="white" stroke="black" points="342.5,-0.5 342.5,-19.5 421.5,-19.5 421.5,-0.5 342.5,-0.5"/>
<text text-anchor="middle" x="382" y="-7.5" font-family="Helvetica,sans-Serif" font-size="10.00">src/main.cpp</text>
</a>
</g>
</g>
<!-- Node10&#45;&gt;Node12 -->
<g id="edge11" class="edge">
<title>Node10&#45;&gt;Node12</title>
<path fill="none" stroke="midnightblue" d="M335.99,-49.82C347.46,-40.15 361.91,-27.95 371.53,-19.83"/>
<polygon fill="midnightblue" stroke="midnightblue" points="333.67,-47.2 328.28,-56.32 338.18,-52.55 333.67,-47.2"/>
</g>
<!-- Node16&#45;&gt;Node9 -->
<g id="edge16" class="edge">
<title>Node16&#45;&gt;Node9</title>
<path fill="none" stroke="midnightblue" d="M392,-180.05C392,-166.56 392,-151.65 392,-142.55"/>
<polygon fill="midnightblue" stroke="midnightblue" points="388.5,-180.43 392,-190.43 395.5,-180.43 388.5,-180.43"/>
</g>
<!-- Node17 -->
<g id="node17" class="node">
<title>Node17</title>
<g id="a_node17"><a xlink:href="onnx__model__reconstructor__helpers_8cpp.html" target="_top" xlink:title=" ">
<polygon fill="white" stroke="black" points="470.5,-112.5 470.5,-153.5 619.5,-153.5 619.5,-112.5 470.5,-112.5"/>
<text text-anchor="start" x="478.5" y="-141.5" font-family="Helvetica,sans-Serif" font-size="10.00">src/IO_Interaction</text>
<text text-anchor="start" x="478.5" y="-130.5" font-family="Helvetica,sans-Serif" font-size="10.00">/onnx_model_reconstructor</text>
<text text-anchor="middle" x="545" y="-119.5" font-family="Helvetica,sans-Serif" font-size="10.00">_helpers.cpp</text>
</a>
</g>
</g>
<!-- Node16&#45;&gt;Node17 -->
<g id="edge17" class="edge">
<title>Node16&#45;&gt;Node17</title>
<path fill="none" stroke="midnightblue" d="M440.5,-185.91C461.54,-175.46 485.85,-163.38 505.73,-153.51"/>
<polygon fill="midnightblue" stroke="midnightblue" points="438.8,-182.84 431.4,-190.43 441.91,-189.11 438.8,-182.84"/>
</g>
<!-- Node19 -->
<g id="node19" class="node">
<title>Node19</title>
<g id="a_node19"><a xlink:href="constrained__block__graph__builder_8h.html" target="_top" xlink:title=" ">
<polygon fill="white" stroke="black" points="316,-324.5 316,-354.5 468,-354.5 468,-324.5 316,-324.5"/>
<text text-anchor="start" x="324" y="-342.5" font-family="Helvetica,sans-Serif" font-size="10.00">include/Butcher/constrained</text>
<text text-anchor="middle" x="392" y="-331.5" font-family="Helvetica,sans-Serif" font-size="10.00">_block_graph_builder.h</text>
</a>
</g>
</g>
<!-- Node18&#45;&gt;Node19 -->
<g id="edge20" class="edge">
<title>Node18&#45;&gt;Node19</title>
<path fill="none" stroke="midnightblue" d="M279.1,-564.74C278.85,-524.59 283.72,-443.53 323,-391 334.29,-375.9 351.36,-363.36 365.7,-354.54"/>
<polygon fill="midnightblue" stroke="midnightblue" points="275.6,-564.99 279.28,-574.92 282.6,-564.86 275.6,-564.99"/>
</g>
<!-- Node19&#45;&gt;Node7 -->
<g id="edge21" class="edge">
<title>Node19&#45;&gt;Node7</title>
<path fill="none" stroke="midnightblue" d="M392,-314.29C392,-304.86 392,-294.65 392,-287.66"/>
<polygon fill="midnightblue" stroke="midnightblue" points="388.5,-314.4 392,-324.4 395.5,-314.4 388.5,-314.4"/>
</g>
<!-- Node21 -->
<g id="node21" class="node">
<title>Node21</title>
<g id="a_node21"><a xlink:href="weight__importers_8h.html" target="_top" xlink:title=" ">
<polygon fill="white" stroke="black" points="332.5,-402.5 332.5,-432.5 455.5,-432.5 455.5,-402.5 332.5,-402.5"/>
<text text-anchor="start" x="340.5" y="-420.5" font-family="Helvetica,sans-Serif" font-size="10.00">include/IO_Interaction</text>
<text text-anchor="middle" x="394" y="-409.5" font-family="Helvetica,sans-Serif" font-size="10.00">/weight_importers.h</text>
</a>
</g>
</g>
<!-- Node20&#45;&gt;Node21 -->
<g id="edge23" class="edge">
<title>Node20&#45;&gt;Node21</title>
<path fill="none" stroke="midnightblue" d="M492.58,-475.3C467.35,-460.76 438.32,-444.03 418.33,-432.52"/>
<polygon fill="midnightblue" stroke="midnightblue" points="490.91,-478.38 501.32,-480.34 494.41,-472.31 490.91,-478.38"/>
</g>
<!-- Node22 -->
<g id="node22" class="node">
<title>Node22</title>
<g id="a_node22"><a xlink:href="block__aMLLibrary__weight__importer_8cpp.html" target="_top" xlink:title=" ">
<polygon fill="white" stroke="black" points="473.5,-391.5 473.5,-443.5 616.5,-443.5 616.5,-391.5 473.5,-391.5"/>
<text text-anchor="start" x="481.5" y="-431.5" font-family="Helvetica,sans-Serif" font-size="10.00">src/IO_Interaction</text>
<text text-anchor="start" x="481.5" y="-420.5" font-family="Helvetica,sans-Serif" font-size="10.00">/Weight_Importer_Helpers</text>
<text text-anchor="start" x="481.5" y="-409.5" font-family="Helvetica,sans-Serif" font-size="10.00">/block_aMLLibrary_weight</text>
<text text-anchor="middle" x="545" y="-398.5" font-family="Helvetica,sans-Serif" font-size="10.00">_importer.cpp</text>
</a>
</g>
</g>
<!-- Node20&#45;&gt;Node22 -->
<g id="edge27" class="edge">
<title>Node20&#45;&gt;Node22</title>
<path fill="none" stroke="midnightblue" d="M545,-470.19C545,-461.28 545,-451.9 545,-443.61"/>
<polygon fill="midnightblue" stroke="midnightblue" points="541.5,-470.34 545,-480.34 548.5,-470.34 541.5,-470.34"/>
</g>
<!-- Node21&#45;&gt;Node7 -->
<g id="edge25" class="edge">
<title>Node21&#45;&gt;Node7</title>
<path fill="none" stroke="midnightblue" d="M431.94,-397.26C461.18,-379.69 493.99,-352.23 477,-324 465.89,-305.55 444.39,-294.26 425.8,-287.61"/>
<polygon fill="midnightblue" stroke="midnightblue" points="429.95,-394.36 423.03,-402.38 433.45,-400.43 429.95,-394.36"/>
</g>
<!-- Node21&#45;&gt;Node9 -->
<g id="edge26" class="edge">
<title>Node21&#45;&gt;Node9</title>
<path fill="none" stroke="midnightblue" d="M443.77,-398.06C462.69,-388.32 482.27,-374.3 493,-355 499.7,-342.96 493.92,-337.75 493,-324 488.99,-264.04 506.68,-241.06 475,-190 460.79,-167.11 433.36,-151.41 413.93,-142.58"/>
<polygon fill="midnightblue" stroke="midnightblue" points="442.05,-395 434.57,-402.5 445.09,-401.3 442.05,-395"/>
</g>
<!-- Node21&#45;&gt;Node19 -->
<g id="edge24" class="edge">
<title>Node21&#45;&gt;Node19</title>
<path fill="none" stroke="midnightblue" d="M393.36,-392.09C393.03,-379.76 392.65,-365.22 392.37,-354.73"/>
<polygon fill="midnightblue" stroke="midnightblue" points="389.86,-392.3 393.62,-402.2 396.86,-392.12 389.86,-392.3"/>
</g>
<!-- Node23&#45;&gt;Node7 -->
<g id="edge30" class="edge">
<title>Node23&#45;&gt;Node7</title>
<path fill="none" stroke="midnightblue" d="M252.07,-789.1C178.34,-778.18 76,-748.67 76,-669 76,-669 76,-669 76,-589 76,-468.53 46.13,-407.47 133,-324 159.41,-298.62 254.51,-287.38 321.79,-282.52"/>
<polygon fill="midnightblue" stroke="midnightblue" points="251.88,-792.61 262.27,-790.52 252.85,-785.67 251.88,-792.61"/>
</g>
<!-- Node23&#45;&gt;Node8 -->
<g id="edge34" class="edge">
<title>Node23&#45;&gt;Node8</title>
<path fill="none" stroke="midnightblue" d="M252.52,-788.12C183.52,-780.09 86.22,-765.57 54,-745 19.08,-722.7 0,-710.44 0,-669 0,-669 0,-669 0,-338.5 0,-283.53 60.39,-245.2 99.78,-226.05"/>
<polygon fill="midnightblue" stroke="midnightblue" points="252.16,-791.6 262.49,-789.26 252.95,-784.65 252.16,-791.6"/>
</g>
<!-- Node23&#45;&gt;Node13 -->
<g id="edge42" class="edge">
<title>Node23&#45;&gt;Node13</title>
<path fill="none" stroke="midnightblue" d="M399.73,-783.15C543.43,-758.77 848.48,-705.42 865,-689 896.53,-657.66 885,-635.45 885,-591 885,-591 885,-591 885,-210 885,-137.34 792.35,-92.96 746.76,-75.52"/>
<polygon fill="midnightblue" stroke="midnightblue" points="398.94,-779.73 389.66,-784.85 400.11,-786.63 398.94,-779.73"/>
</g>
<!-- Node23&#45;&gt;Node16 -->
<g id="edge35" class="edge">
<title>Node23&#45;&gt;Node16</title>
<path fill="none" stroke="midnightblue" d="M252.26,-793.84C166.93,-787.54 38,-762.54 38,-669 38,-669 38,-669 38,-505.5 38,-419.82 39.13,-381.11 103,-324 163.77,-269.66 253.83,-240.41 317.23,-225.59"/>
<polygon fill="midnightblue" stroke="midnightblue" points="252.23,-797.35 262.44,-794.52 252.7,-790.36 252.23,-797.35"/>
</g>
<!-- Node23&#45;&gt;Node18 -->
<g id="edge31" class="edge">
<title>Node23&#45;&gt;Node18</title>
<path fill="none" stroke="midnightblue" d="M320.62,-771.58C310.96,-728.62 290.95,-639.7 283.18,-605.15"/>
<polygon fill="midnightblue" stroke="midnightblue" points="317.23,-772.46 322.84,-781.44 324.06,-770.92 317.23,-772.46"/>
</g>
<!-- Node24 -->
<g id="node24" class="node">
<title>Node24</title>
<g id="a_node24"><a xlink:href="path__converter_8h.html" target="_top" xlink:title=" ">
<polygon fill="white" stroke="black" points="142.5,-324.5 142.5,-354.5 259.5,-354.5 259.5,-324.5 142.5,-324.5"/>
<text text-anchor="start" x="150.5" y="-342.5" font-family="Helvetica,sans-Serif" font-size="10.00">include/Butcher/path</text>
<text text-anchor="middle" x="201" y="-331.5" font-family="Helvetica,sans-Serif" font-size="10.00">_converter.h</text>
</a>
</g>
</g>
<!-- Node23&#45;&gt;Node24 -->
<g id="edge32" class="edge">
<title>Node23&#45;&gt;Node24</title>
<path fill="none" stroke="midnightblue" d="M252,-785.11C205.35,-776.88 151.31,-763.63 137,-745 41.52,-620.66 158,-410.42 192.14,-354.5"/>
<polygon fill="midnightblue" stroke="midnightblue" points="251.69,-788.61 262.13,-786.84 252.87,-781.71 251.69,-788.61"/>
</g>
<!-- Node25 -->
<g id="node25" class="node">
<title>Node25</title>
<g id="a_node25"><a xlink:href="weight__importer_8h.html" target="_top" xlink:title=" ">
<polygon fill="white" stroke="black" points="357.5,-647.5 357.5,-688.5 500.5,-688.5 500.5,-647.5 357.5,-647.5"/>
<text text-anchor="start" x="365.5" y="-676.5" font-family="Helvetica,sans-Serif" font-size="10.00">include/IO_Interaction</text>
<text text-anchor="start" x="365.5" y="-665.5" font-family="Helvetica,sans-Serif" font-size="10.00">/Weight_Importer_Helpers</text>
<text text-anchor="middle" x="429" y="-654.5" font-family="Helvetica,sans-Serif" font-size="10.00">/weight_importer.h</text>
</a>
</g>
</g>
<!-- Node23&#45;&gt;Node25 -->
<g id="edge36" class="edge">
<title>Node23&#45;&gt;Node25</title>
<path fill="none" stroke="midnightblue" d="M343.77,-773.68C363.19,-749.83 394.03,-711.95 412.8,-688.89"/>
<polygon fill="midnightblue" stroke="midnightblue" points="341.02,-771.51 337.42,-781.48 346.44,-775.93 341.02,-771.51"/>
</g>
<!-- Node28 -->
<g id="node28" class="node">
<title>Node28</title>
<g id="a_node28"><a xlink:href="parameters_8h.html" target="_top" xlink:title=" ">
<polygon fill="white" stroke="black" points="146.5,-725.5 146.5,-744.5 297.5,-744.5 297.5,-725.5 146.5,-725.5"/>
<text text-anchor="middle" x="222" y="-732.5" font-family="Helvetica,sans-Serif" font-size="10.00">include/Types/parameters.h</text>
</a>
</g>
</g>
<!-- Node23&#45;&gt;Node28 -->
<g id="edge43" class="edge">
<title>Node23&#45;&gt;Node28</title>
<path fill="none" stroke="midnightblue" d="M292.55,-776.36C273.9,-765.69 251.6,-752.93 237.13,-744.66"/>
<polygon fill="midnightblue" stroke="midnightblue" points="290.94,-779.47 301.35,-781.4 294.41,-773.4 290.94,-779.47"/>
</g>
<!-- Node24&#45;&gt;Node7 -->
<g id="edge33" class="edge">
<title>Node24&#45;&gt;Node7</title>
<path fill="none" stroke="midnightblue" d="M256.02,-321.36C291.55,-310.29 336.25,-296.37 364.49,-287.57"/>
<polygon fill="midnightblue" stroke="midnightblue" points="254.77,-318.08 246.26,-324.4 256.85,-324.77 254.77,-318.08"/>
</g>
<!-- Node25&#45;&gt;Node20 -->
<g id="edge37" class="edge">
<title>Node25&#45;&gt;Node20</title>
<path fill="none" stroke="midnightblue" d="M477.93,-641.81C490.46,-633.43 502.94,-623.09 512,-611 529.41,-587.75 537.82,-555.02 541.75,-532.63"/>
<polygon fill="midnightblue" stroke="midnightblue" points="475.85,-638.98 469.29,-647.3 479.61,-644.89 475.85,-638.98"/>
</g>
<!-- Node26 -->
<g id="node26" class="node">
<title>Node26</title>
<g id="a_node26"><a xlink:href="csv__weight__importer_8h.html" target="_top" xlink:title=" ">
<polygon fill="white" stroke="black" points="359.5,-569.5 359.5,-610.5 502.5,-610.5 502.5,-569.5 359.5,-569.5"/>
<text text-anchor="start" x="367.5" y="-598.5" font-family="Helvetica,sans-Serif" font-size="10.00">include/IO_Interaction</text>
<text text-anchor="start" x="367.5" y="-587.5" font-family="Helvetica,sans-Serif" font-size="10.00">/Weight_Importer_Helpers</text>
<text text-anchor="middle" x="431" y="-576.5" font-family="Helvetica,sans-Serif" font-size="10.00">/csv_weight_importer.h</text>
</a>
</g>
</g>
<!-- Node25&#45;&gt;Node26 -->
<g id="edge38" class="edge">
<title>Node25&#45;&gt;Node26</title>
<path fill="none" stroke="midnightblue" d="M429.78,-637.3C430.02,-628.3 430.27,-618.65 430.49,-610.51"/>
<polygon fill="midnightblue" stroke="midnightblue" points="426.28,-637.34 429.52,-647.43 433.28,-637.52 426.28,-637.34"/>
</g>
<!-- Node26&#45;&gt;Node20 -->
<g id="edge39" class="edge">
<title>Node26&#45;&gt;Node20</title>
<path fill="none" stroke="midnightblue" d="M466.57,-563.57C480.31,-553.74 496,-542.53 509.71,-532.73"/>
<polygon fill="midnightblue" stroke="midnightblue" points="464.41,-560.82 458.31,-569.48 468.48,-566.51 464.41,-560.82"/>
</g>
<!-- Node26&#45;&gt;Node21 -->
<g id="edge40" class="edge">
<title>Node26&#45;&gt;Node21</title>
<path fill="none" stroke="midnightblue" d="M360.4,-565.9C334.76,-555.98 310.27,-544.12 303,-533 290.11,-513.29 291.95,-500.8 303,-480 314.63,-458.11 337.91,-442.59 358.02,-432.62"/>
<polygon fill="midnightblue" stroke="midnightblue" points="359.27,-569.22 369.86,-569.47 361.74,-562.67 359.27,-569.22"/>
</g>
<!-- Node27 -->
<g id="node27" class="node">
<title>Node27</title>
<g id="a_node27"><a xlink:href="csv__weight__importer_8cpp.html" target="_top" xlink:title=" ">
<polygon fill="white" stroke="black" points="312.5,-486 312.5,-527 455.5,-527 455.5,-486 312.5,-486"/>
<text text-anchor="start" x="320.5" y="-515" font-family="Helvetica,sans-Serif" font-size="10.00">src/IO_Interaction</text>
<text text-anchor="start" x="320.5" y="-504" font-family="Helvetica,sans-Serif" font-size="10.00">/Weight_Importer_Helpers</text>
<text text-anchor="middle" x="384" y="-493" font-family="Helvetica,sans-Serif" font-size="10.00">/csv_weight_importer.cpp</text>
</a>
</g>
</g>
<!-- Node26&#45;&gt;Node27 -->
<g id="edge41" class="edge">
<title>Node26&#45;&gt;Node27</title>
<path fill="none" stroke="midnightblue" d="M414.5,-560.39C408.14,-549.37 401.03,-537.03 395.27,-527.05"/>
<polygon fill="midnightblue" stroke="midnightblue" points="411.59,-562.36 419.62,-569.27 417.66,-558.86 411.59,-562.36"/>
</g>
<!-- Node28&#45;&gt;Node7 -->
<g id="edge44" class="edge">
<title>Node28&#45;&gt;Node7</title>
<path fill="none" stroke="midnightblue" d="M217.36,-715.58C210.35,-684.9 198.89,-621.52 209,-569 231.18,-453.84 228.6,-411.22 307,-324 322.63,-306.61 346.58,-294.79 365.08,-287.64"/>
<polygon fill="midnightblue" stroke="midnightblue" points="213.96,-716.41 219.7,-725.32 220.77,-714.78 213.96,-716.41"/>
</g>
<!-- Node28&#45;&gt;Node8 -->
<g id="edge46" class="edge">
<title>Node28&#45;&gt;Node8</title>
<path fill="none" stroke="midnightblue" d="M213.61,-715.97C210.03,-707.84 206,-698.06 203,-689 155.31,-545.02 141.48,-506.43 133,-355 130.36,-307.9 131.64,-251.95 132.47,-226.22"/>
<polygon fill="midnightblue" stroke="midnightblue" points="210.47,-717.53 217.79,-725.2 216.85,-714.64 210.47,-717.53"/>
</g>
<!-- Node28&#45;&gt;Node18 -->
<g id="edge45" class="edge">
<title>Node28&#45;&gt;Node18</title>
<path fill="none" stroke="midnightblue" d="M229.35,-715.89C241.01,-687.12 263.54,-631.58 274.17,-605.36"/>
<polygon fill="midnightblue" stroke="midnightblue" points="225.97,-714.9 225.45,-725.48 232.46,-717.53 225.97,-714.9"/>
</g>
<!-- Node28&#45;&gt;Node25 -->
<g id="edge47" class="edge">
<title>Node28&#45;&gt;Node25</title>
<path fill="none" stroke="midnightblue" d="M259.08,-722.36C288.9,-712.99 331.44,-699.63 366.5,-688.63"/>
<polygon fill="midnightblue" stroke="midnightblue" points="257.98,-719.03 249.49,-725.37 260.08,-725.71 257.98,-719.03"/>
</g>
<!-- Node29&#45;&gt;Node3 -->
<g id="edge51" class="edge">
<title>Node29&#45;&gt;Node3</title>
<path fill="none" stroke="midnightblue" d="M536.17,-1009.6C524.93,-999.32 512.01,-987.48 503.46,-979.66"/>
<polygon fill="midnightblue" stroke="midnightblue" points="533.86,-1012.23 543.6,-1016.4 538.58,-1007.07 533.86,-1012.23"/>
</g>
<!-- Node30&#45;&gt;Node3 -->
<g id="edge53" class="edge">
<title>Node30&#45;&gt;Node3</title>
<path fill="none" stroke="midnightblue" d="M485.02,-1072.81C485.9,-1057.43 487.29,-1035.31 489,-1016 490.12,-1003.32 491.83,-988.66 492.93,-979.62"/>
<polygon fill="midnightblue" stroke="midnightblue" points="481.51,-1072.92 484.46,-1083.1 488.5,-1073.31 481.51,-1072.92"/>
</g>
<!-- Node30&#45;&gt;Node23 -->
<g id="edge55" class="edge">
<title>Node30&#45;&gt;Node23</title>
<path fill="none" stroke="midnightblue" d="M442.8,-1080.2C395.99,-1063.97 326,-1029.87 326,-971 326,-971 326,-971 326,-913 326,-876.51 326,-833.52 326,-811.72"/>
<polygon fill="midnightblue" stroke="midnightblue" points="441.81,-1083.56 452.41,-1083.4 444.02,-1076.92 441.81,-1083.56"/>
</g>
<!-- Node30&#45;&gt;Node29 -->
<g id="edge54" class="edge">
<title>Node30&#45;&gt;Node29</title>
<path fill="none" stroke="midnightblue" d="M502.66,-1077.2C514.49,-1067.81 529.69,-1055.75 541.32,-1046.52"/>
<polygon fill="midnightblue" stroke="midnightblue" points="500.4,-1074.52 494.75,-1083.48 504.76,-1080 500.4,-1074.52"/>
</g>
<!-- Node31&#45;&gt;Node1 -->
<g id="edge64" class="edge">
<title>Node31&#45;&gt;Node1</title>
<path fill="none" stroke="midnightblue" d="M810.23,-754.81C808.21,-778.52 801,-820.58 801,-857 801,-1032.5 801,-1032.5 801,-1032.5 801,-1071.15 801,-1116.75 797.66,-1139.34"/>
<polygon fill="midnightblue" stroke="midnightblue" points="813.73,-754.92 810.75,-744.75 806.74,-754.56 813.73,-754.92"/>
</g>
<!-- Node31&#45;&gt;Node6 -->
<g id="edge58" class="edge">
<title>Node31&#45;&gt;Node6</title>
<path fill="none" stroke="midnightblue" d="M772.89,-721.99C740.68,-710.97 692.96,-694.64 659.01,-683.03"/>
<polygon fill="midnightblue" stroke="midnightblue" points="772.17,-725.44 782.77,-725.37 774.44,-718.82 772.17,-725.44"/>
</g>
<!-- Node31&#45;&gt;Node7 -->
<g id="edge57" class="edge">
<title>Node31&#45;&gt;Node7</title>
<path fill="none" stroke="midnightblue" d="M855.68,-721.81C872.34,-715.02 889.28,-704.64 899,-689 928.18,-642.01 898.41,-613.82 866,-569 769.1,-435.01 733.17,-399.39 586,-324 547.53,-304.3 500.38,-293.11 462.19,-286.81"/>
<polygon fill="midnightblue" stroke="midnightblue" points="854.13,-718.65 845.97,-725.41 856.56,-725.22 854.13,-718.65"/>
</g>
<!-- Node31&#45;&gt;Node13 -->
<g id="edge63" class="edge">
<title>Node31&#45;&gt;Node13</title>
<path fill="none" stroke="midnightblue" d="M857.91,-722.5C878.59,-715.64 901.55,-705.04 918,-689 952.05,-655.79 961,-638.56 961,-591 961,-591 961,-591 961,-210 961,-158.46 940.71,-142.27 899,-112 868.85,-90.12 829.09,-78.84 794.89,-73.05"/>
<polygon fill="midnightblue" stroke="midnightblue" points="856.8,-719.18 848.29,-725.48 858.87,-725.87 856.8,-719.18"/>
</g>
<!-- Node32 -->
<g id="node32" class="node">
<title>Node32</title>
<g id="a_node32"><a xlink:href="weight__importer__utils_8h.html" target="_top" xlink:title=" ">
<polygon fill="white" stroke="black" points="712.5,-647.5 712.5,-688.5 855.5,-688.5 855.5,-647.5 712.5,-647.5"/>
<text text-anchor="start" x="720.5" y="-676.5" font-family="Helvetica,sans-Serif" font-size="10.00">include/IO_Interaction</text>
<text text-anchor="start" x="720.5" y="-665.5" font-family="Helvetica,sans-Serif" font-size="10.00">/Weight_Importer_Helpers</text>
<text text-anchor="middle" x="784" y="-654.5" font-family="Helvetica,sans-Serif" font-size="10.00">/weight_importer_utils.h</text>
</a>
</g>
</g>
<!-- Node31&#45;&gt;Node32 -->
<g id="edge59" class="edge">
<title>Node31&#45;&gt;Node32</title>
<path fill="none" stroke="midnightblue" d="M801.21,-715.6C798.09,-707.15 794.39,-697.13 791.22,-688.54"/>
<polygon fill="midnightblue" stroke="midnightblue" points="798.02,-717.07 804.76,-725.23 804.58,-714.64 798.02,-717.07"/>
</g>
<!-- Node34 -->
<g id="node34" class="node">
<title>Node34</title>
<g id="a_node34"><a xlink:href="utilities_8cpp.html" target="_top" xlink:title=" ">
<polygon fill="white" stroke="black" points="989.5,-658.5 989.5,-677.5 1080.5,-677.5 1080.5,-658.5 989.5,-658.5"/>
<text text-anchor="middle" x="1035" y="-665.5" font-family="Helvetica,sans-Serif" font-size="10.00">src/utilities.cpp</text>
</a>
</g>
</g>
<!-- Node31&#45;&gt;Node34 -->
<g id="edge65" class="edge">
<title>Node31&#45;&gt;Node34</title>
<path fill="none" stroke="midnightblue" d="M852.09,-722.87C885.87,-714.16 933.57,-701.48 975,-689 986.67,-685.49 999.5,-681.26 1010.29,-677.6"/>
<polygon fill="midnightblue" stroke="midnightblue" points="850.88,-719.57 842.07,-725.44 852.63,-726.35 850.88,-719.57"/>
</g>
<!-- Node32&#45;&gt;Node20 -->
<g id="edge60" class="edge">
<title>Node32&#45;&gt;Node20</title>
<path fill="none" stroke="midnightblue" d="M746.16,-641.75C701.45,-611.91 627.52,-562.57 582.82,-532.74"/>
<polygon fill="midnightblue" stroke="midnightblue" points="744.43,-644.8 754.69,-647.44 748.32,-638.98 744.43,-644.8"/>
</g>
<!-- Node32&#45;&gt;Node26 -->
<g id="edge61" class="edge">
<title>Node32&#45;&gt;Node26</title>
<path fill="none" stroke="midnightblue" d="M702.53,-646.93C628.66,-630.33 555.33,-615.4 502.75,-604.98"/>
<polygon fill="midnightblue" stroke="midnightblue" points="701.96,-650.39 712.48,-649.18 703.5,-643.56 701.96,-650.39"/>
</g>
<!-- Node33 -->
<g id="node33" class="node">
<title>Node33</title>
<g id="a_node33"><a xlink:href="weight__importer__utils_8cpp.html" target="_top" xlink:title=" ">
<polygon fill="white" stroke="black" points="711,-569.5 711,-610.5 857,-610.5 857,-569.5 711,-569.5"/>
<text text-anchor="start" x="719" y="-598.5" font-family="Helvetica,sans-Serif" font-size="10.00">src/IO_Interaction</text>
<text text-anchor="start" x="719" y="-587.5" font-family="Helvetica,sans-Serif" font-size="10.00">/Weight_Importer_Helpers</text>
<text text-anchor="middle" x="784" y="-576.5" font-family="Helvetica,sans-Serif" font-size="10.00">/weight_importer_utils.cpp</text>
</a>
</g>
</g>
<!-- Node32&#45;&gt;Node33 -->
<g id="edge62" class="edge">
<title>Node32&#45;&gt;Node33</title>
<path fill="none" stroke="midnightblue" d="M784,-637.3C784,-628.3 784,-618.65 784,-610.51"/>
<polygon fill="midnightblue" stroke="midnightblue" points="780.5,-637.43 784,-647.43 787.5,-637.43 780.5,-637.43"/>
</g>
</g>
</svg>
