<?xml version="1.0" encoding="UTF-8" standalone="no"?>
<!DOCTYPE svg PUBLIC "-//W3C//DTD SVG 1.1//EN"
 "http://www.w3.org/Graphics/SVG/1.1/DTD/svg11.dtd">
<!-- Generated by graphviz version 2.43.0 (0)
 -->
<!-- Title: include/general_manager.h Pages: 1 -->
<svg width="244pt" height="84pt"
 viewBox="0.00 0.00 244.00 84.00" xmlns="http://www.w3.org/2000/svg" xmlns:xlink="http://www.w3.org/1999/xlink">
<g id="graph0" class="graph" transform="scale(1 1) rotate(0) translate(4 80)">
<title>include/general_manager.h</title>
<polygon fill="white" stroke="transparent" points="-4,4 -4,-80 240,-80 240,4 -4,4"/>
<!-- Node1 -->
<g id="node1" class="node">
<title>Node1</title>
<g id="a_node1"><a xlink:title=" ">
<polygon fill="#bfbfbf" stroke="black" points="28,-56.5 28,-75.5 177,-75.5 177,-56.5 28,-56.5"/>
<text text-anchor="middle" x="102.5" y="-63.5" font-family="Helvetica,sans-Serif" font-size="10.00">include/general_manager.h</text>
</a>
</g>
</g>
<!-- Node2 -->
<g id="node2" class="node">
<title>Node2</title>
<g id="a_node2"><a xlink:href="main_8cpp.html" target="_top" xlink:title=" ">
<polygon fill="white" stroke="black" points="0,-0.5 0,-19.5 79,-19.5 79,-0.5 0,-0.5"/>
<text text-anchor="middle" x="39.5" y="-7.5" font-family="Helvetica,sans-Serif" font-size="10.00">src/main.cpp</text>
</a>
</g>
</g>
<!-- Node1&#45;&gt;Node2 -->
<g id="edge1" class="edge">
<title>Node1&#45;&gt;Node2</title>
<path fill="none" stroke="midnightblue" d="M84.46,-49.54C73.23,-39.91 59.18,-27.87 49.81,-19.83"/>
<polygon fill="midnightblue" stroke="midnightblue" points="82.51,-52.47 92.38,-56.32 87.06,-47.16 82.51,-52.47"/>
</g>
<!-- Node3 -->
<g id="node3" class="node">
<title>Node3</title>
<g id="a_node3"><a xlink:href="general__manager_8cpp.html" target="_top" xlink:title=" ">
<polygon fill="white" stroke="black" points="97,-0.5 97,-19.5 236,-19.5 236,-0.5 97,-0.5"/>
<text text-anchor="middle" x="166.5" y="-7.5" font-family="Helvetica,sans-Serif" font-size="10.00">src/general_manager.cpp</text>
</a>
</g>
</g>
<!-- Node1&#45;&gt;Node3 -->
<g id="edge2" class="edge">
<title>Node1&#45;&gt;Node3</title>
<path fill="none" stroke="midnightblue" d="M120.49,-49.82C131.96,-40.15 146.41,-27.95 156.03,-19.83"/>
<polygon fill="midnightblue" stroke="midnightblue" points="118.17,-47.2 112.78,-56.32 122.68,-52.55 118.17,-47.2"/>
</g>
</g>
</svg>
