<?xml version="1.0" encoding="UTF-8" standalone="no"?>
<!DOCTYPE svg PUBLIC "-//W3C//DTD SVG 1.1//EN"
 "http://www.w3.org/Graphics/SVG/1.1/DTD/svg11.dtd">
<!-- Generated by graphviz version 2.43.0 (0)
 -->
<!-- Title: include/network_butcher/Network/graph_traits.h Pages: 1 -->
<svg width="1015pt" height="897pt"
 viewBox="0.00 0.00 1014.50 897.00" xmlns="http://www.w3.org/2000/svg" xmlns:xlink="http://www.w3.org/1999/xlink">
<g id="graph0" class="graph" transform="scale(1 1) rotate(0) translate(4 893)">
<title>include/network_butcher/Network/graph_traits.h</title>
<polygon fill="white" stroke="transparent" points="-4,4 -4,-893 1010.5,-893 1010.5,4 -4,4"/>
<!-- Node1 -->
<g id="node1" class="node">
<title>Node1</title>
<g id="a_node1"><a xlink:title=" ">
<polygon fill="#bfbfbf" stroke="black" points="271.5,-858.5 271.5,-888.5 408.5,-888.5 408.5,-858.5 271.5,-858.5"/>
<text text-anchor="start" x="279.5" y="-876.5" font-family="Helvetica,sans-Serif" font-size="10.00">include/network_butcher</text>
<text text-anchor="middle" x="340" y="-865.5" font-family="Helvetica,sans-Serif" font-size="10.00">/Network/graph_traits.h</text>
</a>
</g>
</g>
<!-- Node2 -->
<g id="node2" class="node">
<title>Node2</title>
<g id="a_node2"><a xlink:href="butcher_8h.html" target="_top" xlink:title=" ">
<polygon fill="white" stroke="black" points="537.5,-290.5 537.5,-320.5 674.5,-320.5 674.5,-290.5 537.5,-290.5"/>
<text text-anchor="start" x="545.5" y="-308.5" font-family="Helvetica,sans-Serif" font-size="10.00">include/network_butcher</text>
<text text-anchor="middle" x="606" y="-297.5" font-family="Helvetica,sans-Serif" font-size="10.00">/Butcher/butcher.h</text>
</a>
</g>
</g>
<!-- Node1&#45;&gt;Node2 -->
<g id="edge1" class="edge">
<title>Node1&#45;&gt;Node2</title>
<path fill="none" stroke="midnightblue" d="M418.78,-865.06C553.32,-850.16 813,-810.86 813,-729.5 813,-729.5 813,-729.5 813,-460.5 813,-383.57 719.83,-340.55 658.5,-320.56"/>
<polygon fill="midnightblue" stroke="midnightblue" points="418.09,-861.62 408.53,-866.18 418.85,-868.58 418.09,-861.62"/>
</g>
<!-- Node3 -->
<g id="node3" class="node">
<title>Node3</title>
<g id="a_node3"><a xlink:href="onnx__importer__helpers_8h.html" target="_top" xlink:title=" ">
<polygon fill="white" stroke="black" points="532,-212.5 532,-253.5 694,-253.5 694,-212.5 532,-212.5"/>
<text text-anchor="start" x="540" y="-241.5" font-family="Helvetica,sans-Serif" font-size="10.00">include/network_butcher</text>
<text text-anchor="start" x="540" y="-230.5" font-family="Helvetica,sans-Serif" font-size="10.00">/IO_Interaction/onnx_importer</text>
<text text-anchor="middle" x="613" y="-219.5" font-family="Helvetica,sans-Serif" font-size="10.00">_helpers.h</text>
</a>
</g>
</g>
<!-- Node1&#45;&gt;Node3 -->
<g id="edge20" class="edge">
<title>Node1&#45;&gt;Node3</title>
<path fill="none" stroke="midnightblue" d="M261.33,-868.39C171.85,-858.98 38,-828.37 38,-729.5 38,-729.5 38,-729.5 38,-377 38,-276.45 373.34,-246.08 531.84,-237.34"/>
<polygon fill="midnightblue" stroke="midnightblue" points="261.18,-871.89 271.47,-869.39 261.86,-864.92 261.18,-871.89"/>
</g>
<!-- Node6 -->
<g id="node6" class="node">
<title>Node6</title>
<g id="a_node6"><a xlink:href="network__butcher_8h.html" target="_top" xlink:title=" ">
<polygon fill="white" stroke="black" points="455.5,-0.5 455.5,-30.5 592.5,-30.5 592.5,-0.5 455.5,-0.5"/>
<text text-anchor="start" x="463.5" y="-18.5" font-family="Helvetica,sans-Serif" font-size="10.00">include/network_butcher</text>
<text text-anchor="middle" x="524" y="-7.5" font-family="Helvetica,sans-Serif" font-size="10.00">/network_butcher.h</text>
</a>
</g>
</g>
<!-- Node1&#45;&gt;Node6 -->
<g id="edge33" class="edge">
<title>Node1&#45;&gt;Node6</title>
<path fill="none" stroke="midnightblue" d="M261.07,-872.35C160.62,-867.52 0,-842.18 0,-729.5 0,-729.5 0,-729.5 0,-154 0,-60.89 313.46,-29.56 455.5,-20.14"/>
<polygon fill="midnightblue" stroke="midnightblue" points="261.06,-875.85 271.2,-872.78 261.35,-868.86 261.06,-875.85"/>
</g>
<!-- Node10 -->
<g id="node10" class="node">
<title>Node10</title>
<g id="a_node10"><a xlink:href="onnx__model__reconstructor__helpers_8h.html" target="_top" xlink:title=" ">
<polygon fill="white" stroke="black" points="803.5,-212.5 803.5,-253.5 954.5,-253.5 954.5,-212.5 803.5,-212.5"/>
<text text-anchor="start" x="811.5" y="-241.5" font-family="Helvetica,sans-Serif" font-size="10.00">include/network_butcher</text>
<text text-anchor="start" x="811.5" y="-230.5" font-family="Helvetica,sans-Serif" font-size="10.00">/IO_Interaction/onnx_model</text>
<text text-anchor="middle" x="879" y="-219.5" font-family="Helvetica,sans-Serif" font-size="10.00">_reconstructor_helpers.h</text>
</a>
</g>
</g>
<!-- Node1&#45;&gt;Node10 -->
<g id="edge21" class="edge">
<title>Node1&#45;&gt;Node10</title>
<path fill="none" stroke="midnightblue" d="M418.7,-872.67C498.74,-870.46 625.14,-860.35 727,-822 796.1,-795.98 865,-803.34 865,-729.5 865,-729.5 865,-729.5 865,-377 865,-332.85 871.69,-281.39 875.82,-253.83"/>
<polygon fill="midnightblue" stroke="midnightblue" points="418.61,-869.17 408.69,-872.91 418.77,-876.16 418.61,-869.17"/>
</g>
<!-- Node12 -->
<g id="node12" class="node">
<title>Node12</title>
<g id="a_node12"><a xlink:href="constrained__block__graph__builder_8h.html" target="_top" xlink:title=" ">
<polygon fill="white" stroke="black" points="315.5,-357.5 315.5,-398.5 464.5,-398.5 464.5,-357.5 315.5,-357.5"/>
<text text-anchor="start" x="323.5" y="-386.5" font-family="Helvetica,sans-Serif" font-size="10.00">include/network_butcher</text>
<text text-anchor="start" x="323.5" y="-375.5" font-family="Helvetica,sans-Serif" font-size="10.00">/Butcher/constrained_block</text>
<text text-anchor="middle" x="390" y="-364.5" font-family="Helvetica,sans-Serif" font-size="10.00">_graph_builder.h</text>
</a>
</g>
</g>
<!-- Node1&#45;&gt;Node12 -->
<g id="edge14" class="edge">
<title>Node1&#45;&gt;Node12</title>
<path fill="none" stroke="midnightblue" d="M312.08,-852.11C281.27,-827.03 236,-781.35 236,-729.5 236,-729.5 236,-729.5 236,-549.5 236,-493.42 250.82,-476.07 289,-435 303.27,-419.66 322.72,-407.51 340.74,-398.5"/>
<polygon fill="midnightblue" stroke="midnightblue" points="309.93,-854.88 319.95,-858.33 314.27,-849.39 309.93,-854.88"/>
</g>
<!-- Node13 -->
<g id="node13" class="node">
<title>Node13</title>
<g id="a_node13"><a xlink:href="graph__constraint_8h.html" target="_top" xlink:title=" ">
<polygon fill="white" stroke="black" points="264.5,-713.5 264.5,-743.5 415.5,-743.5 415.5,-713.5 264.5,-713.5"/>
<text text-anchor="start" x="272.5" y="-731.5" font-family="Helvetica,sans-Serif" font-size="10.00">include/network_butcher</text>
<text text-anchor="middle" x="340" y="-720.5" font-family="Helvetica,sans-Serif" font-size="10.00">/Butcher/graph_constraint.h</text>
</a>
</g>
</g>
<!-- Node1&#45;&gt;Node13 -->
<g id="edge16" class="edge">
<title>Node1&#45;&gt;Node13</title>
<path fill="none" stroke="midnightblue" d="M340,-848.19C340,-818.16 340,-768.05 340,-743.68"/>
<polygon fill="midnightblue" stroke="midnightblue" points="336.5,-848.27 340,-858.27 343.5,-848.27 336.5,-848.27"/>
</g>
<!-- Node14 -->
<g id="node14" class="node">
<title>Node14</title>
<g id="a_node14"><a xlink:href="path__converter_8h.html" target="_top" xlink:title=" ">
<polygon fill="white" stroke="black" points="66,-624.5 66,-654.5 208,-654.5 208,-624.5 66,-624.5"/>
<text text-anchor="start" x="74" y="-642.5" font-family="Helvetica,sans-Serif" font-size="10.00">include/network_butcher</text>
<text text-anchor="middle" x="137" y="-631.5" font-family="Helvetica,sans-Serif" font-size="10.00">/Butcher/path_converter.h</text>
</a>
</g>
</g>
<!-- Node1&#45;&gt;Node14 -->
<g id="edge18" class="edge">
<title>Node1&#45;&gt;Node14</title>
<path fill="none" stroke="midnightblue" d="M275.94,-854.84C256.83,-847.16 237.01,-836.51 222,-822 171.47,-773.14 147.76,-688.38 140.01,-654.8"/>
<polygon fill="midnightblue" stroke="midnightblue" points="274.94,-858.2 285.53,-858.48 277.42,-851.66 274.94,-858.2"/>
</g>
<!-- Node15 -->
<g id="node15" class="node">
<title>Node15</title>
<g id="a_node15"><a xlink:href="weight__importer_8h.html" target="_top" xlink:title=" ">
<polygon fill="white" stroke="black" points="433.5,-702.5 433.5,-754.5 576.5,-754.5 576.5,-702.5 433.5,-702.5"/>
<text text-anchor="start" x="441.5" y="-742.5" font-family="Helvetica,sans-Serif" font-size="10.00">include/network_butcher</text>
<text text-anchor="start" x="441.5" y="-731.5" font-family="Helvetica,sans-Serif" font-size="10.00">/IO_Interaction/Weight</text>
<text text-anchor="start" x="441.5" y="-720.5" font-family="Helvetica,sans-Serif" font-size="10.00">_Importer_Helpers/weight</text>
<text text-anchor="middle" x="505" y="-709.5" font-family="Helvetica,sans-Serif" font-size="10.00">_importer.h</text>
</a>
</g>
</g>
<!-- Node1&#45;&gt;Node15 -->
<g id="edge22" class="edge">
<title>Node1&#45;&gt;Node15</title>
<path fill="none" stroke="midnightblue" d="M362.13,-851.16C379.68,-834.45 405,-810.79 428,-791 442.27,-778.73 458.49,-765.64 472.35,-754.72"/>
<polygon fill="midnightblue" stroke="midnightblue" points="359.46,-848.88 354.65,-858.32 364.29,-853.94 359.46,-848.88"/>
</g>
<!-- Node21 -->
<g id="node21" class="node">
<title>Node21</title>
<g id="a_node21"><a xlink:href="parameters_8h.html" target="_top" xlink:title=" ">
<polygon fill="white" stroke="black" points="436.5,-791.5 436.5,-821.5 573.5,-821.5 573.5,-791.5 436.5,-791.5"/>
<text text-anchor="start" x="444.5" y="-809.5" font-family="Helvetica,sans-Serif" font-size="10.00">include/network_butcher</text>
<text text-anchor="middle" x="505" y="-798.5" font-family="Helvetica,sans-Serif" font-size="10.00">/Types/parameters.h</text>
</a>
</g>
</g>
<!-- Node1&#45;&gt;Node21 -->
<g id="edge34" class="edge">
<title>Node1&#45;&gt;Node21</title>
<path fill="none" stroke="midnightblue" d="M385.23,-854.68C411.69,-844.26 444.63,-831.28 469.27,-821.58"/>
<polygon fill="midnightblue" stroke="midnightblue" points="383.82,-851.47 375.8,-858.4 386.39,-857.99 383.82,-851.47"/>
</g>
<!-- Node2&#45;&gt;Node3 -->
<g id="edge2" class="edge">
<title>Node2&#45;&gt;Node3</title>
<path fill="none" stroke="midnightblue" d="M608.41,-280.27C609.27,-271.56 610.23,-261.85 611.06,-253.59"/>
<polygon fill="midnightblue" stroke="midnightblue" points="604.92,-279.94 607.42,-290.23 611.89,-280.63 604.92,-279.94"/>
</g>
<!-- Node2&#45;&gt;Node6 -->
<g id="edge13" class="edge">
<title>Node2&#45;&gt;Node6</title>
<path fill="none" stroke="midnightblue" d="M557.12,-285.71C543.66,-278.01 530.66,-267.63 523,-254 480.97,-179.24 507.9,-69.18 519.48,-30.53"/>
<polygon fill="midnightblue" stroke="midnightblue" points="555.5,-288.81 565.98,-290.38 558.77,-282.62 555.5,-288.81"/>
</g>
<!-- Node2&#45;&gt;Node10 -->
<g id="edge10" class="edge">
<title>Node2&#45;&gt;Node10</title>
<path fill="none" stroke="midnightblue" d="M670.14,-287.94C710.03,-277.63 761.52,-264.34 803.39,-253.53"/>
<polygon fill="midnightblue" stroke="midnightblue" points="669.07,-284.6 660.26,-290.49 670.82,-291.38 669.07,-284.6"/>
</g>
<!-- Node4 -->
<g id="node4" class="node">
<title>Node4</title>
<g id="a_node4"><a xlink:href="io__manager_8h.html" target="_top" xlink:title=" ">
<polygon fill="white" stroke="black" points="702.5,-140 702.5,-170 839.5,-170 839.5,-140 702.5,-140"/>
<text text-anchor="start" x="710.5" y="-158" font-family="Helvetica,sans-Serif" font-size="10.00">include/network_butcher</text>
<text text-anchor="middle" x="771" y="-147" font-family="Helvetica,sans-Serif" font-size="10.00">/io_manager.h</text>
</a>
</g>
</g>
<!-- Node3&#45;&gt;Node4 -->
<g id="edge3" class="edge">
<title>Node3&#45;&gt;Node4</title>
<path fill="none" stroke="midnightblue" d="M662.96,-207.97C688.77,-195.55 719.39,-180.83 741.43,-170.23"/>
<polygon fill="midnightblue" stroke="midnightblue" points="661.18,-204.94 653.69,-212.43 664.22,-211.25 661.18,-204.94"/>
</g>
<!-- Node9 -->
<g id="node9" class="node">
<title>Node9</title>
<g id="a_node9"><a xlink:href="onnx__importer__helpers_8cpp.html" target="_top" xlink:title=" ">
<polygon fill="white" stroke="black" points="532,-140 532,-170 684,-170 684,-140 532,-140"/>
<text text-anchor="start" x="540" y="-158" font-family="Helvetica,sans-Serif" font-size="10.00">src/IO_Interaction</text>
<text text-anchor="middle" x="608" y="-147" font-family="Helvetica,sans-Serif" font-size="10.00">/onnx_importer_helpers.cpp</text>
</a>
</g>
</g>
<!-- Node3&#45;&gt;Node9 -->
<g id="edge9" class="edge">
<title>Node3&#45;&gt;Node9</title>
<path fill="none" stroke="midnightblue" d="M611.04,-202.28C610.32,-191.25 609.53,-179.25 608.94,-170.23"/>
<polygon fill="midnightblue" stroke="midnightblue" points="607.56,-202.68 611.71,-212.43 614.55,-202.22 607.56,-202.68"/>
</g>
<!-- Node5 -->
<g id="node5" class="node">
<title>Node5</title>
<g id="a_node5"><a xlink:href="general__manager_8h.html" target="_top" xlink:title=" ">
<polygon fill="white" stroke="black" points="702.5,-67.5 702.5,-97.5 839.5,-97.5 839.5,-67.5 702.5,-67.5"/>
<text text-anchor="start" x="710.5" y="-85.5" font-family="Helvetica,sans-Serif" font-size="10.00">include/network_butcher</text>
<text text-anchor="middle" x="771" y="-74.5" font-family="Helvetica,sans-Serif" font-size="10.00">/general_manager.h</text>
</a>
</g>
</g>
<!-- Node4&#45;&gt;Node5 -->
<g id="edge4" class="edge">
<title>Node4&#45;&gt;Node5</title>
<path fill="none" stroke="midnightblue" d="M771,-129.73C771,-119.07 771,-106.91 771,-97.75"/>
<polygon fill="midnightblue" stroke="midnightblue" points="767.5,-129.73 771,-139.73 774.5,-129.73 767.5,-129.73"/>
</g>
<!-- Node4&#45;&gt;Node6 -->
<g id="edge7" class="edge">
<title>Node4&#45;&gt;Node6</title>
<path fill="none" stroke="midnightblue" d="M707.66,-137.43C648.18,-121.78 567.88,-100.35 565,-98 543.54,-80.46 532.26,-48.82 527.27,-30.55"/>
<polygon fill="midnightblue" stroke="midnightblue" points="706.82,-140.83 717.38,-139.99 708.6,-134.06 706.82,-140.83"/>
</g>
<!-- Node8 -->
<g id="node8" class="node">
<title>Node8</title>
<g id="a_node8"><a xlink:href="io__manager_8cpp.html" target="_top" xlink:title=" ">
<polygon fill="white" stroke="black" points="573.5,-73 573.5,-92 684.5,-92 684.5,-73 573.5,-73"/>
<text text-anchor="middle" x="629" y="-80" font-family="Helvetica,sans-Serif" font-size="10.00">src/io_manager.cpp</text>
</a>
</g>
</g>
<!-- Node4&#45;&gt;Node8 -->
<g id="edge8" class="edge">
<title>Node4&#45;&gt;Node8</title>
<path fill="none" stroke="midnightblue" d="M733.4,-135.33C705.13,-121.29 667.69,-102.71 646.19,-92.03"/>
<polygon fill="midnightblue" stroke="midnightblue" points="732.09,-138.59 742.61,-139.9 735.21,-132.32 732.09,-138.59"/>
</g>
<!-- Node5&#45;&gt;Node6 -->
<g id="edge5" class="edge">
<title>Node5&#45;&gt;Node6</title>
<path fill="none" stroke="midnightblue" d="M707.99,-64.92C667.68,-54.31 615.96,-40.7 577.62,-30.61"/>
<polygon fill="midnightblue" stroke="midnightblue" points="707.15,-68.32 717.71,-67.48 708.93,-61.55 707.15,-68.32"/>
</g>
<!-- Node7 -->
<g id="node7" class="node">
<title>Node7</title>
<g id="a_node7"><a xlink:href="general__manager_8cpp.html" target="_top" xlink:title=" ">
<polygon fill="white" stroke="black" points="701.5,-6 701.5,-25 840.5,-25 840.5,-6 701.5,-6"/>
<text text-anchor="middle" x="771" y="-13" font-family="Helvetica,sans-Serif" font-size="10.00">src/general_manager.cpp</text>
</a>
</g>
</g>
<!-- Node5&#45;&gt;Node7 -->
<g id="edge6" class="edge">
<title>Node5&#45;&gt;Node7</title>
<path fill="none" stroke="midnightblue" d="M771,-57.25C771,-46.02 771,-33.38 771,-25.19"/>
<polygon fill="midnightblue" stroke="midnightblue" points="767.5,-57.4 771,-67.4 774.5,-57.4 767.5,-57.4"/>
</g>
<!-- Node10&#45;&gt;Node4 -->
<g id="edge11" class="edge">
<title>Node10&#45;&gt;Node4</title>
<path fill="none" stroke="midnightblue" d="M842.98,-206.66C825.75,-194.53 805.75,-180.45 791.21,-170.23"/>
<polygon fill="midnightblue" stroke="midnightblue" points="840.99,-209.54 851.19,-212.43 845.02,-203.81 840.99,-209.54"/>
</g>
<!-- Node11 -->
<g id="node11" class="node">
<title>Node11</title>
<g id="a_node11"><a xlink:href="onnx__model__reconstructor__helpers_8cpp.html" target="_top" xlink:title=" ">
<polygon fill="white" stroke="black" points="857.5,-134.5 857.5,-175.5 1006.5,-175.5 1006.5,-134.5 857.5,-134.5"/>
<text text-anchor="start" x="865.5" y="-163.5" font-family="Helvetica,sans-Serif" font-size="10.00">src/IO_Interaction</text>
<text text-anchor="start" x="865.5" y="-152.5" font-family="Helvetica,sans-Serif" font-size="10.00">/onnx_model_reconstructor</text>
<text text-anchor="middle" x="932" y="-141.5" font-family="Helvetica,sans-Serif" font-size="10.00">_helpers.cpp</text>
</a>
</g>
</g>
<!-- Node10&#45;&gt;Node11 -->
<g id="edge12" class="edge">
<title>Node10&#45;&gt;Node11</title>
<path fill="none" stroke="midnightblue" d="M898.49,-204.05C905.11,-194.57 912.34,-184.18 918.4,-175.51"/>
<polygon fill="midnightblue" stroke="midnightblue" points="895.5,-202.22 892.65,-212.43 901.24,-206.23 895.5,-202.22"/>
</g>
<!-- Node12&#45;&gt;Node2 -->
<g id="edge15" class="edge">
<title>Node12&#45;&gt;Node2</title>
<path fill="none" stroke="midnightblue" d="M459.74,-354.24C493.65,-343.17 533.34,-330.22 562.81,-320.6"/>
<polygon fill="midnightblue" stroke="midnightblue" points="458.3,-351.03 449.88,-357.46 460.47,-357.68 458.3,-351.03"/>
</g>
<!-- Node13&#45;&gt;Node12 -->
<g id="edge17" class="edge">
<title>Node13&#45;&gt;Node12</title>
<path fill="none" stroke="midnightblue" d="M330.2,-703.97C318.63,-674.79 300.05,-623.23 293,-577 289.45,-553.71 291.16,-547.48 293,-524 296.12,-484.08 285.51,-468.78 307,-435 316.7,-419.75 332.22,-407.65 347.23,-398.65"/>
<polygon fill="midnightblue" stroke="midnightblue" points="326.98,-705.35 333.97,-713.32 333.47,-702.73 326.98,-705.35"/>
</g>
<!-- Node14&#45;&gt;Node2 -->
<g id="edge19" class="edge">
<title>Node14&#45;&gt;Node2</title>
<path fill="none" stroke="midnightblue" d="M142.28,-614.55C156.63,-556.27 202.47,-408.13 307,-357 380.3,-321.15 474.45,-310.2 537.33,-307.14"/>
<polygon fill="midnightblue" stroke="midnightblue" points="138.86,-613.8 139.96,-624.34 145.67,-615.42 138.86,-613.8"/>
</g>
<!-- Node16 -->
<g id="node16" class="node">
<title>Node16</title>
<g id="a_node16"><a xlink:href="block__aMLLibrary__weight__importer_8h.html" target="_top" xlink:title=" ">
<polygon fill="white" stroke="black" points="302,-524.5 302,-576.5 472,-576.5 472,-524.5 302,-524.5"/>
<text text-anchor="start" x="310" y="-564.5" font-family="Helvetica,sans-Serif" font-size="10.00">include/network_butcher</text>
<text text-anchor="start" x="310" y="-553.5" font-family="Helvetica,sans-Serif" font-size="10.00">/IO_Interaction/Weight</text>
<text text-anchor="start" x="310" y="-542.5" font-family="Helvetica,sans-Serif" font-size="10.00">_Importer_Helpers/block</text>
<text text-anchor="middle" x="387" y="-531.5" font-family="Helvetica,sans-Serif" font-size="10.00">_aMLLibrary_weight_importer.h</text>
</a>
</g>
</g>
<!-- Node15&#45;&gt;Node16 -->
<g id="edge23" class="edge">
<title>Node15&#45;&gt;Node16</title>
<path fill="none" stroke="midnightblue" d="M467.92,-695.53C458.76,-686.55 449.46,-676.39 442,-666 421.68,-637.69 405.49,-600.71 396.08,-576.55"/>
<polygon fill="midnightblue" stroke="midnightblue" points="465.54,-698.09 475.19,-702.46 470.37,-693.02 465.54,-698.09"/>
</g>
<!-- Node19 -->
<g id="node19" class="node">
<title>Node19</title>
<g id="a_node19"><a xlink:href="csv__weight__importer_8h.html" target="_top" xlink:title=" ">
<polygon fill="white" stroke="black" points="451,-613.5 451,-665.5 615,-665.5 615,-613.5 451,-613.5"/>
<text text-anchor="start" x="459" y="-653.5" font-family="Helvetica,sans-Serif" font-size="10.00">include/network_butcher</text>
<text text-anchor="start" x="459" y="-642.5" font-family="Helvetica,sans-Serif" font-size="10.00">/IO_Interaction/Weight</text>
<text text-anchor="start" x="459" y="-631.5" font-family="Helvetica,sans-Serif" font-size="10.00">_Importer_Helpers/csv_weight</text>
<text text-anchor="middle" x="533" y="-620.5" font-family="Helvetica,sans-Serif" font-size="10.00">_importer.h</text>
</a>
</g>
</g>
<!-- Node15&#45;&gt;Node19 -->
<g id="edge29" class="edge">
<title>Node15&#45;&gt;Node19</title>
<path fill="none" stroke="midnightblue" d="M516.18,-692.77C519.1,-683.69 522.19,-674.08 524.92,-665.61"/>
<polygon fill="midnightblue" stroke="midnightblue" points="512.83,-691.74 513.1,-702.34 519.49,-693.89 512.83,-691.74"/>
</g>
<!-- Node17 -->
<g id="node17" class="node">
<title>Node17</title>
<g id="a_node17"><a xlink:href="weight__importers_8h.html" target="_top" xlink:title=" ">
<polygon fill="white" stroke="black" points="534.5,-441 534.5,-482 671.5,-482 671.5,-441 534.5,-441"/>
<text text-anchor="start" x="542.5" y="-470" font-family="Helvetica,sans-Serif" font-size="10.00">include/network_butcher</text>
<text text-anchor="start" x="542.5" y="-459" font-family="Helvetica,sans-Serif" font-size="10.00">/IO_Interaction/weight</text>
<text text-anchor="middle" x="603" y="-448" font-family="Helvetica,sans-Serif" font-size="10.00">_importers.h</text>
</a>
</g>
</g>
<!-- Node16&#45;&gt;Node17 -->
<g id="edge24" class="edge">
<title>Node16&#45;&gt;Node17</title>
<path fill="none" stroke="midnightblue" d="M458.76,-520.6C490.11,-507.97 526.08,-493.48 554.25,-482.13"/>
<polygon fill="midnightblue" stroke="midnightblue" points="457.15,-517.47 449.19,-524.45 459.77,-523.96 457.15,-517.47"/>
</g>
<!-- Node18 -->
<g id="node18" class="node">
<title>Node18</title>
<g id="a_node18"><a xlink:href="block__aMLLibrary__weight__importer_8cpp.html" target="_top" xlink:title=" ">
<polygon fill="white" stroke="black" points="315.5,-435.5 315.5,-487.5 458.5,-487.5 458.5,-435.5 315.5,-435.5"/>
<text text-anchor="start" x="323.5" y="-475.5" font-family="Helvetica,sans-Serif" font-size="10.00">src/IO_Interaction</text>
<text text-anchor="start" x="323.5" y="-464.5" font-family="Helvetica,sans-Serif" font-size="10.00">/Weight_Importer_Helpers</text>
<text text-anchor="start" x="323.5" y="-453.5" font-family="Helvetica,sans-Serif" font-size="10.00">/block_aMLLibrary_weight</text>
<text text-anchor="middle" x="387" y="-442.5" font-family="Helvetica,sans-Serif" font-size="10.00">_importer.cpp</text>
</a>
</g>
</g>
<!-- Node16&#45;&gt;Node18 -->
<g id="edge28" class="edge">
<title>Node16&#45;&gt;Node18</title>
<path fill="none" stroke="midnightblue" d="M387,-514.19C387,-505.28 387,-495.9 387,-487.61"/>
<polygon fill="midnightblue" stroke="midnightblue" points="383.5,-514.34 387,-524.34 390.5,-514.34 383.5,-514.34"/>
</g>
<!-- Node17&#45;&gt;Node2 -->
<g id="edge25" class="edge">
<title>Node17&#45;&gt;Node2</title>
<path fill="none" stroke="midnightblue" d="M603.58,-430.58C604.23,-397.54 605.24,-345.73 605.72,-320.82"/>
<polygon fill="midnightblue" stroke="midnightblue" points="600.08,-430.93 603.38,-441 607.07,-431.07 600.08,-430.93"/>
</g>
<!-- Node17&#45;&gt;Node4 -->
<g id="edge27" class="edge">
<title>Node17&#45;&gt;Node4</title>
<path fill="none" stroke="midnightblue" d="M620.06,-431.91C636.7,-403.85 662.55,-359.74 684,-321 714.59,-265.75 749.06,-198.94 763.75,-170.23"/>
<polygon fill="midnightblue" stroke="midnightblue" points="616.89,-430.39 614.79,-440.78 622.91,-433.97 616.89,-430.39"/>
</g>
<!-- Node17&#45;&gt;Node12 -->
<g id="edge26" class="edge">
<title>Node17&#45;&gt;Node12</title>
<path fill="none" stroke="midnightblue" d="M542.28,-437.27C510.26,-425.01 471.41,-410.15 440.97,-398.5"/>
<polygon fill="midnightblue" stroke="midnightblue" points="541.39,-440.67 551.98,-440.98 543.89,-434.14 541.39,-440.67"/>
</g>
<!-- Node19&#45;&gt;Node16 -->
<g id="edge30" class="edge">
<title>Node19&#45;&gt;Node16</title>
<path fill="none" stroke="midnightblue" d="M481.93,-608.07C464.68,-597.79 445.62,-586.43 429.13,-576.61"/>
<polygon fill="midnightblue" stroke="midnightblue" points="480.39,-611.22 490.77,-613.34 483.97,-605.21 480.39,-611.22"/>
</g>
<!-- Node19&#45;&gt;Node17 -->
<g id="edge31" class="edge">
<title>Node19&#45;&gt;Node17</title>
<path fill="none" stroke="midnightblue" d="M612.19,-608.12C624.5,-599.89 635.58,-589.65 643,-577 661.11,-546.12 637.53,-505.76 619.64,-482.13"/>
<polygon fill="midnightblue" stroke="midnightblue" points="610.17,-605.26 603.51,-613.5 613.85,-611.21 610.17,-605.26"/>
</g>
<!-- Node20 -->
<g id="node20" class="node">
<title>Node20</title>
<g id="a_node20"><a xlink:href="csv__weight__importer_8cpp.html" target="_top" xlink:title=" ">
<polygon fill="white" stroke="black" points="490.5,-530 490.5,-571 633.5,-571 633.5,-530 490.5,-530"/>
<text text-anchor="start" x="498.5" y="-559" font-family="Helvetica,sans-Serif" font-size="10.00">src/IO_Interaction</text>
<text text-anchor="start" x="498.5" y="-548" font-family="Helvetica,sans-Serif" font-size="10.00">/Weight_Importer_Helpers</text>
<text text-anchor="middle" x="562" y="-537" font-family="Helvetica,sans-Serif" font-size="10.00">/csv_weight_importer.cpp</text>
</a>
</g>
</g>
<!-- Node19&#45;&gt;Node20 -->
<g id="edge32" class="edge">
<title>Node19&#45;&gt;Node20</title>
<path fill="none" stroke="midnightblue" d="M544.56,-603.83C548.27,-592.69 552.25,-580.74 555.47,-571.08"/>
<polygon fill="midnightblue" stroke="midnightblue" points="541.23,-602.74 541.39,-613.34 547.87,-604.96 541.23,-602.74"/>
</g>
<!-- Node21&#45;&gt;Node2 -->
<g id="edge35" class="edge">
<title>Node21&#45;&gt;Node2</title>
<path fill="none" stroke="midnightblue" d="M556.2,-787.69C613.97,-763.93 700,-715.91 700,-640.5 700,-640.5 700,-640.5 700,-549.5 700,-497.92 698.51,-483.52 681,-435 664.86,-390.29 633.18,-343.47 616.63,-320.67"/>
<polygon fill="midnightblue" stroke="midnightblue" points="554.82,-784.47 546.83,-791.43 557.42,-790.97 554.82,-784.47"/>
</g>
<!-- Node21&#45;&gt;Node3 -->
<g id="edge37" class="edge">
<title>Node21&#45;&gt;Node3</title>
<path fill="none" stroke="midnightblue" d="M583.64,-791.93C611.05,-784.38 640.73,-772.77 664,-755 712.15,-718.22 738,-701.09 738,-640.5 738,-640.5 738,-640.5 738,-549.5 738,-431.7 745.98,-390.18 684,-290 674.91,-275.31 660.53,-262.91 647.07,-253.54"/>
<polygon fill="midnightblue" stroke="midnightblue" points="582.46,-788.62 573.67,-794.53 584.23,-795.39 582.46,-788.62"/>
</g>
<!-- Node21&#45;&gt;Node13 -->
<g id="edge36" class="edge">
<title>Node21&#45;&gt;Node13</title>
<path fill="none" stroke="midnightblue" d="M465.27,-787.2C436.14,-773.78 397.18,-755.84 370.48,-743.54"/>
<polygon fill="midnightblue" stroke="midnightblue" points="463.8,-790.38 474.35,-791.38 466.73,-784.02 463.8,-790.38"/>
</g>
<!-- Node21&#45;&gt;Node15 -->
<g id="edge38" class="edge">
<title>Node21&#45;&gt;Node15</title>
<path fill="none" stroke="midnightblue" d="M505,-781.14C505,-772.63 505,-763.07 505,-754.5"/>
<polygon fill="midnightblue" stroke="midnightblue" points="501.5,-781.2 505,-791.2 508.5,-781.21 501.5,-781.2"/>
</g>
</g>
</svg>
