<?xml version="1.0" encoding="UTF-8" standalone="no"?>
<!DOCTYPE svg PUBLIC "-//W3C//DTD SVG 1.1//EN"
 "http://www.w3.org/Graphics/SVG/1.1/DTD/svg11.dtd">
<!-- Generated by graphviz version 2.43.0 (0)
 -->
<!-- Title: include/Network/graph_traits.h Pages: 1 -->
<!--zoomable 599 -->
<svg id="main" version="1.1" xmlns="http://www.w3.org/2000/svg" xmlns:xlink="http://www.w3.org/1999/xlink" xml:space="preserve" onload="init(evt)">
<style type="text/css"><![CDATA[
.edge:hover path { stroke: red; }
.edge:hover polygon { stroke: red; fill: red; }
]]></style>
<script type="text/javascript"><![CDATA[
var edges = document.getElementsByTagName('g');
if (edges && edges.length) {
  for (var i=0;i<edges.length;i++) {
    if (edges[i].id.substr(0,4)=='edge') {
      edges[i].setAttribute('class','edge');
    }
  }
}
]]></script>
        <defs>
                <circle id="rim" cx="0" cy="0" r="7"/>
                <circle id="rim2" cx="0" cy="0" r="3.5"/>
                <g id="zoomPlus">
                        <use xlink:href="#rim" fill="#404040">
                                <set attributeName="fill" to="#808080" begin="zoomplus.mouseover" end="zoomplus.mouseout"/>
                        </use>
                        <path d="M-4,0h8M0,-4v8" fill="none" stroke="white" stroke-width="1.5" pointer-events="none"/>
                </g>
                <g id="zoomMin">
                        <use xlink:href="#rim" fill="#404040">
                                <set attributeName="fill" to="#808080" begin="zoomminus.mouseover" end="zoomminus.mouseout"/>
                        </use>
                        <path d="M-4,0h8" fill="none" stroke="white" stroke-width="1.5" pointer-events="none"/>
                </g>
                <g id="dirArrow">
                        <path fill="none" stroke="white" stroke-width="1.5" d="M0,-3.0v7 M-2.5,-0.5L0,-3.0L2.5,-0.5"/>
                </g>
               <g id="resetDef">
                       <use xlink:href="#rim2" fill="#404040">
                               <set attributeName="fill" to="#808080" begin="reset.mouseover" end="reset.mouseout"/>
                       </use>
               </g>
        </defs>

<script type="text/javascript">
var viewWidth = 932;
var viewHeight = 599;
var sectionId = 'dynsection-0';
</script>
<script xlink:href="svgpan.js"/>
<svg id="graph" class="graph">
<g id="viewport">
<title>include/Network/graph_traits.h</title>
<polygon fill="white" stroke="transparent" points="-4,4 -4,-595 927.52,-595 927.52,4 -4,4"/>
<!-- Node1 -->
<g id="node1" class="node">
<title>Node1</title>
<g id="a_node1"><a xlink:title=" ">
<polygon fill="#bfbfbf" stroke="black" points="593.02,-560.5 593.02,-590.5 720.02,-590.5 720.02,-560.5 593.02,-560.5"/>
<text text-anchor="start" x="601.02" y="-578.5" font-family="Helvetica,sans-Serif" font-size="10.00">include/Network/graph</text>
<text text-anchor="middle" x="656.52" y="-567.5" font-family="Helvetica,sans-Serif" font-size="10.00">_traits.h</text>
</a>
</g>
</g>
<!-- Node2 -->
<g id="node2" class="node">
<title>Node2</title>
<g id="a_node2"><a xlink:href="graph_8h.html" target="_top" xlink:title=" ">
<polygon fill="white" stroke="black" points="643.02,-392.5 643.02,-411.5 696.02,-411.5 696.02,-392.5 643.02,-392.5"/>
<text text-anchor="middle" x="669.52" y="-399.5" font-family="Helvetica,sans-Serif" font-size="10.00">graph.h</text>
</a>
</g>
</g>
<!-- Node1&#45;&gt;Node2 -->
<g id="edge1" class="edge">
<title>Node1&#45;&gt;Node2</title>
<path fill="none" stroke="midnightblue" d="M655.47,-560.38C654,-536.92 652.05,-488.48 657.52,-448 658.71,-439.19 661.09,-429.64 663.42,-421.61"/>
<polygon fill="midnightblue" stroke="midnightblue" points="666.83,-422.42 666.45,-411.83 660.15,-420.35 666.83,-422.42"/>
</g>
<!-- Node8 -->
<g id="node8" class="node">
<title>Node8</title>
<g id="a_node8"><a xlink:href="content_8h.html" target="_top" xlink:title=" ">
<polygon fill="white" stroke="black" points="120.52,-280.5 120.52,-299.5 182.52,-299.5 182.52,-280.5 120.52,-280.5"/>
<text text-anchor="middle" x="151.52" y="-287.5" font-family="Helvetica,sans-Serif" font-size="10.00">content.h</text>
</a>
</g>
</g>
<!-- Node1&#45;&gt;Node8 -->
<g id="edge51" class="edge">
<title>Node1&#45;&gt;Node8</title>
<path fill="none" stroke="midnightblue" d="M592.56,-571.98C464.66,-565.19 189.52,-541.06 189.52,-459 189.52,-459 189.52,-459 189.52,-401 189.52,-366.81 172.91,-329.76 161.66,-308.57"/>
<polygon fill="midnightblue" stroke="midnightblue" points="164.7,-306.83 156.8,-299.77 158.57,-310.22 164.7,-306.83"/>
</g>
<!-- Node25 -->
<g id="node25" class="node">
<title>Node25</title>
<g id="a_node25"><a xlink:href="mwgraph_8h.html" target="_top" xlink:title=" ">
<polygon fill="white" stroke="black" points="666.02,-448.5 666.02,-467.5 737.02,-467.5 737.02,-448.5 666.02,-448.5"/>
<text text-anchor="middle" x="701.52" y="-455.5" font-family="Helvetica,sans-Serif" font-size="10.00">mwgraph.h</text>
</a>
</g>
</g>
<!-- Node1&#45;&gt;Node25 -->
<g id="edge45" class="edge">
<title>Node1&#45;&gt;Node25</title>
<path fill="none" stroke="midnightblue" d="M662.03,-560.34C670.18,-539.43 685.42,-500.31 694.4,-477.27"/>
<polygon fill="midnightblue" stroke="midnightblue" points="697.77,-478.26 698.14,-467.67 691.25,-475.72 697.77,-478.26"/>
</g>
<!-- Node26 -->
<g id="node26" class="node">
<title>Node26</title>
<g id="a_node26"><a xlink:href="wgraph_8h.html" target="_top" xlink:title=" ">
<polygon fill="white" stroke="black" points="703.52,-504.5 703.52,-523.5 765.52,-523.5 765.52,-504.5 703.52,-504.5"/>
<text text-anchor="middle" x="734.52" y="-511.5" font-family="Helvetica,sans-Serif" font-size="10.00">wgraph.h</text>
</a>
</g>
</g>
<!-- Node1&#45;&gt;Node26 -->
<g id="edge47" class="edge">
<title>Node1&#45;&gt;Node26</title>
<path fill="none" stroke="midnightblue" d="M675,-560.4C687.04,-551.22 702.72,-539.26 714.96,-529.92"/>
<polygon fill="midnightblue" stroke="midnightblue" points="717.34,-532.51 723.17,-523.66 713.09,-526.94 717.34,-532.51"/>
</g>
<!-- Node3 -->
<g id="node3" class="node">
<title>Node3</title>
<g id="a_node3"><a xlink:title=" ">
<polygon fill="white" stroke="#bfbfbf" points="541.52,-112.5 541.52,-131.5 605.52,-131.5 605.52,-112.5 541.52,-112.5"/>
<text text-anchor="middle" x="573.52" y="-119.5" font-family="Helvetica,sans-Serif" font-size="10.00">algorithm</text>
</a>
</g>
</g>
<!-- Node2&#45;&gt;Node3 -->
<g id="edge2" class="edge">
<title>Node2&#45;&gt;Node3</title>
<path fill="none" stroke="midnightblue" d="M657.97,-392.43C636.71,-375.57 593.52,-335.8 593.52,-291 593.52,-291 593.52,-291 593.52,-233 593.52,-200.44 584.93,-163.32 579.01,-141.59"/>
<polygon fill="midnightblue" stroke="midnightblue" points="582.31,-140.41 576.21,-131.74 575.57,-142.32 582.31,-140.41"/>
</g>
<!-- Node4 -->
<g id="node4" class="node">
<title>Node4</title>
<g id="a_node4"><a xlink:title=" ">
<polygon fill="white" stroke="#bfbfbf" points="623.52,-112.5 623.52,-131.5 679.52,-131.5 679.52,-112.5 623.52,-112.5"/>
<text text-anchor="middle" x="651.52" y="-119.5" font-family="Helvetica,sans-Serif" font-size="10.00">numeric</text>
</a>
</g>
</g>
<!-- Node2&#45;&gt;Node4 -->
<g id="edge3" class="edge">
<title>Node2&#45;&gt;Node4</title>
<path fill="none" stroke="midnightblue" d="M664.23,-392.23C653.79,-374.04 631.52,-330.6 631.52,-291 631.52,-291 631.52,-291 631.52,-233 631.52,-200.44 640.1,-163.32 646.02,-141.59"/>
<polygon fill="midnightblue" stroke="midnightblue" points="649.46,-142.32 648.82,-131.74 642.72,-140.41 649.46,-142.32"/>
</g>
<!-- Node5 -->
<g id="node5" class="node">
<title>Node5</title>
<g id="a_node5"><a xlink:title=" ">
<polygon fill="white" stroke="#bfbfbf" points="812.02,-224.5 812.02,-243.5 857.02,-243.5 857.02,-224.5 812.02,-224.5"/>
<text text-anchor="middle" x="834.52" y="-231.5" font-family="Helvetica,sans-Serif" font-size="10.00">utility</text>
</a>
</g>
</g>
<!-- Node2&#45;&gt;Node5 -->
<g id="edge4" class="edge">
<title>Node2&#45;&gt;Node5</title>
<path fill="none" stroke="midnightblue" d="M685.74,-392.43C700.88,-384.09 723.72,-370.56 741.52,-356 768.04,-334.3 773.65,-327.18 794.52,-300 806.09,-284.92 817.25,-266.34 824.83,-252.91"/>
<polygon fill="midnightblue" stroke="midnightblue" points="828.1,-254.23 829.87,-243.78 821.97,-250.84 828.1,-254.23"/>
</g>
<!-- Node6 -->
<g id="node6" class="node">
<title>Node6</title>
<g id="a_node6"><a xlink:title=" ">
<polygon fill="white" stroke="#bfbfbf" points="148.02,-0.5 148.02,-19.5 195.02,-19.5 195.02,-0.5 148.02,-0.5"/>
<text text-anchor="middle" x="171.52" y="-7.5" font-family="Helvetica,sans-Serif" font-size="10.00">vector</text>
</a>
</g>
</g>
<!-- Node2&#45;&gt;Node6 -->
<g id="edge5" class="edge">
<title>Node2&#45;&gt;Node6</title>
<path fill="none" stroke="midnightblue" d="M696.22,-395.4C761.43,-380.96 923.52,-340.14 923.52,-291 923.52,-291 923.52,-291 923.52,-121 923.52,-84.55 905.68,-73.14 873.52,-56 843.74,-40.13 342.14,-18.12 205.6,-12.4"/>
<polygon fill="midnightblue" stroke="midnightblue" points="205.46,-8.89 195.32,-11.97 205.17,-15.89 205.46,-8.89"/>
</g>
<!-- Node7 -->
<g id="node7" class="node">
<title>Node7</title>
<g id="a_node7"><a xlink:title=" ">
<polygon fill="white" stroke="#bfbfbf" points="579.02,-56.5 579.02,-75.5 644.02,-75.5 644.02,-56.5 579.02,-56.5"/>
<text text-anchor="middle" x="611.52" y="-63.5" font-family="Helvetica,sans-Serif" font-size="10.00">onnx.pb.h</text>
</a>
</g>
</g>
<!-- Node2&#45;&gt;Node7 -->
<g id="edge6" class="edge">
<title>Node2&#45;&gt;Node7</title>
<path fill="none" stroke="midnightblue" d="M674.8,-392.23C685.24,-374.04 707.52,-330.6 707.52,-291 707.52,-291 707.52,-291 707.52,-177 707.52,-146.9 707.04,-135.72 688.52,-112 677.31,-97.65 660.15,-86.99 644.87,-79.66"/>
<polygon fill="midnightblue" stroke="midnightblue" points="646.23,-76.43 635.67,-75.52 643.35,-82.81 646.23,-76.43"/>
</g>
<!-- Node2&#45;&gt;Node8 -->
<g id="edge7" class="edge">
<title>Node2&#45;&gt;Node8</title>
<path fill="none" stroke="midnightblue" d="M642.76,-395.32C557.93,-377.3 294.63,-321.39 192.54,-299.71"/>
<polygon fill="midnightblue" stroke="midnightblue" points="193.12,-296.26 182.61,-297.6 191.66,-303.1 193.12,-296.26"/>
</g>
<!-- Node23 -->
<g id="node23" class="node">
<title>Node23</title>
<g id="a_node23"><a xlink:href="node_8h.html" target="_top" xlink:title=" ">
<polygon fill="white" stroke="black" points="735.52,-280.5 735.52,-299.5 785.52,-299.5 785.52,-280.5 735.52,-280.5"/>
<text text-anchor="middle" x="760.52" y="-287.5" font-family="Helvetica,sans-Serif" font-size="10.00">node.h</text>
</a>
</g>
</g>
<!-- Node2&#45;&gt;Node23 -->
<g id="edge35" class="edge">
<title>Node2&#45;&gt;Node23</title>
<path fill="none" stroke="midnightblue" d="M681.63,-392.29C692.84,-383.85 709.53,-370.26 721.52,-356 733.8,-341.39 744.68,-322.47 751.81,-308.82"/>
<polygon fill="midnightblue" stroke="midnightblue" points="755.1,-310.06 756.49,-299.56 748.85,-306.9 755.1,-310.06"/>
</g>
<!-- Node24 -->
<g id="node24" class="node">
<title>Node24</title>
<g id="a_node24"><a xlink:href="node__traits_8h.html" target="_top" xlink:title=" ">
<polygon fill="white" stroke="black" points="485.52,-336.5 485.52,-355.5 565.52,-355.5 565.52,-336.5 485.52,-336.5"/>
<text text-anchor="middle" x="525.52" y="-343.5" font-family="Helvetica,sans-Serif" font-size="10.00">node_traits.h</text>
</a>
</g>
</g>
<!-- Node2&#45;&gt;Node24 -->
<g id="edge40" class="edge">
<title>Node2&#45;&gt;Node24</title>
<path fill="none" stroke="midnightblue" d="M646.7,-392.44C622.68,-383.44 584.69,-369.19 557.65,-359.05"/>
<polygon fill="midnightblue" stroke="midnightblue" points="558.82,-355.75 548.23,-355.52 556.36,-362.3 558.82,-355.75"/>
</g>
<!-- Node9 -->
<g id="node9" class="node">
<title>Node9</title>
<g id="a_node9"><a xlink:href="dense__tensor_8h.html" target="_top" xlink:title=" ">
<polygon fill="white" stroke="black" points="202.52,-224.5 202.52,-243.5 292.52,-243.5 292.52,-224.5 202.52,-224.5"/>
<text text-anchor="middle" x="247.52" y="-231.5" font-family="Helvetica,sans-Serif" font-size="10.00">dense_tensor.h</text>
</a>
</g>
</g>
<!-- Node8&#45;&gt;Node9 -->
<g id="edge8" class="edge">
<title>Node8&#45;&gt;Node9</title>
<path fill="none" stroke="midnightblue" d="M166.94,-280.32C182.05,-271.82 205.33,-258.73 222.99,-248.8"/>
<polygon fill="midnightblue" stroke="midnightblue" points="225.13,-251.61 232.13,-243.65 221.7,-245.51 225.13,-251.61"/>
</g>
<!-- Node13 -->
<g id="node13" class="node">
<title>Node13</title>
<g id="a_node13"><a xlink:href="variant__attribute_8h.html" target="_top" xlink:title=" ">
<polygon fill="white" stroke="black" points="26.02,-168.5 26.02,-187.5 133.02,-187.5 133.02,-168.5 26.02,-168.5"/>
<text text-anchor="middle" x="79.52" y="-175.5" font-family="Helvetica,sans-Serif" font-size="10.00">variant_attribute.h</text>
</a>
</g>
</g>
<!-- Node8&#45;&gt;Node13 -->
<g id="edge34" class="edge">
<title>Node8&#45;&gt;Node13</title>
<path fill="none" stroke="midnightblue" d="M145.87,-280.37C133.98,-262.22 106.22,-219.8 90.64,-195.99"/>
<polygon fill="midnightblue" stroke="midnightblue" points="93.54,-194.04 85.14,-187.59 87.69,-197.88 93.54,-194.04"/>
</g>
<!-- Node9&#45;&gt;Node6 -->
<g id="edge33" class="edge">
<title>Node9&#45;&gt;Node6</title>
<path fill="none" stroke="midnightblue" d="M241,-224.43C224.23,-201.74 179.81,-137.64 164.52,-76 160.67,-60.51 163.16,-42.42 166.19,-29.27"/>
<polygon fill="midnightblue" stroke="midnightblue" points="169.59,-30.1 168.73,-19.54 162.82,-28.33 169.59,-30.1"/>
</g>
<!-- Node10 -->
<g id="node10" class="node">
<title>Node10</title>
<g id="a_node10"><a xlink:href="type__info_8h.html" target="_top" xlink:title=" ">
<polygon fill="white" stroke="black" points="174.02,-56.5 174.02,-75.5 245.02,-75.5 245.02,-56.5 174.02,-56.5"/>
<text text-anchor="middle" x="209.52" y="-63.5" font-family="Helvetica,sans-Serif" font-size="10.00">type_info.h</text>
</a>
</g>
</g>
<!-- Node9&#45;&gt;Node10 -->
<g id="edge9" class="edge">
<title>Node9&#45;&gt;Node10</title>
<path fill="none" stroke="midnightblue" d="M245.47,-224.08C239.49,-197.95 221.93,-121.21 213.77,-85.58"/>
<polygon fill="midnightblue" stroke="midnightblue" points="217.12,-84.53 211.48,-75.57 210.3,-86.1 217.12,-84.53"/>
</g>
<!-- Node9&#45;&gt;Node13 -->
<g id="edge13" class="edge">
<title>Node9&#45;&gt;Node13</title>
<path fill="none" stroke="midnightblue" d="M220.9,-224.44C192.51,-215.32 147.38,-200.81 115.76,-190.65"/>
<polygon fill="midnightblue" stroke="midnightblue" points="116.6,-187.24 106.01,-187.52 114.46,-193.91 116.6,-187.24"/>
</g>
<!-- Node15 -->
<g id="node15" class="node">
<title>Node15</title>
<g id="a_node15"><a xlink:href="utilities_8h.html" target="_top" xlink:title=" ">
<polygon fill="white" stroke="black" points="356.52,-168.5 356.52,-187.5 418.52,-187.5 418.52,-168.5 356.52,-168.5"/>
<text text-anchor="middle" x="387.52" y="-175.5" font-family="Helvetica,sans-Serif" font-size="10.00">utilities.h</text>
</a>
</g>
</g>
<!-- Node9&#45;&gt;Node15 -->
<g id="edge17" class="edge">
<title>Node9&#45;&gt;Node15</title>
<path fill="none" stroke="midnightblue" d="M264.61,-224.44C286.08,-215.4 323.03,-201.06 350.91,-190.92"/>
<polygon fill="midnightblue" stroke="midnightblue" points="352.13,-194.2 360.36,-187.52 349.76,-187.61 352.13,-194.2"/>
</g>
<!-- Node10&#45;&gt;Node6 -->
<g id="edge11" class="edge">
<title>Node10&#45;&gt;Node6</title>
<path fill="none" stroke="midnightblue" d="M203.24,-56.08C197.87,-48.46 190,-37.26 183.44,-27.94"/>
<polygon fill="midnightblue" stroke="midnightblue" points="186.29,-25.91 177.67,-19.75 180.57,-29.94 186.29,-25.91"/>
</g>
<!-- Node11 -->
<g id="node11" class="node">
<title>Node11</title>
<g id="a_node11"><a xlink:title=" ">
<polygon fill="white" stroke="#bfbfbf" points="44.52,-0.5 44.52,-19.5 88.52,-19.5 88.52,-0.5 44.52,-0.5"/>
<text text-anchor="middle" x="66.52" y="-7.5" font-family="Helvetica,sans-Serif" font-size="10.00">string</text>
</a>
</g>
</g>
<!-- Node10&#45;&gt;Node11 -->
<g id="edge10" class="edge">
<title>Node10&#45;&gt;Node11</title>
<path fill="none" stroke="midnightblue" d="M186.86,-56.44C162.97,-47.42 125.16,-33.15 98.3,-23"/>
<polygon fill="midnightblue" stroke="midnightblue" points="99.19,-19.6 88.6,-19.34 96.72,-26.15 99.19,-19.6"/>
</g>
<!-- Node12 -->
<g id="node12" class="node">
<title>Node12</title>
<g id="a_node12"><a xlink:href="starting__traits_8h.html" target="_top" xlink:title=" ">
<polygon fill="white" stroke="black" points="482.52,-0.5 482.52,-19.5 576.52,-19.5 576.52,-0.5 482.52,-0.5"/>
<text text-anchor="middle" x="529.52" y="-7.5" font-family="Helvetica,sans-Serif" font-size="10.00">starting_traits.h</text>
</a>
</g>
</g>
<!-- Node10&#45;&gt;Node12 -->
<g id="edge12" class="edge">
<title>Node10&#45;&gt;Node12</title>
<path fill="none" stroke="midnightblue" d="M245.29,-58.96C300.33,-49.68 406.28,-31.8 472.13,-20.68"/>
<polygon fill="midnightblue" stroke="midnightblue" points="473.06,-24.08 482.33,-18.96 471.89,-17.17 473.06,-24.08"/>
</g>
<!-- Node13&#45;&gt;Node6 -->
<g id="edge16" class="edge">
<title>Node13&#45;&gt;Node6</title>
<path fill="none" stroke="midnightblue" d="M68.99,-168.3C55.4,-155.95 34.6,-132.55 44.52,-112 64.81,-69.92 112.11,-39.97 142.91,-24.1"/>
<polygon fill="midnightblue" stroke="midnightblue" points="144.5,-27.22 151.89,-19.63 141.38,-20.95 144.5,-27.22"/>
</g>
<!-- Node13&#45;&gt;Node11 -->
<g id="edge14" class="edge">
<title>Node13&#45;&gt;Node11</title>
<path fill="none" stroke="midnightblue" d="M56.06,-168.41C40.35,-161.28 20.9,-149.46 11.52,-132 -4.47,-102.25 -2.95,-86.52 11.52,-56 17.64,-43.07 29.51,-32.62 40.66,-25.05"/>
<polygon fill="midnightblue" stroke="midnightblue" points="42.71,-27.9 49.32,-19.61 38.99,-21.97 42.71,-27.9"/>
</g>
<!-- Node14 -->
<g id="node14" class="node">
<title>Node14</title>
<g id="a_node14"><a xlink:title=" ">
<polygon fill="white" stroke="#bfbfbf" points="54.02,-112.5 54.02,-131.5 105.02,-131.5 105.02,-112.5 54.02,-112.5"/>
<text text-anchor="middle" x="79.52" y="-119.5" font-family="Helvetica,sans-Serif" font-size="10.00">variant</text>
</a>
</g>
</g>
<!-- Node13&#45;&gt;Node14 -->
<g id="edge15" class="edge">
<title>Node13&#45;&gt;Node14</title>
<path fill="none" stroke="midnightblue" d="M79.52,-168.08C79.52,-161.01 79.52,-150.86 79.52,-141.99"/>
<polygon fill="midnightblue" stroke="midnightblue" points="83.02,-141.75 79.52,-131.75 76.02,-141.75 83.02,-141.75"/>
</g>
<!-- Node15&#45;&gt;Node3 -->
<g id="edge18" class="edge">
<title>Node15&#45;&gt;Node3</title>
<path fill="none" stroke="midnightblue" d="M416.99,-168.44C448.69,-159.24 499.25,-144.56 534.29,-134.39"/>
<polygon fill="midnightblue" stroke="midnightblue" points="535.55,-137.67 544.18,-131.52 533.6,-130.94 535.55,-137.67"/>
</g>
<!-- Node15&#45;&gt;Node4 -->
<g id="edge19" class="edge">
<title>Node15&#45;&gt;Node4</title>
<path fill="none" stroke="midnightblue" d="M418.81,-171.24C460.79,-163.41 537.88,-148.7 613.14,-132.23"/>
<polygon fill="midnightblue" stroke="midnightblue" points="614.25,-135.57 623.26,-130 612.74,-128.74 614.25,-135.57"/>
</g>
<!-- Node15&#45;&gt;Node7 -->
<g id="edge23" class="edge">
<title>Node15&#45;&gt;Node7</title>
<path fill="none" stroke="midnightblue" d="M360.47,-168.49C329,-157.22 283.81,-135.96 304.52,-112 338.15,-73.07 492.51,-67.18 568.71,-66.7"/>
<polygon fill="midnightblue" stroke="midnightblue" points="568.94,-70.2 578.93,-66.67 568.92,-63.2 568.94,-70.2"/>
</g>
<!-- Node15&#45;&gt;Node9 -->
<g id="edge31" class="edge">
<title>Node15&#45;&gt;Node9</title>
<path fill="none" stroke="midnightblue" d="M370.52,-187.52C349.1,-196.55 312.15,-210.88 284.24,-221.04"/>
<polygon fill="midnightblue" stroke="midnightblue" points="283.01,-217.76 274.79,-224.44 285.38,-224.35 283.01,-217.76"/>
</g>
<!-- Node15&#45;&gt;Node10 -->
<g id="edge32" class="edge">
<title>Node15&#45;&gt;Node10</title>
<path fill="none" stroke="midnightblue" d="M356.44,-169C332.01,-161.79 297.82,-149.59 271.52,-132 251.76,-118.79 233.56,-98.28 222.06,-83.83"/>
<polygon fill="midnightblue" stroke="midnightblue" points="224.69,-81.52 215.81,-75.75 219.15,-85.8 224.69,-81.52"/>
</g>
<!-- Node16 -->
<g id="node16" class="node">
<title>Node16</title>
<g id="a_node16"><a xlink:title=" ">
<polygon fill="white" stroke="#bfbfbf" points="313.52,-112.5 313.52,-131.5 381.52,-131.5 381.52,-112.5 313.52,-112.5"/>
<text text-anchor="middle" x="347.52" y="-119.5" font-family="Helvetica,sans-Serif" font-size="10.00">filesystem</text>
</a>
</g>
</g>
<!-- Node15&#45;&gt;Node16 -->
<g id="edge20" class="edge">
<title>Node15&#45;&gt;Node16</title>
<path fill="none" stroke="midnightblue" d="M380.91,-168.08C375.26,-160.46 366.97,-149.26 360.06,-139.94"/>
<polygon fill="midnightblue" stroke="midnightblue" points="362.76,-137.7 354,-131.75 357.14,-141.87 362.76,-137.7"/>
</g>
<!-- Node17 -->
<g id="node17" class="node">
<title>Node17</title>
<g id="a_node17"><a xlink:title=" ">
<polygon fill="white" stroke="#bfbfbf" points="400.02,-112.5 400.02,-131.5 455.02,-131.5 455.02,-112.5 400.02,-112.5"/>
<text text-anchor="middle" x="427.52" y="-119.5" font-family="Helvetica,sans-Serif" font-size="10.00">fstream</text>
</a>
</g>
</g>
<!-- Node15&#45;&gt;Node17 -->
<g id="edge21" class="edge">
<title>Node15&#45;&gt;Node17</title>
<path fill="none" stroke="midnightblue" d="M394.12,-168.08C399.77,-160.46 408.06,-149.26 414.97,-139.94"/>
<polygon fill="midnightblue" stroke="midnightblue" points="417.89,-141.87 421.03,-131.75 412.27,-137.7 417.89,-141.87"/>
</g>
<!-- Node18 -->
<g id="node18" class="node">
<title>Node18</title>
<g id="a_node18"><a xlink:title=" ">
<polygon fill="white" stroke="#bfbfbf" points="473.52,-112.5 473.52,-131.5 523.52,-131.5 523.52,-112.5 473.52,-112.5"/>
<text text-anchor="middle" x="498.52" y="-119.5" font-family="Helvetica,sans-Serif" font-size="10.00">ranges</text>
</a>
</g>
</g>
<!-- Node15&#45;&gt;Node18 -->
<g id="edge22" class="edge">
<title>Node15&#45;&gt;Node18</title>
<path fill="none" stroke="midnightblue" d="M405.35,-168.32C423.23,-159.62 450.99,-146.12 471.56,-136.11"/>
<polygon fill="midnightblue" stroke="midnightblue" points="473.26,-139.18 480.73,-131.65 470.2,-132.88 473.26,-139.18"/>
</g>
<!-- Node19 -->
<g id="node19" class="node">
<title>Node19</title>
<g id="a_node19"><a xlink:href="traits_8h.html" target="_top" xlink:title=" ">
<polygon fill="white" stroke="black" points="736.02,-112.5 736.02,-131.5 787.02,-131.5 787.02,-112.5 736.02,-112.5"/>
<text text-anchor="middle" x="761.52" y="-119.5" font-family="Helvetica,sans-Serif" font-size="10.00">traits.h</text>
</a>
</g>
</g>
<!-- Node15&#45;&gt;Node19 -->
<g id="edge24" class="edge">
<title>Node15&#45;&gt;Node19</title>
<path fill="none" stroke="midnightblue" d="M418.76,-172.49C487.7,-162.53 652.51,-138.74 725.58,-128.19"/>
<polygon fill="midnightblue" stroke="midnightblue" points="726.28,-131.62 735.68,-126.73 725.28,-124.7 726.28,-131.62"/>
</g>
<!-- Node19&#45;&gt;Node7 -->
<g id="edge29" class="edge">
<title>Node19&#45;&gt;Node7</title>
<path fill="none" stroke="midnightblue" d="M737.75,-112.44C712.62,-103.4 672.8,-89.06 644.61,-78.92"/>
<polygon fill="midnightblue" stroke="midnightblue" points="645.77,-75.61 635.17,-75.52 643.4,-82.2 645.77,-75.61"/>
</g>
<!-- Node19&#45;&gt;Node10 -->
<g id="edge30" class="edge">
<title>Node19&#45;&gt;Node10</title>
<path fill="none" stroke="midnightblue" d="M735.86,-117.65C721.88,-115.87 704.26,-113.71 688.52,-112 529.69,-94.75 340.8,-78.16 255.44,-70.87"/>
<polygon fill="midnightblue" stroke="midnightblue" points="255.57,-67.37 245.3,-70 254.97,-74.34 255.57,-67.37"/>
</g>
<!-- Node19&#45;&gt;Node12 -->
<g id="edge28" class="edge">
<title>Node19&#45;&gt;Node12</title>
<path fill="none" stroke="midnightblue" d="M764.32,-112.22C768.11,-98.48 772.96,-71.83 759.52,-56 737.66,-30.28 647.54,-18.99 586.81,-14.24"/>
<polygon fill="midnightblue" stroke="midnightblue" points="586.82,-10.73 576.58,-13.48 586.3,-17.71 586.82,-10.73"/>
</g>
<!-- Node20 -->
<g id="node20" class="node">
<title>Node20</title>
<g id="a_node20"><a xlink:title=" ">
<polygon fill="white" stroke="#bfbfbf" points="662.52,-56.5 662.52,-75.5 694.52,-75.5 694.52,-56.5 662.52,-56.5"/>
<text text-anchor="middle" x="678.52" y="-63.5" font-family="Helvetica,sans-Serif" font-size="10.00">set</text>
</a>
</g>
</g>
<!-- Node19&#45;&gt;Node20 -->
<g id="edge25" class="edge">
<title>Node19&#45;&gt;Node20</title>
<path fill="none" stroke="midnightblue" d="M748.18,-112.32C735.35,-103.98 715.73,-91.21 700.58,-81.35"/>
<polygon fill="midnightblue" stroke="midnightblue" points="702.11,-78.17 691.82,-75.65 698.29,-84.04 702.11,-78.17"/>
</g>
<!-- Node21 -->
<g id="node21" class="node">
<title>Node21</title>
<g id="a_node21"><a xlink:title=" ">
<polygon fill="white" stroke="#bfbfbf" points="712.52,-56.5 712.52,-75.5 750.52,-75.5 750.52,-56.5 712.52,-56.5"/>
<text text-anchor="middle" x="731.52" y="-63.5" font-family="Helvetica,sans-Serif" font-size="10.00">map</text>
</a>
</g>
</g>
<!-- Node19&#45;&gt;Node21 -->
<g id="edge26" class="edge">
<title>Node19&#45;&gt;Node21</title>
<path fill="none" stroke="midnightblue" d="M756.56,-112.08C752.41,-104.61 746.36,-93.72 741.25,-84.52"/>
<polygon fill="midnightblue" stroke="midnightblue" points="744.29,-82.79 736.38,-75.75 738.17,-86.19 744.29,-82.79"/>
</g>
<!-- Node22 -->
<g id="node22" class="node">
<title>Node22</title>
<g id="a_node22"><a xlink:title=" ">
<polygon fill="white" stroke="#bfbfbf" points="806.52,-56.5 806.52,-75.5 864.52,-75.5 864.52,-56.5 806.52,-56.5"/>
<text text-anchor="middle" x="835.52" y="-63.5" font-family="Helvetica,sans-Serif" font-size="10.00">memory</text>
</a>
</g>
</g>
<!-- Node19&#45;&gt;Node22 -->
<g id="edge27" class="edge">
<title>Node19&#45;&gt;Node22</title>
<path fill="none" stroke="midnightblue" d="M773.4,-112.32C784.67,-104.11 801.8,-91.6 815.22,-81.81"/>
<polygon fill="midnightblue" stroke="midnightblue" points="817.39,-84.56 823.41,-75.83 813.27,-78.9 817.39,-84.56"/>
</g>
<!-- Node23&#45;&gt;Node5 -->
<g id="edge39" class="edge">
<title>Node23&#45;&gt;Node5</title>
<path fill="none" stroke="midnightblue" d="M772.4,-280.32C783.67,-272.11 800.8,-259.6 814.22,-249.81"/>
<polygon fill="midnightblue" stroke="midnightblue" points="816.39,-252.56 822.41,-243.83 812.27,-246.9 816.39,-252.56"/>
</g>
<!-- Node23&#45;&gt;Node9 -->
<g id="edge36" class="edge">
<title>Node23&#45;&gt;Node9</title>
<path fill="none" stroke="midnightblue" d="M735.43,-286.36C656.7,-278.07 413.24,-252.44 302.89,-240.83"/>
<polygon fill="midnightblue" stroke="midnightblue" points="302.95,-237.32 292.64,-239.75 302.22,-244.28 302.95,-237.32"/>
</g>
<!-- Node23&#45;&gt;Node19 -->
<g id="edge37" class="edge">
<title>Node23&#45;&gt;Node19</title>
<path fill="none" stroke="midnightblue" d="M760.57,-280.08C760.73,-253.95 761.19,-177.21 761.4,-141.58"/>
<polygon fill="midnightblue" stroke="midnightblue" points="764.9,-141.59 761.46,-131.57 757.9,-141.55 764.9,-141.59"/>
</g>
<!-- Node23&#45;&gt;Node22 -->
<g id="edge38" class="edge">
<title>Node23&#45;&gt;Node22</title>
<path fill="none" stroke="midnightblue" d="M765.63,-280.17C778.84,-256.86 814.16,-191.38 829.52,-132 833.47,-116.73 834.89,-98.84 835.37,-85.7"/>
<polygon fill="midnightblue" stroke="midnightblue" points="838.88,-85.64 835.59,-75.56 831.88,-85.49 838.88,-85.64"/>
</g>
<!-- Node24&#45;&gt;Node8 -->
<g id="edge42" class="edge">
<title>Node24&#45;&gt;Node8</title>
<path fill="none" stroke="midnightblue" d="M485.39,-340.32C423.29,-332.89 300.27,-317.45 196.52,-300 195.42,-299.81 194.3,-299.62 193.18,-299.43"/>
<polygon fill="midnightblue" stroke="midnightblue" points="193.41,-295.91 182.94,-297.54 192.14,-302.79 193.41,-295.91"/>
</g>
<!-- Node24&#45;&gt;Node10 -->
<g id="edge44" class="edge">
<title>Node24&#45;&gt;Node10</title>
<path fill="none" stroke="midnightblue" d="M485.45,-338.82C405.05,-325.53 228.71,-291.5 193.52,-244 158.06,-196.15 185.17,-119.82 200.65,-85.17"/>
<polygon fill="midnightblue" stroke="midnightblue" points="203.95,-86.38 205,-75.83 197.61,-83.42 203.95,-86.38"/>
</g>
<!-- Node24&#45;&gt;Node22 -->
<g id="edge41" class="edge">
<title>Node24&#45;&gt;Node22</title>
<path fill="none" stroke="midnightblue" d="M539.95,-336.35C583.06,-310 713.02,-226.72 796.52,-132 809.14,-117.68 819.97,-98.73 827,-84.98"/>
<polygon fill="midnightblue" stroke="midnightblue" points="830.32,-86.17 831.59,-75.65 824.04,-83.08 830.32,-86.17"/>
</g>
<!-- Node24&#45;&gt;Node23 -->
<g id="edge43" class="edge">
<title>Node24&#45;&gt;Node23</title>
<path fill="none" stroke="midnightblue" d="M562.75,-336.44C607.44,-326.17 681.81,-309.09 725.49,-299.05"/>
<polygon fill="midnightblue" stroke="midnightblue" points="726.41,-302.43 735.38,-296.78 724.85,-295.61 726.41,-302.43"/>
</g>
<!-- Node25&#45;&gt;Node2 -->
<g id="edge46" class="edge">
<title>Node25&#45;&gt;Node2</title>
<path fill="none" stroke="midnightblue" d="M696.23,-448.08C691.8,-440.61 685.35,-429.72 679.9,-420.52"/>
<polygon fill="midnightblue" stroke="midnightblue" points="682.81,-418.57 674.7,-411.75 676.79,-422.14 682.81,-418.57"/>
</g>
<!-- Node26&#45;&gt;Node25 -->
<g id="edge48" class="edge">
<title>Node26&#45;&gt;Node25</title>
<path fill="none" stroke="midnightblue" d="M729.07,-504.08C724.5,-496.61 717.85,-485.72 712.22,-476.52"/>
<polygon fill="midnightblue" stroke="midnightblue" points="715.06,-474.46 706.86,-467.75 709.09,-478.11 715.06,-474.46"/>
</g>
<!-- Node27 -->
<g id="node27" class="node">
<title>Node27</title>
<g id="a_node27"><a xlink:href="weighted__graph_8h.html" target="_top" xlink:title=" ">
<polygon fill="white" stroke="black" points="792.52,-392.5 792.52,-411.5 896.52,-411.5 896.52,-392.5 792.52,-392.5"/>
<text text-anchor="middle" x="844.52" y="-399.5" font-family="Helvetica,sans-Serif" font-size="10.00">weighted_graph.h</text>
</a>
</g>
</g>
<!-- Node26&#45;&gt;Node27 -->
<g id="edge49" class="edge">
<title>Node26&#45;&gt;Node27</title>
<path fill="none" stroke="midnightblue" d="M743.15,-504.37C761.62,-485.89 805.22,-442.29 828.77,-418.74"/>
<polygon fill="midnightblue" stroke="midnightblue" points="831.33,-421.14 835.92,-411.59 826.38,-416.19 831.33,-421.14"/>
</g>
<!-- Node27&#45;&gt;Node19 -->
<g id="edge50" class="edge">
<title>Node27&#45;&gt;Node19</title>
<path fill="none" stroke="midnightblue" d="M848.52,-392.46C860.27,-366.15 892.23,-284.4 866.52,-224 850.02,-185.24 810.54,-154.16 784.97,-137.18"/>
<polygon fill="midnightblue" stroke="midnightblue" points="786.55,-134.04 776.25,-131.57 782.77,-139.92 786.55,-134.04"/>
</g>
</g>
</svg>
        <g id="navigator" transform="translate(0 0)" fill="#404254">
                <rect fill="#f2f5e9" fill-opacity="0.5" stroke="#606060" stroke-width=".5" x="0" y="0" width="60" height="60"/>
                <use id="zoomplus" xlink:href="#zoomPlus" x="17" y="9" onmousedown="handleZoom(evt,'in')"/>
                <use id="zoomminus" xlink:href="#zoomMin" x="42" y="9" onmousedown="handleZoom(evt,'out')"/>
                <use id="reset" xlink:href="#resetDef" x="30" y="36" onmousedown="handleReset()"/>
                <g id="arrowUp" xlink:href="#dirArrow" transform="translate(30 24)" onmousedown="handlePan(0,-1)">
                  <use xlink:href="#rim" fill="#404040">
                        <set attributeName="fill" to="#808080" begin="arrowUp.mouseover" end="arrowUp.mouseout"/>
                  </use>
                  <path fill="none" stroke="white" stroke-width="1.5" d="M0,-3.0v7 M-2.5,-0.5L0,-3.0L2.5,-0.5"/>
                </g>
                <g id="arrowRight" xlink:href="#dirArrow" transform="rotate(90) translate(36 -43)" onmousedown="handlePan(1,0)">
                  <use xlink:href="#rim" fill="#404040">
                        <set attributeName="fill" to="#808080" begin="arrowRight.mouseover" end="arrowRight.mouseout"/>
                  </use>
                  <path fill="none" stroke="white" stroke-width="1.5" d="M0,-3.0v7 M-2.5,-0.5L0,-3.0L2.5,-0.5"/>
                </g>
                <g id="arrowDown" xlink:href="#dirArrow" transform="rotate(180) translate(-30 -48)" onmousedown="handlePan(0,1)">
                  <use xlink:href="#rim" fill="#404040">
                        <set attributeName="fill" to="#808080" begin="arrowDown.mouseover" end="arrowDown.mouseout"/>
                  </use>
                  <path fill="none" stroke="white" stroke-width="1.5" d="M0,-3.0v7 M-2.5,-0.5L0,-3.0L2.5,-0.5"/>
                </g>
                <g id="arrowLeft" xlink:href="#dirArrow" transform="rotate(270) translate(-36 17)" onmousedown="handlePan(-1,0)">
                  <use xlink:href="#rim" fill="#404040">
                        <set attributeName="fill" to="#808080" begin="arrowLeft.mouseover" end="arrowLeft.mouseout"/>
                  </use>
                  <path fill="none" stroke="white" stroke-width="1.5" d="M0,-3.0v7 M-2.5,-0.5L0,-3.0L2.5,-0.5"/>
                </g>
        </g>
        <svg viewBox="0 0 15 15" width="100%" height="30px" preserveAspectRatio="xMaxYMin meet">
         <g id="arrow_out" transform="scale(0.3 0.3)">
          <a xlink:href="graph__traits_8h__incl_org.svg" target="_base">
           <rect id="button" ry="5" rx="5" y="6" x="6" height="38" width="38"
                fill="#f2f5e9" fill-opacity="0.5" stroke="#606060" stroke-width="1.0"/>
           <path id="arrow"
             d="M 11.500037,31.436501 C 11.940474,20.09759 22.043105,11.32322 32.158766,21.979434 L 37.068811,17.246167 C 37.068811,17.246167 37.088388,32 37.088388,32 L 22.160133,31.978069 C 22.160133,31.978069 26.997745,27.140456 26.997745,27.140456 C 18.528582,18.264221 13.291696,25.230495 11.500037,31.436501 z"
             style="fill:#404040;"/>
          </a>
         </g>
        </svg>
</svg>
