<?xml version="1.0" encoding="UTF-8" standalone="no"?>
<!DOCTYPE svg PUBLIC "-//W3C//DTD SVG 1.1//EN"
 "http://www.w3.org/Graphics/SVG/1.1/DTD/svg11.dtd">
<!-- Generated by graphviz version 2.43.0 (0)
 -->
<!-- Title: include/network_butcher/Butcher/graph_constraint.h Pages: 1 -->
<!--zoomable 709 -->
<svg id="main" version="1.1" xmlns="http://www.w3.org/2000/svg" xmlns:xlink="http://www.w3.org/1999/xlink" xml:space="preserve" onload="init(evt)">
<style type="text/css"><![CDATA[
.edge:hover path { stroke: red; }
.edge:hover polygon { stroke: red; fill: red; }
]]></style>
<script type="text/javascript"><![CDATA[
var edges = document.getElementsByTagName('g');
if (edges && edges.length) {
  for (var i=0;i<edges.length;i++) {
    if (edges[i].id.substr(0,4)=='edge') {
      edges[i].setAttribute('class','edge');
    }
  }
}
]]></script>
        <defs>
                <circle id="rim" cx="0" cy="0" r="7"/>
                <circle id="rim2" cx="0" cy="0" r="3.5"/>
                <g id="zoomPlus">
                        <use xlink:href="#rim" fill="#404040">
                                <set attributeName="fill" to="#808080" begin="zoomplus.mouseover" end="zoomplus.mouseout"/>
                        </use>
                        <path d="M-4,0h8M0,-4v8" fill="none" stroke="white" stroke-width="1.5" pointer-events="none"/>
                </g>
                <g id="zoomMin">
                        <use xlink:href="#rim" fill="#404040">
                                <set attributeName="fill" to="#808080" begin="zoomminus.mouseover" end="zoomminus.mouseout"/>
                        </use>
                        <path d="M-4,0h8" fill="none" stroke="white" stroke-width="1.5" pointer-events="none"/>
                </g>
                <g id="dirArrow">
                        <path fill="none" stroke="white" stroke-width="1.5" d="M0,-3.0v7 M-2.5,-0.5L0,-3.0L2.5,-0.5"/>
                </g>
               <g id="resetDef">
                       <use xlink:href="#rim2" fill="#404040">
                               <set attributeName="fill" to="#808080" begin="reset.mouseover" end="reset.mouseout"/>
                       </use>
               </g>
        </defs>

<script type="text/javascript">
var viewWidth = 1097;
var viewHeight = 709;
var sectionId = 'dynsection-0';
</script>
<script xlink:href="svgpan.js"/>
<svg id="graph" class="graph">
<g id="viewport">
<title>include/network_butcher/Butcher/graph_constraint.h</title>
<polygon fill="white" stroke="transparent" points="-4,4 -4,-705 1092.5,-705 1092.5,4 -4,4"/>
<!-- Node1 -->
<g id="node1" class="node">
<title>Node1</title>
<g id="a_node1"><a xlink:title=" ">
<polygon fill="#bfbfbf" stroke="black" points="550,-670.5 550,-700.5 701,-700.5 701,-670.5 550,-670.5"/>
<text text-anchor="start" x="558" y="-688.5" font-family="Helvetica,sans-Serif" font-size="10.00">include/network_butcher</text>
<text text-anchor="middle" x="625.5" y="-677.5" font-family="Helvetica,sans-Serif" font-size="10.00">/Butcher/graph_constraint.h</text>
</a>
</g>
</g>
<!-- Node2 -->
<g id="node2" class="node">
<title>Node2</title>
<g id="a_node2"><a xlink:href="computer__memory_8h.html" target="_top" xlink:title=" ">
<polygon fill="white" stroke="black" points="416,-536.5 416,-566.5 565,-566.5 565,-536.5 416,-536.5"/>
<text text-anchor="start" x="424" y="-554.5" font-family="Helvetica,sans-Serif" font-size="10.00">network_butcher/Computer</text>
<text text-anchor="middle" x="490.5" y="-543.5" font-family="Helvetica,sans-Serif" font-size="10.00">/computer_memory.h</text>
</a>
</g>
</g>
<!-- Node1&#45;&gt;Node2 -->
<g id="edge1" class="edge">
<title>Node1&#45;&gt;Node2</title>
<path fill="none" stroke="midnightblue" d="M611.05,-670.37C587.3,-647.15 539.88,-600.78 512.12,-573.64"/>
<polygon fill="midnightblue" stroke="midnightblue" points="514.44,-571.01 504.84,-566.52 509.55,-576.02 514.44,-571.01"/>
</g>
<!-- Node30 -->
<g id="node30" class="node">
<title>Node30</title>
<g id="a_node30"><a xlink:href="graph__traits_8h.html" target="_top" xlink:title=" ">
<polygon fill="white" stroke="black" points="601,-536.5 601,-566.5 744,-566.5 744,-536.5 601,-536.5"/>
<text text-anchor="start" x="609" y="-554.5" font-family="Helvetica,sans-Serif" font-size="10.00">network_butcher/Network</text>
<text text-anchor="middle" x="672.5" y="-543.5" font-family="Helvetica,sans-Serif" font-size="10.00">/graph_traits.h</text>
</a>
</g>
</g>
<!-- Node1&#45;&gt;Node30 -->
<g id="edge51" class="edge">
<title>Node1&#45;&gt;Node30</title>
<path fill="none" stroke="midnightblue" d="M627.86,-670.33C630.87,-653.81 636.74,-625.86 645.5,-603 649.07,-593.69 653.98,-583.93 658.64,-575.49"/>
<polygon fill="midnightblue" stroke="midnightblue" points="661.78,-577.05 663.71,-566.63 655.7,-573.57 661.78,-577.05"/>
</g>
<!-- Node31 -->
<g id="node31" class="node">
<title>Node31</title>
<g id="a_node31"><a xlink:href="parameters_8h.html" target="_top" xlink:title=" ">
<polygon fill="white" stroke="black" points="654,-603.5 654,-633.5 783,-633.5 783,-603.5 654,-603.5"/>
<text text-anchor="start" x="662" y="-621.5" font-family="Helvetica,sans-Serif" font-size="10.00">network_butcher/Types</text>
<text text-anchor="middle" x="718.5" y="-610.5" font-family="Helvetica,sans-Serif" font-size="10.00">/parameters.h</text>
</a>
</g>
</g>
<!-- Node1&#45;&gt;Node31 -->
<g id="edge56" class="edge">
<title>Node1&#45;&gt;Node31</title>
<path fill="none" stroke="midnightblue" d="M645.68,-670.4C658.6,-661.37 675.56,-649.51 689.86,-639.52"/>
<polygon fill="midnightblue" stroke="midnightblue" points="692.17,-642.17 698.36,-633.58 688.16,-636.44 692.17,-642.17"/>
</g>
<!-- Node3 -->
<g id="node3" class="node">
<title>Node3</title>
<g id="a_node3"><a xlink:title=" ">
<polygon fill="white" stroke="#bfbfbf" points="379,-475 379,-494 444,-494 444,-475 379,-475"/>
<text text-anchor="middle" x="411.5" y="-482" font-family="Helvetica,sans-Serif" font-size="10.00">functional</text>
</a>
</g>
</g>
<!-- Node2&#45;&gt;Node3 -->
<g id="edge2" class="edge">
<title>Node2&#45;&gt;Node3</title>
<path fill="none" stroke="midnightblue" d="M473.36,-536.4C460.55,-525.86 443.07,-511.48 429.96,-500.69"/>
<polygon fill="midnightblue" stroke="midnightblue" points="432.01,-497.85 422.07,-494.19 427.57,-503.25 432.01,-497.85"/>
</g>
<!-- Node4 -->
<g id="node4" class="node">
<title>Node4</title>
<g id="a_node4"><a xlink:href="utilities_8h.html" target="_top" xlink:title=" ">
<polygon fill="white" stroke="black" points="348,-207 348,-226 495,-226 495,-207 348,-207"/>
<text text-anchor="middle" x="421.5" y="-214" font-family="Helvetica,sans-Serif" font-size="10.00">network_butcher/utilities.h</text>
</a>
</g>
</g>
<!-- Node2&#45;&gt;Node4 -->
<g id="edge3" class="edge">
<title>Node2&#45;&gt;Node4</title>
<path fill="none" stroke="midnightblue" d="M487.28,-536.33C482.1,-512.25 472.5,-461.75 472.5,-418.5 472.5,-418.5 472.5,-418.5 472.5,-349.5 472.5,-305.69 447.75,-258.86 432.74,-234.48"/>
<polygon fill="midnightblue" stroke="midnightblue" points="435.67,-232.58 427.35,-226.02 429.77,-236.33 435.67,-232.58"/>
</g>
<!-- Node22 -->
<g id="node22" class="node">
<title>Node22</title>
<g id="a_node22"><a xlink:href="wgraph_8h.html" target="_top" xlink:title=" ">
<polygon fill="white" stroke="black" points="501,-469.5 501,-499.5 644,-499.5 644,-469.5 501,-469.5"/>
<text text-anchor="start" x="509" y="-487.5" font-family="Helvetica,sans-Serif" font-size="10.00">network_butcher/Network</text>
<text text-anchor="middle" x="572.5" y="-476.5" font-family="Helvetica,sans-Serif" font-size="10.00">/wgraph.h</text>
</a>
</g>
</g>
<!-- Node2&#45;&gt;Node22 -->
<g id="edge29" class="edge">
<title>Node2&#45;&gt;Node22</title>
<path fill="none" stroke="midnightblue" d="M508.29,-536.4C519.58,-527.45 534.35,-515.74 546.89,-505.8"/>
<polygon fill="midnightblue" stroke="midnightblue" points="549.08,-508.53 554.74,-499.58 544.73,-503.05 549.08,-508.53"/>
</g>
<!-- Node5 -->
<g id="node5" class="node">
<title>Node5</title>
<g id="a_node5"><a xlink:title=" ">
<polygon fill="white" stroke="#bfbfbf" points="449.5,-140 449.5,-159 513.5,-159 513.5,-140 449.5,-140"/>
<text text-anchor="middle" x="481.5" y="-147" font-family="Helvetica,sans-Serif" font-size="10.00">algorithm</text>
</a>
</g>
</g>
<!-- Node4&#45;&gt;Node5 -->
<g id="edge4" class="edge">
<title>Node4&#45;&gt;Node5</title>
<path fill="none" stroke="midnightblue" d="M429.59,-206.73C439.04,-196.5 454.86,-179.36 466.55,-166.69"/>
<polygon fill="midnightblue" stroke="midnightblue" points="469.33,-168.85 473.54,-159.13 464.18,-164.1 469.33,-168.85"/>
</g>
<!-- Node6 -->
<g id="node6" class="node">
<title>Node6</title>
<g id="a_node6"><a xlink:title=" ">
<polygon fill="white" stroke="#bfbfbf" points="531.5,-140 531.5,-159 587.5,-159 587.5,-140 531.5,-140"/>
<text text-anchor="middle" x="559.5" y="-147" font-family="Helvetica,sans-Serif" font-size="10.00">numeric</text>
</a>
</g>
</g>
<!-- Node4&#45;&gt;Node6 -->
<g id="edge5" class="edge">
<title>Node4&#45;&gt;Node6</title>
<path fill="none" stroke="midnightblue" d="M439.83,-206.87C463.44,-195.75 504.69,-176.32 532.05,-163.43"/>
<polygon fill="midnightblue" stroke="midnightblue" points="533.54,-166.59 541.1,-159.17 530.56,-160.26 533.54,-166.59"/>
</g>
<!-- Node7 -->
<g id="node7" class="node">
<title>Node7</title>
<g id="a_node7"><a xlink:title=" ">
<polygon fill="white" stroke="#bfbfbf" points="325.5,-140 325.5,-159 393.5,-159 393.5,-140 325.5,-140"/>
<text text-anchor="middle" x="359.5" y="-147" font-family="Helvetica,sans-Serif" font-size="10.00">filesystem</text>
</a>
</g>
</g>
<!-- Node4&#45;&gt;Node7 -->
<g id="edge6" class="edge">
<title>Node4&#45;&gt;Node7</title>
<path fill="none" stroke="midnightblue" d="M413.14,-206.73C403.38,-196.5 387.03,-179.36 374.95,-166.69"/>
<polygon fill="midnightblue" stroke="midnightblue" points="377.16,-163.95 367.73,-159.13 372.1,-168.78 377.16,-163.95"/>
</g>
<!-- Node8 -->
<g id="node8" class="node">
<title>Node8</title>
<g id="a_node8"><a xlink:title=" ">
<polygon fill="white" stroke="#bfbfbf" points="0,-140 0,-159 55,-159 55,-140 0,-140"/>
<text text-anchor="middle" x="27.5" y="-147" font-family="Helvetica,sans-Serif" font-size="10.00">fstream</text>
</a>
</g>
</g>
<!-- Node4&#45;&gt;Node8 -->
<g id="edge7" class="edge">
<title>Node4&#45;&gt;Node8</title>
<path fill="none" stroke="midnightblue" d="M347.69,-210.11C274.8,-203.61 160.61,-190.26 64.5,-165 61.84,-164.3 59.11,-163.47 56.4,-162.56"/>
<polygon fill="midnightblue" stroke="midnightblue" points="57.4,-159.2 46.8,-159.04 54.99,-165.77 57.4,-159.2"/>
</g>
<!-- Node9 -->
<g id="node9" class="node">
<title>Node9</title>
<g id="a_node9"><a xlink:title=" ">
<polygon fill="white" stroke="#bfbfbf" points="73.5,-140 73.5,-159 123.5,-159 123.5,-140 73.5,-140"/>
<text text-anchor="middle" x="98.5" y="-147" font-family="Helvetica,sans-Serif" font-size="10.00">ranges</text>
</a>
</g>
</g>
<!-- Node4&#45;&gt;Node9 -->
<g id="edge8" class="edge">
<title>Node4&#45;&gt;Node9</title>
<path fill="none" stroke="midnightblue" d="M353.9,-206.97C295.87,-198.83 210.34,-184.84 137.5,-165 134.69,-164.23 131.8,-163.35 128.92,-162.4"/>
<polygon fill="midnightblue" stroke="midnightblue" points="129.92,-159.05 119.32,-159.03 127.6,-165.65 129.92,-159.05"/>
</g>
<!-- Node10 -->
<g id="node10" class="node">
<title>Node10</title>
<g id="a_node10"><a xlink:title=" ">
<polygon fill="white" stroke="#bfbfbf" points="86,-67.5 86,-97.5 211,-97.5 211,-67.5 86,-67.5"/>
<text text-anchor="start" x="94" y="-85.5" font-family="Helvetica,sans-Serif" font-size="10.00">network_butcher/onnx</text>
<text text-anchor="middle" x="148.5" y="-74.5" font-family="Helvetica,sans-Serif" font-size="10.00">_proto/onnx.pb.h</text>
</a>
</g>
</g>
<!-- Node4&#45;&gt;Node10 -->
<g id="edge9" class="edge">
<title>Node4&#45;&gt;Node10</title>
<path fill="none" stroke="midnightblue" d="M347.79,-209.22C283.19,-202.23 195.76,-188.67 170.5,-165 154.93,-150.41 149.95,-126.05 148.56,-107.76"/>
<polygon fill="midnightblue" stroke="midnightblue" points="152.04,-107.38 148.09,-97.55 145.05,-107.7 152.04,-107.38"/>
</g>
<!-- Node11 -->
<g id="node11" class="node">
<title>Node11</title>
<g id="a_node11"><a xlink:href="traits_8h.html" target="_top" xlink:title=" ">
<polygon fill="white" stroke="black" points="179.5,-134.5 179.5,-164.5 307.5,-164.5 307.5,-134.5 179.5,-134.5"/>
<text text-anchor="start" x="187.5" y="-152.5" font-family="Helvetica,sans-Serif" font-size="10.00">network_butcher/Traits</text>
<text text-anchor="middle" x="243.5" y="-141.5" font-family="Helvetica,sans-Serif" font-size="10.00">/traits.h</text>
</a>
</g>
</g>
<!-- Node4&#45;&gt;Node11 -->
<g id="edge10" class="edge">
<title>Node4&#45;&gt;Node11</title>
<path fill="none" stroke="midnightblue" d="M397.86,-206.87C370.81,-196.99 325.79,-180.55 291.33,-167.97"/>
<polygon fill="midnightblue" stroke="midnightblue" points="292.51,-164.67 281.92,-164.53 290.11,-171.25 292.51,-164.67"/>
</g>
<!-- Node16 -->
<g id="node16" class="node">
<title>Node16</title>
<g id="a_node16"><a xlink:href="type__info_8h.html" target="_top" xlink:title=" ">
<polygon fill="white" stroke="black" points="559,-67.5 559,-97.5 688,-97.5 688,-67.5 559,-67.5"/>
<text text-anchor="start" x="567" y="-85.5" font-family="Helvetica,sans-Serif" font-size="10.00">network_butcher/Types</text>
<text text-anchor="middle" x="623.5" y="-74.5" font-family="Helvetica,sans-Serif" font-size="10.00">/type_info.h</text>
</a>
</g>
</g>
<!-- Node4&#45;&gt;Node16 -->
<g id="edge28" class="edge">
<title>Node4&#45;&gt;Node16</title>
<path fill="none" stroke="midnightblue" d="M420.86,-206.8C420.14,-190.28 421.08,-154.22 440.5,-134 468.36,-105 511.24,-92.17 548.49,-86.69"/>
<polygon fill="midnightblue" stroke="midnightblue" points="549.37,-90.1 558.83,-85.33 548.46,-83.16 549.37,-90.1"/>
</g>
<!-- Node19 -->
<g id="node19" class="node">
<title>Node19</title>
<g id="a_node19"><a xlink:href="dense__tensor_8h.html" target="_top" xlink:title=" ">
<polygon fill="white" stroke="black" points="606,-134.5 606,-164.5 735,-164.5 735,-134.5 606,-134.5"/>
<text text-anchor="start" x="614" y="-152.5" font-family="Helvetica,sans-Serif" font-size="10.00">network_butcher/Types</text>
<text text-anchor="middle" x="670.5" y="-141.5" font-family="Helvetica,sans-Serif" font-size="10.00">/dense_tensor.h</text>
</a>
</g>
</g>
<!-- Node4&#45;&gt;Node19 -->
<g id="edge20" class="edge">
<title>Node4&#45;&gt;Node19</title>
<path fill="none" stroke="midnightblue" d="M449.81,-206.87C486.46,-196.74 551.31,-179.7 601.31,-167.01"/>
<polygon fill="midnightblue" stroke="midnightblue" points="602.26,-170.38 611.09,-164.53 600.54,-163.59 602.26,-170.38"/>
</g>
<!-- Node11&#45;&gt;Node10 -->
<g id="edge19" class="edge">
<title>Node11&#45;&gt;Node10</title>
<path fill="none" stroke="midnightblue" d="M222.89,-134.4C209.57,-125.28 192.04,-113.29 177.34,-103.24"/>
<polygon fill="midnightblue" stroke="midnightblue" points="179.3,-100.33 169.07,-97.58 175.35,-106.11 179.3,-100.33"/>
</g>
<!-- Node12 -->
<g id="node12" class="node">
<title>Node12</title>
<g id="a_node12"><a xlink:title=" ">
<polygon fill="white" stroke="#bfbfbf" points="229.5,-73 229.5,-92 261.5,-92 261.5,-73 229.5,-73"/>
<text text-anchor="middle" x="245.5" y="-80" font-family="Helvetica,sans-Serif" font-size="10.00">set</text>
</a>
</g>
</g>
<!-- Node11&#45;&gt;Node12 -->
<g id="edge11" class="edge">
<title>Node11&#45;&gt;Node12</title>
<path fill="none" stroke="midnightblue" d="M243.93,-134.4C244.22,-125.06 244.6,-112.71 244.91,-102.52"/>
<polygon fill="midnightblue" stroke="midnightblue" points="248.42,-102.3 245.23,-92.19 241.43,-102.08 248.42,-102.3"/>
</g>
<!-- Node13 -->
<g id="node13" class="node">
<title>Node13</title>
<g id="a_node13"><a xlink:title=" ">
<polygon fill="white" stroke="#bfbfbf" points="279.5,-73 279.5,-92 317.5,-92 317.5,-73 279.5,-73"/>
<text text-anchor="middle" x="298.5" y="-80" font-family="Helvetica,sans-Serif" font-size="10.00">map</text>
</a>
</g>
</g>
<!-- Node11&#45;&gt;Node13 -->
<g id="edge12" class="edge">
<title>Node11&#45;&gt;Node13</title>
<path fill="none" stroke="midnightblue" d="M255.43,-134.4C264.01,-124.26 275.6,-110.57 284.59,-99.94"/>
<polygon fill="midnightblue" stroke="midnightblue" points="287.36,-102.09 291.14,-92.19 282.01,-97.57 287.36,-102.09"/>
</g>
<!-- Node14 -->
<g id="node14" class="node">
<title>Node14</title>
<g id="a_node14"><a xlink:title=" ">
<polygon fill="white" stroke="#bfbfbf" points="744.5,-73 744.5,-92 802.5,-92 802.5,-73 744.5,-73"/>
<text text-anchor="middle" x="773.5" y="-80" font-family="Helvetica,sans-Serif" font-size="10.00">memory</text>
</a>
</g>
</g>
<!-- Node11&#45;&gt;Node14 -->
<g id="edge13" class="edge">
<title>Node11&#45;&gt;Node14</title>
<path fill="none" stroke="midnightblue" d="M307.53,-135.4C310.56,-134.9 313.56,-134.43 316.5,-134 484.8,-109.4 529.11,-121.96 697.5,-98 709.53,-96.29 722.56,-93.97 734.37,-91.7"/>
<polygon fill="midnightblue" stroke="midnightblue" points="735.24,-95.09 744.37,-89.72 733.89,-88.23 735.24,-95.09"/>
</g>
<!-- Node15 -->
<g id="node15" class="node">
<title>Node15</title>
<g id="a_node15"><a xlink:href="starting__traits_8h.html" target="_top" xlink:title=" ">
<polygon fill="white" stroke="black" points="437.5,-0.5 437.5,-30.5 565.5,-30.5 565.5,-0.5 437.5,-0.5"/>
<text text-anchor="start" x="445.5" y="-18.5" font-family="Helvetica,sans-Serif" font-size="10.00">network_butcher/Traits</text>
<text text-anchor="middle" x="501.5" y="-7.5" font-family="Helvetica,sans-Serif" font-size="10.00">/starting_traits.h</text>
</a>
</g>
</g>
<!-- Node11&#45;&gt;Node15 -->
<g id="edge14" class="edge">
<title>Node11&#45;&gt;Node15</title>
<path fill="none" stroke="midnightblue" d="M271.11,-134.37C317.96,-110.41 412.99,-61.78 465.17,-35.09"/>
<polygon fill="midnightblue" stroke="midnightblue" points="466.78,-38.2 474.09,-30.52 463.59,-31.96 466.78,-38.2"/>
</g>
<!-- Node11&#45;&gt;Node16 -->
<g id="edge15" class="edge">
<title>Node11&#45;&gt;Node16</title>
<path fill="none" stroke="midnightblue" d="M307.57,-135.65C310.59,-135.08 313.58,-134.53 316.5,-134 395.54,-119.65 486.35,-104.93 548.59,-95.11"/>
<polygon fill="midnightblue" stroke="midnightblue" points="549.38,-98.53 558.71,-93.52 548.29,-91.62 549.38,-98.53"/>
</g>
<!-- Node16&#45;&gt;Node15 -->
<g id="edge18" class="edge">
<title>Node16&#45;&gt;Node15</title>
<path fill="none" stroke="midnightblue" d="M597.03,-67.4C579.44,-58.03 556.15,-45.62 536.96,-35.39"/>
<polygon fill="midnightblue" stroke="midnightblue" points="538.39,-32.19 527.92,-30.58 535.1,-38.37 538.39,-32.19"/>
</g>
<!-- Node17 -->
<g id="node17" class="node">
<title>Node17</title>
<g id="a_node17"><a xlink:title=" ">
<polygon fill="white" stroke="#bfbfbf" points="615.5,-6 615.5,-25 659.5,-25 659.5,-6 615.5,-6"/>
<text text-anchor="middle" x="637.5" y="-13" font-family="Helvetica,sans-Serif" font-size="10.00">string</text>
</a>
</g>
</g>
<!-- Node16&#45;&gt;Node17 -->
<g id="edge16" class="edge">
<title>Node16&#45;&gt;Node17</title>
<path fill="none" stroke="midnightblue" d="M626.54,-67.4C628.57,-57.96 631.26,-45.45 633.47,-35.19"/>
<polygon fill="midnightblue" stroke="midnightblue" points="636.94,-35.71 635.63,-25.19 630.1,-34.23 636.94,-35.71"/>
</g>
<!-- Node18 -->
<g id="node18" class="node">
<title>Node18</title>
<g id="a_node18"><a xlink:title=" ">
<polygon fill="white" stroke="#bfbfbf" points="744,-6 744,-25 791,-25 791,-6 744,-6"/>
<text text-anchor="middle" x="767.5" y="-13" font-family="Helvetica,sans-Serif" font-size="10.00">vector</text>
</a>
</g>
</g>
<!-- Node16&#45;&gt;Node18 -->
<g id="edge17" class="edge">
<title>Node16&#45;&gt;Node18</title>
<path fill="none" stroke="midnightblue" d="M654.75,-67.4C679.9,-56.04 714.95,-40.22 739.27,-29.24"/>
<polygon fill="midnightblue" stroke="midnightblue" points="740.98,-32.31 748.65,-25.01 738.1,-25.93 740.98,-32.31"/>
</g>
<!-- Node19&#45;&gt;Node4 -->
<g id="edge26" class="edge">
<title>Node19&#45;&gt;Node4</title>
<path fill="none" stroke="midnightblue" d="M622.32,-164.56C578.05,-176.52 512.97,-193.47 468.94,-204.48"/>
<polygon fill="midnightblue" stroke="midnightblue" points="467.91,-201.13 459.05,-206.94 469.6,-207.92 467.91,-201.13"/>
</g>
<!-- Node19&#45;&gt;Node16 -->
<g id="edge21" class="edge">
<title>Node19&#45;&gt;Node16</title>
<path fill="none" stroke="midnightblue" d="M660.3,-134.4C654.27,-126.05 646.48,-115.29 639.63,-105.81"/>
<polygon fill="midnightblue" stroke="midnightblue" points="642.37,-103.63 633.68,-97.58 636.7,-107.73 642.37,-103.63"/>
</g>
<!-- Node19&#45;&gt;Node18 -->
<g id="edge27" class="edge">
<title>Node19&#45;&gt;Node18</title>
<path fill="none" stroke="midnightblue" d="M680.88,-134.37C698.89,-109.86 735.85,-59.56 755.15,-33.3"/>
<polygon fill="midnightblue" stroke="midnightblue" points="758.08,-35.23 761.18,-25.1 752.44,-31.08 758.08,-35.23"/>
</g>
<!-- Node20 -->
<g id="node20" class="node">
<title>Node20</title>
<g id="a_node20"><a xlink:href="variant__attribute_8h.html" target="_top" xlink:title=" ">
<polygon fill="white" stroke="black" points="821,-67.5 821,-97.5 950,-97.5 950,-67.5 821,-67.5"/>
<text text-anchor="start" x="829" y="-85.5" font-family="Helvetica,sans-Serif" font-size="10.00">network_butcher/Types</text>
<text text-anchor="middle" x="885.5" y="-74.5" font-family="Helvetica,sans-Serif" font-size="10.00">/variant_attribute.h</text>
</a>
</g>
</g>
<!-- Node19&#45;&gt;Node20 -->
<g id="edge22" class="edge">
<title>Node19&#45;&gt;Node20</title>
<path fill="none" stroke="midnightblue" d="M716.89,-134.48C749.84,-124.51 794.25,-111.09 829.23,-100.51"/>
<polygon fill="midnightblue" stroke="midnightblue" points="830.27,-103.86 838.83,-97.61 828.24,-97.15 830.27,-103.86"/>
</g>
<!-- Node20&#45;&gt;Node17 -->
<g id="edge23" class="edge">
<title>Node20&#45;&gt;Node17</title>
<path fill="none" stroke="midnightblue" d="M831.99,-67.48C782.5,-54.51 710.58,-35.66 669.49,-24.88"/>
<polygon fill="midnightblue" stroke="midnightblue" points="670.3,-21.48 659.74,-22.33 668.52,-28.25 670.3,-21.48"/>
</g>
<!-- Node20&#45;&gt;Node18 -->
<g id="edge25" class="edge">
<title>Node20&#45;&gt;Node18</title>
<path fill="none" stroke="midnightblue" d="M859.9,-67.4C839.65,-56.24 811.58,-40.78 791.71,-29.83"/>
<polygon fill="midnightblue" stroke="midnightblue" points="793.39,-26.77 782.94,-25.01 790.01,-32.9 793.39,-26.77"/>
</g>
<!-- Node21 -->
<g id="node21" class="node">
<title>Node21</title>
<g id="a_node21"><a xlink:title=" ">
<polygon fill="white" stroke="#bfbfbf" points="860,-6 860,-25 911,-25 911,-6 860,-6"/>
<text text-anchor="middle" x="885.5" y="-13" font-family="Helvetica,sans-Serif" font-size="10.00">variant</text>
</a>
</g>
</g>
<!-- Node20&#45;&gt;Node21 -->
<g id="edge24" class="edge">
<title>Node20&#45;&gt;Node21</title>
<path fill="none" stroke="midnightblue" d="M885.5,-67.4C885.5,-58.06 885.5,-45.71 885.5,-35.52"/>
<polygon fill="midnightblue" stroke="midnightblue" points="889,-35.19 885.5,-25.19 882,-35.19 889,-35.19"/>
</g>
<!-- Node23 -->
<g id="node23" class="node">
<title>Node23</title>
<g id="a_node23"><a xlink:href="weighted__graph_8h.html" target="_top" xlink:title=" ">
<polygon fill="white" stroke="black" points="246.5,-335.5 246.5,-365.5 396.5,-365.5 396.5,-335.5 246.5,-335.5"/>
<text text-anchor="start" x="254.5" y="-353.5" font-family="Helvetica,sans-Serif" font-size="10.00">network_butcher/K&#45;shortest</text>
<text text-anchor="middle" x="321.5" y="-342.5" font-family="Helvetica,sans-Serif" font-size="10.00">_path/weighted_graph.h</text>
</a>
</g>
</g>
<!-- Node22&#45;&gt;Node23 -->
<g id="edge30" class="edge">
<title>Node22&#45;&gt;Node23</title>
<path fill="none" stroke="midnightblue" d="M545.64,-469.37C500.16,-445.46 407.99,-396.99 357.16,-370.25"/>
<polygon fill="midnightblue" stroke="midnightblue" points="358.65,-367.08 348.17,-365.52 355.39,-373.28 358.65,-367.08"/>
</g>
<!-- Node24 -->
<g id="node24" class="node">
<title>Node24</title>
<g id="a_node24"><a xlink:href="mwgraph_8h.html" target="_top" xlink:title=" ">
<polygon fill="white" stroke="black" points="559,-402.5 559,-432.5 702,-432.5 702,-402.5 559,-402.5"/>
<text text-anchor="start" x="567" y="-420.5" font-family="Helvetica,sans-Serif" font-size="10.00">network_butcher/Network</text>
<text text-anchor="middle" x="630.5" y="-409.5" font-family="Helvetica,sans-Serif" font-size="10.00">/mwgraph.h</text>
</a>
</g>
</g>
<!-- Node22&#45;&gt;Node24 -->
<g id="edge32" class="edge">
<title>Node22&#45;&gt;Node24</title>
<path fill="none" stroke="midnightblue" d="M585.09,-469.4C592.69,-460.88 602.53,-449.85 611.11,-440.23"/>
<polygon fill="midnightblue" stroke="midnightblue" points="613.89,-442.37 617.94,-432.58 608.67,-437.71 613.89,-442.37"/>
</g>
<!-- Node23&#45;&gt;Node11 -->
<g id="edge31" class="edge">
<title>Node23&#45;&gt;Node11</title>
<path fill="none" stroke="midnightblue" d="M315.89,-335.19C302.6,-301.27 269.06,-215.72 252.73,-174.04"/>
<polygon fill="midnightblue" stroke="midnightblue" points="255.97,-172.72 249.06,-164.68 249.45,-175.27 255.97,-172.72"/>
</g>
<!-- Node25 -->
<g id="node25" class="node">
<title>Node25</title>
<g id="a_node25"><a xlink:href="graph_8h.html" target="_top" xlink:title=" ">
<polygon fill="white" stroke="black" points="659,-335.5 659,-365.5 802,-365.5 802,-335.5 659,-335.5"/>
<text text-anchor="start" x="667" y="-353.5" font-family="Helvetica,sans-Serif" font-size="10.00">network_butcher/Network</text>
<text text-anchor="middle" x="730.5" y="-342.5" font-family="Helvetica,sans-Serif" font-size="10.00">/graph.h</text>
</a>
</g>
</g>
<!-- Node24&#45;&gt;Node25 -->
<g id="edge33" class="edge">
<title>Node24&#45;&gt;Node25</title>
<path fill="none" stroke="midnightblue" d="M652.2,-402.4C666.22,-393.28 684.67,-381.29 700.14,-371.24"/>
<polygon fill="midnightblue" stroke="midnightblue" points="702.37,-373.96 708.84,-365.58 698.55,-368.09 702.37,-373.96"/>
</g>
<!-- Node25&#45;&gt;Node5 -->
<g id="edge34" class="edge">
<title>Node25&#45;&gt;Node5</title>
<path fill="none" stroke="midnightblue" d="M704.32,-335.48C687.32,-325.96 664.97,-312.66 646.5,-299 587.85,-255.6 525.71,-195.18 497.32,-166.65"/>
<polygon fill="midnightblue" stroke="midnightblue" points="499.45,-163.83 489.93,-159.18 494.47,-168.75 499.45,-163.83"/>
</g>
<!-- Node25&#45;&gt;Node6 -->
<g id="edge35" class="edge">
<title>Node25&#45;&gt;Node6</title>
<path fill="none" stroke="midnightblue" d="M714.64,-335.45C703.81,-325.61 689.33,-311.95 677.5,-299 636.18,-253.8 592.62,-195.9 571.88,-167.61"/>
<polygon fill="midnightblue" stroke="midnightblue" points="574.48,-165.23 565.76,-159.21 568.82,-169.35 574.48,-165.23"/>
</g>
<!-- Node25&#45;&gt;Node18 -->
<g id="edge37" class="edge">
<title>Node25&#45;&gt;Node18</title>
<path fill="none" stroke="midnightblue" d="M802.09,-338.05C906.56,-319.29 1088.5,-277.95 1088.5,-217.5 1088.5,-217.5 1088.5,-217.5 1088.5,-148.5 1088.5,-86.81 883.17,-39.37 800.95,-22.84"/>
<polygon fill="midnightblue" stroke="midnightblue" points="801.59,-19.4 791.1,-20.89 800.23,-26.26 801.59,-19.4"/>
</g>
<!-- Node26 -->
<g id="node26" class="node">
<title>Node26</title>
<g id="a_node26"><a xlink:title=" ">
<polygon fill="white" stroke="#bfbfbf" points="753,-140 753,-159 798,-159 798,-140 753,-140"/>
<text text-anchor="middle" x="775.5" y="-147" font-family="Helvetica,sans-Serif" font-size="10.00">utility</text>
</a>
</g>
</g>
<!-- Node25&#45;&gt;Node26 -->
<g id="edge36" class="edge">
<title>Node25&#45;&gt;Node26</title>
<path fill="none" stroke="midnightblue" d="M718.71,-335.1C697.64,-307.5 658.07,-245.89 684.5,-201 688.18,-194.75 723.01,-176.49 748.49,-163.73"/>
<polygon fill="midnightblue" stroke="midnightblue" points="750.32,-166.73 757.71,-159.15 747.2,-160.47 750.32,-166.73"/>
</g>
<!-- Node27 -->
<g id="node27" class="node">
<title>Node27</title>
<g id="a_node27"><a xlink:href="content_8h.html" target="_top" xlink:title=" ">
<polygon fill="white" stroke="black" points="931,-201.5 931,-231.5 1060,-231.5 1060,-201.5 931,-201.5"/>
<text text-anchor="start" x="939" y="-219.5" font-family="Helvetica,sans-Serif" font-size="10.00">network_butcher/Types</text>
<text text-anchor="middle" x="995.5" y="-208.5" font-family="Helvetica,sans-Serif" font-size="10.00">/content.h</text>
</a>
</g>
</g>
<!-- Node25&#45;&gt;Node27 -->
<g id="edge38" class="edge">
<title>Node25&#45;&gt;Node27</title>
<path fill="none" stroke="midnightblue" d="M802.09,-344.78C844.78,-339.04 898.3,-326.46 938.5,-299 959.75,-284.49 975.57,-259.25 985.09,-240.7"/>
<polygon fill="midnightblue" stroke="midnightblue" points="988.24,-242.22 989.49,-231.7 981.95,-239.14 988.24,-242.22"/>
</g>
<!-- Node28 -->
<g id="node28" class="node">
<title>Node28</title>
<g id="a_node28"><a xlink:href="node_8h.html" target="_top" xlink:title=" ">
<polygon fill="white" stroke="black" points="693,-201.5 693,-231.5 836,-231.5 836,-201.5 693,-201.5"/>
<text text-anchor="start" x="701" y="-219.5" font-family="Helvetica,sans-Serif" font-size="10.00">network_butcher/Network</text>
<text text-anchor="middle" x="764.5" y="-208.5" font-family="Helvetica,sans-Serif" font-size="10.00">/node.h</text>
</a>
</g>
</g>
<!-- Node25&#45;&gt;Node28 -->
<g id="edge41" class="edge">
<title>Node25&#45;&gt;Node28</title>
<path fill="none" stroke="midnightblue" d="M734.14,-335.37C739.92,-312.94 751.25,-268.92 758.32,-241.49"/>
<polygon fill="midnightblue" stroke="midnightblue" points="761.78,-242.08 760.89,-231.52 755,-240.34 761.78,-242.08"/>
</g>
<!-- Node29 -->
<g id="node29" class="node">
<title>Node29</title>
<g id="a_node29"><a xlink:href="node__traits_8h.html" target="_top" xlink:title=" ">
<polygon fill="white" stroke="black" points="786,-268.5 786,-298.5 929,-298.5 929,-268.5 786,-268.5"/>
<text text-anchor="start" x="794" y="-286.5" font-family="Helvetica,sans-Serif" font-size="10.00">network_butcher/Network</text>
<text text-anchor="middle" x="857.5" y="-275.5" font-family="Helvetica,sans-Serif" font-size="10.00">/node_traits.h</text>
</a>
</g>
</g>
<!-- Node25&#45;&gt;Node29 -->
<g id="edge46" class="edge">
<title>Node25&#45;&gt;Node29</title>
<path fill="none" stroke="midnightblue" d="M758.06,-335.4C776.45,-325.98 800.83,-313.5 820.85,-303.26"/>
<polygon fill="midnightblue" stroke="midnightblue" points="822.69,-306.25 830,-298.58 819.5,-300.02 822.69,-306.25"/>
</g>
<!-- Node27&#45;&gt;Node19 -->
<g id="edge39" class="edge">
<title>Node27&#45;&gt;Node19</title>
<path fill="none" stroke="midnightblue" d="M930.9,-202.58C877.38,-191.88 801.26,-176.65 745.14,-165.43"/>
<polygon fill="midnightblue" stroke="midnightblue" points="745.75,-161.98 735.25,-163.45 744.37,-168.84 745.75,-161.98"/>
</g>
<!-- Node27&#45;&gt;Node20 -->
<g id="edge40" class="edge">
<title>Node27&#45;&gt;Node20</title>
<path fill="none" stroke="midnightblue" d="M983.73,-201.37C964.54,-178.35 926.39,-132.57 903.7,-105.34"/>
<polygon fill="midnightblue" stroke="midnightblue" points="906.28,-102.97 897.19,-97.52 900.9,-107.45 906.28,-102.97"/>
</g>
<!-- Node28&#45;&gt;Node11 -->
<g id="edge43" class="edge">
<title>Node28&#45;&gt;Node11</title>
<path fill="none" stroke="midnightblue" d="M692.87,-209.29C606.29,-201.37 456.01,-186.28 317.49,-165.07"/>
<polygon fill="midnightblue" stroke="midnightblue" points="317.96,-161.6 307.54,-163.54 316.89,-168.52 317.96,-161.6"/>
</g>
<!-- Node28&#45;&gt;Node14 -->
<g id="edge44" class="edge">
<title>Node28&#45;&gt;Node14</title>
<path fill="none" stroke="midnightblue" d="M781.3,-201.47C790.98,-192.24 802.25,-179.26 807.5,-165 812.26,-152.07 811.52,-147.18 807.5,-134 803.71,-121.59 795.74,-109.47 788.46,-100.21"/>
<polygon fill="midnightblue" stroke="midnightblue" points="790.96,-97.74 781.86,-92.3 785.58,-102.22 790.96,-97.74"/>
</g>
<!-- Node28&#45;&gt;Node19 -->
<g id="edge42" class="edge">
<title>Node28&#45;&gt;Node19</title>
<path fill="none" stroke="midnightblue" d="M744.1,-201.4C731.05,-192.37 713.9,-180.51 699.45,-170.52"/>
<polygon fill="midnightblue" stroke="midnightblue" points="701.07,-167.39 690.86,-164.58 697.09,-173.14 701.07,-167.39"/>
</g>
<!-- Node28&#45;&gt;Node26 -->
<g id="edge45" class="edge">
<title>Node28&#45;&gt;Node26</title>
<path fill="none" stroke="midnightblue" d="M766.89,-201.4C768.48,-191.96 770.6,-179.45 772.34,-169.19"/>
<polygon fill="midnightblue" stroke="midnightblue" points="775.81,-169.64 774.03,-159.19 768.91,-168.47 775.81,-169.64"/>
</g>
<!-- Node29&#45;&gt;Node14 -->
<g id="edge47" class="edge">
<title>Node29&#45;&gt;Node14</title>
<path fill="none" stroke="midnightblue" d="M865.33,-268.11C879.46,-239.99 905.39,-176.76 878.5,-134 874.15,-127.08 833.39,-108.75 803.96,-96.19"/>
<polygon fill="midnightblue" stroke="midnightblue" points="805.06,-92.85 794.49,-92.17 802.33,-99.3 805.06,-92.85"/>
</g>
<!-- Node29&#45;&gt;Node16 -->
<g id="edge50" class="edge">
<title>Node29&#45;&gt;Node16</title>
<path fill="none" stroke="midnightblue" d="M857.51,-268.18C856.67,-237.82 850.01,-167.08 807.5,-134 776.32,-109.73 734.24,-97.11 698.2,-90.56"/>
<polygon fill="midnightblue" stroke="midnightblue" points="698.65,-87.09 688.21,-88.87 697.48,-93.99 698.65,-87.09"/>
</g>
<!-- Node29&#45;&gt;Node27 -->
<g id="edge48" class="edge">
<title>Node29&#45;&gt;Node27</title>
<path fill="none" stroke="midnightblue" d="M887.44,-268.4C907.7,-258.86 934.65,-246.16 956.56,-235.84"/>
<polygon fill="midnightblue" stroke="midnightblue" points="958.06,-239 965.61,-231.58 955.08,-232.67 958.06,-239"/>
</g>
<!-- Node29&#45;&gt;Node28 -->
<g id="edge49" class="edge">
<title>Node29&#45;&gt;Node28</title>
<path fill="none" stroke="midnightblue" d="M837.32,-268.4C824.4,-259.37 807.44,-247.51 793.14,-237.52"/>
<polygon fill="midnightblue" stroke="midnightblue" points="794.84,-234.44 784.64,-231.58 790.83,-240.17 794.84,-234.44"/>
</g>
<!-- Node30&#45;&gt;Node22 -->
<g id="edge54" class="edge">
<title>Node30&#45;&gt;Node22</title>
<path fill="none" stroke="midnightblue" d="M650.8,-536.4C636.78,-527.28 618.33,-515.29 602.86,-505.24"/>
<polygon fill="midnightblue" stroke="midnightblue" points="604.45,-502.09 594.16,-499.58 600.63,-507.96 604.45,-502.09"/>
</g>
<!-- Node30&#45;&gt;Node24 -->
<g id="edge53" class="edge">
<title>Node30&#45;&gt;Node24</title>
<path fill="none" stroke="midnightblue" d="M670.1,-536.42C667.09,-519.98 661.37,-492.11 653.5,-469 650.42,-459.95 646.27,-450.34 642.35,-441.95"/>
<polygon fill="midnightblue" stroke="midnightblue" points="645.42,-440.26 637.92,-432.78 639.12,-443.3 645.42,-440.26"/>
</g>
<!-- Node30&#45;&gt;Node25 -->
<g id="edge52" class="edge">
<title>Node30&#45;&gt;Node25</title>
<path fill="none" stroke="midnightblue" d="M677.73,-536.16C685.65,-514.16 700.89,-470.65 711.5,-433 716.9,-413.84 721.96,-391.85 725.5,-375.54"/>
<polygon fill="midnightblue" stroke="midnightblue" points="728.93,-376.25 727.59,-365.73 722.08,-374.78 728.93,-376.25"/>
</g>
<!-- Node30&#45;&gt;Node27 -->
<g id="edge55" class="edge">
<title>Node30&#45;&gt;Node27</title>
<path fill="none" stroke="midnightblue" d="M742.98,-536.49C838.02,-515.53 995.5,-472.64 995.5,-418.5 995.5,-418.5 995.5,-418.5 995.5,-349.5 995.5,-312 995.5,-268.51 995.5,-242.01"/>
<polygon fill="midnightblue" stroke="midnightblue" points="999,-241.76 995.5,-231.76 992,-241.76 999,-241.76"/>
</g>
<!-- Node31&#45;&gt;Node30 -->
<g id="edge57" class="edge">
<title>Node31&#45;&gt;Node30</title>
<path fill="none" stroke="midnightblue" d="M708.52,-603.4C702.61,-595.05 695,-584.29 688.29,-574.81"/>
<polygon fill="midnightblue" stroke="midnightblue" points="691.1,-572.72 682.46,-566.58 685.38,-576.76 691.1,-572.72"/>
</g>
<!-- Node32 -->
<g id="node32" class="node">
<title>Node32</title>
<g id="a_node32"><a xlink:href="ksp__method_8h.html" target="_top" xlink:title=" ">
<polygon fill="white" stroke="black" points="762.5,-536.5 762.5,-566.5 912.5,-566.5 912.5,-536.5 762.5,-536.5"/>
<text text-anchor="start" x="770.5" y="-554.5" font-family="Helvetica,sans-Serif" font-size="10.00">network_butcher/K&#45;shortest</text>
<text text-anchor="middle" x="837.5" y="-543.5" font-family="Helvetica,sans-Serif" font-size="10.00">_path/ksp_method.h</text>
</a>
</g>
</g>
<!-- Node31&#45;&gt;Node32 -->
<g id="edge58" class="edge">
<title>Node31&#45;&gt;Node32</title>
<path fill="none" stroke="midnightblue" d="M744.32,-603.4C761.47,-594.03 784.2,-581.62 802.91,-571.39"/>
<polygon fill="midnightblue" stroke="midnightblue" points="804.63,-574.44 811.73,-566.58 801.28,-568.3 804.63,-574.44"/>
</g>
</g>
</svg>
        <g id="navigator" transform="translate(0 0)" fill="#404254">
                <rect fill="#f2f5e9" fill-opacity="0.5" stroke="#606060" stroke-width=".5" x="0" y="0" width="60" height="60"/>
                <use id="zoomplus" xlink:href="#zoomPlus" x="17" y="9" onmousedown="handleZoom(evt,'in')"/>
                <use id="zoomminus" xlink:href="#zoomMin" x="42" y="9" onmousedown="handleZoom(evt,'out')"/>
                <use id="reset" xlink:href="#resetDef" x="30" y="36" onmousedown="handleReset()"/>
                <g id="arrowUp" xlink:href="#dirArrow" transform="translate(30 24)" onmousedown="handlePan(0,-1)">
                  <use xlink:href="#rim" fill="#404040">
                        <set attributeName="fill" to="#808080" begin="arrowUp.mouseover" end="arrowUp.mouseout"/>
                  </use>
                  <path fill="none" stroke="white" stroke-width="1.5" d="M0,-3.0v7 M-2.5,-0.5L0,-3.0L2.5,-0.5"/>
                </g>
                <g id="arrowRight" xlink:href="#dirArrow" transform="rotate(90) translate(36 -43)" onmousedown="handlePan(1,0)">
                  <use xlink:href="#rim" fill="#404040">
                        <set attributeName="fill" to="#808080" begin="arrowRight.mouseover" end="arrowRight.mouseout"/>
                  </use>
                  <path fill="none" stroke="white" stroke-width="1.5" d="M0,-3.0v7 M-2.5,-0.5L0,-3.0L2.5,-0.5"/>
                </g>
                <g id="arrowDown" xlink:href="#dirArrow" transform="rotate(180) translate(-30 -48)" onmousedown="handlePan(0,1)">
                  <use xlink:href="#rim" fill="#404040">
                        <set attributeName="fill" to="#808080" begin="arrowDown.mouseover" end="arrowDown.mouseout"/>
                  </use>
                  <path fill="none" stroke="white" stroke-width="1.5" d="M0,-3.0v7 M-2.5,-0.5L0,-3.0L2.5,-0.5"/>
                </g>
                <g id="arrowLeft" xlink:href="#dirArrow" transform="rotate(270) translate(-36 17)" onmousedown="handlePan(-1,0)">
                  <use xlink:href="#rim" fill="#404040">
                        <set attributeName="fill" to="#808080" begin="arrowLeft.mouseover" end="arrowLeft.mouseout"/>
                  </use>
                  <path fill="none" stroke="white" stroke-width="1.5" d="M0,-3.0v7 M-2.5,-0.5L0,-3.0L2.5,-0.5"/>
                </g>
        </g>
        <svg viewBox="0 0 15 15" width="100%" height="30px" preserveAspectRatio="xMaxYMin meet">
         <g id="arrow_out" transform="scale(0.3 0.3)">
          <a xlink:href="graph__constraint_8h__incl_org.svg" target="_base">
           <rect id="button" ry="5" rx="5" y="6" x="6" height="38" width="38"
                fill="#f2f5e9" fill-opacity="0.5" stroke="#606060" stroke-width="1.0"/>
           <path id="arrow"
             d="M 11.500037,31.436501 C 11.940474,20.09759 22.043105,11.32322 32.158766,21.979434 L 37.068811,17.246167 C 37.068811,17.246167 37.088388,32 37.088388,32 L 22.160133,31.978069 C 22.160133,31.978069 26.997745,27.140456 26.997745,27.140456 C 18.528582,18.264221 13.291696,25.230495 11.500037,31.436501 z"
             style="fill:#404040;"/>
          </a>
         </g>
        </svg>
</svg>
