<?xml version="1.0" encoding="UTF-8" standalone="no"?>
<!DOCTYPE svg PUBLIC "-//W3C//DTD SVG 1.1//EN"
 "http://www.w3.org/Graphics/SVG/1.1/DTD/svg11.dtd">
<!-- Generated by graphviz version 2.43.0 (0)
 -->
<!-- Title: include/network_butcher/Network/graph.h Pages: 1 -->
<!--zoomable 1098 -->
<svg id="main" version="1.1" xmlns="http://www.w3.org/2000/svg" xmlns:xlink="http://www.w3.org/1999/xlink" xml:space="preserve" onload="init(evt)">
<style type="text/css"><![CDATA[
.edge:hover path { stroke: red; }
.edge:hover polygon { stroke: red; fill: red; }
]]></style>
<script type="text/javascript"><![CDATA[
var edges = document.getElementsByTagName('g');
if (edges && edges.length) {
  for (var i=0;i<edges.length;i++) {
    if (edges[i].id.substr(0,4)=='edge') {
      edges[i].setAttribute('class','edge');
    }
  }
}
]]></script>
        <defs>
                <circle id="rim" cx="0" cy="0" r="7"/>
                <circle id="rim2" cx="0" cy="0" r="3.5"/>
                <g id="zoomPlus">
                        <use xlink:href="#rim" fill="#404040">
                                <set attributeName="fill" to="#808080" begin="zoomplus.mouseover" end="zoomplus.mouseout"/>
                        </use>
                        <path d="M-4,0h8M0,-4v8" fill="none" stroke="white" stroke-width="1.5" pointer-events="none"/>
                </g>
                <g id="zoomMin">
                        <use xlink:href="#rim" fill="#404040">
                                <set attributeName="fill" to="#808080" begin="zoomminus.mouseover" end="zoomminus.mouseout"/>
                        </use>
                        <path d="M-4,0h8" fill="none" stroke="white" stroke-width="1.5" pointer-events="none"/>
                </g>
                <g id="dirArrow">
                        <path fill="none" stroke="white" stroke-width="1.5" d="M0,-3.0v7 M-2.5,-0.5L0,-3.0L2.5,-0.5"/>
                </g>
               <g id="resetDef">
                       <use xlink:href="#rim2" fill="#404040">
                               <set attributeName="fill" to="#808080" begin="reset.mouseover" end="reset.mouseout"/>
                       </use>
               </g>
        </defs>

<script type="text/javascript">
var viewWidth = 961;
var viewHeight = 1098;
var sectionId = 'dynsection-1';
</script>
<script xlink:href="svgpan.js"/>
<svg id="graph" class="graph">
<g id="viewport">
<title>include/network_butcher/Network/graph.h</title>
<polygon fill="white" stroke="transparent" points="-4,4 -4,-1094 957,-1094 957,4 -4,4"/>
<!-- Node1 -->
<g id="node1" class="node">
<title>Node1</title>
<g id="a_node1"><a xlink:title=" ">
<polygon fill="#bfbfbf" stroke="black" points="532.5,-1059.5 532.5,-1089.5 669.5,-1089.5 669.5,-1059.5 532.5,-1059.5"/>
<text text-anchor="start" x="540.5" y="-1077.5" font-family="Helvetica,sans-Serif" font-size="10.00">include/network_butcher</text>
<text text-anchor="middle" x="601" y="-1066.5" font-family="Helvetica,sans-Serif" font-size="10.00">/Network/graph.h</text>
</a>
</g>
</g>
<!-- Node2 -->
<g id="node2" class="node">
<title>Node2</title>
<g id="a_node2"><a xlink:href="graph__traits_8h.html" target="_top" xlink:title=" ">
<polygon fill="white" stroke="black" points="503.5,-858.5 503.5,-888.5 640.5,-888.5 640.5,-858.5 503.5,-858.5"/>
<text text-anchor="start" x="511.5" y="-876.5" font-family="Helvetica,sans-Serif" font-size="10.00">include/network_butcher</text>
<text text-anchor="middle" x="572" y="-865.5" font-family="Helvetica,sans-Serif" font-size="10.00">/Network/graph_traits.h</text>
</a>
</g>
</g>
<!-- Node1&#45;&gt;Node2 -->
<g id="edge1" class="edge">
<title>Node1&#45;&gt;Node2</title>
<path fill="none" stroke="midnightblue" d="M584.7,-1050.95C579.59,-1042.59 574.6,-1032.76 572,-1023 559.24,-975.17 565.62,-915.55 569.61,-888.74"/>
<polygon fill="midnightblue" stroke="midnightblue" points="581.8,-1052.91 590.19,-1059.37 587.66,-1049.08 581.8,-1052.91"/>
</g>
<!-- Node23 -->
<g id="node23" class="node">
<title>Node23</title>
<g id="a_node23"><a xlink:href="mwgraph_8h.html" target="_top" xlink:title=" ">
<polygon fill="white" stroke="black" points="581.5,-992.5 581.5,-1022.5 718.5,-1022.5 718.5,-992.5 581.5,-992.5"/>
<text text-anchor="start" x="589.5" y="-1010.5" font-family="Helvetica,sans-Serif" font-size="10.00">include/network_butcher</text>
<text text-anchor="middle" x="650" y="-999.5" font-family="Helvetica,sans-Serif" font-size="10.00">/Network/mwgraph.h</text>
</a>
</g>
</g>
<!-- Node1&#45;&gt;Node23 -->
<g id="edge40" class="edge">
<title>Node1&#45;&gt;Node23</title>
<path fill="none" stroke="midnightblue" d="M617.84,-1051.16C624.99,-1041.68 633.1,-1030.92 639.39,-1022.58"/>
<polygon fill="midnightblue" stroke="midnightblue" points="614.86,-1049.3 611.63,-1059.4 620.45,-1053.52 614.86,-1049.3"/>
</g>
<!-- Node3 -->
<g id="node3" class="node">
<title>Node3</title>
<g id="a_node3"><a xlink:href="butcher_8h.html" target="_top" xlink:title=" ">
<polygon fill="white" stroke="black" points="338.5,-290.5 338.5,-320.5 475.5,-320.5 475.5,-290.5 338.5,-290.5"/>
<text text-anchor="start" x="346.5" y="-308.5" font-family="Helvetica,sans-Serif" font-size="10.00">include/network_butcher</text>
<text text-anchor="middle" x="407" y="-297.5" font-family="Helvetica,sans-Serif" font-size="10.00">/Butcher/butcher.h</text>
</a>
</g>
</g>
<!-- Node2&#45;&gt;Node3 -->
<g id="edge2" class="edge">
<title>Node2&#45;&gt;Node3</title>
<path fill="none" stroke="midnightblue" d="M493.29,-865.56C356.41,-851.3 89,-812.79 89,-729.5 89,-729.5 89,-729.5 89,-549.5 89,-453.5 111.32,-416.07 187,-357 230.02,-323.42 291.33,-311.43 338.3,-307.48"/>
<polygon fill="midnightblue" stroke="midnightblue" points="493.01,-869.05 503.31,-866.59 493.72,-862.09 493.01,-869.05"/>
</g>
<!-- Node4 -->
<g id="node4" class="node">
<title>Node4</title>
<g id="a_node4"><a xlink:href="onnx__model__reconstructor__helpers_8h.html" target="_top" xlink:title=" ">
<polygon fill="white" stroke="black" points="331.5,-212.5 331.5,-253.5 482.5,-253.5 482.5,-212.5 331.5,-212.5"/>
<text text-anchor="start" x="339.5" y="-241.5" font-family="Helvetica,sans-Serif" font-size="10.00">include/network_butcher</text>
<text text-anchor="start" x="339.5" y="-230.5" font-family="Helvetica,sans-Serif" font-size="10.00">/IO_Interaction/onnx_model</text>
<text text-anchor="middle" x="407" y="-219.5" font-family="Helvetica,sans-Serif" font-size="10.00">_reconstructor_helpers.h</text>
</a>
</g>
</g>
<!-- Node2&#45;&gt;Node4 -->
<g id="edge21" class="edge">
<title>Node2&#45;&gt;Node4</title>
<path fill="none" stroke="midnightblue" d="M493.06,-869.26C386.96,-863.86 204.73,-850.67 145,-822 92.16,-796.64 51,-788.11 51,-729.5 51,-729.5 51,-729.5 51,-549.5 51,-455.79 67.05,-419.35 137,-357 194.49,-305.76 276.91,-272.42 335.54,-253.55"/>
<polygon fill="midnightblue" stroke="midnightblue" points="492.93,-872.75 503.09,-869.75 493.27,-865.76 492.93,-872.75"/>
</g>
<!-- Node7 -->
<g id="node7" class="node">
<title>Node7</title>
<g id="a_node7"><a xlink:href="network__butcher_8h.html" target="_top" xlink:title=" ">
<polygon fill="white" stroke="black" points="497.5,-0.5 497.5,-30.5 634.5,-30.5 634.5,-0.5 497.5,-0.5"/>
<text text-anchor="start" x="505.5" y="-18.5" font-family="Helvetica,sans-Serif" font-size="10.00">include/network_butcher</text>
<text text-anchor="middle" x="566" y="-7.5" font-family="Helvetica,sans-Serif" font-size="10.00">/network_butcher.h</text>
</a>
</g>
</g>
<!-- Node2&#45;&gt;Node7 -->
<g id="edge34" class="edge">
<title>Node2&#45;&gt;Node7</title>
<path fill="none" stroke="midnightblue" d="M650.43,-859.43C761.95,-838.59 953,-793.54 953,-729.5 953,-729.5 953,-729.5 953,-154 953,-95.76 907.46,-92.31 855,-67 784.81,-33.14 695.29,-21.71 634.62,-18"/>
<polygon fill="midnightblue" stroke="midnightblue" points="649.75,-856 640.56,-861.25 651.02,-862.88 649.75,-856"/>
</g>
<!-- Node11 -->
<g id="node11" class="node">
<title>Node11</title>
<g id="a_node11"><a xlink:href="onnx__importer__helpers_8h.html" target="_top" xlink:title=" ">
<polygon fill="white" stroke="black" points="0,-212.5 0,-253.5 162,-253.5 162,-212.5 0,-212.5"/>
<text text-anchor="start" x="8" y="-241.5" font-family="Helvetica,sans-Serif" font-size="10.00">include/network_butcher</text>
<text text-anchor="start" x="8" y="-230.5" font-family="Helvetica,sans-Serif" font-size="10.00">/IO_Interaction/onnx_importer</text>
<text text-anchor="middle" x="81" y="-219.5" font-family="Helvetica,sans-Serif" font-size="10.00">_helpers.h</text>
</a>
</g>
</g>
<!-- Node2&#45;&gt;Node11 -->
<g id="edge22" class="edge">
<title>Node2&#45;&gt;Node11</title>
<path fill="none" stroke="midnightblue" d="M492.97,-872.2C371.91,-870.45 147.39,-861.76 79,-822 35.34,-796.62 13,-780 13,-729.5 13,-729.5 13,-729.5 13,-377 13,-329.17 44.41,-280.29 64.54,-253.89"/>
<polygon fill="midnightblue" stroke="midnightblue" points="493.24,-875.7 503.28,-872.34 493.33,-868.7 493.24,-875.7"/>
</g>
<!-- Node13 -->
<g id="node13" class="node">
<title>Node13</title>
<g id="a_node13"><a xlink:href="graph__constraint_8h.html" target="_top" xlink:title=" ">
<polygon fill="white" stroke="black" points="619.5,-535.5 619.5,-565.5 770.5,-565.5 770.5,-535.5 619.5,-535.5"/>
<text text-anchor="start" x="627.5" y="-553.5" font-family="Helvetica,sans-Serif" font-size="10.00">include/network_butcher</text>
<text text-anchor="middle" x="695" y="-542.5" font-family="Helvetica,sans-Serif" font-size="10.00">/Butcher/graph_constraint.h</text>
</a>
</g>
</g>
<!-- Node2&#45;&gt;Node13 -->
<g id="edge15" class="edge">
<title>Node2&#45;&gt;Node13</title>
<path fill="none" stroke="midnightblue" d="M588.34,-850.21C594.12,-841.67 600.33,-831.66 605,-822 616.76,-797.66 674.01,-617.81 690.53,-565.65"/>
<polygon fill="midnightblue" stroke="midnightblue" points="585.41,-848.29 582.56,-858.5 591.15,-852.3 585.41,-848.29"/>
</g>
<!-- Node14 -->
<g id="node14" class="node">
<title>Node14</title>
<g id="a_node14"><a xlink:href="constrained__block__graph__builder_8h.html" target="_top" xlink:title=" ">
<polygon fill="white" stroke="black" points="475.5,-357.5 475.5,-398.5 624.5,-398.5 624.5,-357.5 475.5,-357.5"/>
<text text-anchor="start" x="483.5" y="-386.5" font-family="Helvetica,sans-Serif" font-size="10.00">include/network_butcher</text>
<text text-anchor="start" x="483.5" y="-375.5" font-family="Helvetica,sans-Serif" font-size="10.00">/Butcher/constrained_block</text>
<text text-anchor="middle" x="550" y="-364.5" font-family="Helvetica,sans-Serif" font-size="10.00">_graph_builder.h</text>
</a>
</g>
</g>
<!-- Node2&#45;&gt;Node14 -->
<g id="edge18" class="edge">
<title>Node2&#45;&gt;Node14</title>
<path fill="none" stroke="midnightblue" d="M577.22,-848.21C582.84,-819.86 591,-771.51 591,-729.5 591,-729.5 591,-729.5 591,-549.5 591,-497.84 584.57,-484.84 571,-435 567.64,-422.68 562.67,-409.27 558.4,-398.66"/>
<polygon fill="midnightblue" stroke="midnightblue" points="573.71,-847.88 575.14,-858.37 580.57,-849.28 573.71,-847.88"/>
</g>
<!-- Node15 -->
<g id="node15" class="node">
<title>Node15</title>
<g id="a_node15"><a xlink:href="path__converter_8h.html" target="_top" xlink:title=" ">
<polygon fill="white" stroke="black" points="657,-713.5 657,-743.5 799,-743.5 799,-713.5 657,-713.5"/>
<text text-anchor="start" x="665" y="-731.5" font-family="Helvetica,sans-Serif" font-size="10.00">include/network_butcher</text>
<text text-anchor="middle" x="728" y="-720.5" font-family="Helvetica,sans-Serif" font-size="10.00">/Butcher/path_converter.h</text>
</a>
</g>
</g>
<!-- Node2&#45;&gt;Node15 -->
<g id="edge19" class="edge">
<title>Node2&#45;&gt;Node15</title>
<path fill="none" stroke="midnightblue" d="M602.87,-852.63C615.74,-843.82 630.56,-832.98 643,-822 671.78,-796.6 701.17,-762.41 716.72,-743.51"/>
<polygon fill="midnightblue" stroke="midnightblue" points="600.67,-849.89 594.33,-858.37 604.58,-855.7 600.67,-849.89"/>
</g>
<!-- Node16 -->
<g id="node16" class="node">
<title>Node16</title>
<g id="a_node16"><a xlink:href="weight__importer_8h.html" target="_top" xlink:title=" ">
<polygon fill="white" stroke="black" points="381.5,-702.5 381.5,-754.5 524.5,-754.5 524.5,-702.5 381.5,-702.5"/>
<text text-anchor="start" x="389.5" y="-742.5" font-family="Helvetica,sans-Serif" font-size="10.00">include/network_butcher</text>
<text text-anchor="start" x="389.5" y="-731.5" font-family="Helvetica,sans-Serif" font-size="10.00">/IO_Interaction/Weight</text>
<text text-anchor="start" x="389.5" y="-720.5" font-family="Helvetica,sans-Serif" font-size="10.00">_Importer_Helpers/weight</text>
<text text-anchor="middle" x="453" y="-709.5" font-family="Helvetica,sans-Serif" font-size="10.00">_importer.h</text>
</a>
</g>
</g>
<!-- Node2&#45;&gt;Node16 -->
<g id="edge23" class="edge">
<title>Node2&#45;&gt;Node16</title>
<path fill="none" stroke="midnightblue" d="M563.1,-849.15C555.83,-831.96 544.42,-808.6 530,-791 518.83,-777.37 504.19,-764.75 490.67,-754.54"/>
<polygon fill="midnightblue" stroke="midnightblue" points="559.88,-850.53 566.89,-858.48 566.36,-847.89 559.88,-850.53"/>
</g>
<!-- Node22 -->
<g id="node22" class="node">
<title>Node22</title>
<g id="a_node22"><a xlink:href="parameters_8h.html" target="_top" xlink:title=" ">
<polygon fill="white" stroke="black" points="384.5,-791.5 384.5,-821.5 521.5,-821.5 521.5,-791.5 384.5,-791.5"/>
<text text-anchor="start" x="392.5" y="-809.5" font-family="Helvetica,sans-Serif" font-size="10.00">include/network_butcher</text>
<text text-anchor="middle" x="453" y="-798.5" font-family="Helvetica,sans-Serif" font-size="10.00">/Types/parameters.h</text>
</a>
</g>
</g>
<!-- Node2&#45;&gt;Node22 -->
<g id="edge35" class="edge">
<title>Node2&#45;&gt;Node22</title>
<path fill="none" stroke="midnightblue" d="M537.35,-853.57C518.63,-843.35 495.91,-830.94 478.77,-821.58"/>
<polygon fill="midnightblue" stroke="midnightblue" points="535.72,-856.67 546.18,-858.4 539.08,-850.53 535.72,-856.67"/>
</g>
<!-- Node3&#45;&gt;Node4 -->
<g id="edge3" class="edge">
<title>Node3&#45;&gt;Node4</title>
<path fill="none" stroke="midnightblue" d="M407,-279.98C407,-271.35 407,-261.76 407,-253.59"/>
<polygon fill="midnightblue" stroke="midnightblue" points="403.5,-280.23 407,-290.23 410.5,-280.23 403.5,-280.23"/>
</g>
<!-- Node3&#45;&gt;Node7 -->
<g id="edge14" class="edge">
<title>Node3&#45;&gt;Node7</title>
<path fill="none" stroke="midnightblue" d="M446.06,-285.4C461.06,-276.98 477.74,-266.22 491,-254 522.38,-225.08 531.54,-215.78 547,-176 566.7,-125.31 567.41,-59.3 566.63,-30.72"/>
<polygon fill="midnightblue" stroke="midnightblue" points="444.11,-282.47 436.99,-290.32 447.45,-288.63 444.11,-282.47"/>
</g>
<!-- Node3&#45;&gt;Node11 -->
<g id="edge11" class="edge">
<title>Node3&#45;&gt;Node11</title>
<path fill="none" stroke="midnightblue" d="M332.27,-288.34C281.46,-277.35 214.28,-262.82 162.16,-251.55"/>
<polygon fill="midnightblue" stroke="midnightblue" points="331.69,-291.79 342.2,-290.49 333.17,-284.95 331.69,-291.79"/>
</g>
<!-- Node5 -->
<g id="node5" class="node">
<title>Node5</title>
<g id="a_node5"><a xlink:href="io__manager_8h.html" target="_top" xlink:title=" ">
<polygon fill="white" stroke="black" points="234.5,-140 234.5,-170 371.5,-170 371.5,-140 234.5,-140"/>
<text text-anchor="start" x="242.5" y="-158" font-family="Helvetica,sans-Serif" font-size="10.00">include/network_butcher</text>
<text text-anchor="middle" x="303" y="-147" font-family="Helvetica,sans-Serif" font-size="10.00">/io_manager.h</text>
</a>
</g>
</g>
<!-- Node4&#45;&gt;Node5 -->
<g id="edge4" class="edge">
<title>Node4&#45;&gt;Node5</title>
<path fill="none" stroke="midnightblue" d="M371.86,-206.32C355.37,-194.27 336.34,-180.36 322.47,-170.23"/>
<polygon fill="midnightblue" stroke="midnightblue" points="370.08,-209.35 380.22,-212.43 374.21,-203.7 370.08,-209.35"/>
</g>
<!-- Node10 -->
<g id="node10" class="node">
<title>Node10</title>
<g id="a_node10"><a xlink:href="onnx__model__reconstructor__helpers_8cpp.html" target="_top" xlink:title=" ">
<polygon fill="white" stroke="black" points="389.5,-134.5 389.5,-175.5 538.5,-175.5 538.5,-134.5 389.5,-134.5"/>
<text text-anchor="start" x="397.5" y="-163.5" font-family="Helvetica,sans-Serif" font-size="10.00">src/IO_Interaction</text>
<text text-anchor="start" x="397.5" y="-152.5" font-family="Helvetica,sans-Serif" font-size="10.00">/onnx_model_reconstructor</text>
<text text-anchor="middle" x="464" y="-141.5" font-family="Helvetica,sans-Serif" font-size="10.00">_helpers.cpp</text>
</a>
</g>
</g>
<!-- Node4&#45;&gt;Node10 -->
<g id="edge10" class="edge">
<title>Node4&#45;&gt;Node10</title>
<path fill="none" stroke="midnightblue" d="M427.75,-204.34C434.92,-194.78 442.8,-184.27 449.37,-175.51"/>
<polygon fill="midnightblue" stroke="midnightblue" points="424.88,-202.33 421.68,-212.43 430.48,-206.53 424.88,-202.33"/>
</g>
<!-- Node6 -->
<g id="node6" class="node">
<title>Node6</title>
<g id="a_node6"><a xlink:href="general__manager_8h.html" target="_top" xlink:title=" ">
<polygon fill="white" stroke="black" points="233.5,-67.5 233.5,-97.5 370.5,-97.5 370.5,-67.5 233.5,-67.5"/>
<text text-anchor="start" x="241.5" y="-85.5" font-family="Helvetica,sans-Serif" font-size="10.00">include/network_butcher</text>
<text text-anchor="middle" x="302" y="-74.5" font-family="Helvetica,sans-Serif" font-size="10.00">/general_manager.h</text>
</a>
</g>
</g>
<!-- Node5&#45;&gt;Node6 -->
<g id="edge5" class="edge">
<title>Node5&#45;&gt;Node6</title>
<path fill="none" stroke="midnightblue" d="M302.66,-129.73C302.5,-119.07 302.33,-106.91 302.2,-97.75"/>
<polygon fill="midnightblue" stroke="midnightblue" points="299.16,-129.78 302.8,-139.73 306.16,-129.68 299.16,-129.78"/>
</g>
<!-- Node5&#45;&gt;Node7 -->
<g id="edge8" class="edge">
<title>Node5&#45;&gt;Node7</title>
<path fill="none" stroke="midnightblue" d="M365.7,-137.41C424.86,-121.67 504.96,-100.12 508,-98 532.92,-80.6 550.87,-48.91 559.74,-30.59"/>
<polygon fill="midnightblue" stroke="midnightblue" points="364.8,-134.03 356.04,-139.98 366.6,-140.79 364.8,-134.03"/>
</g>
<!-- Node9 -->
<g id="node9" class="node">
<title>Node9</title>
<g id="a_node9"><a xlink:href="io__manager_8cpp.html" target="_top" xlink:title=" ">
<polygon fill="white" stroke="black" points="388.5,-73 388.5,-92 499.5,-92 499.5,-73 388.5,-73"/>
<text text-anchor="middle" x="444" y="-80" font-family="Helvetica,sans-Serif" font-size="10.00">src/io_manager.cpp</text>
</a>
</g>
</g>
<!-- Node5&#45;&gt;Node9 -->
<g id="edge9" class="edge">
<title>Node5&#45;&gt;Node9</title>
<path fill="none" stroke="midnightblue" d="M340.33,-135.33C368.41,-121.29 405.58,-102.71 426.93,-92.03"/>
<polygon fill="midnightblue" stroke="midnightblue" points="338.57,-132.3 331.19,-139.9 341.7,-138.56 338.57,-132.3"/>
</g>
<!-- Node6&#45;&gt;Node7 -->
<g id="edge6" class="edge">
<title>Node6&#45;&gt;Node7</title>
<path fill="none" stroke="midnightblue" d="M368.81,-65.05C411.97,-54.43 467.54,-40.74 508.69,-30.61"/>
<polygon fill="midnightblue" stroke="midnightblue" points="367.83,-61.69 358.96,-67.48 369.51,-68.48 367.83,-61.69"/>
</g>
<!-- Node8 -->
<g id="node8" class="node">
<title>Node8</title>
<g id="a_node8"><a xlink:href="general__manager_8cpp.html" target="_top" xlink:title=" ">
<polygon fill="white" stroke="black" points="232.5,-6 232.5,-25 371.5,-25 371.5,-6 232.5,-6"/>
<text text-anchor="middle" x="302" y="-13" font-family="Helvetica,sans-Serif" font-size="10.00">src/general_manager.cpp</text>
</a>
</g>
</g>
<!-- Node6&#45;&gt;Node8 -->
<g id="edge7" class="edge">
<title>Node6&#45;&gt;Node8</title>
<path fill="none" stroke="midnightblue" d="M302,-57.25C302,-46.02 302,-33.38 302,-25.19"/>
<polygon fill="midnightblue" stroke="midnightblue" points="298.5,-57.4 302,-67.4 305.5,-57.4 298.5,-57.4"/>
</g>
<!-- Node11&#45;&gt;Node5 -->
<g id="edge12" class="edge">
<title>Node11&#45;&gt;Node5</title>
<path fill="none" stroke="midnightblue" d="M147.9,-209.1C184.97,-196.41 229.86,-181.04 261.79,-170.11"/>
<polygon fill="midnightblue" stroke="midnightblue" points="146.5,-205.88 138.17,-212.43 148.77,-212.5 146.5,-205.88"/>
</g>
<!-- Node12 -->
<g id="node12" class="node">
<title>Node12</title>
<g id="a_node12"><a xlink:href="onnx__importer__helpers_8cpp.html" target="_top" xlink:title=" ">
<polygon fill="white" stroke="black" points="5,-140 5,-170 157,-170 157,-140 5,-140"/>
<text text-anchor="start" x="13" y="-158" font-family="Helvetica,sans-Serif" font-size="10.00">src/IO_Interaction</text>
<text text-anchor="middle" x="81" y="-147" font-family="Helvetica,sans-Serif" font-size="10.00">/onnx_importer_helpers.cpp</text>
</a>
</g>
</g>
<!-- Node11&#45;&gt;Node12 -->
<g id="edge13" class="edge">
<title>Node11&#45;&gt;Node12</title>
<path fill="none" stroke="midnightblue" d="M81,-202.28C81,-191.25 81,-179.25 81,-170.23"/>
<polygon fill="midnightblue" stroke="midnightblue" points="77.5,-202.43 81,-212.43 84.5,-202.43 77.5,-202.43"/>
</g>
<!-- Node13&#45;&gt;Node14 -->
<g id="edge16" class="edge">
<title>Node13&#45;&gt;Node14</title>
<path fill="none" stroke="midnightblue" d="M678.54,-527.08C661,-503.57 632.09,-465.81 605,-435 594.02,-422.52 581.02,-409.21 570.41,-398.71"/>
<polygon fill="midnightblue" stroke="midnightblue" points="675.9,-529.41 684.67,-535.35 681.53,-525.24 675.9,-529.41"/>
</g>
<!-- Node14&#45;&gt;Node3 -->
<g id="edge17" class="edge">
<title>Node14&#45;&gt;Node3</title>
<path fill="none" stroke="midnightblue" d="M501.06,-352.87C479.3,-342.15 454.44,-329.89 435.74,-320.67"/>
<polygon fill="midnightblue" stroke="midnightblue" points="499.65,-356.08 510.17,-357.36 502.74,-349.8 499.65,-356.08"/>
</g>
<!-- Node15&#45;&gt;Node3 -->
<g id="edge20" class="edge">
<title>Node15&#45;&gt;Node3</title>
<path fill="none" stroke="midnightblue" d="M727.11,-703.24C727.18,-679.16 729.92,-641.77 744,-613 753.81,-592.96 770.61,-597.68 779,-577 787.86,-555.17 787.28,-546.05 779,-524 744.34,-431.7 717.76,-407.36 633,-357 585.04,-328.51 522.68,-316.06 475.62,-310.65"/>
<polygon fill="midnightblue" stroke="midnightblue" points="723.61,-703.34 727.23,-713.3 730.61,-703.25 723.61,-703.34"/>
</g>
<!-- Node17 -->
<g id="node17" class="node">
<title>Node17</title>
<g id="a_node17"><a xlink:href="block__aMLLibrary__weight__importer_8h.html" target="_top" xlink:title=" ">
<polygon fill="white" stroke="black" points="393,-524.5 393,-576.5 563,-576.5 563,-524.5 393,-524.5"/>
<text text-anchor="start" x="401" y="-564.5" font-family="Helvetica,sans-Serif" font-size="10.00">include/network_butcher</text>
<text text-anchor="start" x="401" y="-553.5" font-family="Helvetica,sans-Serif" font-size="10.00">/IO_Interaction/Weight</text>
<text text-anchor="start" x="401" y="-542.5" font-family="Helvetica,sans-Serif" font-size="10.00">_Importer_Helpers/block</text>
<text text-anchor="middle" x="478" y="-531.5" font-family="Helvetica,sans-Serif" font-size="10.00">_aMLLibrary_weight_importer.h</text>
</a>
</g>
</g>
<!-- Node16&#45;&gt;Node17 -->
<g id="edge24" class="edge">
<title>Node16&#45;&gt;Node17</title>
<path fill="none" stroke="midnightblue" d="M458.01,-692.25C462.87,-658.04 470.12,-606.97 474.42,-576.67"/>
<polygon fill="midnightblue" stroke="midnightblue" points="454.52,-691.89 456.58,-702.28 461.45,-692.88 454.52,-691.89"/>
</g>
<!-- Node20 -->
<g id="node20" class="node">
<title>Node20</title>
<g id="a_node20"><a xlink:href="csv__weight__importer_8h.html" target="_top" xlink:title=" ">
<polygon fill="white" stroke="black" points="284,-613.5 284,-665.5 448,-665.5 448,-613.5 284,-613.5"/>
<text text-anchor="start" x="292" y="-653.5" font-family="Helvetica,sans-Serif" font-size="10.00">include/network_butcher</text>
<text text-anchor="start" x="292" y="-642.5" font-family="Helvetica,sans-Serif" font-size="10.00">/IO_Interaction/Weight</text>
<text text-anchor="start" x="292" y="-631.5" font-family="Helvetica,sans-Serif" font-size="10.00">_Importer_Helpers/csv_weight</text>
<text text-anchor="middle" x="366" y="-620.5" font-family="Helvetica,sans-Serif" font-size="10.00">_importer.h</text>
</a>
</g>
</g>
<!-- Node16&#45;&gt;Node20 -->
<g id="edge30" class="edge">
<title>Node16&#45;&gt;Node20</title>
<path fill="none" stroke="midnightblue" d="M420.58,-695.08C410.84,-685.34 400.3,-674.8 391.11,-665.61"/>
<polygon fill="midnightblue" stroke="midnightblue" points="418.29,-697.74 427.84,-702.34 423.24,-692.79 418.29,-697.74"/>
</g>
<!-- Node18 -->
<g id="node18" class="node">
<title>Node18</title>
<g id="a_node18"><a xlink:href="weight__importers_8h.html" target="_top" xlink:title=" ">
<polygon fill="white" stroke="black" points="264.5,-441 264.5,-482 401.5,-482 401.5,-441 264.5,-441"/>
<text text-anchor="start" x="272.5" y="-470" font-family="Helvetica,sans-Serif" font-size="10.00">include/network_butcher</text>
<text text-anchor="start" x="272.5" y="-459" font-family="Helvetica,sans-Serif" font-size="10.00">/IO_Interaction/weight</text>
<text text-anchor="middle" x="333" y="-448" font-family="Helvetica,sans-Serif" font-size="10.00">_importers.h</text>
</a>
</g>
</g>
<!-- Node17&#45;&gt;Node18 -->
<g id="edge25" class="edge">
<title>Node17&#45;&gt;Node18</title>
<path fill="none" stroke="midnightblue" d="M427.45,-519.17C406.95,-506.87 383.86,-493.01 365.64,-482.08"/>
<polygon fill="midnightblue" stroke="midnightblue" points="425.68,-522.19 436.06,-524.34 429.29,-516.19 425.68,-522.19"/>
</g>
<!-- Node19 -->
<g id="node19" class="node">
<title>Node19</title>
<g id="a_node19"><a xlink:href="block__aMLLibrary__weight__importer_8cpp.html" target="_top" xlink:title=" ">
<polygon fill="white" stroke="black" points="419.5,-435.5 419.5,-487.5 562.5,-487.5 562.5,-435.5 419.5,-435.5"/>
<text text-anchor="start" x="427.5" y="-475.5" font-family="Helvetica,sans-Serif" font-size="10.00">src/IO_Interaction</text>
<text text-anchor="start" x="427.5" y="-464.5" font-family="Helvetica,sans-Serif" font-size="10.00">/Weight_Importer_Helpers</text>
<text text-anchor="start" x="427.5" y="-453.5" font-family="Helvetica,sans-Serif" font-size="10.00">/block_aMLLibrary_weight</text>
<text text-anchor="middle" x="491" y="-442.5" font-family="Helvetica,sans-Serif" font-size="10.00">_importer.cpp</text>
</a>
</g>
</g>
<!-- Node17&#45;&gt;Node19 -->
<g id="edge29" class="edge">
<title>Node17&#45;&gt;Node19</title>
<path fill="none" stroke="midnightblue" d="M483.28,-514.19C484.61,-505.28 486.01,-495.9 487.25,-487.61"/>
<polygon fill="midnightblue" stroke="midnightblue" points="479.78,-513.93 481.76,-524.34 486.7,-514.96 479.78,-513.93"/>
</g>
<!-- Node18&#45;&gt;Node3 -->
<g id="edge26" class="edge">
<title>Node18&#45;&gt;Node3</title>
<path fill="none" stroke="midnightblue" d="M346.76,-431.86C362.6,-398.89 387.99,-346.06 400.12,-320.82"/>
<polygon fill="midnightblue" stroke="midnightblue" points="343.55,-430.47 342.37,-441 349.86,-433.5 343.55,-430.47"/>
</g>
<!-- Node18&#45;&gt;Node5 -->
<g id="edge28" class="edge">
<title>Node18&#45;&gt;Node5</title>
<path fill="none" stroke="midnightblue" d="M330.07,-430.73C323.74,-366.5 309,-216.92 304.4,-170.2"/>
<polygon fill="midnightblue" stroke="midnightblue" points="326.61,-431.38 331.08,-440.99 333.58,-430.69 326.61,-431.38"/>
</g>
<!-- Node18&#45;&gt;Node14 -->
<g id="edge27" class="edge">
<title>Node18&#45;&gt;Node14</title>
<path fill="none" stroke="midnightblue" d="M394.44,-437.42C427.15,-425.14 466.93,-410.2 498.07,-398.5"/>
<polygon fill="midnightblue" stroke="midnightblue" points="393.11,-434.19 384.98,-440.98 395.57,-440.74 393.11,-434.19"/>
</g>
<!-- Node20&#45;&gt;Node17 -->
<g id="edge31" class="edge">
<title>Node20&#45;&gt;Node17</title>
<path fill="none" stroke="midnightblue" d="M406.64,-606.93C419.48,-596.96 433.5,-586.07 445.68,-576.61"/>
<polygon fill="midnightblue" stroke="midnightblue" points="404.15,-604.44 398.4,-613.34 408.44,-609.97 404.15,-604.44"/>
</g>
<!-- Node20&#45;&gt;Node18 -->
<g id="edge32" class="edge">
<title>Node20&#45;&gt;Node18</title>
<path fill="none" stroke="midnightblue" d="M359.71,-603.61C355.59,-580.92 350.05,-550.69 345,-524 342.35,-510 339.27,-494.22 336.89,-482.15"/>
<polygon fill="midnightblue" stroke="midnightblue" points="356.27,-604.25 361.49,-613.47 363.15,-603 356.27,-604.25"/>
</g>
<!-- Node21 -->
<g id="node21" class="node">
<title>Node21</title>
<g id="a_node21"><a xlink:href="csv__weight__importer_8cpp.html" target="_top" xlink:title=" ">
<polygon fill="white" stroke="black" points="193.5,-530 193.5,-571 336.5,-571 336.5,-530 193.5,-530"/>
<text text-anchor="start" x="201.5" y="-559" font-family="Helvetica,sans-Serif" font-size="10.00">src/IO_Interaction</text>
<text text-anchor="start" x="201.5" y="-548" font-family="Helvetica,sans-Serif" font-size="10.00">/Weight_Importer_Helpers</text>
<text text-anchor="middle" x="265" y="-537" font-family="Helvetica,sans-Serif" font-size="10.00">/csv_weight_importer.cpp</text>
</a>
</g>
</g>
<!-- Node20&#45;&gt;Node21 -->
<g id="edge33" class="edge">
<title>Node20&#45;&gt;Node21</title>
<path fill="none" stroke="midnightblue" d="M328.87,-606.51C315.08,-594.64 299.86,-581.53 287.73,-571.08"/>
<polygon fill="midnightblue" stroke="midnightblue" points="326.93,-609.46 336.79,-613.34 331.49,-604.16 326.93,-609.46"/>
</g>
<!-- Node22&#45;&gt;Node3 -->
<g id="edge36" class="edge">
<title>Node22&#45;&gt;Node3</title>
<path fill="none" stroke="midnightblue" d="M374.45,-794.76C289.17,-778.16 165,-737.36 165,-640.5 165,-640.5 165,-640.5 165,-460.5 165,-377.83 266.75,-337.62 338.3,-319.57"/>
<polygon fill="midnightblue" stroke="midnightblue" points="373.91,-798.22 384.38,-796.62 375.2,-791.34 373.91,-798.22"/>
</g>
<!-- Node22&#45;&gt;Node11 -->
<g id="edge38" class="edge">
<title>Node22&#45;&gt;Node11</title>
<path fill="none" stroke="midnightblue" d="M374.23,-798.27C306.49,-790.69 215.22,-776.8 186,-755 140.11,-720.77 127,-697.75 127,-640.5 127,-640.5 127,-640.5 127,-549.5 127,-436.58 97.79,-303.28 85.92,-253.79"/>
<polygon fill="midnightblue" stroke="midnightblue" points="374.14,-801.78 384.46,-799.38 374.9,-794.82 374.14,-801.78"/>
</g>
<!-- Node22&#45;&gt;Node13 -->
<g id="edge37" class="edge">
<title>Node22&#45;&gt;Node13</title>
<path fill="none" stroke="midnightblue" d="M491.52,-786.3C505.69,-777.99 521.14,-767.34 533,-755 583.51,-702.46 566.97,-667.81 615,-613 631.63,-594.03 654.86,-576.94 672.01,-565.62"/>
<polygon fill="midnightblue" stroke="midnightblue" points="489.45,-783.45 482.46,-791.41 492.89,-789.55 489.45,-783.45"/>
</g>
<!-- Node22&#45;&gt;Node16 -->
<g id="edge39" class="edge">
<title>Node22&#45;&gt;Node16</title>
<path fill="none" stroke="midnightblue" d="M453,-781.14C453,-772.63 453,-763.07 453,-754.5"/>
<polygon fill="midnightblue" stroke="midnightblue" points="449.5,-781.2 453,-791.2 456.5,-781.21 449.5,-781.2"/>
</g>
<!-- Node23&#45;&gt;Node2 -->
<g id="edge41" class="edge">
<title>Node23&#45;&gt;Node2</title>
<path fill="none" stroke="midnightblue" d="M630.71,-984.47C623.72,-975.9 616.06,-965.81 610,-956 596.14,-933.55 584.02,-905.22 577.38,-888.56"/>
<polygon fill="midnightblue" stroke="midnightblue" points="628.04,-986.72 637.14,-992.15 633.41,-982.23 628.04,-986.72"/>
</g>
<!-- Node24 -->
<g id="node24" class="node">
<title>Node24</title>
<g id="a_node24"><a xlink:href="wgraph_8h.html" target="_top" xlink:title=" ">
<polygon fill="white" stroke="black" points="619.5,-925.5 619.5,-955.5 756.5,-955.5 756.5,-925.5 619.5,-925.5"/>
<text text-anchor="start" x="627.5" y="-943.5" font-family="Helvetica,sans-Serif" font-size="10.00">include/network_butcher</text>
<text text-anchor="middle" x="688" y="-932.5" font-family="Helvetica,sans-Serif" font-size="10.00">/Network/wgraph.h</text>
</a>
</g>
</g>
<!-- Node23&#45;&gt;Node24 -->
<g id="edge42" class="edge">
<title>Node23&#45;&gt;Node24</title>
<path fill="none" stroke="midnightblue" d="M663.4,-983.58C668.86,-974.24 674.99,-963.75 679.77,-955.58"/>
<polygon fill="midnightblue" stroke="midnightblue" points="660.27,-982 658.25,-992.4 666.31,-985.53 660.27,-982"/>
</g>
<!-- Node24&#45;&gt;Node2 -->
<g id="edge48" class="edge">
<title>Node24&#45;&gt;Node2</title>
<path fill="none" stroke="midnightblue" d="M653.73,-920.3C635.58,-910.12 613.68,-897.85 597.12,-888.58"/>
<polygon fill="midnightblue" stroke="midnightblue" points="652.4,-923.56 662.83,-925.4 655.82,-917.45 652.4,-923.56"/>
</g>
<!-- Node25 -->
<g id="node25" class="node">
<title>Node25</title>
<g id="a_node25"><a xlink:href="computer__memory_8h.html" target="_top" xlink:title=" ">
<polygon fill="white" stroke="black" points="753.5,-624.5 753.5,-654.5 924.5,-654.5 924.5,-624.5 753.5,-624.5"/>
<text text-anchor="start" x="761.5" y="-642.5" font-family="Helvetica,sans-Serif" font-size="10.00">include/network_butcher</text>
<text text-anchor="middle" x="839" y="-631.5" font-family="Helvetica,sans-Serif" font-size="10.00">/Computer/computer_memory.h</text>
</a>
</g>
</g>
<!-- Node24&#45;&gt;Node25 -->
<g id="edge43" class="edge">
<title>Node24&#45;&gt;Node25</title>
<path fill="none" stroke="midnightblue" d="M706.06,-916.93C732.04,-883.44 779.93,-817.76 808,-755 823.39,-720.6 832.62,-676.87 836.63,-654.73"/>
<polygon fill="midnightblue" stroke="midnightblue" points="703.06,-915.08 699.65,-925.11 708.57,-919.4 703.06,-915.08"/>
</g>
<!-- Node25&#45;&gt;Node3 -->
<g id="edge44" class="edge">
<title>Node25&#45;&gt;Node3</title>
<path fill="none" stroke="midnightblue" d="M845.49,-614.61C858.61,-560.48 881.52,-427.72 813,-357 789.99,-333.25 585.56,-317.33 475.87,-310.41"/>
<polygon fill="midnightblue" stroke="midnightblue" points="842.09,-613.79 843.03,-624.35 848.88,-615.51 842.09,-613.79"/>
</g>
<!-- Node25&#45;&gt;Node7 -->
<g id="edge47" class="edge">
<title>Node25&#45;&gt;Node7</title>
<path fill="none" stroke="midnightblue" d="M848.95,-614.58C853.26,-603.35 858,-589.67 861,-577 872.82,-527.11 875,-513.77 875,-462.5 875,-462.5 875,-462.5 875,-154 875,-49.48 725.61,-23.83 634.58,-17.91"/>
<polygon fill="midnightblue" stroke="midnightblue" points="845.61,-613.53 845.18,-624.11 852.11,-616.11 845.61,-613.53"/>
</g>
<!-- Node25&#45;&gt;Node13 -->
<g id="edge45" class="edge">
<title>Node25&#45;&gt;Node13</title>
<path fill="none" stroke="midnightblue" d="M806.9,-619.11C780.09,-602.91 742.5,-580.2 718.45,-565.67"/>
<polygon fill="midnightblue" stroke="midnightblue" points="805.17,-622.15 815.54,-624.33 808.79,-616.16 805.17,-622.15"/>
</g>
<!-- Node25&#45;&gt;Node17 -->
<g id="edge46" class="edge">
<title>Node25&#45;&gt;Node17</title>
<path fill="none" stroke="midnightblue" d="M770.66,-622.03C711.8,-607.84 626.58,-587.31 563.27,-572.05"/>
<polygon fill="midnightblue" stroke="midnightblue" points="770.06,-625.48 780.6,-624.43 771.7,-618.68 770.06,-625.48"/>
</g>
</g>
</svg>
        <g id="navigator" transform="translate(0 0)" fill="#404254">
                <rect fill="#f2f5e9" fill-opacity="0.5" stroke="#606060" stroke-width=".5" x="0" y="0" width="60" height="60"/>
                <use id="zoomplus" xlink:href="#zoomPlus" x="17" y="9" onmousedown="handleZoom(evt,'in')"/>
                <use id="zoomminus" xlink:href="#zoomMin" x="42" y="9" onmousedown="handleZoom(evt,'out')"/>
                <use id="reset" xlink:href="#resetDef" x="30" y="36" onmousedown="handleReset()"/>
                <g id="arrowUp" xlink:href="#dirArrow" transform="translate(30 24)" onmousedown="handlePan(0,-1)">
                  <use xlink:href="#rim" fill="#404040">
                        <set attributeName="fill" to="#808080" begin="arrowUp.mouseover" end="arrowUp.mouseout"/>
                  </use>
                  <path fill="none" stroke="white" stroke-width="1.5" d="M0,-3.0v7 M-2.5,-0.5L0,-3.0L2.5,-0.5"/>
                </g>
                <g id="arrowRight" xlink:href="#dirArrow" transform="rotate(90) translate(36 -43)" onmousedown="handlePan(1,0)">
                  <use xlink:href="#rim" fill="#404040">
                        <set attributeName="fill" to="#808080" begin="arrowRight.mouseover" end="arrowRight.mouseout"/>
                  </use>
                  <path fill="none" stroke="white" stroke-width="1.5" d="M0,-3.0v7 M-2.5,-0.5L0,-3.0L2.5,-0.5"/>
                </g>
                <g id="arrowDown" xlink:href="#dirArrow" transform="rotate(180) translate(-30 -48)" onmousedown="handlePan(0,1)">
                  <use xlink:href="#rim" fill="#404040">
                        <set attributeName="fill" to="#808080" begin="arrowDown.mouseover" end="arrowDown.mouseout"/>
                  </use>
                  <path fill="none" stroke="white" stroke-width="1.5" d="M0,-3.0v7 M-2.5,-0.5L0,-3.0L2.5,-0.5"/>
                </g>
                <g id="arrowLeft" xlink:href="#dirArrow" transform="rotate(270) translate(-36 17)" onmousedown="handlePan(-1,0)">
                  <use xlink:href="#rim" fill="#404040">
                        <set attributeName="fill" to="#808080" begin="arrowLeft.mouseover" end="arrowLeft.mouseout"/>
                  </use>
                  <path fill="none" stroke="white" stroke-width="1.5" d="M0,-3.0v7 M-2.5,-0.5L0,-3.0L2.5,-0.5"/>
                </g>
        </g>
        <svg viewBox="0 0 15 15" width="100%" height="30px" preserveAspectRatio="xMaxYMin meet">
         <g id="arrow_out" transform="scale(0.3 0.3)">
          <a xlink:href="graph_8h__dep__incl_org.svg" target="_base">
           <rect id="button" ry="5" rx="5" y="6" x="6" height="38" width="38"
                fill="#f2f5e9" fill-opacity="0.5" stroke="#606060" stroke-width="1.0"/>
           <path id="arrow"
             d="M 11.500037,31.436501 C 11.940474,20.09759 22.043105,11.32322 32.158766,21.979434 L 37.068811,17.246167 C 37.068811,17.246167 37.088388,32 37.088388,32 L 22.160133,31.978069 C 22.160133,31.978069 26.997745,27.140456 26.997745,27.140456 C 18.528582,18.264221 13.291696,25.230495 11.500037,31.436501 z"
             style="fill:#404040;"/>
          </a>
         </g>
        </svg>
</svg>
