<?xml version="1.0" encoding="UTF-8" standalone="no"?>
<!DOCTYPE svg PUBLIC "-//W3C//DTD SVG 1.1//EN"
 "http://www.w3.org/Graphics/SVG/1.1/DTD/svg11.dtd">
<!-- Generated by graphviz version 2.43.0 (0)
 -->
<!-- Title: include/Butcher/graph_constraint.h Pages: 1 -->
<svg width="937pt" height="599pt"
 viewBox="0.00 0.00 937.17 599.00" xmlns="http://www.w3.org/2000/svg" xmlns:xlink="http://www.w3.org/1999/xlink">
<g id="graph0" class="graph" transform="scale(1 1) rotate(0) translate(4 595)">
<title>include/Butcher/graph_constraint.h</title>
<polygon fill="white" stroke="transparent" points="-4,4 -4,-595 933.17,-595 933.17,4 -4,4"/>
<!-- Node1 -->
<g id="node1" class="node">
<title>Node1</title>
<g id="a_node1"><a xlink:title=" ">
<polygon fill="#bfbfbf" stroke="black" points="378.67,-560.5 378.67,-590.5 501.67,-590.5 501.67,-560.5 378.67,-560.5"/>
<text text-anchor="start" x="386.67" y="-578.5" font-family="Helvetica,sans-Serif" font-size="10.00">include/Butcher/graph</text>
<text text-anchor="middle" x="440.17" y="-567.5" font-family="Helvetica,sans-Serif" font-size="10.00">_constraint.h</text>
</a>
</g>
</g>
<!-- Node2 -->
<g id="node2" class="node">
<title>Node2</title>
<g id="a_node2"><a xlink:href="computer__memory_8h.html" target="_top" xlink:title=" ">
<polygon fill="white" stroke="black" points="282.67,-448.5 282.67,-467.5 399.67,-467.5 399.67,-448.5 282.67,-448.5"/>
<text text-anchor="middle" x="341.17" y="-455.5" font-family="Helvetica,sans-Serif" font-size="10.00">computer_memory.h</text>
</a>
</g>
</g>
<!-- Node1&#45;&gt;Node2 -->
<g id="edge1" class="edge">
<title>Node1&#45;&gt;Node2</title>
<path fill="none" stroke="midnightblue" d="M428.03,-560.34C409.62,-538.86 374.74,-498.17 355.25,-475.43"/>
<polygon fill="midnightblue" stroke="midnightblue" points="357.76,-472.98 348.6,-467.67 352.45,-477.54 357.76,-472.98"/>
</g>
<!-- Node30 -->
<g id="node30" class="node">
<title>Node30</title>
<g id="a_node30"><a xlink:href="graph__traits_8h.html" target="_top" xlink:title=" ">
<polygon fill="white" stroke="black" points="433.17,-448.5 433.17,-467.5 517.17,-467.5 517.17,-448.5 433.17,-448.5"/>
<text text-anchor="middle" x="475.17" y="-455.5" font-family="Helvetica,sans-Serif" font-size="10.00">graph_traits.h</text>
</a>
</g>
</g>
<!-- Node1&#45;&gt;Node30 -->
<g id="edge52" class="edge">
<title>Node1&#45;&gt;Node30</title>
<path fill="none" stroke="midnightblue" d="M443.63,-560.36C447.22,-546.06 453.13,-523.36 459.17,-504 461.95,-495.08 465.38,-485.3 468.35,-477.14"/>
<polygon fill="midnightblue" stroke="midnightblue" points="471.71,-478.15 471.9,-467.56 465.15,-475.72 471.71,-478.15"/>
</g>
<!-- Node31 -->
<g id="node31" class="node">
<title>Node31</title>
<g id="a_node31"><a xlink:href="parameters_8h.html" target="_top" xlink:title=" ">
<polygon fill="white" stroke="black" points="468.17,-504.5 468.17,-523.5 550.17,-523.5 550.17,-504.5 468.17,-504.5"/>
<text text-anchor="middle" x="509.17" y="-511.5" font-family="Helvetica,sans-Serif" font-size="10.00">parameters.h</text>
</a>
</g>
</g>
<!-- Node1&#45;&gt;Node31 -->
<g id="edge57" class="edge">
<title>Node1&#45;&gt;Node31</title>
<path fill="none" stroke="midnightblue" d="M456.52,-560.4C467.06,-551.31 480.77,-539.49 491.55,-530.19"/>
<polygon fill="midnightblue" stroke="midnightblue" points="493.84,-532.84 499.13,-523.66 489.27,-527.54 493.84,-532.84"/>
</g>
<!-- Node3 -->
<g id="node3" class="node">
<title>Node3</title>
<g id="a_node3"><a xlink:title=" ">
<polygon fill="white" stroke="#bfbfbf" points="231.67,-392.5 231.67,-411.5 296.67,-411.5 296.67,-392.5 231.67,-392.5"/>
<text text-anchor="middle" x="264.17" y="-399.5" font-family="Helvetica,sans-Serif" font-size="10.00">functional</text>
</a>
</g>
</g>
<!-- Node2&#45;&gt;Node3 -->
<g id="edge2" class="edge">
<title>Node2&#45;&gt;Node3</title>
<path fill="none" stroke="midnightblue" d="M328.8,-448.32C317.01,-440.06 299.04,-427.45 285.03,-417.63"/>
<polygon fill="midnightblue" stroke="midnightblue" points="286.71,-414.53 276.51,-411.65 282.69,-420.26 286.71,-414.53"/>
</g>
<!-- Node4 -->
<g id="node4" class="node">
<title>Node4</title>
<g id="a_node4"><a xlink:href="utilities_8h.html" target="_top" xlink:title=" ">
<polygon fill="white" stroke="black" points="328.17,-168.5 328.17,-187.5 390.17,-187.5 390.17,-168.5 328.17,-168.5"/>
<text text-anchor="middle" x="359.17" y="-175.5" font-family="Helvetica,sans-Serif" font-size="10.00">utilities.h</text>
</a>
</g>
</g>
<!-- Node2&#45;&gt;Node4 -->
<g id="edge3" class="edge">
<title>Node2&#45;&gt;Node4</title>
<path fill="none" stroke="midnightblue" d="M339.01,-448.22C334.64,-429.66 325.17,-385.02 325.17,-347 325.17,-347 325.17,-347 325.17,-289 325.17,-255.16 340.04,-217.97 350.11,-196.66"/>
<polygon fill="midnightblue" stroke="midnightblue" points="353.31,-198.08 354.58,-187.56 347.03,-194.99 353.31,-198.08"/>
</g>
<!-- Node22 -->
<g id="node22" class="node">
<title>Node22</title>
<g id="a_node22"><a xlink:href="wgraph_8h.html" target="_top" xlink:title=" ">
<polygon fill="white" stroke="black" points="380.17,-392.5 380.17,-411.5 442.17,-411.5 442.17,-392.5 380.17,-392.5"/>
<text text-anchor="middle" x="411.17" y="-399.5" font-family="Helvetica,sans-Serif" font-size="10.00">wgraph.h</text>
</a>
</g>
</g>
<!-- Node2&#45;&gt;Node22 -->
<g id="edge29" class="edge">
<title>Node2&#45;&gt;Node22</title>
<path fill="none" stroke="midnightblue" d="M352.41,-448.32C362.97,-440.18 378.97,-427.84 391.61,-418.09"/>
<polygon fill="midnightblue" stroke="midnightblue" points="393.94,-420.71 399.72,-411.83 389.66,-415.17 393.94,-420.71"/>
</g>
<!-- Node5 -->
<g id="node5" class="node">
<title>Node5</title>
<g id="a_node5"><a xlink:title=" ">
<polygon fill="white" stroke="#bfbfbf" points="387.17,-112.5 387.17,-131.5 451.17,-131.5 451.17,-112.5 387.17,-112.5"/>
<text text-anchor="middle" x="419.17" y="-119.5" font-family="Helvetica,sans-Serif" font-size="10.00">algorithm</text>
</a>
</g>
</g>
<!-- Node4&#45;&gt;Node5 -->
<g id="edge4" class="edge">
<title>Node4&#45;&gt;Node5</title>
<path fill="none" stroke="midnightblue" d="M368.81,-168.32C377.68,-160.34 391.04,-148.31 401.78,-138.65"/>
<polygon fill="midnightblue" stroke="midnightblue" points="404.26,-141.13 409.35,-131.83 399.58,-135.92 404.26,-141.13"/>
</g>
<!-- Node6 -->
<g id="node6" class="node">
<title>Node6</title>
<g id="a_node6"><a xlink:title=" ">
<polygon fill="white" stroke="#bfbfbf" points="469.17,-112.5 469.17,-131.5 525.17,-131.5 525.17,-112.5 469.17,-112.5"/>
<text text-anchor="middle" x="497.17" y="-119.5" font-family="Helvetica,sans-Serif" font-size="10.00">numeric</text>
</a>
</g>
</g>
<!-- Node4&#45;&gt;Node6 -->
<g id="edge5" class="edge">
<title>Node4&#45;&gt;Node6</title>
<path fill="none" stroke="midnightblue" d="M381.03,-168.44C403.95,-159.48 440.14,-145.31 466.03,-135.18"/>
<polygon fill="midnightblue" stroke="midnightblue" points="467.37,-138.42 475.4,-131.52 464.82,-131.9 467.37,-138.42"/>
</g>
<!-- Node7 -->
<g id="node7" class="node">
<title>Node7</title>
<g id="a_node7"><a xlink:title=" ">
<polygon fill="white" stroke="#bfbfbf" points="13.17,-112.5 13.17,-131.5 81.17,-131.5 81.17,-112.5 13.17,-112.5"/>
<text text-anchor="middle" x="47.17" y="-119.5" font-family="Helvetica,sans-Serif" font-size="10.00">filesystem</text>
</a>
</g>
</g>
<!-- Node4&#45;&gt;Node7 -->
<g id="edge6" class="edge">
<title>Node4&#45;&gt;Node7</title>
<path fill="none" stroke="midnightblue" d="M327.73,-170.55C323.18,-169.67 318.56,-168.79 314.17,-168 218.04,-150.67 190.99,-150.34 91.29,-132.14"/>
<polygon fill="midnightblue" stroke="midnightblue" points="91.88,-128.69 81.41,-130.32 90.61,-135.57 91.88,-128.69"/>
</g>
<!-- Node8 -->
<g id="node8" class="node">
<title>Node8</title>
<g id="a_node8"><a xlink:title=" ">
<polygon fill="white" stroke="#bfbfbf" points="99.67,-112.5 99.67,-131.5 154.67,-131.5 154.67,-112.5 99.67,-112.5"/>
<text text-anchor="middle" x="127.17" y="-119.5" font-family="Helvetica,sans-Serif" font-size="10.00">fstream</text>
</a>
</g>
</g>
<!-- Node4&#45;&gt;Node8 -->
<g id="edge7" class="edge">
<title>Node4&#45;&gt;Node8</title>
<path fill="none" stroke="midnightblue" d="M328.07,-169.94C291.44,-161.6 228.51,-147.2 164.85,-132.14"/>
<polygon fill="midnightblue" stroke="midnightblue" points="165.58,-128.72 155.04,-129.82 163.96,-135.53 165.58,-128.72"/>
</g>
<!-- Node9 -->
<g id="node9" class="node">
<title>Node9</title>
<g id="a_node9"><a xlink:title=" ">
<polygon fill="white" stroke="#bfbfbf" points="173.17,-112.5 173.17,-131.5 223.17,-131.5 223.17,-112.5 173.17,-112.5"/>
<text text-anchor="middle" x="198.17" y="-119.5" font-family="Helvetica,sans-Serif" font-size="10.00">ranges</text>
</a>
</g>
</g>
<!-- Node4&#45;&gt;Node9 -->
<g id="edge8" class="edge">
<title>Node4&#45;&gt;Node9</title>
<path fill="none" stroke="midnightblue" d="M333.66,-168.44C306.49,-159.33 263.32,-144.85 233.03,-134.69"/>
<polygon fill="midnightblue" stroke="midnightblue" points="233.89,-131.29 223.29,-131.43 231.66,-137.93 233.89,-131.29"/>
</g>
<!-- Node10 -->
<g id="node10" class="node">
<title>Node10</title>
<g id="a_node10"><a xlink:title=" ">
<polygon fill="white" stroke="#bfbfbf" points="205.67,-56.5 205.67,-75.5 270.67,-75.5 270.67,-56.5 205.67,-56.5"/>
<text text-anchor="middle" x="238.17" y="-63.5" font-family="Helvetica,sans-Serif" font-size="10.00">onnx.pb.h</text>
</a>
</g>
</g>
<!-- Node4&#45;&gt;Node10 -->
<g id="edge9" class="edge">
<title>Node4&#45;&gt;Node10</title>
<path fill="none" stroke="midnightblue" d="M331.82,-168.42C312.59,-161.24 287.34,-149.35 270.17,-132 257.2,-118.89 248.59,-99.47 243.6,-85.28"/>
<polygon fill="midnightblue" stroke="midnightblue" points="246.88,-84.07 240.48,-75.63 240.22,-86.22 246.88,-84.07"/>
</g>
<!-- Node11 -->
<g id="node11" class="node">
<title>Node11</title>
<g id="a_node11"><a xlink:href="traits_8h.html" target="_top" xlink:title=" ">
<polygon fill="white" stroke="black" points="279.67,-112.5 279.67,-131.5 330.67,-131.5 330.67,-112.5 279.67,-112.5"/>
<text text-anchor="middle" x="305.17" y="-119.5" font-family="Helvetica,sans-Serif" font-size="10.00">traits.h</text>
</a>
</g>
</g>
<!-- Node4&#45;&gt;Node11 -->
<g id="edge10" class="edge">
<title>Node4&#45;&gt;Node11</title>
<path fill="none" stroke="midnightblue" d="M350.25,-168.08C342.39,-160.22 330.74,-148.57 321.25,-139.08"/>
<polygon fill="midnightblue" stroke="midnightblue" points="323.47,-136.35 313.92,-131.75 318.52,-141.3 323.47,-136.35"/>
</g>
<!-- Node16 -->
<g id="node16" class="node">
<title>Node16</title>
<g id="a_node16"><a xlink:href="type__info_8h.html" target="_top" xlink:title=" ">
<polygon fill="white" stroke="black" points="453.67,-56.5 453.67,-75.5 524.67,-75.5 524.67,-56.5 453.67,-56.5"/>
<text text-anchor="middle" x="489.17" y="-63.5" font-family="Helvetica,sans-Serif" font-size="10.00">type_info.h</text>
</a>
</g>
</g>
<!-- Node4&#45;&gt;Node16 -->
<g id="edge28" class="edge">
<title>Node4&#45;&gt;Node16</title>
<path fill="none" stroke="midnightblue" d="M359.39,-168.28C360.19,-154.61 363.66,-128.05 378.17,-112 395.17,-93.19 421.17,-82.09 443.73,-75.62"/>
<polygon fill="midnightblue" stroke="midnightblue" points="444.7,-78.98 453.47,-73.04 442.91,-72.21 444.7,-78.98"/>
</g>
<!-- Node19 -->
<g id="node19" class="node">
<title>Node19</title>
<g id="a_node19"><a xlink:href="dense__tensor_8h.html" target="_top" xlink:title=" ">
<polygon fill="white" stroke="black" points="581.17,-112.5 581.17,-131.5 671.17,-131.5 671.17,-112.5 581.17,-112.5"/>
<text text-anchor="middle" x="626.17" y="-119.5" font-family="Helvetica,sans-Serif" font-size="10.00">dense_tensor.h</text>
</a>
</g>
</g>
<!-- Node4&#45;&gt;Node19 -->
<g id="edge20" class="edge">
<title>Node4&#45;&gt;Node19</title>
<path fill="none" stroke="midnightblue" d="M390.39,-169.72C434.76,-160.26 516.42,-143.7 571.08,-133.05"/>
<polygon fill="midnightblue" stroke="midnightblue" points="571.8,-136.48 580.95,-131.14 570.47,-129.6 571.8,-136.48"/>
</g>
<!-- Node11&#45;&gt;Node10 -->
<g id="edge15" class="edge">
<title>Node11&#45;&gt;Node10</title>
<path fill="none" stroke="midnightblue" d="M294.4,-112.32C284.4,-104.26 269.28,-92.08 257.24,-82.37"/>
<polygon fill="midnightblue" stroke="midnightblue" points="259.11,-79.38 249.13,-75.83 254.72,-84.83 259.11,-79.38"/>
</g>
<!-- Node12 -->
<g id="node12" class="node">
<title>Node12</title>
<g id="a_node12"><a xlink:title=" ">
<polygon fill="white" stroke="#bfbfbf" points="289.17,-56.5 289.17,-75.5 321.17,-75.5 321.17,-56.5 289.17,-56.5"/>
<text text-anchor="middle" x="305.17" y="-63.5" font-family="Helvetica,sans-Serif" font-size="10.00">set</text>
</a>
</g>
</g>
<!-- Node11&#45;&gt;Node12 -->
<g id="edge11" class="edge">
<title>Node11&#45;&gt;Node12</title>
<path fill="none" stroke="midnightblue" d="M305.17,-112.08C305.17,-105.01 305.17,-94.86 305.17,-85.99"/>
<polygon fill="midnightblue" stroke="midnightblue" points="308.67,-85.75 305.17,-75.75 301.67,-85.75 308.67,-85.75"/>
</g>
<!-- Node13 -->
<g id="node13" class="node">
<title>Node13</title>
<g id="a_node13"><a xlink:title=" ">
<polygon fill="white" stroke="#bfbfbf" points="339.17,-56.5 339.17,-75.5 377.17,-75.5 377.17,-56.5 339.17,-56.5"/>
<text text-anchor="middle" x="358.17" y="-63.5" font-family="Helvetica,sans-Serif" font-size="10.00">map</text>
</a>
</g>
</g>
<!-- Node11&#45;&gt;Node13 -->
<g id="edge12" class="edge">
<title>Node11&#45;&gt;Node13</title>
<path fill="none" stroke="midnightblue" d="M313.92,-112.08C321.64,-104.22 333.07,-92.57 342.38,-83.08"/>
<polygon fill="midnightblue" stroke="midnightblue" points="345.07,-85.34 349.58,-75.75 340.08,-80.44 345.07,-85.34"/>
</g>
<!-- Node14 -->
<g id="node14" class="node">
<title>Node14</title>
<g id="a_node14"><a xlink:title=" ">
<polygon fill="white" stroke="#bfbfbf" points="619.17,-56.5 619.17,-75.5 677.17,-75.5 677.17,-56.5 619.17,-56.5"/>
<text text-anchor="middle" x="648.17" y="-63.5" font-family="Helvetica,sans-Serif" font-size="10.00">memory</text>
</a>
</g>
</g>
<!-- Node11&#45;&gt;Node14 -->
<g id="edge13" class="edge">
<title>Node11&#45;&gt;Node14</title>
<path fill="none" stroke="midnightblue" d="M330.67,-116.99C390.03,-107.64 537.81,-84.37 608.83,-73.19"/>
<polygon fill="midnightblue" stroke="midnightblue" points="609.81,-76.58 619.14,-71.57 608.72,-69.67 609.81,-76.58"/>
</g>
<!-- Node15 -->
<g id="node15" class="node">
<title>Node15</title>
<g id="a_node15"><a xlink:href="starting__traits_8h.html" target="_top" xlink:title=" ">
<polygon fill="white" stroke="black" points="404.17,-0.5 404.17,-19.5 498.17,-19.5 498.17,-0.5 404.17,-0.5"/>
<text text-anchor="middle" x="451.17" y="-7.5" font-family="Helvetica,sans-Serif" font-size="10.00">starting_traits.h</text>
</a>
</g>
</g>
<!-- Node11&#45;&gt;Node15 -->
<g id="edge14" class="edge">
<title>Node11&#45;&gt;Node15</title>
<path fill="none" stroke="midnightblue" d="M324.08,-112.37C341.1,-104.17 366.39,-90.92 386.17,-76 405.37,-61.52 424.49,-41.56 436.97,-27.59"/>
<polygon fill="midnightblue" stroke="midnightblue" points="439.87,-29.6 443.83,-19.77 434.6,-24.98 439.87,-29.6"/>
</g>
<!-- Node11&#45;&gt;Node16 -->
<g id="edge16" class="edge">
<title>Node11&#45;&gt;Node16</title>
<path fill="none" stroke="midnightblue" d="M330.75,-113.49C361.8,-104.38 414.46,-88.92 450.48,-78.35"/>
<polygon fill="midnightblue" stroke="midnightblue" points="451.56,-81.69 460.16,-75.51 449.58,-74.97 451.56,-81.69"/>
</g>
<!-- Node16&#45;&gt;Node15 -->
<g id="edge19" class="edge">
<title>Node16&#45;&gt;Node15</title>
<path fill="none" stroke="midnightblue" d="M482.89,-56.08C477.53,-48.46 469.65,-37.26 463.09,-27.94"/>
<polygon fill="midnightblue" stroke="midnightblue" points="465.94,-25.91 457.33,-19.75 460.22,-29.94 465.94,-25.91"/>
</g>
<!-- Node17 -->
<g id="node17" class="node">
<title>Node17</title>
<g id="a_node17"><a xlink:title=" ">
<polygon fill="white" stroke="#bfbfbf" points="628.17,-0.5 628.17,-19.5 672.17,-19.5 672.17,-0.5 628.17,-0.5"/>
<text text-anchor="middle" x="650.17" y="-7.5" font-family="Helvetica,sans-Serif" font-size="10.00">string</text>
</a>
</g>
</g>
<!-- Node16&#45;&gt;Node17 -->
<g id="edge17" class="edge">
<title>Node16&#45;&gt;Node17</title>
<path fill="none" stroke="midnightblue" d="M514.68,-56.44C542.72,-47.04 587.81,-31.91 618.19,-21.72"/>
<polygon fill="midnightblue" stroke="midnightblue" points="619.52,-24.97 627.89,-18.47 617.29,-18.33 619.52,-24.97"/>
</g>
<!-- Node18 -->
<g id="node18" class="node">
<title>Node18</title>
<g id="a_node18"><a xlink:title=" ">
<polygon fill="white" stroke="#bfbfbf" points="545.67,-0.5 545.67,-19.5 592.67,-19.5 592.67,-0.5 545.67,-0.5"/>
<text text-anchor="middle" x="569.17" y="-7.5" font-family="Helvetica,sans-Serif" font-size="10.00">vector</text>
</a>
</g>
</g>
<!-- Node16&#45;&gt;Node18 -->
<g id="edge18" class="edge">
<title>Node16&#45;&gt;Node18</title>
<path fill="none" stroke="midnightblue" d="M502.02,-56.32C514.38,-47.98 533.3,-35.21 547.91,-25.35"/>
<polygon fill="midnightblue" stroke="midnightblue" points="550.02,-28.15 556.35,-19.65 546.1,-22.35 550.02,-28.15"/>
</g>
<!-- Node19&#45;&gt;Node4 -->
<g id="edge26" class="edge">
<title>Node19&#45;&gt;Node4</title>
<path fill="none" stroke="midnightblue" d="M589.18,-131.51C539.58,-142.01 452.06,-159.69 400.39,-169.63"/>
<polygon fill="midnightblue" stroke="midnightblue" points="399.42,-166.26 390.25,-171.58 400.73,-173.13 399.42,-166.26"/>
</g>
<!-- Node19&#45;&gt;Node16 -->
<g id="edge21" class="edge">
<title>Node19&#45;&gt;Node16</title>
<path fill="none" stroke="midnightblue" d="M604.46,-112.44C581.81,-103.52 546.1,-89.44 520.42,-79.32"/>
<polygon fill="midnightblue" stroke="midnightblue" points="521.36,-75.93 510.77,-75.52 518.79,-82.44 521.36,-75.93"/>
</g>
<!-- Node19&#45;&gt;Node18 -->
<g id="edge27" class="edge">
<title>Node19&#45;&gt;Node18</title>
<path fill="none" stroke="midnightblue" d="M621.7,-112.37C612.37,-94.38 590.7,-52.55 578.3,-28.63"/>
<polygon fill="midnightblue" stroke="midnightblue" points="581.33,-26.86 573.62,-19.59 575.11,-30.08 581.33,-26.86"/>
</g>
<!-- Node20 -->
<g id="node20" class="node">
<title>Node20</title>
<g id="a_node20"><a xlink:href="variant__attribute_8h.html" target="_top" xlink:title=" ">
<polygon fill="white" stroke="black" points="695.67,-56.5 695.67,-75.5 802.67,-75.5 802.67,-56.5 695.67,-56.5"/>
<text text-anchor="middle" x="749.17" y="-63.5" font-family="Helvetica,sans-Serif" font-size="10.00">variant_attribute.h</text>
</a>
</g>
</g>
<!-- Node19&#45;&gt;Node20 -->
<g id="edge22" class="edge">
<title>Node19&#45;&gt;Node20</title>
<path fill="none" stroke="midnightblue" d="M645.66,-112.44C665.81,-103.6 697.49,-89.69 720.5,-79.59"/>
<polygon fill="midnightblue" stroke="midnightblue" points="722.02,-82.74 729.77,-75.52 719.21,-76.33 722.02,-82.74"/>
</g>
<!-- Node20&#45;&gt;Node17 -->
<g id="edge23" class="edge">
<title>Node20&#45;&gt;Node17</title>
<path fill="none" stroke="midnightblue" d="M733.26,-56.32C717.53,-47.74 693.23,-34.49 674.96,-24.52"/>
<polygon fill="midnightblue" stroke="midnightblue" points="676.49,-21.37 666.03,-19.65 673.14,-27.52 676.49,-21.37"/>
</g>
<!-- Node20&#45;&gt;Node18 -->
<g id="edge25" class="edge">
<title>Node20&#45;&gt;Node18</title>
<path fill="none" stroke="midnightblue" d="M720.65,-56.44C688.57,-46.82 636.55,-31.21 602.6,-21.03"/>
<polygon fill="midnightblue" stroke="midnightblue" points="603.26,-17.57 592.68,-18.05 601.25,-24.28 603.26,-17.57"/>
</g>
<!-- Node21 -->
<g id="node21" class="node">
<title>Node21</title>
<g id="a_node21"><a xlink:title=" ">
<polygon fill="white" stroke="#bfbfbf" points="723.67,-0.5 723.67,-19.5 774.67,-19.5 774.67,-0.5 723.67,-0.5"/>
<text text-anchor="middle" x="749.17" y="-7.5" font-family="Helvetica,sans-Serif" font-size="10.00">variant</text>
</a>
</g>
</g>
<!-- Node20&#45;&gt;Node21 -->
<g id="edge24" class="edge">
<title>Node20&#45;&gt;Node21</title>
<path fill="none" stroke="midnightblue" d="M749.17,-56.08C749.17,-49.01 749.17,-38.86 749.17,-29.99"/>
<polygon fill="midnightblue" stroke="midnightblue" points="752.67,-29.75 749.17,-19.75 745.67,-29.75 752.67,-29.75"/>
</g>
<!-- Node23 -->
<g id="node23" class="node">
<title>Node23</title>
<g id="a_node23"><a xlink:href="mwgraph_8h.html" target="_top" xlink:title=" ">
<polygon fill="white" stroke="black" points="439.67,-336.5 439.67,-355.5 510.67,-355.5 510.67,-336.5 439.67,-336.5"/>
<text text-anchor="middle" x="475.17" y="-343.5" font-family="Helvetica,sans-Serif" font-size="10.00">mwgraph.h</text>
</a>
</g>
</g>
<!-- Node22&#45;&gt;Node23 -->
<g id="edge30" class="edge">
<title>Node22&#45;&gt;Node23</title>
<path fill="none" stroke="midnightblue" d="M421.45,-392.32C431,-384.26 445.45,-372.08 456.95,-362.37"/>
<polygon fill="midnightblue" stroke="midnightblue" points="459.31,-364.96 464.7,-355.83 454.8,-359.61 459.31,-364.96"/>
</g>
<!-- Node29 -->
<g id="node29" class="node">
<title>Node29</title>
<g id="a_node29"><a xlink:href="weighted__graph_8h.html" target="_top" xlink:title=" ">
<polygon fill="white" stroke="black" points="354.17,-280.5 354.17,-299.5 458.17,-299.5 458.17,-280.5 354.17,-280.5"/>
<text text-anchor="middle" x="406.17" y="-287.5" font-family="Helvetica,sans-Serif" font-size="10.00">weighted_graph.h</text>
</a>
</g>
</g>
<!-- Node22&#45;&gt;Node29 -->
<g id="edge50" class="edge">
<title>Node22&#45;&gt;Node29</title>
<path fill="none" stroke="midnightblue" d="M410.78,-392.37C409.97,-374.62 408.11,-333.67 407.01,-309.6"/>
<polygon fill="midnightblue" stroke="midnightblue" points="410.51,-309.42 406.56,-299.59 403.52,-309.74 410.51,-309.42"/>
</g>
<!-- Node24 -->
<g id="node24" class="node">
<title>Node24</title>
<g id="a_node24"><a xlink:href="graph_8h.html" target="_top" xlink:title=" ">
<polygon fill="white" stroke="black" points="525.67,-280.5 525.67,-299.5 578.67,-299.5 578.67,-280.5 525.67,-280.5"/>
<text text-anchor="middle" x="552.17" y="-287.5" font-family="Helvetica,sans-Serif" font-size="10.00">graph.h</text>
</a>
</g>
</g>
<!-- Node23&#45;&gt;Node24 -->
<g id="edge31" class="edge">
<title>Node23&#45;&gt;Node24</title>
<path fill="none" stroke="midnightblue" d="M487.54,-336.32C499.33,-328.06 517.3,-315.45 531.3,-305.63"/>
<polygon fill="midnightblue" stroke="midnightblue" points="533.65,-308.26 539.83,-299.65 529.63,-302.53 533.65,-308.26"/>
</g>
<!-- Node24&#45;&gt;Node5 -->
<g id="edge32" class="edge">
<title>Node24&#45;&gt;Node5</title>
<path fill="none" stroke="midnightblue" d="M545.02,-280.08C523.72,-253.49 460.46,-174.54 432.6,-139.76"/>
<polygon fill="midnightblue" stroke="midnightblue" points="435.02,-137.18 426.03,-131.57 429.55,-141.56 435.02,-137.18"/>
</g>
<!-- Node24&#45;&gt;Node6 -->
<g id="edge33" class="edge">
<title>Node24&#45;&gt;Node6</title>
<path fill="none" stroke="midnightblue" d="M549.21,-280.08C540.52,-253.83 514.91,-176.55 503.17,-141.12"/>
<polygon fill="midnightblue" stroke="midnightblue" points="506.47,-139.96 500.01,-131.57 499.83,-142.16 506.47,-139.96"/>
</g>
<!-- Node24&#45;&gt;Node10 -->
<g id="edge36" class="edge">
<title>Node24&#45;&gt;Node10</title>
<path fill="none" stroke="midnightblue" d="M525.57,-285.58C424.87,-272.03 69.47,-218.64 4.17,-132 -1.18,-124.9 -1.49,-118.85 4.17,-112 27.95,-83.21 134.59,-72.64 195.37,-68.92"/>
<polygon fill="midnightblue" stroke="midnightblue" points="195.66,-72.41 205.44,-68.34 195.25,-65.42 195.66,-72.41"/>
</g>
<!-- Node24&#45;&gt;Node18 -->
<g id="edge35" class="edge">
<title>Node24&#45;&gt;Node18</title>
<path fill="none" stroke="midnightblue" d="M552.3,-280.44C552.57,-261.94 553.17,-216.81 553.17,-179 553.17,-179 553.17,-179 553.17,-121 553.17,-88.63 560.04,-51.44 564.78,-29.66"/>
<polygon fill="midnightblue" stroke="midnightblue" points="568.22,-30.3 567.01,-19.78 561.39,-28.76 568.22,-30.3"/>
</g>
<!-- Node25 -->
<g id="node25" class="node">
<title>Node25</title>
<g id="a_node25"><a xlink:title=" ">
<polygon fill="white" stroke="#bfbfbf" points="689.67,-112.5 689.67,-131.5 734.67,-131.5 734.67,-112.5 689.67,-112.5"/>
<text text-anchor="middle" x="712.17" y="-119.5" font-family="Helvetica,sans-Serif" font-size="10.00">utility</text>
</a>
</g>
</g>
<!-- Node24&#45;&gt;Node25 -->
<g id="edge34" class="edge">
<title>Node24&#45;&gt;Node25</title>
<path fill="none" stroke="midnightblue" d="M559.25,-280.48C576.18,-260.29 620.58,-208.18 661.17,-168 671.66,-157.62 684.06,-146.64 694.01,-138.13"/>
<polygon fill="midnightblue" stroke="midnightblue" points="696.32,-140.76 701.7,-131.63 691.8,-135.42 696.32,-140.76"/>
</g>
<!-- Node26 -->
<g id="node26" class="node">
<title>Node26</title>
<g id="a_node26"><a xlink:href="content_8h.html" target="_top" xlink:title=" ">
<polygon fill="white" stroke="black" points="867.17,-168.5 867.17,-187.5 929.17,-187.5 929.17,-168.5 867.17,-168.5"/>
<text text-anchor="middle" x="898.17" y="-175.5" font-family="Helvetica,sans-Serif" font-size="10.00">content.h</text>
</a>
</g>
</g>
<!-- Node24&#45;&gt;Node26 -->
<g id="edge37" class="edge">
<title>Node24&#45;&gt;Node26</title>
<path fill="none" stroke="midnightblue" d="M578.86,-287.17C641.51,-282.51 796.11,-268.77 841.17,-244 861.43,-232.86 877.94,-211.6 887.88,-196.42"/>
<polygon fill="midnightblue" stroke="midnightblue" points="890.87,-198.24 893.2,-187.91 884.94,-194.53 890.87,-198.24"/>
</g>
<!-- Node27 -->
<g id="node27" class="node">
<title>Node27</title>
<g id="a_node27"><a xlink:href="node_8h.html" target="_top" xlink:title=" ">
<polygon fill="white" stroke="black" points="670.17,-168.5 670.17,-187.5 720.17,-187.5 720.17,-168.5 670.17,-168.5"/>
<text text-anchor="middle" x="695.17" y="-175.5" font-family="Helvetica,sans-Serif" font-size="10.00">node.h</text>
</a>
</g>
</g>
<!-- Node24&#45;&gt;Node27 -->
<g id="edge40" class="edge">
<title>Node24&#45;&gt;Node27</title>
<path fill="none" stroke="midnightblue" d="M566.82,-280.5C581.3,-271.89 603.87,-257.89 622.17,-244 642.5,-228.56 664.15,-208.81 678.55,-195.16"/>
<polygon fill="midnightblue" stroke="midnightblue" points="681.32,-197.35 686.12,-187.9 676.48,-192.29 681.32,-197.35"/>
</g>
<!-- Node28 -->
<g id="node28" class="node">
<title>Node28</title>
<g id="a_node28"><a xlink:href="node__traits_8h.html" target="_top" xlink:title=" ">
<polygon fill="white" stroke="black" points="752.17,-224.5 752.17,-243.5 832.17,-243.5 832.17,-224.5 752.17,-224.5"/>
<text text-anchor="middle" x="792.17" y="-231.5" font-family="Helvetica,sans-Serif" font-size="10.00">node_traits.h</text>
</a>
</g>
</g>
<!-- Node24&#45;&gt;Node28 -->
<g id="edge45" class="edge">
<title>Node24&#45;&gt;Node28</title>
<path fill="none" stroke="midnightblue" d="M578.77,-283.01C618.62,-274.05 694.43,-256.99 744.12,-245.81"/>
<polygon fill="midnightblue" stroke="midnightblue" points="745.02,-249.2 754,-243.59 743.48,-242.37 745.02,-249.2"/>
</g>
<!-- Node26&#45;&gt;Node19 -->
<g id="edge38" class="edge">
<title>Node26&#45;&gt;Node19</title>
<path fill="none" stroke="midnightblue" d="M866.97,-170.81C821.12,-161.7 734.96,-144.6 679.1,-133.51"/>
<polygon fill="midnightblue" stroke="midnightblue" points="679.53,-130.03 669.04,-131.51 678.16,-136.89 679.53,-130.03"/>
</g>
<!-- Node26&#45;&gt;Node20 -->
<g id="edge39" class="edge">
<title>Node26&#45;&gt;Node20</title>
<path fill="none" stroke="midnightblue" d="M894.13,-168.27C887.4,-154.59 872.7,-128.01 853.17,-112 834.87,-96.99 810.8,-86.15 790.42,-78.88"/>
<polygon fill="midnightblue" stroke="midnightblue" points="791.35,-75.5 780.76,-75.59 789.1,-82.12 791.35,-75.5"/>
</g>
<!-- Node27&#45;&gt;Node11 -->
<g id="edge42" class="edge">
<title>Node27&#45;&gt;Node11</title>
<path fill="none" stroke="midnightblue" d="M669.88,-173.5C602.65,-164.19 419.34,-138.81 341.21,-127.99"/>
<polygon fill="midnightblue" stroke="midnightblue" points="341.29,-124.47 330.91,-126.56 340.33,-131.4 341.29,-124.47"/>
</g>
<!-- Node27&#45;&gt;Node14 -->
<g id="edge43" class="edge">
<title>Node27&#45;&gt;Node14</title>
<path fill="none" stroke="midnightblue" d="M709.8,-168.49C728.7,-156.36 757.66,-133.23 744.17,-112 737.14,-100.94 708.23,-88.26 683.96,-79.19"/>
<polygon fill="midnightblue" stroke="midnightblue" points="684.85,-75.79 674.26,-75.66 682.46,-82.37 684.85,-75.79"/>
</g>
<!-- Node27&#45;&gt;Node19 -->
<g id="edge41" class="edge">
<title>Node27&#45;&gt;Node19</title>
<path fill="none" stroke="midnightblue" d="M684.08,-168.32C673.68,-160.18 657.91,-147.84 645.45,-138.09"/>
<polygon fill="midnightblue" stroke="midnightblue" points="647.49,-135.24 637.46,-131.83 643.17,-140.75 647.49,-135.24"/>
</g>
<!-- Node27&#45;&gt;Node25 -->
<g id="edge44" class="edge">
<title>Node27&#45;&gt;Node25</title>
<path fill="none" stroke="midnightblue" d="M697.98,-168.08C700.25,-160.85 703.54,-150.41 706.38,-141.4"/>
<polygon fill="midnightblue" stroke="midnightblue" points="709.75,-142.34 709.41,-131.75 703.07,-140.24 709.75,-142.34"/>
</g>
<!-- Node28&#45;&gt;Node14 -->
<g id="edge46" class="edge">
<title>Node28&#45;&gt;Node14</title>
<path fill="none" stroke="midnightblue" d="M797.91,-224.34C811.34,-202.9 841.7,-146.63 815.17,-112 811.19,-106.81 735.37,-87.86 687.28,-76.27"/>
<polygon fill="midnightblue" stroke="midnightblue" points="688.01,-72.85 677.47,-73.92 686.38,-79.66 688.01,-72.85"/>
</g>
<!-- Node28&#45;&gt;Node16 -->
<g id="edge49" class="edge">
<title>Node28&#45;&gt;Node16</title>
<path fill="none" stroke="midnightblue" d="M791.52,-224.32C789.34,-201.84 780.25,-141.41 744.17,-112 712.81,-86.44 599.5,-74.58 534.98,-69.79"/>
<polygon fill="midnightblue" stroke="midnightblue" points="534.9,-66.27 524.68,-69.05 534.4,-73.25 534.9,-66.27"/>
</g>
<!-- Node28&#45;&gt;Node26 -->
<g id="edge47" class="edge">
<title>Node28&#45;&gt;Node26</title>
<path fill="none" stroke="midnightblue" d="M809.2,-224.32C826.2,-215.66 852.54,-202.24 872.16,-192.25"/>
<polygon fill="midnightblue" stroke="midnightblue" points="873.86,-195.31 881.18,-187.65 870.68,-189.08 873.86,-195.31"/>
</g>
<!-- Node28&#45;&gt;Node27 -->
<g id="edge48" class="edge">
<title>Node28&#45;&gt;Node27</title>
<path fill="none" stroke="midnightblue" d="M776.58,-224.32C761.17,-215.74 737.36,-202.49 719.46,-192.52"/>
<polygon fill="midnightblue" stroke="midnightblue" points="721.15,-189.46 710.71,-187.65 717.75,-195.58 721.15,-189.46"/>
</g>
<!-- Node29&#45;&gt;Node11 -->
<g id="edge51" class="edge">
<title>Node29&#45;&gt;Node11</title>
<path fill="none" stroke="midnightblue" d="M396,-280.43C377.59,-264.32 338.86,-227.58 319.17,-188 311.94,-173.47 308.43,-155.29 306.73,-141.85"/>
<polygon fill="midnightblue" stroke="midnightblue" points="310.21,-141.45 305.69,-131.87 303.25,-142.17 310.21,-141.45"/>
</g>
<!-- Node30&#45;&gt;Node22 -->
<g id="edge55" class="edge">
<title>Node30&#45;&gt;Node22</title>
<path fill="none" stroke="midnightblue" d="M464.89,-448.32C455.33,-440.26 440.89,-428.08 429.38,-418.37"/>
<polygon fill="midnightblue" stroke="midnightblue" points="431.54,-415.61 421.64,-411.83 427.02,-420.96 431.54,-415.61"/>
</g>
<!-- Node30&#45;&gt;Node23 -->
<g id="edge54" class="edge">
<title>Node30&#45;&gt;Node23</title>
<path fill="none" stroke="midnightblue" d="M475.17,-448.37C475.17,-430.62 475.17,-389.67 475.17,-365.6"/>
<polygon fill="midnightblue" stroke="midnightblue" points="478.67,-365.59 475.17,-355.59 471.67,-365.59 478.67,-365.59"/>
</g>
<!-- Node30&#45;&gt;Node24 -->
<g id="edge53" class="edge">
<title>Node30&#45;&gt;Node24</title>
<path fill="none" stroke="midnightblue" d="M479.31,-448.08C491.53,-421.72 527.64,-343.88 543.98,-308.66"/>
<polygon fill="midnightblue" stroke="midnightblue" points="547.16,-310.11 548.19,-299.57 540.81,-307.17 547.16,-310.11"/>
</g>
<!-- Node30&#45;&gt;Node26 -->
<g id="edge56" class="edge">
<title>Node30&#45;&gt;Node26</title>
<path fill="none" stroke="midnightblue" d="M516.5,-448.45C622.93,-426.15 898.17,-366.59 898.17,-347 898.17,-347 898.17,-347 898.17,-289 898.17,-256.95 898.17,-219.64 898.17,-197.75"/>
<polygon fill="midnightblue" stroke="midnightblue" points="901.67,-197.56 898.17,-187.56 894.67,-197.56 901.67,-197.56"/>
</g>
<!-- Node31&#45;&gt;Node30 -->
<g id="edge58" class="edge">
<title>Node31&#45;&gt;Node30</title>
<path fill="none" stroke="midnightblue" d="M503.55,-504.08C498.8,-496.53 491.85,-485.49 486.02,-476.23"/>
<polygon fill="midnightblue" stroke="midnightblue" points="488.97,-474.35 480.68,-467.75 483.04,-478.08 488.97,-474.35"/>
</g>
<!-- Node32 -->
<g id="node32" class="node">
<title>Node32</title>
<g id="a_node32"><a xlink:href="ksp__method_8h.html" target="_top" xlink:title=" ">
<polygon fill="white" stroke="black" points="535.17,-448.5 535.17,-467.5 621.17,-467.5 621.17,-448.5 535.17,-448.5"/>
<text text-anchor="middle" x="578.17" y="-455.5" font-family="Helvetica,sans-Serif" font-size="10.00">ksp_method.h</text>
</a>
</g>
</g>
<!-- Node31&#45;&gt;Node32 -->
<g id="edge59" class="edge">
<title>Node31&#45;&gt;Node32</title>
<path fill="none" stroke="midnightblue" d="M520.25,-504.32C530.65,-496.18 546.43,-483.84 558.89,-474.09"/>
<polygon fill="midnightblue" stroke="midnightblue" points="561.16,-476.75 566.88,-467.83 556.85,-471.24 561.16,-476.75"/>
</g>
</g>
</svg>
