<?xml version="1.0" encoding="UTF-8" standalone="no"?>
<!DOCTYPE svg PUBLIC "-//W3C//DTD SVG 1.1//EN"
 "http://www.w3.org/Graphics/SVG/1.1/DTD/svg11.dtd">
<!-- Generated by graphviz version 2.43.0 (0)
 -->
<!-- Title: include/Network/graph_traits.h Pages: 1 -->
<svg width="639pt" height="820pt"
 viewBox="0.00 0.00 638.50 820.00" xmlns="http://www.w3.org/2000/svg" xmlns:xlink="http://www.w3.org/1999/xlink">
<g id="graph0" class="graph" transform="scale(1 1) rotate(0) translate(4 816)">
<title>include/Network/graph_traits.h</title>
<polygon fill="white" stroke="transparent" points="-4,4 -4,-816 634.5,-816 634.5,4 -4,4"/>
<!-- Node1 -->
<g id="node1" class="node">
<title>Node1</title>
<g id="a_node1"><a xlink:title=" ">
<polygon fill="#bfbfbf" stroke="black" points="335,-781.5 335,-811.5 462,-811.5 462,-781.5 335,-781.5"/>
<text text-anchor="start" x="343" y="-799.5" font-family="Helvetica,sans-Serif" font-size="10.00">include/Network/graph</text>
<text text-anchor="middle" x="398.5" y="-788.5" font-family="Helvetica,sans-Serif" font-size="10.00">_traits.h</text>
</a>
</g>
</g>
<!-- Node2 -->
<g id="node2" class="node">
<title>Node2</title>
<g id="a_node2"><a xlink:href="butcher_8h.html" target="_top" xlink:title=" ">
<polygon fill="white" stroke="black" points="307.5,-268.5 307.5,-287.5 447.5,-287.5 447.5,-268.5 307.5,-268.5"/>
<text text-anchor="middle" x="377.5" y="-275.5" font-family="Helvetica,sans-Serif" font-size="10.00">include/Butcher/butcher.h</text>
</a>
</g>
</g>
<!-- Node1&#45;&gt;Node2 -->
<g id="edge1" class="edge">
<title>Node1&#45;&gt;Node2</title>
<path fill="none" stroke="midnightblue" d="M471.99,-782.57C495.16,-775.12 518.98,-763.41 535.5,-745 558.75,-719.09 554.5,-703.82 554.5,-669 554.5,-669 554.5,-669 554.5,-416.5 554.5,-343.54 459.55,-303.69 408.74,-287.59"/>
<polygon fill="midnightblue" stroke="midnightblue" points="470.71,-779.29 462.13,-785.5 472.71,-786 470.71,-779.29"/>
</g>
<!-- Node3 -->
<g id="node3" class="node">
<title>Node3</title>
<g id="a_node3"><a xlink:href="onnx__importer__helpers_8h.html" target="_top" xlink:title=" ">
<polygon fill="white" stroke="black" points="433,-196 433,-226 574,-226 574,-196 433,-196"/>
<text text-anchor="start" x="441" y="-214" font-family="Helvetica,sans-Serif" font-size="10.00">include/IO_Interaction</text>
<text text-anchor="middle" x="503.5" y="-203" font-family="Helvetica,sans-Serif" font-size="10.00">/onnx_importer_helpers.h</text>
</a>
</g>
</g>
<!-- Node1&#45;&gt;Node3 -->
<g id="edge19" class="edge">
<title>Node1&#45;&gt;Node3</title>
<path fill="none" stroke="midnightblue" d="M472.35,-784.56C500.93,-777.27 532.28,-765.14 555.5,-745 583.88,-720.38 592.5,-706.57 592.5,-669 592.5,-669 592.5,-669 592.5,-338.5 592.5,-290.17 548.5,-247.26 522.37,-226.05"/>
<polygon fill="midnightblue" stroke="midnightblue" points="471.29,-781.22 462.37,-786.95 472.91,-788.03 471.29,-781.22"/>
</g>
<!-- Node8 -->
<g id="node8" class="node">
<title>Node8</title>
<g id="a_node8"><a xlink:href="network__butcher_8h.html" target="_top" xlink:title=" ">
<polygon fill="white" stroke="black" points="320,-56.5 320,-75.5 465,-75.5 465,-56.5 320,-56.5"/>
<text text-anchor="middle" x="392.5" y="-63.5" font-family="Helvetica,sans-Serif" font-size="10.00">include/network_butcher.h</text>
</a>
</g>
</g>
<!-- Node1&#45;&gt;Node8 -->
<g id="edge32" class="edge">
<title>Node1&#45;&gt;Node8</title>
<path fill="none" stroke="midnightblue" d="M472.05,-786.41C540,-773.42 630.5,-742.35 630.5,-669 630.5,-669 630.5,-669 630.5,-210 630.5,-162.61 624.87,-142.37 588.5,-112 568.74,-95.5 506.68,-83.07 457.63,-75.5"/>
<polygon fill="midnightblue" stroke="midnightblue" points="471.42,-782.97 462.2,-788.2 472.67,-789.86 471.42,-782.97"/>
</g>
<!-- Node11 -->
<g id="node11" class="node">
<title>Node11</title>
<g id="a_node11"><a xlink:href="onnx__model__reconstructor__helpers_8h.html" target="_top" xlink:title=" ">
<polygon fill="white" stroke="black" points="25,-190.5 25,-231.5 174,-231.5 174,-190.5 25,-190.5"/>
<text text-anchor="start" x="33" y="-219.5" font-family="Helvetica,sans-Serif" font-size="10.00">include/IO_Interaction</text>
<text text-anchor="start" x="33" y="-208.5" font-family="Helvetica,sans-Serif" font-size="10.00">/onnx_model_reconstructor</text>
<text text-anchor="middle" x="99.5" y="-197.5" font-family="Helvetica,sans-Serif" font-size="10.00">_helpers.h</text>
</a>
</g>
</g>
<!-- Node1&#45;&gt;Node11 -->
<g id="edge20" class="edge">
<title>Node1&#45;&gt;Node11</title>
<path fill="none" stroke="midnightblue" d="M324.5,-787.12C210.14,-772.07 3.5,-735.66 3.5,-669 3.5,-669 3.5,-669 3.5,-338.5 3.5,-293.15 43.14,-253.85 71.47,-231.55"/>
<polygon fill="midnightblue" stroke="midnightblue" points="324.23,-790.61 334.6,-788.42 325.13,-783.67 324.23,-790.61"/>
</g>
<!-- Node13 -->
<g id="node13" class="node">
<title>Node13</title>
<g id="a_node13"><a xlink:href="graph__constraint_8h.html" target="_top" xlink:title=" ">
<polygon fill="white" stroke="black" points="327,-653 327,-683 450,-683 450,-653 327,-653"/>
<text text-anchor="start" x="335" y="-671" font-family="Helvetica,sans-Serif" font-size="10.00">include/Butcher/graph</text>
<text text-anchor="middle" x="388.5" y="-660" font-family="Helvetica,sans-Serif" font-size="10.00">_constraint.h</text>
</a>
</g>
</g>
<!-- Node1&#45;&gt;Node13 -->
<g id="edge14" class="edge">
<title>Node1&#45;&gt;Node13</title>
<path fill="none" stroke="midnightblue" d="M380.29,-772.8C374.73,-764.54 369.35,-754.81 366.5,-745 360.22,-723.37 371.02,-698.26 379.59,-683.01"/>
<polygon fill="midnightblue" stroke="midnightblue" points="377.59,-775.05 386.26,-781.12 383.27,-770.96 377.59,-775.05"/>
</g>
<!-- Node15 -->
<g id="node15" class="node">
<title>Node15</title>
<g id="a_node15"><a xlink:href="path__converter_8h.html" target="_top" xlink:title=" ">
<polygon fill="white" stroke="black" points="32,-575 32,-605 149,-605 149,-575 32,-575"/>
<text text-anchor="start" x="40" y="-593" font-family="Helvetica,sans-Serif" font-size="10.00">include/Butcher/path</text>
<text text-anchor="middle" x="90.5" y="-582" font-family="Helvetica,sans-Serif" font-size="10.00">_converter.h</text>
</a>
</g>
</g>
<!-- Node1&#45;&gt;Node15 -->
<g id="edge17" class="edge">
<title>Node1&#45;&gt;Node15</title>
<path fill="none" stroke="midnightblue" d="M335.73,-778.35C283.78,-761.83 210.21,-732.82 157.5,-689 128.82,-665.15 107.2,-626.04 97,-605.16"/>
<polygon fill="midnightblue" stroke="midnightblue" points="334.91,-781.76 345.5,-781.39 336.99,-775.08 334.91,-781.76"/>
</g>
<!-- Node16 -->
<g id="node16" class="node">
<title>Node16</title>
<g id="a_node16"><a xlink:href="weight__importer_8h.html" target="_top" xlink:title=" ">
<polygon fill="white" stroke="black" points="166,-647.5 166,-688.5 309,-688.5 309,-647.5 166,-647.5"/>
<text text-anchor="start" x="174" y="-676.5" font-family="Helvetica,sans-Serif" font-size="10.00">include/IO_Interaction</text>
<text text-anchor="start" x="174" y="-665.5" font-family="Helvetica,sans-Serif" font-size="10.00">/Weight_Importer_Helpers</text>
<text text-anchor="middle" x="237.5" y="-654.5" font-family="Helvetica,sans-Serif" font-size="10.00">/weight_importer.h</text>
</a>
</g>
</g>
<!-- Node1&#45;&gt;Node16 -->
<g id="edge21" class="edge">
<title>Node1&#45;&gt;Node16</title>
<path fill="none" stroke="midnightblue" d="M372.66,-775.2C342.36,-751.39 292.49,-712.2 262.54,-688.67"/>
<polygon fill="midnightblue" stroke="midnightblue" points="370.63,-778.05 380.66,-781.48 374.95,-772.55 370.63,-778.05"/>
</g>
<!-- Node22 -->
<g id="node22" class="node">
<title>Node22</title>
<g id="a_node22"><a xlink:href="parameters_8h.html" target="_top" xlink:title=" ">
<polygon fill="white" stroke="black" points="375,-725.5 375,-744.5 526,-744.5 526,-725.5 375,-725.5"/>
<text text-anchor="middle" x="450.5" y="-732.5" font-family="Helvetica,sans-Serif" font-size="10.00">include/Types/parameters.h</text>
</a>
</g>
</g>
<!-- Node1&#45;&gt;Node22 -->
<g id="edge33" class="edge">
<title>Node1&#45;&gt;Node22</title>
<path fill="none" stroke="midnightblue" d="M417.55,-773.7C426.35,-763.64 436.29,-752.26 442.93,-744.66"/>
<polygon fill="midnightblue" stroke="midnightblue" points="414.77,-771.57 410.82,-781.4 420.04,-776.17 414.77,-771.57"/>
</g>
<!-- Node2&#45;&gt;Node3 -->
<g id="edge2" class="edge">
<title>Node2&#45;&gt;Node3</title>
<path fill="none" stroke="midnightblue" d="M403.29,-263.69C424.49,-252.76 454.44,-237.31 476.07,-226.15"/>
<polygon fill="midnightblue" stroke="midnightblue" points="401.51,-260.67 394.23,-268.37 404.72,-266.89 401.51,-260.67"/>
</g>
<!-- Node2&#45;&gt;Node8 -->
<g id="edge13" class="edge">
<title>Node2&#45;&gt;Node8</title>
<path fill="none" stroke="midnightblue" d="M378.85,-258.12C381.98,-214.34 389.63,-107.21 391.87,-75.79"/>
<polygon fill="midnightblue" stroke="midnightblue" points="375.35,-258.02 378.13,-268.24 382.33,-258.52 375.35,-258.02"/>
</g>
<!-- Node2&#45;&gt;Node11 -->
<g id="edge10" class="edge">
<title>Node2&#45;&gt;Node11</title>
<path fill="none" stroke="midnightblue" d="M331.02,-266.13C288.25,-256.13 224.08,-241.13 174.14,-229.45"/>
<polygon fill="midnightblue" stroke="midnightblue" points="330.34,-269.57 340.87,-268.44 331.93,-262.75 330.34,-269.57"/>
</g>
<!-- Node4 -->
<g id="node4" class="node">
<title>Node4</title>
<g id="a_node4"><a xlink:href="io__manager_8h.html" target="_top" xlink:title=" ">
<polygon fill="white" stroke="black" points="167,-123.5 167,-142.5 288,-142.5 288,-123.5 167,-123.5"/>
<text text-anchor="middle" x="227.5" y="-130.5" font-family="Helvetica,sans-Serif" font-size="10.00">include/io_manager.h</text>
</a>
</g>
</g>
<!-- Node3&#45;&gt;Node4 -->
<g id="edge3" class="edge">
<title>Node3&#45;&gt;Node4</title>
<path fill="none" stroke="midnightblue" d="M442.59,-193.23C385.63,-177.54 302.87,-154.75 258.44,-142.52"/>
<polygon fill="midnightblue" stroke="midnightblue" points="441.99,-196.69 452.56,-195.97 443.84,-189.94 441.99,-196.69"/>
</g>
<!-- Node10 -->
<g id="node10" class="node">
<title>Node10</title>
<g id="a_node10"><a xlink:href="onnx__importer__helpers_8cpp.html" target="_top" xlink:title=" ">
<polygon fill="white" stroke="black" points="427.5,-118 427.5,-148 579.5,-148 579.5,-118 427.5,-118"/>
<text text-anchor="start" x="435.5" y="-136" font-family="Helvetica,sans-Serif" font-size="10.00">src/IO_Interaction</text>
<text text-anchor="middle" x="503.5" y="-125" font-family="Helvetica,sans-Serif" font-size="10.00">/onnx_importer_helpers.cpp</text>
</a>
</g>
</g>
<!-- Node3&#45;&gt;Node10 -->
<g id="edge9" class="edge">
<title>Node3&#45;&gt;Node10</title>
<path fill="none" stroke="midnightblue" d="M503.5,-185.59C503.5,-173.26 503.5,-158.72 503.5,-148.23"/>
<polygon fill="midnightblue" stroke="midnightblue" points="500,-185.7 503.5,-195.7 507,-185.71 500,-185.7"/>
</g>
<!-- Node5 -->
<g id="node5" class="node">
<title>Node5</title>
<g id="a_node5"><a xlink:href="general__manager_8h.html" target="_top" xlink:title=" ">
<polygon fill="white" stroke="black" points="153,-56.5 153,-75.5 302,-75.5 302,-56.5 153,-56.5"/>
<text text-anchor="middle" x="227.5" y="-63.5" font-family="Helvetica,sans-Serif" font-size="10.00">include/general_manager.h</text>
</a>
</g>
</g>
<!-- Node4&#45;&gt;Node5 -->
<g id="edge4" class="edge">
<title>Node4&#45;&gt;Node5</title>
<path fill="none" stroke="midnightblue" d="M227.5,-113.04C227.5,-100.67 227.5,-85.12 227.5,-75.63"/>
<polygon fill="midnightblue" stroke="midnightblue" points="224,-113.23 227.5,-123.23 231,-113.23 224,-113.23"/>
</g>
<!-- Node4&#45;&gt;Node8 -->
<g id="edge7" class="edge">
<title>Node4&#45;&gt;Node8</title>
<path fill="none" stroke="midnightblue" d="M258.97,-119.6C291.73,-106.7 342.17,-86.83 370.76,-75.56"/>
<polygon fill="midnightblue" stroke="midnightblue" points="257.43,-116.45 249.41,-123.37 260,-122.96 257.43,-116.45"/>
</g>
<!-- Node9 -->
<g id="node9" class="node">
<title>Node9</title>
<g id="a_node9"><a xlink:href="io__manager_8cpp.html" target="_top" xlink:title=" ">
<polygon fill="white" stroke="black" points="24,-56.5 24,-75.5 135,-75.5 135,-56.5 24,-56.5"/>
<text text-anchor="middle" x="79.5" y="-63.5" font-family="Helvetica,sans-Serif" font-size="10.00">src/io_manager.cpp</text>
</a>
</g>
</g>
<!-- Node4&#45;&gt;Node9 -->
<g id="edge8" class="edge">
<title>Node4&#45;&gt;Node9</title>
<path fill="none" stroke="midnightblue" d="M198.54,-119.28C169.23,-106.41 124.71,-86.85 99.23,-75.67"/>
<polygon fill="midnightblue" stroke="midnightblue" points="197.28,-122.55 207.85,-123.37 200.1,-116.14 197.28,-122.55"/>
</g>
<!-- Node6 -->
<g id="node6" class="node">
<title>Node6</title>
<g id="a_node6"><a xlink:href="general__manager_8cpp.html" target="_top" xlink:title=" ">
<polygon fill="white" stroke="black" points="94,-0.5 94,-19.5 233,-19.5 233,-0.5 94,-0.5"/>
<text text-anchor="middle" x="163.5" y="-7.5" font-family="Helvetica,sans-Serif" font-size="10.00">src/general_manager.cpp</text>
</a>
</g>
</g>
<!-- Node5&#45;&gt;Node6 -->
<g id="edge5" class="edge">
<title>Node5&#45;&gt;Node6</title>
<path fill="none" stroke="midnightblue" d="M209.51,-49.82C198.04,-40.15 183.59,-27.95 173.97,-19.83"/>
<polygon fill="midnightblue" stroke="midnightblue" points="207.32,-52.55 217.22,-56.32 211.83,-47.2 207.32,-52.55"/>
</g>
<!-- Node7 -->
<g id="node7" class="node">
<title>Node7</title>
<g id="a_node7"><a xlink:href="main_8cpp.html" target="_top" xlink:title=" ">
<polygon fill="white" stroke="black" points="251,-0.5 251,-19.5 330,-19.5 330,-0.5 251,-0.5"/>
<text text-anchor="middle" x="290.5" y="-7.5" font-family="Helvetica,sans-Serif" font-size="10.00">src/main.cpp</text>
</a>
</g>
</g>
<!-- Node5&#45;&gt;Node7 -->
<g id="edge6" class="edge">
<title>Node5&#45;&gt;Node7</title>
<path fill="none" stroke="midnightblue" d="M245.54,-49.54C256.77,-39.91 270.82,-27.87 280.19,-19.83"/>
<polygon fill="midnightblue" stroke="midnightblue" points="242.94,-47.16 237.62,-56.32 247.49,-52.47 242.94,-47.16"/>
</g>
<!-- Node11&#45;&gt;Node4 -->
<g id="edge11" class="edge">
<title>Node11&#45;&gt;Node4</title>
<path fill="none" stroke="midnightblue" d="M141.31,-185.17C166.04,-170.49 195.8,-152.82 213.1,-142.55"/>
<polygon fill="midnightblue" stroke="midnightblue" points="139.27,-182.31 132.46,-190.43 142.85,-188.33 139.27,-182.31"/>
</g>
<!-- Node12 -->
<g id="node12" class="node">
<title>Node12</title>
<g id="a_node12"><a xlink:href="onnx__model__reconstructor__helpers_8cpp.html" target="_top" xlink:title=" ">
<polygon fill="white" stroke="black" points="0,-112.5 0,-153.5 149,-153.5 149,-112.5 0,-112.5"/>
<text text-anchor="start" x="8" y="-141.5" font-family="Helvetica,sans-Serif" font-size="10.00">src/IO_Interaction</text>
<text text-anchor="start" x="8" y="-130.5" font-family="Helvetica,sans-Serif" font-size="10.00">/onnx_model_reconstructor</text>
<text text-anchor="middle" x="74.5" y="-119.5" font-family="Helvetica,sans-Serif" font-size="10.00">_helpers.cpp</text>
</a>
</g>
</g>
<!-- Node11&#45;&gt;Node12 -->
<g id="edge12" class="edge">
<title>Node11&#45;&gt;Node12</title>
<path fill="none" stroke="midnightblue" d="M89.92,-180.88C86.91,-171.72 83.65,-161.83 80.92,-153.51"/>
<polygon fill="midnightblue" stroke="midnightblue" points="86.61,-182.02 93.06,-190.43 93.26,-179.84 86.61,-182.02"/>
</g>
<!-- Node14 -->
<g id="node14" class="node">
<title>Node14</title>
<g id="a_node14"><a xlink:href="constrained__block__graph__builder_8h.html" target="_top" xlink:title=" ">
<polygon fill="white" stroke="black" points="298.5,-324.5 298.5,-354.5 450.5,-354.5 450.5,-324.5 298.5,-324.5"/>
<text text-anchor="start" x="306.5" y="-342.5" font-family="Helvetica,sans-Serif" font-size="10.00">include/Butcher/constrained</text>
<text text-anchor="middle" x="374.5" y="-331.5" font-family="Helvetica,sans-Serif" font-size="10.00">_block_graph_builder.h</text>
</a>
</g>
</g>
<!-- Node13&#45;&gt;Node14 -->
<g id="edge15" class="edge">
<title>Node13&#45;&gt;Node14</title>
<path fill="none" stroke="midnightblue" d="M398.64,-643.52C418.18,-594.66 456.21,-479.26 421.5,-391 415.8,-376.51 403.77,-363.71 393.31,-354.63"/>
<polygon fill="midnightblue" stroke="midnightblue" points="395.35,-642.32 394.78,-652.9 401.82,-644.98 395.35,-642.32"/>
</g>
<!-- Node14&#45;&gt;Node2 -->
<g id="edge16" class="edge">
<title>Node14&#45;&gt;Node2</title>
<path fill="none" stroke="midnightblue" d="M375.72,-314.29C376.2,-304.86 376.71,-294.65 377.06,-287.66"/>
<polygon fill="midnightblue" stroke="midnightblue" points="372.22,-314.24 375.21,-324.4 379.21,-314.59 372.22,-314.24"/>
</g>
<!-- Node15&#45;&gt;Node2 -->
<g id="edge18" class="edge">
<title>Node15&#45;&gt;Node2</title>
<path fill="none" stroke="midnightblue" d="M86.38,-564.96C80.81,-523.88 76.06,-439.86 119.5,-391 174.49,-329.14 269.77,-300.1 327.87,-287.53"/>
<polygon fill="midnightblue" stroke="midnightblue" points="82.93,-565.52 87.86,-574.89 89.85,-564.49 82.93,-565.52"/>
</g>
<!-- Node17 -->
<g id="node17" class="node">
<title>Node17</title>
<g id="a_node17"><a xlink:href="block__aMLLibrary__weight__importer_8h.html" target="_top" xlink:title=" ">
<polygon fill="white" stroke="black" points="269,-480.5 269,-532.5 412,-532.5 412,-480.5 269,-480.5"/>
<text text-anchor="start" x="277" y="-520.5" font-family="Helvetica,sans-Serif" font-size="10.00">include/IO_Interaction</text>
<text text-anchor="start" x="277" y="-509.5" font-family="Helvetica,sans-Serif" font-size="10.00">/Weight_Importer_Helpers</text>
<text text-anchor="start" x="277" y="-498.5" font-family="Helvetica,sans-Serif" font-size="10.00">/block_aMLLibrary_weight</text>
<text text-anchor="middle" x="340.5" y="-487.5" font-family="Helvetica,sans-Serif" font-size="10.00">_importer.h</text>
</a>
</g>
</g>
<!-- Node16&#45;&gt;Node17 -->
<g id="edge22" class="edge">
<title>Node16&#45;&gt;Node17</title>
<path fill="none" stroke="midnightblue" d="M287.4,-641.86C299.55,-633.56 311.37,-623.25 319.5,-611 335.01,-587.63 339.48,-555.22 340.57,-532.93"/>
<polygon fill="midnightblue" stroke="midnightblue" points="285.5,-638.92 278.98,-647.28 289.29,-644.81 285.5,-638.92"/>
</g>
<!-- Node20 -->
<g id="node20" class="node">
<title>Node20</title>
<g id="a_node20"><a xlink:href="csv__weight__importer_8h.html" target="_top" xlink:title=" ">
<polygon fill="white" stroke="black" points="167,-569.5 167,-610.5 310,-610.5 310,-569.5 167,-569.5"/>
<text text-anchor="start" x="175" y="-598.5" font-family="Helvetica,sans-Serif" font-size="10.00">include/IO_Interaction</text>
<text text-anchor="start" x="175" y="-587.5" font-family="Helvetica,sans-Serif" font-size="10.00">/Weight_Importer_Helpers</text>
<text text-anchor="middle" x="238.5" y="-576.5" font-family="Helvetica,sans-Serif" font-size="10.00">/csv_weight_importer.h</text>
</a>
</g>
</g>
<!-- Node16&#45;&gt;Node20 -->
<g id="edge28" class="edge">
<title>Node16&#45;&gt;Node20</title>
<path fill="none" stroke="midnightblue" d="M237.89,-637.3C238.01,-628.3 238.14,-618.65 238.24,-610.51"/>
<polygon fill="midnightblue" stroke="midnightblue" points="234.39,-637.38 237.76,-647.43 241.39,-637.48 234.39,-637.38"/>
</g>
<!-- Node18 -->
<g id="node18" class="node">
<title>Node18</title>
<g id="a_node18"><a xlink:href="weight__importers_8h.html" target="_top" xlink:title=" ">
<polygon fill="white" stroke="black" points="128,-402.5 128,-432.5 251,-432.5 251,-402.5 128,-402.5"/>
<text text-anchor="start" x="136" y="-420.5" font-family="Helvetica,sans-Serif" font-size="10.00">include/IO_Interaction</text>
<text text-anchor="middle" x="189.5" y="-409.5" font-family="Helvetica,sans-Serif" font-size="10.00">/weight_importers.h</text>
</a>
</g>
</g>
<!-- Node17&#45;&gt;Node18 -->
<g id="edge23" class="edge">
<title>Node17&#45;&gt;Node18</title>
<path fill="none" stroke="midnightblue" d="M288.08,-475.3C262.85,-460.76 233.82,-444.03 213.83,-432.52"/>
<polygon fill="midnightblue" stroke="midnightblue" points="286.41,-478.38 296.82,-480.34 289.91,-472.31 286.41,-478.38"/>
</g>
<!-- Node19 -->
<g id="node19" class="node">
<title>Node19</title>
<g id="a_node19"><a xlink:href="block__aMLLibrary__weight__importer_8cpp.html" target="_top" xlink:title=" ">
<polygon fill="white" stroke="black" points="269,-391.5 269,-443.5 412,-443.5 412,-391.5 269,-391.5"/>
<text text-anchor="start" x="277" y="-431.5" font-family="Helvetica,sans-Serif" font-size="10.00">src/IO_Interaction</text>
<text text-anchor="start" x="277" y="-420.5" font-family="Helvetica,sans-Serif" font-size="10.00">/Weight_Importer_Helpers</text>
<text text-anchor="start" x="277" y="-409.5" font-family="Helvetica,sans-Serif" font-size="10.00">/block_aMLLibrary_weight</text>
<text text-anchor="middle" x="340.5" y="-398.5" font-family="Helvetica,sans-Serif" font-size="10.00">_importer.cpp</text>
</a>
</g>
</g>
<!-- Node17&#45;&gt;Node19 -->
<g id="edge27" class="edge">
<title>Node17&#45;&gt;Node19</title>
<path fill="none" stroke="midnightblue" d="M340.5,-470.19C340.5,-461.28 340.5,-451.9 340.5,-443.61"/>
<polygon fill="midnightblue" stroke="midnightblue" points="337,-470.34 340.5,-480.34 344,-470.34 337,-470.34"/>
</g>
<!-- Node18&#45;&gt;Node2 -->
<g id="edge24" class="edge">
<title>Node18&#45;&gt;Node2</title>
<path fill="none" stroke="midnightblue" d="M209.41,-394.95C228.63,-374.95 259.2,-345.16 289.5,-324 311.17,-308.87 338.61,-295.66 357.04,-287.53"/>
<polygon fill="midnightblue" stroke="midnightblue" points="206.73,-392.69 202.39,-402.36 211.81,-397.51 206.73,-392.69"/>
</g>
<!-- Node18&#45;&gt;Node4 -->
<g id="edge26" class="edge">
<title>Node18&#45;&gt;Node4</title>
<path fill="none" stroke="midnightblue" d="M192.73,-392.5C200.73,-332.98 221.23,-180.59 226.34,-142.65"/>
<polygon fill="midnightblue" stroke="midnightblue" points="189.25,-392.11 191.38,-402.49 196.19,-393.05 189.25,-392.11"/>
</g>
<!-- Node18&#45;&gt;Node14 -->
<g id="edge25" class="edge">
<title>Node18&#45;&gt;Node14</title>
<path fill="none" stroke="midnightblue" d="M233.2,-398.55C265.95,-385.09 310.13,-366.94 340.32,-354.54"/>
<polygon fill="midnightblue" stroke="midnightblue" points="231.78,-395.35 223.86,-402.38 234.44,-401.82 231.78,-395.35"/>
</g>
<!-- Node20&#45;&gt;Node17 -->
<g id="edge29" class="edge">
<title>Node20&#45;&gt;Node17</title>
<path fill="none" stroke="midnightblue" d="M271.03,-563.01C283.15,-553.32 296.89,-542.35 308.93,-532.73"/>
<polygon fill="midnightblue" stroke="midnightblue" points="268.56,-560.5 262.93,-569.48 272.93,-565.97 268.56,-560.5"/>
</g>
<!-- Node20&#45;&gt;Node18 -->
<g id="edge30" class="edge">
<title>Node20&#45;&gt;Node18</title>
<path fill="none" stroke="midnightblue" d="M159.67,-566.05C132.26,-556.36 106.38,-544.63 98.5,-533 85.29,-513.49 87.45,-500.8 98.5,-480 110.13,-458.11 133.41,-442.59 153.52,-432.62"/>
<polygon fill="midnightblue" stroke="midnightblue" points="158.81,-569.45 169.4,-569.39 161.08,-562.83 158.81,-569.45"/>
</g>
<!-- Node21 -->
<g id="node21" class="node">
<title>Node21</title>
<g id="a_node21"><a xlink:href="csv__weight__importer_8cpp.html" target="_top" xlink:title=" ">
<polygon fill="white" stroke="black" points="108,-486 108,-527 251,-527 251,-486 108,-486"/>
<text text-anchor="start" x="116" y="-515" font-family="Helvetica,sans-Serif" font-size="10.00">src/IO_Interaction</text>
<text text-anchor="start" x="116" y="-504" font-family="Helvetica,sans-Serif" font-size="10.00">/Weight_Importer_Helpers</text>
<text text-anchor="middle" x="179.5" y="-493" font-family="Helvetica,sans-Serif" font-size="10.00">/csv_weight_importer.cpp</text>
</a>
</g>
</g>
<!-- Node20&#45;&gt;Node21 -->
<g id="edge31" class="edge">
<title>Node20&#45;&gt;Node21</title>
<path fill="none" stroke="midnightblue" d="M218.27,-561.05C210.17,-549.86 201.02,-537.23 193.65,-527.05"/>
<polygon fill="midnightblue" stroke="midnightblue" points="215.52,-563.22 224.22,-569.27 221.19,-559.12 215.52,-563.22"/>
</g>
<!-- Node22&#45;&gt;Node2 -->
<g id="edge34" class="edge">
<title>Node22&#45;&gt;Node2</title>
<path fill="none" stroke="midnightblue" d="M456.41,-715.79C464.63,-688.84 478.5,-636.58 478.5,-591 478.5,-591 478.5,-591 478.5,-416.5 478.5,-374.53 484.42,-357.77 459.5,-324 446.29,-306.1 423.73,-294.47 405.62,-287.53"/>
<polygon fill="midnightblue" stroke="midnightblue" points="453.05,-714.82 453.39,-725.41 459.73,-716.92 453.05,-714.82"/>
</g>
<!-- Node22&#45;&gt;Node3 -->
<g id="edge36" class="edge">
<title>Node22&#45;&gt;Node3</title>
<path fill="none" stroke="midnightblue" d="M463.99,-717.36C483.29,-691.82 516.5,-640.65 516.5,-591 516.5,-591 516.5,-591 516.5,-338.5 516.5,-297.66 509.71,-249.78 505.95,-226.37"/>
<polygon fill="midnightblue" stroke="midnightblue" points="461.2,-715.25 457.82,-725.29 466.72,-719.55 461.2,-715.25"/>
</g>
<!-- Node22&#45;&gt;Node13 -->
<g id="edge35" class="edge">
<title>Node22&#45;&gt;Node13</title>
<path fill="none" stroke="midnightblue" d="M435.05,-717.8C424.87,-707.13 411.68,-693.3 401.94,-683.09"/>
<polygon fill="midnightblue" stroke="midnightblue" points="432.7,-720.41 442.14,-725.23 437.77,-715.58 432.7,-720.41"/>
</g>
<!-- Node22&#45;&gt;Node16 -->
<g id="edge37" class="edge">
<title>Node22&#45;&gt;Node16</title>
<path fill="none" stroke="midnightblue" d="M412.34,-722.36C381.66,-712.99 337.89,-699.63 301.81,-688.63"/>
<polygon fill="midnightblue" stroke="midnightblue" points="411.63,-725.8 422.22,-725.37 413.67,-719.1 411.63,-725.8"/>
</g>
</g>
</svg>
