<?xml version="1.0" encoding="UTF-8" standalone="no"?>
<!DOCTYPE svg PUBLIC "-//W3C//DTD SVG 1.1//EN"
 "http://www.w3.org/Graphics/SVG/1.1/DTD/svg11.dtd">
<!-- Generated by graphviz version 2.43.0 (0)
 -->
<!-- Title: include/network_butcher/K&#45;shortest_path/heap_eppstein.h Pages: 1 -->
<!--zoomable 797 -->
<svg id="main" version="1.1" xmlns="http://www.w3.org/2000/svg" xmlns:xlink="http://www.w3.org/1999/xlink" xml:space="preserve" onload="init(evt)">
<style type="text/css"><![CDATA[
.edge:hover path { stroke: red; }
.edge:hover polygon { stroke: red; fill: red; }
]]></style>
<script type="text/javascript"><![CDATA[
var edges = document.getElementsByTagName('g');
if (edges && edges.length) {
  for (var i=0;i<edges.length;i++) {
    if (edges[i].id.substr(0,4)=='edge') {
      edges[i].setAttribute('class','edge');
    }
  }
}
]]></script>
        <defs>
                <circle id="rim" cx="0" cy="0" r="7"/>
                <circle id="rim2" cx="0" cy="0" r="3.5"/>
                <g id="zoomPlus">
                        <use xlink:href="#rim" fill="#404040">
                                <set attributeName="fill" to="#808080" begin="zoomplus.mouseover" end="zoomplus.mouseout"/>
                        </use>
                        <path d="M-4,0h8M0,-4v8" fill="none" stroke="white" stroke-width="1.5" pointer-events="none"/>
                </g>
                <g id="zoomMin">
                        <use xlink:href="#rim" fill="#404040">
                                <set attributeName="fill" to="#808080" begin="zoomminus.mouseover" end="zoomminus.mouseout"/>
                        </use>
                        <path d="M-4,0h8" fill="none" stroke="white" stroke-width="1.5" pointer-events="none"/>
                </g>
                <g id="dirArrow">
                        <path fill="none" stroke="white" stroke-width="1.5" d="M0,-3.0v7 M-2.5,-0.5L0,-3.0L2.5,-0.5"/>
                </g>
               <g id="resetDef">
                       <use xlink:href="#rim2" fill="#404040">
                               <set attributeName="fill" to="#808080" begin="reset.mouseover" end="reset.mouseout"/>
                       </use>
               </g>
        </defs>

<script type="text/javascript">
var viewWidth = 617;
var viewHeight = 797;
var sectionId = 'dynsection-1';
</script>
<script xlink:href="svgpan.js"/>
<svg id="graph" class="graph">
<g id="viewport">
<title>include/network_butcher/K&#45;shortest_path/heap_eppstein.h</title>
<polygon fill="white" stroke="transparent" points="-4,4 -4,-793 612.5,-793 612.5,4 -4,4"/>
<!-- Node1 -->
<g id="node1" class="node">
<title>Node1</title>
<g id="a_node1"><a xlink:title=" ">
<polygon fill="#bfbfbf" stroke="black" points="0,-747.5 0,-788.5 137,-788.5 137,-747.5 0,-747.5"/>
<text text-anchor="start" x="8" y="-776.5" font-family="Helvetica,sans-Serif" font-size="10.00">include/network_butcher</text>
<text text-anchor="start" x="8" y="-765.5" font-family="Helvetica,sans-Serif" font-size="10.00">/K&#45;shortest_path/heap</text>
<text text-anchor="middle" x="68.5" y="-754.5" font-family="Helvetica,sans-Serif" font-size="10.00">_eppstein.h</text>
</a>
</g>
</g>
<!-- Node2 -->
<g id="node2" class="node">
<title>Node2</title>
<g id="a_node2"><a xlink:href="heap__traits_8h.html" target="_top" xlink:title=" ">
<polygon fill="white" stroke="black" points="0,-669.5 0,-710.5 137,-710.5 137,-669.5 0,-669.5"/>
<text text-anchor="start" x="8" y="-698.5" font-family="Helvetica,sans-Serif" font-size="10.00">include/network_butcher</text>
<text text-anchor="start" x="8" y="-687.5" font-family="Helvetica,sans-Serif" font-size="10.00">/K&#45;shortest_path/heap</text>
<text text-anchor="middle" x="68.5" y="-676.5" font-family="Helvetica,sans-Serif" font-size="10.00">_traits.h</text>
</a>
</g>
</g>
<!-- Node1&#45;&gt;Node2 -->
<g id="edge1" class="edge">
<title>Node1&#45;&gt;Node2</title>
<path fill="none" stroke="midnightblue" d="M68.5,-737.3C68.5,-728.3 68.5,-718.65 68.5,-710.51"/>
<polygon fill="midnightblue" stroke="midnightblue" points="65,-737.43 68.5,-747.43 72,-737.43 65,-737.43"/>
</g>
<!-- Node3 -->
<g id="node3" class="node">
<title>Node3</title>
<g id="a_node3"><a xlink:href="basic__keppstein_8h.html" target="_top" xlink:title=" ">
<polygon fill="white" stroke="black" points="89,-513.5 89,-554.5 226,-554.5 226,-513.5 89,-513.5"/>
<text text-anchor="start" x="97" y="-542.5" font-family="Helvetica,sans-Serif" font-size="10.00">include/network_butcher</text>
<text text-anchor="start" x="97" y="-531.5" font-family="Helvetica,sans-Serif" font-size="10.00">/K&#45;shortest_path/basic</text>
<text text-anchor="middle" x="157.5" y="-520.5" font-family="Helvetica,sans-Serif" font-size="10.00">_keppstein.h</text>
</a>
</g>
</g>
<!-- Node2&#45;&gt;Node3 -->
<g id="edge2" class="edge">
<title>Node2&#45;&gt;Node3</title>
<path fill="none" stroke="midnightblue" d="M68.97,-659.13C70.52,-638.66 75.05,-611.59 87.5,-591 96.36,-576.35 110.53,-563.95 123.81,-554.57"/>
<polygon fill="midnightblue" stroke="midnightblue" points="65.48,-658.99 68.41,-669.17 72.47,-659.38 65.48,-658.99"/>
</g>
<!-- Node10 -->
<g id="node10" class="node">
<title>Node10</title>
<g id="a_node10"><a xlink:href="network__butcher_8h.html" target="_top" xlink:title=" ">
<polygon fill="white" stroke="black" points="35,-0.5 35,-30.5 172,-30.5 172,-0.5 35,-0.5"/>
<text text-anchor="start" x="43" y="-18.5" font-family="Helvetica,sans-Serif" font-size="10.00">include/network_butcher</text>
<text text-anchor="middle" x="103.5" y="-7.5" font-family="Helvetica,sans-Serif" font-size="10.00">/network_butcher.h</text>
</a>
</g>
</g>
<!-- Node2&#45;&gt;Node10 -->
<g id="edge23" class="edge">
<title>Node2&#45;&gt;Node10</title>
<path fill="none" stroke="midnightblue" d="M56.83,-659.84C45.66,-629.26 30.5,-579.53 30.5,-535 30.5,-535 30.5,-535 30.5,-154 30.5,-104 68.62,-54.46 89.77,-30.82"/>
<polygon fill="midnightblue" stroke="midnightblue" points="53.65,-661.32 60.44,-669.45 60.2,-658.85 53.65,-661.32"/>
</g>
<!-- Node17 -->
<g id="node17" class="node">
<title>Node17</title>
<g id="a_node17"><a xlink:href="shortest__path__finder_8h.html" target="_top" xlink:title=" ">
<polygon fill="white" stroke="black" points="96.5,-591.5 96.5,-632.5 234.5,-632.5 234.5,-591.5 96.5,-591.5"/>
<text text-anchor="start" x="104.5" y="-620.5" font-family="Helvetica,sans-Serif" font-size="10.00">include/network_butcher</text>
<text text-anchor="start" x="104.5" y="-609.5" font-family="Helvetica,sans-Serif" font-size="10.00">/K&#45;shortest_path/shortest</text>
<text text-anchor="middle" x="165.5" y="-598.5" font-family="Helvetica,sans-Serif" font-size="10.00">_path_finder.h</text>
</a>
</g>
</g>
<!-- Node2&#45;&gt;Node17 -->
<g id="edge21" class="edge">
<title>Node2&#45;&gt;Node17</title>
<path fill="none" stroke="midnightblue" d="M101.6,-663.06C114.37,-653.06 128.74,-641.8 140.6,-632.51"/>
<polygon fill="midnightblue" stroke="midnightblue" points="99.19,-660.51 93.48,-669.43 103.51,-666.02 99.19,-660.51"/>
</g>
<!-- Node4 -->
<g id="node4" class="node">
<title>Node4</title>
<g id="a_node4"><a xlink:href="keppstein_8h.html" target="_top" xlink:title=" ">
<polygon fill="white" stroke="black" points="73,-441 73,-471 228,-471 228,-441 73,-441"/>
<text text-anchor="start" x="81" y="-459" font-family="Helvetica,sans-Serif" font-size="10.00">include/network_butcher</text>
<text text-anchor="middle" x="150.5" y="-448" font-family="Helvetica,sans-Serif" font-size="10.00">/K&#45;shortest_path/keppstein.h</text>
</a>
</g>
</g>
<!-- Node3&#45;&gt;Node4 -->
<g id="edge3" class="edge">
<title>Node3&#45;&gt;Node4</title>
<path fill="none" stroke="midnightblue" d="M154.76,-503.28C153.75,-492.25 152.64,-480.25 151.81,-471.23"/>
<polygon fill="midnightblue" stroke="midnightblue" points="151.29,-503.79 155.7,-513.43 158.27,-503.15 151.29,-503.79"/>
</g>
<!-- Node16 -->
<g id="node16" class="node">
<title>Node16</title>
<g id="a_node16"><a xlink:href="keppstein__lazy_8h.html" target="_top" xlink:title=" ">
<polygon fill="white" stroke="black" points="246.5,-435.5 246.5,-476.5 392.5,-476.5 392.5,-435.5 246.5,-435.5"/>
<text text-anchor="start" x="254.5" y="-464.5" font-family="Helvetica,sans-Serif" font-size="10.00">include/network_butcher</text>
<text text-anchor="start" x="254.5" y="-453.5" font-family="Helvetica,sans-Serif" font-size="10.00">/K&#45;shortest_path/keppstein</text>
<text text-anchor="middle" x="319.5" y="-442.5" font-family="Helvetica,sans-Serif" font-size="10.00">_lazy.h</text>
</a>
</g>
</g>
<!-- Node3&#45;&gt;Node16 -->
<g id="edge19" class="edge">
<title>Node3&#45;&gt;Node16</title>
<path fill="none" stroke="midnightblue" d="M208.55,-509.05C230.9,-498.57 256.78,-486.42 277.92,-476.51"/>
<polygon fill="midnightblue" stroke="midnightblue" points="206.79,-506.01 199.22,-513.43 209.76,-512.35 206.79,-506.01"/>
</g>
<!-- Node5 -->
<g id="node5" class="node">
<title>Node5</title>
<g id="a_node5"><a xlink:href="kfinder__factory_8h.html" target="_top" xlink:title=" ">
<polygon fill="white" stroke="black" points="100,-357.5 100,-398.5 237,-398.5 237,-357.5 100,-357.5"/>
<text text-anchor="start" x="108" y="-386.5" font-family="Helvetica,sans-Serif" font-size="10.00">include/network_butcher</text>
<text text-anchor="start" x="108" y="-375.5" font-family="Helvetica,sans-Serif" font-size="10.00">/K&#45;shortest_path/kfinder</text>
<text text-anchor="middle" x="168.5" y="-364.5" font-family="Helvetica,sans-Serif" font-size="10.00">_factory.h</text>
</a>
</g>
</g>
<!-- Node4&#45;&gt;Node5 -->
<g id="edge4" class="edge">
<title>Node4&#45;&gt;Node5</title>
<path fill="none" stroke="midnightblue" d="M156.27,-430.66C158.71,-420.33 161.53,-408.44 163.84,-398.68"/>
<polygon fill="midnightblue" stroke="midnightblue" points="152.78,-430.17 153.89,-440.7 159.6,-431.78 152.78,-430.17"/>
</g>
<!-- Node6 -->
<g id="node6" class="node">
<title>Node6</title>
<g id="a_node6"><a xlink:href="butcher_8h.html" target="_top" xlink:title=" ">
<polygon fill="white" stroke="black" points="119,-290.5 119,-320.5 256,-320.5 256,-290.5 119,-290.5"/>
<text text-anchor="start" x="127" y="-308.5" font-family="Helvetica,sans-Serif" font-size="10.00">include/network_butcher</text>
<text text-anchor="middle" x="187.5" y="-297.5" font-family="Helvetica,sans-Serif" font-size="10.00">/Butcher/butcher.h</text>
</a>
</g>
</g>
<!-- Node5&#45;&gt;Node6 -->
<g id="edge5" class="edge">
<title>Node5&#45;&gt;Node6</title>
<path fill="none" stroke="midnightblue" d="M176.4,-347.67C178.9,-338.42 181.54,-328.61 183.62,-320.89"/>
<polygon fill="midnightblue" stroke="midnightblue" points="173.02,-346.8 173.79,-357.36 179.77,-348.62 173.02,-346.8"/>
</g>
<!-- Node5&#45;&gt;Node10 -->
<g id="edge18" class="edge">
<title>Node5&#45;&gt;Node10</title>
<path fill="none" stroke="midnightblue" d="M135.19,-350.71C106.1,-324.56 68.5,-281.55 68.5,-234 68.5,-234 68.5,-234 68.5,-154 68.5,-107.69 87.38,-55.24 97.4,-30.65"/>
<polygon fill="midnightblue" stroke="midnightblue" points="132.91,-353.37 142.75,-357.31 137.51,-348.09 132.91,-353.37"/>
</g>
<!-- Node7 -->
<g id="node7" class="node">
<title>Node7</title>
<g id="a_node7"><a xlink:href="onnx__importer__helpers_8h.html" target="_top" xlink:title=" ">
<polygon fill="white" stroke="black" points="304.5,-212.5 304.5,-253.5 466.5,-253.5 466.5,-212.5 304.5,-212.5"/>
<text text-anchor="start" x="312.5" y="-241.5" font-family="Helvetica,sans-Serif" font-size="10.00">include/network_butcher</text>
<text text-anchor="start" x="312.5" y="-230.5" font-family="Helvetica,sans-Serif" font-size="10.00">/IO_Interaction/onnx_importer</text>
<text text-anchor="middle" x="385.5" y="-219.5" font-family="Helvetica,sans-Serif" font-size="10.00">_helpers.h</text>
</a>
</g>
</g>
<!-- Node6&#45;&gt;Node7 -->
<g id="edge6" class="edge">
<title>Node6&#45;&gt;Node7</title>
<path fill="none" stroke="midnightblue" d="M236.84,-286.93C265.33,-276.79 301.22,-264.01 330.6,-253.55"/>
<polygon fill="midnightblue" stroke="midnightblue" points="235.34,-283.75 227.09,-290.4 237.69,-290.35 235.34,-283.75"/>
</g>
<!-- Node6&#45;&gt;Node10 -->
<g id="edge17" class="edge">
<title>Node6&#45;&gt;Node10</title>
<path fill="none" stroke="midnightblue" d="M153.32,-284.41C142.62,-276.35 131.94,-266.08 125.5,-254 85.08,-178.18 95.73,-69.24 101.22,-30.68"/>
<polygon fill="midnightblue" stroke="midnightblue" points="151.63,-287.5 161.82,-290.39 155.66,-281.78 151.63,-287.5"/>
</g>
<!-- Node14 -->
<g id="node14" class="node">
<title>Node14</title>
<g id="a_node14"><a xlink:href="onnx__model__reconstructor__helpers_8h.html" target="_top" xlink:title=" ">
<polygon fill="white" stroke="black" points="135,-212.5 135,-253.5 286,-253.5 286,-212.5 135,-212.5"/>
<text text-anchor="start" x="143" y="-241.5" font-family="Helvetica,sans-Serif" font-size="10.00">include/network_butcher</text>
<text text-anchor="start" x="143" y="-230.5" font-family="Helvetica,sans-Serif" font-size="10.00">/IO_Interaction/onnx_model</text>
<text text-anchor="middle" x="210.5" y="-219.5" font-family="Helvetica,sans-Serif" font-size="10.00">_reconstructor_helpers.h</text>
</a>
</g>
</g>
<!-- Node6&#45;&gt;Node14 -->
<g id="edge14" class="edge">
<title>Node6&#45;&gt;Node14</title>
<path fill="none" stroke="midnightblue" d="M195.31,-280.56C198.18,-271.77 201.38,-261.94 204.11,-253.59"/>
<polygon fill="midnightblue" stroke="midnightblue" points="191.93,-279.64 192.15,-290.23 198.58,-281.81 191.93,-279.64"/>
</g>
<!-- Node8 -->
<g id="node8" class="node">
<title>Node8</title>
<g id="a_node8"><a xlink:href="io__manager_8h.html" target="_top" xlink:title=" ">
<polygon fill="white" stroke="black" points="301,-140 301,-170 438,-170 438,-140 301,-140"/>
<text text-anchor="start" x="309" y="-158" font-family="Helvetica,sans-Serif" font-size="10.00">include/network_butcher</text>
<text text-anchor="middle" x="369.5" y="-147" font-family="Helvetica,sans-Serif" font-size="10.00">/io_manager.h</text>
</a>
</g>
</g>
<!-- Node7&#45;&gt;Node8 -->
<g id="edge7" class="edge">
<title>Node7&#45;&gt;Node8</title>
<path fill="none" stroke="midnightblue" d="M379.32,-202.62C376.97,-191.5 374.41,-179.34 372.49,-170.23"/>
<polygon fill="midnightblue" stroke="midnightblue" points="375.89,-203.36 381.38,-212.43 382.74,-201.92 375.89,-203.36"/>
</g>
<!-- Node13 -->
<g id="node13" class="node">
<title>Node13</title>
<g id="a_node13"><a xlink:href="onnx__importer__helpers_8cpp.html" target="_top" xlink:title=" ">
<polygon fill="white" stroke="black" points="456.5,-140 456.5,-170 608.5,-170 608.5,-140 456.5,-140"/>
<text text-anchor="start" x="464.5" y="-158" font-family="Helvetica,sans-Serif" font-size="10.00">src/IO_Interaction</text>
<text text-anchor="middle" x="532.5" y="-147" font-family="Helvetica,sans-Serif" font-size="10.00">/onnx_importer_helpers.cpp</text>
</a>
</g>
</g>
<!-- Node7&#45;&gt;Node13 -->
<g id="edge13" class="edge">
<title>Node7&#45;&gt;Node13</title>
<path fill="none" stroke="midnightblue" d="M432.29,-207.81C456.24,-195.43 484.57,-180.78 504.99,-170.23"/>
<polygon fill="midnightblue" stroke="midnightblue" points="430.63,-204.73 423.36,-212.43 433.85,-210.94 430.63,-204.73"/>
</g>
<!-- Node9 -->
<g id="node9" class="node">
<title>Node9</title>
<g id="a_node9"><a xlink:href="general__manager_8h.html" target="_top" xlink:title=" ">
<polygon fill="white" stroke="black" points="188,-67.5 188,-97.5 325,-97.5 325,-67.5 188,-67.5"/>
<text text-anchor="start" x="196" y="-85.5" font-family="Helvetica,sans-Serif" font-size="10.00">include/network_butcher</text>
<text text-anchor="middle" x="256.5" y="-74.5" font-family="Helvetica,sans-Serif" font-size="10.00">/general_manager.h</text>
</a>
</g>
</g>
<!-- Node8&#45;&gt;Node9 -->
<g id="edge8" class="edge">
<title>Node8&#45;&gt;Node9</title>
<path fill="none" stroke="midnightblue" d="M338.38,-134.58C319.58,-122.86 296.06,-108.18 279.06,-97.57"/>
<polygon fill="midnightblue" stroke="midnightblue" points="336.57,-137.58 346.9,-139.9 340.27,-131.64 336.57,-137.58"/>
</g>
<!-- Node8&#45;&gt;Node10 -->
<g id="edge11" class="edge">
<title>Node8&#45;&gt;Node10</title>
<path fill="none" stroke="midnightblue" d="M307.07,-137.36C256.08,-123.48 190.67,-104.9 179.5,-98 150.86,-80.31 126.04,-49.01 113.08,-30.78"/>
<polygon fill="midnightblue" stroke="midnightblue" points="306.17,-140.74 316.73,-139.98 308,-133.99 306.17,-140.74"/>
</g>
<!-- Node12 -->
<g id="node12" class="node">
<title>Node12</title>
<g id="a_node12"><a xlink:href="io__manager_8cpp.html" target="_top" xlink:title=" ">
<polygon fill="white" stroke="black" points="343,-73 343,-92 454,-92 454,-73 343,-73"/>
<text text-anchor="middle" x="398.5" y="-80" font-family="Helvetica,sans-Serif" font-size="10.00">src/io_manager.cpp</text>
</a>
</g>
</g>
<!-- Node8&#45;&gt;Node12 -->
<g id="edge12" class="edge">
<title>Node8&#45;&gt;Node12</title>
<path fill="none" stroke="midnightblue" d="M379.22,-130.36C384.59,-117.32 390.94,-101.88 394.84,-92.39"/>
<polygon fill="midnightblue" stroke="midnightblue" points="375.94,-129.15 375.37,-139.73 382.41,-131.82 375.94,-129.15"/>
</g>
<!-- Node9&#45;&gt;Node10 -->
<g id="edge9" class="edge">
<title>Node9&#45;&gt;Node10</title>
<path fill="none" stroke="midnightblue" d="M213.91,-63.41C189.48,-53.03 159.28,-40.2 136.63,-30.58"/>
<polygon fill="midnightblue" stroke="midnightblue" points="212.73,-66.71 223.3,-67.4 215.47,-60.26 212.73,-66.71"/>
</g>
<!-- Node11 -->
<g id="node11" class="node">
<title>Node11</title>
<g id="a_node11"><a xlink:href="general__manager_8cpp.html" target="_top" xlink:title=" ">
<polygon fill="white" stroke="black" points="190,-6 190,-25 329,-25 329,-6 190,-6"/>
<text text-anchor="middle" x="259.5" y="-13" font-family="Helvetica,sans-Serif" font-size="10.00">src/general_manager.cpp</text>
</a>
</g>
</g>
<!-- Node9&#45;&gt;Node11 -->
<g id="edge10" class="edge">
<title>Node9&#45;&gt;Node11</title>
<path fill="none" stroke="midnightblue" d="M257.62,-57.25C258.14,-46.02 258.72,-33.38 259.1,-25.19"/>
<polygon fill="midnightblue" stroke="midnightblue" points="254.12,-57.25 257.15,-67.4 261.11,-57.57 254.12,-57.25"/>
</g>
<!-- Node14&#45;&gt;Node8 -->
<g id="edge15" class="edge">
<title>Node14&#45;&gt;Node8</title>
<path fill="none" stroke="midnightblue" d="M260.77,-207.97C286.75,-195.55 317.56,-180.83 339.74,-170.23"/>
<polygon fill="midnightblue" stroke="midnightblue" points="258.96,-204.96 251.45,-212.43 261.98,-211.27 258.96,-204.96"/>
</g>
<!-- Node15 -->
<g id="node15" class="node">
<title>Node15</title>
<g id="a_node15"><a xlink:href="onnx__model__reconstructor__helpers_8cpp.html" target="_top" xlink:title=" ">
<polygon fill="white" stroke="black" points="134,-134.5 134,-175.5 283,-175.5 283,-134.5 134,-134.5"/>
<text text-anchor="start" x="142" y="-163.5" font-family="Helvetica,sans-Serif" font-size="10.00">src/IO_Interaction</text>
<text text-anchor="start" x="142" y="-152.5" font-family="Helvetica,sans-Serif" font-size="10.00">/onnx_model_reconstructor</text>
<text text-anchor="middle" x="208.5" y="-141.5" font-family="Helvetica,sans-Serif" font-size="10.00">_helpers.cpp</text>
</a>
</g>
</g>
<!-- Node14&#45;&gt;Node15 -->
<g id="edge16" class="edge">
<title>Node14&#45;&gt;Node15</title>
<path fill="none" stroke="midnightblue" d="M209.72,-202.3C209.48,-193.3 209.23,-183.65 209.01,-175.51"/>
<polygon fill="midnightblue" stroke="midnightblue" points="206.22,-202.52 209.98,-212.43 213.22,-202.34 206.22,-202.52"/>
</g>
<!-- Node16&#45;&gt;Node5 -->
<g id="edge20" class="edge">
<title>Node16&#45;&gt;Node5</title>
<path fill="none" stroke="midnightblue" d="M271.63,-430.91C250.87,-420.46 226.87,-408.38 207.25,-398.51"/>
<polygon fill="midnightblue" stroke="midnightblue" points="270.11,-434.06 280.61,-435.43 273.25,-427.81 270.11,-434.06"/>
</g>
<!-- Node17&#45;&gt;Node3 -->
<g id="edge22" class="edge">
<title>Node17&#45;&gt;Node3</title>
<path fill="none" stroke="midnightblue" d="M162.37,-581.3C161.43,-572.3 160.41,-562.65 159.55,-554.51"/>
<polygon fill="midnightblue" stroke="midnightblue" points="158.91,-581.85 163.44,-591.43 165.87,-581.12 158.91,-581.85"/>
</g>
</g>
</svg>
        <g id="navigator" transform="translate(0 0)" fill="#404254">
                <rect fill="#f2f5e9" fill-opacity="0.5" stroke="#606060" stroke-width=".5" x="0" y="0" width="60" height="60"/>
                <use id="zoomplus" xlink:href="#zoomPlus" x="17" y="9" onmousedown="handleZoom(evt,'in')"/>
                <use id="zoomminus" xlink:href="#zoomMin" x="42" y="9" onmousedown="handleZoom(evt,'out')"/>
                <use id="reset" xlink:href="#resetDef" x="30" y="36" onmousedown="handleReset()"/>
                <g id="arrowUp" xlink:href="#dirArrow" transform="translate(30 24)" onmousedown="handlePan(0,-1)">
                  <use xlink:href="#rim" fill="#404040">
                        <set attributeName="fill" to="#808080" begin="arrowUp.mouseover" end="arrowUp.mouseout"/>
                  </use>
                  <path fill="none" stroke="white" stroke-width="1.5" d="M0,-3.0v7 M-2.5,-0.5L0,-3.0L2.5,-0.5"/>
                </g>
                <g id="arrowRight" xlink:href="#dirArrow" transform="rotate(90) translate(36 -43)" onmousedown="handlePan(1,0)">
                  <use xlink:href="#rim" fill="#404040">
                        <set attributeName="fill" to="#808080" begin="arrowRight.mouseover" end="arrowRight.mouseout"/>
                  </use>
                  <path fill="none" stroke="white" stroke-width="1.5" d="M0,-3.0v7 M-2.5,-0.5L0,-3.0L2.5,-0.5"/>
                </g>
                <g id="arrowDown" xlink:href="#dirArrow" transform="rotate(180) translate(-30 -48)" onmousedown="handlePan(0,1)">
                  <use xlink:href="#rim" fill="#404040">
                        <set attributeName="fill" to="#808080" begin="arrowDown.mouseover" end="arrowDown.mouseout"/>
                  </use>
                  <path fill="none" stroke="white" stroke-width="1.5" d="M0,-3.0v7 M-2.5,-0.5L0,-3.0L2.5,-0.5"/>
                </g>
                <g id="arrowLeft" xlink:href="#dirArrow" transform="rotate(270) translate(-36 17)" onmousedown="handlePan(-1,0)">
                  <use xlink:href="#rim" fill="#404040">
                        <set attributeName="fill" to="#808080" begin="arrowLeft.mouseover" end="arrowLeft.mouseout"/>
                  </use>
                  <path fill="none" stroke="white" stroke-width="1.5" d="M0,-3.0v7 M-2.5,-0.5L0,-3.0L2.5,-0.5"/>
                </g>
        </g>
        <svg viewBox="0 0 15 15" width="100%" height="30px" preserveAspectRatio="xMaxYMin meet">
         <g id="arrow_out" transform="scale(0.3 0.3)">
          <a xlink:href="heap__eppstein_8h__dep__incl_org.svg" target="_base">
           <rect id="button" ry="5" rx="5" y="6" x="6" height="38" width="38"
                fill="#f2f5e9" fill-opacity="0.5" stroke="#606060" stroke-width="1.0"/>
           <path id="arrow"
             d="M 11.500037,31.436501 C 11.940474,20.09759 22.043105,11.32322 32.158766,21.979434 L 37.068811,17.246167 C 37.068811,17.246167 37.088388,32 37.088388,32 L 22.160133,31.978069 C 22.160133,31.978069 26.997745,27.140456 26.997745,27.140456 C 18.528582,18.264221 13.291696,25.230495 11.500037,31.436501 z"
             style="fill:#404040;"/>
          </a>
         </g>
        </svg>
</svg>
