<?xml version="1.0" encoding="UTF-8" standalone="no"?>
<!DOCTYPE svg PUBLIC "-//W3C//DTD SVG 1.1//EN"
 "http://www.w3.org/Graphics/SVG/1.1/DTD/svg11.dtd">
<!-- Generated by graphviz version 2.43.0 (0)
 -->
<!-- Title: include/network_butcher/K&#45;shortest_path/heap_eppstein.h Pages: 1 -->
<!--zoomable 251 -->
<svg id="main" version="1.1" xmlns="http://www.w3.org/2000/svg" xmlns:xlink="http://www.w3.org/1999/xlink" xml:space="preserve" onload="init(evt)">
<style type="text/css"><![CDATA[
.edge:hover path { stroke: red; }
.edge:hover polygon { stroke: red; fill: red; }
]]></style>
<script type="text/javascript"><![CDATA[
var edges = document.getElementsByTagName('g');
if (edges && edges.length) {
  for (var i=0;i<edges.length;i++) {
    if (edges[i].id.substr(0,4)=='edge') {
      edges[i].setAttribute('class','edge');
    }
  }
}
]]></script>
        <defs>
                <circle id="rim" cx="0" cy="0" r="7"/>
                <circle id="rim2" cx="0" cy="0" r="3.5"/>
                <g id="zoomPlus">
                        <use xlink:href="#rim" fill="#404040">
                                <set attributeName="fill" to="#808080" begin="zoomplus.mouseover" end="zoomplus.mouseout"/>
                        </use>
                        <path d="M-4,0h8M0,-4v8" fill="none" stroke="white" stroke-width="1.5" pointer-events="none"/>
                </g>
                <g id="zoomMin">
                        <use xlink:href="#rim" fill="#404040">
                                <set attributeName="fill" to="#808080" begin="zoomminus.mouseover" end="zoomminus.mouseout"/>
                        </use>
                        <path d="M-4,0h8" fill="none" stroke="white" stroke-width="1.5" pointer-events="none"/>
                </g>
                <g id="dirArrow">
                        <path fill="none" stroke="white" stroke-width="1.5" d="M0,-3.0v7 M-2.5,-0.5L0,-3.0L2.5,-0.5"/>
                </g>
               <g id="resetDef">
                       <use xlink:href="#rim2" fill="#404040">
                               <set attributeName="fill" to="#808080" begin="reset.mouseover" end="reset.mouseout"/>
                       </use>
               </g>
        </defs>

<script type="text/javascript">
var viewWidth = 829;
var viewHeight = 251;
var sectionId = 'dynsection-0';
</script>
<script xlink:href="svgpan.js"/>
<svg id="graph" class="graph">
<g id="viewport">
<title>include/network_butcher/K&#45;shortest_path/heap_eppstein.h</title>
<polygon fill="white" stroke="transparent" points="-4,4 -4,-247 824.5,-247 824.5,4 -4,4"/>
<!-- Node1 -->
<g id="node1" class="node">
<title>Node1</title>
<g id="a_node1"><a xlink:title=" ">
<polygon fill="#bfbfbf" stroke="black" points="104.5,-201.5 104.5,-242.5 241.5,-242.5 241.5,-201.5 104.5,-201.5"/>
<text text-anchor="start" x="112.5" y="-230.5" font-family="Helvetica,sans-Serif" font-size="10.00">include/network_butcher</text>
<text text-anchor="start" x="112.5" y="-219.5" font-family="Helvetica,sans-Serif" font-size="10.00">/K&#45;shortest_path/heap</text>
<text text-anchor="middle" x="173" y="-208.5" font-family="Helvetica,sans-Serif" font-size="10.00">_eppstein.h</text>
</a>
</g>
</g>
<!-- Node2 -->
<g id="node2" class="node">
<title>Node2</title>
<g id="a_node2"><a xlink:title=" ">
<polygon fill="white" stroke="#bfbfbf" points="0,-140 0,-159 44,-159 44,-140 0,-140"/>
<text text-anchor="middle" x="22" y="-147" font-family="Helvetica,sans-Serif" font-size="10.00">limits</text>
</a>
</g>
</g>
<!-- Node1&#45;&gt;Node2 -->
<g id="edge1" class="edge">
<title>Node1&#45;&gt;Node2</title>
<path fill="none" stroke="midnightblue" d="M131.07,-201.44C108.02,-190.69 78.93,-177.12 53,-165 51.85,-164.46 50.67,-163.91 49.49,-163.36"/>
<polygon fill="midnightblue" stroke="midnightblue" points="50.9,-160.15 40.36,-159.09 47.93,-166.5 50.9,-160.15"/>
</g>
<!-- Node3 -->
<g id="node3" class="node">
<title>Node3</title>
<g id="a_node3"><a xlink:title=" ">
<polygon fill="white" stroke="#bfbfbf" points="62,-140 62,-159 94,-159 94,-140 62,-140"/>
<text text-anchor="middle" x="78" y="-147" font-family="Helvetica,sans-Serif" font-size="10.00">list</text>
</a>
</g>
</g>
<!-- Node1&#45;&gt;Node3 -->
<g id="edge2" class="edge">
<title>Node1&#45;&gt;Node3</title>
<path fill="none" stroke="midnightblue" d="M146.54,-201.36C131.08,-189.89 111.9,-175.65 97.76,-165.16"/>
<polygon fill="midnightblue" stroke="midnightblue" points="99.8,-162.32 89.69,-159.17 95.63,-167.94 99.8,-162.32"/>
</g>
<!-- Node4 -->
<g id="node4" class="node">
<title>Node4</title>
<g id="a_node4"><a xlink:title=" ">
<polygon fill="white" stroke="#bfbfbf" points="211,-73 211,-92 269,-92 269,-73 211,-73"/>
<text text-anchor="middle" x="240" y="-80" font-family="Helvetica,sans-Serif" font-size="10.00">memory</text>
</a>
</g>
</g>
<!-- Node1&#45;&gt;Node4 -->
<g id="edge3" class="edge">
<title>Node1&#45;&gt;Node4</title>
<path fill="none" stroke="midnightblue" d="M156.16,-201.35C142.64,-183.03 127.89,-155.41 141,-134 154.11,-112.6 179.46,-99.91 201.22,-92.6"/>
<polygon fill="midnightblue" stroke="midnightblue" points="202.39,-95.9 210.91,-89.61 200.32,-89.21 202.39,-95.9"/>
</g>
<!-- Node5 -->
<g id="node5" class="node">
<title>Node5</title>
<g id="a_node5"><a xlink:title=" ">
<polygon fill="white" stroke="#bfbfbf" points="150.5,-140 150.5,-159 195.5,-159 195.5,-140 150.5,-140"/>
<text text-anchor="middle" x="173" y="-147" font-family="Helvetica,sans-Serif" font-size="10.00">utility</text>
</a>
</g>
</g>
<!-- Node1&#45;&gt;Node5 -->
<g id="edge4" class="edge">
<title>Node1&#45;&gt;Node5</title>
<path fill="none" stroke="midnightblue" d="M173,-201.36C173,-191.3 173,-179.1 173,-169.18"/>
<polygon fill="midnightblue" stroke="midnightblue" points="176.5,-169.17 173,-159.17 169.5,-169.17 176.5,-169.17"/>
</g>
<!-- Node6 -->
<g id="node6" class="node">
<title>Node6</title>
<g id="a_node6"><a xlink:title=" ">
<polygon fill="white" stroke="#bfbfbf" points="214,-140 214,-159 270,-159 270,-140 214,-140"/>
<text text-anchor="middle" x="242" y="-147" font-family="Helvetica,sans-Serif" font-size="10.00">numeric</text>
</a>
</g>
</g>
<!-- Node1&#45;&gt;Node6 -->
<g id="edge5" class="edge">
<title>Node1&#45;&gt;Node6</title>
<path fill="none" stroke="midnightblue" d="M192.22,-201.36C203.02,-190.32 216.33,-176.72 226.47,-166.37"/>
<polygon fill="midnightblue" stroke="midnightblue" points="229.02,-168.77 233.51,-159.17 224.02,-163.87 229.02,-168.77"/>
</g>
<!-- Node7 -->
<g id="node7" class="node">
<title>Node7</title>
<g id="a_node7"><a xlink:href="crtp__greater_8h.html" target="_top" xlink:title=" ">
<polygon fill="white" stroke="black" points="288,-134.5 288,-164.5 438,-164.5 438,-134.5 288,-134.5"/>
<text text-anchor="start" x="296" y="-152.5" font-family="Helvetica,sans-Serif" font-size="10.00">network_butcher/K&#45;shortest</text>
<text text-anchor="middle" x="363" y="-141.5" font-family="Helvetica,sans-Serif" font-size="10.00">_path/crtp_greater.h</text>
</a>
</g>
</g>
<!-- Node1&#45;&gt;Node7 -->
<g id="edge6" class="edge">
<title>Node1&#45;&gt;Node7</title>
<path fill="none" stroke="midnightblue" d="M225.67,-201.46C253.75,-191.04 288.01,-178.32 315.3,-168.2"/>
<polygon fill="midnightblue" stroke="midnightblue" points="316.85,-171.36 325.01,-164.6 314.42,-164.79 316.85,-171.36"/>
</g>
<!-- Node8 -->
<g id="node8" class="node">
<title>Node8</title>
<g id="a_node8"><a xlink:href="traits_8h.html" target="_top" xlink:title=" ">
<polygon fill="white" stroke="black" points="456,-134.5 456,-164.5 584,-164.5 584,-134.5 456,-134.5"/>
<text text-anchor="start" x="464" y="-152.5" font-family="Helvetica,sans-Serif" font-size="10.00">network_butcher/Traits</text>
<text text-anchor="middle" x="520" y="-141.5" font-family="Helvetica,sans-Serif" font-size="10.00">/traits.h</text>
</a>
</g>
</g>
<!-- Node1&#45;&gt;Node8 -->
<g id="edge7" class="edge">
<title>Node1&#45;&gt;Node8</title>
<path fill="none" stroke="midnightblue" d="M241.56,-207.07C300.59,-195.08 385.57,-177.81 446.1,-165.51"/>
<polygon fill="midnightblue" stroke="midnightblue" points="446.87,-168.93 455.98,-163.51 445.48,-162.07 446.87,-168.93"/>
</g>
<!-- Node8&#45;&gt;Node4 -->
<g id="edge10" class="edge">
<title>Node8&#45;&gt;Node4</title>
<path fill="none" stroke="midnightblue" d="M459.59,-134.48C404.77,-121.75 325.57,-103.37 278.78,-92.5"/>
<polygon fill="midnightblue" stroke="midnightblue" points="279.56,-89.09 269.03,-90.24 277.98,-95.91 279.56,-89.09"/>
</g>
<!-- Node9 -->
<g id="node9" class="node">
<title>Node9</title>
<g id="a_node9"><a xlink:title=" ">
<polygon fill="white" stroke="#bfbfbf" points="404,-73 404,-92 436,-92 436,-73 404,-73"/>
<text text-anchor="middle" x="420" y="-80" font-family="Helvetica,sans-Serif" font-size="10.00">set</text>
</a>
</g>
</g>
<!-- Node8&#45;&gt;Node9 -->
<g id="edge8" class="edge">
<title>Node8&#45;&gt;Node9</title>
<path fill="none" stroke="midnightblue" d="M498.3,-134.4C481.53,-123.5 458.43,-108.48 441.67,-97.58"/>
<polygon fill="midnightblue" stroke="midnightblue" points="443.38,-94.52 433.09,-92.01 439.56,-100.39 443.38,-94.52"/>
</g>
<!-- Node10 -->
<g id="node10" class="node">
<title>Node10</title>
<g id="a_node10"><a xlink:title=" ">
<polygon fill="white" stroke="#bfbfbf" points="454,-73 454,-92 492,-92 492,-73 454,-73"/>
<text text-anchor="middle" x="473" y="-80" font-family="Helvetica,sans-Serif" font-size="10.00">map</text>
</a>
</g>
</g>
<!-- Node8&#45;&gt;Node10 -->
<g id="edge9" class="edge">
<title>Node8&#45;&gt;Node10</title>
<path fill="none" stroke="midnightblue" d="M509.8,-134.4C502.62,-124.46 492.96,-111.11 485.34,-100.57"/>
<polygon fill="midnightblue" stroke="midnightblue" points="487.98,-98.25 479.29,-92.19 482.31,-102.35 487.98,-98.25"/>
</g>
<!-- Node11 -->
<g id="node11" class="node">
<title>Node11</title>
<g id="a_node11"><a xlink:href="starting__traits_8h.html" target="_top" xlink:title=" ">
<polygon fill="white" stroke="black" points="450,-0.5 450,-30.5 578,-30.5 578,-0.5 450,-0.5"/>
<text text-anchor="start" x="458" y="-18.5" font-family="Helvetica,sans-Serif" font-size="10.00">network_butcher/Traits</text>
<text text-anchor="middle" x="514" y="-7.5" font-family="Helvetica,sans-Serif" font-size="10.00">/starting_traits.h</text>
</a>
</g>
</g>
<!-- Node8&#45;&gt;Node11 -->
<g id="edge11" class="edge">
<title>Node8&#45;&gt;Node11</title>
<path fill="none" stroke="midnightblue" d="M519.36,-134.37C518.34,-112.04 516.36,-68.31 515.11,-40.85"/>
<polygon fill="midnightblue" stroke="midnightblue" points="518.59,-40.36 514.64,-30.52 511.6,-40.67 518.59,-40.36"/>
</g>
<!-- Node12 -->
<g id="node12" class="node">
<title>Node12</title>
<g id="a_node12"><a xlink:href="type__info_8h.html" target="_top" xlink:title=" ">
<polygon fill="white" stroke="black" points="548.5,-67.5 548.5,-97.5 677.5,-97.5 677.5,-67.5 548.5,-67.5"/>
<text text-anchor="start" x="556.5" y="-85.5" font-family="Helvetica,sans-Serif" font-size="10.00">network_butcher/Types</text>
<text text-anchor="middle" x="613" y="-74.5" font-family="Helvetica,sans-Serif" font-size="10.00">/type_info.h</text>
</a>
</g>
</g>
<!-- Node8&#45;&gt;Node12 -->
<g id="edge12" class="edge">
<title>Node8&#45;&gt;Node12</title>
<path fill="none" stroke="midnightblue" d="M540.18,-134.4C553.1,-125.37 570.06,-113.51 584.36,-103.52"/>
<polygon fill="midnightblue" stroke="midnightblue" points="586.67,-106.17 592.86,-97.58 582.66,-100.44 586.67,-106.17"/>
</g>
<!-- Node15 -->
<g id="node15" class="node">
<title>Node15</title>
<g id="a_node15"><a xlink:title=" ">
<polygon fill="white" stroke="#bfbfbf" points="695.5,-67.5 695.5,-97.5 820.5,-97.5 820.5,-67.5 695.5,-67.5"/>
<text text-anchor="start" x="703.5" y="-85.5" font-family="Helvetica,sans-Serif" font-size="10.00">network_butcher/onnx</text>
<text text-anchor="middle" x="758" y="-74.5" font-family="Helvetica,sans-Serif" font-size="10.00">_proto/onnx.pb.h</text>
</a>
</g>
</g>
<!-- Node8&#45;&gt;Node15 -->
<g id="edge16" class="edge">
<title>Node8&#45;&gt;Node15</title>
<path fill="none" stroke="midnightblue" d="M571.35,-134.48C607.98,-124.47 657.41,-110.97 696.2,-100.38"/>
<polygon fill="midnightblue" stroke="midnightblue" points="697.61,-103.62 706.33,-97.61 695.76,-96.87 697.61,-103.62"/>
</g>
<!-- Node12&#45;&gt;Node11 -->
<g id="edge15" class="edge">
<title>Node12&#45;&gt;Node11</title>
<path fill="none" stroke="midnightblue" d="M591.52,-67.4C577.64,-58.28 559.37,-46.29 544.06,-36.24"/>
<polygon fill="midnightblue" stroke="midnightblue" points="545.72,-33.14 535.44,-30.58 541.88,-38.99 545.72,-33.14"/>
</g>
<!-- Node13 -->
<g id="node13" class="node">
<title>Node13</title>
<g id="a_node13"><a xlink:title=" ">
<polygon fill="white" stroke="#bfbfbf" points="596,-6 596,-25 640,-25 640,-6 596,-6"/>
<text text-anchor="middle" x="618" y="-13" font-family="Helvetica,sans-Serif" font-size="10.00">string</text>
</a>
</g>
</g>
<!-- Node12&#45;&gt;Node13 -->
<g id="edge13" class="edge">
<title>Node12&#45;&gt;Node13</title>
<path fill="none" stroke="midnightblue" d="M614.08,-67.4C614.81,-57.96 615.77,-45.45 616.56,-35.19"/>
<polygon fill="midnightblue" stroke="midnightblue" points="620.05,-35.43 617.33,-25.19 613.07,-34.9 620.05,-35.43"/>
</g>
<!-- Node14 -->
<g id="node14" class="node">
<title>Node14</title>
<g id="a_node14"><a xlink:title=" ">
<polygon fill="white" stroke="#bfbfbf" points="658.5,-6 658.5,-25 705.5,-25 705.5,-6 658.5,-6"/>
<text text-anchor="middle" x="682" y="-13" font-family="Helvetica,sans-Serif" font-size="10.00">vector</text>
</a>
</g>
</g>
<!-- Node12&#45;&gt;Node14 -->
<g id="edge14" class="edge">
<title>Node12&#45;&gt;Node14</title>
<path fill="none" stroke="midnightblue" d="M627.97,-67.4C638.94,-57.06 653.84,-43.02 665.22,-32.31"/>
<polygon fill="midnightblue" stroke="midnightblue" points="667.89,-34.6 672.77,-25.19 663.09,-29.5 667.89,-34.6"/>
</g>
</g>
</svg>
        <g id="navigator" transform="translate(0 0)" fill="#404254">
                <rect fill="#f2f5e9" fill-opacity="0.5" stroke="#606060" stroke-width=".5" x="0" y="0" width="60" height="60"/>
                <use id="zoomplus" xlink:href="#zoomPlus" x="17" y="9" onmousedown="handleZoom(evt,'in')"/>
                <use id="zoomminus" xlink:href="#zoomMin" x="42" y="9" onmousedown="handleZoom(evt,'out')"/>
                <use id="reset" xlink:href="#resetDef" x="30" y="36" onmousedown="handleReset()"/>
                <g id="arrowUp" xlink:href="#dirArrow" transform="translate(30 24)" onmousedown="handlePan(0,-1)">
                  <use xlink:href="#rim" fill="#404040">
                        <set attributeName="fill" to="#808080" begin="arrowUp.mouseover" end="arrowUp.mouseout"/>
                  </use>
                  <path fill="none" stroke="white" stroke-width="1.5" d="M0,-3.0v7 M-2.5,-0.5L0,-3.0L2.5,-0.5"/>
                </g>
                <g id="arrowRight" xlink:href="#dirArrow" transform="rotate(90) translate(36 -43)" onmousedown="handlePan(1,0)">
                  <use xlink:href="#rim" fill="#404040">
                        <set attributeName="fill" to="#808080" begin="arrowRight.mouseover" end="arrowRight.mouseout"/>
                  </use>
                  <path fill="none" stroke="white" stroke-width="1.5" d="M0,-3.0v7 M-2.5,-0.5L0,-3.0L2.5,-0.5"/>
                </g>
                <g id="arrowDown" xlink:href="#dirArrow" transform="rotate(180) translate(-30 -48)" onmousedown="handlePan(0,1)">
                  <use xlink:href="#rim" fill="#404040">
                        <set attributeName="fill" to="#808080" begin="arrowDown.mouseover" end="arrowDown.mouseout"/>
                  </use>
                  <path fill="none" stroke="white" stroke-width="1.5" d="M0,-3.0v7 M-2.5,-0.5L0,-3.0L2.5,-0.5"/>
                </g>
                <g id="arrowLeft" xlink:href="#dirArrow" transform="rotate(270) translate(-36 17)" onmousedown="handlePan(-1,0)">
                  <use xlink:href="#rim" fill="#404040">
                        <set attributeName="fill" to="#808080" begin="arrowLeft.mouseover" end="arrowLeft.mouseout"/>
                  </use>
                  <path fill="none" stroke="white" stroke-width="1.5" d="M0,-3.0v7 M-2.5,-0.5L0,-3.0L2.5,-0.5"/>
                </g>
        </g>
        <svg viewBox="0 0 15 15" width="100%" height="30px" preserveAspectRatio="xMaxYMin meet">
         <g id="arrow_out" transform="scale(0.3 0.3)">
          <a xlink:href="heap__eppstein_8h__incl_org.svg" target="_base">
           <rect id="button" ry="5" rx="5" y="6" x="6" height="38" width="38"
                fill="#f2f5e9" fill-opacity="0.5" stroke="#606060" stroke-width="1.0"/>
           <path id="arrow"
             d="M 11.500037,31.436501 C 11.940474,20.09759 22.043105,11.32322 32.158766,21.979434 L 37.068811,17.246167 C 37.068811,17.246167 37.088388,32 37.088388,32 L 22.160133,31.978069 C 22.160133,31.978069 26.997745,27.140456 26.997745,27.140456 C 18.528582,18.264221 13.291696,25.230495 11.500037,31.436501 z"
             style="fill:#404040;"/>
          </a>
         </g>
        </svg>
</svg>
