<?xml version="1.0" encoding="UTF-8" standalone="no"?>
<!DOCTYPE svg PUBLIC "-//W3C//DTD SVG 1.1//EN"
 "http://www.w3.org/Graphics/SVG/1.1/DTD/svg11.dtd">
<!-- Generated by graphviz version 2.43.0 (0)
 -->
<!-- Title: include/K&#45;shortest_path/heap_traits.h Pages: 1 -->
<svg width="534pt" height="263pt"
 viewBox="0.00 0.00 534.00 263.00" xmlns="http://www.w3.org/2000/svg" xmlns:xlink="http://www.w3.org/1999/xlink">
<g id="graph0" class="graph" transform="scale(1 1) rotate(0) translate(4 259)">
<title>include/K&#45;shortest_path/heap_traits.h</title>
<polygon fill="white" stroke="transparent" points="-4,4 -4,-259 530,-259 530,4 -4,4"/>
<!-- Node1 -->
<g id="node1" class="node">
<title>Node1</title>
<g id="a_node1"><a xlink:title=" ">
<polygon fill="#bfbfbf" stroke="black" points="307,-224.5 307,-254.5 417,-254.5 417,-224.5 307,-224.5"/>
<text text-anchor="start" x="315" y="-242.5" font-family="Helvetica,sans-Serif" font-size="10.00">include/K&#45;shortest</text>
<text text-anchor="middle" x="362" y="-231.5" font-family="Helvetica,sans-Serif" font-size="10.00">_path/heap_traits.h</text>
</a>
</g>
</g>
<!-- Node2 -->
<g id="node2" class="node">
<title>Node2</title>
<g id="a_node2"><a xlink:href="heap__eppstein_8h.html" target="_top" xlink:title=" ">
<polygon fill="white" stroke="black" points="155.5,-168.5 155.5,-187.5 252.5,-187.5 252.5,-168.5 155.5,-168.5"/>
<text text-anchor="middle" x="204" y="-175.5" font-family="Helvetica,sans-Serif" font-size="10.00">heap_eppstein.h</text>
</a>
</g>
</g>
<!-- Node1&#45;&gt;Node2 -->
<g id="edge1" class="edge">
<title>Node1&#45;&gt;Node2</title>
<path fill="none" stroke="midnightblue" d="M324.56,-224.4C297.81,-214.33 262.18,-200.91 236.6,-191.28"/>
<polygon fill="midnightblue" stroke="midnightblue" points="237.58,-187.91 226.99,-187.66 235.12,-194.46 237.58,-187.91"/>
</g>
<!-- Node9 -->
<g id="node9" class="node">
<title>Node9</title>
<g id="a_node9"><a xlink:href="traits_8h.html" target="_top" xlink:title=" ">
<polygon fill="white" stroke="black" points="389.5,-112.5 389.5,-131.5 440.5,-131.5 440.5,-112.5 389.5,-112.5"/>
<text text-anchor="middle" x="415" y="-119.5" font-family="Helvetica,sans-Serif" font-size="10.00">traits.h</text>
</a>
</g>
</g>
<!-- Node1&#45;&gt;Node9 -->
<g id="edge21" class="edge">
<title>Node1&#45;&gt;Node9</title>
<path fill="none" stroke="midnightblue" d="M368.5,-224.34C378.13,-203.34 396.21,-163.96 406.76,-140.96"/>
<polygon fill="midnightblue" stroke="midnightblue" points="410.03,-142.22 411.02,-131.67 403.67,-139.3 410.03,-142.22"/>
</g>
<!-- Node17 -->
<g id="node17" class="node">
<title>Node17</title>
<g id="a_node17"><a xlink:href="path__info_8h.html" target="_top" xlink:title=" ">
<polygon fill="white" stroke="black" points="294.5,-168.5 294.5,-187.5 365.5,-187.5 365.5,-168.5 294.5,-168.5"/>
<text text-anchor="middle" x="330" y="-175.5" font-family="Helvetica,sans-Serif" font-size="10.00">path_info.h</text>
</a>
</g>
</g>
<!-- Node1&#45;&gt;Node17 -->
<g id="edge18" class="edge">
<title>Node1&#45;&gt;Node17</title>
<path fill="none" stroke="midnightblue" d="M354.42,-224.4C349.96,-216.11 344.28,-205.55 339.52,-196.71"/>
<polygon fill="midnightblue" stroke="midnightblue" points="342.48,-194.81 334.66,-187.66 336.31,-198.12 342.48,-194.81"/>
</g>
<!-- Node18 -->
<g id="node18" class="node">
<title>Node18</title>
<g id="a_node18"><a xlink:href="weighted__graph_8h.html" target="_top" xlink:title=" ">
<polygon fill="white" stroke="black" points="422,-168.5 422,-187.5 526,-187.5 526,-168.5 422,-168.5"/>
<text text-anchor="middle" x="474" y="-175.5" font-family="Helvetica,sans-Serif" font-size="10.00">weighted_graph.h</text>
</a>
</g>
</g>
<!-- Node1&#45;&gt;Node18 -->
<g id="edge22" class="edge">
<title>Node1&#45;&gt;Node18</title>
<path fill="none" stroke="midnightblue" d="M388.54,-224.4C406.66,-214.77 430.54,-202.09 448.44,-192.58"/>
<polygon fill="midnightblue" stroke="midnightblue" points="450.51,-195.44 457.7,-187.66 447.23,-189.26 450.51,-195.44"/>
</g>
<!-- Node3 -->
<g id="node3" class="node">
<title>Node3</title>
<g id="a_node3"><a xlink:title=" ">
<polygon fill="white" stroke="#bfbfbf" points="226,-112.5 226,-131.5 270,-131.5 270,-112.5 226,-112.5"/>
<text text-anchor="middle" x="248" y="-119.5" font-family="Helvetica,sans-Serif" font-size="10.00">limits</text>
</a>
</g>
</g>
<!-- Node2&#45;&gt;Node3 -->
<g id="edge2" class="edge">
<title>Node2&#45;&gt;Node3</title>
<path fill="none" stroke="midnightblue" d="M211.27,-168.08C217.54,-160.38 226.79,-149.03 234.43,-139.65"/>
<polygon fill="midnightblue" stroke="midnightblue" points="237.27,-141.71 240.87,-131.75 231.84,-137.29 237.27,-141.71"/>
</g>
<!-- Node4 -->
<g id="node4" class="node">
<title>Node4</title>
<g id="a_node4"><a xlink:title=" ">
<polygon fill="white" stroke="#bfbfbf" points="0,-112.5 0,-131.5 32,-131.5 32,-112.5 0,-112.5"/>
<text text-anchor="middle" x="16" y="-119.5" font-family="Helvetica,sans-Serif" font-size="10.00">list</text>
</a>
</g>
</g>
<!-- Node2&#45;&gt;Node4 -->
<g id="edge3" class="edge">
<title>Node2&#45;&gt;Node4</title>
<path fill="none" stroke="midnightblue" d="M173.67,-168.5C141.84,-159.54 90.35,-144.97 46,-132 44.74,-131.63 43.45,-131.25 42.14,-130.87"/>
<polygon fill="midnightblue" stroke="midnightblue" points="42.76,-127.4 32.18,-127.9 40.76,-134.11 42.76,-127.4"/>
</g>
<!-- Node5 -->
<g id="node5" class="node">
<title>Node5</title>
<g id="a_node5"><a xlink:title=" ">
<polygon fill="white" stroke="#bfbfbf" points="91,-56.5 91,-75.5 149,-75.5 149,-56.5 91,-56.5"/>
<text text-anchor="middle" x="120" y="-63.5" font-family="Helvetica,sans-Serif" font-size="10.00">memory</text>
</a>
</g>
</g>
<!-- Node2&#45;&gt;Node5 -->
<g id="edge4" class="edge">
<title>Node2&#45;&gt;Node5</title>
<path fill="none" stroke="midnightblue" d="M155.49,-172.86C128.21,-167.75 96.24,-156.53 79,-132 67.24,-115.27 84.26,-95.27 99.81,-81.92"/>
<polygon fill="midnightblue" stroke="midnightblue" points="102.07,-84.59 107.65,-75.59 97.67,-79.15 102.07,-84.59"/>
</g>
<!-- Node6 -->
<g id="node6" class="node">
<title>Node6</title>
<g id="a_node6"><a xlink:title=" ">
<polygon fill="white" stroke="#bfbfbf" points="88.5,-112.5 88.5,-131.5 133.5,-131.5 133.5,-112.5 88.5,-112.5"/>
<text text-anchor="middle" x="111" y="-119.5" font-family="Helvetica,sans-Serif" font-size="10.00">utility</text>
</a>
</g>
</g>
<!-- Node2&#45;&gt;Node6 -->
<g id="edge5" class="edge">
<title>Node2&#45;&gt;Node6</title>
<path fill="none" stroke="midnightblue" d="M189.06,-168.32C174.41,-159.82 151.87,-146.73 134.76,-136.8"/>
<polygon fill="midnightblue" stroke="midnightblue" points="136.31,-133.65 125.9,-131.65 132.8,-139.7 136.31,-133.65"/>
</g>
<!-- Node7 -->
<g id="node7" class="node">
<title>Node7</title>
<g id="a_node7"><a xlink:title=" ">
<polygon fill="white" stroke="#bfbfbf" points="152,-112.5 152,-131.5 208,-131.5 208,-112.5 152,-112.5"/>
<text text-anchor="middle" x="180" y="-119.5" font-family="Helvetica,sans-Serif" font-size="10.00">numeric</text>
</a>
</g>
</g>
<!-- Node2&#45;&gt;Node7 -->
<g id="edge6" class="edge">
<title>Node2&#45;&gt;Node7</title>
<path fill="none" stroke="midnightblue" d="M200.04,-168.08C196.79,-160.77 192.08,-150.18 188.05,-141.1"/>
<polygon fill="midnightblue" stroke="midnightblue" points="191.15,-139.47 183.89,-131.75 184.75,-142.31 191.15,-139.47"/>
</g>
<!-- Node8 -->
<g id="node8" class="node">
<title>Node8</title>
<g id="a_node8"><a xlink:href="crtp__greater_8h.html" target="_top" xlink:title=" ">
<polygon fill="white" stroke="black" points="288,-112.5 288,-131.5 372,-131.5 372,-112.5 288,-112.5"/>
<text text-anchor="middle" x="330" y="-119.5" font-family="Helvetica,sans-Serif" font-size="10.00">crtp_greater.h</text>
</a>
</g>
</g>
<!-- Node2&#45;&gt;Node8 -->
<g id="edge7" class="edge">
<title>Node2&#45;&gt;Node8</title>
<path fill="none" stroke="midnightblue" d="M223.97,-168.44C244.61,-159.6 277.06,-145.69 300.63,-135.59"/>
<polygon fill="midnightblue" stroke="midnightblue" points="302.32,-138.67 310.13,-131.52 299.56,-132.24 302.32,-138.67"/>
</g>
<!-- Node2&#45;&gt;Node9 -->
<g id="edge8" class="edge">
<title>Node2&#45;&gt;Node9</title>
<path fill="none" stroke="midnightblue" d="M237.96,-168.47C271.59,-160 324.82,-146.54 379.52,-132.37"/>
<polygon fill="midnightblue" stroke="midnightblue" points="380.59,-135.71 389.39,-129.81 378.83,-128.93 380.59,-135.71"/>
</g>
<!-- Node9&#45;&gt;Node5 -->
<g id="edge11" class="edge">
<title>Node9&#45;&gt;Node5</title>
<path fill="none" stroke="midnightblue" d="M389.44,-113.98C386.6,-113.27 383.74,-112.6 381,-112 302.83,-94.95 210.33,-80.29 159.11,-72.64"/>
<polygon fill="midnightblue" stroke="midnightblue" points="159.53,-69.17 149.13,-71.17 158.51,-76.09 159.53,-69.17"/>
</g>
<!-- Node10 -->
<g id="node10" class="node">
<title>Node10</title>
<g id="a_node10"><a xlink:title=" ">
<polygon fill="white" stroke="#bfbfbf" points="399,-56.5 399,-75.5 431,-75.5 431,-56.5 399,-56.5"/>
<text text-anchor="middle" x="415" y="-63.5" font-family="Helvetica,sans-Serif" font-size="10.00">set</text>
</a>
</g>
</g>
<!-- Node9&#45;&gt;Node10 -->
<g id="edge9" class="edge">
<title>Node9&#45;&gt;Node10</title>
<path fill="none" stroke="midnightblue" d="M415,-112.08C415,-105.01 415,-94.86 415,-85.99"/>
<polygon fill="midnightblue" stroke="midnightblue" points="418.5,-85.75 415,-75.75 411.5,-85.75 418.5,-85.75"/>
</g>
<!-- Node11 -->
<g id="node11" class="node">
<title>Node11</title>
<g id="a_node11"><a xlink:title=" ">
<polygon fill="white" stroke="#bfbfbf" points="449,-56.5 449,-75.5 487,-75.5 487,-56.5 449,-56.5"/>
<text text-anchor="middle" x="468" y="-63.5" font-family="Helvetica,sans-Serif" font-size="10.00">map</text>
</a>
</g>
</g>
<!-- Node9&#45;&gt;Node11 -->
<g id="edge10" class="edge">
<title>Node9&#45;&gt;Node11</title>
<path fill="none" stroke="midnightblue" d="M423.75,-112.08C431.47,-104.22 442.9,-92.57 452.22,-83.08"/>
<polygon fill="midnightblue" stroke="midnightblue" points="454.9,-85.34 459.41,-75.75 449.91,-80.44 454.9,-85.34"/>
</g>
<!-- Node12 -->
<g id="node12" class="node">
<title>Node12</title>
<g id="a_node12"><a xlink:href="starting__traits_8h.html" target="_top" xlink:title=" ">
<polygon fill="white" stroke="black" points="386,-0.5 386,-19.5 480,-19.5 480,-0.5 386,-0.5"/>
<text text-anchor="middle" x="433" y="-7.5" font-family="Helvetica,sans-Serif" font-size="10.00">starting_traits.h</text>
</a>
</g>
</g>
<!-- Node9&#45;&gt;Node12 -->
<g id="edge12" class="edge">
<title>Node9&#45;&gt;Node12</title>
<path fill="none" stroke="midnightblue" d="M440.81,-114.29C459.76,-107.87 484.17,-96.1 496,-76 508.06,-55.5 483.83,-36.51 462.01,-24.42"/>
<polygon fill="midnightblue" stroke="midnightblue" points="463.41,-21.2 452.92,-19.68 460.17,-27.41 463.41,-21.2"/>
</g>
<!-- Node13 -->
<g id="node13" class="node">
<title>Node13</title>
<g id="a_node13"><a xlink:title=" ">
<polygon fill="white" stroke="#bfbfbf" points="315.5,-56.5 315.5,-75.5 380.5,-75.5 380.5,-56.5 315.5,-56.5"/>
<text text-anchor="middle" x="348" y="-63.5" font-family="Helvetica,sans-Serif" font-size="10.00">onnx.pb.h</text>
</a>
</g>
</g>
<!-- Node9&#45;&gt;Node13 -->
<g id="edge13" class="edge">
<title>Node9&#45;&gt;Node13</title>
<path fill="none" stroke="midnightblue" d="M404.24,-112.32C394.23,-104.26 379.11,-92.08 367.07,-82.37"/>
<polygon fill="midnightblue" stroke="midnightblue" points="368.94,-79.38 358.96,-75.83 364.55,-84.83 368.94,-79.38"/>
</g>
<!-- Node14 -->
<g id="node14" class="node">
<title>Node14</title>
<g id="a_node14"><a xlink:href="type__info_8h.html" target="_top" xlink:title=" ">
<polygon fill="white" stroke="black" points="226.5,-56.5 226.5,-75.5 297.5,-75.5 297.5,-56.5 226.5,-56.5"/>
<text text-anchor="middle" x="262" y="-63.5" font-family="Helvetica,sans-Serif" font-size="10.00">type_info.h</text>
</a>
</g>
</g>
<!-- Node9&#45;&gt;Node14 -->
<g id="edge14" class="edge">
<title>Node9&#45;&gt;Node14</title>
<path fill="none" stroke="midnightblue" d="M390.76,-112.44C365.13,-103.4 324.51,-89.06 295.76,-78.92"/>
<polygon fill="midnightblue" stroke="midnightblue" points="296.72,-75.54 286.13,-75.52 294.39,-82.15 296.72,-75.54"/>
</g>
<!-- Node14&#45;&gt;Node12 -->
<g id="edge17" class="edge">
<title>Node14&#45;&gt;Node12</title>
<path fill="none" stroke="midnightblue" d="M289.1,-56.44C317.99,-47.32 363.92,-32.81 396.11,-22.65"/>
<polygon fill="midnightblue" stroke="midnightblue" points="397.55,-25.87 406.03,-19.52 395.44,-19.19 397.55,-25.87"/>
</g>
<!-- Node15 -->
<g id="node15" class="node">
<title>Node15</title>
<g id="a_node15"><a xlink:title=" ">
<polygon fill="white" stroke="#bfbfbf" points="208,-0.5 208,-19.5 252,-19.5 252,-0.5 208,-0.5"/>
<text text-anchor="middle" x="230" y="-7.5" font-family="Helvetica,sans-Serif" font-size="10.00">string</text>
</a>
</g>
</g>
<!-- Node14&#45;&gt;Node15 -->
<g id="edge15" class="edge">
<title>Node14&#45;&gt;Node15</title>
<path fill="none" stroke="midnightblue" d="M256.72,-56.08C252.29,-48.61 245.84,-37.72 240.38,-28.52"/>
<polygon fill="midnightblue" stroke="midnightblue" points="243.29,-26.57 235.19,-19.75 237.27,-30.14 243.29,-26.57"/>
</g>
<!-- Node16 -->
<g id="node16" class="node">
<title>Node16</title>
<g id="a_node16"><a xlink:title=" ">
<polygon fill="white" stroke="#bfbfbf" points="270.5,-0.5 270.5,-19.5 317.5,-19.5 317.5,-0.5 270.5,-0.5"/>
<text text-anchor="middle" x="294" y="-7.5" font-family="Helvetica,sans-Serif" font-size="10.00">vector</text>
</a>
</g>
</g>
<!-- Node14&#45;&gt;Node16 -->
<g id="edge16" class="edge">
<title>Node14&#45;&gt;Node16</title>
<path fill="none" stroke="midnightblue" d="M267.28,-56.08C271.71,-48.61 278.16,-37.72 283.62,-28.52"/>
<polygon fill="midnightblue" stroke="midnightblue" points="286.73,-30.14 288.81,-19.75 280.71,-26.57 286.73,-30.14"/>
</g>
<!-- Node17&#45;&gt;Node8 -->
<g id="edge19" class="edge">
<title>Node17&#45;&gt;Node8</title>
<path fill="none" stroke="midnightblue" d="M330,-168.08C330,-161.01 330,-150.86 330,-141.99"/>
<polygon fill="midnightblue" stroke="midnightblue" points="333.5,-141.75 330,-131.75 326.5,-141.75 333.5,-141.75"/>
</g>
<!-- Node17&#45;&gt;Node9 -->
<g id="edge20" class="edge">
<title>Node17&#45;&gt;Node9</title>
<path fill="none" stroke="midnightblue" d="M343.66,-168.32C356.92,-159.9 377.27,-146.97 392.85,-137.07"/>
<polygon fill="midnightblue" stroke="midnightblue" points="394.81,-139.97 401.38,-131.65 391.06,-134.06 394.81,-139.97"/>
</g>
<!-- Node18&#45;&gt;Node9 -->
<g id="edge23" class="edge">
<title>Node18&#45;&gt;Node9</title>
<path fill="none" stroke="midnightblue" d="M464.52,-168.32C455.8,-160.34 442.66,-148.31 432.1,-138.65"/>
<polygon fill="midnightblue" stroke="midnightblue" points="434.39,-136 424.65,-131.83 429.67,-141.17 434.39,-136"/>
</g>
</g>
</svg>
