<?xml version="1.0" encoding="UTF-8" standalone="no"?>
<!DOCTYPE svg PUBLIC "-//W3C//DTD SVG 1.1//EN"
 "http://www.w3.org/Graphics/SVG/1.1/DTD/svg11.dtd">
<!-- Generated by graphviz version 2.43.0 (0)
 -->
<!-- Title: include/K&#45;shortest_path/heap_traits.h Pages: 1 -->
<svg width="588pt" height="642pt"
 viewBox="0.00 0.00 587.50 642.00" xmlns="http://www.w3.org/2000/svg" xmlns:xlink="http://www.w3.org/1999/xlink">
<g id="graph0" class="graph" transform="scale(1 1) rotate(0) translate(4 638)">
<title>include/K&#45;shortest_path/heap_traits.h</title>
<polygon fill="white" stroke="transparent" points="-4,4 -4,-638 583.5,-638 583.5,4 -4,4"/>
<!-- Node1 -->
<g id="node1" class="node">
<title>Node1</title>
<g id="a_node1"><a xlink:title=" ">
<polygon fill="#bfbfbf" stroke="black" points="469.5,-603.5 469.5,-633.5 579.5,-633.5 579.5,-603.5 469.5,-603.5"/>
<text text-anchor="start" x="477.5" y="-621.5" font-family="Helvetica,sans-Serif" font-size="10.00">include/K&#45;shortest</text>
<text text-anchor="middle" x="524.5" y="-610.5" font-family="Helvetica,sans-Serif" font-size="10.00">_path/heap_traits.h</text>
</a>
</g>
</g>
<!-- Node2 -->
<g id="node2" class="node">
<title>Node2</title>
<g id="a_node2"><a xlink:href="basic__keppstein_8h.html" target="_top" xlink:title=" ">
<polygon fill="white" stroke="black" points="386.5,-458.5 386.5,-488.5 520.5,-488.5 520.5,-458.5 386.5,-458.5"/>
<text text-anchor="start" x="394.5" y="-476.5" font-family="Helvetica,sans-Serif" font-size="10.00">include/K&#45;shortest</text>
<text text-anchor="middle" x="453.5" y="-465.5" font-family="Helvetica,sans-Serif" font-size="10.00">_path/basic_keppstein.h</text>
</a>
</g>
</g>
<!-- Node1&#45;&gt;Node2 -->
<g id="edge1" class="edge">
<title>Node1&#45;&gt;Node2</title>
<path fill="none" stroke="midnightblue" d="M523.06,-593.31C521.04,-573.84 516.18,-546.29 504.5,-525 496.65,-510.69 483.48,-497.8 472.49,-488.63"/>
<polygon fill="midnightblue" stroke="midnightblue" points="519.59,-593.81 523.94,-603.47 526.56,-593.21 519.59,-593.81"/>
</g>
<!-- Node11 -->
<g id="node11" class="node">
<title>Node11</title>
<g id="a_node11"><a xlink:href="network__butcher_8h.html" target="_top" xlink:title=" ">
<polygon fill="white" stroke="black" points="433,-56.5 433,-75.5 578,-75.5 578,-56.5 433,-56.5"/>
<text text-anchor="middle" x="505.5" y="-63.5" font-family="Helvetica,sans-Serif" font-size="10.00">include/network_butcher.h</text>
</a>
</g>
</g>
<!-- Node1&#45;&gt;Node11 -->
<g id="edge22" class="edge">
<title>Node1&#45;&gt;Node11</title>
<path fill="none" stroke="midnightblue" d="M534.82,-593.89C546.07,-565.94 562.5,-517.74 562.5,-474.5 562.5,-474.5 562.5,-474.5 562.5,-210 562.5,-155.48 526.3,-97.04 511.6,-75.55"/>
<polygon fill="midnightblue" stroke="midnightblue" points="531.55,-592.64 530.95,-603.22 538.01,-595.32 531.55,-592.64"/>
</g>
<!-- Node17 -->
<g id="node17" class="node">
<title>Node17</title>
<g id="a_node17"><a xlink:href="shortest__path__finder_8h.html" target="_top" xlink:title=" ">
<polygon fill="white" stroke="black" points="383,-525.5 383,-566.5 496,-566.5 496,-525.5 383,-525.5"/>
<text text-anchor="start" x="391" y="-554.5" font-family="Helvetica,sans-Serif" font-size="10.00">include/K&#45;shortest</text>
<text text-anchor="start" x="391" y="-543.5" font-family="Helvetica,sans-Serif" font-size="10.00">_path/shortest_path</text>
<text text-anchor="middle" x="439.5" y="-532.5" font-family="Helvetica,sans-Serif" font-size="10.00">_finder.h</text>
</a>
</g>
</g>
<!-- Node1&#45;&gt;Node17 -->
<g id="edge20" class="edge">
<title>Node1&#45;&gt;Node17</title>
<path fill="none" stroke="midnightblue" d="M499.37,-596.66C487.9,-587.15 474.4,-575.94 463.12,-566.59"/>
<polygon fill="midnightblue" stroke="midnightblue" points="497.37,-599.54 507.3,-603.23 501.84,-594.16 497.37,-599.54"/>
</g>
<!-- Node3 -->
<g id="node3" class="node">
<title>Node3</title>
<g id="a_node3"><a xlink:href="keppstein_8h.html" target="_top" xlink:title=" ">
<polygon fill="white" stroke="black" points="276.5,-391.5 276.5,-421.5 380.5,-421.5 380.5,-391.5 276.5,-391.5"/>
<text text-anchor="start" x="284.5" y="-409.5" font-family="Helvetica,sans-Serif" font-size="10.00">include/K&#45;shortest</text>
<text text-anchor="middle" x="328.5" y="-398.5" font-family="Helvetica,sans-Serif" font-size="10.00">_path/keppstein.h</text>
</a>
</g>
</g>
<!-- Node2&#45;&gt;Node3 -->
<g id="edge2" class="edge">
<title>Node2&#45;&gt;Node3</title>
<path fill="none" stroke="midnightblue" d="M417.37,-453.71C397.66,-443.46 373.66,-430.98 355.57,-421.58"/>
<polygon fill="midnightblue" stroke="midnightblue" points="415.89,-456.89 426.38,-458.4 419.12,-450.68 415.89,-456.89"/>
</g>
<!-- Node16 -->
<g id="node16" class="node">
<title>Node16</title>
<g id="a_node16"><a xlink:href="keppstein__lazy_8h.html" target="_top" xlink:title=" ">
<polygon fill="white" stroke="black" points="399,-391.5 399,-421.5 526,-421.5 526,-391.5 399,-391.5"/>
<text text-anchor="start" x="407" y="-409.5" font-family="Helvetica,sans-Serif" font-size="10.00">include/K&#45;shortest</text>
<text text-anchor="middle" x="462.5" y="-398.5" font-family="Helvetica,sans-Serif" font-size="10.00">_path/keppstein_lazy.h</text>
</a>
</g>
</g>
<!-- Node2&#45;&gt;Node16 -->
<g id="edge18" class="edge">
<title>Node2&#45;&gt;Node16</title>
<path fill="none" stroke="midnightblue" d="M456.84,-448.4C458.09,-439.37 459.47,-429.41 460.55,-421.58"/>
<polygon fill="midnightblue" stroke="midnightblue" points="453.36,-448.01 455.45,-458.4 460.29,-448.97 453.36,-448.01"/>
</g>
<!-- Node4 -->
<g id="node4" class="node">
<title>Node4</title>
<g id="a_node4"><a xlink:href="kfinder__factory_8h.html" target="_top" xlink:title=" ">
<polygon fill="white" stroke="black" points="381.5,-324.5 381.5,-354.5 509.5,-354.5 509.5,-324.5 381.5,-324.5"/>
<text text-anchor="start" x="389.5" y="-342.5" font-family="Helvetica,sans-Serif" font-size="10.00">include/K&#45;shortest</text>
<text text-anchor="middle" x="445.5" y="-331.5" font-family="Helvetica,sans-Serif" font-size="10.00">_path/kfinder_factory.h</text>
</a>
</g>
</g>
<!-- Node3&#45;&gt;Node4 -->
<g id="edge3" class="edge">
<title>Node3&#45;&gt;Node4</title>
<path fill="none" stroke="midnightblue" d="M362.82,-386.44C381.17,-376.24 403.38,-363.9 420.16,-354.58"/>
<polygon fill="midnightblue" stroke="midnightblue" points="360.93,-383.48 353.89,-391.4 364.33,-389.6 360.93,-383.48"/>
</g>
<!-- Node5 -->
<g id="node5" class="node">
<title>Node5</title>
<g id="a_node5"><a xlink:href="butcher_8h.html" target="_top" xlink:title=" ">
<polygon fill="white" stroke="black" points="334.5,-268.5 334.5,-287.5 474.5,-287.5 474.5,-268.5 334.5,-268.5"/>
<text text-anchor="middle" x="404.5" y="-275.5" font-family="Helvetica,sans-Serif" font-size="10.00">include/Butcher/butcher.h</text>
</a>
</g>
</g>
<!-- Node4&#45;&gt;Node5 -->
<g id="edge4" class="edge">
<title>Node4&#45;&gt;Node5</title>
<path fill="none" stroke="midnightblue" d="M430.07,-316.1C423.23,-306.19 415.6,-295.11 410.47,-287.66"/>
<polygon fill="midnightblue" stroke="midnightblue" points="427.23,-318.15 435.78,-324.4 432.99,-314.18 427.23,-318.15"/>
</g>
<!-- Node4&#45;&gt;Node11 -->
<g id="edge17" class="edge">
<title>Node4&#45;&gt;Node11</title>
<path fill="none" stroke="midnightblue" d="M465.53,-316.37C472.16,-308 478.98,-298.06 483.5,-288 515.91,-215.8 514.88,-191.02 510.5,-112 509.8,-99.29 507.98,-84.64 506.74,-75.6"/>
<polygon fill="midnightblue" stroke="midnightblue" points="462.76,-314.23 459.06,-324.16 468.14,-318.7 462.76,-314.23"/>
</g>
<!-- Node6 -->
<g id="node6" class="node">
<title>Node6</title>
<g id="a_node6"><a xlink:href="onnx__importer__helpers_8h.html" target="_top" xlink:title=" ">
<polygon fill="white" stroke="black" points="315,-196 315,-226 456,-226 456,-196 315,-196"/>
<text text-anchor="start" x="323" y="-214" font-family="Helvetica,sans-Serif" font-size="10.00">include/IO_Interaction</text>
<text text-anchor="middle" x="385.5" y="-203" font-family="Helvetica,sans-Serif" font-size="10.00">/onnx_importer_helpers.h</text>
</a>
</g>
</g>
<!-- Node5&#45;&gt;Node6 -->
<g id="edge5" class="edge">
<title>Node5&#45;&gt;Node6</title>
<path fill="none" stroke="midnightblue" d="M399.11,-258.56C396.1,-248.25 392.4,-235.6 389.62,-226.09"/>
<polygon fill="midnightblue" stroke="midnightblue" points="395.77,-259.62 401.94,-268.23 402.49,-257.65 395.77,-259.62"/>
</g>
<!-- Node5&#45;&gt;Node11 -->
<g id="edge16" class="edge">
<title>Node5&#45;&gt;Node11</title>
<path fill="none" stroke="midnightblue" d="M430.38,-263.18C442.43,-255.5 455.96,-244.89 464.5,-232 498.91,-180.09 504.45,-101.66 505.33,-75.69"/>
<polygon fill="midnightblue" stroke="midnightblue" points="428.34,-260.32 421.57,-268.46 431.94,-266.32 428.34,-260.32"/>
</g>
<!-- Node14 -->
<g id="node14" class="node">
<title>Node14</title>
<g id="a_node14"><a xlink:href="onnx__model__reconstructor__helpers_8h.html" target="_top" xlink:title=" ">
<polygon fill="white" stroke="black" points="148,-190.5 148,-231.5 297,-231.5 297,-190.5 148,-190.5"/>
<text text-anchor="start" x="156" y="-219.5" font-family="Helvetica,sans-Serif" font-size="10.00">include/IO_Interaction</text>
<text text-anchor="start" x="156" y="-208.5" font-family="Helvetica,sans-Serif" font-size="10.00">/onnx_model_reconstructor</text>
<text text-anchor="middle" x="222.5" y="-197.5" font-family="Helvetica,sans-Serif" font-size="10.00">_helpers.h</text>
</a>
</g>
</g>
<!-- Node5&#45;&gt;Node14 -->
<g id="edge13" class="edge">
<title>Node5&#45;&gt;Node14</title>
<path fill="none" stroke="midnightblue" d="M370.87,-264.99C344.71,-255.65 307.87,-242.49 277.45,-231.63"/>
<polygon fill="midnightblue" stroke="midnightblue" points="369.74,-268.3 380.33,-268.37 372.09,-261.71 369.74,-268.3"/>
</g>
<!-- Node7 -->
<g id="node7" class="node">
<title>Node7</title>
<g id="a_node7"><a xlink:href="io__manager_8h.html" target="_top" xlink:title=" ">
<polygon fill="white" stroke="black" points="167,-123.5 167,-142.5 288,-142.5 288,-123.5 167,-123.5"/>
<text text-anchor="middle" x="227.5" y="-130.5" font-family="Helvetica,sans-Serif" font-size="10.00">include/io_manager.h</text>
</a>
</g>
</g>
<!-- Node6&#45;&gt;Node7 -->
<g id="edge6" class="edge">
<title>Node6&#45;&gt;Node7</title>
<path fill="none" stroke="midnightblue" d="M346.97,-191.47C314.64,-175.92 269.93,-154.41 245.39,-142.61"/>
<polygon fill="midnightblue" stroke="midnightblue" points="345.62,-194.7 356.15,-195.88 348.66,-188.39 345.62,-194.7"/>
</g>
<!-- Node13 -->
<g id="node13" class="node">
<title>Node13</title>
<g id="a_node13"><a xlink:href="onnx__importer__helpers_8cpp.html" target="_top" xlink:title=" ">
<polygon fill="white" stroke="black" points="306.5,-118 306.5,-148 458.5,-148 458.5,-118 306.5,-118"/>
<text text-anchor="start" x="314.5" y="-136" font-family="Helvetica,sans-Serif" font-size="10.00">src/IO_Interaction</text>
<text text-anchor="middle" x="382.5" y="-125" font-family="Helvetica,sans-Serif" font-size="10.00">/onnx_importer_helpers.cpp</text>
</a>
</g>
</g>
<!-- Node6&#45;&gt;Node13 -->
<g id="edge12" class="edge">
<title>Node6&#45;&gt;Node13</title>
<path fill="none" stroke="midnightblue" d="M384.54,-185.59C384.05,-173.26 383.48,-158.72 383.06,-148.23"/>
<polygon fill="midnightblue" stroke="midnightblue" points="381.04,-185.85 384.94,-195.7 388.04,-185.57 381.04,-185.85"/>
</g>
<!-- Node8 -->
<g id="node8" class="node">
<title>Node8</title>
<g id="a_node8"><a xlink:href="general__manager_8h.html" target="_top" xlink:title=" ">
<polygon fill="white" stroke="black" points="200,-56.5 200,-75.5 349,-75.5 349,-56.5 200,-56.5"/>
<text text-anchor="middle" x="274.5" y="-63.5" font-family="Helvetica,sans-Serif" font-size="10.00">include/general_manager.h</text>
</a>
</g>
</g>
<!-- Node7&#45;&gt;Node8 -->
<g id="edge7" class="edge">
<title>Node7&#45;&gt;Node8</title>
<path fill="none" stroke="midnightblue" d="M239.86,-114.9C248.99,-102.27 261.05,-85.6 268.26,-75.63"/>
<polygon fill="midnightblue" stroke="midnightblue" points="236.86,-113.08 233.84,-123.23 242.53,-117.18 236.86,-113.08"/>
</g>
<!-- Node7&#45;&gt;Node11 -->
<g id="edge10" class="edge">
<title>Node7&#45;&gt;Node11</title>
<path fill="none" stroke="midnightblue" d="M265.89,-120.54C276.13,-117.62 287.2,-114.58 297.5,-112 353.94,-97.85 419.67,-84.08 461.89,-75.57"/>
<polygon fill="midnightblue" stroke="midnightblue" points="264.63,-117.26 255.99,-123.4 266.57,-123.99 264.63,-117.26"/>
</g>
<!-- Node12 -->
<g id="node12" class="node">
<title>Node12</title>
<g id="a_node12"><a xlink:href="io__manager_8cpp.html" target="_top" xlink:title=" ">
<polygon fill="white" stroke="black" points="71,-56.5 71,-75.5 182,-75.5 182,-56.5 71,-56.5"/>
<text text-anchor="middle" x="126.5" y="-63.5" font-family="Helvetica,sans-Serif" font-size="10.00">src/io_manager.cpp</text>
</a>
</g>
</g>
<!-- Node7&#45;&gt;Node12 -->
<g id="edge11" class="edge">
<title>Node7&#45;&gt;Node12</title>
<path fill="none" stroke="midnightblue" d="M205.39,-117.77C185.39,-104.9 156.61,-86.38 139.91,-75.63"/>
<polygon fill="midnightblue" stroke="midnightblue" points="203.58,-120.77 213.88,-123.23 207.36,-114.88 203.58,-120.77"/>
</g>
<!-- Node9 -->
<g id="node9" class="node">
<title>Node9</title>
<g id="a_node9"><a xlink:href="general__manager_8cpp.html" target="_top" xlink:title=" ">
<polygon fill="white" stroke="black" points="141,-0.5 141,-19.5 280,-19.5 280,-0.5 141,-0.5"/>
<text text-anchor="middle" x="210.5" y="-7.5" font-family="Helvetica,sans-Serif" font-size="10.00">src/general_manager.cpp</text>
</a>
</g>
</g>
<!-- Node8&#45;&gt;Node9 -->
<g id="edge8" class="edge">
<title>Node8&#45;&gt;Node9</title>
<path fill="none" stroke="midnightblue" d="M256.51,-49.82C245.04,-40.15 230.59,-27.95 220.97,-19.83"/>
<polygon fill="midnightblue" stroke="midnightblue" points="254.32,-52.55 264.22,-56.32 258.83,-47.2 254.32,-52.55"/>
</g>
<!-- Node10 -->
<g id="node10" class="node">
<title>Node10</title>
<g id="a_node10"><a xlink:href="main_8cpp.html" target="_top" xlink:title=" ">
<polygon fill="white" stroke="black" points="298,-0.5 298,-19.5 377,-19.5 377,-0.5 298,-0.5"/>
<text text-anchor="middle" x="337.5" y="-7.5" font-family="Helvetica,sans-Serif" font-size="10.00">src/main.cpp</text>
</a>
</g>
</g>
<!-- Node8&#45;&gt;Node10 -->
<g id="edge9" class="edge">
<title>Node8&#45;&gt;Node10</title>
<path fill="none" stroke="midnightblue" d="M292.54,-49.54C303.77,-39.91 317.82,-27.87 327.19,-19.83"/>
<polygon fill="midnightblue" stroke="midnightblue" points="289.94,-47.16 284.62,-56.32 294.49,-52.47 289.94,-47.16"/>
</g>
<!-- Node14&#45;&gt;Node7 -->
<g id="edge14" class="edge">
<title>Node14&#45;&gt;Node7</title>
<path fill="none" stroke="midnightblue" d="M224.47,-180.05C225.36,-166.56 226.34,-151.65 226.94,-142.55"/>
<polygon fill="midnightblue" stroke="midnightblue" points="220.95,-180.22 223.79,-190.43 227.94,-180.68 220.95,-180.22"/>
</g>
<!-- Node15 -->
<g id="node15" class="node">
<title>Node15</title>
<g id="a_node15"><a xlink:href="onnx__model__reconstructor__helpers_8cpp.html" target="_top" xlink:title=" ">
<polygon fill="white" stroke="black" points="0,-112.5 0,-153.5 149,-153.5 149,-112.5 0,-112.5"/>
<text text-anchor="start" x="8" y="-141.5" font-family="Helvetica,sans-Serif" font-size="10.00">src/IO_Interaction</text>
<text text-anchor="start" x="8" y="-130.5" font-family="Helvetica,sans-Serif" font-size="10.00">/onnx_model_reconstructor</text>
<text text-anchor="middle" x="74.5" y="-119.5" font-family="Helvetica,sans-Serif" font-size="10.00">_helpers.cpp</text>
</a>
</g>
</g>
<!-- Node14&#45;&gt;Node15 -->
<g id="edge15" class="edge">
<title>Node14&#45;&gt;Node15</title>
<path fill="none" stroke="midnightblue" d="M175.31,-185.77C155.02,-175.35 131.63,-163.34 112.48,-153.51"/>
<polygon fill="midnightblue" stroke="midnightblue" points="173.89,-188.97 184.39,-190.43 177.09,-182.75 173.89,-188.97"/>
</g>
<!-- Node16&#45;&gt;Node4 -->
<g id="edge19" class="edge">
<title>Node16&#45;&gt;Node4</title>
<path fill="none" stroke="midnightblue" d="M456.27,-381.7C453.89,-372.59 451.25,-362.49 449.18,-354.58"/>
<polygon fill="midnightblue" stroke="midnightblue" points="452.89,-382.61 458.81,-391.4 459.67,-380.84 452.89,-382.61"/>
</g>
<!-- Node17&#45;&gt;Node2 -->
<g id="edge21" class="edge">
<title>Node17&#45;&gt;Node2</title>
<path fill="none" stroke="midnightblue" d="M445.38,-515.38C447.2,-506.21 449.12,-496.53 450.64,-488.89"/>
<polygon fill="midnightblue" stroke="midnightblue" points="441.91,-514.87 443.4,-525.36 448.78,-516.24 441.91,-514.87"/>
</g>
</g>
</svg>
