<?xml version="1.0" encoding="UTF-8" standalone="no"?>
<!DOCTYPE svg PUBLIC "-//W3C//DTD SVG 1.1//EN"
 "http://www.w3.org/Graphics/SVG/1.1/DTD/svg11.dtd">
<!-- Generated by graphviz version 2.43.0 (0)
 -->
<!-- Title: Graphical Class Hierarchy Pages: 1 -->
<svg width="406pt" height="247pt"
 viewBox="0.00 0.00 406.00 247.00" xmlns="http://www.w3.org/2000/svg" xmlns:xlink="http://www.w3.org/1999/xlink">
<g id="graph0" class="graph" transform="scale(1 1) rotate(0) translate(4 243)">
<title>Graphical Class Hierarchy</title>
<polygon fill="white" stroke="transparent" points="-4,4 -4,-243 402,-243 402,4 -4,4"/>
<!-- Node0 -->
<g id="node1" class="node">
<title>Node0</title>
<g id="a_node1"><a xlink:href="classnetwork__butcher_1_1kfinder_1_1Base__Weighted__Graph.html" target="_top" xlink:title="Helper Weighted graph class. It is used to identify Weighted_Graph independently of its template para...">
<polygon fill="white" stroke="black" points="0,-148.5 0,-178.5 138,-178.5 138,-148.5 0,-148.5"/>
<text text-anchor="start" x="8" y="-166.5" font-family="Helvetica,sans-Serif" font-size="10.00">network_butcher::kfinder</text>
<text text-anchor="middle" x="69" y="-155.5" font-family="Helvetica,sans-Serif" font-size="10.00">::Base_Weighted_Graph</text>
</a>
</g>
</g>
<!-- Node1 -->
<g id="node2" class="node">
<title>Node1</title>
<g id="a_node2"><a xlink:href="classnetwork__butcher_1_1kfinder_1_1Weighted__Graph.html" target="_top" xlink:title=" ">
<polygon fill="white" stroke="black" points="197.5,-208.5 197.5,-238.5 374.5,-238.5 374.5,-208.5 197.5,-208.5"/>
<text text-anchor="start" x="205.5" y="-226.5" font-family="Helvetica,sans-Serif" font-size="10.00">network_butcher::kfinder</text>
<text text-anchor="middle" x="286" y="-215.5" font-family="Helvetica,sans-Serif" font-size="10.00">::Weighted_Graph&lt; GraphType &gt;</text>
</a>
</g>
</g>
<!-- Node0&#45;&gt;Node1 -->
<g id="edge1" class="edge">
<title>Node0&#45;&gt;Node1</title>
<path fill="none" stroke="#8b1a1a" d="M119.88,-182.13C136.91,-188.13 156.16,-194.5 174,-199.5 185.39,-202.69 197.54,-205.7 209.47,-208.45"/>
<polygon fill="#8b1a1a" stroke="#8b1a1a" points="120.74,-178.72 110.14,-178.66 118.39,-185.31 120.74,-178.72"/>
</g>
<!-- Node2 -->
<g id="node3" class="node">
<title>Node2</title>
<g id="a_node3"><a xlink:href="classnetwork__butcher_1_1kfinder_1_1Weighted__Graph.html" target="_top" xlink:title=" ">
<polygon fill="white" stroke="black" points="174,-137.5 174,-189.5 398,-189.5 398,-137.5 174,-137.5"/>
<text text-anchor="start" x="182" y="-177.5" font-family="Helvetica,sans-Serif" font-size="10.00">network_butcher::kfinder</text>
<text text-anchor="start" x="182" y="-166.5" font-family="Helvetica,sans-Serif" font-size="10.00">::Weighted_Graph&lt; InternalGraph</text>
<text text-anchor="start" x="182" y="-155.5" font-family="Helvetica,sans-Serif" font-size="10.00">Type, t_Reversed, t_Node_Type,</text>
<text text-anchor="middle" x="286" y="-144.5" font-family="Helvetica,sans-Serif" font-size="10.00"> t_Node_Collection_Type, t_Weight_Type &gt;</text>
</a>
</g>
</g>
<!-- Node0&#45;&gt;Node2 -->
<g id="edge2" class="edge">
<title>Node0&#45;&gt;Node2</title>
<path fill="none" stroke="#8b1a1a" d="M148.11,-163.5C156.49,-163.5 165.13,-163.5 173.8,-163.5"/>
<polygon fill="#8b1a1a" stroke="#8b1a1a" points="148.03,-160 138.03,-163.5 148.03,-167 148.03,-160"/>
</g>
<!-- Node3 -->
<g id="node4" class="node">
<title>Node3</title>
<g id="a_node4"><a xlink:href="classnetwork__butcher_1_1kfinder_1_1Weighted__Graph_3_01network__butcher_1_1types_1_1WGraph_3_01ee31896d9c6cb327df7ef83ed945b846.html" target="_top" xlink:title=" ">
<polygon fill="white" stroke="black" points="180.5,-0.5 180.5,-118.5 391.5,-118.5 391.5,-0.5 180.5,-0.5"/>
<text text-anchor="start" x="188.5" y="-106.5" font-family="Helvetica,sans-Serif" font-size="10.00">network_butcher::kfinder</text>
<text text-anchor="start" x="188.5" y="-95.5" font-family="Helvetica,sans-Serif" font-size="10.00">::Weighted_Graph&lt; network</text>
<text text-anchor="start" x="188.5" y="-84.5" font-family="Helvetica,sans-Serif" font-size="10.00">_butcher::types::WGraph&lt;</text>
<text text-anchor="start" x="188.5" y="-73.5" font-family="Helvetica,sans-Serif" font-size="10.00"> Parallel_Edges, t_Node_Type</text>
<text text-anchor="start" x="188.5" y="-62.5" font-family="Helvetica,sans-Serif" font-size="10.00"> &gt;, t_Reversed, typename network</text>
<text text-anchor="start" x="188.5" y="-51.5" font-family="Helvetica,sans-Serif" font-size="10.00">_butcher::types::WGraph&lt; Parallel</text>
<text text-anchor="start" x="188.5" y="-40.5" font-family="Helvetica,sans-Serif" font-size="10.00">_Edges, t_Node_Type &gt;::Node_Type,</text>
<text text-anchor="start" x="188.5" y="-29.5" font-family="Helvetica,sans-Serif" font-size="10.00"> typename network_butcher::types::</text>
<text text-anchor="start" x="188.5" y="-18.5" font-family="Helvetica,sans-Serif" font-size="10.00">WGraph&lt; Parallel_Edges, t_Node_Type</text>
<text text-anchor="middle" x="286" y="-7.5" font-family="Helvetica,sans-Serif" font-size="10.00"> &gt;::Node_Collection_Type, Time_Type &gt;</text>
</a>
</g>
</g>
<!-- Node0&#45;&gt;Node3 -->
<g id="edge3" class="edge">
<title>Node0&#45;&gt;Node3</title>
<path fill="none" stroke="#8b1a1a" d="M110.34,-143.99C130.31,-134.33 155.43,-122.18 180.35,-110.12"/>
<polygon fill="#8b1a1a" stroke="#8b1a1a" points="108.74,-140.87 101.26,-148.38 111.79,-147.17 108.74,-140.87"/>
</g>
</g>
</svg>
