<?xml version="1.0" encoding="UTF-8" standalone="no"?>
<!DOCTYPE svg PUBLIC "-//W3C//DTD SVG 1.1//EN"
 "http://www.w3.org/Graphics/SVG/1.1/DTD/svg11.dtd">
<!-- Generated by graphviz version 2.43.0 (0)
 -->
<!-- Title: Graphical Class Hierarchy Pages: 1 -->
<svg width="442pt" height="362pt"
 viewBox="0.00 0.00 442.00 362.00" xmlns="http://www.w3.org/2000/svg" xmlns:xlink="http://www.w3.org/1999/xlink">
<g id="graph0" class="graph" transform="scale(1 1) rotate(0) translate(4 358)">
<title>Graphical Class Hierarchy</title>
<polygon fill="white" stroke="transparent" points="-4,4 -4,-358 438,-358 438,4 -4,4"/>
<!-- Node0 -->
<g id="node1" class="node">
<title>Node0</title>
<g id="a_node1"><a xlink:href="classnetwork__butcher_1_1kfinder_1_1Base__Weighted__Graph.html" target="_top" xlink:title="Helper Weighted graph class. It is used to identify Weighted_Graph independently of its template para...">
<polygon fill="white" stroke="black" points="0,-216.5 0,-246.5 138,-246.5 138,-216.5 0,-216.5"/>
<text text-anchor="start" x="8" y="-234.5" font-family="Helvetica,sans-Serif" font-size="10.00">network_butcher::kfinder</text>
<text text-anchor="middle" x="69" y="-223.5" font-family="Helvetica,sans-Serif" font-size="10.00">::Base_Weighted_Graph</text>
</a>
</g>
</g>
<!-- Node1 -->
<g id="node2" class="node">
<title>Node1</title>
<g id="a_node2"><a xlink:href="classnetwork__butcher_1_1kfinder_1_1Weighted__Graph.html" target="_top" xlink:title=" ">
<polygon fill="white" stroke="black" points="215.5,-323.5 215.5,-353.5 392.5,-353.5 392.5,-323.5 215.5,-323.5"/>
<text text-anchor="start" x="223.5" y="-341.5" font-family="Helvetica,sans-Serif" font-size="10.00">network_butcher::kfinder</text>
<text text-anchor="middle" x="304" y="-330.5" font-family="Helvetica,sans-Serif" font-size="10.00">::Weighted_Graph&lt; GraphType &gt;</text>
</a>
</g>
</g>
<!-- Node0&#45;&gt;Node1 -->
<g id="edge1" class="edge">
<title>Node0&#45;&gt;Node1</title>
<path fill="none" stroke="#8b1a1a" d="M91.45,-253.96C111.1,-273.12 141.91,-299.83 174,-314.5 186.85,-320.37 201.04,-324.81 215.16,-328.16"/>
<polygon fill="#8b1a1a" stroke="#8b1a1a" points="93.8,-251.36 84.25,-246.78 88.86,-256.32 93.8,-251.36"/>
</g>
<!-- Node2 -->
<g id="node3" class="node">
<title>Node2</title>
<g id="a_node3"><a xlink:href="classnetwork__butcher_1_1kfinder_1_1Weighted__Graph.html" target="_top" xlink:title=" ">
<polygon fill="white" stroke="black" points="192,-252.5 192,-304.5 416,-304.5 416,-252.5 192,-252.5"/>
<text text-anchor="start" x="200" y="-292.5" font-family="Helvetica,sans-Serif" font-size="10.00">network_butcher::kfinder</text>
<text text-anchor="start" x="200" y="-281.5" font-family="Helvetica,sans-Serif" font-size="10.00">::Weighted_Graph&lt; InternalGraph</text>
<text text-anchor="start" x="200" y="-270.5" font-family="Helvetica,sans-Serif" font-size="10.00">Type, t_Reversed, t_Node_Type,</text>
<text text-anchor="middle" x="304" y="-259.5" font-family="Helvetica,sans-Serif" font-size="10.00"> t_Node_Collection_Type, t_Weight_Type &gt;</text>
</a>
</g>
</g>
<!-- Node0&#45;&gt;Node2 -->
<g id="edge2" class="edge">
<title>Node0&#45;&gt;Node2</title>
<path fill="none" stroke="#8b1a1a" d="M148.11,-247.26C162.2,-250.1 177.13,-253.11 191.94,-256.1"/>
<polygon fill="#8b1a1a" stroke="#8b1a1a" points="148.51,-243.77 138.02,-245.22 147.13,-250.63 148.51,-243.77"/>
</g>
<!-- Node3 -->
<g id="node4" class="node">
<title>Node3</title>
<g id="a_node4"><a xlink:href="classnetwork__butcher_1_1kfinder_1_1Weighted__Graph_3_01network__butcher_1_1types_1_1WGraph_3_01b00fb28c5fb95956eecd2e9a293091cb.html" target="_top" xlink:title=" ">
<polygon fill="white" stroke="black" points="174,-137.5 174,-233.5 434,-233.5 434,-137.5 174,-137.5"/>
<text text-anchor="start" x="182" y="-221.5" font-family="Helvetica,sans-Serif" font-size="10.00">network_butcher::kfinder</text>
<text text-anchor="start" x="182" y="-210.5" font-family="Helvetica,sans-Serif" font-size="10.00">::Weighted_Graph&lt; network</text>
<text text-anchor="start" x="182" y="-199.5" font-family="Helvetica,sans-Serif" font-size="10.00">_butcher::types::WGraph&lt;</text>
<text text-anchor="start" x="182" y="-188.5" font-family="Helvetica,sans-Serif" font-size="10.00"> Parallel_Edges, network_butcher</text>
<text text-anchor="start" x="182" y="-177.5" font-family="Helvetica,sans-Serif" font-size="10.00">::types::Node, unsigned long long</text>
<text text-anchor="start" x="182" y="-166.5" font-family="Helvetica,sans-Serif" font-size="10.00"> int &gt;, Reversed, network_butcher</text>
<text text-anchor="start" x="182" y="-155.5" font-family="Helvetica,sans-Serif" font-size="10.00">::types::Node, std::vector&lt; network</text>
<text text-anchor="middle" x="304" y="-144.5" font-family="Helvetica,sans-Serif" font-size="10.00">_butcher::types::Node &gt;, unsigned long long int &gt;</text>
</a>
</g>
</g>
<!-- Node0&#45;&gt;Node3 -->
<g id="edge3" class="edge">
<title>Node0&#45;&gt;Node3</title>
<path fill="none" stroke="#8b1a1a" d="M148.1,-216.08C156.49,-214.42 165.18,-212.71 173.97,-210.97"/>
<polygon fill="#8b1a1a" stroke="#8b1a1a" points="147.15,-212.7 138.02,-218.07 148.51,-219.57 147.15,-212.7"/>
</g>
<!-- Node4 -->
<g id="node5" class="node">
<title>Node4</title>
<g id="a_node5"><a xlink:href="classnetwork__butcher_1_1kfinder_1_1Weighted__Graph_3_01network__butcher_1_1types_1_1WGraph_3_01ee31896d9c6cb327df7ef83ed945b846.html" target="_top" xlink:title=" ">
<polygon fill="white" stroke="black" points="198.5,-0.5 198.5,-118.5 409.5,-118.5 409.5,-0.5 198.5,-0.5"/>
<text text-anchor="start" x="206.5" y="-106.5" font-family="Helvetica,sans-Serif" font-size="10.00">network_butcher::kfinder</text>
<text text-anchor="start" x="206.5" y="-95.5" font-family="Helvetica,sans-Serif" font-size="10.00">::Weighted_Graph&lt; network</text>
<text text-anchor="start" x="206.5" y="-84.5" font-family="Helvetica,sans-Serif" font-size="10.00">_butcher::types::WGraph&lt;</text>
<text text-anchor="start" x="206.5" y="-73.5" font-family="Helvetica,sans-Serif" font-size="10.00"> Parallel_Edges, t_Node_Type</text>
<text text-anchor="start" x="206.5" y="-62.5" font-family="Helvetica,sans-Serif" font-size="10.00"> &gt;, t_Reversed, typename network</text>
<text text-anchor="start" x="206.5" y="-51.5" font-family="Helvetica,sans-Serif" font-size="10.00">_butcher::types::WGraph&lt; Parallel</text>
<text text-anchor="start" x="206.5" y="-40.5" font-family="Helvetica,sans-Serif" font-size="10.00">_Edges, t_Node_Type &gt;::Node_Type,</text>
<text text-anchor="start" x="206.5" y="-29.5" font-family="Helvetica,sans-Serif" font-size="10.00"> typename network_butcher::types::</text>
<text text-anchor="start" x="206.5" y="-18.5" font-family="Helvetica,sans-Serif" font-size="10.00">WGraph&lt; Parallel_Edges, t_Node_Type</text>
<text text-anchor="middle" x="304" y="-7.5" font-family="Helvetica,sans-Serif" font-size="10.00"> &gt;::Node_Collection_Type, Time_Type &gt;</text>
</a>
</g>
</g>
<!-- Node0&#45;&gt;Node4 -->
<g id="edge4" class="edge">
<title>Node0&#45;&gt;Node4</title>
<path fill="none" stroke="#8b1a1a" d="M89.32,-208.86C109.08,-186.6 141.41,-152.56 174,-128.5 181.66,-122.84 189.85,-117.36 198.24,-112.13"/>
<polygon fill="#8b1a1a" stroke="#8b1a1a" points="86.59,-206.66 82.63,-216.48 91.86,-211.27 86.59,-206.66"/>
</g>
</g>
</svg>
