<?xml version="1.0" encoding="UTF-8" standalone="no"?>
<!DOCTYPE svg PUBLIC "-//W3C//DTD SVG 1.1//EN"
 "http://www.w3.org/Graphics/SVG/1.1/DTD/svg11.dtd">
<!-- Generated by graphviz version 2.43.0 (0)
 -->
<!-- Title: Graphical Class Hierarchy Pages: 1 -->
<svg width="635pt" height="110pt"
 viewBox="0.00 0.00 635.00 110.00" xmlns="http://www.w3.org/2000/svg" xmlns:xlink="http://www.w3.org/1999/xlink">
<g id="graph0" class="graph" transform="scale(1 1) rotate(0) translate(4 106)">
<title>Graphical Class Hierarchy</title>
<polygon fill="white" stroke="transparent" points="-4,4 -4,-106 631,-106 631,4 -4,4"/>
<!-- Node0 -->
<g id="node1" class="node">
<title>Node0</title>
<g id="a_node1"><a xlink:href="classnetwork__butcher_1_1types_1_1Graph.html" target="_top" xlink:title=" ">
<polygon fill="white" stroke="black" points="0,-36 0,-66 131,-66 131,-36 0,-36"/>
<text text-anchor="start" x="8" y="-54" font-family="Helvetica,sans-Serif" font-size="10.00">network_butcher::types</text>
<text text-anchor="middle" x="65.5" y="-43" font-family="Helvetica,sans-Serif" font-size="10.00">::Graph&lt; Node &gt;</text>
</a>
</g>
</g>
<!-- Node1 -->
<g id="node2" class="node">
<title>Node1</title>
<g id="a_node2"><a xlink:href="classnetwork__butcher_1_1types_1_1MWGraph.html" target="_top" xlink:title=" ">
<polygon fill="white" stroke="black" points="195,-60.5 195,-101.5 350,-101.5 350,-60.5 195,-60.5"/>
<text text-anchor="start" x="203" y="-89.5" font-family="Helvetica,sans-Serif" font-size="10.00">network_butcher::types</text>
<text text-anchor="start" x="203" y="-78.5" font-family="Helvetica,sans-Serif" font-size="10.00">::MWGraph&lt; Parallel_Edges,</text>
<text text-anchor="middle" x="272.5" y="-67.5" font-family="Helvetica,sans-Serif" font-size="10.00"> Node, Time_Type &gt;</text>
</a>
</g>
</g>
<!-- Node0&#45;&gt;Node1 -->
<g id="edge1" class="edge">
<title>Node0&#45;&gt;Node1</title>
<path fill="none" stroke="midnightblue" d="M141.18,-61.93C158.6,-64.48 177.17,-67.2 194.68,-69.76"/>
<polygon fill="midnightblue" stroke="midnightblue" points="141.48,-58.44 131.08,-60.45 140.47,-65.36 141.48,-58.44"/>
</g>
<!-- Node3 -->
<g id="node4" class="node">
<title>Node3</title>
<g id="a_node4"><a xlink:href="classnetwork__butcher_1_1types_1_1MWGraph.html" target="_top" xlink:title=" ">
<polygon fill="white" stroke="black" points="167,-0.5 167,-41.5 378,-41.5 378,-0.5 167,-0.5"/>
<text text-anchor="start" x="175" y="-29.5" font-family="Helvetica,sans-Serif" font-size="10.00">network_butcher::types</text>
<text text-anchor="start" x="175" y="-18.5" font-family="Helvetica,sans-Serif" font-size="10.00">::MWGraph&lt; Parallel_Edges,</text>
<text text-anchor="middle" x="272.5" y="-7.5" font-family="Helvetica,sans-Serif" font-size="10.00"> Template_Node_Type, t_Weight_Type &gt;</text>
</a>
</g>
</g>
<!-- Node0&#45;&gt;Node3 -->
<g id="edge3" class="edge">
<title>Node0&#45;&gt;Node3</title>
<path fill="none" stroke="midnightblue" d="M141.12,-40.08C149.47,-38.86 158.09,-37.6 166.73,-36.33"/>
<polygon fill="midnightblue" stroke="midnightblue" points="140.47,-36.64 131.08,-41.55 141.48,-43.56 140.47,-36.64"/>
</g>
<!-- Node2 -->
<g id="node3" class="node">
<title>Node2</title>
<g id="a_node3"><a xlink:href="classnetwork__butcher_1_1types_1_1WGraph.html" target="_top" xlink:title=" ">
<polygon fill="white" stroke="black" points="414,-60.5 414,-101.5 627,-101.5 627,-60.5 414,-60.5"/>
<text text-anchor="start" x="422" y="-89.5" font-family="Helvetica,sans-Serif" font-size="10.00">network_butcher::types</text>
<text text-anchor="start" x="422" y="-78.5" font-family="Helvetica,sans-Serif" font-size="10.00">::WGraph&lt; Parallel_Edges,</text>
<text text-anchor="middle" x="520.5" y="-67.5" font-family="Helvetica,sans-Serif" font-size="10.00"> Template_Node_Type, T_Weight_Type &gt;</text>
</a>
</g>
</g>
<!-- Node1&#45;&gt;Node2 -->
<g id="edge2" class="edge">
<title>Node1&#45;&gt;Node2</title>
<path fill="none" stroke="midnightblue" d="M360.39,-81C377.71,-81 396.09,-81 413.96,-81"/>
<polygon fill="midnightblue" stroke="midnightblue" points="360.32,-77.5 350.32,-81 360.32,-84.5 360.32,-77.5"/>
</g>
</g>
</svg>
