<?xml version="1.0" encoding="UTF-8" standalone="no"?>
<!DOCTYPE svg PUBLIC "-//W3C//DTD SVG 1.1//EN"
 "http://www.w3.org/Graphics/SVG/1.1/DTD/svg11.dtd">
<!-- Generated by graphviz version 2.43.0 (0)
 -->
<!-- Title: Graphical Class Hierarchy Pages: 1 -->
<svg width="304pt" height="110pt"
 viewBox="0.00 0.00 304.00 110.00" xmlns="http://www.w3.org/2000/svg" xmlns:xlink="http://www.w3.org/1999/xlink">
<g id="graph0" class="graph" transform="scale(1 1) rotate(0) translate(4 106)">
<title>Graphical Class Hierarchy</title>
<polygon fill="white" stroke="transparent" points="-4,4 -4,-106 300,-106 300,4 -4,4"/>
<!-- Node0 -->
<g id="node1" class="node">
<title>Node0</title>
<g id="a_node1"><a xlink:href="classnetwork__butcher_1_1io_1_1Weight__Importer.html" target="_top" xlink:title="This (pure virtual) class will be used to import weights into a graph.">
<polygon fill="white" stroke="black" points="0,-36 0,-66 113,-66 113,-36 0,-36"/>
<text text-anchor="start" x="8" y="-54" font-family="Helvetica,sans-Serif" font-size="10.00">network_butcher::io</text>
<text text-anchor="middle" x="56.5" y="-43" font-family="Helvetica,sans-Serif" font-size="10.00">::Weight_Importer</text>
</a>
</g>
</g>
<!-- Node1 -->
<g id="node2" class="node">
<title>Node1</title>
<g id="a_node2"><a xlink:href="classnetwork__butcher_1_1io_1_1Csv__Weight__Importer.html" target="_top" xlink:title=" ">
<polygon fill="white" stroke="black" points="159,-60.5 159,-101.5 286,-101.5 286,-60.5 159,-60.5"/>
<text text-anchor="start" x="167" y="-89.5" font-family="Helvetica,sans-Serif" font-size="10.00">network_butcher::io</text>
<text text-anchor="start" x="167" y="-78.5" font-family="Helvetica,sans-Serif" font-size="10.00">::Csv_Weight_Importer</text>
<text text-anchor="middle" x="222.5" y="-67.5" font-family="Helvetica,sans-Serif" font-size="10.00">&lt; GraphType &gt;</text>
</a>
</g>
</g>
<!-- Node0&#45;&gt;Node1 -->
<g id="edge1" class="edge">
<title>Node0&#45;&gt;Node1</title>
<path fill="none" stroke="midnightblue" d="M122.88,-62.96C134.78,-65.14 147.17,-67.4 158.98,-69.56"/>
<polygon fill="midnightblue" stroke="midnightblue" points="123.49,-59.51 113.02,-61.16 122.23,-66.4 123.49,-59.51"/>
</g>
<!-- Node2 -->
<g id="node3" class="node">
<title>Node2</title>
<g id="a_node3"><a xlink:href="classnetwork__butcher_1_1io_1_1block__aMLLibrary__Weight__Importer.html" target="_top" xlink:title="This class will be used to generate and import weights with aMLLibrary into the block graph.">
<polygon fill="white" stroke="black" points="149,-0.5 149,-41.5 296,-41.5 296,-0.5 149,-0.5"/>
<text text-anchor="start" x="157" y="-29.5" font-family="Helvetica,sans-Serif" font-size="10.00">network_butcher::io</text>
<text text-anchor="start" x="157" y="-18.5" font-family="Helvetica,sans-Serif" font-size="10.00">::block_aMLLibrary_Weight</text>
<text text-anchor="middle" x="222.5" y="-7.5" font-family="Helvetica,sans-Serif" font-size="10.00">_Importer</text>
</a>
</g>
</g>
<!-- Node0&#45;&gt;Node2 -->
<g id="edge2" class="edge">
<title>Node0&#45;&gt;Node2</title>
<path fill="none" stroke="midnightblue" d="M122.91,-39.04C131.45,-37.47 140.23,-35.87 148.88,-34.28"/>
<polygon fill="midnightblue" stroke="midnightblue" points="122.23,-35.6 113.02,-40.84 123.49,-42.49 122.23,-35.6"/>
</g>
</g>
</svg>
