<?xml version="1.0" encoding="UTF-8" standalone="no"?>
<!DOCTYPE svg PUBLIC "-//W3C//DTD SVG 1.1//EN"
 "http://www.w3.org/Graphics/SVG/1.1/DTD/svg11.dtd">
<!-- Generated by graphviz version 2.43.0 (0)
 -->
<!-- Title: Graphical Class Hierarchy Pages: 1 -->
<svg width="582pt" height="61pt"
 viewBox="0.00 0.00 582.00 61.00" xmlns="http://www.w3.org/2000/svg" xmlns:xlink="http://www.w3.org/1999/xlink">
<g id="graph0" class="graph" transform="scale(1 1) rotate(0) translate(4 57)">
<title>Graphical Class Hierarchy</title>
<polygon fill="white" stroke="transparent" points="-4,4 -4,-57 578,-57 578,4 -4,4"/>
<!-- Node0 -->
<g id="node1" class="node">
<title>Node0</title>
<g id="a_node1"><a xlink:href="classnetwork__butcher_1_1types_1_1Graph_3_01CNode_3_01Content_3_01T_01_4_01_4_01_4.html" target="_top" xlink:title=" ">
<polygon fill="white" stroke="black" points="0,-6 0,-47 145,-47 145,-6 0,-6"/>
<text text-anchor="start" x="8" y="-35" font-family="Helvetica,sans-Serif" font-size="10.00">network_butcher::types</text>
<text text-anchor="start" x="8" y="-24" font-family="Helvetica,sans-Serif" font-size="10.00">::Graph&lt; CNode&lt; Content</text>
<text text-anchor="middle" x="72.5" y="-13" font-family="Helvetica,sans-Serif" font-size="10.00">&lt; T &gt; &gt; &gt;</text>
</a>
</g>
</g>
<!-- Node1 -->
<g id="node2" class="node">
<title>Node1</title>
<g id="a_node2"><a xlink:href="classnetwork__butcher_1_1types_1_1MWGraph_3_01Parallel__Edges_00_01CNode_3_01Content_3_01T_01_4_01_4_00_01Time__Type_01_4.html" target="_top" xlink:title=" ">
<polygon fill="white" stroke="black" points="181,-6 181,-47 392,-47 392,-6 181,-6"/>
<text text-anchor="start" x="189" y="-35" font-family="Helvetica,sans-Serif" font-size="10.00">network_butcher::types</text>
<text text-anchor="start" x="189" y="-24" font-family="Helvetica,sans-Serif" font-size="10.00">::MWGraph&lt; Parallel_Edges,</text>
<text text-anchor="middle" x="286.5" y="-13" font-family="Helvetica,sans-Serif" font-size="10.00"> CNode&lt; Content&lt; T &gt; &gt;, Time_Type &gt;</text>
</a>
</g>
</g>
<!-- Node0&#45;&gt;Node1 -->
<g id="edge1" class="edge">
<title>Node0&#45;&gt;Node1</title>
<path fill="none" stroke="midnightblue" d="M155.3,-26.5C163.62,-26.5 172.15,-26.5 180.67,-26.5"/>
<polygon fill="midnightblue" stroke="midnightblue" points="155.27,-23 145.27,-26.5 155.27,-30 155.27,-23"/>
</g>
<!-- Node2 -->
<g id="node3" class="node">
<title>Node2</title>
<g id="a_node3"><a xlink:href="classnetwork__butcher_1_1types_1_1WGraph_3_01Parallel__Edges_00_01CNode_3_01Content_3_01T_01_4_01_4_00_01Time__Type_01_4.html" target="_top" xlink:title=" ">
<polygon fill="white" stroke="black" points="428,-0.5 428,-52.5 574,-52.5 574,-0.5 428,-0.5"/>
<text text-anchor="start" x="436" y="-40.5" font-family="Helvetica,sans-Serif" font-size="10.00">network_butcher::types</text>
<text text-anchor="start" x="436" y="-29.5" font-family="Helvetica,sans-Serif" font-size="10.00">::WGraph&lt; Parallel_Edges,</text>
<text text-anchor="start" x="436" y="-18.5" font-family="Helvetica,sans-Serif" font-size="10.00"> CNode&lt; Content&lt; T &gt; &gt;,</text>
<text text-anchor="middle" x="501" y="-7.5" font-family="Helvetica,sans-Serif" font-size="10.00"> Time_Type &gt;</text>
</a>
</g>
</g>
<!-- Node1&#45;&gt;Node2 -->
<g id="edge2" class="edge">
<title>Node1&#45;&gt;Node2</title>
<path fill="none" stroke="midnightblue" d="M402.35,-26.5C410.99,-26.5 419.54,-26.5 427.8,-26.5"/>
<polygon fill="midnightblue" stroke="midnightblue" points="402.19,-23 392.19,-26.5 402.19,-30 402.19,-23"/>
</g>
</g>
</svg>
