<?xml version="1.0" encoding="UTF-8" standalone="no"?>
<!DOCTYPE svg PUBLIC "-//W3C//DTD SVG 1.1//EN"
 "http://www.w3.org/Graphics/SVG/1.1/DTD/svg11.dtd">
<!-- Generated by graphviz version 2.43.0 (0)
 -->
<!-- Title: Graphical Class Hierarchy Pages: 1 -->
<svg width="633pt" height="110pt"
 viewBox="0.00 0.00 633.00 110.00" xmlns="http://www.w3.org/2000/svg" xmlns:xlink="http://www.w3.org/1999/xlink">
<g id="graph0" class="graph" transform="scale(1 1) rotate(0) translate(4 106)">
<title>Graphical Class Hierarchy</title>
<polygon fill="white" stroke="transparent" points="-4,4 -4,-106 629,-106 629,4 -4,4"/>
<!-- Node0 -->
<g id="node1" class="node">
<title>Node0</title>
<g id="a_node1"><a xlink:href="classnetwork__butcher_1_1types_1_1Graph.html" target="_top" xlink:title=" ">
<polygon fill="white" stroke="black" points="0,-36 0,-66 131,-66 131,-36 0,-36"/>
<text text-anchor="start" x="8" y="-54" font-family="Helvetica,sans-Serif" font-size="10.00">network_butcher::types</text>
<text text-anchor="middle" x="65.5" y="-43" font-family="Helvetica,sans-Serif" font-size="10.00">::Graph&lt; Node &gt;</text>
</a>
</g>
</g>
<!-- Node1 -->
<g id="node2" class="node">
<title>Node1</title>
<g id="a_node2"><a xlink:href="classnetwork__butcher_1_1types_1_1MWGraph.html" target="_top" xlink:title=" ">
<polygon fill="white" stroke="black" points="194,-60.5 194,-101.5 349,-101.5 349,-60.5 194,-60.5"/>
<text text-anchor="start" x="202" y="-89.5" font-family="Helvetica,sans-Serif" font-size="10.00">network_butcher::types</text>
<text text-anchor="start" x="202" y="-78.5" font-family="Helvetica,sans-Serif" font-size="10.00">::MWGraph&lt; Parallel_Edges,</text>
<text text-anchor="middle" x="271.5" y="-67.5" font-family="Helvetica,sans-Serif" font-size="10.00"> Node, Time_Type &gt;</text>
</a>
</g>
</g>
<!-- Node0&#45;&gt;Node1 -->
<g id="edge1" class="edge">
<title>Node0&#45;&gt;Node1</title>
<path fill="none" stroke="midnightblue" d="M141.03,-61.96C158.25,-64.49 176.59,-67.19 193.88,-69.73"/>
<polygon fill="midnightblue" stroke="midnightblue" points="141.45,-58.48 131.05,-60.49 140.43,-65.41 141.45,-58.48"/>
</g>
<!-- Node3 -->
<g id="node4" class="node">
<title>Node3</title>
<g id="a_node4"><a xlink:href="classnetwork__butcher_1_1types_1_1MWGraph.html" target="_top" xlink:title=" ">
<polygon fill="white" stroke="black" points="167,-0.5 167,-41.5 376,-41.5 376,-0.5 167,-0.5"/>
<text text-anchor="start" x="175" y="-29.5" font-family="Helvetica,sans-Serif" font-size="10.00">network_butcher::types</text>
<text text-anchor="start" x="175" y="-18.5" font-family="Helvetica,sans-Serif" font-size="10.00">::MWGraph&lt; Parallel_Edges,</text>
<text text-anchor="middle" x="271.5" y="-7.5" font-family="Helvetica,sans-Serif" font-size="10.00"> Template_Node_Type, t_weight_type &gt;</text>
</a>
</g>
</g>
<!-- Node0&#45;&gt;Node3 -->
<g id="edge3" class="edge">
<title>Node0&#45;&gt;Node3</title>
<path fill="none" stroke="midnightblue" d="M141.13,-40.02C149.52,-38.79 158.18,-37.52 166.86,-36.24"/>
<polygon fill="midnightblue" stroke="midnightblue" points="140.43,-36.59 131.05,-41.51 141.45,-43.52 140.43,-36.59"/>
</g>
<!-- Node2 -->
<g id="node3" class="node">
<title>Node2</title>
<g id="a_node3"><a xlink:href="classnetwork__butcher_1_1types_1_1WGraph.html" target="_top" xlink:title=" ">
<polygon fill="white" stroke="black" points="412,-60.5 412,-101.5 625,-101.5 625,-60.5 412,-60.5"/>
<text text-anchor="start" x="420" y="-89.5" font-family="Helvetica,sans-Serif" font-size="10.00">network_butcher::types</text>
<text text-anchor="start" x="420" y="-78.5" font-family="Helvetica,sans-Serif" font-size="10.00">::WGraph&lt; Parallel_Edges,</text>
<text text-anchor="middle" x="518.5" y="-67.5" font-family="Helvetica,sans-Serif" font-size="10.00"> Template_Node_Type, T_Weight_Type &gt;</text>
</a>
</g>
</g>
<!-- Node1&#45;&gt;Node2 -->
<g id="edge2" class="edge">
<title>Node1&#45;&gt;Node2</title>
<path fill="none" stroke="midnightblue" d="M359.45,-81C376.44,-81 394.42,-81 411.94,-81"/>
<polygon fill="midnightblue" stroke="midnightblue" points="359.01,-77.5 349.01,-81 359.01,-84.5 359.01,-77.5"/>
</g>
</g>
</svg>
