<?xml version="1.0" encoding="UTF-8" standalone="no"?>
<!DOCTYPE svg PUBLIC "-//W3C//DTD SVG 1.1//EN"
 "http://www.w3.org/Graphics/SVG/1.1/DTD/svg11.dtd">
<!-- Generated by graphviz version 2.43.0 (0)
 -->
<!-- Title: Graphical Class Hierarchy Pages: 1 -->
<svg width="655pt" height="132pt"
 viewBox="0.00 0.00 655.00 132.00" xmlns="http://www.w3.org/2000/svg" xmlns:xlink="http://www.w3.org/1999/xlink">
<g id="graph0" class="graph" transform="scale(1 1) rotate(0) translate(4 128)">
<title>Graphical Class Hierarchy</title>
<polygon fill="white" stroke="transparent" points="-4,4 -4,-128 651,-128 651,4 -4,4"/>
<!-- Node0 -->
<g id="node1" class="node">
<title>Node0</title>
<g id="a_node1"><a xlink:href="classnetwork__butcher_1_1kfinder_1_1KFinder.html" target="_top" xlink:title=" ">
<polygon fill="white" stroke="black" points="0,-35.5 0,-87.5 160,-87.5 160,-35.5 0,-35.5"/>
<text text-anchor="start" x="8" y="-75.5" font-family="Helvetica,sans-Serif" font-size="10.00">network_butcher::kfinder</text>
<text text-anchor="start" x="8" y="-64.5" font-family="Helvetica,sans-Serif" font-size="10.00">::KFinder&lt; GraphType, Only</text>
<text text-anchor="start" x="8" y="-53.5" font-family="Helvetica,sans-Serif" font-size="10.00">_Distance, t_Weighted_Graph</text>
<text text-anchor="middle" x="80" y="-42.5" font-family="Helvetica,sans-Serif" font-size="10.00">_Complete_Type &gt;</text>
</a>
</g>
</g>
<!-- Node1 -->
<g id="node2" class="node">
<title>Node1</title>
<g id="a_node2"><a xlink:href="classnetwork__butcher_1_1kfinder_1_1Basic__KEppstein.html" target="_top" xlink:title=" ">
<polygon fill="white" stroke="black" points="196,-41 196,-82 411,-82 411,-41 196,-41"/>
<text text-anchor="start" x="204" y="-70" font-family="Helvetica,sans-Serif" font-size="10.00">network_butcher::kfinder</text>
<text text-anchor="start" x="204" y="-59" font-family="Helvetica,sans-Serif" font-size="10.00">::Basic_KEppstein&lt; GraphType,</text>
<text text-anchor="middle" x="303.5" y="-48" font-family="Helvetica,sans-Serif" font-size="10.00"> false, Weighted_Graph&lt; GraphType &gt; &gt;</text>
</a>
</g>
</g>
<!-- Node0&#45;&gt;Node1 -->
<g id="edge1" class="edge">
<title>Node0&#45;&gt;Node1</title>
<path fill="none" stroke="midnightblue" d="M170.16,-61.5C178.55,-61.5 187.11,-61.5 195.64,-61.5"/>
<polygon fill="midnightblue" stroke="midnightblue" points="170.03,-58 160.03,-61.5 170.03,-65 170.03,-58"/>
</g>
<!-- Node2 -->
<g id="node3" class="node">
<title>Node2</title>
<g id="a_node3"><a xlink:href="classnetwork__butcher_1_1kfinder_1_1KFinder__Eppstein.html" target="_top" xlink:title=" ">
<polygon fill="white" stroke="black" points="460.5,-71.5 460.5,-123.5 633.5,-123.5 633.5,-71.5 460.5,-71.5"/>
<text text-anchor="start" x="468.5" y="-111.5" font-family="Helvetica,sans-Serif" font-size="10.00">network_butcher::kfinder</text>
<text text-anchor="start" x="468.5" y="-100.5" font-family="Helvetica,sans-Serif" font-size="10.00">::KFinder_Eppstein&lt; GraphType,</text>
<text text-anchor="start" x="468.5" y="-89.5" font-family="Helvetica,sans-Serif" font-size="10.00"> Only_Distance, t_Weighted</text>
<text text-anchor="middle" x="547" y="-78.5" font-family="Helvetica,sans-Serif" font-size="10.00">_Graph_Complete_Type &gt;</text>
</a>
</g>
</g>
<!-- Node1&#45;&gt;Node2 -->
<g id="edge2" class="edge">
<title>Node1&#45;&gt;Node2</title>
<path fill="none" stroke="midnightblue" d="M421.17,-78.89C434.34,-80.85 447.56,-82.83 460.23,-84.71"/>
<polygon fill="midnightblue" stroke="midnightblue" points="421.54,-75.41 411.13,-77.39 420.5,-82.33 421.54,-75.41"/>
</g>
<!-- Node3 -->
<g id="node4" class="node">
<title>Node3</title>
<g id="a_node4"><a xlink:href="classnetwork__butcher_1_1kfinder_1_1KFinder__Lazy__Eppstein.html" target="_top" xlink:title=" ">
<polygon fill="white" stroke="black" points="447,-0.5 447,-52.5 647,-52.5 647,-0.5 447,-0.5"/>
<text text-anchor="start" x="455" y="-40.5" font-family="Helvetica,sans-Serif" font-size="10.00">network_butcher::kfinder</text>
<text text-anchor="start" x="455" y="-29.5" font-family="Helvetica,sans-Serif" font-size="10.00">::KFinder_Lazy_Eppstein</text>
<text text-anchor="start" x="455" y="-18.5" font-family="Helvetica,sans-Serif" font-size="10.00">&lt; GraphType, Only_Distance,</text>
<text text-anchor="middle" x="547" y="-7.5" font-family="Helvetica,sans-Serif" font-size="10.00"> t_Weighted_Graph_Complete_Type &gt;</text>
</a>
</g>
</g>
<!-- Node1&#45;&gt;Node3 -->
<g id="edge3" class="edge">
<title>Node1&#45;&gt;Node3</title>
<path fill="none" stroke="midnightblue" d="M421.18,-44.59C429.77,-43.35 438.38,-42.1 446.85,-40.87"/>
<polygon fill="midnightblue" stroke="midnightblue" points="420.52,-41.15 411.13,-46.05 421.53,-48.08 420.52,-41.15"/>
</g>
</g>
</svg>
