<?xml version="1.0" encoding="UTF-8" standalone="no"?>
<!DOCTYPE svg PUBLIC "-//W3C//DTD SVG 1.1//EN"
 "http://www.w3.org/Graphics/SVG/1.1/DTD/svg11.dtd">
<!-- Generated by graphviz version 2.43.0 (0)
 -->
<!-- Title: include/io_manager.h Pages: 1 -->
<svg width="507pt" height="140pt"
 viewBox="0.00 0.00 507.00 140.00" xmlns="http://www.w3.org/2000/svg" xmlns:xlink="http://www.w3.org/1999/xlink">
<g id="graph0" class="graph" transform="scale(1 1) rotate(0) translate(4 136)">
<title>include/io_manager.h</title>
<polygon fill="white" stroke="transparent" points="-4,4 -4,-136 503,-136 503,4 -4,4"/>
<!-- Node1 -->
<g id="node1" class="node">
<title>Node1</title>
<g id="a_node1"><a xlink:title=" ">
<polygon fill="#bfbfbf" stroke="black" points="237,-112.5 237,-131.5 358,-131.5 358,-112.5 237,-112.5"/>
<text text-anchor="middle" x="297.5" y="-119.5" font-family="Helvetica,sans-Serif" font-size="10.00">include/io_manager.h</text>
</a>
</g>
</g>
<!-- Node2 -->
<g id="node2" class="node">
<title>Node2</title>
<g id="a_node2"><a xlink:href="general__manager_8h.html" target="_top" xlink:title=" ">
<polygon fill="white" stroke="black" points="58,-56.5 58,-75.5 207,-75.5 207,-56.5 58,-56.5"/>
<text text-anchor="middle" x="132.5" y="-63.5" font-family="Helvetica,sans-Serif" font-size="10.00">include/general_manager.h</text>
</a>
</g>
</g>
<!-- Node1&#45;&gt;Node2 -->
<g id="edge1" class="edge">
<title>Node1&#45;&gt;Node2</title>
<path fill="none" stroke="midnightblue" d="M261.76,-109.3C230.67,-99.13 186.35,-84.62 158.52,-75.52"/>
<polygon fill="midnightblue" stroke="midnightblue" points="260.76,-112.66 271.36,-112.44 262.94,-106.01 260.76,-112.66"/>
</g>
<!-- Node5 -->
<g id="node5" class="node">
<title>Node5</title>
<g id="a_node5"><a xlink:href="network__butcher_8h.html" target="_top" xlink:title=" ">
<polygon fill="white" stroke="black" points="225,-56.5 225,-75.5 370,-75.5 370,-56.5 225,-56.5"/>
<text text-anchor="middle" x="297.5" y="-63.5" font-family="Helvetica,sans-Serif" font-size="10.00">include/network_butcher.h</text>
</a>
</g>
</g>
<!-- Node1&#45;&gt;Node5 -->
<g id="edge4" class="edge">
<title>Node1&#45;&gt;Node5</title>
<path fill="none" stroke="midnightblue" d="M297.5,-101.8C297.5,-92.91 297.5,-82.78 297.5,-75.75"/>
<polygon fill="midnightblue" stroke="midnightblue" points="294,-102.08 297.5,-112.08 301,-102.08 294,-102.08"/>
</g>
<!-- Node6 -->
<g id="node6" class="node">
<title>Node6</title>
<g id="a_node6"><a xlink:href="io__manager_8cpp.html" target="_top" xlink:title=" ">
<polygon fill="white" stroke="black" points="388,-56.5 388,-75.5 499,-75.5 499,-56.5 388,-56.5"/>
<text text-anchor="middle" x="443.5" y="-63.5" font-family="Helvetica,sans-Serif" font-size="10.00">src/io_manager.cpp</text>
</a>
</g>
</g>
<!-- Node1&#45;&gt;Node6 -->
<g id="edge5" class="edge">
<title>Node1&#45;&gt;Node6</title>
<path fill="none" stroke="midnightblue" d="M330.2,-108.91C357.65,-98.75 396.17,-84.51 420.47,-75.52"/>
<polygon fill="midnightblue" stroke="midnightblue" points="328.8,-105.69 320.63,-112.44 331.23,-112.26 328.8,-105.69"/>
</g>
<!-- Node3 -->
<g id="node3" class="node">
<title>Node3</title>
<g id="a_node3"><a xlink:href="general__manager_8cpp.html" target="_top" xlink:title=" ">
<polygon fill="white" stroke="black" points="0,-0.5 0,-19.5 139,-19.5 139,-0.5 0,-0.5"/>
<text text-anchor="middle" x="69.5" y="-7.5" font-family="Helvetica,sans-Serif" font-size="10.00">src/general_manager.cpp</text>
</a>
</g>
</g>
<!-- Node2&#45;&gt;Node3 -->
<g id="edge2" class="edge">
<title>Node2&#45;&gt;Node3</title>
<path fill="none" stroke="midnightblue" d="M114.46,-49.54C103.23,-39.91 89.18,-27.87 79.81,-19.83"/>
<polygon fill="midnightblue" stroke="midnightblue" points="112.51,-52.47 122.38,-56.32 117.06,-47.16 112.51,-52.47"/>
</g>
<!-- Node4 -->
<g id="node4" class="node">
<title>Node4</title>
<g id="a_node4"><a xlink:href="main_8cpp.html" target="_top" xlink:title=" ">
<polygon fill="white" stroke="black" points="157,-0.5 157,-19.5 236,-19.5 236,-0.5 157,-0.5"/>
<text text-anchor="middle" x="196.5" y="-7.5" font-family="Helvetica,sans-Serif" font-size="10.00">src/main.cpp</text>
</a>
</g>
</g>
<!-- Node2&#45;&gt;Node4 -->
<g id="edge3" class="edge">
<title>Node2&#45;&gt;Node4</title>
<path fill="none" stroke="midnightblue" d="M150.49,-49.82C161.96,-40.15 176.41,-27.95 186.03,-19.83"/>
<polygon fill="midnightblue" stroke="midnightblue" points="148.17,-47.2 142.78,-56.32 152.68,-52.55 148.17,-47.2"/>
</g>
</g>
</svg>
