<?xml version="1.0" encoding="UTF-8" standalone="no"?>
<!DOCTYPE svg PUBLIC "-//W3C//DTD SVG 1.1//EN"
 "http://www.w3.org/Graphics/SVG/1.1/DTD/svg11.dtd">
<!-- Generated by graphviz version 2.43.0 (0)
 -->
<!-- Title: include/network_butcher/K&#45;shortest_path/keppstein_lazy.h Pages: 1 -->
<svg width="849pt" height="519pt"
 viewBox="0.00 0.00 849.00 519.00" xmlns="http://www.w3.org/2000/svg" xmlns:xlink="http://www.w3.org/1999/xlink">
<g id="graph0" class="graph" transform="scale(1 1) rotate(0) translate(4 515)">
<title>include/network_butcher/K&#45;shortest_path/keppstein_lazy.h</title>
<polygon fill="white" stroke="transparent" points="-4,4 -4,-515 845,-515 845,4 -4,4"/>
<!-- Node1 -->
<g id="node1" class="node">
<title>Node1</title>
<g id="a_node1"><a xlink:title=" ">
<polygon fill="#bfbfbf" stroke="black" points="554,-469.5 554,-510.5 700,-510.5 700,-469.5 554,-469.5"/>
<text text-anchor="start" x="562" y="-498.5" font-family="Helvetica,sans-Serif" font-size="10.00">include/network_butcher</text>
<text text-anchor="start" x="562" y="-487.5" font-family="Helvetica,sans-Serif" font-size="10.00">/K&#45;shortest_path/keppstein</text>
<text text-anchor="middle" x="627" y="-476.5" font-family="Helvetica,sans-Serif" font-size="10.00">_lazy.h</text>
</a>
</g>
</g>
<!-- Node2 -->
<g id="node2" class="node">
<title>Node2</title>
<g id="a_node2"><a xlink:title=" ">
<polygon fill="white" stroke="#bfbfbf" points="22,-140 22,-159 54,-159 54,-140 22,-140"/>
<text text-anchor="middle" x="38" y="-147" font-family="Helvetica,sans-Serif" font-size="10.00">list</text>
</a>
</g>
</g>
<!-- Node1&#45;&gt;Node2 -->
<g id="edge1" class="edge">
<title>Node1&#45;&gt;Node2</title>
<path fill="none" stroke="midnightblue" d="M553.85,-488.22C388.45,-484.49 0,-463.78 0,-351.5 0,-351.5 0,-351.5 0,-282.5 0,-240.35 18.11,-193.48 29.33,-168.5"/>
<polygon fill="midnightblue" stroke="midnightblue" points="32.61,-169.76 33.64,-159.21 26.26,-166.81 32.61,-169.76"/>
</g>
<!-- Node3 -->
<g id="node3" class="node">
<title>Node3</title>
<g id="a_node3"><a xlink:href="basic__keppstein_8h.html" target="_top" xlink:title=" ">
<polygon fill="white" stroke="black" points="358,-402.5 358,-432.5 508,-432.5 508,-402.5 358,-402.5"/>
<text text-anchor="start" x="366" y="-420.5" font-family="Helvetica,sans-Serif" font-size="10.00">network_butcher/K&#45;shortest</text>
<text text-anchor="middle" x="433" y="-409.5" font-family="Helvetica,sans-Serif" font-size="10.00">_path/basic_keppstein.h</text>
</a>
</g>
</g>
<!-- Node1&#45;&gt;Node3 -->
<g id="edge2" class="edge">
<title>Node1&#45;&gt;Node3</title>
<path fill="none" stroke="midnightblue" d="M573.22,-469.46C544.43,-458.99 509.26,-446.21 481.34,-436.07"/>
<polygon fill="midnightblue" stroke="midnightblue" points="482.39,-432.72 471.79,-432.6 479.99,-439.3 482.39,-432.72"/>
</g>
<!-- Node15 -->
<g id="node15" class="node">
<title>Node15</title>
<g id="a_node15"><a xlink:href="traits_8h.html" target="_top" xlink:title=" ">
<polygon fill="white" stroke="black" points="603,-134.5 603,-164.5 731,-164.5 731,-134.5 603,-134.5"/>
<text text-anchor="start" x="611" y="-152.5" font-family="Helvetica,sans-Serif" font-size="10.00">network_butcher/Traits</text>
<text text-anchor="middle" x="667" y="-141.5" font-family="Helvetica,sans-Serif" font-size="10.00">/traits.h</text>
</a>
</g>
</g>
<!-- Node1&#45;&gt;Node15 -->
<g id="edge44" class="edge">
<title>Node1&#45;&gt;Node15</title>
<path fill="none" stroke="midnightblue" d="M700.05,-473.81C762.04,-456.15 841,-420.17 841,-351.5 841,-351.5 841,-351.5 841,-282.5 841,-240.69 825.63,-228.35 794,-201 777.11,-186.39 755.48,-175.7 734.88,-168.02"/>
<polygon fill="midnightblue" stroke="midnightblue" points="735.78,-164.63 725.18,-164.59 733.45,-171.23 735.78,-164.63"/>
</g>
<!-- Node24 -->
<g id="node24" class="node">
<title>Node24</title>
<g id="a_node24"><a xlink:href="weighted__graph_8h.html" target="_top" xlink:title=" ">
<polygon fill="white" stroke="black" points="619,-201.5 619,-231.5 769,-231.5 769,-201.5 619,-201.5"/>
<text text-anchor="start" x="627" y="-219.5" font-family="Helvetica,sans-Serif" font-size="10.00">network_butcher/K&#45;shortest</text>
<text text-anchor="middle" x="694" y="-208.5" font-family="Helvetica,sans-Serif" font-size="10.00">_path/weighted_graph.h</text>
</a>
</g>
</g>
<!-- Node1&#45;&gt;Node24 -->
<g id="edge45" class="edge">
<title>Node1&#45;&gt;Node24</title>
<path fill="none" stroke="midnightblue" d="M651.55,-469.44C688.66,-438.11 757.5,-372.68 784,-299 788.66,-286.04 790.96,-279.89 784,-268 775.91,-254.18 762.49,-243.85 748.45,-236.26"/>
<polygon fill="midnightblue" stroke="midnightblue" points="749.7,-232.97 739.18,-231.66 746.58,-239.24 749.7,-232.97"/>
</g>
<!-- Node3&#45;&gt;Node2 -->
<g id="edge4" class="edge">
<title>Node3&#45;&gt;Node2</title>
<path fill="none" stroke="midnightblue" d="M357.94,-417.07C260.21,-416.08 97.1,-407.97 57,-366 5.19,-311.77 22.65,-211.02 32.83,-169.32"/>
<polygon fill="midnightblue" stroke="midnightblue" points="36.28,-169.98 35.39,-159.42 29.5,-168.23 36.28,-169.98"/>
</g>
<!-- Node4 -->
<g id="node4" class="node">
<title>Node4</title>
<g id="a_node4"><a xlink:title=" ">
<polygon fill="white" stroke="#bfbfbf" points="560.5,-341 560.5,-360 625.5,-360 625.5,-341 560.5,-341"/>
<text text-anchor="middle" x="593" y="-348" font-family="Helvetica,sans-Serif" font-size="10.00">functional</text>
</a>
</g>
</g>
<!-- Node3&#45;&gt;Node4 -->
<g id="edge3" class="edge">
<title>Node3&#45;&gt;Node4</title>
<path fill="none" stroke="midnightblue" d="M467.72,-402.4C496.04,-390.89 535.65,-374.8 562.71,-363.81"/>
<polygon fill="midnightblue" stroke="midnightblue" points="564.11,-367.01 572.06,-360.01 561.48,-360.53 564.11,-367.01"/>
</g>
<!-- Node5 -->
<g id="node5" class="node">
<title>Node5</title>
<g id="a_node5"><a xlink:title=" ">
<polygon fill="white" stroke="#bfbfbf" points="644,-341 644,-360 700,-360 700,-341 644,-341"/>
<text text-anchor="middle" x="672" y="-348" font-family="Helvetica,sans-Serif" font-size="10.00">optional</text>
</a>
</g>
</g>
<!-- Node3&#45;&gt;Node5 -->
<g id="edge5" class="edge">
<title>Node3&#45;&gt;Node5</title>
<path fill="none" stroke="midnightblue" d="M498.19,-402.45C538.05,-393.3 589.89,-380.41 635,-366 637.27,-365.27 639.61,-364.48 641.95,-363.65"/>
<polygon fill="midnightblue" stroke="midnightblue" points="643.28,-366.88 651.43,-360.1 640.83,-360.33 643.28,-366.88"/>
</g>
<!-- Node6 -->
<g id="node6" class="node">
<title>Node6</title>
<g id="a_node6"><a xlink:title=" ">
<polygon fill="white" stroke="#bfbfbf" points="66,-341 66,-360 116,-360 116,-341 66,-341"/>
<text text-anchor="middle" x="91" y="-348" font-family="Helvetica,sans-Serif" font-size="10.00">ranges</text>
</a>
</g>
</g>
<!-- Node3&#45;&gt;Node6 -->
<g id="edge6" class="edge">
<title>Node3&#45;&gt;Node6</title>
<path fill="none" stroke="midnightblue" d="M357.83,-409.29C294.76,-402.03 202.79,-388.61 125,-366 122.71,-365.34 120.37,-364.56 118.05,-363.72"/>
<polygon fill="midnightblue" stroke="midnightblue" points="119.29,-360.44 108.7,-360 116.7,-366.95 119.29,-360.44"/>
</g>
<!-- Node7 -->
<g id="node7" class="node">
<title>Node7</title>
<g id="a_node7"><a xlink:title=" ">
<polygon fill="white" stroke="#bfbfbf" points="134.5,-341 134.5,-360 185.5,-360 185.5,-341 134.5,-341"/>
<text text-anchor="middle" x="160" y="-348" font-family="Helvetica,sans-Serif" font-size="10.00">variant</text>
</a>
</g>
</g>
<!-- Node3&#45;&gt;Node7 -->
<g id="edge7" class="edge">
<title>Node3&#45;&gt;Node7</title>
<path fill="none" stroke="midnightblue" d="M357.75,-404.48C310.2,-395.94 247.79,-382.97 194,-366 192.07,-365.39 190.1,-364.71 188.13,-363.99"/>
<polygon fill="midnightblue" stroke="midnightblue" points="189.04,-360.59 178.46,-360.14 186.46,-367.09 189.04,-360.59"/>
</g>
<!-- Node8 -->
<g id="node8" class="node">
<title>Node8</title>
<g id="a_node8"><a xlink:href="heap__traits_8h.html" target="_top" xlink:title=" ">
<polygon fill="white" stroke="black" points="245,-268.5 245,-298.5 395,-298.5 395,-268.5 245,-268.5"/>
<text text-anchor="start" x="253" y="-286.5" font-family="Helvetica,sans-Serif" font-size="10.00">network_butcher/K&#45;shortest</text>
<text text-anchor="middle" x="320" y="-275.5" font-family="Helvetica,sans-Serif" font-size="10.00">_path/heap_traits.h</text>
</a>
</g>
</g>
<!-- Node3&#45;&gt;Node8 -->
<g id="edge8" class="edge">
<title>Node3&#45;&gt;Node8</title>
<path fill="none" stroke="midnightblue" d="M422.08,-402.42C409.21,-385.98 387.06,-358.09 367,-335 358.62,-325.35 349.06,-314.97 340.75,-306.14"/>
<polygon fill="midnightblue" stroke="midnightblue" points="343.26,-303.7 333.84,-298.84 338.18,-308.51 343.26,-303.7"/>
</g>
<!-- Node25 -->
<g id="node25" class="node">
<title>Node25</title>
<g id="a_node25"><a xlink:href="shortest__path__finder_8h.html" target="_top" xlink:title=" ">
<polygon fill="white" stroke="black" points="203.5,-335.5 203.5,-365.5 358.5,-365.5 358.5,-335.5 203.5,-335.5"/>
<text text-anchor="start" x="211.5" y="-353.5" font-family="Helvetica,sans-Serif" font-size="10.00">network_butcher/K&#45;shortest</text>
<text text-anchor="middle" x="281" y="-342.5" font-family="Helvetica,sans-Serif" font-size="10.00">_path/shortest_path_finder.h</text>
</a>
</g>
</g>
<!-- Node3&#45;&gt;Node25 -->
<g id="edge32" class="edge">
<title>Node3&#45;&gt;Node25</title>
<path fill="none" stroke="midnightblue" d="M400.02,-402.4C377.51,-392.77 347.5,-379.94 323.24,-369.56"/>
<polygon fill="midnightblue" stroke="midnightblue" points="324.49,-366.29 313.92,-365.58 321.74,-372.73 324.49,-366.29"/>
</g>
<!-- Node27 -->
<g id="node27" class="node">
<title>Node27</title>
<g id="a_node27"><a xlink:href="chrono_8h.html" target="_top" xlink:title=" ">
<polygon fill="white" stroke="black" points="415.5,-335.5 415.5,-365.5 542.5,-365.5 542.5,-335.5 415.5,-335.5"/>
<text text-anchor="start" x="423.5" y="-353.5" font-family="Helvetica,sans-Serif" font-size="10.00">network_butcher/APSC</text>
<text text-anchor="middle" x="479" y="-342.5" font-family="Helvetica,sans-Serif" font-size="10.00">/chrono.h</text>
</a>
</g>
</g>
<!-- Node3&#45;&gt;Node27 -->
<g id="edge37" class="edge">
<title>Node3&#45;&gt;Node27</title>
<path fill="none" stroke="midnightblue" d="M442.98,-402.4C448.89,-394.05 456.5,-383.29 463.21,-373.81"/>
<polygon fill="midnightblue" stroke="midnightblue" points="466.12,-375.76 469.04,-365.58 460.4,-371.72 466.12,-375.76"/>
</g>
<!-- Node31 -->
<g id="node31" class="node">
<title>Node31</title>
<g id="a_node31"><a xlink:href="kfinder_8h.html" target="_top" xlink:title=" ">
<polygon fill="white" stroke="black" points="625,-268.5 625,-298.5 775,-298.5 775,-268.5 625,-268.5"/>
<text text-anchor="start" x="633" y="-286.5" font-family="Helvetica,sans-Serif" font-size="10.00">network_butcher/K&#45;shortest</text>
<text text-anchor="middle" x="700" y="-275.5" font-family="Helvetica,sans-Serif" font-size="10.00">_path/kfinder.h</text>
</a>
</g>
</g>
<!-- Node3&#45;&gt;Node31 -->
<g id="edge41" class="edge">
<title>Node3&#45;&gt;Node31</title>
<path fill="none" stroke="midnightblue" d="M508.1,-413.26C580.88,-408.37 683.85,-396.17 709,-366 722.24,-350.11 717.56,-326.01 711.02,-308.13"/>
<polygon fill="midnightblue" stroke="midnightblue" points="714.2,-306.64 707.2,-298.68 707.71,-309.26 714.2,-306.64"/>
</g>
<!-- Node9 -->
<g id="node9" class="node">
<title>Node9</title>
<g id="a_node9"><a xlink:href="heap__eppstein_8h.html" target="_top" xlink:title=" ">
<polygon fill="white" stroke="black" points="245,-201.5 245,-231.5 395,-231.5 395,-201.5 245,-201.5"/>
<text text-anchor="start" x="253" y="-219.5" font-family="Helvetica,sans-Serif" font-size="10.00">network_butcher/K&#45;shortest</text>
<text text-anchor="middle" x="320" y="-208.5" font-family="Helvetica,sans-Serif" font-size="10.00">_path/heap_eppstein.h</text>
</a>
</g>
</g>
<!-- Node8&#45;&gt;Node9 -->
<g id="edge9" class="edge">
<title>Node8&#45;&gt;Node9</title>
<path fill="none" stroke="midnightblue" d="M320,-268.4C320,-260.64 320,-250.81 320,-241.86"/>
<polygon fill="midnightblue" stroke="midnightblue" points="323.5,-241.58 320,-231.58 316.5,-241.58 323.5,-241.58"/>
</g>
<!-- Node8&#45;&gt;Node15 -->
<g id="edge31" class="edge">
<title>Node8&#45;&gt;Node15</title>
<path fill="none" stroke="midnightblue" d="M395.22,-269.42C463.59,-257.2 556.13,-239.73 572,-232 576.14,-229.98 616.43,-194.92 643.19,-171.45"/>
<polygon fill="midnightblue" stroke="midnightblue" points="645.81,-173.81 651.01,-164.59 641.19,-168.55 645.81,-173.81"/>
</g>
<!-- Node23 -->
<g id="node23" class="node">
<title>Node23</title>
<g id="a_node23"><a xlink:href="path__info_8h.html" target="_top" xlink:title=" ">
<polygon fill="white" stroke="black" points="413,-201.5 413,-231.5 563,-231.5 563,-201.5 413,-201.5"/>
<text text-anchor="start" x="421" y="-219.5" font-family="Helvetica,sans-Serif" font-size="10.00">network_butcher/K&#45;shortest</text>
<text text-anchor="middle" x="488" y="-208.5" font-family="Helvetica,sans-Serif" font-size="10.00">_path/path_info.h</text>
</a>
</g>
</g>
<!-- Node8&#45;&gt;Node23 -->
<g id="edge26" class="edge">
<title>Node8&#45;&gt;Node23</title>
<path fill="none" stroke="midnightblue" d="M356.45,-268.4C381.55,-258.69 415.09,-245.71 442.02,-235.29"/>
<polygon fill="midnightblue" stroke="midnightblue" points="443.55,-238.45 451.62,-231.58 441.03,-231.92 443.55,-238.45"/>
</g>
<!-- Node8&#45;&gt;Node24 -->
<g id="edge29" class="edge">
<title>Node8&#45;&gt;Node24</title>
<path fill="none" stroke="midnightblue" d="M395.23,-269.42C456.99,-258.69 544.43,-243.49 608.77,-232.31"/>
<polygon fill="midnightblue" stroke="midnightblue" points="609.63,-235.72 618.89,-230.55 608.43,-228.82 609.63,-235.72"/>
</g>
<!-- Node9&#45;&gt;Node2 -->
<g id="edge11" class="edge">
<title>Node9&#45;&gt;Node2</title>
<path fill="none" stroke="midnightblue" d="M259.16,-201.48C198.43,-187.48 107.99,-166.63 63.96,-156.48"/>
<polygon fill="midnightblue" stroke="midnightblue" points="64.59,-153.04 54.06,-154.2 63.02,-159.86 64.59,-153.04"/>
</g>
<!-- Node10 -->
<g id="node10" class="node">
<title>Node10</title>
<g id="a_node10"><a xlink:title=" ">
<polygon fill="white" stroke="#bfbfbf" points="197,-140 197,-159 241,-159 241,-140 197,-140"/>
<text text-anchor="middle" x="219" y="-147" font-family="Helvetica,sans-Serif" font-size="10.00">limits</text>
</a>
</g>
</g>
<!-- Node9&#45;&gt;Node10 -->
<g id="edge10" class="edge">
<title>Node9&#45;&gt;Node10</title>
<path fill="none" stroke="midnightblue" d="M298.08,-201.4C281.15,-190.5 257.81,-175.48 240.88,-164.58"/>
<polygon fill="midnightblue" stroke="midnightblue" points="242.52,-161.48 232.22,-159.01 238.73,-167.36 242.52,-161.48"/>
</g>
<!-- Node11 -->
<g id="node11" class="node">
<title>Node11</title>
<g id="a_node11"><a xlink:title=" ">
<polygon fill="white" stroke="#bfbfbf" points="241,-73 241,-92 299,-92 299,-73 241,-73"/>
<text text-anchor="middle" x="270" y="-80" font-family="Helvetica,sans-Serif" font-size="10.00">memory</text>
</a>
</g>
</g>
<!-- Node9&#45;&gt;Node11 -->
<g id="edge12" class="edge">
<title>Node9&#45;&gt;Node11</title>
<path fill="none" stroke="midnightblue" d="M309.05,-201.22C302.08,-191.49 293.38,-178.05 288,-165 279.56,-144.54 274.79,-119.48 272.3,-102.59"/>
<polygon fill="midnightblue" stroke="midnightblue" points="275.73,-101.81 270.94,-92.37 268.79,-102.74 275.73,-101.81"/>
</g>
<!-- Node12 -->
<g id="node12" class="node">
<title>Node12</title>
<g id="a_node12"><a xlink:title=" ">
<polygon fill="white" stroke="#bfbfbf" points="297.5,-140 297.5,-159 342.5,-159 342.5,-140 297.5,-140"/>
<text text-anchor="middle" x="320" y="-147" font-family="Helvetica,sans-Serif" font-size="10.00">utility</text>
</a>
</g>
</g>
<!-- Node9&#45;&gt;Node12 -->
<g id="edge13" class="edge">
<title>Node9&#45;&gt;Node12</title>
<path fill="none" stroke="midnightblue" d="M320,-201.4C320,-192.06 320,-179.71 320,-169.52"/>
<polygon fill="midnightblue" stroke="midnightblue" points="323.5,-169.19 320,-159.19 316.5,-169.19 323.5,-169.19"/>
</g>
<!-- Node13 -->
<g id="node13" class="node">
<title>Node13</title>
<g id="a_node13"><a xlink:title=" ">
<polygon fill="white" stroke="#bfbfbf" points="361,-140 361,-159 417,-159 417,-140 361,-140"/>
<text text-anchor="middle" x="389" y="-147" font-family="Helvetica,sans-Serif" font-size="10.00">numeric</text>
</a>
</g>
</g>
<!-- Node9&#45;&gt;Node13 -->
<g id="edge14" class="edge">
<title>Node9&#45;&gt;Node13</title>
<path fill="none" stroke="midnightblue" d="M334.97,-201.4C345.94,-191.06 360.84,-177.02 372.22,-166.31"/>
<polygon fill="midnightblue" stroke="midnightblue" points="374.89,-168.6 379.77,-159.19 370.09,-163.5 374.89,-168.6"/>
</g>
<!-- Node14 -->
<g id="node14" class="node">
<title>Node14</title>
<g id="a_node14"><a xlink:href="crtp__greater_8h.html" target="_top" xlink:title=" ">
<polygon fill="white" stroke="black" points="435,-134.5 435,-164.5 585,-164.5 585,-134.5 435,-134.5"/>
<text text-anchor="start" x="443" y="-152.5" font-family="Helvetica,sans-Serif" font-size="10.00">network_butcher/K&#45;shortest</text>
<text text-anchor="middle" x="510" y="-141.5" font-family="Helvetica,sans-Serif" font-size="10.00">_path/crtp_greater.h</text>
</a>
</g>
</g>
<!-- Node9&#45;&gt;Node14 -->
<g id="edge15" class="edge">
<title>Node9&#45;&gt;Node14</title>
<path fill="none" stroke="midnightblue" d="M361.23,-201.4C389.98,-191.56 428.54,-178.37 459.2,-167.88"/>
<polygon fill="midnightblue" stroke="midnightblue" points="460.52,-171.13 468.85,-164.58 458.26,-164.5 460.52,-171.13"/>
</g>
<!-- Node9&#45;&gt;Node15 -->
<g id="edge16" class="edge">
<title>Node9&#45;&gt;Node15</title>
<path fill="none" stroke="midnightblue" d="M395.06,-201.95C447.68,-192.39 519.94,-179.13 592.65,-165.24"/>
<polygon fill="midnightblue" stroke="midnightblue" points="593.75,-168.6 602.92,-163.28 592.44,-161.72 593.75,-168.6"/>
</g>
<!-- Node15&#45;&gt;Node11 -->
<g id="edge19" class="edge">
<title>Node15&#45;&gt;Node11</title>
<path fill="none" stroke="midnightblue" d="M602.94,-135.61C599.92,-135.05 596.93,-134.51 594,-134 489.49,-115.66 462.79,-114.63 358,-98 342.1,-95.48 324.59,-92.61 309.41,-90.1"/>
<polygon fill="midnightblue" stroke="midnightblue" points="309.76,-86.61 299.32,-88.42 308.61,-93.51 309.76,-86.61"/>
</g>
<!-- Node16 -->
<g id="node16" class="node">
<title>Node16</title>
<g id="a_node16"><a xlink:title=" ">
<polygon fill="white" stroke="#bfbfbf" points="699,-73 699,-92 731,-92 731,-73 699,-73"/>
<text text-anchor="middle" x="715" y="-80" font-family="Helvetica,sans-Serif" font-size="10.00">set</text>
</a>
</g>
</g>
<!-- Node15&#45;&gt;Node16 -->
<g id="edge17" class="edge">
<title>Node15&#45;&gt;Node16</title>
<path fill="none" stroke="midnightblue" d="M677.42,-134.4C684.83,-124.36 694.81,-110.84 702.63,-100.25"/>
<polygon fill="midnightblue" stroke="midnightblue" points="705.45,-102.32 708.58,-92.19 699.82,-98.16 705.45,-102.32"/>
</g>
<!-- Node17 -->
<g id="node17" class="node">
<title>Node17</title>
<g id="a_node17"><a xlink:title=" ">
<polygon fill="white" stroke="#bfbfbf" points="749,-73 749,-92 787,-92 787,-73 749,-73"/>
<text text-anchor="middle" x="768" y="-80" font-family="Helvetica,sans-Serif" font-size="10.00">map</text>
</a>
</g>
</g>
<!-- Node15&#45;&gt;Node17 -->
<g id="edge18" class="edge">
<title>Node15&#45;&gt;Node17</title>
<path fill="none" stroke="midnightblue" d="M688.92,-134.4C705.85,-123.5 729.19,-108.48 746.12,-97.58"/>
<polygon fill="midnightblue" stroke="midnightblue" points="748.27,-100.36 754.78,-92.01 744.48,-94.48 748.27,-100.36"/>
</g>
<!-- Node18 -->
<g id="node18" class="node">
<title>Node18</title>
<g id="a_node18"><a xlink:href="starting__traits_8h.html" target="_top" xlink:title=" ">
<polygon fill="white" stroke="black" points="463,-0.5 463,-30.5 591,-30.5 591,-0.5 463,-0.5"/>
<text text-anchor="start" x="471" y="-18.5" font-family="Helvetica,sans-Serif" font-size="10.00">network_butcher/Traits</text>
<text text-anchor="middle" x="527" y="-7.5" font-family="Helvetica,sans-Serif" font-size="10.00">/starting_traits.h</text>
</a>
</g>
</g>
<!-- Node15&#45;&gt;Node18 -->
<g id="edge20" class="edge">
<title>Node15&#45;&gt;Node18</title>
<path fill="none" stroke="midnightblue" d="M604.6,-134.48C583.63,-126.89 561.82,-115.36 547,-98 533.45,-82.12 528.8,-58.49 527.34,-40.76"/>
<polygon fill="midnightblue" stroke="midnightblue" points="530.82,-40.4 526.78,-30.6 523.83,-40.78 530.82,-40.4"/>
</g>
<!-- Node19 -->
<g id="node19" class="node">
<title>Node19</title>
<g id="a_node19"><a xlink:href="type__info_8h.html" target="_top" xlink:title=" ">
<polygon fill="white" stroke="black" points="367.5,-67.5 367.5,-97.5 496.5,-97.5 496.5,-67.5 367.5,-67.5"/>
<text text-anchor="start" x="375.5" y="-85.5" font-family="Helvetica,sans-Serif" font-size="10.00">network_butcher/Types</text>
<text text-anchor="middle" x="432" y="-74.5" font-family="Helvetica,sans-Serif" font-size="10.00">/type_info.h</text>
</a>
</g>
</g>
<!-- Node15&#45;&gt;Node19 -->
<g id="edge21" class="edge">
<title>Node15&#45;&gt;Node19</title>
<path fill="none" stroke="midnightblue" d="M616.3,-134.48C580.13,-124.47 531.32,-110.97 493.02,-100.38"/>
<polygon fill="midnightblue" stroke="midnightblue" points="493.59,-96.9 483.02,-97.61 491.72,-103.65 493.59,-96.9"/>
</g>
<!-- Node22 -->
<g id="node22" class="node">
<title>Node22</title>
<g id="a_node22"><a xlink:title=" ">
<polygon fill="white" stroke="#bfbfbf" points="555.5,-67.5 555.5,-97.5 680.5,-97.5 680.5,-67.5 555.5,-67.5"/>
<text text-anchor="start" x="563.5" y="-85.5" font-family="Helvetica,sans-Serif" font-size="10.00">network_butcher/onnx</text>
<text text-anchor="middle" x="618" y="-74.5" font-family="Helvetica,sans-Serif" font-size="10.00">_proto/onnx.pb.h</text>
</a>
</g>
</g>
<!-- Node15&#45;&gt;Node22 -->
<g id="edge25" class="edge">
<title>Node15&#45;&gt;Node22</title>
<path fill="none" stroke="midnightblue" d="M656.37,-134.4C650.08,-126.05 641.96,-115.29 634.82,-105.81"/>
<polygon fill="midnightblue" stroke="midnightblue" points="637.43,-103.45 628.61,-97.58 631.84,-107.67 637.43,-103.45"/>
</g>
<!-- Node19&#45;&gt;Node18 -->
<g id="edge24" class="edge">
<title>Node19&#45;&gt;Node18</title>
<path fill="none" stroke="midnightblue" d="M452.61,-67.4C465.93,-58.28 483.46,-46.29 498.16,-36.24"/>
<polygon fill="midnightblue" stroke="midnightblue" points="500.15,-39.11 506.43,-30.58 496.2,-33.33 500.15,-39.11"/>
</g>
<!-- Node20 -->
<g id="node20" class="node">
<title>Node20</title>
<g id="a_node20"><a xlink:title=" ">
<polygon fill="white" stroke="#bfbfbf" points="401,-6 401,-25 445,-25 445,-6 401,-6"/>
<text text-anchor="middle" x="423" y="-13" font-family="Helvetica,sans-Serif" font-size="10.00">string</text>
</a>
</g>
</g>
<!-- Node19&#45;&gt;Node20 -->
<g id="edge22" class="edge">
<title>Node19&#45;&gt;Node20</title>
<path fill="none" stroke="midnightblue" d="M430.05,-67.4C428.74,-57.96 427.01,-45.45 425.59,-35.19"/>
<polygon fill="midnightblue" stroke="midnightblue" points="429.04,-34.62 424.2,-25.19 422.11,-35.58 429.04,-34.62"/>
</g>
<!-- Node21 -->
<g id="node21" class="node">
<title>Node21</title>
<g id="a_node21"><a xlink:title=" ">
<polygon fill="white" stroke="#bfbfbf" points="264.5,-6 264.5,-25 311.5,-25 311.5,-6 264.5,-6"/>
<text text-anchor="middle" x="288" y="-13" font-family="Helvetica,sans-Serif" font-size="10.00">vector</text>
</a>
</g>
</g>
<!-- Node19&#45;&gt;Node21 -->
<g id="edge23" class="edge">
<title>Node19&#45;&gt;Node21</title>
<path fill="none" stroke="midnightblue" d="M400.75,-67.4C375.6,-56.04 340.55,-40.22 316.23,-29.24"/>
<polygon fill="midnightblue" stroke="midnightblue" points="317.4,-25.93 306.85,-25.01 314.52,-32.31 317.4,-25.93"/>
</g>
<!-- Node23&#45;&gt;Node14 -->
<g id="edge27" class="edge">
<title>Node23&#45;&gt;Node14</title>
<path fill="none" stroke="midnightblue" d="M492.77,-201.4C495.45,-193.47 498.87,-183.38 501.95,-174.27"/>
<polygon fill="midnightblue" stroke="midnightblue" points="505.34,-175.17 505.24,-164.58 498.71,-172.93 505.34,-175.17"/>
</g>
<!-- Node23&#45;&gt;Node15 -->
<g id="edge28" class="edge">
<title>Node23&#45;&gt;Node15</title>
<path fill="none" stroke="midnightblue" d="M526.84,-201.4C553.82,-191.6 589.94,-178.48 618.77,-168.02"/>
<polygon fill="midnightblue" stroke="midnightblue" points="620.03,-171.28 628.24,-164.58 617.64,-164.7 620.03,-171.28"/>
</g>
<!-- Node24&#45;&gt;Node15 -->
<g id="edge30" class="edge">
<title>Node24&#45;&gt;Node15</title>
<path fill="none" stroke="midnightblue" d="M688.14,-201.4C684.82,-193.39 680.57,-183.16 676.75,-173.98"/>
<polygon fill="midnightblue" stroke="midnightblue" points="679.92,-172.47 672.85,-164.58 673.45,-175.15 679.92,-172.47"/>
</g>
<!-- Node25&#45;&gt;Node8 -->
<g id="edge33" class="edge">
<title>Node25&#45;&gt;Node8</title>
<path fill="none" stroke="midnightblue" d="M289.46,-335.4C294.37,-327.22 300.66,-316.73 306.26,-307.39"/>
<polygon fill="midnightblue" stroke="midnightblue" points="309.41,-308.95 311.55,-298.58 303.41,-305.35 309.41,-308.95"/>
</g>
<!-- Node25&#45;&gt;Node10 -->
<g id="edge34" class="edge">
<title>Node25&#45;&gt;Node10</title>
<path fill="none" stroke="midnightblue" d="M264.01,-335.39C254.1,-326.13 242.33,-313.15 236,-299 216.62,-255.7 216.25,-198.51 217.62,-169.36"/>
<polygon fill="midnightblue" stroke="midnightblue" points="221.14,-169.2 218.24,-159.01 214.15,-168.78 221.14,-169.2"/>
</g>
<!-- Node25&#45;&gt;Node21 -->
<g id="edge36" class="edge">
<title>Node25&#45;&gt;Node21</title>
<path fill="none" stroke="midnightblue" d="M256.7,-335.46C223.76,-314.4 169,-271.3 169,-217.5 169,-217.5 169,-217.5 169,-148.5 169,-93.13 227.48,-50.52 262.45,-29.99"/>
<polygon fill="midnightblue" stroke="midnightblue" points="264.23,-33.01 271.2,-25.03 260.78,-26.92 264.23,-33.01"/>
</g>
<!-- Node26 -->
<g id="node26" class="node">
<title>Node26</title>
<g id="a_node26"><a xlink:title=" ">
<polygon fill="white" stroke="#bfbfbf" points="93.5,-274 93.5,-293 140.5,-293 140.5,-274 93.5,-274"/>
<text text-anchor="middle" x="117" y="-281" font-family="Helvetica,sans-Serif" font-size="10.00">queue</text>
</a>
</g>
</g>
<!-- Node25&#45;&gt;Node26 -->
<g id="edge35" class="edge">
<title>Node25&#45;&gt;Node26</title>
<path fill="none" stroke="midnightblue" d="M245.41,-335.4C216.38,-323.89 175.78,-307.8 148.05,-296.81"/>
<polygon fill="midnightblue" stroke="midnightblue" points="149.05,-293.44 138.46,-293.01 146.47,-299.95 149.05,-293.44"/>
</g>
<!-- Node28 -->
<g id="node28" class="node">
<title>Node28</title>
<g id="a_node28"><a xlink:title=" ">
<polygon fill="white" stroke="#bfbfbf" points="491,-274 491,-293 541,-293 541,-274 491,-274"/>
<text text-anchor="middle" x="516" y="-281" font-family="Helvetica,sans-Serif" font-size="10.00">chrono</text>
</a>
</g>
</g>
<!-- Node27&#45;&gt;Node28 -->
<g id="edge38" class="edge">
<title>Node27&#45;&gt;Node28</title>
<path fill="none" stroke="midnightblue" d="M487.03,-335.4C492.63,-325.56 500.13,-312.38 506.1,-301.89"/>
<polygon fill="midnightblue" stroke="midnightblue" points="509.15,-303.62 511.05,-293.19 503.06,-300.15 509.15,-303.62"/>
</g>
<!-- Node29 -->
<g id="node29" class="node">
<title>Node29</title>
<g id="a_node29"><a xlink:title=" ">
<polygon fill="white" stroke="#bfbfbf" points="559,-274 559,-293 607,-293 607,-274 559,-274"/>
<text text-anchor="middle" x="583" y="-281" font-family="Helvetica,sans-Serif" font-size="10.00">iosfwd</text>
</a>
</g>
</g>
<!-- Node27&#45;&gt;Node29 -->
<g id="edge39" class="edge">
<title>Node27&#45;&gt;Node29</title>
<path fill="none" stroke="midnightblue" d="M501.57,-335.4C519.01,-324.5 543.03,-309.48 560.47,-298.58"/>
<polygon fill="midnightblue" stroke="midnightblue" points="562.76,-301.28 569.39,-293.01 559.05,-295.34 562.76,-301.28"/>
</g>
<!-- Node30 -->
<g id="node30" class="node">
<title>Node30</title>
<g id="a_node30"><a xlink:title=" ">
<polygon fill="white" stroke="#bfbfbf" points="413,-274 413,-293 473,-293 473,-274 413,-274"/>
<text text-anchor="middle" x="443" y="-281" font-family="Helvetica,sans-Serif" font-size="10.00">iostream</text>
</a>
</g>
</g>
<!-- Node27&#45;&gt;Node30 -->
<g id="edge40" class="edge">
<title>Node27&#45;&gt;Node30</title>
<path fill="none" stroke="midnightblue" d="M471.19,-335.4C465.8,-325.66 458.59,-312.65 452.81,-302.21"/>
<polygon fill="midnightblue" stroke="midnightblue" points="455.72,-300.25 447.82,-293.19 449.6,-303.64 455.72,-300.25"/>
</g>
<!-- Node31&#45;&gt;Node15 -->
<g id="edge42" class="edge">
<title>Node31&#45;&gt;Node15</title>
<path fill="none" stroke="midnightblue" d="M736.45,-268.46C752.21,-260.35 769.06,-248.44 778,-232 784.58,-219.9 785.46,-212.59 778,-201 768.61,-186.42 753.87,-175.99 738.15,-168.56"/>
<polygon fill="midnightblue" stroke="midnightblue" points="739.39,-165.29 728.82,-164.53 736.61,-171.71 739.39,-165.29"/>
</g>
<!-- Node31&#45;&gt;Node24 -->
<g id="edge43" class="edge">
<title>Node31&#45;&gt;Node24</title>
<path fill="none" stroke="midnightblue" d="M698.7,-268.4C697.97,-260.56 697.05,-250.6 696.22,-241.57"/>
<polygon fill="midnightblue" stroke="midnightblue" points="699.7,-241.21 695.3,-231.58 692.73,-241.86 699.7,-241.21"/>
</g>
</g>
</svg>
