<?xml version="1.0" encoding="UTF-8" standalone="no"?>
<!DOCTYPE svg PUBLIC "-//W3C//DTD SVG 1.1//EN"
 "http://www.w3.org/Graphics/SVG/1.1/DTD/svg11.dtd">
<!-- Generated by graphviz version 2.43.0 (0)
 -->
<!-- Title: include/K&#45;shortest_path/keppstein.h Pages: 1 -->
<svg width="722pt" height="431pt"
 viewBox="0.00 0.00 722.00 431.00" xmlns="http://www.w3.org/2000/svg" xmlns:xlink="http://www.w3.org/1999/xlink">
<g id="graph0" class="graph" transform="scale(1 1) rotate(0) translate(4 427)">
<title>include/K&#45;shortest_path/keppstein.h</title>
<polygon fill="white" stroke="transparent" points="-4,4 -4,-427 718,-427 718,4 -4,4"/>
<!-- Node1 -->
<g id="node1" class="node">
<title>Node1</title>
<g id="a_node1"><a xlink:title=" ">
<polygon fill="#bfbfbf" stroke="black" points="489,-392.5 489,-422.5 593,-422.5 593,-392.5 489,-392.5"/>
<text text-anchor="start" x="497" y="-410.5" font-family="Helvetica,sans-Serif" font-size="10.00">include/K&#45;shortest</text>
<text text-anchor="middle" x="541" y="-399.5" font-family="Helvetica,sans-Serif" font-size="10.00">_path/keppstein.h</text>
</a>
</g>
</g>
<!-- Node2 -->
<g id="node2" class="node">
<title>Node2</title>
<g id="a_node2"><a xlink:title=" ">
<polygon fill="white" stroke="#bfbfbf" points="22,-112.5 22,-131.5 54,-131.5 54,-112.5 22,-112.5"/>
<text text-anchor="middle" x="38" y="-119.5" font-family="Helvetica,sans-Serif" font-size="10.00">list</text>
</a>
</g>
</g>
<!-- Node1&#45;&gt;Node2 -->
<g id="edge1" class="edge">
<title>Node1&#45;&gt;Node2</title>
<path fill="none" stroke="midnightblue" d="M488.64,-406.34C352.86,-404.53 0,-390.28 0,-291 0,-291 0,-291 0,-233 0,-198.81 16.6,-161.76 27.86,-140.57"/>
<polygon fill="midnightblue" stroke="midnightblue" points="30.95,-142.22 32.72,-131.77 24.82,-138.83 30.95,-142.22"/>
</g>
<!-- Node3 -->
<g id="node3" class="node">
<title>Node3</title>
<g id="a_node3"><a xlink:href="basic__keppstein_8h.html" target="_top" xlink:title=" ">
<polygon fill="white" stroke="black" points="334,-336.5 334,-355.5 438,-355.5 438,-336.5 334,-336.5"/>
<text text-anchor="middle" x="386" y="-343.5" font-family="Helvetica,sans-Serif" font-size="10.00">basic_keppstein.h</text>
</a>
</g>
</g>
<!-- Node1&#45;&gt;Node3 -->
<g id="edge2" class="edge">
<title>Node1&#45;&gt;Node3</title>
<path fill="none" stroke="midnightblue" d="M504.27,-392.4C478.03,-382.33 443.07,-368.91 417.98,-359.28"/>
<polygon fill="midnightblue" stroke="midnightblue" points="419.14,-355.97 408.55,-355.66 416.64,-362.51 419.14,-355.97"/>
</g>
<!-- Node15 -->
<g id="node15" class="node">
<title>Node15</title>
<g id="a_node15"><a xlink:href="traits_8h.html" target="_top" xlink:title=" ">
<polygon fill="white" stroke="black" points="552.5,-112.5 552.5,-131.5 603.5,-131.5 603.5,-112.5 552.5,-112.5"/>
<text text-anchor="middle" x="578" y="-119.5" font-family="Helvetica,sans-Serif" font-size="10.00">traits.h</text>
</a>
</g>
</g>
<!-- Node1&#45;&gt;Node15 -->
<g id="edge44" class="edge">
<title>Node1&#45;&gt;Node15</title>
<path fill="none" stroke="midnightblue" d="M593.38,-395.02C644.29,-380.41 714,-349.68 714,-291 714,-291 714,-291 714,-233 714,-181.1 653.38,-149.47 613.09,-134.18"/>
<polygon fill="midnightblue" stroke="midnightblue" points="614.17,-130.85 603.58,-130.73 611.79,-137.43 614.17,-130.85"/>
</g>
<!-- Node24 -->
<g id="node24" class="node">
<title>Node24</title>
<g id="a_node24"><a xlink:href="weighted__graph_8h.html" target="_top" xlink:title=" ">
<polygon fill="white" stroke="black" points="526,-168.5 526,-187.5 630,-187.5 630,-168.5 526,-168.5"/>
<text text-anchor="middle" x="578" y="-175.5" font-family="Helvetica,sans-Serif" font-size="10.00">weighted_graph.h</text>
</a>
</g>
</g>
<!-- Node1&#45;&gt;Node24 -->
<g id="edge45" class="edge">
<title>Node1&#45;&gt;Node24</title>
<path fill="none" stroke="midnightblue" d="M557.14,-392.45C585.3,-366.56 641.87,-308.1 657,-244 659.04,-235.35 661.47,-231.69 657,-224 648.26,-208.97 632.42,-198.54 617.21,-191.54"/>
<polygon fill="midnightblue" stroke="midnightblue" points="618.46,-188.27 607.88,-187.61 615.74,-194.72 618.46,-188.27"/>
</g>
<!-- Node3&#45;&gt;Node2 -->
<g id="edge4" class="edge">
<title>Node3&#45;&gt;Node2</title>
<path fill="none" stroke="midnightblue" d="M333.7,-345.37C250.69,-344.77 94.31,-338.41 57,-300 15.42,-257.19 25.76,-178.26 33.35,-142.05"/>
<polygon fill="midnightblue" stroke="midnightblue" points="36.85,-142.42 35.65,-131.9 30.02,-140.88 36.85,-142.42"/>
</g>
<!-- Node4 -->
<g id="node4" class="node">
<title>Node4</title>
<g id="a_node4"><a xlink:title=" ">
<polygon fill="white" stroke="#bfbfbf" points="462.5,-280.5 462.5,-299.5 527.5,-299.5 527.5,-280.5 462.5,-280.5"/>
<text text-anchor="middle" x="495" y="-287.5" font-family="Helvetica,sans-Serif" font-size="10.00">functional</text>
</a>
</g>
</g>
<!-- Node3&#45;&gt;Node4 -->
<g id="edge3" class="edge">
<title>Node3&#45;&gt;Node4</title>
<path fill="none" stroke="midnightblue" d="M403.51,-336.32C421.07,-327.62 448.33,-314.12 468.53,-304.11"/>
<polygon fill="midnightblue" stroke="midnightblue" points="470.12,-307.23 477.53,-299.65 467.02,-300.96 470.12,-307.23"/>
</g>
<!-- Node5 -->
<g id="node5" class="node">
<title>Node5</title>
<g id="a_node5"><a xlink:title=" ">
<polygon fill="white" stroke="#bfbfbf" points="546,-280.5 546,-299.5 602,-299.5 602,-280.5 546,-280.5"/>
<text text-anchor="middle" x="574" y="-287.5" font-family="Helvetica,sans-Serif" font-size="10.00">optional</text>
</a>
</g>
</g>
<!-- Node3&#45;&gt;Node5 -->
<g id="edge5" class="edge">
<title>Node3&#45;&gt;Node5</title>
<path fill="none" stroke="midnightblue" d="M415.79,-336.44C448.3,-327.11 500.44,-312.13 535.91,-301.94"/>
<polygon fill="midnightblue" stroke="midnightblue" points="537.24,-305.2 545.89,-299.08 535.31,-298.47 537.24,-305.2"/>
</g>
<!-- Node6 -->
<g id="node6" class="node">
<title>Node6</title>
<g id="a_node6"><a xlink:title=" ">
<polygon fill="white" stroke="#bfbfbf" points="66,-280.5 66,-299.5 116,-299.5 116,-280.5 66,-280.5"/>
<text text-anchor="middle" x="91" y="-287.5" font-family="Helvetica,sans-Serif" font-size="10.00">ranges</text>
</a>
</g>
</g>
<!-- Node3&#45;&gt;Node6 -->
<g id="edge6" class="edge">
<title>Node3&#45;&gt;Node6</title>
<path fill="none" stroke="midnightblue" d="M333.74,-337.38C283.03,-329.67 203.72,-316.79 126.13,-300.1"/>
<polygon fill="midnightblue" stroke="midnightblue" points="126.71,-296.64 116.19,-297.93 125.22,-303.48 126.71,-296.64"/>
</g>
<!-- Node7 -->
<g id="node7" class="node">
<title>Node7</title>
<g id="a_node7"><a xlink:title=" ">
<polygon fill="white" stroke="#bfbfbf" points="134.5,-280.5 134.5,-299.5 185.5,-299.5 185.5,-280.5 134.5,-280.5"/>
<text text-anchor="middle" x="160" y="-287.5" font-family="Helvetica,sans-Serif" font-size="10.00">variant</text>
</a>
</g>
</g>
<!-- Node3&#45;&gt;Node7 -->
<g id="edge7" class="edge">
<title>Node3&#45;&gt;Node7</title>
<path fill="none" stroke="midnightblue" d="M348.04,-336.44C311.29,-328.08 253.78,-314.8 195.36,-300.29"/>
<polygon fill="midnightblue" stroke="midnightblue" points="196.15,-296.88 185.6,-297.86 194.46,-303.67 196.15,-296.88"/>
</g>
<!-- Node8 -->
<g id="node8" class="node">
<title>Node8</title>
<g id="a_node8"><a xlink:href="heap__traits_8h.html" target="_top" xlink:title=" ">
<polygon fill="white" stroke="black" points="278,-224.5 278,-243.5 358,-243.5 358,-224.5 278,-224.5"/>
<text text-anchor="middle" x="318" y="-231.5" font-family="Helvetica,sans-Serif" font-size="10.00">heap_traits.h</text>
</a>
</g>
</g>
<!-- Node3&#45;&gt;Node8 -->
<g id="edge8" class="edge">
<title>Node3&#45;&gt;Node8</title>
<path fill="none" stroke="midnightblue" d="M380.66,-336.37C369.49,-318.3 343.45,-276.18 328.7,-252.31"/>
<polygon fill="midnightblue" stroke="midnightblue" points="331.55,-250.26 323.31,-243.59 325.59,-253.94 331.55,-250.26"/>
</g>
<!-- Node25 -->
<g id="node25" class="node">
<title>Node25</title>
<g id="a_node25"><a xlink:href="shortest__path__finder_8h.html" target="_top" xlink:title=" ">
<polygon fill="white" stroke="black" points="203.5,-280.5 203.5,-299.5 328.5,-299.5 328.5,-280.5 203.5,-280.5"/>
<text text-anchor="middle" x="266" y="-287.5" font-family="Helvetica,sans-Serif" font-size="10.00">shortest_path_finder.h</text>
</a>
</g>
</g>
<!-- Node3&#45;&gt;Node25 -->
<g id="edge32" class="edge">
<title>Node3&#45;&gt;Node25</title>
<path fill="none" stroke="midnightblue" d="M366.99,-336.44C347.41,-327.64 316.69,-313.81 294.27,-303.72"/>
<polygon fill="midnightblue" stroke="midnightblue" points="295.48,-300.43 284.93,-299.52 292.61,-306.81 295.48,-300.43"/>
</g>
<!-- Node27 -->
<g id="node27" class="node">
<title>Node27</title>
<g id="a_node27"><a xlink:href="chrono_8h.html" target="_top" xlink:title=" ">
<polygon fill="white" stroke="black" points="385.5,-280.5 385.5,-299.5 444.5,-299.5 444.5,-280.5 385.5,-280.5"/>
<text text-anchor="middle" x="415" y="-287.5" font-family="Helvetica,sans-Serif" font-size="10.00">chrono.h</text>
</a>
</g>
</g>
<!-- Node3&#45;&gt;Node27 -->
<g id="edge37" class="edge">
<title>Node3&#45;&gt;Node27</title>
<path fill="none" stroke="midnightblue" d="M390.79,-336.08C394.76,-328.69 400.53,-317.95 405.43,-308.81"/>
<polygon fill="midnightblue" stroke="midnightblue" points="408.65,-310.22 410.3,-299.75 402.49,-306.91 408.65,-310.22"/>
</g>
<!-- Node31 -->
<g id="node31" class="node">
<title>Node31</title>
<g id="a_node31"><a xlink:href="kfinder_8h.html" target="_top" xlink:title=" ">
<polygon fill="white" stroke="black" points="588.5,-224.5 588.5,-243.5 647.5,-243.5 647.5,-224.5 588.5,-224.5"/>
<text text-anchor="middle" x="618" y="-231.5" font-family="Helvetica,sans-Serif" font-size="10.00">kfinder.h</text>
</a>
</g>
</g>
<!-- Node3&#45;&gt;Node31 -->
<g id="edge41" class="edge">
<title>Node3&#45;&gt;Node31</title>
<path fill="none" stroke="midnightblue" d="M438.17,-341.57C497.24,-336.54 588.26,-324.89 611,-300 622.12,-287.83 622.87,-268.56 621.45,-254.16"/>
<polygon fill="midnightblue" stroke="midnightblue" points="624.86,-253.28 619.99,-243.87 617.93,-254.27 624.86,-253.28"/>
</g>
<!-- Node9 -->
<g id="node9" class="node">
<title>Node9</title>
<g id="a_node9"><a xlink:href="heap__eppstein_8h.html" target="_top" xlink:title=" ">
<polygon fill="white" stroke="black" points="278.5,-168.5 278.5,-187.5 375.5,-187.5 375.5,-168.5 278.5,-168.5"/>
<text text-anchor="middle" x="327" y="-175.5" font-family="Helvetica,sans-Serif" font-size="10.00">heap_eppstein.h</text>
</a>
</g>
</g>
<!-- Node8&#45;&gt;Node9 -->
<g id="edge9" class="edge">
<title>Node8&#45;&gt;Node9</title>
<path fill="none" stroke="midnightblue" d="M319.49,-224.08C320.68,-216.93 322.39,-206.64 323.88,-197.69"/>
<polygon fill="midnightblue" stroke="midnightblue" points="327.35,-198.19 325.54,-187.75 320.45,-197.04 327.35,-198.19"/>
</g>
<!-- Node8&#45;&gt;Node15 -->
<g id="edge29" class="edge">
<title>Node8&#45;&gt;Node15</title>
<path fill="none" stroke="midnightblue" d="M358.3,-225.21C391.38,-217.99 438.97,-205.68 478,-188 508.26,-174.29 539.87,-152.24 559.25,-137.68"/>
<polygon fill="midnightblue" stroke="midnightblue" points="561.42,-140.43 567.24,-131.58 557.17,-134.86 561.42,-140.43"/>
</g>
<!-- Node23 -->
<g id="node23" class="node">
<title>Node23</title>
<g id="a_node23"><a xlink:href="path__info_8h.html" target="_top" xlink:title=" ">
<polygon fill="white" stroke="black" points="398.5,-168.5 398.5,-187.5 469.5,-187.5 469.5,-168.5 398.5,-168.5"/>
<text text-anchor="middle" x="434" y="-175.5" font-family="Helvetica,sans-Serif" font-size="10.00">path_info.h</text>
</a>
</g>
</g>
<!-- Node8&#45;&gt;Node23 -->
<g id="edge26" class="edge">
<title>Node8&#45;&gt;Node23</title>
<path fill="none" stroke="midnightblue" d="M336.38,-224.44C355.22,-215.68 384.73,-201.94 406.38,-191.86"/>
<polygon fill="midnightblue" stroke="midnightblue" points="408.12,-194.91 415.71,-187.52 405.16,-188.56 408.12,-194.91"/>
</g>
<!-- Node8&#45;&gt;Node24 -->
<g id="edge30" class="edge">
<title>Node8&#45;&gt;Node24</title>
<path fill="none" stroke="midnightblue" d="M358.06,-224.68C403.5,-215.24 477.7,-199.83 527.18,-189.55"/>
<polygon fill="midnightblue" stroke="midnightblue" points="527.96,-192.97 537.04,-187.51 526.54,-186.11 527.96,-192.97"/>
</g>
<!-- Node9&#45;&gt;Node2 -->
<g id="edge11" class="edge">
<title>Node9&#45;&gt;Node2</title>
<path fill="none" stroke="midnightblue" d="M281.21,-168.44C219.95,-157 113.35,-137.08 64.2,-127.9"/>
<polygon fill="midnightblue" stroke="midnightblue" points="64.55,-124.4 54.08,-126 63.26,-131.28 64.55,-124.4"/>
</g>
<!-- Node10 -->
<g id="node10" class="node">
<title>Node10</title>
<g id="a_node10"><a xlink:title=" ">
<polygon fill="white" stroke="#bfbfbf" points="213,-112.5 213,-131.5 257,-131.5 257,-112.5 213,-112.5"/>
<text text-anchor="middle" x="235" y="-119.5" font-family="Helvetica,sans-Serif" font-size="10.00">limits</text>
</a>
</g>
</g>
<!-- Node9&#45;&gt;Node10 -->
<g id="edge10" class="edge">
<title>Node9&#45;&gt;Node10</title>
<path fill="none" stroke="midnightblue" d="M312.22,-168.32C297.73,-159.82 275.43,-146.73 258.51,-136.8"/>
<polygon fill="midnightblue" stroke="midnightblue" points="260.14,-133.7 249.74,-131.65 256.6,-139.74 260.14,-133.7"/>
</g>
<!-- Node11 -->
<g id="node11" class="node">
<title>Node11</title>
<g id="a_node11"><a xlink:title=" ">
<polygon fill="white" stroke="#bfbfbf" points="301,-56.5 301,-75.5 359,-75.5 359,-56.5 301,-56.5"/>
<text text-anchor="middle" x="330" y="-63.5" font-family="Helvetica,sans-Serif" font-size="10.00">memory</text>
</a>
</g>
</g>
<!-- Node9&#45;&gt;Node11 -->
<g id="edge12" class="edge">
<title>Node9&#45;&gt;Node11</title>
<path fill="none" stroke="midnightblue" d="M320.36,-168.31C311.76,-155.97 298.48,-132.58 304,-112 306.65,-102.1 312.07,-92.13 317.27,-84.1"/>
<polygon fill="midnightblue" stroke="midnightblue" points="320.29,-85.89 323.11,-75.68 314.54,-81.91 320.29,-85.89"/>
</g>
<!-- Node12 -->
<g id="node12" class="node">
<title>Node12</title>
<g id="a_node12"><a xlink:title=" ">
<polygon fill="white" stroke="#bfbfbf" points="313.5,-112.5 313.5,-131.5 358.5,-131.5 358.5,-112.5 313.5,-112.5"/>
<text text-anchor="middle" x="336" y="-119.5" font-family="Helvetica,sans-Serif" font-size="10.00">utility</text>
</a>
</g>
</g>
<!-- Node9&#45;&gt;Node12 -->
<g id="edge13" class="edge">
<title>Node9&#45;&gt;Node12</title>
<path fill="none" stroke="midnightblue" d="M328.49,-168.08C329.68,-160.93 331.39,-150.64 332.88,-141.69"/>
<polygon fill="midnightblue" stroke="midnightblue" points="336.35,-142.19 334.54,-131.75 329.45,-141.04 336.35,-142.19"/>
</g>
<!-- Node13 -->
<g id="node13" class="node">
<title>Node13</title>
<g id="a_node13"><a xlink:title=" ">
<polygon fill="white" stroke="#bfbfbf" points="377,-112.5 377,-131.5 433,-131.5 433,-112.5 377,-112.5"/>
<text text-anchor="middle" x="405" y="-119.5" font-family="Helvetica,sans-Serif" font-size="10.00">numeric</text>
</a>
</g>
</g>
<!-- Node9&#45;&gt;Node13 -->
<g id="edge14" class="edge">
<title>Node9&#45;&gt;Node13</title>
<path fill="none" stroke="midnightblue" d="M339.53,-168.32C351.59,-159.98 370.03,-147.21 384.27,-137.35"/>
<polygon fill="midnightblue" stroke="midnightblue" points="386.27,-140.22 392.5,-131.65 382.28,-134.47 386.27,-140.22"/>
</g>
<!-- Node14 -->
<g id="node14" class="node">
<title>Node14</title>
<g id="a_node14"><a xlink:href="crtp__greater_8h.html" target="_top" xlink:title=" ">
<polygon fill="white" stroke="black" points="451,-112.5 451,-131.5 535,-131.5 535,-112.5 451,-112.5"/>
<text text-anchor="middle" x="493" y="-119.5" font-family="Helvetica,sans-Serif" font-size="10.00">crtp_greater.h</text>
</a>
</g>
</g>
<!-- Node9&#45;&gt;Node14 -->
<g id="edge15" class="edge">
<title>Node9&#45;&gt;Node14</title>
<path fill="none" stroke="midnightblue" d="M353.3,-168.44C381.35,-159.32 425.94,-144.81 457.18,-134.65"/>
<polygon fill="midnightblue" stroke="midnightblue" points="458.39,-137.94 466.82,-131.52 456.23,-131.28 458.39,-137.94"/>
</g>
<!-- Node9&#45;&gt;Node15 -->
<g id="edge16" class="edge">
<title>Node9&#45;&gt;Node15</title>
<path fill="none" stroke="midnightblue" d="M371.62,-168.48C413.46,-160.33 477.96,-147.35 542.48,-132.27"/>
<polygon fill="midnightblue" stroke="midnightblue" points="543.49,-135.63 552.42,-129.93 541.88,-128.82 543.49,-135.63"/>
</g>
<!-- Node15&#45;&gt;Node11 -->
<g id="edge19" class="edge">
<title>Node15&#45;&gt;Node11</title>
<path fill="none" stroke="midnightblue" d="M552.42,-114.08C549.58,-113.35 546.73,-112.65 544,-112 483.26,-97.58 412.25,-83.12 369.23,-74.62"/>
<polygon fill="midnightblue" stroke="midnightblue" points="369.67,-71.14 359.18,-72.64 368.32,-78.01 369.67,-71.14"/>
</g>
<!-- Node16 -->
<g id="node16" class="node">
<title>Node16</title>
<g id="a_node16"><a xlink:title=" ">
<polygon fill="white" stroke="#bfbfbf" points="597,-56.5 597,-75.5 629,-75.5 629,-56.5 597,-56.5"/>
<text text-anchor="middle" x="613" y="-63.5" font-family="Helvetica,sans-Serif" font-size="10.00">set</text>
</a>
</g>
</g>
<!-- Node15&#45;&gt;Node16 -->
<g id="edge17" class="edge">
<title>Node15&#45;&gt;Node16</title>
<path fill="none" stroke="midnightblue" d="M583.78,-112.08C588.67,-104.53 595.83,-93.49 601.83,-84.23"/>
<polygon fill="midnightblue" stroke="midnightblue" points="604.83,-86.05 607.33,-75.75 598.95,-82.24 604.83,-86.05"/>
</g>
<!-- Node17 -->
<g id="node17" class="node">
<title>Node17</title>
<g id="a_node17"><a xlink:title=" ">
<polygon fill="white" stroke="#bfbfbf" points="647,-56.5 647,-75.5 685,-75.5 685,-56.5 647,-56.5"/>
<text text-anchor="middle" x="666" y="-63.5" font-family="Helvetica,sans-Serif" font-size="10.00">map</text>
</a>
</g>
</g>
<!-- Node15&#45;&gt;Node17 -->
<g id="edge18" class="edge">
<title>Node15&#45;&gt;Node17</title>
<path fill="none" stroke="midnightblue" d="M592.14,-112.32C605.87,-103.9 626.94,-90.97 643.06,-81.07"/>
<polygon fill="midnightblue" stroke="midnightblue" points="645.2,-83.87 651.9,-75.65 641.54,-77.9 645.2,-83.87"/>
</g>
<!-- Node18 -->
<g id="node18" class="node">
<title>Node18</title>
<g id="a_node18"><a xlink:href="starting__traits_8h.html" target="_top" xlink:title=" ">
<polygon fill="white" stroke="black" points="379,-0.5 379,-19.5 473,-19.5 473,-0.5 379,-0.5"/>
<text text-anchor="middle" x="426" y="-7.5" font-family="Helvetica,sans-Serif" font-size="10.00">starting_traits.h</text>
</a>
</g>
</g>
<!-- Node15&#45;&gt;Node18 -->
<g id="edge20" class="edge">
<title>Node15&#45;&gt;Node18</title>
<path fill="none" stroke="midnightblue" d="M552.37,-114.14C506.75,-101.89 416.06,-77.4 415,-76 404.73,-62.52 410.02,-42.89 416.31,-28.73"/>
<polygon fill="midnightblue" stroke="midnightblue" points="419.55,-30.07 420.85,-19.56 413.28,-26.96 419.55,-30.07"/>
</g>
<!-- Node19 -->
<g id="node19" class="node">
<title>Node19</title>
<g id="a_node19"><a xlink:title=" ">
<polygon fill="white" stroke="#bfbfbf" points="424.5,-56.5 424.5,-75.5 489.5,-75.5 489.5,-56.5 424.5,-56.5"/>
<text text-anchor="middle" x="457" y="-63.5" font-family="Helvetica,sans-Serif" font-size="10.00">onnx.pb.h</text>
</a>
</g>
</g>
<!-- Node15&#45;&gt;Node19 -->
<g id="edge21" class="edge">
<title>Node15&#45;&gt;Node19</title>
<path fill="none" stroke="midnightblue" d="M558.83,-112.44C539.09,-103.64 508.11,-89.81 485.51,-79.72"/>
<polygon fill="midnightblue" stroke="midnightblue" points="486.64,-76.4 476.08,-75.52 483.79,-82.79 486.64,-76.4"/>
</g>
<!-- Node20 -->
<g id="node20" class="node">
<title>Node20</title>
<g id="a_node20"><a xlink:href="type__info_8h.html" target="_top" xlink:title=" ">
<polygon fill="white" stroke="black" points="507.5,-56.5 507.5,-75.5 578.5,-75.5 578.5,-56.5 507.5,-56.5"/>
<text text-anchor="middle" x="543" y="-63.5" font-family="Helvetica,sans-Serif" font-size="10.00">type_info.h</text>
</a>
</g>
</g>
<!-- Node15&#45;&gt;Node20 -->
<g id="edge22" class="edge">
<title>Node15&#45;&gt;Node20</title>
<path fill="none" stroke="midnightblue" d="M572.22,-112.08C567.33,-104.53 560.17,-93.49 554.17,-84.23"/>
<polygon fill="midnightblue" stroke="midnightblue" points="557.05,-82.24 548.67,-75.75 551.17,-86.05 557.05,-82.24"/>
</g>
<!-- Node20&#45;&gt;Node18 -->
<g id="edge25" class="edge">
<title>Node20&#45;&gt;Node18</title>
<path fill="none" stroke="midnightblue" d="M524.46,-56.44C505.38,-47.64 475.43,-33.81 453.56,-23.72"/>
<polygon fill="midnightblue" stroke="midnightblue" points="455,-20.53 444.45,-19.52 452.07,-26.88 455,-20.53"/>
</g>
<!-- Node21 -->
<g id="node21" class="node">
<title>Node21</title>
<g id="a_node21"><a xlink:title=" ">
<polygon fill="white" stroke="#bfbfbf" points="521,-0.5 521,-19.5 565,-19.5 565,-0.5 521,-0.5"/>
<text text-anchor="middle" x="543" y="-7.5" font-family="Helvetica,sans-Serif" font-size="10.00">string</text>
</a>
</g>
</g>
<!-- Node20&#45;&gt;Node21 -->
<g id="edge23" class="edge">
<title>Node20&#45;&gt;Node21</title>
<path fill="none" stroke="midnightblue" d="M543,-56.08C543,-49.01 543,-38.86 543,-29.99"/>
<polygon fill="midnightblue" stroke="midnightblue" points="546.5,-29.75 543,-19.75 539.5,-29.75 546.5,-29.75"/>
</g>
<!-- Node22 -->
<g id="node22" class="node">
<title>Node22</title>
<g id="a_node22"><a xlink:title=" ">
<polygon fill="white" stroke="#bfbfbf" points="240.5,-0.5 240.5,-19.5 287.5,-19.5 287.5,-0.5 240.5,-0.5"/>
<text text-anchor="middle" x="264" y="-7.5" font-family="Helvetica,sans-Serif" font-size="10.00">vector</text>
</a>
</g>
</g>
<!-- Node20&#45;&gt;Node22 -->
<g id="edge24" class="edge">
<title>Node20&#45;&gt;Node22</title>
<path fill="none" stroke="midnightblue" d="M507.47,-57.69C504.6,-57.12 501.75,-56.55 499,-56 427.36,-41.81 343.29,-25.89 297.64,-17.31"/>
<polygon fill="midnightblue" stroke="midnightblue" points="298.18,-13.84 287.7,-15.44 296.88,-20.72 298.18,-13.84"/>
</g>
<!-- Node23&#45;&gt;Node14 -->
<g id="edge27" class="edge">
<title>Node23&#45;&gt;Node14</title>
<path fill="none" stroke="midnightblue" d="M443.48,-168.32C452.2,-160.34 465.34,-148.31 475.9,-138.65"/>
<polygon fill="midnightblue" stroke="midnightblue" points="478.33,-141.17 483.35,-131.83 473.61,-136 478.33,-141.17"/>
</g>
<!-- Node23&#45;&gt;Node15 -->
<g id="edge28" class="edge">
<title>Node23&#45;&gt;Node15</title>
<path fill="none" stroke="midnightblue" d="M456.82,-168.44C480.83,-159.44 518.83,-145.19 545.87,-135.05"/>
<polygon fill="midnightblue" stroke="midnightblue" points="547.16,-138.3 555.29,-131.52 544.7,-131.75 547.16,-138.3"/>
</g>
<!-- Node24&#45;&gt;Node15 -->
<g id="edge31" class="edge">
<title>Node24&#45;&gt;Node15</title>
<path fill="none" stroke="midnightblue" d="M578,-168.08C578,-161.01 578,-150.86 578,-141.99"/>
<polygon fill="midnightblue" stroke="midnightblue" points="581.5,-141.75 578,-131.75 574.5,-141.75 581.5,-141.75"/>
</g>
<!-- Node25&#45;&gt;Node8 -->
<g id="edge33" class="edge">
<title>Node25&#45;&gt;Node8</title>
<path fill="none" stroke="midnightblue" d="M274.59,-280.08C282.16,-272.22 293.38,-260.57 302.51,-251.08"/>
<polygon fill="midnightblue" stroke="midnightblue" points="305.16,-253.38 309.57,-243.75 300.12,-248.53 305.16,-253.38"/>
</g>
<!-- Node25&#45;&gt;Node10 -->
<g id="edge34" class="edge">
<title>Node25&#45;&gt;Node10</title>
<path fill="none" stroke="midnightblue" d="M264.33,-280.08C259.45,-253.95 245.12,-177.21 238.47,-141.58"/>
<polygon fill="midnightblue" stroke="midnightblue" points="241.88,-140.76 236.6,-131.57 235,-142.04 241.88,-140.76"/>
</g>
<!-- Node25&#45;&gt;Node22 -->
<g id="edge36" class="edge">
<title>Node25&#45;&gt;Node22</title>
<path fill="none" stroke="midnightblue" d="M253.34,-280.35C230.56,-263.64 185,-224.54 185,-179 185,-179 185,-179 185,-121 185,-80.79 220.25,-45.22 243.66,-26.03"/>
<polygon fill="midnightblue" stroke="midnightblue" points="245.97,-28.66 251.66,-19.72 241.64,-23.17 245.97,-28.66"/>
</g>
<!-- Node26 -->
<g id="node26" class="node">
<title>Node26</title>
<g id="a_node26"><a xlink:title=" ">
<polygon fill="white" stroke="#bfbfbf" points="109.5,-224.5 109.5,-243.5 156.5,-243.5 156.5,-224.5 109.5,-224.5"/>
<text text-anchor="middle" x="133" y="-231.5" font-family="Helvetica,sans-Serif" font-size="10.00">queue</text>
</a>
</g>
</g>
<!-- Node25&#45;&gt;Node26 -->
<g id="edge35" class="edge">
<title>Node25&#45;&gt;Node26</title>
<path fill="none" stroke="midnightblue" d="M244.93,-280.44C222.94,-271.52 188.27,-257.44 163.34,-247.32"/>
<polygon fill="midnightblue" stroke="midnightblue" points="164.56,-244.04 153.98,-243.52 161.92,-250.52 164.56,-244.04"/>
</g>
<!-- Node28 -->
<g id="node28" class="node">
<title>Node28</title>
<g id="a_node28"><a xlink:title=" ">
<polygon fill="white" stroke="#bfbfbf" points="454,-224.5 454,-243.5 504,-243.5 504,-224.5 454,-224.5"/>
<text text-anchor="middle" x="479" y="-231.5" font-family="Helvetica,sans-Serif" font-size="10.00">chrono</text>
</a>
</g>
</g>
<!-- Node27&#45;&gt;Node28 -->
<g id="edge38" class="edge">
<title>Node27&#45;&gt;Node28</title>
<path fill="none" stroke="midnightblue" d="M425.28,-280.32C434.84,-272.26 449.28,-260.08 460.78,-250.37"/>
<polygon fill="midnightblue" stroke="midnightblue" points="463.14,-252.96 468.53,-243.83 458.63,-247.61 463.14,-252.96"/>
</g>
<!-- Node29 -->
<g id="node29" class="node">
<title>Node29</title>
<g id="a_node29"><a xlink:title=" ">
<polygon fill="white" stroke="#bfbfbf" points="522,-224.5 522,-243.5 570,-243.5 570,-224.5 522,-224.5"/>
<text text-anchor="middle" x="546" y="-231.5" font-family="Helvetica,sans-Serif" font-size="10.00">iosfwd</text>
</a>
</g>
</g>
<!-- Node27&#45;&gt;Node29 -->
<g id="edge39" class="edge">
<title>Node27&#45;&gt;Node29</title>
<path fill="none" stroke="midnightblue" d="M435.76,-280.44C457.32,-271.56 491.26,-257.56 515.79,-247.45"/>
<polygon fill="midnightblue" stroke="midnightblue" points="517.43,-250.56 525.34,-243.52 514.76,-244.09 517.43,-250.56"/>
</g>
<!-- Node30 -->
<g id="node30" class="node">
<title>Node30</title>
<g id="a_node30"><a xlink:title=" ">
<polygon fill="white" stroke="#bfbfbf" points="376,-224.5 376,-243.5 436,-243.5 436,-224.5 376,-224.5"/>
<text text-anchor="middle" x="406" y="-231.5" font-family="Helvetica,sans-Serif" font-size="10.00">iostream</text>
</a>
</g>
</g>
<!-- Node27&#45;&gt;Node30 -->
<g id="edge40" class="edge">
<title>Node27&#45;&gt;Node30</title>
<path fill="none" stroke="midnightblue" d="M413.51,-280.08C412.32,-272.93 410.61,-262.64 409.12,-253.69"/>
<polygon fill="midnightblue" stroke="midnightblue" points="412.55,-253.04 407.46,-243.75 405.65,-254.19 412.55,-253.04"/>
</g>
<!-- Node31&#45;&gt;Node15 -->
<g id="edge42" class="edge">
<title>Node31&#45;&gt;Node15</title>
<path fill="none" stroke="midnightblue" d="M625,-224.25C634.33,-211.45 648.62,-187.05 639,-168 632.19,-154.52 619.23,-144.08 607,-136.67"/>
<polygon fill="midnightblue" stroke="midnightblue" points="608.34,-133.41 597.91,-131.59 604.93,-139.52 608.34,-133.41"/>
</g>
<!-- Node31&#45;&gt;Node24 -->
<g id="edge43" class="edge">
<title>Node31&#45;&gt;Node24</title>
<path fill="none" stroke="midnightblue" d="M611.39,-224.08C605.74,-216.46 597.46,-205.26 590.55,-195.94"/>
<polygon fill="midnightblue" stroke="midnightblue" points="593.25,-193.7 584.48,-187.75 587.62,-197.87 593.25,-193.7"/>
</g>
</g>
</svg>
