<?xml version="1.0" encoding="UTF-8" standalone="no"?>
<!DOCTYPE svg PUBLIC "-//W3C//DTD SVG 1.1//EN"
 "http://www.w3.org/Graphics/SVG/1.1/DTD/svg11.dtd">
<!-- Generated by graphviz version 2.43.0 (0)
 -->
<!-- Title: include/K&#45;shortest_path/keppstein_lazy.h Pages: 1 -->
<svg width="567pt" height="430pt"
 viewBox="0.00 0.00 567.00 430.00" xmlns="http://www.w3.org/2000/svg" xmlns:xlink="http://www.w3.org/1999/xlink">
<g id="graph0" class="graph" transform="scale(1 1) rotate(0) translate(4 426)">
<title>include/K&#45;shortest_path/keppstein_lazy.h</title>
<polygon fill="white" stroke="transparent" points="-4,4 -4,-426 563,-426 563,4 -4,4"/>
<!-- Node1 -->
<g id="node1" class="node">
<title>Node1</title>
<g id="a_node1"><a xlink:title=" ">
<polygon fill="#bfbfbf" stroke="black" points="393,-391.5 393,-421.5 520,-421.5 520,-391.5 393,-391.5"/>
<text text-anchor="start" x="401" y="-409.5" font-family="Helvetica,sans-Serif" font-size="10.00">include/K&#45;shortest</text>
<text text-anchor="middle" x="456.5" y="-398.5" font-family="Helvetica,sans-Serif" font-size="10.00">_path/keppstein_lazy.h</text>
</a>
</g>
</g>
<!-- Node2 -->
<g id="node2" class="node">
<title>Node2</title>
<g id="a_node2"><a xlink:href="kfinder__factory_8h.html" target="_top" xlink:title=" ">
<polygon fill="white" stroke="black" points="392.5,-324.5 392.5,-354.5 520.5,-354.5 520.5,-324.5 392.5,-324.5"/>
<text text-anchor="start" x="400.5" y="-342.5" font-family="Helvetica,sans-Serif" font-size="10.00">include/K&#45;shortest</text>
<text text-anchor="middle" x="456.5" y="-331.5" font-family="Helvetica,sans-Serif" font-size="10.00">_path/kfinder_factory.h</text>
</a>
</g>
</g>
<!-- Node1&#45;&gt;Node2 -->
<g id="edge1" class="edge">
<title>Node1&#45;&gt;Node2</title>
<path fill="none" stroke="midnightblue" d="M456.5,-381.11C456.5,-372.15 456.5,-362.32 456.5,-354.58"/>
<polygon fill="midnightblue" stroke="midnightblue" points="453,-381.4 456.5,-391.4 460,-381.4 453,-381.4"/>
</g>
<!-- Node3 -->
<g id="node3" class="node">
<title>Node3</title>
<g id="a_node3"><a xlink:href="butcher_8h.html" target="_top" xlink:title=" ">
<polygon fill="white" stroke="black" points="337.5,-268.5 337.5,-287.5 477.5,-287.5 477.5,-268.5 337.5,-268.5"/>
<text text-anchor="middle" x="407.5" y="-275.5" font-family="Helvetica,sans-Serif" font-size="10.00">include/Butcher/butcher.h</text>
</a>
</g>
</g>
<!-- Node2&#45;&gt;Node3 -->
<g id="edge2" class="edge">
<title>Node2&#45;&gt;Node3</title>
<path fill="none" stroke="midnightblue" d="M438.3,-316.4C430.07,-306.41 420.83,-295.18 414.63,-287.66"/>
<polygon fill="midnightblue" stroke="midnightblue" points="435.83,-318.9 444.89,-324.4 441.23,-314.46 435.83,-318.9"/>
</g>
<!-- Node9 -->
<g id="node9" class="node">
<title>Node9</title>
<g id="a_node9"><a xlink:href="network__butcher_8h.html" target="_top" xlink:title=" ">
<polygon fill="white" stroke="black" points="414,-56.5 414,-75.5 559,-75.5 559,-56.5 414,-56.5"/>
<text text-anchor="middle" x="486.5" y="-63.5" font-family="Helvetica,sans-Serif" font-size="10.00">include/network_butcher.h</text>
</a>
</g>
</g>
<!-- Node2&#45;&gt;Node9 -->
<g id="edge15" class="edge">
<title>Node2&#45;&gt;Node9</title>
<path fill="none" stroke="midnightblue" d="M472.71,-315.82C477.94,-307.45 483.22,-297.64 486.5,-288 511.76,-213.63 515.85,-189.4 502.5,-112 500.24,-98.93 494.56,-84.62 490.61,-75.72"/>
<polygon fill="midnightblue" stroke="midnightblue" points="469.72,-313.99 467.16,-324.27 475.57,-317.84 469.72,-313.99"/>
</g>
<!-- Node4 -->
<g id="node4" class="node">
<title>Node4</title>
<g id="a_node4"><a xlink:href="onnx__importer__helpers_8h.html" target="_top" xlink:title=" ">
<polygon fill="white" stroke="black" points="315,-196 315,-226 456,-226 456,-196 315,-196"/>
<text text-anchor="start" x="323" y="-214" font-family="Helvetica,sans-Serif" font-size="10.00">include/IO_Interaction</text>
<text text-anchor="middle" x="385.5" y="-203" font-family="Helvetica,sans-Serif" font-size="10.00">/onnx_importer_helpers.h</text>
</a>
</g>
</g>
<!-- Node3&#45;&gt;Node4 -->
<g id="edge3" class="edge">
<title>Node3&#45;&gt;Node4</title>
<path fill="none" stroke="midnightblue" d="M401.26,-258.56C397.77,-248.25 393.49,-235.6 390.27,-226.09"/>
<polygon fill="midnightblue" stroke="midnightblue" points="398.01,-259.88 404.53,-268.23 404.64,-257.64 398.01,-259.88"/>
</g>
<!-- Node3&#45;&gt;Node9 -->
<g id="edge14" class="edge">
<title>Node3&#45;&gt;Node9</title>
<path fill="none" stroke="midnightblue" d="M433.41,-263.24C445.15,-255.63 458.05,-245.05 465.5,-232 495.71,-179.09 490.39,-101.31 487.58,-75.6"/>
<polygon fill="midnightblue" stroke="midnightblue" points="431.51,-260.3 424.77,-268.48 435.13,-266.29 431.51,-260.3"/>
</g>
<!-- Node12 -->
<g id="node12" class="node">
<title>Node12</title>
<g id="a_node12"><a xlink:href="onnx__model__reconstructor__helpers_8h.html" target="_top" xlink:title=" ">
<polygon fill="white" stroke="black" points="148,-190.5 148,-231.5 297,-231.5 297,-190.5 148,-190.5"/>
<text text-anchor="start" x="156" y="-219.5" font-family="Helvetica,sans-Serif" font-size="10.00">include/IO_Interaction</text>
<text text-anchor="start" x="156" y="-208.5" font-family="Helvetica,sans-Serif" font-size="10.00">/onnx_model_reconstructor</text>
<text text-anchor="middle" x="222.5" y="-197.5" font-family="Helvetica,sans-Serif" font-size="10.00">_helpers.h</text>
</a>
</g>
</g>
<!-- Node3&#45;&gt;Node12 -->
<g id="edge11" class="edge">
<title>Node3&#45;&gt;Node12</title>
<path fill="none" stroke="midnightblue" d="M373.31,-264.99C346.72,-255.65 309.28,-242.49 278.36,-231.63"/>
<polygon fill="midnightblue" stroke="midnightblue" points="372.34,-268.36 382.93,-268.37 374.66,-261.75 372.34,-268.36"/>
</g>
<!-- Node5 -->
<g id="node5" class="node">
<title>Node5</title>
<g id="a_node5"><a xlink:href="io__manager_8h.html" target="_top" xlink:title=" ">
<polygon fill="white" stroke="black" points="167,-123.5 167,-142.5 288,-142.5 288,-123.5 167,-123.5"/>
<text text-anchor="middle" x="227.5" y="-130.5" font-family="Helvetica,sans-Serif" font-size="10.00">include/io_manager.h</text>
</a>
</g>
</g>
<!-- Node4&#45;&gt;Node5 -->
<g id="edge4" class="edge">
<title>Node4&#45;&gt;Node5</title>
<path fill="none" stroke="midnightblue" d="M346.97,-191.47C314.64,-175.92 269.93,-154.41 245.39,-142.61"/>
<polygon fill="midnightblue" stroke="midnightblue" points="345.62,-194.7 356.15,-195.88 348.66,-188.39 345.62,-194.7"/>
</g>
<!-- Node11 -->
<g id="node11" class="node">
<title>Node11</title>
<g id="a_node11"><a xlink:href="onnx__importer__helpers_8cpp.html" target="_top" xlink:title=" ">
<polygon fill="white" stroke="black" points="306.5,-118 306.5,-148 458.5,-148 458.5,-118 306.5,-118"/>
<text text-anchor="start" x="314.5" y="-136" font-family="Helvetica,sans-Serif" font-size="10.00">src/IO_Interaction</text>
<text text-anchor="middle" x="382.5" y="-125" font-family="Helvetica,sans-Serif" font-size="10.00">/onnx_importer_helpers.cpp</text>
</a>
</g>
</g>
<!-- Node4&#45;&gt;Node11 -->
<g id="edge10" class="edge">
<title>Node4&#45;&gt;Node11</title>
<path fill="none" stroke="midnightblue" d="M384.54,-185.59C384.05,-173.26 383.48,-158.72 383.06,-148.23"/>
<polygon fill="midnightblue" stroke="midnightblue" points="381.04,-185.85 384.94,-195.7 388.04,-185.57 381.04,-185.85"/>
</g>
<!-- Node6 -->
<g id="node6" class="node">
<title>Node6</title>
<g id="a_node6"><a xlink:href="general__manager_8h.html" target="_top" xlink:title=" ">
<polygon fill="white" stroke="black" points="62,-56.5 62,-75.5 211,-75.5 211,-56.5 62,-56.5"/>
<text text-anchor="middle" x="136.5" y="-63.5" font-family="Helvetica,sans-Serif" font-size="10.00">include/general_manager.h</text>
</a>
</g>
</g>
<!-- Node5&#45;&gt;Node6 -->
<g id="edge5" class="edge">
<title>Node5&#45;&gt;Node6</title>
<path fill="none" stroke="midnightblue" d="M207.09,-117.42C189.1,-104.57 163.49,-86.28 148.58,-75.63"/>
<polygon fill="midnightblue" stroke="midnightblue" points="205.06,-120.27 215.23,-123.23 209.12,-114.57 205.06,-120.27"/>
</g>
<!-- Node5&#45;&gt;Node9 -->
<g id="edge8" class="edge">
<title>Node5&#45;&gt;Node9</title>
<path fill="none" stroke="midnightblue" d="M266.2,-120.61C276.36,-117.71 287.32,-114.66 297.5,-112 349.55,-98.38 410.1,-84.26 448.37,-75.55"/>
<polygon fill="midnightblue" stroke="midnightblue" points="265.01,-117.31 256.37,-123.44 266.95,-124.04 265.01,-117.31"/>
</g>
<!-- Node10 -->
<g id="node10" class="node">
<title>Node10</title>
<g id="a_node10"><a xlink:href="io__manager_8cpp.html" target="_top" xlink:title=" ">
<polygon fill="white" stroke="black" points="229,-56.5 229,-75.5 340,-75.5 340,-56.5 229,-56.5"/>
<text text-anchor="middle" x="284.5" y="-63.5" font-family="Helvetica,sans-Serif" font-size="10.00">src/io_manager.cpp</text>
</a>
</g>
</g>
<!-- Node5&#45;&gt;Node10 -->
<g id="edge9" class="edge">
<title>Node5&#45;&gt;Node10</title>
<path fill="none" stroke="midnightblue" d="M241.85,-115.63C253,-102.92 268.02,-85.8 276.93,-75.63"/>
<polygon fill="midnightblue" stroke="midnightblue" points="239.15,-113.41 235.19,-123.23 244.41,-118.02 239.15,-113.41"/>
</g>
<!-- Node7 -->
<g id="node7" class="node">
<title>Node7</title>
<g id="a_node7"><a xlink:href="general__manager_8cpp.html" target="_top" xlink:title=" ">
<polygon fill="white" stroke="black" points="4,-0.5 4,-19.5 143,-19.5 143,-0.5 4,-0.5"/>
<text text-anchor="middle" x="73.5" y="-7.5" font-family="Helvetica,sans-Serif" font-size="10.00">src/general_manager.cpp</text>
</a>
</g>
</g>
<!-- Node6&#45;&gt;Node7 -->
<g id="edge6" class="edge">
<title>Node6&#45;&gt;Node7</title>
<path fill="none" stroke="midnightblue" d="M118.46,-49.54C107.23,-39.91 93.18,-27.87 83.81,-19.83"/>
<polygon fill="midnightblue" stroke="midnightblue" points="116.51,-52.47 126.38,-56.32 121.06,-47.16 116.51,-52.47"/>
</g>
<!-- Node8 -->
<g id="node8" class="node">
<title>Node8</title>
<g id="a_node8"><a xlink:href="main_8cpp.html" target="_top" xlink:title=" ">
<polygon fill="white" stroke="black" points="161,-0.5 161,-19.5 240,-19.5 240,-0.5 161,-0.5"/>
<text text-anchor="middle" x="200.5" y="-7.5" font-family="Helvetica,sans-Serif" font-size="10.00">src/main.cpp</text>
</a>
</g>
</g>
<!-- Node6&#45;&gt;Node8 -->
<g id="edge7" class="edge">
<title>Node6&#45;&gt;Node8</title>
<path fill="none" stroke="midnightblue" d="M154.49,-49.82C165.96,-40.15 180.41,-27.95 190.03,-19.83"/>
<polygon fill="midnightblue" stroke="midnightblue" points="152.17,-47.2 146.78,-56.32 156.68,-52.55 152.17,-47.2"/>
</g>
<!-- Node12&#45;&gt;Node5 -->
<g id="edge12" class="edge">
<title>Node12&#45;&gt;Node5</title>
<path fill="none" stroke="midnightblue" d="M224.47,-180.05C225.36,-166.56 226.34,-151.65 226.94,-142.55"/>
<polygon fill="midnightblue" stroke="midnightblue" points="220.95,-180.22 223.79,-190.43 227.94,-180.68 220.95,-180.22"/>
</g>
<!-- Node13 -->
<g id="node13" class="node">
<title>Node13</title>
<g id="a_node13"><a xlink:href="onnx__model__reconstructor__helpers_8cpp.html" target="_top" xlink:title=" ">
<polygon fill="white" stroke="black" points="0,-112.5 0,-153.5 149,-153.5 149,-112.5 0,-112.5"/>
<text text-anchor="start" x="8" y="-141.5" font-family="Helvetica,sans-Serif" font-size="10.00">src/IO_Interaction</text>
<text text-anchor="start" x="8" y="-130.5" font-family="Helvetica,sans-Serif" font-size="10.00">/onnx_model_reconstructor</text>
<text text-anchor="middle" x="74.5" y="-119.5" font-family="Helvetica,sans-Serif" font-size="10.00">_helpers.cpp</text>
</a>
</g>
</g>
<!-- Node12&#45;&gt;Node13 -->
<g id="edge13" class="edge">
<title>Node12&#45;&gt;Node13</title>
<path fill="none" stroke="midnightblue" d="M175.31,-185.77C155.02,-175.35 131.63,-163.34 112.48,-153.51"/>
<polygon fill="midnightblue" stroke="midnightblue" points="173.89,-188.97 184.39,-190.43 177.09,-182.75 173.89,-188.97"/>
</g>
</g>
</svg>
