<?xml version="1.0" encoding="UTF-8" standalone="no"?>
<!DOCTYPE svg PUBLIC "-//W3C//DTD SVG 1.1//EN"
 "http://www.w3.org/Graphics/SVG/1.1/DTD/svg11.dtd">
<!-- Generated by graphviz version 2.43.0 (0)
 -->
<!-- Title: include/K&#45;shortest_path/kfinder_factory.h Pages: 1 -->
<!--zoomable 487 -->
<svg id="main" version="1.1" xmlns="http://www.w3.org/2000/svg" xmlns:xlink="http://www.w3.org/1999/xlink" xml:space="preserve" onload="init(evt)">
<style type="text/css"><![CDATA[
.edge:hover path { stroke: red; }
.edge:hover polygon { stroke: red; fill: red; }
]]></style>
<script type="text/javascript"><![CDATA[
var edges = document.getElementsByTagName('g');
if (edges && edges.length) {
  for (var i=0;i<edges.length;i++) {
    if (edges[i].id.substr(0,4)=='edge') {
      edges[i].setAttribute('class','edge');
    }
  }
}
]]></script>
        <defs>
                <circle id="rim" cx="0" cy="0" r="7"/>
                <circle id="rim2" cx="0" cy="0" r="3.5"/>
                <g id="zoomPlus">
                        <use xlink:href="#rim" fill="#404040">
                                <set attributeName="fill" to="#808080" begin="zoomplus.mouseover" end="zoomplus.mouseout"/>
                        </use>
                        <path d="M-4,0h8M0,-4v8" fill="none" stroke="white" stroke-width="1.5" pointer-events="none"/>
                </g>
                <g id="zoomMin">
                        <use xlink:href="#rim" fill="#404040">
                                <set attributeName="fill" to="#808080" begin="zoomminus.mouseover" end="zoomminus.mouseout"/>
                        </use>
                        <path d="M-4,0h8" fill="none" stroke="white" stroke-width="1.5" pointer-events="none"/>
                </g>
                <g id="dirArrow">
                        <path fill="none" stroke="white" stroke-width="1.5" d="M0,-3.0v7 M-2.5,-0.5L0,-3.0L2.5,-0.5"/>
                </g>
               <g id="resetDef">
                       <use xlink:href="#rim2" fill="#404040">
                               <set attributeName="fill" to="#808080" begin="reset.mouseover" end="reset.mouseout"/>
                       </use>
               </g>
        </defs>

<script type="text/javascript">
var viewWidth = 1069;
var viewHeight = 487;
var sectionId = 'dynsection-0';
</script>
<script xlink:href="svgpan.js"/>
<svg id="graph" class="graph">
<g id="viewport">
<title>include/K&#45;shortest_path/kfinder_factory.h</title>
<polygon fill="white" stroke="transparent" points="-4,4 -4,-483 1064.5,-483 1064.5,4 -4,4"/>
<!-- Node1 -->
<g id="node1" class="node">
<title>Node1</title>
<g id="a_node1"><a xlink:title=" ">
<polygon fill="#bfbfbf" stroke="black" points="559.5,-448.5 559.5,-478.5 687.5,-478.5 687.5,-448.5 559.5,-448.5"/>
<text text-anchor="start" x="567.5" y="-466.5" font-family="Helvetica,sans-Serif" font-size="10.00">include/K&#45;shortest</text>
<text text-anchor="middle" x="623.5" y="-455.5" font-family="Helvetica,sans-Serif" font-size="10.00">_path/kfinder_factory.h</text>
</a>
</g>
</g>
<!-- Node2 -->
<g id="node2" class="node">
<title>Node2</title>
<g id="a_node2"><a xlink:href="Factory_8h.html" target="_top" xlink:title=" ">
<polygon fill="white" stroke="black" points="201,-112.5 201,-131.5 260,-131.5 260,-112.5 201,-112.5"/>
<text text-anchor="middle" x="230.5" y="-119.5" font-family="Helvetica,sans-Serif" font-size="10.00">Factory.h</text>
</a>
</g>
</g>
<!-- Node1&#45;&gt;Node2 -->
<g id="edge1" class="edge">
<title>Node1&#45;&gt;Node2</title>
<path fill="none" stroke="midnightblue" d="M559.27,-457.16C446.91,-446.02 226.5,-415.46 226.5,-347 226.5,-347 226.5,-347 226.5,-233 226.5,-200.93 228.22,-163.63 229.4,-141.74"/>
<polygon fill="midnightblue" stroke="midnightblue" points="232.91,-141.73 229.98,-131.55 225.92,-141.34 232.91,-141.73"/>
</g>
<!-- Node10 -->
<g id="node10" class="node">
<title>Node10</title>
<g id="a_node10"><a xlink:href="ksp__method_8h.html" target="_top" xlink:title=" ">
<polygon fill="white" stroke="black" points="742.5,-392.5 742.5,-411.5 828.5,-411.5 828.5,-392.5 742.5,-392.5"/>
<text text-anchor="middle" x="785.5" y="-399.5" font-family="Helvetica,sans-Serif" font-size="10.00">ksp_method.h</text>
</a>
</g>
</g>
<!-- Node1&#45;&gt;Node10 -->
<g id="edge9" class="edge">
<title>Node1&#45;&gt;Node10</title>
<path fill="none" stroke="midnightblue" d="M661.89,-448.4C689.44,-438.28 726.17,-424.79 752.42,-415.15"/>
<polygon fill="midnightblue" stroke="midnightblue" points="753.75,-418.39 761.93,-411.66 751.33,-411.82 753.75,-418.39"/>
</g>
<!-- Node11 -->
<g id="node11" class="node">
<title>Node11</title>
<g id="a_node11"><a xlink:href="keppstein_8h.html" target="_top" xlink:title=" ">
<polygon fill="white" stroke="black" points="536,-392.5 536,-411.5 609,-411.5 609,-392.5 536,-392.5"/>
<text text-anchor="middle" x="572.5" y="-399.5" font-family="Helvetica,sans-Serif" font-size="10.00">keppstein.h</text>
</a>
</g>
</g>
<!-- Node1&#45;&gt;Node11 -->
<g id="edge10" class="edge">
<title>Node1&#45;&gt;Node11</title>
<path fill="none" stroke="midnightblue" d="M611.41,-448.4C603.93,-439.66 594.28,-428.41 586.47,-419.3"/>
<polygon fill="midnightblue" stroke="midnightblue" points="589.09,-416.97 579.92,-411.66 583.77,-421.53 589.09,-416.97"/>
</g>
<!-- Node38 -->
<g id="node38" class="node">
<title>Node38</title>
<g id="a_node38"><a xlink:href="keppstein__lazy_8h.html" target="_top" xlink:title=" ">
<polygon fill="white" stroke="black" points="627,-392.5 627,-411.5 724,-411.5 724,-392.5 627,-392.5"/>
<text text-anchor="middle" x="675.5" y="-399.5" font-family="Helvetica,sans-Serif" font-size="10.00">keppstein_lazy.h</text>
</a>
</g>
</g>
<!-- Node1&#45;&gt;Node38 -->
<g id="edge56" class="edge">
<title>Node1&#45;&gt;Node38</title>
<path fill="none" stroke="midnightblue" d="M635.82,-448.4C643.46,-439.66 653.29,-428.41 661.26,-419.3"/>
<polygon fill="midnightblue" stroke="midnightblue" points="663.99,-421.49 667.93,-411.66 658.72,-416.88 663.99,-421.49"/>
</g>
<!-- Node3 -->
<g id="node3" class="node">
<title>Node3</title>
<g id="a_node3"><a xlink:title=" ">
<polygon fill="white" stroke="#bfbfbf" points="283,-56.5 283,-75.5 348,-75.5 348,-56.5 283,-56.5"/>
<text text-anchor="middle" x="315.5" y="-63.5" font-family="Helvetica,sans-Serif" font-size="10.00">functional</text>
</a>
</g>
</g>
<!-- Node2&#45;&gt;Node3 -->
<g id="edge2" class="edge">
<title>Node2&#45;&gt;Node3</title>
<path fill="none" stroke="midnightblue" d="M244.16,-112.32C257.42,-103.9 277.77,-90.97 293.35,-81.07"/>
<polygon fill="midnightblue" stroke="midnightblue" points="295.31,-83.97 301.88,-75.65 291.56,-78.06 295.31,-83.97"/>
</g>
<!-- Node4 -->
<g id="node4" class="node">
<title>Node4</title>
<g id="a_node4"><a xlink:title=" ">
<polygon fill="white" stroke="#bfbfbf" points="423.5,-56.5 423.5,-75.5 461.5,-75.5 461.5,-56.5 423.5,-56.5"/>
<text text-anchor="middle" x="442.5" y="-63.5" font-family="Helvetica,sans-Serif" font-size="10.00">map</text>
</a>
</g>
</g>
<!-- Node2&#45;&gt;Node4 -->
<g id="edge3" class="edge">
<title>Node2&#45;&gt;Node4</title>
<path fill="none" stroke="midnightblue" d="M260.42,-113.38C301.16,-103 373.59,-84.55 413.72,-74.33"/>
<polygon fill="midnightblue" stroke="midnightblue" points="414.6,-77.72 423.43,-71.86 412.87,-70.94 414.6,-77.72"/>
</g>
<!-- Node5 -->
<g id="node5" class="node">
<title>Node5</title>
<g id="a_node5"><a xlink:title=" ">
<polygon fill="white" stroke="#bfbfbf" points="497.5,-56.5 497.5,-75.5 555.5,-75.5 555.5,-56.5 497.5,-56.5"/>
<text text-anchor="middle" x="526.5" y="-63.5" font-family="Helvetica,sans-Serif" font-size="10.00">memory</text>
</a>
</g>
</g>
<!-- Node2&#45;&gt;Node5 -->
<g id="edge4" class="edge">
<title>Node2&#45;&gt;Node5</title>
<path fill="none" stroke="midnightblue" d="M260.24,-115.58C314.01,-105.77 427.38,-85.08 487.37,-74.14"/>
<polygon fill="midnightblue" stroke="midnightblue" points="488.01,-77.58 497.22,-72.34 486.76,-70.69 488.01,-77.58"/>
</g>
<!-- Node6 -->
<g id="node6" class="node">
<title>Node6</title>
<g id="a_node6"><a xlink:title=" ">
<polygon fill="white" stroke="#bfbfbf" points="125.5,-56.5 125.5,-75.5 181.5,-75.5 181.5,-56.5 125.5,-56.5"/>
<text text-anchor="middle" x="153.5" y="-63.5" font-family="Helvetica,sans-Serif" font-size="10.00">sstream</text>
</a>
</g>
</g>
<!-- Node2&#45;&gt;Node6 -->
<g id="edge5" class="edge">
<title>Node2&#45;&gt;Node6</title>
<path fill="none" stroke="midnightblue" d="M218.13,-112.32C206.34,-104.06 188.37,-91.45 174.36,-81.63"/>
<polygon fill="midnightblue" stroke="midnightblue" points="176.04,-78.53 165.84,-75.65 172.02,-84.26 176.04,-78.53"/>
</g>
<!-- Node7 -->
<g id="node7" class="node">
<title>Node7</title>
<g id="a_node7"><a xlink:title=" ">
<polygon fill="white" stroke="#bfbfbf" points="200,-56.5 200,-75.5 265,-75.5 265,-56.5 200,-56.5"/>
<text text-anchor="middle" x="232.5" y="-63.5" font-family="Helvetica,sans-Serif" font-size="10.00">stdexcept</text>
</a>
</g>
</g>
<!-- Node2&#45;&gt;Node7 -->
<g id="edge6" class="edge">
<title>Node2&#45;&gt;Node7</title>
<path fill="none" stroke="midnightblue" d="M230.83,-112.08C231.09,-105.01 231.47,-94.86 231.8,-85.99"/>
<polygon fill="midnightblue" stroke="midnightblue" points="235.3,-85.87 232.18,-75.75 228.31,-85.61 235.3,-85.87"/>
</g>
<!-- Node8 -->
<g id="node8" class="node">
<title>Node8</title>
<g id="a_node8"><a xlink:title=" ">
<polygon fill="white" stroke="#bfbfbf" points="0,-56.5 0,-75.5 69,-75.5 69,-56.5 0,-56.5"/>
<text text-anchor="middle" x="34.5" y="-63.5" font-family="Helvetica,sans-Serif" font-size="10.00">type_traits</text>
</a>
</g>
</g>
<!-- Node2&#45;&gt;Node8 -->
<g id="edge7" class="edge">
<title>Node2&#45;&gt;Node8</title>
<path fill="none" stroke="midnightblue" d="M200.73,-112.8C167.35,-103.6 113.01,-88.63 75.59,-78.32"/>
<polygon fill="midnightblue" stroke="midnightblue" points="76.09,-74.83 65.52,-75.55 74.23,-81.58 76.09,-74.83"/>
</g>
<!-- Node9 -->
<g id="node9" class="node">
<title>Node9</title>
<g id="a_node9"><a xlink:title=" ">
<polygon fill="white" stroke="#bfbfbf" points="353,-0.5 353,-19.5 400,-19.5 400,-0.5 353,-0.5"/>
<text text-anchor="middle" x="376.5" y="-7.5" font-family="Helvetica,sans-Serif" font-size="10.00">vector</text>
</a>
</g>
</g>
<!-- Node2&#45;&gt;Node9 -->
<g id="edge8" class="edge">
<title>Node2&#45;&gt;Node9</title>
<path fill="none" stroke="midnightblue" d="M200.74,-115.8C158.68,-107.19 89.8,-87.72 116.5,-56 145.02,-22.13 278.73,-13.75 342.5,-11.68"/>
<polygon fill="midnightblue" stroke="midnightblue" points="342.93,-15.17 352.83,-11.38 342.73,-8.17 342.93,-15.17"/>
</g>
<!-- Node12 -->
<g id="node12" class="node">
<title>Node12</title>
<g id="a_node12"><a xlink:title=" ">
<polygon fill="white" stroke="#bfbfbf" points="404.5,-112.5 404.5,-131.5 436.5,-131.5 436.5,-112.5 404.5,-112.5"/>
<text text-anchor="middle" x="420.5" y="-119.5" font-family="Helvetica,sans-Serif" font-size="10.00">list</text>
</a>
</g>
</g>
<!-- Node11&#45;&gt;Node12 -->
<g id="edge11" class="edge">
<title>Node11&#45;&gt;Node12</title>
<path fill="none" stroke="midnightblue" d="M535.96,-395.85C454.37,-383.33 264.5,-348.06 264.5,-291 264.5,-291 264.5,-291 264.5,-233 264.5,-170.11 350.24,-140.01 394.59,-128.65"/>
<polygon fill="midnightblue" stroke="midnightblue" points="395.5,-132.03 404.39,-126.27 393.85,-125.23 395.5,-132.03"/>
</g>
<!-- Node13 -->
<g id="node13" class="node">
<title>Node13</title>
<g id="a_node13"><a xlink:href="basic__keppstein_8h.html" target="_top" xlink:title=" ">
<polygon fill="white" stroke="black" points="623.5,-336.5 623.5,-355.5 727.5,-355.5 727.5,-336.5 623.5,-336.5"/>
<text text-anchor="middle" x="675.5" y="-343.5" font-family="Helvetica,sans-Serif" font-size="10.00">basic_keppstein.h</text>
</a>
</g>
</g>
<!-- Node11&#45;&gt;Node13 -->
<g id="edge12" class="edge">
<title>Node11&#45;&gt;Node13</title>
<path fill="none" stroke="midnightblue" d="M589.05,-392.32C605.49,-383.7 630.93,-370.36 649.97,-360.39"/>
<polygon fill="midnightblue" stroke="midnightblue" points="651.76,-363.4 658.99,-355.65 648.51,-357.2 651.76,-363.4"/>
</g>
<!-- Node23 -->
<g id="node23" class="node">
<title>Node23</title>
<g id="a_node23"><a xlink:href="traits_8h.html" target="_top" xlink:title=" ">
<polygon fill="white" stroke="black" points="794,-112.5 794,-131.5 845,-131.5 845,-112.5 794,-112.5"/>
<text text-anchor="middle" x="819.5" y="-119.5" font-family="Helvetica,sans-Serif" font-size="10.00">traits.h</text>
</a>
</g>
</g>
<!-- Node11&#45;&gt;Node23 -->
<g id="edge54" class="edge">
<title>Node11&#45;&gt;Node23</title>
<path fill="none" stroke="midnightblue" d="M570.4,-392.27C565.85,-371.16 557.16,-316.41 579.5,-280 582.73,-274.74 669.96,-226.73 675.5,-224 713.4,-205.31 729.21,-212.69 763.5,-188 781.75,-174.86 797.94,-154.62 808.17,-140.22"/>
<polygon fill="midnightblue" stroke="midnightblue" points="811.22,-141.96 813.98,-131.73 805.44,-138 811.22,-141.96"/>
</g>
<!-- Node30 -->
<g id="node30" class="node">
<title>Node30</title>
<g id="a_node30"><a xlink:href="weighted__graph_8h.html" target="_top" xlink:title=" ">
<polygon fill="white" stroke="black" points="874.5,-168.5 874.5,-187.5 978.5,-187.5 978.5,-168.5 874.5,-168.5"/>
<text text-anchor="middle" x="926.5" y="-175.5" font-family="Helvetica,sans-Serif" font-size="10.00">weighted_graph.h</text>
</a>
</g>
</g>
<!-- Node11&#45;&gt;Node30 -->
<g id="edge55" class="edge">
<title>Node11&#45;&gt;Node30</title>
<path fill="none" stroke="midnightblue" d="M607.53,-392.5C691.86,-371.83 901.12,-319.23 927.5,-300 958.02,-277.75 978.7,-259.38 965.5,-224 961.33,-212.81 952.98,-202.56 945.08,-194.68"/>
<polygon fill="midnightblue" stroke="midnightblue" points="947.2,-191.87 937.49,-187.63 942.44,-197 947.2,-191.87"/>
</g>
<!-- Node13&#45;&gt;Node3 -->
<g id="edge13" class="edge">
<title>Node13&#45;&gt;Node3</title>
<path fill="none" stroke="midnightblue" d="M623.22,-343.07C542.14,-339.22 390.67,-328.38 345.5,-300 316.17,-281.57 302.5,-269.64 302.5,-235 302.5,-235 302.5,-235 302.5,-177 302.5,-144.58 308.14,-107.15 311.99,-85.37"/>
<polygon fill="midnightblue" stroke="midnightblue" points="315.43,-85.99 313.8,-75.52 308.55,-84.72 315.43,-85.99"/>
</g>
<!-- Node13&#45;&gt;Node12 -->
<g id="edge14" class="edge">
<title>Node13&#45;&gt;Node12</title>
<path fill="none" stroke="midnightblue" d="M623.49,-345.47C542.75,-344.96 393.05,-338.66 359.5,-300 317.67,-251.79 375.9,-173.4 405.3,-139.49"/>
<polygon fill="midnightblue" stroke="midnightblue" points="408.04,-141.68 412.07,-131.88 402.81,-137.02 408.04,-141.68"/>
</g>
<!-- Node14 -->
<g id="node14" class="node">
<title>Node14</title>
<g id="a_node14"><a xlink:title=" ">
<polygon fill="white" stroke="#bfbfbf" points="588.5,-280.5 588.5,-299.5 644.5,-299.5 644.5,-280.5 588.5,-280.5"/>
<text text-anchor="middle" x="616.5" y="-287.5" font-family="Helvetica,sans-Serif" font-size="10.00">optional</text>
</a>
</g>
</g>
<!-- Node13&#45;&gt;Node14 -->
<g id="edge15" class="edge">
<title>Node13&#45;&gt;Node14</title>
<path fill="none" stroke="midnightblue" d="M666.02,-336.32C657.3,-328.34 644.16,-316.31 633.6,-306.65"/>
<polygon fill="midnightblue" stroke="midnightblue" points="635.89,-304 626.15,-299.83 631.17,-309.17 635.89,-304"/>
</g>
<!-- Node15 -->
<g id="node15" class="node">
<title>Node15</title>
<g id="a_node15"><a xlink:title=" ">
<polygon fill="white" stroke="#bfbfbf" points="662.5,-280.5 662.5,-299.5 712.5,-299.5 712.5,-280.5 662.5,-280.5"/>
<text text-anchor="middle" x="687.5" y="-287.5" font-family="Helvetica,sans-Serif" font-size="10.00">ranges</text>
</a>
</g>
</g>
<!-- Node13&#45;&gt;Node15 -->
<g id="edge16" class="edge">
<title>Node13&#45;&gt;Node15</title>
<path fill="none" stroke="midnightblue" d="M677.48,-336.08C679.07,-328.93 681.36,-318.64 683.35,-309.69"/>
<polygon fill="midnightblue" stroke="midnightblue" points="686.8,-310.27 685.56,-299.75 679.97,-308.75 686.8,-310.27"/>
</g>
<!-- Node16 -->
<g id="node16" class="node">
<title>Node16</title>
<g id="a_node16"><a xlink:title=" ">
<polygon fill="white" stroke="#bfbfbf" points="731,-280.5 731,-299.5 782,-299.5 782,-280.5 731,-280.5"/>
<text text-anchor="middle" x="756.5" y="-287.5" font-family="Helvetica,sans-Serif" font-size="10.00">variant</text>
</a>
</g>
</g>
<!-- Node13&#45;&gt;Node16 -->
<g id="edge17" class="edge">
<title>Node13&#45;&gt;Node16</title>
<path fill="none" stroke="midnightblue" d="M688.51,-336.32C701.03,-327.98 720.18,-315.21 734.97,-305.35"/>
<polygon fill="midnightblue" stroke="midnightblue" points="737.14,-308.11 743.52,-299.65 733.26,-302.29 737.14,-308.11"/>
</g>
<!-- Node17 -->
<g id="node17" class="node">
<title>Node17</title>
<g id="a_node17"><a xlink:href="heap__traits_8h.html" target="_top" xlink:title=" ">
<polygon fill="white" stroke="black" points="548.5,-224.5 548.5,-243.5 628.5,-243.5 628.5,-224.5 548.5,-224.5"/>
<text text-anchor="middle" x="588.5" y="-231.5" font-family="Helvetica,sans-Serif" font-size="10.00">heap_traits.h</text>
</a>
</g>
</g>
<!-- Node13&#45;&gt;Node17 -->
<g id="edge18" class="edge">
<title>Node13&#45;&gt;Node17</title>
<path fill="none" stroke="midnightblue" d="M721.96,-336.42C763.11,-326.75 813.38,-308.54 790.5,-280 780.96,-268.1 695.2,-252.19 638.53,-242.82"/>
<polygon fill="midnightblue" stroke="midnightblue" points="639.1,-239.37 628.66,-241.21 637.97,-246.28 639.1,-239.37"/>
</g>
<!-- Node31 -->
<g id="node31" class="node">
<title>Node31</title>
<g id="a_node31"><a xlink:href="shortest__path__finder_8h.html" target="_top" xlink:title=" ">
<polygon fill="white" stroke="black" points="369,-280.5 369,-299.5 494,-299.5 494,-280.5 369,-280.5"/>
<text text-anchor="middle" x="431.5" y="-287.5" font-family="Helvetica,sans-Serif" font-size="10.00">shortest_path_finder.h</text>
</a>
</g>
</g>
<!-- Node13&#45;&gt;Node31 -->
<g id="edge42" class="edge">
<title>Node13&#45;&gt;Node31</title>
<path fill="none" stroke="midnightblue" d="M636.84,-336.44C594.36,-327.04 526.07,-311.93 480.03,-301.74"/>
<polygon fill="midnightblue" stroke="midnightblue" points="480.5,-298.26 469.98,-299.52 478.99,-305.09 480.5,-298.26"/>
</g>
<!-- Node33 -->
<g id="node33" class="node">
<title>Node33</title>
<g id="a_node33"><a xlink:href="chrono_8h.html" target="_top" xlink:title=" ">
<polygon fill="white" stroke="black" points="839,-280.5 839,-299.5 898,-299.5 898,-280.5 839,-280.5"/>
<text text-anchor="middle" x="868.5" y="-287.5" font-family="Helvetica,sans-Serif" font-size="10.00">chrono.h</text>
</a>
</g>
</g>
<!-- Node13&#45;&gt;Node33 -->
<g id="edge47" class="edge">
<title>Node13&#45;&gt;Node33</title>
<path fill="none" stroke="midnightblue" d="M706.08,-336.44C739.31,-327.15 792.51,-312.26 828.91,-302.08"/>
<polygon fill="midnightblue" stroke="midnightblue" points="830.01,-305.4 838.7,-299.34 828.12,-298.66 830.01,-305.4"/>
</g>
<!-- Node37 -->
<g id="node37" class="node">
<title>Node37</title>
<g id="a_node37"><a xlink:href="kfinder_8h.html" target="_top" xlink:title=" ">
<polygon fill="white" stroke="black" points="897,-224.5 897,-243.5 956,-243.5 956,-224.5 897,-224.5"/>
<text text-anchor="middle" x="926.5" y="-231.5" font-family="Helvetica,sans-Serif" font-size="10.00">kfinder.h</text>
</a>
</g>
</g>
<!-- Node13&#45;&gt;Node37 -->
<g id="edge51" class="edge">
<title>Node13&#45;&gt;Node37</title>
<path fill="none" stroke="midnightblue" d="M727.73,-341.13C787.87,-335.63 881.72,-323.49 907.5,-300 920.38,-288.26 924.71,-268.33 926.08,-253.62"/>
<polygon fill="midnightblue" stroke="midnightblue" points="929.58,-253.8 926.64,-243.62 922.59,-253.41 929.58,-253.8"/>
</g>
<!-- Node18 -->
<g id="node18" class="node">
<title>Node18</title>
<g id="a_node18"><a xlink:href="heap__eppstein_8h.html" target="_top" xlink:title=" ">
<polygon fill="white" stroke="black" points="540,-168.5 540,-187.5 637,-187.5 637,-168.5 540,-168.5"/>
<text text-anchor="middle" x="588.5" y="-175.5" font-family="Helvetica,sans-Serif" font-size="10.00">heap_eppstein.h</text>
</a>
</g>
</g>
<!-- Node17&#45;&gt;Node18 -->
<g id="edge19" class="edge">
<title>Node17&#45;&gt;Node18</title>
<path fill="none" stroke="midnightblue" d="M588.5,-224.08C588.5,-217.01 588.5,-206.86 588.5,-197.99"/>
<polygon fill="midnightblue" stroke="midnightblue" points="592,-197.75 588.5,-187.75 585,-197.75 592,-197.75"/>
</g>
<!-- Node17&#45;&gt;Node23 -->
<g id="edge39" class="edge">
<title>Node17&#45;&gt;Node23</title>
<path fill="none" stroke="midnightblue" d="M628.7,-224.67C658.89,-217.47 700.67,-205.44 734.5,-188 760.37,-174.66 786.42,-153.3 802.73,-138.74"/>
<polygon fill="midnightblue" stroke="midnightblue" points="805.29,-141.14 810.32,-131.82 800.57,-135.97 805.29,-141.14"/>
</g>
<!-- Node29 -->
<g id="node29" class="node">
<title>Node29</title>
<g id="a_node29"><a xlink:href="path__info_8h.html" target="_top" xlink:title=" ">
<polygon fill="white" stroke="black" points="655,-168.5 655,-187.5 726,-187.5 726,-168.5 655,-168.5"/>
<text text-anchor="middle" x="690.5" y="-175.5" font-family="Helvetica,sans-Serif" font-size="10.00">path_info.h</text>
</a>
</g>
</g>
<!-- Node17&#45;&gt;Node29 -->
<g id="edge36" class="edge">
<title>Node17&#45;&gt;Node29</title>
<path fill="none" stroke="midnightblue" d="M604.89,-224.32C621.17,-215.7 646.37,-202.36 665.22,-192.39"/>
<polygon fill="midnightblue" stroke="midnightblue" points="666.95,-195.43 674.15,-187.65 663.68,-189.24 666.95,-195.43"/>
</g>
<!-- Node17&#45;&gt;Node30 -->
<g id="edge40" class="edge">
<title>Node17&#45;&gt;Node30</title>
<path fill="none" stroke="midnightblue" d="M628.6,-226.59C686.82,-217.29 795.27,-199.97 864.02,-188.98"/>
<polygon fill="midnightblue" stroke="midnightblue" points="864.96,-192.38 874.28,-187.34 863.86,-185.46 864.96,-192.38"/>
</g>
<!-- Node18&#45;&gt;Node5 -->
<g id="edge22" class="edge">
<title>Node18&#45;&gt;Node5</title>
<path fill="none" stroke="midnightblue" d="M577.8,-168.45C568.05,-160.12 553.93,-146.6 545.5,-132 537.14,-117.52 532.21,-99.07 529.47,-85.53"/>
<polygon fill="midnightblue" stroke="midnightblue" points="532.88,-84.73 527.66,-75.51 525.99,-85.97 532.88,-84.73"/>
</g>
<!-- Node18&#45;&gt;Node12 -->
<g id="edge21" class="edge">
<title>Node18&#45;&gt;Node12</title>
<path fill="none" stroke="midnightblue" d="M560.17,-168.46C533.16,-160.23 491.14,-147.22 446.23,-132.15"/>
<polygon fill="midnightblue" stroke="midnightblue" points="447.2,-128.79 436.6,-128.91 444.96,-135.42 447.2,-128.79"/>
</g>
<!-- Node19 -->
<g id="node19" class="node">
<title>Node19</title>
<g id="a_node19"><a xlink:title=" ">
<polygon fill="white" stroke="#bfbfbf" points="454.5,-112.5 454.5,-131.5 498.5,-131.5 498.5,-112.5 454.5,-112.5"/>
<text text-anchor="middle" x="476.5" y="-119.5" font-family="Helvetica,sans-Serif" font-size="10.00">limits</text>
</a>
</g>
</g>
<!-- Node18&#45;&gt;Node19 -->
<g id="edge20" class="edge">
<title>Node18&#45;&gt;Node19</title>
<path fill="none" stroke="midnightblue" d="M570.51,-168.32C552.46,-159.62 524.45,-146.12 503.7,-136.11"/>
<polygon fill="midnightblue" stroke="midnightblue" points="504.98,-132.84 494.45,-131.65 501.94,-139.15 504.98,-132.84"/>
</g>
<!-- Node20 -->
<g id="node20" class="node">
<title>Node20</title>
<g id="a_node20"><a xlink:title=" ">
<polygon fill="white" stroke="#bfbfbf" points="555,-112.5 555,-131.5 600,-131.5 600,-112.5 555,-112.5"/>
<text text-anchor="middle" x="577.5" y="-119.5" font-family="Helvetica,sans-Serif" font-size="10.00">utility</text>
</a>
</g>
</g>
<!-- Node18&#45;&gt;Node20 -->
<g id="edge23" class="edge">
<title>Node18&#45;&gt;Node20</title>
<path fill="none" stroke="midnightblue" d="M586.68,-168.08C585.23,-160.93 583.13,-150.64 581.31,-141.69"/>
<polygon fill="midnightblue" stroke="midnightblue" points="584.71,-140.85 579.28,-131.75 577.85,-142.25 584.71,-140.85"/>
</g>
<!-- Node21 -->
<g id="node21" class="node">
<title>Node21</title>
<g id="a_node21"><a xlink:title=" ">
<polygon fill="white" stroke="#bfbfbf" points="618.5,-112.5 618.5,-131.5 674.5,-131.5 674.5,-112.5 618.5,-112.5"/>
<text text-anchor="middle" x="646.5" y="-119.5" font-family="Helvetica,sans-Serif" font-size="10.00">numeric</text>
</a>
</g>
</g>
<!-- Node18&#45;&gt;Node21 -->
<g id="edge24" class="edge">
<title>Node18&#45;&gt;Node21</title>
<path fill="none" stroke="midnightblue" d="M597.82,-168.32C606.39,-160.34 619.31,-148.31 629.69,-138.65"/>
<polygon fill="midnightblue" stroke="midnightblue" points="632.08,-141.21 637.01,-131.83 627.31,-136.09 632.08,-141.21"/>
</g>
<!-- Node22 -->
<g id="node22" class="node">
<title>Node22</title>
<g id="a_node22"><a xlink:href="crtp__greater_8h.html" target="_top" xlink:title=" ">
<polygon fill="white" stroke="black" points="692.5,-112.5 692.5,-131.5 776.5,-131.5 776.5,-112.5 692.5,-112.5"/>
<text text-anchor="middle" x="734.5" y="-119.5" font-family="Helvetica,sans-Serif" font-size="10.00">crtp_greater.h</text>
</a>
</g>
</g>
<!-- Node18&#45;&gt;Node22 -->
<g id="edge25" class="edge">
<title>Node18&#45;&gt;Node22</title>
<path fill="none" stroke="midnightblue" d="M611.63,-168.44C635.98,-159.44 674.51,-145.19 701.92,-135.05"/>
<polygon fill="midnightblue" stroke="midnightblue" points="703.31,-138.27 711.47,-131.52 700.88,-131.7 703.31,-138.27"/>
</g>
<!-- Node18&#45;&gt;Node23 -->
<g id="edge26" class="edge">
<title>Node18&#45;&gt;Node23</title>
<path fill="none" stroke="midnightblue" d="M627.84,-168.43C665.57,-160.12 724.39,-146.92 783.95,-132.33"/>
<polygon fill="midnightblue" stroke="midnightblue" points="785.03,-135.66 793.9,-129.88 783.36,-128.87 785.03,-135.66"/>
</g>
<!-- Node23&#45;&gt;Node4 -->
<g id="edge28" class="edge">
<title>Node23&#45;&gt;Node4</title>
<path fill="none" stroke="midnightblue" d="M793.97,-113.84C791.12,-113.16 788.26,-112.53 785.5,-112 654.92,-86.93 619.83,-96.78 488.5,-76 483.11,-75.15 477.39,-74.12 471.88,-73.08"/>
<polygon fill="midnightblue" stroke="midnightblue" points="472.18,-69.57 461.69,-71.08 470.83,-76.44 472.18,-69.57"/>
</g>
<!-- Node23&#45;&gt;Node5 -->
<g id="edge29" class="edge">
<title>Node23&#45;&gt;Node5</title>
<path fill="none" stroke="midnightblue" d="M793.94,-113.98C791.1,-113.28 788.24,-112.6 785.5,-112 708.13,-95.07 616.63,-80.41 565.72,-72.73"/>
<polygon fill="midnightblue" stroke="midnightblue" points="566.2,-69.26 555.79,-71.24 565.16,-76.19 566.2,-69.26"/>
</g>
<!-- Node24 -->
<g id="node24" class="node">
<title>Node24</title>
<g id="a_node24"><a xlink:title=" ">
<polygon fill="white" stroke="#bfbfbf" points="803.5,-56.5 803.5,-75.5 835.5,-75.5 835.5,-56.5 803.5,-56.5"/>
<text text-anchor="middle" x="819.5" y="-63.5" font-family="Helvetica,sans-Serif" font-size="10.00">set</text>
</a>
</g>
</g>
<!-- Node23&#45;&gt;Node24 -->
<g id="edge27" class="edge">
<title>Node23&#45;&gt;Node24</title>
<path fill="none" stroke="midnightblue" d="M819.5,-112.08C819.5,-105.01 819.5,-94.86 819.5,-85.99"/>
<polygon fill="midnightblue" stroke="midnightblue" points="823,-85.75 819.5,-75.75 816,-85.75 823,-85.75"/>
</g>
<!-- Node25 -->
<g id="node25" class="node">
<title>Node25</title>
<g id="a_node25"><a xlink:href="starting__traits_8h.html" target="_top" xlink:title=" ">
<polygon fill="white" stroke="black" points="728.5,-0.5 728.5,-19.5 822.5,-19.5 822.5,-0.5 728.5,-0.5"/>
<text text-anchor="middle" x="775.5" y="-7.5" font-family="Helvetica,sans-Serif" font-size="10.00">starting_traits.h</text>
</a>
</g>
</g>
<!-- Node23&#45;&gt;Node25 -->
<g id="edge30" class="edge">
<title>Node23&#45;&gt;Node25</title>
<path fill="none" stroke="midnightblue" d="M813.92,-112.33C808.4,-103.47 800.01,-89.19 794.5,-76 788.13,-60.74 783.02,-42.64 779.72,-29.41"/>
<polygon fill="midnightblue" stroke="midnightblue" points="783.1,-28.53 777.37,-19.62 776.3,-30.16 783.1,-28.53"/>
</g>
<!-- Node26 -->
<g id="node26" class="node">
<title>Node26</title>
<g id="a_node26"><a xlink:title=" ">
<polygon fill="white" stroke="#bfbfbf" points="854,-56.5 854,-75.5 919,-75.5 919,-56.5 854,-56.5"/>
<text text-anchor="middle" x="886.5" y="-63.5" font-family="Helvetica,sans-Serif" font-size="10.00">onnx.pb.h</text>
</a>
</g>
</g>
<!-- Node23&#45;&gt;Node26 -->
<g id="edge31" class="edge">
<title>Node23&#45;&gt;Node26</title>
<path fill="none" stroke="midnightblue" d="M830.26,-112.32C840.27,-104.26 855.39,-92.08 867.43,-82.37"/>
<polygon fill="midnightblue" stroke="midnightblue" points="869.95,-84.83 875.54,-75.83 865.56,-79.38 869.95,-84.83"/>
</g>
<!-- Node27 -->
<g id="node27" class="node">
<title>Node27</title>
<g id="a_node27"><a xlink:href="type__info_8h.html" target="_top" xlink:title=" ">
<polygon fill="white" stroke="black" points="665,-56.5 665,-75.5 736,-75.5 736,-56.5 665,-56.5"/>
<text text-anchor="middle" x="700.5" y="-63.5" font-family="Helvetica,sans-Serif" font-size="10.00">type_info.h</text>
</a>
</g>
</g>
<!-- Node23&#45;&gt;Node27 -->
<g id="edge32" class="edge">
<title>Node23&#45;&gt;Node27</title>
<path fill="none" stroke="midnightblue" d="M800.64,-112.44C781.23,-103.64 750.77,-89.81 728.54,-79.72"/>
<polygon fill="midnightblue" stroke="midnightblue" points="729.82,-76.46 719.27,-75.52 726.93,-82.84 729.82,-76.46"/>
</g>
<!-- Node27&#45;&gt;Node9 -->
<g id="edge34" class="edge">
<title>Node27&#45;&gt;Node9</title>
<path fill="none" stroke="midnightblue" d="M664.9,-59.07C601.96,-48.58 471.89,-26.9 410.28,-16.63"/>
<polygon fill="midnightblue" stroke="midnightblue" points="410.74,-13.16 400.3,-14.97 409.59,-20.06 410.74,-13.16"/>
</g>
<!-- Node27&#45;&gt;Node25 -->
<g id="edge35" class="edge">
<title>Node27&#45;&gt;Node25</title>
<path fill="none" stroke="midnightblue" d="M712.55,-56.32C723.96,-48.11 741.33,-35.6 754.93,-25.81"/>
<polygon fill="midnightblue" stroke="midnightblue" points="757.16,-28.52 763.23,-19.83 753.07,-22.84 757.16,-28.52"/>
</g>
<!-- Node28 -->
<g id="node28" class="node">
<title>Node28</title>
<g id="a_node28"><a xlink:title=" ">
<polygon fill="white" stroke="#bfbfbf" points="666.5,-0.5 666.5,-19.5 710.5,-19.5 710.5,-0.5 666.5,-0.5"/>
<text text-anchor="middle" x="688.5" y="-7.5" font-family="Helvetica,sans-Serif" font-size="10.00">string</text>
</a>
</g>
</g>
<!-- Node27&#45;&gt;Node28 -->
<g id="edge33" class="edge">
<title>Node27&#45;&gt;Node28</title>
<path fill="none" stroke="midnightblue" d="M698.52,-56.08C696.93,-48.93 694.64,-38.64 692.65,-29.69"/>
<polygon fill="midnightblue" stroke="midnightblue" points="696.03,-28.75 690.44,-19.75 689.2,-30.27 696.03,-28.75"/>
</g>
<!-- Node29&#45;&gt;Node22 -->
<g id="edge37" class="edge">
<title>Node29&#45;&gt;Node22</title>
<path fill="none" stroke="midnightblue" d="M697.77,-168.08C704.04,-160.38 713.29,-149.03 720.93,-139.65"/>
<polygon fill="midnightblue" stroke="midnightblue" points="723.77,-141.71 727.37,-131.75 718.34,-137.29 723.77,-141.71"/>
</g>
<!-- Node29&#45;&gt;Node23 -->
<g id="edge38" class="edge">
<title>Node29&#45;&gt;Node23</title>
<path fill="none" stroke="midnightblue" d="M710.94,-168.44C732.17,-159.56 765.6,-145.56 789.75,-135.45"/>
<polygon fill="midnightblue" stroke="midnightblue" points="791.28,-138.61 799.16,-131.52 788.58,-132.15 791.28,-138.61"/>
</g>
<!-- Node30&#45;&gt;Node23 -->
<g id="edge41" class="edge">
<title>Node30&#45;&gt;Node23</title>
<path fill="none" stroke="midnightblue" d="M909.31,-168.32C892.15,-159.66 865.55,-146.24 845.75,-136.25"/>
<polygon fill="midnightblue" stroke="midnightblue" points="847.15,-133.04 836.65,-131.65 844,-139.28 847.15,-133.04"/>
</g>
<!-- Node31&#45;&gt;Node9 -->
<g id="edge46" class="edge">
<title>Node31&#45;&gt;Node9</title>
<path fill="none" stroke="midnightblue" d="M429.25,-280.19C423.24,-256.41 406.47,-188.84 395.5,-132 388.54,-95.93 382.32,-53.45 379.01,-29.63"/>
<polygon fill="midnightblue" stroke="midnightblue" points="382.46,-28.98 377.63,-19.54 375.52,-29.93 382.46,-28.98"/>
</g>
<!-- Node31&#45;&gt;Node17 -->
<g id="edge43" class="edge">
<title>Node31&#45;&gt;Node17</title>
<path fill="none" stroke="midnightblue" d="M456.38,-280.44C482.79,-271.36 524.72,-256.94 554.24,-246.78"/>
<polygon fill="midnightblue" stroke="midnightblue" points="555.42,-250.08 563.74,-243.52 553.14,-243.46 555.42,-250.08"/>
</g>
<!-- Node31&#45;&gt;Node19 -->
<g id="edge44" class="edge">
<title>Node31&#45;&gt;Node19</title>
<path fill="none" stroke="midnightblue" d="M431.16,-280.46C430.84,-267.92 430.99,-243.84 435.5,-224 442.43,-193.51 457.49,-160.31 467.3,-140.6"/>
<polygon fill="midnightblue" stroke="midnightblue" points="470.46,-142.1 471.88,-131.6 464.23,-138.93 470.46,-142.1"/>
</g>
<!-- Node32 -->
<g id="node32" class="node">
<title>Node32</title>
<g id="a_node32"><a xlink:title=" ">
<polygon fill="white" stroke="#bfbfbf" points="445,-224.5 445,-243.5 492,-243.5 492,-224.5 445,-224.5"/>
<text text-anchor="middle" x="468.5" y="-231.5" font-family="Helvetica,sans-Serif" font-size="10.00">queue</text>
</a>
</g>
</g>
<!-- Node31&#45;&gt;Node32 -->
<g id="edge45" class="edge">
<title>Node31&#45;&gt;Node32</title>
<path fill="none" stroke="midnightblue" d="M437.61,-280.08C442.78,-272.53 450.35,-261.49 456.69,-252.23"/>
<polygon fill="midnightblue" stroke="midnightblue" points="459.74,-253.98 462.5,-243.75 453.96,-250.02 459.74,-253.98"/>
</g>
<!-- Node34 -->
<g id="node34" class="node">
<title>Node34</title>
<g id="a_node34"><a xlink:title=" ">
<polygon fill="white" stroke="#bfbfbf" points="762.5,-224.5 762.5,-243.5 812.5,-243.5 812.5,-224.5 762.5,-224.5"/>
<text text-anchor="middle" x="787.5" y="-231.5" font-family="Helvetica,sans-Serif" font-size="10.00">chrono</text>
</a>
</g>
</g>
<!-- Node33&#45;&gt;Node34 -->
<g id="edge48" class="edge">
<title>Node33&#45;&gt;Node34</title>
<path fill="none" stroke="midnightblue" d="M855.49,-280.32C842.97,-271.98 823.82,-259.21 809.03,-249.35"/>
<polygon fill="midnightblue" stroke="midnightblue" points="810.74,-246.29 800.48,-243.65 806.86,-252.11 810.74,-246.29"/>
</g>
<!-- Node35 -->
<g id="node35" class="node">
<title>Node35</title>
<g id="a_node35"><a xlink:title=" ">
<polygon fill="white" stroke="#bfbfbf" points="830.5,-224.5 830.5,-243.5 878.5,-243.5 878.5,-224.5 830.5,-224.5"/>
<text text-anchor="middle" x="854.5" y="-231.5" font-family="Helvetica,sans-Serif" font-size="10.00">iosfwd</text>
</a>
</g>
</g>
<!-- Node33&#45;&gt;Node35 -->
<g id="edge49" class="edge">
<title>Node33&#45;&gt;Node35</title>
<path fill="none" stroke="midnightblue" d="M866.19,-280.08C864.33,-272.93 861.66,-262.64 859.35,-253.69"/>
<polygon fill="midnightblue" stroke="midnightblue" points="862.67,-252.55 856.77,-243.75 855.89,-254.31 862.67,-252.55"/>
</g>
<!-- Node36 -->
<g id="node36" class="node">
<title>Node36</title>
<g id="a_node36"><a xlink:title=" ">
<polygon fill="white" stroke="#bfbfbf" points="684.5,-224.5 684.5,-243.5 744.5,-243.5 744.5,-224.5 684.5,-224.5"/>
<text text-anchor="middle" x="714.5" y="-231.5" font-family="Helvetica,sans-Serif" font-size="10.00">iostream</text>
</a>
</g>
</g>
<!-- Node33&#45;&gt;Node36 -->
<g id="edge50" class="edge">
<title>Node33&#45;&gt;Node36</title>
<path fill="none" stroke="midnightblue" d="M844.1,-280.44C818.3,-271.4 777.42,-257.06 748.48,-246.92"/>
<polygon fill="midnightblue" stroke="midnightblue" points="749.38,-243.52 738.79,-243.52 747.07,-250.13 749.38,-243.52"/>
</g>
<!-- Node37&#45;&gt;Node23 -->
<g id="edge52" class="edge">
<title>Node37&#45;&gt;Node23</title>
<path fill="none" stroke="midnightblue" d="M912.43,-224.48C899.38,-216.16 879.87,-202.66 865.5,-188 851.33,-173.54 838.31,-154.35 829.77,-140.58"/>
<polygon fill="midnightblue" stroke="midnightblue" points="832.55,-138.41 824.39,-131.65 826.56,-142.02 832.55,-138.41"/>
</g>
<!-- Node37&#45;&gt;Node30 -->
<g id="edge53" class="edge">
<title>Node37&#45;&gt;Node30</title>
<path fill="none" stroke="midnightblue" d="M926.5,-224.08C926.5,-217.01 926.5,-206.86 926.5,-197.99"/>
<polygon fill="midnightblue" stroke="midnightblue" points="930,-197.75 926.5,-187.75 923,-197.75 930,-197.75"/>
</g>
<!-- Node38&#45;&gt;Node12 -->
<g id="edge57" class="edge">
<title>Node38&#45;&gt;Node12</title>
<path fill="none" stroke="midnightblue" d="M661.69,-392.21C648.82,-383.71 629.44,-370.08 614.5,-356 574.38,-318.17 470,-186.22 433.41,-139.53"/>
<polygon fill="midnightblue" stroke="midnightblue" points="436.13,-137.33 427.21,-131.61 430.62,-141.64 436.13,-137.33"/>
</g>
<!-- Node38&#45;&gt;Node13 -->
<g id="edge58" class="edge">
<title>Node38&#45;&gt;Node13</title>
<path fill="none" stroke="midnightblue" d="M675.5,-392.08C675.5,-385.01 675.5,-374.86 675.5,-365.99"/>
<polygon fill="midnightblue" stroke="midnightblue" points="679,-365.75 675.5,-355.75 672,-365.75 679,-365.75"/>
</g>
<!-- Node38&#45;&gt;Node23 -->
<g id="edge59" class="edge">
<title>Node38&#45;&gt;Node23</title>
<path fill="none" stroke="midnightblue" d="M724.22,-393.34C727.36,-392.88 730.47,-392.43 733.5,-392 796.71,-383.1 964.46,-389.98 1018.5,-356 1047.62,-337.69 1060.5,-325.39 1060.5,-291 1060.5,-291 1060.5,-291 1060.5,-233 1060.5,-143.94 922.61,-126.67 855.43,-123.55"/>
<polygon fill="midnightblue" stroke="midnightblue" points="855.42,-120.04 845.29,-123.16 855.15,-127.04 855.42,-120.04"/>
</g>
<!-- Node38&#45;&gt;Node30 -->
<g id="edge60" class="edge">
<title>Node38&#45;&gt;Node30</title>
<path fill="none" stroke="midnightblue" d="M724.22,-393.37C727.36,-392.9 730.47,-392.44 733.5,-392 792.31,-383.44 959.41,-400.76 998.5,-356 1037.09,-311.81 1026.94,-275.31 998.5,-224 990.41,-209.41 975.4,-198.92 961.16,-191.76"/>
<polygon fill="midnightblue" stroke="midnightblue" points="962.55,-188.55 952,-187.53 959.61,-194.9 962.55,-188.55"/>
</g>
</g>
</svg>
        <g id="navigator" transform="translate(0 0)" fill="#404254">
                <rect fill="#f2f5e9" fill-opacity="0.5" stroke="#606060" stroke-width=".5" x="0" y="0" width="60" height="60"/>
                <use id="zoomplus" xlink:href="#zoomPlus" x="17" y="9" onmousedown="handleZoom(evt,'in')"/>
                <use id="zoomminus" xlink:href="#zoomMin" x="42" y="9" onmousedown="handleZoom(evt,'out')"/>
                <use id="reset" xlink:href="#resetDef" x="30" y="36" onmousedown="handleReset()"/>
                <g id="arrowUp" xlink:href="#dirArrow" transform="translate(30 24)" onmousedown="handlePan(0,-1)">
                  <use xlink:href="#rim" fill="#404040">
                        <set attributeName="fill" to="#808080" begin="arrowUp.mouseover" end="arrowUp.mouseout"/>
                  </use>
                  <path fill="none" stroke="white" stroke-width="1.5" d="M0,-3.0v7 M-2.5,-0.5L0,-3.0L2.5,-0.5"/>
                </g>
                <g id="arrowRight" xlink:href="#dirArrow" transform="rotate(90) translate(36 -43)" onmousedown="handlePan(1,0)">
                  <use xlink:href="#rim" fill="#404040">
                        <set attributeName="fill" to="#808080" begin="arrowRight.mouseover" end="arrowRight.mouseout"/>
                  </use>
                  <path fill="none" stroke="white" stroke-width="1.5" d="M0,-3.0v7 M-2.5,-0.5L0,-3.0L2.5,-0.5"/>
                </g>
                <g id="arrowDown" xlink:href="#dirArrow" transform="rotate(180) translate(-30 -48)" onmousedown="handlePan(0,1)">
                  <use xlink:href="#rim" fill="#404040">
                        <set attributeName="fill" to="#808080" begin="arrowDown.mouseover" end="arrowDown.mouseout"/>
                  </use>
                  <path fill="none" stroke="white" stroke-width="1.5" d="M0,-3.0v7 M-2.5,-0.5L0,-3.0L2.5,-0.5"/>
                </g>
                <g id="arrowLeft" xlink:href="#dirArrow" transform="rotate(270) translate(-36 17)" onmousedown="handlePan(-1,0)">
                  <use xlink:href="#rim" fill="#404040">
                        <set attributeName="fill" to="#808080" begin="arrowLeft.mouseover" end="arrowLeft.mouseout"/>
                  </use>
                  <path fill="none" stroke="white" stroke-width="1.5" d="M0,-3.0v7 M-2.5,-0.5L0,-3.0L2.5,-0.5"/>
                </g>
        </g>
        <svg viewBox="0 0 15 15" width="100%" height="30px" preserveAspectRatio="xMaxYMin meet">
         <g id="arrow_out" transform="scale(0.3 0.3)">
          <a xlink:href="kfinder__factory_8h__incl_org.svg" target="_base">
           <rect id="button" ry="5" rx="5" y="6" x="6" height="38" width="38"
                fill="#f2f5e9" fill-opacity="0.5" stroke="#606060" stroke-width="1.0"/>
           <path id="arrow"
             d="M 11.500037,31.436501 C 11.940474,20.09759 22.043105,11.32322 32.158766,21.979434 L 37.068811,17.246167 C 37.068811,17.246167 37.088388,32 37.088388,32 L 22.160133,31.978069 C 22.160133,31.978069 26.997745,27.140456 26.997745,27.140456 C 18.528582,18.264221 13.291696,25.230495 11.500037,31.436501 z"
             style="fill:#404040;"/>
          </a>
         </g>
        </svg>
</svg>
