<?xml version="1.0" encoding="UTF-8" standalone="no"?>
<!DOCTYPE svg PUBLIC "-//W3C//DTD SVG 1.1//EN"
 "http://www.w3.org/Graphics/SVG/1.1/DTD/svg11.dtd">
<!-- Generated by graphviz version 2.43.0 (0)
 -->
<!-- Title: include/network_butcher/K&#45;shortest_path/ksp_method.h Pages: 1 -->
<!--zoomable 897 -->
<svg id="main" version="1.1" xmlns="http://www.w3.org/2000/svg" xmlns:xlink="http://www.w3.org/1999/xlink" xml:space="preserve" onload="init(evt)">
<style type="text/css"><![CDATA[
.edge:hover path { stroke: red; }
.edge:hover polygon { stroke: red; fill: red; }
]]></style>
<script type="text/javascript"><![CDATA[
var edges = document.getElementsByTagName('g');
if (edges && edges.length) {
  for (var i=0;i<edges.length;i++) {
    if (edges[i].id.substr(0,4)=='edge') {
      edges[i].setAttribute('class','edge');
    }
  }
}
]]></script>
        <defs>
                <circle id="rim" cx="0" cy="0" r="7"/>
                <circle id="rim2" cx="0" cy="0" r="3.5"/>
                <g id="zoomPlus">
                        <use xlink:href="#rim" fill="#404040">
                                <set attributeName="fill" to="#808080" begin="zoomplus.mouseover" end="zoomplus.mouseout"/>
                        </use>
                        <path d="M-4,0h8M0,-4v8" fill="none" stroke="white" stroke-width="1.5" pointer-events="none"/>
                </g>
                <g id="zoomMin">
                        <use xlink:href="#rim" fill="#404040">
                                <set attributeName="fill" to="#808080" begin="zoomminus.mouseover" end="zoomminus.mouseout"/>
                        </use>
                        <path d="M-4,0h8" fill="none" stroke="white" stroke-width="1.5" pointer-events="none"/>
                </g>
                <g id="dirArrow">
                        <path fill="none" stroke="white" stroke-width="1.5" d="M0,-3.0v7 M-2.5,-0.5L0,-3.0L2.5,-0.5"/>
                </g>
               <g id="resetDef">
                       <use xlink:href="#rim2" fill="#404040">
                               <set attributeName="fill" to="#808080" begin="reset.mouseover" end="reset.mouseout"/>
                       </use>
               </g>
        </defs>

<script type="text/javascript">
var viewWidth = 747;
var viewHeight = 897;
var sectionId = 'dynsection-0';
</script>
<script xlink:href="svgpan.js"/>
<svg id="graph" class="graph">
<g id="viewport">
<title>include/network_butcher/K&#45;shortest_path/ksp_method.h</title>
<polygon fill="white" stroke="transparent" points="-4,4 -4,-893 742.5,-893 742.5,4 -4,4"/>
<!-- Node1 -->
<g id="node1" class="node">
<title>Node1</title>
<g id="a_node1"><a xlink:title=" ">
<polygon fill="#bfbfbf" stroke="black" points="85,-858.5 85,-888.5 252,-888.5 252,-858.5 85,-858.5"/>
<text text-anchor="start" x="93" y="-876.5" font-family="Helvetica,sans-Serif" font-size="10.00">include/network_butcher</text>
<text text-anchor="middle" x="168.5" y="-865.5" font-family="Helvetica,sans-Serif" font-size="10.00">/K&#45;shortest_path/ksp_method.h</text>
</a>
</g>
</g>
<!-- Node2 -->
<g id="node2" class="node">
<title>Node2</title>
<g id="a_node2"><a xlink:href="kfinder__factory_8h.html" target="_top" xlink:title=" ">
<polygon fill="white" stroke="black" points="0,-357.5 0,-398.5 137,-398.5 137,-357.5 0,-357.5"/>
<text text-anchor="start" x="8" y="-386.5" font-family="Helvetica,sans-Serif" font-size="10.00">include/network_butcher</text>
<text text-anchor="start" x="8" y="-375.5" font-family="Helvetica,sans-Serif" font-size="10.00">/K&#45;shortest_path/kfinder</text>
<text text-anchor="middle" x="68.5" y="-364.5" font-family="Helvetica,sans-Serif" font-size="10.00">_factory.h</text>
</a>
</g>
</g>
<!-- Node1&#45;&gt;Node2 -->
<g id="edge1" class="edge">
<title>Node1&#45;&gt;Node2</title>
<path fill="none" stroke="midnightblue" d="M149.38,-850.28C128.35,-823.51 97.5,-776.27 97.5,-729.5 97.5,-729.5 97.5,-729.5 97.5,-549.5 97.5,-494.1 82.44,-430 74.02,-398.51"/>
<polygon fill="midnightblue" stroke="midnightblue" points="146.79,-852.66 155.81,-858.23 152.24,-848.26 146.79,-852.66"/>
</g>
<!-- Node13 -->
<g id="node13" class="node">
<title>Node13</title>
<g id="a_node13"><a xlink:href="parameters_8h.html" target="_top" xlink:title=" ">
<polygon fill="white" stroke="black" points="186,-791.5 186,-821.5 323,-821.5 323,-791.5 186,-791.5"/>
<text text-anchor="start" x="194" y="-809.5" font-family="Helvetica,sans-Serif" font-size="10.00">include/network_butcher</text>
<text text-anchor="middle" x="254.5" y="-798.5" font-family="Helvetica,sans-Serif" font-size="10.00">/Types/parameters.h</text>
</a>
</g>
</g>
<!-- Node1&#45;&gt;Node13 -->
<g id="edge16" class="edge">
<title>Node1&#45;&gt;Node13</title>
<path fill="none" stroke="midnightblue" d="M195.4,-852.17C208.55,-842.23 224.05,-830.51 235.88,-821.58"/>
<polygon fill="midnightblue" stroke="midnightblue" points="193.03,-849.57 187.16,-858.4 197.25,-855.16 193.03,-849.57"/>
</g>
<!-- Node3 -->
<g id="node3" class="node">
<title>Node3</title>
<g id="a_node3"><a xlink:href="butcher_8h.html" target="_top" xlink:title=" ">
<polygon fill="white" stroke="black" points="261,-290.5 261,-320.5 398,-320.5 398,-290.5 261,-290.5"/>
<text text-anchor="start" x="269" y="-308.5" font-family="Helvetica,sans-Serif" font-size="10.00">include/network_butcher</text>
<text text-anchor="middle" x="329.5" y="-297.5" font-family="Helvetica,sans-Serif" font-size="10.00">/Butcher/butcher.h</text>
</a>
</g>
</g>
<!-- Node2&#45;&gt;Node3 -->
<g id="edge2" class="edge">
<title>Node2&#45;&gt;Node3</title>
<path fill="none" stroke="midnightblue" d="M146.78,-355.85C189.06,-344.44 240.09,-330.65 277.46,-320.56"/>
<polygon fill="midnightblue" stroke="midnightblue" points="145.82,-352.49 137.07,-358.48 147.64,-359.25 145.82,-352.49"/>
</g>
<!-- Node7 -->
<g id="node7" class="node">
<title>Node7</title>
<g id="a_node7"><a xlink:href="network__butcher_8h.html" target="_top" xlink:title=" ">
<polygon fill="white" stroke="black" points="167,-0.5 167,-30.5 304,-30.5 304,-0.5 167,-0.5"/>
<text text-anchor="start" x="175" y="-18.5" font-family="Helvetica,sans-Serif" font-size="10.00">include/network_butcher</text>
<text text-anchor="middle" x="235.5" y="-7.5" font-family="Helvetica,sans-Serif" font-size="10.00">/network_butcher.h</text>
</a>
</g>
</g>
<!-- Node2&#45;&gt;Node7 -->
<g id="edge15" class="edge">
<title>Node2&#45;&gt;Node7</title>
<path fill="none" stroke="midnightblue" d="M89.82,-349.07C108.77,-321.41 133.5,-277.06 133.5,-234 133.5,-234 133.5,-234 133.5,-154 133.5,-99.9 185.05,-53.23 214.86,-30.77"/>
<polygon fill="midnightblue" stroke="midnightblue" points="86.81,-347.26 83.9,-357.44 92.53,-351.29 86.81,-347.26"/>
</g>
<!-- Node4 -->
<g id="node4" class="node">
<title>Node4</title>
<g id="a_node4"><a xlink:href="onnx__model__reconstructor__helpers_8h.html" target="_top" xlink:title=" ">
<polygon fill="white" stroke="black" points="264,-212.5 264,-253.5 415,-253.5 415,-212.5 264,-212.5"/>
<text text-anchor="start" x="272" y="-241.5" font-family="Helvetica,sans-Serif" font-size="10.00">include/network_butcher</text>
<text text-anchor="start" x="272" y="-230.5" font-family="Helvetica,sans-Serif" font-size="10.00">/IO_Interaction/onnx_model</text>
<text text-anchor="middle" x="339.5" y="-219.5" font-family="Helvetica,sans-Serif" font-size="10.00">_reconstructor_helpers.h</text>
</a>
</g>
</g>
<!-- Node3&#45;&gt;Node4 -->
<g id="edge3" class="edge">
<title>Node3&#45;&gt;Node4</title>
<path fill="none" stroke="midnightblue" d="M332.94,-280.27C334.17,-271.56 335.55,-261.85 336.72,-253.59"/>
<polygon fill="midnightblue" stroke="midnightblue" points="329.46,-279.84 331.52,-290.23 336.39,-280.82 329.46,-279.84"/>
</g>
<!-- Node3&#45;&gt;Node7 -->
<g id="edge14" class="edge">
<title>Node3&#45;&gt;Node7</title>
<path fill="none" stroke="midnightblue" d="M287.41,-285.39C274.73,-277.51 262.16,-267.1 254.5,-254 211.08,-179.72 225.67,-69.36 232.67,-30.58"/>
<polygon fill="midnightblue" stroke="midnightblue" points="285.74,-288.47 296.15,-290.45 289.25,-282.41 285.74,-288.47"/>
</g>
<!-- Node11 -->
<g id="node11" class="node">
<title>Node11</title>
<g id="a_node11"><a xlink:href="onnx__importer__helpers_8h.html" target="_top" xlink:title=" ">
<polygon fill="white" stroke="black" points="452.5,-212.5 452.5,-253.5 614.5,-253.5 614.5,-212.5 452.5,-212.5"/>
<text text-anchor="start" x="460.5" y="-241.5" font-family="Helvetica,sans-Serif" font-size="10.00">include/network_butcher</text>
<text text-anchor="start" x="460.5" y="-230.5" font-family="Helvetica,sans-Serif" font-size="10.00">/IO_Interaction/onnx_importer</text>
<text text-anchor="middle" x="533.5" y="-219.5" font-family="Helvetica,sans-Serif" font-size="10.00">_helpers.h</text>
</a>
</g>
</g>
<!-- Node3&#45;&gt;Node11 -->
<g id="edge11" class="edge">
<title>Node3&#45;&gt;Node11</title>
<path fill="none" stroke="midnightblue" d="M379.95,-287.07C409.36,-276.9 446.54,-264.05 476.94,-253.55"/>
<polygon fill="midnightblue" stroke="midnightblue" points="378.6,-283.83 370.29,-290.4 380.89,-290.44 378.6,-283.83"/>
</g>
<!-- Node5 -->
<g id="node5" class="node">
<title>Node5</title>
<g id="a_node5"><a xlink:href="io__manager_8h.html" target="_top" xlink:title=" ">
<polygon fill="white" stroke="black" points="431,-140 431,-170 568,-170 568,-140 431,-140"/>
<text text-anchor="start" x="439" y="-158" font-family="Helvetica,sans-Serif" font-size="10.00">include/network_butcher</text>
<text text-anchor="middle" x="499.5" y="-147" font-family="Helvetica,sans-Serif" font-size="10.00">/io_manager.h</text>
</a>
</g>
</g>
<!-- Node4&#45;&gt;Node5 -->
<g id="edge4" class="edge">
<title>Node4&#45;&gt;Node5</title>
<path fill="none" stroke="midnightblue" d="M389.75,-208.13C415.96,-195.68 447.14,-180.87 469.55,-170.23"/>
<polygon fill="midnightblue" stroke="midnightblue" points="388.24,-204.98 380.7,-212.43 391.24,-211.3 388.24,-204.98"/>
</g>
<!-- Node10 -->
<g id="node10" class="node">
<title>Node10</title>
<g id="a_node10"><a xlink:href="onnx__model__reconstructor__helpers_8cpp.html" target="_top" xlink:title=" ">
<polygon fill="white" stroke="black" points="264,-134.5 264,-175.5 413,-175.5 413,-134.5 264,-134.5"/>
<text text-anchor="start" x="272" y="-163.5" font-family="Helvetica,sans-Serif" font-size="10.00">src/IO_Interaction</text>
<text text-anchor="start" x="272" y="-152.5" font-family="Helvetica,sans-Serif" font-size="10.00">/onnx_model_reconstructor</text>
<text text-anchor="middle" x="338.5" y="-141.5" font-family="Helvetica,sans-Serif" font-size="10.00">_helpers.cpp</text>
</a>
</g>
</g>
<!-- Node4&#45;&gt;Node10 -->
<g id="edge10" class="edge">
<title>Node4&#45;&gt;Node10</title>
<path fill="none" stroke="midnightblue" d="M339.11,-202.3C338.99,-193.3 338.86,-183.65 338.76,-175.51"/>
<polygon fill="midnightblue" stroke="midnightblue" points="335.61,-202.48 339.24,-212.43 342.61,-202.38 335.61,-202.48"/>
</g>
<!-- Node6 -->
<g id="node6" class="node">
<title>Node6</title>
<g id="a_node6"><a xlink:href="general__manager_8h.html" target="_top" xlink:title=" ">
<polygon fill="white" stroke="black" points="318,-67.5 318,-97.5 455,-97.5 455,-67.5 318,-67.5"/>
<text text-anchor="start" x="326" y="-85.5" font-family="Helvetica,sans-Serif" font-size="10.00">include/network_butcher</text>
<text text-anchor="middle" x="386.5" y="-74.5" font-family="Helvetica,sans-Serif" font-size="10.00">/general_manager.h</text>
</a>
</g>
</g>
<!-- Node5&#45;&gt;Node6 -->
<g id="edge5" class="edge">
<title>Node5&#45;&gt;Node6</title>
<path fill="none" stroke="midnightblue" d="M468.38,-134.58C449.58,-122.86 426.06,-108.18 409.06,-97.57"/>
<polygon fill="midnightblue" stroke="midnightblue" points="466.57,-137.58 476.9,-139.9 470.27,-131.64 466.57,-137.58"/>
</g>
<!-- Node5&#45;&gt;Node7 -->
<g id="edge8" class="edge">
<title>Node5&#45;&gt;Node7</title>
<path fill="none" stroke="midnightblue" d="M436.24,-137.3C385.02,-123.48 319.62,-105.01 308.5,-98 280.55,-80.37 256.87,-49.05 244.57,-30.8"/>
<polygon fill="midnightblue" stroke="midnightblue" points="435.38,-140.7 445.94,-139.91 437.2,-133.94 435.38,-140.7"/>
</g>
<!-- Node9 -->
<g id="node9" class="node">
<title>Node9</title>
<g id="a_node9"><a xlink:href="io__manager_8cpp.html" target="_top" xlink:title=" ">
<polygon fill="white" stroke="black" points="473,-73 473,-92 584,-92 584,-73 473,-73"/>
<text text-anchor="middle" x="528.5" y="-80" font-family="Helvetica,sans-Serif" font-size="10.00">src/io_manager.cpp</text>
</a>
</g>
</g>
<!-- Node5&#45;&gt;Node9 -->
<g id="edge9" class="edge">
<title>Node5&#45;&gt;Node9</title>
<path fill="none" stroke="midnightblue" d="M509.22,-130.36C514.59,-117.32 520.94,-101.88 524.84,-92.39"/>
<polygon fill="midnightblue" stroke="midnightblue" points="505.94,-129.15 505.37,-139.73 512.41,-131.82 505.94,-129.15"/>
</g>
<!-- Node6&#45;&gt;Node7 -->
<g id="edge6" class="edge">
<title>Node6&#45;&gt;Node7</title>
<path fill="none" stroke="midnightblue" d="M344.47,-63.41C320.36,-53.03 290.55,-40.2 268.2,-30.58"/>
<polygon fill="midnightblue" stroke="midnightblue" points="343.17,-66.66 353.74,-67.4 345.93,-60.23 343.17,-66.66"/>
</g>
<!-- Node8 -->
<g id="node8" class="node">
<title>Node8</title>
<g id="a_node8"><a xlink:href="general__manager_8cpp.html" target="_top" xlink:title=" ">
<polygon fill="white" stroke="black" points="322,-6 322,-25 461,-25 461,-6 322,-6"/>
<text text-anchor="middle" x="391.5" y="-13" font-family="Helvetica,sans-Serif" font-size="10.00">src/general_manager.cpp</text>
</a>
</g>
</g>
<!-- Node6&#45;&gt;Node8 -->
<g id="edge7" class="edge">
<title>Node6&#45;&gt;Node8</title>
<path fill="none" stroke="midnightblue" d="M388.37,-57.25C389.23,-46.02 390.2,-33.38 390.83,-25.19"/>
<polygon fill="midnightblue" stroke="midnightblue" points="384.86,-57.16 387.58,-67.4 391.84,-57.69 384.86,-57.16"/>
</g>
<!-- Node11&#45;&gt;Node5 -->
<g id="edge12" class="edge">
<title>Node11&#45;&gt;Node5</title>
<path fill="none" stroke="midnightblue" d="M520.51,-202.96C515.49,-191.75 509.98,-179.43 505.86,-170.23"/>
<polygon fill="midnightblue" stroke="midnightblue" points="517.47,-204.73 524.74,-212.43 523.86,-201.87 517.47,-204.73"/>
</g>
<!-- Node12 -->
<g id="node12" class="node">
<title>Node12</title>
<g id="a_node12"><a xlink:href="onnx__importer__helpers_8cpp.html" target="_top" xlink:title=" ">
<polygon fill="white" stroke="black" points="586.5,-140 586.5,-170 738.5,-170 738.5,-140 586.5,-140"/>
<text text-anchor="start" x="594.5" y="-158" font-family="Helvetica,sans-Serif" font-size="10.00">src/IO_Interaction</text>
<text text-anchor="middle" x="662.5" y="-147" font-family="Helvetica,sans-Serif" font-size="10.00">/onnx_importer_helpers.cpp</text>
</a>
</g>
</g>
<!-- Node11&#45;&gt;Node12 -->
<g id="edge13" class="edge">
<title>Node11&#45;&gt;Node12</title>
<path fill="none" stroke="midnightblue" d="M575.4,-207.31C596.24,-195.04 620.68,-180.64 638.35,-170.23"/>
<polygon fill="midnightblue" stroke="midnightblue" points="573.56,-204.34 566.72,-212.43 577.11,-210.37 573.56,-204.34"/>
</g>
<!-- Node13&#45;&gt;Node3 -->
<g id="edge17" class="edge">
<title>Node13&#45;&gt;Node3</title>
<path fill="none" stroke="midnightblue" d="M230.42,-784.73C199.7,-755.79 150.5,-700.12 150.5,-640.5 150.5,-640.5 150.5,-640.5 150.5,-549.5 150.5,-454.09 173.79,-419.93 245.5,-357 262.13,-342.41 283.53,-329.62 300.57,-320.56"/>
<polygon fill="midnightblue" stroke="midnightblue" points="228.06,-787.31 237.79,-791.5 232.79,-782.16 228.06,-787.31"/>
</g>
<!-- Node13&#45;&gt;Node11 -->
<g id="edge21" class="edge">
<title>Node13&#45;&gt;Node11</title>
<path fill="none" stroke="midnightblue" d="M333.09,-803.06C439.02,-795.11 614.5,-763.38 614.5,-640.5 614.5,-640.5 614.5,-640.5 614.5,-377 614.5,-327.64 577.51,-279.69 553.52,-253.78"/>
<polygon fill="midnightblue" stroke="midnightblue" points="332.79,-799.58 323.06,-803.76 333.28,-806.56 332.79,-799.58"/>
</g>
<!-- Node14 -->
<g id="node14" class="node">
<title>Node14</title>
<g id="a_node14"><a xlink:href="graph__constraint_8h.html" target="_top" xlink:title=" ">
<polygon fill="white" stroke="black" points="179,-624.5 179,-654.5 330,-654.5 330,-624.5 179,-624.5"/>
<text text-anchor="start" x="187" y="-642.5" font-family="Helvetica,sans-Serif" font-size="10.00">include/network_butcher</text>
<text text-anchor="middle" x="254.5" y="-631.5" font-family="Helvetica,sans-Serif" font-size="10.00">/Butcher/graph_constraint.h</text>
</a>
</g>
</g>
<!-- Node13&#45;&gt;Node14 -->
<g id="edge18" class="edge">
<title>Node13&#45;&gt;Node14</title>
<path fill="none" stroke="midnightblue" d="M254.5,-781.14C254.5,-746.11 254.5,-682.63 254.5,-654.53"/>
<polygon fill="midnightblue" stroke="midnightblue" points="251,-781.43 254.5,-791.43 258,-781.43 251,-781.43"/>
</g>
<!-- Node16 -->
<g id="node16" class="node">
<title>Node16</title>
<g id="a_node16"><a xlink:href="weight__importer_8h.html" target="_top" xlink:title=" ">
<polygon fill="white" stroke="black" points="287,-702.5 287,-754.5 430,-754.5 430,-702.5 287,-702.5"/>
<text text-anchor="start" x="295" y="-742.5" font-family="Helvetica,sans-Serif" font-size="10.00">include/network_butcher</text>
<text text-anchor="start" x="295" y="-731.5" font-family="Helvetica,sans-Serif" font-size="10.00">/IO_Interaction/Weight</text>
<text text-anchor="start" x="295" y="-720.5" font-family="Helvetica,sans-Serif" font-size="10.00">_Importer_Helpers/weight</text>
<text text-anchor="middle" x="358.5" y="-709.5" font-family="Helvetica,sans-Serif" font-size="10.00">_importer.h</text>
</a>
</g>
</g>
<!-- Node13&#45;&gt;Node16 -->
<g id="edge22" class="edge">
<title>Node13&#45;&gt;Node16</title>
<path fill="none" stroke="midnightblue" d="M282.14,-785.3C295.08,-775.85 310.61,-764.49 324.28,-754.5"/>
<polygon fill="midnightblue" stroke="midnightblue" points="280.07,-782.48 274.06,-791.2 284.2,-788.13 280.07,-782.48"/>
</g>
<!-- Node15 -->
<g id="node15" class="node">
<title>Node15</title>
<g id="a_node15"><a xlink:href="constrained__block__graph__builder_8h.html" target="_top" xlink:title=" ">
<polygon fill="white" stroke="black" points="255,-357.5 255,-398.5 404,-398.5 404,-357.5 255,-357.5"/>
<text text-anchor="start" x="263" y="-386.5" font-family="Helvetica,sans-Serif" font-size="10.00">include/network_butcher</text>
<text text-anchor="start" x="263" y="-375.5" font-family="Helvetica,sans-Serif" font-size="10.00">/Butcher/constrained_block</text>
<text text-anchor="middle" x="329.5" y="-364.5" font-family="Helvetica,sans-Serif" font-size="10.00">_graph_builder.h</text>
</a>
</g>
</g>
<!-- Node14&#45;&gt;Node15 -->
<g id="edge19" class="edge">
<title>Node14&#45;&gt;Node15</title>
<path fill="none" stroke="midnightblue" d="M232.55,-617.1C222.87,-606.14 212.56,-591.95 207.5,-577 187.27,-517.22 173.43,-488.13 207.5,-435 218.51,-417.83 236.24,-405.86 254.82,-397.54"/>
<polygon fill="midnightblue" stroke="midnightblue" points="230.04,-619.54 239.41,-624.49 235.17,-614.78 230.04,-619.54"/>
</g>
<!-- Node15&#45;&gt;Node3 -->
<g id="edge20" class="edge">
<title>Node15&#45;&gt;Node3</title>
<path fill="none" stroke="midnightblue" d="M329.5,-347.08C329.5,-338.01 329.5,-328.45 329.5,-320.89"/>
<polygon fill="midnightblue" stroke="midnightblue" points="326,-347.36 329.5,-357.36 333,-347.36 326,-347.36"/>
</g>
<!-- Node17 -->
<g id="node17" class="node">
<title>Node17</title>
<g id="a_node17"><a xlink:href="block__aMLLibrary__weight__importer_8h.html" target="_top" xlink:title=" ">
<polygon fill="white" stroke="black" points="216.5,-524.5 216.5,-576.5 386.5,-576.5 386.5,-524.5 216.5,-524.5"/>
<text text-anchor="start" x="224.5" y="-564.5" font-family="Helvetica,sans-Serif" font-size="10.00">include/network_butcher</text>
<text text-anchor="start" x="224.5" y="-553.5" font-family="Helvetica,sans-Serif" font-size="10.00">/IO_Interaction/Weight</text>
<text text-anchor="start" x="224.5" y="-542.5" font-family="Helvetica,sans-Serif" font-size="10.00">_Importer_Helpers/block</text>
<text text-anchor="middle" x="301.5" y="-531.5" font-family="Helvetica,sans-Serif" font-size="10.00">_aMLLibrary_weight_importer.h</text>
</a>
</g>
</g>
<!-- Node16&#45;&gt;Node17 -->
<g id="edge23" class="edge">
<title>Node16&#45;&gt;Node17</title>
<path fill="none" stroke="midnightblue" d="M355.72,-692.19C353.09,-669.09 348.05,-638.58 338.5,-613 333.79,-600.39 326.47,-587.48 319.58,-576.76"/>
<polygon fill="midnightblue" stroke="midnightblue" points="352.25,-692.65 356.77,-702.24 359.21,-691.93 352.25,-692.65"/>
</g>
<!-- Node20 -->
<g id="node20" class="node">
<title>Node20</title>
<g id="a_node20"><a xlink:href="csv__weight__importer_8h.html" target="_top" xlink:title=" ">
<polygon fill="white" stroke="black" points="386.5,-613.5 386.5,-665.5 550.5,-665.5 550.5,-613.5 386.5,-613.5"/>
<text text-anchor="start" x="394.5" y="-653.5" font-family="Helvetica,sans-Serif" font-size="10.00">include/network_butcher</text>
<text text-anchor="start" x="394.5" y="-642.5" font-family="Helvetica,sans-Serif" font-size="10.00">/IO_Interaction/Weight</text>
<text text-anchor="start" x="394.5" y="-631.5" font-family="Helvetica,sans-Serif" font-size="10.00">_Importer_Helpers/csv_weight</text>
<text text-anchor="middle" x="468.5" y="-620.5" font-family="Helvetica,sans-Serif" font-size="10.00">_importer.h</text>
</a>
</g>
</g>
<!-- Node16&#45;&gt;Node20 -->
<g id="edge29" class="edge">
<title>Node16&#45;&gt;Node20</title>
<path fill="none" stroke="midnightblue" d="M398.41,-695.93C411.03,-685.96 424.79,-675.07 436.75,-665.61"/>
<polygon fill="midnightblue" stroke="midnightblue" points="395.99,-693.39 390.32,-702.34 400.33,-698.88 395.99,-693.39"/>
</g>
<!-- Node18 -->
<g id="node18" class="node">
<title>Node18</title>
<g id="a_node18"><a xlink:href="weight__importers_8h.html" target="_top" xlink:title=" ">
<polygon fill="white" stroke="black" points="378,-441 378,-482 515,-482 515,-441 378,-441"/>
<text text-anchor="start" x="386" y="-470" font-family="Helvetica,sans-Serif" font-size="10.00">include/network_butcher</text>
<text text-anchor="start" x="386" y="-459" font-family="Helvetica,sans-Serif" font-size="10.00">/IO_Interaction/weight</text>
<text text-anchor="middle" x="446.5" y="-448" font-family="Helvetica,sans-Serif" font-size="10.00">_importers.h</text>
</a>
</g>
</g>
<!-- Node17&#45;&gt;Node18 -->
<g id="edge24" class="edge">
<title>Node17&#45;&gt;Node18</title>
<path fill="none" stroke="midnightblue" d="M352.05,-519.17C372.55,-506.87 395.64,-493.01 413.86,-482.08"/>
<polygon fill="midnightblue" stroke="midnightblue" points="350.21,-516.19 343.44,-524.34 353.82,-522.19 350.21,-516.19"/>
</g>
<!-- Node19 -->
<g id="node19" class="node">
<title>Node19</title>
<g id="a_node19"><a xlink:href="block__aMLLibrary__weight__importer_8cpp.html" target="_top" xlink:title=" ">
<polygon fill="white" stroke="black" points="217,-435.5 217,-487.5 360,-487.5 360,-435.5 217,-435.5"/>
<text text-anchor="start" x="225" y="-475.5" font-family="Helvetica,sans-Serif" font-size="10.00">src/IO_Interaction</text>
<text text-anchor="start" x="225" y="-464.5" font-family="Helvetica,sans-Serif" font-size="10.00">/Weight_Importer_Helpers</text>
<text text-anchor="start" x="225" y="-453.5" font-family="Helvetica,sans-Serif" font-size="10.00">/block_aMLLibrary_weight</text>
<text text-anchor="middle" x="288.5" y="-442.5" font-family="Helvetica,sans-Serif" font-size="10.00">_importer.cpp</text>
</a>
</g>
</g>
<!-- Node17&#45;&gt;Node19 -->
<g id="edge28" class="edge">
<title>Node17&#45;&gt;Node19</title>
<path fill="none" stroke="midnightblue" d="M296.22,-514.19C294.89,-505.28 293.49,-495.9 292.25,-487.61"/>
<polygon fill="midnightblue" stroke="midnightblue" points="292.8,-514.96 297.74,-524.34 299.72,-513.93 292.8,-514.96"/>
</g>
<!-- Node18&#45;&gt;Node3 -->
<g id="edge25" class="edge">
<title>Node18&#45;&gt;Node3</title>
<path fill="none" stroke="midnightblue" d="M442.41,-430.73C438.09,-408.49 429.45,-378.36 412.5,-357 399.92,-341.14 380.89,-329.06 364.23,-320.69"/>
<polygon fill="midnightblue" stroke="midnightblue" points="438.97,-431.4 444.15,-440.64 445.87,-430.19 438.97,-431.4"/>
</g>
<!-- Node18&#45;&gt;Node5 -->
<g id="edge27" class="edge">
<title>Node18&#45;&gt;Node5</title>
<path fill="none" stroke="midnightblue" d="M480.37,-434.39C523.25,-398.97 594.95,-331.18 623.5,-254 629.98,-236.49 633.62,-227.68 623.5,-212 614.15,-197.51 575.13,-181.34 543.33,-170.11"/>
<polygon fill="midnightblue" stroke="midnightblue" points="478.01,-431.81 472.46,-440.83 482.43,-437.24 478.01,-431.81"/>
</g>
<!-- Node18&#45;&gt;Node15 -->
<g id="edge26" class="edge">
<title>Node18&#45;&gt;Node15</title>
<path fill="none" stroke="midnightblue" d="M409.95,-435.04C393.1,-423.3 373.39,-409.57 357.7,-398.64"/>
<polygon fill="midnightblue" stroke="midnightblue" points="408.27,-438.13 418.48,-440.98 412.27,-432.39 408.27,-438.13"/>
</g>
<!-- Node20&#45;&gt;Node17 -->
<g id="edge30" class="edge">
<title>Node20&#45;&gt;Node17</title>
<path fill="none" stroke="midnightblue" d="M411.17,-608.64C391.15,-598.2 368.9,-586.61 349.69,-576.61"/>
<polygon fill="midnightblue" stroke="midnightblue" points="409.71,-611.82 420.2,-613.34 412.95,-605.61 409.71,-611.82"/>
</g>
<!-- Node20&#45;&gt;Node18 -->
<g id="edge31" class="edge">
<title>Node20&#45;&gt;Node18</title>
<path fill="none" stroke="midnightblue" d="M445.21,-604.79C440.39,-596.11 436.02,-586.52 433.5,-577 424.9,-544.51 433.19,-505.35 439.9,-482.27"/>
<polygon fill="midnightblue" stroke="midnightblue" points="442.24,-606.63 450.34,-613.46 448.26,-603.07 442.24,-606.63"/>
</g>
<!-- Node21 -->
<g id="node21" class="node">
<title>Node21</title>
<g id="a_node21"><a xlink:href="csv__weight__importer_8cpp.html" target="_top" xlink:title=" ">
<polygon fill="white" stroke="black" points="443,-530 443,-571 586,-571 586,-530 443,-530"/>
<text text-anchor="start" x="451" y="-559" font-family="Helvetica,sans-Serif" font-size="10.00">src/IO_Interaction</text>
<text text-anchor="start" x="451" y="-548" font-family="Helvetica,sans-Serif" font-size="10.00">/Weight_Importer_Helpers</text>
<text text-anchor="middle" x="514.5" y="-537" font-family="Helvetica,sans-Serif" font-size="10.00">/csv_weight_importer.cpp</text>
</a>
</g>
</g>
<!-- Node20&#45;&gt;Node21 -->
<g id="edge32" class="edge">
<title>Node20&#45;&gt;Node21</title>
<path fill="none" stroke="midnightblue" d="M486.65,-604.17C492.59,-592.93 498.99,-580.84 504.15,-571.08"/>
<polygon fill="midnightblue" stroke="midnightblue" points="483.39,-602.86 481.81,-613.34 489.57,-606.13 483.39,-602.86"/>
</g>
</g>
</svg>
        <g id="navigator" transform="translate(0 0)" fill="#404254">
                <rect fill="#f2f5e9" fill-opacity="0.5" stroke="#606060" stroke-width=".5" x="0" y="0" width="60" height="60"/>
                <use id="zoomplus" xlink:href="#zoomPlus" x="17" y="9" onmousedown="handleZoom(evt,'in')"/>
                <use id="zoomminus" xlink:href="#zoomMin" x="42" y="9" onmousedown="handleZoom(evt,'out')"/>
                <use id="reset" xlink:href="#resetDef" x="30" y="36" onmousedown="handleReset()"/>
                <g id="arrowUp" xlink:href="#dirArrow" transform="translate(30 24)" onmousedown="handlePan(0,-1)">
                  <use xlink:href="#rim" fill="#404040">
                        <set attributeName="fill" to="#808080" begin="arrowUp.mouseover" end="arrowUp.mouseout"/>
                  </use>
                  <path fill="none" stroke="white" stroke-width="1.5" d="M0,-3.0v7 M-2.5,-0.5L0,-3.0L2.5,-0.5"/>
                </g>
                <g id="arrowRight" xlink:href="#dirArrow" transform="rotate(90) translate(36 -43)" onmousedown="handlePan(1,0)">
                  <use xlink:href="#rim" fill="#404040">
                        <set attributeName="fill" to="#808080" begin="arrowRight.mouseover" end="arrowRight.mouseout"/>
                  </use>
                  <path fill="none" stroke="white" stroke-width="1.5" d="M0,-3.0v7 M-2.5,-0.5L0,-3.0L2.5,-0.5"/>
                </g>
                <g id="arrowDown" xlink:href="#dirArrow" transform="rotate(180) translate(-30 -48)" onmousedown="handlePan(0,1)">
                  <use xlink:href="#rim" fill="#404040">
                        <set attributeName="fill" to="#808080" begin="arrowDown.mouseover" end="arrowDown.mouseout"/>
                  </use>
                  <path fill="none" stroke="white" stroke-width="1.5" d="M0,-3.0v7 M-2.5,-0.5L0,-3.0L2.5,-0.5"/>
                </g>
                <g id="arrowLeft" xlink:href="#dirArrow" transform="rotate(270) translate(-36 17)" onmousedown="handlePan(-1,0)">
                  <use xlink:href="#rim" fill="#404040">
                        <set attributeName="fill" to="#808080" begin="arrowLeft.mouseover" end="arrowLeft.mouseout"/>
                  </use>
                  <path fill="none" stroke="white" stroke-width="1.5" d="M0,-3.0v7 M-2.5,-0.5L0,-3.0L2.5,-0.5"/>
                </g>
        </g>
        <svg viewBox="0 0 15 15" width="100%" height="30px" preserveAspectRatio="xMaxYMin meet">
         <g id="arrow_out" transform="scale(0.3 0.3)">
          <a xlink:href="ksp__method_8h__dep__incl_org.svg" target="_base">
           <rect id="button" ry="5" rx="5" y="6" x="6" height="38" width="38"
                fill="#f2f5e9" fill-opacity="0.5" stroke="#606060" stroke-width="1.0"/>
           <path id="arrow"
             d="M 11.500037,31.436501 C 11.940474,20.09759 22.043105,11.32322 32.158766,21.979434 L 37.068811,17.246167 C 37.068811,17.246167 37.088388,32 37.088388,32 L 22.160133,31.978069 C 22.160133,31.978069 26.997745,27.140456 26.997745,27.140456 C 18.528582,18.264221 13.291696,25.230495 11.500037,31.436501 z"
             style="fill:#404040;"/>
          </a>
         </g>
        </svg>
</svg>
