<?xml version="1.0" encoding="UTF-8" standalone="no"?>
<!DOCTYPE svg PUBLIC "-//W3C//DTD SVG 1.1//EN"
 "http://www.w3.org/Graphics/SVG/1.1/DTD/svg11.dtd">
<!-- Generated by graphviz version 2.43.0 (0)
 -->
<!-- Title: include/K&#45;shortest_path/ksp_method.h Pages: 1 -->
<!--zoomable 820 -->
<svg id="main" version="1.1" xmlns="http://www.w3.org/2000/svg" xmlns:xlink="http://www.w3.org/1999/xlink" xml:space="preserve" onload="init(evt)">
<style type="text/css"><![CDATA[
.edge:hover path { stroke: red; }
.edge:hover polygon { stroke: red; fill: red; }
]]></style>
<script type="text/javascript"><![CDATA[
var edges = document.getElementsByTagName('g');
if (edges && edges.length) {
  for (var i=0;i<edges.length;i++) {
    if (edges[i].id.substr(0,4)=='edge') {
      edges[i].setAttribute('class','edge');
    }
  }
}
]]></script>
        <defs>
                <circle id="rim" cx="0" cy="0" r="7"/>
                <circle id="rim2" cx="0" cy="0" r="3.5"/>
                <g id="zoomPlus">
                        <use xlink:href="#rim" fill="#404040">
                                <set attributeName="fill" to="#808080" begin="zoomplus.mouseover" end="zoomplus.mouseout"/>
                        </use>
                        <path d="M-4,0h8M0,-4v8" fill="none" stroke="white" stroke-width="1.5" pointer-events="none"/>
                </g>
                <g id="zoomMin">
                        <use xlink:href="#rim" fill="#404040">
                                <set attributeName="fill" to="#808080" begin="zoomminus.mouseover" end="zoomminus.mouseout"/>
                        </use>
                        <path d="M-4,0h8" fill="none" stroke="white" stroke-width="1.5" pointer-events="none"/>
                </g>
                <g id="dirArrow">
                        <path fill="none" stroke="white" stroke-width="1.5" d="M0,-3.0v7 M-2.5,-0.5L0,-3.0L2.5,-0.5"/>
                </g>
               <g id="resetDef">
                       <use xlink:href="#rim2" fill="#404040">
                               <set attributeName="fill" to="#808080" begin="reset.mouseover" end="reset.mouseout"/>
                       </use>
               </g>
        </defs>

<script type="text/javascript">
var viewWidth = 641;
var viewHeight = 820;
var sectionId = 'dynsection-0';
</script>
<script xlink:href="svgpan.js"/>
<svg id="graph" class="graph">
<g id="viewport">
<title>include/K&#45;shortest_path/ksp_method.h</title>
<polygon fill="white" stroke="transparent" points="-4,4 -4,-816 637,-816 637,4 -4,4"/>
<!-- Node1 -->
<g id="node1" class="node">
<title>Node1</title>
<g id="a_node1"><a xlink:title=" ">
<polygon fill="#bfbfbf" stroke="black" points="97,-781.5 97,-811.5 213,-811.5 213,-781.5 97,-781.5"/>
<text text-anchor="start" x="105" y="-799.5" font-family="Helvetica,sans-Serif" font-size="10.00">include/K&#45;shortest</text>
<text text-anchor="middle" x="155" y="-788.5" font-family="Helvetica,sans-Serif" font-size="10.00">_path/ksp_method.h</text>
</a>
</g>
</g>
<!-- Node2 -->
<g id="node2" class="node">
<title>Node2</title>
<g id="a_node2"><a xlink:href="kfinder__factory_8h.html" target="_top" xlink:title=" ">
<polygon fill="white" stroke="black" points="0,-324.5 0,-354.5 128,-354.5 128,-324.5 0,-324.5"/>
<text text-anchor="start" x="8" y="-342.5" font-family="Helvetica,sans-Serif" font-size="10.00">include/K&#45;shortest</text>
<text text-anchor="middle" x="64" y="-331.5" font-family="Helvetica,sans-Serif" font-size="10.00">_path/kfinder_factory.h</text>
</a>
</g>
</g>
<!-- Node1&#45;&gt;Node2 -->
<g id="edge1" class="edge">
<title>Node1&#45;&gt;Node2</title>
<path fill="none" stroke="midnightblue" d="M136.04,-773.74C117.17,-749.78 91,-709.29 91,-669 91,-669 91,-669 91,-505.5 91,-449.19 75.49,-383.47 67.98,-354.94"/>
<polygon fill="midnightblue" stroke="midnightblue" points="133.33,-775.95 142.36,-781.5 138.76,-771.53 133.33,-775.95"/>
</g>
<!-- Node14 -->
<g id="node14" class="node">
<title>Node14</title>
<g id="a_node14"><a xlink:href="parameters_8h.html" target="_top" xlink:title=" ">
<polygon fill="white" stroke="black" points="170.5,-725.5 170.5,-744.5 321.5,-744.5 321.5,-725.5 170.5,-725.5"/>
<text text-anchor="middle" x="246" y="-732.5" font-family="Helvetica,sans-Serif" font-size="10.00">include/Types/parameters.h</text>
</a>
</g>
</g>
<!-- Node1&#45;&gt;Node14 -->
<g id="edge16" class="edge">
<title>Node1&#45;&gt;Node14</title>
<path fill="none" stroke="midnightblue" d="M185.17,-775.78C201.29,-765.23 220.33,-752.78 232.76,-744.66"/>
<polygon fill="midnightblue" stroke="midnightblue" points="183.02,-773 176.57,-781.4 186.85,-778.86 183.02,-773"/>
</g>
<!-- Node3 -->
<g id="node3" class="node">
<title>Node3</title>
<g id="a_node3"><a xlink:href="butcher_8h.html" target="_top" xlink:title=" ">
<polygon fill="white" stroke="black" points="184,-268.5 184,-287.5 324,-287.5 324,-268.5 184,-268.5"/>
<text text-anchor="middle" x="254" y="-275.5" font-family="Helvetica,sans-Serif" font-size="10.00">include/Butcher/butcher.h</text>
</a>
</g>
</g>
<!-- Node2&#45;&gt;Node3 -->
<g id="edge2" class="edge">
<title>Node2&#45;&gt;Node3</title>
<path fill="none" stroke="midnightblue" d="M118.73,-321.36C154.08,-310.29 198.54,-296.37 226.63,-287.57"/>
<polygon fill="midnightblue" stroke="midnightblue" points="117.52,-318.07 109.03,-324.4 119.62,-324.75 117.52,-318.07"/>
</g>
<!-- Node9 -->
<g id="node9" class="node">
<title>Node9</title>
<g id="a_node9"><a xlink:href="network__butcher_8h.html" target="_top" xlink:title=" ">
<polygon fill="white" stroke="black" points="74.5,-56.5 74.5,-75.5 219.5,-75.5 219.5,-56.5 74.5,-56.5"/>
<text text-anchor="middle" x="147" y="-63.5" font-family="Helvetica,sans-Serif" font-size="10.00">include/network_butcher.h</text>
</a>
</g>
</g>
<!-- Node2&#45;&gt;Node9 -->
<g id="edge15" class="edge">
<title>Node2&#45;&gt;Node9</title>
<path fill="none" stroke="midnightblue" d="M71.32,-314.57C88.96,-256.86 133.22,-112.09 144.4,-75.5"/>
<polygon fill="midnightblue" stroke="midnightblue" points="67.92,-313.7 68.35,-324.29 74.62,-315.75 67.92,-313.7"/>
</g>
<!-- Node4 -->
<g id="node4" class="node">
<title>Node4</title>
<g id="a_node4"><a xlink:href="onnx__importer__helpers_8h.html" target="_top" xlink:title=" ">
<polygon fill="white" stroke="black" points="458.5,-196 458.5,-226 599.5,-226 599.5,-196 458.5,-196"/>
<text text-anchor="start" x="466.5" y="-214" font-family="Helvetica,sans-Serif" font-size="10.00">include/IO_Interaction</text>
<text text-anchor="middle" x="529" y="-203" font-family="Helvetica,sans-Serif" font-size="10.00">/onnx_importer_helpers.h</text>
</a>
</g>
</g>
<!-- Node3&#45;&gt;Node4 -->
<g id="edge3" class="edge">
<title>Node3&#45;&gt;Node4</title>
<path fill="none" stroke="midnightblue" d="M300.05,-266.12C346.58,-255.12 418.68,-238.08 469.52,-226.06"/>
<polygon fill="midnightblue" stroke="midnightblue" points="299.16,-262.73 290.23,-268.44 300.77,-269.54 299.16,-262.73"/>
</g>
<!-- Node3&#45;&gt;Node9 -->
<g id="edge14" class="edge">
<title>Node3&#45;&gt;Node9</title>
<path fill="none" stroke="midnightblue" d="M214.23,-264.74C198,-257.72 180.6,-247.2 170,-232 135.1,-181.94 142.11,-102.31 145.65,-75.86"/>
<polygon fill="midnightblue" stroke="midnightblue" points="213,-268.01 223.59,-268.47 215.6,-261.51 213,-268.01"/>
</g>
<!-- Node12 -->
<g id="node12" class="node">
<title>Node12</title>
<g id="a_node12"><a xlink:href="onnx__model__reconstructor__helpers_8h.html" target="_top" xlink:title=" ">
<polygon fill="white" stroke="black" points="179.5,-190.5 179.5,-231.5 328.5,-231.5 328.5,-190.5 179.5,-190.5"/>
<text text-anchor="start" x="187.5" y="-219.5" font-family="Helvetica,sans-Serif" font-size="10.00">include/IO_Interaction</text>
<text text-anchor="start" x="187.5" y="-208.5" font-family="Helvetica,sans-Serif" font-size="10.00">/onnx_model_reconstructor</text>
<text text-anchor="middle" x="254" y="-197.5" font-family="Helvetica,sans-Serif" font-size="10.00">_helpers.h</text>
</a>
</g>
</g>
<!-- Node3&#45;&gt;Node12 -->
<g id="edge11" class="edge">
<title>Node3&#45;&gt;Node12</title>
<path fill="none" stroke="midnightblue" d="M254,-258.04C254,-249.71 254,-239.94 254,-231.54"/>
<polygon fill="midnightblue" stroke="midnightblue" points="250.5,-258.23 254,-268.23 257.5,-258.23 250.5,-258.23"/>
</g>
<!-- Node5 -->
<g id="node5" class="node">
<title>Node5</title>
<g id="a_node5"><a xlink:href="io__manager_8h.html" target="_top" xlink:title=" ">
<polygon fill="white" stroke="black" points="341.5,-123.5 341.5,-142.5 462.5,-142.5 462.5,-123.5 341.5,-123.5"/>
<text text-anchor="middle" x="402" y="-130.5" font-family="Helvetica,sans-Serif" font-size="10.00">include/io_manager.h</text>
</a>
</g>
</g>
<!-- Node4&#45;&gt;Node5 -->
<g id="edge4" class="edge">
<title>Node4&#45;&gt;Node5</title>
<path fill="none" stroke="midnightblue" d="M496.68,-190.66C470.82,-175.18 435.76,-154.2 416.38,-142.61"/>
<polygon fill="midnightblue" stroke="midnightblue" points="495.03,-193.75 505.41,-195.88 498.63,-187.74 495.03,-193.75"/>
</g>
<!-- Node11 -->
<g id="node11" class="node">
<title>Node11</title>
<g id="a_node11"><a xlink:href="onnx__importer__helpers_8cpp.html" target="_top" xlink:title=" ">
<polygon fill="white" stroke="black" points="481,-118 481,-148 633,-148 633,-118 481,-118"/>
<text text-anchor="start" x="489" y="-136" font-family="Helvetica,sans-Serif" font-size="10.00">src/IO_Interaction</text>
<text text-anchor="middle" x="557" y="-125" font-family="Helvetica,sans-Serif" font-size="10.00">/onnx_importer_helpers.cpp</text>
</a>
</g>
</g>
<!-- Node4&#45;&gt;Node11 -->
<g id="edge10" class="edge">
<title>Node4&#45;&gt;Node11</title>
<path fill="none" stroke="midnightblue" d="M537.86,-185.96C542.43,-173.55 547.85,-158.83 551.76,-148.23"/>
<polygon fill="midnightblue" stroke="midnightblue" points="534.44,-185.11 534.27,-195.7 541.01,-187.53 534.44,-185.11"/>
</g>
<!-- Node6 -->
<g id="node6" class="node">
<title>Node6</title>
<g id="a_node6"><a xlink:href="general__manager_8h.html" target="_top" xlink:title=" ">
<polygon fill="white" stroke="black" points="420.5,-56.5 420.5,-75.5 569.5,-75.5 569.5,-56.5 420.5,-56.5"/>
<text text-anchor="middle" x="495" y="-63.5" font-family="Helvetica,sans-Serif" font-size="10.00">include/general_manager.h</text>
</a>
</g>
</g>
<!-- Node5&#45;&gt;Node6 -->
<g id="edge5" class="edge">
<title>Node5&#45;&gt;Node6</title>
<path fill="none" stroke="midnightblue" d="M422.86,-117.42C441.25,-104.57 467.41,-86.28 482.66,-75.63"/>
<polygon fill="midnightblue" stroke="midnightblue" points="420.73,-114.64 414.54,-123.23 424.74,-120.37 420.73,-114.64"/>
</g>
<!-- Node5&#45;&gt;Node9 -->
<g id="edge8" class="edge">
<title>Node5&#45;&gt;Node9</title>
<path fill="none" stroke="midnightblue" d="M363.29,-120.64C353.13,-117.74 342.17,-114.69 332,-112 280.87,-98.48 221.39,-84.28 183.96,-75.54"/>
<polygon fill="midnightblue" stroke="midnightblue" points="362.54,-124.07 373.12,-123.47 364.48,-117.34 362.54,-124.07"/>
</g>
<!-- Node10 -->
<g id="node10" class="node">
<title>Node10</title>
<g id="a_node10"><a xlink:href="io__manager_8cpp.html" target="_top" xlink:title=" ">
<polygon fill="white" stroke="black" points="291.5,-56.5 291.5,-75.5 402.5,-75.5 402.5,-56.5 291.5,-56.5"/>
<text text-anchor="middle" x="347" y="-63.5" font-family="Helvetica,sans-Serif" font-size="10.00">src/io_manager.cpp</text>
</a>
</g>
</g>
<!-- Node5&#45;&gt;Node10 -->
<g id="edge9" class="edge">
<title>Node5&#45;&gt;Node10</title>
<path fill="none" stroke="midnightblue" d="M387.84,-115.27C377.12,-102.6 362.82,-85.7 354.3,-75.63"/>
<polygon fill="midnightblue" stroke="midnightblue" points="385.45,-117.86 394.58,-123.23 390.79,-113.34 385.45,-117.86"/>
</g>
<!-- Node7 -->
<g id="node7" class="node">
<title>Node7</title>
<g id="a_node7"><a xlink:href="main_8cpp.html" target="_top" xlink:title=" ">
<polygon fill="white" stroke="black" points="391.5,-0.5 391.5,-19.5 470.5,-19.5 470.5,-0.5 391.5,-0.5"/>
<text text-anchor="middle" x="431" y="-7.5" font-family="Helvetica,sans-Serif" font-size="10.00">src/main.cpp</text>
</a>
</g>
</g>
<!-- Node6&#45;&gt;Node7 -->
<g id="edge6" class="edge">
<title>Node6&#45;&gt;Node7</title>
<path fill="none" stroke="midnightblue" d="M477.01,-49.82C465.54,-40.15 451.09,-27.95 441.47,-19.83"/>
<polygon fill="midnightblue" stroke="midnightblue" points="474.82,-52.55 484.72,-56.32 479.33,-47.2 474.82,-52.55"/>
</g>
<!-- Node8 -->
<g id="node8" class="node">
<title>Node8</title>
<g id="a_node8"><a xlink:href="general__manager_8cpp.html" target="_top" xlink:title=" ">
<polygon fill="white" stroke="black" points="488.5,-0.5 488.5,-19.5 627.5,-19.5 627.5,-0.5 488.5,-0.5"/>
<text text-anchor="middle" x="558" y="-7.5" font-family="Helvetica,sans-Serif" font-size="10.00">src/general_manager.cpp</text>
</a>
</g>
</g>
<!-- Node6&#45;&gt;Node8 -->
<g id="edge7" class="edge">
<title>Node6&#45;&gt;Node8</title>
<path fill="none" stroke="midnightblue" d="M513.04,-49.54C524.27,-39.91 538.32,-27.87 547.69,-19.83"/>
<polygon fill="midnightblue" stroke="midnightblue" points="510.44,-47.16 505.12,-56.32 514.99,-52.47 510.44,-47.16"/>
</g>
<!-- Node12&#45;&gt;Node5 -->
<g id="edge12" class="edge">
<title>Node12&#45;&gt;Node5</title>
<path fill="none" stroke="midnightblue" d="M301.22,-185.75C330.02,-170.96 365.09,-152.96 385.35,-142.55"/>
<polygon fill="midnightblue" stroke="midnightblue" points="299.41,-182.75 292.11,-190.43 302.61,-188.97 299.41,-182.75"/>
</g>
<!-- Node13 -->
<g id="node13" class="node">
<title>Node13</title>
<g id="a_node13"><a xlink:href="onnx__model__reconstructor__helpers_8cpp.html" target="_top" xlink:title=" ">
<polygon fill="white" stroke="black" points="174.5,-112.5 174.5,-153.5 323.5,-153.5 323.5,-112.5 174.5,-112.5"/>
<text text-anchor="start" x="182.5" y="-141.5" font-family="Helvetica,sans-Serif" font-size="10.00">src/IO_Interaction</text>
<text text-anchor="start" x="182.5" y="-130.5" font-family="Helvetica,sans-Serif" font-size="10.00">/onnx_model_reconstructor</text>
<text text-anchor="middle" x="249" y="-119.5" font-family="Helvetica,sans-Serif" font-size="10.00">_helpers.cpp</text>
</a>
</g>
</g>
<!-- Node12&#45;&gt;Node13 -->
<g id="edge13" class="edge">
<title>Node12&#45;&gt;Node13</title>
<path fill="none" stroke="midnightblue" d="M252.05,-180.3C251.45,-171.3 250.82,-161.65 250.28,-153.51"/>
<polygon fill="midnightblue" stroke="midnightblue" points="248.56,-180.68 252.71,-190.43 255.55,-180.22 248.56,-180.68"/>
</g>
<!-- Node14&#45;&gt;Node3 -->
<g id="edge17" class="edge">
<title>Node14&#45;&gt;Node3</title>
<path fill="none" stroke="midnightblue" d="M227.85,-718.51C201.57,-694.23 156,-644.43 156,-591 156,-591 156,-591 156,-416.5 156,-374.53 150.35,-357.97 175,-324 187.79,-306.37 209.75,-294.67 227.27,-287.63"/>
<polygon fill="midnightblue" stroke="midnightblue" points="225.54,-721.13 235.32,-725.2 230.21,-715.92 225.54,-721.13"/>
</g>
<!-- Node14&#45;&gt;Node4 -->
<g id="edge21" class="edge">
<title>Node14&#45;&gt;Node4</title>
<path fill="none" stroke="midnightblue" d="M331.55,-728.22C379.05,-722.55 438.21,-711.3 487,-689 550.57,-659.95 610,-660.9 610,-591 610,-591 610,-591 610,-338.5 610,-291.3 569.51,-247.61 545.78,-226.06"/>
<polygon fill="midnightblue" stroke="midnightblue" points="331.14,-724.75 321.6,-729.35 331.93,-731.7 331.14,-724.75"/>
</g>
<!-- Node15 -->
<g id="node15" class="node">
<title>Node15</title>
<g id="a_node15"><a xlink:href="graph__constraint_8h.html" target="_top" xlink:title=" ">
<polygon fill="white" stroke="black" points="184.5,-575 184.5,-605 307.5,-605 307.5,-575 184.5,-575"/>
<text text-anchor="start" x="192.5" y="-593" font-family="Helvetica,sans-Serif" font-size="10.00">include/Butcher/graph</text>
<text text-anchor="middle" x="246" y="-582" font-family="Helvetica,sans-Serif" font-size="10.00">_constraint.h</text>
</a>
</g>
</g>
<!-- Node14&#45;&gt;Node15 -->
<g id="edge18" class="edge">
<title>Node14&#45;&gt;Node15</title>
<path fill="none" stroke="midnightblue" d="M246,-715.12C246,-686.15 246,-631.35 246,-605.36"/>
<polygon fill="midnightblue" stroke="midnightblue" points="242.5,-715.48 246,-725.48 249.5,-715.48 242.5,-715.48"/>
</g>
<!-- Node17 -->
<g id="node17" class="node">
<title>Node17</title>
<g id="a_node17"><a xlink:href="weight__importer_8h.html" target="_top" xlink:title=" ">
<polygon fill="white" stroke="black" points="334.5,-647.5 334.5,-688.5 477.5,-688.5 477.5,-647.5 334.5,-647.5"/>
<text text-anchor="start" x="342.5" y="-676.5" font-family="Helvetica,sans-Serif" font-size="10.00">include/IO_Interaction</text>
<text text-anchor="start" x="342.5" y="-665.5" font-family="Helvetica,sans-Serif" font-size="10.00">/Weight_Importer_Helpers</text>
<text text-anchor="middle" x="406" y="-654.5" font-family="Helvetica,sans-Serif" font-size="10.00">/weight_importer.h</text>
</a>
</g>
</g>
<!-- Node14&#45;&gt;Node17 -->
<g id="edge22" class="edge">
<title>Node14&#45;&gt;Node17</title>
<path fill="none" stroke="midnightblue" d="M276.79,-721.49C299.7,-712.18 331.42,-699.3 357.69,-688.63"/>
<polygon fill="midnightblue" stroke="midnightblue" points="275.19,-718.36 267.25,-725.37 277.83,-724.85 275.19,-718.36"/>
</g>
<!-- Node16 -->
<g id="node16" class="node">
<title>Node16</title>
<g id="a_node16"><a xlink:href="constrained__block__graph__builder_8h.html" target="_top" xlink:title=" ">
<polygon fill="white" stroke="black" points="184,-324.5 184,-354.5 336,-354.5 336,-324.5 184,-324.5"/>
<text text-anchor="start" x="192" y="-342.5" font-family="Helvetica,sans-Serif" font-size="10.00">include/Butcher/constrained</text>
<text text-anchor="middle" x="260" y="-331.5" font-family="Helvetica,sans-Serif" font-size="10.00">_block_graph_builder.h</text>
</a>
</g>
</g>
<!-- Node15&#45;&gt;Node16 -->
<g id="edge19" class="edge">
<title>Node15&#45;&gt;Node16</title>
<path fill="none" stroke="midnightblue" d="M234.94,-565.25C230.97,-555.48 226.98,-543.92 225,-533 212.88,-466.15 241.06,-386.26 253.97,-354.51"/>
<polygon fill="midnightblue" stroke="midnightblue" points="231.83,-566.87 238.99,-574.67 238.26,-564.1 231.83,-566.87"/>
</g>
<!-- Node16&#45;&gt;Node3 -->
<g id="edge20" class="edge">
<title>Node16&#45;&gt;Node3</title>
<path fill="none" stroke="midnightblue" d="M257.56,-314.29C256.61,-304.86 255.58,-294.65 254.87,-287.66"/>
<polygon fill="midnightblue" stroke="midnightblue" points="254.09,-314.8 258.58,-324.4 261.06,-314.1 254.09,-314.8"/>
</g>
<!-- Node18 -->
<g id="node18" class="node">
<title>Node18</title>
<g id="a_node18"><a xlink:href="block__aMLLibrary__weight__importer_8h.html" target="_top" xlink:title=" ">
<polygon fill="white" stroke="black" points="434.5,-480.5 434.5,-532.5 577.5,-532.5 577.5,-480.5 434.5,-480.5"/>
<text text-anchor="start" x="442.5" y="-520.5" font-family="Helvetica,sans-Serif" font-size="10.00">include/IO_Interaction</text>
<text text-anchor="start" x="442.5" y="-509.5" font-family="Helvetica,sans-Serif" font-size="10.00">/Weight_Importer_Helpers</text>
<text text-anchor="start" x="442.5" y="-498.5" font-family="Helvetica,sans-Serif" font-size="10.00">/block_aMLLibrary_weight</text>
<text text-anchor="middle" x="506" y="-487.5" font-family="Helvetica,sans-Serif" font-size="10.00">_importer.h</text>
</a>
</g>
</g>
<!-- Node17&#45;&gt;Node18 -->
<g id="edge23" class="edge">
<title>Node17&#45;&gt;Node18</title>
<path fill="none" stroke="midnightblue" d="M455.8,-641.61C467.67,-633.36 479.16,-623.13 487,-611 502.17,-587.52 505.99,-555.14 506.62,-532.88"/>
<polygon fill="midnightblue" stroke="midnightblue" points="453.59,-638.87 447.13,-647.27 457.42,-644.73 453.59,-638.87"/>
</g>
<!-- Node21 -->
<g id="node21" class="node">
<title>Node21</title>
<g id="a_node21"><a xlink:href="csv__weight__importer_8h.html" target="_top" xlink:title=" ">
<polygon fill="white" stroke="black" points="334.5,-569.5 334.5,-610.5 477.5,-610.5 477.5,-569.5 334.5,-569.5"/>
<text text-anchor="start" x="342.5" y="-598.5" font-family="Helvetica,sans-Serif" font-size="10.00">include/IO_Interaction</text>
<text text-anchor="start" x="342.5" y="-587.5" font-family="Helvetica,sans-Serif" font-size="10.00">/Weight_Importer_Helpers</text>
<text text-anchor="middle" x="406" y="-576.5" font-family="Helvetica,sans-Serif" font-size="10.00">/csv_weight_importer.h</text>
</a>
</g>
</g>
<!-- Node17&#45;&gt;Node21 -->
<g id="edge29" class="edge">
<title>Node17&#45;&gt;Node21</title>
<path fill="none" stroke="midnightblue" d="M406,-637.3C406,-628.3 406,-618.65 406,-610.51"/>
<polygon fill="midnightblue" stroke="midnightblue" points="402.5,-637.43 406,-647.43 409.5,-637.43 402.5,-637.43"/>
</g>
<!-- Node19 -->
<g id="node19" class="node">
<title>Node19</title>
<g id="a_node19"><a xlink:href="weight__importers_8h.html" target="_top" xlink:title=" ">
<polygon fill="white" stroke="black" points="297.5,-402.5 297.5,-432.5 420.5,-432.5 420.5,-402.5 297.5,-402.5"/>
<text text-anchor="start" x="305.5" y="-420.5" font-family="Helvetica,sans-Serif" font-size="10.00">include/IO_Interaction</text>
<text text-anchor="middle" x="359" y="-409.5" font-family="Helvetica,sans-Serif" font-size="10.00">/weight_importers.h</text>
</a>
</g>
</g>
<!-- Node18&#45;&gt;Node19 -->
<g id="edge24" class="edge">
<title>Node18&#45;&gt;Node19</title>
<path fill="none" stroke="midnightblue" d="M454.65,-475.11C430.16,-460.62 402.06,-443.98 382.68,-432.52"/>
<polygon fill="midnightblue" stroke="midnightblue" points="453.09,-478.25 463.48,-480.34 456.66,-472.23 453.09,-478.25"/>
</g>
<!-- Node20 -->
<g id="node20" class="node">
<title>Node20</title>
<g id="a_node20"><a xlink:href="block__aMLLibrary__weight__importer_8cpp.html" target="_top" xlink:title=" ">
<polygon fill="white" stroke="black" points="438.5,-391.5 438.5,-443.5 581.5,-443.5 581.5,-391.5 438.5,-391.5"/>
<text text-anchor="start" x="446.5" y="-431.5" font-family="Helvetica,sans-Serif" font-size="10.00">src/IO_Interaction</text>
<text text-anchor="start" x="446.5" y="-420.5" font-family="Helvetica,sans-Serif" font-size="10.00">/Weight_Importer_Helpers</text>
<text text-anchor="start" x="446.5" y="-409.5" font-family="Helvetica,sans-Serif" font-size="10.00">/block_aMLLibrary_weight</text>
<text text-anchor="middle" x="510" y="-398.5" font-family="Helvetica,sans-Serif" font-size="10.00">_importer.cpp</text>
</a>
</g>
</g>
<!-- Node18&#45;&gt;Node20 -->
<g id="edge28" class="edge">
<title>Node18&#45;&gt;Node20</title>
<path fill="none" stroke="midnightblue" d="M507.62,-470.19C508.03,-461.28 508.46,-451.9 508.85,-443.61"/>
<polygon fill="midnightblue" stroke="midnightblue" points="504.12,-470.19 507.16,-480.34 511.11,-470.51 504.12,-470.19"/>
</g>
<!-- Node19&#45;&gt;Node3 -->
<g id="edge26" class="edge">
<title>Node19&#45;&gt;Node3</title>
<path fill="none" stroke="midnightblue" d="M361.18,-392.25C361.71,-372.12 359.39,-343.7 345,-324 331.49,-305.5 308.23,-294.18 288.61,-287.53"/>
<polygon fill="midnightblue" stroke="midnightblue" points="357.67,-392.3 360.64,-402.47 364.66,-392.67 357.67,-392.3"/>
</g>
<!-- Node19&#45;&gt;Node5 -->
<g id="edge27" class="edge">
<title>Node19&#45;&gt;Node5</title>
<path fill="none" stroke="midnightblue" d="M362.65,-392.5C371.71,-332.98 394.91,-180.59 400.68,-142.65"/>
<polygon fill="midnightblue" stroke="midnightblue" points="359.18,-392.08 361.13,-402.49 366.1,-393.13 359.18,-392.08"/>
</g>
<!-- Node19&#45;&gt;Node16 -->
<g id="edge25" class="edge">
<title>Node19&#45;&gt;Node16</title>
<path fill="none" stroke="midnightblue" d="M332.44,-396.11C315.41,-383.04 293.72,-366.39 278.54,-354.73"/>
<polygon fill="midnightblue" stroke="midnightblue" points="330.32,-398.89 340.38,-402.2 334.58,-393.34 330.32,-398.89"/>
</g>
<!-- Node21&#45;&gt;Node18 -->
<g id="edge30" class="edge">
<title>Node21&#45;&gt;Node18</title>
<path fill="none" stroke="midnightblue" d="M437.89,-563.01C449.78,-553.32 463.24,-542.35 475.05,-532.73"/>
<polygon fill="midnightblue" stroke="midnightblue" points="435.49,-560.45 429.95,-569.48 439.92,-565.87 435.49,-560.45"/>
</g>
<!-- Node21&#45;&gt;Node19 -->
<g id="edge31" class="edge">
<title>Node21&#45;&gt;Node19</title>
<path fill="none" stroke="midnightblue" d="M402.89,-559.22C400.07,-537.03 395.1,-506.18 387,-480 381.8,-463.19 373.08,-444.96 366.75,-432.75"/>
<polygon fill="midnightblue" stroke="midnightblue" points="399.44,-559.84 404.1,-569.35 406.39,-559.01 399.44,-559.84"/>
</g>
<!-- Node22 -->
<g id="node22" class="node">
<title>Node22</title>
<g id="a_node22"><a xlink:href="csv__weight__importer_8cpp.html" target="_top" xlink:title=" ">
<polygon fill="white" stroke="black" points="234.5,-486 234.5,-527 377.5,-527 377.5,-486 234.5,-486"/>
<text text-anchor="start" x="242.5" y="-515" font-family="Helvetica,sans-Serif" font-size="10.00">src/IO_Interaction</text>
<text text-anchor="start" x="242.5" y="-504" font-family="Helvetica,sans-Serif" font-size="10.00">/Weight_Importer_Helpers</text>
<text text-anchor="middle" x="306" y="-493" font-family="Helvetica,sans-Serif" font-size="10.00">/csv_weight_importer.cpp</text>
</a>
</g>
</g>
<!-- Node21&#45;&gt;Node22 -->
<g id="edge32" class="edge">
<title>Node21&#45;&gt;Node22</title>
<path fill="none" stroke="midnightblue" d="M373.97,-562.89C359.74,-551.3 343.27,-537.87 330.1,-527.14"/>
<polygon fill="midnightblue" stroke="midnightblue" points="372.08,-565.87 382.05,-569.48 376.51,-560.45 372.08,-565.87"/>
</g>
</g>
</svg>
        <g id="navigator" transform="translate(0 0)" fill="#404254">
                <rect fill="#f2f5e9" fill-opacity="0.5" stroke="#606060" stroke-width=".5" x="0" y="0" width="60" height="60"/>
                <use id="zoomplus" xlink:href="#zoomPlus" x="17" y="9" onmousedown="handleZoom(evt,'in')"/>
                <use id="zoomminus" xlink:href="#zoomMin" x="42" y="9" onmousedown="handleZoom(evt,'out')"/>
                <use id="reset" xlink:href="#resetDef" x="30" y="36" onmousedown="handleReset()"/>
                <g id="arrowUp" xlink:href="#dirArrow" transform="translate(30 24)" onmousedown="handlePan(0,-1)">
                  <use xlink:href="#rim" fill="#404040">
                        <set attributeName="fill" to="#808080" begin="arrowUp.mouseover" end="arrowUp.mouseout"/>
                  </use>
                  <path fill="none" stroke="white" stroke-width="1.5" d="M0,-3.0v7 M-2.5,-0.5L0,-3.0L2.5,-0.5"/>
                </g>
                <g id="arrowRight" xlink:href="#dirArrow" transform="rotate(90) translate(36 -43)" onmousedown="handlePan(1,0)">
                  <use xlink:href="#rim" fill="#404040">
                        <set attributeName="fill" to="#808080" begin="arrowRight.mouseover" end="arrowRight.mouseout"/>
                  </use>
                  <path fill="none" stroke="white" stroke-width="1.5" d="M0,-3.0v7 M-2.5,-0.5L0,-3.0L2.5,-0.5"/>
                </g>
                <g id="arrowDown" xlink:href="#dirArrow" transform="rotate(180) translate(-30 -48)" onmousedown="handlePan(0,1)">
                  <use xlink:href="#rim" fill="#404040">
                        <set attributeName="fill" to="#808080" begin="arrowDown.mouseover" end="arrowDown.mouseout"/>
                  </use>
                  <path fill="none" stroke="white" stroke-width="1.5" d="M0,-3.0v7 M-2.5,-0.5L0,-3.0L2.5,-0.5"/>
                </g>
                <g id="arrowLeft" xlink:href="#dirArrow" transform="rotate(270) translate(-36 17)" onmousedown="handlePan(-1,0)">
                  <use xlink:href="#rim" fill="#404040">
                        <set attributeName="fill" to="#808080" begin="arrowLeft.mouseover" end="arrowLeft.mouseout"/>
                  </use>
                  <path fill="none" stroke="white" stroke-width="1.5" d="M0,-3.0v7 M-2.5,-0.5L0,-3.0L2.5,-0.5"/>
                </g>
        </g>
        <svg viewBox="0 0 15 15" width="100%" height="30px" preserveAspectRatio="xMaxYMin meet">
         <g id="arrow_out" transform="scale(0.3 0.3)">
          <a xlink:href="ksp__method_8h__dep__incl_org.svg" target="_base">
           <rect id="button" ry="5" rx="5" y="6" x="6" height="38" width="38"
                fill="#f2f5e9" fill-opacity="0.5" stroke="#606060" stroke-width="1.0"/>
           <path id="arrow"
             d="M 11.500037,31.436501 C 11.940474,20.09759 22.043105,11.32322 32.158766,21.979434 L 37.068811,17.246167 C 37.068811,17.246167 37.088388,32 37.088388,32 L 22.160133,31.978069 C 22.160133,31.978069 26.997745,27.140456 26.997745,27.140456 C 18.528582,18.264221 13.291696,25.230495 11.500037,31.436501 z"
             style="fill:#404040;"/>
          </a>
         </g>
        </svg>
</svg>
