<?xml version="1.0" encoding="UTF-8" standalone="no"?>
<!DOCTYPE svg PUBLIC "-//W3C//DTD SVG 1.1//EN"
 "http://www.w3.org/Graphics/SVG/1.1/DTD/svg11.dtd">
<!-- Generated by graphviz version 2.43.0 (0)
 -->
<!-- Title: include/Network/mwgraph.h Pages: 1 -->
<svg width="923pt" height="476pt"
 viewBox="0.00 0.00 923.00 476.00" xmlns="http://www.w3.org/2000/svg" xmlns:xlink="http://www.w3.org/1999/xlink">
<g id="graph0" class="graph" transform="scale(1 1) rotate(0) translate(4 472)">
<title>include/Network/mwgraph.h</title>
<polygon fill="white" stroke="transparent" points="-4,4 -4,-472 919,-472 919,4 -4,4"/>
<!-- Node1 -->
<g id="node1" class="node">
<title>Node1</title>
<g id="a_node1"><a xlink:title=" ">
<polygon fill="#bfbfbf" stroke="black" points="312,-448.5 312,-467.5 466,-467.5 466,-448.5 312,-448.5"/>
<text text-anchor="middle" x="389" y="-455.5" font-family="Helvetica,sans-Serif" font-size="10.00">include/Network/mwgraph.h</text>
</a>
</g>
</g>
<!-- Node2 -->
<g id="node2" class="node">
<title>Node2</title>
<g id="a_node2"><a xlink:href="graph_8h.html" target="_top" xlink:title=" ">
<polygon fill="white" stroke="black" points="362.5,-392.5 362.5,-411.5 415.5,-411.5 415.5,-392.5 362.5,-392.5"/>
<text text-anchor="middle" x="389" y="-399.5" font-family="Helvetica,sans-Serif" font-size="10.00">graph.h</text>
</a>
</g>
</g>
<!-- Node1&#45;&gt;Node2 -->
<g id="edge1" class="edge">
<title>Node1&#45;&gt;Node2</title>
<path fill="none" stroke="midnightblue" d="M389,-448.08C389,-441.01 389,-430.86 389,-421.99"/>
<polygon fill="midnightblue" stroke="midnightblue" points="392.5,-421.75 389,-411.75 385.5,-421.75 392.5,-421.75"/>
</g>
<!-- Node3 -->
<g id="node3" class="node">
<title>Node3</title>
<g id="a_node3"><a xlink:title=" ">
<polygon fill="white" stroke="#bfbfbf" points="250,-112.5 250,-131.5 314,-131.5 314,-112.5 250,-112.5"/>
<text text-anchor="middle" x="282" y="-119.5" font-family="Helvetica,sans-Serif" font-size="10.00">algorithm</text>
</a>
</g>
</g>
<!-- Node2&#45;&gt;Node3 -->
<g id="edge2" class="edge">
<title>Node2&#45;&gt;Node3</title>
<path fill="none" stroke="midnightblue" d="M362.28,-399.51C330.59,-396.35 278.04,-386.51 246,-356 223.7,-334.76 222,-321.8 222,-291 222,-291 222,-291 222,-233 222,-195.88 248.65,-159.38 266.43,-139.16"/>
<polygon fill="midnightblue" stroke="midnightblue" points="269.24,-141.28 273.4,-131.53 264.07,-136.55 269.24,-141.28"/>
</g>
<!-- Node4 -->
<g id="node4" class="node">
<title>Node4</title>
<g id="a_node4"><a xlink:title=" ">
<polygon fill="white" stroke="#bfbfbf" points="332,-112.5 332,-131.5 388,-131.5 388,-112.5 332,-112.5"/>
<text text-anchor="middle" x="360" y="-119.5" font-family="Helvetica,sans-Serif" font-size="10.00">numeric</text>
</a>
</g>
</g>
<!-- Node2&#45;&gt;Node4 -->
<g id="edge3" class="edge">
<title>Node2&#45;&gt;Node4</title>
<path fill="none" stroke="midnightblue" d="M385.09,-392.36C377.17,-374.07 360,-329.91 360,-291 360,-291 360,-291 360,-233 360,-200.95 360,-163.64 360,-141.75"/>
<polygon fill="midnightblue" stroke="midnightblue" points="363.5,-141.56 360,-131.56 356.5,-141.56 363.5,-141.56"/>
</g>
<!-- Node5 -->
<g id="node5" class="node">
<title>Node5</title>
<g id="a_node5"><a xlink:title=" ">
<polygon fill="white" stroke="#bfbfbf" points="542.5,-224.5 542.5,-243.5 587.5,-243.5 587.5,-224.5 542.5,-224.5"/>
<text text-anchor="middle" x="565" y="-231.5" font-family="Helvetica,sans-Serif" font-size="10.00">utility</text>
</a>
</g>
</g>
<!-- Node2&#45;&gt;Node5 -->
<g id="edge4" class="edge">
<title>Node2&#45;&gt;Node5</title>
<path fill="none" stroke="midnightblue" d="M398.46,-392.08C427.01,-365.15 512.5,-284.51 548.62,-250.45"/>
<polygon fill="midnightblue" stroke="midnightblue" points="551.04,-252.98 555.92,-243.57 546.24,-247.88 551.04,-252.98"/>
</g>
<!-- Node6 -->
<g id="node6" class="node">
<title>Node6</title>
<g id="a_node6"><a xlink:title=" ">
<polygon fill="white" stroke="#bfbfbf" points="87.5,-0.5 87.5,-19.5 134.5,-19.5 134.5,-0.5 87.5,-0.5"/>
<text text-anchor="middle" x="111" y="-7.5" font-family="Helvetica,sans-Serif" font-size="10.00">vector</text>
</a>
</g>
</g>
<!-- Node2&#45;&gt;Node6 -->
<g id="edge5" class="edge">
<title>Node2&#45;&gt;Node6</title>
<path fill="none" stroke="midnightblue" d="M362.26,-399.24C274.38,-392.75 0,-366.45 0,-291 0,-291 0,-291 0,-121 0,-74.82 49.06,-41.43 81.95,-24.23"/>
<polygon fill="midnightblue" stroke="midnightblue" points="83.79,-27.22 91.16,-19.61 80.65,-20.96 83.79,-27.22"/>
</g>
<!-- Node7 -->
<g id="node7" class="node">
<title>Node7</title>
<g id="a_node7"><a xlink:title=" ">
<polygon fill="white" stroke="#bfbfbf" points="383.5,-56.5 383.5,-75.5 448.5,-75.5 448.5,-56.5 383.5,-56.5"/>
<text text-anchor="middle" x="416" y="-63.5" font-family="Helvetica,sans-Serif" font-size="10.00">onnx.pb.h</text>
</a>
</g>
</g>
<!-- Node2&#45;&gt;Node7 -->
<g id="edge6" class="edge">
<title>Node2&#45;&gt;Node7</title>
<path fill="none" stroke="midnightblue" d="M363.51,-392.41C325.92,-377.93 260,-344.86 260,-291 260,-291 260,-291 260,-233 260,-178.56 207.64,-155.02 241,-112 257.08,-91.26 326.92,-78.4 373.36,-71.99"/>
<polygon fill="midnightblue" stroke="midnightblue" points="374.01,-75.43 383.46,-70.64 373.09,-68.5 374.01,-75.43"/>
</g>
<!-- Node8 -->
<g id="node8" class="node">
<title>Node8</title>
<g id="a_node8"><a xlink:href="content_8h.html" target="_top" xlink:title=" ">
<polygon fill="white" stroke="black" points="388,-280.5 388,-299.5 450,-299.5 450,-280.5 388,-280.5"/>
<text text-anchor="middle" x="419" y="-287.5" font-family="Helvetica,sans-Serif" font-size="10.00">content.h</text>
</a>
</g>
</g>
<!-- Node2&#45;&gt;Node8 -->
<g id="edge7" class="edge">
<title>Node2&#45;&gt;Node8</title>
<path fill="none" stroke="midnightblue" d="M391.35,-392.37C396.22,-374.54 407.46,-333.3 414.02,-309.27"/>
<polygon fill="midnightblue" stroke="midnightblue" points="417.4,-310.16 416.66,-299.59 410.65,-308.32 417.4,-310.16"/>
</g>
<!-- Node23 -->
<g id="node23" class="node">
<title>Node23</title>
<g id="a_node23"><a xlink:href="node_8h.html" target="_top" xlink:title=" ">
<polygon fill="white" stroke="black" points="546,-280.5 546,-299.5 596,-299.5 596,-280.5 546,-280.5"/>
<text text-anchor="middle" x="571" y="-287.5" font-family="Helvetica,sans-Serif" font-size="10.00">node.h</text>
</a>
</g>
</g>
<!-- Node2&#45;&gt;Node23 -->
<g id="edge35" class="edge">
<title>Node2&#45;&gt;Node23</title>
<path fill="none" stroke="midnightblue" d="M413.67,-392.43C435.15,-384.46 466.72,-371.51 492,-356 515.25,-341.74 539.03,-321.2 554.34,-307.04"/>
<polygon fill="midnightblue" stroke="midnightblue" points="557.03,-309.32 561.92,-299.92 552.24,-304.22 557.03,-309.32"/>
</g>
<!-- Node24 -->
<g id="node24" class="node">
<title>Node24</title>
<g id="a_node24"><a xlink:href="node__traits_8h.html" target="_top" xlink:title=" ">
<polygon fill="white" stroke="black" points="544,-336.5 544,-355.5 624,-355.5 624,-336.5 544,-336.5"/>
<text text-anchor="middle" x="584" y="-343.5" font-family="Helvetica,sans-Serif" font-size="10.00">node_traits.h</text>
</a>
</g>
</g>
<!-- Node2&#45;&gt;Node24 -->
<g id="edge40" class="edge">
<title>Node2&#45;&gt;Node24</title>
<path fill="none" stroke="midnightblue" d="M415.71,-393.6C448.64,-384.48 504.97,-368.89 543.31,-358.27"/>
<polygon fill="midnightblue" stroke="midnightblue" points="544.42,-361.59 553.12,-355.55 542.55,-354.85 544.42,-361.59"/>
</g>
<!-- Node9 -->
<g id="node9" class="node">
<title>Node9</title>
<g id="a_node9"><a xlink:href="dense__tensor_8h.html" target="_top" xlink:title=" ">
<polygon fill="white" stroke="black" points="427,-224.5 427,-243.5 517,-243.5 517,-224.5 427,-224.5"/>
<text text-anchor="middle" x="472" y="-231.5" font-family="Helvetica,sans-Serif" font-size="10.00">dense_tensor.h</text>
</a>
</g>
</g>
<!-- Node8&#45;&gt;Node9 -->
<g id="edge8" class="edge">
<title>Node8&#45;&gt;Node9</title>
<path fill="none" stroke="midnightblue" d="M427.75,-280.08C435.47,-272.22 446.9,-260.57 456.22,-251.08"/>
<polygon fill="midnightblue" stroke="midnightblue" points="458.9,-253.34 463.41,-243.75 453.91,-248.44 458.9,-253.34"/>
</g>
<!-- Node13 -->
<g id="node13" class="node">
<title>Node13</title>
<g id="a_node13"><a xlink:href="variant__attribute_8h.html" target="_top" xlink:title=" ">
<polygon fill="white" stroke="black" points="48.5,-168.5 48.5,-187.5 155.5,-187.5 155.5,-168.5 48.5,-168.5"/>
<text text-anchor="middle" x="102" y="-175.5" font-family="Helvetica,sans-Serif" font-size="10.00">variant_attribute.h</text>
</a>
</g>
</g>
<!-- Node8&#45;&gt;Node13 -->
<g id="edge34" class="edge">
<title>Node8&#45;&gt;Node13</title>
<path fill="none" stroke="midnightblue" d="M394.39,-280.46C338.33,-261.01 201.01,-213.36 136.51,-190.98"/>
<polygon fill="midnightblue" stroke="midnightblue" points="137.41,-187.58 126.81,-187.61 135.11,-194.2 137.41,-187.58"/>
</g>
<!-- Node9&#45;&gt;Node6 -->
<g id="edge33" class="edge">
<title>Node9&#45;&gt;Node6</title>
<path fill="none" stroke="midnightblue" d="M444.9,-224.5C400.16,-209.75 309.06,-176.68 241,-132 193.76,-100.99 147.53,-52.36 125.07,-27.24"/>
<polygon fill="midnightblue" stroke="midnightblue" points="127.64,-24.86 118.4,-19.68 122.39,-29.49 127.64,-24.86"/>
</g>
<!-- Node10 -->
<g id="node10" class="node">
<title>Node10</title>
<g id="a_node10"><a xlink:href="type__info_8h.html" target="_top" xlink:title=" ">
<polygon fill="white" stroke="black" points="623.5,-56.5 623.5,-75.5 694.5,-75.5 694.5,-56.5 623.5,-56.5"/>
<text text-anchor="middle" x="659" y="-63.5" font-family="Helvetica,sans-Serif" font-size="10.00">type_info.h</text>
</a>
</g>
</g>
<!-- Node9&#45;&gt;Node10 -->
<g id="edge9" class="edge">
<title>Node9&#45;&gt;Node10</title>
<path fill="none" stroke="midnightblue" d="M501.3,-224.44C557.72,-207.31 677.92,-167.4 701,-132 712.18,-114.84 695.16,-95.07 679.55,-81.88"/>
<polygon fill="midnightblue" stroke="midnightblue" points="681.69,-79.11 671.68,-75.64 677.34,-84.59 681.69,-79.11"/>
</g>
<!-- Node9&#45;&gt;Node13 -->
<g id="edge13" class="edge">
<title>Node9&#45;&gt;Node13</title>
<path fill="none" stroke="midnightblue" d="M426.63,-226.38C361.2,-216.83 240.07,-199.15 165.7,-188.3"/>
<polygon fill="midnightblue" stroke="midnightblue" points="165.93,-184.79 155.53,-186.81 164.92,-191.72 165.93,-184.79"/>
</g>
<!-- Node15 -->
<g id="node15" class="node">
<title>Node15</title>
<g id="a_node15"><a xlink:href="utilities_8h.html" target="_top" xlink:title=" ">
<polygon fill="white" stroke="black" points="441,-168.5 441,-187.5 503,-187.5 503,-168.5 441,-168.5"/>
<text text-anchor="middle" x="472" y="-175.5" font-family="Helvetica,sans-Serif" font-size="10.00">utilities.h</text>
</a>
</g>
</g>
<!-- Node9&#45;&gt;Node15 -->
<g id="edge17" class="edge">
<title>Node9&#45;&gt;Node15</title>
<path fill="none" stroke="midnightblue" d="M466.83,-224.08C465.32,-216.93 464.89,-206.64 465.54,-197.69"/>
<polygon fill="midnightblue" stroke="midnightblue" points="469.02,-198.13 466.87,-187.75 462.08,-197.2 469.02,-198.13"/>
</g>
<!-- Node10&#45;&gt;Node6 -->
<g id="edge11" class="edge">
<title>Node10&#45;&gt;Node6</title>
<path fill="none" stroke="midnightblue" d="M623.47,-61.5C523.79,-51.68 242.49,-23.96 144.87,-14.34"/>
<polygon fill="midnightblue" stroke="midnightblue" points="144.98,-10.83 134.69,-13.33 144.3,-17.8 144.98,-10.83"/>
</g>
<!-- Node11 -->
<g id="node11" class="node">
<title>Node11</title>
<g id="a_node11"><a xlink:title=" ">
<polygon fill="white" stroke="#bfbfbf" points="445,-0.5 445,-19.5 489,-19.5 489,-0.5 445,-0.5"/>
<text text-anchor="middle" x="467" y="-7.5" font-family="Helvetica,sans-Serif" font-size="10.00">string</text>
</a>
</g>
</g>
<!-- Node10&#45;&gt;Node11 -->
<g id="edge10" class="edge">
<title>Node10&#45;&gt;Node11</title>
<path fill="none" stroke="midnightblue" d="M628.58,-56.44C593.26,-46.51 535.25,-30.2 499.19,-20.05"/>
<polygon fill="midnightblue" stroke="midnightblue" points="499.77,-16.58 489.2,-17.24 497.88,-23.32 499.77,-16.58"/>
</g>
<!-- Node12 -->
<g id="node12" class="node">
<title>Node12</title>
<g id="a_node12"><a xlink:href="starting__traits_8h.html" target="_top" xlink:title=" ">
<polygon fill="white" stroke="black" points="697,-0.5 697,-19.5 791,-19.5 791,-0.5 697,-0.5"/>
<text text-anchor="middle" x="744" y="-7.5" font-family="Helvetica,sans-Serif" font-size="10.00">starting_traits.h</text>
</a>
</g>
</g>
<!-- Node10&#45;&gt;Node12 -->
<g id="edge12" class="edge">
<title>Node10&#45;&gt;Node12</title>
<path fill="none" stroke="midnightblue" d="M672.66,-56.32C685.92,-47.9 706.27,-34.97 721.85,-25.07"/>
<polygon fill="midnightblue" stroke="midnightblue" points="723.81,-27.97 730.38,-19.65 720.06,-22.06 723.81,-27.97"/>
</g>
<!-- Node13&#45;&gt;Node6 -->
<g id="edge16" class="edge">
<title>Node13&#45;&gt;Node6</title>
<path fill="none" stroke="midnightblue" d="M90.73,-168.43C81.03,-160.27 67.72,-147.05 62,-132 50,-100.43 48.41,-86.92 62,-56 67.39,-43.73 77.96,-33.34 87.9,-25.65"/>
<polygon fill="midnightblue" stroke="midnightblue" points="90.25,-28.27 96.34,-19.6 86.17,-22.58 90.25,-28.27"/>
</g>
<!-- Node13&#45;&gt;Node11 -->
<g id="edge14" class="edge">
<title>Node13&#45;&gt;Node11</title>
<path fill="none" stroke="midnightblue" d="M97.64,-168.4C91.48,-154.91 82.31,-128.59 95,-112 136.86,-57.25 352.17,-25.22 434.73,-14.79"/>
<polygon fill="midnightblue" stroke="midnightblue" points="435.3,-18.25 444.79,-13.54 434.44,-11.3 435.3,-18.25"/>
</g>
<!-- Node14 -->
<g id="node14" class="node">
<title>Node14</title>
<g id="a_node14"><a xlink:title=" ">
<polygon fill="white" stroke="#bfbfbf" points="104.5,-112.5 104.5,-131.5 155.5,-131.5 155.5,-112.5 104.5,-112.5"/>
<text text-anchor="middle" x="130" y="-119.5" font-family="Helvetica,sans-Serif" font-size="10.00">variant</text>
</a>
</g>
</g>
<!-- Node13&#45;&gt;Node14 -->
<g id="edge15" class="edge">
<title>Node13&#45;&gt;Node14</title>
<path fill="none" stroke="midnightblue" d="M106.62,-168.08C110.46,-160.69 116.02,-149.95 120.76,-140.81"/>
<polygon fill="midnightblue" stroke="midnightblue" points="123.97,-142.24 125.46,-131.75 117.75,-139.02 123.97,-142.24"/>
</g>
<!-- Node15&#45;&gt;Node3 -->
<g id="edge18" class="edge">
<title>Node15&#45;&gt;Node3</title>
<path fill="none" stroke="midnightblue" d="M441.89,-168.44C409.37,-159.2 357.42,-144.44 321.61,-134.26"/>
<polygon fill="midnightblue" stroke="midnightblue" points="322.54,-130.88 311.97,-131.52 320.63,-137.62 322.54,-130.88"/>
</g>
<!-- Node15&#45;&gt;Node4 -->
<g id="edge19" class="edge">
<title>Node15&#45;&gt;Node4</title>
<path fill="none" stroke="midnightblue" d="M454.01,-168.32C435.96,-159.62 407.95,-146.12 387.2,-136.11"/>
<polygon fill="midnightblue" stroke="midnightblue" points="388.48,-132.84 377.95,-131.65 385.44,-139.15 388.48,-132.84"/>
</g>
<!-- Node15&#45;&gt;Node7 -->
<g id="edge23" class="edge">
<title>Node15&#45;&gt;Node7</title>
<path fill="none" stroke="midnightblue" d="M463.17,-168.48C454.81,-159.96 442.47,-146.13 435,-132 427.27,-117.38 422.3,-99.21 419.39,-85.8"/>
<polygon fill="midnightblue" stroke="midnightblue" points="422.79,-84.97 417.41,-75.84 415.93,-86.33 422.79,-84.97"/>
</g>
<!-- Node15&#45;&gt;Node9 -->
<g id="edge31" class="edge">
<title>Node15&#45;&gt;Node9</title>
<path fill="none" stroke="midnightblue" d="M477.13,-187.75C478.66,-194.86 479.1,-205.14 478.47,-214.1"/>
<polygon fill="midnightblue" stroke="midnightblue" points="474.99,-213.71 477.17,-224.08 481.93,-214.62 474.99,-213.71"/>
</g>
<!-- Node15&#45;&gt;Node10 -->
<g id="edge32" class="edge">
<title>Node15&#45;&gt;Node10</title>
<path fill="none" stroke="midnightblue" d="M497.09,-168.4C518.94,-160.41 551.11,-147.44 577,-132 601.18,-117.58 626.14,-96.8 642.07,-82.64"/>
<polygon fill="midnightblue" stroke="midnightblue" points="644.45,-85.21 649.52,-75.91 639.76,-80.01 644.45,-85.21"/>
</g>
<!-- Node16 -->
<g id="node16" class="node">
<title>Node16</title>
<g id="a_node16"><a xlink:title=" ">
<polygon fill="white" stroke="#bfbfbf" points="624,-112.5 624,-131.5 692,-131.5 692,-112.5 624,-112.5"/>
<text text-anchor="middle" x="658" y="-119.5" font-family="Helvetica,sans-Serif" font-size="10.00">filesystem</text>
</a>
</g>
</g>
<!-- Node15&#45;&gt;Node16 -->
<g id="edge20" class="edge">
<title>Node15&#45;&gt;Node16</title>
<path fill="none" stroke="midnightblue" d="M501.47,-168.44C533.17,-159.24 583.73,-144.56 618.77,-134.39"/>
<polygon fill="midnightblue" stroke="midnightblue" points="620.04,-137.67 628.67,-131.52 618.09,-130.94 620.04,-137.67"/>
</g>
<!-- Node17 -->
<g id="node17" class="node">
<title>Node17</title>
<g id="a_node17"><a xlink:title=" ">
<polygon fill="white" stroke="#bfbfbf" points="444.5,-112.5 444.5,-131.5 499.5,-131.5 499.5,-112.5 444.5,-112.5"/>
<text text-anchor="middle" x="472" y="-119.5" font-family="Helvetica,sans-Serif" font-size="10.00">fstream</text>
</a>
</g>
</g>
<!-- Node15&#45;&gt;Node17 -->
<g id="edge21" class="edge">
<title>Node15&#45;&gt;Node17</title>
<path fill="none" stroke="midnightblue" d="M472,-168.08C472,-161.01 472,-150.86 472,-141.99"/>
<polygon fill="midnightblue" stroke="midnightblue" points="475.5,-141.75 472,-131.75 468.5,-141.75 475.5,-141.75"/>
</g>
<!-- Node18 -->
<g id="node18" class="node">
<title>Node18</title>
<g id="a_node18"><a xlink:title=" ">
<polygon fill="white" stroke="#bfbfbf" points="518,-112.5 518,-131.5 568,-131.5 568,-112.5 518,-112.5"/>
<text text-anchor="middle" x="543" y="-119.5" font-family="Helvetica,sans-Serif" font-size="10.00">ranges</text>
</a>
</g>
</g>
<!-- Node15&#45;&gt;Node18 -->
<g id="edge22" class="edge">
<title>Node15&#45;&gt;Node18</title>
<path fill="none" stroke="midnightblue" d="M483.41,-168.32C494.11,-160.18 510.34,-147.84 523.16,-138.09"/>
<polygon fill="midnightblue" stroke="midnightblue" points="525.54,-140.67 531.39,-131.83 521.31,-135.1 525.54,-140.67"/>
</g>
<!-- Node19 -->
<g id="node19" class="node">
<title>Node19</title>
<g id="a_node19"><a xlink:href="traits_8h.html" target="_top" xlink:title=" ">
<polygon fill="white" stroke="black" points="786.5,-112.5 786.5,-131.5 837.5,-131.5 837.5,-112.5 786.5,-112.5"/>
<text text-anchor="middle" x="812" y="-119.5" font-family="Helvetica,sans-Serif" font-size="10.00">traits.h</text>
</a>
</g>
</g>
<!-- Node15&#45;&gt;Node19 -->
<g id="edge24" class="edge">
<title>Node15&#45;&gt;Node19</title>
<path fill="none" stroke="midnightblue" d="M503.07,-172.06C566.25,-162.03 709.35,-139.3 776.26,-128.68"/>
<polygon fill="midnightblue" stroke="midnightblue" points="776.99,-132.1 786.32,-127.08 775.89,-125.19 776.99,-132.1"/>
</g>
<!-- Node19&#45;&gt;Node7 -->
<g id="edge29" class="edge">
<title>Node19&#45;&gt;Node7</title>
<path fill="none" stroke="midnightblue" d="M786.32,-117.5C719.76,-108.42 541.09,-84.06 458.69,-72.82"/>
<polygon fill="midnightblue" stroke="midnightblue" points="459.05,-69.34 448.67,-71.45 458.1,-76.27 459.05,-69.34"/>
</g>
<!-- Node19&#45;&gt;Node10 -->
<g id="edge30" class="edge">
<title>Node19&#45;&gt;Node10</title>
<path fill="none" stroke="midnightblue" d="M787.76,-112.44C762.13,-103.4 721.51,-89.06 692.76,-78.92"/>
<polygon fill="midnightblue" stroke="midnightblue" points="693.72,-75.54 683.13,-75.52 691.39,-82.15 693.72,-75.54"/>
</g>
<!-- Node19&#45;&gt;Node12 -->
<g id="edge28" class="edge">
<title>Node19&#45;&gt;Node12</title>
<path fill="none" stroke="midnightblue" d="M814.07,-112.36C816.72,-99.27 819.88,-74.02 810,-56 802.31,-41.97 788.14,-31.45 774.9,-24.12"/>
<polygon fill="midnightblue" stroke="midnightblue" points="776.47,-20.99 765.97,-19.55 773.28,-27.22 776.47,-20.99"/>
</g>
<!-- Node20 -->
<g id="node20" class="node">
<title>Node20</title>
<g id="a_node20"><a xlink:title=" ">
<polygon fill="white" stroke="#bfbfbf" points="713,-56.5 713,-75.5 745,-75.5 745,-56.5 713,-56.5"/>
<text text-anchor="middle" x="729" y="-63.5" font-family="Helvetica,sans-Serif" font-size="10.00">set</text>
</a>
</g>
</g>
<!-- Node19&#45;&gt;Node20 -->
<g id="edge25" class="edge">
<title>Node19&#45;&gt;Node20</title>
<path fill="none" stroke="midnightblue" d="M798.66,-112.32C785.84,-103.98 766.22,-91.21 751.06,-81.35"/>
<polygon fill="midnightblue" stroke="midnightblue" points="752.59,-78.17 742.3,-75.65 748.78,-84.04 752.59,-78.17"/>
</g>
<!-- Node21 -->
<g id="node21" class="node">
<title>Node21</title>
<g id="a_node21"><a xlink:title=" ">
<polygon fill="white" stroke="#bfbfbf" points="763,-56.5 763,-75.5 801,-75.5 801,-56.5 763,-56.5"/>
<text text-anchor="middle" x="782" y="-63.5" font-family="Helvetica,sans-Serif" font-size="10.00">map</text>
</a>
</g>
</g>
<!-- Node19&#45;&gt;Node21 -->
<g id="edge26" class="edge">
<title>Node19&#45;&gt;Node21</title>
<path fill="none" stroke="midnightblue" d="M807.05,-112.08C802.9,-104.61 796.85,-93.72 791.73,-84.52"/>
<polygon fill="midnightblue" stroke="midnightblue" points="794.78,-82.79 786.86,-75.75 788.66,-86.19 794.78,-82.79"/>
</g>
<!-- Node22 -->
<g id="node22" class="node">
<title>Node22</title>
<g id="a_node22"><a xlink:title=" ">
<polygon fill="white" stroke="#bfbfbf" points="857,-56.5 857,-75.5 915,-75.5 915,-56.5 857,-56.5"/>
<text text-anchor="middle" x="886" y="-63.5" font-family="Helvetica,sans-Serif" font-size="10.00">memory</text>
</a>
</g>
</g>
<!-- Node19&#45;&gt;Node22 -->
<g id="edge27" class="edge">
<title>Node19&#45;&gt;Node22</title>
<path fill="none" stroke="midnightblue" d="M823.89,-112.32C835.15,-104.11 852.29,-91.6 865.71,-81.81"/>
<polygon fill="midnightblue" stroke="midnightblue" points="867.88,-84.56 873.89,-75.83 863.75,-78.9 867.88,-84.56"/>
</g>
<!-- Node23&#45;&gt;Node5 -->
<g id="edge39" class="edge">
<title>Node23&#45;&gt;Node5</title>
<path fill="none" stroke="midnightblue" d="M570.01,-280.08C569.21,-272.93 568.07,-262.64 567.08,-253.69"/>
<polygon fill="midnightblue" stroke="midnightblue" points="570.56,-253.3 565.97,-243.75 563.6,-254.08 570.56,-253.3"/>
</g>
<!-- Node23&#45;&gt;Node9 -->
<g id="edge36" class="edge">
<title>Node23&#45;&gt;Node9</title>
<path fill="none" stroke="midnightblue" d="M555.09,-280.32C539.36,-271.74 515.06,-258.49 496.79,-248.52"/>
<polygon fill="midnightblue" stroke="midnightblue" points="498.32,-245.37 487.87,-243.65 494.97,-251.52 498.32,-245.37"/>
</g>
<!-- Node23&#45;&gt;Node19 -->
<g id="edge37" class="edge">
<title>Node23&#45;&gt;Node19</title>
<path fill="none" stroke="midnightblue" d="M583.62,-280.31C622.74,-253.36 742.3,-171.01 791.01,-137.46"/>
<polygon fill="midnightblue" stroke="midnightblue" points="793.26,-140.16 799.51,-131.61 789.29,-134.4 793.26,-140.16"/>
</g>
<!-- Node23&#45;&gt;Node22 -->
<g id="edge38" class="edge">
<title>Node23&#45;&gt;Node22</title>
<path fill="none" stroke="midnightblue" d="M595.22,-280.38C646.99,-260.96 769.97,-209.33 847,-132 860.6,-118.34 871.4,-99.04 878.16,-85.02"/>
<polygon fill="midnightblue" stroke="midnightblue" points="881.35,-86.45 882.34,-75.9 874.99,-83.53 881.35,-86.45"/>
</g>
<!-- Node24&#45;&gt;Node8 -->
<g id="edge42" class="edge">
<title>Node24&#45;&gt;Node8</title>
<path fill="none" stroke="midnightblue" d="M557.86,-336.44C529.98,-327.32 485.65,-312.81 454.6,-302.65"/>
<polygon fill="midnightblue" stroke="midnightblue" points="455.62,-299.3 445.02,-299.52 453.44,-305.95 455.62,-299.3"/>
</g>
<!-- Node24&#45;&gt;Node10 -->
<g id="edge44" class="edge">
<title>Node24&#45;&gt;Node10</title>
<path fill="none" stroke="midnightblue" d="M592.12,-336.15C616.79,-308.57 690.74,-220.7 716,-132 718.43,-123.45 719.88,-120 716,-112 709.6,-98.8 697.25,-88.3 685.67,-80.78"/>
<polygon fill="midnightblue" stroke="midnightblue" points="687.45,-77.77 677.08,-75.61 683.84,-83.77 687.45,-77.77"/>
</g>
<!-- Node24&#45;&gt;Node22 -->
<g id="edge41" class="edge">
<title>Node24&#45;&gt;Node22</title>
<path fill="none" stroke="midnightblue" d="M624.2,-339.81C710.15,-327.58 904,-293.53 904,-235 904,-235 904,-235 904,-177 904,-144.54 896.27,-107.38 890.94,-85.63"/>
<polygon fill="midnightblue" stroke="midnightblue" points="894.29,-84.59 888.43,-75.76 887.51,-86.32 894.29,-84.59"/>
</g>
<!-- Node24&#45;&gt;Node23 -->
<g id="edge43" class="edge">
<title>Node24&#45;&gt;Node23</title>
<path fill="none" stroke="midnightblue" d="M581.85,-336.08C580.13,-328.93 577.65,-318.64 575.5,-309.69"/>
<polygon fill="midnightblue" stroke="midnightblue" points="578.85,-308.65 573.11,-299.75 572.04,-310.29 578.85,-308.65"/>
</g>
</g>
</svg>
