<?xml version="1.0" encoding="UTF-8" standalone="no"?>
<!DOCTYPE svg PUBLIC "-//W3C//DTD SVG 1.1//EN"
 "http://www.w3.org/Graphics/SVG/1.1/DTD/svg11.dtd">
<!-- Generated by graphviz version 2.43.0 (0)
 -->
<!-- Title: include/Network/mwgraph.h Pages: 1 -->
<!--zoomable 932 -->
<svg id="main" version="1.1" xmlns="http://www.w3.org/2000/svg" xmlns:xlink="http://www.w3.org/1999/xlink" xml:space="preserve" onload="init(evt)">
<style type="text/css"><![CDATA[
.edge:hover path { stroke: red; }
.edge:hover polygon { stroke: red; fill: red; }
]]></style>
<script type="text/javascript"><![CDATA[
var edges = document.getElementsByTagName('g');
if (edges && edges.length) {
  for (var i=0;i<edges.length;i++) {
    if (edges[i].id.substr(0,4)=='edge') {
      edges[i].setAttribute('class','edge');
    }
  }
}
]]></script>
        <defs>
                <circle id="rim" cx="0" cy="0" r="7"/>
                <circle id="rim2" cx="0" cy="0" r="3.5"/>
                <g id="zoomPlus">
                        <use xlink:href="#rim" fill="#404040">
                                <set attributeName="fill" to="#808080" begin="zoomplus.mouseover" end="zoomplus.mouseout"/>
                        </use>
                        <path d="M-4,0h8M0,-4v8" fill="none" stroke="white" stroke-width="1.5" pointer-events="none"/>
                </g>
                <g id="zoomMin">
                        <use xlink:href="#rim" fill="#404040">
                                <set attributeName="fill" to="#808080" begin="zoomminus.mouseover" end="zoomminus.mouseout"/>
                        </use>
                        <path d="M-4,0h8" fill="none" stroke="white" stroke-width="1.5" pointer-events="none"/>
                </g>
                <g id="dirArrow">
                        <path fill="none" stroke="white" stroke-width="1.5" d="M0,-3.0v7 M-2.5,-0.5L0,-3.0L2.5,-0.5"/>
                </g>
               <g id="resetDef">
                       <use xlink:href="#rim2" fill="#404040">
                               <set attributeName="fill" to="#808080" begin="reset.mouseover" end="reset.mouseout"/>
                       </use>
               </g>
        </defs>

<script type="text/javascript">
var viewWidth = 980;
var viewHeight = 932;
var sectionId = 'dynsection-1';
</script>
<script xlink:href="svgpan.js"/>
<svg id="graph" class="graph">
<g id="viewport">
<title>include/Network/mwgraph.h</title>
<polygon fill="white" stroke="transparent" points="-4,4 -4,-928 976,-928 976,4 -4,4"/>
<!-- Node1 -->
<g id="node1" class="node">
<title>Node1</title>
<g id="a_node1"><a xlink:title=" ">
<polygon fill="#bfbfbf" stroke="black" points="223,-904.5 223,-923.5 377,-923.5 377,-904.5 223,-904.5"/>
<text text-anchor="middle" x="300" y="-911.5" font-family="Helvetica,sans-Serif" font-size="10.00">include/Network/mwgraph.h</text>
</a>
</g>
</g>
<!-- Node2 -->
<g id="node2" class="node">
<title>Node2</title>
<g id="a_node2"><a xlink:href="wgraph_8h.html" target="_top" xlink:title=" ">
<polygon fill="white" stroke="black" points="278,-848.5 278,-867.5 422,-867.5 422,-848.5 278,-848.5"/>
<text text-anchor="middle" x="350" y="-855.5" font-family="Helvetica,sans-Serif" font-size="10.00">include/Network/wgraph.h</text>
</a>
</g>
</g>
<!-- Node1&#45;&gt;Node2 -->
<g id="edge1" class="edge">
<title>Node1&#45;&gt;Node2</title>
<path fill="none" stroke="midnightblue" d="M315.08,-896.72C323.89,-887.2 334.67,-875.56 341.9,-867.75"/>
<polygon fill="midnightblue" stroke="midnightblue" points="312.48,-894.37 308.26,-904.08 317.62,-899.12 312.48,-894.37"/>
</g>
<!-- Node20 -->
<g id="node20" class="node">
<title>Node20</title>
<g id="a_node20"><a xlink:href="graph__traits_8h.html" target="_top" xlink:title=" ">
<polygon fill="white" stroke="black" points="186.5,-781.5 186.5,-811.5 313.5,-811.5 313.5,-781.5 186.5,-781.5"/>
<text text-anchor="start" x="194.5" y="-799.5" font-family="Helvetica,sans-Serif" font-size="10.00">include/Network/graph</text>
<text text-anchor="middle" x="250" y="-788.5" font-family="Helvetica,sans-Serif" font-size="10.00">_traits.h</text>
</a>
</g>
</g>
<!-- Node1&#45;&gt;Node20 -->
<g id="edge45" class="edge">
<title>Node1&#45;&gt;Node20</title>
<path fill="none" stroke="midnightblue" d="M286.48,-896.31C280.42,-888.17 273.62,-877.99 269,-868 260.43,-849.48 255.13,-826.37 252.37,-811.77"/>
<polygon fill="midnightblue" stroke="midnightblue" points="283.73,-898.48 292.62,-904.25 289.26,-894.2 283.73,-898.48"/>
</g>
<!-- Node3 -->
<g id="node3" class="node">
<title>Node3</title>
<g id="a_node3"><a xlink:href="computer__memory_8h.html" target="_top" xlink:title=" ">
<polygon fill="white" stroke="black" points="663,-575 663,-605 815,-605 815,-575 663,-575"/>
<text text-anchor="start" x="671" y="-593" font-family="Helvetica,sans-Serif" font-size="10.00">include/Computer/computer</text>
<text text-anchor="middle" x="739" y="-582" font-family="Helvetica,sans-Serif" font-size="10.00">_memory.h</text>
</a>
</g>
</g>
<!-- Node2&#45;&gt;Node3 -->
<g id="edge2" class="edge">
<title>Node2&#45;&gt;Node3</title>
<path fill="none" stroke="midnightblue" d="M371.09,-842.58C438.97,-796.16 651.25,-651 718.41,-605.08"/>
<polygon fill="midnightblue" stroke="midnightblue" points="368.78,-839.92 362.5,-848.45 372.73,-845.7 368.78,-839.92"/>
</g>
<!-- Node2&#45;&gt;Node20 -->
<g id="edge26" class="edge">
<title>Node2&#45;&gt;Node20</title>
<path fill="none" stroke="midnightblue" d="M326.93,-843.28C310.93,-833.75 289.68,-821.11 273.57,-811.52"/>
<polygon fill="midnightblue" stroke="midnightblue" points="325.29,-846.37 335.67,-848.48 328.87,-840.35 325.29,-846.37"/>
</g>
<!-- Node4 -->
<g id="node4" class="node">
<title>Node4</title>
<g id="a_node4"><a xlink:href="butcher_8h.html" target="_top" xlink:title=" ">
<polygon fill="white" stroke="black" points="307,-268.5 307,-287.5 447,-287.5 447,-268.5 307,-268.5"/>
<text text-anchor="middle" x="377" y="-275.5" font-family="Helvetica,sans-Serif" font-size="10.00">include/Butcher/butcher.h</text>
</a>
</g>
</g>
<!-- Node3&#45;&gt;Node4 -->
<g id="edge3" class="edge">
<title>Node3&#45;&gt;Node4</title>
<path fill="none" stroke="midnightblue" d="M748.81,-565.29C763.72,-525.08 786.5,-442.84 748,-391 710.09,-339.96 525.94,-303.24 432.15,-287.51"/>
<polygon fill="midnightblue" stroke="midnightblue" points="745.48,-564.2 745.14,-574.79 752.01,-566.72 745.48,-564.2"/>
</g>
<!-- Node10 -->
<g id="node10" class="node">
<title>Node10</title>
<g id="a_node10"><a xlink:href="network__butcher_8h.html" target="_top" xlink:title=" ">
<polygon fill="white" stroke="black" points="407.5,-56.5 407.5,-75.5 552.5,-75.5 552.5,-56.5 407.5,-56.5"/>
<text text-anchor="middle" x="480" y="-63.5" font-family="Helvetica,sans-Serif" font-size="10.00">include/network_butcher.h</text>
</a>
</g>
</g>
<!-- Node3&#45;&gt;Node10 -->
<g id="edge25" class="edge">
<title>Node3&#45;&gt;Node10</title>
<path fill="none" stroke="midnightblue" d="M758.62,-566.73C765.89,-557.05 773.26,-545.16 777,-533 783.99,-510.24 773.19,-396.18 771,-391 706.44,-238.11 538.66,-109.21 492.12,-75.56"/>
<polygon fill="midnightblue" stroke="midnightblue" points="755.84,-564.6 752.36,-574.61 761.32,-568.96 755.84,-564.6"/>
</g>
<!-- Node15 -->
<g id="node15" class="node">
<title>Node15</title>
<g id="a_node15"><a xlink:href="graph__constraint_8h.html" target="_top" xlink:title=" ">
<polygon fill="white" stroke="black" points="254.5,-491.5 254.5,-521.5 377.5,-521.5 377.5,-491.5 254.5,-491.5"/>
<text text-anchor="start" x="262.5" y="-509.5" font-family="Helvetica,sans-Serif" font-size="10.00">include/Butcher/graph</text>
<text text-anchor="middle" x="316" y="-498.5" font-family="Helvetica,sans-Serif" font-size="10.00">_constraint.h</text>
</a>
</g>
</g>
<!-- Node3&#45;&gt;Node15 -->
<g id="edge16" class="edge">
<title>Node3&#45;&gt;Node15</title>
<path fill="none" stroke="midnightblue" d="M653,-574.82C589.99,-564.14 502.48,-548.7 426,-533 409.1,-529.53 390.82,-525.43 374.11,-521.55"/>
<polygon fill="midnightblue" stroke="midnightblue" points="652.45,-578.28 662.9,-576.5 653.62,-571.38 652.45,-578.28"/>
</g>
<!-- Node17 -->
<g id="node17" class="node">
<title>Node17</title>
<g id="a_node17"><a xlink:href="block__aMLLibrary__weight__importer_8h.html" target="_top" xlink:title=" ">
<polygon fill="white" stroke="black" points="595.5,-480.5 595.5,-532.5 738.5,-532.5 738.5,-480.5 595.5,-480.5"/>
<text text-anchor="start" x="603.5" y="-520.5" font-family="Helvetica,sans-Serif" font-size="10.00">include/IO_Interaction</text>
<text text-anchor="start" x="603.5" y="-509.5" font-family="Helvetica,sans-Serif" font-size="10.00">/Weight_Importer_Helpers</text>
<text text-anchor="start" x="603.5" y="-498.5" font-family="Helvetica,sans-Serif" font-size="10.00">/block_aMLLibrary_weight</text>
<text text-anchor="middle" x="667" y="-487.5" font-family="Helvetica,sans-Serif" font-size="10.00">_importer.h</text>
</a>
</g>
</g>
<!-- Node3&#45;&gt;Node17 -->
<g id="edge19" class="edge">
<title>Node3&#45;&gt;Node17</title>
<path fill="none" stroke="midnightblue" d="M719.73,-567.18C710.35,-556.57 699.03,-543.75 689.28,-532.72"/>
<polygon fill="midnightblue" stroke="midnightblue" points="717.21,-569.63 726.46,-574.8 722.46,-564.99 717.21,-569.63"/>
</g>
<!-- Node5 -->
<g id="node5" class="node">
<title>Node5</title>
<g id="a_node5"><a xlink:href="onnx__importer__helpers_8h.html" target="_top" xlink:title=" ">
<polygon fill="white" stroke="black" points="772.5,-196 772.5,-226 913.5,-226 913.5,-196 772.5,-196"/>
<text text-anchor="start" x="780.5" y="-214" font-family="Helvetica,sans-Serif" font-size="10.00">include/IO_Interaction</text>
<text text-anchor="middle" x="843" y="-203" font-family="Helvetica,sans-Serif" font-size="10.00">/onnx_importer_helpers.h</text>
</a>
</g>
</g>
<!-- Node4&#45;&gt;Node5 -->
<g id="edge4" class="edge">
<title>Node4&#45;&gt;Node5</title>
<path fill="none" stroke="midnightblue" d="M448.55,-267.02C536.49,-254.75 684.78,-234.07 772.31,-221.86"/>
<polygon fill="midnightblue" stroke="midnightblue" points="447.82,-263.59 438.4,-268.44 448.79,-270.52 447.82,-263.59"/>
</g>
<!-- Node4&#45;&gt;Node10 -->
<g id="edge15" class="edge">
<title>Node4&#45;&gt;Node10</title>
<path fill="none" stroke="midnightblue" d="M417.31,-264.7C433.46,-257.7 450.66,-247.21 461,-232 495.19,-181.68 485.93,-102.22 481.61,-75.84"/>
<polygon fill="midnightblue" stroke="midnightblue" points="415.97,-261.46 407.98,-268.42 418.56,-267.96 415.97,-261.46"/>
</g>
<!-- Node13 -->
<g id="node13" class="node">
<title>Node13</title>
<g id="a_node13"><a xlink:href="onnx__model__reconstructor__helpers_8h.html" target="_top" xlink:title=" ">
<polygon fill="white" stroke="black" points="302.5,-190.5 302.5,-231.5 451.5,-231.5 451.5,-190.5 302.5,-190.5"/>
<text text-anchor="start" x="310.5" y="-219.5" font-family="Helvetica,sans-Serif" font-size="10.00">include/IO_Interaction</text>
<text text-anchor="start" x="310.5" y="-208.5" font-family="Helvetica,sans-Serif" font-size="10.00">/onnx_model_reconstructor</text>
<text text-anchor="middle" x="377" y="-197.5" font-family="Helvetica,sans-Serif" font-size="10.00">_helpers.h</text>
</a>
</g>
</g>
<!-- Node4&#45;&gt;Node13 -->
<g id="edge12" class="edge">
<title>Node4&#45;&gt;Node13</title>
<path fill="none" stroke="midnightblue" d="M377,-258.04C377,-249.71 377,-239.94 377,-231.54"/>
<polygon fill="midnightblue" stroke="midnightblue" points="373.5,-258.23 377,-268.23 380.5,-258.23 373.5,-258.23"/>
</g>
<!-- Node6 -->
<g id="node6" class="node">
<title>Node6</title>
<g id="a_node6"><a xlink:href="io__manager_8h.html" target="_top" xlink:title=" ">
<polygon fill="white" stroke="black" points="680.5,-123.5 680.5,-142.5 801.5,-142.5 801.5,-123.5 680.5,-123.5"/>
<text text-anchor="middle" x="741" y="-130.5" font-family="Helvetica,sans-Serif" font-size="10.00">include/io_manager.h</text>
</a>
</g>
</g>
<!-- Node5&#45;&gt;Node6 -->
<g id="edge5" class="edge">
<title>Node5&#45;&gt;Node6</title>
<path fill="none" stroke="midnightblue" d="M815.71,-189.66C795.05,-174.27 767.72,-153.91 752.49,-142.56"/>
<polygon fill="midnightblue" stroke="midnightblue" points="813.7,-192.54 823.81,-195.7 817.89,-186.92 813.7,-192.54"/>
</g>
<!-- Node12 -->
<g id="node12" class="node">
<title>Node12</title>
<g id="a_node12"><a xlink:href="onnx__importer__helpers_8cpp.html" target="_top" xlink:title=" ">
<polygon fill="white" stroke="black" points="820,-118 820,-148 972,-148 972,-118 820,-118"/>
<text text-anchor="start" x="828" y="-136" font-family="Helvetica,sans-Serif" font-size="10.00">src/IO_Interaction</text>
<text text-anchor="middle" x="896" y="-125" font-family="Helvetica,sans-Serif" font-size="10.00">/onnx_importer_helpers.cpp</text>
</a>
</g>
</g>
<!-- Node5&#45;&gt;Node12 -->
<g id="edge11" class="edge">
<title>Node5&#45;&gt;Node12</title>
<path fill="none" stroke="midnightblue" d="M858.73,-187.44C867.59,-174.73 878.39,-159.25 886.08,-148.23"/>
<polygon fill="midnightblue" stroke="midnightblue" points="855.82,-185.5 852.97,-195.7 861.56,-189.5 855.82,-185.5"/>
</g>
<!-- Node7 -->
<g id="node7" class="node">
<title>Node7</title>
<g id="a_node7"><a xlink:href="general__manager_8h.html" target="_top" xlink:title=" ">
<polygon fill="white" stroke="black" points="700.5,-56.5 700.5,-75.5 849.5,-75.5 849.5,-56.5 700.5,-56.5"/>
<text text-anchor="middle" x="775" y="-63.5" font-family="Helvetica,sans-Serif" font-size="10.00">include/general_manager.h</text>
</a>
</g>
</g>
<!-- Node6&#45;&gt;Node7 -->
<g id="edge6" class="edge">
<title>Node6&#45;&gt;Node7</title>
<path fill="none" stroke="midnightblue" d="M750.33,-114.16C756.89,-101.63 765.37,-85.41 770.49,-75.63"/>
<polygon fill="midnightblue" stroke="midnightblue" points="747.12,-112.75 745.59,-123.23 753.32,-116 747.12,-112.75"/>
</g>
<!-- Node6&#45;&gt;Node10 -->
<g id="edge9" class="edge">
<title>Node6&#45;&gt;Node10</title>
<path fill="none" stroke="midnightblue" d="M699.87,-120.85C688.88,-117.92 677,-114.8 666,-112 614.16,-98.82 553.96,-84.42 516.42,-75.55"/>
<polygon fill="midnightblue" stroke="midnightblue" points="699.1,-124.26 709.66,-123.47 700.91,-117.5 699.1,-124.26"/>
</g>
<!-- Node11 -->
<g id="node11" class="node">
<title>Node11</title>
<g id="a_node11"><a xlink:href="io__manager_8cpp.html" target="_top" xlink:title=" ">
<polygon fill="white" stroke="black" points="571.5,-56.5 571.5,-75.5 682.5,-75.5 682.5,-56.5 571.5,-56.5"/>
<text text-anchor="middle" x="627" y="-63.5" font-family="Helvetica,sans-Serif" font-size="10.00">src/io_manager.cpp</text>
</a>
</g>
</g>
<!-- Node6&#45;&gt;Node11 -->
<g id="edge10" class="edge">
<title>Node6&#45;&gt;Node11</title>
<path fill="none" stroke="midnightblue" d="M716.65,-118.12C694.06,-105.24 661.16,-86.48 642.13,-75.63"/>
<polygon fill="midnightblue" stroke="midnightblue" points="715.2,-121.32 725.63,-123.23 718.67,-115.24 715.2,-121.32"/>
</g>
<!-- Node8 -->
<g id="node8" class="node">
<title>Node8</title>
<g id="a_node8"><a xlink:href="general__manager_8cpp.html" target="_top" xlink:title=" ">
<polygon fill="white" stroke="black" points="641.5,-0.5 641.5,-19.5 780.5,-19.5 780.5,-0.5 641.5,-0.5"/>
<text text-anchor="middle" x="711" y="-7.5" font-family="Helvetica,sans-Serif" font-size="10.00">src/general_manager.cpp</text>
</a>
</g>
</g>
<!-- Node7&#45;&gt;Node8 -->
<g id="edge7" class="edge">
<title>Node7&#45;&gt;Node8</title>
<path fill="none" stroke="midnightblue" d="M757.01,-49.82C745.54,-40.15 731.09,-27.95 721.47,-19.83"/>
<polygon fill="midnightblue" stroke="midnightblue" points="754.82,-52.55 764.72,-56.32 759.33,-47.2 754.82,-52.55"/>
</g>
<!-- Node9 -->
<g id="node9" class="node">
<title>Node9</title>
<g id="a_node9"><a xlink:href="main_8cpp.html" target="_top" xlink:title=" ">
<polygon fill="white" stroke="black" points="798.5,-0.5 798.5,-19.5 877.5,-19.5 877.5,-0.5 798.5,-0.5"/>
<text text-anchor="middle" x="838" y="-7.5" font-family="Helvetica,sans-Serif" font-size="10.00">src/main.cpp</text>
</a>
</g>
</g>
<!-- Node7&#45;&gt;Node9 -->
<g id="edge8" class="edge">
<title>Node7&#45;&gt;Node9</title>
<path fill="none" stroke="midnightblue" d="M793.04,-49.54C804.27,-39.91 818.32,-27.87 827.69,-19.83"/>
<polygon fill="midnightblue" stroke="midnightblue" points="790.44,-47.16 785.12,-56.32 794.99,-52.47 790.44,-47.16"/>
</g>
<!-- Node13&#45;&gt;Node6 -->
<g id="edge13" class="edge">
<title>Node13&#45;&gt;Node6</title>
<path fill="none" stroke="midnightblue" d="M461.42,-192.37C536.25,-176.75 642.32,-154.6 699.91,-142.58"/>
<polygon fill="midnightblue" stroke="midnightblue" points="460.61,-188.97 451.54,-194.44 462.04,-195.82 460.61,-188.97"/>
</g>
<!-- Node14 -->
<g id="node14" class="node">
<title>Node14</title>
<g id="a_node14"><a xlink:href="onnx__model__reconstructor__helpers_8cpp.html" target="_top" xlink:title=" ">
<polygon fill="white" stroke="black" points="302.5,-112.5 302.5,-153.5 451.5,-153.5 451.5,-112.5 302.5,-112.5"/>
<text text-anchor="start" x="310.5" y="-141.5" font-family="Helvetica,sans-Serif" font-size="10.00">src/IO_Interaction</text>
<text text-anchor="start" x="310.5" y="-130.5" font-family="Helvetica,sans-Serif" font-size="10.00">/onnx_model_reconstructor</text>
<text text-anchor="middle" x="377" y="-119.5" font-family="Helvetica,sans-Serif" font-size="10.00">_helpers.cpp</text>
</a>
</g>
</g>
<!-- Node13&#45;&gt;Node14 -->
<g id="edge14" class="edge">
<title>Node13&#45;&gt;Node14</title>
<path fill="none" stroke="midnightblue" d="M377,-180.3C377,-171.3 377,-161.65 377,-153.51"/>
<polygon fill="midnightblue" stroke="midnightblue" points="373.5,-180.43 377,-190.43 380.5,-180.43 373.5,-180.43"/>
</g>
<!-- Node16 -->
<g id="node16" class="node">
<title>Node16</title>
<g id="a_node16"><a xlink:href="constrained__block__graph__builder_8h.html" target="_top" xlink:title=" ">
<polygon fill="white" stroke="black" points="286,-324.5 286,-354.5 438,-354.5 438,-324.5 286,-324.5"/>
<text text-anchor="start" x="294" y="-342.5" font-family="Helvetica,sans-Serif" font-size="10.00">include/Butcher/constrained</text>
<text text-anchor="middle" x="362" y="-331.5" font-family="Helvetica,sans-Serif" font-size="10.00">_block_graph_builder.h</text>
</a>
</g>
</g>
<!-- Node15&#45;&gt;Node16 -->
<g id="edge17" class="edge">
<title>Node15&#45;&gt;Node16</title>
<path fill="none" stroke="midnightblue" d="M322.67,-481.59C332.41,-446.66 350.22,-382.75 358.09,-354.53"/>
<polygon fill="midnightblue" stroke="midnightblue" points="319.24,-480.86 319.92,-491.43 325.98,-482.74 319.24,-480.86"/>
</g>
<!-- Node16&#45;&gt;Node4 -->
<g id="edge18" class="edge">
<title>Node16&#45;&gt;Node4</title>
<path fill="none" stroke="midnightblue" d="M368.03,-314.59C370.43,-305.08 373.03,-294.73 374.82,-287.66"/>
<polygon fill="midnightblue" stroke="midnightblue" points="364.61,-313.85 365.55,-324.4 371.39,-315.56 364.61,-313.85"/>
</g>
<!-- Node18 -->
<g id="node18" class="node">
<title>Node18</title>
<g id="a_node18"><a xlink:href="weight__importers_8h.html" target="_top" xlink:title=" ">
<polygon fill="white" stroke="black" points="404.5,-402.5 404.5,-432.5 527.5,-432.5 527.5,-402.5 404.5,-402.5"/>
<text text-anchor="start" x="412.5" y="-420.5" font-family="Helvetica,sans-Serif" font-size="10.00">include/IO_Interaction</text>
<text text-anchor="middle" x="466" y="-409.5" font-family="Helvetica,sans-Serif" font-size="10.00">/weight_importers.h</text>
</a>
</g>
</g>
<!-- Node17&#45;&gt;Node18 -->
<g id="edge20" class="edge">
<title>Node17&#45;&gt;Node18</title>
<path fill="none" stroke="midnightblue" d="M599.68,-476.36C565.58,-461.6 525.73,-444.35 498.47,-432.55"/>
<polygon fill="midnightblue" stroke="midnightblue" points="598.56,-479.69 609.13,-480.45 601.35,-473.27 598.56,-479.69"/>
</g>
<!-- Node19 -->
<g id="node19" class="node">
<title>Node19</title>
<g id="a_node19"><a xlink:href="block__aMLLibrary__weight__importer_8cpp.html" target="_top" xlink:title=" ">
<polygon fill="white" stroke="black" points="595.5,-391.5 595.5,-443.5 738.5,-443.5 738.5,-391.5 595.5,-391.5"/>
<text text-anchor="start" x="603.5" y="-431.5" font-family="Helvetica,sans-Serif" font-size="10.00">src/IO_Interaction</text>
<text text-anchor="start" x="603.5" y="-420.5" font-family="Helvetica,sans-Serif" font-size="10.00">/Weight_Importer_Helpers</text>
<text text-anchor="start" x="603.5" y="-409.5" font-family="Helvetica,sans-Serif" font-size="10.00">/block_aMLLibrary_weight</text>
<text text-anchor="middle" x="667" y="-398.5" font-family="Helvetica,sans-Serif" font-size="10.00">_importer.cpp</text>
</a>
</g>
</g>
<!-- Node17&#45;&gt;Node19 -->
<g id="edge24" class="edge">
<title>Node17&#45;&gt;Node19</title>
<path fill="none" stroke="midnightblue" d="M667,-470.19C667,-461.28 667,-451.9 667,-443.61"/>
<polygon fill="midnightblue" stroke="midnightblue" points="663.5,-470.34 667,-480.34 670.5,-470.34 663.5,-470.34"/>
</g>
<!-- Node18&#45;&gt;Node4 -->
<g id="edge22" class="edge">
<title>Node18&#45;&gt;Node4</title>
<path fill="none" stroke="midnightblue" d="M466.06,-392.23C465,-372.31 460.85,-344.19 447,-324 435.32,-306.96 414.84,-294.92 399.05,-287.6"/>
<polygon fill="midnightblue" stroke="midnightblue" points="462.57,-392.46 466.38,-402.35 469.57,-392.24 462.57,-392.46"/>
</g>
<!-- Node18&#45;&gt;Node6 -->
<g id="edge23" class="edge">
<title>Node18&#45;&gt;Node6</title>
<path fill="none" stroke="midnightblue" d="M486.89,-395.04C542.97,-337.43 695.11,-181.14 732.58,-142.65"/>
<polygon fill="midnightblue" stroke="midnightblue" points="484.1,-392.88 479.64,-402.49 489.12,-397.77 484.1,-392.88"/>
</g>
<!-- Node18&#45;&gt;Node16 -->
<g id="edge21" class="edge">
<title>Node18&#45;&gt;Node16</title>
<path fill="none" stroke="midnightblue" d="M438.1,-396.11C420.21,-383.04 397.43,-366.39 381.47,-354.73"/>
<polygon fill="midnightblue" stroke="midnightblue" points="436.3,-399.13 446.44,-402.2 440.43,-393.48 436.3,-399.13"/>
</g>
<!-- Node20&#45;&gt;Node4 -->
<g id="edge27" class="edge">
<title>Node20&#45;&gt;Node4</title>
<path fill="none" stroke="midnightblue" d="M241.06,-771.92C214.19,-696.56 142.58,-458.61 254,-324 269.8,-304.91 294.45,-293.91 317.54,-287.59"/>
<polygon fill="midnightblue" stroke="midnightblue" points="237.82,-773.25 244.54,-781.45 244.4,-770.85 237.82,-773.25"/>
</g>
<!-- Node20&#45;&gt;Node5 -->
<g id="edge31" class="edge">
<title>Node20&#45;&gt;Node5</title>
<path fill="none" stroke="midnightblue" d="M323.85,-788.37C490.43,-771.29 881,-725.26 881,-669 881,-669 881,-669 881,-338.5 881,-296.08 861.16,-248.91 850.15,-226"/>
<polygon fill="midnightblue" stroke="midnightblue" points="323.28,-784.91 313.68,-789.4 323.99,-791.87 323.28,-784.91"/>
</g>
<!-- Node20&#45;&gt;Node10 -->
<g id="edge39" class="edge">
<title>Node20&#45;&gt;Node10</title>
<path fill="none" stroke="midnightblue" d="M176.07,-789.1C102.34,-778.18 0,-748.67 0,-669 0,-669 0,-669 0,-210 0,-126.04 273.17,-87.37 407.36,-73.45"/>
<polygon fill="midnightblue" stroke="midnightblue" points="175.88,-792.61 186.27,-790.52 176.85,-785.67 175.88,-792.61"/>
</g>
<!-- Node20&#45;&gt;Node13 -->
<g id="edge32" class="edge">
<title>Node20&#45;&gt;Node13</title>
<path fill="none" stroke="midnightblue" d="M176.33,-782.81C115.12,-767.54 38,-735.18 38,-669 38,-669 38,-669 38,-338.5 38,-282.51 202.35,-243.16 302.19,-224.42"/>
<polygon fill="midnightblue" stroke="midnightblue" points="175.85,-786.3 186.39,-785.21 177.47,-779.49 175.85,-786.3"/>
</g>
<!-- Node20&#45;&gt;Node15 -->
<g id="edge28" class="edge">
<title>Node20&#45;&gt;Node15</title>
<path fill="none" stroke="midnightblue" d="M255.51,-771.46C268.79,-713.5 302.27,-567.43 312.79,-521.53"/>
<polygon fill="midnightblue" stroke="midnightblue" points="252.1,-770.69 253.27,-781.22 258.92,-772.25 252.1,-770.69"/>
</g>
<!-- Node21 -->
<g id="node21" class="node">
<title>Node21</title>
<g id="a_node21"><a xlink:href="path__converter_8h.html" target="_top" xlink:title=" ">
<polygon fill="white" stroke="black" points="66.5,-653 66.5,-683 183.5,-683 183.5,-653 66.5,-653"/>
<text text-anchor="start" x="74.5" y="-671" font-family="Helvetica,sans-Serif" font-size="10.00">include/Butcher/path</text>
<text text-anchor="middle" x="125" y="-660" font-family="Helvetica,sans-Serif" font-size="10.00">_converter.h</text>
</a>
</g>
</g>
<!-- Node20&#45;&gt;Node21 -->
<g id="edge29" class="edge">
<title>Node20&#45;&gt;Node21</title>
<path fill="none" stroke="midnightblue" d="M227.92,-774.38C218.61,-765.4 207.71,-754.76 198,-745 176.84,-723.73 152.83,-698.52 138.31,-683.15"/>
<polygon fill="midnightblue" stroke="midnightblue" points="225.67,-777.07 235.3,-781.49 230.52,-772.03 225.67,-777.07"/>
</g>
<!-- Node22 -->
<g id="node22" class="node">
<title>Node22</title>
<g id="a_node22"><a xlink:href="weight__importer_8h.html" target="_top" xlink:title=" ">
<polygon fill="white" stroke="black" points="407.5,-647.5 407.5,-688.5 550.5,-688.5 550.5,-647.5 407.5,-647.5"/>
<text text-anchor="start" x="415.5" y="-676.5" font-family="Helvetica,sans-Serif" font-size="10.00">include/IO_Interaction</text>
<text text-anchor="start" x="415.5" y="-665.5" font-family="Helvetica,sans-Serif" font-size="10.00">/Weight_Importer_Helpers</text>
<text text-anchor="middle" x="479" y="-654.5" font-family="Helvetica,sans-Serif" font-size="10.00">/weight_importer.h</text>
</a>
</g>
</g>
<!-- Node20&#45;&gt;Node22 -->
<g id="edge33" class="edge">
<title>Node20&#45;&gt;Node22</title>
<path fill="none" stroke="midnightblue" d="M323.59,-789.88C361.44,-783.74 406.35,-771.06 439,-745 456.95,-730.67 467.78,-706.08 473.56,-688.76"/>
<polygon fill="midnightblue" stroke="midnightblue" points="323,-786.43 313.63,-791.37 324.04,-793.35 323,-786.43"/>
</g>
<!-- Node25 -->
<g id="node25" class="node">
<title>Node25</title>
<g id="a_node25"><a xlink:href="parameters_8h.html" target="_top" xlink:title=" ">
<polygon fill="white" stroke="black" points="278.5,-725.5 278.5,-744.5 429.5,-744.5 429.5,-725.5 278.5,-725.5"/>
<text text-anchor="middle" x="354" y="-732.5" font-family="Helvetica,sans-Serif" font-size="10.00">include/Types/parameters.h</text>
</a>
</g>
</g>
<!-- Node20&#45;&gt;Node25 -->
<g id="edge40" class="edge">
<title>Node20&#45;&gt;Node25</title>
<path fill="none" stroke="midnightblue" d="M283.45,-776.36C302.1,-765.69 324.4,-752.93 338.87,-744.66"/>
<polygon fill="midnightblue" stroke="midnightblue" points="281.59,-773.4 274.65,-781.4 285.06,-779.47 281.59,-773.4"/>
</g>
<!-- Node21&#45;&gt;Node4 -->
<g id="edge30" class="edge">
<title>Node21&#45;&gt;Node4</title>
<path fill="none" stroke="midnightblue" d="M126.99,-642.58C129.36,-611.3 133,-555.4 133,-507.5 133,-507.5 133,-507.5 133,-416.5 133,-371.53 139.2,-352.48 174,-324 194.43,-307.28 257.77,-294.98 308.32,-287.5"/>
<polygon fill="midnightblue" stroke="midnightblue" points="123.47,-642.69 126.18,-652.93 130.45,-643.23 123.47,-642.69"/>
</g>
<!-- Node22&#45;&gt;Node17 -->
<g id="edge34" class="edge">
<title>Node22&#45;&gt;Node17</title>
<path fill="none" stroke="midnightblue" d="M523.66,-642.32C538.63,-633.24 555.06,-622.38 569,-611 598.33,-587.06 627.61,-554.76 646.42,-532.65"/>
<polygon fill="midnightblue" stroke="midnightblue" points="521.84,-639.32 515.03,-647.44 525.42,-645.34 521.84,-639.32"/>
</g>
<!-- Node23 -->
<g id="node23" class="node">
<title>Node23</title>
<g id="a_node23"><a xlink:href="csv__weight__importer_8h.html" target="_top" xlink:title=" ">
<polygon fill="white" stroke="black" points="416.5,-569.5 416.5,-610.5 559.5,-610.5 559.5,-569.5 416.5,-569.5"/>
<text text-anchor="start" x="424.5" y="-598.5" font-family="Helvetica,sans-Serif" font-size="10.00">include/IO_Interaction</text>
<text text-anchor="start" x="424.5" y="-587.5" font-family="Helvetica,sans-Serif" font-size="10.00">/Weight_Importer_Helpers</text>
<text text-anchor="middle" x="488" y="-576.5" font-family="Helvetica,sans-Serif" font-size="10.00">/csv_weight_importer.h</text>
</a>
</g>
</g>
<!-- Node22&#45;&gt;Node23 -->
<g id="edge35" class="edge">
<title>Node22&#45;&gt;Node23</title>
<path fill="none" stroke="midnightblue" d="M482.52,-637.3C483.58,-628.3 484.73,-618.65 485.69,-610.51"/>
<polygon fill="midnightblue" stroke="midnightblue" points="479.02,-637.09 481.32,-647.43 485.97,-637.91 479.02,-637.09"/>
</g>
<!-- Node23&#45;&gt;Node17 -->
<g id="edge36" class="edge">
<title>Node23&#45;&gt;Node17</title>
<path fill="none" stroke="midnightblue" d="M540.27,-565.2C562.78,-554.95 589.11,-542.96 611.92,-532.58"/>
<polygon fill="midnightblue" stroke="midnightblue" points="538.53,-562.15 530.87,-569.48 541.43,-568.52 538.53,-562.15"/>
</g>
<!-- Node23&#45;&gt;Node18 -->
<g id="edge37" class="edge">
<title>Node23&#45;&gt;Node18</title>
<path fill="none" stroke="midnightblue" d="M448.97,-562.78C439.71,-554.45 431.06,-544.39 426,-533 416.44,-511.47 419.3,-502.58 426,-480 431.29,-462.17 443.55,-444.68 453.12,-432.93"/>
<polygon fill="midnightblue" stroke="midnightblue" points="446.91,-565.62 456.83,-569.36 451.41,-560.25 446.91,-565.62"/>
</g>
<!-- Node24 -->
<g id="node24" class="node">
<title>Node24</title>
<g id="a_node24"><a xlink:href="csv__weight__importer_8cpp.html" target="_top" xlink:title=" ">
<polygon fill="white" stroke="black" points="434.5,-486 434.5,-527 577.5,-527 577.5,-486 434.5,-486"/>
<text text-anchor="start" x="442.5" y="-515" font-family="Helvetica,sans-Serif" font-size="10.00">src/IO_Interaction</text>
<text text-anchor="start" x="442.5" y="-504" font-family="Helvetica,sans-Serif" font-size="10.00">/Weight_Importer_Helpers</text>
<text text-anchor="middle" x="506" y="-493" font-family="Helvetica,sans-Serif" font-size="10.00">/csv_weight_importer.cpp</text>
</a>
</g>
</g>
<!-- Node23&#45;&gt;Node24 -->
<g id="edge38" class="edge">
<title>Node23&#45;&gt;Node24</title>
<path fill="none" stroke="midnightblue" d="M494.54,-559.4C496.92,-548.63 499.54,-536.73 501.68,-527.05"/>
<polygon fill="midnightblue" stroke="midnightblue" points="491.1,-558.75 492.36,-569.27 497.93,-560.26 491.1,-558.75"/>
</g>
<!-- Node25&#45;&gt;Node4 -->
<g id="edge41" class="edge">
<title>Node25&#45;&gt;Node4</title>
<path fill="none" stroke="midnightblue" d="M341.17,-717.37C316.65,-684.41 263.92,-607.56 245,-533 239.21,-510.17 242.62,-503.44 245,-480 252.15,-409.58 232.76,-379.25 277,-324 291.99,-305.27 316.45,-294.08 337.43,-287.54"/>
<polygon fill="midnightblue" stroke="midnightblue" points="338.46,-719.59 347.28,-725.46 344.04,-715.37 338.46,-719.59"/>
</g>
<!-- Node25&#45;&gt;Node5 -->
<g id="edge43" class="edge">
<title>Node25&#45;&gt;Node5</title>
<path fill="none" stroke="midnightblue" d="M439.9,-726.62C580.18,-712.16 843,-674 843,-591 843,-591 843,-591 843,-338.5 843,-297.65 843,-249.38 843,-226.04"/>
<polygon fill="midnightblue" stroke="midnightblue" points="439.2,-723.17 429.6,-727.66 439.9,-730.13 439.2,-723.17"/>
</g>
<!-- Node25&#45;&gt;Node15 -->
<g id="edge42" class="edge">
<title>Node25&#45;&gt;Node15</title>
<path fill="none" stroke="midnightblue" d="M350.89,-715.47C343.49,-671.34 324.94,-560.77 318.36,-521.56"/>
<polygon fill="midnightblue" stroke="midnightblue" points="347.45,-716.11 352.56,-725.4 354.35,-714.96 347.45,-716.11"/>
</g>
<!-- Node25&#45;&gt;Node22 -->
<g id="edge44" class="edge">
<title>Node25&#45;&gt;Node22</title>
<path fill="none" stroke="midnightblue" d="M379.76,-720.6C397.51,-711.38 421.38,-698.96 441.26,-688.63"/>
<polygon fill="midnightblue" stroke="midnightblue" points="377.86,-717.65 370.6,-725.37 381.09,-723.86 377.86,-717.65"/>
</g>
</g>
</svg>
        <g id="navigator" transform="translate(0 0)" fill="#404254">
                <rect fill="#f2f5e9" fill-opacity="0.5" stroke="#606060" stroke-width=".5" x="0" y="0" width="60" height="60"/>
                <use id="zoomplus" xlink:href="#zoomPlus" x="17" y="9" onmousedown="handleZoom(evt,'in')"/>
                <use id="zoomminus" xlink:href="#zoomMin" x="42" y="9" onmousedown="handleZoom(evt,'out')"/>
                <use id="reset" xlink:href="#resetDef" x="30" y="36" onmousedown="handleReset()"/>
                <g id="arrowUp" xlink:href="#dirArrow" transform="translate(30 24)" onmousedown="handlePan(0,-1)">
                  <use xlink:href="#rim" fill="#404040">
                        <set attributeName="fill" to="#808080" begin="arrowUp.mouseover" end="arrowUp.mouseout"/>
                  </use>
                  <path fill="none" stroke="white" stroke-width="1.5" d="M0,-3.0v7 M-2.5,-0.5L0,-3.0L2.5,-0.5"/>
                </g>
                <g id="arrowRight" xlink:href="#dirArrow" transform="rotate(90) translate(36 -43)" onmousedown="handlePan(1,0)">
                  <use xlink:href="#rim" fill="#404040">
                        <set attributeName="fill" to="#808080" begin="arrowRight.mouseover" end="arrowRight.mouseout"/>
                  </use>
                  <path fill="none" stroke="white" stroke-width="1.5" d="M0,-3.0v7 M-2.5,-0.5L0,-3.0L2.5,-0.5"/>
                </g>
                <g id="arrowDown" xlink:href="#dirArrow" transform="rotate(180) translate(-30 -48)" onmousedown="handlePan(0,1)">
                  <use xlink:href="#rim" fill="#404040">
                        <set attributeName="fill" to="#808080" begin="arrowDown.mouseover" end="arrowDown.mouseout"/>
                  </use>
                  <path fill="none" stroke="white" stroke-width="1.5" d="M0,-3.0v7 M-2.5,-0.5L0,-3.0L2.5,-0.5"/>
                </g>
                <g id="arrowLeft" xlink:href="#dirArrow" transform="rotate(270) translate(-36 17)" onmousedown="handlePan(-1,0)">
                  <use xlink:href="#rim" fill="#404040">
                        <set attributeName="fill" to="#808080" begin="arrowLeft.mouseover" end="arrowLeft.mouseout"/>
                  </use>
                  <path fill="none" stroke="white" stroke-width="1.5" d="M0,-3.0v7 M-2.5,-0.5L0,-3.0L2.5,-0.5"/>
                </g>
        </g>
        <svg viewBox="0 0 15 15" width="100%" height="30px" preserveAspectRatio="xMaxYMin meet">
         <g id="arrow_out" transform="scale(0.3 0.3)">
          <a xlink:href="mwgraph_8h__dep__incl_org.svg" target="_base">
           <rect id="button" ry="5" rx="5" y="6" x="6" height="38" width="38"
                fill="#f2f5e9" fill-opacity="0.5" stroke="#606060" stroke-width="1.0"/>
           <path id="arrow"
             d="M 11.500037,31.436501 C 11.940474,20.09759 22.043105,11.32322 32.158766,21.979434 L 37.068811,17.246167 C 37.068811,17.246167 37.088388,32 37.088388,32 L 22.160133,31.978069 C 22.160133,31.978069 26.997745,27.140456 26.997745,27.140456 C 18.528582,18.264221 13.291696,25.230495 11.500037,31.436501 z"
             style="fill:#404040;"/>
          </a>
         </g>
        </svg>
</svg>
