<?xml version="1.0" encoding="UTF-8" standalone="no"?>
<!DOCTYPE svg PUBLIC "-//W3C//DTD SVG 1.1//EN"
 "http://www.w3.org/Graphics/SVG/1.1/DTD/svg11.dtd">
<!-- Generated by graphviz version 2.43.0 (0)
 -->
<!-- Title: include/network_butcher/Network/mwgraph.h Pages: 1 -->
<!--zoomable 1031 -->
<svg id="main" version="1.1" xmlns="http://www.w3.org/2000/svg" xmlns:xlink="http://www.w3.org/1999/xlink" xml:space="preserve" onload="init(evt)">
<style type="text/css"><![CDATA[
.edge:hover path { stroke: red; }
.edge:hover polygon { stroke: red; fill: red; }
]]></style>
<script type="text/javascript"><![CDATA[
var edges = document.getElementsByTagName('g');
if (edges && edges.length) {
  for (var i=0;i<edges.length;i++) {
    if (edges[i].id.substr(0,4)=='edge') {
      edges[i].setAttribute('class','edge');
    }
  }
}
]]></script>
        <defs>
                <circle id="rim" cx="0" cy="0" r="7"/>
                <circle id="rim2" cx="0" cy="0" r="3.5"/>
                <g id="zoomPlus">
                        <use xlink:href="#rim" fill="#404040">
                                <set attributeName="fill" to="#808080" begin="zoomplus.mouseover" end="zoomplus.mouseout"/>
                        </use>
                        <path d="M-4,0h8M0,-4v8" fill="none" stroke="white" stroke-width="1.5" pointer-events="none"/>
                </g>
                <g id="zoomMin">
                        <use xlink:href="#rim" fill="#404040">
                                <set attributeName="fill" to="#808080" begin="zoomminus.mouseover" end="zoomminus.mouseout"/>
                        </use>
                        <path d="M-4,0h8" fill="none" stroke="white" stroke-width="1.5" pointer-events="none"/>
                </g>
                <g id="dirArrow">
                        <path fill="none" stroke="white" stroke-width="1.5" d="M0,-3.0v7 M-2.5,-0.5L0,-3.0L2.5,-0.5"/>
                </g>
               <g id="resetDef">
                       <use xlink:href="#rim2" fill="#404040">
                               <set attributeName="fill" to="#808080" begin="reset.mouseover" end="reset.mouseout"/>
                       </use>
               </g>
        </defs>

<script type="text/javascript">
var viewWidth = 1011;
var viewHeight = 1031;
var sectionId = 'dynsection-1';
</script>
<script xlink:href="svgpan.js"/>
<svg id="graph" class="graph">
<g id="viewport">
<title>include/network_butcher/Network/mwgraph.h</title>
<polygon fill="white" stroke="transparent" points="-4,4 -4,-1027 1007,-1027 1007,4 -4,4"/>
<!-- Node1 -->
<g id="node1" class="node">
<title>Node1</title>
<g id="a_node1"><a xlink:title=" ">
<polygon fill="#bfbfbf" stroke="black" points="496.5,-992.5 496.5,-1022.5 633.5,-1022.5 633.5,-992.5 496.5,-992.5"/>
<text text-anchor="start" x="504.5" y="-1010.5" font-family="Helvetica,sans-Serif" font-size="10.00">include/network_butcher</text>
<text text-anchor="middle" x="565" y="-999.5" font-family="Helvetica,sans-Serif" font-size="10.00">/Network/mwgraph.h</text>
</a>
</g>
</g>
<!-- Node2 -->
<g id="node2" class="node">
<title>Node2</title>
<g id="a_node2"><a xlink:href="wgraph_8h.html" target="_top" xlink:title=" ">
<polygon fill="white" stroke="black" points="448.5,-925.5 448.5,-955.5 585.5,-955.5 585.5,-925.5 448.5,-925.5"/>
<text text-anchor="start" x="456.5" y="-943.5" font-family="Helvetica,sans-Serif" font-size="10.00">include/network_butcher</text>
<text text-anchor="middle" x="517" y="-932.5" font-family="Helvetica,sans-Serif" font-size="10.00">/Network/wgraph.h</text>
</a>
</g>
</g>
<!-- Node1&#45;&gt;Node2 -->
<g id="edge1" class="edge">
<title>Node1&#45;&gt;Node2</title>
<path fill="none" stroke="midnightblue" d="M548.5,-984.16C541.5,-974.68 533.56,-963.92 527.39,-955.58"/>
<polygon fill="midnightblue" stroke="midnightblue" points="545.83,-986.43 554.58,-992.4 551.46,-982.27 545.83,-986.43"/>
</g>
<!-- Node19 -->
<g id="node19" class="node">
<title>Node19</title>
<g id="a_node19"><a xlink:href="graph__traits_8h.html" target="_top" xlink:title=" ">
<polygon fill="white" stroke="black" points="545.5,-858.5 545.5,-888.5 682.5,-888.5 682.5,-858.5 545.5,-858.5"/>
<text text-anchor="start" x="553.5" y="-876.5" font-family="Helvetica,sans-Serif" font-size="10.00">include/network_butcher</text>
<text text-anchor="middle" x="614" y="-865.5" font-family="Helvetica,sans-Serif" font-size="10.00">/Network/graph_traits.h</text>
</a>
</g>
</g>
<!-- Node1&#45;&gt;Node19 -->
<g id="edge46" class="edge">
<title>Node1&#45;&gt;Node19</title>
<path fill="none" stroke="midnightblue" d="M579.79,-983.89C584.85,-975.41 590.19,-965.51 594,-956 603.1,-933.28 608.87,-905.28 611.76,-888.72"/>
<polygon fill="midnightblue" stroke="midnightblue" points="576.78,-982.11 574.5,-992.46 582.73,-985.79 576.78,-982.11"/>
</g>
<!-- Node3 -->
<g id="node3" class="node">
<title>Node3</title>
<g id="a_node3"><a xlink:href="computer__memory_8h.html" target="_top" xlink:title=" ">
<polygon fill="white" stroke="black" points="28.5,-624.5 28.5,-654.5 199.5,-654.5 199.5,-624.5 28.5,-624.5"/>
<text text-anchor="start" x="36.5" y="-642.5" font-family="Helvetica,sans-Serif" font-size="10.00">include/network_butcher</text>
<text text-anchor="middle" x="114" y="-631.5" font-family="Helvetica,sans-Serif" font-size="10.00">/Computer/computer_memory.h</text>
</a>
</g>
</g>
<!-- Node2&#45;&gt;Node3 -->
<g id="edge2" class="edge">
<title>Node2&#45;&gt;Node3</title>
<path fill="none" stroke="midnightblue" d="M438.26,-924.72C372.02,-908.89 278.13,-878.08 214,-822 159.3,-774.16 128.66,-688.81 118.17,-654.93"/>
<polygon fill="midnightblue" stroke="midnightblue" points="437.7,-928.18 448.23,-927.04 439.29,-921.37 437.7,-928.18"/>
</g>
<!-- Node2&#45;&gt;Node19 -->
<g id="edge26" class="edge">
<title>Node2&#45;&gt;Node19</title>
<path fill="none" stroke="midnightblue" d="M546.5,-919.73C561.51,-909.68 579.4,-897.68 592.99,-888.58"/>
<polygon fill="midnightblue" stroke="midnightblue" points="544.41,-916.92 538.05,-925.4 548.3,-922.74 544.41,-916.92"/>
</g>
<!-- Node4 -->
<g id="node4" class="node">
<title>Node4</title>
<g id="a_node4"><a xlink:href="butcher_8h.html" target="_top" xlink:title=" ">
<polygon fill="white" stroke="black" points="490.5,-290.5 490.5,-320.5 627.5,-320.5 627.5,-290.5 490.5,-290.5"/>
<text text-anchor="start" x="498.5" y="-308.5" font-family="Helvetica,sans-Serif" font-size="10.00">include/network_butcher</text>
<text text-anchor="middle" x="559" y="-297.5" font-family="Helvetica,sans-Serif" font-size="10.00">/Butcher/butcher.h</text>
</a>
</g>
</g>
<!-- Node3&#45;&gt;Node4 -->
<g id="edge3" class="edge">
<title>Node3&#45;&gt;Node4</title>
<path fill="none" stroke="midnightblue" d="M105.22,-614.5C87.25,-560.68 53.24,-429.44 119,-357 143.49,-330.03 372.82,-315.32 490.31,-309.49"/>
<polygon fill="midnightblue" stroke="midnightblue" points="102,-615.88 108.57,-624.19 108.61,-613.59 102,-615.88"/>
</g>
<!-- Node8 -->
<g id="node8" class="node">
<title>Node8</title>
<g id="a_node8"><a xlink:href="network__butcher_8h.html" target="_top" xlink:title=" ">
<polygon fill="white" stroke="black" points="372.5,-0.5 372.5,-30.5 509.5,-30.5 509.5,-0.5 372.5,-0.5"/>
<text text-anchor="start" x="380.5" y="-18.5" font-family="Helvetica,sans-Serif" font-size="10.00">include/network_butcher</text>
<text text-anchor="middle" x="441" y="-7.5" font-family="Helvetica,sans-Serif" font-size="10.00">/network_butcher.h</text>
</a>
</g>
</g>
<!-- Node3&#45;&gt;Node8 -->
<g id="edge25" class="edge">
<title>Node3&#45;&gt;Node8</title>
<path fill="none" stroke="midnightblue" d="M99.19,-615.7C92.46,-604.44 84.92,-590.42 80,-577 62.12,-528.27 57,-514.41 57,-462.5 57,-462.5 57,-462.5 57,-154 57,-65.15 153.42,-97.17 237,-67 281.1,-51.08 332.33,-38.42 372.41,-29.76"/>
<polygon fill="midnightblue" stroke="midnightblue" points="96.35,-617.76 104.58,-624.44 102.31,-614.09 96.35,-617.76"/>
</g>
<!-- Node14 -->
<g id="node14" class="node">
<title>Node14</title>
<g id="a_node14"><a xlink:href="graph__constraint_8h.html" target="_top" xlink:title=" ">
<polygon fill="white" stroke="black" points="587.5,-535.5 587.5,-565.5 738.5,-565.5 738.5,-535.5 587.5,-535.5"/>
<text text-anchor="start" x="595.5" y="-553.5" font-family="Helvetica,sans-Serif" font-size="10.00">include/network_butcher</text>
<text text-anchor="middle" x="663" y="-542.5" font-family="Helvetica,sans-Serif" font-size="10.00">/Butcher/graph_constraint.h</text>
</a>
</g>
</g>
<!-- Node3&#45;&gt;Node14 -->
<g id="edge16" class="edge">
<title>Node3&#45;&gt;Node14</title>
<path fill="none" stroke="midnightblue" d="M209.75,-626.29C296.06,-614.89 426.33,-596.72 539,-577 558.38,-573.61 579.36,-569.47 598.46,-565.53"/>
<polygon fill="midnightblue" stroke="midnightblue" points="209.17,-622.84 199.71,-627.61 210.08,-629.78 209.17,-622.84"/>
</g>
<!-- Node16 -->
<g id="node16" class="node">
<title>Node16</title>
<g id="a_node16"><a xlink:href="block__aMLLibrary__weight__importer_8h.html" target="_top" xlink:title=" ">
<polygon fill="white" stroke="black" points="161,-524.5 161,-576.5 331,-576.5 331,-524.5 161,-524.5"/>
<text text-anchor="start" x="169" y="-564.5" font-family="Helvetica,sans-Serif" font-size="10.00">include/network_butcher</text>
<text text-anchor="start" x="169" y="-553.5" font-family="Helvetica,sans-Serif" font-size="10.00">/IO_Interaction/Weight</text>
<text text-anchor="start" x="169" y="-542.5" font-family="Helvetica,sans-Serif" font-size="10.00">_Importer_Helpers/block</text>
<text text-anchor="middle" x="246" y="-531.5" font-family="Helvetica,sans-Serif" font-size="10.00">_aMLLibrary_weight_importer.h</text>
</a>
</g>
</g>
<!-- Node3&#45;&gt;Node16 -->
<g id="edge19" class="edge">
<title>Node3&#45;&gt;Node16</title>
<path fill="none" stroke="midnightblue" d="M144.04,-618.7C163,-606.21 187.66,-589.95 207.97,-576.56"/>
<polygon fill="midnightblue" stroke="midnightblue" points="141.93,-615.9 135.5,-624.33 145.78,-621.75 141.93,-615.9"/>
</g>
<!-- Node5 -->
<g id="node5" class="node">
<title>Node5</title>
<g id="a_node5"><a xlink:href="onnx__importer__helpers_8h.html" target="_top" xlink:title=" ">
<polygon fill="white" stroke="black" points="666,-212.5 666,-253.5 828,-253.5 828,-212.5 666,-212.5"/>
<text text-anchor="start" x="674" y="-241.5" font-family="Helvetica,sans-Serif" font-size="10.00">include/network_butcher</text>
<text text-anchor="start" x="674" y="-230.5" font-family="Helvetica,sans-Serif" font-size="10.00">/IO_Interaction/onnx_importer</text>
<text text-anchor="middle" x="747" y="-219.5" font-family="Helvetica,sans-Serif" font-size="10.00">_helpers.h</text>
</a>
</g>
</g>
<!-- Node4&#45;&gt;Node5 -->
<g id="edge4" class="edge">
<title>Node4&#45;&gt;Node5</title>
<path fill="none" stroke="midnightblue" d="M606.2,-286.8C633.19,-276.68 667.1,-263.96 694.88,-253.55"/>
<polygon fill="midnightblue" stroke="midnightblue" points="604.73,-283.61 596.59,-290.4 607.19,-290.17 604.73,-283.61"/>
</g>
<!-- Node4&#45;&gt;Node8 -->
<g id="edge15" class="edge">
<title>Node4&#45;&gt;Node8</title>
<path fill="none" stroke="midnightblue" d="M567.04,-280.79C580.95,-235.1 604.02,-133.51 560,-67 548.36,-49.41 529.22,-37.93 509.66,-30.44"/>
<polygon fill="midnightblue" stroke="midnightblue" points="563.68,-279.82 563.99,-290.41 570.35,-281.93 563.68,-279.82"/>
</g>
<!-- Node12 -->
<g id="node12" class="node">
<title>Node12</title>
<g id="a_node12"><a xlink:href="onnx__model__reconstructor__helpers_8h.html" target="_top" xlink:title=" ">
<polygon fill="white" stroke="black" points="224.5,-212.5 224.5,-253.5 375.5,-253.5 375.5,-212.5 224.5,-212.5"/>
<text text-anchor="start" x="232.5" y="-241.5" font-family="Helvetica,sans-Serif" font-size="10.00">include/network_butcher</text>
<text text-anchor="start" x="232.5" y="-230.5" font-family="Helvetica,sans-Serif" font-size="10.00">/IO_Interaction/onnx_model</text>
<text text-anchor="middle" x="300" y="-219.5" font-family="Helvetica,sans-Serif" font-size="10.00">_reconstructor_helpers.h</text>
</a>
</g>
</g>
<!-- Node4&#45;&gt;Node12 -->
<g id="edge12" class="edge">
<title>Node4&#45;&gt;Node12</title>
<path fill="none" stroke="midnightblue" d="M497.69,-287.81C459.98,-277.55 411.49,-264.35 371.98,-253.59"/>
<polygon fill="midnightblue" stroke="midnightblue" points="496.95,-291.24 507.52,-290.49 498.79,-284.48 496.95,-291.24"/>
</g>
<!-- Node6 -->
<g id="node6" class="node">
<title>Node6</title>
<g id="a_node6"><a xlink:href="io__manager_8h.html" target="_top" xlink:title=" ">
<polygon fill="white" stroke="black" points="364.5,-140 364.5,-170 501.5,-170 501.5,-140 364.5,-140"/>
<text text-anchor="start" x="372.5" y="-158" font-family="Helvetica,sans-Serif" font-size="10.00">include/network_butcher</text>
<text text-anchor="middle" x="433" y="-147" font-family="Helvetica,sans-Serif" font-size="10.00">/io_manager.h</text>
</a>
</g>
</g>
<!-- Node5&#45;&gt;Node6 -->
<g id="edge5" class="edge">
<title>Node5&#45;&gt;Node6</title>
<path fill="none" stroke="midnightblue" d="M656.36,-210.06C603.2,-197.2 537.6,-181.32 491.28,-170.11"/>
<polygon fill="midnightblue" stroke="midnightblue" points="655.59,-213.48 666.14,-212.43 657.24,-206.67 655.59,-213.48"/>
</g>
<!-- Node11 -->
<g id="node11" class="node">
<title>Node11</title>
<g id="a_node11"><a xlink:href="onnx__importer__helpers_8cpp.html" target="_top" xlink:title=" ">
<polygon fill="white" stroke="black" points="671,-140 671,-170 823,-170 823,-140 671,-140"/>
<text text-anchor="start" x="679" y="-158" font-family="Helvetica,sans-Serif" font-size="10.00">src/IO_Interaction</text>
<text text-anchor="middle" x="747" y="-147" font-family="Helvetica,sans-Serif" font-size="10.00">/onnx_importer_helpers.cpp</text>
</a>
</g>
</g>
<!-- Node5&#45;&gt;Node11 -->
<g id="edge11" class="edge">
<title>Node5&#45;&gt;Node11</title>
<path fill="none" stroke="midnightblue" d="M747,-202.28C747,-191.25 747,-179.25 747,-170.23"/>
<polygon fill="midnightblue" stroke="midnightblue" points="743.5,-202.43 747,-212.43 750.5,-202.43 743.5,-202.43"/>
</g>
<!-- Node7 -->
<g id="node7" class="node">
<title>Node7</title>
<g id="a_node7"><a xlink:href="general__manager_8h.html" target="_top" xlink:title=" ">
<polygon fill="white" stroke="black" points="246.5,-67.5 246.5,-97.5 383.5,-97.5 383.5,-67.5 246.5,-67.5"/>
<text text-anchor="start" x="254.5" y="-85.5" font-family="Helvetica,sans-Serif" font-size="10.00">include/network_butcher</text>
<text text-anchor="middle" x="315" y="-74.5" font-family="Helvetica,sans-Serif" font-size="10.00">/general_manager.h</text>
</a>
</g>
</g>
<!-- Node6&#45;&gt;Node7 -->
<g id="edge6" class="edge">
<title>Node6&#45;&gt;Node7</title>
<path fill="none" stroke="midnightblue" d="M400.76,-134.74C381.1,-122.99 356.39,-108.23 338.55,-97.57"/>
<polygon fill="midnightblue" stroke="midnightblue" points="399.02,-137.78 409.4,-139.9 402.62,-131.77 399.02,-137.78"/>
</g>
<!-- Node6&#45;&gt;Node8 -->
<g id="edge9" class="edge">
<title>Node6&#45;&gt;Node8</title>
<path fill="none" stroke="midnightblue" d="M430.86,-129.36C429.72,-111.91 428.94,-87.97 431,-67 432.22,-54.55 435.1,-40.61 437.45,-30.54"/>
<polygon fill="midnightblue" stroke="midnightblue" points="427.4,-130.08 431.63,-139.8 434.38,-129.57 427.4,-130.08"/>
</g>
<!-- Node10 -->
<g id="node10" class="node">
<title>Node10</title>
<g id="a_node10"><a xlink:href="io__manager_8cpp.html" target="_top" xlink:title=" ">
<polygon fill="white" stroke="black" points="440.5,-73 440.5,-92 551.5,-92 551.5,-73 440.5,-73"/>
<text text-anchor="middle" x="496" y="-80" font-family="Helvetica,sans-Serif" font-size="10.00">src/io_manager.cpp</text>
</a>
</g>
</g>
<!-- Node6&#45;&gt;Node10 -->
<g id="edge10" class="edge">
<title>Node6&#45;&gt;Node10</title>
<path fill="none" stroke="midnightblue" d="M452.43,-132.26C464.42,-118.84 479.16,-102.35 488.05,-92.39"/>
<polygon fill="midnightblue" stroke="midnightblue" points="449.8,-129.94 445.75,-139.73 455.02,-134.61 449.8,-129.94"/>
</g>
<!-- Node7&#45;&gt;Node8 -->
<g id="edge7" class="edge">
<title>Node7&#45;&gt;Node8</title>
<path fill="none" stroke="midnightblue" d="M351.42,-62.71C371.29,-52.46 395.48,-39.98 413.71,-30.58"/>
<polygon fill="midnightblue" stroke="midnightblue" points="349.62,-59.7 342.34,-67.4 352.83,-65.92 349.62,-59.7"/>
</g>
<!-- Node9 -->
<g id="node9" class="node">
<title>Node9</title>
<g id="a_node9"><a xlink:href="general__manager_8cpp.html" target="_top" xlink:title=" ">
<polygon fill="white" stroke="black" points="215.5,-6 215.5,-25 354.5,-25 354.5,-6 215.5,-6"/>
<text text-anchor="middle" x="285" y="-13" font-family="Helvetica,sans-Serif" font-size="10.00">src/general_manager.cpp</text>
</a>
</g>
</g>
<!-- Node7&#45;&gt;Node9 -->
<g id="edge8" class="edge">
<title>Node7&#45;&gt;Node9</title>
<path fill="none" stroke="midnightblue" d="M304.29,-58.29C298.99,-46.8 292.91,-33.63 289.01,-25.19"/>
<polygon fill="midnightblue" stroke="midnightblue" points="301.12,-59.78 308.49,-67.4 307.48,-56.85 301.12,-59.78"/>
</g>
<!-- Node12&#45;&gt;Node6 -->
<g id="edge13" class="edge">
<title>Node12&#45;&gt;Node6</title>
<path fill="none" stroke="midnightblue" d="M343.2,-207.31C364.68,-195.04 389.88,-180.64 408.11,-170.23"/>
<polygon fill="midnightblue" stroke="midnightblue" points="341.2,-204.43 334.25,-212.43 344.67,-210.51 341.2,-204.43"/>
</g>
<!-- Node13 -->
<g id="node13" class="node">
<title>Node13</title>
<g id="a_node13"><a xlink:href="onnx__model__reconstructor__helpers_8cpp.html" target="_top" xlink:title=" ">
<polygon fill="white" stroke="black" points="197.5,-134.5 197.5,-175.5 346.5,-175.5 346.5,-134.5 197.5,-134.5"/>
<text text-anchor="start" x="205.5" y="-163.5" font-family="Helvetica,sans-Serif" font-size="10.00">src/IO_Interaction</text>
<text text-anchor="start" x="205.5" y="-152.5" font-family="Helvetica,sans-Serif" font-size="10.00">/onnx_model_reconstructor</text>
<text text-anchor="middle" x="272" y="-141.5" font-family="Helvetica,sans-Serif" font-size="10.00">_helpers.cpp</text>
</a>
</g>
</g>
<!-- Node12&#45;&gt;Node13 -->
<g id="edge14" class="edge">
<title>Node12&#45;&gt;Node13</title>
<path fill="none" stroke="midnightblue" d="M289.27,-202.88C285.9,-193.72 282.25,-183.83 279.19,-175.51"/>
<polygon fill="midnightblue" stroke="midnightblue" points="286.05,-204.25 292.79,-212.43 292.62,-201.83 286.05,-204.25"/>
</g>
<!-- Node15 -->
<g id="node15" class="node">
<title>Node15</title>
<g id="a_node15"><a xlink:href="constrained__block__graph__builder_8h.html" target="_top" xlink:title=" ">
<polygon fill="white" stroke="black" points="587.5,-357.5 587.5,-398.5 736.5,-398.5 736.5,-357.5 587.5,-357.5"/>
<text text-anchor="start" x="595.5" y="-386.5" font-family="Helvetica,sans-Serif" font-size="10.00">include/network_butcher</text>
<text text-anchor="start" x="595.5" y="-375.5" font-family="Helvetica,sans-Serif" font-size="10.00">/Butcher/constrained_block</text>
<text text-anchor="middle" x="662" y="-364.5" font-family="Helvetica,sans-Serif" font-size="10.00">_graph_builder.h</text>
</a>
</g>
</g>
<!-- Node14&#45;&gt;Node15 -->
<g id="edge17" class="edge">
<title>Node14&#45;&gt;Node15</title>
<path fill="none" stroke="midnightblue" d="M662.86,-525.25C662.66,-491.26 662.3,-430.11 662.12,-398.74"/>
<polygon fill="midnightblue" stroke="midnightblue" points="659.36,-525.28 662.92,-535.26 666.36,-525.24 659.36,-525.28"/>
</g>
<!-- Node15&#45;&gt;Node4 -->
<g id="edge18" class="edge">
<title>Node15&#45;&gt;Node4</title>
<path fill="none" stroke="midnightblue" d="M624.64,-351.43C609.49,-341.06 592.57,-329.48 579.7,-320.67"/>
<polygon fill="midnightblue" stroke="midnightblue" points="623.08,-354.6 633.31,-357.36 627.03,-348.83 623.08,-354.6"/>
</g>
<!-- Node17 -->
<g id="node17" class="node">
<title>Node17</title>
<g id="a_node17"><a xlink:href="weight__importers_8h.html" target="_top" xlink:title=" ">
<polygon fill="white" stroke="black" points="364.5,-441 364.5,-482 501.5,-482 501.5,-441 364.5,-441"/>
<text text-anchor="start" x="372.5" y="-470" font-family="Helvetica,sans-Serif" font-size="10.00">include/network_butcher</text>
<text text-anchor="start" x="372.5" y="-459" font-family="Helvetica,sans-Serif" font-size="10.00">/IO_Interaction/weight</text>
<text text-anchor="middle" x="433" y="-448" font-family="Helvetica,sans-Serif" font-size="10.00">_importers.h</text>
</a>
</g>
</g>
<!-- Node16&#45;&gt;Node17 -->
<g id="edge20" class="edge">
<title>Node16&#45;&gt;Node17</title>
<path fill="none" stroke="midnightblue" d="M309.18,-520.11C336.07,-507.59 366.72,-493.34 390.8,-482.13"/>
<polygon fill="midnightblue" stroke="midnightblue" points="307.43,-517.06 299.84,-524.45 310.38,-523.41 307.43,-517.06"/>
</g>
<!-- Node18 -->
<g id="node18" class="node">
<title>Node18</title>
<g id="a_node18"><a xlink:href="block__aMLLibrary__weight__importer_8cpp.html" target="_top" xlink:title=" ">
<polygon fill="white" stroke="black" points="174.5,-435.5 174.5,-487.5 317.5,-487.5 317.5,-435.5 174.5,-435.5"/>
<text text-anchor="start" x="182.5" y="-475.5" font-family="Helvetica,sans-Serif" font-size="10.00">src/IO_Interaction</text>
<text text-anchor="start" x="182.5" y="-464.5" font-family="Helvetica,sans-Serif" font-size="10.00">/Weight_Importer_Helpers</text>
<text text-anchor="start" x="182.5" y="-453.5" font-family="Helvetica,sans-Serif" font-size="10.00">/block_aMLLibrary_weight</text>
<text text-anchor="middle" x="246" y="-442.5" font-family="Helvetica,sans-Serif" font-size="10.00">_importer.cpp</text>
</a>
</g>
</g>
<!-- Node16&#45;&gt;Node18 -->
<g id="edge24" class="edge">
<title>Node16&#45;&gt;Node18</title>
<path fill="none" stroke="midnightblue" d="M246,-514.19C246,-505.28 246,-495.9 246,-487.61"/>
<polygon fill="midnightblue" stroke="midnightblue" points="242.5,-514.34 246,-524.34 249.5,-514.34 242.5,-514.34"/>
</g>
<!-- Node17&#45;&gt;Node4 -->
<g id="edge21" class="edge">
<title>Node17&#45;&gt;Node4</title>
<path fill="none" stroke="midnightblue" d="M455.4,-433.12C482.29,-400.26 526.37,-346.38 547.28,-320.82"/>
<polygon fill="midnightblue" stroke="midnightblue" points="452.58,-431.04 448.96,-441 458,-435.47 452.58,-431.04"/>
</g>
<!-- Node17&#45;&gt;Node6 -->
<g id="edge23" class="edge">
<title>Node17&#45;&gt;Node6</title>
<path fill="none" stroke="midnightblue" d="M433,-430.73C433,-366.5 433,-216.92 433,-170.2"/>
<polygon fill="midnightblue" stroke="midnightblue" points="429.5,-430.99 433,-440.99 436.5,-430.99 429.5,-430.99"/>
</g>
<!-- Node17&#45;&gt;Node15 -->
<g id="edge22" class="edge">
<title>Node17&#45;&gt;Node15</title>
<path fill="none" stroke="midnightblue" d="M497.39,-437.58C531.99,-425.27 574.19,-410.25 607.2,-398.5"/>
<polygon fill="midnightblue" stroke="midnightblue" points="496.1,-434.33 487.85,-440.98 498.45,-440.92 496.1,-434.33"/>
</g>
<!-- Node19&#45;&gt;Node4 -->
<g id="edge27" class="edge">
<title>Node19&#45;&gt;Node4</title>
<path fill="none" stroke="midnightblue" d="M550.6,-855.52C522.51,-847 489.45,-835.59 461,-822 329.39,-759.14 322.65,-703.15 208,-613 184.74,-594.71 166.18,-602.97 152,-577 138.26,-551.83 162.41,-438.07 165,-435 246.26,-338.58 400.9,-313.96 490.38,-308.01"/>
<polygon fill="midnightblue" stroke="midnightblue" points="549.73,-858.91 560.31,-858.41 551.73,-852.2 549.73,-858.91"/>
</g>
<!-- Node19&#45;&gt;Node5 -->
<g id="edge32" class="edge">
<title>Node19&#45;&gt;Node5</title>
<path fill="none" stroke="midnightblue" d="M692.31,-856.98C795.75,-834.2 965,-787.99 965,-729.5 965,-729.5 965,-729.5 965,-377 965,-309.11 890.16,-271.68 828.18,-252.33"/>
<polygon fill="midnightblue" stroke="midnightblue" points="691.54,-853.57 682.51,-859.11 693.03,-860.41 691.54,-853.57"/>
</g>
<!-- Node19&#45;&gt;Node8 -->
<g id="edge40" class="edge">
<title>Node19&#45;&gt;Node8</title>
<path fill="none" stroke="midnightblue" d="M692.9,-866.14C746.73,-859.72 818.72,-847 878,-822 941.68,-795.14 1003,-798.61 1003,-729.5 1003,-729.5 1003,-729.5 1003,-154 1003,-53.49 659.55,-26.1 509.63,-18.93"/>
<polygon fill="midnightblue" stroke="midnightblue" points="692.27,-862.69 682.73,-867.3 693.06,-869.64 692.27,-862.69"/>
</g>
<!-- Node19&#45;&gt;Node12 -->
<g id="edge33" class="edge">
<title>Node19&#45;&gt;Node12</title>
<path fill="none" stroke="midnightblue" d="M535.22,-870.55C369.5,-864.3 0,-838.18 0,-729.5 0,-729.5 0,-729.5 0,-377 0,-277.76 135.42,-247.32 224.3,-238.03"/>
<polygon fill="midnightblue" stroke="midnightblue" points="535.23,-874.05 545.35,-870.91 535.49,-867.05 535.23,-874.05"/>
</g>
<!-- Node19&#45;&gt;Node14 -->
<g id="edge29" class="edge">
<title>Node19&#45;&gt;Node14</title>
<path fill="none" stroke="midnightblue" d="M629.9,-849.83C634.98,-841.46 640.04,-831.65 643,-822 671.92,-727.68 666.9,-606.58 664.12,-565.7"/>
<polygon fill="midnightblue" stroke="midnightblue" points="626.94,-847.97 624.49,-858.28 632.83,-851.75 626.94,-847.97"/>
</g>
<!-- Node19&#45;&gt;Node15 -->
<g id="edge28" class="edge">
<title>Node19&#45;&gt;Node15</title>
<path fill="none" stroke="midnightblue" d="M637.54,-851.15C645.81,-842.7 654.63,-832.51 661,-822 720.94,-723.21 728.38,-690.87 748,-577 752,-553.79 754.23,-546.72 748,-524 734.45,-474.6 699.24,-424.98 678.31,-398.53"/>
<polygon fill="midnightblue" stroke="midnightblue" points="634.86,-848.87 630.18,-858.37 639.77,-853.87 634.86,-848.87"/>
</g>
<!-- Node20 -->
<g id="node20" class="node">
<title>Node20</title>
<g id="a_node20"><a xlink:href="path__converter_8h.html" target="_top" xlink:title=" ">
<polygon fill="white" stroke="black" points="795,-713.5 795,-743.5 937,-743.5 937,-713.5 795,-713.5"/>
<text text-anchor="start" x="803" y="-731.5" font-family="Helvetica,sans-Serif" font-size="10.00">include/network_butcher</text>
<text text-anchor="middle" x="866" y="-720.5" font-family="Helvetica,sans-Serif" font-size="10.00">/Butcher/path_converter.h</text>
</a>
</g>
</g>
<!-- Node19&#45;&gt;Node20 -->
<g id="edge30" class="edge">
<title>Node19&#45;&gt;Node20</title>
<path fill="none" stroke="midnightblue" d="M668.16,-855.01C691.82,-846.44 719.46,-835.13 743,-822 784.53,-798.83 827.77,-763.16 850.27,-743.57"/>
<polygon fill="midnightblue" stroke="midnightblue" points="666.89,-851.75 658.64,-858.4 669.23,-858.35 666.89,-851.75"/>
</g>
<!-- Node21 -->
<g id="node21" class="node">
<title>Node21</title>
<g id="a_node21"><a xlink:href="weight__importer_8h.html" target="_top" xlink:title=" ">
<polygon fill="white" stroke="black" points="366.5,-702.5 366.5,-754.5 509.5,-754.5 509.5,-702.5 366.5,-702.5"/>
<text text-anchor="start" x="374.5" y="-742.5" font-family="Helvetica,sans-Serif" font-size="10.00">include/network_butcher</text>
<text text-anchor="start" x="374.5" y="-731.5" font-family="Helvetica,sans-Serif" font-size="10.00">/IO_Interaction/Weight</text>
<text text-anchor="start" x="374.5" y="-720.5" font-family="Helvetica,sans-Serif" font-size="10.00">_Importer_Helpers/weight</text>
<text text-anchor="middle" x="438" y="-709.5" font-family="Helvetica,sans-Serif" font-size="10.00">_importer.h</text>
</a>
</g>
</g>
<!-- Node19&#45;&gt;Node21 -->
<g id="edge34" class="edge">
<title>Node19&#45;&gt;Node21</title>
<path fill="none" stroke="midnightblue" d="M546.13,-855.06C525.76,-847.39 504.48,-836.69 488,-822 467.56,-803.78 453.91,-775.15 446.11,-754.57"/>
<polygon fill="midnightblue" stroke="midnightblue" points="545.13,-858.41 555.72,-858.47 547.48,-851.82 545.13,-858.41"/>
</g>
<!-- Node24 -->
<g id="node24" class="node">
<title>Node24</title>
<g id="a_node24"><a xlink:href="parameters_8h.html" target="_top" xlink:title=" ">
<polygon fill="white" stroke="black" points="497.5,-791.5 497.5,-821.5 634.5,-821.5 634.5,-791.5 497.5,-791.5"/>
<text text-anchor="start" x="505.5" y="-809.5" font-family="Helvetica,sans-Serif" font-size="10.00">include/network_butcher</text>
<text text-anchor="middle" x="566" y="-798.5" font-family="Helvetica,sans-Serif" font-size="10.00">/Types/parameters.h</text>
</a>
</g>
</g>
<!-- Node19&#45;&gt;Node24 -->
<g id="edge41" class="edge">
<title>Node19&#45;&gt;Node24</title>
<path fill="none" stroke="midnightblue" d="M597.5,-850.16C590.5,-840.68 582.56,-829.92 576.39,-821.58"/>
<polygon fill="midnightblue" stroke="midnightblue" points="594.83,-852.43 603.58,-858.4 600.46,-848.27 594.83,-852.43"/>
</g>
<!-- Node20&#45;&gt;Node4 -->
<g id="edge31" class="edge">
<title>Node20&#45;&gt;Node4</title>
<path fill="none" stroke="midnightblue" d="M864.18,-703.03C861.82,-669.04 858,-605.64 858,-551.5 858,-551.5 858,-551.5 858,-460.5 858,-357.44 715.87,-323.29 627.6,-312.01"/>
<polygon fill="midnightblue" stroke="midnightblue" points="860.72,-703.64 864.92,-713.37 867.7,-703.14 860.72,-703.64"/>
</g>
<!-- Node21&#45;&gt;Node16 -->
<g id="edge35" class="edge">
<title>Node21&#45;&gt;Node16</title>
<path fill="none" stroke="midnightblue" d="M370.88,-697.68C354.87,-688.81 338.52,-678.16 325,-666 296.27,-640.16 272.6,-601.89 258.88,-576.83"/>
<polygon fill="midnightblue" stroke="midnightblue" points="369.26,-700.78 379.72,-702.42 372.57,-694.61 369.26,-700.78"/>
</g>
<!-- Node22 -->
<g id="node22" class="node">
<title>Node22</title>
<g id="a_node22"><a xlink:href="csv__weight__importer_8h.html" target="_top" xlink:title=" ">
<polygon fill="white" stroke="black" points="334,-613.5 334,-665.5 498,-665.5 498,-613.5 334,-613.5"/>
<text text-anchor="start" x="342" y="-653.5" font-family="Helvetica,sans-Serif" font-size="10.00">include/network_butcher</text>
<text text-anchor="start" x="342" y="-642.5" font-family="Helvetica,sans-Serif" font-size="10.00">/IO_Interaction/Weight</text>
<text text-anchor="start" x="342" y="-631.5" font-family="Helvetica,sans-Serif" font-size="10.00">_Importer_Helpers/csv_weight</text>
<text text-anchor="middle" x="416" y="-620.5" font-family="Helvetica,sans-Serif" font-size="10.00">_importer.h</text>
</a>
</g>
</g>
<!-- Node21&#45;&gt;Node22 -->
<g id="edge36" class="edge">
<title>Node21&#45;&gt;Node22</title>
<path fill="none" stroke="midnightblue" d="M429.14,-692.48C426.87,-683.49 424.47,-673.99 422.35,-665.61"/>
<polygon fill="midnightblue" stroke="midnightblue" points="425.79,-693.5 431.64,-702.34 432.58,-691.78 425.79,-693.5"/>
</g>
<!-- Node22&#45;&gt;Node16 -->
<g id="edge37" class="edge">
<title>Node22&#45;&gt;Node16</title>
<path fill="none" stroke="midnightblue" d="M357.92,-608.78C337.47,-598.31 314.7,-586.66 295.06,-576.61"/>
<polygon fill="midnightblue" stroke="midnightblue" points="356.33,-611.9 366.83,-613.34 359.52,-605.66 356.33,-611.9"/>
</g>
<!-- Node22&#45;&gt;Node17 -->
<g id="edge38" class="edge">
<title>Node22&#45;&gt;Node17</title>
<path fill="none" stroke="midnightblue" d="M390.59,-604.77C385.41,-596.15 380.72,-586.59 378,-577 371.56,-554.34 369.6,-546.01 378,-524 384.18,-507.81 396.81,-493.18 408.41,-482.26"/>
<polygon fill="midnightblue" stroke="midnightblue" points="387.76,-606.84 396.1,-613.38 393.66,-603.07 387.76,-606.84"/>
</g>
<!-- Node23 -->
<g id="node23" class="node">
<title>Node23</title>
<g id="a_node23"><a xlink:href="csv__weight__importer_8cpp.html" target="_top" xlink:title=" ">
<polygon fill="white" stroke="black" points="387.5,-530 387.5,-571 530.5,-571 530.5,-530 387.5,-530"/>
<text text-anchor="start" x="395.5" y="-559" font-family="Helvetica,sans-Serif" font-size="10.00">src/IO_Interaction</text>
<text text-anchor="start" x="395.5" y="-548" font-family="Helvetica,sans-Serif" font-size="10.00">/Weight_Importer_Helpers</text>
<text text-anchor="middle" x="459" y="-537" font-family="Helvetica,sans-Serif" font-size="10.00">/csv_weight_importer.cpp</text>
</a>
</g>
</g>
<!-- Node22&#45;&gt;Node23 -->
<g id="edge39" class="edge">
<title>Node22&#45;&gt;Node23</title>
<path fill="none" stroke="midnightblue" d="M432.97,-604.17C438.52,-592.93 444.5,-580.84 449.32,-571.08"/>
<polygon fill="midnightblue" stroke="midnightblue" points="429.73,-602.82 428.44,-613.34 436.01,-605.92 429.73,-602.82"/>
</g>
<!-- Node24&#45;&gt;Node4 -->
<g id="edge42" class="edge">
<title>Node24&#45;&gt;Node4</title>
<path fill="none" stroke="midnightblue" d="M564.32,-781.15C562.25,-748.98 559,-690.51 559,-640.5 559,-640.5 559,-640.5 559,-460.5 559,-408.9 559,-347.57 559,-320.51"/>
<polygon fill="midnightblue" stroke="midnightblue" points="560.85,-781.64 565,-791.38 567.83,-781.17 560.85,-781.64"/>
</g>
<!-- Node24&#45;&gt;Node5 -->
<g id="edge44" class="edge">
<title>Node24&#45;&gt;Node5</title>
<path fill="none" stroke="midnightblue" d="M594.31,-785.04C657.6,-736.69 805,-608.42 805,-462.5 805,-462.5 805,-462.5 805,-377 805,-330.12 777.9,-280.51 760.75,-253.81"/>
<polygon fill="midnightblue" stroke="midnightblue" points="591.85,-782.51 585.97,-791.32 596.06,-788.11 591.85,-782.51"/>
</g>
<!-- Node24&#45;&gt;Node14 -->
<g id="edge43" class="edge">
<title>Node24&#45;&gt;Node14</title>
<path fill="none" stroke="midnightblue" d="M574.92,-782.14C594.66,-730.45 641.55,-607.67 657.54,-565.79"/>
<polygon fill="midnightblue" stroke="midnightblue" points="571.65,-780.89 571.35,-791.48 578.19,-783.39 571.65,-780.89"/>
</g>
<!-- Node24&#45;&gt;Node21 -->
<g id="edge45" class="edge">
<title>Node24&#45;&gt;Node21</title>
<path fill="none" stroke="midnightblue" d="M533.19,-786.02C517.09,-776.46 497.51,-764.83 480.3,-754.62"/>
<polygon fill="midnightblue" stroke="midnightblue" points="531.84,-789.29 542.22,-791.38 535.41,-783.27 531.84,-789.29"/>
</g>
</g>
</svg>
        <g id="navigator" transform="translate(0 0)" fill="#404254">
                <rect fill="#f2f5e9" fill-opacity="0.5" stroke="#606060" stroke-width=".5" x="0" y="0" width="60" height="60"/>
                <use id="zoomplus" xlink:href="#zoomPlus" x="17" y="9" onmousedown="handleZoom(evt,'in')"/>
                <use id="zoomminus" xlink:href="#zoomMin" x="42" y="9" onmousedown="handleZoom(evt,'out')"/>
                <use id="reset" xlink:href="#resetDef" x="30" y="36" onmousedown="handleReset()"/>
                <g id="arrowUp" xlink:href="#dirArrow" transform="translate(30 24)" onmousedown="handlePan(0,-1)">
                  <use xlink:href="#rim" fill="#404040">
                        <set attributeName="fill" to="#808080" begin="arrowUp.mouseover" end="arrowUp.mouseout"/>
                  </use>
                  <path fill="none" stroke="white" stroke-width="1.5" d="M0,-3.0v7 M-2.5,-0.5L0,-3.0L2.5,-0.5"/>
                </g>
                <g id="arrowRight" xlink:href="#dirArrow" transform="rotate(90) translate(36 -43)" onmousedown="handlePan(1,0)">
                  <use xlink:href="#rim" fill="#404040">
                        <set attributeName="fill" to="#808080" begin="arrowRight.mouseover" end="arrowRight.mouseout"/>
                  </use>
                  <path fill="none" stroke="white" stroke-width="1.5" d="M0,-3.0v7 M-2.5,-0.5L0,-3.0L2.5,-0.5"/>
                </g>
                <g id="arrowDown" xlink:href="#dirArrow" transform="rotate(180) translate(-30 -48)" onmousedown="handlePan(0,1)">
                  <use xlink:href="#rim" fill="#404040">
                        <set attributeName="fill" to="#808080" begin="arrowDown.mouseover" end="arrowDown.mouseout"/>
                  </use>
                  <path fill="none" stroke="white" stroke-width="1.5" d="M0,-3.0v7 M-2.5,-0.5L0,-3.0L2.5,-0.5"/>
                </g>
                <g id="arrowLeft" xlink:href="#dirArrow" transform="rotate(270) translate(-36 17)" onmousedown="handlePan(-1,0)">
                  <use xlink:href="#rim" fill="#404040">
                        <set attributeName="fill" to="#808080" begin="arrowLeft.mouseover" end="arrowLeft.mouseout"/>
                  </use>
                  <path fill="none" stroke="white" stroke-width="1.5" d="M0,-3.0v7 M-2.5,-0.5L0,-3.0L2.5,-0.5"/>
                </g>
        </g>
        <svg viewBox="0 0 15 15" width="100%" height="30px" preserveAspectRatio="xMaxYMin meet">
         <g id="arrow_out" transform="scale(0.3 0.3)">
          <a xlink:href="mwgraph_8h__dep__incl_org.svg" target="_base">
           <rect id="button" ry="5" rx="5" y="6" x="6" height="38" width="38"
                fill="#f2f5e9" fill-opacity="0.5" stroke="#606060" stroke-width="1.0"/>
           <path id="arrow"
             d="M 11.500037,31.436501 C 11.940474,20.09759 22.043105,11.32322 32.158766,21.979434 L 37.068811,17.246167 C 37.068811,17.246167 37.088388,32 37.088388,32 L 22.160133,31.978069 C 22.160133,31.978069 26.997745,27.140456 26.997745,27.140456 C 18.528582,18.264221 13.291696,25.230495 11.500037,31.436501 z"
             style="fill:#404040;"/>
          </a>
         </g>
        </svg>
</svg>
