<?xml version="1.0" encoding="UTF-8" standalone="no"?>
<!DOCTYPE svg PUBLIC "-//W3C//DTD SVG 1.1//EN"
 "http://www.w3.org/Graphics/SVG/1.1/DTD/svg11.dtd">
<!-- Generated by graphviz version 2.43.0 (0)
 -->
<!-- Title: include/network_butcher/Network/mwgraph.h Pages: 1 -->
<svg width="1024pt" height="575pt"
 viewBox="0.00 0.00 1023.50 575.00" xmlns="http://www.w3.org/2000/svg" xmlns:xlink="http://www.w3.org/1999/xlink">
<g id="graph0" class="graph" transform="scale(1 1) rotate(0) translate(4 571)">
<title>include/network_butcher/Network/mwgraph.h</title>
<polygon fill="white" stroke="transparent" points="-4,4 -4,-571 1019.5,-571 1019.5,4 -4,4"/>
<!-- Node1 -->
<g id="node1" class="node">
<title>Node1</title>
<g id="a_node1"><a xlink:title=" ">
<polygon fill="#bfbfbf" stroke="black" points="387.5,-536.5 387.5,-566.5 524.5,-566.5 524.5,-536.5 387.5,-536.5"/>
<text text-anchor="start" x="395.5" y="-554.5" font-family="Helvetica,sans-Serif" font-size="10.00">include/network_butcher</text>
<text text-anchor="middle" x="456" y="-543.5" font-family="Helvetica,sans-Serif" font-size="10.00">/Network/mwgraph.h</text>
</a>
</g>
</g>
<!-- Node2 -->
<g id="node2" class="node">
<title>Node2</title>
<g id="a_node2"><a xlink:href="graph_8h.html" target="_top" xlink:title=" ">
<polygon fill="white" stroke="black" points="384.5,-469.5 384.5,-499.5 527.5,-499.5 527.5,-469.5 384.5,-469.5"/>
<text text-anchor="start" x="392.5" y="-487.5" font-family="Helvetica,sans-Serif" font-size="10.00">network_butcher/Network</text>
<text text-anchor="middle" x="456" y="-476.5" font-family="Helvetica,sans-Serif" font-size="10.00">/graph.h</text>
</a>
</g>
</g>
<!-- Node1&#45;&gt;Node2 -->
<g id="edge1" class="edge">
<title>Node1&#45;&gt;Node2</title>
<path fill="none" stroke="midnightblue" d="M456,-536.4C456,-528.64 456,-518.81 456,-509.86"/>
<polygon fill="midnightblue" stroke="midnightblue" points="459.5,-509.58 456,-499.58 452.5,-509.58 459.5,-509.58"/>
</g>
<!-- Node3 -->
<g id="node3" class="node">
<title>Node3</title>
<g id="a_node3"><a xlink:title=" ">
<polygon fill="white" stroke="#bfbfbf" points="212,-140 212,-159 276,-159 276,-140 212,-140"/>
<text text-anchor="middle" x="244" y="-147" font-family="Helvetica,sans-Serif" font-size="10.00">algorithm</text>
</a>
</g>
</g>
<!-- Node2&#45;&gt;Node3 -->
<g id="edge2" class="edge">
<title>Node2&#45;&gt;Node3</title>
<path fill="none" stroke="midnightblue" d="M384.41,-475.12C312.73,-462.26 213,-430.24 213,-351.5 213,-351.5 213,-351.5 213,-282.5 213,-240.89 227.78,-193.82 236.93,-168.66"/>
<polygon fill="midnightblue" stroke="midnightblue" points="240.2,-169.89 240.44,-159.29 233.65,-167.42 240.2,-169.89"/>
</g>
<!-- Node4 -->
<g id="node4" class="node">
<title>Node4</title>
<g id="a_node4"><a xlink:title=" ">
<polygon fill="white" stroke="#bfbfbf" points="294,-140 294,-159 350,-159 350,-140 294,-140"/>
<text text-anchor="middle" x="322" y="-147" font-family="Helvetica,sans-Serif" font-size="10.00">numeric</text>
</a>
</g>
</g>
<!-- Node2&#45;&gt;Node4 -->
<g id="edge3" class="edge">
<title>Node2&#45;&gt;Node4</title>
<path fill="none" stroke="midnightblue" d="M427.32,-469.33C390.42,-448.84 331,-407.21 331,-351.5 331,-351.5 331,-351.5 331,-282.5 331,-242.06 326.74,-194.82 324.09,-169.25"/>
<polygon fill="midnightblue" stroke="midnightblue" points="327.55,-168.7 323,-159.13 320.59,-169.45 327.55,-168.7"/>
</g>
<!-- Node5 -->
<g id="node5" class="node">
<title>Node5</title>
<g id="a_node5"><a xlink:title=" ">
<polygon fill="white" stroke="#bfbfbf" points="970.5,-274 970.5,-293 1015.5,-293 1015.5,-274 970.5,-274"/>
<text text-anchor="middle" x="993" y="-281" font-family="Helvetica,sans-Serif" font-size="10.00">utility</text>
</a>
</g>
</g>
<!-- Node2&#45;&gt;Node5 -->
<g id="edge4" class="edge">
<title>Node2&#45;&gt;Node5</title>
<path fill="none" stroke="midnightblue" d="M527.61,-478.28C599.27,-471.87 712.19,-458.55 807,-433 883.82,-412.3 920.9,-426.13 973,-366 988.1,-348.57 992.17,-321.55 993.08,-303.45"/>
<polygon fill="midnightblue" stroke="midnightblue" points="996.59,-303.35 993.31,-293.27 989.59,-303.19 996.59,-303.35"/>
</g>
<!-- Node6 -->
<g id="node6" class="node">
<title>Node6</title>
<g id="a_node6"><a xlink:title=" ">
<polygon fill="white" stroke="#bfbfbf" points="36.5,-6 36.5,-25 83.5,-25 83.5,-6 36.5,-6"/>
<text text-anchor="middle" x="60" y="-13" font-family="Helvetica,sans-Serif" font-size="10.00">vector</text>
</a>
</g>
</g>
<!-- Node2&#45;&gt;Node6 -->
<g id="edge5" class="edge">
<title>Node2&#45;&gt;Node6</title>
<path fill="none" stroke="midnightblue" d="M384.5,-477.69C256.17,-465.26 0,-430.57 0,-351.5 0,-351.5 0,-351.5 0,-148.5 0,-103.63 29.08,-57.26 46.75,-33.22"/>
<polygon fill="midnightblue" stroke="midnightblue" points="49.62,-35.23 52.88,-25.15 44.05,-31 49.62,-35.23"/>
</g>
<!-- Node7 -->
<g id="node7" class="node">
<title>Node7</title>
<g id="a_node7"><a xlink:href="content_8h.html" target="_top" xlink:title=" ">
<polygon fill="white" stroke="black" points="391.5,-335.5 391.5,-365.5 520.5,-365.5 520.5,-335.5 391.5,-335.5"/>
<text text-anchor="start" x="399.5" y="-353.5" font-family="Helvetica,sans-Serif" font-size="10.00">network_butcher/Types</text>
<text text-anchor="middle" x="456" y="-342.5" font-family="Helvetica,sans-Serif" font-size="10.00">/content.h</text>
</a>
</g>
</g>
<!-- Node2&#45;&gt;Node7 -->
<g id="edge6" class="edge">
<title>Node2&#45;&gt;Node7</title>
<path fill="none" stroke="midnightblue" d="M456,-469.37C456,-447.04 456,-403.31 456,-375.85"/>
<polygon fill="midnightblue" stroke="midnightblue" points="459.5,-375.52 456,-365.52 452.5,-375.52 459.5,-375.52"/>
</g>
<!-- Node23 -->
<g id="node23" class="node">
<title>Node23</title>
<g id="a_node23"><a xlink:href="node_8h.html" target="_top" xlink:title=" ">
<polygon fill="white" stroke="black" points="821.5,-335.5 821.5,-365.5 964.5,-365.5 964.5,-335.5 821.5,-335.5"/>
<text text-anchor="start" x="829.5" y="-353.5" font-family="Helvetica,sans-Serif" font-size="10.00">network_butcher/Network</text>
<text text-anchor="middle" x="893" y="-342.5" font-family="Helvetica,sans-Serif" font-size="10.00">/node.h</text>
</a>
</g>
</g>
<!-- Node2&#45;&gt;Node23 -->
<g id="edge34" class="edge">
<title>Node2&#45;&gt;Node23</title>
<path fill="none" stroke="midnightblue" d="M527.61,-479.62C590.97,-474.35 685.03,-461.98 762,-433 801.64,-418.08 842.29,-390.5 867.58,-371.59"/>
<polygon fill="midnightblue" stroke="midnightblue" points="869.7,-374.37 875.54,-365.54 865.46,-368.8 869.7,-374.37"/>
</g>
<!-- Node24 -->
<g id="node24" class="node">
<title>Node24</title>
<g id="a_node24"><a xlink:href="node__traits_8h.html" target="_top" xlink:title=" ">
<polygon fill="white" stroke="black" points="610.5,-402.5 610.5,-432.5 753.5,-432.5 753.5,-402.5 610.5,-402.5"/>
<text text-anchor="start" x="618.5" y="-420.5" font-family="Helvetica,sans-Serif" font-size="10.00">network_butcher/Network</text>
<text text-anchor="middle" x="682" y="-409.5" font-family="Helvetica,sans-Serif" font-size="10.00">/node_traits.h</text>
</a>
</g>
</g>
<!-- Node2&#45;&gt;Node24 -->
<g id="edge39" class="edge">
<title>Node2&#45;&gt;Node24</title>
<path fill="none" stroke="midnightblue" d="M504.76,-469.48C539.54,-459.47 586.48,-445.97 623.32,-435.38"/>
<polygon fill="midnightblue" stroke="midnightblue" points="624.29,-438.74 632.94,-432.61 622.36,-432.01 624.29,-438.74"/>
</g>
<!-- Node8 -->
<g id="node8" class="node">
<title>Node8</title>
<g id="a_node8"><a xlink:href="dense__tensor_8h.html" target="_top" xlink:title=" ">
<polygon fill="white" stroke="black" points="391.5,-268.5 391.5,-298.5 520.5,-298.5 520.5,-268.5 391.5,-268.5"/>
<text text-anchor="start" x="399.5" y="-286.5" font-family="Helvetica,sans-Serif" font-size="10.00">network_butcher/Types</text>
<text text-anchor="middle" x="456" y="-275.5" font-family="Helvetica,sans-Serif" font-size="10.00">/dense_tensor.h</text>
</a>
</g>
</g>
<!-- Node7&#45;&gt;Node8 -->
<g id="edge7" class="edge">
<title>Node7&#45;&gt;Node8</title>
<path fill="none" stroke="midnightblue" d="M456,-335.4C456,-327.64 456,-317.81 456,-308.86"/>
<polygon fill="midnightblue" stroke="midnightblue" points="459.5,-308.58 456,-298.58 452.5,-308.58 459.5,-308.58"/>
</g>
<!-- Node12 -->
<g id="node12" class="node">
<title>Node12</title>
<g id="a_node12"><a xlink:href="variant__attribute_8h.html" target="_top" xlink:title=" ">
<polygon fill="white" stroke="black" points="55.5,-201.5 55.5,-231.5 184.5,-231.5 184.5,-201.5 55.5,-201.5"/>
<text text-anchor="start" x="63.5" y="-219.5" font-family="Helvetica,sans-Serif" font-size="10.00">network_butcher/Types</text>
<text text-anchor="middle" x="120" y="-208.5" font-family="Helvetica,sans-Serif" font-size="10.00">/variant_attribute.h</text>
</a>
</g>
</g>
<!-- Node7&#45;&gt;Node12 -->
<g id="edge33" class="edge">
<title>Node7&#45;&gt;Node12</title>
<path fill="none" stroke="midnightblue" d="M420.36,-335.5C358.87,-311.34 232.94,-261.87 165.32,-235.3"/>
<polygon fill="midnightblue" stroke="midnightblue" points="166.37,-231.96 155.78,-231.56 163.81,-238.47 166.37,-231.96"/>
</g>
<!-- Node8&#45;&gt;Node6 -->
<g id="edge32" class="edge">
<title>Node8&#45;&gt;Node6</title>
<path fill="none" stroke="midnightblue" d="M414.06,-268.47C361.71,-249.78 270.82,-213.37 203,-165 147.81,-125.64 96.01,-63.23 72.79,-33.43"/>
<polygon fill="midnightblue" stroke="midnightblue" points="75.4,-31.08 66.53,-25.29 69.85,-35.35 75.4,-31.08"/>
</g>
<!-- Node9 -->
<g id="node9" class="node">
<title>Node9</title>
<g id="a_node9"><a xlink:href="type__info_8h.html" target="_top" xlink:title=" ">
<polygon fill="white" stroke="black" points="351.5,-67.5 351.5,-97.5 480.5,-97.5 480.5,-67.5 351.5,-67.5"/>
<text text-anchor="start" x="359.5" y="-85.5" font-family="Helvetica,sans-Serif" font-size="10.00">network_butcher/Types</text>
<text text-anchor="middle" x="416" y="-74.5" font-family="Helvetica,sans-Serif" font-size="10.00">/type_info.h</text>
</a>
</g>
</g>
<!-- Node8&#45;&gt;Node9 -->
<g id="edge8" class="edge">
<title>Node8&#45;&gt;Node9</title>
<path fill="none" stroke="midnightblue" d="M431,-268.39C418.28,-259.71 404.05,-247.31 397,-232 378.15,-191.06 393.55,-137.45 405.46,-107.12"/>
<polygon fill="midnightblue" stroke="midnightblue" points="408.73,-108.35 409.3,-97.78 402.26,-105.69 408.73,-108.35"/>
</g>
<!-- Node8&#45;&gt;Node12 -->
<g id="edge12" class="edge">
<title>Node8&#45;&gt;Node12</title>
<path fill="none" stroke="midnightblue" d="M391.22,-269.97C334.97,-259.09 253.53,-243.33 194.58,-231.93"/>
<polygon fill="midnightblue" stroke="midnightblue" points="195.07,-228.46 184.59,-229.99 193.74,-235.33 195.07,-228.46"/>
</g>
<!-- Node14 -->
<g id="node14" class="node">
<title>Node14</title>
<g id="a_node14"><a xlink:href="utilities_8h.html" target="_top" xlink:title=" ">
<polygon fill="white" stroke="black" points="406.5,-207 406.5,-226 553.5,-226 553.5,-207 406.5,-207"/>
<text text-anchor="middle" x="480" y="-214" font-family="Helvetica,sans-Serif" font-size="10.00">network_butcher/utilities.h</text>
</a>
</g>
</g>
<!-- Node8&#45;&gt;Node14 -->
<g id="edge16" class="edge">
<title>Node8&#45;&gt;Node14</title>
<path fill="none" stroke="midnightblue" d="M455.53,-268.4C457.85,-258.66 462.52,-245.65 467.37,-235.21"/>
<polygon fill="midnightblue" stroke="midnightblue" points="470.55,-236.69 472.02,-226.19 464.33,-233.48 470.55,-236.69"/>
</g>
<!-- Node9&#45;&gt;Node6 -->
<g id="edge10" class="edge">
<title>Node9&#45;&gt;Node6</title>
<path fill="none" stroke="midnightblue" d="M351.12,-69.65C275.25,-55.8 152.57,-33.4 93.67,-22.65"/>
<polygon fill="midnightblue" stroke="midnightblue" points="94.24,-19.19 83.78,-20.84 92.98,-26.08 94.24,-19.19"/>
</g>
<!-- Node10 -->
<g id="node10" class="node">
<title>Node10</title>
<g id="a_node10"><a xlink:title=" ">
<polygon fill="white" stroke="#bfbfbf" points="259,-6 259,-25 303,-25 303,-6 259,-6"/>
<text text-anchor="middle" x="281" y="-13" font-family="Helvetica,sans-Serif" font-size="10.00">string</text>
</a>
</g>
</g>
<!-- Node9&#45;&gt;Node10 -->
<g id="edge9" class="edge">
<title>Node9&#45;&gt;Node10</title>
<path fill="none" stroke="midnightblue" d="M386.71,-67.4C363.23,-56.09 330.56,-40.36 307.77,-29.39"/>
<polygon fill="midnightblue" stroke="midnightblue" points="309.2,-26.19 298.67,-25.01 306.16,-32.5 309.2,-26.19"/>
</g>
<!-- Node11 -->
<g id="node11" class="node">
<title>Node11</title>
<g id="a_node11"><a xlink:href="starting__traits_8h.html" target="_top" xlink:title=" ">
<polygon fill="white" stroke="black" points="528,-0.5 528,-30.5 656,-30.5 656,-0.5 528,-0.5"/>
<text text-anchor="start" x="536" y="-18.5" font-family="Helvetica,sans-Serif" font-size="10.00">network_butcher/Traits</text>
<text text-anchor="middle" x="592" y="-7.5" font-family="Helvetica,sans-Serif" font-size="10.00">/starting_traits.h</text>
</a>
</g>
</g>
<!-- Node9&#45;&gt;Node11 -->
<g id="edge11" class="edge">
<title>Node9&#45;&gt;Node11</title>
<path fill="none" stroke="midnightblue" d="M454.19,-67.4C480.6,-57.64 515.93,-44.59 544.2,-34.15"/>
<polygon fill="midnightblue" stroke="midnightblue" points="545.72,-37.32 553.89,-30.58 543.29,-30.76 545.72,-37.32"/>
</g>
<!-- Node12&#45;&gt;Node6 -->
<g id="edge15" class="edge">
<title>Node12&#45;&gt;Node6</title>
<path fill="none" stroke="midnightblue" d="M92.7,-201.36C79.3,-192.81 64.46,-180.54 57,-165 36.42,-122.12 47.05,-63.95 54.6,-34.77"/>
<polygon fill="midnightblue" stroke="midnightblue" points="57.98,-35.68 57.28,-25.1 51.24,-33.81 57.98,-35.68"/>
</g>
<!-- Node12&#45;&gt;Node10 -->
<g id="edge13" class="edge">
<title>Node12&#45;&gt;Node10</title>
<path fill="none" stroke="midnightblue" d="M131.58,-201.19C160.55,-165.38 236.07,-72.04 267.24,-33.51"/>
<polygon fill="midnightblue" stroke="midnightblue" points="270.26,-35.34 273.83,-25.36 264.82,-30.93 270.26,-35.34"/>
</g>
<!-- Node13 -->
<g id="node13" class="node">
<title>Node13</title>
<g id="a_node13"><a xlink:title=" ">
<polygon fill="white" stroke="#bfbfbf" points="66.5,-140 66.5,-159 117.5,-159 117.5,-140 66.5,-140"/>
<text text-anchor="middle" x="92" y="-147" font-family="Helvetica,sans-Serif" font-size="10.00">variant</text>
</a>
</g>
</g>
<!-- Node12&#45;&gt;Node13 -->
<g id="edge14" class="edge">
<title>Node12&#45;&gt;Node13</title>
<path fill="none" stroke="midnightblue" d="M113.92,-201.4C109.77,-191.76 104.24,-178.91 99.77,-168.54"/>
<polygon fill="midnightblue" stroke="midnightblue" points="102.92,-166.99 95.75,-159.19 96.49,-169.76 102.92,-166.99"/>
</g>
<!-- Node14&#45;&gt;Node3 -->
<g id="edge17" class="edge">
<title>Node14&#45;&gt;Node3</title>
<path fill="none" stroke="midnightblue" d="M443.08,-206.95C403.66,-197.58 339.51,-181.66 285,-165 282.38,-164.2 279.68,-163.34 276.98,-162.44"/>
<polygon fill="midnightblue" stroke="midnightblue" points="277.89,-159.06 267.3,-159.13 275.63,-165.68 277.89,-159.06"/>
</g>
<!-- Node14&#45;&gt;Node4 -->
<g id="edge18" class="edge">
<title>Node14&#45;&gt;Node4</title>
<path fill="none" stroke="midnightblue" d="M459.02,-206.87C431.75,-195.65 383.93,-175.98 352.61,-163.09"/>
<polygon fill="midnightblue" stroke="midnightblue" points="353.65,-159.74 343.07,-159.17 350.98,-166.21 353.65,-159.74"/>
</g>
<!-- Node14&#45;&gt;Node8 -->
<g id="edge30" class="edge">
<title>Node14&#45;&gt;Node8</title>
<path fill="none" stroke="midnightblue" d="M481.56,-226.19C480.24,-234.63 475.95,-247.8 471.07,-259.29"/>
<polygon fill="midnightblue" stroke="midnightblue" points="467.88,-257.85 466.89,-268.4 474.24,-260.77 467.88,-257.85"/>
</g>
<!-- Node14&#45;&gt;Node9 -->
<g id="edge31" class="edge">
<title>Node14&#45;&gt;Node9</title>
<path fill="none" stroke="midnightblue" d="M469.8,-206.9C459.45,-197.62 443.76,-181.89 435,-165 425.73,-147.12 420.93,-124.7 418.47,-107.91"/>
<polygon fill="midnightblue" stroke="midnightblue" points="421.92,-107.26 417.17,-97.79 414.97,-108.15 421.92,-107.26"/>
</g>
<!-- Node15 -->
<g id="node15" class="node">
<title>Node15</title>
<g id="a_node15"><a xlink:title=" ">
<polygon fill="white" stroke="#bfbfbf" points="444,-140 444,-159 512,-159 512,-140 444,-140"/>
<text text-anchor="middle" x="478" y="-147" font-family="Helvetica,sans-Serif" font-size="10.00">filesystem</text>
</a>
</g>
</g>
<!-- Node14&#45;&gt;Node15 -->
<g id="edge19" class="edge">
<title>Node14&#45;&gt;Node15</title>
<path fill="none" stroke="midnightblue" d="M479.73,-206.73C479.44,-197.18 478.96,-181.62 478.58,-169.28"/>
<polygon fill="midnightblue" stroke="midnightblue" points="482.07,-169.01 478.27,-159.13 475.07,-169.23 482.07,-169.01"/>
</g>
<!-- Node16 -->
<g id="node16" class="node">
<title>Node16</title>
<g id="a_node16"><a xlink:title=" ">
<polygon fill="white" stroke="#bfbfbf" points="530.5,-140 530.5,-159 585.5,-159 585.5,-140 530.5,-140"/>
<text text-anchor="middle" x="558" y="-147" font-family="Helvetica,sans-Serif" font-size="10.00">fstream</text>
</a>
</g>
</g>
<!-- Node14&#45;&gt;Node16 -->
<g id="edge20" class="edge">
<title>Node14&#45;&gt;Node16</title>
<path fill="none" stroke="midnightblue" d="M490.52,-206.73C503.15,-196.21 524.54,-178.38 539.86,-165.62"/>
<polygon fill="midnightblue" stroke="midnightblue" points="542.21,-168.22 547.65,-159.13 537.72,-162.84 542.21,-168.22"/>
</g>
<!-- Node17 -->
<g id="node17" class="node">
<title>Node17</title>
<g id="a_node17"><a xlink:title=" ">
<polygon fill="white" stroke="#bfbfbf" points="604,-140 604,-159 654,-159 654,-140 604,-140"/>
<text text-anchor="middle" x="629" y="-147" font-family="Helvetica,sans-Serif" font-size="10.00">ranges</text>
</a>
</g>
</g>
<!-- Node14&#45;&gt;Node17 -->
<g id="edge21" class="edge">
<title>Node14&#45;&gt;Node17</title>
<path fill="none" stroke="midnightblue" d="M499.79,-206.87C525.39,-195.7 570.21,-176.15 599.75,-163.26"/>
<polygon fill="midnightblue" stroke="midnightblue" points="601.37,-166.37 609.13,-159.17 598.57,-159.96 601.37,-166.37"/>
</g>
<!-- Node18 -->
<g id="node18" class="node">
<title>Node18</title>
<g id="a_node18"><a xlink:title=" ">
<polygon fill="white" stroke="#bfbfbf" points="614.5,-67.5 614.5,-97.5 739.5,-97.5 739.5,-67.5 614.5,-67.5"/>
<text text-anchor="start" x="622.5" y="-85.5" font-family="Helvetica,sans-Serif" font-size="10.00">network_butcher/onnx</text>
<text text-anchor="middle" x="677" y="-74.5" font-family="Helvetica,sans-Serif" font-size="10.00">_proto/onnx.pb.h</text>
</a>
</g>
</g>
<!-- Node14&#45;&gt;Node18 -->
<g id="edge22" class="edge">
<title>Node14&#45;&gt;Node18</title>
<path fill="none" stroke="midnightblue" d="M553.91,-213.23C591.78,-208.09 635.57,-195.29 663,-165 676.95,-149.59 679.6,-125.55 679.27,-107.56"/>
<polygon fill="midnightblue" stroke="midnightblue" points="682.76,-107.34 678.77,-97.53 675.77,-107.69 682.76,-107.34"/>
</g>
<!-- Node19 -->
<g id="node19" class="node">
<title>Node19</title>
<g id="a_node19"><a xlink:href="traits_8h.html" target="_top" xlink:title=" ">
<polygon fill="white" stroke="black" points="748,-134.5 748,-164.5 876,-164.5 876,-134.5 748,-134.5"/>
<text text-anchor="start" x="756" y="-152.5" font-family="Helvetica,sans-Serif" font-size="10.00">network_butcher/Traits</text>
<text text-anchor="middle" x="812" y="-141.5" font-family="Helvetica,sans-Serif" font-size="10.00">/traits.h</text>
</a>
</g>
</g>
<!-- Node14&#45;&gt;Node19 -->
<g id="edge23" class="edge">
<title>Node14&#45;&gt;Node19</title>
<path fill="none" stroke="midnightblue" d="M523.74,-206.94C578.26,-196.26 672.25,-177.86 738.04,-164.98"/>
<polygon fill="midnightblue" stroke="midnightblue" points="738.8,-168.4 747.94,-163.04 737.45,-161.53 738.8,-168.4"/>
</g>
<!-- Node19&#45;&gt;Node9 -->
<g id="edge28" class="edge">
<title>Node19&#45;&gt;Node9</title>
<path fill="none" stroke="midnightblue" d="M747.94,-137.98C677.69,-126.45 565.1,-107.97 490.85,-95.79"/>
<polygon fill="midnightblue" stroke="midnightblue" points="491.06,-92.27 480.63,-94.11 489.93,-99.18 491.06,-92.27"/>
</g>
<!-- Node19&#45;&gt;Node11 -->
<g id="edge27" class="edge">
<title>Node19&#45;&gt;Node11</title>
<path fill="none" stroke="midnightblue" d="M804.41,-134.28C794.01,-116.12 773.67,-84.91 748,-67 723.77,-50.1 693.56,-38.61 666.19,-30.91"/>
<polygon fill="midnightblue" stroke="midnightblue" points="666.82,-27.45 656.25,-28.24 665,-34.21 666.82,-27.45"/>
</g>
<!-- Node19&#45;&gt;Node18 -->
<g id="edge29" class="edge">
<title>Node19&#45;&gt;Node18</title>
<path fill="none" stroke="midnightblue" d="M782.71,-134.4C762.98,-124.9 736.77,-112.28 715.38,-101.98"/>
<polygon fill="midnightblue" stroke="midnightblue" points="716.76,-98.76 706.24,-97.58 713.73,-105.07 716.76,-98.76"/>
</g>
<!-- Node20 -->
<g id="node20" class="node">
<title>Node20</title>
<g id="a_node20"><a xlink:title=" ">
<polygon fill="white" stroke="#bfbfbf" points="796,-73 796,-92 828,-92 828,-73 796,-73"/>
<text text-anchor="middle" x="812" y="-80" font-family="Helvetica,sans-Serif" font-size="10.00">set</text>
</a>
</g>
</g>
<!-- Node19&#45;&gt;Node20 -->
<g id="edge24" class="edge">
<title>Node19&#45;&gt;Node20</title>
<path fill="none" stroke="midnightblue" d="M812,-134.4C812,-125.06 812,-112.71 812,-102.52"/>
<polygon fill="midnightblue" stroke="midnightblue" points="815.5,-102.19 812,-92.19 808.5,-102.19 815.5,-102.19"/>
</g>
<!-- Node21 -->
<g id="node21" class="node">
<title>Node21</title>
<g id="a_node21"><a xlink:title=" ">
<polygon fill="white" stroke="#bfbfbf" points="846,-73 846,-92 884,-92 884,-73 846,-73"/>
<text text-anchor="middle" x="865" y="-80" font-family="Helvetica,sans-Serif" font-size="10.00">map</text>
</a>
</g>
</g>
<!-- Node19&#45;&gt;Node21 -->
<g id="edge25" class="edge">
<title>Node19&#45;&gt;Node21</title>
<path fill="none" stroke="midnightblue" d="M823.5,-134.4C831.68,-124.36 842.71,-110.84 851.34,-100.25"/>
<polygon fill="midnightblue" stroke="midnightblue" points="854.3,-102.16 857.91,-92.19 848.88,-97.73 854.3,-102.16"/>
</g>
<!-- Node22 -->
<g id="node22" class="node">
<title>Node22</title>
<g id="a_node22"><a xlink:title=" ">
<polygon fill="white" stroke="#bfbfbf" points="902,-73 902,-92 960,-92 960,-73 902,-73"/>
<text text-anchor="middle" x="931" y="-80" font-family="Helvetica,sans-Serif" font-size="10.00">memory</text>
</a>
</g>
</g>
<!-- Node19&#45;&gt;Node22 -->
<g id="edge26" class="edge">
<title>Node19&#45;&gt;Node22</title>
<path fill="none" stroke="midnightblue" d="M837.82,-134.4C858.24,-123.24 886.55,-107.78 906.59,-96.83"/>
<polygon fill="midnightblue" stroke="midnightblue" points="908.33,-99.87 915.43,-92.01 904.97,-93.73 908.33,-99.87"/>
</g>
<!-- Node23&#45;&gt;Node5 -->
<g id="edge38" class="edge">
<title>Node23&#45;&gt;Node5</title>
<path fill="none" stroke="midnightblue" d="M914.7,-335.4C931.47,-324.5 954.57,-309.48 971.33,-298.58"/>
<polygon fill="midnightblue" stroke="midnightblue" points="973.44,-301.39 979.91,-293.01 969.62,-295.52 973.44,-301.39"/>
</g>
<!-- Node23&#45;&gt;Node8 -->
<g id="edge35" class="edge">
<title>Node23&#45;&gt;Node8</title>
<path fill="none" stroke="midnightblue" d="M821.33,-338.84C741.22,-326.92 612.09,-307.72 530.75,-295.62"/>
<polygon fill="midnightblue" stroke="midnightblue" points="530.99,-292.12 520.58,-294.11 529.96,-299.04 530.99,-292.12"/>
</g>
<!-- Node23&#45;&gt;Node19 -->
<g id="edge36" class="edge">
<title>Node23&#45;&gt;Node19</title>
<path fill="none" stroke="midnightblue" d="M887.17,-335.19C873.37,-301.27 838.54,-215.72 821.58,-174.04"/>
<polygon fill="midnightblue" stroke="midnightblue" points="824.78,-172.62 817.77,-164.68 818.3,-175.26 824.78,-172.62"/>
</g>
<!-- Node23&#45;&gt;Node22 -->
<g id="edge37" class="edge">
<title>Node23&#45;&gt;Node22</title>
<path fill="none" stroke="midnightblue" d="M895.04,-335.2C901.45,-290.35 921.15,-152.45 928.34,-102.13"/>
<polygon fill="midnightblue" stroke="midnightblue" points="931.83,-102.44 929.78,-92.05 924.9,-101.45 931.83,-102.44"/>
</g>
<!-- Node24&#45;&gt;Node7 -->
<g id="edge41" class="edge">
<title>Node24&#45;&gt;Node7</title>
<path fill="none" stroke="midnightblue" d="M633.24,-402.48C598.46,-392.47 551.52,-378.97 514.68,-368.38"/>
<polygon fill="midnightblue" stroke="midnightblue" points="515.64,-365.01 505.06,-365.61 513.71,-371.74 515.64,-365.01"/>
</g>
<!-- Node24&#45;&gt;Node9 -->
<g id="edge43" class="edge">
<title>Node24&#45;&gt;Node9</title>
<path fill="none" stroke="midnightblue" d="M682,-402.24C682,-378.03 682,-327.35 682,-284.5 682,-284.5 682,-284.5 682,-215.5 682,-178.31 689.66,-159.94 663,-134 638.81,-110.46 554.1,-96.95 490.58,-89.94"/>
<polygon fill="midnightblue" stroke="midnightblue" points="490.89,-86.45 480.58,-88.86 490.15,-93.41 490.89,-86.45"/>
</g>
<!-- Node24&#45;&gt;Node22 -->
<g id="edge40" class="edge">
<title>Node24&#45;&gt;Node22</title>
<path fill="none" stroke="midnightblue" d="M694.78,-402.41C728.19,-365.21 820.07,-260.63 885,-165 899.21,-144.07 913.15,-118.46 921.89,-101.59"/>
<polygon fill="midnightblue" stroke="midnightblue" points="925.18,-102.84 926.62,-92.35 918.95,-99.66 925.18,-102.84"/>
</g>
<!-- Node24&#45;&gt;Node23 -->
<g id="edge42" class="edge">
<title>Node24&#45;&gt;Node23</title>
<path fill="none" stroke="midnightblue" d="M727.52,-402.48C759.72,-392.56 803.08,-379.2 837.33,-368.65"/>
<polygon fill="midnightblue" stroke="midnightblue" points="838.67,-371.9 847.19,-365.61 836.61,-365.21 838.67,-371.9"/>
</g>
</g>
</svg>
