<?xml version="1.0" encoding="UTF-8" standalone="no"?>
<!DOCTYPE svg PUBLIC "-//W3C//DTD SVG 1.1//EN"
 "http://www.w3.org/Graphics/SVG/1.1/DTD/svg11.dtd">
<!-- Generated by graphviz version 2.43.0 (0)
 -->
<!-- Title: include/network_butcher/Network/node.h Pages: 1 -->
<!--zoomable 363 -->
<svg id="main" version="1.1" xmlns="http://www.w3.org/2000/svg" xmlns:xlink="http://www.w3.org/1999/xlink" xml:space="preserve" onload="init(evt)">
<style type="text/css"><![CDATA[
.edge:hover path { stroke: red; }
.edge:hover polygon { stroke: red; fill: red; }
]]></style>
<script type="text/javascript"><![CDATA[
var edges = document.getElementsByTagName('g');
if (edges && edges.length) {
  for (var i=0;i<edges.length;i++) {
    if (edges[i].id.substr(0,4)=='edge') {
      edges[i].setAttribute('class','edge');
    }
  }
}
]]></script>
        <defs>
                <circle id="rim" cx="0" cy="0" r="7"/>
                <circle id="rim2" cx="0" cy="0" r="3.5"/>
                <g id="zoomPlus">
                        <use xlink:href="#rim" fill="#404040">
                                <set attributeName="fill" to="#808080" begin="zoomplus.mouseover" end="zoomplus.mouseout"/>
                        </use>
                        <path d="M-4,0h8M0,-4v8" fill="none" stroke="white" stroke-width="1.5" pointer-events="none"/>
                </g>
                <g id="zoomMin">
                        <use xlink:href="#rim" fill="#404040">
                                <set attributeName="fill" to="#808080" begin="zoomminus.mouseover" end="zoomminus.mouseout"/>
                        </use>
                        <path d="M-4,0h8" fill="none" stroke="white" stroke-width="1.5" pointer-events="none"/>
                </g>
                <g id="dirArrow">
                        <path fill="none" stroke="white" stroke-width="1.5" d="M0,-3.0v7 M-2.5,-0.5L0,-3.0L2.5,-0.5"/>
                </g>
               <g id="resetDef">
                       <use xlink:href="#rim2" fill="#404040">
                               <set attributeName="fill" to="#808080" begin="reset.mouseover" end="reset.mouseout"/>
                       </use>
               </g>
        </defs>

<script type="text/javascript">
var viewWidth = 825;
var viewHeight = 363;
var sectionId = 'dynsection-0';
</script>
<script xlink:href="svgpan.js"/>
<svg id="graph" class="graph">
<g id="viewport">
<title>include/network_butcher/Network/node.h</title>
<polygon fill="white" stroke="transparent" points="-4,4 -4,-359 821,-359 821,4 -4,4"/>
<!-- Node1 -->
<g id="node1" class="node">
<title>Node1</title>
<g id="a_node1"><a xlink:title=" ">
<polygon fill="#bfbfbf" stroke="black" points="628,-324.5 628,-354.5 765,-354.5 765,-324.5 628,-324.5"/>
<text text-anchor="start" x="636" y="-342.5" font-family="Helvetica,sans-Serif" font-size="10.00">include/network_butcher</text>
<text text-anchor="middle" x="696.5" y="-331.5" font-family="Helvetica,sans-Serif" font-size="10.00">/Network/node.h</text>
</a>
</g>
</g>
<!-- Node2 -->
<g id="node2" class="node">
<title>Node2</title>
<g id="a_node2"><a xlink:href="dense__tensor_8h.html" target="_top" xlink:title=" ">
<polygon fill="white" stroke="black" points="586,-257.5 586,-287.5 715,-287.5 715,-257.5 586,-257.5"/>
<text text-anchor="start" x="594" y="-275.5" font-family="Helvetica,sans-Serif" font-size="10.00">network_butcher/Types</text>
<text text-anchor="middle" x="650.5" y="-264.5" font-family="Helvetica,sans-Serif" font-size="10.00">/dense_tensor.h</text>
</a>
</g>
</g>
<!-- Node1&#45;&gt;Node2 -->
<g id="edge1" class="edge">
<title>Node1&#45;&gt;Node2</title>
<path fill="none" stroke="midnightblue" d="M686.52,-324.4C680.61,-316.05 673,-305.29 666.29,-295.81"/>
<polygon fill="midnightblue" stroke="midnightblue" points="669.1,-293.72 660.46,-287.58 663.38,-297.76 669.1,-293.72"/>
</g>
<!-- Node16 -->
<g id="node16" class="node">
<title>Node16</title>
<g id="a_node16"><a xlink:href="traits_8h.html" target="_top" xlink:title=" ">
<polygon fill="white" stroke="black" points="89.5,-134.5 89.5,-164.5 217.5,-164.5 217.5,-134.5 89.5,-134.5"/>
<text text-anchor="start" x="97.5" y="-152.5" font-family="Helvetica,sans-Serif" font-size="10.00">network_butcher/Traits</text>
<text text-anchor="middle" x="153.5" y="-141.5" font-family="Helvetica,sans-Serif" font-size="10.00">/traits.h</text>
</a>
</g>
</g>
<!-- Node1&#45;&gt;Node16 -->
<g id="edge27" class="edge">
<title>Node1&#45;&gt;Node16</title>
<path fill="none" stroke="midnightblue" d="M655.69,-324.37C557.86,-290.5 310.25,-204.77 203.61,-167.85"/>
<polygon fill="midnightblue" stroke="midnightblue" points="204.64,-164.5 194.05,-164.54 202.35,-171.12 204.64,-164.5"/>
</g>
<!-- Node19 -->
<g id="node19" class="node">
<title>Node19</title>
<g id="a_node19"><a xlink:title=" ">
<polygon fill="white" stroke="#bfbfbf" points="704.5,-73 704.5,-92 762.5,-92 762.5,-73 704.5,-73"/>
<text text-anchor="middle" x="733.5" y="-80" font-family="Helvetica,sans-Serif" font-size="10.00">memory</text>
</a>
</g>
</g>
<!-- Node1&#45;&gt;Node19 -->
<g id="edge28" class="edge">
<title>Node1&#45;&gt;Node19</title>
<path fill="none" stroke="midnightblue" d="M706.75,-324.26C713.13,-314.55 720.8,-301.12 724.5,-288 743.14,-221.96 738.78,-139.19 735.51,-102.51"/>
<polygon fill="midnightblue" stroke="midnightblue" points="738.97,-101.91 734.52,-92.3 732,-102.59 738.97,-101.91"/>
</g>
<!-- Node20 -->
<g id="node20" class="node">
<title>Node20</title>
<g id="a_node20"><a xlink:title=" ">
<polygon fill="white" stroke="#bfbfbf" points="772,-263 772,-282 817,-282 817,-263 772,-263"/>
<text text-anchor="middle" x="794.5" y="-270" font-family="Helvetica,sans-Serif" font-size="10.00">utility</text>
</a>
</g>
</g>
<!-- Node1&#45;&gt;Node20 -->
<g id="edge29" class="edge">
<title>Node1&#45;&gt;Node20</title>
<path fill="none" stroke="midnightblue" d="M717.76,-324.4C734.2,-313.5 756.84,-298.48 773.27,-287.58"/>
<polygon fill="midnightblue" stroke="midnightblue" points="775.28,-290.45 781.67,-282.01 771.41,-284.62 775.28,-290.45"/>
</g>
<!-- Node3 -->
<g id="node3" class="node">
<title>Node3</title>
<g id="a_node3"><a xlink:href="type__info_8h.html" target="_top" xlink:title=" ">
<polygon fill="white" stroke="black" points="410,-67.5 410,-97.5 539,-97.5 539,-67.5 410,-67.5"/>
<text text-anchor="start" x="418" y="-85.5" font-family="Helvetica,sans-Serif" font-size="10.00">network_butcher/Types</text>
<text text-anchor="middle" x="474.5" y="-74.5" font-family="Helvetica,sans-Serif" font-size="10.00">/type_info.h</text>
</a>
</g>
</g>
<!-- Node2&#45;&gt;Node3 -->
<g id="edge2" class="edge">
<title>Node2&#45;&gt;Node3</title>
<path fill="none" stroke="midnightblue" d="M652.48,-257.48C655.51,-230.23 658.07,-169.64 627.5,-134 616.52,-121.2 581.93,-109.25 548.42,-100.19"/>
<polygon fill="midnightblue" stroke="midnightblue" points="549.11,-96.76 538.54,-97.6 547.33,-103.53 549.11,-96.76"/>
</g>
<!-- Node5 -->
<g id="node5" class="node">
<title>Node5</title>
<g id="a_node5"><a xlink:title=" ">
<polygon fill="white" stroke="#bfbfbf" points="631,-6 631,-25 678,-25 678,-6 631,-6"/>
<text text-anchor="middle" x="654.5" y="-13" font-family="Helvetica,sans-Serif" font-size="10.00">vector</text>
</a>
</g>
</g>
<!-- Node2&#45;&gt;Node5 -->
<g id="edge26" class="edge">
<title>Node2&#45;&gt;Node5</title>
<path fill="none" stroke="midnightblue" d="M665.87,-257.13C694.01,-229.56 752.64,-165.94 771.5,-98 775.19,-84.72 779.07,-78.51 771.5,-67 753.18,-39.13 715.87,-26.58 688.28,-20.96"/>
<polygon fill="midnightblue" stroke="midnightblue" points="688.71,-17.48 678.24,-19.13 687.45,-24.37 688.71,-17.48"/>
</g>
<!-- Node7 -->
<g id="node7" class="node">
<title>Node7</title>
<g id="a_node7"><a xlink:href="variant__attribute_8h.html" target="_top" xlink:title=" ">
<polygon fill="white" stroke="black" points="557,-67.5 557,-97.5 686,-97.5 686,-67.5 557,-67.5"/>
<text text-anchor="start" x="565" y="-85.5" font-family="Helvetica,sans-Serif" font-size="10.00">network_butcher/Types</text>
<text text-anchor="middle" x="621.5" y="-74.5" font-family="Helvetica,sans-Serif" font-size="10.00">/variant_attribute.h</text>
</a>
</g>
</g>
<!-- Node2&#45;&gt;Node7 -->
<g id="edge6" class="edge">
<title>Node2&#45;&gt;Node7</title>
<path fill="none" stroke="midnightblue" d="M662.04,-257.49C669.19,-247.88 677.7,-234.46 681.5,-221 692.01,-183.79 697.81,-169.06 681.5,-134 675.83,-121.82 665.63,-111.54 655.22,-103.49"/>
<polygon fill="midnightblue" stroke="midnightblue" points="657.08,-100.51 646.91,-97.52 652.99,-106.19 657.08,-100.51"/>
</g>
<!-- Node9 -->
<g id="node9" class="node">
<title>Node9</title>
<g id="a_node9"><a xlink:href="utilities_8h.html" target="_top" xlink:title=" ">
<polygon fill="white" stroke="black" points="392,-201.5 392,-220.5 539,-220.5 539,-201.5 392,-201.5"/>
<text text-anchor="middle" x="465.5" y="-208.5" font-family="Helvetica,sans-Serif" font-size="10.00">network_butcher/utilities.h</text>
</a>
</g>
</g>
<!-- Node2&#45;&gt;Node9 -->
<g id="edge10" class="edge">
<title>Node2&#45;&gt;Node9</title>
<path fill="none" stroke="midnightblue" d="M600.82,-257.4C567.68,-247.16 525.21,-233.47 496.7,-223.81"/>
<polygon fill="midnightblue" stroke="midnightblue" points="497.83,-220.5 487.24,-220.57 495.57,-227.12 497.83,-220.5"/>
</g>
<!-- Node4 -->
<g id="node4" class="node">
<title>Node4</title>
<g id="a_node4"><a xlink:title=" ">
<polygon fill="white" stroke="#bfbfbf" points="459.5,-6 459.5,-25 503.5,-25 503.5,-6 459.5,-6"/>
<text text-anchor="middle" x="481.5" y="-13" font-family="Helvetica,sans-Serif" font-size="10.00">string</text>
</a>
</g>
</g>
<!-- Node3&#45;&gt;Node4 -->
<g id="edge3" class="edge">
<title>Node3&#45;&gt;Node4</title>
<path fill="none" stroke="midnightblue" d="M476.02,-67.4C477.03,-57.96 478.38,-45.45 479.49,-35.19"/>
<polygon fill="midnightblue" stroke="midnightblue" points="482.97,-35.51 480.56,-25.19 476.01,-34.76 482.97,-35.51"/>
</g>
<!-- Node3&#45;&gt;Node5 -->
<g id="edge4" class="edge">
<title>Node3&#45;&gt;Node5</title>
<path fill="none" stroke="midnightblue" d="M519.27,-67.47C548.84,-57.9 588.3,-44.55 622.5,-31 623.92,-30.44 625.36,-29.85 626.82,-29.24"/>
<polygon fill="midnightblue" stroke="midnightblue" points="628.58,-32.29 636.35,-25.09 625.79,-25.87 628.58,-32.29"/>
</g>
<!-- Node6 -->
<g id="node6" class="node">
<title>Node6</title>
<g id="a_node6"><a xlink:href="starting__traits_8h.html" target="_top" xlink:title=" ">
<polygon fill="white" stroke="black" points="205.5,-0.5 205.5,-30.5 333.5,-30.5 333.5,-0.5 205.5,-0.5"/>
<text text-anchor="start" x="213.5" y="-18.5" font-family="Helvetica,sans-Serif" font-size="10.00">network_butcher/Traits</text>
<text text-anchor="middle" x="269.5" y="-7.5" font-family="Helvetica,sans-Serif" font-size="10.00">/starting_traits.h</text>
</a>
</g>
</g>
<!-- Node3&#45;&gt;Node6 -->
<g id="edge5" class="edge">
<title>Node3&#45;&gt;Node6</title>
<path fill="none" stroke="midnightblue" d="M430.27,-67.48C398.99,-57.56 356.86,-44.2 323.58,-33.65"/>
<polygon fill="midnightblue" stroke="midnightblue" points="324.59,-30.3 314,-30.61 322.48,-36.97 324.59,-30.3"/>
</g>
<!-- Node7&#45;&gt;Node4 -->
<g id="edge7" class="edge">
<title>Node7&#45;&gt;Node4</title>
<path fill="none" stroke="midnightblue" d="M591.12,-67.4C566.67,-56.04 532.59,-40.22 508.95,-29.24"/>
<polygon fill="midnightblue" stroke="midnightblue" points="510.37,-26.04 499.82,-25.01 507.42,-32.39 510.37,-26.04"/>
</g>
<!-- Node7&#45;&gt;Node5 -->
<g id="edge9" class="edge">
<title>Node7&#45;&gt;Node5</title>
<path fill="none" stroke="midnightblue" d="M628.66,-67.4C633.6,-57.66 640.21,-44.65 645.51,-34.21"/>
<polygon fill="midnightblue" stroke="midnightblue" points="648.68,-35.7 650.09,-25.19 642.44,-32.53 648.68,-35.7"/>
</g>
<!-- Node8 -->
<g id="node8" class="node">
<title>Node8</title>
<g id="a_node8"><a xlink:title=" ">
<polygon fill="white" stroke="#bfbfbf" points="562,-6 562,-25 613,-25 613,-6 562,-6"/>
<text text-anchor="middle" x="587.5" y="-13" font-family="Helvetica,sans-Serif" font-size="10.00">variant</text>
</a>
</g>
</g>
<!-- Node7&#45;&gt;Node8 -->
<g id="edge8" class="edge">
<title>Node7&#45;&gt;Node8</title>
<path fill="none" stroke="midnightblue" d="M614.12,-67.4C609.03,-57.66 602.22,-44.65 596.77,-34.21"/>
<polygon fill="midnightblue" stroke="midnightblue" points="599.78,-32.43 592.05,-25.19 593.58,-35.68 599.78,-32.43"/>
</g>
<!-- Node9&#45;&gt;Node2 -->
<g id="edge24" class="edge">
<title>Node9&#45;&gt;Node2</title>
<path fill="none" stroke="midnightblue" d="M497.06,-220.57C526.19,-229.33 569.66,-243.17 602.96,-254.22"/>
<polygon fill="midnightblue" stroke="midnightblue" points="601.9,-257.56 612.5,-257.4 604.12,-250.92 601.9,-257.56"/>
</g>
<!-- Node9&#45;&gt;Node3 -->
<g id="edge25" class="edge">
<title>Node9&#45;&gt;Node3</title>
<path fill="none" stroke="midnightblue" d="M539.06,-205.01C565.96,-199.18 593.85,-187.6 610.5,-165 633.04,-134.4 591.72,-113.11 548.85,-99.97"/>
<polygon fill="midnightblue" stroke="midnightblue" points="549.71,-96.58 539.13,-97.13 547.75,-103.3 549.71,-96.58"/>
</g>
<!-- Node10 -->
<g id="node10" class="node">
<title>Node10</title>
<g id="a_node10"><a xlink:title=" ">
<polygon fill="white" stroke="#bfbfbf" points="235.5,-140 235.5,-159 299.5,-159 299.5,-140 235.5,-140"/>
<text text-anchor="middle" x="267.5" y="-147" font-family="Helvetica,sans-Serif" font-size="10.00">algorithm</text>
</a>
</g>
</g>
<!-- Node9&#45;&gt;Node10 -->
<g id="edge11" class="edge">
<title>Node9&#45;&gt;Node10</title>
<path fill="none" stroke="midnightblue" d="M433.46,-201.43C401.61,-192.77 351.44,-178.73 308.5,-165 305.89,-164.17 303.2,-163.28 300.5,-162.37"/>
<polygon fill="midnightblue" stroke="midnightblue" points="301.43,-158.98 290.83,-159.03 299.14,-165.6 301.43,-158.98"/>
</g>
<!-- Node11 -->
<g id="node11" class="node">
<title>Node11</title>
<g id="a_node11"><a xlink:title=" ">
<polygon fill="white" stroke="#bfbfbf" points="317.5,-140 317.5,-159 373.5,-159 373.5,-140 317.5,-140"/>
<text text-anchor="middle" x="345.5" y="-147" font-family="Helvetica,sans-Serif" font-size="10.00">numeric</text>
</a>
</g>
</g>
<!-- Node9&#45;&gt;Node11 -->
<g id="edge12" class="edge">
<title>Node9&#45;&gt;Node11</title>
<path fill="none" stroke="midnightblue" d="M448.31,-201.48C428.26,-191.53 394.9,-174.99 371.64,-163.46"/>
<polygon fill="midnightblue" stroke="midnightblue" points="373.18,-160.32 362.66,-159.01 370.07,-166.59 373.18,-160.32"/>
</g>
<!-- Node12 -->
<g id="node12" class="node">
<title>Node12</title>
<g id="a_node12"><a xlink:title=" ">
<polygon fill="white" stroke="#bfbfbf" points="391.5,-140 391.5,-159 459.5,-159 459.5,-140 391.5,-140"/>
<text text-anchor="middle" x="425.5" y="-147" font-family="Helvetica,sans-Serif" font-size="10.00">filesystem</text>
</a>
</g>
</g>
<!-- Node9&#45;&gt;Node12 -->
<g id="edge13" class="edge">
<title>Node9&#45;&gt;Node12</title>
<path fill="none" stroke="midnightblue" d="M459.77,-201.48C453.83,-192.64 444.38,-178.59 436.91,-167.48"/>
<polygon fill="midnightblue" stroke="midnightblue" points="439.7,-165.36 431.22,-159.01 433.89,-169.26 439.7,-165.36"/>
</g>
<!-- Node13 -->
<g id="node13" class="node">
<title>Node13</title>
<g id="a_node13"><a xlink:title=" ">
<polygon fill="white" stroke="#bfbfbf" points="478,-140 478,-159 533,-159 533,-140 478,-140"/>
<text text-anchor="middle" x="505.5" y="-147" font-family="Helvetica,sans-Serif" font-size="10.00">fstream</text>
</a>
</g>
</g>
<!-- Node9&#45;&gt;Node13 -->
<g id="edge14" class="edge">
<title>Node9&#45;&gt;Node13</title>
<path fill="none" stroke="midnightblue" d="M471.23,-201.48C477.17,-192.64 486.62,-178.59 494.09,-167.48"/>
<polygon fill="midnightblue" stroke="midnightblue" points="497.11,-169.26 499.78,-159.01 491.3,-165.36 497.11,-169.26"/>
</g>
<!-- Node14 -->
<g id="node14" class="node">
<title>Node14</title>
<g id="a_node14"><a xlink:title=" ">
<polygon fill="white" stroke="#bfbfbf" points="551.5,-140 551.5,-159 601.5,-159 601.5,-140 551.5,-140"/>
<text text-anchor="middle" x="576.5" y="-147" font-family="Helvetica,sans-Serif" font-size="10.00">ranges</text>
</a>
</g>
</g>
<!-- Node9&#45;&gt;Node14 -->
<g id="edge15" class="edge">
<title>Node9&#45;&gt;Node14</title>
<path fill="none" stroke="midnightblue" d="M481.4,-201.48C499.78,-191.62 530.26,-175.29 551.74,-163.77"/>
<polygon fill="midnightblue" stroke="midnightblue" points="553.47,-166.82 560.63,-159.01 550.16,-160.65 553.47,-166.82"/>
</g>
<!-- Node15 -->
<g id="node15" class="node">
<title>Node15</title>
<g id="a_node15"><a xlink:title=" ">
<polygon fill="white" stroke="#bfbfbf" points="0,-67.5 0,-97.5 125,-97.5 125,-67.5 0,-67.5"/>
<text text-anchor="start" x="8" y="-85.5" font-family="Helvetica,sans-Serif" font-size="10.00">network_butcher/onnx</text>
<text text-anchor="middle" x="62.5" y="-74.5" font-family="Helvetica,sans-Serif" font-size="10.00">_proto/onnx.pb.h</text>
</a>
</g>
</g>
<!-- Node9&#45;&gt;Node15 -->
<g id="edge16" class="edge">
<title>Node9&#45;&gt;Node15</title>
<path fill="none" stroke="midnightblue" d="M391.98,-205.96C286.7,-199.5 103.12,-185.45 80.5,-165 64.77,-150.79 61.14,-126.2 60.92,-107.74"/>
<polygon fill="midnightblue" stroke="midnightblue" points="64.42,-107.77 61.12,-97.71 57.42,-107.64 64.42,-107.77"/>
</g>
<!-- Node9&#45;&gt;Node16 -->
<g id="edge17" class="edge">
<title>Node9&#45;&gt;Node16</title>
<path fill="none" stroke="midnightblue" d="M419.21,-201.43C373.21,-192.87 300.36,-179.24 227.82,-165.24"/>
<polygon fill="midnightblue" stroke="midnightblue" points="228.07,-161.73 217.59,-163.27 226.74,-168.6 228.07,-161.73"/>
</g>
<!-- Node16&#45;&gt;Node3 -->
<g id="edge22" class="edge">
<title>Node16&#45;&gt;Node3</title>
<path fill="none" stroke="midnightblue" d="M217.69,-135.5C270.22,-124.86 344.6,-109.8 399.8,-98.63"/>
<polygon fill="midnightblue" stroke="midnightblue" points="400.77,-102 409.87,-96.59 399.38,-95.14 400.77,-102"/>
</g>
<!-- Node16&#45;&gt;Node6 -->
<g id="edge21" class="edge">
<title>Node16&#45;&gt;Node6</title>
<path fill="none" stroke="midnightblue" d="M153.35,-134.31C153.87,-116.75 157.18,-86.74 172.5,-67 183.4,-52.96 199.3,-42.43 215.08,-34.73"/>
<polygon fill="midnightblue" stroke="midnightblue" points="216.68,-37.85 224.33,-30.51 213.78,-31.48 216.68,-37.85"/>
</g>
<!-- Node16&#45;&gt;Node15 -->
<g id="edge23" class="edge">
<title>Node16&#45;&gt;Node15</title>
<path fill="none" stroke="midnightblue" d="M133.75,-134.4C121.11,-125.37 104.52,-113.51 90.53,-103.52"/>
<polygon fill="midnightblue" stroke="midnightblue" points="92.38,-100.54 82.21,-97.58 88.31,-106.24 92.38,-100.54"/>
</g>
<!-- Node17 -->
<g id="node17" class="node">
<title>Node17</title>
<g id="a_node17"><a xlink:title=" ">
<polygon fill="white" stroke="#bfbfbf" points="181.5,-73 181.5,-92 213.5,-92 213.5,-73 181.5,-73"/>
<text text-anchor="middle" x="197.5" y="-80" font-family="Helvetica,sans-Serif" font-size="10.00">set</text>
</a>
</g>
</g>
<!-- Node16&#45;&gt;Node17 -->
<g id="edge18" class="edge">
<title>Node16&#45;&gt;Node17</title>
<path fill="none" stroke="midnightblue" d="M163.05,-134.4C169.77,-124.46 178.81,-111.11 185.94,-100.57"/>
<polygon fill="midnightblue" stroke="midnightblue" points="188.91,-102.44 191.61,-92.19 183.11,-98.51 188.91,-102.44"/>
</g>
<!-- Node18 -->
<g id="node18" class="node">
<title>Node18</title>
<g id="a_node18"><a xlink:title=" ">
<polygon fill="white" stroke="#bfbfbf" points="231.5,-73 231.5,-92 269.5,-92 269.5,-73 231.5,-73"/>
<text text-anchor="middle" x="250.5" y="-80" font-family="Helvetica,sans-Serif" font-size="10.00">map</text>
</a>
</g>
</g>
<!-- Node16&#45;&gt;Node18 -->
<g id="edge19" class="edge">
<title>Node16&#45;&gt;Node18</title>
<path fill="none" stroke="midnightblue" d="M174.55,-134.4C190.81,-123.5 213.22,-108.48 229.48,-97.58"/>
<polygon fill="midnightblue" stroke="midnightblue" points="231.45,-100.48 237.8,-92.01 227.55,-94.67 231.45,-100.48"/>
</g>
<!-- Node16&#45;&gt;Node19 -->
<g id="edge20" class="edge">
<title>Node16&#45;&gt;Node19</title>
<path fill="none" stroke="midnightblue" d="M217.52,-135.33C220.55,-134.85 223.56,-134.4 226.5,-134 433.62,-105.58 491.51,-143.74 695.5,-98 698.5,-97.33 701.59,-96.46 704.63,-95.49"/>
<polygon fill="midnightblue" stroke="midnightblue" points="705.86,-98.77 714.11,-92.13 703.52,-92.17 705.86,-98.77"/>
</g>
</g>
</svg>
        <g id="navigator" transform="translate(0 0)" fill="#404254">
                <rect fill="#f2f5e9" fill-opacity="0.5" stroke="#606060" stroke-width=".5" x="0" y="0" width="60" height="60"/>
                <use id="zoomplus" xlink:href="#zoomPlus" x="17" y="9" onmousedown="handleZoom(evt,'in')"/>
                <use id="zoomminus" xlink:href="#zoomMin" x="42" y="9" onmousedown="handleZoom(evt,'out')"/>
                <use id="reset" xlink:href="#resetDef" x="30" y="36" onmousedown="handleReset()"/>
                <g id="arrowUp" xlink:href="#dirArrow" transform="translate(30 24)" onmousedown="handlePan(0,-1)">
                  <use xlink:href="#rim" fill="#404040">
                        <set attributeName="fill" to="#808080" begin="arrowUp.mouseover" end="arrowUp.mouseout"/>
                  </use>
                  <path fill="none" stroke="white" stroke-width="1.5" d="M0,-3.0v7 M-2.5,-0.5L0,-3.0L2.5,-0.5"/>
                </g>
                <g id="arrowRight" xlink:href="#dirArrow" transform="rotate(90) translate(36 -43)" onmousedown="handlePan(1,0)">
                  <use xlink:href="#rim" fill="#404040">
                        <set attributeName="fill" to="#808080" begin="arrowRight.mouseover" end="arrowRight.mouseout"/>
                  </use>
                  <path fill="none" stroke="white" stroke-width="1.5" d="M0,-3.0v7 M-2.5,-0.5L0,-3.0L2.5,-0.5"/>
                </g>
                <g id="arrowDown" xlink:href="#dirArrow" transform="rotate(180) translate(-30 -48)" onmousedown="handlePan(0,1)">
                  <use xlink:href="#rim" fill="#404040">
                        <set attributeName="fill" to="#808080" begin="arrowDown.mouseover" end="arrowDown.mouseout"/>
                  </use>
                  <path fill="none" stroke="white" stroke-width="1.5" d="M0,-3.0v7 M-2.5,-0.5L0,-3.0L2.5,-0.5"/>
                </g>
                <g id="arrowLeft" xlink:href="#dirArrow" transform="rotate(270) translate(-36 17)" onmousedown="handlePan(-1,0)">
                  <use xlink:href="#rim" fill="#404040">
                        <set attributeName="fill" to="#808080" begin="arrowLeft.mouseover" end="arrowLeft.mouseout"/>
                  </use>
                  <path fill="none" stroke="white" stroke-width="1.5" d="M0,-3.0v7 M-2.5,-0.5L0,-3.0L2.5,-0.5"/>
                </g>
        </g>
        <svg viewBox="0 0 15 15" width="100%" height="30px" preserveAspectRatio="xMaxYMin meet">
         <g id="arrow_out" transform="scale(0.3 0.3)">
          <a xlink:href="node_8h__incl_org.svg" target="_base">
           <rect id="button" ry="5" rx="5" y="6" x="6" height="38" width="38"
                fill="#f2f5e9" fill-opacity="0.5" stroke="#606060" stroke-width="1.0"/>
           <path id="arrow"
             d="M 11.500037,31.436501 C 11.940474,20.09759 22.043105,11.32322 32.158766,21.979434 L 37.068811,17.246167 C 37.068811,17.246167 37.088388,32 37.088388,32 L 22.160133,31.978069 C 22.160133,31.978069 26.997745,27.140456 26.997745,27.140456 C 18.528582,18.264221 13.291696,25.230495 11.500037,31.436501 z"
             style="fill:#404040;"/>
          </a>
         </g>
        </svg>
</svg>
