<?xml version="1.0" encoding="UTF-8" standalone="no"?>
<!DOCTYPE svg PUBLIC "-//W3C//DTD SVG 1.1//EN"
 "http://www.w3.org/Graphics/SVG/1.1/DTD/svg11.dtd">
<!-- Generated by graphviz version 2.43.0 (0)
 -->
<!-- Title: include/Network/node.h Pages: 1 -->
<svg width="725pt" height="308pt"
 viewBox="0.00 0.00 725.00 308.00" xmlns="http://www.w3.org/2000/svg" xmlns:xlink="http://www.w3.org/1999/xlink">
<g id="graph0" class="graph" transform="scale(1 1) rotate(0) translate(4 304)">
<title>include/Network/node.h</title>
<polygon fill="white" stroke="transparent" points="-4,4 -4,-304 721,-304 721,4 -4,4"/>
<!-- Node1 -->
<g id="node1" class="node">
<title>Node1</title>
<g id="a_node1"><a xlink:title=" ">
<polygon fill="#bfbfbf" stroke="black" points="540.5,-280.5 540.5,-299.5 672.5,-299.5 672.5,-280.5 540.5,-280.5"/>
<text text-anchor="middle" x="606.5" y="-287.5" font-family="Helvetica,sans-Serif" font-size="10.00">include/Network/node.h</text>
</a>
</g>
</g>
<!-- Node2 -->
<g id="node2" class="node">
<title>Node2</title>
<g id="a_node2"><a xlink:href="dense__tensor_8h.html" target="_top" xlink:title=" ">
<polygon fill="white" stroke="black" points="523.5,-224.5 523.5,-243.5 613.5,-243.5 613.5,-224.5 523.5,-224.5"/>
<text text-anchor="middle" x="568.5" y="-231.5" font-family="Helvetica,sans-Serif" font-size="10.00">dense_tensor.h</text>
</a>
</g>
</g>
<!-- Node1&#45;&gt;Node2 -->
<g id="edge1" class="edge">
<title>Node1&#45;&gt;Node2</title>
<path fill="none" stroke="midnightblue" d="M600.23,-280.08C594.86,-272.46 586.98,-261.26 580.42,-251.94"/>
<polygon fill="midnightblue" stroke="midnightblue" points="583.28,-249.91 574.66,-243.75 577.55,-253.94 583.28,-249.91"/>
</g>
<!-- Node16 -->
<g id="node16" class="node">
<title>Node16</title>
<g id="a_node16"><a xlink:href="traits_8h.html" target="_top" xlink:title=" ">
<polygon fill="white" stroke="black" points="66,-112.5 66,-131.5 117,-131.5 117,-112.5 66,-112.5"/>
<text text-anchor="middle" x="91.5" y="-119.5" font-family="Helvetica,sans-Serif" font-size="10.00">traits.h</text>
</a>
</g>
</g>
<!-- Node1&#45;&gt;Node16 -->
<g id="edge27" class="edge">
<title>Node1&#45;&gt;Node16</title>
<path fill="none" stroke="midnightblue" d="M579.9,-280.42C493.96,-252.72 223.75,-165.63 126.67,-134.34"/>
<polygon fill="midnightblue" stroke="midnightblue" points="127.62,-130.97 117.03,-131.23 125.47,-137.63 127.62,-130.97"/>
</g>
<!-- Node19 -->
<g id="node19" class="node">
<title>Node19</title>
<g id="a_node19"><a xlink:title=" ">
<polygon fill="white" stroke="#bfbfbf" points="604.5,-56.5 604.5,-75.5 662.5,-75.5 662.5,-56.5 604.5,-56.5"/>
<text text-anchor="middle" x="633.5" y="-63.5" font-family="Helvetica,sans-Serif" font-size="10.00">memory</text>
</a>
</g>
</g>
<!-- Node1&#45;&gt;Node19 -->
<g id="edge28" class="edge">
<title>Node1&#45;&gt;Node19</title>
<path fill="none" stroke="midnightblue" d="M610.44,-280.24C614.26,-271.33 619.84,-257 622.5,-244 634.1,-187.32 634.6,-118.47 634.04,-85.87"/>
<polygon fill="midnightblue" stroke="midnightblue" points="637.53,-85.5 633.81,-75.58 630.54,-85.66 637.53,-85.5"/>
</g>
<!-- Node20 -->
<g id="node20" class="node">
<title>Node20</title>
<g id="a_node20"><a xlink:title=" ">
<polygon fill="white" stroke="#bfbfbf" points="672,-224.5 672,-243.5 717,-243.5 717,-224.5 672,-224.5"/>
<text text-anchor="middle" x="694.5" y="-231.5" font-family="Helvetica,sans-Serif" font-size="10.00">utility</text>
</a>
</g>
</g>
<!-- Node1&#45;&gt;Node20 -->
<g id="edge29" class="edge">
<title>Node1&#45;&gt;Node20</title>
<path fill="none" stroke="midnightblue" d="M620.64,-280.32C634.37,-271.9 655.44,-258.97 671.56,-249.07"/>
<polygon fill="midnightblue" stroke="midnightblue" points="673.7,-251.87 680.4,-243.65 670.04,-245.9 673.7,-251.87"/>
</g>
<!-- Node3 -->
<g id="node3" class="node">
<title>Node3</title>
<g id="a_node3"><a xlink:href="type__info_8h.html" target="_top" xlink:title=" ">
<polygon fill="white" stroke="black" points="390,-56.5 390,-75.5 461,-75.5 461,-56.5 390,-56.5"/>
<text text-anchor="middle" x="425.5" y="-63.5" font-family="Helvetica,sans-Serif" font-size="10.00">type_info.h</text>
</a>
</g>
</g>
<!-- Node2&#45;&gt;Node3 -->
<g id="edge2" class="edge">
<title>Node2&#45;&gt;Node3</title>
<path fill="none" stroke="midnightblue" d="M567.8,-224.19C565.64,-202.41 557.18,-145.41 526.5,-112 511.73,-95.91 490.13,-85.24 470.7,-78.34"/>
<polygon fill="midnightblue" stroke="midnightblue" points="471.68,-74.97 461.08,-75.16 469.48,-81.62 471.68,-74.97"/>
</g>
<!-- Node5 -->
<g id="node5" class="node">
<title>Node5</title>
<g id="a_node5"><a xlink:title=" ">
<polygon fill="white" stroke="#bfbfbf" points="565,-0.5 565,-19.5 612,-19.5 612,-0.5 565,-0.5"/>
<text text-anchor="middle" x="588.5" y="-7.5" font-family="Helvetica,sans-Serif" font-size="10.00">vector</text>
</a>
</g>
</g>
<!-- Node2&#45;&gt;Node5 -->
<g id="edge26" class="edge">
<title>Node2&#45;&gt;Node5</title>
<path fill="none" stroke="midnightblue" d="M576.89,-224.42C597.95,-202.22 652.67,-140.12 671.5,-76 674,-67.47 676.05,-63.64 671.5,-56 660.75,-37.94 639.94,-26.68 621.84,-19.94"/>
<polygon fill="midnightblue" stroke="midnightblue" points="622.75,-16.55 612.15,-16.65 620.5,-23.18 622.75,-16.55"/>
</g>
<!-- Node7 -->
<g id="node7" class="node">
<title>Node7</title>
<g id="a_node7"><a xlink:href="variant__attribute_8h.html" target="_top" xlink:title=" ">
<polygon fill="white" stroke="black" points="479,-56.5 479,-75.5 586,-75.5 586,-56.5 479,-56.5"/>
<text text-anchor="middle" x="532.5" y="-63.5" font-family="Helvetica,sans-Serif" font-size="10.00">variant_attribute.h</text>
</a>
</g>
</g>
<!-- Node2&#45;&gt;Node7 -->
<g id="edge6" class="edge">
<title>Node2&#45;&gt;Node7</title>
<path fill="none" stroke="midnightblue" d="M572.28,-224.34C580.65,-203.82 598.67,-151.07 581.5,-112 576.11,-99.73 565.54,-89.34 555.6,-81.65"/>
<polygon fill="midnightblue" stroke="midnightblue" points="557.33,-78.58 547.16,-75.6 553.25,-84.27 557.33,-78.58"/>
</g>
<!-- Node9 -->
<g id="node9" class="node">
<title>Node9</title>
<g id="a_node9"><a xlink:href="utilities_8h.html" target="_top" xlink:title=" ">
<polygon fill="white" stroke="black" points="334.5,-168.5 334.5,-187.5 396.5,-187.5 396.5,-168.5 334.5,-168.5"/>
<text text-anchor="middle" x="365.5" y="-175.5" font-family="Helvetica,sans-Serif" font-size="10.00">utilities.h</text>
</a>
</g>
</g>
<!-- Node2&#45;&gt;Node9 -->
<g id="edge10" class="edge">
<title>Node2&#45;&gt;Node9</title>
<path fill="none" stroke="midnightblue" d="M531.25,-224.44C494.47,-215.2 438.79,-200.44 402.21,-190.26"/>
<polygon fill="midnightblue" stroke="midnightblue" points="403.01,-186.85 392.44,-187.52 401.12,-193.59 403.01,-186.85"/>
</g>
<!-- Node4 -->
<g id="node4" class="node">
<title>Node4</title>
<g id="a_node4"><a xlink:title=" ">
<polygon fill="white" stroke="#bfbfbf" points="413.5,-0.5 413.5,-19.5 457.5,-19.5 457.5,-0.5 413.5,-0.5"/>
<text text-anchor="middle" x="435.5" y="-7.5" font-family="Helvetica,sans-Serif" font-size="10.00">string</text>
</a>
</g>
</g>
<!-- Node3&#45;&gt;Node4 -->
<g id="edge3" class="edge">
<title>Node3&#45;&gt;Node4</title>
<path fill="none" stroke="midnightblue" d="M427.15,-56.08C428.48,-48.93 430.38,-38.64 432.04,-29.69"/>
<polygon fill="midnightblue" stroke="midnightblue" points="435.5,-30.22 433.88,-19.75 428.62,-28.95 435.5,-30.22"/>
</g>
<!-- Node3&#45;&gt;Node5 -->
<g id="edge4" class="edge">
<title>Node3&#45;&gt;Node5</title>
<path fill="none" stroke="midnightblue" d="M451.33,-56.44C479.39,-47.15 524.33,-32.26 555.07,-22.07"/>
<polygon fill="midnightblue" stroke="midnightblue" points="556.52,-25.28 564.91,-18.82 554.32,-18.64 556.52,-25.28"/>
</g>
<!-- Node6 -->
<g id="node6" class="node">
<title>Node6</title>
<g id="a_node6"><a xlink:href="starting__traits_8h.html" target="_top" xlink:title=" ">
<polygon fill="white" stroke="black" points="179.5,-0.5 179.5,-19.5 273.5,-19.5 273.5,-0.5 179.5,-0.5"/>
<text text-anchor="middle" x="226.5" y="-7.5" font-family="Helvetica,sans-Serif" font-size="10.00">starting_traits.h</text>
</a>
</g>
</g>
<!-- Node3&#45;&gt;Node6 -->
<g id="edge5" class="edge">
<title>Node3&#45;&gt;Node6</title>
<path fill="none" stroke="midnightblue" d="M393.97,-56.44C359.91,-47.2 305.49,-32.44 267.98,-22.26"/>
<polygon fill="midnightblue" stroke="midnightblue" points="268.45,-18.76 257.88,-19.52 266.62,-25.51 268.45,-18.76"/>
</g>
<!-- Node7&#45;&gt;Node4 -->
<g id="edge7" class="edge">
<title>Node7&#45;&gt;Node4</title>
<path fill="none" stroke="midnightblue" d="M516.92,-56.32C501.5,-47.74 477.69,-34.49 459.79,-24.52"/>
<polygon fill="midnightblue" stroke="midnightblue" points="461.49,-21.46 451.05,-19.65 458.08,-27.58 461.49,-21.46"/>
</g>
<!-- Node7&#45;&gt;Node5 -->
<g id="edge9" class="edge">
<title>Node7&#45;&gt;Node5</title>
<path fill="none" stroke="midnightblue" d="M541.5,-56.32C549.69,-48.42 562.01,-36.55 571.97,-26.94"/>
<polygon fill="midnightblue" stroke="midnightblue" points="574.57,-29.29 579.34,-19.83 569.71,-24.26 574.57,-29.29"/>
</g>
<!-- Node8 -->
<g id="node8" class="node">
<title>Node8</title>
<g id="a_node8"><a xlink:title=" ">
<polygon fill="white" stroke="#bfbfbf" points="496,-0.5 496,-19.5 547,-19.5 547,-0.5 496,-0.5"/>
<text text-anchor="middle" x="521.5" y="-7.5" font-family="Helvetica,sans-Serif" font-size="10.00">variant</text>
</a>
</g>
</g>
<!-- Node7&#45;&gt;Node8 -->
<g id="edge8" class="edge">
<title>Node7&#45;&gt;Node8</title>
<path fill="none" stroke="midnightblue" d="M530.68,-56.08C529.23,-48.93 527.13,-38.64 525.31,-29.69"/>
<polygon fill="midnightblue" stroke="midnightblue" points="528.71,-28.85 523.28,-19.75 521.85,-30.25 528.71,-28.85"/>
</g>
<!-- Node9&#45;&gt;Node2 -->
<g id="edge24" class="edge">
<title>Node9&#45;&gt;Node2</title>
<path fill="none" stroke="midnightblue" d="M396.75,-186.05C433.16,-195.11 492.96,-210.94 531.6,-221.69"/>
<polygon fill="midnightblue" stroke="midnightblue" points="530.85,-225.12 541.42,-224.44 532.74,-218.38 530.85,-225.12"/>
</g>
<!-- Node9&#45;&gt;Node3 -->
<g id="edge25" class="edge">
<title>Node9&#45;&gt;Node3</title>
<path fill="none" stroke="midnightblue" d="M396.73,-177.3C430.96,-175.74 484.47,-167.33 510.5,-132 527.35,-109.12 493.73,-90.38 463.93,-79"/>
<polygon fill="midnightblue" stroke="midnightblue" points="465.05,-75.68 454.45,-75.56 462.66,-82.26 465.05,-75.68"/>
</g>
<!-- Node10 -->
<g id="node10" class="node">
<title>Node10</title>
<g id="a_node10"><a xlink:title=" ">
<polygon fill="white" stroke="#bfbfbf" points="135.5,-112.5 135.5,-131.5 199.5,-131.5 199.5,-112.5 135.5,-112.5"/>
<text text-anchor="middle" x="167.5" y="-119.5" font-family="Helvetica,sans-Serif" font-size="10.00">algorithm</text>
</a>
</g>
</g>
<!-- Node9&#45;&gt;Node10 -->
<g id="edge11" class="edge">
<title>Node9&#45;&gt;Node10</title>
<path fill="none" stroke="midnightblue" d="M334.13,-168.44C300.24,-159.2 246.1,-144.44 208.78,-134.26"/>
<polygon fill="midnightblue" stroke="midnightblue" points="209.3,-130.77 198.73,-131.52 207.45,-137.52 209.3,-130.77"/>
</g>
<!-- Node11 -->
<g id="node11" class="node">
<title>Node11</title>
<g id="a_node11"><a xlink:title=" ">
<polygon fill="white" stroke="#bfbfbf" points="217.5,-112.5 217.5,-131.5 273.5,-131.5 273.5,-112.5 217.5,-112.5"/>
<text text-anchor="middle" x="245.5" y="-119.5" font-family="Helvetica,sans-Serif" font-size="10.00">numeric</text>
</a>
</g>
</g>
<!-- Node9&#45;&gt;Node11 -->
<g id="edge12" class="edge">
<title>Node9&#45;&gt;Node11</title>
<path fill="none" stroke="midnightblue" d="M346.49,-168.44C326.91,-159.64 296.19,-145.81 273.77,-135.72"/>
<polygon fill="midnightblue" stroke="midnightblue" points="274.98,-132.43 264.43,-131.52 272.11,-138.81 274.98,-132.43"/>
</g>
<!-- Node12 -->
<g id="node12" class="node">
<title>Node12</title>
<g id="a_node12"><a xlink:title=" ">
<polygon fill="white" stroke="#bfbfbf" points="291.5,-112.5 291.5,-131.5 359.5,-131.5 359.5,-112.5 291.5,-112.5"/>
<text text-anchor="middle" x="325.5" y="-119.5" font-family="Helvetica,sans-Serif" font-size="10.00">filesystem</text>
</a>
</g>
</g>
<!-- Node9&#45;&gt;Node12 -->
<g id="edge13" class="edge">
<title>Node9&#45;&gt;Node12</title>
<path fill="none" stroke="midnightblue" d="M358.89,-168.08C353.24,-160.46 344.96,-149.26 338.05,-139.94"/>
<polygon fill="midnightblue" stroke="midnightblue" points="340.75,-137.7 331.98,-131.75 335.12,-141.87 340.75,-137.7"/>
</g>
<!-- Node13 -->
<g id="node13" class="node">
<title>Node13</title>
<g id="a_node13"><a xlink:title=" ">
<polygon fill="white" stroke="#bfbfbf" points="378,-112.5 378,-131.5 433,-131.5 433,-112.5 378,-112.5"/>
<text text-anchor="middle" x="405.5" y="-119.5" font-family="Helvetica,sans-Serif" font-size="10.00">fstream</text>
</a>
</g>
</g>
<!-- Node9&#45;&gt;Node13 -->
<g id="edge14" class="edge">
<title>Node9&#45;&gt;Node13</title>
<path fill="none" stroke="midnightblue" d="M372.11,-168.08C377.76,-160.46 386.04,-149.26 392.95,-139.94"/>
<polygon fill="midnightblue" stroke="midnightblue" points="395.88,-141.87 399.02,-131.75 390.25,-137.7 395.88,-141.87"/>
</g>
<!-- Node14 -->
<g id="node14" class="node">
<title>Node14</title>
<g id="a_node14"><a xlink:title=" ">
<polygon fill="white" stroke="#bfbfbf" points="451.5,-112.5 451.5,-131.5 501.5,-131.5 501.5,-112.5 451.5,-112.5"/>
<text text-anchor="middle" x="476.5" y="-119.5" font-family="Helvetica,sans-Serif" font-size="10.00">ranges</text>
</a>
</g>
</g>
<!-- Node9&#45;&gt;Node14 -->
<g id="edge15" class="edge">
<title>Node9&#45;&gt;Node14</title>
<path fill="none" stroke="midnightblue" d="M383.33,-168.32C401.22,-159.62 428.98,-146.12 449.55,-136.11"/>
<polygon fill="midnightblue" stroke="midnightblue" points="451.25,-139.18 458.71,-131.65 448.19,-132.88 451.25,-139.18"/>
</g>
<!-- Node15 -->
<g id="node15" class="node">
<title>Node15</title>
<g id="a_node15"><a xlink:title=" ">
<polygon fill="white" stroke="#bfbfbf" points="0,-56.5 0,-75.5 65,-75.5 65,-56.5 0,-56.5"/>
<text text-anchor="middle" x="32.5" y="-63.5" font-family="Helvetica,sans-Serif" font-size="10.00">onnx.pb.h</text>
</a>
</g>
</g>
<!-- Node9&#45;&gt;Node15 -->
<g id="edge16" class="edge">
<title>Node9&#45;&gt;Node15</title>
<path fill="none" stroke="midnightblue" d="M334.44,-176.4C264.77,-174.46 98.78,-166.25 56.5,-132 42.65,-120.78 36.79,-100.76 34.31,-85.9"/>
<polygon fill="midnightblue" stroke="midnightblue" points="37.76,-85.23 33,-75.76 30.81,-86.13 37.76,-85.23"/>
</g>
<!-- Node9&#45;&gt;Node16 -->
<g id="edge17" class="edge">
<title>Node9&#45;&gt;Node16</title>
<path fill="none" stroke="midnightblue" d="M334.43,-171.82C290.49,-164.35 207.5,-149.71 126.88,-131.96"/>
<polygon fill="midnightblue" stroke="midnightblue" points="127.59,-128.53 117.07,-129.78 126.07,-135.36 127.59,-128.53"/>
</g>
<!-- Node16&#45;&gt;Node3 -->
<g id="edge23" class="edge">
<title>Node16&#45;&gt;Node3</title>
<path fill="none" stroke="midnightblue" d="M117.04,-114.11C120.22,-113.35 123.43,-112.62 126.5,-112 215.55,-93.9 320.88,-79.7 379.76,-72.41"/>
<polygon fill="midnightblue" stroke="midnightblue" points="380.35,-75.86 389.85,-71.17 379.5,-68.91 380.35,-75.86"/>
</g>
<!-- Node16&#45;&gt;Node6 -->
<g id="edge21" class="edge">
<title>Node16&#45;&gt;Node6</title>
<path fill="none" stroke="midnightblue" d="M92.01,-112.24C93.25,-98.53 97.57,-71.91 112.5,-56 127.84,-39.66 149.85,-29.15 170.45,-22.43"/>
<polygon fill="midnightblue" stroke="midnightblue" points="171.53,-25.76 180.1,-19.52 169.51,-19.06 171.53,-25.76"/>
</g>
<!-- Node16&#45;&gt;Node15 -->
<g id="edge22" class="edge">
<title>Node16&#45;&gt;Node15</title>
<path fill="none" stroke="midnightblue" d="M82.02,-112.32C73.3,-104.34 60.16,-92.31 49.6,-82.65"/>
<polygon fill="midnightblue" stroke="midnightblue" points="51.89,-80 42.15,-75.83 47.17,-85.17 51.89,-80"/>
</g>
<!-- Node17 -->
<g id="node17" class="node">
<title>Node17</title>
<g id="a_node17"><a xlink:title=" ">
<polygon fill="white" stroke="#bfbfbf" points="121.5,-56.5 121.5,-75.5 153.5,-75.5 153.5,-56.5 121.5,-56.5"/>
<text text-anchor="middle" x="137.5" y="-63.5" font-family="Helvetica,sans-Serif" font-size="10.00">set</text>
</a>
</g>
</g>
<!-- Node16&#45;&gt;Node17 -->
<g id="edge18" class="edge">
<title>Node16&#45;&gt;Node17</title>
<path fill="none" stroke="midnightblue" d="M99.1,-112.08C105.73,-104.3 115.52,-92.8 123.56,-83.37"/>
<polygon fill="midnightblue" stroke="midnightblue" points="126.23,-85.63 130.05,-75.75 120.9,-81.09 126.23,-85.63"/>
</g>
<!-- Node18 -->
<g id="node18" class="node">
<title>Node18</title>
<g id="a_node18"><a xlink:title=" ">
<polygon fill="white" stroke="#bfbfbf" points="171.5,-56.5 171.5,-75.5 209.5,-75.5 209.5,-56.5 171.5,-56.5"/>
<text text-anchor="middle" x="190.5" y="-63.5" font-family="Helvetica,sans-Serif" font-size="10.00">map</text>
</a>
</g>
</g>
<!-- Node16&#45;&gt;Node18 -->
<g id="edge19" class="edge">
<title>Node16&#45;&gt;Node18</title>
<path fill="none" stroke="midnightblue" d="M107.41,-112.32C123.14,-103.74 147.44,-90.49 165.71,-80.52"/>
<polygon fill="midnightblue" stroke="midnightblue" points="167.53,-83.52 174.63,-75.65 164.18,-77.37 167.53,-83.52"/>
</g>
<!-- Node16&#45;&gt;Node19 -->
<g id="edge20" class="edge">
<title>Node16&#45;&gt;Node19</title>
<path fill="none" stroke="midnightblue" d="M117,-113.89C120.18,-113.17 123.41,-112.51 126.5,-112 329.52,-78.37 387.14,-107.26 594.16,-75.97"/>
<polygon fill="midnightblue" stroke="midnightblue" points="594.78,-79.42 604.13,-74.43 593.71,-72.5 594.78,-79.42"/>
</g>
</g>
</svg>
