<?xml version="1.0" encoding="UTF-8" standalone="no"?>
<!DOCTYPE svg PUBLIC "-//W3C//DTD SVG 1.1//EN"
 "http://www.w3.org/Graphics/SVG/1.1/DTD/svg11.dtd">
<!-- Generated by graphviz version 2.43.0 (0)
 -->
<!-- Title: include/Network/node_traits.h Pages: 1 -->
<svg width="849pt" height="375pt"
 viewBox="0.00 0.00 848.57 375.00" xmlns="http://www.w3.org/2000/svg" xmlns:xlink="http://www.w3.org/1999/xlink">
<g id="graph0" class="graph" transform="scale(1 1) rotate(0) translate(4 371)">
<title>include/Network/node_traits.h</title>
<polygon fill="white" stroke="transparent" points="-4,4 -4,-371 844.57,-371 844.57,4 -4,4"/>
<!-- Node1 -->
<g id="node1" class="node">
<title>Node1</title>
<g id="a_node1"><a xlink:title=" ">
<polygon fill="#bfbfbf" stroke="black" points="343.07,-336.5 343.07,-366.5 466.07,-366.5 466.07,-336.5 343.07,-336.5"/>
<text text-anchor="start" x="351.07" y="-354.5" font-family="Helvetica,sans-Serif" font-size="10.00">include/Network/node</text>
<text text-anchor="middle" x="404.57" y="-343.5" font-family="Helvetica,sans-Serif" font-size="10.00">_traits.h</text>
</a>
</g>
</g>
<!-- Node2 -->
<g id="node2" class="node">
<title>Node2</title>
<g id="a_node2"><a xlink:title=" ">
<polygon fill="white" stroke="#bfbfbf" points="782.57,-56.5 782.57,-75.5 840.57,-75.5 840.57,-56.5 782.57,-56.5"/>
<text text-anchor="middle" x="811.57" y="-63.5" font-family="Helvetica,sans-Serif" font-size="10.00">memory</text>
</a>
</g>
</g>
<!-- Node1&#45;&gt;Node2 -->
<g id="edge1" class="edge">
<title>Node1&#45;&gt;Node2</title>
<path fill="none" stroke="midnightblue" d="M466.38,-345.84C580.24,-335.53 811.57,-305.88 811.57,-235 811.57,-235 811.57,-235 811.57,-177 811.57,-144.95 811.57,-107.64 811.57,-85.75"/>
<polygon fill="midnightblue" stroke="midnightblue" points="815.07,-85.56 811.57,-75.56 808.07,-85.56 815.07,-85.56"/>
</g>
<!-- Node3 -->
<g id="node3" class="node">
<title>Node3</title>
<g id="a_node3"><a xlink:href="content_8h.html" target="_top" xlink:title=" ">
<polygon fill="white" stroke="black" points="287.57,-280.5 287.57,-299.5 349.57,-299.5 349.57,-280.5 287.57,-280.5"/>
<text text-anchor="middle" x="318.57" y="-287.5" font-family="Helvetica,sans-Serif" font-size="10.00">content.h</text>
</a>
</g>
</g>
<!-- Node1&#45;&gt;Node3 -->
<g id="edge2" class="edge">
<title>Node1&#45;&gt;Node3</title>
<path fill="none" stroke="midnightblue" d="M384.19,-336.4C370.66,-327.04 352.96,-314.79 339.35,-305.38"/>
<polygon fill="midnightblue" stroke="midnightblue" points="341.3,-302.47 331.08,-299.66 337.31,-308.23 341.3,-302.47"/>
</g>
<!-- Node5 -->
<g id="node5" class="node">
<title>Node5</title>
<g id="a_node5"><a xlink:href="type__info_8h.html" target="_top" xlink:title=" ">
<polygon fill="white" stroke="black" points="170.07,-56.5 170.07,-75.5 241.07,-75.5 241.07,-56.5 170.07,-56.5"/>
<text text-anchor="middle" x="205.57" y="-63.5" font-family="Helvetica,sans-Serif" font-size="10.00">type_info.h</text>
</a>
</g>
</g>
<!-- Node1&#45;&gt;Node5 -->
<g id="edge35" class="edge">
<title>Node1&#45;&gt;Node5</title>
<path fill="none" stroke="midnightblue" d="M342.86,-337.38C320.07,-329.8 295.67,-318.05 278.57,-300 219.82,-237.98 208.33,-129.22 206.1,-85.74"/>
<polygon fill="midnightblue" stroke="midnightblue" points="209.59,-85.36 205.69,-75.51 202.59,-85.64 209.59,-85.36"/>
</g>
<!-- Node21 -->
<g id="node21" class="node">
<title>Node21</title>
<g id="a_node21"><a xlink:href="node_8h.html" target="_top" xlink:title=" ">
<polygon fill="white" stroke="black" points="570.57,-280.5 570.57,-299.5 620.57,-299.5 620.57,-280.5 570.57,-280.5"/>
<text text-anchor="middle" x="595.57" y="-287.5" font-family="Helvetica,sans-Serif" font-size="10.00">node.h</text>
</a>
</g>
</g>
<!-- Node1&#45;&gt;Node21 -->
<g id="edge30" class="edge">
<title>Node1&#45;&gt;Node21</title>
<path fill="none" stroke="midnightblue" d="M449.83,-336.4C483.88,-325.79 529.83,-311.48 560.96,-301.78"/>
<polygon fill="midnightblue" stroke="midnightblue" points="562.01,-305.12 570.52,-298.8 559.93,-298.44 562.01,-305.12"/>
</g>
<!-- Node4 -->
<g id="node4" class="node">
<title>Node4</title>
<g id="a_node4"><a xlink:href="dense__tensor_8h.html" target="_top" xlink:title=" ">
<polygon fill="white" stroke="black" points="273.57,-224.5 273.57,-243.5 363.57,-243.5 363.57,-224.5 273.57,-224.5"/>
<text text-anchor="middle" x="318.57" y="-231.5" font-family="Helvetica,sans-Serif" font-size="10.00">dense_tensor.h</text>
</a>
</g>
</g>
<!-- Node3&#45;&gt;Node4 -->
<g id="edge3" class="edge">
<title>Node3&#45;&gt;Node4</title>
<path fill="none" stroke="midnightblue" d="M318.57,-280.08C318.57,-273.01 318.57,-262.86 318.57,-253.99"/>
<polygon fill="midnightblue" stroke="midnightblue" points="322.07,-253.75 318.57,-243.75 315.07,-253.75 322.07,-253.75"/>
</g>
<!-- Node9 -->
<g id="node9" class="node">
<title>Node9</title>
<g id="a_node9"><a xlink:href="variant__attribute_8h.html" target="_top" xlink:title=" ">
<polygon fill="white" stroke="black" points="8.07,-168.5 8.07,-187.5 115.07,-187.5 115.07,-168.5 8.07,-168.5"/>
<text text-anchor="middle" x="61.57" y="-175.5" font-family="Helvetica,sans-Serif" font-size="10.00">variant_attribute.h</text>
</a>
</g>
</g>
<!-- Node3&#45;&gt;Node9 -->
<g id="edge29" class="edge">
<title>Node3&#45;&gt;Node9</title>
<path fill="none" stroke="midnightblue" d="M298.4,-280.37C253.27,-261.05 143.95,-214.26 91.12,-191.65"/>
<polygon fill="midnightblue" stroke="midnightblue" points="92.21,-188.31 81.64,-187.59 89.46,-194.74 92.21,-188.31"/>
</g>
<!-- Node4&#45;&gt;Node5 -->
<g id="edge4" class="edge">
<title>Node4&#45;&gt;Node5</title>
<path fill="none" stroke="midnightblue" d="M310.19,-224.4C294.2,-207.67 258.84,-169.11 235.57,-132 226.19,-117.05 217.98,-98.68 212.54,-85.29"/>
<polygon fill="midnightblue" stroke="midnightblue" points="215.71,-83.79 208.79,-75.77 209.2,-86.36 215.71,-83.79"/>
</g>
<!-- Node7 -->
<g id="node7" class="node">
<title>Node7</title>
<g id="a_node7"><a xlink:title=" ">
<polygon fill="white" stroke="#bfbfbf" points="106.07,-0.5 106.07,-19.5 153.07,-19.5 153.07,-0.5 106.07,-0.5"/>
<text text-anchor="middle" x="129.57" y="-7.5" font-family="Helvetica,sans-Serif" font-size="10.00">vector</text>
</a>
</g>
</g>
<!-- Node4&#45;&gt;Node7 -->
<g id="edge28" class="edge">
<title>Node4&#45;&gt;Node7</title>
<path fill="none" stroke="midnightblue" d="M305.55,-224.42C292.97,-215.85 273.65,-201.99 258.57,-188 210.07,-143.02 196.92,-131.26 160.57,-76 150.81,-61.17 142.34,-42.78 136.73,-29.36"/>
<polygon fill="midnightblue" stroke="midnightblue" points="139.86,-27.78 132.87,-19.81 133.37,-30.4 139.86,-27.78"/>
</g>
<!-- Node4&#45;&gt;Node9 -->
<g id="edge8" class="edge">
<title>Node4&#45;&gt;Node9</title>
<path fill="none" stroke="midnightblue" d="M277.85,-224.44C232.92,-215 160.57,-199.8 112.07,-189.61"/>
<polygon fill="midnightblue" stroke="midnightblue" points="112.61,-186.15 102.1,-187.52 111.17,-193 112.61,-186.15"/>
</g>
<!-- Node11 -->
<g id="node11" class="node">
<title>Node11</title>
<g id="a_node11"><a xlink:href="utilities_8h.html" target="_top" xlink:title=" ">
<polygon fill="white" stroke="black" points="390.57,-168.5 390.57,-187.5 452.57,-187.5 452.57,-168.5 390.57,-168.5"/>
<text text-anchor="middle" x="421.57" y="-175.5" font-family="Helvetica,sans-Serif" font-size="10.00">utilities.h</text>
</a>
</g>
</g>
<!-- Node4&#45;&gt;Node11 -->
<g id="edge12" class="edge">
<title>Node4&#45;&gt;Node11</title>
<path fill="none" stroke="midnightblue" d="M330,-224.32C344.71,-215.62 370.21,-202.12 390.67,-192.11"/>
<polygon fill="midnightblue" stroke="midnightblue" points="392.45,-195.14 399.95,-187.65 389.42,-188.83 392.45,-195.14"/>
</g>
<!-- Node6 -->
<g id="node6" class="node">
<title>Node6</title>
<g id="a_node6"><a xlink:title=" ">
<polygon fill="white" stroke="#bfbfbf" points="2.57,-0.5 2.57,-19.5 46.57,-19.5 46.57,-0.5 2.57,-0.5"/>
<text text-anchor="middle" x="24.57" y="-7.5" font-family="Helvetica,sans-Serif" font-size="10.00">string</text>
</a>
</g>
</g>
<!-- Node5&#45;&gt;Node6 -->
<g id="edge5" class="edge">
<title>Node5&#45;&gt;Node6</title>
<path fill="none" stroke="midnightblue" d="M176.89,-56.44C144.19,-46.69 90.86,-30.78 56.76,-20.6"/>
<polygon fill="midnightblue" stroke="midnightblue" points="57.42,-17.15 46.84,-17.64 55.42,-23.86 57.42,-17.15"/>
</g>
<!-- Node5&#45;&gt;Node7 -->
<g id="edge6" class="edge">
<title>Node5&#45;&gt;Node7</title>
<path fill="none" stroke="midnightblue" d="M193.36,-56.32C181.79,-48.11 164.19,-35.6 150.41,-25.81"/>
<polygon fill="midnightblue" stroke="midnightblue" points="152.18,-22.77 142,-19.83 148.13,-28.48 152.18,-22.77"/>
</g>
<!-- Node8 -->
<g id="node8" class="node">
<title>Node8</title>
<g id="a_node8"><a xlink:href="starting__traits_8h.html" target="_top" xlink:title=" ">
<polygon fill="white" stroke="black" points="439.57,-0.5 439.57,-19.5 533.57,-19.5 533.57,-0.5 439.57,-0.5"/>
<text text-anchor="middle" x="486.57" y="-7.5" font-family="Helvetica,sans-Serif" font-size="10.00">starting_traits.h</text>
</a>
</g>
</g>
<!-- Node5&#45;&gt;Node8 -->
<g id="edge7" class="edge">
<title>Node5&#45;&gt;Node8</title>
<path fill="none" stroke="midnightblue" d="M241.16,-58.16C289.26,-48.92 375.49,-32.35 431.86,-21.51"/>
<polygon fill="midnightblue" stroke="midnightblue" points="432.86,-24.89 442.02,-19.56 431.54,-18.01 432.86,-24.89"/>
</g>
<!-- Node9&#45;&gt;Node6 -->
<g id="edge9" class="edge">
<title>Node9&#45;&gt;Node6</title>
<path fill="none" stroke="midnightblue" d="M44.94,-168.46C32.08,-160.84 15.23,-148.36 7.57,-132 -8.33,-98.05 5.83,-53.3 16.12,-28.85"/>
<polygon fill="midnightblue" stroke="midnightblue" points="19.32,-30.26 20.19,-19.7 12.93,-27.41 19.32,-30.26"/>
</g>
<!-- Node9&#45;&gt;Node7 -->
<g id="edge11" class="edge">
<title>Node9&#45;&gt;Node7</title>
<path fill="none" stroke="midnightblue" d="M55.12,-168.5C46.47,-155.99 33.03,-131.97 40.57,-112 54.35,-75.52 87.97,-43.69 109.72,-25.94"/>
<polygon fill="midnightblue" stroke="midnightblue" points="112.01,-28.59 117.68,-19.64 107.67,-23.1 112.01,-28.59"/>
</g>
<!-- Node10 -->
<g id="node10" class="node">
<title>Node10</title>
<g id="a_node10"><a xlink:title=" ">
<polygon fill="white" stroke="#bfbfbf" points="50.07,-112.5 50.07,-131.5 101.07,-131.5 101.07,-112.5 50.07,-112.5"/>
<text text-anchor="middle" x="75.57" y="-119.5" font-family="Helvetica,sans-Serif" font-size="10.00">variant</text>
</a>
</g>
</g>
<!-- Node9&#45;&gt;Node10 -->
<g id="edge10" class="edge">
<title>Node9&#45;&gt;Node10</title>
<path fill="none" stroke="midnightblue" d="M63.88,-168.08C65.74,-160.93 68.4,-150.64 70.72,-141.69"/>
<polygon fill="midnightblue" stroke="midnightblue" points="74.18,-142.31 73.3,-131.75 67.4,-140.55 74.18,-142.31"/>
</g>
<!-- Node11&#45;&gt;Node4 -->
<g id="edge26" class="edge">
<title>Node11&#45;&gt;Node4</title>
<path fill="none" stroke="midnightblue" d="M410.4,-187.52C395.64,-196.27 369.69,-210.01 349.04,-220.1"/>
<polygon fill="midnightblue" stroke="midnightblue" points="347.48,-216.96 339.98,-224.44 350.51,-223.27 347.48,-216.96"/>
</g>
<!-- Node11&#45;&gt;Node5 -->
<g id="edge27" class="edge">
<title>Node11&#45;&gt;Node5</title>
<path fill="none" stroke="midnightblue" d="M390.44,-173.52C356.74,-168.6 302.47,-157.2 262.57,-132 243.21,-119.77 226.68,-99.03 216.48,-84.27"/>
<polygon fill="midnightblue" stroke="midnightblue" points="219.17,-81.98 210.73,-75.58 213.33,-85.85 219.17,-81.98"/>
</g>
<!-- Node12 -->
<g id="node12" class="node">
<title>Node12</title>
<g id="a_node12"><a xlink:title=" ">
<polygon fill="white" stroke="#bfbfbf" points="271.57,-112.5 271.57,-131.5 335.57,-131.5 335.57,-112.5 271.57,-112.5"/>
<text text-anchor="middle" x="303.57" y="-119.5" font-family="Helvetica,sans-Serif" font-size="10.00">algorithm</text>
</a>
</g>
</g>
<!-- Node11&#45;&gt;Node12 -->
<g id="edge13" class="edge">
<title>Node11&#45;&gt;Node12</title>
<path fill="none" stroke="midnightblue" d="M402.87,-168.44C383.62,-159.64 353.42,-145.81 331.37,-135.72"/>
<polygon fill="midnightblue" stroke="midnightblue" points="332.73,-132.5 322.18,-131.52 329.82,-138.86 332.73,-132.5"/>
</g>
<!-- Node13 -->
<g id="node13" class="node">
<title>Node13</title>
<g id="a_node13"><a xlink:title=" ">
<polygon fill="white" stroke="#bfbfbf" points="353.57,-112.5 353.57,-131.5 409.57,-131.5 409.57,-112.5 353.57,-112.5"/>
<text text-anchor="middle" x="381.57" y="-119.5" font-family="Helvetica,sans-Serif" font-size="10.00">numeric</text>
</a>
</g>
</g>
<!-- Node11&#45;&gt;Node13 -->
<g id="edge14" class="edge">
<title>Node11&#45;&gt;Node13</title>
<path fill="none" stroke="midnightblue" d="M414.96,-168.08C409.31,-160.46 401.02,-149.26 394.12,-139.94"/>
<polygon fill="midnightblue" stroke="midnightblue" points="396.82,-137.7 388.05,-131.75 391.19,-141.87 396.82,-137.7"/>
</g>
<!-- Node14 -->
<g id="node14" class="node">
<title>Node14</title>
<g id="a_node14"><a xlink:title=" ">
<polygon fill="white" stroke="#bfbfbf" points="427.57,-112.5 427.57,-131.5 495.57,-131.5 495.57,-112.5 427.57,-112.5"/>
<text text-anchor="middle" x="461.57" y="-119.5" font-family="Helvetica,sans-Serif" font-size="10.00">filesystem</text>
</a>
</g>
</g>
<!-- Node11&#45;&gt;Node14 -->
<g id="edge15" class="edge">
<title>Node11&#45;&gt;Node14</title>
<path fill="none" stroke="midnightblue" d="M428.17,-168.08C433.82,-160.46 442.11,-149.26 449.02,-139.94"/>
<polygon fill="midnightblue" stroke="midnightblue" points="451.95,-141.87 455.09,-131.75 446.32,-137.7 451.95,-141.87"/>
</g>
<!-- Node15 -->
<g id="node15" class="node">
<title>Node15</title>
<g id="a_node15"><a xlink:title=" ">
<polygon fill="white" stroke="#bfbfbf" points="514.07,-112.5 514.07,-131.5 569.07,-131.5 569.07,-112.5 514.07,-112.5"/>
<text text-anchor="middle" x="541.57" y="-119.5" font-family="Helvetica,sans-Serif" font-size="10.00">fstream</text>
</a>
</g>
</g>
<!-- Node11&#45;&gt;Node15 -->
<g id="edge16" class="edge">
<title>Node11&#45;&gt;Node15</title>
<path fill="none" stroke="midnightblue" d="M440.58,-168.44C460.16,-159.64 490.88,-145.81 513.3,-135.72"/>
<polygon fill="midnightblue" stroke="midnightblue" points="514.96,-138.81 522.64,-131.52 512.09,-132.43 514.96,-138.81"/>
</g>
<!-- Node16 -->
<g id="node16" class="node">
<title>Node16</title>
<g id="a_node16"><a xlink:title=" ">
<polygon fill="white" stroke="#bfbfbf" points="587.57,-112.5 587.57,-131.5 637.57,-131.5 637.57,-112.5 587.57,-112.5"/>
<text text-anchor="middle" x="612.57" y="-119.5" font-family="Helvetica,sans-Serif" font-size="10.00">ranges</text>
</a>
</g>
</g>
<!-- Node11&#45;&gt;Node16 -->
<g id="edge17" class="edge">
<title>Node11&#45;&gt;Node16</title>
<path fill="none" stroke="midnightblue" d="M451.83,-168.44C485.92,-158.81 541.23,-143.17 577.26,-132.98"/>
<polygon fill="midnightblue" stroke="midnightblue" points="578.66,-136.23 587.33,-130.14 576.75,-129.49 578.66,-136.23"/>
</g>
<!-- Node17 -->
<g id="node17" class="node">
<title>Node17</title>
<g id="a_node17"><a xlink:title=" ">
<polygon fill="white" stroke="#bfbfbf" points="555.07,-56.5 555.07,-75.5 620.07,-75.5 620.07,-56.5 555.07,-56.5"/>
<text text-anchor="middle" x="587.57" y="-63.5" font-family="Helvetica,sans-Serif" font-size="10.00">onnx.pb.h</text>
</a>
</g>
</g>
<!-- Node11&#45;&gt;Node17 -->
<g id="edge18" class="edge">
<title>Node11&#45;&gt;Node17</title>
<path fill="none" stroke="midnightblue" d="M452.62,-175.49C508.48,-172.04 622.39,-161.5 646.57,-132 661.68,-113.56 636.29,-93.38 614.26,-80.48"/>
<polygon fill="midnightblue" stroke="midnightblue" points="615.89,-77.39 605.45,-75.58 612.49,-83.5 615.89,-77.39"/>
</g>
<!-- Node18 -->
<g id="node18" class="node">
<title>Node18</title>
<g id="a_node18"><a xlink:href="traits_8h.html" target="_top" xlink:title=" ">
<polygon fill="white" stroke="black" points="694.07,-112.5 694.07,-131.5 745.07,-131.5 745.07,-112.5 694.07,-112.5"/>
<text text-anchor="middle" x="719.57" y="-119.5" font-family="Helvetica,sans-Serif" font-size="10.00">traits.h</text>
</a>
</g>
</g>
<!-- Node11&#45;&gt;Node18 -->
<g id="edge19" class="edge">
<title>Node11&#45;&gt;Node18</title>
<path fill="none" stroke="midnightblue" d="M452.64,-172.08C501.19,-164.28 597.97,-148.29 679.57,-132 681.01,-131.71 682.48,-131.41 683.96,-131.11"/>
<polygon fill="midnightblue" stroke="midnightblue" points="684.75,-134.52 693.79,-128.99 683.28,-127.67 684.75,-134.52"/>
</g>
<!-- Node18&#45;&gt;Node2 -->
<g id="edge22" class="edge">
<title>Node18&#45;&gt;Node2</title>
<path fill="none" stroke="midnightblue" d="M734.35,-112.32C748.84,-103.82 771.14,-90.73 788.06,-80.8"/>
<polygon fill="midnightblue" stroke="midnightblue" points="789.97,-83.74 796.82,-75.65 786.43,-77.7 789.97,-83.74"/>
</g>
<!-- Node18&#45;&gt;Node5 -->
<g id="edge25" class="edge">
<title>Node18&#45;&gt;Node5</title>
<path fill="none" stroke="midnightblue" d="M693.91,-117.7C679.92,-115.94 662.3,-113.77 646.57,-112 502.57,-95.78 331.82,-79.07 251.57,-71.37"/>
<polygon fill="midnightblue" stroke="midnightblue" points="251.61,-67.86 241.32,-70.39 250.94,-74.83 251.61,-67.86"/>
</g>
<!-- Node18&#45;&gt;Node8 -->
<g id="edge23" class="edge">
<title>Node18&#45;&gt;Node8</title>
<path fill="none" stroke="midnightblue" d="M725.91,-112.36C735.02,-98.81 749.28,-72.41 735.57,-56 711.64,-27.36 609.79,-16.91 543.99,-13.13"/>
<polygon fill="midnightblue" stroke="midnightblue" points="543.93,-9.62 533.76,-12.58 543.55,-16.61 543.93,-9.62"/>
</g>
<!-- Node18&#45;&gt;Node17 -->
<g id="edge24" class="edge">
<title>Node18&#45;&gt;Node17</title>
<path fill="none" stroke="midnightblue" d="M698.65,-112.44C676.83,-103.52 642.42,-89.44 617.68,-79.32"/>
<polygon fill="midnightblue" stroke="midnightblue" points="618.97,-76.06 608.39,-75.52 616.32,-82.54 618.97,-76.06"/>
</g>
<!-- Node19 -->
<g id="node19" class="node">
<title>Node19</title>
<g id="a_node19"><a xlink:title=" ">
<polygon fill="white" stroke="#bfbfbf" points="638.57,-56.5 638.57,-75.5 670.57,-75.5 670.57,-56.5 638.57,-56.5"/>
<text text-anchor="middle" x="654.57" y="-63.5" font-family="Helvetica,sans-Serif" font-size="10.00">set</text>
</a>
</g>
</g>
<!-- Node18&#45;&gt;Node19 -->
<g id="edge20" class="edge">
<title>Node18&#45;&gt;Node19</title>
<path fill="none" stroke="midnightblue" d="M709.13,-112.32C699.42,-104.26 684.75,-92.08 673.07,-82.37"/>
<polygon fill="midnightblue" stroke="midnightblue" points="675.13,-79.53 665.2,-75.83 670.66,-84.92 675.13,-79.53"/>
</g>
<!-- Node20 -->
<g id="node20" class="node">
<title>Node20</title>
<g id="a_node20"><a xlink:title=" ">
<polygon fill="white" stroke="#bfbfbf" points="688.57,-56.5 688.57,-75.5 726.57,-75.5 726.57,-56.5 688.57,-56.5"/>
<text text-anchor="middle" x="707.57" y="-63.5" font-family="Helvetica,sans-Serif" font-size="10.00">map</text>
</a>
</g>
</g>
<!-- Node18&#45;&gt;Node20 -->
<g id="edge21" class="edge">
<title>Node18&#45;&gt;Node20</title>
<path fill="none" stroke="midnightblue" d="M717.59,-112.08C716,-104.93 713.71,-94.64 711.72,-85.69"/>
<polygon fill="midnightblue" stroke="midnightblue" points="715.1,-84.75 709.51,-75.75 708.27,-86.27 715.1,-84.75"/>
</g>
<!-- Node21&#45;&gt;Node2 -->
<g id="edge33" class="edge">
<title>Node21&#45;&gt;Node2</title>
<path fill="none" stroke="midnightblue" d="M617.25,-280.35C634.99,-272.58 660.07,-259.95 678.57,-244 735,-195.34 782.24,-118.87 801.84,-84.62"/>
<polygon fill="midnightblue" stroke="midnightblue" points="804.96,-86.21 806.82,-75.78 798.86,-82.77 804.96,-86.21"/>
</g>
<!-- Node21&#45;&gt;Node4 -->
<g id="edge31" class="edge">
<title>Node21&#45;&gt;Node4</title>
<path fill="none" stroke="midnightblue" d="M570.5,-284.11C525.93,-275.42 432,-257.11 372.27,-245.47"/>
<polygon fill="midnightblue" stroke="midnightblue" points="372.75,-242 362.27,-243.52 371.41,-248.87 372.75,-242"/>
</g>
<!-- Node21&#45;&gt;Node18 -->
<g id="edge32" class="edge">
<title>Node21&#45;&gt;Node18</title>
<path fill="none" stroke="midnightblue" d="M596.8,-280.44C598.97,-267.45 604.35,-242.33 615.57,-224 637.71,-187.83 675.75,-155.53 699.17,-137.66"/>
<polygon fill="midnightblue" stroke="midnightblue" points="701.45,-140.33 707.37,-131.55 697.27,-134.72 701.45,-140.33"/>
</g>
<!-- Node22 -->
<g id="node22" class="node">
<title>Node22</title>
<g id="a_node22"><a xlink:title=" ">
<polygon fill="white" stroke="#bfbfbf" points="624.07,-224.5 624.07,-243.5 669.07,-243.5 669.07,-224.5 624.07,-224.5"/>
<text text-anchor="middle" x="646.57" y="-231.5" font-family="Helvetica,sans-Serif" font-size="10.00">utility</text>
</a>
</g>
</g>
<!-- Node21&#45;&gt;Node22 -->
<g id="edge34" class="edge">
<title>Node21&#45;&gt;Node22</title>
<path fill="none" stroke="midnightblue" d="M603.99,-280.08C611.42,-272.22 622.42,-260.57 631.38,-251.08"/>
<polygon fill="midnightblue" stroke="midnightblue" points="633.98,-253.42 638.3,-243.75 628.89,-248.62 633.98,-253.42"/>
</g>
</g>
</svg>
