<?xml version="1.0" encoding="UTF-8" standalone="no"?>
<!DOCTYPE svg PUBLIC "-//W3C//DTD SVG 1.1//EN"
 "http://www.w3.org/Graphics/SVG/1.1/DTD/svg11.dtd">
<!-- Generated by graphviz version 2.43.0 (0)
 -->
<!-- Title: include/network_butcher/Network/node_traits.h Pages: 1 -->
<svg width="908pt" height="441pt"
 viewBox="0.00 0.00 907.50 441.00" xmlns="http://www.w3.org/2000/svg" xmlns:xlink="http://www.w3.org/1999/xlink">
<g id="graph0" class="graph" transform="scale(1 1) rotate(0) translate(4 437)">
<title>include/network_butcher/Network/node_traits.h</title>
<polygon fill="white" stroke="transparent" points="-4,4 -4,-437 903.5,-437 903.5,4 -4,4"/>
<!-- Node1 -->
<g id="node1" class="node">
<title>Node1</title>
<g id="a_node1"><a xlink:title=" ">
<polygon fill="#bfbfbf" stroke="black" points="506,-402.5 506,-432.5 643,-432.5 643,-402.5 506,-402.5"/>
<text text-anchor="start" x="514" y="-420.5" font-family="Helvetica,sans-Serif" font-size="10.00">include/network_butcher</text>
<text text-anchor="middle" x="574.5" y="-409.5" font-family="Helvetica,sans-Serif" font-size="10.00">/Network/node_traits.h</text>
</a>
</g>
</g>
<!-- Node2 -->
<g id="node2" class="node">
<title>Node2</title>
<g id="a_node2"><a xlink:title=" ">
<polygon fill="white" stroke="#bfbfbf" points="841.5,-73 841.5,-92 899.5,-92 899.5,-73 841.5,-73"/>
<text text-anchor="middle" x="870.5" y="-80" font-family="Helvetica,sans-Serif" font-size="10.00">memory</text>
</a>
</g>
</g>
<!-- Node1&#45;&gt;Node2 -->
<g id="edge1" class="edge">
<title>Node1&#45;&gt;Node2</title>
<path fill="none" stroke="midnightblue" d="M643.18,-402.8C737.75,-381.92 896.5,-338.8 896.5,-284.5 896.5,-284.5 896.5,-284.5 896.5,-215.5 896.5,-174.2 884.09,-126.97 876.42,-101.71"/>
<polygon fill="midnightblue" stroke="midnightblue" points="879.72,-100.53 873.38,-92.03 873.04,-102.62 879.72,-100.53"/>
</g>
<!-- Node3 -->
<g id="node3" class="node">
<title>Node3</title>
<g id="a_node3"><a xlink:href="content_8h.html" target="_top" xlink:title=" ">
<polygon fill="white" stroke="black" points="286,-335.5 286,-365.5 415,-365.5 415,-335.5 286,-335.5"/>
<text text-anchor="start" x="294" y="-353.5" font-family="Helvetica,sans-Serif" font-size="10.00">network_butcher/Types</text>
<text text-anchor="middle" x="350.5" y="-342.5" font-family="Helvetica,sans-Serif" font-size="10.00">/content.h</text>
</a>
</g>
</g>
<!-- Node1&#45;&gt;Node3 -->
<g id="edge2" class="edge">
<title>Node1&#45;&gt;Node3</title>
<path fill="none" stroke="midnightblue" d="M526.17,-402.48C491.84,-392.51 445.57,-379.09 409.13,-368.51"/>
<polygon fill="midnightblue" stroke="midnightblue" points="409.71,-365.04 399.13,-365.61 407.76,-371.76 409.71,-365.04"/>
</g>
<!-- Node5 -->
<g id="node5" class="node">
<title>Node5</title>
<g id="a_node5"><a xlink:href="type__info_8h.html" target="_top" xlink:title=" ">
<polygon fill="white" stroke="black" points="167,-67.5 167,-97.5 296,-97.5 296,-67.5 167,-67.5"/>
<text text-anchor="start" x="175" y="-85.5" font-family="Helvetica,sans-Serif" font-size="10.00">network_butcher/Types</text>
<text text-anchor="middle" x="231.5" y="-74.5" font-family="Helvetica,sans-Serif" font-size="10.00">/type_info.h</text>
</a>
</g>
</g>
<!-- Node1&#45;&gt;Node5 -->
<g id="edge35" class="edge">
<title>Node1&#45;&gt;Node5</title>
<path fill="none" stroke="midnightblue" d="M505.76,-413.57C428.18,-408.81 308.59,-396.6 276.5,-366 204.37,-297.23 217.67,-162.68 226.79,-107.74"/>
<polygon fill="midnightblue" stroke="midnightblue" points="230.29,-108.03 228.59,-97.57 223.4,-106.81 230.29,-108.03"/>
</g>
<!-- Node21 -->
<g id="node21" class="node">
<title>Node21</title>
<g id="a_node21"><a xlink:href="node_8h.html" target="_top" xlink:title=" ">
<polygon fill="white" stroke="black" points="604,-335.5 604,-365.5 747,-365.5 747,-335.5 604,-335.5"/>
<text text-anchor="start" x="612" y="-353.5" font-family="Helvetica,sans-Serif" font-size="10.00">network_butcher/Network</text>
<text text-anchor="middle" x="675.5" y="-342.5" font-family="Helvetica,sans-Serif" font-size="10.00">/node.h</text>
</a>
</g>
</g>
<!-- Node1&#45;&gt;Node21 -->
<g id="edge30" class="edge">
<title>Node1&#45;&gt;Node21</title>
<path fill="none" stroke="midnightblue" d="M596.42,-402.4C610.58,-393.28 629.21,-381.29 644.83,-371.24"/>
<polygon fill="midnightblue" stroke="midnightblue" points="647.11,-373.93 653.63,-365.58 643.32,-368.05 647.11,-373.93"/>
</g>
<!-- Node4 -->
<g id="node4" class="node">
<title>Node4</title>
<g id="a_node4"><a xlink:href="dense__tensor_8h.html" target="_top" xlink:title=" ">
<polygon fill="white" stroke="black" points="286,-268.5 286,-298.5 415,-298.5 415,-268.5 286,-268.5"/>
<text text-anchor="start" x="294" y="-286.5" font-family="Helvetica,sans-Serif" font-size="10.00">network_butcher/Types</text>
<text text-anchor="middle" x="350.5" y="-275.5" font-family="Helvetica,sans-Serif" font-size="10.00">/dense_tensor.h</text>
</a>
</g>
</g>
<!-- Node3&#45;&gt;Node4 -->
<g id="edge3" class="edge">
<title>Node3&#45;&gt;Node4</title>
<path fill="none" stroke="midnightblue" d="M350.5,-335.4C350.5,-327.64 350.5,-317.81 350.5,-308.86"/>
<polygon fill="midnightblue" stroke="midnightblue" points="354,-308.58 350.5,-298.58 347,-308.58 354,-308.58"/>
</g>
<!-- Node9 -->
<g id="node9" class="node">
<title>Node9</title>
<g id="a_node9"><a xlink:href="variant__attribute_8h.html" target="_top" xlink:title=" ">
<polygon fill="white" stroke="black" points="0,-201.5 0,-231.5 129,-231.5 129,-201.5 0,-201.5"/>
<text text-anchor="start" x="8" y="-219.5" font-family="Helvetica,sans-Serif" font-size="10.00">network_butcher/Types</text>
<text text-anchor="middle" x="64.5" y="-208.5" font-family="Helvetica,sans-Serif" font-size="10.00">/variant_attribute.h</text>
</a>
</g>
</g>
<!-- Node3&#45;&gt;Node9 -->
<g id="edge29" class="edge">
<title>Node3&#45;&gt;Node9</title>
<path fill="none" stroke="midnightblue" d="M320.16,-335.5C268.14,-311.49 161.95,-262.48 104.14,-235.8"/>
<polygon fill="midnightblue" stroke="midnightblue" points="105.5,-232.57 94.96,-231.56 102.57,-238.92 105.5,-232.57"/>
</g>
<!-- Node4&#45;&gt;Node5 -->
<g id="edge4" class="edge">
<title>Node4&#45;&gt;Node5</title>
<path fill="none" stroke="midnightblue" d="M332.69,-268.3C308.69,-248.08 266.55,-208.61 245.5,-165 236.85,-147.08 233.46,-124.66 232.17,-107.88"/>
<polygon fill="midnightblue" stroke="midnightblue" points="235.66,-107.55 231.6,-97.77 228.67,-107.95 235.66,-107.55"/>
</g>
<!-- Node7 -->
<g id="node7" class="node">
<title>Node7</title>
<g id="a_node7"><a xlink:title=" ">
<polygon fill="white" stroke="#bfbfbf" points="115,-6 115,-25 162,-25 162,-6 115,-6"/>
<text text-anchor="middle" x="138.5" y="-13" font-family="Helvetica,sans-Serif" font-size="10.00">vector</text>
</a>
</g>
</g>
<!-- Node4&#45;&gt;Node7 -->
<g id="edge28" class="edge">
<title>Node4&#45;&gt;Node7</title>
<path fill="none" stroke="midnightblue" d="M320.47,-268.34C303.09,-259.33 281.38,-246.63 264.5,-232 206.9,-182.09 190.75,-166.58 157.5,-98 147.72,-77.82 142.82,-52.34 140.48,-35.29"/>
<polygon fill="midnightblue" stroke="midnightblue" points="143.91,-34.51 139.24,-25.01 136.96,-35.35 143.91,-34.51"/>
</g>
<!-- Node4&#45;&gt;Node9 -->
<g id="edge8" class="edge">
<title>Node4&#45;&gt;Node9</title>
<path fill="none" stroke="midnightblue" d="M288.79,-268.48C244.03,-258.3 183.35,-244.51 136.39,-233.84"/>
<polygon fill="midnightblue" stroke="midnightblue" points="137.12,-230.41 126.59,-231.61 135.56,-237.24 137.12,-230.41"/>
</g>
<!-- Node11 -->
<g id="node11" class="node">
<title>Node11</title>
<g id="a_node11"><a xlink:href="utilities_8h.html" target="_top" xlink:title=" ">
<polygon fill="white" stroke="black" points="357,-207 357,-226 504,-226 504,-207 357,-207"/>
<text text-anchor="middle" x="430.5" y="-214" font-family="Helvetica,sans-Serif" font-size="10.00">network_butcher/utilities.h</text>
</a>
</g>
</g>
<!-- Node4&#45;&gt;Node11 -->
<g id="edge12" class="edge">
<title>Node4&#45;&gt;Node11</title>
<path fill="none" stroke="midnightblue" d="M362.18,-268.4C374.06,-257.6 392.31,-242.76 407.08,-231.89"/>
<polygon fill="midnightblue" stroke="midnightblue" points="409.2,-234.67 415.3,-226.01 405.13,-228.98 409.2,-234.67"/>
</g>
<!-- Node6 -->
<g id="node6" class="node">
<title>Node6</title>
<g id="a_node6"><a xlink:title=" ">
<polygon fill="white" stroke="#bfbfbf" points="11.5,-6 11.5,-25 55.5,-25 55.5,-6 11.5,-6"/>
<text text-anchor="middle" x="33.5" y="-13" font-family="Helvetica,sans-Serif" font-size="10.00">string</text>
</a>
</g>
</g>
<!-- Node5&#45;&gt;Node6 -->
<g id="edge5" class="edge">
<title>Node5&#45;&gt;Node6</title>
<path fill="none" stroke="midnightblue" d="M188.54,-67.4C151.43,-55.21 98.66,-37.89 65.26,-26.93"/>
<polygon fill="midnightblue" stroke="midnightblue" points="66.15,-23.53 55.55,-23.74 63.96,-30.18 66.15,-23.53"/>
</g>
<!-- Node5&#45;&gt;Node7 -->
<g id="edge6" class="edge">
<title>Node5&#45;&gt;Node7</title>
<path fill="none" stroke="midnightblue" d="M211.32,-67.4C195.87,-56.6 174.64,-41.76 159.08,-30.89"/>
<polygon fill="midnightblue" stroke="midnightblue" points="160.87,-27.87 150.67,-25.01 156.86,-33.6 160.87,-27.87"/>
</g>
<!-- Node8 -->
<g id="node8" class="node">
<title>Node8</title>
<g id="a_node8"><a xlink:href="starting__traits_8h.html" target="_top" xlink:title=" ">
<polygon fill="white" stroke="black" points="464.5,-0.5 464.5,-30.5 592.5,-30.5 592.5,-0.5 464.5,-0.5"/>
<text text-anchor="start" x="472.5" y="-18.5" font-family="Helvetica,sans-Serif" font-size="10.00">network_butcher/Traits</text>
<text text-anchor="middle" x="528.5" y="-7.5" font-family="Helvetica,sans-Serif" font-size="10.00">/starting_traits.h</text>
</a>
</g>
</g>
<!-- Node5&#45;&gt;Node8 -->
<g id="edge7" class="edge">
<title>Node5&#45;&gt;Node8</title>
<path fill="none" stroke="midnightblue" d="M295.58,-67.48C342.24,-57.26 405.56,-43.41 454.4,-32.72"/>
<polygon fill="midnightblue" stroke="midnightblue" points="455.26,-36.11 464.28,-30.55 453.76,-29.27 455.26,-36.11"/>
</g>
<!-- Node9&#45;&gt;Node6 -->
<g id="edge9" class="edge">
<title>Node9&#45;&gt;Node6</title>
<path fill="none" stroke="midnightblue" d="M45.3,-201.45C34.62,-192.4 22.33,-179.6 16.5,-165 -1.17,-120.77 15.24,-63.62 25.94,-34.82"/>
<polygon fill="midnightblue" stroke="midnightblue" points="29.3,-35.84 29.68,-25.26 22.78,-33.3 29.3,-35.84"/>
</g>
<!-- Node9&#45;&gt;Node7 -->
<g id="edge11" class="edge">
<title>Node9&#45;&gt;Node7</title>
<path fill="none" stroke="midnightblue" d="M57.67,-201.35C50.67,-184.85 41.8,-156.91 49.5,-134 63.66,-91.84 99.62,-52.77 121.24,-32.02"/>
<polygon fill="midnightblue" stroke="midnightblue" points="123.84,-34.39 128.76,-25 119.06,-29.27 123.84,-34.39"/>
</g>
<!-- Node10 -->
<g id="node10" class="node">
<title>Node10</title>
<g id="a_node10"><a xlink:title=" ">
<polygon fill="white" stroke="#bfbfbf" points="59,-140 59,-159 110,-159 110,-140 59,-140"/>
<text text-anchor="middle" x="84.5" y="-147" font-family="Helvetica,sans-Serif" font-size="10.00">variant</text>
</a>
</g>
</g>
<!-- Node9&#45;&gt;Node10 -->
<g id="edge10" class="edge">
<title>Node9&#45;&gt;Node10</title>
<path fill="none" stroke="midnightblue" d="M68.84,-201.4C71.77,-191.86 75.67,-179.18 78.85,-168.86"/>
<polygon fill="midnightblue" stroke="midnightblue" points="82.23,-169.78 81.82,-159.19 75.54,-167.72 82.23,-169.78"/>
</g>
<!-- Node11&#45;&gt;Node4 -->
<g id="edge26" class="edge">
<title>Node11&#45;&gt;Node4</title>
<path fill="none" stroke="midnightblue" d="M424.57,-226.19C415.2,-235.39 397.47,-250.21 381.61,-262.34"/>
<polygon fill="midnightblue" stroke="midnightblue" points="379.44,-259.6 373.54,-268.4 383.64,-265.19 379.44,-259.6"/>
</g>
<!-- Node11&#45;&gt;Node5 -->
<g id="edge27" class="edge">
<title>Node11&#45;&gt;Node5</title>
<path fill="none" stroke="midnightblue" d="M365.07,-206.92C333.81,-199.99 297.61,-187.49 271.5,-165 254.05,-149.97 243.49,-125.54 237.64,-107.34"/>
<polygon fill="midnightblue" stroke="midnightblue" points="240.98,-106.32 234.79,-97.72 234.27,-108.3 240.98,-106.32"/>
</g>
<!-- Node12 -->
<g id="node12" class="node">
<title>Node12</title>
<g id="a_node12"><a xlink:title=" ">
<polygon fill="white" stroke="#bfbfbf" points="280.5,-140 280.5,-159 344.5,-159 344.5,-140 280.5,-140"/>
<text text-anchor="middle" x="312.5" y="-147" font-family="Helvetica,sans-Serif" font-size="10.00">algorithm</text>
</a>
</g>
</g>
<!-- Node11&#45;&gt;Node12 -->
<g id="edge13" class="edge">
<title>Node11&#45;&gt;Node12</title>
<path fill="none" stroke="midnightblue" d="M414.59,-206.73C394.68,-195.77 360.39,-176.88 337.1,-164.05"/>
<polygon fill="midnightblue" stroke="midnightblue" points="338.61,-160.89 328.16,-159.13 335.23,-167.02 338.61,-160.89"/>
</g>
<!-- Node13 -->
<g id="node13" class="node">
<title>Node13</title>
<g id="a_node13"><a xlink:title=" ">
<polygon fill="white" stroke="#bfbfbf" points="362.5,-140 362.5,-159 418.5,-159 418.5,-140 362.5,-140"/>
<text text-anchor="middle" x="390.5" y="-147" font-family="Helvetica,sans-Serif" font-size="10.00">numeric</text>
</a>
</g>
</g>
<!-- Node11&#45;&gt;Node13 -->
<g id="edge14" class="edge">
<title>Node11&#45;&gt;Node13</title>
<path fill="none" stroke="midnightblue" d="M425.11,-206.73C418.99,-196.79 408.86,-180.34 401.14,-167.79"/>
<polygon fill="midnightblue" stroke="midnightblue" points="404.03,-165.81 395.81,-159.13 398.07,-169.48 404.03,-165.81"/>
</g>
<!-- Node14 -->
<g id="node14" class="node">
<title>Node14</title>
<g id="a_node14"><a xlink:title=" ">
<polygon fill="white" stroke="#bfbfbf" points="436.5,-140 436.5,-159 504.5,-159 504.5,-140 436.5,-140"/>
<text text-anchor="middle" x="470.5" y="-147" font-family="Helvetica,sans-Serif" font-size="10.00">filesystem</text>
</a>
</g>
</g>
<!-- Node11&#45;&gt;Node14 -->
<g id="edge15" class="edge">
<title>Node11&#45;&gt;Node14</title>
<path fill="none" stroke="midnightblue" d="M435.89,-206.73C442.01,-196.79 452.14,-180.34 459.86,-167.79"/>
<polygon fill="midnightblue" stroke="midnightblue" points="462.93,-169.48 465.19,-159.13 456.97,-165.81 462.93,-169.48"/>
</g>
<!-- Node15 -->
<g id="node15" class="node">
<title>Node15</title>
<g id="a_node15"><a xlink:title=" ">
<polygon fill="white" stroke="#bfbfbf" points="523,-140 523,-159 578,-159 578,-140 523,-140"/>
<text text-anchor="middle" x="550.5" y="-147" font-family="Helvetica,sans-Serif" font-size="10.00">fstream</text>
</a>
</g>
</g>
<!-- Node11&#45;&gt;Node15 -->
<g id="edge16" class="edge">
<title>Node11&#45;&gt;Node15</title>
<path fill="none" stroke="midnightblue" d="M446.68,-206.73C466.93,-195.77 501.8,-176.88 525.49,-164.05"/>
<polygon fill="midnightblue" stroke="midnightblue" points="527.45,-166.97 534.57,-159.13 524.11,-160.81 527.45,-166.97"/>
</g>
<!-- Node16 -->
<g id="node16" class="node">
<title>Node16</title>
<g id="a_node16"><a xlink:title=" ">
<polygon fill="white" stroke="#bfbfbf" points="596.5,-140 596.5,-159 646.5,-159 646.5,-140 596.5,-140"/>
<text text-anchor="middle" x="621.5" y="-147" font-family="Helvetica,sans-Serif" font-size="10.00">ranges</text>
</a>
</g>
</g>
<!-- Node11&#45;&gt;Node16 -->
<g id="edge17" class="edge">
<title>Node11&#45;&gt;Node16</title>
<path fill="none" stroke="midnightblue" d="M459.71,-206.98C491.45,-197.52 543.51,-181.42 587.5,-165 589.15,-164.38 590.84,-163.73 592.54,-163.06"/>
<polygon fill="midnightblue" stroke="midnightblue" points="594.28,-166.13 602.21,-159.09 591.63,-159.65 594.28,-166.13"/>
</g>
<!-- Node17 -->
<g id="node17" class="node">
<title>Node17</title>
<g id="a_node17"><a xlink:title=" ">
<polygon fill="white" stroke="#bfbfbf" points="554,-67.5 554,-97.5 679,-97.5 679,-67.5 554,-67.5"/>
<text text-anchor="start" x="562" y="-85.5" font-family="Helvetica,sans-Serif" font-size="10.00">network_butcher/onnx</text>
<text text-anchor="middle" x="616.5" y="-74.5" font-family="Helvetica,sans-Serif" font-size="10.00">_proto/onnx.pb.h</text>
</a>
</g>
</g>
<!-- Node11&#45;&gt;Node17 -->
<g id="edge18" class="edge">
<title>Node11&#45;&gt;Node17</title>
<path fill="none" stroke="midnightblue" d="M504.05,-208.82C562.22,-201.84 636.67,-188.52 655.5,-165 670.04,-146.84 654.65,-122.37 639.12,-105"/>
<polygon fill="midnightblue" stroke="midnightblue" points="641.5,-102.42 632.09,-97.56 636.42,-107.23 641.5,-102.42"/>
</g>
<!-- Node18 -->
<g id="node18" class="node">
<title>Node18</title>
<g id="a_node18"><a xlink:href="traits_8h.html" target="_top" xlink:title=" ">
<polygon fill="white" stroke="black" points="702.5,-134.5 702.5,-164.5 830.5,-164.5 830.5,-134.5 702.5,-134.5"/>
<text text-anchor="start" x="710.5" y="-152.5" font-family="Helvetica,sans-Serif" font-size="10.00">network_butcher/Traits</text>
<text text-anchor="middle" x="766.5" y="-141.5" font-family="Helvetica,sans-Serif" font-size="10.00">/traits.h</text>
</a>
</g>
</g>
<!-- Node11&#45;&gt;Node18 -->
<g id="edge19" class="edge">
<title>Node11&#45;&gt;Node18</title>
<path fill="none" stroke="midnightblue" d="M474.77,-206.94C530.11,-196.23 625.65,-177.75 692.26,-164.86"/>
<polygon fill="midnightblue" stroke="midnightblue" points="693.13,-168.26 702.28,-162.92 691.8,-161.39 693.13,-168.26"/>
</g>
<!-- Node18&#45;&gt;Node2 -->
<g id="edge22" class="edge">
<title>Node18&#45;&gt;Node2</title>
<path fill="none" stroke="midnightblue" d="M789.07,-134.4C806.51,-123.5 830.53,-108.48 847.97,-97.58"/>
<polygon fill="midnightblue" stroke="midnightblue" points="850.26,-100.28 856.89,-92.01 846.55,-94.34 850.26,-100.28"/>
</g>
<!-- Node18&#45;&gt;Node5 -->
<g id="edge24" class="edge">
<title>Node18&#45;&gt;Node5</title>
<path fill="none" stroke="midnightblue" d="M702.24,-139.98C686.93,-137.98 670.64,-135.89 655.5,-134 533.21,-118.73 390.95,-102 306.22,-92.14"/>
<polygon fill="midnightblue" stroke="midnightblue" points="306.51,-88.65 296.18,-90.97 305.71,-95.6 306.51,-88.65"/>
</g>
<!-- Node18&#45;&gt;Node8 -->
<g id="edge23" class="edge">
<title>Node18&#45;&gt;Node8</title>
<path fill="none" stroke="midnightblue" d="M778.87,-134.34C792.63,-116.8 810.91,-86.82 794.5,-67 770.53,-38.06 672.75,-25.57 602.7,-20.27"/>
<polygon fill="midnightblue" stroke="midnightblue" points="602.8,-16.77 592.57,-19.54 602.3,-23.75 602.8,-16.77"/>
</g>
<!-- Node18&#45;&gt;Node17 -->
<g id="edge25" class="edge">
<title>Node18&#45;&gt;Node17</title>
<path fill="none" stroke="midnightblue" d="M733.95,-134.4C711.74,-124.77 682.12,-111.94 658.19,-101.56"/>
<polygon fill="midnightblue" stroke="midnightblue" points="659.55,-98.34 648.98,-97.58 656.77,-104.76 659.55,-98.34"/>
</g>
<!-- Node19 -->
<g id="node19" class="node">
<title>Node19</title>
<g id="a_node19"><a xlink:title=" ">
<polygon fill="white" stroke="#bfbfbf" points="697.5,-73 697.5,-92 729.5,-92 729.5,-73 697.5,-73"/>
<text text-anchor="middle" x="713.5" y="-80" font-family="Helvetica,sans-Serif" font-size="10.00">set</text>
</a>
</g>
</g>
<!-- Node18&#45;&gt;Node19 -->
<g id="edge20" class="edge">
<title>Node18&#45;&gt;Node19</title>
<path fill="none" stroke="midnightblue" d="M755,-134.4C746.82,-124.36 735.79,-110.84 727.16,-100.25"/>
<polygon fill="midnightblue" stroke="midnightblue" points="729.62,-97.73 720.59,-92.19 724.2,-102.16 729.62,-97.73"/>
</g>
<!-- Node20 -->
<g id="node20" class="node">
<title>Node20</title>
<g id="a_node20"><a xlink:title=" ">
<polygon fill="white" stroke="#bfbfbf" points="747.5,-73 747.5,-92 785.5,-92 785.5,-73 747.5,-73"/>
<text text-anchor="middle" x="766.5" y="-80" font-family="Helvetica,sans-Serif" font-size="10.00">map</text>
</a>
</g>
</g>
<!-- Node18&#45;&gt;Node20 -->
<g id="edge21" class="edge">
<title>Node18&#45;&gt;Node20</title>
<path fill="none" stroke="midnightblue" d="M766.5,-134.4C766.5,-125.06 766.5,-112.71 766.5,-102.52"/>
<polygon fill="midnightblue" stroke="midnightblue" points="770,-102.19 766.5,-92.19 763,-102.19 770,-102.19"/>
</g>
<!-- Node21&#45;&gt;Node2 -->
<g id="edge33" class="edge">
<title>Node21&#45;&gt;Node2</title>
<path fill="none" stroke="midnightblue" d="M706.36,-335.3C723.15,-326.52 743.49,-314.05 758.5,-299 817.82,-239.5 852.65,-142.06 865.18,-101.79"/>
<polygon fill="midnightblue" stroke="midnightblue" points="868.58,-102.62 868.12,-92.03 861.88,-100.6 868.58,-102.62"/>
</g>
<!-- Node21&#45;&gt;Node4 -->
<g id="edge31" class="edge">
<title>Node21&#45;&gt;Node4</title>
<path fill="none" stroke="midnightblue" d="M605.38,-335.48C552.24,-324.85 479.36,-310.27 425.14,-299.43"/>
<polygon fill="midnightblue" stroke="midnightblue" points="425.74,-295.98 415.25,-297.45 424.37,-302.84 425.74,-295.98"/>
</g>
<!-- Node21&#45;&gt;Node18 -->
<g id="edge32" class="edge">
<title>Node21&#45;&gt;Node18</title>
<path fill="none" stroke="midnightblue" d="M677.65,-335.25C680.46,-318.65 686.15,-290.62 695.5,-268 710.05,-232.81 734.1,-195.77 750.12,-172.9"/>
<polygon fill="midnightblue" stroke="midnightblue" points="753.09,-174.76 756.03,-164.58 747.39,-170.7 753.09,-174.76"/>
</g>
<!-- Node22 -->
<g id="node22" class="node">
<title>Node22</title>
<g id="a_node22"><a xlink:title=" ">
<polygon fill="white" stroke="#bfbfbf" points="704,-274 704,-293 749,-293 749,-274 704,-274"/>
<text text-anchor="middle" x="726.5" y="-281" font-family="Helvetica,sans-Serif" font-size="10.00">utility</text>
</a>
</g>
</g>
<!-- Node21&#45;&gt;Node22 -->
<g id="edge34" class="edge">
<title>Node21&#45;&gt;Node22</title>
<path fill="none" stroke="midnightblue" d="M686.57,-335.4C694.44,-325.36 705.05,-311.84 713.35,-301.25"/>
<polygon fill="midnightblue" stroke="midnightblue" points="716.26,-303.22 719.68,-293.19 710.75,-298.9 716.26,-303.22"/>
</g>
</g>
</svg>
