<?xml version="1.0" encoding="UTF-8" standalone="no"?>
<!DOCTYPE svg PUBLIC "-//W3C//DTD SVG 1.1//EN"
 "http://www.w3.org/Graphics/SVG/1.1/DTD/svg11.dtd">
<!-- Generated by graphviz version 2.43.0 (0)
 -->
<!-- Title: include/network_butcher/IO_Interaction/onnx_model_reconstructor_helpers.h Pages: 1 -->
<svg width="409pt" height="262pt"
 viewBox="0.00 0.00 409.00 262.00" xmlns="http://www.w3.org/2000/svg" xmlns:xlink="http://www.w3.org/1999/xlink">
<g id="graph0" class="graph" transform="scale(1 1) rotate(0) translate(4 258)">
<title>include/network_butcher/IO_Interaction/onnx_model_reconstructor_helpers.h</title>
<polygon fill="white" stroke="transparent" points="-4,4 -4,-258 405,-258 405,4 -4,4"/>
<!-- Node1 -->
<g id="node1" class="node">
<title>Node1</title>
<g id="a_node1"><a xlink:title=" ">
<polygon fill="#bfbfbf" stroke="black" points="170,-212.5 170,-253.5 321,-253.5 321,-212.5 170,-212.5"/>
<text text-anchor="start" x="178" y="-241.5" font-family="Helvetica,sans-Serif" font-size="10.00">include/network_butcher</text>
<text text-anchor="start" x="178" y="-230.5" font-family="Helvetica,sans-Serif" font-size="10.00">/IO_Interaction/onnx_model</text>
<text text-anchor="middle" x="245.5" y="-219.5" font-family="Helvetica,sans-Serif" font-size="10.00">_reconstructor_helpers.h</text>
</a>
</g>
</g>
<!-- Node2 -->
<g id="node2" class="node">
<title>Node2</title>
<g id="a_node2"><a xlink:href="io__manager_8h.html" target="_top" xlink:title=" ">
<polygon fill="white" stroke="black" points="97,-140 97,-170 234,-170 234,-140 97,-140"/>
<text text-anchor="start" x="105" y="-158" font-family="Helvetica,sans-Serif" font-size="10.00">include/network_butcher</text>
<text text-anchor="middle" x="165.5" y="-147" font-family="Helvetica,sans-Serif" font-size="10.00">/io_manager.h</text>
</a>
</g>
</g>
<!-- Node1&#45;&gt;Node2 -->
<g id="edge1" class="edge">
<title>Node1&#45;&gt;Node2</title>
<path fill="none" stroke="midnightblue" d="M217.42,-205.32C204.98,-193.51 190.85,-180.08 180.47,-170.23"/>
<polygon fill="midnightblue" stroke="midnightblue" points="215.24,-208.08 224.9,-212.43 220.06,-203 215.24,-208.08"/>
</g>
<!-- Node7 -->
<g id="node7" class="node">
<title>Node7</title>
<g id="a_node7"><a xlink:href="onnx__model__reconstructor__helpers_8cpp.html" target="_top" xlink:title=" ">
<polygon fill="white" stroke="black" points="252,-134.5 252,-175.5 401,-175.5 401,-134.5 252,-134.5"/>
<text text-anchor="start" x="260" y="-163.5" font-family="Helvetica,sans-Serif" font-size="10.00">src/IO_Interaction</text>
<text text-anchor="start" x="260" y="-152.5" font-family="Helvetica,sans-Serif" font-size="10.00">/onnx_model_reconstructor</text>
<text text-anchor="middle" x="326.5" y="-141.5" font-family="Helvetica,sans-Serif" font-size="10.00">_helpers.cpp</text>
</a>
</g>
</g>
<!-- Node1&#45;&gt;Node7 -->
<g id="edge7" class="edge">
<title>Node1&#45;&gt;Node7</title>
<path fill="none" stroke="midnightblue" d="M273.75,-205.49C284.26,-195.63 295.99,-184.63 305.71,-175.51"/>
<polygon fill="midnightblue" stroke="midnightblue" points="271.26,-203.03 266.36,-212.43 276.05,-208.14 271.26,-203.03"/>
</g>
<!-- Node3 -->
<g id="node3" class="node">
<title>Node3</title>
<g id="a_node3"><a xlink:href="general__manager_8h.html" target="_top" xlink:title=" ">
<polygon fill="white" stroke="black" points="97,-67.5 97,-97.5 234,-97.5 234,-67.5 97,-67.5"/>
<text text-anchor="start" x="105" y="-85.5" font-family="Helvetica,sans-Serif" font-size="10.00">include/network_butcher</text>
<text text-anchor="middle" x="165.5" y="-74.5" font-family="Helvetica,sans-Serif" font-size="10.00">/general_manager.h</text>
</a>
</g>
</g>
<!-- Node2&#45;&gt;Node3 -->
<g id="edge2" class="edge">
<title>Node2&#45;&gt;Node3</title>
<path fill="none" stroke="midnightblue" d="M165.5,-129.73C165.5,-119.07 165.5,-106.91 165.5,-97.75"/>
<polygon fill="midnightblue" stroke="midnightblue" points="162,-129.73 165.5,-139.73 169,-129.73 162,-129.73"/>
</g>
<!-- Node4 -->
<g id="node4" class="node">
<title>Node4</title>
<g id="a_node4"><a xlink:href="network__butcher_8h.html" target="_top" xlink:title=" ">
<polygon fill="white" stroke="black" points="0,-0.5 0,-30.5 137,-30.5 137,-0.5 0,-0.5"/>
<text text-anchor="start" x="8" y="-18.5" font-family="Helvetica,sans-Serif" font-size="10.00">include/network_butcher</text>
<text text-anchor="middle" x="68.5" y="-7.5" font-family="Helvetica,sans-Serif" font-size="10.00">/network_butcher.h</text>
</a>
</g>
</g>
<!-- Node2&#45;&gt;Node4 -->
<g id="edge5" class="edge">
<title>Node2&#45;&gt;Node4</title>
<path fill="none" stroke="midnightblue" d="M127.65,-134.63C113.08,-125.39 97.54,-113.04 87.5,-98 73.71,-77.34 69.86,-47.91 68.83,-30.65"/>
<polygon fill="midnightblue" stroke="midnightblue" points="126.17,-137.82 136.54,-139.98 129.78,-131.82 126.17,-137.82"/>
</g>
<!-- Node6 -->
<g id="node6" class="node">
<title>Node6</title>
<g id="a_node6"><a xlink:href="io__manager_8cpp.html" target="_top" xlink:title=" ">
<polygon fill="white" stroke="black" points="252,-73 252,-92 363,-92 363,-73 252,-73"/>
<text text-anchor="middle" x="307.5" y="-80" font-family="Helvetica,sans-Serif" font-size="10.00">src/io_manager.cpp</text>
</a>
</g>
</g>
<!-- Node2&#45;&gt;Node6 -->
<g id="edge6" class="edge">
<title>Node2&#45;&gt;Node6</title>
<path fill="none" stroke="midnightblue" d="M203.1,-135.33C231.37,-121.29 268.81,-102.71 290.31,-92.03"/>
<polygon fill="midnightblue" stroke="midnightblue" points="201.29,-132.32 193.89,-139.9 204.41,-138.59 201.29,-132.32"/>
</g>
<!-- Node3&#45;&gt;Node4 -->
<g id="edge3" class="edge">
<title>Node3&#45;&gt;Node4</title>
<path fill="none" stroke="midnightblue" d="M136,-61.73C120.99,-51.68 103.1,-39.68 89.51,-30.58"/>
<polygon fill="midnightblue" stroke="midnightblue" points="134.2,-64.74 144.45,-67.4 138.09,-58.92 134.2,-64.74"/>
</g>
<!-- Node5 -->
<g id="node5" class="node">
<title>Node5</title>
<g id="a_node5"><a xlink:href="general__manager_8cpp.html" target="_top" xlink:title=" ">
<polygon fill="white" stroke="black" points="155,-6 155,-25 294,-25 294,-6 155,-6"/>
<text text-anchor="middle" x="224.5" y="-13" font-family="Helvetica,sans-Serif" font-size="10.00">src/general_manager.cpp</text>
</a>
</g>
</g>
<!-- Node3&#45;&gt;Node5 -->
<g id="edge4" class="edge">
<title>Node3&#45;&gt;Node5</title>
<path fill="none" stroke="midnightblue" d="M185.33,-59.66C196.03,-47.86 208.65,-33.97 216.61,-25.19"/>
<polygon fill="midnightblue" stroke="midnightblue" points="182.43,-57.64 178.3,-67.4 187.61,-62.34 182.43,-57.64"/>
</g>
</g>
</svg>
