<?xml version="1.0" encoding="UTF-8" standalone="no"?>
<!DOCTYPE svg PUBLIC "-//W3C//DTD SVG 1.1//EN"
 "http://www.w3.org/Graphics/SVG/1.1/DTD/svg11.dtd">
<!-- Generated by graphviz version 2.43.0 (0)
 -->
<!-- Title: include/network_butcher/Types/paths.h Pages: 1 -->
<svg width="527pt" height="463pt"
 viewBox="0.00 0.00 527.00 463.00" xmlns="http://www.w3.org/2000/svg" xmlns:xlink="http://www.w3.org/1999/xlink">
<g id="graph0" class="graph" transform="scale(1 1) rotate(0) translate(4 459)">
<title>include/network_butcher/Types/paths.h</title>
<polygon fill="white" stroke="transparent" points="-4,4 -4,-459 523,-459 523,4 -4,4"/>
<!-- Node1 -->
<g id="node1" class="node">
<title>Node1</title>
<g id="a_node1"><a xlink:title=" ">
<polygon fill="#bfbfbf" stroke="black" points="329.5,-424.5 329.5,-454.5 466.5,-454.5 466.5,-424.5 329.5,-424.5"/>
<text text-anchor="start" x="337.5" y="-442.5" font-family="Helvetica,sans-Serif" font-size="10.00">include/network_butcher</text>
<text text-anchor="middle" x="398" y="-431.5" font-family="Helvetica,sans-Serif" font-size="10.00">/Types/paths.h</text>
</a>
</g>
</g>
<!-- Node2 -->
<g id="node2" class="node">
<title>Node2</title>
<g id="a_node2"><a xlink:href="butcher_8h.html" target="_top" xlink:title=" ">
<polygon fill="white" stroke="black" points="329.5,-290.5 329.5,-320.5 466.5,-320.5 466.5,-290.5 329.5,-290.5"/>
<text text-anchor="start" x="337.5" y="-308.5" font-family="Helvetica,sans-Serif" font-size="10.00">include/network_butcher</text>
<text text-anchor="middle" x="398" y="-297.5" font-family="Helvetica,sans-Serif" font-size="10.00">/Butcher/butcher.h</text>
</a>
</g>
</g>
<!-- Node1&#45;&gt;Node2 -->
<g id="edge1" class="edge">
<title>Node1&#45;&gt;Node2</title>
<path fill="none" stroke="midnightblue" d="M381.15,-416.02C375.86,-407.67 370.7,-397.82 368,-388 364.35,-374.71 364.35,-370.29 368,-357 371.67,-343.63 379.91,-330.21 386.83,-320.57"/>
<polygon fill="midnightblue" stroke="midnightblue" points="378.33,-418.1 386.83,-424.43 384.13,-414.18 378.33,-418.1"/>
</g>
<!-- Node12 -->
<g id="node12" class="node">
<title>Node12</title>
<g id="a_node12"><a xlink:href="path__converter_8h.html" target="_top" xlink:title=" ">
<polygon fill="white" stroke="black" points="377,-357.5 377,-387.5 519,-387.5 519,-357.5 377,-357.5"/>
<text text-anchor="start" x="385" y="-375.5" font-family="Helvetica,sans-Serif" font-size="10.00">include/network_butcher</text>
<text text-anchor="middle" x="448" y="-364.5" font-family="Helvetica,sans-Serif" font-size="10.00">/Butcher/path_converter.h</text>
</a>
</g>
</g>
<!-- Node1&#45;&gt;Node12 -->
<g id="edge14" class="edge">
<title>Node1&#45;&gt;Node12</title>
<path fill="none" stroke="midnightblue" d="M414.96,-416.45C422.31,-406.9 430.69,-396 437.17,-387.58"/>
<polygon fill="midnightblue" stroke="midnightblue" points="412.17,-414.34 408.85,-424.4 417.72,-418.6 412.17,-414.34"/>
</g>
<!-- Node3 -->
<g id="node3" class="node">
<title>Node3</title>
<g id="a_node3"><a xlink:href="onnx__importer__helpers_8h.html" target="_top" xlink:title=" ">
<polygon fill="white" stroke="black" points="142,-212.5 142,-253.5 304,-253.5 304,-212.5 142,-212.5"/>
<text text-anchor="start" x="150" y="-241.5" font-family="Helvetica,sans-Serif" font-size="10.00">include/network_butcher</text>
<text text-anchor="start" x="150" y="-230.5" font-family="Helvetica,sans-Serif" font-size="10.00">/IO_Interaction/onnx_importer</text>
<text text-anchor="middle" x="223" y="-219.5" font-family="Helvetica,sans-Serif" font-size="10.00">_helpers.h</text>
</a>
</g>
</g>
<!-- Node2&#45;&gt;Node3 -->
<g id="edge2" class="edge">
<title>Node2&#45;&gt;Node3</title>
<path fill="none" stroke="midnightblue" d="M353.4,-286.53C328.38,-276.45 297.15,-263.87 271.52,-253.55"/>
<polygon fill="midnightblue" stroke="midnightblue" points="352.42,-289.91 363.01,-290.4 355.04,-283.42 352.42,-289.91"/>
</g>
<!-- Node6 -->
<g id="node6" class="node">
<title>Node6</title>
<g id="a_node6"><a xlink:href="network__butcher_8h.html" target="_top" xlink:title=" ">
<polygon fill="white" stroke="black" points="325.5,-0.5 325.5,-30.5 462.5,-30.5 462.5,-0.5 325.5,-0.5"/>
<text text-anchor="start" x="333.5" y="-18.5" font-family="Helvetica,sans-Serif" font-size="10.00">include/network_butcher</text>
<text text-anchor="middle" x="394" y="-7.5" font-family="Helvetica,sans-Serif" font-size="10.00">/network_butcher.h</text>
</a>
</g>
</g>
<!-- Node2&#45;&gt;Node6 -->
<g id="edge13" class="edge">
<title>Node2&#45;&gt;Node6</title>
<path fill="none" stroke="midnightblue" d="M447.35,-285.77C460.97,-278.07 474.15,-267.68 482,-254 508.55,-207.75 499.99,-184.56 483,-134 468.49,-90.82 431.13,-50.88 409.71,-30.55"/>
<polygon fill="midnightblue" stroke="midnightblue" points="445.64,-282.71 438.39,-290.44 448.87,-288.92 445.64,-282.71"/>
</g>
<!-- Node10 -->
<g id="node10" class="node">
<title>Node10</title>
<g id="a_node10"><a xlink:href="onnx__model__reconstructor__helpers_8h.html" target="_top" xlink:title=" ">
<polygon fill="white" stroke="black" points="322.5,-212.5 322.5,-253.5 473.5,-253.5 473.5,-212.5 322.5,-212.5"/>
<text text-anchor="start" x="330.5" y="-241.5" font-family="Helvetica,sans-Serif" font-size="10.00">include/network_butcher</text>
<text text-anchor="start" x="330.5" y="-230.5" font-family="Helvetica,sans-Serif" font-size="10.00">/IO_Interaction/onnx_model</text>
<text text-anchor="middle" x="398" y="-219.5" font-family="Helvetica,sans-Serif" font-size="10.00">_reconstructor_helpers.h</text>
</a>
</g>
</g>
<!-- Node2&#45;&gt;Node10 -->
<g id="edge10" class="edge">
<title>Node2&#45;&gt;Node10</title>
<path fill="none" stroke="midnightblue" d="M398,-279.98C398,-271.35 398,-261.76 398,-253.59"/>
<polygon fill="midnightblue" stroke="midnightblue" points="394.5,-280.23 398,-290.23 401.5,-280.23 394.5,-280.23"/>
</g>
<!-- Node4 -->
<g id="node4" class="node">
<title>Node4</title>
<g id="a_node4"><a xlink:href="io__manager_8h.html" target="_top" xlink:title=" ">
<polygon fill="white" stroke="black" points="170.5,-140 170.5,-170 307.5,-170 307.5,-140 170.5,-140"/>
<text text-anchor="start" x="178.5" y="-158" font-family="Helvetica,sans-Serif" font-size="10.00">include/network_butcher</text>
<text text-anchor="middle" x="239" y="-147" font-family="Helvetica,sans-Serif" font-size="10.00">/io_manager.h</text>
</a>
</g>
</g>
<!-- Node3&#45;&gt;Node4 -->
<g id="edge3" class="edge">
<title>Node3&#45;&gt;Node4</title>
<path fill="none" stroke="midnightblue" d="M229.18,-202.62C231.53,-191.5 234.09,-179.34 236.01,-170.23"/>
<polygon fill="midnightblue" stroke="midnightblue" points="225.76,-201.92 227.12,-212.43 232.61,-203.36 225.76,-201.92"/>
</g>
<!-- Node9 -->
<g id="node9" class="node">
<title>Node9</title>
<g id="a_node9"><a xlink:href="onnx__importer__helpers_8cpp.html" target="_top" xlink:title=" ">
<polygon fill="white" stroke="black" points="0,-140 0,-170 152,-170 152,-140 0,-140"/>
<text text-anchor="start" x="8" y="-158" font-family="Helvetica,sans-Serif" font-size="10.00">src/IO_Interaction</text>
<text text-anchor="middle" x="76" y="-147" font-family="Helvetica,sans-Serif" font-size="10.00">/onnx_importer_helpers.cpp</text>
</a>
</g>
</g>
<!-- Node3&#45;&gt;Node9 -->
<g id="edge9" class="edge">
<title>Node3&#45;&gt;Node9</title>
<path fill="none" stroke="midnightblue" d="M176.21,-207.81C152.26,-195.43 123.93,-180.78 103.51,-170.23"/>
<polygon fill="midnightblue" stroke="midnightblue" points="174.65,-210.94 185.14,-212.43 177.87,-204.73 174.65,-210.94"/>
</g>
<!-- Node5 -->
<g id="node5" class="node">
<title>Node5</title>
<g id="a_node5"><a xlink:href="general__manager_8h.html" target="_top" xlink:title=" ">
<polygon fill="white" stroke="black" points="99.5,-67.5 99.5,-97.5 236.5,-97.5 236.5,-67.5 99.5,-67.5"/>
<text text-anchor="start" x="107.5" y="-85.5" font-family="Helvetica,sans-Serif" font-size="10.00">include/network_butcher</text>
<text text-anchor="middle" x="168" y="-74.5" font-family="Helvetica,sans-Serif" font-size="10.00">/general_manager.h</text>
</a>
</g>
</g>
<!-- Node4&#45;&gt;Node5 -->
<g id="edge4" class="edge">
<title>Node4&#45;&gt;Node5</title>
<path fill="none" stroke="midnightblue" d="M217.21,-132.36C205.88,-121.11 192.35,-107.68 182.35,-97.75"/>
<polygon fill="midnightblue" stroke="midnightblue" points="215.07,-135.17 224.63,-139.73 220,-130.2 215.07,-135.17"/>
</g>
<!-- Node4&#45;&gt;Node6 -->
<g id="edge7" class="edge">
<title>Node4&#45;&gt;Node6</title>
<path fill="none" stroke="midnightblue" d="M294.78,-136.56C326.88,-125.47 362.99,-110.83 374,-98 390.41,-78.87 393.78,-48.38 394.23,-30.61"/>
<polygon fill="midnightblue" stroke="midnightblue" points="293.32,-133.36 284.98,-139.89 295.57,-139.99 293.32,-133.36"/>
</g>
<!-- Node8 -->
<g id="node8" class="node">
<title>Node8</title>
<g id="a_node8"><a xlink:href="io__manager_8cpp.html" target="_top" xlink:title=" ">
<polygon fill="white" stroke="black" points="254.5,-73 254.5,-92 365.5,-92 365.5,-73 254.5,-73"/>
<text text-anchor="middle" x="310" y="-80" font-family="Helvetica,sans-Serif" font-size="10.00">src/io_manager.cpp</text>
</a>
</g>
</g>
<!-- Node4&#45;&gt;Node8 -->
<g id="edge8" class="edge">
<title>Node4&#45;&gt;Node8</title>
<path fill="none" stroke="midnightblue" d="M260.51,-132.64C274.09,-119.15 290.92,-102.44 301.04,-92.39"/>
<polygon fill="midnightblue" stroke="midnightblue" points="258,-130.2 253.37,-139.73 262.93,-135.17 258,-130.2"/>
</g>
<!-- Node5&#45;&gt;Node6 -->
<g id="edge5" class="edge">
<title>Node5&#45;&gt;Node6</title>
<path fill="none" stroke="midnightblue" d="M226.83,-64.58C263.54,-54.02 310.23,-40.59 344.94,-30.61"/>
<polygon fill="midnightblue" stroke="midnightblue" points="225.4,-61.35 216.76,-67.48 227.34,-68.08 225.4,-61.35"/>
</g>
<!-- Node7 -->
<g id="node7" class="node">
<title>Node7</title>
<g id="a_node7"><a xlink:href="general__manager_8cpp.html" target="_top" xlink:title=" ">
<polygon fill="white" stroke="black" points="98.5,-6 98.5,-25 237.5,-25 237.5,-6 98.5,-6"/>
<text text-anchor="middle" x="168" y="-13" font-family="Helvetica,sans-Serif" font-size="10.00">src/general_manager.cpp</text>
</a>
</g>
</g>
<!-- Node5&#45;&gt;Node7 -->
<g id="edge6" class="edge">
<title>Node5&#45;&gt;Node7</title>
<path fill="none" stroke="midnightblue" d="M168,-57.25C168,-46.02 168,-33.38 168,-25.19"/>
<polygon fill="midnightblue" stroke="midnightblue" points="164.5,-57.4 168,-67.4 171.5,-57.4 164.5,-57.4"/>
</g>
<!-- Node10&#45;&gt;Node4 -->
<g id="edge11" class="edge">
<title>Node10&#45;&gt;Node4</title>
<path fill="none" stroke="midnightblue" d="M347.73,-207.97C321.75,-195.55 290.94,-180.83 268.76,-170.23"/>
<polygon fill="midnightblue" stroke="midnightblue" points="346.52,-211.27 357.05,-212.43 349.54,-204.96 346.52,-211.27"/>
</g>
<!-- Node11 -->
<g id="node11" class="node">
<title>Node11</title>
<g id="a_node11"><a xlink:href="onnx__model__reconstructor__helpers_8cpp.html" target="_top" xlink:title=" ">
<polygon fill="white" stroke="black" points="325.5,-134.5 325.5,-175.5 474.5,-175.5 474.5,-134.5 325.5,-134.5"/>
<text text-anchor="start" x="333.5" y="-163.5" font-family="Helvetica,sans-Serif" font-size="10.00">src/IO_Interaction</text>
<text text-anchor="start" x="333.5" y="-152.5" font-family="Helvetica,sans-Serif" font-size="10.00">/onnx_model_reconstructor</text>
<text text-anchor="middle" x="400" y="-141.5" font-family="Helvetica,sans-Serif" font-size="10.00">_helpers.cpp</text>
</a>
</g>
</g>
<!-- Node10&#45;&gt;Node11 -->
<g id="edge12" class="edge">
<title>Node10&#45;&gt;Node11</title>
<path fill="none" stroke="midnightblue" d="M398.78,-202.3C399.02,-193.3 399.27,-183.65 399.49,-175.51"/>
<polygon fill="midnightblue" stroke="midnightblue" points="395.28,-202.34 398.52,-212.43 402.28,-202.52 395.28,-202.34"/>
</g>
<!-- Node12&#45;&gt;Node2 -->
<g id="edge15" class="edge">
<title>Node12&#45;&gt;Node2</title>
<path fill="none" stroke="midnightblue" d="M431.04,-349.45C423.69,-339.9 415.31,-329 408.83,-320.58"/>
<polygon fill="midnightblue" stroke="midnightblue" points="428.28,-351.6 437.15,-357.4 433.83,-347.34 428.28,-351.6"/>
</g>
</g>
</svg>
