<?xml version="1.0" encoding="UTF-8" standalone="no"?>
<!DOCTYPE svg PUBLIC "-//W3C//DTD SVG 1.1//EN"
 "http://www.w3.org/Graphics/SVG/1.1/DTD/svg11.dtd">
<!-- Generated by graphviz version 2.43.0 (0)
 -->
<!-- Title: include/Butcher/path_converter.h Pages: 1 -->
<svg width="1170pt" height="655pt"
 viewBox="0.00 0.00 1169.50 655.00" xmlns="http://www.w3.org/2000/svg" xmlns:xlink="http://www.w3.org/1999/xlink">
<g id="graph0" class="graph" transform="scale(1 1) rotate(0) translate(4 651)">
<title>include/Butcher/path_converter.h</title>
<polygon fill="white" stroke="transparent" points="-4,4 -4,-651 1165.5,-651 1165.5,4 -4,4"/>
<!-- Node1 -->
<g id="node1" class="node">
<title>Node1</title>
<g id="a_node1"><a xlink:title=" ">
<polygon fill="#bfbfbf" stroke="black" points="998,-616.5 998,-646.5 1115,-646.5 1115,-616.5 998,-616.5"/>
<text text-anchor="start" x="1006" y="-634.5" font-family="Helvetica,sans-Serif" font-size="10.00">include/Butcher/path</text>
<text text-anchor="middle" x="1056.5" y="-623.5" font-family="Helvetica,sans-Serif" font-size="10.00">_converter.h</text>
</a>
</g>
</g>
<!-- Node2 -->
<g id="node2" class="node">
<title>Node2</title>
<g id="a_node2"><a xlink:href="graph__traits_8h.html" target="_top" xlink:title=" ">
<polygon fill="white" stroke="black" points="742.5,-560.5 742.5,-579.5 826.5,-579.5 826.5,-560.5 742.5,-560.5"/>
<text text-anchor="middle" x="784.5" y="-567.5" font-family="Helvetica,sans-Serif" font-size="10.00">graph_traits.h</text>
</a>
</g>
</g>
<!-- Node1&#45;&gt;Node2 -->
<g id="edge1" class="edge">
<title>Node1&#45;&gt;Node2</title>
<path fill="none" stroke="midnightblue" d="M997.81,-617.66C948.74,-606.93 879.55,-591.79 833.43,-581.7"/>
<polygon fill="midnightblue" stroke="midnightblue" points="833.89,-578.22 823.37,-579.5 832.4,-585.06 833.89,-578.22"/>
</g>
<!-- Node29 -->
<g id="node29" class="node">
<title>Node29</title>
<g id="a_node29"><a xlink:href="path__info_8h.html" target="_top" xlink:title=" ">
<polygon fill="white" stroke="black" points="1021,-560.5 1021,-579.5 1092,-579.5 1092,-560.5 1021,-560.5"/>
<text text-anchor="middle" x="1056.5" y="-567.5" font-family="Helvetica,sans-Serif" font-size="10.00">path_info.h</text>
</a>
</g>
</g>
<!-- Node1&#45;&gt;Node29 -->
<g id="edge53" class="edge">
<title>Node1&#45;&gt;Node29</title>
<path fill="none" stroke="midnightblue" d="M1056.5,-616.4C1056.5,-608.47 1056.5,-598.46 1056.5,-589.86"/>
<polygon fill="midnightblue" stroke="midnightblue" points="1060,-589.66 1056.5,-579.66 1053,-589.66 1060,-589.66"/>
</g>
<!-- Node31 -->
<g id="node31" class="node">
<title>Node31</title>
<g id="a_node31"><a xlink:href="paths_8h.html" target="_top" xlink:title=" ">
<polygon fill="white" stroke="black" points="999,-112.5 999,-131.5 1052,-131.5 1052,-112.5 999,-112.5"/>
<text text-anchor="middle" x="1025.5" y="-119.5" font-family="Helvetica,sans-Serif" font-size="10.00">paths.h</text>
</a>
</g>
</g>
<!-- Node1&#45;&gt;Node31 -->
<g id="edge56" class="edge">
<title>Node1&#45;&gt;Node31</title>
<path fill="none" stroke="midnightblue" d="M1083,-616.41C1114.1,-597.73 1161.5,-561.61 1161.5,-515 1161.5,-515 1161.5,-515 1161.5,-233 1161.5,-181.52 1101.86,-149.98 1061.57,-134.55"/>
<polygon fill="midnightblue" stroke="midnightblue" points="1062.64,-131.22 1052.05,-131.06 1060.23,-137.79 1062.64,-131.22"/>
</g>
<!-- Node3 -->
<g id="node3" class="node">
<title>Node3</title>
<g id="a_node3"><a xlink:href="graph_8h.html" target="_top" xlink:title=" ">
<polygon fill="white" stroke="black" points="707,-392.5 707,-411.5 760,-411.5 760,-392.5 707,-392.5"/>
<text text-anchor="middle" x="733.5" y="-399.5" font-family="Helvetica,sans-Serif" font-size="10.00">graph.h</text>
</a>
</g>
</g>
<!-- Node2&#45;&gt;Node3 -->
<g id="edge2" class="edge">
<title>Node2&#45;&gt;Node3</title>
<path fill="none" stroke="midnightblue" d="M781.69,-560.37C776.05,-542.95 762.95,-502.31 752.5,-468 747.74,-452.36 742.54,-434.53 738.79,-421.51"/>
<polygon fill="midnightblue" stroke="midnightblue" points="742.14,-420.5 736.02,-411.85 735.41,-422.43 742.14,-420.5"/>
</g>
<!-- Node9 -->
<g id="node9" class="node">
<title>Node9</title>
<g id="a_node9"><a xlink:href="content_8h.html" target="_top" xlink:title=" ">
<polygon fill="white" stroke="black" points="246.5,-280.5 246.5,-299.5 308.5,-299.5 308.5,-280.5 246.5,-280.5"/>
<text text-anchor="middle" x="277.5" y="-287.5" font-family="Helvetica,sans-Serif" font-size="10.00">content.h</text>
</a>
</g>
</g>
<!-- Node2&#45;&gt;Node9 -->
<g id="edge52" class="edge">
<title>Node2&#45;&gt;Node9</title>
<path fill="none" stroke="midnightblue" d="M742.03,-565.77C604.54,-554.76 180.5,-516.16 180.5,-459 180.5,-459 180.5,-459 180.5,-401 180.5,-357.35 224.01,-322.83 252.74,-304.79"/>
<polygon fill="midnightblue" stroke="midnightblue" points="254.73,-307.68 261.48,-299.52 251.11,-301.68 254.73,-307.68"/>
</g>
<!-- Node26 -->
<g id="node26" class="node">
<title>Node26</title>
<g id="a_node26"><a xlink:href="mwgraph_8h.html" target="_top" xlink:title=" ">
<polygon fill="white" stroke="black" points="762,-448.5 762,-467.5 833,-467.5 833,-448.5 762,-448.5"/>
<text text-anchor="middle" x="797.5" y="-455.5" font-family="Helvetica,sans-Serif" font-size="10.00">mwgraph.h</text>
</a>
</g>
</g>
<!-- Node2&#45;&gt;Node26 -->
<g id="edge46" class="edge">
<title>Node2&#45;&gt;Node26</title>
<path fill="none" stroke="midnightblue" d="M785.52,-560.37C787.62,-542.62 792.46,-501.67 795.3,-477.6"/>
<polygon fill="midnightblue" stroke="midnightblue" points="798.79,-477.93 796.48,-467.59 791.84,-477.11 798.79,-477.93"/>
</g>
<!-- Node27 -->
<g id="node27" class="node">
<title>Node27</title>
<g id="a_node27"><a xlink:href="wgraph_8h.html" target="_top" xlink:title=" ">
<polygon fill="white" stroke="black" points="812.5,-504.5 812.5,-523.5 874.5,-523.5 874.5,-504.5 812.5,-504.5"/>
<text text-anchor="middle" x="843.5" y="-511.5" font-family="Helvetica,sans-Serif" font-size="10.00">wgraph.h</text>
</a>
</g>
</g>
<!-- Node2&#45;&gt;Node27 -->
<g id="edge48" class="edge">
<title>Node2&#45;&gt;Node27</title>
<path fill="none" stroke="midnightblue" d="M793.98,-560.32C802.7,-552.34 815.84,-540.31 826.4,-530.65"/>
<polygon fill="midnightblue" stroke="midnightblue" points="828.83,-533.17 833.85,-523.83 824.11,-528 828.83,-533.17"/>
</g>
<!-- Node4 -->
<g id="node4" class="node">
<title>Node4</title>
<g id="a_node4"><a xlink:title=" ">
<polygon fill="white" stroke="#bfbfbf" points="295.5,-112.5 295.5,-131.5 359.5,-131.5 359.5,-112.5 295.5,-112.5"/>
<text text-anchor="middle" x="327.5" y="-119.5" font-family="Helvetica,sans-Serif" font-size="10.00">algorithm</text>
</a>
</g>
</g>
<!-- Node3&#45;&gt;Node4 -->
<g id="edge3" class="edge">
<title>Node3&#45;&gt;Node4</title>
<path fill="none" stroke="midnightblue" d="M706.92,-398.35C625.9,-389.55 387.5,-357.97 387.5,-291 387.5,-291 387.5,-291 387.5,-233 387.5,-195.88 360.85,-159.38 343.07,-139.16"/>
<polygon fill="midnightblue" stroke="midnightblue" points="345.43,-136.55 336.1,-131.53 340.26,-141.28 345.43,-136.55"/>
</g>
<!-- Node5 -->
<g id="node5" class="node">
<title>Node5</title>
<g id="a_node5"><a xlink:title=" ">
<polygon fill="white" stroke="#bfbfbf" points="221.5,-112.5 221.5,-131.5 277.5,-131.5 277.5,-112.5 221.5,-112.5"/>
<text text-anchor="middle" x="249.5" y="-119.5" font-family="Helvetica,sans-Serif" font-size="10.00">numeric</text>
</a>
</g>
</g>
<!-- Node3&#45;&gt;Node5 -->
<g id="edge4" class="edge">
<title>Node3&#45;&gt;Node5</title>
<path fill="none" stroke="midnightblue" d="M706.9,-401.06C601.44,-400.58 218.5,-391.91 218.5,-291 218.5,-291 218.5,-291 218.5,-233 218.5,-199.41 232.06,-162.14 241.24,-140.75"/>
<polygon fill="midnightblue" stroke="midnightblue" points="244.44,-142.17 245.32,-131.61 238.05,-139.31 244.44,-142.17"/>
</g>
<!-- Node6 -->
<g id="node6" class="node">
<title>Node6</title>
<g id="a_node6"><a xlink:title=" ">
<polygon fill="white" stroke="#bfbfbf" points="910,-224.5 910,-243.5 955,-243.5 955,-224.5 910,-224.5"/>
<text text-anchor="middle" x="932.5" y="-231.5" font-family="Helvetica,sans-Serif" font-size="10.00">utility</text>
</a>
</g>
</g>
<!-- Node3&#45;&gt;Node6 -->
<g id="edge5" class="edge">
<title>Node3&#45;&gt;Node6</title>
<path fill="none" stroke="midnightblue" d="M760.44,-393.41C783.35,-386.14 816.42,-373.66 841.5,-356 880.4,-328.62 909.78,-279.48 923.66,-253.03"/>
<polygon fill="midnightblue" stroke="midnightblue" points="926.94,-254.3 928.35,-243.8 920.7,-251.13 926.94,-254.3"/>
</g>
<!-- Node7 -->
<g id="node7" class="node">
<title>Node7</title>
<g id="a_node7"><a xlink:title=" ">
<polygon fill="white" stroke="#bfbfbf" points="674,-0.5 674,-19.5 721,-19.5 721,-0.5 674,-0.5"/>
<text text-anchor="middle" x="697.5" y="-7.5" font-family="Helvetica,sans-Serif" font-size="10.00">vector</text>
</a>
</g>
</g>
<!-- Node3&#45;&gt;Node7 -->
<g id="edge6" class="edge">
<title>Node3&#45;&gt;Node7</title>
<path fill="none" stroke="midnightblue" d="M748.16,-392.4C759.91,-384.58 775.53,-371.86 782.5,-356 786.08,-347.86 783.15,-344.87 782.5,-336 773.36,-210.56 797.31,-168.71 741.5,-56 735.78,-44.45 726,-34 717.11,-26.08"/>
<polygon fill="midnightblue" stroke="midnightblue" points="719.24,-23.3 709.33,-19.56 714.75,-28.67 719.24,-23.3"/>
</g>
<!-- Node8 -->
<g id="node8" class="node">
<title>Node8</title>
<g id="a_node8"><a xlink:title=" ">
<polygon fill="white" stroke="#bfbfbf" points="441,-56.5 441,-75.5 506,-75.5 506,-56.5 441,-56.5"/>
<text text-anchor="middle" x="473.5" y="-63.5" font-family="Helvetica,sans-Serif" font-size="10.00">onnx.pb.h</text>
</a>
</g>
</g>
<!-- Node3&#45;&gt;Node8 -->
<g id="edge7" class="edge">
<title>Node3&#45;&gt;Node8</title>
<path fill="none" stroke="midnightblue" d="M706.69,-399.31C641.28,-394.82 475.32,-381.22 426.5,-356 365.34,-324.4 238.12,-195.9 212.5,-132 209.19,-123.75 206.77,-118.8 212.5,-112 239.85,-79.54 363.5,-70.49 430.32,-67.97"/>
<polygon fill="midnightblue" stroke="midnightblue" points="430.66,-71.46 440.54,-67.62 430.42,-64.47 430.66,-71.46"/>
</g>
<!-- Node3&#45;&gt;Node9 -->
<g id="edge8" class="edge">
<title>Node3&#45;&gt;Node9</title>
<path fill="none" stroke="midnightblue" d="M706.76,-400.92C626.27,-400.23 387.79,-394.89 322.5,-356 304.49,-345.27 291.95,-324.2 284.77,-308.96"/>
<polygon fill="midnightblue" stroke="midnightblue" points="287.86,-307.29 280.65,-299.53 281.44,-310.09 287.86,-307.29"/>
</g>
<!-- Node24 -->
<g id="node24" class="node">
<title>Node24</title>
<g id="a_node24"><a xlink:href="node_8h.html" target="_top" xlink:title=" ">
<polygon fill="white" stroke="black" points="833.5,-280.5 833.5,-299.5 883.5,-299.5 883.5,-280.5 833.5,-280.5"/>
<text text-anchor="middle" x="858.5" y="-287.5" font-family="Helvetica,sans-Serif" font-size="10.00">node.h</text>
</a>
</g>
</g>
<!-- Node3&#45;&gt;Node24 -->
<g id="edge36" class="edge">
<title>Node3&#45;&gt;Node24</title>
<path fill="none" stroke="midnightblue" d="M757.96,-392.41C776.5,-384.98 801.73,-372.77 819.5,-356 833.67,-342.63 844.5,-322.98 851.11,-308.79"/>
<polygon fill="midnightblue" stroke="midnightblue" points="854.33,-310.15 855.16,-299.59 847.93,-307.33 854.33,-310.15"/>
</g>
<!-- Node25 -->
<g id="node25" class="node">
<title>Node25</title>
<g id="a_node25"><a xlink:href="node__traits_8h.html" target="_top" xlink:title=" ">
<polygon fill="white" stroke="black" points="693.5,-336.5 693.5,-355.5 773.5,-355.5 773.5,-336.5 693.5,-336.5"/>
<text text-anchor="middle" x="733.5" y="-343.5" font-family="Helvetica,sans-Serif" font-size="10.00">node_traits.h</text>
</a>
</g>
</g>
<!-- Node3&#45;&gt;Node25 -->
<g id="edge41" class="edge">
<title>Node3&#45;&gt;Node25</title>
<path fill="none" stroke="midnightblue" d="M733.5,-392.08C733.5,-385.01 733.5,-374.86 733.5,-365.99"/>
<polygon fill="midnightblue" stroke="midnightblue" points="737,-365.75 733.5,-355.75 730,-365.75 737,-365.75"/>
</g>
<!-- Node10 -->
<g id="node10" class="node">
<title>Node10</title>
<g id="a_node10"><a xlink:href="dense__tensor_8h.html" target="_top" xlink:title=" ">
<polygon fill="white" stroke="black" points="428.5,-224.5 428.5,-243.5 518.5,-243.5 518.5,-224.5 428.5,-224.5"/>
<text text-anchor="middle" x="473.5" y="-231.5" font-family="Helvetica,sans-Serif" font-size="10.00">dense_tensor.h</text>
</a>
</g>
</g>
<!-- Node9&#45;&gt;Node10 -->
<g id="edge9" class="edge">
<title>Node9&#45;&gt;Node10</title>
<path fill="none" stroke="midnightblue" d="M308.56,-280.44C342.1,-271.2 395.7,-256.44 432.64,-246.26"/>
<polygon fill="midnightblue" stroke="midnightblue" points="433.88,-249.55 442.59,-243.52 432.02,-242.8 433.88,-249.55"/>
</g>
<!-- Node14 -->
<g id="node14" class="node">
<title>Node14</title>
<g id="a_node14"><a xlink:href="variant__attribute_8h.html" target="_top" xlink:title=" ">
<polygon fill="white" stroke="black" points="45,-168.5 45,-187.5 152,-187.5 152,-168.5 45,-168.5"/>
<text text-anchor="middle" x="98.5" y="-175.5" font-family="Helvetica,sans-Serif" font-size="10.00">variant_attribute.h</text>
</a>
</g>
</g>
<!-- Node9&#45;&gt;Node14 -->
<g id="edge35" class="edge">
<title>Node9&#45;&gt;Node14</title>
<path fill="none" stroke="midnightblue" d="M263.45,-280.37C232.61,-261.41 158.71,-216 121.19,-192.94"/>
<polygon fill="midnightblue" stroke="midnightblue" points="122.83,-189.85 112.48,-187.59 119.17,-195.81 122.83,-189.85"/>
</g>
<!-- Node10&#45;&gt;Node7 -->
<g id="edge34" class="edge">
<title>Node10&#45;&gt;Node7</title>
<path fill="none" stroke="midnightblue" d="M428.34,-229.03C338.77,-219.4 152.23,-189.62 212.5,-112 268.29,-40.15 563.05,-18.08 663.75,-12.58"/>
<polygon fill="midnightblue" stroke="midnightblue" points="664.16,-16.06 673.96,-12.04 663.79,-9.07 664.16,-16.06"/>
</g>
<!-- Node11 -->
<g id="node11" class="node">
<title>Node11</title>
<g id="a_node11"><a xlink:href="type__info_8h.html" target="_top" xlink:title=" ">
<polygon fill="white" stroke="black" points="662,-56.5 662,-75.5 733,-75.5 733,-56.5 662,-56.5"/>
<text text-anchor="middle" x="697.5" y="-63.5" font-family="Helvetica,sans-Serif" font-size="10.00">type_info.h</text>
</a>
</g>
</g>
<!-- Node10&#45;&gt;Node11 -->
<g id="edge10" class="edge">
<title>Node10&#45;&gt;Node11</title>
<path fill="none" stroke="midnightblue" d="M499.52,-224.44C538.74,-210.44 613.51,-179.38 661.5,-132 674.96,-118.71 684.81,-99.32 690.77,-85.18"/>
<polygon fill="midnightblue" stroke="midnightblue" points="694.15,-86.16 694.57,-75.58 687.64,-83.59 694.15,-86.16"/>
</g>
<!-- Node10&#45;&gt;Node14 -->
<g id="edge14" class="edge">
<title>Node10&#45;&gt;Node14</title>
<path fill="none" stroke="midnightblue" d="M428.27,-226.49C361.94,-216.94 237.99,-199.09 162.39,-188.2"/>
<polygon fill="midnightblue" stroke="midnightblue" points="162.46,-184.67 152.06,-186.71 161.46,-191.6 162.46,-184.67"/>
</g>
<!-- Node16 -->
<g id="node16" class="node">
<title>Node16</title>
<g id="a_node16"><a xlink:href="utilities_8h.html" target="_top" xlink:title=" ">
<polygon fill="white" stroke="black" points="442.5,-168.5 442.5,-187.5 504.5,-187.5 504.5,-168.5 442.5,-168.5"/>
<text text-anchor="middle" x="473.5" y="-175.5" font-family="Helvetica,sans-Serif" font-size="10.00">utilities.h</text>
</a>
</g>
</g>
<!-- Node10&#45;&gt;Node16 -->
<g id="edge18" class="edge">
<title>Node10&#45;&gt;Node16</title>
<path fill="none" stroke="midnightblue" d="M468.33,-224.08C466.82,-216.93 466.39,-206.64 467.04,-197.69"/>
<polygon fill="midnightblue" stroke="midnightblue" points="470.52,-198.13 468.37,-187.75 463.58,-197.2 470.52,-198.13"/>
</g>
<!-- Node11&#45;&gt;Node7 -->
<g id="edge12" class="edge">
<title>Node11&#45;&gt;Node7</title>
<path fill="none" stroke="midnightblue" d="M697.5,-56.08C697.5,-49.01 697.5,-38.86 697.5,-29.99"/>
<polygon fill="midnightblue" stroke="midnightblue" points="701,-29.75 697.5,-19.75 694,-29.75 701,-29.75"/>
</g>
<!-- Node12 -->
<g id="node12" class="node">
<title>Node12</title>
<g id="a_node12"><a xlink:title=" ">
<polygon fill="white" stroke="#bfbfbf" points="337.5,-0.5 337.5,-19.5 381.5,-19.5 381.5,-0.5 337.5,-0.5"/>
<text text-anchor="middle" x="359.5" y="-7.5" font-family="Helvetica,sans-Serif" font-size="10.00">string</text>
</a>
</g>
</g>
<!-- Node11&#45;&gt;Node12 -->
<g id="edge11" class="edge">
<title>Node11&#45;&gt;Node12</title>
<path fill="none" stroke="midnightblue" d="M661.97,-59.32C595.95,-48.78 455.35,-26.31 391.84,-16.17"/>
<polygon fill="midnightblue" stroke="midnightblue" points="392.04,-12.65 381.62,-14.53 390.94,-19.57 392.04,-12.65"/>
</g>
<!-- Node13 -->
<g id="node13" class="node">
<title>Node13</title>
<g id="a_node13"><a xlink:href="starting__traits_8h.html" target="_top" xlink:title=" ">
<polygon fill="white" stroke="black" points="817.5,-0.5 817.5,-19.5 911.5,-19.5 911.5,-0.5 817.5,-0.5"/>
<text text-anchor="middle" x="864.5" y="-7.5" font-family="Helvetica,sans-Serif" font-size="10.00">starting_traits.h</text>
</a>
</g>
</g>
<!-- Node11&#45;&gt;Node13 -->
<g id="edge13" class="edge">
<title>Node11&#45;&gt;Node13</title>
<path fill="none" stroke="midnightblue" d="M723.96,-56.44C752.18,-47.32 797.04,-32.81 828.47,-22.65"/>
<polygon fill="midnightblue" stroke="midnightblue" points="829.72,-25.92 838.16,-19.52 827.57,-19.26 829.72,-25.92"/>
</g>
<!-- Node14&#45;&gt;Node7 -->
<g id="edge17" class="edge">
<title>Node14&#45;&gt;Node7</title>
<path fill="none" stroke="midnightblue" d="M101.31,-168.31C109.26,-145.25 134.37,-82.48 179.5,-56 221.18,-31.55 555.52,-16.52 663.79,-12.26"/>
<polygon fill="midnightblue" stroke="midnightblue" points="663.98,-15.75 673.84,-11.87 663.71,-8.76 663.98,-15.75"/>
</g>
<!-- Node14&#45;&gt;Node12 -->
<g id="edge15" class="edge">
<title>Node14&#45;&gt;Node12</title>
<path fill="none" stroke="midnightblue" d="M95.64,-168.37C88.98,-146.51 75.11,-88.43 103.5,-56 132.37,-23.02 264.84,-14.18 327.05,-11.83"/>
<polygon fill="midnightblue" stroke="midnightblue" points="327.24,-15.33 337.11,-11.49 327,-8.33 327.24,-15.33"/>
</g>
<!-- Node15 -->
<g id="node15" class="node">
<title>Node15</title>
<g id="a_node15"><a xlink:title=" ">
<polygon fill="white" stroke="#bfbfbf" points="0,-112.5 0,-131.5 51,-131.5 51,-112.5 0,-112.5"/>
<text text-anchor="middle" x="25.5" y="-119.5" font-family="Helvetica,sans-Serif" font-size="10.00">variant</text>
</a>
</g>
</g>
<!-- Node14&#45;&gt;Node15 -->
<g id="edge16" class="edge">
<title>Node14&#45;&gt;Node15</title>
<path fill="none" stroke="midnightblue" d="M86.77,-168.32C75.66,-160.11 58.76,-147.6 45.52,-137.81"/>
<polygon fill="midnightblue" stroke="midnightblue" points="47.56,-134.97 37.44,-131.83 43.4,-140.59 47.56,-134.97"/>
</g>
<!-- Node16&#45;&gt;Node4 -->
<g id="edge19" class="edge">
<title>Node16&#45;&gt;Node4</title>
<path fill="none" stroke="midnightblue" d="M450.37,-168.44C426.02,-159.44 387.49,-145.19 360.08,-135.05"/>
<polygon fill="midnightblue" stroke="midnightblue" points="361.12,-131.7 350.53,-131.52 358.69,-138.27 361.12,-131.7"/>
</g>
<!-- Node16&#45;&gt;Node5 -->
<g id="edge20" class="edge">
<title>Node16&#45;&gt;Node5</title>
<path fill="none" stroke="midnightblue" d="M442.39,-169.54C407.23,-161.1 348.02,-146.87 287.84,-132.32"/>
<polygon fill="midnightblue" stroke="midnightblue" points="288.32,-128.84 277.78,-129.89 286.68,-135.64 288.32,-128.84"/>
</g>
<!-- Node16&#45;&gt;Node8 -->
<g id="edge24" class="edge">
<title>Node16&#45;&gt;Node8</title>
<path fill="none" stroke="midnightblue" d="M473.5,-168.37C473.5,-150.62 473.5,-109.67 473.5,-85.6"/>
<polygon fill="midnightblue" stroke="midnightblue" points="477,-85.59 473.5,-75.59 470,-85.59 477,-85.59"/>
</g>
<!-- Node16&#45;&gt;Node10 -->
<g id="edge32" class="edge">
<title>Node16&#45;&gt;Node10</title>
<path fill="none" stroke="midnightblue" d="M478.63,-187.75C480.16,-194.86 480.6,-205.14 479.97,-214.1"/>
<polygon fill="midnightblue" stroke="midnightblue" points="476.49,-213.71 478.67,-224.08 483.43,-214.62 476.49,-213.71"/>
</g>
<!-- Node16&#45;&gt;Node11 -->
<g id="edge33" class="edge">
<title>Node16&#45;&gt;Node11</title>
<path fill="none" stroke="midnightblue" d="M504.78,-173.22C538.69,-168.03 593.47,-156.41 634.5,-132 655.3,-119.62 673.88,-98.61 685.38,-83.83"/>
<polygon fill="midnightblue" stroke="midnightblue" points="688.38,-85.67 691.58,-75.57 682.78,-81.47 688.38,-85.67"/>
</g>
<!-- Node17 -->
<g id="node17" class="node">
<title>Node17</title>
<g id="a_node17"><a xlink:title=" ">
<polygon fill="white" stroke="#bfbfbf" points="377.5,-112.5 377.5,-131.5 445.5,-131.5 445.5,-112.5 377.5,-112.5"/>
<text text-anchor="middle" x="411.5" y="-119.5" font-family="Helvetica,sans-Serif" font-size="10.00">filesystem</text>
</a>
</g>
</g>
<!-- Node16&#45;&gt;Node17 -->
<g id="edge21" class="edge">
<title>Node16&#45;&gt;Node17</title>
<path fill="none" stroke="midnightblue" d="M463.54,-168.32C454.37,-160.34 440.56,-148.31 429.47,-138.65"/>
<polygon fill="midnightblue" stroke="midnightblue" points="431.48,-135.76 421.64,-131.83 426.88,-141.04 431.48,-135.76"/>
</g>
<!-- Node18 -->
<g id="node18" class="node">
<title>Node18</title>
<g id="a_node18"><a xlink:title=" ">
<polygon fill="white" stroke="#bfbfbf" points="502,-112.5 502,-131.5 557,-131.5 557,-112.5 502,-112.5"/>
<text text-anchor="middle" x="529.5" y="-119.5" font-family="Helvetica,sans-Serif" font-size="10.00">fstream</text>
</a>
</g>
</g>
<!-- Node16&#45;&gt;Node18 -->
<g id="edge22" class="edge">
<title>Node16&#45;&gt;Node18</title>
<path fill="none" stroke="midnightblue" d="M482.5,-168.32C490.69,-160.42 503.01,-148.55 512.97,-138.94"/>
<polygon fill="midnightblue" stroke="midnightblue" points="515.57,-141.29 520.34,-131.83 510.71,-136.26 515.57,-141.29"/>
</g>
<!-- Node19 -->
<g id="node19" class="node">
<title>Node19</title>
<g id="a_node19"><a xlink:title=" ">
<polygon fill="white" stroke="#bfbfbf" points="575.5,-112.5 575.5,-131.5 625.5,-131.5 625.5,-112.5 575.5,-112.5"/>
<text text-anchor="middle" x="600.5" y="-119.5" font-family="Helvetica,sans-Serif" font-size="10.00">ranges</text>
</a>
</g>
</g>
<!-- Node16&#45;&gt;Node19 -->
<g id="edge23" class="edge">
<title>Node16&#45;&gt;Node19</title>
<path fill="none" stroke="midnightblue" d="M493.62,-168.44C514.52,-159.56 547.43,-145.56 571.22,-135.45"/>
<polygon fill="midnightblue" stroke="midnightblue" points="572.64,-138.65 580.47,-131.52 569.9,-132.21 572.64,-138.65"/>
</g>
<!-- Node20 -->
<g id="node20" class="node">
<title>Node20</title>
<g id="a_node20"><a xlink:href="traits_8h.html" target="_top" xlink:title=" ">
<polygon fill="white" stroke="black" points="872,-112.5 872,-131.5 923,-131.5 923,-112.5 872,-112.5"/>
<text text-anchor="middle" x="897.5" y="-119.5" font-family="Helvetica,sans-Serif" font-size="10.00">traits.h</text>
</a>
</g>
</g>
<!-- Node16&#45;&gt;Node20 -->
<g id="edge25" class="edge">
<title>Node16&#45;&gt;Node20</title>
<path fill="none" stroke="midnightblue" d="M504.68,-173.03C581.55,-163.24 779.83,-137.99 861.51,-127.58"/>
<polygon fill="midnightblue" stroke="midnightblue" points="862.31,-131.01 871.79,-126.27 861.43,-124.07 862.31,-131.01"/>
</g>
<!-- Node20&#45;&gt;Node8 -->
<g id="edge30" class="edge">
<title>Node20&#45;&gt;Node8</title>
<path fill="none" stroke="midnightblue" d="M871.93,-117.74C801.48,-108.77 603.97,-83.62 516.32,-72.45"/>
<polygon fill="midnightblue" stroke="midnightblue" points="516.56,-68.96 506.2,-71.16 515.67,-75.9 516.56,-68.96"/>
</g>
<!-- Node20&#45;&gt;Node11 -->
<g id="edge31" class="edge">
<title>Node20&#45;&gt;Node11</title>
<path fill="none" stroke="midnightblue" d="M871.76,-114.05C838.11,-104.97 778.76,-88.94 738.78,-78.15"/>
<polygon fill="midnightblue" stroke="midnightblue" points="739.63,-74.75 729.06,-75.52 737.81,-81.51 739.63,-74.75"/>
</g>
<!-- Node20&#45;&gt;Node13 -->
<g id="edge29" class="edge">
<title>Node20&#45;&gt;Node13</title>
<path fill="none" stroke="midnightblue" d="M904.35,-112.33C913.49,-99.61 927.55,-75.33 918.5,-56 912.46,-43.09 900.69,-32.6 889.68,-25"/>
<polygon fill="midnightblue" stroke="midnightblue" points="891.44,-21.97 881.13,-19.54 887.67,-27.87 891.44,-21.97"/>
</g>
<!-- Node21 -->
<g id="node21" class="node">
<title>Node21</title>
<g id="a_node21"><a xlink:title=" ">
<polygon fill="white" stroke="#bfbfbf" points="965.5,-56.5 965.5,-75.5 997.5,-75.5 997.5,-56.5 965.5,-56.5"/>
<text text-anchor="middle" x="981.5" y="-63.5" font-family="Helvetica,sans-Serif" font-size="10.00">set</text>
</a>
</g>
</g>
<!-- Node20&#45;&gt;Node21 -->
<g id="edge26" class="edge">
<title>Node20&#45;&gt;Node21</title>
<path fill="none" stroke="midnightblue" d="M911,-112.32C924.1,-103.9 944.21,-90.97 959.61,-81.07"/>
<polygon fill="midnightblue" stroke="midnightblue" points="961.52,-84.01 968.04,-75.65 957.73,-78.12 961.52,-84.01"/>
</g>
<!-- Node22 -->
<g id="node22" class="node">
<title>Node22</title>
<g id="a_node22"><a xlink:title=" ">
<polygon fill="white" stroke="#bfbfbf" points="871.5,-56.5 871.5,-75.5 909.5,-75.5 909.5,-56.5 871.5,-56.5"/>
<text text-anchor="middle" x="890.5" y="-63.5" font-family="Helvetica,sans-Serif" font-size="10.00">map</text>
</a>
</g>
</g>
<!-- Node20&#45;&gt;Node22 -->
<g id="edge27" class="edge">
<title>Node20&#45;&gt;Node22</title>
<path fill="none" stroke="midnightblue" d="M896.34,-112.08C895.42,-104.93 894.08,-94.64 892.92,-85.69"/>
<polygon fill="midnightblue" stroke="midnightblue" points="896.39,-85.22 891.63,-75.75 889.45,-86.12 896.39,-85.22"/>
</g>
<!-- Node23 -->
<g id="node23" class="node">
<title>Node23</title>
<g id="a_node23"><a xlink:title=" ">
<polygon fill="white" stroke="#bfbfbf" points="795.5,-56.5 795.5,-75.5 853.5,-75.5 853.5,-56.5 795.5,-56.5"/>
<text text-anchor="middle" x="824.5" y="-63.5" font-family="Helvetica,sans-Serif" font-size="10.00">memory</text>
</a>
</g>
</g>
<!-- Node20&#45;&gt;Node23 -->
<g id="edge28" class="edge">
<title>Node20&#45;&gt;Node23</title>
<path fill="none" stroke="midnightblue" d="M885.77,-112.32C874.66,-104.11 857.76,-91.6 844.52,-81.81"/>
<polygon fill="midnightblue" stroke="midnightblue" points="846.56,-78.97 836.44,-75.83 842.4,-84.59 846.56,-78.97"/>
</g>
<!-- Node24&#45;&gt;Node6 -->
<g id="edge40" class="edge">
<title>Node24&#45;&gt;Node6</title>
<path fill="none" stroke="midnightblue" d="M870.39,-280.32C881.65,-272.11 898.79,-259.6 912.21,-249.81"/>
<polygon fill="midnightblue" stroke="midnightblue" points="914.38,-252.56 920.39,-243.83 910.25,-246.9 914.38,-252.56"/>
</g>
<!-- Node24&#45;&gt;Node10 -->
<g id="edge37" class="edge">
<title>Node24&#45;&gt;Node10</title>
<path fill="none" stroke="midnightblue" d="M833.24,-285.46C771.75,-276.83 613.15,-254.59 528.56,-242.72"/>
<polygon fill="midnightblue" stroke="midnightblue" points="529.01,-239.25 518.62,-241.33 528.04,-246.18 529.01,-239.25"/>
</g>
<!-- Node24&#45;&gt;Node20 -->
<g id="edge38" class="edge">
<title>Node24&#45;&gt;Node20</title>
<path fill="none" stroke="midnightblue" d="M860.6,-280.08C866.74,-253.95 884.76,-177.21 893.14,-141.58"/>
<polygon fill="midnightblue" stroke="midnightblue" points="896.61,-142.1 895.49,-131.57 889.79,-140.5 896.61,-142.1"/>
</g>
<!-- Node24&#45;&gt;Node23 -->
<g id="edge39" class="edge">
<title>Node24&#45;&gt;Node23</title>
<path fill="none" stroke="midnightblue" d="M857.17,-280.3C852.16,-247.63 834.43,-131.87 827.4,-85.96"/>
<polygon fill="midnightblue" stroke="midnightblue" points="830.83,-85.24 825.86,-75.88 823.91,-86.3 830.83,-85.24"/>
</g>
<!-- Node25&#45;&gt;Node9 -->
<g id="edge43" class="edge">
<title>Node25&#45;&gt;Node9</title>
<path fill="none" stroke="midnightblue" d="M693.43,-340.26C607.39,-330.07 405.72,-306.18 318.68,-295.88"/>
<polygon fill="midnightblue" stroke="midnightblue" points="319,-292.39 308.65,-294.69 318.17,-299.34 319,-292.39"/>
</g>
<!-- Node25&#45;&gt;Node11 -->
<g id="edge45" class="edge">
<title>Node25&#45;&gt;Node11</title>
<path fill="none" stroke="midnightblue" d="M732.98,-336.45C731.89,-317.95 729.5,-272.84 729.5,-235 729.5,-235 729.5,-235 729.5,-177 729.5,-143.33 715.51,-106.08 706.03,-84.72"/>
<polygon fill="midnightblue" stroke="midnightblue" points="709.18,-83.21 701.82,-75.59 702.83,-86.14 709.18,-83.21"/>
</g>
<!-- Node25&#45;&gt;Node23 -->
<g id="edge42" class="edge">
<title>Node25&#45;&gt;Node23</title>
<path fill="none" stroke="midnightblue" d="M736.32,-336.38C749.01,-297.62 800.89,-139.13 818.57,-85.13"/>
<polygon fill="midnightblue" stroke="midnightblue" points="821.92,-86.12 821.71,-75.52 815.27,-83.94 821.92,-86.12"/>
</g>
<!-- Node25&#45;&gt;Node24 -->
<g id="edge44" class="edge">
<title>Node25&#45;&gt;Node24</title>
<path fill="none" stroke="midnightblue" d="M753.31,-336.44C773.79,-327.6 805.98,-313.69 829.36,-303.59"/>
<polygon fill="midnightblue" stroke="midnightblue" points="830.99,-306.7 838.79,-299.52 828.22,-300.27 830.99,-306.7"/>
</g>
<!-- Node26&#45;&gt;Node3 -->
<g id="edge47" class="edge">
<title>Node26&#45;&gt;Node3</title>
<path fill="none" stroke="midnightblue" d="M787.22,-448.32C777.66,-440.26 763.22,-428.08 751.72,-418.37"/>
<polygon fill="midnightblue" stroke="midnightblue" points="753.87,-415.61 743.97,-411.83 749.36,-420.96 753.87,-415.61"/>
</g>
<!-- Node27&#45;&gt;Node26 -->
<g id="edge49" class="edge">
<title>Node27&#45;&gt;Node26</title>
<path fill="none" stroke="midnightblue" d="M835.9,-504.08C829.27,-496.3 819.48,-484.8 811.44,-475.37"/>
<polygon fill="midnightblue" stroke="midnightblue" points="814.1,-473.09 804.95,-467.75 808.77,-477.63 814.1,-473.09"/>
</g>
<!-- Node28 -->
<g id="node28" class="node">
<title>Node28</title>
<g id="a_node28"><a xlink:href="weighted__graph_8h.html" target="_top" xlink:title=" ">
<polygon fill="white" stroke="black" points="849.5,-392.5 849.5,-411.5 953.5,-411.5 953.5,-392.5 849.5,-392.5"/>
<text text-anchor="middle" x="901.5" y="-399.5" font-family="Helvetica,sans-Serif" font-size="10.00">weighted_graph.h</text>
</a>
</g>
</g>
<!-- Node27&#45;&gt;Node28 -->
<g id="edge50" class="edge">
<title>Node27&#45;&gt;Node28</title>
<path fill="none" stroke="midnightblue" d="M848.05,-504.37C857.54,-486.38 879.59,-444.55 892.21,-420.63"/>
<polygon fill="midnightblue" stroke="midnightblue" points="895.4,-422.07 896.97,-411.59 889.21,-418.8 895.4,-422.07"/>
</g>
<!-- Node28&#45;&gt;Node20 -->
<g id="edge51" class="edge">
<title>Node28&#45;&gt;Node20</title>
<path fill="none" stroke="midnightblue" d="M914.31,-392.39C937.38,-375.74 983.5,-336.73 983.5,-291 983.5,-291 983.5,-291 983.5,-233 983.5,-191.58 945.19,-156.45 919.71,-137.67"/>
<polygon fill="midnightblue" stroke="midnightblue" points="921.5,-134.64 911.32,-131.72 917.45,-140.36 921.5,-134.64"/>
</g>
<!-- Node29&#45;&gt;Node20 -->
<g id="edge55" class="edge">
<title>Node29&#45;&gt;Node20</title>
<path fill="none" stroke="midnightblue" d="M1051.78,-560.46C1042.23,-542.34 1021.5,-498.48 1021.5,-459 1021.5,-459 1021.5,-459 1021.5,-233 1021.5,-184.26 967.23,-151.87 930.49,-135.52"/>
<polygon fill="midnightblue" stroke="midnightblue" points="931.69,-132.23 921.12,-131.52 928.94,-138.67 931.69,-132.23"/>
</g>
<!-- Node30 -->
<g id="node30" class="node">
<title>Node30</title>
<g id="a_node30"><a xlink:href="crtp__greater_8h.html" target="_top" xlink:title=" ">
<polygon fill="white" stroke="black" points="1049.5,-504.5 1049.5,-523.5 1133.5,-523.5 1133.5,-504.5 1049.5,-504.5"/>
<text text-anchor="middle" x="1091.5" y="-511.5" font-family="Helvetica,sans-Serif" font-size="10.00">crtp_greater.h</text>
</a>
</g>
</g>
<!-- Node29&#45;&gt;Node30 -->
<g id="edge54" class="edge">
<title>Node29&#45;&gt;Node30</title>
<path fill="none" stroke="midnightblue" d="M1062.28,-560.08C1067.17,-552.53 1074.33,-541.49 1080.33,-532.23"/>
<polygon fill="midnightblue" stroke="midnightblue" points="1083.33,-534.05 1085.83,-523.75 1077.45,-530.24 1083.33,-534.05"/>
</g>
<!-- Node31&#45;&gt;Node7 -->
<g id="edge58" class="edge">
<title>Node31&#45;&gt;Node7</title>
<path fill="none" stroke="midnightblue" d="M1025.72,-112.3C1025.56,-98.16 1023,-70.35 1006.5,-56 985.93,-38.13 807.1,-20.57 731.26,-13.86"/>
<polygon fill="midnightblue" stroke="midnightblue" points="731.54,-10.37 721.27,-12.99 730.93,-17.34 731.54,-10.37"/>
</g>
<!-- Node31&#45;&gt;Node21 -->
<g id="edge57" class="edge">
<title>Node31&#45;&gt;Node21</title>
<path fill="none" stroke="midnightblue" d="M1018.23,-112.08C1011.96,-104.38 1002.71,-93.03 995.07,-83.65"/>
<polygon fill="midnightblue" stroke="midnightblue" points="997.66,-81.29 988.63,-75.75 992.23,-85.71 997.66,-81.29"/>
</g>
</g>
</svg>
