<?xml version="1.0" encoding="UTF-8" standalone="no"?>
<!DOCTYPE svg PUBLIC "-//W3C//DTD SVG 1.1//EN"
 "http://www.w3.org/Graphics/SVG/1.1/DTD/svg11.dtd">
<!-- Generated by graphviz version 2.43.0 (0)
 -->
<!-- Title: include/network_butcher/K&#45;shortest_path/path_info.h Pages: 1 -->
<svg width="570pt" height="251pt"
 viewBox="0.00 0.00 569.50 251.00" xmlns="http://www.w3.org/2000/svg" xmlns:xlink="http://www.w3.org/1999/xlink">
<g id="graph0" class="graph" transform="scale(1 1) rotate(0) translate(4 247)">
<title>include/network_butcher/K&#45;shortest_path/path_info.h</title>
<polygon fill="white" stroke="transparent" points="-4,4 -4,-247 565.5,-247 565.5,4 -4,4"/>
<!-- Node1 -->
<g id="node1" class="node">
<title>Node1</title>
<g id="a_node1"><a xlink:title=" ">
<polygon fill="#bfbfbf" stroke="black" points="84.5,-201.5 84.5,-242.5 221.5,-242.5 221.5,-201.5 84.5,-201.5"/>
<text text-anchor="start" x="92.5" y="-230.5" font-family="Helvetica,sans-Serif" font-size="10.00">include/network_butcher</text>
<text text-anchor="start" x="92.5" y="-219.5" font-family="Helvetica,sans-Serif" font-size="10.00">/K&#45;shortest_path/path</text>
<text text-anchor="middle" x="153" y="-208.5" font-family="Helvetica,sans-Serif" font-size="10.00">_info.h</text>
</a>
</g>
</g>
<!-- Node2 -->
<g id="node2" class="node">
<title>Node2</title>
<g id="a_node2"><a xlink:href="crtp__greater_8h.html" target="_top" xlink:title=" ">
<polygon fill="white" stroke="black" points="0,-134.5 0,-164.5 150,-164.5 150,-134.5 0,-134.5"/>
<text text-anchor="start" x="8" y="-152.5" font-family="Helvetica,sans-Serif" font-size="10.00">network_butcher/K&#45;shortest</text>
<text text-anchor="middle" x="75" y="-141.5" font-family="Helvetica,sans-Serif" font-size="10.00">_path/crtp_greater.h</text>
</a>
</g>
</g>
<!-- Node1&#45;&gt;Node2 -->
<g id="edge1" class="edge">
<title>Node1&#45;&gt;Node2</title>
<path fill="none" stroke="midnightblue" d="M131.27,-201.36C121.07,-192.14 108.89,-181.13 98.48,-171.72"/>
<polygon fill="midnightblue" stroke="midnightblue" points="100.69,-169 90.92,-164.89 95.99,-174.19 100.69,-169"/>
</g>
<!-- Node3 -->
<g id="node3" class="node">
<title>Node3</title>
<g id="a_node3"><a xlink:href="traits_8h.html" target="_top" xlink:title=" ">
<polygon fill="white" stroke="black" points="168,-134.5 168,-164.5 296,-164.5 296,-134.5 168,-134.5"/>
<text text-anchor="start" x="176" y="-152.5" font-family="Helvetica,sans-Serif" font-size="10.00">network_butcher/Traits</text>
<text text-anchor="middle" x="232" y="-141.5" font-family="Helvetica,sans-Serif" font-size="10.00">/traits.h</text>
</a>
</g>
</g>
<!-- Node1&#45;&gt;Node3 -->
<g id="edge2" class="edge">
<title>Node1&#45;&gt;Node3</title>
<path fill="none" stroke="midnightblue" d="M175.01,-201.36C185.41,-192.08 197.85,-180.98 208.44,-171.52"/>
<polygon fill="midnightblue" stroke="midnightblue" points="210.99,-173.94 216.12,-164.67 206.33,-168.72 210.99,-173.94"/>
</g>
<!-- Node4 -->
<g id="node4" class="node">
<title>Node4</title>
<g id="a_node4"><a xlink:title=" ">
<polygon fill="white" stroke="#bfbfbf" points="69,-73 69,-92 101,-92 101,-73 69,-73"/>
<text text-anchor="middle" x="85" y="-80" font-family="Helvetica,sans-Serif" font-size="10.00">set</text>
</a>
</g>
</g>
<!-- Node3&#45;&gt;Node4 -->
<g id="edge3" class="edge">
<title>Node3&#45;&gt;Node4</title>
<path fill="none" stroke="midnightblue" d="M194.32,-134.4C169.91,-124.91 137.64,-111.66 110,-98 109.33,-97.67 108.64,-97.32 107.96,-96.97"/>
<polygon fill="midnightblue" stroke="midnightblue" points="109.55,-93.85 99.1,-92.12 106.19,-99.99 109.55,-93.85"/>
</g>
<!-- Node5 -->
<g id="node5" class="node">
<title>Node5</title>
<g id="a_node5"><a xlink:title=" ">
<polygon fill="white" stroke="#bfbfbf" points="119,-73 119,-92 157,-92 157,-73 119,-73"/>
<text text-anchor="middle" x="138" y="-80" font-family="Helvetica,sans-Serif" font-size="10.00">map</text>
</a>
</g>
</g>
<!-- Node3&#45;&gt;Node5 -->
<g id="edge4" class="edge">
<title>Node3&#45;&gt;Node5</title>
<path fill="none" stroke="midnightblue" d="M211.6,-134.4C195.99,-123.6 174.52,-108.76 158.81,-97.89"/>
<polygon fill="midnightblue" stroke="midnightblue" points="160.52,-94.82 150.3,-92.01 156.54,-100.57 160.52,-94.82"/>
</g>
<!-- Node6 -->
<g id="node6" class="node">
<title>Node6</title>
<g id="a_node6"><a xlink:title=" ">
<polygon fill="white" stroke="#bfbfbf" points="175,-73 175,-92 233,-92 233,-73 175,-73"/>
<text text-anchor="middle" x="204" y="-80" font-family="Helvetica,sans-Serif" font-size="10.00">memory</text>
</a>
</g>
</g>
<!-- Node3&#45;&gt;Node6 -->
<g id="edge5" class="edge">
<title>Node3&#45;&gt;Node6</title>
<path fill="none" stroke="midnightblue" d="M225.92,-134.4C221.77,-124.76 216.24,-111.91 211.77,-101.54"/>
<polygon fill="midnightblue" stroke="midnightblue" points="214.92,-99.99 207.75,-92.19 208.49,-102.76 214.92,-99.99"/>
</g>
<!-- Node7 -->
<g id="node7" class="node">
<title>Node7</title>
<g id="a_node7"><a xlink:href="starting__traits_8h.html" target="_top" xlink:title=" ">
<polygon fill="white" stroke="black" points="191,-0.5 191,-30.5 319,-30.5 319,-0.5 191,-0.5"/>
<text text-anchor="start" x="199" y="-18.5" font-family="Helvetica,sans-Serif" font-size="10.00">network_butcher/Traits</text>
<text text-anchor="middle" x="255" y="-7.5" font-family="Helvetica,sans-Serif" font-size="10.00">/starting_traits.h</text>
</a>
</g>
</g>
<!-- Node3&#45;&gt;Node7 -->
<g id="edge6" class="edge">
<title>Node3&#45;&gt;Node7</title>
<path fill="none" stroke="midnightblue" d="M234.94,-134.38C237.01,-124.27 239.8,-110.32 242,-98 245.42,-78.86 248.87,-57.12 251.35,-40.9"/>
<polygon fill="midnightblue" stroke="midnightblue" points="254.87,-41.07 252.91,-30.66 247.94,-40.02 254.87,-41.07"/>
</g>
<!-- Node8 -->
<g id="node8" class="node">
<title>Node8</title>
<g id="a_node8"><a xlink:href="type__info_8h.html" target="_top" xlink:title=" ">
<polygon fill="white" stroke="black" points="289.5,-67.5 289.5,-97.5 418.5,-97.5 418.5,-67.5 289.5,-67.5"/>
<text text-anchor="start" x="297.5" y="-85.5" font-family="Helvetica,sans-Serif" font-size="10.00">network_butcher/Types</text>
<text text-anchor="middle" x="354" y="-74.5" font-family="Helvetica,sans-Serif" font-size="10.00">/type_info.h</text>
</a>
</g>
</g>
<!-- Node3&#45;&gt;Node8 -->
<g id="edge7" class="edge">
<title>Node3&#45;&gt;Node8</title>
<path fill="none" stroke="midnightblue" d="M258.47,-134.4C276.06,-125.03 299.35,-112.62 318.54,-102.39"/>
<polygon fill="midnightblue" stroke="midnightblue" points="320.4,-105.37 327.58,-97.58 317.11,-99.19 320.4,-105.37"/>
</g>
<!-- Node11 -->
<g id="node11" class="node">
<title>Node11</title>
<g id="a_node11"><a xlink:title=" ">
<polygon fill="white" stroke="#bfbfbf" points="436.5,-67.5 436.5,-97.5 561.5,-97.5 561.5,-67.5 436.5,-67.5"/>
<text text-anchor="start" x="444.5" y="-85.5" font-family="Helvetica,sans-Serif" font-size="10.00">network_butcher/onnx</text>
<text text-anchor="middle" x="499" y="-74.5" font-family="Helvetica,sans-Serif" font-size="10.00">_proto/onnx.pb.h</text>
</a>
</g>
</g>
<!-- Node3&#45;&gt;Node11 -->
<g id="edge11" class="edge">
<title>Node3&#45;&gt;Node11</title>
<path fill="none" stroke="midnightblue" d="M289.61,-134.48C331.14,-124.37 387.34,-110.68 431.06,-100.04"/>
<polygon fill="midnightblue" stroke="midnightblue" points="432.15,-103.38 441.04,-97.61 430.49,-96.58 432.15,-103.38"/>
</g>
<!-- Node8&#45;&gt;Node7 -->
<g id="edge10" class="edge">
<title>Node8&#45;&gt;Node7</title>
<path fill="none" stroke="midnightblue" d="M332.52,-67.4C318.64,-58.28 300.37,-46.29 285.06,-36.24"/>
<polygon fill="midnightblue" stroke="midnightblue" points="286.72,-33.14 276.44,-30.58 282.88,-38.99 286.72,-33.14"/>
</g>
<!-- Node9 -->
<g id="node9" class="node">
<title>Node9</title>
<g id="a_node9"><a xlink:title=" ">
<polygon fill="white" stroke="#bfbfbf" points="337,-6 337,-25 381,-25 381,-6 337,-6"/>
<text text-anchor="middle" x="359" y="-13" font-family="Helvetica,sans-Serif" font-size="10.00">string</text>
</a>
</g>
</g>
<!-- Node8&#45;&gt;Node9 -->
<g id="edge8" class="edge">
<title>Node8&#45;&gt;Node9</title>
<path fill="none" stroke="midnightblue" d="M355.08,-67.4C355.81,-57.96 356.77,-45.45 357.56,-35.19"/>
<polygon fill="midnightblue" stroke="midnightblue" points="361.05,-35.43 358.33,-25.19 354.07,-34.9 361.05,-35.43"/>
</g>
<!-- Node10 -->
<g id="node10" class="node">
<title>Node10</title>
<g id="a_node10"><a xlink:title=" ">
<polygon fill="white" stroke="#bfbfbf" points="399.5,-6 399.5,-25 446.5,-25 446.5,-6 399.5,-6"/>
<text text-anchor="middle" x="423" y="-13" font-family="Helvetica,sans-Serif" font-size="10.00">vector</text>
</a>
</g>
</g>
<!-- Node8&#45;&gt;Node10 -->
<g id="edge9" class="edge">
<title>Node8&#45;&gt;Node10</title>
<path fill="none" stroke="midnightblue" d="M368.97,-67.4C379.94,-57.06 394.84,-43.02 406.22,-32.31"/>
<polygon fill="midnightblue" stroke="midnightblue" points="408.89,-34.6 413.77,-25.19 404.09,-29.5 408.89,-34.6"/>
</g>
</g>
</svg>
