<?xml version="1.0" encoding="UTF-8" standalone="no"?>
<!DOCTYPE svg PUBLIC "-//W3C//DTD SVG 1.1//EN"
 "http://www.w3.org/Graphics/SVG/1.1/DTD/svg11.dtd">
<!-- Generated by graphviz version 2.43.0 (0)
 -->
<!-- Title: include/K&#45;shortest_path/path_info.h Pages: 1 -->
<svg width="620pt" height="709pt"
 viewBox="0.00 0.00 619.70 709.00" xmlns="http://www.w3.org/2000/svg" xmlns:xlink="http://www.w3.org/1999/xlink">
<g id="graph0" class="graph" transform="scale(1 1) rotate(0) translate(4 705)">
<title>include/K&#45;shortest_path/path_info.h</title>
<polygon fill="white" stroke="transparent" points="-4,4 -4,-705 615.7,-705 615.7,4 -4,4"/>
<!-- Node1 -->
<g id="node1" class="node">
<title>Node1</title>
<g id="a_node1"><a xlink:title=" ">
<polygon fill="#bfbfbf" stroke="black" points="382.5,-670.5 382.5,-700.5 486.5,-700.5 486.5,-670.5 382.5,-670.5"/>
<text text-anchor="start" x="390.5" y="-688.5" font-family="Helvetica,sans-Serif" font-size="10.00">include/K&#45;shortest</text>
<text text-anchor="middle" x="434.5" y="-677.5" font-family="Helvetica,sans-Serif" font-size="10.00">_path/path_info.h</text>
</a>
</g>
</g>
<!-- Node2 -->
<g id="node2" class="node">
<title>Node2</title>
<g id="a_node2"><a xlink:href="path__converter_8h.html" target="_top" xlink:title=" ">
<polygon fill="white" stroke="black" points="267,-531 267,-561 384,-561 384,-531 267,-531"/>
<text text-anchor="start" x="275" y="-549" font-family="Helvetica,sans-Serif" font-size="10.00">include/Butcher/path</text>
<text text-anchor="middle" x="325.5" y="-538" font-family="Helvetica,sans-Serif" font-size="10.00">_converter.h</text>
</a>
</g>
</g>
<!-- Node1&#45;&gt;Node2 -->
<g id="edge1" class="edge">
<title>Node1&#45;&gt;Node2</title>
<path fill="none" stroke="midnightblue" d="M416.79,-662.15C394.21,-633.68 355.85,-585.29 336.86,-561.33"/>
<polygon fill="midnightblue" stroke="midnightblue" points="414.29,-664.64 423.25,-670.3 419.78,-660.29 414.29,-664.64"/>
</g>
<!-- Node14 -->
<g id="node14" class="node">
<title>Node14</title>
<g id="a_node14"><a xlink:href="heap__traits_8h.html" target="_top" xlink:title=" ">
<polygon fill="white" stroke="black" points="423.5,-603.5 423.5,-633.5 533.5,-633.5 533.5,-603.5 423.5,-603.5"/>
<text text-anchor="start" x="431.5" y="-621.5" font-family="Helvetica,sans-Serif" font-size="10.00">include/K&#45;shortest</text>
<text text-anchor="middle" x="478.5" y="-610.5" font-family="Helvetica,sans-Serif" font-size="10.00">_path/heap_traits.h</text>
</a>
</g>
</g>
<!-- Node1&#45;&gt;Node14 -->
<g id="edge15" class="edge">
<title>Node1&#45;&gt;Node14</title>
<path fill="none" stroke="midnightblue" d="M449.82,-661.87C456.19,-652.46 463.38,-641.83 468.97,-633.58"/>
<polygon fill="midnightblue" stroke="midnightblue" points="446.75,-660.15 444.05,-670.4 452.55,-664.08 446.75,-660.15"/>
</g>
<!-- Node3 -->
<g id="node3" class="node">
<title>Node3</title>
<g id="a_node3"><a xlink:href="butcher_8h.html" target="_top" xlink:title=" ">
<polygon fill="white" stroke="black" points="312.5,-268.5 312.5,-287.5 452.5,-287.5 452.5,-268.5 312.5,-268.5"/>
<text text-anchor="middle" x="382.5" y="-275.5" font-family="Helvetica,sans-Serif" font-size="10.00">include/Butcher/butcher.h</text>
</a>
</g>
</g>
<!-- Node2&#45;&gt;Node3 -->
<g id="edge2" class="edge">
<title>Node2&#45;&gt;Node3</title>
<path fill="none" stroke="midnightblue" d="M322.03,-520.52C318.46,-489.8 314.78,-435.69 325.5,-391 335.47,-349.42 363.59,-305.86 376.22,-287.72"/>
<polygon fill="midnightblue" stroke="midnightblue" points="318.59,-521.24 323.31,-530.73 325.54,-520.37 318.59,-521.24"/>
</g>
<!-- Node4 -->
<g id="node4" class="node">
<title>Node4</title>
<g id="a_node4"><a xlink:href="onnx__importer__helpers_8h.html" target="_top" xlink:title=" ">
<polygon fill="white" stroke="black" points="312,-196 312,-226 453,-226 453,-196 312,-196"/>
<text text-anchor="start" x="320" y="-214" font-family="Helvetica,sans-Serif" font-size="10.00">include/IO_Interaction</text>
<text text-anchor="middle" x="382.5" y="-203" font-family="Helvetica,sans-Serif" font-size="10.00">/onnx_importer_helpers.h</text>
</a>
</g>
</g>
<!-- Node3&#45;&gt;Node4 -->
<g id="edge3" class="edge">
<title>Node3&#45;&gt;Node4</title>
<path fill="none" stroke="midnightblue" d="M382.5,-257.91C382.5,-247.72 382.5,-235.4 382.5,-226.09"/>
<polygon fill="midnightblue" stroke="midnightblue" points="379,-258.23 382.5,-268.23 386,-258.23 379,-258.23"/>
</g>
<!-- Node9 -->
<g id="node9" class="node">
<title>Node9</title>
<g id="a_node9"><a xlink:href="network__butcher_8h.html" target="_top" xlink:title=" ">
<polygon fill="white" stroke="black" points="433,-56.5 433,-75.5 578,-75.5 578,-56.5 433,-56.5"/>
<text text-anchor="middle" x="505.5" y="-63.5" font-family="Helvetica,sans-Serif" font-size="10.00">include/network_butcher.h</text>
</a>
</g>
</g>
<!-- Node3&#45;&gt;Node9 -->
<g id="edge14" class="edge">
<title>Node3&#45;&gt;Node9</title>
<path fill="none" stroke="midnightblue" d="M418.35,-264.31C434,-257.09 451.3,-246.53 462.5,-232 500.81,-182.29 505.16,-101.76 505.52,-75.54"/>
<polygon fill="midnightblue" stroke="midnightblue" points="416.68,-261.22 408.88,-268.39 419.45,-267.65 416.68,-261.22"/>
</g>
<!-- Node12 -->
<g id="node12" class="node">
<title>Node12</title>
<g id="a_node12"><a xlink:href="onnx__model__reconstructor__helpers_8h.html" target="_top" xlink:title=" ">
<polygon fill="white" stroke="black" points="145,-190.5 145,-231.5 294,-231.5 294,-190.5 145,-190.5"/>
<text text-anchor="start" x="153" y="-219.5" font-family="Helvetica,sans-Serif" font-size="10.00">include/IO_Interaction</text>
<text text-anchor="start" x="153" y="-208.5" font-family="Helvetica,sans-Serif" font-size="10.00">/onnx_model_reconstructor</text>
<text text-anchor="middle" x="219.5" y="-197.5" font-family="Helvetica,sans-Serif" font-size="10.00">_helpers.h</text>
</a>
</g>
</g>
<!-- Node3&#45;&gt;Node12 -->
<g id="edge11" class="edge">
<title>Node3&#45;&gt;Node12</title>
<path fill="none" stroke="midnightblue" d="M351.44,-264.62C328.08,-255.3 295.6,-242.35 268.71,-231.63"/>
<polygon fill="midnightblue" stroke="midnightblue" points="350.27,-267.92 360.85,-268.37 352.86,-261.41 350.27,-267.92"/>
</g>
<!-- Node5 -->
<g id="node5" class="node">
<title>Node5</title>
<g id="a_node5"><a xlink:href="io__manager_8h.html" target="_top" xlink:title=" ">
<polygon fill="white" stroke="black" points="167,-123.5 167,-142.5 288,-142.5 288,-123.5 167,-123.5"/>
<text text-anchor="middle" x="227.5" y="-130.5" font-family="Helvetica,sans-Serif" font-size="10.00">include/io_manager.h</text>
</a>
</g>
</g>
<!-- Node4&#45;&gt;Node5 -->
<g id="edge4" class="edge">
<title>Node4&#45;&gt;Node5</title>
<path fill="none" stroke="midnightblue" d="M344.7,-191.47C312.99,-175.92 269.12,-154.41 245.05,-142.61"/>
<polygon fill="midnightblue" stroke="midnightblue" points="343.19,-194.62 353.71,-195.88 346.27,-188.34 343.19,-194.62"/>
</g>
<!-- Node11 -->
<g id="node11" class="node">
<title>Node11</title>
<g id="a_node11"><a xlink:href="onnx__importer__helpers_8cpp.html" target="_top" xlink:title=" ">
<polygon fill="white" stroke="black" points="306.5,-118 306.5,-148 458.5,-148 458.5,-118 306.5,-118"/>
<text text-anchor="start" x="314.5" y="-136" font-family="Helvetica,sans-Serif" font-size="10.00">src/IO_Interaction</text>
<text text-anchor="middle" x="382.5" y="-125" font-family="Helvetica,sans-Serif" font-size="10.00">/onnx_importer_helpers.cpp</text>
</a>
</g>
</g>
<!-- Node4&#45;&gt;Node11 -->
<g id="edge10" class="edge">
<title>Node4&#45;&gt;Node11</title>
<path fill="none" stroke="midnightblue" d="M382.5,-185.59C382.5,-173.26 382.5,-158.72 382.5,-148.23"/>
<polygon fill="midnightblue" stroke="midnightblue" points="379,-185.7 382.5,-195.7 386,-185.71 379,-185.7"/>
</g>
<!-- Node6 -->
<g id="node6" class="node">
<title>Node6</title>
<g id="a_node6"><a xlink:href="general__manager_8h.html" target="_top" xlink:title=" ">
<polygon fill="white" stroke="black" points="200,-56.5 200,-75.5 349,-75.5 349,-56.5 200,-56.5"/>
<text text-anchor="middle" x="274.5" y="-63.5" font-family="Helvetica,sans-Serif" font-size="10.00">include/general_manager.h</text>
</a>
</g>
</g>
<!-- Node5&#45;&gt;Node6 -->
<g id="edge5" class="edge">
<title>Node5&#45;&gt;Node6</title>
<path fill="none" stroke="midnightblue" d="M239.86,-114.9C248.99,-102.27 261.05,-85.6 268.26,-75.63"/>
<polygon fill="midnightblue" stroke="midnightblue" points="236.86,-113.08 233.84,-123.23 242.53,-117.18 236.86,-113.08"/>
</g>
<!-- Node5&#45;&gt;Node9 -->
<g id="edge8" class="edge">
<title>Node5&#45;&gt;Node9</title>
<path fill="none" stroke="midnightblue" d="M265.89,-120.54C276.13,-117.62 287.2,-114.58 297.5,-112 353.94,-97.85 419.67,-84.08 461.89,-75.57"/>
<polygon fill="midnightblue" stroke="midnightblue" points="264.63,-117.26 255.99,-123.4 266.57,-123.99 264.63,-117.26"/>
</g>
<!-- Node10 -->
<g id="node10" class="node">
<title>Node10</title>
<g id="a_node10"><a xlink:href="io__manager_8cpp.html" target="_top" xlink:title=" ">
<polygon fill="white" stroke="black" points="71,-56.5 71,-75.5 182,-75.5 182,-56.5 71,-56.5"/>
<text text-anchor="middle" x="126.5" y="-63.5" font-family="Helvetica,sans-Serif" font-size="10.00">src/io_manager.cpp</text>
</a>
</g>
</g>
<!-- Node5&#45;&gt;Node10 -->
<g id="edge9" class="edge">
<title>Node5&#45;&gt;Node10</title>
<path fill="none" stroke="midnightblue" d="M205.39,-117.77C185.39,-104.9 156.61,-86.38 139.91,-75.63"/>
<polygon fill="midnightblue" stroke="midnightblue" points="203.58,-120.77 213.88,-123.23 207.36,-114.88 203.58,-120.77"/>
</g>
<!-- Node7 -->
<g id="node7" class="node">
<title>Node7</title>
<g id="a_node7"><a xlink:href="general__manager_8cpp.html" target="_top" xlink:title=" ">
<polygon fill="white" stroke="black" points="141,-0.5 141,-19.5 280,-19.5 280,-0.5 141,-0.5"/>
<text text-anchor="middle" x="210.5" y="-7.5" font-family="Helvetica,sans-Serif" font-size="10.00">src/general_manager.cpp</text>
</a>
</g>
</g>
<!-- Node6&#45;&gt;Node7 -->
<g id="edge6" class="edge">
<title>Node6&#45;&gt;Node7</title>
<path fill="none" stroke="midnightblue" d="M256.51,-49.82C245.04,-40.15 230.59,-27.95 220.97,-19.83"/>
<polygon fill="midnightblue" stroke="midnightblue" points="254.32,-52.55 264.22,-56.32 258.83,-47.2 254.32,-52.55"/>
</g>
<!-- Node8 -->
<g id="node8" class="node">
<title>Node8</title>
<g id="a_node8"><a xlink:href="main_8cpp.html" target="_top" xlink:title=" ">
<polygon fill="white" stroke="black" points="298,-0.5 298,-19.5 377,-19.5 377,-0.5 298,-0.5"/>
<text text-anchor="middle" x="337.5" y="-7.5" font-family="Helvetica,sans-Serif" font-size="10.00">src/main.cpp</text>
</a>
</g>
</g>
<!-- Node6&#45;&gt;Node8 -->
<g id="edge7" class="edge">
<title>Node6&#45;&gt;Node8</title>
<path fill="none" stroke="midnightblue" d="M292.54,-49.54C303.77,-39.91 317.82,-27.87 327.19,-19.83"/>
<polygon fill="midnightblue" stroke="midnightblue" points="289.94,-47.16 284.62,-56.32 294.49,-52.47 289.94,-47.16"/>
</g>
<!-- Node12&#45;&gt;Node5 -->
<g id="edge12" class="edge">
<title>Node12&#45;&gt;Node5</title>
<path fill="none" stroke="midnightblue" d="M222.61,-180.45C224.04,-166.86 225.63,-151.74 226.6,-142.55"/>
<polygon fill="midnightblue" stroke="midnightblue" points="219.13,-180.12 221.56,-190.43 226.09,-180.85 219.13,-180.12"/>
</g>
<!-- Node13 -->
<g id="node13" class="node">
<title>Node13</title>
<g id="a_node13"><a xlink:href="onnx__model__reconstructor__helpers_8cpp.html" target="_top" xlink:title=" ">
<polygon fill="white" stroke="black" points="0,-112.5 0,-153.5 149,-153.5 149,-112.5 0,-112.5"/>
<text text-anchor="start" x="8" y="-141.5" font-family="Helvetica,sans-Serif" font-size="10.00">src/IO_Interaction</text>
<text text-anchor="start" x="8" y="-130.5" font-family="Helvetica,sans-Serif" font-size="10.00">/onnx_model_reconstructor</text>
<text text-anchor="middle" x="74.5" y="-119.5" font-family="Helvetica,sans-Serif" font-size="10.00">_helpers.cpp</text>
</a>
</g>
</g>
<!-- Node12&#45;&gt;Node13 -->
<g id="edge13" class="edge">
<title>Node12&#45;&gt;Node13</title>
<path fill="none" stroke="midnightblue" d="M173.27,-185.77C153.39,-175.35 130.47,-163.34 111.71,-153.51"/>
<polygon fill="midnightblue" stroke="midnightblue" points="171.68,-188.89 182.16,-190.43 174.93,-182.69 171.68,-188.89"/>
</g>
<!-- Node14&#45;&gt;Node9 -->
<g id="edge25" class="edge">
<title>Node14&#45;&gt;Node9</title>
<path fill="none" stroke="midnightblue" d="M541.47,-599.48C558.49,-591.9 575.49,-581.39 587.5,-567 614.71,-534.39 611.5,-516.97 611.5,-474.5 611.5,-474.5 611.5,-474.5 611.5,-210 611.5,-148.19 546.8,-95.68 518.5,-75.66"/>
<polygon fill="midnightblue" stroke="midnightblue" points="539.93,-596.33 532.04,-603.4 542.62,-602.79 539.93,-596.33"/>
</g>
<!-- Node15 -->
<g id="node15" class="node">
<title>Node15</title>
<g id="a_node15"><a xlink:href="basic__keppstein_8h.html" target="_top" xlink:title=" ">
<polygon fill="white" stroke="black" points="409.5,-458.5 409.5,-488.5 543.5,-488.5 543.5,-458.5 409.5,-458.5"/>
<text text-anchor="start" x="417.5" y="-476.5" font-family="Helvetica,sans-Serif" font-size="10.00">include/K&#45;shortest</text>
<text text-anchor="middle" x="476.5" y="-465.5" font-family="Helvetica,sans-Serif" font-size="10.00">_path/basic_keppstein.h</text>
</a>
</g>
</g>
<!-- Node14&#45;&gt;Node15 -->
<g id="edge16" class="edge">
<title>Node14&#45;&gt;Node15</title>
<path fill="none" stroke="midnightblue" d="M466.03,-594.32C462.17,-585.96 458.43,-576.29 456.5,-567 452.69,-548.73 453,-543.34 456.5,-525 458.94,-512.22 464.56,-498.54 469.22,-488.65"/>
<polygon fill="midnightblue" stroke="midnightblue" points="462.95,-596 470.5,-603.44 469.24,-592.92 462.95,-596"/>
</g>
<!-- Node19 -->
<g id="node19" class="node">
<title>Node19</title>
<g id="a_node19"><a xlink:href="shortest__path__finder_8h.html" target="_top" xlink:title=" ">
<polygon fill="white" stroke="black" points="465,-525.5 465,-566.5 578,-566.5 578,-525.5 465,-525.5"/>
<text text-anchor="start" x="473" y="-554.5" font-family="Helvetica,sans-Serif" font-size="10.00">include/K&#45;shortest</text>
<text text-anchor="start" x="473" y="-543.5" font-family="Helvetica,sans-Serif" font-size="10.00">_path/shortest_path</text>
<text text-anchor="middle" x="521.5" y="-532.5" font-family="Helvetica,sans-Serif" font-size="10.00">_finder.h</text>
</a>
</g>
</g>
<!-- Node14&#45;&gt;Node19 -->
<g id="edge23" class="edge">
<title>Node14&#45;&gt;Node19</title>
<path fill="none" stroke="midnightblue" d="M492.41,-594.7C497.94,-585.63 504.23,-575.31 509.55,-566.59"/>
<polygon fill="midnightblue" stroke="midnightblue" points="489.42,-592.87 487.2,-603.23 495.4,-596.52 489.42,-592.87"/>
</g>
<!-- Node16 -->
<g id="node16" class="node">
<title>Node16</title>
<g id="a_node16"><a xlink:href="keppstein_8h.html" target="_top" xlink:title=" ">
<polygon fill="white" stroke="black" points="479.5,-391.5 479.5,-421.5 583.5,-421.5 583.5,-391.5 479.5,-391.5"/>
<text text-anchor="start" x="487.5" y="-409.5" font-family="Helvetica,sans-Serif" font-size="10.00">include/K&#45;shortest</text>
<text text-anchor="middle" x="531.5" y="-398.5" font-family="Helvetica,sans-Serif" font-size="10.00">_path/keppstein.h</text>
</a>
</g>
</g>
<!-- Node15&#45;&gt;Node16 -->
<g id="edge17" class="edge">
<title>Node15&#45;&gt;Node16</title>
<path fill="none" stroke="midnightblue" d="M494.92,-450.74C503.05,-441.12 512.39,-430.09 519.59,-421.58"/>
<polygon fill="midnightblue" stroke="midnightblue" points="492.22,-448.5 488.43,-458.4 497.57,-453.02 492.22,-448.5"/>
</g>
<!-- Node18 -->
<g id="node18" class="node">
<title>Node18</title>
<g id="a_node18"><a xlink:href="keppstein__lazy_8h.html" target="_top" xlink:title=" ">
<polygon fill="white" stroke="black" points="334,-391.5 334,-421.5 461,-421.5 461,-391.5 334,-391.5"/>
<text text-anchor="start" x="342" y="-409.5" font-family="Helvetica,sans-Serif" font-size="10.00">include/K&#45;shortest</text>
<text text-anchor="middle" x="397.5" y="-398.5" font-family="Helvetica,sans-Serif" font-size="10.00">_path/keppstein_lazy.h</text>
</a>
</g>
</g>
<!-- Node15&#45;&gt;Node18 -->
<g id="edge21" class="edge">
<title>Node15&#45;&gt;Node18</title>
<path fill="none" stroke="midnightblue" d="M451.44,-451.88C439.44,-442.01 425.37,-430.43 414.61,-421.58"/>
<polygon fill="midnightblue" stroke="midnightblue" points="449.41,-454.75 459.36,-458.4 453.86,-449.34 449.41,-454.75"/>
</g>
<!-- Node17 -->
<g id="node17" class="node">
<title>Node17</title>
<g id="a_node17"><a xlink:href="kfinder__factory_8h.html" target="_top" xlink:title=" ">
<polygon fill="white" stroke="black" points="411.5,-324.5 411.5,-354.5 539.5,-354.5 539.5,-324.5 411.5,-324.5"/>
<text text-anchor="start" x="419.5" y="-342.5" font-family="Helvetica,sans-Serif" font-size="10.00">include/K&#45;shortest</text>
<text text-anchor="middle" x="475.5" y="-331.5" font-family="Helvetica,sans-Serif" font-size="10.00">_path/kfinder_factory.h</text>
</a>
</g>
</g>
<!-- Node16&#45;&gt;Node17 -->
<g id="edge18" class="edge">
<title>Node16&#45;&gt;Node17</title>
<path fill="none" stroke="midnightblue" d="M512.75,-383.74C504.46,-374.12 494.96,-363.09 487.63,-354.58"/>
<polygon fill="midnightblue" stroke="midnightblue" points="510.17,-386.1 519.35,-391.4 515.47,-381.54 510.17,-386.1"/>
</g>
<!-- Node17&#45;&gt;Node3 -->
<g id="edge19" class="edge">
<title>Node17&#45;&gt;Node3</title>
<path fill="none" stroke="midnightblue" d="M444.67,-318.78C428.19,-308.23 408.73,-295.78 396.03,-287.66"/>
<polygon fill="midnightblue" stroke="midnightblue" points="443.15,-321.96 453.46,-324.4 446.92,-316.06 443.15,-321.96"/>
</g>
<!-- Node17&#45;&gt;Node9 -->
<g id="edge20" class="edge">
<title>Node17&#45;&gt;Node9</title>
<path fill="none" stroke="midnightblue" d="M481.55,-314.49C490.03,-279.48 505.02,-212.24 510.5,-154 512.25,-135.42 511.53,-130.64 510.5,-112 509.8,-99.29 507.98,-84.64 506.74,-75.6"/>
<polygon fill="midnightblue" stroke="midnightblue" points="478.13,-313.73 479.15,-324.28 484.93,-315.4 478.13,-313.73"/>
</g>
<!-- Node18&#45;&gt;Node17 -->
<g id="edge22" class="edge">
<title>Node18&#45;&gt;Node17</title>
<path fill="none" stroke="midnightblue" d="M422.24,-384.88C434.09,-375.01 447.98,-363.43 458.61,-354.58"/>
<polygon fill="midnightblue" stroke="midnightblue" points="419.87,-382.31 414.42,-391.4 424.35,-387.68 419.87,-382.31"/>
</g>
<!-- Node19&#45;&gt;Node15 -->
<g id="edge24" class="edge">
<title>Node19&#45;&gt;Node15</title>
<path fill="none" stroke="midnightblue" d="M503.53,-516.85C497.41,-507.26 490.83,-496.94 485.69,-488.89"/>
<polygon fill="midnightblue" stroke="midnightblue" points="500.63,-518.82 508.96,-525.36 506.53,-515.05 500.63,-518.82"/>
</g>
</g>
</svg>
