<?xml version="1.0" encoding="UTF-8" standalone="no"?>
<!DOCTYPE svg PUBLIC "-//W3C//DTD SVG 1.1//EN"
 "http://www.w3.org/Graphics/SVG/1.1/DTD/svg11.dtd">
<!-- Generated by graphviz version 2.43.0 (0)
 -->
<!-- Title: include/network_butcher/Types/paths.h Pages: 1 -->
<svg width="523pt" height="463pt"
 viewBox="0.00 0.00 522.50 463.00" xmlns="http://www.w3.org/2000/svg" xmlns:xlink="http://www.w3.org/1999/xlink">
<g id="graph0" class="graph" transform="scale(1 1) rotate(0) translate(4 459)">
<title>include/network_butcher/Types/paths.h</title>
<polygon fill="white" stroke="transparent" points="-4,4 -4,-459 518.5,-459 518.5,4 -4,4"/>
<!-- Node1 -->
<g id="node1" class="node">
<title>Node1</title>
<g id="a_node1"><a xlink:title=" ">
<polygon fill="#bfbfbf" stroke="black" points="325,-424.5 325,-454.5 462,-454.5 462,-424.5 325,-424.5"/>
<text text-anchor="start" x="333" y="-442.5" font-family="Helvetica,sans-Serif" font-size="10.00">include/network_butcher</text>
<text text-anchor="middle" x="393.5" y="-431.5" font-family="Helvetica,sans-Serif" font-size="10.00">/Types/paths.h</text>
</a>
</g>
</g>
<!-- Node2 -->
<g id="node2" class="node">
<title>Node2</title>
<g id="a_node2"><a xlink:href="butcher_8h.html" target="_top" xlink:title=" ">
<polygon fill="white" stroke="black" points="325,-290.5 325,-320.5 462,-320.5 462,-290.5 325,-290.5"/>
<text text-anchor="start" x="333" y="-308.5" font-family="Helvetica,sans-Serif" font-size="10.00">include/network_butcher</text>
<text text-anchor="middle" x="393.5" y="-297.5" font-family="Helvetica,sans-Serif" font-size="10.00">/Butcher/butcher.h</text>
</a>
</g>
</g>
<!-- Node1&#45;&gt;Node2 -->
<g id="edge1" class="edge">
<title>Node1&#45;&gt;Node2</title>
<path fill="none" stroke="midnightblue" d="M376.65,-416.02C371.36,-407.67 366.2,-397.82 363.5,-388 359.85,-374.71 359.85,-370.29 363.5,-357 367.17,-343.63 375.41,-330.21 382.33,-320.57"/>
<polygon fill="midnightblue" stroke="midnightblue" points="373.83,-418.1 382.33,-424.43 379.63,-414.18 373.83,-418.1"/>
</g>
<!-- Node12 -->
<g id="node12" class="node">
<title>Node12</title>
<g id="a_node12"><a xlink:href="path__converter_8h.html" target="_top" xlink:title=" ">
<polygon fill="white" stroke="black" points="372.5,-357.5 372.5,-387.5 514.5,-387.5 514.5,-357.5 372.5,-357.5"/>
<text text-anchor="start" x="380.5" y="-375.5" font-family="Helvetica,sans-Serif" font-size="10.00">include/network_butcher</text>
<text text-anchor="middle" x="443.5" y="-364.5" font-family="Helvetica,sans-Serif" font-size="10.00">/Butcher/path_converter.h</text>
</a>
</g>
</g>
<!-- Node1&#45;&gt;Node12 -->
<g id="edge14" class="edge">
<title>Node1&#45;&gt;Node12</title>
<path fill="none" stroke="midnightblue" d="M410.46,-416.45C417.81,-406.9 426.19,-396 432.67,-387.58"/>
<polygon fill="midnightblue" stroke="midnightblue" points="407.67,-414.34 404.35,-424.4 413.22,-418.6 407.67,-414.34"/>
</g>
<!-- Node3 -->
<g id="node3" class="node">
<title>Node3</title>
<g id="a_node3"><a xlink:href="onnx__model__reconstructor__helpers_8h.html" target="_top" xlink:title=" ">
<polygon fill="white" stroke="black" points="143,-212.5 143,-253.5 294,-253.5 294,-212.5 143,-212.5"/>
<text text-anchor="start" x="151" y="-241.5" font-family="Helvetica,sans-Serif" font-size="10.00">include/network_butcher</text>
<text text-anchor="start" x="151" y="-230.5" font-family="Helvetica,sans-Serif" font-size="10.00">/IO_Interaction/onnx_model</text>
<text text-anchor="middle" x="218.5" y="-219.5" font-family="Helvetica,sans-Serif" font-size="10.00">_reconstructor_helpers.h</text>
</a>
</g>
</g>
<!-- Node2&#45;&gt;Node3 -->
<g id="edge2" class="edge">
<title>Node2&#45;&gt;Node3</title>
<path fill="none" stroke="midnightblue" d="M348.9,-286.53C323.88,-276.45 292.65,-263.87 267.02,-253.55"/>
<polygon fill="midnightblue" stroke="midnightblue" points="347.92,-289.91 358.51,-290.4 350.54,-283.42 347.92,-289.91"/>
</g>
<!-- Node6 -->
<g id="node6" class="node">
<title>Node6</title>
<g id="a_node6"><a xlink:href="network__butcher_8h.html" target="_top" xlink:title=" ">
<polygon fill="white" stroke="black" points="322,-0.5 322,-30.5 459,-30.5 459,-0.5 322,-0.5"/>
<text text-anchor="start" x="330" y="-18.5" font-family="Helvetica,sans-Serif" font-size="10.00">include/network_butcher</text>
<text text-anchor="middle" x="390.5" y="-7.5" font-family="Helvetica,sans-Serif" font-size="10.00">/network_butcher.h</text>
</a>
</g>
</g>
<!-- Node2&#45;&gt;Node6 -->
<g id="edge13" class="edge">
<title>Node2&#45;&gt;Node6</title>
<path fill="none" stroke="midnightblue" d="M447.95,-285.74C461.99,-278.15 475.41,-267.82 483.5,-254 510.45,-207.98 501.02,-184.37 483.5,-134 468.37,-90.51 429.7,-50.99 407.28,-30.74"/>
<polygon fill="midnightblue" stroke="midnightblue" points="446.08,-282.76 438.68,-290.34 449.2,-289.03 446.08,-282.76"/>
</g>
<!-- Node10 -->
<g id="node10" class="node">
<title>Node10</title>
<g id="a_node10"><a xlink:href="onnx__importer__helpers_8h.html" target="_top" xlink:title=" ">
<polygon fill="white" stroke="black" points="312.5,-212.5 312.5,-253.5 474.5,-253.5 474.5,-212.5 312.5,-212.5"/>
<text text-anchor="start" x="320.5" y="-241.5" font-family="Helvetica,sans-Serif" font-size="10.00">include/network_butcher</text>
<text text-anchor="start" x="320.5" y="-230.5" font-family="Helvetica,sans-Serif" font-size="10.00">/IO_Interaction/onnx_importer</text>
<text text-anchor="middle" x="393.5" y="-219.5" font-family="Helvetica,sans-Serif" font-size="10.00">_helpers.h</text>
</a>
</g>
</g>
<!-- Node2&#45;&gt;Node10 -->
<g id="edge10" class="edge">
<title>Node2&#45;&gt;Node10</title>
<path fill="none" stroke="midnightblue" d="M393.5,-279.98C393.5,-271.35 393.5,-261.76 393.5,-253.59"/>
<polygon fill="midnightblue" stroke="midnightblue" points="390,-280.23 393.5,-290.23 397,-280.23 390,-280.23"/>
</g>
<!-- Node4 -->
<g id="node4" class="node">
<title>Node4</title>
<g id="a_node4"><a xlink:href="io__manager_8h.html" target="_top" xlink:title=" ">
<polygon fill="white" stroke="black" points="167,-140 167,-170 304,-170 304,-140 167,-140"/>
<text text-anchor="start" x="175" y="-158" font-family="Helvetica,sans-Serif" font-size="10.00">include/network_butcher</text>
<text text-anchor="middle" x="235.5" y="-147" font-family="Helvetica,sans-Serif" font-size="10.00">/io_manager.h</text>
</a>
</g>
</g>
<!-- Node3&#45;&gt;Node4 -->
<g id="edge3" class="edge">
<title>Node3&#45;&gt;Node4</title>
<path fill="none" stroke="midnightblue" d="M225.07,-202.62C227.56,-191.5 230.28,-179.34 232.32,-170.23"/>
<polygon fill="midnightblue" stroke="midnightblue" points="221.65,-201.91 222.88,-212.43 228.48,-203.43 221.65,-201.91"/>
</g>
<!-- Node9 -->
<g id="node9" class="node">
<title>Node9</title>
<g id="a_node9"><a xlink:href="onnx__model__reconstructor__helpers_8cpp.html" target="_top" xlink:title=" ">
<polygon fill="white" stroke="black" points="0,-134.5 0,-175.5 149,-175.5 149,-134.5 0,-134.5"/>
<text text-anchor="start" x="8" y="-163.5" font-family="Helvetica,sans-Serif" font-size="10.00">src/IO_Interaction</text>
<text text-anchor="start" x="8" y="-152.5" font-family="Helvetica,sans-Serif" font-size="10.00">/onnx_model_reconstructor</text>
<text text-anchor="middle" x="74.5" y="-141.5" font-family="Helvetica,sans-Serif" font-size="10.00">_helpers.cpp</text>
</a>
</g>
</g>
<!-- Node3&#45;&gt;Node9 -->
<g id="edge9" class="edge">
<title>Node3&#45;&gt;Node9</title>
<path fill="none" stroke="midnightblue" d="M172.32,-207.63C152.64,-197.24 130,-185.29 111.46,-175.51"/>
<polygon fill="midnightblue" stroke="midnightblue" points="170.94,-210.86 181.42,-212.43 174.21,-204.67 170.94,-210.86"/>
</g>
<!-- Node5 -->
<g id="node5" class="node">
<title>Node5</title>
<g id="a_node5"><a xlink:href="general__manager_8h.html" target="_top" xlink:title=" ">
<polygon fill="white" stroke="black" points="96,-67.5 96,-97.5 233,-97.5 233,-67.5 96,-67.5"/>
<text text-anchor="start" x="104" y="-85.5" font-family="Helvetica,sans-Serif" font-size="10.00">include/network_butcher</text>
<text text-anchor="middle" x="164.5" y="-74.5" font-family="Helvetica,sans-Serif" font-size="10.00">/general_manager.h</text>
</a>
</g>
</g>
<!-- Node4&#45;&gt;Node5 -->
<g id="edge4" class="edge">
<title>Node4&#45;&gt;Node5</title>
<path fill="none" stroke="midnightblue" d="M213.71,-132.36C202.38,-121.11 188.85,-107.68 178.85,-97.75"/>
<polygon fill="midnightblue" stroke="midnightblue" points="211.57,-135.17 221.13,-139.73 216.5,-130.2 211.57,-135.17"/>
</g>
<!-- Node4&#45;&gt;Node6 -->
<g id="edge7" class="edge">
<title>Node4&#45;&gt;Node6</title>
<path fill="none" stroke="midnightblue" d="M291.28,-136.56C323.38,-125.47 359.49,-110.83 370.5,-98 386.91,-78.87 390.28,-48.38 390.73,-30.61"/>
<polygon fill="midnightblue" stroke="midnightblue" points="289.82,-133.36 281.48,-139.89 292.07,-139.99 289.82,-133.36"/>
</g>
<!-- Node8 -->
<g id="node8" class="node">
<title>Node8</title>
<g id="a_node8"><a xlink:href="io__manager_8cpp.html" target="_top" xlink:title=" ">
<polygon fill="white" stroke="black" points="251,-73 251,-92 362,-92 362,-73 251,-73"/>
<text text-anchor="middle" x="306.5" y="-80" font-family="Helvetica,sans-Serif" font-size="10.00">src/io_manager.cpp</text>
</a>
</g>
</g>
<!-- Node4&#45;&gt;Node8 -->
<g id="edge8" class="edge">
<title>Node4&#45;&gt;Node8</title>
<path fill="none" stroke="midnightblue" d="M257.01,-132.64C270.59,-119.15 287.42,-102.44 297.54,-92.39"/>
<polygon fill="midnightblue" stroke="midnightblue" points="254.5,-130.2 249.87,-139.73 259.43,-135.17 254.5,-130.2"/>
</g>
<!-- Node5&#45;&gt;Node6 -->
<g id="edge5" class="edge">
<title>Node5&#45;&gt;Node6</title>
<path fill="none" stroke="midnightblue" d="M223.33,-64.58C260.04,-54.02 306.73,-40.59 341.44,-30.61"/>
<polygon fill="midnightblue" stroke="midnightblue" points="221.9,-61.35 213.26,-67.48 223.84,-68.08 221.9,-61.35"/>
</g>
<!-- Node7 -->
<g id="node7" class="node">
<title>Node7</title>
<g id="a_node7"><a xlink:href="general__manager_8cpp.html" target="_top" xlink:title=" ">
<polygon fill="white" stroke="black" points="95,-6 95,-25 234,-25 234,-6 95,-6"/>
<text text-anchor="middle" x="164.5" y="-13" font-family="Helvetica,sans-Serif" font-size="10.00">src/general_manager.cpp</text>
</a>
</g>
</g>
<!-- Node5&#45;&gt;Node7 -->
<g id="edge6" class="edge">
<title>Node5&#45;&gt;Node7</title>
<path fill="none" stroke="midnightblue" d="M164.5,-57.25C164.5,-46.02 164.5,-33.38 164.5,-25.19"/>
<polygon fill="midnightblue" stroke="midnightblue" points="161,-57.4 164.5,-67.4 168,-57.4 161,-57.4"/>
</g>
<!-- Node10&#45;&gt;Node4 -->
<g id="edge11" class="edge">
<title>Node10&#45;&gt;Node4</title>
<path fill="none" stroke="midnightblue" d="M343.54,-207.97C317.73,-195.55 287.11,-180.83 265.07,-170.23"/>
<polygon fill="midnightblue" stroke="midnightblue" points="342.28,-211.25 352.81,-212.43 345.32,-204.94 342.28,-211.25"/>
</g>
<!-- Node11 -->
<g id="node11" class="node">
<title>Node11</title>
<g id="a_node11"><a xlink:href="onnx__importer__helpers_8cpp.html" target="_top" xlink:title=" ">
<polygon fill="white" stroke="black" points="322.5,-140 322.5,-170 474.5,-170 474.5,-140 322.5,-140"/>
<text text-anchor="start" x="330.5" y="-158" font-family="Helvetica,sans-Serif" font-size="10.00">src/IO_Interaction</text>
<text text-anchor="middle" x="398.5" y="-147" font-family="Helvetica,sans-Serif" font-size="10.00">/onnx_importer_helpers.cpp</text>
</a>
</g>
</g>
<!-- Node10&#45;&gt;Node11 -->
<g id="edge12" class="edge">
<title>Node10&#45;&gt;Node11</title>
<path fill="none" stroke="midnightblue" d="M395.46,-202.28C396.18,-191.25 396.97,-179.25 397.56,-170.23"/>
<polygon fill="midnightblue" stroke="midnightblue" points="391.95,-202.22 394.79,-212.43 398.94,-202.68 391.95,-202.22"/>
</g>
<!-- Node12&#45;&gt;Node2 -->
<g id="edge15" class="edge">
<title>Node12&#45;&gt;Node2</title>
<path fill="none" stroke="midnightblue" d="M426.54,-349.45C419.19,-339.9 410.81,-329 404.33,-320.58"/>
<polygon fill="midnightblue" stroke="midnightblue" points="423.78,-351.6 432.65,-357.4 429.33,-347.34 423.78,-351.6"/>
</g>
</g>
</svg>
