<?xml version="1.0" encoding="UTF-8" standalone="no"?>
<!DOCTYPE svg PUBLIC "-//W3C//DTD SVG 1.1//EN"
 "http://www.w3.org/Graphics/SVG/1.1/DTD/svg11.dtd">
<!-- Generated by graphviz version 2.43.0 (0)
 -->
<!-- Title: include/K&#45;shortest_path/shortest_path_finder.h Pages: 1 -->
<svg width="619pt" height="330pt"
 viewBox="0.00 0.00 618.50 330.00" xmlns="http://www.w3.org/2000/svg" xmlns:xlink="http://www.w3.org/1999/xlink">
<g id="graph0" class="graph" transform="scale(1 1) rotate(0) translate(4 326)">
<title>include/K&#45;shortest_path/shortest_path_finder.h</title>
<polygon fill="white" stroke="transparent" points="-4,4 -4,-326 614.5,-326 614.5,4 -4,4"/>
<!-- Node1 -->
<g id="node1" class="node">
<title>Node1</title>
<g id="a_node1"><a xlink:title=" ">
<polygon fill="#bfbfbf" stroke="black" points="459.5,-280.5 459.5,-321.5 572.5,-321.5 572.5,-280.5 459.5,-280.5"/>
<text text-anchor="start" x="467.5" y="-309.5" font-family="Helvetica,sans-Serif" font-size="10.00">include/K&#45;shortest</text>
<text text-anchor="start" x="467.5" y="-298.5" font-family="Helvetica,sans-Serif" font-size="10.00">_path/shortest_path</text>
<text text-anchor="middle" x="516" y="-287.5" font-family="Helvetica,sans-Serif" font-size="10.00">_finder.h</text>
</a>
</g>
</g>
<!-- Node2 -->
<g id="node2" class="node">
<title>Node2</title>
<g id="a_node2"><a xlink:href="heap__traits_8h.html" target="_top" xlink:title=" ">
<polygon fill="white" stroke="black" points="164,-224.5 164,-243.5 244,-243.5 244,-224.5 164,-224.5"/>
<text text-anchor="middle" x="204" y="-231.5" font-family="Helvetica,sans-Serif" font-size="10.00">heap_traits.h</text>
</a>
</g>
</g>
<!-- Node1&#45;&gt;Node2 -->
<g id="edge1" class="edge">
<title>Node1&#45;&gt;Node2</title>
<path fill="none" stroke="midnightblue" d="M459.5,-288.23C400.98,-276.04 310.39,-257.17 254.28,-245.47"/>
<polygon fill="midnightblue" stroke="midnightblue" points="254.72,-241.99 244.22,-243.38 253.29,-248.84 254.72,-241.99"/>
</g>
<!-- Node4 -->
<g id="node4" class="node">
<title>Node4</title>
<g id="a_node4"><a xlink:title=" ">
<polygon fill="white" stroke="#bfbfbf" points="463,-112.5 463,-131.5 507,-131.5 507,-112.5 463,-112.5"/>
<text text-anchor="middle" x="485" y="-119.5" font-family="Helvetica,sans-Serif" font-size="10.00">limits</text>
</a>
</g>
</g>
<!-- Node1&#45;&gt;Node4 -->
<g id="edge25" class="edge">
<title>Node1&#45;&gt;Node4</title>
<path fill="none" stroke="midnightblue" d="M512.56,-280.38C506.53,-245.93 494.11,-175.04 488.23,-141.44"/>
<polygon fill="midnightblue" stroke="midnightblue" points="491.68,-140.83 486.5,-131.58 484.78,-142.04 491.68,-140.83"/>
</g>
<!-- Node17 -->
<g id="node17" class="node">
<title>Node17</title>
<g id="a_node17"><a xlink:title=" ">
<polygon fill="white" stroke="#bfbfbf" points="348.5,-0.5 348.5,-19.5 395.5,-19.5 395.5,-0.5 348.5,-0.5"/>
<text text-anchor="middle" x="372" y="-7.5" font-family="Helvetica,sans-Serif" font-size="10.00">vector</text>
</a>
</g>
</g>
<!-- Node1&#45;&gt;Node17 -->
<g id="edge27" class="edge">
<title>Node1&#45;&gt;Node17</title>
<path fill="none" stroke="midnightblue" d="M520.99,-280.45C526.62,-256.65 535,-215.15 535,-179 535,-179 535,-179 535,-121 535,-59.14 453.33,-29.74 405.61,-17.84"/>
<polygon fill="midnightblue" stroke="midnightblue" points="406.24,-14.39 395.7,-15.5 404.63,-21.2 406.24,-14.39"/>
</g>
<!-- Node20 -->
<g id="node20" class="node">
<title>Node20</title>
<g id="a_node20"><a xlink:title=" ">
<polygon fill="white" stroke="#bfbfbf" points="563.5,-224.5 563.5,-243.5 610.5,-243.5 610.5,-224.5 563.5,-224.5"/>
<text text-anchor="middle" x="587" y="-231.5" font-family="Helvetica,sans-Serif" font-size="10.00">queue</text>
</a>
</g>
</g>
<!-- Node1&#45;&gt;Node20 -->
<g id="edge26" class="edge">
<title>Node1&#45;&gt;Node20</title>
<path fill="none" stroke="midnightblue" d="M537.3,-280.5C547.77,-270.92 560.21,-259.53 570.02,-250.54"/>
<polygon fill="midnightblue" stroke="midnightblue" points="572.54,-252.99 577.55,-243.65 567.81,-247.82 572.54,-252.99"/>
</g>
<!-- Node3 -->
<g id="node3" class="node">
<title>Node3</title>
<g id="a_node3"><a xlink:href="heap__eppstein_8h.html" target="_top" xlink:title=" ">
<polygon fill="white" stroke="black" points="271.5,-168.5 271.5,-187.5 368.5,-187.5 368.5,-168.5 271.5,-168.5"/>
<text text-anchor="middle" x="320" y="-175.5" font-family="Helvetica,sans-Serif" font-size="10.00">heap_eppstein.h</text>
</a>
</g>
</g>
<!-- Node2&#45;&gt;Node3 -->
<g id="edge2" class="edge">
<title>Node2&#45;&gt;Node3</title>
<path fill="none" stroke="midnightblue" d="M222.38,-224.44C241.22,-215.68 270.73,-201.94 292.38,-191.86"/>
<polygon fill="midnightblue" stroke="midnightblue" points="294.12,-194.91 301.71,-187.52 291.16,-188.56 294.12,-194.91"/>
</g>
<!-- Node10 -->
<g id="node10" class="node">
<title>Node10</title>
<g id="a_node10"><a xlink:href="traits_8h.html" target="_top" xlink:title=" ">
<polygon fill="white" stroke="black" points="65.5,-112.5 65.5,-131.5 116.5,-131.5 116.5,-112.5 65.5,-112.5"/>
<text text-anchor="middle" x="91" y="-119.5" font-family="Helvetica,sans-Serif" font-size="10.00">traits.h</text>
</a>
</g>
</g>
<!-- Node2&#45;&gt;Node10 -->
<g id="edge22" class="edge">
<title>Node2&#45;&gt;Node10</title>
<path fill="none" stroke="midnightblue" d="M163.8,-227.8C119.47,-221.14 52.34,-208.02 37,-188 23.16,-169.94 45.9,-149.91 65.98,-136.93"/>
<polygon fill="midnightblue" stroke="midnightblue" points="67.89,-139.86 74.59,-131.65 64.24,-133.89 67.89,-139.86"/>
</g>
<!-- Node18 -->
<g id="node18" class="node">
<title>Node18</title>
<g id="a_node18"><a xlink:href="path__info_8h.html" target="_top" xlink:title=" ">
<polygon fill="white" stroke="black" points="168.5,-168.5 168.5,-187.5 239.5,-187.5 239.5,-168.5 168.5,-168.5"/>
<text text-anchor="middle" x="204" y="-175.5" font-family="Helvetica,sans-Serif" font-size="10.00">path_info.h</text>
</a>
</g>
</g>
<!-- Node2&#45;&gt;Node18 -->
<g id="edge19" class="edge">
<title>Node2&#45;&gt;Node18</title>
<path fill="none" stroke="midnightblue" d="M204,-224.08C204,-217.01 204,-206.86 204,-197.99"/>
<polygon fill="midnightblue" stroke="midnightblue" points="207.5,-197.75 204,-187.75 200.5,-197.75 207.5,-197.75"/>
</g>
<!-- Node19 -->
<g id="node19" class="node">
<title>Node19</title>
<g id="a_node19"><a xlink:href="weighted__graph_8h.html" target="_top" xlink:title=" ">
<polygon fill="white" stroke="black" points="46,-168.5 46,-187.5 150,-187.5 150,-168.5 46,-168.5"/>
<text text-anchor="middle" x="98" y="-175.5" font-family="Helvetica,sans-Serif" font-size="10.00">weighted_graph.h</text>
</a>
</g>
</g>
<!-- Node2&#45;&gt;Node19 -->
<g id="edge23" class="edge">
<title>Node2&#45;&gt;Node19</title>
<path fill="none" stroke="midnightblue" d="M186.97,-224.32C169.97,-215.66 143.62,-202.24 124.01,-192.25"/>
<polygon fill="midnightblue" stroke="midnightblue" points="125.49,-189.08 114.99,-187.65 122.31,-195.31 125.49,-189.08"/>
</g>
<!-- Node3&#45;&gt;Node4 -->
<g id="edge3" class="edge">
<title>Node3&#45;&gt;Node4</title>
<path fill="none" stroke="midnightblue" d="M346.14,-168.44C375.25,-158.92 422.29,-143.52 453.43,-133.33"/>
<polygon fill="midnightblue" stroke="midnightblue" points="454.52,-136.66 462.94,-130.22 452.35,-130 454.52,-136.66"/>
</g>
<!-- Node5 -->
<g id="node5" class="node">
<title>Node5</title>
<g id="a_node5"><a xlink:title=" ">
<polygon fill="white" stroke="#bfbfbf" points="311,-112.5 311,-131.5 343,-131.5 343,-112.5 311,-112.5"/>
<text text-anchor="middle" x="327" y="-119.5" font-family="Helvetica,sans-Serif" font-size="10.00">list</text>
</a>
</g>
</g>
<!-- Node3&#45;&gt;Node5 -->
<g id="edge4" class="edge">
<title>Node3&#45;&gt;Node5</title>
<path fill="none" stroke="midnightblue" d="M321.16,-168.08C322.08,-160.93 323.42,-150.64 324.58,-141.69"/>
<polygon fill="midnightblue" stroke="midnightblue" points="328.05,-142.12 325.87,-131.75 321.11,-141.22 328.05,-142.12"/>
</g>
<!-- Node6 -->
<g id="node6" class="node">
<title>Node6</title>
<g id="a_node6"><a xlink:title=" ">
<polygon fill="white" stroke="#bfbfbf" points="332,-56.5 332,-75.5 390,-75.5 390,-56.5 332,-56.5"/>
<text text-anchor="middle" x="361" y="-63.5" font-family="Helvetica,sans-Serif" font-size="10.00">memory</text>
</a>
</g>
</g>
<!-- Node3&#45;&gt;Node6 -->
<g id="edge5" class="edge">
<title>Node3&#45;&gt;Node6</title>
<path fill="none" stroke="midnightblue" d="M328.02,-168.45C335.53,-159.92 346.41,-146.08 352,-132 357.85,-117.26 360,-99.33 360.74,-86.04"/>
<polygon fill="midnightblue" stroke="midnightblue" points="364.25,-85.86 361.09,-75.75 357.26,-85.62 364.25,-85.86"/>
</g>
<!-- Node7 -->
<g id="node7" class="node">
<title>Node7</title>
<g id="a_node7"><a xlink:title=" ">
<polygon fill="white" stroke="#bfbfbf" points="399.5,-112.5 399.5,-131.5 444.5,-131.5 444.5,-112.5 399.5,-112.5"/>
<text text-anchor="middle" x="422" y="-119.5" font-family="Helvetica,sans-Serif" font-size="10.00">utility</text>
</a>
</g>
</g>
<!-- Node3&#45;&gt;Node7 -->
<g id="edge6" class="edge">
<title>Node3&#45;&gt;Node7</title>
<path fill="none" stroke="midnightblue" d="M336.39,-168.32C352.67,-159.7 377.87,-146.36 396.72,-136.39"/>
<polygon fill="midnightblue" stroke="midnightblue" points="398.45,-139.43 405.65,-131.65 395.18,-133.24 398.45,-139.43"/>
</g>
<!-- Node8 -->
<g id="node8" class="node">
<title>Node8</title>
<g id="a_node8"><a xlink:title=" ">
<polygon fill="white" stroke="#bfbfbf" points="237,-112.5 237,-131.5 293,-131.5 293,-112.5 237,-112.5"/>
<text text-anchor="middle" x="265" y="-119.5" font-family="Helvetica,sans-Serif" font-size="10.00">numeric</text>
</a>
</g>
</g>
<!-- Node3&#45;&gt;Node8 -->
<g id="edge7" class="edge">
<title>Node3&#45;&gt;Node8</title>
<path fill="none" stroke="midnightblue" d="M310.92,-168.08C302.83,-160.14 290.8,-148.34 281.09,-138.8"/>
<polygon fill="midnightblue" stroke="midnightblue" points="283.5,-136.26 273.91,-131.75 278.6,-141.25 283.5,-136.26"/>
</g>
<!-- Node9 -->
<g id="node9" class="node">
<title>Node9</title>
<g id="a_node9"><a xlink:href="crtp__greater_8h.html" target="_top" xlink:title=" ">
<polygon fill="white" stroke="black" points="135,-112.5 135,-131.5 219,-131.5 219,-112.5 135,-112.5"/>
<text text-anchor="middle" x="177" y="-119.5" font-family="Helvetica,sans-Serif" font-size="10.00">crtp_greater.h</text>
</a>
</g>
</g>
<!-- Node3&#45;&gt;Node9 -->
<g id="edge8" class="edge">
<title>Node3&#45;&gt;Node9</title>
<path fill="none" stroke="midnightblue" d="M297.34,-168.44C273.6,-159.48 236.09,-145.31 209.26,-135.18"/>
<polygon fill="midnightblue" stroke="midnightblue" points="210.14,-131.77 199.55,-131.52 207.67,-138.32 210.14,-131.77"/>
</g>
<!-- Node3&#45;&gt;Node10 -->
<g id="edge9" class="edge">
<title>Node3&#45;&gt;Node10</title>
<path fill="none" stroke="midnightblue" d="M282.02,-168.47C244.93,-160.08 186.63,-146.72 126.63,-132.11"/>
<polygon fill="midnightblue" stroke="midnightblue" points="127.14,-128.63 116.6,-129.66 125.48,-135.43 127.14,-128.63"/>
</g>
<!-- Node10&#45;&gt;Node6 -->
<g id="edge12" class="edge">
<title>Node10&#45;&gt;Node6</title>
<path fill="none" stroke="midnightblue" d="M116.57,-114.23C119.74,-113.45 122.94,-112.69 126,-112 194.59,-96.63 275.17,-81.92 321.93,-73.71"/>
<polygon fill="midnightblue" stroke="midnightblue" points="322.69,-77.13 331.94,-71.96 321.48,-70.24 322.69,-77.13"/>
</g>
<!-- Node11 -->
<g id="node11" class="node">
<title>Node11</title>
<g id="a_node11"><a xlink:title=" ">
<polygon fill="white" stroke="#bfbfbf" points="33,-56.5 33,-75.5 65,-75.5 65,-56.5 33,-56.5"/>
<text text-anchor="middle" x="49" y="-63.5" font-family="Helvetica,sans-Serif" font-size="10.00">set</text>
</a>
</g>
</g>
<!-- Node10&#45;&gt;Node11 -->
<g id="edge10" class="edge">
<title>Node10&#45;&gt;Node11</title>
<path fill="none" stroke="midnightblue" d="M84.06,-112.08C78.07,-104.38 69.25,-93.03 61.95,-83.65"/>
<polygon fill="midnightblue" stroke="midnightblue" points="64.71,-81.5 55.81,-75.75 59.18,-85.79 64.71,-81.5"/>
</g>
<!-- Node12 -->
<g id="node12" class="node">
<title>Node12</title>
<g id="a_node12"><a xlink:title=" ">
<polygon fill="white" stroke="#bfbfbf" points="83,-56.5 83,-75.5 121,-75.5 121,-56.5 83,-56.5"/>
<text text-anchor="middle" x="102" y="-63.5" font-family="Helvetica,sans-Serif" font-size="10.00">map</text>
</a>
</g>
</g>
<!-- Node10&#45;&gt;Node12 -->
<g id="edge11" class="edge">
<title>Node10&#45;&gt;Node12</title>
<path fill="none" stroke="midnightblue" d="M92.82,-112.08C94.27,-104.93 96.37,-94.64 98.19,-85.69"/>
<polygon fill="midnightblue" stroke="midnightblue" points="101.65,-86.25 100.22,-75.75 94.79,-84.85 101.65,-86.25"/>
</g>
<!-- Node13 -->
<g id="node13" class="node">
<title>Node13</title>
<g id="a_node13"><a xlink:href="starting__traits_8h.html" target="_top" xlink:title=" ">
<polygon fill="white" stroke="black" points="0,-0.5 0,-19.5 94,-19.5 94,-0.5 0,-0.5"/>
<text text-anchor="middle" x="47" y="-7.5" font-family="Helvetica,sans-Serif" font-size="10.00">starting_traits.h</text>
</a>
</g>
</g>
<!-- Node10&#45;&gt;Node13 -->
<g id="edge13" class="edge">
<title>Node10&#45;&gt;Node13</title>
<path fill="none" stroke="midnightblue" d="M68.21,-112.47C52.67,-105.32 33.29,-93.44 24,-76 15.77,-60.55 24.45,-41.54 33.4,-28.08"/>
<polygon fill="midnightblue" stroke="midnightblue" points="36.4,-29.91 39.44,-19.76 30.74,-25.79 36.4,-29.91"/>
</g>
<!-- Node14 -->
<g id="node14" class="node">
<title>Node14</title>
<g id="a_node14"><a xlink:title=" ">
<polygon fill="white" stroke="#bfbfbf" points="228.5,-56.5 228.5,-75.5 293.5,-75.5 293.5,-56.5 228.5,-56.5"/>
<text text-anchor="middle" x="261" y="-63.5" font-family="Helvetica,sans-Serif" font-size="10.00">onnx.pb.h</text>
</a>
</g>
</g>
<!-- Node10&#45;&gt;Node14 -->
<g id="edge14" class="edge">
<title>Node10&#45;&gt;Node14</title>
<path fill="none" stroke="midnightblue" d="M116.82,-112.8C145.52,-103.68 192.1,-88.88 224.52,-78.59"/>
<polygon fill="midnightblue" stroke="midnightblue" points="225.62,-81.91 234.09,-75.55 223.5,-75.24 225.62,-81.91"/>
</g>
<!-- Node15 -->
<g id="node15" class="node">
<title>Node15</title>
<g id="a_node15"><a xlink:href="type__info_8h.html" target="_top" xlink:title=" ">
<polygon fill="white" stroke="black" points="139.5,-56.5 139.5,-75.5 210.5,-75.5 210.5,-56.5 139.5,-56.5"/>
<text text-anchor="middle" x="175" y="-63.5" font-family="Helvetica,sans-Serif" font-size="10.00">type_info.h</text>
</a>
</g>
</g>
<!-- Node10&#45;&gt;Node15 -->
<g id="edge15" class="edge">
<title>Node10&#45;&gt;Node15</title>
<path fill="none" stroke="midnightblue" d="M104.5,-112.32C117.6,-103.9 137.71,-90.97 153.11,-81.07"/>
<polygon fill="midnightblue" stroke="midnightblue" points="155.02,-84.01 161.54,-75.65 151.23,-78.12 155.02,-84.01"/>
</g>
<!-- Node15&#45;&gt;Node13 -->
<g id="edge18" class="edge">
<title>Node15&#45;&gt;Node13</title>
<path fill="none" stroke="midnightblue" d="M154.72,-56.44C133.65,-47.56 100.48,-33.56 76.51,-23.45"/>
<polygon fill="midnightblue" stroke="midnightblue" points="77.76,-20.18 67.19,-19.52 75.04,-26.63 77.76,-20.18"/>
</g>
<!-- Node16 -->
<g id="node16" class="node">
<title>Node16</title>
<g id="a_node16"><a xlink:title=" ">
<polygon fill="white" stroke="#bfbfbf" points="153,-0.5 153,-19.5 197,-19.5 197,-0.5 153,-0.5"/>
<text text-anchor="middle" x="175" y="-7.5" font-family="Helvetica,sans-Serif" font-size="10.00">string</text>
</a>
</g>
</g>
<!-- Node15&#45;&gt;Node16 -->
<g id="edge16" class="edge">
<title>Node15&#45;&gt;Node16</title>
<path fill="none" stroke="midnightblue" d="M175,-56.08C175,-49.01 175,-38.86 175,-29.99"/>
<polygon fill="midnightblue" stroke="midnightblue" points="178.5,-29.75 175,-19.75 171.5,-29.75 178.5,-29.75"/>
</g>
<!-- Node15&#45;&gt;Node17 -->
<g id="edge17" class="edge">
<title>Node15&#45;&gt;Node17</title>
<path fill="none" stroke="midnightblue" d="M206.22,-56.44C242.31,-46.55 301.51,-30.32 338.53,-20.17"/>
<polygon fill="midnightblue" stroke="midnightblue" points="339.63,-23.5 348.35,-17.48 337.78,-16.75 339.63,-23.5"/>
</g>
<!-- Node18&#45;&gt;Node9 -->
<g id="edge20" class="edge">
<title>Node18&#45;&gt;Node9</title>
<path fill="none" stroke="midnightblue" d="M199.54,-168.08C195.85,-160.69 190.48,-149.95 185.91,-140.81"/>
<polygon fill="midnightblue" stroke="midnightblue" points="188.98,-139.13 181.38,-131.75 182.72,-142.26 188.98,-139.13"/>
</g>
<!-- Node18&#45;&gt;Node10 -->
<g id="edge21" class="edge">
<title>Node18&#45;&gt;Node10</title>
<path fill="none" stroke="midnightblue" d="M186.09,-168.44C167.75,-159.68 138.99,-145.94 117.91,-135.86"/>
<polygon fill="midnightblue" stroke="midnightblue" points="119.35,-132.67 108.82,-131.52 116.33,-138.99 119.35,-132.67"/>
</g>
<!-- Node19&#45;&gt;Node10 -->
<g id="edge24" class="edge">
<title>Node19&#45;&gt;Node10</title>
<path fill="none" stroke="midnightblue" d="M96.84,-168.08C95.92,-160.93 94.58,-150.64 93.42,-141.69"/>
<polygon fill="midnightblue" stroke="midnightblue" points="96.89,-141.22 92.13,-131.75 89.95,-142.12 96.89,-141.22"/>
</g>
</g>
</svg>
