<?xml version="1.0" encoding="UTF-8" standalone="no"?>
<!DOCTYPE svg PUBLIC "-//W3C//DTD SVG 1.1//EN"
 "http://www.w3.org/Graphics/SVG/1.1/DTD/svg11.dtd">
<!-- Generated by graphviz version 2.43.0 (0)
 -->
<!-- Title: include/network_butcher/K&#45;shortest_path/shortest_path_finder.h Pages: 1 -->
<!--zoomable 385 -->
<svg id="main" version="1.1" xmlns="http://www.w3.org/2000/svg" xmlns:xlink="http://www.w3.org/1999/xlink" xml:space="preserve" onload="init(evt)">
<style type="text/css"><![CDATA[
.edge:hover path { stroke: red; }
.edge:hover polygon { stroke: red; fill: red; }
]]></style>
<script type="text/javascript"><![CDATA[
var edges = document.getElementsByTagName('g');
if (edges && edges.length) {
  for (var i=0;i<edges.length;i++) {
    if (edges[i].id.substr(0,4)=='edge') {
      edges[i].setAttribute('class','edge');
    }
  }
}
]]></script>
        <defs>
                <circle id="rim" cx="0" cy="0" r="7"/>
                <circle id="rim2" cx="0" cy="0" r="3.5"/>
                <g id="zoomPlus">
                        <use xlink:href="#rim" fill="#404040">
                                <set attributeName="fill" to="#808080" begin="zoomplus.mouseover" end="zoomplus.mouseout"/>
                        </use>
                        <path d="M-4,0h8M0,-4v8" fill="none" stroke="white" stroke-width="1.5" pointer-events="none"/>
                </g>
                <g id="zoomMin">
                        <use xlink:href="#rim" fill="#404040">
                                <set attributeName="fill" to="#808080" begin="zoomminus.mouseover" end="zoomminus.mouseout"/>
                        </use>
                        <path d="M-4,0h8" fill="none" stroke="white" stroke-width="1.5" pointer-events="none"/>
                </g>
                <g id="dirArrow">
                        <path fill="none" stroke="white" stroke-width="1.5" d="M0,-3.0v7 M-2.5,-0.5L0,-3.0L2.5,-0.5"/>
                </g>
               <g id="resetDef">
                       <use xlink:href="#rim2" fill="#404040">
                               <set attributeName="fill" to="#808080" begin="reset.mouseover" end="reset.mouseout"/>
                       </use>
               </g>
        </defs>

<script type="text/javascript">
var viewWidth = 817;
var viewHeight = 385;
var sectionId = 'dynsection-0';
</script>
<script xlink:href="svgpan.js"/>
<svg id="graph" class="graph">
<g id="viewport">
<title>include/network_butcher/K&#45;shortest_path/shortest_path_finder.h</title>
<polygon fill="white" stroke="transparent" points="-4,4 -4,-381 813,-381 813,4 -4,4"/>
<!-- Node1 -->
<g id="node1" class="node">
<title>Node1</title>
<g id="a_node1"><a xlink:title=" ">
<polygon fill="#bfbfbf" stroke="black" points="645.5,-335.5 645.5,-376.5 783.5,-376.5 783.5,-335.5 645.5,-335.5"/>
<text text-anchor="start" x="653.5" y="-364.5" font-family="Helvetica,sans-Serif" font-size="10.00">include/network_butcher</text>
<text text-anchor="start" x="653.5" y="-353.5" font-family="Helvetica,sans-Serif" font-size="10.00">/K&#45;shortest_path/shortest</text>
<text text-anchor="middle" x="714.5" y="-342.5" font-family="Helvetica,sans-Serif" font-size="10.00">_path_finder.h</text>
</a>
</g>
</g>
<!-- Node2 -->
<g id="node2" class="node">
<title>Node2</title>
<g id="a_node2"><a xlink:href="heap__traits_8h.html" target="_top" xlink:title=" ">
<polygon fill="white" stroke="black" points="279.5,-268.5 279.5,-298.5 429.5,-298.5 429.5,-268.5 279.5,-268.5"/>
<text text-anchor="start" x="287.5" y="-286.5" font-family="Helvetica,sans-Serif" font-size="10.00">network_butcher/K&#45;shortest</text>
<text text-anchor="middle" x="354.5" y="-275.5" font-family="Helvetica,sans-Serif" font-size="10.00">_path/heap_traits.h</text>
</a>
</g>
</g>
<!-- Node1&#45;&gt;Node2 -->
<g id="edge1" class="edge">
<title>Node1&#45;&gt;Node2</title>
<path fill="none" stroke="midnightblue" d="M645.09,-341.41C585.35,-329.71 499.09,-312.82 436.07,-300.47"/>
<polygon fill="midnightblue" stroke="midnightblue" points="436.65,-297.02 426.16,-298.53 435.3,-303.89 436.65,-297.02"/>
</g>
<!-- Node4 -->
<g id="node4" class="node">
<title>Node4</title>
<g id="a_node4"><a xlink:title=" ">
<polygon fill="white" stroke="#bfbfbf" points="661.5,-140 661.5,-159 705.5,-159 705.5,-140 661.5,-140"/>
<text text-anchor="middle" x="683.5" y="-147" font-family="Helvetica,sans-Serif" font-size="10.00">limits</text>
</a>
</g>
</g>
<!-- Node1&#45;&gt;Node4 -->
<g id="edge25" class="edge">
<title>Node1&#45;&gt;Node4</title>
<path fill="none" stroke="midnightblue" d="M711.53,-335.39C705.57,-296.07 692.22,-208.06 686.36,-169.36"/>
<polygon fill="midnightblue" stroke="midnightblue" points="689.75,-168.41 684.8,-159.04 682.83,-169.46 689.75,-168.41"/>
</g>
<!-- Node16 -->
<g id="node16" class="node">
<title>Node16</title>
<g id="a_node16"><a xlink:title=" ">
<polygon fill="white" stroke="#bfbfbf" points="557,-6 557,-25 604,-25 604,-6 557,-6"/>
<text text-anchor="middle" x="580.5" y="-13" font-family="Helvetica,sans-Serif" font-size="10.00">vector</text>
</a>
</g>
</g>
<!-- Node1&#45;&gt;Node16 -->
<g id="edge27" class="edge">
<title>Node1&#45;&gt;Node16</title>
<path fill="none" stroke="midnightblue" d="M719,-335.08C724.62,-308.44 733.5,-259.67 733.5,-217.5 733.5,-217.5 733.5,-217.5 733.5,-148.5 733.5,-85.58 658.41,-46.04 613.44,-28"/>
<polygon fill="midnightblue" stroke="midnightblue" points="614.66,-24.71 604.07,-24.37 612.13,-31.24 614.66,-24.71"/>
</g>
<!-- Node20 -->
<g id="node20" class="node">
<title>Node20</title>
<g id="a_node20"><a xlink:title=" ">
<polygon fill="white" stroke="#bfbfbf" points="762,-274 762,-293 809,-293 809,-274 762,-274"/>
<text text-anchor="middle" x="785.5" y="-281" font-family="Helvetica,sans-Serif" font-size="10.00">queue</text>
</a>
</g>
</g>
<!-- Node1&#45;&gt;Node20 -->
<g id="edge26" class="edge">
<title>Node1&#45;&gt;Node20</title>
<path fill="none" stroke="midnightblue" d="M734.28,-335.36C745.39,-324.32 759.09,-310.72 769.52,-300.37"/>
<polygon fill="midnightblue" stroke="midnightblue" points="772.14,-302.7 776.77,-293.17 767.2,-297.74 772.14,-302.7"/>
</g>
<!-- Node3 -->
<g id="node3" class="node">
<title>Node3</title>
<g id="a_node3"><a xlink:href="heap__eppstein_8h.html" target="_top" xlink:title=" ">
<polygon fill="white" stroke="black" points="449.5,-201.5 449.5,-231.5 599.5,-231.5 599.5,-201.5 449.5,-201.5"/>
<text text-anchor="start" x="457.5" y="-219.5" font-family="Helvetica,sans-Serif" font-size="10.00">network_butcher/K&#45;shortest</text>
<text text-anchor="middle" x="524.5" y="-208.5" font-family="Helvetica,sans-Serif" font-size="10.00">_path/heap_eppstein.h</text>
</a>
</g>
</g>
<!-- Node2&#45;&gt;Node3 -->
<g id="edge2" class="edge">
<title>Node2&#45;&gt;Node3</title>
<path fill="none" stroke="midnightblue" d="M391.39,-268.4C416.89,-258.64 451.02,-245.59 478.33,-235.15"/>
<polygon fill="midnightblue" stroke="midnightblue" points="479.59,-238.42 487.68,-231.58 477.09,-231.88 479.59,-238.42"/>
</g>
<!-- Node10 -->
<g id="node10" class="node">
<title>Node10</title>
<g id="a_node10"><a xlink:href="traits_8h.html" target="_top" xlink:title=" ">
<polygon fill="white" stroke="black" points="121.5,-134.5 121.5,-164.5 249.5,-164.5 249.5,-134.5 121.5,-134.5"/>
<text text-anchor="start" x="129.5" y="-152.5" font-family="Helvetica,sans-Serif" font-size="10.00">network_butcher/Traits</text>
<text text-anchor="middle" x="185.5" y="-141.5" font-family="Helvetica,sans-Serif" font-size="10.00">/traits.h</text>
</a>
</g>
</g>
<!-- Node2&#45;&gt;Node10 -->
<g id="edge24" class="edge">
<title>Node2&#45;&gt;Node10</title>
<path fill="none" stroke="midnightblue" d="M279.28,-277.73C213.31,-271.78 124.56,-258.92 102.5,-232 93.77,-221.34 95.75,-213.01 102.5,-201 110.16,-187.37 123.16,-176.99 136.62,-169.29"/>
<polygon fill="midnightblue" stroke="midnightblue" points="138.27,-172.38 145.48,-164.62 135,-166.19 138.27,-172.38"/>
</g>
<!-- Node18 -->
<g id="node18" class="node">
<title>Node18</title>
<g id="a_node18"><a xlink:href="path__info_8h.html" target="_top" xlink:title=" ">
<polygon fill="white" stroke="black" points="279.5,-201.5 279.5,-231.5 429.5,-231.5 429.5,-201.5 279.5,-201.5"/>
<text text-anchor="start" x="287.5" y="-219.5" font-family="Helvetica,sans-Serif" font-size="10.00">network_butcher/K&#45;shortest</text>
<text text-anchor="middle" x="354.5" y="-208.5" font-family="Helvetica,sans-Serif" font-size="10.00">_path/path_info.h</text>
</a>
</g>
</g>
<!-- Node2&#45;&gt;Node18 -->
<g id="edge19" class="edge">
<title>Node2&#45;&gt;Node18</title>
<path fill="none" stroke="midnightblue" d="M354.5,-268.4C354.5,-260.64 354.5,-250.81 354.5,-241.86"/>
<polygon fill="midnightblue" stroke="midnightblue" points="358,-241.58 354.5,-231.58 351,-241.58 358,-241.58"/>
</g>
<!-- Node19 -->
<g id="node19" class="node">
<title>Node19</title>
<g id="a_node19"><a xlink:href="weighted__graph_8h.html" target="_top" xlink:title=" ">
<polygon fill="white" stroke="black" points="111.5,-201.5 111.5,-231.5 261.5,-231.5 261.5,-201.5 111.5,-201.5"/>
<text text-anchor="start" x="119.5" y="-219.5" font-family="Helvetica,sans-Serif" font-size="10.00">network_butcher/K&#45;shortest</text>
<text text-anchor="middle" x="186.5" y="-208.5" font-family="Helvetica,sans-Serif" font-size="10.00">_path/weighted_graph.h</text>
</a>
</g>
</g>
<!-- Node2&#45;&gt;Node19 -->
<g id="edge22" class="edge">
<title>Node2&#45;&gt;Node19</title>
<path fill="none" stroke="midnightblue" d="M318.05,-268.4C292.95,-258.69 259.41,-245.71 232.48,-235.29"/>
<polygon fill="midnightblue" stroke="midnightblue" points="233.47,-231.92 222.88,-231.58 230.95,-238.45 233.47,-231.92"/>
</g>
<!-- Node3&#45;&gt;Node4 -->
<g id="edge3" class="edge">
<title>Node3&#45;&gt;Node4</title>
<path fill="none" stroke="midnightblue" d="M562,-201.41C587.64,-191.6 622.33,-177.99 652.5,-165 653.7,-164.48 654.92,-163.95 656.15,-163.41"/>
<polygon fill="midnightblue" stroke="midnightblue" points="657.9,-166.45 665.55,-159.12 655,-160.08 657.9,-166.45"/>
</g>
<!-- Node5 -->
<g id="node5" class="node">
<title>Node5</title>
<g id="a_node5"><a xlink:title=" ">
<polygon fill="white" stroke="#bfbfbf" points="509.5,-140 509.5,-159 541.5,-159 541.5,-140 509.5,-140"/>
<text text-anchor="middle" x="525.5" y="-147" font-family="Helvetica,sans-Serif" font-size="10.00">list</text>
</a>
</g>
</g>
<!-- Node3&#45;&gt;Node5 -->
<g id="edge4" class="edge">
<title>Node3&#45;&gt;Node5</title>
<path fill="none" stroke="midnightblue" d="M524.72,-201.4C524.86,-192.06 525.05,-179.71 525.21,-169.52"/>
<polygon fill="midnightblue" stroke="midnightblue" points="528.71,-169.25 525.37,-159.19 521.71,-169.14 528.71,-169.25"/>
</g>
<!-- Node6 -->
<g id="node6" class="node">
<title>Node6</title>
<g id="a_node6"><a xlink:title=" ">
<polygon fill="white" stroke="#bfbfbf" points="491.5,-73 491.5,-92 549.5,-92 549.5,-73 491.5,-73"/>
<text text-anchor="middle" x="520.5" y="-80" font-family="Helvetica,sans-Serif" font-size="10.00">memory</text>
</a>
</g>
</g>
<!-- Node3&#45;&gt;Node6 -->
<g id="edge5" class="edge">
<title>Node3&#45;&gt;Node6</title>
<path fill="none" stroke="midnightblue" d="M534.2,-201.21C540.2,-191.47 547.34,-178.03 550.5,-165 553.74,-151.61 554.15,-147.29 550.5,-134 547.18,-121.9 540.12,-109.77 533.69,-100.43"/>
<polygon fill="midnightblue" stroke="midnightblue" points="536.35,-98.14 527.62,-92.13 530.69,-102.27 536.35,-98.14"/>
</g>
<!-- Node7 -->
<g id="node7" class="node">
<title>Node7</title>
<g id="a_node7"><a xlink:title=" ">
<polygon fill="white" stroke="#bfbfbf" points="598,-140 598,-159 643,-159 643,-140 598,-140"/>
<text text-anchor="middle" x="620.5" y="-147" font-family="Helvetica,sans-Serif" font-size="10.00">utility</text>
</a>
</g>
</g>
<!-- Node3&#45;&gt;Node7 -->
<g id="edge6" class="edge">
<title>Node3&#45;&gt;Node7</title>
<path fill="none" stroke="midnightblue" d="M545.33,-201.4C561.28,-190.6 583.2,-175.76 599.25,-164.89"/>
<polygon fill="midnightblue" stroke="midnightblue" points="601.62,-167.51 607.94,-159.01 597.69,-161.72 601.62,-167.51"/>
</g>
<!-- Node8 -->
<g id="node8" class="node">
<title>Node8</title>
<g id="a_node8"><a xlink:title=" ">
<polygon fill="white" stroke="#bfbfbf" points="435.5,-140 435.5,-159 491.5,-159 491.5,-140 435.5,-140"/>
<text text-anchor="middle" x="463.5" y="-147" font-family="Helvetica,sans-Serif" font-size="10.00">numeric</text>
</a>
</g>
</g>
<!-- Node3&#45;&gt;Node8 -->
<g id="edge7" class="edge">
<title>Node3&#45;&gt;Node8</title>
<path fill="none" stroke="midnightblue" d="M511.26,-201.4C501.66,-191.16 488.65,-177.3 478.63,-166.62"/>
<polygon fill="midnightblue" stroke="midnightblue" points="481.05,-164.09 471.66,-159.19 475.95,-168.88 481.05,-164.09"/>
</g>
<!-- Node9 -->
<g id="node9" class="node">
<title>Node9</title>
<g id="a_node9"><a xlink:href="crtp__greater_8h.html" target="_top" xlink:title=" ">
<polygon fill="white" stroke="black" points="267.5,-134.5 267.5,-164.5 417.5,-164.5 417.5,-134.5 267.5,-134.5"/>
<text text-anchor="start" x="275.5" y="-152.5" font-family="Helvetica,sans-Serif" font-size="10.00">network_butcher/K&#45;shortest</text>
<text text-anchor="middle" x="342.5" y="-141.5" font-family="Helvetica,sans-Serif" font-size="10.00">_path/crtp_greater.h</text>
</a>
</g>
</g>
<!-- Node3&#45;&gt;Node9 -->
<g id="edge8" class="edge">
<title>Node3&#45;&gt;Node9</title>
<path fill="none" stroke="midnightblue" d="M485.01,-201.4C457.58,-191.6 420.85,-178.48 391.54,-168.02"/>
<polygon fill="midnightblue" stroke="midnightblue" points="392.51,-164.64 381.91,-164.58 390.15,-171.24 392.51,-164.64"/>
</g>
<!-- Node3&#45;&gt;Node10 -->
<g id="edge9" class="edge">
<title>Node3&#45;&gt;Node10</title>
<path fill="none" stroke="midnightblue" d="M449.65,-201.47C398.73,-191.88 329.53,-178.77 259.48,-165.18"/>
<polygon fill="midnightblue" stroke="midnightblue" points="260.07,-161.73 249.59,-163.26 258.74,-168.6 260.07,-161.73"/>
</g>
<!-- Node10&#45;&gt;Node6 -->
<g id="edge12" class="edge">
<title>Node10&#45;&gt;Node6</title>
<path fill="none" stroke="midnightblue" d="M249.59,-135.75C252.6,-135.16 255.58,-134.57 258.5,-134 337.61,-118.52 430.22,-100.75 481.44,-90.96"/>
<polygon fill="midnightblue" stroke="midnightblue" points="482.25,-94.37 491.41,-89.05 480.93,-87.49 482.25,-94.37"/>
</g>
<!-- Node11 -->
<g id="node11" class="node">
<title>Node11</title>
<g id="a_node11"><a xlink:title=" ">
<polygon fill="white" stroke="#bfbfbf" points="143.5,-73 143.5,-92 175.5,-92 175.5,-73 143.5,-73"/>
<text text-anchor="middle" x="159.5" y="-80" font-family="Helvetica,sans-Serif" font-size="10.00">set</text>
</a>
</g>
</g>
<!-- Node10&#45;&gt;Node11 -->
<g id="edge10" class="edge">
<title>Node10&#45;&gt;Node11</title>
<path fill="none" stroke="midnightblue" d="M179.86,-134.4C176.01,-124.76 170.87,-111.91 166.71,-101.54"/>
<polygon fill="midnightblue" stroke="midnightblue" points="169.94,-100.18 162.98,-92.19 163.44,-102.78 169.94,-100.18"/>
</g>
<!-- Node12 -->
<g id="node12" class="node">
<title>Node12</title>
<g id="a_node12"><a xlink:title=" ">
<polygon fill="white" stroke="#bfbfbf" points="193.5,-73 193.5,-92 231.5,-92 231.5,-73 193.5,-73"/>
<text text-anchor="middle" x="212.5" y="-80" font-family="Helvetica,sans-Serif" font-size="10.00">map</text>
</a>
</g>
</g>
<!-- Node10&#45;&gt;Node12 -->
<g id="edge11" class="edge">
<title>Node10&#45;&gt;Node12</title>
<path fill="none" stroke="midnightblue" d="M191.36,-134.4C195.36,-124.76 200.7,-111.91 205.01,-101.54"/>
<polygon fill="midnightblue" stroke="midnightblue" points="208.28,-102.77 208.89,-92.19 201.82,-100.09 208.28,-102.77"/>
</g>
<!-- Node13 -->
<g id="node13" class="node">
<title>Node13</title>
<g id="a_node13"><a xlink:href="starting__traits_8h.html" target="_top" xlink:title=" ">
<polygon fill="white" stroke="black" points="195.5,-0.5 195.5,-30.5 323.5,-30.5 323.5,-0.5 195.5,-0.5"/>
<text text-anchor="start" x="203.5" y="-18.5" font-family="Helvetica,sans-Serif" font-size="10.00">network_butcher/Traits</text>
<text text-anchor="middle" x="259.5" y="-7.5" font-family="Helvetica,sans-Serif" font-size="10.00">/starting_traits.h</text>
</a>
</g>
</g>
<!-- Node10&#45;&gt;Node13 -->
<g id="edge13" class="edge">
<title>Node10&#45;&gt;Node13</title>
<path fill="none" stroke="midnightblue" d="M206.18,-134.42C217.95,-125.35 232,-112.55 240.5,-98 250.72,-80.5 255.44,-57.89 257.62,-40.92"/>
<polygon fill="midnightblue" stroke="midnightblue" points="261.13,-41.01 258.72,-30.69 254.17,-40.26 261.13,-41.01"/>
</g>
<!-- Node14 -->
<g id="node14" class="node">
<title>Node14</title>
<g id="a_node14"><a xlink:href="type__info_8h.html" target="_top" xlink:title=" ">
<polygon fill="white" stroke="black" points="294,-67.5 294,-97.5 423,-97.5 423,-67.5 294,-67.5"/>
<text text-anchor="start" x="302" y="-85.5" font-family="Helvetica,sans-Serif" font-size="10.00">network_butcher/Types</text>
<text text-anchor="middle" x="358.5" y="-74.5" font-family="Helvetica,sans-Serif" font-size="10.00">/type_info.h</text>
</a>
</g>
</g>
<!-- Node10&#45;&gt;Node14 -->
<g id="edge14" class="edge">
<title>Node10&#45;&gt;Node14</title>
<path fill="none" stroke="midnightblue" d="M223.04,-134.4C249,-124.64 283.72,-111.59 311.52,-101.15"/>
<polygon fill="midnightblue" stroke="midnightblue" points="312.9,-104.37 321.03,-97.58 310.44,-97.82 312.9,-104.37"/>
</g>
<!-- Node17 -->
<g id="node17" class="node">
<title>Node17</title>
<g id="a_node17"><a xlink:title=" ">
<polygon fill="white" stroke="#bfbfbf" points="0,-67.5 0,-97.5 125,-97.5 125,-67.5 0,-67.5"/>
<text text-anchor="start" x="8" y="-85.5" font-family="Helvetica,sans-Serif" font-size="10.00">network_butcher/onnx</text>
<text text-anchor="middle" x="62.5" y="-74.5" font-family="Helvetica,sans-Serif" font-size="10.00">_proto/onnx.pb.h</text>
</a>
</g>
</g>
<!-- Node10&#45;&gt;Node17 -->
<g id="edge18" class="edge">
<title>Node10&#45;&gt;Node17</title>
<path fill="none" stroke="midnightblue" d="M158.81,-134.4C141,-124.98 117.38,-112.5 97.99,-102.26"/>
<polygon fill="midnightblue" stroke="midnightblue" points="99.61,-99.15 89.14,-97.58 96.34,-105.34 99.61,-99.15"/>
</g>
<!-- Node14&#45;&gt;Node13 -->
<g id="edge17" class="edge">
<title>Node14&#45;&gt;Node13</title>
<path fill="none" stroke="midnightblue" d="M337.02,-67.4C323.14,-58.28 304.87,-46.29 289.56,-36.24"/>
<polygon fill="midnightblue" stroke="midnightblue" points="291.22,-33.14 280.94,-30.58 287.38,-38.99 291.22,-33.14"/>
</g>
<!-- Node15 -->
<g id="node15" class="node">
<title>Node15</title>
<g id="a_node15"><a xlink:title=" ">
<polygon fill="white" stroke="#bfbfbf" points="341.5,-6 341.5,-25 385.5,-25 385.5,-6 341.5,-6"/>
<text text-anchor="middle" x="363.5" y="-13" font-family="Helvetica,sans-Serif" font-size="10.00">string</text>
</a>
</g>
</g>
<!-- Node14&#45;&gt;Node15 -->
<g id="edge15" class="edge">
<title>Node14&#45;&gt;Node15</title>
<path fill="none" stroke="midnightblue" d="M359.58,-67.4C360.31,-57.96 361.27,-45.45 362.06,-35.19"/>
<polygon fill="midnightblue" stroke="midnightblue" points="365.55,-35.43 362.83,-25.19 358.57,-34.9 365.55,-35.43"/>
</g>
<!-- Node14&#45;&gt;Node16 -->
<g id="edge16" class="edge">
<title>Node14&#45;&gt;Node16</title>
<path fill="none" stroke="midnightblue" d="M406.4,-67.48C448.81,-55.06 509.62,-37.25 547.01,-26.31"/>
<polygon fill="midnightblue" stroke="midnightblue" points="548.28,-29.58 556.9,-23.41 546.32,-22.86 548.28,-29.58"/>
</g>
<!-- Node18&#45;&gt;Node9 -->
<g id="edge20" class="edge">
<title>Node18&#45;&gt;Node9</title>
<path fill="none" stroke="midnightblue" d="M351.9,-201.4C350.45,-193.56 348.61,-183.6 346.94,-174.57"/>
<polygon fill="midnightblue" stroke="midnightblue" points="350.36,-173.77 345.1,-164.58 343.47,-175.05 350.36,-173.77"/>
</g>
<!-- Node18&#45;&gt;Node10 -->
<g id="edge21" class="edge">
<title>Node18&#45;&gt;Node10</title>
<path fill="none" stroke="midnightblue" d="M317.83,-201.4C292.58,-191.69 258.84,-178.71 231.75,-168.29"/>
<polygon fill="midnightblue" stroke="midnightblue" points="232.69,-164.9 222.1,-164.58 230.18,-171.43 232.69,-164.9"/>
</g>
<!-- Node19&#45;&gt;Node10 -->
<g id="edge23" class="edge">
<title>Node19&#45;&gt;Node10</title>
<path fill="none" stroke="midnightblue" d="M186.28,-201.4C186.16,-193.64 186.01,-183.81 185.87,-174.86"/>
<polygon fill="midnightblue" stroke="midnightblue" points="189.37,-174.52 185.72,-164.58 182.37,-174.63 189.37,-174.52"/>
</g>
</g>
</svg>
        <g id="navigator" transform="translate(0 0)" fill="#404254">
                <rect fill="#f2f5e9" fill-opacity="0.5" stroke="#606060" stroke-width=".5" x="0" y="0" width="60" height="60"/>
                <use id="zoomplus" xlink:href="#zoomPlus" x="17" y="9" onmousedown="handleZoom(evt,'in')"/>
                <use id="zoomminus" xlink:href="#zoomMin" x="42" y="9" onmousedown="handleZoom(evt,'out')"/>
                <use id="reset" xlink:href="#resetDef" x="30" y="36" onmousedown="handleReset()"/>
                <g id="arrowUp" xlink:href="#dirArrow" transform="translate(30 24)" onmousedown="handlePan(0,-1)">
                  <use xlink:href="#rim" fill="#404040">
                        <set attributeName="fill" to="#808080" begin="arrowUp.mouseover" end="arrowUp.mouseout"/>
                  </use>
                  <path fill="none" stroke="white" stroke-width="1.5" d="M0,-3.0v7 M-2.5,-0.5L0,-3.0L2.5,-0.5"/>
                </g>
                <g id="arrowRight" xlink:href="#dirArrow" transform="rotate(90) translate(36 -43)" onmousedown="handlePan(1,0)">
                  <use xlink:href="#rim" fill="#404040">
                        <set attributeName="fill" to="#808080" begin="arrowRight.mouseover" end="arrowRight.mouseout"/>
                  </use>
                  <path fill="none" stroke="white" stroke-width="1.5" d="M0,-3.0v7 M-2.5,-0.5L0,-3.0L2.5,-0.5"/>
                </g>
                <g id="arrowDown" xlink:href="#dirArrow" transform="rotate(180) translate(-30 -48)" onmousedown="handlePan(0,1)">
                  <use xlink:href="#rim" fill="#404040">
                        <set attributeName="fill" to="#808080" begin="arrowDown.mouseover" end="arrowDown.mouseout"/>
                  </use>
                  <path fill="none" stroke="white" stroke-width="1.5" d="M0,-3.0v7 M-2.5,-0.5L0,-3.0L2.5,-0.5"/>
                </g>
                <g id="arrowLeft" xlink:href="#dirArrow" transform="rotate(270) translate(-36 17)" onmousedown="handlePan(-1,0)">
                  <use xlink:href="#rim" fill="#404040">
                        <set attributeName="fill" to="#808080" begin="arrowLeft.mouseover" end="arrowLeft.mouseout"/>
                  </use>
                  <path fill="none" stroke="white" stroke-width="1.5" d="M0,-3.0v7 M-2.5,-0.5L0,-3.0L2.5,-0.5"/>
                </g>
        </g>
        <svg viewBox="0 0 15 15" width="100%" height="30px" preserveAspectRatio="xMaxYMin meet">
         <g id="arrow_out" transform="scale(0.3 0.3)">
          <a xlink:href="shortest__path__finder_8h__incl_org.svg" target="_base">
           <rect id="button" ry="5" rx="5" y="6" x="6" height="38" width="38"
                fill="#f2f5e9" fill-opacity="0.5" stroke="#606060" stroke-width="1.0"/>
           <path id="arrow"
             d="M 11.500037,31.436501 C 11.940474,20.09759 22.043105,11.32322 32.158766,21.979434 L 37.068811,17.246167 C 37.068811,17.246167 37.088388,32 37.088388,32 L 22.160133,31.978069 C 22.160133,31.978069 26.997745,27.140456 26.997745,27.140456 C 18.528582,18.264221 13.291696,25.230495 11.500037,31.436501 z"
             style="fill:#404040;"/>
          </a>
         </g>
        </svg>
</svg>
