<?xml version="1.0" encoding="UTF-8" standalone="no"?>
<!DOCTYPE svg PUBLIC "-//W3C//DTD SVG 1.1//EN"
 "http://www.w3.org/Graphics/SVG/1.1/DTD/svg11.dtd">
<!-- Generated by graphviz version 2.43.0 (0)
 -->
<!-- Title: network_butcher::parameters::Parameters Pages: 1 -->
<svg width="885pt" height="281pt"
 viewBox="0.00 0.00 885.00 281.00" xmlns="http://www.w3.org/2000/svg" xmlns:xlink="http://www.w3.org/1999/xlink">
<g id="graph0" class="graph" transform="scale(1 1) rotate(0) translate(4 277)">
<title>network_butcher::parameters::Parameters</title>
<polygon fill="white" stroke="transparent" points="-4,4 -4,-277 881,-277 881,4 -4,4"/>
<!-- Node1 -->
<g id="node1" class="node">
<title>Node1</title>
<g id="a_node1"><a xlink:title="The collection of parameters.">
<polygon fill="#bfbfbf" stroke="black" points="358,-0.5 358,-68.5 519,-68.5 519,-0.5 358,-0.5"/>
<text text-anchor="start" x="366" y="-56.5" font-family="Helvetica,sans-Serif" font-size="10.00">network_butcher::parameters</text>
<text text-anchor="middle" x="438.5" y="-45.5" font-family="Helvetica,sans-Serif" font-size="10.00">::Parameters</text>
<polyline fill="none" stroke="black" points="358,-38.5 519,-38.5 "/>
<text text-anchor="start" x="366" y="-26.5" font-family="Helvetica,sans-Serif" font-size="10.00">+ devices</text>
<polyline fill="none" stroke="black" points="358,-19.5 519,-19.5 "/>
<text text-anchor="middle" x="438.5" y="-7.5" font-family="Helvetica,sans-Serif" font-size="10.00"> </text>
</a>
</g>
</g>
<!-- Node2 -->
<g id="node2" class="node">
<title>Node2</title>
<g id="a_node2"><a xlink:href="structnetwork__butcher_1_1parameters_1_1Parameters_1_1Block__Graph__Generation.html" target="_top" xlink:title="Structure used to contain all the parameters related to the Block Graph Generation.">
<polygon fill="white" stroke="black" points="0,-133 0,-267 161,-267 161,-133 0,-133"/>
<text text-anchor="start" x="8" y="-255" font-family="Helvetica,sans-Serif" font-size="10.00">network_butcher::parameters</text>
<text text-anchor="start" x="8" y="-244" font-family="Helvetica,sans-Serif" font-size="10.00">::Parameters::Block_Graph</text>
<text text-anchor="middle" x="80.5" y="-233" font-family="Helvetica,sans-Serif" font-size="10.00">_Generation</text>
<polyline fill="none" stroke="black" points="0,-226 161,-226 "/>
<text text-anchor="start" x="8" y="-214" font-family="Helvetica,sans-Serif" font-size="10.00">+ starting_device_id</text>
<text text-anchor="start" x="8" y="-203" font-family="Helvetica,sans-Serif" font-size="10.00">+ ending_device_id</text>
<text text-anchor="start" x="8" y="-192" font-family="Helvetica,sans-Serif" font-size="10.00">+ block_graph_mode</text>
<text text-anchor="start" x="8" y="-181" font-family="Helvetica,sans-Serif" font-size="10.00">+ use_bandwidth_to_manage</text>
<text text-anchor="start" x="8" y="-170" font-family="Helvetica,sans-Serif" font-size="10.00">_connections</text>
<text text-anchor="start" x="8" y="-159" font-family="Helvetica,sans-Serif" font-size="10.00">+ memory_constraint</text>
<polyline fill="none" stroke="black" points="0,-152 161,-152 "/>
<text text-anchor="middle" x="80.5" y="-140" font-family="Helvetica,sans-Serif" font-size="10.00"> </text>
</a>
</g>
</g>
<!-- Node2&#45;&gt;Node1 -->
<g id="edge1" class="edge">
<title>Node2&#45;&gt;Node1</title>
<path fill="none" stroke="#404040" d="M134.68,-132.79C151.83,-115.55 171.98,-98.59 193.5,-87 240.24,-61.82 298.16,-48.95 345.94,-42.37"/>
<polygon fill="none" stroke="#404040" points="345.96,-42.36 351.39,-37.63 357.86,-40.82 352.42,-45.56 345.96,-42.36"/>
<text text-anchor="start" x="193.5" y="-101" font-family="Helvetica,sans-Serif" font-size="10.00"> +block_graph_generation</text>
<text text-anchor="middle" x="258" y="-90" font-family="Helvetica,sans-Serif" font-size="10.00">_params</text>
</g>
<!-- Node3 -->
<g id="node3" class="node">
<title>Node3</title>
<g id="a_node3"><a xlink:href="structnetwork__butcher_1_1parameters_1_1Parameters_1_1Model.html" target="_top" xlink:title="Structure used to contain all the model related parameters.">
<polygon fill="white" stroke="black" points="179,-149.5 179,-250.5 340,-250.5 340,-149.5 179,-149.5"/>
<text text-anchor="start" x="187" y="-238.5" font-family="Helvetica,sans-Serif" font-size="10.00">network_butcher::parameters</text>
<text text-anchor="middle" x="259.5" y="-227.5" font-family="Helvetica,sans-Serif" font-size="10.00">::Parameters::Model</text>
<polyline fill="none" stroke="black" points="179,-220.5 340,-220.5 "/>
<text text-anchor="start" x="187" y="-208.5" font-family="Helvetica,sans-Serif" font-size="10.00">+ model_name</text>
<text text-anchor="start" x="187" y="-197.5" font-family="Helvetica,sans-Serif" font-size="10.00">+ model_path</text>
<text text-anchor="start" x="187" y="-186.5" font-family="Helvetica,sans-Serif" font-size="10.00">+ export_directory</text>
<text text-anchor="start" x="187" y="-175.5" font-family="Helvetica,sans-Serif" font-size="10.00">+ config_path</text>
<polyline fill="none" stroke="black" points="179,-168.5 340,-168.5 "/>
<text text-anchor="middle" x="259.5" y="-156.5" font-family="Helvetica,sans-Serif" font-size="10.00"> </text>
</a>
</g>
</g>
<!-- Node3&#45;&gt;Node1 -->
<g id="edge2" class="edge">
<title>Node3&#45;&gt;Node1</title>
<path fill="none" stroke="#404040" d="M293.19,-149.26C308.78,-128.48 328.49,-105.03 349.5,-87 354.12,-83.03 359.09,-79.21 364.24,-75.56"/>
<polygon fill="none" stroke="#404040" points="364.36,-75.48 367.09,-68.81 374.3,-68.76 371.57,-75.44 364.36,-75.48"/>
<text text-anchor="middle" x="392" y="-95.5" font-family="Helvetica,sans-Serif" font-size="10.00"> +model_params</text>
</g>
<!-- Node4 -->
<g id="node4" class="node">
<title>Node4</title>
<g id="a_node4"><a xlink:href="structnetwork__butcher_1_1parameters_1_1Parameters_1_1KSP.html" target="_top" xlink:title="Structure used to contain all the parameters related to the K shortest path method.">
<polygon fill="white" stroke="black" points="358,-160.5 358,-239.5 519,-239.5 519,-160.5 358,-160.5"/>
<text text-anchor="start" x="366" y="-227.5" font-family="Helvetica,sans-Serif" font-size="10.00">network_butcher::parameters</text>
<text text-anchor="middle" x="438.5" y="-216.5" font-family="Helvetica,sans-Serif" font-size="10.00">::Parameters::KSP</text>
<polyline fill="none" stroke="black" points="358,-209.5 519,-209.5 "/>
<text text-anchor="start" x="366" y="-197.5" font-family="Helvetica,sans-Serif" font-size="10.00">+ K</text>
<text text-anchor="start" x="366" y="-186.5" font-family="Helvetica,sans-Serif" font-size="10.00">+ method</text>
<polyline fill="none" stroke="black" points="358,-179.5 519,-179.5 "/>
<text text-anchor="middle" x="438.5" y="-167.5" font-family="Helvetica,sans-Serif" font-size="10.00"> </text>
</a>
</g>
</g>
<!-- Node4&#45;&gt;Node1 -->
<g id="edge3" class="edge">
<title>Node4&#45;&gt;Node1</title>
<path fill="none" stroke="#404040" d="M438.5,-160.25C438.5,-136.42 438.5,-105.77 438.5,-80.82"/>
<polygon fill="none" stroke="#404040" points="438.5,-80.72 434.5,-74.72 438.5,-68.72 442.5,-74.72 438.5,-80.72"/>
<text text-anchor="middle" x="474" y="-95.5" font-family="Helvetica,sans-Serif" font-size="10.00"> +ksp_params</text>
</g>
<!-- Node5 -->
<g id="node5" class="node">
<title>Node5</title>
<g id="a_node5"><a xlink:href="structnetwork__butcher_1_1parameters_1_1Parameters_1_1aMLLibrary.html" target="_top" xlink:title="Structure used to contain all the aMLLibrary related parameters.">
<polygon fill="white" stroke="black" points="537,-144 537,-256 698,-256 698,-144 537,-144"/>
<text text-anchor="start" x="545" y="-244" font-family="Helvetica,sans-Serif" font-size="10.00">network_butcher::parameters</text>
<text text-anchor="middle" x="617.5" y="-233" font-family="Helvetica,sans-Serif" font-size="10.00">::Parameters::aMLLibrary</text>
<polyline fill="none" stroke="black" points="537,-226 698,-226 "/>
<text text-anchor="start" x="545" y="-214" font-family="Helvetica,sans-Serif" font-size="10.00">+ temporary_directory</text>
<text text-anchor="start" x="545" y="-203" font-family="Helvetica,sans-Serif" font-size="10.00">+ extra_packages_location</text>
<text text-anchor="start" x="545" y="-192" font-family="Helvetica,sans-Serif" font-size="10.00">+ aMLLibrary_inference</text>
<text text-anchor="start" x="545" y="-181" font-family="Helvetica,sans-Serif" font-size="10.00">_variables</text>
<text text-anchor="start" x="545" y="-170" font-family="Helvetica,sans-Serif" font-size="10.00">+ aMLLibrary_csv_features</text>
<polyline fill="none" stroke="black" points="537,-163 698,-163 "/>
<text text-anchor="middle" x="617.5" y="-151" font-family="Helvetica,sans-Serif" font-size="10.00"> </text>
</a>
</g>
</g>
<!-- Node5&#45;&gt;Node1 -->
<g id="edge4" class="edge">
<title>Node5&#45;&gt;Node1</title>
<path fill="none" stroke="#404040" d="M570.83,-143.95C553.65,-125.01 533.49,-104.25 513.5,-87 509.17,-83.26 504.56,-79.55 499.85,-75.93"/>
<polygon fill="none" stroke="#404040" points="499.69,-75.82 492.49,-75.45 490.06,-68.66 497.26,-69.03 499.69,-75.82"/>
<text text-anchor="middle" x="588.5" y="-95.5" font-family="Helvetica,sans-Serif" font-size="10.00"> +aMLLibrary_params</text>
</g>
<!-- Node6 -->
<g id="node6" class="node">
<title>Node6</title>
<g id="a_node6"><a xlink:href="structnetwork__butcher_1_1parameters_1_1Parameters_1_1Weights.html" target="_top" xlink:title="Structure used to contain all the weights related parameters.">
<polygon fill="white" stroke="black" points="716,-127.5 716,-272.5 877,-272.5 877,-127.5 716,-127.5"/>
<text text-anchor="start" x="724" y="-260.5" font-family="Helvetica,sans-Serif" font-size="10.00">network_butcher::parameters</text>
<text text-anchor="middle" x="796.5" y="-249.5" font-family="Helvetica,sans-Serif" font-size="10.00">::Parameters::Weights</text>
<polyline fill="none" stroke="black" points="716,-242.5 877,-242.5 "/>
<text text-anchor="start" x="724" y="-230.5" font-family="Helvetica,sans-Serif" font-size="10.00">+ weight_import_mode</text>
<text text-anchor="start" x="724" y="-219.5" font-family="Helvetica,sans-Serif" font-size="10.00">+ single_weight_import_path</text>
<text text-anchor="start" x="724" y="-208.5" font-family="Helvetica,sans-Serif" font-size="10.00">+ single_csv_columns</text>
<text text-anchor="start" x="724" y="-197.5" font-family="Helvetica,sans-Serif" font-size="10.00">_weights</text>
<text text-anchor="start" x="724" y="-186.5" font-family="Helvetica,sans-Serif" font-size="10.00">+ separator</text>
<text text-anchor="start" x="724" y="-175.5" font-family="Helvetica,sans-Serif" font-size="10.00">+ bandwidth</text>
<text text-anchor="start" x="724" y="-164.5" font-family="Helvetica,sans-Serif" font-size="10.00">+ in_bandwidth</text>
<text text-anchor="start" x="724" y="-153.5" font-family="Helvetica,sans-Serif" font-size="10.00">+ out_bandwidth</text>
<polyline fill="none" stroke="black" points="716,-146.5 877,-146.5 "/>
<text text-anchor="middle" x="796.5" y="-134.5" font-family="Helvetica,sans-Serif" font-size="10.00"> </text>
</a>
</g>
</g>
<!-- Node6&#45;&gt;Node1 -->
<g id="edge5" class="edge">
<title>Node6&#45;&gt;Node1</title>
<path fill="none" stroke="#404040" d="M715.76,-133.12C712.99,-131.04 710.23,-128.99 707.5,-127 681.31,-107.89 676.21,-99.97 646.5,-87 610.04,-71.09 567.75,-59.48 530.86,-51.36"/>
<polygon fill="none" stroke="#404040" points="530.83,-51.36 524.12,-54.01 519.09,-48.85 525.79,-46.19 530.83,-51.36"/>
<text text-anchor="middle" x="728.5" y="-95.5" font-family="Helvetica,sans-Serif" font-size="10.00"> +weights_params</text>
</g>
</g>
</svg>
