<?xml version="1.0" encoding="UTF-8" standalone="no"?>
<!DOCTYPE svg PUBLIC "-//W3C//DTD SVG 1.1//EN"
 "http://www.w3.org/Graphics/SVG/1.1/DTD/svg11.dtd">
<!-- Generated by graphviz version 2.43.0 (0)
 -->
<!-- Title: network_butcher::kfinder::Templated_Edge_Info&lt; Weight_Type &gt; Pages: 1 -->
<svg width="205pt" height="354pt"
 viewBox="0.00 0.00 205.00 354.00" xmlns="http://www.w3.org/2000/svg" xmlns:xlink="http://www.w3.org/1999/xlink">
<g id="graph0" class="graph" transform="scale(1 1) rotate(0) translate(4 350)">
<title>network_butcher::kfinder::Templated_Edge_Info&lt; Weight_Type &gt;</title>
<polygon fill="white" stroke="transparent" points="-4,4 -4,-350 201,-350 201,4 -4,4"/>
<!-- Node1 -->
<g id="node1" class="node">
<title>Node1</title>
<g id="a_node1"><a xlink:title=" ">
<polygon fill="#bfbfbf" stroke="black" points="8,-0.5 8,-101.5 148,-101.5 148,-0.5 8,-0.5"/>
<text text-anchor="start" x="16" y="-89.5" font-family="Helvetica,sans-Serif" font-size="10.00">network_butcher::kfinder</text>
<text text-anchor="start" x="16" y="-78.5" font-family="Helvetica,sans-Serif" font-size="10.00">::Templated_Edge_Info&lt;</text>
<text text-anchor="middle" x="78" y="-67.5" font-family="Helvetica,sans-Serif" font-size="10.00"> Weight_Type &gt;</text>
<polyline fill="none" stroke="black" points="8,-60.5 148,-60.5 "/>
<text text-anchor="start" x="16" y="-48.5" font-family="Helvetica,sans-Serif" font-size="10.00">+ edge</text>
<text text-anchor="start" x="16" y="-37.5" font-family="Helvetica,sans-Serif" font-size="10.00">+ delta_weight</text>
<polyline fill="none" stroke="black" points="8,-30.5 148,-30.5 "/>
<text text-anchor="start" x="16" y="-18.5" font-family="Helvetica,sans-Serif" font-size="10.00">+ Templated_Edge_Info()</text>
<text text-anchor="start" x="16" y="-7.5" font-family="Helvetica,sans-Serif" font-size="10.00">+ operator&lt;()</text>
</a>
</g>
</g>
<!-- Node2 -->
<g id="node2" class="node">
<title>Node2</title>
<g id="a_node2"><a xlink:href="classnetwork__butcher_1_1kfinder_1_1Crtp__Greater.html" target="_top" xlink:title=" ">
<polygon fill="white" stroke="black" points="0,-139.5 0,-218.5 156,-218.5 156,-139.5 0,-139.5"/>
<text text-anchor="start" x="8" y="-206.5" font-family="Helvetica,sans-Serif" font-size="10.00">network_butcher::kfinder</text>
<text text-anchor="start" x="8" y="-195.5" font-family="Helvetica,sans-Serif" font-size="10.00">::Crtp_Greater&lt; Templated</text>
<text text-anchor="middle" x="78" y="-184.5" font-family="Helvetica,sans-Serif" font-size="10.00">_Edge_Info&lt; Time_Type &gt; &gt;</text>
<polyline fill="none" stroke="black" points="0,-177.5 156,-177.5 "/>
<text text-anchor="middle" x="78" y="-165.5" font-family="Helvetica,sans-Serif" font-size="10.00"> </text>
<polyline fill="none" stroke="black" points="0,-158.5 156,-158.5 "/>
<text text-anchor="start" x="8" y="-146.5" font-family="Helvetica,sans-Serif" font-size="10.00">+ operator&gt;()</text>
</a>
</g>
</g>
<!-- Node2&#45;&gt;Node1 -->
<g id="edge1" class="edge">
<title>Node2&#45;&gt;Node1</title>
<path fill="none" stroke="midnightblue" d="M78,-128.89C78,-119.94 78,-110.6 78,-101.63"/>
<polygon fill="none" stroke="midnightblue" points="74.5,-129.17 78,-139.17 81.5,-129.17 74.5,-129.17"/>
</g>
<!-- Node3 -->
<g id="node3" class="node">
<title>Node3</title>
<g id="a_node3"><a xlink:href="classnetwork__butcher_1_1kfinder_1_1Crtp__Greater.html" target="_top" xlink:title=" ">
<polygon fill="white" stroke="black" points="9,-277.5 9,-345.5 147,-345.5 147,-277.5 9,-277.5"/>
<text text-anchor="start" x="17" y="-333.5" font-family="Helvetica,sans-Serif" font-size="10.00">network_butcher::kfinder</text>
<text text-anchor="middle" x="78" y="-322.5" font-family="Helvetica,sans-Serif" font-size="10.00">::Crtp_Greater&lt; T &gt;</text>
<polyline fill="none" stroke="black" points="9,-315.5 147,-315.5 "/>
<text text-anchor="middle" x="78" y="-303.5" font-family="Helvetica,sans-Serif" font-size="10.00"> </text>
<polyline fill="none" stroke="black" points="9,-296.5 147,-296.5 "/>
<text text-anchor="start" x="17" y="-284.5" font-family="Helvetica,sans-Serif" font-size="10.00">+ operator&gt;()</text>
</a>
</g>
</g>
<!-- Node3&#45;&gt;Node2 -->
<g id="edge2" class="edge">
<title>Node3&#45;&gt;Node2</title>
<path fill="none" stroke="orange" d="M78,-266.81C78,-251.26 78,-233.87 78,-218.77"/>
<polygon fill="orange" stroke="orange" points="74.5,-267.23 78,-277.23 81.5,-267.23 74.5,-267.23"/>
<text text-anchor="start" x="78" y="-251" font-family="Helvetica,sans-Serif" font-size="10.00"> &lt; Templated_Edge_Info</text>
<text text-anchor="middle" x="137.5" y="-240" font-family="Helvetica,sans-Serif" font-size="10.00">&lt; Time_Type &gt; &gt;</text>
</g>
</g>
</svg>
