<?xml version="1.0" encoding="UTF-8" standalone="no"?>
<!DOCTYPE svg PUBLIC "-//W3C//DTD SVG 1.1//EN"
 "http://www.w3.org/Graphics/SVG/1.1/DTD/svg11.dtd">
<!-- Generated by graphviz version 2.43.0 (0)
 -->
<!-- Title: network_butcher::kfinder::Templated_Path_Info&lt; Weight_Type &gt; Pages: 1 -->
<svg width="201pt" height="343pt"
 viewBox="0.00 0.00 200.50 343.00" xmlns="http://www.w3.org/2000/svg" xmlns:xlink="http://www.w3.org/1999/xlink">
<g id="graph0" class="graph" transform="scale(1 1) rotate(0) translate(4 339)">
<title>network_butcher::kfinder::Templated_Path_Info&lt; Weight_Type &gt;</title>
<polygon fill="white" stroke="transparent" points="-4,4 -4,-339 196.5,-339 196.5,4 -4,4"/>
<!-- Node1 -->
<g id="node1" class="node">
<title>Node1</title>
<g id="a_node1"><a xlink:title="Simple struct to represent an explicit path.">
<polygon fill="#bfbfbf" stroke="black" points="7.5,-0.5 7.5,-90.5 145.5,-90.5 145.5,-0.5 7.5,-0.5"/>
<text text-anchor="start" x="15.5" y="-78.5" font-family="Helvetica,sans-Serif" font-size="10.00">network_butcher::kfinder</text>
<text text-anchor="start" x="15.5" y="-67.5" font-family="Helvetica,sans-Serif" font-size="10.00">::Templated_Path_Info&lt;</text>
<text text-anchor="middle" x="76.5" y="-56.5" font-family="Helvetica,sans-Serif" font-size="10.00"> Weight_Type &gt;</text>
<polyline fill="none" stroke="black" points="7.5,-49.5 145.5,-49.5 "/>
<text text-anchor="start" x="15.5" y="-37.5" font-family="Helvetica,sans-Serif" font-size="10.00">+ length</text>
<text text-anchor="start" x="15.5" y="-26.5" font-family="Helvetica,sans-Serif" font-size="10.00">+ path</text>
<polyline fill="none" stroke="black" points="7.5,-19.5 145.5,-19.5 "/>
<text text-anchor="start" x="15.5" y="-7.5" font-family="Helvetica,sans-Serif" font-size="10.00">+ operator&lt;()</text>
</a>
</g>
</g>
<!-- Node2 -->
<g id="node2" class="node">
<title>Node2</title>
<g id="a_node2"><a xlink:href="classnetwork__butcher_1_1kfinder_1_1Crtp__Greater.html" target="_top" xlink:title=" ">
<polygon fill="white" stroke="black" points="0,-128.5 0,-207.5 153,-207.5 153,-128.5 0,-128.5"/>
<text text-anchor="start" x="8" y="-195.5" font-family="Helvetica,sans-Serif" font-size="10.00">network_butcher::kfinder</text>
<text text-anchor="start" x="8" y="-184.5" font-family="Helvetica,sans-Serif" font-size="10.00">::Crtp_Greater&lt; Templated</text>
<text text-anchor="middle" x="76.5" y="-173.5" font-family="Helvetica,sans-Serif" font-size="10.00">_Path_Info&lt; Time_Type &gt; &gt;</text>
<polyline fill="none" stroke="black" points="0,-166.5 153,-166.5 "/>
<text text-anchor="middle" x="76.5" y="-154.5" font-family="Helvetica,sans-Serif" font-size="10.00"> </text>
<polyline fill="none" stroke="black" points="0,-147.5 153,-147.5 "/>
<text text-anchor="start" x="8" y="-135.5" font-family="Helvetica,sans-Serif" font-size="10.00">+ operator&gt;()</text>
</a>
</g>
</g>
<!-- Node2&#45;&gt;Node1 -->
<g id="edge1" class="edge">
<title>Node2&#45;&gt;Node1</title>
<path fill="none" stroke="midnightblue" d="M76.5,-118.14C76.5,-109.05 76.5,-99.6 76.5,-90.66"/>
<polygon fill="none" stroke="midnightblue" points="73,-118.21 76.5,-128.21 80,-118.21 73,-118.21"/>
</g>
<!-- Node3 -->
<g id="node3" class="node">
<title>Node3</title>
<g id="a_node3"><a xlink:href="classnetwork__butcher_1_1kfinder_1_1Crtp__Greater.html" target="_top" xlink:title=" ">
<polygon fill="white" stroke="black" points="7.5,-266.5 7.5,-334.5 145.5,-334.5 145.5,-266.5 7.5,-266.5"/>
<text text-anchor="start" x="15.5" y="-322.5" font-family="Helvetica,sans-Serif" font-size="10.00">network_butcher::kfinder</text>
<text text-anchor="middle" x="76.5" y="-311.5" font-family="Helvetica,sans-Serif" font-size="10.00">::Crtp_Greater&lt; T &gt;</text>
<polyline fill="none" stroke="black" points="7.5,-304.5 145.5,-304.5 "/>
<text text-anchor="middle" x="76.5" y="-292.5" font-family="Helvetica,sans-Serif" font-size="10.00"> </text>
<polyline fill="none" stroke="black" points="7.5,-285.5 145.5,-285.5 "/>
<text text-anchor="start" x="15.5" y="-273.5" font-family="Helvetica,sans-Serif" font-size="10.00">+ operator&gt;()</text>
</a>
</g>
</g>
<!-- Node3&#45;&gt;Node2 -->
<g id="edge2" class="edge">
<title>Node3&#45;&gt;Node2</title>
<path fill="none" stroke="orange" d="M76.5,-255.81C76.5,-240.26 76.5,-222.87 76.5,-207.77"/>
<polygon fill="orange" stroke="orange" points="73,-256.23 76.5,-266.23 80,-256.23 73,-256.23"/>
<text text-anchor="start" x="76.5" y="-240" font-family="Helvetica,sans-Serif" font-size="10.00"> &lt; Templated_Path_Info</text>
<text text-anchor="middle" x="134.5" y="-229" font-family="Helvetica,sans-Serif" font-size="10.00">&lt; Time_Type &gt; &gt;</text>
</g>
</g>
</svg>
