<?xml version="1.0" encoding="UTF-8" standalone="no"?>
<!DOCTYPE svg PUBLIC "-//W3C//DTD SVG 1.1//EN"
 "http://www.w3.org/Graphics/SVG/1.1/DTD/svg11.dtd">
<!-- Generated by graphviz version 2.43.0 (0)
 -->
<!-- Title: network_butcher::kfinder::Basic_KEppstein&lt; GraphType, Only_Distance, t_Weighted_Graph_Complete_Type &gt;::Implicit_Path_Info Pages: 1 -->
<svg width="214pt" height="387pt"
 viewBox="0.00 0.00 213.50 387.00" xmlns="http://www.w3.org/2000/svg" xmlns:xlink="http://www.w3.org/1999/xlink">
<g id="graph0" class="graph" transform="scale(1 1) rotate(0) translate(4 383)">
<title>network_butcher::kfinder::Basic_KEppstein&lt; GraphType, Only_Distance, t_Weighted_Graph_Complete_Type &gt;::Implicit_Path_Info</title>
<polygon fill="white" stroke="transparent" points="-4,4 -4,-383 209.5,-383 209.5,4 -4,4"/>
<!-- Node1 -->
<g id="node1" class="node">
<title>Node1</title>
<g id="a_node1"><a xlink:title="Simple struct to represent an implicit path.">
<polygon fill="#bfbfbf" stroke="black" points="0,-0.5 0,-145.5 185,-145.5 185,-0.5 0,-0.5"/>
<text text-anchor="start" x="8" y="-133.5" font-family="Helvetica,sans-Serif" font-size="10.00">network_butcher::kfinder</text>
<text text-anchor="start" x="8" y="-122.5" font-family="Helvetica,sans-Serif" font-size="10.00">::Basic_KEppstein&lt; GraphType,</text>
<text text-anchor="start" x="8" y="-111.5" font-family="Helvetica,sans-Serif" font-size="10.00"> Only_Distance, t_Weighted</text>
<text text-anchor="start" x="8" y="-100.5" font-family="Helvetica,sans-Serif" font-size="10.00">_Graph_Complete_Type &gt;::Implicit</text>
<text text-anchor="middle" x="92.5" y="-89.5" font-family="Helvetica,sans-Serif" font-size="10.00">_Path_Info</text>
<polyline fill="none" stroke="black" points="0,-82.5 185,-82.5 "/>
<text text-anchor="start" x="8" y="-70.5" font-family="Helvetica,sans-Serif" font-size="10.00">+ current_sidetrack</text>
<text text-anchor="start" x="8" y="-59.5" font-family="Helvetica,sans-Serif" font-size="10.00">+ previous_sidetracks</text>
<text text-anchor="start" x="8" y="-48.5" font-family="Helvetica,sans-Serif" font-size="10.00">+ length</text>
<polyline fill="none" stroke="black" points="0,-41.5 185,-41.5 "/>
<text text-anchor="start" x="8" y="-29.5" font-family="Helvetica,sans-Serif" font-size="10.00">+ operator&lt;()</text>
<text text-anchor="start" x="8" y="-18.5" font-family="Helvetica,sans-Serif" font-size="10.00">+ compute_sidetracks()</text>
<text text-anchor="start" x="8" y="-7.5" font-family="Helvetica,sans-Serif" font-size="10.00">+ compute_sidetracks()</text>
</a>
</g>
</g>
<!-- Node2 -->
<g id="node2" class="node">
<title>Node2</title>
<g id="a_node2"><a xlink:href="classnetwork__butcher_1_1kfinder_1_1Crtp__Greater.html" target="_top" xlink:title=" ">
<polygon fill="white" stroke="black" points="23.5,-183.5 23.5,-262.5 161.5,-262.5 161.5,-183.5 23.5,-183.5"/>
<text text-anchor="start" x="31.5" y="-250.5" font-family="Helvetica,sans-Serif" font-size="10.00">network_butcher::kfinder</text>
<text text-anchor="start" x="31.5" y="-239.5" font-family="Helvetica,sans-Serif" font-size="10.00">::Crtp_Greater&lt; Implicit</text>
<text text-anchor="middle" x="92.5" y="-228.5" font-family="Helvetica,sans-Serif" font-size="10.00">_Path_Info &gt;</text>
<polyline fill="none" stroke="black" points="23.5,-221.5 161.5,-221.5 "/>
<text text-anchor="middle" x="92.5" y="-209.5" font-family="Helvetica,sans-Serif" font-size="10.00"> </text>
<polyline fill="none" stroke="black" points="23.5,-202.5 161.5,-202.5 "/>
<text text-anchor="start" x="31.5" y="-190.5" font-family="Helvetica,sans-Serif" font-size="10.00">+ operator&gt;()</text>
</a>
</g>
</g>
<!-- Node2&#45;&gt;Node1 -->
<g id="edge1" class="edge">
<title>Node2&#45;&gt;Node1</title>
<path fill="none" stroke="midnightblue" d="M92.5,-173.04C92.5,-164.22 92.5,-154.86 92.5,-145.55"/>
<polygon fill="none" stroke="midnightblue" points="89,-173.11 92.5,-183.11 96,-173.11 89,-173.11"/>
</g>
<!-- Node3 -->
<g id="node3" class="node">
<title>Node3</title>
<g id="a_node3"><a xlink:href="classnetwork__butcher_1_1kfinder_1_1Crtp__Greater.html" target="_top" xlink:title=" ">
<polygon fill="white" stroke="black" points="23.5,-310.5 23.5,-378.5 161.5,-378.5 161.5,-310.5 23.5,-310.5"/>
<text text-anchor="start" x="31.5" y="-366.5" font-family="Helvetica,sans-Serif" font-size="10.00">network_butcher::kfinder</text>
<text text-anchor="middle" x="92.5" y="-355.5" font-family="Helvetica,sans-Serif" font-size="10.00">::Crtp_Greater&lt; T &gt;</text>
<polyline fill="none" stroke="black" points="23.5,-348.5 161.5,-348.5 "/>
<text text-anchor="middle" x="92.5" y="-336.5" font-family="Helvetica,sans-Serif" font-size="10.00"> </text>
<polyline fill="none" stroke="black" points="23.5,-329.5 161.5,-329.5 "/>
<text text-anchor="start" x="31.5" y="-317.5" font-family="Helvetica,sans-Serif" font-size="10.00">+ operator&gt;()</text>
</a>
</g>
</g>
<!-- Node3&#45;&gt;Node2 -->
<g id="edge2" class="edge">
<title>Node3&#45;&gt;Node2</title>
<path fill="none" stroke="orange" d="M92.5,-300.18C92.5,-287.89 92.5,-274.59 92.5,-262.6"/>
<polygon fill="orange" stroke="orange" points="89,-300.21 92.5,-310.21 96,-300.21 89,-300.21"/>
<text text-anchor="middle" x="149" y="-284" font-family="Helvetica,sans-Serif" font-size="10.00"> &lt; Implicit_Path_Info &gt;</text>
</g>
</g>
</svg>
