<?xml version="1.0" encoding="UTF-8" standalone="no"?>
<!DOCTYPE svg PUBLIC "-//W3C//DTD SVG 1.1//EN"
 "http://www.w3.org/Graphics/SVG/1.1/DTD/svg11.dtd">
<!-- Generated by graphviz version 2.43.0 (0)
 -->
<!-- Title: network_butcher::kfinder::Basic_KEppstein&lt; GraphType, Only_Distance, t_Weighted_Graph_Complete_Type &gt;::Implicit_Path_Info Pages: 1 -->
<svg width="320pt" height="376pt"
 viewBox="0.00 0.00 320.00 376.00" xmlns="http://www.w3.org/2000/svg" xmlns:xlink="http://www.w3.org/1999/xlink">
<g id="graph0" class="graph" transform="scale(1 1) rotate(0) translate(4 372)">
<title>network_butcher::kfinder::Basic_KEppstein&lt; GraphType, Only_Distance, t_Weighted_Graph_Complete_Type &gt;::Implicit_Path_Info</title>
<polygon fill="white" stroke="transparent" points="-4,4 -4,-372 316,-372 316,4 -4,4"/>
<!-- Node1 -->
<g id="node1" class="node">
<title>Node1</title>
<g id="a_node1"><a xlink:title="Simple struct to represent an implicit path.">
<polygon fill="#bfbfbf" stroke="black" points="0,-0.5 0,-134.5 185,-134.5 185,-0.5 0,-0.5"/>
<text text-anchor="start" x="8" y="-122.5" font-family="Helvetica,sans-Serif" font-size="10.00">network_butcher::kfinder</text>
<text text-anchor="start" x="8" y="-111.5" font-family="Helvetica,sans-Serif" font-size="10.00">::Basic_KEppstein&lt; GraphType,</text>
<text text-anchor="start" x="8" y="-100.5" font-family="Helvetica,sans-Serif" font-size="10.00"> Only_Distance, t_Weighted</text>
<text text-anchor="start" x="8" y="-89.5" font-family="Helvetica,sans-Serif" font-size="10.00">_Graph_Complete_Type &gt;::Implicit</text>
<text text-anchor="middle" x="92.5" y="-78.5" font-family="Helvetica,sans-Serif" font-size="10.00">_Path_Info</text>
<polyline fill="none" stroke="black" points="0,-71.5 185,-71.5 "/>
<text text-anchor="start" x="8" y="-59.5" font-family="Helvetica,sans-Serif" font-size="10.00">+ current_sidetrack</text>
<text text-anchor="start" x="8" y="-48.5" font-family="Helvetica,sans-Serif" font-size="10.00">+ length</text>
<polyline fill="none" stroke="black" points="0,-41.5 185,-41.5 "/>
<text text-anchor="start" x="8" y="-29.5" font-family="Helvetica,sans-Serif" font-size="10.00">+ operator&lt;()</text>
<text text-anchor="start" x="8" y="-18.5" font-family="Helvetica,sans-Serif" font-size="10.00">+ compute_sidetracks()</text>
<text text-anchor="start" x="8" y="-7.5" font-family="Helvetica,sans-Serif" font-size="10.00">+ compute_sidetracks()</text>
</a>
</g>
</g>
<!-- Node1&#45;&gt;Node1 -->
<g id="edge3" class="edge">
<title>Node1&#45;&gt;Node1</title>
<path fill="none" stroke="#404040" d="M185.2,-80.94C195.98,-78.46 203,-73.98 203,-67.5 203,-63.75 200.66,-60.68 196.59,-58.27"/>
<polygon fill="none" stroke="#404040" points="196.46,-58.22 189.44,-59.89 185.2,-54.06 192.22,-52.38 196.46,-58.22"/>
<text text-anchor="middle" x="257.5" y="-65" font-family="Helvetica,sans-Serif" font-size="10.00"> +previous_sidetracks</text>
</g>
<!-- Node2 -->
<g id="node2" class="node">
<title>Node2</title>
<g id="a_node2"><a xlink:href="classnetwork__butcher_1_1kfinder_1_1Crtp__Greater.html" target="_top" xlink:title=" ">
<polygon fill="white" stroke="black" points="23.5,-172.5 23.5,-251.5 161.5,-251.5 161.5,-172.5 23.5,-172.5"/>
<text text-anchor="start" x="31.5" y="-239.5" font-family="Helvetica,sans-Serif" font-size="10.00">network_butcher::kfinder</text>
<text text-anchor="start" x="31.5" y="-228.5" font-family="Helvetica,sans-Serif" font-size="10.00">::Crtp_Greater&lt; Implicit</text>
<text text-anchor="middle" x="92.5" y="-217.5" font-family="Helvetica,sans-Serif" font-size="10.00">_Path_Info &gt;</text>
<polyline fill="none" stroke="black" points="23.5,-210.5 161.5,-210.5 "/>
<text text-anchor="middle" x="92.5" y="-198.5" font-family="Helvetica,sans-Serif" font-size="10.00"> </text>
<polyline fill="none" stroke="black" points="23.5,-191.5 161.5,-191.5 "/>
<text text-anchor="start" x="31.5" y="-179.5" font-family="Helvetica,sans-Serif" font-size="10.00">+ operator&gt;()</text>
</a>
</g>
</g>
<!-- Node2&#45;&gt;Node1 -->
<g id="edge1" class="edge">
<title>Node2&#45;&gt;Node1</title>
<path fill="none" stroke="midnightblue" d="M92.5,-162.24C92.5,-153.32 92.5,-143.88 92.5,-134.55"/>
<polygon fill="none" stroke="midnightblue" points="89,-162.44 92.5,-172.44 96,-162.44 89,-162.44"/>
</g>
<!-- Node3 -->
<g id="node3" class="node">
<title>Node3</title>
<g id="a_node3"><a xlink:href="classnetwork__butcher_1_1kfinder_1_1Crtp__Greater.html" target="_top" xlink:title=" ">
<polygon fill="white" stroke="black" points="23.5,-299.5 23.5,-367.5 161.5,-367.5 161.5,-299.5 23.5,-299.5"/>
<text text-anchor="start" x="31.5" y="-355.5" font-family="Helvetica,sans-Serif" font-size="10.00">network_butcher::kfinder</text>
<text text-anchor="middle" x="92.5" y="-344.5" font-family="Helvetica,sans-Serif" font-size="10.00">::Crtp_Greater&lt; T &gt;</text>
<polyline fill="none" stroke="black" points="23.5,-337.5 161.5,-337.5 "/>
<text text-anchor="middle" x="92.5" y="-325.5" font-family="Helvetica,sans-Serif" font-size="10.00"> </text>
<polyline fill="none" stroke="black" points="23.5,-318.5 161.5,-318.5 "/>
<text text-anchor="start" x="31.5" y="-306.5" font-family="Helvetica,sans-Serif" font-size="10.00">+ operator&gt;()</text>
</a>
</g>
</g>
<!-- Node3&#45;&gt;Node2 -->
<g id="edge2" class="edge">
<title>Node3&#45;&gt;Node2</title>
<path fill="none" stroke="orange" d="M92.5,-289.18C92.5,-276.89 92.5,-263.59 92.5,-251.6"/>
<polygon fill="orange" stroke="orange" points="89,-289.21 92.5,-299.21 96,-289.21 89,-289.21"/>
<text text-anchor="middle" x="149" y="-273" font-family="Helvetica,sans-Serif" font-size="10.00"> &lt; Implicit_Path_Info &gt;</text>
</g>
</g>
</svg>
