<?xml version="1.0" encoding="UTF-8" standalone="no"?>
<!DOCTYPE svg PUBLIC "-//W3C//DTD SVG 1.1//EN"
 "http://www.w3.org/Graphics/SVG/1.1/DTD/svg11.dtd">
<!-- Generated by graphviz version 2.43.0 (0)
 -->
<!-- Title: include/Types/type_info.h Pages: 1 -->
<svg width="230pt" height="95pt"
 viewBox="0.00 0.00 230.00 95.00" xmlns="http://www.w3.org/2000/svg" xmlns:xlink="http://www.w3.org/1999/xlink">
<g id="graph0" class="graph" transform="scale(1 1) rotate(0) translate(4 91)">
<title>include/Types/type_info.h</title>
<polygon fill="white" stroke="transparent" points="-4,4 -4,-91 226,-91 226,4 -4,4"/>
<!-- Node1 -->
<g id="node1" class="node">
<title>Node1</title>
<g id="a_node1"><a xlink:title=" ">
<polygon fill="#bfbfbf" stroke="black" points="32.5,-56.5 32.5,-86.5 139.5,-86.5 139.5,-56.5 32.5,-56.5"/>
<text text-anchor="start" x="40.5" y="-74.5" font-family="Helvetica,sans-Serif" font-size="10.00">include/Types/type</text>
<text text-anchor="middle" x="86" y="-63.5" font-family="Helvetica,sans-Serif" font-size="10.00">_info.h</text>
</a>
</g>
</g>
<!-- Node2 -->
<g id="node2" class="node">
<title>Node2</title>
<g id="a_node2"><a xlink:title=" ">
<polygon fill="white" stroke="#bfbfbf" points="0,-0.5 0,-19.5 44,-19.5 44,-0.5 0,-0.5"/>
<text text-anchor="middle" x="22" y="-7.5" font-family="Helvetica,sans-Serif" font-size="10.00">string</text>
</a>
</g>
</g>
<!-- Node1&#45;&gt;Node2 -->
<g id="edge1" class="edge">
<title>Node1&#45;&gt;Node2</title>
<path fill="none" stroke="midnightblue" d="M70.83,-56.4C61.25,-47.49 48.84,-35.95 38.93,-26.74"/>
<polygon fill="midnightblue" stroke="midnightblue" points="41.02,-23.9 31.31,-19.66 36.25,-29.03 41.02,-23.9"/>
</g>
<!-- Node3 -->
<g id="node3" class="node">
<title>Node3</title>
<g id="a_node3"><a xlink:title=" ">
<polygon fill="white" stroke="#bfbfbf" points="62.5,-0.5 62.5,-19.5 109.5,-19.5 109.5,-0.5 62.5,-0.5"/>
<text text-anchor="middle" x="86" y="-7.5" font-family="Helvetica,sans-Serif" font-size="10.00">vector</text>
</a>
</g>
</g>
<!-- Node1&#45;&gt;Node3 -->
<g id="edge2" class="edge">
<title>Node1&#45;&gt;Node3</title>
<path fill="none" stroke="midnightblue" d="M86,-56.4C86,-48.47 86,-38.46 86,-29.86"/>
<polygon fill="midnightblue" stroke="midnightblue" points="89.5,-29.66 86,-19.66 82.5,-29.66 89.5,-29.66"/>
</g>
<!-- Node4 -->
<g id="node4" class="node">
<title>Node4</title>
<g id="a_node4"><a xlink:href="starting__traits_8h.html" target="_top" xlink:title=" ">
<polygon fill="white" stroke="black" points="128,-0.5 128,-19.5 222,-19.5 222,-0.5 128,-0.5"/>
<text text-anchor="middle" x="175" y="-7.5" font-family="Helvetica,sans-Serif" font-size="10.00">starting_traits.h</text>
</a>
</g>
</g>
<!-- Node1&#45;&gt;Node4 -->
<g id="edge3" class="edge">
<title>Node1&#45;&gt;Node4</title>
<path fill="none" stroke="midnightblue" d="M107.09,-56.4C121.09,-47.04 139.41,-34.79 153.49,-25.38"/>
<polygon fill="midnightblue" stroke="midnightblue" points="155.68,-28.13 162.05,-19.66 151.79,-22.31 155.68,-28.13"/>
</g>
</g>
</svg>
