<?xml version="1.0" encoding="UTF-8" standalone="no"?>
<!DOCTYPE svg PUBLIC "-//W3C//DTD SVG 1.1//EN"
 "http://www.w3.org/Graphics/SVG/1.1/DTD/svg11.dtd">
<!-- Generated by graphviz version 2.43.0 (0)
 -->
<!-- Title: include/utilities.h Pages: 1 -->
<!--zoomable 1245 -->
<svg id="main" version="1.1" xmlns="http://www.w3.org/2000/svg" xmlns:xlink="http://www.w3.org/1999/xlink" xml:space="preserve" onload="init(evt)">
<style type="text/css"><![CDATA[
.edge:hover path { stroke: red; }
.edge:hover polygon { stroke: red; fill: red; }
]]></style>
<script type="text/javascript"><![CDATA[
var edges = document.getElementsByTagName('g');
if (edges && edges.length) {
  for (var i=0;i<edges.length;i++) {
    if (edges[i].id.substr(0,4)=='edge') {
      edges[i].setAttribute('class','edge');
    }
  }
}
]]></script>
        <defs>
                <circle id="rim" cx="0" cy="0" r="7"/>
                <circle id="rim2" cx="0" cy="0" r="3.5"/>
                <g id="zoomPlus">
                        <use xlink:href="#rim" fill="#404040">
                                <set attributeName="fill" to="#808080" begin="zoomplus.mouseover" end="zoomplus.mouseout"/>
                        </use>
                        <path d="M-4,0h8M0,-4v8" fill="none" stroke="white" stroke-width="1.5" pointer-events="none"/>
                </g>
                <g id="zoomMin">
                        <use xlink:href="#rim" fill="#404040">
                                <set attributeName="fill" to="#808080" begin="zoomminus.mouseover" end="zoomminus.mouseout"/>
                        </use>
                        <path d="M-4,0h8" fill="none" stroke="white" stroke-width="1.5" pointer-events="none"/>
                </g>
                <g id="dirArrow">
                        <path fill="none" stroke="white" stroke-width="1.5" d="M0,-3.0v7 M-2.5,-0.5L0,-3.0L2.5,-0.5"/>
                </g>
               <g id="resetDef">
                       <use xlink:href="#rim2" fill="#404040">
                               <set attributeName="fill" to="#808080" begin="reset.mouseover" end="reset.mouseout"/>
                       </use>
               </g>
        </defs>

<script type="text/javascript">
var viewWidth = 1210;
var viewHeight = 1245;
var sectionId = 'dynsection-1';
</script>
<script xlink:href="svgpan.js"/>
<svg id="graph" class="graph">
<g id="viewport">
<title>include/utilities.h</title>
<polygon fill="white" stroke="transparent" points="-4,4 -4,-1241 1205.5,-1241 1205.5,4 -4,4"/>
<!-- Node1 -->
<g id="node1" class="node">
<title>Node1</title>
<g id="a_node1"><a xlink:title=" ">
<polygon fill="#bfbfbf" stroke="black" points="714.5,-1217.5 714.5,-1236.5 815.5,-1236.5 815.5,-1217.5 714.5,-1217.5"/>
<text text-anchor="middle" x="765" y="-1224.5" font-family="Helvetica,sans-Serif" font-size="10.00">include/utilities.h</text>
</a>
</g>
</g>
<!-- Node2 -->
<g id="node2" class="node">
<title>Node2</title>
<g id="a_node2"><a xlink:href="butcher_8h.html" target="_top" xlink:title=" ">
<polygon fill="white" stroke="black" points="307,-268.5 307,-287.5 447,-287.5 447,-268.5 307,-268.5"/>
<text text-anchor="middle" x="377" y="-275.5" font-family="Helvetica,sans-Serif" font-size="10.00">include/Butcher/butcher.h</text>
</a>
</g>
</g>
<!-- Node1&#45;&gt;Node2 -->
<g id="edge1" class="edge">
<title>Node1&#45;&gt;Node2</title>
<path fill="none" stroke="midnightblue" d="M751.4,-1209.06C695.97,-1138.24 490,-857.17 490,-591 490,-591 490,-591 490,-505.5 490,-424.63 523.31,-390.3 477,-324 463.75,-305.04 440.56,-293.94 419.84,-287.51"/>
<polygon fill="midnightblue" stroke="midnightblue" points="748.98,-1211.64 757.93,-1217.31 754.47,-1207.29 748.98,-1211.64"/>
</g>
<!-- Node8 -->
<g id="node8" class="node">
<title>Node8</title>
<g id="a_node8"><a xlink:href="network__butcher_8h.html" target="_top" xlink:title=" ">
<polygon fill="white" stroke="black" points="854.5,-56.5 854.5,-75.5 999.5,-75.5 999.5,-56.5 854.5,-56.5"/>
<text text-anchor="middle" x="927" y="-63.5" font-family="Helvetica,sans-Serif" font-size="10.00">include/network_butcher.h</text>
</a>
</g>
</g>
<!-- Node1&#45;&gt;Node8 -->
<g id="edge33" class="edge">
<title>Node1&#45;&gt;Node8</title>
<path fill="none" stroke="midnightblue" d="M825.61,-1215.63C917.63,-1198.14 1082,-1159.3 1082,-1105 1082,-1105 1082,-1105 1082,-210 1082,-158.93 1059.99,-146.13 1022,-112 1002.72,-94.68 975.6,-82.73 955.27,-75.52"/>
<polygon fill="midnightblue" stroke="midnightblue" points="824.77,-1212.22 815.58,-1217.5 826.05,-1219.11 824.77,-1212.22"/>
</g>
<!-- Node13 -->
<g id="node13" class="node">
<title>Node13</title>
<g id="a_node13"><a xlink:href="computer__memory_8h.html" target="_top" xlink:title=" ">
<polygon fill="white" stroke="black" points="689,-725.5 689,-755.5 841,-755.5 841,-725.5 689,-725.5"/>
<text text-anchor="start" x="697" y="-743.5" font-family="Helvetica,sans-Serif" font-size="10.00">include/Computer/computer</text>
<text text-anchor="middle" x="765" y="-732.5" font-family="Helvetica,sans-Serif" font-size="10.00">_memory.h</text>
</a>
</g>
</g>
<!-- Node1&#45;&gt;Node13 -->
<g id="edge14" class="edge">
<title>Node1&#45;&gt;Node13</title>
<path fill="none" stroke="midnightblue" d="M765,-1207.44C765,-1183.69 765,-1141.29 765,-1105 765,-1105 765,-1105 765,-868 765,-827.15 765,-778.88 765,-755.54"/>
<polygon fill="midnightblue" stroke="midnightblue" points="761.5,-1207.49 765,-1217.49 768.5,-1207.49 761.5,-1207.49"/>
</g>
<!-- Node19 -->
<g id="node19" class="node">
<title>Node19</title>
<g id="a_node19"><a xlink:href="weight__importer__utils_8h.html" target="_top" xlink:title=" ">
<polygon fill="white" stroke="black" points="796.5,-647.5 796.5,-688.5 939.5,-688.5 939.5,-647.5 796.5,-647.5"/>
<text text-anchor="start" x="804.5" y="-676.5" font-family="Helvetica,sans-Serif" font-size="10.00">include/IO_Interaction</text>
<text text-anchor="start" x="804.5" y="-665.5" font-family="Helvetica,sans-Serif" font-size="10.00">/Weight_Importer_Helpers</text>
<text text-anchor="middle" x="868" y="-654.5" font-family="Helvetica,sans-Serif" font-size="10.00">/weight_importer_utils.h</text>
</a>
</g>
</g>
<!-- Node1&#45;&gt;Node19 -->
<g id="edge26" class="edge">
<title>Node1&#45;&gt;Node19</title>
<path fill="none" stroke="midnightblue" d="M789.7,-1211.85C820.45,-1192.18 869,-1153.45 869,-1105 869,-1105 869,-1105 869,-806.5 869,-764.49 868.53,-715.25 868.23,-688.58"/>
<polygon fill="midnightblue" stroke="midnightblue" points="787.47,-1209.11 780.8,-1217.34 791.15,-1215.07 787.47,-1209.11"/>
</g>
<!-- Node23 -->
<g id="node23" class="node">
<title>Node23</title>
<g id="a_node23"><a xlink:href="dense__tensor_8h.html" target="_top" xlink:title=" ">
<polygon fill="white" stroke="black" points="482.5,-1150.5 482.5,-1180.5 597.5,-1180.5 597.5,-1150.5 482.5,-1150.5"/>
<text text-anchor="start" x="490.5" y="-1168.5" font-family="Helvetica,sans-Serif" font-size="10.00">include/Types/dense</text>
<text text-anchor="middle" x="540" y="-1157.5" font-family="Helvetica,sans-Serif" font-size="10.00">_tensor.h</text>
</a>
</g>
</g>
<!-- Node1&#45;&gt;Node23 -->
<g id="edge34" class="edge">
<title>Node1&#45;&gt;Node23</title>
<path fill="none" stroke="midnightblue" d="M717.96,-1214.98C679.55,-1205.27 625.65,-1191.05 587.2,-1180.52"/>
<polygon fill="midnightblue" stroke="midnightblue" points="717.31,-1218.43 727.86,-1217.48 719.02,-1211.64 717.31,-1218.43"/>
</g>
<!-- Node35 -->
<g id="node35" class="node">
<title>Node35</title>
<g id="a_node35"><a xlink:href="utilities_8cpp.html" target="_top" xlink:title=" ">
<polygon fill="white" stroke="black" points="1110.5,-1156 1110.5,-1175 1201.5,-1175 1201.5,-1156 1110.5,-1156"/>
<text text-anchor="middle" x="1156" y="-1163" font-family="Helvetica,sans-Serif" font-size="10.00">src/utilities.cpp</text>
</a>
</g>
</g>
<!-- Node1&#45;&gt;Node35 -->
<g id="edge66" class="edge">
<title>Node1&#45;&gt;Node35</title>
<path fill="none" stroke="midnightblue" d="M826.04,-1219.59C892.69,-1212.15 1002.41,-1198.62 1096,-1181 1104.95,-1179.31 1114.57,-1177.15 1123.43,-1175.01"/>
<polygon fill="midnightblue" stroke="midnightblue" points="825.28,-1216.15 815.73,-1220.73 826.05,-1223.11 825.28,-1216.15"/>
</g>
<!-- Node3 -->
<g id="node3" class="node">
<title>Node3</title>
<g id="a_node3"><a xlink:href="onnx__importer__helpers_8h.html" target="_top" xlink:title=" ">
<polygon fill="white" stroke="black" points="66.5,-196 66.5,-226 207.5,-226 207.5,-196 66.5,-196"/>
<text text-anchor="start" x="74.5" y="-214" font-family="Helvetica,sans-Serif" font-size="10.00">include/IO_Interaction</text>
<text text-anchor="middle" x="137" y="-203" font-family="Helvetica,sans-Serif" font-size="10.00">/onnx_importer_helpers.h</text>
</a>
</g>
</g>
<!-- Node2&#45;&gt;Node3 -->
<g id="edge2" class="edge">
<title>Node2&#45;&gt;Node3</title>
<path fill="none" stroke="midnightblue" d="M335.27,-265.7C294.58,-254.68 232.61,-237.89 188.8,-226.03"/>
<polygon fill="midnightblue" stroke="midnightblue" points="334.56,-269.13 345.13,-268.37 336.39,-262.38 334.56,-269.13"/>
</g>
<!-- Node2&#45;&gt;Node8 -->
<g id="edge13" class="edge">
<title>Node2&#45;&gt;Node8</title>
<path fill="none" stroke="midnightblue" d="M408.93,-264.81C509.55,-226.39 818.46,-108.44 904.53,-75.58"/>
<polygon fill="midnightblue" stroke="midnightblue" points="407.68,-261.54 399.59,-268.38 410.18,-268.08 407.68,-261.54"/>
</g>
<!-- Node11 -->
<g id="node11" class="node">
<title>Node11</title>
<g id="a_node11"><a xlink:href="onnx__model__reconstructor__helpers_8h.html" target="_top" xlink:title=" ">
<polygon fill="white" stroke="black" points="271.5,-190.5 271.5,-231.5 420.5,-231.5 420.5,-190.5 271.5,-190.5"/>
<text text-anchor="start" x="279.5" y="-219.5" font-family="Helvetica,sans-Serif" font-size="10.00">include/IO_Interaction</text>
<text text-anchor="start" x="279.5" y="-208.5" font-family="Helvetica,sans-Serif" font-size="10.00">/onnx_model_reconstructor</text>
<text text-anchor="middle" x="346" y="-197.5" font-family="Helvetica,sans-Serif" font-size="10.00">_helpers.h</text>
</a>
</g>
</g>
<!-- Node2&#45;&gt;Node11 -->
<g id="edge10" class="edge">
<title>Node2&#45;&gt;Node11</title>
<path fill="none" stroke="midnightblue" d="M368.49,-259.16C364.41,-250.6 359.51,-240.32 355.32,-231.54"/>
<polygon fill="midnightblue" stroke="midnightblue" points="365.36,-260.71 372.82,-268.23 371.67,-257.7 365.36,-260.71"/>
</g>
<!-- Node4 -->
<g id="node4" class="node">
<title>Node4</title>
<g id="a_node4"><a xlink:href="io__manager_8h.html" target="_top" xlink:title=" ">
<polygon fill="white" stroke="black" points="430.5,-123.5 430.5,-142.5 551.5,-142.5 551.5,-123.5 430.5,-123.5"/>
<text text-anchor="middle" x="491" y="-130.5" font-family="Helvetica,sans-Serif" font-size="10.00">include/io_manager.h</text>
</a>
</g>
</g>
<!-- Node3&#45;&gt;Node4 -->
<g id="edge3" class="edge">
<title>Node3&#45;&gt;Node4</title>
<path fill="none" stroke="midnightblue" d="M217.72,-195.94C274.77,-185.55 352.9,-170.41 421,-154 435.01,-150.62 450.42,-146.29 463.21,-142.52"/>
<polygon fill="midnightblue" stroke="midnightblue" points="216.89,-192.53 207.67,-197.76 218.14,-199.42 216.89,-192.53"/>
</g>
<!-- Node10 -->
<g id="node10" class="node">
<title>Node10</title>
<g id="a_node10"><a xlink:href="onnx__importer__helpers_8cpp.html" target="_top" xlink:title=" ">
<polygon fill="white" stroke="black" points="61,-118 61,-148 213,-148 213,-118 61,-118"/>
<text text-anchor="start" x="69" y="-136" font-family="Helvetica,sans-Serif" font-size="10.00">src/IO_Interaction</text>
<text text-anchor="middle" x="137" y="-125" font-family="Helvetica,sans-Serif" font-size="10.00">/onnx_importer_helpers.cpp</text>
</a>
</g>
</g>
<!-- Node3&#45;&gt;Node10 -->
<g id="edge9" class="edge">
<title>Node3&#45;&gt;Node10</title>
<path fill="none" stroke="midnightblue" d="M137,-185.59C137,-173.26 137,-158.72 137,-148.23"/>
<polygon fill="midnightblue" stroke="midnightblue" points="133.5,-185.7 137,-195.7 140.5,-185.71 133.5,-185.7"/>
</g>
<!-- Node5 -->
<g id="node5" class="node">
<title>Node5</title>
<g id="a_node5"><a xlink:href="general__manager_8h.html" target="_top" xlink:title=" ">
<polygon fill="white" stroke="black" points="490.5,-56.5 490.5,-75.5 639.5,-75.5 639.5,-56.5 490.5,-56.5"/>
<text text-anchor="middle" x="565" y="-63.5" font-family="Helvetica,sans-Serif" font-size="10.00">include/general_manager.h</text>
</a>
</g>
</g>
<!-- Node4&#45;&gt;Node5 -->
<g id="edge4" class="edge">
<title>Node4&#45;&gt;Node5</title>
<path fill="none" stroke="midnightblue" d="M508.81,-116.36C523.36,-103.58 543.38,-85.99 555.18,-75.63"/>
<polygon fill="midnightblue" stroke="midnightblue" points="506.18,-114 500.98,-123.23 510.8,-119.26 506.18,-114"/>
</g>
<!-- Node4&#45;&gt;Node8 -->
<g id="edge7" class="edge">
<title>Node4&#45;&gt;Node8</title>
<path fill="none" stroke="midnightblue" d="M529.2,-120.73C540.93,-117.57 553.93,-114.35 566,-112 665.04,-92.72 781.05,-79.98 854.28,-73.12"/>
<polygon fill="midnightblue" stroke="midnightblue" points="527.98,-117.44 519.28,-123.48 529.85,-124.19 527.98,-117.44"/>
</g>
<!-- Node9 -->
<g id="node9" class="node">
<title>Node9</title>
<g id="a_node9"><a xlink:href="io__manager_8cpp.html" target="_top" xlink:title=" ">
<polygon fill="white" stroke="black" points="361.5,-56.5 361.5,-75.5 472.5,-75.5 472.5,-56.5 361.5,-56.5"/>
<text text-anchor="middle" x="417" y="-63.5" font-family="Helvetica,sans-Serif" font-size="10.00">src/io_manager.cpp</text>
</a>
</g>
</g>
<!-- Node4&#45;&gt;Node9 -->
<g id="edge8" class="edge">
<title>Node4&#45;&gt;Node9</title>
<path fill="none" stroke="midnightblue" d="M473.19,-116.36C458.64,-103.58 438.62,-85.99 426.82,-75.63"/>
<polygon fill="midnightblue" stroke="midnightblue" points="471.2,-119.26 481.02,-123.23 475.82,-114 471.2,-119.26"/>
</g>
<!-- Node6 -->
<g id="node6" class="node">
<title>Node6</title>
<g id="a_node6"><a xlink:href="main_8cpp.html" target="_top" xlink:title=" ">
<polygon fill="white" stroke="black" points="461.5,-0.5 461.5,-19.5 540.5,-19.5 540.5,-0.5 461.5,-0.5"/>
<text text-anchor="middle" x="501" y="-7.5" font-family="Helvetica,sans-Serif" font-size="10.00">src/main.cpp</text>
</a>
</g>
</g>
<!-- Node5&#45;&gt;Node6 -->
<g id="edge5" class="edge">
<title>Node5&#45;&gt;Node6</title>
<path fill="none" stroke="midnightblue" d="M547.01,-49.82C535.54,-40.15 521.09,-27.95 511.47,-19.83"/>
<polygon fill="midnightblue" stroke="midnightblue" points="544.82,-52.55 554.72,-56.32 549.33,-47.2 544.82,-52.55"/>
</g>
<!-- Node7 -->
<g id="node7" class="node">
<title>Node7</title>
<g id="a_node7"><a xlink:href="general__manager_8cpp.html" target="_top" xlink:title=" ">
<polygon fill="white" stroke="black" points="558.5,-0.5 558.5,-19.5 697.5,-19.5 697.5,-0.5 558.5,-0.5"/>
<text text-anchor="middle" x="628" y="-7.5" font-family="Helvetica,sans-Serif" font-size="10.00">src/general_manager.cpp</text>
</a>
</g>
</g>
<!-- Node5&#45;&gt;Node7 -->
<g id="edge6" class="edge">
<title>Node5&#45;&gt;Node7</title>
<path fill="none" stroke="midnightblue" d="M583.04,-49.54C594.27,-39.91 608.32,-27.87 617.69,-19.83"/>
<polygon fill="midnightblue" stroke="midnightblue" points="580.44,-47.16 575.12,-56.32 584.99,-52.47 580.44,-47.16"/>
</g>
<!-- Node11&#45;&gt;Node4 -->
<g id="edge11" class="edge">
<title>Node11&#45;&gt;Node4</title>
<path fill="none" stroke="midnightblue" d="M392.26,-185.75C420.48,-170.96 454.84,-152.96 474.68,-142.55"/>
<polygon fill="midnightblue" stroke="midnightblue" points="390.57,-182.69 383.34,-190.43 393.82,-188.89 390.57,-182.69"/>
</g>
<!-- Node12 -->
<g id="node12" class="node">
<title>Node12</title>
<g id="a_node12"><a xlink:href="onnx__model__reconstructor__helpers_8cpp.html" target="_top" xlink:title=" ">
<polygon fill="white" stroke="black" points="263.5,-112.5 263.5,-153.5 412.5,-153.5 412.5,-112.5 263.5,-112.5"/>
<text text-anchor="start" x="271.5" y="-141.5" font-family="Helvetica,sans-Serif" font-size="10.00">src/IO_Interaction</text>
<text text-anchor="start" x="271.5" y="-130.5" font-family="Helvetica,sans-Serif" font-size="10.00">/onnx_model_reconstructor</text>
<text text-anchor="middle" x="338" y="-119.5" font-family="Helvetica,sans-Serif" font-size="10.00">_helpers.cpp</text>
</a>
</g>
</g>
<!-- Node11&#45;&gt;Node12 -->
<g id="edge12" class="edge">
<title>Node11&#45;&gt;Node12</title>
<path fill="none" stroke="midnightblue" d="M342.87,-180.3C341.93,-171.3 340.91,-161.65 340.05,-153.51"/>
<polygon fill="midnightblue" stroke="midnightblue" points="339.41,-180.85 343.94,-190.43 346.37,-180.12 339.41,-180.85"/>
</g>
<!-- Node13&#45;&gt;Node2 -->
<g id="edge15" class="edge">
<title>Node13&#45;&gt;Node2</title>
<path fill="none" stroke="midnightblue" d="M748,-717.63C730.57,-696.63 701.59,-665.44 670,-647 620.81,-618.28 584,-654.3 547,-611 463.45,-513.23 591.51,-423.49 510,-324 494.4,-304.96 470.4,-293.93 447.07,-287.57"/>
<polygon fill="midnightblue" stroke="midnightblue" points="745.29,-719.85 754.31,-725.41 750.73,-715.44 745.29,-719.85"/>
</g>
<!-- Node13&#45;&gt;Node8 -->
<g id="edge25" class="edge">
<title>Node13&#45;&gt;Node8</title>
<path fill="none" stroke="midnightblue" d="M851.33,-729.9C933.27,-715.42 1044,-679.49 1044,-591 1044,-591 1044,-591 1044,-210 1044,-146.17 973.3,-95.16 941.82,-75.62"/>
<polygon fill="midnightblue" stroke="midnightblue" points="850.52,-726.49 841.24,-731.6 851.68,-733.39 850.52,-726.49"/>
</g>
<!-- Node14 -->
<g id="node14" class="node">
<title>Node14</title>
<g id="a_node14"><a xlink:href="graph__constraint_8h.html" target="_top" xlink:title=" ">
<polygon fill="white" stroke="black" points="330.5,-653 330.5,-683 453.5,-683 453.5,-653 330.5,-653"/>
<text text-anchor="start" x="338.5" y="-671" font-family="Helvetica,sans-Serif" font-size="10.00">include/Butcher/graph</text>
<text text-anchor="middle" x="392" y="-660" font-family="Helvetica,sans-Serif" font-size="10.00">_constraint.h</text>
</a>
</g>
</g>
<!-- Node13&#45;&gt;Node14 -->
<g id="edge16" class="edge">
<title>Node13&#45;&gt;Node14</title>
<path fill="none" stroke="midnightblue" d="M680.88,-723.6C611.85,-710.55 515.7,-692.38 453.65,-680.65"/>
<polygon fill="midnightblue" stroke="midnightblue" points="680.39,-727.07 690.86,-725.49 681.69,-720.19 680.39,-727.07"/>
</g>
<!-- Node16 -->
<g id="node16" class="node">
<title>Node16</title>
<g id="a_node16"><a xlink:href="block__aMLLibrary__weight__importer_8h.html" target="_top" xlink:title=" ">
<polygon fill="white" stroke="black" points="755.5,-480.5 755.5,-532.5 898.5,-532.5 898.5,-480.5 755.5,-480.5"/>
<text text-anchor="start" x="763.5" y="-520.5" font-family="Helvetica,sans-Serif" font-size="10.00">include/IO_Interaction</text>
<text text-anchor="start" x="763.5" y="-509.5" font-family="Helvetica,sans-Serif" font-size="10.00">/Weight_Importer_Helpers</text>
<text text-anchor="start" x="763.5" y="-498.5" font-family="Helvetica,sans-Serif" font-size="10.00">/block_aMLLibrary_weight</text>
<text text-anchor="middle" x="827" y="-487.5" font-family="Helvetica,sans-Serif" font-size="10.00">_importer.h</text>
</a>
</g>
</g>
<!-- Node13&#45;&gt;Node16 -->
<g id="edge19" class="edge">
<title>Node13&#45;&gt;Node16</title>
<path fill="none" stroke="midnightblue" d="M770.37,-715.58C774.65,-696.86 780.92,-670.2 787,-647 797.54,-606.79 811.11,-560.46 819.43,-532.61"/>
<polygon fill="midnightblue" stroke="midnightblue" points="766.96,-714.82 768.15,-725.35 773.78,-716.37 766.96,-714.82"/>
</g>
<!-- Node15 -->
<g id="node15" class="node">
<title>Node15</title>
<g id="a_node15"><a xlink:href="constrained__block__graph__builder_8h.html" target="_top" xlink:title=" ">
<polygon fill="white" stroke="black" points="316,-324.5 316,-354.5 468,-354.5 468,-324.5 316,-324.5"/>
<text text-anchor="start" x="324" y="-342.5" font-family="Helvetica,sans-Serif" font-size="10.00">include/Butcher/constrained</text>
<text text-anchor="middle" x="392" y="-331.5" font-family="Helvetica,sans-Serif" font-size="10.00">_block_graph_builder.h</text>
</a>
</g>
</g>
<!-- Node14&#45;&gt;Node15 -->
<g id="edge17" class="edge">
<title>Node14&#45;&gt;Node15</title>
<path fill="none" stroke="midnightblue" d="M392,-642.62C392,-578.35 392,-405.78 392,-354.84"/>
<polygon fill="midnightblue" stroke="midnightblue" points="388.5,-642.97 392,-652.97 395.5,-642.97 388.5,-642.97"/>
</g>
<!-- Node15&#45;&gt;Node2 -->
<g id="edge18" class="edge">
<title>Node15&#45;&gt;Node2</title>
<path fill="none" stroke="midnightblue" d="M385.97,-314.59C383.57,-305.08 380.97,-294.73 379.18,-287.66"/>
<polygon fill="midnightblue" stroke="midnightblue" points="382.61,-315.56 388.45,-324.4 389.39,-313.85 382.61,-315.56"/>
</g>
<!-- Node17 -->
<g id="node17" class="node">
<title>Node17</title>
<g id="a_node17"><a xlink:href="weight__importers_8h.html" target="_top" xlink:title=" ">
<polygon fill="white" stroke="black" points="556.5,-402.5 556.5,-432.5 679.5,-432.5 679.5,-402.5 556.5,-402.5"/>
<text text-anchor="start" x="564.5" y="-420.5" font-family="Helvetica,sans-Serif" font-size="10.00">include/IO_Interaction</text>
<text text-anchor="middle" x="618" y="-409.5" font-family="Helvetica,sans-Serif" font-size="10.00">/weight_importers.h</text>
</a>
</g>
</g>
<!-- Node16&#45;&gt;Node17 -->
<g id="edge20" class="edge">
<title>Node16&#45;&gt;Node17</title>
<path fill="none" stroke="midnightblue" d="M757.46,-476.55C721.89,-461.75 680.23,-444.4 651.76,-432.55"/>
<polygon fill="midnightblue" stroke="midnightblue" points="756.25,-479.84 766.83,-480.45 758.94,-473.38 756.25,-479.84"/>
</g>
<!-- Node18 -->
<g id="node18" class="node">
<title>Node18</title>
<g id="a_node18"><a xlink:href="block__aMLLibrary__weight__importer_8cpp.html" target="_top" xlink:title=" ">
<polygon fill="white" stroke="black" points="755.5,-391.5 755.5,-443.5 898.5,-443.5 898.5,-391.5 755.5,-391.5"/>
<text text-anchor="start" x="763.5" y="-431.5" font-family="Helvetica,sans-Serif" font-size="10.00">src/IO_Interaction</text>
<text text-anchor="start" x="763.5" y="-420.5" font-family="Helvetica,sans-Serif" font-size="10.00">/Weight_Importer_Helpers</text>
<text text-anchor="start" x="763.5" y="-409.5" font-family="Helvetica,sans-Serif" font-size="10.00">/block_aMLLibrary_weight</text>
<text text-anchor="middle" x="827" y="-398.5" font-family="Helvetica,sans-Serif" font-size="10.00">_importer.cpp</text>
</a>
</g>
</g>
<!-- Node16&#45;&gt;Node18 -->
<g id="edge24" class="edge">
<title>Node16&#45;&gt;Node18</title>
<path fill="none" stroke="midnightblue" d="M827,-470.19C827,-461.28 827,-451.9 827,-443.61"/>
<polygon fill="midnightblue" stroke="midnightblue" points="823.5,-470.34 827,-480.34 830.5,-470.34 823.5,-470.34"/>
</g>
<!-- Node17&#45;&gt;Node2 -->
<g id="edge22" class="edge">
<title>Node17&#45;&gt;Node2</title>
<path fill="none" stroke="midnightblue" d="M606.27,-393.23C594.41,-372.04 574.12,-341.49 548,-324 518.16,-304.01 479.88,-292.9 447.1,-286.72"/>
<polygon fill="midnightblue" stroke="midnightblue" points="603.29,-395.07 611.12,-402.22 609.45,-391.75 603.29,-395.07"/>
</g>
<!-- Node17&#45;&gt;Node4 -->
<g id="edge23" class="edge">
<title>Node17&#45;&gt;Node4</title>
<path fill="none" stroke="midnightblue" d="M608.39,-393.08C600.63,-374.32 589.34,-347.37 579,-324 547.83,-253.52 507.94,-169.47 495.14,-142.66"/>
<polygon fill="midnightblue" stroke="midnightblue" points="605.16,-394.42 612.21,-402.33 611.63,-391.75 605.16,-394.42"/>
</g>
<!-- Node17&#45;&gt;Node15 -->
<g id="edge21" class="edge">
<title>Node17&#45;&gt;Node15</title>
<path fill="none" stroke="midnightblue" d="M566.67,-399.24C526.51,-385.73 471.37,-367.19 433.85,-354.57"/>
<polygon fill="midnightblue" stroke="midnightblue" points="565.69,-402.6 576.28,-402.47 567.92,-395.97 565.69,-402.6"/>
</g>
<!-- Node19&#45;&gt;Node16 -->
<g id="edge27" class="edge">
<title>Node19&#45;&gt;Node16</title>
<path fill="none" stroke="midnightblue" d="M860.42,-637.53C852.69,-607.43 840.8,-561.2 833.49,-532.74"/>
<polygon fill="midnightblue" stroke="midnightblue" points="857.09,-638.63 862.97,-647.44 863.87,-636.89 857.09,-638.63"/>
</g>
<!-- Node20 -->
<g id="node20" class="node">
<title>Node20</title>
<g id="a_node20"><a xlink:href="csv__weight__importer_8h.html" target="_top" xlink:title=" ">
<polygon fill="white" stroke="black" points="556.5,-569.5 556.5,-610.5 699.5,-610.5 699.5,-569.5 556.5,-569.5"/>
<text text-anchor="start" x="564.5" y="-598.5" font-family="Helvetica,sans-Serif" font-size="10.00">include/IO_Interaction</text>
<text text-anchor="start" x="564.5" y="-587.5" font-family="Helvetica,sans-Serif" font-size="10.00">/Weight_Importer_Helpers</text>
<text text-anchor="middle" x="628" y="-576.5" font-family="Helvetica,sans-Serif" font-size="10.00">/csv_weight_importer.h</text>
</a>
</g>
</g>
<!-- Node19&#45;&gt;Node20 -->
<g id="edge28" class="edge">
<title>Node19&#45;&gt;Node20</title>
<path fill="none" stroke="midnightblue" d="M796.33,-644.3C762.36,-633.55 722.18,-620.82 689.6,-610.51"/>
<polygon fill="midnightblue" stroke="midnightblue" points="795.6,-647.75 806.19,-647.43 797.72,-641.07 795.6,-647.75"/>
</g>
<!-- Node22 -->
<g id="node22" class="node">
<title>Node22</title>
<g id="a_node22"><a xlink:href="weight__importer__utils_8cpp.html" target="_top" xlink:title=" ">
<polygon fill="white" stroke="black" points="870,-569.5 870,-610.5 1016,-610.5 1016,-569.5 870,-569.5"/>
<text text-anchor="start" x="878" y="-598.5" font-family="Helvetica,sans-Serif" font-size="10.00">src/IO_Interaction</text>
<text text-anchor="start" x="878" y="-587.5" font-family="Helvetica,sans-Serif" font-size="10.00">/Weight_Importer_Helpers</text>
<text text-anchor="middle" x="943" y="-576.5" font-family="Helvetica,sans-Serif" font-size="10.00">/weight_importer_utils.cpp</text>
</a>
</g>
</g>
<!-- Node19&#45;&gt;Node22 -->
<g id="edge32" class="edge">
<title>Node19&#45;&gt;Node22</title>
<path fill="none" stroke="midnightblue" d="M894.44,-640.2C904.1,-630.42 914.84,-619.54 923.75,-610.51"/>
<polygon fill="midnightblue" stroke="midnightblue" points="891.85,-637.85 887.31,-647.43 896.83,-642.77 891.85,-637.85"/>
</g>
<!-- Node20&#45;&gt;Node16 -->
<g id="edge29" class="edge">
<title>Node20&#45;&gt;Node16</title>
<path fill="none" stroke="midnightblue" d="M685.1,-565.61C710.35,-555.28 740.07,-543.1 765.77,-532.58"/>
<polygon fill="midnightblue" stroke="midnightblue" points="683.59,-562.45 675.67,-569.48 686.25,-568.93 683.59,-562.45"/>
</g>
<!-- Node20&#45;&gt;Node17 -->
<g id="edge30" class="edge">
<title>Node20&#45;&gt;Node17</title>
<path fill="none" stroke="midnightblue" d="M601.38,-561.69C594.73,-553.17 588.5,-543.29 585,-533 577.42,-510.7 579.26,-502.85 585,-480 589.37,-462.61 599.72,-444.77 607.67,-432.82"/>
<polygon fill="midnightblue" stroke="midnightblue" points="598.72,-563.97 607.81,-569.41 604.1,-559.49 598.72,-563.97"/>
</g>
<!-- Node21 -->
<g id="node21" class="node">
<title>Node21</title>
<g id="a_node21"><a xlink:href="csv__weight__importer_8cpp.html" target="_top" xlink:title=" ">
<polygon fill="white" stroke="black" points="594.5,-486 594.5,-527 737.5,-527 737.5,-486 594.5,-486"/>
<text text-anchor="start" x="602.5" y="-515" font-family="Helvetica,sans-Serif" font-size="10.00">src/IO_Interaction</text>
<text text-anchor="start" x="602.5" y="-504" font-family="Helvetica,sans-Serif" font-size="10.00">/Weight_Importer_Helpers</text>
<text text-anchor="middle" x="666" y="-493" font-family="Helvetica,sans-Serif" font-size="10.00">/csv_weight_importer.cpp</text>
</a>
</g>
</g>
<!-- Node20&#45;&gt;Node21 -->
<g id="edge31" class="edge">
<title>Node20&#45;&gt;Node21</title>
<path fill="none" stroke="midnightblue" d="M641.49,-560.06C646.6,-549.12 652.28,-536.93 656.89,-527.05"/>
<polygon fill="midnightblue" stroke="midnightblue" points="638.25,-558.73 637.2,-569.27 644.6,-561.69 638.25,-558.73"/>
</g>
<!-- Node23&#45;&gt;Node1 -->
<g id="edge64" class="edge">
<title>Node23&#45;&gt;Node1</title>
<path fill="none" stroke="midnightblue" d="M607.22,-1182.67C650.89,-1193.9 705.41,-1208.42 737.66,-1217.48"/>
<polygon fill="midnightblue" stroke="midnightblue" points="608.07,-1179.27 597.52,-1180.18 606.33,-1186.05 608.07,-1179.27"/>
</g>
<!-- Node24 -->
<g id="node24" class="node">
<title>Node24</title>
<g id="a_node24"><a xlink:href="node_8h.html" target="_top" xlink:title=" ">
<polygon fill="white" stroke="black" points="315,-1094.5 315,-1113.5 447,-1113.5 447,-1094.5 315,-1094.5"/>
<text text-anchor="middle" x="381" y="-1101.5" font-family="Helvetica,sans-Serif" font-size="10.00">include/Network/node.h</text>
</a>
</g>
</g>
<!-- Node23&#45;&gt;Node24 -->
<g id="edge35" class="edge">
<title>Node23&#45;&gt;Node24</title>
<path fill="none" stroke="midnightblue" d="M492.7,-1146.8C463.47,-1135.86 427.26,-1122.31 404.14,-1113.66"/>
<polygon fill="midnightblue" stroke="midnightblue" points="491.73,-1150.17 502.32,-1150.4 494.18,-1143.62 491.73,-1150.17"/>
</g>
<!-- Node33 -->
<g id="node33" class="node">
<title>Node33</title>
<g id="a_node33"><a xlink:href="content_8h.html" target="_top" xlink:title=" ">
<polygon fill="white" stroke="black" points="165.5,-1094.5 165.5,-1113.5 296.5,-1113.5 296.5,-1094.5 165.5,-1094.5"/>
<text text-anchor="middle" x="231" y="-1101.5" font-family="Helvetica,sans-Serif" font-size="10.00">include/Types/content.h</text>
</a>
</g>
</g>
<!-- Node23&#45;&gt;Node33 -->
<g id="edge60" class="edge">
<title>Node23&#45;&gt;Node33</title>
<path fill="none" stroke="midnightblue" d="M472.13,-1151.43C412.33,-1139.92 326.95,-1123.48 275.47,-1113.56"/>
<polygon fill="midnightblue" stroke="midnightblue" points="471.76,-1154.92 482.24,-1153.38 473.08,-1148.05 471.76,-1154.92"/>
</g>
<!-- Node34 -->
<g id="node34" class="node">
<title>Node34</title>
<g id="a_node34"><a xlink:href="dense__tensor_8cpp.html" target="_top" xlink:title=" ">
<polygon fill="white" stroke="black" points="465.5,-1094.5 465.5,-1113.5 614.5,-1113.5 614.5,-1094.5 465.5,-1094.5"/>
<text text-anchor="middle" x="540" y="-1101.5" font-family="Helvetica,sans-Serif" font-size="10.00">src/Types/dense_tensor.cpp</text>
</a>
</g>
</g>
<!-- Node23&#45;&gt;Node34 -->
<g id="edge65" class="edge">
<title>Node23&#45;&gt;Node34</title>
<path fill="none" stroke="midnightblue" d="M540,-1140.29C540,-1130.86 540,-1120.65 540,-1113.66"/>
<polygon fill="midnightblue" stroke="midnightblue" points="536.5,-1140.4 540,-1150.4 543.5,-1140.4 536.5,-1140.4"/>
</g>
<!-- Node25 -->
<g id="node25" class="node">
<title>Node25</title>
<g id="a_node25"><a xlink:href="graph_8h.html" target="_top" xlink:title=" ">
<polygon fill="white" stroke="black" points="262,-971.5 262,-990.5 398,-990.5 398,-971.5 262,-971.5"/>
<text text-anchor="middle" x="330" y="-978.5" font-family="Helvetica,sans-Serif" font-size="10.00">include/Network/graph.h</text>
</a>
</g>
</g>
<!-- Node24&#45;&gt;Node25 -->
<g id="edge36" class="edge">
<title>Node24&#45;&gt;Node25</title>
<path fill="none" stroke="midnightblue" d="M392.42,-1085.18C401.12,-1069.16 410.04,-1045.39 400,-1027 390.38,-1009.37 370.57,-997.62 354.47,-990.56"/>
<polygon fill="midnightblue" stroke="midnightblue" points="389.26,-1083.65 387.2,-1094.04 395.29,-1087.2 389.26,-1083.65"/>
</g>
<!-- Node32 -->
<g id="node32" class="node">
<title>Node32</title>
<g id="a_node32"><a xlink:href="node__traits_8h.html" target="_top" xlink:title=" ">
<polygon fill="white" stroke="black" points="268.5,-1027.5 268.5,-1057.5 391.5,-1057.5 391.5,-1027.5 268.5,-1027.5"/>
<text text-anchor="start" x="276.5" y="-1045.5" font-family="Helvetica,sans-Serif" font-size="10.00">include/Network/node</text>
<text text-anchor="middle" x="330" y="-1034.5" font-family="Helvetica,sans-Serif" font-size="10.00">_traits.h</text>
</a>
</g>
</g>
<!-- Node24&#45;&gt;Node32 -->
<g id="edge58" class="edge">
<title>Node24&#45;&gt;Node32</title>
<path fill="none" stroke="midnightblue" d="M367.12,-1086.81C359.27,-1077.65 349.55,-1066.3 342.02,-1057.52"/>
<polygon fill="midnightblue" stroke="midnightblue" points="364.53,-1089.16 373.69,-1094.48 369.84,-1084.6 364.53,-1089.16"/>
</g>
<!-- Node26 -->
<g id="node26" class="node">
<title>Node26</title>
<g id="a_node26"><a xlink:href="graph__traits_8h.html" target="_top" xlink:title=" ">
<polygon fill="white" stroke="black" points="222.5,-792.5 222.5,-822.5 349.5,-822.5 349.5,-792.5 222.5,-792.5"/>
<text text-anchor="start" x="230.5" y="-810.5" font-family="Helvetica,sans-Serif" font-size="10.00">include/Network/graph</text>
<text text-anchor="middle" x="286" y="-799.5" font-family="Helvetica,sans-Serif" font-size="10.00">_traits.h</text>
</a>
</g>
</g>
<!-- Node25&#45;&gt;Node26 -->
<g id="edge37" class="edge">
<title>Node25&#45;&gt;Node26</title>
<path fill="none" stroke="midnightblue" d="M317.92,-962.7C312.84,-954.63 307.35,-944.68 304,-935 290.45,-895.79 287.09,-846.37 286.27,-822.57"/>
<polygon fill="midnightblue" stroke="midnightblue" points="315.1,-964.78 323.53,-971.19 320.93,-960.92 315.1,-964.78"/>
</g>
<!-- Node30 -->
<g id="node30" class="node">
<title>Node30</title>
<g id="a_node30"><a xlink:href="mwgraph_8h.html" target="_top" xlink:title=" ">
<polygon fill="white" stroke="black" points="313,-915.5 313,-934.5 467,-934.5 467,-915.5 313,-915.5"/>
<text text-anchor="middle" x="390" y="-922.5" font-family="Helvetica,sans-Serif" font-size="10.00">include/Network/mwgraph.h</text>
</a>
</g>
</g>
<!-- Node25&#45;&gt;Node30 -->
<g id="edge53" class="edge">
<title>Node25&#45;&gt;Node30</title>
<path fill="none" stroke="midnightblue" d="M347.18,-964.54C357.88,-954.91 371.26,-942.87 380.18,-934.83"/>
<polygon fill="midnightblue" stroke="midnightblue" points="344.73,-962.03 339.64,-971.32 349.41,-967.24 344.73,-962.03"/>
</g>
<!-- Node26&#45;&gt;Node2 -->
<g id="edge38" class="edge">
<title>Node26&#45;&gt;Node2</title>
<path fill="none" stroke="midnightblue" d="M212.25,-793.2C185.03,-785.63 155.2,-773.93 132,-756 95.61,-727.88 76,-714.98 76,-669 76,-669 76,-669 76,-416.5 76,-368.21 93.16,-351.28 133,-324 160.68,-305.05 244.99,-292.5 306.79,-285.58"/>
<polygon fill="midnightblue" stroke="midnightblue" points="211.58,-796.64 222.14,-795.81 213.36,-789.87 211.58,-796.64"/>
</g>
<!-- Node26&#45;&gt;Node3 -->
<g id="edge42" class="edge">
<title>Node26&#45;&gt;Node3</title>
<path fill="none" stroke="midnightblue" d="M212.38,-805.51C162.95,-801.49 98.6,-789.43 52,-756 15.4,-729.74 0,-714.05 0,-669 0,-669 0,-669 0,-338.5 0,-282.98 61.48,-245.08 102.07,-226.1"/>
<polygon fill="midnightblue" stroke="midnightblue" points="212.15,-809 222.37,-806.23 212.65,-802.02 212.15,-809"/>
</g>
<!-- Node26&#45;&gt;Node8 -->
<g id="edge47" class="edge">
<title>Node26&#45;&gt;Node8</title>
<path fill="none" stroke="midnightblue" d="M359.41,-790.65C438.43,-772.08 566.69,-737.58 670,-689 684.26,-682.29 898.35,-546.18 907,-533 935.34,-489.81 927,-470.16 927,-418.5 927,-418.5 927,-418.5 927,-210 927,-159.11 927,-98.02 927,-75.71"/>
<polygon fill="midnightblue" stroke="midnightblue" points="358.5,-787.27 349.55,-792.94 360.08,-794.08 358.5,-787.27"/>
</g>
<!-- Node26&#45;&gt;Node11 -->
<g id="edge43" class="edge">
<title>Node26&#45;&gt;Node11</title>
<path fill="none" stroke="midnightblue" d="M212.1,-800.47C173.29,-794.23 126.72,-781.58 92,-756 55.36,-729.01 38,-714.51 38,-669 38,-669 38,-669 38,-416.5 38,-304.82 180.29,-250.48 271.44,-227.13"/>
<polygon fill="midnightblue" stroke="midnightblue" points="211.89,-803.98 222.3,-802 212.93,-797.06 211.89,-803.98"/>
</g>
<!-- Node26&#45;&gt;Node14 -->
<g id="edge39" class="edge">
<title>Node26&#45;&gt;Node14</title>
<path fill="none" stroke="midnightblue" d="M332.87,-787.9C347.35,-780.05 362.08,-769.53 372,-756 388.04,-734.13 391.5,-701.51 392.08,-683.05"/>
<polygon fill="midnightblue" stroke="midnightblue" points="331.26,-784.79 323.93,-792.45 334.43,-791.03 331.26,-784.79"/>
</g>
<!-- Node27 -->
<g id="node27" class="node">
<title>Node27</title>
<g id="a_node27"><a xlink:href="path__converter_8h.html" target="_top" xlink:title=" ">
<polygon fill="white" stroke="black" points="142.5,-324.5 142.5,-354.5 259.5,-354.5 259.5,-324.5 142.5,-324.5"/>
<text text-anchor="start" x="150.5" y="-342.5" font-family="Helvetica,sans-Serif" font-size="10.00">include/Butcher/path</text>
<text text-anchor="middle" x="201" y="-331.5" font-family="Helvetica,sans-Serif" font-size="10.00">_converter.h</text>
</a>
</g>
</g>
<!-- Node26&#45;&gt;Node27 -->
<g id="edge40" class="edge">
<title>Node26&#45;&gt;Node27</title>
<path fill="none" stroke="midnightblue" d="M231.3,-788.69C180.94,-768.45 114,-730.06 114,-669 114,-669 114,-669 114,-505.5 114,-443.32 162.94,-381.6 187.41,-354.62"/>
<polygon fill="midnightblue" stroke="midnightblue" points="230.22,-792.02 240.81,-792.38 232.75,-785.5 230.22,-792.02"/>
</g>
<!-- Node28 -->
<g id="node28" class="node">
<title>Node28</title>
<g id="a_node28"><a xlink:href="weight__importer_8h.html" target="_top" xlink:title=" ">
<polygon fill="white" stroke="black" points="518.5,-647.5 518.5,-688.5 661.5,-688.5 661.5,-647.5 518.5,-647.5"/>
<text text-anchor="start" x="526.5" y="-676.5" font-family="Helvetica,sans-Serif" font-size="10.00">include/IO_Interaction</text>
<text text-anchor="start" x="526.5" y="-665.5" font-family="Helvetica,sans-Serif" font-size="10.00">/Weight_Importer_Helpers</text>
<text text-anchor="middle" x="590" y="-654.5" font-family="Helvetica,sans-Serif" font-size="10.00">/weight_importer.h</text>
</a>
</g>
</g>
<!-- Node26&#45;&gt;Node28 -->
<g id="edge44" class="edge">
<title>Node26&#45;&gt;Node28</title>
<path fill="none" stroke="midnightblue" d="M326.56,-788.15C383.87,-762.23 488.08,-715.1 546.79,-688.54"/>
<polygon fill="midnightblue" stroke="midnightblue" points="324.77,-785.12 317.1,-792.43 327.66,-791.5 324.77,-785.12"/>
</g>
<!-- Node29 -->
<g id="node29" class="node">
<title>Node29</title>
<g id="a_node29"><a xlink:href="parameters_8h.html" target="_top" xlink:title=" ">
<polygon fill="white" stroke="black" points="212.5,-731 212.5,-750 363.5,-750 363.5,-731 212.5,-731"/>
<text text-anchor="middle" x="288" y="-738" font-family="Helvetica,sans-Serif" font-size="10.00">include/Types/parameters.h</text>
</a>
</g>
</g>
<!-- Node26&#45;&gt;Node29 -->
<g id="edge48" class="edge">
<title>Node26&#45;&gt;Node29</title>
<path fill="none" stroke="midnightblue" d="M286.75,-782.25C287.09,-771.02 287.48,-758.38 287.73,-750.19"/>
<polygon fill="midnightblue" stroke="midnightblue" points="283.24,-782.29 286.43,-792.4 290.24,-782.51 283.24,-782.29"/>
</g>
<!-- Node27&#45;&gt;Node2 -->
<g id="edge41" class="edge">
<title>Node27&#45;&gt;Node2</title>
<path fill="none" stroke="midnightblue" d="M252.54,-321.08C285.14,-310.05 325.85,-296.29 351.65,-287.57"/>
<polygon fill="midnightblue" stroke="midnightblue" points="251.06,-317.88 242.71,-324.4 253.3,-324.51 251.06,-317.88"/>
</g>
<!-- Node28&#45;&gt;Node16 -->
<g id="edge45" class="edge">
<title>Node28&#45;&gt;Node16</title>
<path fill="none" stroke="midnightblue" d="M649.5,-643.25C668.88,-634.36 690.02,-623.37 708,-611 730.27,-595.68 731.76,-586.92 752,-569 765.87,-556.72 781.67,-543.64 795.18,-532.72"/>
<polygon fill="midnightblue" stroke="midnightblue" points="647.84,-640.16 640.14,-647.44 650.7,-646.54 647.84,-640.16"/>
</g>
<!-- Node28&#45;&gt;Node20 -->
<g id="edge46" class="edge">
<title>Node28&#45;&gt;Node20</title>
<path fill="none" stroke="midnightblue" d="M604.27,-638.47C608.93,-629.14 614,-619.01 618.25,-610.51"/>
<polygon fill="midnightblue" stroke="midnightblue" points="601.13,-636.92 599.79,-647.43 607.39,-640.05 601.13,-636.92"/>
</g>
<!-- Node29&#45;&gt;Node2 -->
<g id="edge49" class="edge">
<title>Node29&#45;&gt;Node2</title>
<path fill="none" stroke="midnightblue" d="M288,-720.77C288,-692.61 288,-637.68 288,-591 288,-591 288,-591 288,-416.5 288,-374.53 283.27,-358.61 307,-324 318.68,-306.96 339.16,-294.92 354.95,-287.6"/>
<polygon fill="midnightblue" stroke="midnightblue" points="284.5,-720.8 288,-730.8 291.5,-720.8 284.5,-720.8"/>
</g>
<!-- Node29&#45;&gt;Node3 -->
<g id="edge51" class="edge">
<title>Node29&#45;&gt;Node3</title>
<path fill="none" stroke="midnightblue" d="M261.63,-726.05C222.08,-703.78 152,-655.24 152,-591 152,-591 152,-591 152,-505.5 152,-438.08 137.23,-422.29 133,-355 132.14,-341.25 132.75,-337.78 133,-324 133.63,-288.79 135.37,-247.38 136.33,-226.14"/>
<polygon fill="midnightblue" stroke="midnightblue" points="260.04,-729.17 270.5,-730.89 263.4,-723.03 260.04,-729.17"/>
</g>
<!-- Node29&#45;&gt;Node14 -->
<g id="edge50" class="edge">
<title>Node29&#45;&gt;Node14</title>
<path fill="none" stroke="midnightblue" d="M309.44,-724.97C327.55,-712.69 353.32,-695.22 371.24,-683.08"/>
<polygon fill="midnightblue" stroke="midnightblue" points="307.07,-722.35 300.75,-730.86 310.99,-728.14 307.07,-722.35"/>
</g>
<!-- Node29&#45;&gt;Node28 -->
<g id="edge52" class="edge">
<title>Node29&#45;&gt;Node28</title>
<path fill="none" stroke="midnightblue" d="M334.44,-728.66C383.47,-717.21 461.41,-699.02 518.34,-685.73"/>
<polygon fill="midnightblue" stroke="midnightblue" points="333.37,-725.31 324.43,-731 334.96,-732.13 333.37,-725.31"/>
</g>
<!-- Node30&#45;&gt;Node26 -->
<g id="edge54" class="edge">
<title>Node30&#45;&gt;Node26</title>
<path fill="none" stroke="midnightblue" d="M372.47,-908.7C363.11,-900.26 351.58,-889.4 342,-879 324.84,-860.38 306.97,-837.09 296.17,-822.5"/>
<polygon fill="midnightblue" stroke="midnightblue" points="370.24,-911.4 380.04,-915.43 374.89,-906.17 370.24,-911.4"/>
</g>
<!-- Node31 -->
<g id="node31" class="node">
<title>Node31</title>
<g id="a_node31"><a xlink:href="wgraph_8h.html" target="_top" xlink:title=" ">
<polygon fill="white" stroke="black" points="351,-859.5 351,-878.5 495,-878.5 495,-859.5 351,-859.5"/>
<text text-anchor="middle" x="423" y="-866.5" font-family="Helvetica,sans-Serif" font-size="10.00">include/Network/wgraph.h</text>
</a>
</g>
</g>
<!-- Node30&#45;&gt;Node31 -->
<g id="edge55" class="edge">
<title>Node30&#45;&gt;Node31</title>
<path fill="none" stroke="midnightblue" d="M400.83,-906.27C406.47,-897.05 413.12,-886.17 417.65,-878.75"/>
<polygon fill="midnightblue" stroke="midnightblue" points="397.68,-904.73 395.45,-915.08 403.65,-908.38 397.68,-904.73"/>
</g>
<!-- Node31&#45;&gt;Node13 -->
<g id="edge56" class="edge">
<title>Node31&#45;&gt;Node13</title>
<path fill="none" stroke="midnightblue" d="M455.78,-855.87C519.47,-832.32 659.59,-780.49 727.13,-755.51"/>
<polygon fill="midnightblue" stroke="midnightblue" points="454.4,-852.65 446.24,-859.4 456.83,-859.22 454.4,-852.65"/>
</g>
<!-- Node31&#45;&gt;Node26 -->
<g id="edge57" class="edge">
<title>Node31&#45;&gt;Node26</title>
<path fill="none" stroke="midnightblue" d="M394.13,-855.46C371.94,-845.82 341.29,-832.51 318.29,-822.52"/>
<polygon fill="midnightblue" stroke="midnightblue" points="392.8,-858.7 403.37,-859.48 395.59,-852.28 392.8,-858.7"/>
</g>
<!-- Node32&#45;&gt;Node25 -->
<g id="edge59" class="edge">
<title>Node32&#45;&gt;Node25</title>
<path fill="none" stroke="midnightblue" d="M330,-1017.29C330,-1007.86 330,-997.65 330,-990.66"/>
<polygon fill="midnightblue" stroke="midnightblue" points="326.5,-1017.4 330,-1027.4 333.5,-1017.4 326.5,-1017.4"/>
</g>
<!-- Node33&#45;&gt;Node25 -->
<g id="edge61" class="edge">
<title>Node33&#45;&gt;Node25</title>
<path fill="none" stroke="midnightblue" d="M234.4,-1084.04C238.14,-1067.54 245.5,-1043.71 259,-1027 272.39,-1010.42 293.6,-998.12 309.35,-990.6"/>
<polygon fill="midnightblue" stroke="midnightblue" points="230.92,-1083.62 232.36,-1094.11 237.78,-1085.01 230.92,-1083.62"/>
</g>
<!-- Node33&#45;&gt;Node26 -->
<g id="edge62" class="edge">
<title>Node33&#45;&gt;Node26</title>
<path fill="none" stroke="midnightblue" d="M223.78,-1084.74C215.19,-1061.32 202,-1019.3 202,-982 202,-982 202,-982 202,-924 202,-880.36 241.7,-842.13 266.52,-822.5"/>
<polygon fill="midnightblue" stroke="midnightblue" points="220.62,-1086.26 227.44,-1094.37 227.16,-1083.77 220.62,-1086.26"/>
</g>
<!-- Node33&#45;&gt;Node32 -->
<g id="edge63" class="edge">
<title>Node33&#45;&gt;Node32</title>
<path fill="none" stroke="midnightblue" d="M253.83,-1089.28C269.68,-1079.75 290.72,-1067.11 306.67,-1057.52"/>
<polygon fill="midnightblue" stroke="midnightblue" points="251.95,-1086.32 245.18,-1094.48 255.56,-1092.32 251.95,-1086.32"/>
</g>
</g>
</svg>
        <g id="navigator" transform="translate(0 0)" fill="#404254">
                <rect fill="#f2f5e9" fill-opacity="0.5" stroke="#606060" stroke-width=".5" x="0" y="0" width="60" height="60"/>
                <use id="zoomplus" xlink:href="#zoomPlus" x="17" y="9" onmousedown="handleZoom(evt,'in')"/>
                <use id="zoomminus" xlink:href="#zoomMin" x="42" y="9" onmousedown="handleZoom(evt,'out')"/>
                <use id="reset" xlink:href="#resetDef" x="30" y="36" onmousedown="handleReset()"/>
                <g id="arrowUp" xlink:href="#dirArrow" transform="translate(30 24)" onmousedown="handlePan(0,-1)">
                  <use xlink:href="#rim" fill="#404040">
                        <set attributeName="fill" to="#808080" begin="arrowUp.mouseover" end="arrowUp.mouseout"/>
                  </use>
                  <path fill="none" stroke="white" stroke-width="1.5" d="M0,-3.0v7 M-2.5,-0.5L0,-3.0L2.5,-0.5"/>
                </g>
                <g id="arrowRight" xlink:href="#dirArrow" transform="rotate(90) translate(36 -43)" onmousedown="handlePan(1,0)">
                  <use xlink:href="#rim" fill="#404040">
                        <set attributeName="fill" to="#808080" begin="arrowRight.mouseover" end="arrowRight.mouseout"/>
                  </use>
                  <path fill="none" stroke="white" stroke-width="1.5" d="M0,-3.0v7 M-2.5,-0.5L0,-3.0L2.5,-0.5"/>
                </g>
                <g id="arrowDown" xlink:href="#dirArrow" transform="rotate(180) translate(-30 -48)" onmousedown="handlePan(0,1)">
                  <use xlink:href="#rim" fill="#404040">
                        <set attributeName="fill" to="#808080" begin="arrowDown.mouseover" end="arrowDown.mouseout"/>
                  </use>
                  <path fill="none" stroke="white" stroke-width="1.5" d="M0,-3.0v7 M-2.5,-0.5L0,-3.0L2.5,-0.5"/>
                </g>
                <g id="arrowLeft" xlink:href="#dirArrow" transform="rotate(270) translate(-36 17)" onmousedown="handlePan(-1,0)">
                  <use xlink:href="#rim" fill="#404040">
                        <set attributeName="fill" to="#808080" begin="arrowLeft.mouseover" end="arrowLeft.mouseout"/>
                  </use>
                  <path fill="none" stroke="white" stroke-width="1.5" d="M0,-3.0v7 M-2.5,-0.5L0,-3.0L2.5,-0.5"/>
                </g>
        </g>
        <svg viewBox="0 0 15 15" width="100%" height="30px" preserveAspectRatio="xMaxYMin meet">
         <g id="arrow_out" transform="scale(0.3 0.3)">
          <a xlink:href="utilities_8h__dep__incl_org.svg" target="_base">
           <rect id="button" ry="5" rx="5" y="6" x="6" height="38" width="38"
                fill="#f2f5e9" fill-opacity="0.5" stroke="#606060" stroke-width="1.0"/>
           <path id="arrow"
             d="M 11.500037,31.436501 C 11.940474,20.09759 22.043105,11.32322 32.158766,21.979434 L 37.068811,17.246167 C 37.068811,17.246167 37.088388,32 37.088388,32 L 22.160133,31.978069 C 22.160133,31.978069 26.997745,27.140456 26.997745,27.140456 C 18.528582,18.264221 13.291696,25.230495 11.500037,31.436501 z"
             style="fill:#404040;"/>
          </a>
         </g>
        </svg>
</svg>
