<?xml version="1.0" encoding="UTF-8" standalone="no"?>
<!DOCTYPE svg PUBLIC "-//W3C//DTD SVG 1.1//EN"
 "http://www.w3.org/Graphics/SVG/1.1/DTD/svg11.dtd">
<!-- Generated by graphviz version 2.43.0 (0)
 -->
<!-- Title: include/network_butcher/utilities.h Pages: 1 -->
<svg width="1243pt" height="1366pt"
 viewBox="0.00 0.00 1243.00 1366.00" xmlns="http://www.w3.org/2000/svg" xmlns:xlink="http://www.w3.org/1999/xlink">
<g id="graph0" class="graph" transform="scale(1 1) rotate(0) translate(4 1362)">
<title>include/network_butcher/utilities.h</title>
<polygon fill="white" stroke="transparent" points="-4,4 -4,-1362 1239,-1362 1239,4 -4,4"/>
<!-- Node1 -->
<g id="node1" class="node">
<title>Node1</title>
<g id="a_node1"><a xlink:title=" ">
<polygon fill="#bfbfbf" stroke="black" points="781,-1327.5 781,-1357.5 918,-1357.5 918,-1327.5 781,-1327.5"/>
<text text-anchor="start" x="789" y="-1345.5" font-family="Helvetica,sans-Serif" font-size="10.00">include/network_butcher</text>
<text text-anchor="middle" x="849.5" y="-1334.5" font-family="Helvetica,sans-Serif" font-size="10.00">/utilities.h</text>
</a>
</g>
</g>
<!-- Node2 -->
<g id="node2" class="node">
<title>Node2</title>
<g id="a_node2"><a xlink:href="butcher_8h.html" target="_top" xlink:title=" ">
<polygon fill="white" stroke="black" points="444,-290.5 444,-320.5 581,-320.5 581,-290.5 444,-290.5"/>
<text text-anchor="start" x="452" y="-308.5" font-family="Helvetica,sans-Serif" font-size="10.00">include/network_butcher</text>
<text text-anchor="middle" x="512.5" y="-297.5" font-family="Helvetica,sans-Serif" font-size="10.00">/Butcher/butcher.h</text>
</a>
</g>
</g>
<!-- Node1&#45;&gt;Node2 -->
<g id="edge1" class="edge">
<title>Node1&#45;&gt;Node2</title>
<path fill="none" stroke="midnightblue" d="M770.77,-1341.73C598.72,-1340.1 204.5,-1323.88 204.5,-1209.5 204.5,-1209.5 204.5,-1209.5 204.5,-638.5 204.5,-499.16 236.1,-446.96 342.5,-357 370.83,-333.05 410.16,-320.45 443.85,-313.83"/>
<polygon fill="midnightblue" stroke="midnightblue" points="770.75,-1345.23 780.78,-1341.81 770.81,-1338.23 770.75,-1345.23"/>
</g>
<!-- Node6 -->
<g id="node6" class="node">
<title>Node6</title>
<g id="a_node6"><a xlink:href="network__butcher_8h.html" target="_top" xlink:title=" ">
<polygon fill="white" stroke="black" points="496,-0.5 496,-30.5 633,-30.5 633,-0.5 496,-0.5"/>
<text text-anchor="start" x="504" y="-18.5" font-family="Helvetica,sans-Serif" font-size="10.00">include/network_butcher</text>
<text text-anchor="middle" x="564.5" y="-7.5" font-family="Helvetica,sans-Serif" font-size="10.00">/network_butcher.h</text>
</a>
</g>
</g>
<!-- Node1&#45;&gt;Node6 -->
<g id="edge33" class="edge">
<title>Node1&#45;&gt;Node6</title>
<path fill="none" stroke="midnightblue" d="M928.37,-1335.3C1006.8,-1324.31 1115.5,-1293.87 1115.5,-1209.5 1115.5,-1209.5 1115.5,-1209.5 1115.5,-154 1115.5,-136.96 1122.1,-114.73 1003.5,-67 937.93,-40.61 739.34,-26.05 633.17,-19.96"/>
<polygon fill="midnightblue" stroke="midnightblue" points="927.46,-1331.89 918,-1336.66 928.37,-1338.83 927.46,-1331.89"/>
</g>
<!-- Node12 -->
<g id="node12" class="node">
<title>Node12</title>
<g id="a_node12"><a xlink:href="computer__memory_8h.html" target="_top" xlink:title=" ">
<polygon fill="white" stroke="black" points="916,-791.5 916,-821.5 1087,-821.5 1087,-791.5 916,-791.5"/>
<text text-anchor="start" x="924" y="-809.5" font-family="Helvetica,sans-Serif" font-size="10.00">include/network_butcher</text>
<text text-anchor="middle" x="1001.5" y="-798.5" font-family="Helvetica,sans-Serif" font-size="10.00">/Computer/computer_memory.h</text>
</a>
</g>
</g>
<!-- Node1&#45;&gt;Node12 -->
<g id="edge14" class="edge">
<title>Node1&#45;&gt;Node12</title>
<path fill="none" stroke="midnightblue" d="M889.78,-1322.68C928.93,-1301.29 982.5,-1262.36 982.5,-1209.5 982.5,-1209.5 982.5,-1209.5 982.5,-939.5 982.5,-896.2 992.64,-845.73 998.1,-821.66"/>
<polygon fill="midnightblue" stroke="midnightblue" points="887.89,-1319.72 880.68,-1327.49 891.16,-1325.91 887.89,-1319.72"/>
</g>
<!-- Node18 -->
<g id="node18" class="node">
<title>Node18</title>
<g id="a_node18"><a xlink:href="weight__importer__utils_8h.html" target="_top" xlink:title=" ">
<polygon fill="white" stroke="black" points="622,-702.5 622,-754.5 765,-754.5 765,-702.5 622,-702.5"/>
<text text-anchor="start" x="630" y="-742.5" font-family="Helvetica,sans-Serif" font-size="10.00">include/network_butcher</text>
<text text-anchor="start" x="630" y="-731.5" font-family="Helvetica,sans-Serif" font-size="10.00">/IO_Interaction/Weight</text>
<text text-anchor="start" x="630" y="-720.5" font-family="Helvetica,sans-Serif" font-size="10.00">_Importer_Helpers/weight</text>
<text text-anchor="middle" x="693.5" y="-709.5" font-family="Helvetica,sans-Serif" font-size="10.00">_importer_utils.h</text>
</a>
</g>
</g>
<!-- Node1&#45;&gt;Node18 -->
<g id="edge26" class="edge">
<title>Node1&#45;&gt;Node18</title>
<path fill="none" stroke="midnightblue" d="M849.5,-1316.99C849.5,-1290.49 849.5,-1247 849.5,-1209.5 849.5,-1209.5 849.5,-1209.5 849.5,-872.5 849.5,-817.57 796.3,-778.03 752.03,-754.64"/>
<polygon fill="midnightblue" stroke="midnightblue" points="846,-1317.24 849.5,-1327.24 853,-1317.24 846,-1317.24"/>
</g>
<!-- Node22 -->
<g id="node22" class="node">
<title>Node22</title>
<g id="a_node22"><a xlink:href="dense__tensor_8h.html" target="_top" xlink:title=" ">
<polygon fill="white" stroke="black" points="679,-1260.5 679,-1290.5 816,-1290.5 816,-1260.5 679,-1260.5"/>
<text text-anchor="start" x="687" y="-1278.5" font-family="Helvetica,sans-Serif" font-size="10.00">include/network_butcher</text>
<text text-anchor="middle" x="747.5" y="-1267.5" font-family="Helvetica,sans-Serif" font-size="10.00">/Types/dense_tensor.h</text>
</a>
</g>
</g>
<!-- Node1&#45;&gt;Node22 -->
<g id="edge34" class="edge">
<title>Node1&#45;&gt;Node22</title>
<path fill="none" stroke="midnightblue" d="M812.68,-1322.02C795.98,-1311.9 777.13,-1299.77 763.91,-1290.58"/>
<polygon fill="midnightblue" stroke="midnightblue" points="811.31,-1325.27 821.69,-1327.4 814.9,-1319.26 811.31,-1325.27"/>
</g>
<!-- Node34 -->
<g id="node34" class="node">
<title>Node34</title>
<g id="a_node34"><a xlink:href="utilities_8cpp.html" target="_top" xlink:title=" ">
<polygon fill="white" stroke="black" points="1144,-1266 1144,-1285 1235,-1285 1235,-1266 1144,-1266"/>
<text text-anchor="middle" x="1189.5" y="-1273" font-family="Helvetica,sans-Serif" font-size="10.00">src/utilities.cpp</text>
</a>
</g>
</g>
<!-- Node1&#45;&gt;Node34 -->
<g id="edge67" class="edge">
<title>Node1&#45;&gt;Node34</title>
<path fill="none" stroke="midnightblue" d="M928.08,-1328.6C984.34,-1319.05 1061.79,-1305.27 1129.5,-1291 1137.99,-1289.21 1147.12,-1287.1 1155.63,-1285.05"/>
<polygon fill="midnightblue" stroke="midnightblue" points="927.46,-1325.15 918.19,-1330.27 928.63,-1332.05 927.46,-1325.15"/>
</g>
<!-- Node3 -->
<g id="node3" class="node">
<title>Node3</title>
<g id="a_node3"><a xlink:href="onnx__model__reconstructor__helpers_8h.html" target="_top" xlink:title=" ">
<polygon fill="white" stroke="black" points="416,-212.5 416,-253.5 567,-253.5 567,-212.5 416,-212.5"/>
<text text-anchor="start" x="424" y="-241.5" font-family="Helvetica,sans-Serif" font-size="10.00">include/network_butcher</text>
<text text-anchor="start" x="424" y="-230.5" font-family="Helvetica,sans-Serif" font-size="10.00">/IO_Interaction/onnx_model</text>
<text text-anchor="middle" x="491.5" y="-219.5" font-family="Helvetica,sans-Serif" font-size="10.00">_reconstructor_helpers.h</text>
</a>
</g>
</g>
<!-- Node2&#45;&gt;Node3 -->
<g id="edge2" class="edge">
<title>Node2&#45;&gt;Node3</title>
<path fill="none" stroke="midnightblue" d="M505.37,-280.56C502.75,-271.77 499.82,-261.94 497.33,-253.59"/>
<polygon fill="midnightblue" stroke="midnightblue" points="502.04,-281.65 508.25,-290.23 508.75,-279.65 502.04,-281.65"/>
</g>
<!-- Node2&#45;&gt;Node6 -->
<g id="edge13" class="edge">
<title>Node2&#45;&gt;Node6</title>
<path fill="none" stroke="midnightblue" d="M553.92,-285.87C593.89,-265.36 651.99,-228.2 677.5,-176 706.03,-117.61 628.65,-57.33 587.84,-30.65"/>
<polygon fill="midnightblue" stroke="midnightblue" points="552.31,-282.76 544.93,-290.37 555.44,-289.03 552.31,-282.76"/>
</g>
<!-- Node10 -->
<g id="node10" class="node">
<title>Node10</title>
<g id="a_node10"><a xlink:href="onnx__importer__helpers_8h.html" target="_top" xlink:title=" ">
<polygon fill="white" stroke="black" points="199.5,-212.5 199.5,-253.5 361.5,-253.5 361.5,-212.5 199.5,-212.5"/>
<text text-anchor="start" x="207.5" y="-241.5" font-family="Helvetica,sans-Serif" font-size="10.00">include/network_butcher</text>
<text text-anchor="start" x="207.5" y="-230.5" font-family="Helvetica,sans-Serif" font-size="10.00">/IO_Interaction/onnx_importer</text>
<text text-anchor="middle" x="280.5" y="-219.5" font-family="Helvetica,sans-Serif" font-size="10.00">_helpers.h</text>
</a>
</g>
</g>
<!-- Node2&#45;&gt;Node10 -->
<g id="edge10" class="edge">
<title>Node2&#45;&gt;Node10</title>
<path fill="none" stroke="midnightblue" d="M456.71,-287.55C423.07,-277.32 380.07,-264.26 344.97,-253.59"/>
<polygon fill="midnightblue" stroke="midnightblue" points="455.8,-290.93 466.39,-290.49 457.84,-284.23 455.8,-290.93"/>
</g>
<!-- Node4 -->
<g id="node4" class="node">
<title>Node4</title>
<g id="a_node4"><a xlink:href="io__manager_8h.html" target="_top" xlink:title=" ">
<polygon fill="white" stroke="black" points="365,-140 365,-170 502,-170 502,-140 365,-140"/>
<text text-anchor="start" x="373" y="-158" font-family="Helvetica,sans-Serif" font-size="10.00">include/network_butcher</text>
<text text-anchor="middle" x="433.5" y="-147" font-family="Helvetica,sans-Serif" font-size="10.00">/io_manager.h</text>
</a>
</g>
</g>
<!-- Node3&#45;&gt;Node4 -->
<g id="edge3" class="edge">
<title>Node3&#45;&gt;Node4</title>
<path fill="none" stroke="midnightblue" d="M470.37,-204.32C461.55,-192.75 451.67,-179.8 444.36,-170.23"/>
<polygon fill="midnightblue" stroke="midnightblue" points="467.71,-206.6 476.56,-212.43 473.28,-202.36 467.71,-206.6"/>
</g>
<!-- Node9 -->
<g id="node9" class="node">
<title>Node9</title>
<g id="a_node9"><a xlink:href="onnx__model__reconstructor__helpers_8cpp.html" target="_top" xlink:title=" ">
<polygon fill="white" stroke="black" points="520,-134.5 520,-175.5 669,-175.5 669,-134.5 520,-134.5"/>
<text text-anchor="start" x="528" y="-163.5" font-family="Helvetica,sans-Serif" font-size="10.00">src/IO_Interaction</text>
<text text-anchor="start" x="528" y="-152.5" font-family="Helvetica,sans-Serif" font-size="10.00">/onnx_model_reconstructor</text>
<text text-anchor="middle" x="594.5" y="-141.5" font-family="Helvetica,sans-Serif" font-size="10.00">_helpers.cpp</text>
</a>
</g>
</g>
<!-- Node3&#45;&gt;Node9 -->
<g id="edge9" class="edge">
<title>Node3&#45;&gt;Node9</title>
<path fill="none" stroke="midnightblue" d="M526.26,-206.35C539.92,-196.27 555.34,-184.89 568.06,-175.51"/>
<polygon fill="midnightblue" stroke="midnightblue" points="523.99,-203.67 518.03,-212.43 528.15,-209.31 523.99,-203.67"/>
</g>
<!-- Node5 -->
<g id="node5" class="node">
<title>Node5</title>
<g id="a_node5"><a xlink:href="general__manager_8h.html" target="_top" xlink:title=" ">
<polygon fill="white" stroke="black" points="1,-67.5 1,-97.5 138,-97.5 138,-67.5 1,-67.5"/>
<text text-anchor="start" x="9" y="-85.5" font-family="Helvetica,sans-Serif" font-size="10.00">include/network_butcher</text>
<text text-anchor="middle" x="69.5" y="-74.5" font-family="Helvetica,sans-Serif" font-size="10.00">/general_manager.h</text>
</a>
</g>
</g>
<!-- Node4&#45;&gt;Node5 -->
<g id="edge4" class="edge">
<title>Node4&#45;&gt;Node5</title>
<path fill="none" stroke="midnightblue" d="M370.83,-137.49C365.66,-136.26 360.5,-135.08 355.5,-134 281.7,-118.05 196.38,-103.48 138.26,-94.13"/>
<polygon fill="midnightblue" stroke="midnightblue" points="370.22,-140.94 380.76,-139.9 371.87,-134.14 370.22,-140.94"/>
</g>
<!-- Node4&#45;&gt;Node6 -->
<g id="edge7" class="edge">
<title>Node4&#45;&gt;Node6</title>
<path fill="none" stroke="midnightblue" d="M433.13,-129.44C434.09,-110.47 438.26,-84.57 452.5,-67 466.47,-49.77 487.57,-38.2 507.71,-30.54"/>
<polygon fill="midnightblue" stroke="midnightblue" points="429.63,-129.61 432.89,-139.69 436.62,-129.78 429.63,-129.61"/>
</g>
<!-- Node8 -->
<g id="node8" class="node">
<title>Node8</title>
<g id="a_node8"><a xlink:href="io__manager_8cpp.html" target="_top" xlink:title=" ">
<polygon fill="white" stroke="black" points="462,-73 462,-92 573,-92 573,-73 462,-73"/>
<text text-anchor="middle" x="517.5" y="-80" font-family="Helvetica,sans-Serif" font-size="10.00">src/io_manager.cpp</text>
</a>
</g>
</g>
<!-- Node4&#45;&gt;Node8 -->
<g id="edge8" class="edge">
<title>Node4&#45;&gt;Node8</title>
<path fill="none" stroke="midnightblue" d="M458.51,-133.01C474.65,-119.46 494.82,-102.53 506.9,-92.39"/>
<polygon fill="midnightblue" stroke="midnightblue" points="455.91,-130.62 450.5,-139.73 460.41,-135.99 455.91,-130.62"/>
</g>
<!-- Node5&#45;&gt;Node6 -->
<g id="edge5" class="edge">
<title>Node5&#45;&gt;Node6</title>
<path fill="none" stroke="midnightblue" d="M148.56,-67.59C149.88,-67.39 151.2,-67.19 152.5,-67 272.96,-49.11 413.93,-32.83 495.83,-23.83"/>
<polygon fill="midnightblue" stroke="midnightblue" points="147.64,-64.2 138.3,-69.2 148.72,-71.11 147.64,-64.2"/>
</g>
<!-- Node7 -->
<g id="node7" class="node">
<title>Node7</title>
<g id="a_node7"><a xlink:href="general__manager_8cpp.html" target="_top" xlink:title=" ">
<polygon fill="white" stroke="black" points="0,-6 0,-25 139,-25 139,-6 0,-6"/>
<text text-anchor="middle" x="69.5" y="-13" font-family="Helvetica,sans-Serif" font-size="10.00">src/general_manager.cpp</text>
</a>
</g>
</g>
<!-- Node5&#45;&gt;Node7 -->
<g id="edge6" class="edge">
<title>Node5&#45;&gt;Node7</title>
<path fill="none" stroke="midnightblue" d="M69.5,-57.25C69.5,-46.02 69.5,-33.38 69.5,-25.19"/>
<polygon fill="midnightblue" stroke="midnightblue" points="66,-57.4 69.5,-67.4 73,-57.4 66,-57.4"/>
</g>
<!-- Node10&#45;&gt;Node4 -->
<g id="edge11" class="edge">
<title>Node10&#45;&gt;Node4</title>
<path fill="none" stroke="midnightblue" d="M328.88,-207.97C353.87,-195.55 383.52,-180.83 404.86,-170.23"/>
<polygon fill="midnightblue" stroke="midnightblue" points="327.3,-204.84 319.9,-212.43 330.41,-211.11 327.3,-204.84"/>
</g>
<!-- Node11 -->
<g id="node11" class="node">
<title>Node11</title>
<g id="a_node11"><a xlink:href="onnx__importer__helpers_8cpp.html" target="_top" xlink:title=" ">
<polygon fill="white" stroke="black" points="194.5,-140 194.5,-170 346.5,-170 346.5,-140 194.5,-140"/>
<text text-anchor="start" x="202.5" y="-158" font-family="Helvetica,sans-Serif" font-size="10.00">src/IO_Interaction</text>
<text text-anchor="middle" x="270.5" y="-147" font-family="Helvetica,sans-Serif" font-size="10.00">/onnx_importer_helpers.cpp</text>
</a>
</g>
</g>
<!-- Node10&#45;&gt;Node11 -->
<g id="edge12" class="edge">
<title>Node10&#45;&gt;Node11</title>
<path fill="none" stroke="midnightblue" d="M276.59,-202.28C275.14,-191.25 273.56,-179.25 272.37,-170.23"/>
<polygon fill="midnightblue" stroke="midnightblue" points="273.15,-202.97 277.92,-212.43 280.09,-202.06 273.15,-202.97"/>
</g>
<!-- Node12&#45;&gt;Node2 -->
<g id="edge15" class="edge">
<title>Node12&#45;&gt;Node2</title>
<path fill="none" stroke="midnightblue" d="M1010.64,-781.46C1021.88,-749.69 1039.5,-691.74 1039.5,-640.5 1039.5,-640.5 1039.5,-640.5 1039.5,-460.5 1039.5,-381.68 968.78,-386.03 895.5,-357 839.85,-334.96 675.6,-319.1 581.25,-311.52"/>
<polygon fill="midnightblue" stroke="midnightblue" points="1007.23,-780.59 1007.11,-791.19 1013.81,-782.99 1007.23,-780.59"/>
</g>
<!-- Node12&#45;&gt;Node6 -->
<g id="edge25" class="edge">
<title>Node12&#45;&gt;Node6</title>
<path fill="none" stroke="midnightblue" d="M1021.14,-783.51C1027.97,-775.04 1035.23,-765 1040.5,-755 1065.44,-707.69 1077.5,-693.98 1077.5,-640.5 1077.5,-640.5 1077.5,-640.5 1077.5,-154 1077.5,-63.06 772.94,-30.63 633.15,-20.53"/>
<polygon fill="midnightblue" stroke="midnightblue" points="1018.28,-781.48 1014.54,-791.4 1023.64,-785.97 1018.28,-781.48"/>
</g>
<!-- Node13 -->
<g id="node13" class="node">
<title>Node13</title>
<g id="a_node13"><a xlink:href="graph__constraint_8h.html" target="_top" xlink:title=" ">
<polygon fill="white" stroke="black" points="822,-713.5 822,-743.5 973,-743.5 973,-713.5 822,-713.5"/>
<text text-anchor="start" x="830" y="-731.5" font-family="Helvetica,sans-Serif" font-size="10.00">include/network_butcher</text>
<text text-anchor="middle" x="897.5" y="-720.5" font-family="Helvetica,sans-Serif" font-size="10.00">/Butcher/graph_constraint.h</text>
</a>
</g>
</g>
<!-- Node12&#45;&gt;Node13 -->
<g id="edge16" class="edge">
<title>Node12&#45;&gt;Node13</title>
<path fill="none" stroke="midnightblue" d="M973.6,-785.11C955.71,-772.04 932.93,-755.39 916.97,-743.73"/>
<polygon fill="midnightblue" stroke="midnightblue" points="971.8,-788.13 981.94,-791.2 975.93,-782.48 971.8,-788.13"/>
</g>
<!-- Node15 -->
<g id="node15" class="node">
<title>Node15</title>
<g id="a_node15"><a xlink:href="block__aMLLibrary__weight__importer_8h.html" target="_top" xlink:title=" ">
<polygon fill="white" stroke="black" points="660.5,-524.5 660.5,-576.5 830.5,-576.5 830.5,-524.5 660.5,-524.5"/>
<text text-anchor="start" x="668.5" y="-564.5" font-family="Helvetica,sans-Serif" font-size="10.00">include/network_butcher</text>
<text text-anchor="start" x="668.5" y="-553.5" font-family="Helvetica,sans-Serif" font-size="10.00">/IO_Interaction/Weight</text>
<text text-anchor="start" x="668.5" y="-542.5" font-family="Helvetica,sans-Serif" font-size="10.00">_Importer_Helpers/block</text>
<text text-anchor="middle" x="745.5" y="-531.5" font-family="Helvetica,sans-Serif" font-size="10.00">_aMLLibrary_weight_importer.h</text>
</a>
</g>
</g>
<!-- Node12&#45;&gt;Node15 -->
<g id="edge19" class="edge">
<title>Node12&#45;&gt;Node15</title>
<path fill="none" stroke="midnightblue" d="M1001.38,-781.2C1000.26,-759.12 995.98,-726.36 981.5,-702 944.94,-640.49 872.36,-599.95 817.29,-576.6"/>
<polygon fill="midnightblue" stroke="midnightblue" points="997.89,-781.51 1001.71,-791.39 1004.89,-781.28 997.89,-781.51"/>
</g>
<!-- Node14 -->
<g id="node14" class="node">
<title>Node14</title>
<g id="a_node14"><a xlink:href="constrained__block__graph__builder_8h.html" target="_top" xlink:title=" ">
<polygon fill="white" stroke="black" points="738,-357.5 738,-398.5 887,-398.5 887,-357.5 738,-357.5"/>
<text text-anchor="start" x="746" y="-386.5" font-family="Helvetica,sans-Serif" font-size="10.00">include/network_butcher</text>
<text text-anchor="start" x="746" y="-375.5" font-family="Helvetica,sans-Serif" font-size="10.00">/Butcher/constrained_block</text>
<text text-anchor="middle" x="812.5" y="-364.5" font-family="Helvetica,sans-Serif" font-size="10.00">_graph_builder.h</text>
</a>
</g>
</g>
<!-- Node13&#45;&gt;Node14 -->
<g id="edge17" class="edge">
<title>Node13&#45;&gt;Node14</title>
<path fill="none" stroke="midnightblue" d="M906,-703.74C923.21,-651.24 956.52,-523.02 906.5,-435 897.49,-419.15 882.02,-407.31 866.2,-398.7"/>
<polygon fill="midnightblue" stroke="midnightblue" points="902.59,-702.88 902.7,-713.48 909.22,-705.13 902.59,-702.88"/>
</g>
<!-- Node14&#45;&gt;Node2 -->
<g id="edge18" class="edge">
<title>Node14&#45;&gt;Node2</title>
<path fill="none" stroke="midnightblue" d="M728.18,-357.19C678.46,-345.5 616.74,-331 572.08,-320.5"/>
<polygon fill="midnightblue" stroke="midnightblue" points="727.42,-360.6 737.96,-359.48 729.02,-353.79 727.42,-360.6"/>
</g>
<!-- Node16 -->
<g id="node16" class="node">
<title>Node16</title>
<g id="a_node16"><a xlink:href="weight__importers_8h.html" target="_top" xlink:title=" ">
<polygon fill="white" stroke="black" points="543,-441 543,-482 680,-482 680,-441 543,-441"/>
<text text-anchor="start" x="551" y="-470" font-family="Helvetica,sans-Serif" font-size="10.00">include/network_butcher</text>
<text text-anchor="start" x="551" y="-459" font-family="Helvetica,sans-Serif" font-size="10.00">/IO_Interaction/weight</text>
<text text-anchor="middle" x="611.5" y="-448" font-family="Helvetica,sans-Serif" font-size="10.00">_importers.h</text>
</a>
</g>
</g>
<!-- Node15&#45;&gt;Node16 -->
<g id="edge20" class="edge">
<title>Node15&#45;&gt;Node16</title>
<path fill="none" stroke="midnightblue" d="M698.28,-518.84C679.46,-506.62 658.35,-492.92 641.66,-482.08"/>
<polygon fill="midnightblue" stroke="midnightblue" points="696.45,-521.83 706.74,-524.34 700.26,-515.95 696.45,-521.83"/>
</g>
<!-- Node17 -->
<g id="node17" class="node">
<title>Node17</title>
<g id="a_node17"><a xlink:href="block__aMLLibrary__weight__importer_8cpp.html" target="_top" xlink:title=" ">
<polygon fill="white" stroke="black" points="698,-435.5 698,-487.5 841,-487.5 841,-435.5 698,-435.5"/>
<text text-anchor="start" x="706" y="-475.5" font-family="Helvetica,sans-Serif" font-size="10.00">src/IO_Interaction</text>
<text text-anchor="start" x="706" y="-464.5" font-family="Helvetica,sans-Serif" font-size="10.00">/Weight_Importer_Helpers</text>
<text text-anchor="start" x="706" y="-453.5" font-family="Helvetica,sans-Serif" font-size="10.00">/block_aMLLibrary_weight</text>
<text text-anchor="middle" x="769.5" y="-442.5" font-family="Helvetica,sans-Serif" font-size="10.00">_importer.cpp</text>
</a>
</g>
</g>
<!-- Node15&#45;&gt;Node17 -->
<g id="edge24" class="edge">
<title>Node15&#45;&gt;Node17</title>
<path fill="none" stroke="midnightblue" d="M755.16,-514.48C757.64,-505.49 760.26,-495.99 762.57,-487.61"/>
<polygon fill="midnightblue" stroke="midnightblue" points="751.73,-513.77 752.44,-524.34 758.48,-515.63 751.73,-513.77"/>
</g>
<!-- Node16&#45;&gt;Node2 -->
<g id="edge21" class="edge">
<title>Node16&#45;&gt;Node2</title>
<path fill="none" stroke="midnightblue" d="M603.2,-431.22C596.15,-409.48 584.6,-379.77 568.5,-357 558.52,-342.89 543.95,-329.9 532.17,-320.63"/>
<polygon fill="midnightblue" stroke="midnightblue" points="599.89,-432.39 606.21,-440.9 606.58,-430.31 599.89,-432.39"/>
</g>
<!-- Node16&#45;&gt;Node4 -->
<g id="edge23" class="edge">
<title>Node16&#45;&gt;Node4</title>
<path fill="none" stroke="midnightblue" d="M616.21,-430.73C622.5,-379.83 627.47,-275.44 575.5,-212 563.32,-197.14 519.39,-181.15 483.57,-170.07"/>
<polygon fill="midnightblue" stroke="midnightblue" points="612.73,-430.37 614.87,-440.75 619.67,-431.3 612.73,-430.37"/>
</g>
<!-- Node16&#45;&gt;Node14 -->
<g id="edge22" class="edge">
<title>Node16&#45;&gt;Node14</title>
<path fill="none" stroke="midnightblue" d="M669.19,-437.11C699.34,-424.89 735.8,-410.1 764.4,-398.5"/>
<polygon fill="midnightblue" stroke="midnightblue" points="667.6,-433.98 659.64,-440.98 670.23,-440.46 667.6,-433.98"/>
</g>
<!-- Node18&#45;&gt;Node15 -->
<g id="edge27" class="edge">
<title>Node18&#45;&gt;Node15</title>
<path fill="none" stroke="midnightblue" d="M694.88,-692.24C696.63,-669.17 700.59,-638.65 709.5,-613 713.88,-600.38 720.98,-587.46 727.71,-576.74"/>
<polygon fill="midnightblue" stroke="midnightblue" points="691.38,-692.07 694.22,-702.28 698.37,-692.53 691.38,-692.07"/>
</g>
<!-- Node19 -->
<g id="node19" class="node">
<title>Node19</title>
<g id="a_node19"><a xlink:href="csv__weight__importer_8h.html" target="_top" xlink:title=" ">
<polygon fill="white" stroke="black" points="460.5,-613.5 460.5,-665.5 624.5,-665.5 624.5,-613.5 460.5,-613.5"/>
<text text-anchor="start" x="468.5" y="-653.5" font-family="Helvetica,sans-Serif" font-size="10.00">include/network_butcher</text>
<text text-anchor="start" x="468.5" y="-642.5" font-family="Helvetica,sans-Serif" font-size="10.00">/IO_Interaction/Weight</text>
<text text-anchor="start" x="468.5" y="-631.5" font-family="Helvetica,sans-Serif" font-size="10.00">_Importer_Helpers/csv_weight</text>
<text text-anchor="middle" x="542.5" y="-620.5" font-family="Helvetica,sans-Serif" font-size="10.00">_importer.h</text>
</a>
</g>
</g>
<!-- Node18&#45;&gt;Node19 -->
<g id="edge28" class="edge">
<title>Node18&#45;&gt;Node19</title>
<path fill="none" stroke="midnightblue" d="M640.69,-697.07C622.84,-686.79 603.13,-675.43 586.08,-665.61"/>
<polygon fill="midnightblue" stroke="midnightblue" points="639.41,-700.38 649.82,-702.34 642.91,-694.31 639.41,-700.38"/>
</g>
<!-- Node21 -->
<g id="node21" class="node">
<title>Node21</title>
<g id="a_node21"><a xlink:href="weight__importer__utils_8cpp.html" target="_top" xlink:title=" ">
<polygon fill="white" stroke="black" points="718.5,-619 718.5,-660 864.5,-660 864.5,-619 718.5,-619"/>
<text text-anchor="start" x="726.5" y="-648" font-family="Helvetica,sans-Serif" font-size="10.00">src/IO_Interaction</text>
<text text-anchor="start" x="726.5" y="-637" font-family="Helvetica,sans-Serif" font-size="10.00">/Weight_Importer_Helpers</text>
<text text-anchor="middle" x="791.5" y="-626" font-family="Helvetica,sans-Serif" font-size="10.00">/weight_importer_utils.cpp</text>
</a>
</g>
</g>
<!-- Node18&#45;&gt;Node21 -->
<g id="edge32" class="edge">
<title>Node18&#45;&gt;Node21</title>
<path fill="none" stroke="midnightblue" d="M729.53,-695.51C742.91,-683.64 757.68,-670.53 769.44,-660.08"/>
<polygon fill="midnightblue" stroke="midnightblue" points="727,-693.08 721.85,-702.34 731.65,-698.31 727,-693.08"/>
</g>
<!-- Node19&#45;&gt;Node15 -->
<g id="edge29" class="edge">
<title>Node19&#45;&gt;Node15</title>
<path fill="none" stroke="midnightblue" d="M610.32,-609.44C635.2,-598.77 663.13,-586.8 687.12,-576.52"/>
<polygon fill="midnightblue" stroke="midnightblue" points="608.76,-606.3 600.94,-613.45 611.51,-612.73 608.76,-606.3"/>
</g>
<!-- Node19&#45;&gt;Node16 -->
<g id="edge30" class="edge">
<title>Node19&#45;&gt;Node16</title>
<path fill="none" stroke="midnightblue" d="M507.05,-605.88C499.89,-597.26 493.37,-587.42 489.5,-577 481.3,-554.92 477.15,-544.06 489.5,-524 501.56,-504.41 522,-490.83 542.73,-481.53"/>
<polygon fill="midnightblue" stroke="midnightblue" points="504.5,-608.28 513.75,-613.44 509.74,-603.63 504.5,-608.28"/>
</g>
<!-- Node20 -->
<g id="node20" class="node">
<title>Node20</title>
<g id="a_node20"><a xlink:href="csv__weight__importer_8cpp.html" target="_top" xlink:title=" ">
<polygon fill="white" stroke="black" points="499,-530 499,-571 642,-571 642,-530 499,-530"/>
<text text-anchor="start" x="507" y="-559" font-family="Helvetica,sans-Serif" font-size="10.00">src/IO_Interaction</text>
<text text-anchor="start" x="507" y="-548" font-family="Helvetica,sans-Serif" font-size="10.00">/Weight_Importer_Helpers</text>
<text text-anchor="middle" x="570.5" y="-537" font-family="Helvetica,sans-Serif" font-size="10.00">/csv_weight_importer.cpp</text>
</a>
</g>
</g>
<!-- Node19&#45;&gt;Node20 -->
<g id="edge31" class="edge">
<title>Node19&#45;&gt;Node20</title>
<path fill="none" stroke="midnightblue" d="M553.77,-603.49C557.32,-592.45 561.12,-580.65 564.2,-571.08"/>
<polygon fill="midnightblue" stroke="midnightblue" points="550.33,-602.74 550.6,-613.34 556.99,-604.89 550.33,-602.74"/>
</g>
<!-- Node22&#45;&gt;Node1 -->
<g id="edge65" class="edge">
<title>Node22&#45;&gt;Node1</title>
<path fill="none" stroke="midnightblue" d="M784.27,-1295.95C800.97,-1306.07 819.82,-1318.2 833.05,-1327.4"/>
<polygon fill="midnightblue" stroke="midnightblue" points="785.64,-1292.7 775.26,-1290.58 782.06,-1298.71 785.64,-1292.7"/>
</g>
<!-- Node23 -->
<g id="node23" class="node">
<title>Node23</title>
<g id="a_node23"><a xlink:href="node_8h.html" target="_top" xlink:title=" ">
<polygon fill="white" stroke="black" points="518,-1193.5 518,-1223.5 655,-1223.5 655,-1193.5 518,-1193.5"/>
<text text-anchor="start" x="526" y="-1211.5" font-family="Helvetica,sans-Serif" font-size="10.00">include/network_butcher</text>
<text text-anchor="middle" x="586.5" y="-1200.5" font-family="Helvetica,sans-Serif" font-size="10.00">/Network/node.h</text>
</a>
</g>
</g>
<!-- Node22&#45;&gt;Node23 -->
<g id="edge35" class="edge">
<title>Node22&#45;&gt;Node23</title>
<path fill="none" stroke="midnightblue" d="M703.02,-1256.54C677.26,-1246.14 645.3,-1233.24 621.37,-1223.58"/>
<polygon fill="midnightblue" stroke="midnightblue" points="701.98,-1259.9 712.57,-1260.4 704.6,-1253.41 701.98,-1259.9"/>
</g>
<!-- Node32 -->
<g id="node32" class="node">
<title>Node32</title>
<g id="a_node32"><a xlink:href="content_8h.html" target="_top" xlink:title=" ">
<polygon fill="white" stroke="black" points="363,-1193.5 363,-1223.5 500,-1223.5 500,-1193.5 363,-1193.5"/>
<text text-anchor="start" x="371" y="-1211.5" font-family="Helvetica,sans-Serif" font-size="10.00">include/network_butcher</text>
<text text-anchor="middle" x="431.5" y="-1200.5" font-family="Helvetica,sans-Serif" font-size="10.00">/Types/content.h</text>
</a>
</g>
</g>
<!-- Node22&#45;&gt;Node32 -->
<g id="edge61" class="edge">
<title>Node22&#45;&gt;Node32</title>
<path fill="none" stroke="midnightblue" d="M669.47,-1258.45C617.45,-1247.75 549.72,-1233.82 499.83,-1223.55"/>
<polygon fill="midnightblue" stroke="midnightblue" points="668.82,-1261.89 679.32,-1260.48 670.23,-1255.03 668.82,-1261.89"/>
</g>
<!-- Node33 -->
<g id="node33" class="node">
<title>Node33</title>
<g id="a_node33"><a xlink:href="dense__tensor_8cpp.html" target="_top" xlink:title=" ">
<polygon fill="white" stroke="black" points="673,-1199 673,-1218 822,-1218 822,-1199 673,-1199"/>
<text text-anchor="middle" x="747.5" y="-1206" font-family="Helvetica,sans-Serif" font-size="10.00">src/Types/dense_tensor.cpp</text>
</a>
</g>
</g>
<!-- Node22&#45;&gt;Node33 -->
<g id="edge66" class="edge">
<title>Node22&#45;&gt;Node33</title>
<path fill="none" stroke="midnightblue" d="M747.5,-1250.25C747.5,-1239.02 747.5,-1226.38 747.5,-1218.19"/>
<polygon fill="midnightblue" stroke="midnightblue" points="744,-1250.4 747.5,-1260.4 751,-1250.4 744,-1250.4"/>
</g>
<!-- Node24 -->
<g id="node24" class="node">
<title>Node24</title>
<g id="a_node24"><a xlink:href="graph_8h.html" target="_top" xlink:title=" ">
<polygon fill="white" stroke="black" points="460,-1059.5 460,-1089.5 597,-1089.5 597,-1059.5 460,-1059.5"/>
<text text-anchor="start" x="468" y="-1077.5" font-family="Helvetica,sans-Serif" font-size="10.00">include/network_butcher</text>
<text text-anchor="middle" x="528.5" y="-1066.5" font-family="Helvetica,sans-Serif" font-size="10.00">/Network/graph.h</text>
</a>
</g>
</g>
<!-- Node23&#45;&gt;Node24 -->
<g id="edge36" class="edge">
<title>Node23&#45;&gt;Node24</title>
<path fill="none" stroke="midnightblue" d="M600.26,-1184.25C608.37,-1167.28 615.31,-1144.17 605.5,-1126 596.69,-1109.68 580.05,-1097.78 564.49,-1089.65"/>
<polygon fill="midnightblue" stroke="midnightblue" points="596.99,-1182.96 595.47,-1193.44 603.19,-1186.2 596.99,-1182.96"/>
</g>
<!-- Node31 -->
<g id="node31" class="node">
<title>Node31</title>
<g id="a_node31"><a xlink:href="node__traits_8h.html" target="_top" xlink:title=" ">
<polygon fill="white" stroke="black" points="460,-1126.5 460,-1156.5 597,-1156.5 597,-1126.5 460,-1126.5"/>
<text text-anchor="start" x="468" y="-1144.5" font-family="Helvetica,sans-Serif" font-size="10.00">include/network_butcher</text>
<text text-anchor="middle" x="528.5" y="-1133.5" font-family="Helvetica,sans-Serif" font-size="10.00">/Network/node_traits.h</text>
</a>
</g>
</g>
<!-- Node23&#45;&gt;Node31 -->
<g id="edge59" class="edge">
<title>Node23&#45;&gt;Node31</title>
<path fill="none" stroke="midnightblue" d="M567.08,-1185.74C558.5,-1176.12 548.66,-1165.09 541.06,-1156.58"/>
<polygon fill="midnightblue" stroke="midnightblue" points="564.65,-1188.26 573.91,-1193.4 569.87,-1183.6 564.65,-1188.26"/>
</g>
<!-- Node25 -->
<g id="node25" class="node">
<title>Node25</title>
<g id="a_node25"><a xlink:href="graph__traits_8h.html" target="_top" xlink:title=" ">
<polygon fill="white" stroke="black" points="363,-858.5 363,-888.5 500,-888.5 500,-858.5 363,-858.5"/>
<text text-anchor="start" x="371" y="-876.5" font-family="Helvetica,sans-Serif" font-size="10.00">include/network_butcher</text>
<text text-anchor="middle" x="431.5" y="-865.5" font-family="Helvetica,sans-Serif" font-size="10.00">/Network/graph_traits.h</text>
</a>
</g>
</g>
<!-- Node24&#45;&gt;Node25 -->
<g id="edge37" class="edge">
<title>Node24&#45;&gt;Node25</title>
<path fill="none" stroke="midnightblue" d="M484.8,-1054.31C471.75,-1046.46 458.74,-1036.09 450.5,-1023 423.64,-980.33 426.58,-917.05 429.58,-888.9"/>
<polygon fill="midnightblue" stroke="midnightblue" points="483.34,-1057.51 493.78,-1059.34 486.77,-1051.4 483.34,-1057.51"/>
</g>
<!-- Node29 -->
<g id="node29" class="node">
<title>Node29</title>
<g id="a_node29"><a xlink:href="mwgraph_8h.html" target="_top" xlink:title=" ">
<polygon fill="white" stroke="black" points="460,-992.5 460,-1022.5 597,-1022.5 597,-992.5 460,-992.5"/>
<text text-anchor="start" x="468" y="-1010.5" font-family="Helvetica,sans-Serif" font-size="10.00">include/network_butcher</text>
<text text-anchor="middle" x="528.5" y="-999.5" font-family="Helvetica,sans-Serif" font-size="10.00">/Network/mwgraph.h</text>
</a>
</g>
</g>
<!-- Node24&#45;&gt;Node29 -->
<g id="edge54" class="edge">
<title>Node24&#45;&gt;Node29</title>
<path fill="none" stroke="midnightblue" d="M528.5,-1049.11C528.5,-1040.15 528.5,-1030.32 528.5,-1022.58"/>
<polygon fill="midnightblue" stroke="midnightblue" points="525,-1049.4 528.5,-1059.4 532,-1049.4 525,-1049.4"/>
</g>
<!-- Node25&#45;&gt;Node2 -->
<g id="edge38" class="edge">
<title>Node25&#45;&gt;Node2</title>
<path fill="none" stroke="midnightblue" d="M400.62,-852.26C367.16,-827.63 318.5,-782.65 318.5,-729.5 318.5,-729.5 318.5,-729.5 318.5,-638.5 318.5,-510.85 292.42,-453.91 375.5,-357 392.82,-336.79 418.98,-324.67 443.82,-317.39"/>
<polygon fill="midnightblue" stroke="midnightblue" points="399,-855.41 409.17,-858.37 403.07,-849.71 399,-855.41"/>
</g>
<!-- Node25&#45;&gt;Node3 -->
<g id="edge43" class="edge">
<title>Node25&#45;&gt;Node3</title>
<path fill="none" stroke="midnightblue" d="M388.4,-854.01C343.77,-831.62 280.5,-789.33 280.5,-729.5 280.5,-729.5 280.5,-729.5 280.5,-549.5 280.5,-459.62 292.03,-431.38 342.5,-357 372.92,-312.17 424.25,-274.95 458.01,-253.58"/>
<polygon fill="midnightblue" stroke="midnightblue" points="387.09,-857.26 397.61,-858.49 390.15,-850.97 387.09,-857.26"/>
</g>
<!-- Node25&#45;&gt;Node6 -->
<g id="edge48" class="edge">
<title>Node25&#45;&gt;Node6</title>
<path fill="none" stroke="midnightblue" d="M352.58,-863.44C274.48,-849.56 166.5,-814.93 166.5,-729.5 166.5,-729.5 166.5,-729.5 166.5,-154 166.5,-85.19 381.72,-43.23 495.63,-25.84"/>
<polygon fill="midnightblue" stroke="midnightblue" points="352.47,-866.97 362.91,-865.18 353.63,-860.07 352.47,-866.97"/>
</g>
<!-- Node25&#45;&gt;Node10 -->
<g id="edge44" class="edge">
<title>Node25&#45;&gt;Node10</title>
<path fill="none" stroke="midnightblue" d="M364.45,-855.14C343.13,-847.4 320.44,-836.63 302.5,-822 264.53,-791.03 242.5,-778.5 242.5,-729.5 242.5,-729.5 242.5,-729.5 242.5,-638.5 242.5,-490.02 268.19,-312.23 277.33,-253.72"/>
<polygon fill="midnightblue" stroke="midnightblue" points="363.54,-858.53 374.14,-858.49 365.83,-851.92 363.54,-858.53"/>
</g>
<!-- Node25&#45;&gt;Node13 -->
<g id="edge39" class="edge">
<title>Node25&#45;&gt;Node13</title>
<path fill="none" stroke="midnightblue" d="M510.46,-867.95C605.02,-861.47 756.98,-847.43 807.5,-822 843.93,-803.67 874.05,-764.65 888.42,-743.62"/>
<polygon fill="midnightblue" stroke="midnightblue" points="510.11,-864.47 500.36,-868.63 510.58,-871.45 510.11,-864.47"/>
</g>
<!-- Node25&#45;&gt;Node14 -->
<g id="edge40" class="edge">
<title>Node25&#45;&gt;Node14</title>
<path fill="none" stroke="midnightblue" d="M510.26,-859.45C583.95,-844.19 694.25,-813.23 773.5,-755 797.07,-737.68 790.8,-721.61 812.5,-702 835.86,-680.89 857.89,-693.34 873.5,-666 896.42,-625.86 892.02,-548.31 849.5,-435 844.59,-421.91 836.15,-408.79 828.57,-398.54"/>
<polygon fill="midnightblue" stroke="midnightblue" points="509.22,-856.09 500.11,-861.5 510.61,-862.95 509.22,-856.09"/>
</g>
<!-- Node26 -->
<g id="node26" class="node">
<title>Node26</title>
<g id="a_node26"><a xlink:href="path__converter_8h.html" target="_top" xlink:title=" ">
<polygon fill="white" stroke="black" points="384.5,-363 384.5,-393 526.5,-393 526.5,-363 384.5,-363"/>
<text text-anchor="start" x="392.5" y="-381" font-family="Helvetica,sans-Serif" font-size="10.00">include/network_butcher</text>
<text text-anchor="middle" x="455.5" y="-370" font-family="Helvetica,sans-Serif" font-size="10.00">/Butcher/path_converter.h</text>
</a>
</g>
</g>
<!-- Node25&#45;&gt;Node26 -->
<g id="edge41" class="edge">
<title>Node25&#45;&gt;Node26</title>
<path fill="none" stroke="midnightblue" d="M399.92,-852.04C390.23,-843.96 380.74,-833.77 375.5,-822 369.9,-809.41 374.4,-804.73 375.5,-791 385.09,-671.19 394.06,-641.68 418.5,-524 428.54,-475.67 444.06,-419.21 451.39,-393.31"/>
<polygon fill="midnightblue" stroke="midnightblue" points="397.98,-854.96 408.03,-858.32 402.27,-849.43 397.98,-854.96"/>
</g>
<!-- Node27 -->
<g id="node27" class="node">
<title>Node27</title>
<g id="a_node27"><a xlink:href="weight__importer_8h.html" target="_top" xlink:title=" ">
<polygon fill="white" stroke="black" points="461,-702.5 461,-754.5 604,-754.5 604,-702.5 461,-702.5"/>
<text text-anchor="start" x="469" y="-742.5" font-family="Helvetica,sans-Serif" font-size="10.00">include/network_butcher</text>
<text text-anchor="start" x="469" y="-731.5" font-family="Helvetica,sans-Serif" font-size="10.00">/IO_Interaction/Weight</text>
<text text-anchor="start" x="469" y="-720.5" font-family="Helvetica,sans-Serif" font-size="10.00">_Importer_Helpers/weight</text>
<text text-anchor="middle" x="532.5" y="-709.5" font-family="Helvetica,sans-Serif" font-size="10.00">_importer.h</text>
</a>
</g>
</g>
<!-- Node25&#45;&gt;Node27 -->
<g id="edge45" class="edge">
<title>Node25&#45;&gt;Node27</title>
<path fill="none" stroke="midnightblue" d="M492.33,-854.11C507.3,-846.59 521.58,-836.21 530.5,-822 543.05,-802 541.85,-774.47 538.55,-754.65"/>
<polygon fill="midnightblue" stroke="midnightblue" points="490.58,-851.07 482.96,-858.43 493.51,-857.42 490.58,-851.07"/>
</g>
<!-- Node28 -->
<g id="node28" class="node">
<title>Node28</title>
<g id="a_node28"><a xlink:href="parameters_8h.html" target="_top" xlink:title=" ">
<polygon fill="white" stroke="black" points="385,-791.5 385,-821.5 522,-821.5 522,-791.5 385,-791.5"/>
<text text-anchor="start" x="393" y="-809.5" font-family="Helvetica,sans-Serif" font-size="10.00">include/network_butcher</text>
<text text-anchor="middle" x="453.5" y="-798.5" font-family="Helvetica,sans-Serif" font-size="10.00">/Types/parameters.h</text>
</a>
</g>
</g>
<!-- Node25&#45;&gt;Node28 -->
<g id="edge49" class="edge">
<title>Node25&#45;&gt;Node28</title>
<path fill="none" stroke="midnightblue" d="M439.56,-848.7C442.64,-839.59 446.06,-829.49 448.74,-821.58"/>
<polygon fill="midnightblue" stroke="midnightblue" points="436.16,-847.8 436.27,-858.4 442.79,-850.05 436.16,-847.8"/>
</g>
<!-- Node26&#45;&gt;Node2 -->
<g id="edge42" class="edge">
<title>Node26&#45;&gt;Node2</title>
<path fill="none" stroke="midnightblue" d="M473.52,-354.71C482.51,-343.6 493.11,-330.49 500.98,-320.75"/>
<polygon fill="midnightblue" stroke="midnightblue" points="470.6,-352.76 467.03,-362.73 476.04,-357.16 470.6,-352.76"/>
</g>
<!-- Node27&#45;&gt;Node15 -->
<g id="edge46" class="edge">
<title>Node27&#45;&gt;Node15</title>
<path fill="none" stroke="midnightblue" d="M587.97,-697.13C603.24,-687.87 619.46,-677.16 633.5,-666 668.11,-638.49 702.93,-600.98 724.35,-576.51"/>
<polygon fill="midnightblue" stroke="midnightblue" points="585.91,-694.28 579.11,-702.4 589.49,-700.29 585.91,-694.28"/>
</g>
<!-- Node27&#45;&gt;Node19 -->
<g id="edge47" class="edge">
<title>Node27&#45;&gt;Node19</title>
<path fill="none" stroke="midnightblue" d="M536.56,-692.19C537.58,-683.28 538.66,-673.9 539.61,-665.61"/>
<polygon fill="midnightblue" stroke="midnightblue" points="533.06,-692 535.39,-702.34 540.01,-692.8 533.06,-692"/>
</g>
<!-- Node28&#45;&gt;Node2 -->
<g id="edge50" class="edge">
<title>Node28&#45;&gt;Node2</title>
<path fill="none" stroke="midnightblue" d="M450.81,-781.17C447.31,-744.49 442.61,-672.92 451.5,-613 457.57,-572.11 463.89,-562.67 478.5,-524 500.08,-466.88 522.54,-458.67 535.5,-399 539.46,-380.76 539.46,-375.24 535.5,-357 532.68,-344.01 526.22,-330.35 520.86,-320.52"/>
<polygon fill="midnightblue" stroke="midnightblue" points="447.36,-781.79 451.85,-791.39 454.32,-781.09 447.36,-781.79"/>
</g>
<!-- Node28&#45;&gt;Node10 -->
<g id="edge52" class="edge">
<title>Node28&#45;&gt;Node10</title>
<path fill="none" stroke="midnightblue" d="M446.26,-781.6C417.65,-687.09 312.71,-340.39 286.47,-253.73"/>
<polygon fill="midnightblue" stroke="midnightblue" points="442.98,-782.82 449.22,-791.37 449.68,-780.79 442.98,-782.82"/>
</g>
<!-- Node28&#45;&gt;Node13 -->
<g id="edge51" class="edge">
<title>Node28&#45;&gt;Node13</title>
<path fill="none" stroke="midnightblue" d="M532.16,-794.12C597.04,-784.49 691.43,-769.91 773.5,-755 792.64,-751.52 813.36,-747.4 832.29,-743.5"/>
<polygon fill="midnightblue" stroke="midnightblue" points="531.39,-790.7 522.01,-795.63 532.41,-797.62 531.39,-790.7"/>
</g>
<!-- Node28&#45;&gt;Node27 -->
<g id="edge53" class="edge">
<title>Node28&#45;&gt;Node27</title>
<path fill="none" stroke="midnightblue" d="M475.63,-784.21C485.22,-774.98 496.52,-764.11 506.51,-754.5"/>
<polygon fill="midnightblue" stroke="midnightblue" points="473.14,-781.75 468.36,-791.2 477.99,-786.79 473.14,-781.75"/>
</g>
<!-- Node29&#45;&gt;Node25 -->
<g id="edge55" class="edge">
<title>Node29&#45;&gt;Node25</title>
<path fill="none" stroke="midnightblue" d="M510.4,-984.24C503.44,-975.52 495.49,-965.38 488.5,-956 471.17,-932.73 452.04,-904.91 440.93,-888.52"/>
<polygon fill="midnightblue" stroke="midnightblue" points="507.72,-986.49 516.71,-992.09 513.18,-982.11 507.72,-986.49"/>
</g>
<!-- Node30 -->
<g id="node30" class="node">
<title>Node30</title>
<g id="a_node30"><a xlink:href="wgraph_8h.html" target="_top" xlink:title=" ">
<polygon fill="white" stroke="black" points="498,-925.5 498,-955.5 635,-955.5 635,-925.5 498,-925.5"/>
<text text-anchor="start" x="506" y="-943.5" font-family="Helvetica,sans-Serif" font-size="10.00">include/network_butcher</text>
<text text-anchor="middle" x="566.5" y="-932.5" font-family="Helvetica,sans-Serif" font-size="10.00">/Network/wgraph.h</text>
</a>
</g>
</g>
<!-- Node29&#45;&gt;Node30 -->
<g id="edge56" class="edge">
<title>Node29&#45;&gt;Node30</title>
<path fill="none" stroke="midnightblue" d="M541.9,-983.58C547.36,-974.24 553.49,-963.75 558.27,-955.58"/>
<polygon fill="midnightblue" stroke="midnightblue" points="538.77,-982 536.75,-992.4 544.81,-985.53 538.77,-982"/>
</g>
<!-- Node30&#45;&gt;Node12 -->
<g id="edge57" class="edge">
<title>Node30&#45;&gt;Node12</title>
<path fill="none" stroke="midnightblue" d="M622.31,-922.56C709.06,-896.24 874.62,-846 955.18,-821.56"/>
<polygon fill="midnightblue" stroke="midnightblue" points="621.19,-919.25 612.64,-925.5 623.23,-925.94 621.19,-919.25"/>
</g>
<!-- Node30&#45;&gt;Node25 -->
<g id="edge58" class="edge">
<title>Node30&#45;&gt;Node25</title>
<path fill="none" stroke="midnightblue" d="M528.06,-920.99C506.66,-910.69 480.45,-898.07 460.74,-888.58"/>
<polygon fill="midnightblue" stroke="midnightblue" points="526.68,-924.21 537.21,-925.4 529.72,-917.9 526.68,-924.21"/>
</g>
<!-- Node31&#45;&gt;Node24 -->
<g id="edge60" class="edge">
<title>Node31&#45;&gt;Node24</title>
<path fill="none" stroke="midnightblue" d="M528.5,-1116.11C528.5,-1107.15 528.5,-1097.32 528.5,-1089.58"/>
<polygon fill="midnightblue" stroke="midnightblue" points="525,-1116.4 528.5,-1126.4 532,-1116.4 525,-1116.4"/>
</g>
<!-- Node32&#45;&gt;Node24 -->
<g id="edge63" class="edge">
<title>Node32&#45;&gt;Node24</title>
<path fill="none" stroke="midnightblue" d="M432.45,-1182.82C434.2,-1165.54 438.78,-1142.67 450.5,-1126 461.63,-1110.16 479.47,-1098.08 495.27,-1089.7"/>
<polygon fill="midnightblue" stroke="midnightblue" points="428.93,-1183 431.67,-1193.23 435.91,-1183.53 428.93,-1183"/>
</g>
<!-- Node32&#45;&gt;Node25 -->
<g id="edge62" class="edge">
<title>Node32&#45;&gt;Node25</title>
<path fill="none" stroke="midnightblue" d="M420.35,-1183.86C409.13,-1157.89 393.5,-1114.66 393.5,-1075.5 393.5,-1075.5 393.5,-1075.5 393.5,-1006.5 393.5,-962.14 413.56,-912.56 424.53,-888.76"/>
<polygon fill="midnightblue" stroke="midnightblue" points="417.26,-1185.53 424.53,-1193.24 423.65,-1182.68 417.26,-1185.53"/>
</g>
<!-- Node32&#45;&gt;Node31 -->
<g id="edge64" class="edge">
<title>Node32&#45;&gt;Node31</title>
<path fill="none" stroke="midnightblue" d="M461,-1187.73C476.01,-1177.68 493.9,-1165.68 507.49,-1156.58"/>
<polygon fill="midnightblue" stroke="midnightblue" points="458.91,-1184.92 452.55,-1193.4 462.8,-1190.74 458.91,-1184.92"/>
</g>
</g>
</svg>
