<?xml version="1.0" encoding="UTF-8" standalone="no"?>
<!DOCTYPE svg PUBLIC "-//W3C//DTD SVG 1.1//EN"
 "http://www.w3.org/Graphics/SVG/1.1/DTD/svg11.dtd">
<!-- Generated by graphviz version 2.43.0 (0)
 -->
<!-- Title: include/network_butcher/utilities.h Pages: 1 -->
<!--zoomable 240 -->
<svg id="main" version="1.1" xmlns="http://www.w3.org/2000/svg" xmlns:xlink="http://www.w3.org/1999/xlink" xml:space="preserve" onload="init(evt)">
<style type="text/css"><![CDATA[
.edge:hover path { stroke: red; }
.edge:hover polygon { stroke: red; fill: red; }
]]></style>
<script type="text/javascript"><![CDATA[
var edges = document.getElementsByTagName('g');
if (edges && edges.length) {
  for (var i=0;i<edges.length;i++) {
    if (edges[i].id.substr(0,4)=='edge') {
      edges[i].setAttribute('class','edge');
    }
  }
}
]]></script>
        <defs>
                <circle id="rim" cx="0" cy="0" r="7"/>
                <circle id="rim2" cx="0" cy="0" r="3.5"/>
                <g id="zoomPlus">
                        <use xlink:href="#rim" fill="#404040">
                                <set attributeName="fill" to="#808080" begin="zoomplus.mouseover" end="zoomplus.mouseout"/>
                        </use>
                        <path d="M-4,0h8M0,-4v8" fill="none" stroke="white" stroke-width="1.5" pointer-events="none"/>
                </g>
                <g id="zoomMin">
                        <use xlink:href="#rim" fill="#404040">
                                <set attributeName="fill" to="#808080" begin="zoomminus.mouseover" end="zoomminus.mouseout"/>
                        </use>
                        <path d="M-4,0h8" fill="none" stroke="white" stroke-width="1.5" pointer-events="none"/>
                </g>
                <g id="dirArrow">
                        <path fill="none" stroke="white" stroke-width="1.5" d="M0,-3.0v7 M-2.5,-0.5L0,-3.0L2.5,-0.5"/>
                </g>
               <g id="resetDef">
                       <use xlink:href="#rim2" fill="#404040">
                               <set attributeName="fill" to="#808080" begin="reset.mouseover" end="reset.mouseout"/>
                       </use>
               </g>
        </defs>

<script type="text/javascript">
var viewWidth = 895;
var viewHeight = 240;
var sectionId = 'dynsection-0';
</script>
<script xlink:href="svgpan.js"/>
<svg id="graph" class="graph">
<g id="viewport">
<title>include/network_butcher/utilities.h</title>
<polygon fill="white" stroke="transparent" points="-4,4 -4,-236 890.5,-236 890.5,4 -4,4"/>
<!-- Node1 -->
<g id="node1" class="node">
<title>Node1</title>
<g id="a_node1"><a xlink:title=" ">
<polygon fill="#bfbfbf" stroke="black" points="298.5,-201.5 298.5,-231.5 435.5,-231.5 435.5,-201.5 298.5,-201.5"/>
<text text-anchor="start" x="306.5" y="-219.5" font-family="Helvetica,sans-Serif" font-size="10.00">include/network_butcher</text>
<text text-anchor="middle" x="367" y="-208.5" font-family="Helvetica,sans-Serif" font-size="10.00">/utilities.h</text>
</a>
</g>
</g>
<!-- Node2 -->
<g id="node2" class="node">
<title>Node2</title>
<g id="a_node2"><a xlink:title=" ">
<polygon fill="white" stroke="#bfbfbf" points="0,-140 0,-159 64,-159 64,-140 0,-140"/>
<text text-anchor="middle" x="32" y="-147" font-family="Helvetica,sans-Serif" font-size="10.00">algorithm</text>
</a>
</g>
</g>
<!-- Node1&#45;&gt;Node2 -->
<g id="edge1" class="edge">
<title>Node1&#45;&gt;Node2</title>
<path fill="none" stroke="midnightblue" d="M298.28,-207.06C238.24,-198.89 149.05,-184.83 73,-165 69.96,-164.21 66.82,-163.29 63.7,-162.3"/>
<polygon fill="midnightblue" stroke="midnightblue" points="64.51,-158.89 53.92,-159.02 62.28,-165.52 64.51,-158.89"/>
</g>
<!-- Node3 -->
<g id="node3" class="node">
<title>Node3</title>
<g id="a_node3"><a xlink:title=" ">
<polygon fill="white" stroke="#bfbfbf" points="82,-140 82,-159 138,-159 138,-140 82,-140"/>
<text text-anchor="middle" x="110" y="-147" font-family="Helvetica,sans-Serif" font-size="10.00">numeric</text>
</a>
</g>
</g>
<!-- Node1&#45;&gt;Node3 -->
<g id="edge2" class="edge">
<title>Node1&#45;&gt;Node3</title>
<path fill="none" stroke="midnightblue" d="M298.42,-202.48C254.67,-193.51 196.99,-180.44 147,-165 144.58,-164.25 142.09,-163.42 139.6,-162.54"/>
<polygon fill="midnightblue" stroke="midnightblue" points="140.76,-159.24 130.16,-159.02 138.31,-165.8 140.76,-159.24"/>
</g>
<!-- Node4 -->
<g id="node4" class="node">
<title>Node4</title>
<g id="a_node4"><a xlink:title=" ">
<polygon fill="white" stroke="#bfbfbf" points="156,-140 156,-159 224,-159 224,-140 156,-140"/>
<text text-anchor="middle" x="190" y="-147" font-family="Helvetica,sans-Serif" font-size="10.00">filesystem</text>
</a>
</g>
</g>
<!-- Node1&#45;&gt;Node4 -->
<g id="edge3" class="edge">
<title>Node1&#45;&gt;Node4</title>
<path fill="none" stroke="midnightblue" d="M328.59,-201.4C296.99,-189.79 252.67,-173.51 222.73,-162.52"/>
<polygon fill="midnightblue" stroke="midnightblue" points="223.76,-159.17 213.17,-159.01 221.35,-165.74 223.76,-159.17"/>
</g>
<!-- Node5 -->
<g id="node5" class="node">
<title>Node5</title>
<g id="a_node5"><a xlink:title=" ">
<polygon fill="white" stroke="#bfbfbf" points="242.5,-140 242.5,-159 297.5,-159 297.5,-140 242.5,-140"/>
<text text-anchor="middle" x="270" y="-147" font-family="Helvetica,sans-Serif" font-size="10.00">fstream</text>
</a>
</g>
</g>
<!-- Node1&#45;&gt;Node5 -->
<g id="edge4" class="edge">
<title>Node1&#45;&gt;Node5</title>
<path fill="none" stroke="midnightblue" d="M345.95,-201.4C329.69,-190.5 307.28,-175.48 291.02,-164.58"/>
<polygon fill="midnightblue" stroke="midnightblue" points="292.95,-161.67 282.7,-159.01 289.05,-167.48 292.95,-161.67"/>
</g>
<!-- Node6 -->
<g id="node6" class="node">
<title>Node6</title>
<g id="a_node6"><a xlink:title=" ">
<polygon fill="white" stroke="#bfbfbf" points="316,-140 316,-159 366,-159 366,-140 316,-140"/>
<text text-anchor="middle" x="341" y="-147" font-family="Helvetica,sans-Serif" font-size="10.00">ranges</text>
</a>
</g>
</g>
<!-- Node1&#45;&gt;Node6 -->
<g id="edge5" class="edge">
<title>Node1&#45;&gt;Node6</title>
<path fill="none" stroke="midnightblue" d="M361.36,-201.4C357.51,-191.76 352.37,-178.91 348.21,-168.54"/>
<polygon fill="midnightblue" stroke="midnightblue" points="351.44,-167.18 344.48,-159.19 344.94,-169.78 351.44,-167.18"/>
</g>
<!-- Node7 -->
<g id="node7" class="node">
<title>Node7</title>
<g id="a_node7"><a xlink:title=" ">
<polygon fill="white" stroke="#bfbfbf" points="207.5,-67.5 207.5,-97.5 332.5,-97.5 332.5,-67.5 207.5,-67.5"/>
<text text-anchor="start" x="215.5" y="-85.5" font-family="Helvetica,sans-Serif" font-size="10.00">network_butcher/onnx</text>
<text text-anchor="middle" x="270" y="-74.5" font-family="Helvetica,sans-Serif" font-size="10.00">_proto/onnx.pb.h</text>
</a>
</g>
</g>
<!-- Node1&#45;&gt;Node7 -->
<g id="edge6" class="edge">
<title>Node1&#45;&gt;Node7</title>
<path fill="none" stroke="midnightblue" d="M373.34,-201.32C380.02,-184.03 387.94,-154.58 375,-134 366,-119.68 351.67,-109.32 336.45,-101.87"/>
<polygon fill="midnightblue" stroke="midnightblue" points="337.46,-98.49 326.91,-97.6 334.6,-104.88 337.46,-98.49"/>
</g>
<!-- Node8 -->
<g id="node8" class="node">
<title>Node8</title>
<g id="a_node8"><a xlink:href="traits_8h.html" target="_top" xlink:title=" ">
<polygon fill="white" stroke="black" points="422,-134.5 422,-164.5 550,-164.5 550,-134.5 422,-134.5"/>
<text text-anchor="start" x="430" y="-152.5" font-family="Helvetica,sans-Serif" font-size="10.00">network_butcher/Traits</text>
<text text-anchor="middle" x="486" y="-141.5" font-family="Helvetica,sans-Serif" font-size="10.00">/traits.h</text>
</a>
</g>
</g>
<!-- Node1&#45;&gt;Node8 -->
<g id="edge7" class="edge">
<title>Node1&#45;&gt;Node8</title>
<path fill="none" stroke="midnightblue" d="M392.82,-201.4C409.97,-192.03 432.7,-179.62 451.41,-169.39"/>
<polygon fill="midnightblue" stroke="midnightblue" points="453.13,-172.44 460.23,-164.58 449.78,-166.3 453.13,-172.44"/>
</g>
<!-- Node13 -->
<g id="node13" class="node">
<title>Node13</title>
<g id="a_node13"><a xlink:href="type__info_8h.html" target="_top" xlink:title=" ">
<polygon fill="white" stroke="black" points="571.5,-67.5 571.5,-97.5 700.5,-97.5 700.5,-67.5 571.5,-67.5"/>
<text text-anchor="start" x="579.5" y="-85.5" font-family="Helvetica,sans-Serif" font-size="10.00">network_butcher/Types</text>
<text text-anchor="middle" x="636" y="-74.5" font-family="Helvetica,sans-Serif" font-size="10.00">/type_info.h</text>
</a>
</g>
</g>
<!-- Node1&#45;&gt;Node13 -->
<g id="edge25" class="edge">
<title>Node1&#45;&gt;Node13</title>
<path fill="none" stroke="midnightblue" d="M435.9,-206.89C474.18,-199.84 521.5,-187.25 559,-165 584.29,-149.99 606.55,-124.32 620.54,-105.79"/>
<polygon fill="midnightblue" stroke="midnightblue" points="623.46,-107.73 626.55,-97.59 617.82,-103.59 623.46,-107.73"/>
</g>
<!-- Node16 -->
<g id="node16" class="node">
<title>Node16</title>
<g id="a_node16"><a xlink:href="dense__tensor_8h.html" target="_top" xlink:title=" ">
<polygon fill="white" stroke="black" points="606.5,-134.5 606.5,-164.5 735.5,-164.5 735.5,-134.5 606.5,-134.5"/>
<text text-anchor="start" x="614.5" y="-152.5" font-family="Helvetica,sans-Serif" font-size="10.00">network_butcher/Types</text>
<text text-anchor="middle" x="671" y="-141.5" font-family="Helvetica,sans-Serif" font-size="10.00">/dense_tensor.h</text>
</a>
</g>
</g>
<!-- Node1&#45;&gt;Node16 -->
<g id="edge17" class="edge">
<title>Node1&#45;&gt;Node16</title>
<path fill="none" stroke="midnightblue" d="M426.92,-201.48C475.6,-190.76 544.42,-176.04 596.61,-165.18"/>
<polygon fill="midnightblue" stroke="midnightblue" points="597.41,-168.58 606.49,-163.12 595.99,-161.73 597.41,-168.58"/>
</g>
<!-- Node8&#45;&gt;Node7 -->
<g id="edge16" class="edge">
<title>Node8&#45;&gt;Node7</title>
<path fill="none" stroke="midnightblue" d="M439.4,-134.48C406.3,-124.51 361.67,-111.09 326.53,-100.51"/>
<polygon fill="midnightblue" stroke="midnightblue" points="327.48,-97.14 316.89,-97.61 325.46,-103.84 327.48,-97.14"/>
</g>
<!-- Node9 -->
<g id="node9" class="node">
<title>Node9</title>
<g id="a_node9"><a xlink:title=" ">
<polygon fill="white" stroke="#bfbfbf" points="351,-73 351,-92 383,-92 383,-73 351,-73"/>
<text text-anchor="middle" x="367" y="-80" font-family="Helvetica,sans-Serif" font-size="10.00">set</text>
</a>
</g>
</g>
<!-- Node8&#45;&gt;Node9 -->
<g id="edge8" class="edge">
<title>Node8&#45;&gt;Node9</title>
<path fill="none" stroke="midnightblue" d="M459.13,-134.36C440.26,-124.36 414.48,-110.55 392,-98 391.47,-97.7 390.93,-97.4 390.38,-97.09"/>
<polygon fill="midnightblue" stroke="midnightblue" points="391.91,-93.94 381.5,-92.01 388.44,-100.02 391.91,-93.94"/>
</g>
<!-- Node10 -->
<g id="node10" class="node">
<title>Node10</title>
<g id="a_node10"><a xlink:title=" ">
<polygon fill="white" stroke="#bfbfbf" points="401,-73 401,-92 439,-92 439,-73 401,-73"/>
<text text-anchor="middle" x="420" y="-80" font-family="Helvetica,sans-Serif" font-size="10.00">map</text>
</a>
</g>
</g>
<!-- Node8&#45;&gt;Node10 -->
<g id="edge9" class="edge">
<title>Node8&#45;&gt;Node10</title>
<path fill="none" stroke="midnightblue" d="M471.68,-134.4C461.18,-124.06 446.93,-110.02 436.05,-99.31"/>
<polygon fill="midnightblue" stroke="midnightblue" points="438.41,-96.72 428.83,-92.19 433.5,-101.71 438.41,-96.72"/>
</g>
<!-- Node11 -->
<g id="node11" class="node">
<title>Node11</title>
<g id="a_node11"><a xlink:title=" ">
<polygon fill="white" stroke="#bfbfbf" points="457,-73 457,-92 515,-92 515,-73 457,-73"/>
<text text-anchor="middle" x="486" y="-80" font-family="Helvetica,sans-Serif" font-size="10.00">memory</text>
</a>
</g>
</g>
<!-- Node8&#45;&gt;Node11 -->
<g id="edge10" class="edge">
<title>Node8&#45;&gt;Node11</title>
<path fill="none" stroke="midnightblue" d="M486,-134.4C486,-125.06 486,-112.71 486,-102.52"/>
<polygon fill="midnightblue" stroke="midnightblue" points="489.5,-102.19 486,-92.19 482.5,-102.19 489.5,-102.19"/>
</g>
<!-- Node12 -->
<g id="node12" class="node">
<title>Node12</title>
<g id="a_node12"><a xlink:href="starting__traits_8h.html" target="_top" xlink:title=" ">
<polygon fill="white" stroke="black" points="484,-0.5 484,-30.5 612,-30.5 612,-0.5 484,-0.5"/>
<text text-anchor="start" x="492" y="-18.5" font-family="Helvetica,sans-Serif" font-size="10.00">network_butcher/Traits</text>
<text text-anchor="middle" x="548" y="-7.5" font-family="Helvetica,sans-Serif" font-size="10.00">/starting_traits.h</text>
</a>
</g>
</g>
<!-- Node8&#45;&gt;Node12 -->
<g id="edge11" class="edge">
<title>Node8&#45;&gt;Node12</title>
<path fill="none" stroke="midnightblue" d="M498.8,-134.4C506.99,-124.75 517.3,-111.33 524,-98 533.18,-79.73 539.46,-57.35 543.28,-40.66"/>
<polygon fill="midnightblue" stroke="midnightblue" points="546.76,-41.14 545.45,-30.62 539.92,-39.66 546.76,-41.14"/>
</g>
<!-- Node8&#45;&gt;Node13 -->
<g id="edge12" class="edge">
<title>Node8&#45;&gt;Node13</title>
<path fill="none" stroke="midnightblue" d="M518.55,-134.4C540.76,-124.77 570.38,-111.94 594.31,-101.56"/>
<polygon fill="midnightblue" stroke="midnightblue" points="595.73,-104.76 603.52,-97.58 592.95,-98.34 595.73,-104.76"/>
</g>
<!-- Node13&#45;&gt;Node12 -->
<g id="edge15" class="edge">
<title>Node13&#45;&gt;Node12</title>
<path fill="none" stroke="midnightblue" d="M616.91,-67.4C604.68,-58.37 588.63,-46.51 575.1,-36.52"/>
<polygon fill="midnightblue" stroke="midnightblue" points="577.18,-33.7 567.06,-30.58 573.02,-39.33 577.18,-33.7"/>
</g>
<!-- Node14 -->
<g id="node14" class="node">
<title>Node14</title>
<g id="a_node14"><a xlink:title=" ">
<polygon fill="white" stroke="#bfbfbf" points="639,-6 639,-25 683,-25 683,-6 639,-6"/>
<text text-anchor="middle" x="661" y="-13" font-family="Helvetica,sans-Serif" font-size="10.00">string</text>
</a>
</g>
</g>
<!-- Node13&#45;&gt;Node14 -->
<g id="edge13" class="edge">
<title>Node13&#45;&gt;Node14</title>
<path fill="none" stroke="midnightblue" d="M641.42,-67.4C645.13,-57.76 650.07,-44.91 654.06,-34.54"/>
<polygon fill="midnightblue" stroke="midnightblue" points="657.33,-35.78 657.66,-25.19 650.8,-33.27 657.33,-35.78"/>
</g>
<!-- Node15 -->
<g id="node15" class="node">
<title>Node15</title>
<g id="a_node15"><a xlink:title=" ">
<polygon fill="white" stroke="#bfbfbf" points="705.5,-6 705.5,-25 752.5,-25 752.5,-6 705.5,-6"/>
<text text-anchor="middle" x="729" y="-13" font-family="Helvetica,sans-Serif" font-size="10.00">vector</text>
</a>
</g>
</g>
<!-- Node13&#45;&gt;Node15 -->
<g id="edge14" class="edge">
<title>Node13&#45;&gt;Node15</title>
<path fill="none" stroke="midnightblue" d="M656.18,-67.4C671.63,-56.6 692.86,-41.76 708.42,-30.89"/>
<polygon fill="midnightblue" stroke="midnightblue" points="710.64,-33.6 716.83,-25.01 706.63,-27.87 710.64,-33.6"/>
</g>
<!-- Node16&#45;&gt;Node1 -->
<g id="edge23" class="edge">
<title>Node16&#45;&gt;Node1</title>
<path fill="none" stroke="midnightblue" d="M611.13,-164.51C563.68,-174.95 497.07,-189.21 445.38,-199.99"/>
<polygon fill="midnightblue" stroke="midnightblue" points="444.66,-196.57 435.58,-202.03 446.09,-203.42 444.66,-196.57"/>
</g>
<!-- Node16&#45;&gt;Node13 -->
<g id="edge18" class="edge">
<title>Node16&#45;&gt;Node13</title>
<path fill="none" stroke="midnightblue" d="M663.41,-134.4C659,-126.22 653.35,-115.73 648.33,-106.39"/>
<polygon fill="midnightblue" stroke="midnightblue" points="651.4,-104.72 643.58,-97.58 645.24,-108.04 651.4,-104.72"/>
</g>
<!-- Node16&#45;&gt;Node15 -->
<g id="edge24" class="edge">
<title>Node16&#45;&gt;Node15</title>
<path fill="none" stroke="midnightblue" d="M684.79,-134.16C693.25,-124.62 703.63,-111.41 710,-98 719.52,-77.95 724.44,-52.81 726.87,-35.8"/>
<polygon fill="midnightblue" stroke="midnightblue" points="730.39,-35.83 728.17,-25.47 723.44,-34.96 730.39,-35.83"/>
</g>
<!-- Node17 -->
<g id="node17" class="node">
<title>Node17</title>
<g id="a_node17"><a xlink:href="variant__attribute_8h.html" target="_top" xlink:title=" ">
<polygon fill="white" stroke="black" points="757.5,-67.5 757.5,-97.5 886.5,-97.5 886.5,-67.5 757.5,-67.5"/>
<text text-anchor="start" x="765.5" y="-85.5" font-family="Helvetica,sans-Serif" font-size="10.00">network_butcher/Types</text>
<text text-anchor="middle" x="822" y="-74.5" font-family="Helvetica,sans-Serif" font-size="10.00">/variant_attribute.h</text>
</a>
</g>
</g>
<!-- Node16&#45;&gt;Node17 -->
<g id="edge19" class="edge">
<title>Node16&#45;&gt;Node17</title>
<path fill="none" stroke="midnightblue" d="M703.76,-134.4C726.12,-124.77 755.94,-111.94 780.04,-101.56"/>
<polygon fill="midnightblue" stroke="midnightblue" points="781.5,-104.75 789.3,-97.58 778.73,-98.32 781.5,-104.75"/>
</g>
<!-- Node17&#45;&gt;Node14 -->
<g id="edge20" class="edge">
<title>Node17&#45;&gt;Node14</title>
<path fill="none" stroke="midnightblue" d="M787.07,-67.4C758.57,-55.89 718.71,-39.8 691.48,-28.81"/>
<polygon fill="midnightblue" stroke="midnightblue" points="692.65,-25.51 682.07,-25.01 690.03,-32 692.65,-25.51"/>
</g>
<!-- Node17&#45;&gt;Node15 -->
<g id="edge22" class="edge">
<title>Node17&#45;&gt;Node15</title>
<path fill="none" stroke="midnightblue" d="M801.82,-67.4C786.37,-56.6 765.14,-41.76 749.58,-30.89"/>
<polygon fill="midnightblue" stroke="midnightblue" points="751.37,-27.87 741.17,-25.01 747.36,-33.6 751.37,-27.87"/>
</g>
<!-- Node18 -->
<g id="node18" class="node">
<title>Node18</title>
<g id="a_node18"><a xlink:title=" ">
<polygon fill="white" stroke="#bfbfbf" points="796.5,-6 796.5,-25 847.5,-25 847.5,-6 796.5,-6"/>
<text text-anchor="middle" x="822" y="-13" font-family="Helvetica,sans-Serif" font-size="10.00">variant</text>
</a>
</g>
</g>
<!-- Node17&#45;&gt;Node18 -->
<g id="edge21" class="edge">
<title>Node17&#45;&gt;Node18</title>
<path fill="none" stroke="midnightblue" d="M822,-67.4C822,-58.06 822,-45.71 822,-35.52"/>
<polygon fill="midnightblue" stroke="midnightblue" points="825.5,-35.19 822,-25.19 818.5,-35.19 825.5,-35.19"/>
</g>
</g>
</svg>
        <g id="navigator" transform="translate(0 0)" fill="#404254">
                <rect fill="#f2f5e9" fill-opacity="0.5" stroke="#606060" stroke-width=".5" x="0" y="0" width="60" height="60"/>
                <use id="zoomplus" xlink:href="#zoomPlus" x="17" y="9" onmousedown="handleZoom(evt,'in')"/>
                <use id="zoomminus" xlink:href="#zoomMin" x="42" y="9" onmousedown="handleZoom(evt,'out')"/>
                <use id="reset" xlink:href="#resetDef" x="30" y="36" onmousedown="handleReset()"/>
                <g id="arrowUp" xlink:href="#dirArrow" transform="translate(30 24)" onmousedown="handlePan(0,-1)">
                  <use xlink:href="#rim" fill="#404040">
                        <set attributeName="fill" to="#808080" begin="arrowUp.mouseover" end="arrowUp.mouseout"/>
                  </use>
                  <path fill="none" stroke="white" stroke-width="1.5" d="M0,-3.0v7 M-2.5,-0.5L0,-3.0L2.5,-0.5"/>
                </g>
                <g id="arrowRight" xlink:href="#dirArrow" transform="rotate(90) translate(36 -43)" onmousedown="handlePan(1,0)">
                  <use xlink:href="#rim" fill="#404040">
                        <set attributeName="fill" to="#808080" begin="arrowRight.mouseover" end="arrowRight.mouseout"/>
                  </use>
                  <path fill="none" stroke="white" stroke-width="1.5" d="M0,-3.0v7 M-2.5,-0.5L0,-3.0L2.5,-0.5"/>
                </g>
                <g id="arrowDown" xlink:href="#dirArrow" transform="rotate(180) translate(-30 -48)" onmousedown="handlePan(0,1)">
                  <use xlink:href="#rim" fill="#404040">
                        <set attributeName="fill" to="#808080" begin="arrowDown.mouseover" end="arrowDown.mouseout"/>
                  </use>
                  <path fill="none" stroke="white" stroke-width="1.5" d="M0,-3.0v7 M-2.5,-0.5L0,-3.0L2.5,-0.5"/>
                </g>
                <g id="arrowLeft" xlink:href="#dirArrow" transform="rotate(270) translate(-36 17)" onmousedown="handlePan(-1,0)">
                  <use xlink:href="#rim" fill="#404040">
                        <set attributeName="fill" to="#808080" begin="arrowLeft.mouseover" end="arrowLeft.mouseout"/>
                  </use>
                  <path fill="none" stroke="white" stroke-width="1.5" d="M0,-3.0v7 M-2.5,-0.5L0,-3.0L2.5,-0.5"/>
                </g>
        </g>
        <svg viewBox="0 0 15 15" width="100%" height="30px" preserveAspectRatio="xMaxYMin meet">
         <g id="arrow_out" transform="scale(0.3 0.3)">
          <a xlink:href="utilities_8h__incl_org.svg" target="_base">
           <rect id="button" ry="5" rx="5" y="6" x="6" height="38" width="38"
                fill="#f2f5e9" fill-opacity="0.5" stroke="#606060" stroke-width="1.0"/>
           <path id="arrow"
             d="M 11.500037,31.436501 C 11.940474,20.09759 22.043105,11.32322 32.158766,21.979434 L 37.068811,17.246167 C 37.068811,17.246167 37.088388,32 37.088388,32 L 22.160133,31.978069 C 22.160133,31.978069 26.997745,27.140456 26.997745,27.140456 C 18.528582,18.264221 13.291696,25.230495 11.500037,31.436501 z"
             style="fill:#404040;"/>
          </a>
         </g>
        </svg>
</svg>
