<?xml version="1.0" encoding="UTF-8" standalone="no"?>
<!DOCTYPE svg PUBLIC "-//W3C//DTD SVG 1.1//EN"
 "http://www.w3.org/Graphics/SVG/1.1/DTD/svg11.dtd">
<!-- Generated by graphviz version 2.43.0 (0)
 -->
<!-- Title: include/utilities.h Pages: 1 -->
<svg width="777pt" height="196pt"
 viewBox="0.00 0.00 776.50 196.00" xmlns="http://www.w3.org/2000/svg" xmlns:xlink="http://www.w3.org/1999/xlink">
<g id="graph0" class="graph" transform="scale(1 1) rotate(0) translate(4 192)">
<title>include/utilities.h</title>
<polygon fill="white" stroke="transparent" points="-4,4 -4,-192 772.5,-192 772.5,4 -4,4"/>
<!-- Node1 -->
<g id="node1" class="node">
<title>Node1</title>
<g id="a_node1"><a xlink:title=" ">
<polygon fill="#bfbfbf" stroke="black" points="316.5,-168.5 316.5,-187.5 417.5,-187.5 417.5,-168.5 316.5,-168.5"/>
<text text-anchor="middle" x="367" y="-175.5" font-family="Helvetica,sans-Serif" font-size="10.00">include/utilities.h</text>
</a>
</g>
</g>
<!-- Node2 -->
<g id="node2" class="node">
<title>Node2</title>
<g id="a_node2"><a xlink:title=" ">
<polygon fill="white" stroke="#bfbfbf" points="0,-112.5 0,-131.5 64,-131.5 64,-112.5 0,-112.5"/>
<text text-anchor="middle" x="32" y="-119.5" font-family="Helvetica,sans-Serif" font-size="10.00">algorithm</text>
</a>
</g>
</g>
<!-- Node1&#45;&gt;Node2 -->
<g id="edge1" class="edge">
<title>Node1&#45;&gt;Node2</title>
<path fill="none" stroke="midnightblue" d="M316.37,-170.26C259.72,-162.49 164.98,-148.83 74.11,-132.11"/>
<polygon fill="midnightblue" stroke="midnightblue" points="74.66,-128.65 64.19,-130.27 73.38,-135.54 74.66,-128.65"/>
</g>
<!-- Node3 -->
<g id="node3" class="node">
<title>Node3</title>
<g id="a_node3"><a xlink:title=" ">
<polygon fill="white" stroke="#bfbfbf" points="82,-112.5 82,-131.5 138,-131.5 138,-112.5 82,-112.5"/>
<text text-anchor="middle" x="110" y="-119.5" font-family="Helvetica,sans-Serif" font-size="10.00">numeric</text>
</a>
</g>
</g>
<!-- Node1&#45;&gt;Node3 -->
<g id="edge2" class="edge">
<title>Node1&#45;&gt;Node3</title>
<path fill="none" stroke="midnightblue" d="M322.65,-168.43C280.23,-160.12 214.23,-146.89 148.02,-132.17"/>
<polygon fill="midnightblue" stroke="midnightblue" points="148.78,-128.75 138.26,-129.99 147.25,-135.58 148.78,-128.75"/>
</g>
<!-- Node4 -->
<g id="node4" class="node">
<title>Node4</title>
<g id="a_node4"><a xlink:title=" ">
<polygon fill="white" stroke="#bfbfbf" points="156,-112.5 156,-131.5 224,-131.5 224,-112.5 156,-112.5"/>
<text text-anchor="middle" x="190" y="-119.5" font-family="Helvetica,sans-Serif" font-size="10.00">filesystem</text>
</a>
</g>
</g>
<!-- Node1&#45;&gt;Node4 -->
<g id="edge3" class="edge">
<title>Node1&#45;&gt;Node4</title>
<path fill="none" stroke="midnightblue" d="M338.95,-168.44C308.92,-159.28 261.09,-144.69 227.76,-134.52"/>
<polygon fill="midnightblue" stroke="midnightblue" points="228.5,-131.09 217.91,-131.52 226.46,-137.78 228.5,-131.09"/>
</g>
<!-- Node5 -->
<g id="node5" class="node">
<title>Node5</title>
<g id="a_node5"><a xlink:title=" ">
<polygon fill="white" stroke="#bfbfbf" points="242.5,-112.5 242.5,-131.5 297.5,-131.5 297.5,-112.5 242.5,-112.5"/>
<text text-anchor="middle" x="270" y="-119.5" font-family="Helvetica,sans-Serif" font-size="10.00">fstream</text>
</a>
</g>
</g>
<!-- Node1&#45;&gt;Node5 -->
<g id="edge4" class="edge">
<title>Node1&#45;&gt;Node5</title>
<path fill="none" stroke="midnightblue" d="M351.42,-168.32C336,-159.74 312.19,-146.49 294.29,-136.52"/>
<polygon fill="midnightblue" stroke="midnightblue" points="295.99,-133.46 285.55,-131.65 292.58,-139.58 295.99,-133.46"/>
</g>
<!-- Node6 -->
<g id="node6" class="node">
<title>Node6</title>
<g id="a_node6"><a xlink:title=" ">
<polygon fill="white" stroke="#bfbfbf" points="316,-112.5 316,-131.5 366,-131.5 366,-112.5 316,-112.5"/>
<text text-anchor="middle" x="341" y="-119.5" font-family="Helvetica,sans-Serif" font-size="10.00">ranges</text>
</a>
</g>
</g>
<!-- Node1&#45;&gt;Node6 -->
<g id="edge5" class="edge">
<title>Node1&#45;&gt;Node6</title>
<path fill="none" stroke="midnightblue" d="M362.71,-168.08C359.15,-160.69 353.98,-149.95 349.58,-140.81"/>
<polygon fill="midnightblue" stroke="midnightblue" points="352.71,-139.24 345.21,-131.75 346.4,-142.28 352.71,-139.24"/>
</g>
<!-- Node7 -->
<g id="node7" class="node">
<title>Node7</title>
<g id="a_node7"><a xlink:title=" ">
<polygon fill="white" stroke="#bfbfbf" points="229.5,-56.5 229.5,-75.5 294.5,-75.5 294.5,-56.5 229.5,-56.5"/>
<text text-anchor="middle" x="262" y="-63.5" font-family="Helvetica,sans-Serif" font-size="10.00">onnx.pb.h</text>
</a>
</g>
</g>
<!-- Node1&#45;&gt;Node7 -->
<g id="edge6" class="edge">
<title>Node1&#45;&gt;Node7</title>
<path fill="none" stroke="midnightblue" d="M371.53,-168.14C377.67,-154.75 386.61,-129.13 375,-112 366.57,-99.57 332.63,-87.06 304.12,-78.4"/>
<polygon fill="midnightblue" stroke="midnightblue" points="304.9,-74.98 294.32,-75.5 302.92,-81.69 304.9,-74.98"/>
</g>
<!-- Node8 -->
<g id="node8" class="node">
<title>Node8</title>
<g id="a_node8"><a xlink:href="traits_8h.html" target="_top" xlink:title=" ">
<polygon fill="white" stroke="black" points="422.5,-112.5 422.5,-131.5 473.5,-131.5 473.5,-112.5 422.5,-112.5"/>
<text text-anchor="middle" x="448" y="-119.5" font-family="Helvetica,sans-Serif" font-size="10.00">traits.h</text>
</a>
</g>
</g>
<!-- Node1&#45;&gt;Node8 -->
<g id="edge7" class="edge">
<title>Node1&#45;&gt;Node8</title>
<path fill="none" stroke="midnightblue" d="M380.01,-168.32C392.53,-159.98 411.68,-147.21 426.47,-137.35"/>
<polygon fill="midnightblue" stroke="midnightblue" points="428.64,-140.11 435.02,-131.65 424.76,-134.29 428.64,-140.11"/>
</g>
<!-- Node13 -->
<g id="node13" class="node">
<title>Node13</title>
<g id="a_node13"><a xlink:href="type__info_8h.html" target="_top" xlink:title=" ">
<polygon fill="white" stroke="black" points="533.5,-56.5 533.5,-75.5 604.5,-75.5 604.5,-56.5 533.5,-56.5"/>
<text text-anchor="middle" x="569" y="-63.5" font-family="Helvetica,sans-Serif" font-size="10.00">type_info.h</text>
</a>
</g>
</g>
<!-- Node1&#45;&gt;Node13 -->
<g id="edge25" class="edge">
<title>Node1&#45;&gt;Node13</title>
<path fill="none" stroke="midnightblue" d="M394.89,-168.44C418.78,-160.56 453.7,-147.73 482,-132 507.82,-117.65 534.63,-96.51 551.54,-82.28"/>
<polygon fill="midnightblue" stroke="midnightblue" points="554.1,-84.69 559.42,-75.53 549.55,-79.37 554.1,-84.69"/>
</g>
<!-- Node16 -->
<g id="node16" class="node">
<title>Node16</title>
<g id="a_node16"><a xlink:href="dense__tensor_8h.html" target="_top" xlink:title=" ">
<polygon fill="white" stroke="black" points="530,-112.5 530,-131.5 620,-131.5 620,-112.5 530,-112.5"/>
<text text-anchor="middle" x="575" y="-119.5" font-family="Helvetica,sans-Serif" font-size="10.00">dense_tensor.h</text>
</a>
</g>
</g>
<!-- Node1&#45;&gt;Node16 -->
<g id="edge17" class="edge">
<title>Node1&#45;&gt;Node16</title>
<path fill="none" stroke="midnightblue" d="M394.87,-168.44C428.8,-159.1 486.36,-144.12 527.34,-133.93"/>
<polygon fill="midnightblue" stroke="midnightblue" points="528.25,-137.31 537.12,-131.52 526.57,-130.52 528.25,-137.31"/>
</g>
<!-- Node8&#45;&gt;Node7 -->
<g id="edge12" class="edge">
<title>Node8&#45;&gt;Node7</title>
<path fill="none" stroke="midnightblue" d="M422.14,-113.49C390.75,-104.38 337.52,-88.92 301.11,-78.35"/>
<polygon fill="midnightblue" stroke="midnightblue" points="301.9,-74.94 291.32,-75.51 299.95,-81.66 301.9,-74.94"/>
</g>
<!-- Node9 -->
<g id="node9" class="node">
<title>Node9</title>
<g id="a_node9"><a xlink:title=" ">
<polygon fill="white" stroke="#bfbfbf" points="313,-56.5 313,-75.5 345,-75.5 345,-56.5 313,-56.5"/>
<text text-anchor="middle" x="329" y="-63.5" font-family="Helvetica,sans-Serif" font-size="10.00">set</text>
</a>
</g>
</g>
<!-- Node8&#45;&gt;Node9 -->
<g id="edge8" class="edge">
<title>Node8&#45;&gt;Node9</title>
<path fill="none" stroke="midnightblue" d="M429.14,-112.44C408.93,-103.27 376.74,-88.66 354.33,-78.5"/>
<polygon fill="midnightblue" stroke="midnightblue" points="355.65,-75.25 345.1,-74.3 352.76,-81.62 355.65,-75.25"/>
</g>
<!-- Node10 -->
<g id="node10" class="node">
<title>Node10</title>
<g id="a_node10"><a xlink:title=" ">
<polygon fill="white" stroke="#bfbfbf" points="363,-56.5 363,-75.5 401,-75.5 401,-56.5 363,-56.5"/>
<text text-anchor="middle" x="382" y="-63.5" font-family="Helvetica,sans-Serif" font-size="10.00">map</text>
</a>
</g>
</g>
<!-- Node8&#45;&gt;Node10 -->
<g id="edge9" class="edge">
<title>Node8&#45;&gt;Node10</title>
<path fill="none" stroke="midnightblue" d="M437.4,-112.32C427.54,-104.26 412.65,-92.08 400.78,-82.37"/>
<polygon fill="midnightblue" stroke="midnightblue" points="402.75,-79.46 392.8,-75.83 398.32,-84.88 402.75,-79.46"/>
</g>
<!-- Node11 -->
<g id="node11" class="node">
<title>Node11</title>
<g id="a_node11"><a xlink:title=" ">
<polygon fill="white" stroke="#bfbfbf" points="419,-56.5 419,-75.5 477,-75.5 477,-56.5 419,-56.5"/>
<text text-anchor="middle" x="448" y="-63.5" font-family="Helvetica,sans-Serif" font-size="10.00">memory</text>
</a>
</g>
</g>
<!-- Node8&#45;&gt;Node11 -->
<g id="edge10" class="edge">
<title>Node8&#45;&gt;Node11</title>
<path fill="none" stroke="midnightblue" d="M448,-112.08C448,-105.01 448,-94.86 448,-85.99"/>
<polygon fill="midnightblue" stroke="midnightblue" points="451.5,-85.75 448,-75.75 444.5,-85.75 451.5,-85.75"/>
</g>
<!-- Node12 -->
<g id="node12" class="node">
<title>Node12</title>
<g id="a_node12"><a xlink:href="starting__traits_8h.html" target="_top" xlink:title=" ">
<polygon fill="white" stroke="black" points="454,-0.5 454,-19.5 548,-19.5 548,-0.5 454,-0.5"/>
<text text-anchor="middle" x="501" y="-7.5" font-family="Helvetica,sans-Serif" font-size="10.00">starting_traits.h</text>
</a>
</g>
</g>
<!-- Node8&#45;&gt;Node12 -->
<g id="edge11" class="edge">
<title>Node8&#45;&gt;Node12</title>
<path fill="none" stroke="midnightblue" d="M457.6,-112.29C466.31,-103.85 478.86,-90.26 486,-76 493.29,-61.44 497.1,-43.26 499.05,-29.83"/>
<polygon fill="midnightblue" stroke="midnightblue" points="502.53,-30.21 500.29,-19.86 495.58,-29.35 502.53,-30.21"/>
</g>
<!-- Node8&#45;&gt;Node13 -->
<g id="edge13" class="edge">
<title>Node8&#45;&gt;Node13</title>
<path fill="none" stroke="midnightblue" d="M467.17,-112.44C486.91,-103.64 517.89,-89.81 540.49,-79.72"/>
<polygon fill="midnightblue" stroke="midnightblue" points="542.21,-82.79 549.92,-75.52 539.36,-76.4 542.21,-82.79"/>
</g>
<!-- Node13&#45;&gt;Node12 -->
<g id="edge16" class="edge">
<title>Node13&#45;&gt;Node12</title>
<path fill="none" stroke="midnightblue" d="M558.07,-56.32C547.83,-48.18 532.28,-35.84 520,-26.09"/>
<polygon fill="midnightblue" stroke="midnightblue" points="522.13,-23.31 512.12,-19.83 517.78,-28.79 522.13,-23.31"/>
</g>
<!-- Node14 -->
<g id="node14" class="node">
<title>Node14</title>
<g id="a_node14"><a xlink:title=" ">
<polygon fill="white" stroke="#bfbfbf" points="566,-0.5 566,-19.5 610,-19.5 610,-0.5 566,-0.5"/>
<text text-anchor="middle" x="588" y="-7.5" font-family="Helvetica,sans-Serif" font-size="10.00">string</text>
</a>
</g>
</g>
<!-- Node13&#45;&gt;Node14 -->
<g id="edge14" class="edge">
<title>Node13&#45;&gt;Node14</title>
<path fill="none" stroke="midnightblue" d="M572.14,-56.08C574.68,-48.85 578.36,-38.41 581.53,-29.4"/>
<polygon fill="midnightblue" stroke="midnightblue" points="584.9,-30.35 584.92,-19.75 578.3,-28.02 584.9,-30.35"/>
</g>
<!-- Node15 -->
<g id="node15" class="node">
<title>Node15</title>
<g id="a_node15"><a xlink:title=" ">
<polygon fill="white" stroke="#bfbfbf" points="628.5,-0.5 628.5,-19.5 675.5,-19.5 675.5,-0.5 628.5,-0.5"/>
<text text-anchor="middle" x="652" y="-7.5" font-family="Helvetica,sans-Serif" font-size="10.00">vector</text>
</a>
</g>
</g>
<!-- Node13&#45;&gt;Node15 -->
<g id="edge15" class="edge">
<title>Node13&#45;&gt;Node15</title>
<path fill="none" stroke="midnightblue" d="M582.34,-56.32C595.16,-47.98 614.78,-35.21 629.94,-25.35"/>
<polygon fill="midnightblue" stroke="midnightblue" points="632.22,-28.04 638.7,-19.65 628.41,-22.17 632.22,-28.04"/>
</g>
<!-- Node16&#45;&gt;Node1 -->
<g id="edge23" class="edge">
<title>Node16&#45;&gt;Node1</title>
<path fill="none" stroke="midnightblue" d="M547.28,-131.52C513.41,-140.84 455.86,-155.82 414.84,-166.02"/>
<polygon fill="midnightblue" stroke="midnightblue" points="413.91,-162.65 405.05,-168.44 415.59,-169.44 413.91,-162.65"/>
</g>
<!-- Node16&#45;&gt;Node13 -->
<g id="edge18" class="edge">
<title>Node16&#45;&gt;Node13</title>
<path fill="none" stroke="midnightblue" d="M574.01,-112.08C573.21,-104.93 572.07,-94.64 571.08,-85.69"/>
<polygon fill="midnightblue" stroke="midnightblue" points="574.56,-85.3 569.97,-75.75 567.6,-86.08 574.56,-85.3"/>
</g>
<!-- Node16&#45;&gt;Node15 -->
<g id="edge24" class="edge">
<title>Node16&#45;&gt;Node15</title>
<path fill="none" stroke="midnightblue" d="M583.28,-112.43C591.54,-103.66 604.37,-89.45 614,-76 624.92,-60.76 635.53,-42.19 642.75,-28.81"/>
<polygon fill="midnightblue" stroke="midnightblue" points="645.98,-30.2 647.56,-19.73 639.79,-26.93 645.98,-30.2"/>
</g>
<!-- Node17 -->
<g id="node17" class="node">
<title>Node17</title>
<g id="a_node17"><a xlink:href="variant__attribute_8h.html" target="_top" xlink:title=" ">
<polygon fill="white" stroke="black" points="661.5,-56.5 661.5,-75.5 768.5,-75.5 768.5,-56.5 661.5,-56.5"/>
<text text-anchor="middle" x="715" y="-63.5" font-family="Helvetica,sans-Serif" font-size="10.00">variant_attribute.h</text>
</a>
</g>
</g>
<!-- Node16&#45;&gt;Node17 -->
<g id="edge19" class="edge">
<title>Node16&#45;&gt;Node17</title>
<path fill="none" stroke="midnightblue" d="M597.18,-112.44C620.43,-103.48 657.15,-89.31 683.42,-79.18"/>
<polygon fill="midnightblue" stroke="midnightblue" points="684.85,-82.38 692.92,-75.52 682.33,-75.85 684.85,-82.38"/>
</g>
<!-- Node17&#45;&gt;Node14 -->
<g id="edge20" class="edge">
<title>Node17&#45;&gt;Node14</title>
<path fill="none" stroke="midnightblue" d="M694.88,-56.44C673.98,-47.56 641.07,-33.56 617.28,-23.45"/>
<polygon fill="midnightblue" stroke="midnightblue" points="618.6,-20.21 608.03,-19.52 615.86,-26.65 618.6,-20.21"/>
</g>
<!-- Node17&#45;&gt;Node15 -->
<g id="edge22" class="edge">
<title>Node17&#45;&gt;Node15</title>
<path fill="none" stroke="midnightblue" d="M704.88,-56.32C695.47,-48.26 681.26,-36.08 669.93,-26.37"/>
<polygon fill="midnightblue" stroke="midnightblue" points="672.18,-23.68 662.31,-19.83 667.62,-29 672.18,-23.68"/>
</g>
<!-- Node18 -->
<g id="node18" class="node">
<title>Node18</title>
<g id="a_node18"><a xlink:title=" ">
<polygon fill="white" stroke="#bfbfbf" points="693.5,-0.5 693.5,-19.5 744.5,-19.5 744.5,-0.5 693.5,-0.5"/>
<text text-anchor="middle" x="719" y="-7.5" font-family="Helvetica,sans-Serif" font-size="10.00">variant</text>
</a>
</g>
</g>
<!-- Node17&#45;&gt;Node18 -->
<g id="edge21" class="edge">
<title>Node17&#45;&gt;Node18</title>
<path fill="none" stroke="midnightblue" d="M715.66,-56.08C716.18,-49.01 716.94,-38.86 717.59,-29.99"/>
<polygon fill="midnightblue" stroke="midnightblue" points="721.1,-29.98 718.35,-19.75 714.12,-29.47 721.1,-29.98"/>
</g>
</g>
</svg>
