<?xml version="1.0" encoding="UTF-8" standalone="no"?>
<!DOCTYPE svg PUBLIC "-//W3C//DTD SVG 1.1//EN"
 "http://www.w3.org/Graphics/SVG/1.1/DTD/svg11.dtd">
<!-- Generated by graphviz version 2.43.0 (0)
 -->
<!-- Title: include/network_butcher/utilities.h Pages: 1 -->
<svg width="1094pt" height="1366pt"
 viewBox="0.00 0.00 1093.50 1366.00" xmlns="http://www.w3.org/2000/svg" xmlns:xlink="http://www.w3.org/1999/xlink">
<g id="graph0" class="graph" transform="scale(1 1) rotate(0) translate(4 1362)">
<title>include/network_butcher/utilities.h</title>
<polygon fill="white" stroke="transparent" points="-4,4 -4,-1362 1089.5,-1362 1089.5,4 -4,4"/>
<!-- Node1 -->
<g id="node1" class="node">
<title>Node1</title>
<g id="a_node1"><a xlink:title=" ">
<polygon fill="#bfbfbf" stroke="black" points="631.5,-1327.5 631.5,-1357.5 768.5,-1357.5 768.5,-1327.5 631.5,-1327.5"/>
<text text-anchor="start" x="639.5" y="-1345.5" font-family="Helvetica,sans-Serif" font-size="10.00">include/network_butcher</text>
<text text-anchor="middle" x="700" y="-1334.5" font-family="Helvetica,sans-Serif" font-size="10.00">/utilities.h</text>
</a>
</g>
</g>
<!-- Node2 -->
<g id="node2" class="node">
<title>Node2</title>
<g id="a_node2"><a xlink:href="butcher_8h.html" target="_top" xlink:title=" ">
<polygon fill="white" stroke="black" points="313.5,-290.5 313.5,-320.5 450.5,-320.5 450.5,-290.5 313.5,-290.5"/>
<text text-anchor="start" x="321.5" y="-308.5" font-family="Helvetica,sans-Serif" font-size="10.00">include/network_butcher</text>
<text text-anchor="middle" x="382" y="-297.5" font-family="Helvetica,sans-Serif" font-size="10.00">/Butcher/butcher.h</text>
</a>
</g>
</g>
<!-- Node1&#45;&gt;Node2 -->
<g id="edge1" class="edge">
<title>Node1&#45;&gt;Node2</title>
<path fill="none" stroke="midnightblue" d="M621.25,-1342.12C445.97,-1341.39 39,-1327.03 39,-1209.5 39,-1209.5 39,-1209.5 39,-549.5 39,-454.09 58.43,-415.24 134,-357 161.58,-335.74 250.08,-321.45 313.48,-313.65"/>
<polygon fill="midnightblue" stroke="midnightblue" points="621.43,-1345.62 631.44,-1342.15 621.45,-1338.62 621.43,-1345.62"/>
</g>
<!-- Node6 -->
<g id="node6" class="node">
<title>Node6</title>
<g id="a_node6"><a xlink:href="network__butcher_8h.html" target="_top" xlink:title=" ">
<polygon fill="white" stroke="black" points="717.5,-0.5 717.5,-30.5 854.5,-30.5 854.5,-0.5 717.5,-0.5"/>
<text text-anchor="start" x="725.5" y="-18.5" font-family="Helvetica,sans-Serif" font-size="10.00">include/network_butcher</text>
<text text-anchor="middle" x="786" y="-7.5" font-family="Helvetica,sans-Serif" font-size="10.00">/network_butcher.h</text>
</a>
</g>
</g>
<!-- Node1&#45;&gt;Node6 -->
<g id="edge33" class="edge">
<title>Node1&#45;&gt;Node6</title>
<path fill="none" stroke="midnightblue" d="M778.87,-1335.3C857.3,-1324.31 966,-1293.87 966,-1209.5 966,-1209.5 966,-1209.5 966,-154 966,-87.93 888.48,-49.36 835.19,-30.65"/>
<polygon fill="midnightblue" stroke="midnightblue" points="777.96,-1331.89 768.5,-1336.66 778.87,-1338.83 777.96,-1331.89"/>
</g>
<!-- Node12 -->
<g id="node12" class="node">
<title>Node12</title>
<g id="a_node12"><a xlink:href="computer__memory_8h.html" target="_top" xlink:title=" ">
<polygon fill="white" stroke="black" points="766.5,-791.5 766.5,-821.5 937.5,-821.5 937.5,-791.5 766.5,-791.5"/>
<text text-anchor="start" x="774.5" y="-809.5" font-family="Helvetica,sans-Serif" font-size="10.00">include/network_butcher</text>
<text text-anchor="middle" x="852" y="-798.5" font-family="Helvetica,sans-Serif" font-size="10.00">/Computer/computer_memory.h</text>
</a>
</g>
</g>
<!-- Node1&#45;&gt;Node12 -->
<g id="edge14" class="edge">
<title>Node1&#45;&gt;Node12</title>
<path fill="none" stroke="midnightblue" d="M727.61,-1320.87C755.66,-1297.32 795,-1256.01 795,-1209.5 795,-1209.5 795,-1209.5 795,-939.5 795,-893.32 824.77,-844.95 841.28,-821.67"/>
<polygon fill="midnightblue" stroke="midnightblue" points="725.24,-1318.29 719.68,-1327.31 729.65,-1323.72 725.24,-1318.29"/>
</g>
<!-- Node18 -->
<g id="node18" class="node">
<title>Node18</title>
<g id="a_node18"><a xlink:href="weight__importer__utils_8h.html" target="_top" xlink:title=" ">
<polygon fill="white" stroke="black" points="626.5,-702.5 626.5,-754.5 769.5,-754.5 769.5,-702.5 626.5,-702.5"/>
<text text-anchor="start" x="634.5" y="-742.5" font-family="Helvetica,sans-Serif" font-size="10.00">include/network_butcher</text>
<text text-anchor="start" x="634.5" y="-731.5" font-family="Helvetica,sans-Serif" font-size="10.00">/IO_Interaction/Weight</text>
<text text-anchor="start" x="634.5" y="-720.5" font-family="Helvetica,sans-Serif" font-size="10.00">_Importer_Helpers/weight</text>
<text text-anchor="middle" x="698" y="-709.5" font-family="Helvetica,sans-Serif" font-size="10.00">_importer_utils.h</text>
</a>
</g>
</g>
<!-- Node1&#45;&gt;Node18 -->
<g id="edge26" class="edge">
<title>Node1&#45;&gt;Node18</title>
<path fill="none" stroke="midnightblue" d="M700,-1316.99C700,-1290.49 700,-1247 700,-1209.5 700,-1209.5 700,-1209.5 700,-872.5 700,-831.16 699.15,-783.1 698.56,-754.56"/>
<polygon fill="midnightblue" stroke="midnightblue" points="696.5,-1317.24 700,-1327.24 703.5,-1317.24 696.5,-1317.24"/>
</g>
<!-- Node22 -->
<g id="node22" class="node">
<title>Node22</title>
<g id="a_node22"><a xlink:href="dense__tensor_8h.html" target="_top" xlink:title=" ">
<polygon fill="white" stroke="black" points="529.5,-1260.5 529.5,-1290.5 666.5,-1290.5 666.5,-1260.5 529.5,-1260.5"/>
<text text-anchor="start" x="537.5" y="-1278.5" font-family="Helvetica,sans-Serif" font-size="10.00">include/network_butcher</text>
<text text-anchor="middle" x="598" y="-1267.5" font-family="Helvetica,sans-Serif" font-size="10.00">/Types/dense_tensor.h</text>
</a>
</g>
</g>
<!-- Node1&#45;&gt;Node22 -->
<g id="edge34" class="edge">
<title>Node1&#45;&gt;Node22</title>
<path fill="none" stroke="midnightblue" d="M663.18,-1322.02C646.48,-1311.9 627.63,-1299.77 614.41,-1290.58"/>
<polygon fill="midnightblue" stroke="midnightblue" points="661.81,-1325.27 672.19,-1327.4 665.4,-1319.26 661.81,-1325.27"/>
</g>
<!-- Node34 -->
<g id="node34" class="node">
<title>Node34</title>
<g id="a_node34"><a xlink:href="utilities_8cpp.html" target="_top" xlink:title=" ">
<polygon fill="white" stroke="black" points="994.5,-1266 994.5,-1285 1085.5,-1285 1085.5,-1266 994.5,-1266"/>
<text text-anchor="middle" x="1040" y="-1273" font-family="Helvetica,sans-Serif" font-size="10.00">src/utilities.cpp</text>
</a>
</g>
</g>
<!-- Node1&#45;&gt;Node34 -->
<g id="edge67" class="edge">
<title>Node1&#45;&gt;Node34</title>
<path fill="none" stroke="midnightblue" d="M778.58,-1328.6C834.84,-1319.05 912.29,-1305.27 980,-1291 988.49,-1289.21 997.62,-1287.1 1006.13,-1285.05"/>
<polygon fill="midnightblue" stroke="midnightblue" points="777.96,-1325.15 768.69,-1330.27 779.13,-1332.05 777.96,-1325.15"/>
</g>
<!-- Node3 -->
<g id="node3" class="node">
<title>Node3</title>
<g id="a_node3"><a xlink:href="onnx__importer__helpers_8h.html" target="_top" xlink:title=" ">
<polygon fill="white" stroke="black" points="47,-212.5 47,-253.5 209,-253.5 209,-212.5 47,-212.5"/>
<text text-anchor="start" x="55" y="-241.5" font-family="Helvetica,sans-Serif" font-size="10.00">include/network_butcher</text>
<text text-anchor="start" x="55" y="-230.5" font-family="Helvetica,sans-Serif" font-size="10.00">/IO_Interaction/onnx_importer</text>
<text text-anchor="middle" x="128" y="-219.5" font-family="Helvetica,sans-Serif" font-size="10.00">_helpers.h</text>
</a>
</g>
</g>
<!-- Node2&#45;&gt;Node3 -->
<g id="edge2" class="edge">
<title>Node2&#45;&gt;Node3</title>
<path fill="none" stroke="midnightblue" d="M321.87,-287.81C284.9,-277.55 237.34,-264.35 198.59,-253.59"/>
<polygon fill="midnightblue" stroke="midnightblue" points="320.94,-291.19 331.51,-290.49 322.81,-284.44 320.94,-291.19"/>
</g>
<!-- Node2&#45;&gt;Node6 -->
<g id="edge13" class="edge">
<title>Node2&#45;&gt;Node6</title>
<path fill="none" stroke="midnightblue" d="M444.5,-287.53C507.08,-268.24 603.63,-231.95 672,-176 724.15,-133.32 763.83,-61.25 779.13,-30.78"/>
<polygon fill="midnightblue" stroke="midnightblue" points="443.32,-284.24 434.76,-290.49 445.35,-290.94 443.32,-284.24"/>
</g>
<!-- Node10 -->
<g id="node10" class="node">
<title>Node10</title>
<g id="a_node10"><a xlink:href="onnx__model__reconstructor__helpers_8h.html" target="_top" xlink:title=" ">
<polygon fill="white" stroke="black" points="338.5,-212.5 338.5,-253.5 489.5,-253.5 489.5,-212.5 338.5,-212.5"/>
<text text-anchor="start" x="346.5" y="-241.5" font-family="Helvetica,sans-Serif" font-size="10.00">include/network_butcher</text>
<text text-anchor="start" x="346.5" y="-230.5" font-family="Helvetica,sans-Serif" font-size="10.00">/IO_Interaction/onnx_model</text>
<text text-anchor="middle" x="414" y="-219.5" font-family="Helvetica,sans-Serif" font-size="10.00">_reconstructor_helpers.h</text>
</a>
</g>
</g>
<!-- Node2&#45;&gt;Node10 -->
<g id="edge10" class="edge">
<title>Node2&#45;&gt;Node10</title>
<path fill="none" stroke="midnightblue" d="M392.61,-281.13C396.66,-272.2 401.23,-262.13 405.11,-253.59"/>
<polygon fill="midnightblue" stroke="midnightblue" points="389.42,-279.68 388.48,-290.23 395.8,-282.57 389.42,-279.68"/>
</g>
<!-- Node4 -->
<g id="node4" class="node">
<title>Node4</title>
<g id="a_node4"><a xlink:href="io__manager_8h.html" target="_top" xlink:title=" ">
<polygon fill="white" stroke="black" points="359.5,-140 359.5,-170 496.5,-170 496.5,-140 359.5,-140"/>
<text text-anchor="start" x="367.5" y="-158" font-family="Helvetica,sans-Serif" font-size="10.00">include/network_butcher</text>
<text text-anchor="middle" x="428" y="-147" font-family="Helvetica,sans-Serif" font-size="10.00">/io_manager.h</text>
</a>
</g>
</g>
<!-- Node3&#45;&gt;Node4 -->
<g id="edge3" class="edge">
<title>Node3&#45;&gt;Node4</title>
<path fill="none" stroke="midnightblue" d="M215.23,-209.9C265.91,-197.06 328.25,-181.27 372.32,-170.11"/>
<polygon fill="midnightblue" stroke="midnightblue" points="214.09,-206.58 205.26,-212.43 215.81,-213.37 214.09,-206.58"/>
</g>
<!-- Node9 -->
<g id="node9" class="node">
<title>Node9</title>
<g id="a_node9"><a xlink:href="onnx__importer__helpers_8cpp.html" target="_top" xlink:title=" ">
<polygon fill="white" stroke="black" points="52,-140 52,-170 204,-170 204,-140 52,-140"/>
<text text-anchor="start" x="60" y="-158" font-family="Helvetica,sans-Serif" font-size="10.00">src/IO_Interaction</text>
<text text-anchor="middle" x="128" y="-147" font-family="Helvetica,sans-Serif" font-size="10.00">/onnx_importer_helpers.cpp</text>
</a>
</g>
</g>
<!-- Node3&#45;&gt;Node9 -->
<g id="edge9" class="edge">
<title>Node3&#45;&gt;Node9</title>
<path fill="none" stroke="midnightblue" d="M128,-202.28C128,-191.25 128,-179.25 128,-170.23"/>
<polygon fill="midnightblue" stroke="midnightblue" points="124.5,-202.43 128,-212.43 131.5,-202.43 124.5,-202.43"/>
</g>
<!-- Node5 -->
<g id="node5" class="node">
<title>Node5</title>
<g id="a_node5"><a xlink:href="general__manager_8h.html" target="_top" xlink:title=" ">
<polygon fill="white" stroke="black" points="359.5,-67.5 359.5,-97.5 496.5,-97.5 496.5,-67.5 359.5,-67.5"/>
<text text-anchor="start" x="367.5" y="-85.5" font-family="Helvetica,sans-Serif" font-size="10.00">include/network_butcher</text>
<text text-anchor="middle" x="428" y="-74.5" font-family="Helvetica,sans-Serif" font-size="10.00">/general_manager.h</text>
</a>
</g>
</g>
<!-- Node4&#45;&gt;Node5 -->
<g id="edge4" class="edge">
<title>Node4&#45;&gt;Node5</title>
<path fill="none" stroke="midnightblue" d="M428,-129.73C428,-119.07 428,-106.91 428,-97.75"/>
<polygon fill="midnightblue" stroke="midnightblue" points="424.5,-129.73 428,-139.73 431.5,-129.73 424.5,-129.73"/>
</g>
<!-- Node4&#45;&gt;Node6 -->
<g id="edge7" class="edge">
<title>Node4&#45;&gt;Node6</title>
<path fill="none" stroke="midnightblue" d="M455.99,-134.08C470.69,-123.51 488.94,-110.21 505,-98 522.62,-84.6 523.95,-76.4 544,-67 599.08,-41.16 667.36,-28.45 717.33,-22.26"/>
<polygon fill="midnightblue" stroke="midnightblue" points="453.88,-131.29 447.79,-139.96 457.96,-136.98 453.88,-131.29"/>
</g>
<!-- Node8 -->
<g id="node8" class="node">
<title>Node8</title>
<g id="a_node8"><a xlink:href="io__manager_8cpp.html" target="_top" xlink:title=" ">
<polygon fill="white" stroke="black" points="553.5,-73 553.5,-92 664.5,-92 664.5,-73 553.5,-73"/>
<text text-anchor="middle" x="609" y="-80" font-family="Helvetica,sans-Serif" font-size="10.00">src/io_manager.cpp</text>
</a>
</g>
</g>
<!-- Node4&#45;&gt;Node8 -->
<g id="edge8" class="edge">
<title>Node4&#45;&gt;Node8</title>
<path fill="none" stroke="midnightblue" d="M473.59,-136.24C509.88,-122.11 559.08,-102.94 587.09,-92.03"/>
<polygon fill="midnightblue" stroke="midnightblue" points="472.24,-133.01 464.19,-139.9 474.78,-139.53 472.24,-133.01"/>
</g>
<!-- Node5&#45;&gt;Node6 -->
<g id="edge5" class="edge">
<title>Node5&#45;&gt;Node6</title>
<path fill="none" stroke="midnightblue" d="M506.5,-67.25C569.5,-55.81 657.08,-39.91 717.33,-28.97"/>
<polygon fill="midnightblue" stroke="midnightblue" points="505.82,-63.81 496.6,-69.04 507.07,-70.7 505.82,-63.81"/>
</g>
<!-- Node7 -->
<g id="node7" class="node">
<title>Node7</title>
<g id="a_node7"><a xlink:href="general__manager_8cpp.html" target="_top" xlink:title=" ">
<polygon fill="white" stroke="black" points="358.5,-6 358.5,-25 497.5,-25 497.5,-6 358.5,-6"/>
<text text-anchor="middle" x="428" y="-13" font-family="Helvetica,sans-Serif" font-size="10.00">src/general_manager.cpp</text>
</a>
</g>
</g>
<!-- Node5&#45;&gt;Node7 -->
<g id="edge6" class="edge">
<title>Node5&#45;&gt;Node7</title>
<path fill="none" stroke="midnightblue" d="M428,-57.25C428,-46.02 428,-33.38 428,-25.19"/>
<polygon fill="midnightblue" stroke="midnightblue" points="424.5,-57.4 428,-67.4 431.5,-57.4 424.5,-57.4"/>
</g>
<!-- Node10&#45;&gt;Node4 -->
<g id="edge11" class="edge">
<title>Node10&#45;&gt;Node4</title>
<path fill="none" stroke="midnightblue" d="M419.47,-202.28C421.51,-191.25 423.72,-179.25 425.38,-170.23"/>
<polygon fill="midnightblue" stroke="midnightblue" points="415.97,-201.96 417.61,-212.43 422.86,-203.23 415.97,-201.96"/>
</g>
<!-- Node11 -->
<g id="node11" class="node">
<title>Node11</title>
<g id="a_node11"><a xlink:href="onnx__model__reconstructor__helpers_8cpp.html" target="_top" xlink:title=" ">
<polygon fill="white" stroke="black" points="514.5,-134.5 514.5,-175.5 663.5,-175.5 663.5,-134.5 514.5,-134.5"/>
<text text-anchor="start" x="522.5" y="-163.5" font-family="Helvetica,sans-Serif" font-size="10.00">src/IO_Interaction</text>
<text text-anchor="start" x="522.5" y="-152.5" font-family="Helvetica,sans-Serif" font-size="10.00">/onnx_model_reconstructor</text>
<text text-anchor="middle" x="589" y="-141.5" font-family="Helvetica,sans-Serif" font-size="10.00">_helpers.cpp</text>
</a>
</g>
</g>
<!-- Node10&#45;&gt;Node11 -->
<g id="edge12" class="edge">
<title>Node10&#45;&gt;Node11</title>
<path fill="none" stroke="midnightblue" d="M468.51,-208.33C492.79,-197.78 521.04,-185.51 544.09,-175.51"/>
<polygon fill="midnightblue" stroke="midnightblue" points="466.85,-205.23 459.07,-212.43 469.63,-211.65 466.85,-205.23"/>
</g>
<!-- Node12&#45;&gt;Node2 -->
<g id="edge15" class="edge">
<title>Node12&#45;&gt;Node2</title>
<path fill="none" stroke="midnightblue" d="M856.23,-781.34C866.16,-716.06 883.67,-534.38 792,-435 702.86,-338.36 542.12,-313.88 450.62,-308.01"/>
<polygon fill="midnightblue" stroke="midnightblue" points="852.73,-781.04 854.6,-791.46 859.64,-782.15 852.73,-781.04"/>
</g>
<!-- Node12&#45;&gt;Node6 -->
<g id="edge25" class="edge">
<title>Node12&#45;&gt;Node6</title>
<path fill="none" stroke="midnightblue" d="M869.76,-783.32C892.22,-752.96 928,-695.9 928,-640.5 928,-640.5 928,-640.5 928,-154 928,-93.43 860.5,-51.02 818.58,-30.52"/>
<polygon fill="midnightblue" stroke="midnightblue" points="866.8,-781.42 863.54,-791.5 872.38,-785.65 866.8,-781.42"/>
</g>
<!-- Node13 -->
<g id="node13" class="node">
<title>Node13</title>
<g id="a_node13"><a xlink:href="graph__constraint_8h.html" target="_top" xlink:title=" ">
<polygon fill="white" stroke="black" points="257.5,-713.5 257.5,-743.5 408.5,-743.5 408.5,-713.5 257.5,-713.5"/>
<text text-anchor="start" x="265.5" y="-731.5" font-family="Helvetica,sans-Serif" font-size="10.00">include/network_butcher</text>
<text text-anchor="middle" x="333" y="-720.5" font-family="Helvetica,sans-Serif" font-size="10.00">/Butcher/graph_constraint.h</text>
</a>
</g>
</g>
<!-- Node12&#45;&gt;Node13 -->
<g id="edge16" class="edge">
<title>Node12&#45;&gt;Node13</title>
<path fill="none" stroke="midnightblue" d="M756.26,-795.4C675.86,-786.41 558.1,-772.07 456,-755 436.43,-751.73 415.23,-747.56 396.03,-743.55"/>
<polygon fill="midnightblue" stroke="midnightblue" points="756.04,-798.89 766.36,-796.52 756.81,-791.94 756.04,-798.89"/>
</g>
<!-- Node15 -->
<g id="node15" class="node">
<title>Node15</title>
<g id="a_node15"><a xlink:href="block__aMLLibrary__weight__importer_8h.html" target="_top" xlink:title=" ">
<polygon fill="white" stroke="black" points="582,-524.5 582,-576.5 752,-576.5 752,-524.5 582,-524.5"/>
<text text-anchor="start" x="590" y="-564.5" font-family="Helvetica,sans-Serif" font-size="10.00">include/network_butcher</text>
<text text-anchor="start" x="590" y="-553.5" font-family="Helvetica,sans-Serif" font-size="10.00">/IO_Interaction/Weight</text>
<text text-anchor="start" x="590" y="-542.5" font-family="Helvetica,sans-Serif" font-size="10.00">_Importer_Helpers/block</text>
<text text-anchor="middle" x="667" y="-531.5" font-family="Helvetica,sans-Serif" font-size="10.00">_aMLLibrary_weight_importer.h</text>
</a>
</g>
</g>
<!-- Node12&#45;&gt;Node15 -->
<g id="edge19" class="edge">
<title>Node12&#45;&gt;Node15</title>
<path fill="none" stroke="midnightblue" d="M850.97,-781.27C848.08,-741.62 837.03,-662.36 795,-613 781.81,-597.51 763.83,-585.62 745.52,-576.62"/>
<polygon fill="midnightblue" stroke="midnightblue" points="847.49,-781.58 851.59,-791.35 854.47,-781.15 847.49,-781.58"/>
</g>
<!-- Node14 -->
<g id="node14" class="node">
<title>Node14</title>
<g id="a_node14"><a xlink:href="constrained__block__graph__builder_8h.html" target="_top" xlink:title=" ">
<polygon fill="white" stroke="black" points="377.5,-357.5 377.5,-398.5 526.5,-398.5 526.5,-357.5 377.5,-357.5"/>
<text text-anchor="start" x="385.5" y="-386.5" font-family="Helvetica,sans-Serif" font-size="10.00">include/network_butcher</text>
<text text-anchor="start" x="385.5" y="-375.5" font-family="Helvetica,sans-Serif" font-size="10.00">/Butcher/constrained_block</text>
<text text-anchor="middle" x="452" y="-364.5" font-family="Helvetica,sans-Serif" font-size="10.00">_graph_builder.h</text>
</a>
</g>
</g>
<!-- Node13&#45;&gt;Node14 -->
<g id="edge17" class="edge">
<title>Node13&#45;&gt;Node14</title>
<path fill="none" stroke="midnightblue" d="M325.89,-703.37C311.72,-650.11 285.76,-520.46 340,-435 350.37,-418.66 367.06,-406.92 384.43,-398.55"/>
<polygon fill="midnightblue" stroke="midnightblue" points="322.58,-704.54 328.62,-713.25 329.33,-702.68 322.58,-704.54"/>
</g>
<!-- Node14&#45;&gt;Node2 -->
<g id="edge18" class="edge">
<title>Node14&#45;&gt;Node2</title>
<path fill="none" stroke="midnightblue" d="M425.21,-350.02C415.37,-340.11 404.61,-329.27 396.29,-320.89"/>
<polygon fill="midnightblue" stroke="midnightblue" points="422.97,-352.73 432.5,-357.36 427.94,-347.8 422.97,-352.73"/>
</g>
<!-- Node16 -->
<g id="node16" class="node">
<title>Node16</title>
<g id="a_node16"><a xlink:href="weight__importers_8h.html" target="_top" xlink:title=" ">
<polygon fill="white" stroke="black" points="485.5,-441 485.5,-482 622.5,-482 622.5,-441 485.5,-441"/>
<text text-anchor="start" x="493.5" y="-470" font-family="Helvetica,sans-Serif" font-size="10.00">include/network_butcher</text>
<text text-anchor="start" x="493.5" y="-459" font-family="Helvetica,sans-Serif" font-size="10.00">/IO_Interaction/weight</text>
<text text-anchor="middle" x="554" y="-448" font-family="Helvetica,sans-Serif" font-size="10.00">_importers.h</text>
</a>
</g>
</g>
<!-- Node15&#45;&gt;Node16 -->
<g id="edge20" class="edge">
<title>Node15&#45;&gt;Node16</title>
<path fill="none" stroke="midnightblue" d="M626.32,-518.18C610.67,-506.13 593.25,-492.72 579.43,-482.08"/>
<polygon fill="midnightblue" stroke="midnightblue" points="624.26,-521.01 634.32,-524.34 628.53,-515.46 624.26,-521.01"/>
</g>
<!-- Node17 -->
<g id="node17" class="node">
<title>Node17</title>
<g id="a_node17"><a xlink:href="block__aMLLibrary__weight__importer_8cpp.html" target="_top" xlink:title=" ">
<polygon fill="white" stroke="black" points="640.5,-435.5 640.5,-487.5 783.5,-487.5 783.5,-435.5 640.5,-435.5"/>
<text text-anchor="start" x="648.5" y="-475.5" font-family="Helvetica,sans-Serif" font-size="10.00">src/IO_Interaction</text>
<text text-anchor="start" x="648.5" y="-464.5" font-family="Helvetica,sans-Serif" font-size="10.00">/Weight_Importer_Helpers</text>
<text text-anchor="start" x="648.5" y="-453.5" font-family="Helvetica,sans-Serif" font-size="10.00">/block_aMLLibrary_weight</text>
<text text-anchor="middle" x="712" y="-442.5" font-family="Helvetica,sans-Serif" font-size="10.00">_importer.cpp</text>
</a>
</g>
</g>
<!-- Node15&#45;&gt;Node17 -->
<g id="edge24" class="edge">
<title>Node15&#45;&gt;Node17</title>
<path fill="none" stroke="midnightblue" d="M684.66,-515.35C689.45,-506.1 694.54,-496.26 699.01,-487.61"/>
<polygon fill="midnightblue" stroke="midnightblue" points="681.5,-513.85 680.02,-524.34 687.72,-517.06 681.5,-513.85"/>
</g>
<!-- Node16&#45;&gt;Node2 -->
<g id="edge21" class="edge">
<title>Node16&#45;&gt;Node2</title>
<path fill="none" stroke="midnightblue" d="M556.2,-430.68C556.23,-407.9 552.51,-377.09 535,-357 513.87,-332.75 480.85,-320.09 450.88,-313.51"/>
<polygon fill="midnightblue" stroke="midnightblue" points="552.69,-430.74 555.94,-440.83 559.69,-430.92 552.69,-430.74"/>
</g>
<!-- Node16&#45;&gt;Node4 -->
<g id="edge23" class="edge">
<title>Node16&#45;&gt;Node4</title>
<path fill="none" stroke="midnightblue" d="M559.29,-430.68C562.05,-409.84 563.94,-381.48 559,-357 545.17,-288.47 540.15,-267.78 498,-212 485.15,-194.99 466,-180.15 450.98,-170.02"/>
<polygon fill="midnightblue" stroke="midnightblue" points="555.79,-430.42 557.8,-440.83 562.71,-431.44 555.79,-430.42"/>
</g>
<!-- Node16&#45;&gt;Node14 -->
<g id="edge22" class="edge">
<title>Node16&#45;&gt;Node14</title>
<path fill="none" stroke="midnightblue" d="M521.74,-434.72C507.13,-423.05 490.14,-409.47 476.59,-398.64"/>
<polygon fill="midnightblue" stroke="midnightblue" points="519.57,-437.47 529.57,-440.98 523.94,-432 519.57,-437.47"/>
</g>
<!-- Node18&#45;&gt;Node15 -->
<g id="edge27" class="edge">
<title>Node18&#45;&gt;Node15</title>
<path fill="none" stroke="midnightblue" d="M652.56,-695.52C643.81,-687.02 635.86,-677.07 631,-666 621.52,-644.44 624.84,-635.73 631,-613 634.46,-600.22 641.32,-587.38 648.13,-576.76"/>
<polygon fill="midnightblue" stroke="midnightblue" points="650.3,-698.19 660.05,-702.33 655,-693.01 650.3,-698.19"/>
</g>
<!-- Node19 -->
<g id="node19" class="node">
<title>Node19</title>
<g id="a_node19"><a xlink:href="csv__weight__importer_8h.html" target="_top" xlink:title=" ">
<polygon fill="white" stroke="black" points="382,-613.5 382,-665.5 546,-665.5 546,-613.5 382,-613.5"/>
<text text-anchor="start" x="390" y="-653.5" font-family="Helvetica,sans-Serif" font-size="10.00">include/network_butcher</text>
<text text-anchor="start" x="390" y="-642.5" font-family="Helvetica,sans-Serif" font-size="10.00">/IO_Interaction/Weight</text>
<text text-anchor="start" x="390" y="-631.5" font-family="Helvetica,sans-Serif" font-size="10.00">_Importer_Helpers/csv_weight</text>
<text text-anchor="middle" x="464" y="-620.5" font-family="Helvetica,sans-Serif" font-size="10.00">_importer.h</text>
</a>
</g>
</g>
<!-- Node18&#45;&gt;Node19 -->
<g id="edge28" class="edge">
<title>Node18&#45;&gt;Node19</title>
<path fill="none" stroke="midnightblue" d="M620.96,-698.86C591.99,-688.09 559.31,-675.94 531.3,-665.52"/>
<polygon fill="midnightblue" stroke="midnightblue" points="620.04,-702.25 630.63,-702.45 622.48,-695.69 620.04,-702.25"/>
</g>
<!-- Node21 -->
<g id="node21" class="node">
<title>Node21</title>
<g id="a_node21"><a xlink:href="weight__importer__utils_8cpp.html" target="_top" xlink:title=" ">
<polygon fill="white" stroke="black" points="640,-619 640,-660 786,-660 786,-619 640,-619"/>
<text text-anchor="start" x="648" y="-648" font-family="Helvetica,sans-Serif" font-size="10.00">src/IO_Interaction</text>
<text text-anchor="start" x="648" y="-637" font-family="Helvetica,sans-Serif" font-size="10.00">/Weight_Importer_Helpers</text>
<text text-anchor="middle" x="713" y="-626" font-family="Helvetica,sans-Serif" font-size="10.00">/weight_importer_utils.cpp</text>
</a>
</g>
</g>
<!-- Node18&#45;&gt;Node21 -->
<g id="edge32" class="edge">
<title>Node18&#45;&gt;Node21</title>
<path fill="none" stroke="midnightblue" d="M704.09,-692.16C705.98,-681.21 707.99,-669.55 709.62,-660.08"/>
<polygon fill="midnightblue" stroke="midnightblue" points="700.59,-691.89 702.34,-702.34 707.49,-693.08 700.59,-691.89"/>
</g>
<!-- Node19&#45;&gt;Node15 -->
<g id="edge29" class="edge">
<title>Node19&#45;&gt;Node15</title>
<path fill="none" stroke="midnightblue" d="M531.82,-609.44C556.7,-598.77 584.63,-586.8 608.62,-576.52"/>
<polygon fill="midnightblue" stroke="midnightblue" points="530.26,-606.3 522.44,-613.45 533.01,-612.73 530.26,-606.3"/>
</g>
<!-- Node19&#45;&gt;Node16 -->
<g id="edge30" class="edge">
<title>Node19&#45;&gt;Node16</title>
<path fill="none" stroke="midnightblue" d="M509.47,-606.65C518.89,-598.04 527.82,-588.02 534,-577 550.89,-546.91 554.14,-505.93 554.44,-482.03"/>
<polygon fill="midnightblue" stroke="midnightblue" points="507.12,-604.05 501.85,-613.24 511.7,-609.34 507.12,-604.05"/>
</g>
<!-- Node20 -->
<g id="node20" class="node">
<title>Node20</title>
<g id="a_node20"><a xlink:href="csv__weight__importer_8cpp.html" target="_top" xlink:title=" ">
<polygon fill="white" stroke="black" points="382.5,-530 382.5,-571 525.5,-571 525.5,-530 382.5,-530"/>
<text text-anchor="start" x="390.5" y="-559" font-family="Helvetica,sans-Serif" font-size="10.00">src/IO_Interaction</text>
<text text-anchor="start" x="390.5" y="-548" font-family="Helvetica,sans-Serif" font-size="10.00">/Weight_Importer_Helpers</text>
<text text-anchor="middle" x="454" y="-537" font-family="Helvetica,sans-Serif" font-size="10.00">/csv_weight_importer.cpp</text>
</a>
</g>
</g>
<!-- Node19&#45;&gt;Node20 -->
<g id="edge31" class="edge">
<title>Node19&#45;&gt;Node20</title>
<path fill="none" stroke="midnightblue" d="M459.94,-603.16C458.68,-592.21 457.34,-580.55 456.25,-571.08"/>
<polygon fill="midnightblue" stroke="midnightblue" points="456.49,-603.8 461.11,-613.34 463.44,-603 456.49,-603.8"/>
</g>
<!-- Node22&#45;&gt;Node1 -->
<g id="edge65" class="edge">
<title>Node22&#45;&gt;Node1</title>
<path fill="none" stroke="midnightblue" d="M634.77,-1295.95C651.47,-1306.07 670.32,-1318.2 683.55,-1327.4"/>
<polygon fill="midnightblue" stroke="midnightblue" points="636.14,-1292.7 625.76,-1290.58 632.56,-1298.71 636.14,-1292.7"/>
</g>
<!-- Node23 -->
<g id="node23" class="node">
<title>Node23</title>
<g id="a_node23"><a xlink:href="node_8h.html" target="_top" xlink:title=" ">
<polygon fill="white" stroke="black" points="368.5,-1193.5 368.5,-1223.5 505.5,-1223.5 505.5,-1193.5 368.5,-1193.5"/>
<text text-anchor="start" x="376.5" y="-1211.5" font-family="Helvetica,sans-Serif" font-size="10.00">include/network_butcher</text>
<text text-anchor="middle" x="437" y="-1200.5" font-family="Helvetica,sans-Serif" font-size="10.00">/Network/node.h</text>
</a>
</g>
</g>
<!-- Node22&#45;&gt;Node23 -->
<g id="edge35" class="edge">
<title>Node22&#45;&gt;Node23</title>
<path fill="none" stroke="midnightblue" d="M553.52,-1256.54C527.76,-1246.14 495.8,-1233.24 471.87,-1223.58"/>
<polygon fill="midnightblue" stroke="midnightblue" points="552.48,-1259.9 563.07,-1260.4 555.1,-1253.41 552.48,-1259.9"/>
</g>
<!-- Node32 -->
<g id="node32" class="node">
<title>Node32</title>
<g id="a_node32"><a xlink:href="content_8h.html" target="_top" xlink:title=" ">
<polygon fill="white" stroke="black" points="213.5,-1193.5 213.5,-1223.5 350.5,-1223.5 350.5,-1193.5 213.5,-1193.5"/>
<text text-anchor="start" x="221.5" y="-1211.5" font-family="Helvetica,sans-Serif" font-size="10.00">include/network_butcher</text>
<text text-anchor="middle" x="282" y="-1200.5" font-family="Helvetica,sans-Serif" font-size="10.00">/Types/content.h</text>
</a>
</g>
</g>
<!-- Node22&#45;&gt;Node32 -->
<g id="edge61" class="edge">
<title>Node22&#45;&gt;Node32</title>
<path fill="none" stroke="midnightblue" d="M519.97,-1258.45C467.95,-1247.75 400.22,-1233.82 350.33,-1223.55"/>
<polygon fill="midnightblue" stroke="midnightblue" points="519.32,-1261.89 529.82,-1260.48 520.73,-1255.03 519.32,-1261.89"/>
</g>
<!-- Node33 -->
<g id="node33" class="node">
<title>Node33</title>
<g id="a_node33"><a xlink:href="dense__tensor_8cpp.html" target="_top" xlink:title=" ">
<polygon fill="white" stroke="black" points="523.5,-1199 523.5,-1218 672.5,-1218 672.5,-1199 523.5,-1199"/>
<text text-anchor="middle" x="598" y="-1206" font-family="Helvetica,sans-Serif" font-size="10.00">src/Types/dense_tensor.cpp</text>
</a>
</g>
</g>
<!-- Node22&#45;&gt;Node33 -->
<g id="edge66" class="edge">
<title>Node22&#45;&gt;Node33</title>
<path fill="none" stroke="midnightblue" d="M598,-1250.25C598,-1239.02 598,-1226.38 598,-1218.19"/>
<polygon fill="midnightblue" stroke="midnightblue" points="594.5,-1250.4 598,-1260.4 601.5,-1250.4 594.5,-1250.4"/>
</g>
<!-- Node24 -->
<g id="node24" class="node">
<title>Node24</title>
<g id="a_node24"><a xlink:href="graph_8h.html" target="_top" xlink:title=" ">
<polygon fill="white" stroke="black" points="310.5,-1059.5 310.5,-1089.5 447.5,-1089.5 447.5,-1059.5 310.5,-1059.5"/>
<text text-anchor="start" x="318.5" y="-1077.5" font-family="Helvetica,sans-Serif" font-size="10.00">include/network_butcher</text>
<text text-anchor="middle" x="379" y="-1066.5" font-family="Helvetica,sans-Serif" font-size="10.00">/Network/graph.h</text>
</a>
</g>
</g>
<!-- Node23&#45;&gt;Node24 -->
<g id="edge36" class="edge">
<title>Node23&#45;&gt;Node24</title>
<path fill="none" stroke="midnightblue" d="M450.76,-1184.25C458.87,-1167.28 465.81,-1144.17 456,-1126 447.19,-1109.68 430.55,-1097.78 414.99,-1089.65"/>
<polygon fill="midnightblue" stroke="midnightblue" points="447.49,-1182.96 445.97,-1193.44 453.69,-1186.2 447.49,-1182.96"/>
</g>
<!-- Node31 -->
<g id="node31" class="node">
<title>Node31</title>
<g id="a_node31"><a xlink:href="node__traits_8h.html" target="_top" xlink:title=" ">
<polygon fill="white" stroke="black" points="310.5,-1126.5 310.5,-1156.5 447.5,-1156.5 447.5,-1126.5 310.5,-1126.5"/>
<text text-anchor="start" x="318.5" y="-1144.5" font-family="Helvetica,sans-Serif" font-size="10.00">include/network_butcher</text>
<text text-anchor="middle" x="379" y="-1133.5" font-family="Helvetica,sans-Serif" font-size="10.00">/Network/node_traits.h</text>
</a>
</g>
</g>
<!-- Node23&#45;&gt;Node31 -->
<g id="edge59" class="edge">
<title>Node23&#45;&gt;Node31</title>
<path fill="none" stroke="midnightblue" d="M417.58,-1185.74C409,-1176.12 399.16,-1165.09 391.56,-1156.58"/>
<polygon fill="midnightblue" stroke="midnightblue" points="415.15,-1188.26 424.41,-1193.4 420.37,-1183.6 415.15,-1188.26"/>
</g>
<!-- Node25 -->
<g id="node25" class="node">
<title>Node25</title>
<g id="a_node25"><a xlink:href="graph__traits_8h.html" target="_top" xlink:title=" ">
<polygon fill="white" stroke="black" points="213.5,-858.5 213.5,-888.5 350.5,-888.5 350.5,-858.5 213.5,-858.5"/>
<text text-anchor="start" x="221.5" y="-876.5" font-family="Helvetica,sans-Serif" font-size="10.00">include/network_butcher</text>
<text text-anchor="middle" x="282" y="-865.5" font-family="Helvetica,sans-Serif" font-size="10.00">/Network/graph_traits.h</text>
</a>
</g>
</g>
<!-- Node24&#45;&gt;Node25 -->
<g id="edge37" class="edge">
<title>Node24&#45;&gt;Node25</title>
<path fill="none" stroke="midnightblue" d="M335.3,-1054.31C322.25,-1046.46 309.24,-1036.09 301,-1023 274.14,-980.33 277.08,-917.05 280.08,-888.9"/>
<polygon fill="midnightblue" stroke="midnightblue" points="333.84,-1057.51 344.28,-1059.34 337.27,-1051.4 333.84,-1057.51"/>
</g>
<!-- Node29 -->
<g id="node29" class="node">
<title>Node29</title>
<g id="a_node29"><a xlink:href="mwgraph_8h.html" target="_top" xlink:title=" ">
<polygon fill="white" stroke="black" points="310.5,-992.5 310.5,-1022.5 447.5,-1022.5 447.5,-992.5 310.5,-992.5"/>
<text text-anchor="start" x="318.5" y="-1010.5" font-family="Helvetica,sans-Serif" font-size="10.00">include/network_butcher</text>
<text text-anchor="middle" x="379" y="-999.5" font-family="Helvetica,sans-Serif" font-size="10.00">/Network/mwgraph.h</text>
</a>
</g>
</g>
<!-- Node24&#45;&gt;Node29 -->
<g id="edge54" class="edge">
<title>Node24&#45;&gt;Node29</title>
<path fill="none" stroke="midnightblue" d="M379,-1049.11C379,-1040.15 379,-1030.32 379,-1022.58"/>
<polygon fill="midnightblue" stroke="midnightblue" points="375.5,-1049.4 379,-1059.4 382.5,-1049.4 375.5,-1049.4"/>
</g>
<!-- Node25&#45;&gt;Node2 -->
<g id="edge38" class="edge">
<title>Node25&#45;&gt;Node2</title>
<path fill="none" stroke="midnightblue" d="M206.56,-854.97C186.88,-847.46 167.01,-836.86 152,-822 120.53,-790.85 115,-773.78 115,-729.5 115,-729.5 115,-729.5 115,-549.5 115,-460.4 106.5,-418.47 171,-357 191.38,-337.58 259.92,-323.62 313.41,-315.36"/>
<polygon fill="midnightblue" stroke="midnightblue" points="205.59,-858.34 216.19,-858.41 207.95,-851.75 205.59,-858.34"/>
</g>
<!-- Node25&#45;&gt;Node3 -->
<g id="edge43" class="edge">
<title>Node25&#45;&gt;Node3</title>
<path fill="none" stroke="midnightblue" d="M203.39,-865.9C119.95,-854.08 0,-821.15 0,-729.5 0,-729.5 0,-729.5 0,-377 0,-321.36 54.47,-277.46 92.34,-253.66"/>
<polygon fill="midnightblue" stroke="midnightblue" points="203,-869.38 213.38,-867.24 203.93,-862.44 203,-869.38"/>
</g>
<!-- Node25&#45;&gt;Node6 -->
<g id="edge48" class="edge">
<title>Node25&#45;&gt;Node6</title>
<path fill="none" stroke="midnightblue" d="M361.09,-862.97C484.94,-846.57 716.84,-809.44 778,-755 849.89,-691.01 852,-647.74 852,-551.5 852,-551.5 852,-551.5 852,-154 852,-104.75 817.16,-54.48 798.11,-30.67"/>
<polygon fill="midnightblue" stroke="midnightblue" points="360.37,-859.54 350.91,-864.3 361.28,-866.48 360.37,-859.54"/>
</g>
<!-- Node25&#45;&gt;Node10 -->
<g id="edge44" class="edge">
<title>Node25&#45;&gt;Node10</title>
<path fill="none" stroke="midnightblue" d="M203.17,-860.23C175.73,-852.81 146.27,-840.95 124,-822 88.88,-792.12 77,-775.61 77,-729.5 77,-729.5 77,-729.5 77,-549.5 77,-460.27 75.01,-423.94 134,-357 187.1,-296.75 275.19,-264.76 338.39,-248.67"/>
<polygon fill="midnightblue" stroke="midnightblue" points="202.62,-863.7 213.17,-862.76 204.34,-856.91 202.62,-863.7"/>
</g>
<!-- Node25&#45;&gt;Node13 -->
<g id="edge40" class="edge">
<title>Node25&#45;&gt;Node13</title>
<path fill="none" stroke="midnightblue" d="M306.46,-851.43C314.44,-843.12 322.42,-832.95 327,-822 337.87,-796.02 336.68,-762.33 334.84,-743.62"/>
<polygon fill="midnightblue" stroke="midnightblue" points="303.94,-849 299.23,-858.5 308.83,-854.01 303.94,-849"/>
</g>
<!-- Node25&#45;&gt;Node14 -->
<g id="edge39" class="edge">
<title>Node25&#45;&gt;Node14</title>
<path fill="none" stroke="midnightblue" d="M318.65,-853.18C351.57,-833.48 397.61,-799.53 417,-755 426.4,-733.4 427.09,-723.29 417,-702 406.18,-679.17 383.82,-688.83 373,-666 345.97,-608.97 357.42,-585.16 373,-524 385.38,-475.38 417.75,-425.48 437,-398.76"/>
<polygon fill="midnightblue" stroke="midnightblue" points="316.64,-850.3 309.75,-858.35 320.16,-856.35 316.64,-850.3"/>
</g>
<!-- Node26 -->
<g id="node26" class="node">
<title>Node26</title>
<g id="a_node26"><a xlink:href="path__converter_8h.html" target="_top" xlink:title=" ">
<polygon fill="white" stroke="black" points="180,-363 180,-393 322,-393 322,-363 180,-363"/>
<text text-anchor="start" x="188" y="-381" font-family="Helvetica,sans-Serif" font-size="10.00">include/network_butcher</text>
<text text-anchor="middle" x="251" y="-370" font-family="Helvetica,sans-Serif" font-size="10.00">/Butcher/path_converter.h</text>
</a>
</g>
</g>
<!-- Node25&#45;&gt;Node26 -->
<g id="edge41" class="edge">
<title>Node25&#45;&gt;Node26</title>
<path fill="none" stroke="midnightblue" d="M217.02,-854.55C200.16,-847.01 183.53,-836.51 172,-822 145.89,-789.14 153,-771.47 153,-729.5 153,-729.5 153,-729.5 153,-638.5 153,-539.05 216.77,-431.19 241.42,-393.2"/>
<polygon fill="midnightblue" stroke="midnightblue" points="215.8,-857.83 226.38,-858.44 218.49,-851.37 215.8,-857.83"/>
</g>
<!-- Node27 -->
<g id="node27" class="node">
<title>Node27</title>
<g id="a_node27"><a xlink:href="weight__importer_8h.html" target="_top" xlink:title=" ">
<polygon fill="white" stroke="black" points="465.5,-702.5 465.5,-754.5 608.5,-754.5 608.5,-702.5 465.5,-702.5"/>
<text text-anchor="start" x="473.5" y="-742.5" font-family="Helvetica,sans-Serif" font-size="10.00">include/network_butcher</text>
<text text-anchor="start" x="473.5" y="-731.5" font-family="Helvetica,sans-Serif" font-size="10.00">/IO_Interaction/Weight</text>
<text text-anchor="start" x="473.5" y="-720.5" font-family="Helvetica,sans-Serif" font-size="10.00">_Importer_Helpers/weight</text>
<text text-anchor="middle" x="537" y="-709.5" font-family="Helvetica,sans-Serif" font-size="10.00">_importer.h</text>
</a>
</g>
</g>
<!-- Node25&#45;&gt;Node27 -->
<g id="edge45" class="edge">
<title>Node25&#45;&gt;Node27</title>
<path fill="none" stroke="midnightblue" d="M360.81,-858.16C390.56,-850.44 423.78,-838.92 451,-822 479.12,-804.52 503.99,-775.48 519.66,-754.6"/>
<polygon fill="midnightblue" stroke="midnightblue" points="359.73,-854.82 350.87,-860.63 361.41,-861.62 359.73,-854.82"/>
</g>
<!-- Node28 -->
<g id="node28" class="node">
<title>Node28</title>
<g id="a_node28"><a xlink:href="parameters_8h.html" target="_top" xlink:title=" ">
<polygon fill="white" stroke="black" points="181.5,-791.5 181.5,-821.5 318.5,-821.5 318.5,-791.5 181.5,-791.5"/>
<text text-anchor="start" x="189.5" y="-809.5" font-family="Helvetica,sans-Serif" font-size="10.00">include/network_butcher</text>
<text text-anchor="middle" x="250" y="-798.5" font-family="Helvetica,sans-Serif" font-size="10.00">/Types/parameters.h</text>
</a>
</g>
</g>
<!-- Node25&#45;&gt;Node28 -->
<g id="edge49" class="edge">
<title>Node25&#45;&gt;Node28</title>
<path fill="none" stroke="midnightblue" d="M270.57,-849.28C266.01,-840.02 260.91,-829.66 256.93,-821.58"/>
<polygon fill="midnightblue" stroke="midnightblue" points="267.5,-850.97 275.06,-858.4 273.78,-847.88 267.5,-850.97"/>
</g>
<!-- Node26&#45;&gt;Node2 -->
<g id="edge42" class="edge">
<title>Node26&#45;&gt;Node2</title>
<path fill="none" stroke="midnightblue" d="M286.2,-358.06C308.13,-346.26 335.87,-331.33 355.85,-320.57"/>
<polygon fill="midnightblue" stroke="midnightblue" points="284.34,-355.08 277.19,-362.9 287.66,-361.25 284.34,-355.08"/>
</g>
<!-- Node27&#45;&gt;Node15 -->
<g id="edge46" class="edge">
<title>Node27&#45;&gt;Node15</title>
<path fill="none" stroke="midnightblue" d="M561.74,-694C587,-659.8 625.64,-607.49 648.41,-576.67"/>
<polygon fill="midnightblue" stroke="midnightblue" points="558.75,-692.16 555.63,-702.28 564.38,-696.32 558.75,-692.16"/>
</g>
<!-- Node27&#45;&gt;Node19 -->
<g id="edge47" class="edge">
<title>Node27&#45;&gt;Node19</title>
<path fill="none" stroke="midnightblue" d="M509.31,-694.5C501.27,-684.92 492.63,-674.62 485.07,-665.61"/>
<polygon fill="midnightblue" stroke="midnightblue" points="506.78,-696.93 515.89,-702.34 512.14,-692.43 506.78,-696.93"/>
</g>
<!-- Node28&#45;&gt;Node2 -->
<g id="edge50" class="edge">
<title>Node28&#45;&gt;Node2</title>
<path fill="none" stroke="midnightblue" d="M247.63,-781.38C246.01,-760.35 244.71,-729.04 248,-702 262.77,-580.66 270.42,-549.21 314,-435 322.82,-411.89 357.99,-348.84 374,-320.56"/>
<polygon fill="midnightblue" stroke="midnightblue" points="244.14,-781.71 248.48,-791.37 251.12,-781.11 244.14,-781.71"/>
</g>
<!-- Node28&#45;&gt;Node3 -->
<g id="edge52" class="edge">
<title>Node28&#45;&gt;Node3</title>
<path fill="none" stroke="midnightblue" d="M244.84,-781.31C224.57,-686.38 150.69,-340.31 132.21,-253.73"/>
<polygon fill="midnightblue" stroke="midnightblue" points="241.47,-782.32 246.98,-791.37 248.32,-780.86 241.47,-782.32"/>
</g>
<!-- Node28&#45;&gt;Node13 -->
<g id="edge51" class="edge">
<title>Node28&#45;&gt;Node13</title>
<path fill="none" stroke="midnightblue" d="M273.05,-784.39C287.21,-771.43 304.96,-755.18 317.46,-743.73"/>
<polygon fill="midnightblue" stroke="midnightblue" points="270.62,-781.87 265.61,-791.2 275.35,-787.03 270.62,-781.87"/>
</g>
<!-- Node28&#45;&gt;Node27 -->
<g id="edge53" class="edge">
<title>Node28&#45;&gt;Node27</title>
<path fill="none" stroke="midnightblue" d="M312.9,-788.84C357.9,-776.93 418.55,-760.87 465.4,-748.46"/>
<polygon fill="midnightblue" stroke="midnightblue" points="311.75,-785.53 302.97,-791.47 313.54,-792.3 311.75,-785.53"/>
</g>
<!-- Node29&#45;&gt;Node25 -->
<g id="edge55" class="edge">
<title>Node29&#45;&gt;Node25</title>
<path fill="none" stroke="midnightblue" d="M360.9,-984.24C353.94,-975.52 345.99,-965.38 339,-956 321.67,-932.73 302.54,-904.91 291.43,-888.52"/>
<polygon fill="midnightblue" stroke="midnightblue" points="358.22,-986.49 367.21,-992.09 363.68,-982.11 358.22,-986.49"/>
</g>
<!-- Node30 -->
<g id="node30" class="node">
<title>Node30</title>
<g id="a_node30"><a xlink:href="wgraph_8h.html" target="_top" xlink:title=" ">
<polygon fill="white" stroke="black" points="348.5,-925.5 348.5,-955.5 485.5,-955.5 485.5,-925.5 348.5,-925.5"/>
<text text-anchor="start" x="356.5" y="-943.5" font-family="Helvetica,sans-Serif" font-size="10.00">include/network_butcher</text>
<text text-anchor="middle" x="417" y="-932.5" font-family="Helvetica,sans-Serif" font-size="10.00">/Network/wgraph.h</text>
</a>
</g>
</g>
<!-- Node29&#45;&gt;Node30 -->
<g id="edge56" class="edge">
<title>Node29&#45;&gt;Node30</title>
<path fill="none" stroke="midnightblue" d="M392.4,-983.58C397.86,-974.24 403.99,-963.75 408.77,-955.58"/>
<polygon fill="midnightblue" stroke="midnightblue" points="389.27,-982 387.25,-992.4 395.31,-985.53 389.27,-982"/>
</g>
<!-- Node30&#45;&gt;Node12 -->
<g id="edge57" class="edge">
<title>Node30&#45;&gt;Node12</title>
<path fill="none" stroke="midnightblue" d="M472.81,-922.56C559.56,-896.24 725.12,-846 805.68,-821.56"/>
<polygon fill="midnightblue" stroke="midnightblue" points="471.69,-919.25 463.14,-925.5 473.73,-925.94 471.69,-919.25"/>
</g>
<!-- Node30&#45;&gt;Node25 -->
<g id="edge58" class="edge">
<title>Node30&#45;&gt;Node25</title>
<path fill="none" stroke="midnightblue" d="M378.56,-920.99C357.16,-910.69 330.95,-898.07 311.24,-888.58"/>
<polygon fill="midnightblue" stroke="midnightblue" points="377.18,-924.21 387.71,-925.4 380.22,-917.9 377.18,-924.21"/>
</g>
<!-- Node31&#45;&gt;Node24 -->
<g id="edge60" class="edge">
<title>Node31&#45;&gt;Node24</title>
<path fill="none" stroke="midnightblue" d="M379,-1116.11C379,-1107.15 379,-1097.32 379,-1089.58"/>
<polygon fill="midnightblue" stroke="midnightblue" points="375.5,-1116.4 379,-1126.4 382.5,-1116.4 375.5,-1116.4"/>
</g>
<!-- Node32&#45;&gt;Node24 -->
<g id="edge62" class="edge">
<title>Node32&#45;&gt;Node24</title>
<path fill="none" stroke="midnightblue" d="M282.95,-1182.82C284.7,-1165.54 289.28,-1142.67 301,-1126 312.13,-1110.16 329.97,-1098.08 345.77,-1089.7"/>
<polygon fill="midnightblue" stroke="midnightblue" points="279.43,-1183 282.17,-1193.23 286.41,-1183.53 279.43,-1183"/>
</g>
<!-- Node32&#45;&gt;Node25 -->
<g id="edge63" class="edge">
<title>Node32&#45;&gt;Node25</title>
<path fill="none" stroke="midnightblue" d="M270.85,-1183.86C259.63,-1157.89 244,-1114.66 244,-1075.5 244,-1075.5 244,-1075.5 244,-1006.5 244,-962.14 264.06,-912.56 275.03,-888.76"/>
<polygon fill="midnightblue" stroke="midnightblue" points="267.76,-1185.53 275.03,-1193.24 274.15,-1182.68 267.76,-1185.53"/>
</g>
<!-- Node32&#45;&gt;Node31 -->
<g id="edge64" class="edge">
<title>Node32&#45;&gt;Node31</title>
<path fill="none" stroke="midnightblue" d="M311.5,-1187.73C326.51,-1177.68 344.4,-1165.68 357.99,-1156.58"/>
<polygon fill="midnightblue" stroke="midnightblue" points="309.41,-1184.92 303.05,-1193.4 313.3,-1190.74 309.41,-1184.92"/>
</g>
</g>
</svg>
