<?xml version="1.0" encoding="UTF-8" standalone="no"?>
<!DOCTYPE svg PUBLIC "-//W3C//DTD SVG 1.1//EN"
 "http://www.w3.org/Graphics/SVG/1.1/DTD/svg11.dtd">
<!-- Generated by graphviz version 2.43.0 (0)
 -->
<!-- Title: include/Types/variant_attribute.h Pages: 1 -->
<!--zoomable 1245 -->
<svg id="main" version="1.1" xmlns="http://www.w3.org/2000/svg" xmlns:xlink="http://www.w3.org/1999/xlink" xml:space="preserve" onload="init(evt)">
<style type="text/css"><![CDATA[
.edge:hover path { stroke: red; }
.edge:hover polygon { stroke: red; fill: red; }
]]></style>
<script type="text/javascript"><![CDATA[
var edges = document.getElementsByTagName('g');
if (edges && edges.length) {
  for (var i=0;i<edges.length;i++) {
    if (edges[i].id.substr(0,4)=='edge') {
      edges[i].setAttribute('class','edge');
    }
  }
}
]]></script>
        <defs>
                <circle id="rim" cx="0" cy="0" r="7"/>
                <circle id="rim2" cx="0" cy="0" r="3.5"/>
                <g id="zoomPlus">
                        <use xlink:href="#rim" fill="#404040">
                                <set attributeName="fill" to="#808080" begin="zoomplus.mouseover" end="zoomplus.mouseout"/>
                        </use>
                        <path d="M-4,0h8M0,-4v8" fill="none" stroke="white" stroke-width="1.5" pointer-events="none"/>
                </g>
                <g id="zoomMin">
                        <use xlink:href="#rim" fill="#404040">
                                <set attributeName="fill" to="#808080" begin="zoomminus.mouseover" end="zoomminus.mouseout"/>
                        </use>
                        <path d="M-4,0h8" fill="none" stroke="white" stroke-width="1.5" pointer-events="none"/>
                </g>
                <g id="dirArrow">
                        <path fill="none" stroke="white" stroke-width="1.5" d="M0,-3.0v7 M-2.5,-0.5L0,-3.0L2.5,-0.5"/>
                </g>
               <g id="resetDef">
                       <use xlink:href="#rim2" fill="#404040">
                               <set attributeName="fill" to="#808080" begin="reset.mouseover" end="reset.mouseout"/>
                       </use>
               </g>
        </defs>

<script type="text/javascript">
var viewWidth = 1179;
var viewHeight = 1245;
var sectionId = 'dynsection-1';
</script>
<script xlink:href="svgpan.js"/>
<svg id="graph" class="graph">
<g id="viewport">
<title>include/Types/variant_attribute.h</title>
<polygon fill="white" stroke="transparent" points="-4,4 -4,-1241 1175.2,-1241 1175.2,4 -4,4"/>
<!-- Node1 -->
<g id="node1" class="node">
<title>Node1</title>
<g id="a_node1"><a xlink:title=" ">
<polygon fill="#bfbfbf" stroke="black" points="353.2,-1206.5 353.2,-1236.5 473.2,-1236.5 473.2,-1206.5 353.2,-1206.5"/>
<text text-anchor="start" x="361.2" y="-1224.5" font-family="Helvetica,sans-Serif" font-size="10.00">include/Types/variant</text>
<text text-anchor="middle" x="413.2" y="-1213.5" font-family="Helvetica,sans-Serif" font-size="10.00">_attribute.h</text>
</a>
</g>
</g>
<!-- Node2 -->
<g id="node2" class="node">
<title>Node2</title>
<g id="a_node2"><a xlink:href="dense__tensor_8h.html" target="_top" xlink:title=" ">
<polygon fill="white" stroke="black" points="312.7,-1139.5 312.7,-1169.5 427.7,-1169.5 427.7,-1139.5 312.7,-1139.5"/>
<text text-anchor="start" x="320.7" y="-1157.5" font-family="Helvetica,sans-Serif" font-size="10.00">include/Types/dense</text>
<text text-anchor="middle" x="370.2" y="-1146.5" font-family="Helvetica,sans-Serif" font-size="10.00">_tensor.h</text>
</a>
</g>
</g>
<!-- Node1&#45;&gt;Node2 -->
<g id="edge1" class="edge">
<title>Node1&#45;&gt;Node2</title>
<path fill="none" stroke="midnightblue" d="M398.23,-1197.87C392.01,-1188.46 384.98,-1177.83 379.51,-1169.58"/>
<polygon fill="midnightblue" stroke="midnightblue" points="395.44,-1199.99 403.87,-1206.4 401.27,-1196.12 395.44,-1199.99"/>
</g>
<!-- Node31 -->
<g id="node31" class="node">
<title>Node31</title>
<g id="a_node31"><a xlink:href="content_8h.html" target="_top" xlink:title=" ">
<polygon fill="white" stroke="black" points="506.7,-1083.5 506.7,-1102.5 637.7,-1102.5 637.7,-1083.5 506.7,-1083.5"/>
<text text-anchor="middle" x="572.2" y="-1090.5" font-family="Helvetica,sans-Serif" font-size="10.00">include/Types/content.h</text>
</a>
</g>
</g>
<!-- Node1&#45;&gt;Node31 -->
<g id="edge68" class="edge">
<title>Node1&#45;&gt;Node31</title>
<path fill="none" stroke="midnightblue" d="M438.75,-1200.17C474,-1172.13 536.02,-1122.79 561.16,-1102.79"/>
<polygon fill="midnightblue" stroke="midnightblue" points="436.47,-1197.51 430.83,-1206.48 440.83,-1202.99 436.47,-1197.51"/>
</g>
<!-- Node3 -->
<g id="node3" class="node">
<title>Node3</title>
<g id="a_node3"><a xlink:href="node_8h.html" target="_top" xlink:title=" ">
<polygon fill="white" stroke="black" points="356.2,-1083.5 356.2,-1102.5 488.2,-1102.5 488.2,-1083.5 356.2,-1083.5"/>
<text text-anchor="middle" x="422.2" y="-1090.5" font-family="Helvetica,sans-Serif" font-size="10.00">include/Network/node.h</text>
</a>
</g>
</g>
<!-- Node2&#45;&gt;Node3 -->
<g id="edge2" class="edge">
<title>Node2&#45;&gt;Node3</title>
<path fill="none" stroke="midnightblue" d="M389.25,-1131.7C398.05,-1121.64 407.99,-1110.26 414.64,-1102.66"/>
<polygon fill="midnightblue" stroke="midnightblue" points="386.47,-1129.57 382.53,-1139.4 391.74,-1134.17 386.47,-1129.57"/>
</g>
<!-- Node2&#45;&gt;Node31 -->
<g id="edge53" class="edge">
<title>Node2&#45;&gt;Node31</title>
<path fill="none" stroke="midnightblue" d="M427.69,-1136.57C465.47,-1125.44 513.29,-1111.35 543.32,-1102.51"/>
<polygon fill="midnightblue" stroke="midnightblue" points="426.42,-1133.29 417.82,-1139.47 428.4,-1140.01 426.42,-1133.29"/>
</g>
<!-- Node32 -->
<g id="node32" class="node">
<title>Node32</title>
<g id="a_node32"><a xlink:href="utilities_8h.html" target="_top" xlink:title=" ">
<polygon fill="white" stroke="black" points="244.7,-725.5 244.7,-744.5 345.7,-744.5 345.7,-725.5 244.7,-725.5"/>
<text text-anchor="middle" x="295.2" y="-732.5" font-family="Helvetica,sans-Serif" font-size="10.00">include/utilities.h</text>
</a>
</g>
</g>
<!-- Node2&#45;&gt;Node32 -->
<g id="edge57" class="edge">
<title>Node2&#45;&gt;Node32</title>
<path fill="none" stroke="midnightblue" d="M347.93,-1131.52C330.65,-1108.12 310.2,-1069.45 310.2,-1032.5 310.2,-1032.5 310.2,-1032.5 310.2,-857 310.2,-814.17 295.55,-764.41 293.44,-744.69"/>
<polygon fill="midnightblue" stroke="midnightblue" points="345.2,-1133.7 354.12,-1139.41 350.71,-1129.38 345.2,-1133.7"/>
</g>
<!-- Node36 -->
<g id="node36" class="node">
<title>Node36</title>
<g id="a_node36"><a xlink:href="dense__tensor_8cpp.html" target="_top" xlink:title=" ">
<polygon fill="white" stroke="black" points="133.7,-1083.5 133.7,-1102.5 282.7,-1102.5 282.7,-1083.5 133.7,-1083.5"/>
<text text-anchor="middle" x="208.2" y="-1090.5" font-family="Helvetica,sans-Serif" font-size="10.00">src/Types/dense_tensor.cpp</text>
</a>
</g>
</g>
<!-- Node2&#45;&gt;Node36 -->
<g id="edge67" class="edge">
<title>Node2&#45;&gt;Node36</title>
<path fill="none" stroke="midnightblue" d="M322.4,-1135.94C292.55,-1124.98 255.43,-1111.35 231.77,-1102.66"/>
<polygon fill="midnightblue" stroke="midnightblue" points="321.22,-1139.24 331.81,-1139.4 323.63,-1132.67 321.22,-1139.24"/>
</g>
<!-- Node4 -->
<g id="node4" class="node">
<title>Node4</title>
<g id="a_node4"><a xlink:href="graph_8h.html" target="_top" xlink:title=" ">
<polygon fill="white" stroke="black" points="525.2,-960.5 525.2,-979.5 661.2,-979.5 661.2,-960.5 525.2,-960.5"/>
<text text-anchor="middle" x="593.2" y="-967.5" font-family="Helvetica,sans-Serif" font-size="10.00">include/Network/graph.h</text>
</a>
</g>
</g>
<!-- Node3&#45;&gt;Node4 -->
<g id="edge3" class="edge">
<title>Node3&#45;&gt;Node4</title>
<path fill="none" stroke="midnightblue" d="M421.93,-1073.02C422.72,-1055.93 426.6,-1031.24 441.2,-1016 462.91,-993.35 495.42,-981.94 524.82,-976.27"/>
<polygon fill="midnightblue" stroke="midnightblue" points="418.42,-1073.37 421.78,-1083.42 425.42,-1073.47 418.42,-1073.37"/>
</g>
<!-- Node30 -->
<g id="node30" class="node">
<title>Node30</title>
<g id="a_node30"><a xlink:href="node__traits_8h.html" target="_top" xlink:title=" ">
<polygon fill="white" stroke="black" points="450.7,-1016.5 450.7,-1046.5 573.7,-1046.5 573.7,-1016.5 450.7,-1016.5"/>
<text text-anchor="start" x="458.7" y="-1034.5" font-family="Helvetica,sans-Serif" font-size="10.00">include/Network/node</text>
<text text-anchor="middle" x="512.2" y="-1023.5" font-family="Helvetica,sans-Serif" font-size="10.00">_traits.h</text>
</a>
</g>
</g>
<!-- Node3&#45;&gt;Node30 -->
<g id="edge51" class="edge">
<title>Node3&#45;&gt;Node30</title>
<path fill="none" stroke="midnightblue" d="M443.77,-1077.74C458.08,-1068.28 476.76,-1055.93 490.99,-1046.52"/>
<polygon fill="midnightblue" stroke="midnightblue" points="441.51,-1075.04 435.1,-1083.48 445.37,-1080.88 441.51,-1075.04"/>
</g>
<!-- Node5 -->
<g id="node5" class="node">
<title>Node5</title>
<g id="a_node5"><a xlink:href="graph__traits_8h.html" target="_top" xlink:title=" ">
<polygon fill="white" stroke="black" points="685.7,-781.5 685.7,-811.5 812.7,-811.5 812.7,-781.5 685.7,-781.5"/>
<text text-anchor="start" x="693.7" y="-799.5" font-family="Helvetica,sans-Serif" font-size="10.00">include/Network/graph</text>
<text text-anchor="middle" x="749.2" y="-788.5" font-family="Helvetica,sans-Serif" font-size="10.00">_traits.h</text>
</a>
</g>
</g>
<!-- Node4&#45;&gt;Node5 -->
<g id="edge4" class="edge">
<title>Node4&#45;&gt;Node5</title>
<path fill="none" stroke="midnightblue" d="M627.82,-956.43C644.81,-948.97 664.69,-938.17 679.2,-924 713.32,-890.67 735.35,-837.13 744.45,-811.74"/>
<polygon fill="midnightblue" stroke="midnightblue" points="626.1,-953.35 618.22,-960.43 628.79,-959.82 626.1,-953.35"/>
</g>
<!-- Node27 -->
<g id="node27" class="node">
<title>Node27</title>
<g id="a_node27"><a xlink:href="mwgraph_8h.html" target="_top" xlink:title=" ">
<polygon fill="white" stroke="black" points="516.2,-904.5 516.2,-923.5 670.2,-923.5 670.2,-904.5 516.2,-904.5"/>
<text text-anchor="middle" x="593.2" y="-911.5" font-family="Helvetica,sans-Serif" font-size="10.00">include/Network/mwgraph.h</text>
</a>
</g>
</g>
<!-- Node4&#45;&gt;Node27 -->
<g id="edge42" class="edge">
<title>Node4&#45;&gt;Node27</title>
<path fill="none" stroke="midnightblue" d="M593.2,-949.8C593.2,-940.91 593.2,-930.78 593.2,-923.75"/>
<polygon fill="midnightblue" stroke="midnightblue" points="589.7,-950.08 593.2,-960.08 596.7,-950.08 589.7,-950.08"/>
</g>
<!-- Node6 -->
<g id="node6" class="node">
<title>Node6</title>
<g id="a_node6"><a xlink:href="butcher_8h.html" target="_top" xlink:title=" ">
<polygon fill="white" stroke="black" points="709.2,-268.5 709.2,-287.5 849.2,-287.5 849.2,-268.5 709.2,-268.5"/>
<text text-anchor="middle" x="779.2" y="-275.5" font-family="Helvetica,sans-Serif" font-size="10.00">include/Butcher/butcher.h</text>
</a>
</g>
</g>
<!-- Node5&#45;&gt;Node6 -->
<g id="edge5" class="edge">
<title>Node5&#45;&gt;Node6</title>
<path fill="none" stroke="midnightblue" d="M823.06,-792.88C862.07,-787.69 907.98,-774.96 938.2,-745 963.09,-720.33 959.2,-704.04 959.2,-669 959.2,-669 959.2,-669 959.2,-416.5 959.2,-342.96 863.16,-303.49 811.38,-287.56"/>
<polygon fill="midnightblue" stroke="midnightblue" points="822.3,-789.45 812.78,-794.1 823.13,-796.4 822.3,-789.45"/>
</g>
<!-- Node7 -->
<g id="node7" class="node">
<title>Node7</title>
<g id="a_node7"><a xlink:href="onnx__importer__helpers_8h.html" target="_top" xlink:title=" ">
<polygon fill="white" stroke="black" points="708.7,-196 708.7,-226 849.7,-226 849.7,-196 708.7,-196"/>
<text text-anchor="start" x="716.7" y="-214" font-family="Helvetica,sans-Serif" font-size="10.00">include/IO_Interaction</text>
<text text-anchor="middle" x="779.2" y="-203" font-family="Helvetica,sans-Serif" font-size="10.00">/onnx_importer_helpers.h</text>
</a>
</g>
</g>
<!-- Node5&#45;&gt;Node7 -->
<g id="edge23" class="edge">
<title>Node5&#45;&gt;Node7</title>
<path fill="none" stroke="midnightblue" d="M823.23,-786.44C934.82,-770.68 1133.2,-733.58 1133.2,-669 1133.2,-669 1133.2,-669 1133.2,-338.5 1133.2,-307.25 935.11,-251.97 835.29,-226.09"/>
<polygon fill="midnightblue" stroke="midnightblue" points="822.47,-783.01 813.04,-787.85 823.43,-789.94 822.47,-783.01"/>
</g>
<!-- Node12 -->
<g id="node12" class="node">
<title>Node12</title>
<g id="a_node12"><a xlink:href="network__butcher_8h.html" target="_top" xlink:title=" ">
<polygon fill="white" stroke="black" points="274.7,-56.5 274.7,-75.5 419.7,-75.5 419.7,-56.5 274.7,-56.5"/>
<text text-anchor="middle" x="347.2" y="-63.5" font-family="Helvetica,sans-Serif" font-size="10.00">include/network_butcher.h</text>
</a>
</g>
</g>
<!-- Node5&#45;&gt;Node12 -->
<g id="edge36" class="edge">
<title>Node5&#45;&gt;Node12</title>
<path fill="none" stroke="midnightblue" d="M675.57,-783.04C533.3,-758.65 233.11,-705.54 217.2,-689 160.58,-630.12 188.2,-589.19 188.2,-507.5 188.2,-507.5 188.2,-507.5 188.2,-210 188.2,-138.16 279.04,-93.22 323.4,-75.56"/>
<polygon fill="midnightblue" stroke="midnightblue" points="675.09,-786.51 685.54,-784.75 676.27,-779.61 675.09,-786.51"/>
</g>
<!-- Node15 -->
<g id="node15" class="node">
<title>Node15</title>
<g id="a_node15"><a xlink:href="onnx__model__reconstructor__helpers_8h.html" target="_top" xlink:title=" ">
<polygon fill="white" stroke="black" points="870.7,-190.5 870.7,-231.5 1019.7,-231.5 1019.7,-190.5 870.7,-190.5"/>
<text text-anchor="start" x="878.7" y="-219.5" font-family="Helvetica,sans-Serif" font-size="10.00">include/IO_Interaction</text>
<text text-anchor="start" x="878.7" y="-208.5" font-family="Helvetica,sans-Serif" font-size="10.00">/onnx_model_reconstructor</text>
<text text-anchor="middle" x="945.2" y="-197.5" font-family="Helvetica,sans-Serif" font-size="10.00">_helpers.h</text>
</a>
</g>
</g>
<!-- Node5&#45;&gt;Node15 -->
<g id="edge24" class="edge">
<title>Node5&#45;&gt;Node15</title>
<path fill="none" stroke="midnightblue" d="M822.91,-792.73C888.12,-788.18 984.82,-776.25 1063.2,-745 1117.72,-723.27 1171.2,-727.69 1171.2,-669 1171.2,-669 1171.2,-669 1171.2,-338.5 1171.2,-267.68 1085.66,-236.12 1019.83,-222.32"/>
<polygon fill="midnightblue" stroke="midnightblue" points="822.47,-789.25 812.72,-793.4 822.93,-796.24 822.47,-789.25"/>
</g>
<!-- Node17 -->
<g id="node17" class="node">
<title>Node17</title>
<g id="a_node17"><a xlink:href="graph__constraint_8h.html" target="_top" xlink:title=" ">
<polygon fill="white" stroke="black" points="731.7,-575 731.7,-605 854.7,-605 854.7,-575 731.7,-575"/>
<text text-anchor="start" x="739.7" y="-593" font-family="Helvetica,sans-Serif" font-size="10.00">include/Butcher/graph</text>
<text text-anchor="middle" x="793.2" y="-582" font-family="Helvetica,sans-Serif" font-size="10.00">_constraint.h</text>
</a>
</g>
</g>
<!-- Node5&#45;&gt;Node17 -->
<g id="edge18" class="edge">
<title>Node5&#45;&gt;Node17</title>
<path fill="none" stroke="midnightblue" d="M754.35,-771.58C763.59,-728.62 782.72,-639.7 790.16,-605.15"/>
<polygon fill="midnightblue" stroke="midnightblue" points="750.91,-770.93 752.23,-781.44 757.75,-772.4 750.91,-770.93"/>
</g>
<!-- Node19 -->
<g id="node19" class="node">
<title>Node19</title>
<g id="a_node19"><a xlink:href="path__converter_8h.html" target="_top" xlink:title=" ">
<polygon fill="white" stroke="black" points="987.7,-324.5 987.7,-354.5 1104.7,-354.5 1104.7,-324.5 987.7,-324.5"/>
<text text-anchor="start" x="995.7" y="-342.5" font-family="Helvetica,sans-Serif" font-size="10.00">include/Butcher/path</text>
<text text-anchor="middle" x="1046.2" y="-331.5" font-family="Helvetica,sans-Serif" font-size="10.00">_converter.h</text>
</a>
</g>
</g>
<!-- Node5&#45;&gt;Node19 -->
<g id="edge21" class="edge">
<title>Node5&#45;&gt;Node19</title>
<path fill="none" stroke="midnightblue" d="M823.09,-791.99C903.64,-783.73 1021.2,-756.65 1021.2,-669 1021.2,-669 1021.2,-669 1021.2,-505.5 1021.2,-449 1035.71,-382.84 1042.62,-354.52"/>
<polygon fill="midnightblue" stroke="midnightblue" points="822.6,-788.52 812.97,-792.95 823.26,-795.49 822.6,-788.52"/>
</g>
<!-- Node20 -->
<g id="node20" class="node">
<title>Node20</title>
<g id="a_node20"><a xlink:href="weight__importer_8h.html" target="_top" xlink:title=" ">
<polygon fill="white" stroke="black" points="573.7,-647.5 573.7,-688.5 716.7,-688.5 716.7,-647.5 573.7,-647.5"/>
<text text-anchor="start" x="581.7" y="-676.5" font-family="Helvetica,sans-Serif" font-size="10.00">include/IO_Interaction</text>
<text text-anchor="start" x="581.7" y="-665.5" font-family="Helvetica,sans-Serif" font-size="10.00">/Weight_Importer_Helpers</text>
<text text-anchor="middle" x="645.2" y="-654.5" font-family="Helvetica,sans-Serif" font-size="10.00">/weight_importer.h</text>
</a>
</g>
</g>
<!-- Node5&#45;&gt;Node20 -->
<g id="edge25" class="edge">
<title>Node5&#45;&gt;Node20</title>
<path fill="none" stroke="midnightblue" d="M731.26,-773.68C711.65,-749.83 680.51,-711.95 661.56,-688.89"/>
<polygon fill="midnightblue" stroke="midnightblue" points="728.62,-775.98 737.68,-781.48 734.03,-771.53 728.62,-775.98"/>
</g>
<!-- Node26 -->
<g id="node26" class="node">
<title>Node26</title>
<g id="a_node26"><a xlink:href="parameters_8h.html" target="_top" xlink:title=" ">
<polygon fill="white" stroke="black" points="777.7,-725.5 777.7,-744.5 928.7,-744.5 928.7,-725.5 777.7,-725.5"/>
<text text-anchor="middle" x="853.2" y="-732.5" font-family="Helvetica,sans-Serif" font-size="10.00">include/Types/parameters.h</text>
</a>
</g>
</g>
<!-- Node5&#45;&gt;Node26 -->
<g id="edge37" class="edge">
<title>Node5&#45;&gt;Node26</title>
<path fill="none" stroke="midnightblue" d="M782.66,-776.36C801.3,-765.69 823.6,-752.93 838.07,-744.66"/>
<polygon fill="midnightblue" stroke="midnightblue" points="780.79,-773.4 773.85,-781.4 784.27,-779.47 780.79,-773.4"/>
</g>
<!-- Node6&#45;&gt;Node7 -->
<g id="edge6" class="edge">
<title>Node6&#45;&gt;Node7</title>
<path fill="none" stroke="midnightblue" d="M779.2,-257.91C779.2,-247.72 779.2,-235.4 779.2,-226.09"/>
<polygon fill="midnightblue" stroke="midnightblue" points="775.7,-258.23 779.2,-268.23 782.7,-258.23 775.7,-258.23"/>
</g>
<!-- Node6&#45;&gt;Node12 -->
<g id="edge17" class="edge">
<title>Node6&#45;&gt;Node12</title>
<path fill="none" stroke="midnightblue" d="M747.51,-264.76C694.42,-243.92 584.53,-199.38 495.2,-154 444.18,-128.08 386.44,-92.1 360.76,-75.73"/>
<polygon fill="midnightblue" stroke="midnightblue" points="746.46,-268.1 757.05,-268.48 749.01,-261.58 746.46,-268.1"/>
</g>
<!-- Node6&#45;&gt;Node15 -->
<g id="edge14" class="edge">
<title>Node6&#45;&gt;Node15</title>
<path fill="none" stroke="midnightblue" d="M810.83,-264.62C834.62,-255.3 867.7,-242.35 895.08,-231.63"/>
<polygon fill="midnightblue" stroke="midnightblue" points="809.28,-261.46 801.25,-268.37 811.83,-267.98 809.28,-261.46"/>
</g>
<!-- Node8 -->
<g id="node8" class="node">
<title>Node8</title>
<g id="a_node8"><a xlink:href="io__manager_8h.html" target="_top" xlink:title=" ">
<polygon fill="white" stroke="black" points="504.7,-123.5 504.7,-142.5 625.7,-142.5 625.7,-123.5 504.7,-123.5"/>
<text text-anchor="middle" x="565.2" y="-130.5" font-family="Helvetica,sans-Serif" font-size="10.00">include/io_manager.h</text>
</a>
</g>
</g>
<!-- Node7&#45;&gt;Node8 -->
<g id="edge7" class="edge">
<title>Node7&#45;&gt;Node8</title>
<path fill="none" stroke="midnightblue" d="M730.04,-192.54C685.95,-176.88 623.14,-154.58 589.19,-142.52"/>
<polygon fill="midnightblue" stroke="midnightblue" points="729.11,-195.92 739.7,-195.97 731.45,-189.33 729.11,-195.92"/>
</g>
<!-- Node14 -->
<g id="node14" class="node">
<title>Node14</title>
<g id="a_node14"><a xlink:href="onnx__importer__helpers_8cpp.html" target="_top" xlink:title=" ">
<polygon fill="white" stroke="black" points="702.2,-118 702.2,-148 854.2,-148 854.2,-118 702.2,-118"/>
<text text-anchor="start" x="710.2" y="-136" font-family="Helvetica,sans-Serif" font-size="10.00">src/IO_Interaction</text>
<text text-anchor="middle" x="778.2" y="-125" font-family="Helvetica,sans-Serif" font-size="10.00">/onnx_importer_helpers.cpp</text>
</a>
</g>
</g>
<!-- Node7&#45;&gt;Node14 -->
<g id="edge13" class="edge">
<title>Node7&#45;&gt;Node14</title>
<path fill="none" stroke="midnightblue" d="M778.88,-185.59C778.72,-173.26 778.53,-158.72 778.39,-148.23"/>
<polygon fill="midnightblue" stroke="midnightblue" points="775.38,-185.75 779.01,-195.7 782.38,-185.66 775.38,-185.75"/>
</g>
<!-- Node9 -->
<g id="node9" class="node">
<title>Node9</title>
<g id="a_node9"><a xlink:href="general__manager_8h.html" target="_top" xlink:title=" ">
<polygon fill="white" stroke="black" points="595.7,-56.5 595.7,-75.5 744.7,-75.5 744.7,-56.5 595.7,-56.5"/>
<text text-anchor="middle" x="670.2" y="-63.5" font-family="Helvetica,sans-Serif" font-size="10.00">include/general_manager.h</text>
</a>
</g>
</g>
<!-- Node8&#45;&gt;Node9 -->
<g id="edge8" class="edge">
<title>Node8&#45;&gt;Node9</title>
<path fill="none" stroke="midnightblue" d="M587.91,-117.94C608.71,-105.07 638.82,-86.43 656.27,-75.63"/>
<polygon fill="midnightblue" stroke="midnightblue" points="586.02,-114.99 579.36,-123.23 589.71,-120.95 586.02,-114.99"/>
</g>
<!-- Node8&#45;&gt;Node12 -->
<g id="edge11" class="edge">
<title>Node8&#45;&gt;Node12</title>
<path fill="none" stroke="midnightblue" d="M526.67,-120.51C483.52,-107.65 414.6,-87.09 375.92,-75.56"/>
<polygon fill="midnightblue" stroke="midnightblue" points="525.67,-123.87 536.25,-123.37 527.67,-117.16 525.67,-123.87"/>
</g>
<!-- Node13 -->
<g id="node13" class="node">
<title>Node13</title>
<g id="a_node13"><a xlink:href="io__manager_8cpp.html" target="_top" xlink:title=" ">
<polygon fill="white" stroke="black" points="466.7,-56.5 466.7,-75.5 577.7,-75.5 577.7,-56.5 466.7,-56.5"/>
<text text-anchor="middle" x="522.2" y="-63.5" font-family="Helvetica,sans-Serif" font-size="10.00">src/io_manager.cpp</text>
</a>
</g>
</g>
<!-- Node8&#45;&gt;Node13 -->
<g id="edge12" class="edge">
<title>Node8&#45;&gt;Node13</title>
<path fill="none" stroke="midnightblue" d="M553.65,-114.53C545.32,-101.95 534.45,-85.51 527.91,-75.63"/>
<polygon fill="midnightblue" stroke="midnightblue" points="550.97,-116.82 559.4,-123.23 556.81,-112.96 550.97,-116.82"/>
</g>
<!-- Node10 -->
<g id="node10" class="node">
<title>Node10</title>
<g id="a_node10"><a xlink:href="general__manager_8cpp.html" target="_top" xlink:title=" ">
<polygon fill="white" stroke="black" points="536.7,-0.5 536.7,-19.5 675.7,-19.5 675.7,-0.5 536.7,-0.5"/>
<text text-anchor="middle" x="606.2" y="-7.5" font-family="Helvetica,sans-Serif" font-size="10.00">src/general_manager.cpp</text>
</a>
</g>
</g>
<!-- Node9&#45;&gt;Node10 -->
<g id="edge9" class="edge">
<title>Node9&#45;&gt;Node10</title>
<path fill="none" stroke="midnightblue" d="M652.21,-49.82C640.74,-40.15 626.29,-27.95 616.67,-19.83"/>
<polygon fill="midnightblue" stroke="midnightblue" points="650.02,-52.55 659.92,-56.32 654.53,-47.2 650.02,-52.55"/>
</g>
<!-- Node11 -->
<g id="node11" class="node">
<title>Node11</title>
<g id="a_node11"><a xlink:href="main_8cpp.html" target="_top" xlink:title=" ">
<polygon fill="white" stroke="black" points="693.7,-0.5 693.7,-19.5 772.7,-19.5 772.7,-0.5 693.7,-0.5"/>
<text text-anchor="middle" x="733.2" y="-7.5" font-family="Helvetica,sans-Serif" font-size="10.00">src/main.cpp</text>
</a>
</g>
</g>
<!-- Node9&#45;&gt;Node11 -->
<g id="edge10" class="edge">
<title>Node9&#45;&gt;Node11</title>
<path fill="none" stroke="midnightblue" d="M688.24,-49.54C699.48,-39.91 713.52,-27.87 722.9,-19.83"/>
<polygon fill="midnightblue" stroke="midnightblue" points="685.64,-47.16 680.32,-56.32 690.19,-52.47 685.64,-47.16"/>
</g>
<!-- Node15&#45;&gt;Node8 -->
<g id="edge15" class="edge">
<title>Node15&#45;&gt;Node8</title>
<path fill="none" stroke="midnightblue" d="M860.61,-190.3C860.14,-190.2 859.67,-190.1 859.2,-190 772.78,-171.73 671.49,-153.03 613.19,-142.53"/>
<polygon fill="midnightblue" stroke="midnightblue" points="860.15,-193.78 870.66,-192.47 861.63,-186.94 860.15,-193.78"/>
</g>
<!-- Node16 -->
<g id="node16" class="node">
<title>Node16</title>
<g id="a_node16"><a xlink:href="onnx__model__reconstructor__helpers_8cpp.html" target="_top" xlink:title=" ">
<polygon fill="white" stroke="black" points="872.7,-112.5 872.7,-153.5 1021.7,-153.5 1021.7,-112.5 872.7,-112.5"/>
<text text-anchor="start" x="880.7" y="-141.5" font-family="Helvetica,sans-Serif" font-size="10.00">src/IO_Interaction</text>
<text text-anchor="start" x="880.7" y="-130.5" font-family="Helvetica,sans-Serif" font-size="10.00">/onnx_model_reconstructor</text>
<text text-anchor="middle" x="947.2" y="-119.5" font-family="Helvetica,sans-Serif" font-size="10.00">_helpers.cpp</text>
</a>
</g>
</g>
<!-- Node15&#45;&gt;Node16 -->
<g id="edge16" class="edge">
<title>Node15&#45;&gt;Node16</title>
<path fill="none" stroke="midnightblue" d="M945.98,-180.3C946.22,-171.3 946.47,-161.65 946.69,-153.51"/>
<polygon fill="midnightblue" stroke="midnightblue" points="942.48,-180.34 945.72,-190.43 949.48,-180.52 942.48,-180.34"/>
</g>
<!-- Node18 -->
<g id="node18" class="node">
<title>Node18</title>
<g id="a_node18"><a xlink:href="constrained__block__graph__builder_8h.html" target="_top" xlink:title=" ">
<polygon fill="white" stroke="black" points="703.2,-324.5 703.2,-354.5 855.2,-354.5 855.2,-324.5 703.2,-324.5"/>
<text text-anchor="start" x="711.2" y="-342.5" font-family="Helvetica,sans-Serif" font-size="10.00">include/Butcher/constrained</text>
<text text-anchor="middle" x="779.2" y="-331.5" font-family="Helvetica,sans-Serif" font-size="10.00">_block_graph_builder.h</text>
</a>
</g>
</g>
<!-- Node17&#45;&gt;Node18 -->
<g id="edge19" class="edge">
<title>Node17&#45;&gt;Node18</title>
<path fill="none" stroke="midnightblue" d="M800.04,-565.01C802.51,-555.18 804.98,-543.63 806.2,-533 813.85,-466.28 793.29,-386.97 783.76,-354.96"/>
<polygon fill="midnightblue" stroke="midnightblue" points="796.6,-564.32 797.42,-574.89 803.37,-566.12 796.6,-564.32"/>
</g>
<!-- Node18&#45;&gt;Node6 -->
<g id="edge20" class="edge">
<title>Node18&#45;&gt;Node6</title>
<path fill="none" stroke="midnightblue" d="M779.2,-314.29C779.2,-304.86 779.2,-294.65 779.2,-287.66"/>
<polygon fill="midnightblue" stroke="midnightblue" points="775.7,-314.4 779.2,-324.4 782.7,-314.4 775.7,-314.4"/>
</g>
<!-- Node19&#45;&gt;Node6 -->
<g id="edge22" class="edge">
<title>Node19&#45;&gt;Node6</title>
<path fill="none" stroke="midnightblue" d="M977.66,-323.23C926.75,-311.88 859.18,-296.82 817.47,-287.53"/>
<polygon fill="midnightblue" stroke="midnightblue" points="977.09,-326.68 987.61,-325.44 978.61,-319.85 977.09,-326.68"/>
</g>
<!-- Node21 -->
<g id="node21" class="node">
<title>Node21</title>
<g id="a_node21"><a xlink:href="block__aMLLibrary__weight__importer_8h.html" target="_top" xlink:title=" ">
<polygon fill="white" stroke="black" points="474.7,-480.5 474.7,-532.5 617.7,-532.5 617.7,-480.5 474.7,-480.5"/>
<text text-anchor="start" x="482.7" y="-520.5" font-family="Helvetica,sans-Serif" font-size="10.00">include/IO_Interaction</text>
<text text-anchor="start" x="482.7" y="-509.5" font-family="Helvetica,sans-Serif" font-size="10.00">/Weight_Importer_Helpers</text>
<text text-anchor="start" x="482.7" y="-498.5" font-family="Helvetica,sans-Serif" font-size="10.00">/block_aMLLibrary_weight</text>
<text text-anchor="middle" x="546.2" y="-487.5" font-family="Helvetica,sans-Serif" font-size="10.00">_importer.h</text>
</a>
</g>
</g>
<!-- Node20&#45;&gt;Node21 -->
<g id="edge26" class="edge">
<title>Node20&#45;&gt;Node21</title>
<path fill="none" stroke="midnightblue" d="M592.91,-641.9C580.72,-633.68 569.04,-623.4 561.2,-611 546.37,-587.51 543.91,-555.13 544.33,-532.88"/>
<polygon fill="midnightblue" stroke="midnightblue" points="591.06,-644.87 601.39,-647.26 594.8,-638.95 591.06,-644.87"/>
</g>
<!-- Node24 -->
<g id="node24" class="node">
<title>Node24</title>
<g id="a_node24"><a xlink:href="csv__weight__importer_8h.html" target="_top" xlink:title=" ">
<polygon fill="white" stroke="black" points="570.7,-569.5 570.7,-610.5 713.7,-610.5 713.7,-569.5 570.7,-569.5"/>
<text text-anchor="start" x="578.7" y="-598.5" font-family="Helvetica,sans-Serif" font-size="10.00">include/IO_Interaction</text>
<text text-anchor="start" x="578.7" y="-587.5" font-family="Helvetica,sans-Serif" font-size="10.00">/Weight_Importer_Helpers</text>
<text text-anchor="middle" x="642.2" y="-576.5" font-family="Helvetica,sans-Serif" font-size="10.00">/csv_weight_importer.h</text>
</a>
</g>
</g>
<!-- Node20&#45;&gt;Node24 -->
<g id="edge32" class="edge">
<title>Node20&#45;&gt;Node24</title>
<path fill="none" stroke="midnightblue" d="M644.03,-637.3C643.67,-628.3 643.29,-618.65 642.97,-610.51"/>
<polygon fill="midnightblue" stroke="midnightblue" points="640.54,-637.57 644.43,-647.43 647.53,-637.3 640.54,-637.57"/>
</g>
<!-- Node22 -->
<g id="node22" class="node">
<title>Node22</title>
<g id="a_node22"><a xlink:href="weight__importers_8h.html" target="_top" xlink:title=" ">
<polygon fill="white" stroke="black" points="635.7,-402.5 635.7,-432.5 758.7,-432.5 758.7,-402.5 635.7,-402.5"/>
<text text-anchor="start" x="643.7" y="-420.5" font-family="Helvetica,sans-Serif" font-size="10.00">include/IO_Interaction</text>
<text text-anchor="middle" x="697.2" y="-409.5" font-family="Helvetica,sans-Serif" font-size="10.00">/weight_importers.h</text>
</a>
</g>
</g>
<!-- Node21&#45;&gt;Node22 -->
<g id="edge27" class="edge">
<title>Node21&#45;&gt;Node22</title>
<path fill="none" stroke="midnightblue" d="M598.62,-475.3C623.85,-460.76 652.89,-444.03 672.88,-432.52"/>
<polygon fill="midnightblue" stroke="midnightblue" points="596.8,-472.31 589.88,-480.34 600.29,-478.38 596.8,-472.31"/>
</g>
<!-- Node23 -->
<g id="node23" class="node">
<title>Node23</title>
<g id="a_node23"><a xlink:href="block__aMLLibrary__weight__importer_8cpp.html" target="_top" xlink:title=" ">
<polygon fill="white" stroke="black" points="474.7,-391.5 474.7,-443.5 617.7,-443.5 617.7,-391.5 474.7,-391.5"/>
<text text-anchor="start" x="482.7" y="-431.5" font-family="Helvetica,sans-Serif" font-size="10.00">src/IO_Interaction</text>
<text text-anchor="start" x="482.7" y="-420.5" font-family="Helvetica,sans-Serif" font-size="10.00">/Weight_Importer_Helpers</text>
<text text-anchor="start" x="482.7" y="-409.5" font-family="Helvetica,sans-Serif" font-size="10.00">/block_aMLLibrary_weight</text>
<text text-anchor="middle" x="546.2" y="-398.5" font-family="Helvetica,sans-Serif" font-size="10.00">_importer.cpp</text>
</a>
</g>
</g>
<!-- Node21&#45;&gt;Node23 -->
<g id="edge31" class="edge">
<title>Node21&#45;&gt;Node23</title>
<path fill="none" stroke="midnightblue" d="M546.2,-470.19C546.2,-461.28 546.2,-451.9 546.2,-443.61"/>
<polygon fill="midnightblue" stroke="midnightblue" points="542.7,-470.34 546.2,-480.34 549.7,-470.34 542.7,-470.34"/>
</g>
<!-- Node22&#45;&gt;Node6 -->
<g id="edge29" class="edge">
<title>Node22&#45;&gt;Node6</title>
<path fill="none" stroke="midnightblue" d="M689.69,-392.69C684.94,-372.87 681.77,-344.65 694.2,-324 705.31,-305.55 726.81,-294.26 745.4,-287.61"/>
<polygon fill="midnightblue" stroke="midnightblue" points="686.35,-393.73 692.33,-402.47 693.11,-391.9 686.35,-393.73"/>
</g>
<!-- Node22&#45;&gt;Node8 -->
<g id="edge30" class="edge">
<title>Node22&#45;&gt;Node8</title>
<path fill="none" stroke="midnightblue" d="M686.33,-393.24C658.77,-334.24 587.05,-180.75 569.25,-142.65"/>
<polygon fill="midnightblue" stroke="midnightblue" points="683.25,-394.91 690.66,-402.49 689.59,-391.95 683.25,-394.91"/>
</g>
<!-- Node22&#45;&gt;Node18 -->
<g id="edge28" class="edge">
<title>Node22&#45;&gt;Node18</title>
<path fill="none" stroke="midnightblue" d="M719.97,-395.39C733.96,-382.43 751.5,-366.18 763.85,-354.73"/>
<polygon fill="midnightblue" stroke="midnightblue" points="717.58,-392.84 712.63,-402.2 722.34,-397.97 717.58,-392.84"/>
</g>
<!-- Node24&#45;&gt;Node21 -->
<g id="edge33" class="edge">
<title>Node24&#45;&gt;Node21</title>
<path fill="none" stroke="midnightblue" d="M611.02,-562.52C599.7,-552.92 586.95,-542.09 575.78,-532.61"/>
<polygon fill="midnightblue" stroke="midnightblue" points="609.08,-565.47 618.96,-569.27 613.61,-560.13 609.08,-565.47"/>
</g>
<!-- Node24&#45;&gt;Node22 -->
<g id="edge34" class="edge">
<title>Node24&#45;&gt;Node22</title>
<path fill="none" stroke="midnightblue" d="M723.64,-566.67C752.48,-556.99 779.88,-545.11 788.2,-533 801.55,-513.59 799.25,-500.8 788.2,-480 776.57,-458.11 753.29,-442.59 733.19,-432.62"/>
<polygon fill="midnightblue" stroke="midnightblue" points="722.25,-563.45 713.82,-569.87 724.42,-570.1 722.25,-563.45"/>
</g>
<!-- Node25 -->
<g id="node25" class="node">
<title>Node25</title>
<g id="a_node25"><a xlink:href="csv__weight__importer_8cpp.html" target="_top" xlink:title=" ">
<polygon fill="white" stroke="black" points="635.7,-486 635.7,-527 778.7,-527 778.7,-486 635.7,-486"/>
<text text-anchor="start" x="643.7" y="-515" font-family="Helvetica,sans-Serif" font-size="10.00">src/IO_Interaction</text>
<text text-anchor="start" x="643.7" y="-504" font-family="Helvetica,sans-Serif" font-size="10.00">/Weight_Importer_Helpers</text>
<text text-anchor="middle" x="707.2" y="-493" font-family="Helvetica,sans-Serif" font-size="10.00">/csv_weight_importer.cpp</text>
</a>
</g>
</g>
<!-- Node24&#45;&gt;Node25 -->
<g id="edge35" class="edge">
<title>Node24&#45;&gt;Node25</title>
<path fill="none" stroke="midnightblue" d="M664.23,-561.38C673.22,-550.11 683.41,-537.33 691.61,-527.05"/>
<polygon fill="midnightblue" stroke="midnightblue" points="661.44,-559.27 657.94,-569.27 666.91,-563.64 661.44,-559.27"/>
</g>
<!-- Node26&#45;&gt;Node6 -->
<g id="edge38" class="edge">
<title>Node26&#45;&gt;Node6</title>
<path fill="none" stroke="midnightblue" d="M859.54,-715.83C868.34,-688.91 883.2,-636.7 883.2,-591 883.2,-591 883.2,-591 883.2,-416.5 883.2,-374.53 889.38,-357.58 864.2,-324 850.68,-305.96 827.78,-294.44 809.16,-287.57"/>
<polygon fill="midnightblue" stroke="midnightblue" points="856.18,-714.83 856.3,-725.43 862.81,-717.07 856.18,-714.83"/>
</g>
<!-- Node26&#45;&gt;Node7 -->
<g id="edge40" class="edge">
<title>Node26&#45;&gt;Node7</title>
<path fill="none" stroke="midnightblue" d="M867.1,-717.43C886.99,-691.97 921.2,-640.92 921.2,-591 921.2,-591 921.2,-591 921.2,-338.5 921.2,-282.21 858.21,-244.79 816.14,-226.07"/>
<polygon fill="midnightblue" stroke="midnightblue" points="864.29,-715.34 860.74,-725.33 869.74,-719.73 864.29,-715.34"/>
</g>
<!-- Node26&#45;&gt;Node17 -->
<g id="edge39" class="edge">
<title>Node26&#45;&gt;Node17</title>
<path fill="none" stroke="midnightblue" d="M845.6,-715.89C833.53,-687.12 810.23,-631.58 799.23,-605.36"/>
<polygon fill="midnightblue" stroke="midnightblue" points="842.53,-717.62 849.63,-725.48 848.99,-714.91 842.53,-717.62"/>
</g>
<!-- Node26&#45;&gt;Node20 -->
<g id="edge41" class="edge">
<title>Node26&#45;&gt;Node20</title>
<path fill="none" stroke="midnightblue" d="M815.94,-722.36C785.98,-712.99 743.23,-699.63 708,-688.63"/>
<polygon fill="midnightblue" stroke="midnightblue" points="814.99,-725.73 825.58,-725.37 817.08,-719.05 814.99,-725.73"/>
</g>
<!-- Node27&#45;&gt;Node5 -->
<g id="edge43" class="edge">
<title>Node27&#45;&gt;Node5</title>
<path fill="none" stroke="midnightblue" d="M613.24,-898.24C625.15,-889.46 640.55,-878.1 654.2,-868 680.62,-848.45 711.12,-825.8 730.29,-811.56"/>
<polygon fill="midnightblue" stroke="midnightblue" points="610.88,-895.63 604.9,-904.38 615.03,-901.27 610.88,-895.63"/>
</g>
<!-- Node28 -->
<g id="node28" class="node">
<title>Node28</title>
<g id="a_node28"><a xlink:href="wgraph_8h.html" target="_top" xlink:title=" ">
<polygon fill="white" stroke="black" points="501.2,-848.5 501.2,-867.5 645.2,-867.5 645.2,-848.5 501.2,-848.5"/>
<text text-anchor="middle" x="573.2" y="-855.5" font-family="Helvetica,sans-Serif" font-size="10.00">include/Network/wgraph.h</text>
</a>
</g>
</g>
<!-- Node27&#45;&gt;Node28 -->
<g id="edge44" class="edge">
<title>Node27&#45;&gt;Node28</title>
<path fill="none" stroke="midnightblue" d="M586.42,-894.69C583.05,-885.59 579.13,-875.01 576.44,-867.75"/>
<polygon fill="midnightblue" stroke="midnightblue" points="583.14,-895.92 589.9,-904.08 589.71,-893.49 583.14,-895.92"/>
</g>
<!-- Node28&#45;&gt;Node5 -->
<g id="edge50" class="edge">
<title>Node28&#45;&gt;Node5</title>
<path fill="none" stroke="midnightblue" d="M608.02,-845.23C636.68,-835.54 677.38,-821.78 707.72,-811.52"/>
<polygon fill="midnightblue" stroke="midnightblue" points="606.77,-841.96 598.42,-848.48 609.01,-848.59 606.77,-841.96"/>
</g>
<!-- Node29 -->
<g id="node29" class="node">
<title>Node29</title>
<g id="a_node29"><a xlink:href="computer__memory_8h.html" target="_top" xlink:title=" ">
<polygon fill="white" stroke="black" points="389.2,-653 389.2,-683 541.2,-683 541.2,-653 389.2,-653"/>
<text text-anchor="start" x="397.2" y="-671" font-family="Helvetica,sans-Serif" font-size="10.00">include/Computer/computer</text>
<text text-anchor="middle" x="465.2" y="-660" font-family="Helvetica,sans-Serif" font-size="10.00">_memory.h</text>
</a>
</g>
</g>
<!-- Node28&#45;&gt;Node29 -->
<g id="edge45" class="edge">
<title>Node28&#45;&gt;Node29</title>
<path fill="none" stroke="midnightblue" d="M563.06,-839.34C541.77,-802.28 492.79,-717.03 473.36,-683.2"/>
<polygon fill="midnightblue" stroke="midnightblue" points="560.27,-841.51 568.28,-848.43 566.33,-838.02 560.27,-841.51"/>
</g>
<!-- Node29&#45;&gt;Node6 -->
<g id="edge46" class="edge">
<title>Node29&#45;&gt;Node6</title>
<path fill="none" stroke="midnightblue" d="M456.87,-643.12C440.53,-591.66 410.44,-468.67 465.2,-391 520.15,-313.07 634.42,-289.06 708.9,-281.84"/>
<polygon fill="midnightblue" stroke="midnightblue" points="453.57,-644.29 460.02,-652.7 460.22,-642.11 453.57,-644.29"/>
</g>
<!-- Node29&#45;&gt;Node12 -->
<g id="edge49" class="edge">
<title>Node29&#45;&gt;Node12</title>
<path fill="none" stroke="midnightblue" d="M451.27,-643.91C445.72,-634.02 439.62,-622.2 435.2,-611 379.23,-468.98 347.2,-431.65 347.2,-279 347.2,-279 347.2,-279 347.2,-210 347.2,-159.11 347.2,-98.02 347.2,-75.71"/>
<polygon fill="midnightblue" stroke="midnightblue" points="448.31,-645.8 456.34,-652.71 454.38,-642.3 448.31,-645.8"/>
</g>
<!-- Node29&#45;&gt;Node17 -->
<g id="edge47" class="edge">
<title>Node29&#45;&gt;Node17</title>
<path fill="none" stroke="midnightblue" d="M542.07,-650.89C605.2,-637.55 689.5,-619.46 723.2,-611 730.44,-609.18 738.05,-607.14 745.49,-605.08"/>
<polygon fill="midnightblue" stroke="midnightblue" points="541.19,-647.5 532.13,-652.99 542.64,-654.34 541.19,-647.5"/>
</g>
<!-- Node29&#45;&gt;Node21 -->
<g id="edge48" class="edge">
<title>Node29&#45;&gt;Node21</title>
<path fill="none" stroke="midnightblue" d="M477.04,-643.69C492.07,-614.1 517.89,-563.26 533.37,-532.77"/>
<polygon fill="midnightblue" stroke="midnightblue" points="473.8,-642.34 472.39,-652.85 480.04,-645.51 473.8,-642.34"/>
</g>
<!-- Node30&#45;&gt;Node4 -->
<g id="edge52" class="edge">
<title>Node30&#45;&gt;Node4</title>
<path fill="none" stroke="midnightblue" d="M539.85,-1010.19C554.03,-999.77 570.56,-987.63 581.42,-979.66"/>
<polygon fill="midnightblue" stroke="midnightblue" points="537.39,-1007.66 531.4,-1016.4 541.53,-1013.3 537.39,-1007.66"/>
</g>
<!-- Node31&#45;&gt;Node4 -->
<g id="edge54" class="edge">
<title>Node31&#45;&gt;Node4</title>
<path fill="none" stroke="midnightblue" d="M576.63,-1073.54C578.49,-1065.42 580.6,-1055.77 582.2,-1047 586.62,-1022.87 590.37,-994.17 592.13,-979.93"/>
<polygon fill="midnightblue" stroke="midnightblue" points="573.19,-1072.88 574.31,-1083.41 580.01,-1074.48 573.19,-1072.88"/>
</g>
<!-- Node31&#45;&gt;Node5 -->
<g id="edge55" class="edge">
<title>Node31&#45;&gt;Node5</title>
<path fill="none" stroke="midnightblue" d="M621.74,-1080.77C674.1,-1065.62 749.2,-1033.07 749.2,-971 749.2,-971 749.2,-971 749.2,-913 749.2,-876.51 749.2,-833.52 749.2,-811.72"/>
<polygon fill="midnightblue" stroke="midnightblue" points="620.63,-1077.44 611.92,-1083.48 622.5,-1084.19 620.63,-1077.44"/>
</g>
<!-- Node31&#45;&gt;Node30 -->
<g id="edge56" class="edge">
<title>Node31&#45;&gt;Node30</title>
<path fill="none" stroke="midnightblue" d="M556.44,-1076.37C547.11,-1067.11 535.38,-1055.48 526.34,-1046.52"/>
<polygon fill="midnightblue" stroke="midnightblue" points="554.04,-1078.92 563.61,-1083.48 558.97,-1073.95 554.04,-1078.92"/>
</g>
<!-- Node32&#45;&gt;Node2 -->
<g id="edge65" class="edge">
<title>Node32&#45;&gt;Node2</title>
<path fill="none" stroke="midnightblue" d="M307.15,-753.73C317.09,-777.12 328.2,-819.69 328.2,-857 328.2,-1032.5 328.2,-1032.5 328.2,-1032.5 328.2,-1073.99 353.98,-1117.64 365.65,-1139.41"/>
<polygon fill="midnightblue" stroke="midnightblue" points="310.31,-752.22 302.85,-744.69 303.98,-755.22 310.31,-752.22"/>
</g>
<!-- Node32&#45;&gt;Node6 -->
<g id="edge58" class="edge">
<title>Node32&#45;&gt;Node6</title>
<path fill="none" stroke="midnightblue" d="M258.73,-721.41C243.47,-714.28 227.03,-703.76 217.2,-689 187.54,-644.46 184.67,-617.54 207.2,-569 278.25,-415.96 343.82,-394.32 497.2,-324 564.8,-293.01 650,-282.89 708.97,-279.82"/>
<polygon fill="midnightblue" stroke="midnightblue" points="257.44,-724.67 268,-725.43 260.22,-718.24 257.44,-724.67"/>
</g>
<!-- Node32&#45;&gt;Node12 -->
<g id="edge64" class="edge">
<title>Node32&#45;&gt;Node12</title>
<path fill="none" stroke="midnightblue" d="M234.45,-731.87C163.37,-728.07 51.62,-717.6 22.2,-689 -9.61,-658.07 3.2,-635.37 3.2,-591 3.2,-591 3.2,-591 3.2,-210 3.2,-145.65 211.07,-94.93 303.63,-75.54"/>
<polygon fill="midnightblue" stroke="midnightblue" points="234.46,-735.38 244.63,-732.38 234.81,-728.38 234.46,-735.38"/>
</g>
<!-- Node32&#45;&gt;Node29 -->
<g id="edge59" class="edge">
<title>Node32&#45;&gt;Node29</title>
<path fill="none" stroke="midnightblue" d="M327.37,-721.7C356.17,-710.69 398.4,-694.54 428.51,-683.03"/>
<polygon fill="midnightblue" stroke="midnightblue" points="325.87,-718.53 317.78,-725.37 328.37,-725.07 325.87,-718.53"/>
</g>
<!-- Node33 -->
<g id="node33" class="node">
<title>Node33</title>
<g id="a_node33"><a xlink:href="weight__importer__utils_8h.html" target="_top" xlink:title=" ">
<polygon fill="white" stroke="black" points="226.7,-647.5 226.7,-688.5 369.7,-688.5 369.7,-647.5 226.7,-647.5"/>
<text text-anchor="start" x="234.7" y="-676.5" font-family="Helvetica,sans-Serif" font-size="10.00">include/IO_Interaction</text>
<text text-anchor="start" x="234.7" y="-665.5" font-family="Helvetica,sans-Serif" font-size="10.00">/Weight_Importer_Helpers</text>
<text text-anchor="middle" x="298.2" y="-654.5" font-family="Helvetica,sans-Serif" font-size="10.00">/weight_importer_utils.h</text>
</a>
</g>
</g>
<!-- Node32&#45;&gt;Node33 -->
<g id="edge60" class="edge">
<title>Node32&#45;&gt;Node33</title>
<path fill="none" stroke="midnightblue" d="M296.08,-715.04C296.46,-706.71 296.91,-696.94 297.3,-688.54"/>
<polygon fill="midnightblue" stroke="midnightblue" points="292.57,-715.08 295.61,-725.23 299.56,-715.41 292.57,-715.08"/>
</g>
<!-- Node35 -->
<g id="node35" class="node">
<title>Node35</title>
<g id="a_node35"><a xlink:href="utilities_8cpp.html" target="_top" xlink:title=" ">
<polygon fill="white" stroke="black" points="31.7,-658.5 31.7,-677.5 122.7,-677.5 122.7,-658.5 31.7,-658.5"/>
<text text-anchor="middle" x="77.2" y="-665.5" font-family="Helvetica,sans-Serif" font-size="10.00">src/utilities.cpp</text>
</a>
</g>
</g>
<!-- Node32&#45;&gt;Node35 -->
<g id="edge66" class="edge">
<title>Node32&#45;&gt;Node35</title>
<path fill="none" stroke="midnightblue" d="M253.72,-722.73C221.77,-713.91 176.55,-701.15 137.2,-689 125.56,-685.4 112.73,-681.16 101.94,-677.52"/>
<polygon fill="midnightblue" stroke="midnightblue" points="253.03,-726.17 263.6,-725.44 254.89,-719.42 253.03,-726.17"/>
</g>
<!-- Node33&#45;&gt;Node21 -->
<g id="edge61" class="edge">
<title>Node33&#45;&gt;Node21</title>
<path fill="none" stroke="midnightblue" d="M337.18,-641.93C383.54,-612.12 460.48,-562.63 506.96,-532.74"/>
<polygon fill="midnightblue" stroke="midnightblue" points="335.13,-639.09 328.61,-647.44 338.92,-644.98 335.13,-639.09"/>
</g>
<!-- Node33&#45;&gt;Node24 -->
<g id="edge62" class="edge">
<title>Node33&#45;&gt;Node24</title>
<path fill="none" stroke="midnightblue" d="M379.56,-647.15C379.77,-647.1 379.99,-647.05 380.2,-647 444.48,-632.3 517.9,-616.71 570.63,-605.72"/>
<polygon fill="midnightblue" stroke="midnightblue" points="378.68,-643.76 369.73,-649.43 380.26,-650.58 378.68,-643.76"/>
</g>
<!-- Node34 -->
<g id="node34" class="node">
<title>Node34</title>
<g id="a_node34"><a xlink:href="weight__importer__utils_8cpp.html" target="_top" xlink:title=" ">
<polygon fill="white" stroke="black" points="216.2,-569.5 216.2,-610.5 362.2,-610.5 362.2,-569.5 216.2,-569.5"/>
<text text-anchor="start" x="224.2" y="-598.5" font-family="Helvetica,sans-Serif" font-size="10.00">src/IO_Interaction</text>
<text text-anchor="start" x="224.2" y="-587.5" font-family="Helvetica,sans-Serif" font-size="10.00">/Weight_Importer_Helpers</text>
<text text-anchor="middle" x="289.2" y="-576.5" font-family="Helvetica,sans-Serif" font-size="10.00">/weight_importer_utils.cpp</text>
</a>
</g>
</g>
<!-- Node33&#45;&gt;Node34 -->
<g id="edge63" class="edge">
<title>Node33&#45;&gt;Node34</title>
<path fill="none" stroke="midnightblue" d="M294.69,-637.3C293.62,-628.3 292.48,-618.65 291.51,-610.51"/>
<polygon fill="midnightblue" stroke="midnightblue" points="291.23,-637.91 295.88,-647.43 298.18,-637.09 291.23,-637.91"/>
</g>
</g>
</svg>
        <g id="navigator" transform="translate(0 0)" fill="#404254">
                <rect fill="#f2f5e9" fill-opacity="0.5" stroke="#606060" stroke-width=".5" x="0" y="0" width="60" height="60"/>
                <use id="zoomplus" xlink:href="#zoomPlus" x="17" y="9" onmousedown="handleZoom(evt,'in')"/>
                <use id="zoomminus" xlink:href="#zoomMin" x="42" y="9" onmousedown="handleZoom(evt,'out')"/>
                <use id="reset" xlink:href="#resetDef" x="30" y="36" onmousedown="handleReset()"/>
                <g id="arrowUp" xlink:href="#dirArrow" transform="translate(30 24)" onmousedown="handlePan(0,-1)">
                  <use xlink:href="#rim" fill="#404040">
                        <set attributeName="fill" to="#808080" begin="arrowUp.mouseover" end="arrowUp.mouseout"/>
                  </use>
                  <path fill="none" stroke="white" stroke-width="1.5" d="M0,-3.0v7 M-2.5,-0.5L0,-3.0L2.5,-0.5"/>
                </g>
                <g id="arrowRight" xlink:href="#dirArrow" transform="rotate(90) translate(36 -43)" onmousedown="handlePan(1,0)">
                  <use xlink:href="#rim" fill="#404040">
                        <set attributeName="fill" to="#808080" begin="arrowRight.mouseover" end="arrowRight.mouseout"/>
                  </use>
                  <path fill="none" stroke="white" stroke-width="1.5" d="M0,-3.0v7 M-2.5,-0.5L0,-3.0L2.5,-0.5"/>
                </g>
                <g id="arrowDown" xlink:href="#dirArrow" transform="rotate(180) translate(-30 -48)" onmousedown="handlePan(0,1)">
                  <use xlink:href="#rim" fill="#404040">
                        <set attributeName="fill" to="#808080" begin="arrowDown.mouseover" end="arrowDown.mouseout"/>
                  </use>
                  <path fill="none" stroke="white" stroke-width="1.5" d="M0,-3.0v7 M-2.5,-0.5L0,-3.0L2.5,-0.5"/>
                </g>
                <g id="arrowLeft" xlink:href="#dirArrow" transform="rotate(270) translate(-36 17)" onmousedown="handlePan(-1,0)">
                  <use xlink:href="#rim" fill="#404040">
                        <set attributeName="fill" to="#808080" begin="arrowLeft.mouseover" end="arrowLeft.mouseout"/>
                  </use>
                  <path fill="none" stroke="white" stroke-width="1.5" d="M0,-3.0v7 M-2.5,-0.5L0,-3.0L2.5,-0.5"/>
                </g>
        </g>
        <svg viewBox="0 0 15 15" width="100%" height="30px" preserveAspectRatio="xMaxYMin meet">
         <g id="arrow_out" transform="scale(0.3 0.3)">
          <a xlink:href="variant__attribute_8h__dep__incl_org.svg" target="_base">
           <rect id="button" ry="5" rx="5" y="6" x="6" height="38" width="38"
                fill="#f2f5e9" fill-opacity="0.5" stroke="#606060" stroke-width="1.0"/>
           <path id="arrow"
             d="M 11.500037,31.436501 C 11.940474,20.09759 22.043105,11.32322 32.158766,21.979434 L 37.068811,17.246167 C 37.068811,17.246167 37.088388,32 37.088388,32 L 22.160133,31.978069 C 22.160133,31.978069 26.997745,27.140456 26.997745,27.140456 C 18.528582,18.264221 13.291696,25.230495 11.500037,31.436501 z"
             style="fill:#404040;"/>
          </a>
         </g>
        </svg>
</svg>
