<?xml version="1.0" encoding="UTF-8" standalone="no"?>
<!DOCTYPE svg PUBLIC "-//W3C//DTD SVG 1.1//EN"
 "http://www.w3.org/Graphics/SVG/1.1/DTD/svg11.dtd">
<!-- Generated by graphviz version 2.43.0 (0)
 -->
<!-- Title: include/network_butcher/Types/variant_attribute.h Pages: 1 -->
<svg width="1180pt" height="1366pt"
 viewBox="0.00 0.00 1179.75 1366.00" xmlns="http://www.w3.org/2000/svg" xmlns:xlink="http://www.w3.org/1999/xlink">
<g id="graph0" class="graph" transform="scale(1 1) rotate(0) translate(4 1362)">
<title>include/network_butcher/Types/variant_attribute.h</title>
<polygon fill="white" stroke="transparent" points="-4,4 -4,-1362 1175.75,-1362 1175.75,4 -4,4"/>
<!-- Node1 -->
<g id="node1" class="node">
<title>Node1</title>
<g id="a_node1"><a xlink:title=" ">
<polygon fill="#bfbfbf" stroke="black" points="510.25,-1327.5 510.25,-1357.5 651.25,-1357.5 651.25,-1327.5 510.25,-1327.5"/>
<text text-anchor="start" x="518.25" y="-1345.5" font-family="Helvetica,sans-Serif" font-size="10.00">include/network_butcher</text>
<text text-anchor="middle" x="580.75" y="-1334.5" font-family="Helvetica,sans-Serif" font-size="10.00">/Types/variant_attribute.h</text>
</a>
</g>
</g>
<!-- Node2 -->
<g id="node2" class="node">
<title>Node2</title>
<g id="a_node2"><a xlink:href="content_8h.html" target="_top" xlink:title=" ">
<polygon fill="white" stroke="black" points="706.25,-1193.5 706.25,-1223.5 843.25,-1223.5 843.25,-1193.5 706.25,-1193.5"/>
<text text-anchor="start" x="714.25" y="-1211.5" font-family="Helvetica,sans-Serif" font-size="10.00">include/network_butcher</text>
<text text-anchor="middle" x="774.75" y="-1200.5" font-family="Helvetica,sans-Serif" font-size="10.00">/Types/content.h</text>
</a>
</g>
</g>
<!-- Node1&#45;&gt;Node2 -->
<g id="edge1" class="edge">
<title>Node1&#45;&gt;Node2</title>
<path fill="none" stroke="midnightblue" d="M609.96,-1321.62C649.62,-1294.64 719.52,-1247.08 754.14,-1223.52"/>
<polygon fill="midnightblue" stroke="midnightblue" points="607.81,-1318.85 601.51,-1327.37 611.75,-1324.64 607.81,-1318.85"/>
</g>
<!-- Node29 -->
<g id="node29" class="node">
<title>Node29</title>
<g id="a_node29"><a xlink:href="dense__tensor_8h.html" target="_top" xlink:title=" ">
<polygon fill="white" stroke="black" points="464.25,-1260.5 464.25,-1290.5 601.25,-1290.5 601.25,-1260.5 464.25,-1260.5"/>
<text text-anchor="start" x="472.25" y="-1278.5" font-family="Helvetica,sans-Serif" font-size="10.00">include/network_butcher</text>
<text text-anchor="middle" x="532.75" y="-1267.5" font-family="Helvetica,sans-Serif" font-size="10.00">/Types/dense_tensor.h</text>
</a>
</g>
</g>
<!-- Node1&#45;&gt;Node29 -->
<g id="edge54" class="edge">
<title>Node1&#45;&gt;Node29</title>
<path fill="none" stroke="midnightblue" d="M564.25,-1319.16C557.25,-1309.68 549.3,-1298.92 543.14,-1290.58"/>
<polygon fill="midnightblue" stroke="midnightblue" points="561.58,-1321.43 570.33,-1327.4 567.21,-1317.27 561.58,-1321.43"/>
</g>
<!-- Node3 -->
<g id="node3" class="node">
<title>Node3</title>
<g id="a_node3"><a xlink:href="graph__traits_8h.html" target="_top" xlink:title=" ">
<polygon fill="white" stroke="black" points="808.25,-858.5 808.25,-888.5 945.25,-888.5 945.25,-858.5 808.25,-858.5"/>
<text text-anchor="start" x="816.25" y="-876.5" font-family="Helvetica,sans-Serif" font-size="10.00">include/network_butcher</text>
<text text-anchor="middle" x="876.75" y="-865.5" font-family="Helvetica,sans-Serif" font-size="10.00">/Network/graph_traits.h</text>
</a>
</g>
</g>
<!-- Node2&#45;&gt;Node3 -->
<g id="edge2" class="edge">
<title>Node2&#45;&gt;Node3</title>
<path fill="none" stroke="midnightblue" d="M804.51,-1187.24C834.62,-1164.08 876.75,-1123.15 876.75,-1075.5 876.75,-1075.5 876.75,-1075.5 876.75,-1006.5 876.75,-963.65 876.75,-912.97 876.75,-888.76"/>
<polygon fill="midnightblue" stroke="midnightblue" points="802.31,-1184.51 796.38,-1193.29 806.49,-1190.12 802.31,-1184.51"/>
</g>
<!-- Node24 -->
<g id="node24" class="node">
<title>Node24</title>
<g id="a_node24"><a xlink:href="graph_8h.html" target="_top" xlink:title=" ">
<polygon fill="white" stroke="black" points="654.25,-1059.5 654.25,-1089.5 791.25,-1089.5 791.25,-1059.5 654.25,-1059.5"/>
<text text-anchor="start" x="662.25" y="-1077.5" font-family="Helvetica,sans-Serif" font-size="10.00">include/network_butcher</text>
<text text-anchor="middle" x="722.75" y="-1066.5" font-family="Helvetica,sans-Serif" font-size="10.00">/Network/graph.h</text>
</a>
</g>
</g>
<!-- Node2&#45;&gt;Node24 -->
<g id="edge41" class="edge">
<title>Node2&#45;&gt;Node24</title>
<path fill="none" stroke="midnightblue" d="M770.93,-1183.24C767.81,-1166.67 762.62,-1144.47 754.75,-1126 749.22,-1113.01 740.53,-1099.57 733.6,-1089.83"/>
<polygon fill="midnightblue" stroke="midnightblue" points="767.5,-1183.97 772.68,-1193.21 774.4,-1182.76 767.5,-1183.97"/>
</g>
<!-- Node28 -->
<g id="node28" class="node">
<title>Node28</title>
<g id="a_node28"><a xlink:href="node__traits_8h.html" target="_top" xlink:title=" ">
<polygon fill="white" stroke="black" points="609.25,-1126.5 609.25,-1156.5 746.25,-1156.5 746.25,-1126.5 609.25,-1126.5"/>
<text text-anchor="start" x="617.25" y="-1144.5" font-family="Helvetica,sans-Serif" font-size="10.00">include/network_butcher</text>
<text text-anchor="middle" x="677.75" y="-1133.5" font-family="Helvetica,sans-Serif" font-size="10.00">/Network/node_traits.h</text>
</a>
</g>
</g>
<!-- Node2&#45;&gt;Node28 -->
<g id="edge52" class="edge">
<title>Node2&#45;&gt;Node28</title>
<path fill="none" stroke="midnightblue" d="M745.25,-1187.73C730.24,-1177.68 712.35,-1165.68 698.76,-1156.58"/>
<polygon fill="midnightblue" stroke="midnightblue" points="743.45,-1190.74 753.7,-1193.4 747.34,-1184.92 743.45,-1190.74"/>
</g>
<!-- Node4 -->
<g id="node4" class="node">
<title>Node4</title>
<g id="a_node4"><a xlink:href="butcher_8h.html" target="_top" xlink:title=" ">
<polygon fill="white" stroke="black" points="605.25,-290.5 605.25,-320.5 742.25,-320.5 742.25,-290.5 605.25,-290.5"/>
<text text-anchor="start" x="613.25" y="-308.5" font-family="Helvetica,sans-Serif" font-size="10.00">include/network_butcher</text>
<text text-anchor="middle" x="673.75" y="-297.5" font-family="Helvetica,sans-Serif" font-size="10.00">/Butcher/butcher.h</text>
</a>
</g>
</g>
<!-- Node3&#45;&gt;Node4 -->
<g id="edge3" class="edge">
<title>Node3&#45;&gt;Node4</title>
<path fill="none" stroke="midnightblue" d="M821.53,-854.67C768.94,-833.81 697.75,-793.72 697.75,-729.5 697.75,-729.5 697.75,-729.5 697.75,-549.5 697.75,-462.17 682.21,-358.04 676.14,-320.69"/>
<polygon fill="midnightblue" stroke="midnightblue" points="820.53,-858.03 831.12,-858.34 823.03,-851.49 820.53,-858.03"/>
</g>
<!-- Node5 -->
<g id="node5" class="node">
<title>Node5</title>
<g id="a_node5"><a xlink:href="onnx__model__reconstructor__helpers_8h.html" target="_top" xlink:title=" ">
<polygon fill="white" stroke="black" points="892.25,-212.5 892.25,-253.5 1043.25,-253.5 1043.25,-212.5 892.25,-212.5"/>
<text text-anchor="start" x="900.25" y="-241.5" font-family="Helvetica,sans-Serif" font-size="10.00">include/network_butcher</text>
<text text-anchor="start" x="900.25" y="-230.5" font-family="Helvetica,sans-Serif" font-size="10.00">/IO_Interaction/onnx_model</text>
<text text-anchor="middle" x="967.75" y="-219.5" font-family="Helvetica,sans-Serif" font-size="10.00">_reconstructor_helpers.h</text>
</a>
</g>
</g>
<!-- Node3&#45;&gt;Node5 -->
<g id="edge22" class="edge">
<title>Node3&#45;&gt;Node5</title>
<path fill="none" stroke="midnightblue" d="M955.29,-862.27C1030.86,-847.5 1133.75,-812.21 1133.75,-729.5 1133.75,-729.5 1133.75,-729.5 1133.75,-377 1133.75,-316.14 1068.9,-275.49 1020.27,-253.57"/>
<polygon fill="midnightblue" stroke="midnightblue" points="954.47,-858.86 945.28,-864.14 955.75,-865.74 954.47,-858.86"/>
</g>
<!-- Node8 -->
<g id="node8" class="node">
<title>Node8</title>
<g id="a_node8"><a xlink:href="network__butcher_8h.html" target="_top" xlink:title=" ">
<polygon fill="white" stroke="black" points="484.25,-0.5 484.25,-30.5 621.25,-30.5 621.25,-0.5 484.25,-0.5"/>
<text text-anchor="start" x="492.25" y="-18.5" font-family="Helvetica,sans-Serif" font-size="10.00">include/network_butcher</text>
<text text-anchor="middle" x="552.75" y="-7.5" font-family="Helvetica,sans-Serif" font-size="10.00">/network_butcher.h</text>
</a>
</g>
</g>
<!-- Node3&#45;&gt;Node8 -->
<g id="edge35" class="edge">
<title>Node3&#45;&gt;Node8</title>
<path fill="none" stroke="midnightblue" d="M955.72,-867.52C1043.1,-857.22 1171.75,-825.72 1171.75,-729.5 1171.75,-729.5 1171.75,-729.5 1171.75,-154 1171.75,-98.13 782.52,-44.41 621.36,-24.56"/>
<polygon fill="midnightblue" stroke="midnightblue" points="955.1,-864.06 945.54,-868.64 955.87,-871.02 955.1,-864.06"/>
</g>
<!-- Node12 -->
<g id="node12" class="node">
<title>Node12</title>
<g id="a_node12"><a xlink:href="onnx__importer__helpers_8h.html" target="_top" xlink:title=" ">
<polygon fill="white" stroke="black" points="711.75,-212.5 711.75,-253.5 873.75,-253.5 873.75,-212.5 711.75,-212.5"/>
<text text-anchor="start" x="719.75" y="-241.5" font-family="Helvetica,sans-Serif" font-size="10.00">include/network_butcher</text>
<text text-anchor="start" x="719.75" y="-230.5" font-family="Helvetica,sans-Serif" font-size="10.00">/IO_Interaction/onnx_importer</text>
<text text-anchor="middle" x="792.75" y="-219.5" font-family="Helvetica,sans-Serif" font-size="10.00">_helpers.h</text>
</a>
</g>
</g>
<!-- Node3&#45;&gt;Node12 -->
<g id="edge23" class="edge">
<title>Node3&#45;&gt;Node12</title>
<path fill="none" stroke="midnightblue" d="M953.92,-855.62C1016.97,-836.75 1095.75,-799.22 1095.75,-729.5 1095.75,-729.5 1095.75,-729.5 1095.75,-377 1095.75,-312.56 1037.29,-319.03 979.75,-290 946.62,-273.29 907.62,-260.62 873.83,-251.61"/>
<polygon fill="midnightblue" stroke="midnightblue" points="952.59,-852.36 943.94,-858.49 954.52,-859.09 952.59,-852.36"/>
</g>
<!-- Node14 -->
<g id="node14" class="node">
<title>Node14</title>
<g id="a_node14"><a xlink:href="graph__constraint_8h.html" target="_top" xlink:title=" ">
<polygon fill="white" stroke="black" points="764.25,-624.5 764.25,-654.5 915.25,-654.5 915.25,-624.5 764.25,-624.5"/>
<text text-anchor="start" x="772.25" y="-642.5" font-family="Helvetica,sans-Serif" font-size="10.00">include/network_butcher</text>
<text text-anchor="middle" x="839.75" y="-631.5" font-family="Helvetica,sans-Serif" font-size="10.00">/Butcher/graph_constraint.h</text>
</a>
</g>
</g>
<!-- Node3&#45;&gt;Node14 -->
<g id="edge16" class="edge">
<title>Node3&#45;&gt;Node14</title>
<path fill="none" stroke="midnightblue" d="M899.32,-850.62C906.3,-842.38 913.11,-832.46 916.75,-822 921.28,-808.99 919.98,-804.39 916.75,-791 903.69,-736.79 867.6,-680.14 849.86,-654.54"/>
<polygon fill="midnightblue" stroke="midnightblue" points="896.52,-848.49 892.4,-858.25 901.71,-853.19 896.52,-848.49"/>
</g>
<!-- Node15 -->
<g id="node15" class="node">
<title>Node15</title>
<g id="a_node15"><a xlink:href="constrained__block__graph__builder_8h.html" target="_top" xlink:title=" ">
<polygon fill="white" stroke="black" points="720.25,-357.5 720.25,-398.5 869.25,-398.5 869.25,-357.5 720.25,-357.5"/>
<text text-anchor="start" x="728.25" y="-386.5" font-family="Helvetica,sans-Serif" font-size="10.00">include/network_butcher</text>
<text text-anchor="start" x="728.25" y="-375.5" font-family="Helvetica,sans-Serif" font-size="10.00">/Butcher/constrained_block</text>
<text text-anchor="middle" x="794.75" y="-364.5" font-family="Helvetica,sans-Serif" font-size="10.00">_graph_builder.h</text>
</a>
</g>
</g>
<!-- Node3&#45;&gt;Node15 -->
<g id="edge19" class="edge">
<title>Node3&#45;&gt;Node15</title>
<path fill="none" stroke="midnightblue" d="M904.94,-852.17C936.04,-827.15 981.75,-781.52 981.75,-729.5 981.75,-729.5 981.75,-729.5 981.75,-549.5 981.75,-474.81 899.29,-424.13 843.88,-398.51"/>
<polygon fill="midnightblue" stroke="midnightblue" points="902.72,-849.46 896.99,-858.38 907.03,-854.98 902.72,-849.46"/>
</g>
<!-- Node16 -->
<g id="node16" class="node">
<title>Node16</title>
<g id="a_node16"><a xlink:href="path__converter_8h.html" target="_top" xlink:title=" ">
<polygon fill="white" stroke="black" points="887.75,-363 887.75,-393 1029.75,-393 1029.75,-363 887.75,-363"/>
<text text-anchor="start" x="895.75" y="-381" font-family="Helvetica,sans-Serif" font-size="10.00">include/network_butcher</text>
<text text-anchor="middle" x="958.75" y="-370" font-family="Helvetica,sans-Serif" font-size="10.00">/Butcher/path_converter.h</text>
</a>
</g>
</g>
<!-- Node3&#45;&gt;Node16 -->
<g id="edge20" class="edge">
<title>Node3&#45;&gt;Node16</title>
<path fill="none" stroke="midnightblue" d="M917.12,-853.64C959.41,-830.76 1019.75,-787.89 1019.75,-729.5 1019.75,-729.5 1019.75,-729.5 1019.75,-549.5 1019.75,-488.51 984.72,-422.04 967.75,-393.43"/>
<polygon fill="midnightblue" stroke="midnightblue" points="915.36,-850.61 908.13,-858.35 918.61,-856.81 915.36,-850.61"/>
</g>
<!-- Node17 -->
<g id="node17" class="node">
<title>Node17</title>
<g id="a_node17"><a xlink:href="weight__importer_8h.html" target="_top" xlink:title=" ">
<polygon fill="white" stroke="black" points="526.25,-702.5 526.25,-754.5 669.25,-754.5 669.25,-702.5 526.25,-702.5"/>
<text text-anchor="start" x="534.25" y="-742.5" font-family="Helvetica,sans-Serif" font-size="10.00">include/network_butcher</text>
<text text-anchor="start" x="534.25" y="-731.5" font-family="Helvetica,sans-Serif" font-size="10.00">/IO_Interaction/Weight</text>
<text text-anchor="start" x="534.25" y="-720.5" font-family="Helvetica,sans-Serif" font-size="10.00">_Importer_Helpers/weight</text>
<text text-anchor="middle" x="597.75" y="-709.5" font-family="Helvetica,sans-Serif" font-size="10.00">_importer.h</text>
</a>
</g>
</g>
<!-- Node3&#45;&gt;Node17 -->
<g id="edge24" class="edge">
<title>Node3&#45;&gt;Node17</title>
<path fill="none" stroke="midnightblue" d="M797.74,-862.22C761.16,-854.94 718.26,-842.63 683.75,-822 655.33,-805.01 630.52,-775.88 614.94,-754.84"/>
<polygon fill="midnightblue" stroke="midnightblue" points="797.4,-865.72 807.88,-864.15 798.71,-858.84 797.4,-865.72"/>
</g>
<!-- Node23 -->
<g id="node23" class="node">
<title>Node23</title>
<g id="a_node23"><a xlink:href="parameters_8h.html" target="_top" xlink:title=" ">
<polygon fill="white" stroke="black" points="771.25,-791.5 771.25,-821.5 908.25,-821.5 908.25,-791.5 771.25,-791.5"/>
<text text-anchor="start" x="779.25" y="-809.5" font-family="Helvetica,sans-Serif" font-size="10.00">include/network_butcher</text>
<text text-anchor="middle" x="839.75" y="-798.5" font-family="Helvetica,sans-Serif" font-size="10.00">/Types/parameters.h</text>
</a>
</g>
</g>
<!-- Node3&#45;&gt;Node23 -->
<g id="edge36" class="edge">
<title>Node3&#45;&gt;Node23</title>
<path fill="none" stroke="midnightblue" d="M863.7,-849.58C858.39,-840.24 852.41,-829.75 847.76,-821.58"/>
<polygon fill="midnightblue" stroke="midnightblue" points="860.73,-851.44 868.72,-858.4 866.81,-847.97 860.73,-851.44"/>
</g>
<!-- Node4&#45;&gt;Node5 -->
<g id="edge4" class="edge">
<title>Node4&#45;&gt;Node5</title>
<path fill="none" stroke="midnightblue" d="M742.12,-288.1C787.03,-277.34 845.81,-263.24 892.11,-252.14"/>
<polygon fill="midnightblue" stroke="midnightblue" points="741.09,-284.75 732.19,-290.49 742.73,-291.56 741.09,-284.75"/>
</g>
<!-- Node4&#45;&gt;Node8 -->
<g id="edge15" class="edge">
<title>Node4&#45;&gt;Node8</title>
<path fill="none" stroke="midnightblue" d="M644.46,-284.35C614.67,-261.89 570.33,-222.55 551.75,-176 531.73,-125.85 542.79,-59.56 549.2,-30.81"/>
<polygon fill="midnightblue" stroke="midnightblue" points="642.69,-287.39 652.82,-290.5 646.83,-281.75 642.69,-287.39"/>
</g>
<!-- Node4&#45;&gt;Node12 -->
<g id="edge12" class="edge">
<title>Node4&#45;&gt;Node12</title>
<path fill="none" stroke="midnightblue" d="M706.32,-285.2C722.86,-275.41 742.91,-263.53 759.53,-253.68"/>
<polygon fill="midnightblue" stroke="midnightblue" points="704.36,-282.29 697.54,-290.4 707.93,-288.32 704.36,-282.29"/>
</g>
<!-- Node6 -->
<g id="node6" class="node">
<title>Node6</title>
<g id="a_node6"><a xlink:href="io__manager_8h.html" target="_top" xlink:title=" ">
<polygon fill="white" stroke="black" points="731.25,-140 731.25,-170 868.25,-170 868.25,-140 731.25,-140"/>
<text text-anchor="start" x="739.25" y="-158" font-family="Helvetica,sans-Serif" font-size="10.00">include/network_butcher</text>
<text text-anchor="middle" x="799.75" y="-147" font-family="Helvetica,sans-Serif" font-size="10.00">/io_manager.h</text>
</a>
</g>
</g>
<!-- Node5&#45;&gt;Node6 -->
<g id="edge5" class="edge">
<title>Node5&#45;&gt;Node6</title>
<path fill="none" stroke="midnightblue" d="M915.32,-208.28C887.63,-195.76 854.58,-180.81 830.93,-170.11"/>
<polygon fill="midnightblue" stroke="midnightblue" points="913.93,-211.5 924.48,-212.43 916.82,-205.12 913.93,-211.5"/>
</g>
<!-- Node11 -->
<g id="node11" class="node">
<title>Node11</title>
<g id="a_node11"><a xlink:href="onnx__model__reconstructor__helpers_8cpp.html" target="_top" xlink:title=" ">
<polygon fill="white" stroke="black" points="893.25,-134.5 893.25,-175.5 1042.25,-175.5 1042.25,-134.5 893.25,-134.5"/>
<text text-anchor="start" x="901.25" y="-163.5" font-family="Helvetica,sans-Serif" font-size="10.00">src/IO_Interaction</text>
<text text-anchor="start" x="901.25" y="-152.5" font-family="Helvetica,sans-Serif" font-size="10.00">/onnx_model_reconstructor</text>
<text text-anchor="middle" x="967.75" y="-141.5" font-family="Helvetica,sans-Serif" font-size="10.00">_helpers.cpp</text>
</a>
</g>
</g>
<!-- Node5&#45;&gt;Node11 -->
<g id="edge11" class="edge">
<title>Node5&#45;&gt;Node11</title>
<path fill="none" stroke="midnightblue" d="M967.75,-202.3C967.75,-193.3 967.75,-183.65 967.75,-175.51"/>
<polygon fill="midnightblue" stroke="midnightblue" points="964.25,-202.43 967.75,-212.43 971.25,-202.43 964.25,-202.43"/>
</g>
<!-- Node7 -->
<g id="node7" class="node">
<title>Node7</title>
<g id="a_node7"><a xlink:href="general__manager_8h.html" target="_top" xlink:title=" ">
<polygon fill="white" stroke="black" points="731.25,-67.5 731.25,-97.5 868.25,-97.5 868.25,-67.5 731.25,-67.5"/>
<text text-anchor="start" x="739.25" y="-85.5" font-family="Helvetica,sans-Serif" font-size="10.00">include/network_butcher</text>
<text text-anchor="middle" x="799.75" y="-74.5" font-family="Helvetica,sans-Serif" font-size="10.00">/general_manager.h</text>
</a>
</g>
</g>
<!-- Node6&#45;&gt;Node7 -->
<g id="edge6" class="edge">
<title>Node6&#45;&gt;Node7</title>
<path fill="none" stroke="midnightblue" d="M799.75,-129.73C799.75,-119.07 799.75,-106.91 799.75,-97.75"/>
<polygon fill="midnightblue" stroke="midnightblue" points="796.25,-129.73 799.75,-139.73 803.25,-129.73 796.25,-129.73"/>
</g>
<!-- Node6&#45;&gt;Node8 -->
<g id="edge9" class="edge">
<title>Node6&#45;&gt;Node8</title>
<path fill="none" stroke="midnightblue" d="M736.09,-137.44C676.33,-121.8 595.63,-100.38 592.75,-98 571.46,-80.46 560.59,-48.81 555.84,-30.55"/>
<polygon fill="midnightblue" stroke="midnightblue" points="735.3,-140.86 745.86,-140 737.07,-134.08 735.3,-140.86"/>
</g>
<!-- Node10 -->
<g id="node10" class="node">
<title>Node10</title>
<g id="a_node10"><a xlink:href="io__manager_8cpp.html" target="_top" xlink:title=" ">
<polygon fill="white" stroke="black" points="602.25,-73 602.25,-92 713.25,-92 713.25,-73 602.25,-73"/>
<text text-anchor="middle" x="657.75" y="-80" font-family="Helvetica,sans-Serif" font-size="10.00">src/io_manager.cpp</text>
</a>
</g>
</g>
<!-- Node6&#45;&gt;Node10 -->
<g id="edge10" class="edge">
<title>Node6&#45;&gt;Node10</title>
<path fill="none" stroke="midnightblue" d="M762.15,-135.33C733.87,-121.29 696.44,-102.71 674.94,-92.03"/>
<polygon fill="midnightblue" stroke="midnightblue" points="760.84,-138.59 771.35,-139.9 763.95,-132.32 760.84,-138.59"/>
</g>
<!-- Node7&#45;&gt;Node8 -->
<g id="edge7" class="edge">
<title>Node7&#45;&gt;Node8</title>
<path fill="none" stroke="midnightblue" d="M736.73,-64.92C696.43,-54.31 644.7,-40.7 606.37,-30.61"/>
<polygon fill="midnightblue" stroke="midnightblue" points="735.9,-68.32 746.46,-67.48 737.68,-61.55 735.9,-68.32"/>
</g>
<!-- Node9 -->
<g id="node9" class="node">
<title>Node9</title>
<g id="a_node9"><a xlink:href="general__manager_8cpp.html" target="_top" xlink:title=" ">
<polygon fill="white" stroke="black" points="730.25,-6 730.25,-25 869.25,-25 869.25,-6 730.25,-6"/>
<text text-anchor="middle" x="799.75" y="-13" font-family="Helvetica,sans-Serif" font-size="10.00">src/general_manager.cpp</text>
</a>
</g>
</g>
<!-- Node7&#45;&gt;Node9 -->
<g id="edge8" class="edge">
<title>Node7&#45;&gt;Node9</title>
<path fill="none" stroke="midnightblue" d="M799.75,-57.25C799.75,-46.02 799.75,-33.38 799.75,-25.19"/>
<polygon fill="midnightblue" stroke="midnightblue" points="796.25,-57.4 799.75,-67.4 803.25,-57.4 796.25,-57.4"/>
</g>
<!-- Node12&#45;&gt;Node6 -->
<g id="edge13" class="edge">
<title>Node12&#45;&gt;Node6</title>
<path fill="none" stroke="midnightblue" d="M795.49,-202.28C796.5,-191.25 797.61,-179.25 798.44,-170.23"/>
<polygon fill="midnightblue" stroke="midnightblue" points="791.98,-202.15 794.55,-212.43 798.95,-202.79 791.98,-202.15"/>
</g>
<!-- Node13 -->
<g id="node13" class="node">
<title>Node13</title>
<g id="a_node13"><a xlink:href="onnx__importer__helpers_8cpp.html" target="_top" xlink:title=" ">
<polygon fill="white" stroke="black" points="560.75,-140 560.75,-170 712.75,-170 712.75,-140 560.75,-140"/>
<text text-anchor="start" x="568.75" y="-158" font-family="Helvetica,sans-Serif" font-size="10.00">src/IO_Interaction</text>
<text text-anchor="middle" x="636.75" y="-147" font-family="Helvetica,sans-Serif" font-size="10.00">/onnx_importer_helpers.cpp</text>
</a>
</g>
</g>
<!-- Node12&#45;&gt;Node13 -->
<g id="edge14" class="edge">
<title>Node12&#45;&gt;Node13</title>
<path fill="none" stroke="midnightblue" d="M743.42,-207.97C717.94,-195.55 687.71,-180.83 665.95,-170.23"/>
<polygon fill="midnightblue" stroke="midnightblue" points="742.05,-211.19 752.57,-212.43 745.12,-204.9 742.05,-211.19"/>
</g>
<!-- Node14&#45;&gt;Node15 -->
<g id="edge17" class="edge">
<title>Node14&#45;&gt;Node15</title>
<path fill="none" stroke="midnightblue" d="M835.51,-614.04C826.64,-562.9 806.29,-445.53 798.18,-398.76"/>
<polygon fill="midnightblue" stroke="midnightblue" points="832.11,-614.92 837.27,-624.18 839.01,-613.73 832.11,-614.92"/>
</g>
<!-- Node15&#45;&gt;Node4 -->
<g id="edge18" class="edge">
<title>Node15&#45;&gt;Node4</title>
<path fill="none" stroke="midnightblue" d="M752.35,-352.3C734.18,-341.71 713.61,-329.72 698.07,-320.67"/>
<polygon fill="midnightblue" stroke="midnightblue" points="750.64,-355.35 761.04,-357.36 754.17,-349.3 750.64,-355.35"/>
</g>
<!-- Node16&#45;&gt;Node4 -->
<g id="edge21" class="edge">
<title>Node16&#45;&gt;Node4</title>
<path fill="none" stroke="midnightblue" d="M892.23,-360.55C843.26,-348.43 777.35,-332.13 730.78,-320.61"/>
<polygon fill="midnightblue" stroke="midnightblue" points="891.55,-363.98 902.1,-362.99 893.23,-357.19 891.55,-363.98"/>
</g>
<!-- Node18 -->
<g id="node18" class="node">
<title>Node18</title>
<g id="a_node18"><a xlink:href="block__aMLLibrary__weight__importer_8h.html" target="_top" xlink:title=" ">
<polygon fill="white" stroke="black" points="299.75,-524.5 299.75,-576.5 469.75,-576.5 469.75,-524.5 299.75,-524.5"/>
<text text-anchor="start" x="307.75" y="-564.5" font-family="Helvetica,sans-Serif" font-size="10.00">include/network_butcher</text>
<text text-anchor="start" x="307.75" y="-553.5" font-family="Helvetica,sans-Serif" font-size="10.00">/IO_Interaction/Weight</text>
<text text-anchor="start" x="307.75" y="-542.5" font-family="Helvetica,sans-Serif" font-size="10.00">_Importer_Helpers/block</text>
<text text-anchor="middle" x="384.75" y="-531.5" font-family="Helvetica,sans-Serif" font-size="10.00">_aMLLibrary_weight_importer.h</text>
</a>
</g>
</g>
<!-- Node17&#45;&gt;Node18 -->
<g id="edge25" class="edge">
<title>Node17&#45;&gt;Node18</title>
<path fill="none" stroke="midnightblue" d="M520.09,-698.08C502.2,-689.3 483.97,-678.6 468.75,-666 438.17,-640.69 412.83,-601.93 398.23,-576.65"/>
<polygon fill="midnightblue" stroke="midnightblue" points="518.87,-701.38 529.41,-702.5 521.87,-695.05 518.87,-701.38"/>
</g>
<!-- Node21 -->
<g id="node21" class="node">
<title>Node21</title>
<g id="a_node21"><a xlink:href="csv__weight__importer_8h.html" target="_top" xlink:title=" ">
<polygon fill="white" stroke="black" points="477.75,-613.5 477.75,-665.5 641.75,-665.5 641.75,-613.5 477.75,-613.5"/>
<text text-anchor="start" x="485.75" y="-653.5" font-family="Helvetica,sans-Serif" font-size="10.00">include/network_butcher</text>
<text text-anchor="start" x="485.75" y="-642.5" font-family="Helvetica,sans-Serif" font-size="10.00">/IO_Interaction/Weight</text>
<text text-anchor="start" x="485.75" y="-631.5" font-family="Helvetica,sans-Serif" font-size="10.00">_Importer_Helpers/csv_weight</text>
<text text-anchor="middle" x="559.75" y="-620.5" font-family="Helvetica,sans-Serif" font-size="10.00">_importer.h</text>
</a>
</g>
</g>
<!-- Node17&#45;&gt;Node21 -->
<g id="edge31" class="edge">
<title>Node17&#45;&gt;Node21</title>
<path fill="none" stroke="midnightblue" d="M582.71,-693.06C578.7,-683.9 574.45,-674.17 570.72,-665.61"/>
<polygon fill="midnightblue" stroke="midnightblue" points="579.55,-694.57 586.76,-702.34 585.96,-691.77 579.55,-694.57"/>
</g>
<!-- Node19 -->
<g id="node19" class="node">
<title>Node19</title>
<g id="a_node19"><a xlink:href="weight__importers_8h.html" target="_top" xlink:title=" ">
<polygon fill="white" stroke="black" points="532.25,-441 532.25,-482 669.25,-482 669.25,-441 532.25,-441"/>
<text text-anchor="start" x="540.25" y="-470" font-family="Helvetica,sans-Serif" font-size="10.00">include/network_butcher</text>
<text text-anchor="start" x="540.25" y="-459" font-family="Helvetica,sans-Serif" font-size="10.00">/IO_Interaction/weight</text>
<text text-anchor="middle" x="600.75" y="-448" font-family="Helvetica,sans-Serif" font-size="10.00">_importers.h</text>
</a>
</g>
</g>
<!-- Node18&#45;&gt;Node19 -->
<g id="edge26" class="edge">
<title>Node18&#45;&gt;Node19</title>
<path fill="none" stroke="midnightblue" d="M456.5,-520.6C487.86,-507.97 523.83,-493.48 552,-482.13"/>
<polygon fill="midnightblue" stroke="midnightblue" points="454.9,-517.47 446.94,-524.45 457.52,-523.96 454.9,-517.47"/>
</g>
<!-- Node20 -->
<g id="node20" class="node">
<title>Node20</title>
<g id="a_node20"><a xlink:href="block__aMLLibrary__weight__importer_8cpp.html" target="_top" xlink:title=" ">
<polygon fill="white" stroke="black" points="313.25,-435.5 313.25,-487.5 456.25,-487.5 456.25,-435.5 313.25,-435.5"/>
<text text-anchor="start" x="321.25" y="-475.5" font-family="Helvetica,sans-Serif" font-size="10.00">src/IO_Interaction</text>
<text text-anchor="start" x="321.25" y="-464.5" font-family="Helvetica,sans-Serif" font-size="10.00">/Weight_Importer_Helpers</text>
<text text-anchor="start" x="321.25" y="-453.5" font-family="Helvetica,sans-Serif" font-size="10.00">/block_aMLLibrary_weight</text>
<text text-anchor="middle" x="384.75" y="-442.5" font-family="Helvetica,sans-Serif" font-size="10.00">_importer.cpp</text>
</a>
</g>
</g>
<!-- Node18&#45;&gt;Node20 -->
<g id="edge30" class="edge">
<title>Node18&#45;&gt;Node20</title>
<path fill="none" stroke="midnightblue" d="M384.75,-514.19C384.75,-505.28 384.75,-495.9 384.75,-487.61"/>
<polygon fill="midnightblue" stroke="midnightblue" points="381.25,-514.34 384.75,-524.34 388.25,-514.34 381.25,-514.34"/>
</g>
<!-- Node19&#45;&gt;Node4 -->
<g id="edge27" class="edge">
<title>Node19&#45;&gt;Node4</title>
<path fill="none" stroke="midnightblue" d="M610.22,-431.21C617.49,-410.09 628.36,-381.16 640.75,-357 647.34,-344.14 656.42,-330.47 663.38,-320.6"/>
<polygon fill="midnightblue" stroke="midnightblue" points="606.83,-430.3 606.95,-440.9 613.46,-432.54 606.83,-430.3"/>
</g>
<!-- Node19&#45;&gt;Node6 -->
<g id="edge29" class="edge">
<title>Node19&#45;&gt;Node6</title>
<path fill="none" stroke="midnightblue" d="M591.74,-431.02C582.64,-395.48 572.9,-334.93 595.75,-290 628.02,-226.55 705.79,-188.67 755.44,-170.12"/>
<polygon fill="midnightblue" stroke="midnightblue" points="588.39,-432.04 594.38,-440.78 595.15,-430.21 588.39,-432.04"/>
</g>
<!-- Node19&#45;&gt;Node15 -->
<g id="edge28" class="edge">
<title>Node19&#45;&gt;Node15</title>
<path fill="none" stroke="midnightblue" d="M656.81,-436.95C685.83,-424.76 720.84,-410.05 748.32,-398.5"/>
<polygon fill="midnightblue" stroke="midnightblue" points="655.08,-433.88 647.22,-440.98 657.79,-440.33 655.08,-433.88"/>
</g>
<!-- Node21&#45;&gt;Node18 -->
<g id="edge32" class="edge">
<title>Node21&#45;&gt;Node18</title>
<path fill="none" stroke="midnightblue" d="M499.96,-608.78C478.91,-598.31 455.46,-586.66 435.25,-576.61"/>
<polygon fill="midnightblue" stroke="midnightblue" points="498.62,-612.02 509.13,-613.34 501.74,-605.75 498.62,-612.02"/>
</g>
<!-- Node21&#45;&gt;Node19 -->
<g id="edge33" class="edge">
<title>Node21&#45;&gt;Node19</title>
<path fill="none" stroke="midnightblue" d="M615.12,-606.87C625.07,-598.51 634.07,-588.53 639.75,-577 650.16,-555.87 646.32,-546.62 639.75,-524 635.31,-508.7 625.79,-493.56 617.27,-482.14"/>
<polygon fill="midnightblue" stroke="midnightblue" points="612.71,-604.31 606.99,-613.23 617.02,-609.83 612.71,-604.31"/>
</g>
<!-- Node22 -->
<g id="node22" class="node">
<title>Node22</title>
<g id="a_node22"><a xlink:href="csv__weight__importer_8cpp.html" target="_top" xlink:title=" ">
<polygon fill="white" stroke="black" points="488.25,-530 488.25,-571 631.25,-571 631.25,-530 488.25,-530"/>
<text text-anchor="start" x="496.25" y="-559" font-family="Helvetica,sans-Serif" font-size="10.00">src/IO_Interaction</text>
<text text-anchor="start" x="496.25" y="-548" font-family="Helvetica,sans-Serif" font-size="10.00">/Weight_Importer_Helpers</text>
<text text-anchor="middle" x="559.75" y="-537" font-family="Helvetica,sans-Serif" font-size="10.00">/csv_weight_importer.cpp</text>
</a>
</g>
</g>
<!-- Node21&#45;&gt;Node22 -->
<g id="edge34" class="edge">
<title>Node21&#45;&gt;Node22</title>
<path fill="none" stroke="midnightblue" d="M559.75,-603.16C559.75,-592.21 559.75,-580.55 559.75,-571.08"/>
<polygon fill="midnightblue" stroke="midnightblue" points="556.25,-603.34 559.75,-613.34 563.25,-603.34 556.25,-603.34"/>
</g>
<!-- Node23&#45;&gt;Node4 -->
<g id="edge37" class="edge">
<title>Node23&#45;&gt;Node4</title>
<path fill="none" stroke="midnightblue" d="M815.67,-784.73C784.95,-755.79 735.75,-700.12 735.75,-640.5 735.75,-640.5 735.75,-640.5 735.75,-549.5 735.75,-460.03 695.8,-357.62 680.03,-320.69"/>
<polygon fill="midnightblue" stroke="midnightblue" points="813.31,-787.31 823.04,-791.5 818.04,-782.16 813.31,-787.31"/>
</g>
<!-- Node23&#45;&gt;Node12 -->
<g id="edge39" class="edge">
<title>Node23&#45;&gt;Node12</title>
<path fill="none" stroke="midnightblue" d="M863.46,-784.22C934.32,-718 1133.83,-510.85 1038.75,-357 1017.1,-321.97 912.93,-278.3 847.28,-253.54"/>
<polygon fill="midnightblue" stroke="midnightblue" points="860.83,-781.88 855.86,-791.24 865.58,-787.02 860.83,-781.88"/>
</g>
<!-- Node23&#45;&gt;Node14 -->
<g id="edge38" class="edge">
<title>Node23&#45;&gt;Node14</title>
<path fill="none" stroke="midnightblue" d="M839.75,-781.14C839.75,-746.11 839.75,-682.63 839.75,-654.53"/>
<polygon fill="midnightblue" stroke="midnightblue" points="836.25,-781.43 839.75,-791.43 843.25,-781.43 836.25,-781.43"/>
</g>
<!-- Node23&#45;&gt;Node17 -->
<g id="edge40" class="edge">
<title>Node23&#45;&gt;Node17</title>
<path fill="none" stroke="midnightblue" d="M785.29,-788.4C751.14,-777.67 706.74,-763.73 669.72,-752.1"/>
<polygon fill="midnightblue" stroke="midnightblue" points="784.49,-791.81 795.08,-791.47 786.59,-785.14 784.49,-791.81"/>
</g>
<!-- Node24&#45;&gt;Node3 -->
<g id="edge42" class="edge">
<title>Node24&#45;&gt;Node3</title>
<path fill="none" stroke="midnightblue" d="M760.1,-1054.33C773.76,-1046.03 788.59,-1035.36 799.75,-1023 837.7,-980.97 862.51,-916.81 872.18,-888.62"/>
<polygon fill="midnightblue" stroke="midnightblue" points="758.21,-1051.37 751.34,-1059.43 761.74,-1057.42 758.21,-1051.37"/>
</g>
<!-- Node25 -->
<g id="node25" class="node">
<title>Node25</title>
<g id="a_node25"><a xlink:href="mwgraph_8h.html" target="_top" xlink:title=" ">
<polygon fill="white" stroke="black" points="654.25,-992.5 654.25,-1022.5 791.25,-1022.5 791.25,-992.5 654.25,-992.5"/>
<text text-anchor="start" x="662.25" y="-1010.5" font-family="Helvetica,sans-Serif" font-size="10.00">include/network_butcher</text>
<text text-anchor="middle" x="722.75" y="-999.5" font-family="Helvetica,sans-Serif" font-size="10.00">/Network/mwgraph.h</text>
</a>
</g>
</g>
<!-- Node24&#45;&gt;Node25 -->
<g id="edge43" class="edge">
<title>Node24&#45;&gt;Node25</title>
<path fill="none" stroke="midnightblue" d="M722.75,-1049.11C722.75,-1040.15 722.75,-1030.32 722.75,-1022.58"/>
<polygon fill="midnightblue" stroke="midnightblue" points="719.25,-1049.4 722.75,-1059.4 726.25,-1049.4 719.25,-1049.4"/>
</g>
<!-- Node25&#45;&gt;Node3 -->
<g id="edge44" class="edge">
<title>Node25&#45;&gt;Node3</title>
<path fill="none" stroke="midnightblue" d="M747.14,-985.59C778.82,-958.44 833.26,-911.78 860.39,-888.52"/>
<polygon fill="midnightblue" stroke="midnightblue" points="744.54,-983.21 739.23,-992.37 749.1,-988.52 744.54,-983.21"/>
</g>
<!-- Node26 -->
<g id="node26" class="node">
<title>Node26</title>
<g id="a_node26"><a xlink:href="wgraph_8h.html" target="_top" xlink:title=" ">
<polygon fill="white" stroke="black" points="635.25,-925.5 635.25,-955.5 772.25,-955.5 772.25,-925.5 635.25,-925.5"/>
<text text-anchor="start" x="643.25" y="-943.5" font-family="Helvetica,sans-Serif" font-size="10.00">include/network_butcher</text>
<text text-anchor="middle" x="703.75" y="-932.5" font-family="Helvetica,sans-Serif" font-size="10.00">/Network/wgraph.h</text>
</a>
</g>
</g>
<!-- Node25&#45;&gt;Node26 -->
<g id="edge45" class="edge">
<title>Node25&#45;&gt;Node26</title>
<path fill="none" stroke="midnightblue" d="M715.79,-982.7C713.13,-973.59 710.18,-963.49 707.86,-955.58"/>
<polygon fill="midnightblue" stroke="midnightblue" points="712.46,-983.78 718.63,-992.4 719.18,-981.82 712.46,-983.78"/>
</g>
<!-- Node26&#45;&gt;Node3 -->
<g id="edge51" class="edge">
<title>Node26&#45;&gt;Node3</title>
<path fill="none" stroke="midnightblue" d="M750.81,-921.82C778.62,-911.37 813.34,-898.32 839.28,-888.58"/>
<polygon fill="midnightblue" stroke="midnightblue" points="749.42,-918.6 741.29,-925.4 751.88,-925.16 749.42,-918.6"/>
</g>
<!-- Node27 -->
<g id="node27" class="node">
<title>Node27</title>
<g id="a_node27"><a xlink:href="computer__memory_8h.html" target="_top" xlink:title=" ">
<polygon fill="white" stroke="black" points="337.25,-713.5 337.25,-743.5 508.25,-743.5 508.25,-713.5 337.25,-713.5"/>
<text text-anchor="start" x="345.25" y="-731.5" font-family="Helvetica,sans-Serif" font-size="10.00">include/network_butcher</text>
<text text-anchor="middle" x="422.75" y="-720.5" font-family="Helvetica,sans-Serif" font-size="10.00">/Computer/computer_memory.h</text>
</a>
</g>
</g>
<!-- Node26&#45;&gt;Node27 -->
<g id="edge46" class="edge">
<title>Node26&#45;&gt;Node27</title>
<path fill="none" stroke="midnightblue" d="M676.75,-919.33C620.12,-877.01 490.14,-779.86 441.54,-743.54"/>
<polygon fill="midnightblue" stroke="midnightblue" points="674.77,-922.21 684.88,-925.4 678.96,-916.61 674.77,-922.21"/>
</g>
<!-- Node27&#45;&gt;Node4 -->
<g id="edge47" class="edge">
<title>Node27&#45;&gt;Node4</title>
<path fill="none" stroke="midnightblue" d="M395.53,-707.02C363.39,-680.94 311.65,-632.54 290.75,-577 268.42,-517.69 263.37,-483.85 303.75,-435 378.49,-344.59 520.5,-317.68 605.19,-309.74"/>
<polygon fill="midnightblue" stroke="midnightblue" points="393.64,-709.98 403.65,-713.47 397.99,-704.5 393.64,-709.98"/>
</g>
<!-- Node27&#45;&gt;Node8 -->
<g id="edge50" class="edge">
<title>Node27&#45;&gt;Node8</title>
<path fill="none" stroke="midnightblue" d="M373.25,-709.33C350.64,-699.19 324.74,-684.77 305.75,-666 232.63,-593.72 195.75,-565.31 195.75,-462.5 195.75,-462.5 195.75,-462.5 195.75,-154 195.75,-92.9 380.18,-48.6 483.92,-28.51"/>
<polygon fill="midnightblue" stroke="midnightblue" points="372.14,-712.66 382.71,-713.41 374.91,-706.23 372.14,-712.66"/>
</g>
<!-- Node27&#45;&gt;Node14 -->
<g id="edge48" class="edge">
<title>Node27&#45;&gt;Node14</title>
<path fill="none" stroke="midnightblue" d="M481.83,-710.73C493.37,-707.67 505.41,-704.61 516.75,-702 600.88,-682.61 698.35,-664.66 764.03,-653.22"/>
<polygon fill="midnightblue" stroke="midnightblue" points="480.59,-707.44 471.84,-713.42 482.41,-714.2 480.59,-707.44"/>
</g>
<!-- Node27&#45;&gt;Node18 -->
<g id="edge49" class="edge">
<title>Node27&#45;&gt;Node18</title>
<path fill="none" stroke="midnightblue" d="M417.59,-703.6C410.41,-670.33 397.46,-610.36 390.15,-576.51"/>
<polygon fill="midnightblue" stroke="midnightblue" points="414.17,-704.36 419.7,-713.39 421.01,-702.88 414.17,-704.36"/>
</g>
<!-- Node28&#45;&gt;Node24 -->
<g id="edge53" class="edge">
<title>Node28&#45;&gt;Node24</title>
<path fill="none" stroke="midnightblue" d="M693.22,-1118.16C699.78,-1108.68 707.23,-1097.92 713,-1089.58"/>
<polygon fill="midnightblue" stroke="midnightblue" points="690.33,-1116.18 687.51,-1126.4 696.08,-1120.17 690.33,-1116.18"/>
</g>
<!-- Node29&#45;&gt;Node2 -->
<g id="edge58" class="edge">
<title>Node29&#45;&gt;Node2</title>
<path fill="none" stroke="midnightblue" d="M594.74,-1257.85C634.19,-1247.25 684.73,-1233.68 722.21,-1223.61"/>
<polygon fill="midnightblue" stroke="midnightblue" points="593.71,-1254.5 584.96,-1260.48 595.53,-1261.26 593.71,-1254.5"/>
</g>
<!-- Node30 -->
<g id="node30" class="node">
<title>Node30</title>
<g id="a_node30"><a xlink:href="node_8h.html" target="_top" xlink:title=" ">
<polygon fill="white" stroke="black" points="384.25,-1193.5 384.25,-1223.5 521.25,-1223.5 521.25,-1193.5 384.25,-1193.5"/>
<text text-anchor="start" x="392.25" y="-1211.5" font-family="Helvetica,sans-Serif" font-size="10.00">include/network_butcher</text>
<text text-anchor="middle" x="452.75" y="-1200.5" font-family="Helvetica,sans-Serif" font-size="10.00">/Network/node.h</text>
</a>
</g>
</g>
<!-- Node29&#45;&gt;Node30 -->
<g id="edge55" class="edge">
<title>Node29&#45;&gt;Node30</title>
<path fill="none" stroke="midnightblue" d="M507.37,-1253.88C495.22,-1244.01 480.97,-1232.43 470.07,-1223.58"/>
<polygon fill="midnightblue" stroke="midnightblue" points="505.42,-1256.81 515.39,-1260.4 509.84,-1251.37 505.42,-1256.81"/>
</g>
<!-- Node31 -->
<g id="node31" class="node">
<title>Node31</title>
<g id="a_node31"><a xlink:href="utilities_8h.html" target="_top" xlink:title=" ">
<polygon fill="white" stroke="black" points="179.25,-791.5 179.25,-821.5 316.25,-821.5 316.25,-791.5 179.25,-791.5"/>
<text text-anchor="start" x="187.25" y="-809.5" font-family="Helvetica,sans-Serif" font-size="10.00">include/network_butcher</text>
<text text-anchor="middle" x="247.75" y="-798.5" font-family="Helvetica,sans-Serif" font-size="10.00">/utilities.h</text>
</a>
</g>
</g>
<!-- Node29&#45;&gt;Node31 -->
<g id="edge59" class="edge">
<title>Node29&#45;&gt;Node31</title>
<path fill="none" stroke="midnightblue" d="M454.15,-1265.45C381.45,-1252.09 284.75,-1219.69 284.75,-1142.5 284.75,-1142.5 284.75,-1142.5 284.75,-939.5 284.75,-894.36 260.47,-845.13 250.64,-821.59"/>
<polygon fill="midnightblue" stroke="midnightblue" points="453.78,-1268.94 464.24,-1267.21 454.99,-1262.04 453.78,-1268.94"/>
</g>
<!-- Node35 -->
<g id="node35" class="node">
<title>Node35</title>
<g id="a_node35"><a xlink:href="dense__tensor_8cpp.html" target="_top" xlink:title=" ">
<polygon fill="white" stroke="black" points="539.25,-1199 539.25,-1218 688.25,-1218 688.25,-1199 539.25,-1199"/>
<text text-anchor="middle" x="613.75" y="-1206" font-family="Helvetica,sans-Serif" font-size="10.00">src/Types/dense_tensor.cpp</text>
</a>
</g>
</g>
<!-- Node29&#45;&gt;Node35 -->
<g id="edge69" class="edge">
<title>Node29&#45;&gt;Node35</title>
<path fill="none" stroke="midnightblue" d="M558.28,-1254.01C573.32,-1241.94 591.56,-1227.3 602.91,-1218.19"/>
<polygon fill="midnightblue" stroke="midnightblue" points="555.93,-1251.41 550.32,-1260.4 560.31,-1256.87 555.93,-1251.41"/>
</g>
<!-- Node30&#45;&gt;Node24 -->
<g id="edge56" class="edge">
<title>Node30&#45;&gt;Node24</title>
<path fill="none" stroke="midnightblue" d="M485.22,-1188.06C514.63,-1170.8 559.4,-1145.39 599.75,-1126 627.94,-1112.45 660.75,-1099.1 685.39,-1089.53"/>
<polygon fill="midnightblue" stroke="midnightblue" points="483.07,-1185.27 476.23,-1193.36 486.62,-1191.29 483.07,-1185.27"/>
</g>
<!-- Node30&#45;&gt;Node28 -->
<g id="edge57" class="edge">
<title>Node30&#45;&gt;Node28</title>
<path fill="none" stroke="midnightblue" d="M511.32,-1190.58C547.86,-1180.02 594.35,-1166.59 628.9,-1156.61"/>
<polygon fill="midnightblue" stroke="midnightblue" points="509.93,-1187.34 501.29,-1193.48 511.87,-1194.06 509.93,-1187.34"/>
</g>
<!-- Node31&#45;&gt;Node4 -->
<g id="edge60" class="edge">
<title>Node31&#45;&gt;Node4</title>
<path fill="none" stroke="midnightblue" d="M169.08,-794.4C123.21,-786.15 71.7,-773.15 57.75,-755 19.28,-704.97 32.3,-670.75 57.75,-613 125.74,-458.7 185.55,-429.57 337.75,-357 383.81,-335.04 521.06,-319.7 605.22,-312.06"/>
<polygon fill="midnightblue" stroke="midnightblue" points="168.62,-797.88 179.07,-796.15 169.82,-790.98 168.62,-797.88"/>
</g>
<!-- Node31&#45;&gt;Node8 -->
<g id="edge66" class="edge">
<title>Node31&#45;&gt;Node8</title>
<path fill="none" stroke="midnightblue" d="M168.79,-795.78C115.13,-787.61 50.45,-774.16 30.75,-755 -6.96,-718.32 0.75,-693.11 0.75,-640.5 0.75,-640.5 0.75,-640.5 0.75,-154 0.75,-55.42 336.4,-26.98 484.23,-19.23"/>
<polygon fill="midnightblue" stroke="midnightblue" points="168.61,-799.3 179.02,-797.3 169.64,-792.37 168.61,-799.3"/>
</g>
<!-- Node31&#45;&gt;Node27 -->
<g id="edge61" class="edge">
<title>Node31&#45;&gt;Node27</title>
<path fill="none" stroke="midnightblue" d="M289.49,-787.37C320.43,-773.94 361.98,-755.89 390.42,-743.54"/>
<polygon fill="midnightblue" stroke="midnightblue" points="288.03,-784.19 280.25,-791.38 290.82,-790.61 288.03,-784.19"/>
</g>
<!-- Node31&#45;&gt;Node29 -->
<g id="edge67" class="edge">
<title>Node31&#45;&gt;Node29</title>
<path fill="none" stroke="midnightblue" d="M267.45,-830.19C283.49,-855.85 302.75,-899.3 302.75,-939.5 302.75,-1142.5 302.75,-1142.5 302.75,-1142.5 302.75,-1218.46 396.4,-1251.05 464.25,-1264.79"/>
<polygon fill="midnightblue" stroke="midnightblue" points="270.18,-827.98 261.73,-821.59 264.35,-831.85 270.18,-827.98"/>
</g>
<!-- Node32 -->
<g id="node32" class="node">
<title>Node32</title>
<g id="a_node32"><a xlink:href="weight__importer__utils_8h.html" target="_top" xlink:title=" ">
<polygon fill="white" stroke="black" points="176.25,-702.5 176.25,-754.5 319.25,-754.5 319.25,-702.5 176.25,-702.5"/>
<text text-anchor="start" x="184.25" y="-742.5" font-family="Helvetica,sans-Serif" font-size="10.00">include/network_butcher</text>
<text text-anchor="start" x="184.25" y="-731.5" font-family="Helvetica,sans-Serif" font-size="10.00">/IO_Interaction/Weight</text>
<text text-anchor="start" x="184.25" y="-720.5" font-family="Helvetica,sans-Serif" font-size="10.00">_Importer_Helpers/weight</text>
<text text-anchor="middle" x="247.75" y="-709.5" font-family="Helvetica,sans-Serif" font-size="10.00">_importer_utils.h</text>
</a>
</g>
</g>
<!-- Node31&#45;&gt;Node32 -->
<g id="edge62" class="edge">
<title>Node31&#45;&gt;Node32</title>
<path fill="none" stroke="midnightblue" d="M247.75,-781.14C247.75,-772.63 247.75,-763.07 247.75,-754.5"/>
<polygon fill="midnightblue" stroke="midnightblue" points="244.25,-781.2 247.75,-791.2 251.25,-781.21 244.25,-781.2"/>
</g>
<!-- Node34 -->
<g id="node34" class="node">
<title>Node34</title>
<g id="a_node34"><a xlink:href="utilities_8cpp.html" target="_top" xlink:title=" ">
<polygon fill="white" stroke="black" points="67.25,-719 67.25,-738 158.25,-738 158.25,-719 67.25,-719"/>
<text text-anchor="middle" x="112.75" y="-726" font-family="Helvetica,sans-Serif" font-size="10.00">src/utilities.cpp</text>
</a>
</g>
</g>
<!-- Node31&#45;&gt;Node34 -->
<g id="edge68" class="edge">
<title>Node31&#45;&gt;Node34</title>
<path fill="none" stroke="midnightblue" d="M213.76,-786.36C186.22,-770.86 148.73,-749.76 128.04,-738.11"/>
<polygon fill="midnightblue" stroke="midnightblue" points="212.24,-789.53 222.67,-791.38 215.68,-783.43 212.24,-789.53"/>
</g>
<!-- Node32&#45;&gt;Node18 -->
<g id="edge63" class="edge">
<title>Node32&#45;&gt;Node18</title>
<path fill="none" stroke="midnightblue" d="M273.82,-694C300.44,-659.8 341.16,-607.49 365.16,-576.67"/>
<polygon fill="midnightblue" stroke="midnightblue" points="270.76,-692.24 267.38,-702.28 276.28,-696.54 270.76,-692.24"/>
</g>
<!-- Node32&#45;&gt;Node21 -->
<g id="edge64" class="edge">
<title>Node32&#45;&gt;Node21</title>
<path fill="none" stroke="midnightblue" d="M329.42,-701.55C383.54,-685.89 435.63,-672.06 477.61,-661.22"/>
<polygon fill="midnightblue" stroke="midnightblue" points="328.28,-698.24 319.66,-704.39 330.24,-704.96 328.28,-698.24"/>
</g>
<!-- Node33 -->
<g id="node33" class="node">
<title>Node33</title>
<g id="a_node33"><a xlink:href="weight__importer__utils_8cpp.html" target="_top" xlink:title=" ">
<polygon fill="white" stroke="black" points="66.75,-619 66.75,-660 212.75,-660 212.75,-619 66.75,-619"/>
<text text-anchor="start" x="74.75" y="-648" font-family="Helvetica,sans-Serif" font-size="10.00">src/IO_Interaction</text>
<text text-anchor="start" x="74.75" y="-637" font-family="Helvetica,sans-Serif" font-size="10.00">/Weight_Importer_Helpers</text>
<text text-anchor="middle" x="139.75" y="-626" font-family="Helvetica,sans-Serif" font-size="10.00">/weight_importer_utils.cpp</text>
</a>
</g>
</g>
<!-- Node32&#45;&gt;Node33 -->
<g id="edge65" class="edge">
<title>Node32&#45;&gt;Node33</title>
<path fill="none" stroke="midnightblue" d="M208.46,-695.85C193.6,-683.88 177.14,-670.62 164.06,-660.08"/>
<polygon fill="midnightblue" stroke="midnightblue" points="206.53,-698.79 216.51,-702.34 210.92,-693.34 206.53,-698.79"/>
</g>
</g>
</svg>
