<?xml version="1.0" encoding="UTF-8" standalone="no"?>
<!DOCTYPE svg PUBLIC "-//W3C//DTD SVG 1.1//EN"
 "http://www.w3.org/Graphics/SVG/1.1/DTD/svg11.dtd">
<!-- Generated by graphviz version 2.43.0 (0)
 -->
<!-- Title: include/network_butcher/Types/variant_attribute.h Pages: 1 -->
<svg width="1188pt" height="1366pt"
 viewBox="0.00 0.00 1188.00 1366.00" xmlns="http://www.w3.org/2000/svg" xmlns:xlink="http://www.w3.org/1999/xlink">
<g id="graph0" class="graph" transform="scale(1 1) rotate(0) translate(4 1362)">
<title>include/network_butcher/Types/variant_attribute.h</title>
<polygon fill="white" stroke="transparent" points="-4,4 -4,-1362 1184,-1362 1184,4 -4,4"/>
<!-- Node1 -->
<g id="node1" class="node">
<title>Node1</title>
<g id="a_node1"><a xlink:title=" ">
<polygon fill="#bfbfbf" stroke="black" points="451.5,-1327.5 451.5,-1357.5 592.5,-1357.5 592.5,-1327.5 451.5,-1327.5"/>
<text text-anchor="start" x="459.5" y="-1345.5" font-family="Helvetica,sans-Serif" font-size="10.00">include/network_butcher</text>
<text text-anchor="middle" x="522" y="-1334.5" font-family="Helvetica,sans-Serif" font-size="10.00">/Types/variant_attribute.h</text>
</a>
</g>
</g>
<!-- Node2 -->
<g id="node2" class="node">
<title>Node2</title>
<g id="a_node2"><a xlink:href="content_8h.html" target="_top" xlink:title=" ">
<polygon fill="white" stroke="black" points="647.5,-1193.5 647.5,-1223.5 784.5,-1223.5 784.5,-1193.5 647.5,-1193.5"/>
<text text-anchor="start" x="655.5" y="-1211.5" font-family="Helvetica,sans-Serif" font-size="10.00">include/network_butcher</text>
<text text-anchor="middle" x="716" y="-1200.5" font-family="Helvetica,sans-Serif" font-size="10.00">/Types/content.h</text>
</a>
</g>
</g>
<!-- Node1&#45;&gt;Node2 -->
<g id="edge1" class="edge">
<title>Node1&#45;&gt;Node2</title>
<path fill="none" stroke="midnightblue" d="M551.21,-1321.62C590.88,-1294.64 660.77,-1247.08 695.39,-1223.52"/>
<polygon fill="midnightblue" stroke="midnightblue" points="549.06,-1318.85 542.76,-1327.37 553,-1324.64 549.06,-1318.85"/>
</g>
<!-- Node29 -->
<g id="node29" class="node">
<title>Node29</title>
<g id="a_node29"><a xlink:href="dense__tensor_8h.html" target="_top" xlink:title=" ">
<polygon fill="white" stroke="black" points="405.5,-1260.5 405.5,-1290.5 542.5,-1290.5 542.5,-1260.5 405.5,-1260.5"/>
<text text-anchor="start" x="413.5" y="-1278.5" font-family="Helvetica,sans-Serif" font-size="10.00">include/network_butcher</text>
<text text-anchor="middle" x="474" y="-1267.5" font-family="Helvetica,sans-Serif" font-size="10.00">/Types/dense_tensor.h</text>
</a>
</g>
</g>
<!-- Node1&#45;&gt;Node29 -->
<g id="edge54" class="edge">
<title>Node1&#45;&gt;Node29</title>
<path fill="none" stroke="midnightblue" d="M505.5,-1319.16C498.5,-1309.68 490.56,-1298.92 484.39,-1290.58"/>
<polygon fill="midnightblue" stroke="midnightblue" points="502.83,-1321.43 511.58,-1327.4 508.46,-1317.27 502.83,-1321.43"/>
</g>
<!-- Node3 -->
<g id="node3" class="node">
<title>Node3</title>
<g id="a_node3"><a xlink:href="graph__traits_8h.html" target="_top" xlink:title=" ">
<polygon fill="white" stroke="black" points="685.5,-858.5 685.5,-888.5 822.5,-888.5 822.5,-858.5 685.5,-858.5"/>
<text text-anchor="start" x="693.5" y="-876.5" font-family="Helvetica,sans-Serif" font-size="10.00">include/network_butcher</text>
<text text-anchor="middle" x="754" y="-865.5" font-family="Helvetica,sans-Serif" font-size="10.00">/Network/graph_traits.h</text>
</a>
</g>
</g>
<!-- Node2&#45;&gt;Node3 -->
<g id="edge2" class="edge">
<title>Node2&#45;&gt;Node3</title>
<path fill="none" stroke="midnightblue" d="M727.15,-1183.86C738.37,-1157.89 754,-1114.66 754,-1075.5 754,-1075.5 754,-1075.5 754,-1006.5 754,-963.65 754,-912.97 754,-888.76"/>
<polygon fill="midnightblue" stroke="midnightblue" points="723.85,-1182.68 722.97,-1193.24 730.24,-1185.53 723.85,-1182.68"/>
</g>
<!-- Node24 -->
<g id="node24" class="node">
<title>Node24</title>
<g id="a_node24"><a xlink:href="graph_8h.html" target="_top" xlink:title=" ">
<polygon fill="white" stroke="black" points="550.5,-1059.5 550.5,-1089.5 687.5,-1089.5 687.5,-1059.5 550.5,-1059.5"/>
<text text-anchor="start" x="558.5" y="-1077.5" font-family="Helvetica,sans-Serif" font-size="10.00">include/network_butcher</text>
<text text-anchor="middle" x="619" y="-1066.5" font-family="Helvetica,sans-Serif" font-size="10.00">/Network/graph.h</text>
</a>
</g>
</g>
<!-- Node2&#45;&gt;Node24 -->
<g id="edge41" class="edge">
<title>Node2&#45;&gt;Node24</title>
<path fill="none" stroke="midnightblue" d="M714.67,-1182.82C712.67,-1165.56 707.8,-1142.69 696,-1126 684.83,-1110.21 667.02,-1098.06 651.34,-1089.64"/>
<polygon fill="midnightblue" stroke="midnightblue" points="711.22,-1183.59 715.61,-1193.24 718.19,-1182.97 711.22,-1183.59"/>
</g>
<!-- Node28 -->
<g id="node28" class="node">
<title>Node28</title>
<g id="a_node28"><a xlink:href="node__traits_8h.html" target="_top" xlink:title=" ">
<polygon fill="white" stroke="black" points="550.5,-1126.5 550.5,-1156.5 687.5,-1156.5 687.5,-1126.5 550.5,-1126.5"/>
<text text-anchor="start" x="558.5" y="-1144.5" font-family="Helvetica,sans-Serif" font-size="10.00">include/network_butcher</text>
<text text-anchor="middle" x="619" y="-1133.5" font-family="Helvetica,sans-Serif" font-size="10.00">/Network/node_traits.h</text>
</a>
</g>
</g>
<!-- Node2&#45;&gt;Node28 -->
<g id="edge52" class="edge">
<title>Node2&#45;&gt;Node28</title>
<path fill="none" stroke="midnightblue" d="M686.5,-1187.73C671.49,-1177.68 653.6,-1165.68 640.01,-1156.58"/>
<polygon fill="midnightblue" stroke="midnightblue" points="684.7,-1190.74 694.95,-1193.4 688.59,-1184.92 684.7,-1190.74"/>
</g>
<!-- Node4 -->
<g id="node4" class="node">
<title>Node4</title>
<g id="a_node4"><a xlink:href="butcher_8h.html" target="_top" xlink:title=" ">
<polygon fill="white" stroke="black" points="651.5,-290.5 651.5,-320.5 788.5,-320.5 788.5,-290.5 651.5,-290.5"/>
<text text-anchor="start" x="659.5" y="-308.5" font-family="Helvetica,sans-Serif" font-size="10.00">include/network_butcher</text>
<text text-anchor="middle" x="720" y="-297.5" font-family="Helvetica,sans-Serif" font-size="10.00">/Butcher/butcher.h</text>
</a>
</g>
</g>
<!-- Node3&#45;&gt;Node4 -->
<g id="edge3" class="edge">
<title>Node3&#45;&gt;Node4</title>
<path fill="none" stroke="midnightblue" d="M832.72,-857.04C898.63,-838.97 982,-801.83 982,-729.5 982,-729.5 982,-729.5 982,-460.5 982,-409.98 974.04,-389.07 935,-357 894.11,-323.42 834.83,-311.37 788.87,-307.39"/>
<polygon fill="midnightblue" stroke="midnightblue" points="831.5,-853.74 822.72,-859.67 833.28,-860.51 831.5,-853.74"/>
</g>
<!-- Node5 -->
<g id="node5" class="node">
<title>Node5</title>
<g id="a_node5"><a xlink:href="onnx__importer__helpers_8h.html" target="_top" xlink:title=" ">
<polygon fill="white" stroke="black" points="170,-212.5 170,-253.5 332,-253.5 332,-212.5 170,-212.5"/>
<text text-anchor="start" x="178" y="-241.5" font-family="Helvetica,sans-Serif" font-size="10.00">include/network_butcher</text>
<text text-anchor="start" x="178" y="-230.5" font-family="Helvetica,sans-Serif" font-size="10.00">/IO_Interaction/onnx_importer</text>
<text text-anchor="middle" x="251" y="-219.5" font-family="Helvetica,sans-Serif" font-size="10.00">_helpers.h</text>
</a>
</g>
</g>
<!-- Node3&#45;&gt;Node5 -->
<g id="edge22" class="edge">
<title>Node3&#45;&gt;Node5</title>
<path fill="none" stroke="midnightblue" d="M676.8,-856.34C526.77,-824.89 210,-758.23 205,-755 180.44,-739.13 187.7,-721.61 166,-702 142.64,-680.89 120.61,-693.34 105,-666 21.19,-519.22 178.72,-316.8 233.33,-253.63"/>
<polygon fill="midnightblue" stroke="midnightblue" points="676.37,-859.83 686.87,-858.45 677.8,-852.98 676.37,-859.83"/>
</g>
<!-- Node8 -->
<g id="node8" class="node">
<title>Node8</title>
<g id="a_node8"><a xlink:href="network__butcher_8h.html" target="_top" xlink:title=" ">
<polygon fill="white" stroke="black" points="94.5,-0.5 94.5,-30.5 231.5,-30.5 231.5,-0.5 94.5,-0.5"/>
<text text-anchor="start" x="102.5" y="-18.5" font-family="Helvetica,sans-Serif" font-size="10.00">include/network_butcher</text>
<text text-anchor="middle" x="163" y="-7.5" font-family="Helvetica,sans-Serif" font-size="10.00">/network_butcher.h</text>
</a>
</g>
</g>
<!-- Node3&#45;&gt;Node8 -->
<g id="edge35" class="edge">
<title>Node3&#45;&gt;Node8</title>
<path fill="none" stroke="midnightblue" d="M675.03,-871.77C568.08,-869.29 371.82,-859.47 209,-822 110.01,-799.22 0,-831.08 0,-729.5 0,-729.5 0,-729.5 0,-154 0,-90.32 73.58,-50.14 121.87,-30.63"/>
<polygon fill="midnightblue" stroke="midnightblue" points="675.03,-875.27 685.1,-871.99 675.18,-868.27 675.03,-875.27"/>
</g>
<!-- Node12 -->
<g id="node12" class="node">
<title>Node12</title>
<g id="a_node12"><a xlink:href="onnx__model__reconstructor__helpers_8h.html" target="_top" xlink:title=" ">
<polygon fill="white" stroke="black" points="644.5,-212.5 644.5,-253.5 795.5,-253.5 795.5,-212.5 644.5,-212.5"/>
<text text-anchor="start" x="652.5" y="-241.5" font-family="Helvetica,sans-Serif" font-size="10.00">include/network_butcher</text>
<text text-anchor="start" x="652.5" y="-230.5" font-family="Helvetica,sans-Serif" font-size="10.00">/IO_Interaction/onnx_model</text>
<text text-anchor="middle" x="720" y="-219.5" font-family="Helvetica,sans-Serif" font-size="10.00">_reconstructor_helpers.h</text>
</a>
</g>
</g>
<!-- Node3&#45;&gt;Node12 -->
<g id="edge23" class="edge">
<title>Node3&#45;&gt;Node12</title>
<path fill="none" stroke="midnightblue" d="M833.06,-862.41C956.24,-844.45 1180,-801.87 1180,-729.5 1180,-729.5 1180,-729.5 1180,-377 1180,-297.5 926.28,-257.21 795.7,-241.74"/>
<polygon fill="midnightblue" stroke="midnightblue" points="832.32,-858.98 822.92,-863.87 833.31,-865.91 832.32,-858.98"/>
</g>
<!-- Node14 -->
<g id="node14" class="node">
<title>Node14</title>
<g id="a_node14"><a xlink:href="graph__constraint_8h.html" target="_top" xlink:title=" ">
<polygon fill="white" stroke="black" points="726.5,-624.5 726.5,-654.5 877.5,-654.5 877.5,-624.5 726.5,-624.5"/>
<text text-anchor="start" x="734.5" y="-642.5" font-family="Helvetica,sans-Serif" font-size="10.00">include/network_butcher</text>
<text text-anchor="middle" x="802" y="-631.5" font-family="Helvetica,sans-Serif" font-size="10.00">/Butcher/graph_constraint.h</text>
</a>
</g>
</g>
<!-- Node3&#45;&gt;Node14 -->
<g id="edge16" class="edge">
<title>Node3&#45;&gt;Node14</title>
<path fill="none" stroke="midnightblue" d="M798.8,-853.37C811.52,-845.6 823.84,-835.26 831,-822 861.33,-765.85 826.57,-686.65 809.91,-654.69"/>
<polygon fill="midnightblue" stroke="midnightblue" points="796.98,-850.38 789.99,-858.35 800.42,-856.48 796.98,-850.38"/>
</g>
<!-- Node15 -->
<g id="node15" class="node">
<title>Node15</title>
<g id="a_node15"><a xlink:href="constrained__block__graph__builder_8h.html" target="_top" xlink:title=" ">
<polygon fill="white" stroke="black" points="747.5,-357.5 747.5,-398.5 896.5,-398.5 896.5,-357.5 747.5,-357.5"/>
<text text-anchor="start" x="755.5" y="-386.5" font-family="Helvetica,sans-Serif" font-size="10.00">include/network_butcher</text>
<text text-anchor="start" x="755.5" y="-375.5" font-family="Helvetica,sans-Serif" font-size="10.00">/Butcher/constrained_block</text>
<text text-anchor="middle" x="822" y="-364.5" font-family="Helvetica,sans-Serif" font-size="10.00">_graph_builder.h</text>
</a>
</g>
</g>
<!-- Node3&#45;&gt;Node15 -->
<g id="edge19" class="edge">
<title>Node3&#45;&gt;Node15</title>
<path fill="none" stroke="midnightblue" d="M801.75,-854.13C818.63,-846.04 836.91,-835.31 851,-822 885.76,-789.15 906,-777.33 906,-729.5 906,-729.5 906,-729.5 906,-549.5 906,-489.77 864.01,-429.27 839.4,-398.95"/>
<polygon fill="midnightblue" stroke="midnightblue" points="800.18,-851 792.55,-858.35 803.09,-857.36 800.18,-851"/>
</g>
<!-- Node16 -->
<g id="node16" class="node">
<title>Node16</title>
<g id="a_node16"><a xlink:href="path__converter_8h.html" target="_top" xlink:title=" ">
<polygon fill="white" stroke="black" points="1010,-363 1010,-393 1152,-393 1152,-363 1010,-363"/>
<text text-anchor="start" x="1018" y="-381" font-family="Helvetica,sans-Serif" font-size="10.00">include/network_butcher</text>
<text text-anchor="middle" x="1081" y="-370" font-family="Helvetica,sans-Serif" font-size="10.00">/Butcher/path_converter.h</text>
</a>
</g>
</g>
<!-- Node3&#45;&gt;Node16 -->
<g id="edge20" class="edge">
<title>Node3&#45;&gt;Node16</title>
<path fill="none" stroke="midnightblue" d="M832.85,-863C893.12,-854.48 970.12,-840.48 996,-822 1034.93,-794.21 1051,-777.33 1051,-729.5 1051,-729.5 1051,-729.5 1051,-549.5 1051,-490.89 1068.41,-422.64 1076.7,-393.45"/>
<polygon fill="midnightblue" stroke="midnightblue" points="832,-859.59 822.57,-864.43 832.96,-866.52 832,-859.59"/>
</g>
<!-- Node17 -->
<g id="node17" class="node">
<title>Node17</title>
<g id="a_node17"><a xlink:href="weight__importer_8h.html" target="_top" xlink:title=" ">
<polygon fill="white" stroke="black" points="641.5,-702.5 641.5,-754.5 784.5,-754.5 784.5,-702.5 641.5,-702.5"/>
<text text-anchor="start" x="649.5" y="-742.5" font-family="Helvetica,sans-Serif" font-size="10.00">include/network_butcher</text>
<text text-anchor="start" x="649.5" y="-731.5" font-family="Helvetica,sans-Serif" font-size="10.00">/IO_Interaction/Weight</text>
<text text-anchor="start" x="649.5" y="-720.5" font-family="Helvetica,sans-Serif" font-size="10.00">_Importer_Helpers/weight</text>
<text text-anchor="middle" x="713" y="-709.5" font-family="Helvetica,sans-Serif" font-size="10.00">_importer.h</text>
</a>
</g>
</g>
<!-- Node3&#45;&gt;Node17 -->
<g id="edge24" class="edge">
<title>Node3&#45;&gt;Node17</title>
<path fill="none" stroke="midnightblue" d="M708.63,-853.49C695.75,-845.72 683.26,-835.36 676,-822 664.1,-800.12 677.29,-773.59 691.12,-754.56"/>
<polygon fill="midnightblue" stroke="midnightblue" points="707.11,-856.65 717.55,-858.46 710.52,-850.54 707.11,-856.65"/>
</g>
<!-- Node23 -->
<g id="node23" class="node">
<title>Node23</title>
<g id="a_node23"><a xlink:href="parameters_8h.html" target="_top" xlink:title=" ">
<polygon fill="white" stroke="black" points="685.5,-791.5 685.5,-821.5 822.5,-821.5 822.5,-791.5 685.5,-791.5"/>
<text text-anchor="start" x="693.5" y="-809.5" font-family="Helvetica,sans-Serif" font-size="10.00">include/network_butcher</text>
<text text-anchor="middle" x="754" y="-798.5" font-family="Helvetica,sans-Serif" font-size="10.00">/Types/parameters.h</text>
</a>
</g>
</g>
<!-- Node3&#45;&gt;Node23 -->
<g id="edge36" class="edge">
<title>Node3&#45;&gt;Node23</title>
<path fill="none" stroke="midnightblue" d="M754,-848.11C754,-839.15 754,-829.32 754,-821.58"/>
<polygon fill="midnightblue" stroke="midnightblue" points="750.5,-848.4 754,-858.4 757.5,-848.4 750.5,-848.4"/>
</g>
<!-- Node4&#45;&gt;Node5 -->
<g id="edge4" class="edge">
<title>Node4&#45;&gt;Node5</title>
<path fill="none" stroke="midnightblue" d="M641.35,-292.68C555.55,-279.78 418.86,-259.23 332.1,-246.19"/>
<polygon fill="midnightblue" stroke="midnightblue" points="640.89,-296.15 651.3,-294.17 641.93,-289.23 640.89,-296.15"/>
</g>
<!-- Node4&#45;&gt;Node8 -->
<g id="edge15" class="edge">
<title>Node4&#45;&gt;Node8</title>
<path fill="none" stroke="midnightblue" d="M681.09,-285.36C665.86,-276.89 648.78,-266.1 635,-254 555.55,-184.27 579.25,-120.39 488,-67 445.68,-42.24 313.86,-27.97 231.68,-21.26"/>
<polygon fill="midnightblue" stroke="midnightblue" points="679.82,-288.66 690.29,-290.33 683.15,-282.5 679.82,-288.66"/>
</g>
<!-- Node4&#45;&gt;Node12 -->
<g id="edge12" class="edge">
<title>Node4&#45;&gt;Node12</title>
<path fill="none" stroke="midnightblue" d="M720,-279.98C720,-271.35 720,-261.76 720,-253.59"/>
<polygon fill="midnightblue" stroke="midnightblue" points="716.5,-280.23 720,-290.23 723.5,-280.23 716.5,-280.23"/>
</g>
<!-- Node6 -->
<g id="node6" class="node">
<title>Node6</title>
<g id="a_node6"><a xlink:href="io__manager_8h.html" target="_top" xlink:title=" ">
<polygon fill="white" stroke="black" points="342.5,-140 342.5,-170 479.5,-170 479.5,-140 342.5,-140"/>
<text text-anchor="start" x="350.5" y="-158" font-family="Helvetica,sans-Serif" font-size="10.00">include/network_butcher</text>
<text text-anchor="middle" x="411" y="-147" font-family="Helvetica,sans-Serif" font-size="10.00">/io_manager.h</text>
</a>
</g>
</g>
<!-- Node5&#45;&gt;Node6 -->
<g id="edge5" class="edge">
<title>Node5&#45;&gt;Node6</title>
<path fill="none" stroke="midnightblue" d="M301.25,-208.13C327.46,-195.68 358.64,-180.87 381.05,-170.23"/>
<polygon fill="midnightblue" stroke="midnightblue" points="299.74,-204.98 292.2,-212.43 302.74,-211.3 299.74,-204.98"/>
</g>
<!-- Node11 -->
<g id="node11" class="node">
<title>Node11</title>
<g id="a_node11"><a xlink:href="onnx__importer__helpers_8cpp.html" target="_top" xlink:title=" ">
<polygon fill="white" stroke="black" points="172,-140 172,-170 324,-170 324,-140 172,-140"/>
<text text-anchor="start" x="180" y="-158" font-family="Helvetica,sans-Serif" font-size="10.00">src/IO_Interaction</text>
<text text-anchor="middle" x="248" y="-147" font-family="Helvetica,sans-Serif" font-size="10.00">/onnx_importer_helpers.cpp</text>
</a>
</g>
</g>
<!-- Node5&#45;&gt;Node11 -->
<g id="edge11" class="edge">
<title>Node5&#45;&gt;Node11</title>
<path fill="none" stroke="midnightblue" d="M249.83,-202.28C249.39,-191.25 248.92,-179.25 248.56,-170.23"/>
<polygon fill="midnightblue" stroke="midnightblue" points="246.34,-202.57 250.23,-212.43 253.33,-202.3 246.34,-202.57"/>
</g>
<!-- Node7 -->
<g id="node7" class="node">
<title>Node7</title>
<g id="a_node7"><a xlink:href="general__manager_8h.html" target="_top" xlink:title=" ">
<polygon fill="white" stroke="black" points="342.5,-67.5 342.5,-97.5 479.5,-97.5 479.5,-67.5 342.5,-67.5"/>
<text text-anchor="start" x="350.5" y="-85.5" font-family="Helvetica,sans-Serif" font-size="10.00">include/network_butcher</text>
<text text-anchor="middle" x="411" y="-74.5" font-family="Helvetica,sans-Serif" font-size="10.00">/general_manager.h</text>
</a>
</g>
</g>
<!-- Node6&#45;&gt;Node7 -->
<g id="edge6" class="edge">
<title>Node6&#45;&gt;Node7</title>
<path fill="none" stroke="midnightblue" d="M411,-129.73C411,-119.07 411,-106.91 411,-97.75"/>
<polygon fill="midnightblue" stroke="midnightblue" points="407.5,-129.73 411,-139.73 414.5,-129.73 407.5,-129.73"/>
</g>
<!-- Node6&#45;&gt;Node8 -->
<g id="edge9" class="edge">
<title>Node6&#45;&gt;Node8</title>
<path fill="none" stroke="midnightblue" d="M347.35,-137.44C287.59,-121.79 206.89,-100.36 204,-98 182.53,-80.48 171.25,-48.83 166.27,-30.55"/>
<polygon fill="midnightblue" stroke="midnightblue" points="346.56,-140.85 357.12,-139.99 348.33,-134.08 346.56,-140.85"/>
</g>
<!-- Node10 -->
<g id="node10" class="node">
<title>Node10</title>
<g id="a_node10"><a xlink:href="io__manager_8cpp.html" target="_top" xlink:title=" ">
<polygon fill="white" stroke="black" points="213.5,-73 213.5,-92 324.5,-92 324.5,-73 213.5,-73"/>
<text text-anchor="middle" x="269" y="-80" font-family="Helvetica,sans-Serif" font-size="10.00">src/io_manager.cpp</text>
</a>
</g>
</g>
<!-- Node6&#45;&gt;Node10 -->
<g id="edge10" class="edge">
<title>Node6&#45;&gt;Node10</title>
<path fill="none" stroke="midnightblue" d="M373.4,-135.33C345.13,-121.29 307.69,-102.71 286.19,-92.03"/>
<polygon fill="midnightblue" stroke="midnightblue" points="372.09,-138.59 382.61,-139.9 375.21,-132.32 372.09,-138.59"/>
</g>
<!-- Node7&#45;&gt;Node8 -->
<g id="edge7" class="edge">
<title>Node7&#45;&gt;Node8</title>
<path fill="none" stroke="midnightblue" d="M347.73,-64.92C307.26,-54.31 255.33,-40.7 216.84,-30.61"/>
<polygon fill="midnightblue" stroke="midnightblue" points="346.93,-68.33 357.49,-67.48 348.71,-61.55 346.93,-68.33"/>
</g>
<!-- Node9 -->
<g id="node9" class="node">
<title>Node9</title>
<g id="a_node9"><a xlink:href="general__manager_8cpp.html" target="_top" xlink:title=" ">
<polygon fill="white" stroke="black" points="341.5,-6 341.5,-25 480.5,-25 480.5,-6 341.5,-6"/>
<text text-anchor="middle" x="411" y="-13" font-family="Helvetica,sans-Serif" font-size="10.00">src/general_manager.cpp</text>
</a>
</g>
</g>
<!-- Node7&#45;&gt;Node9 -->
<g id="edge8" class="edge">
<title>Node7&#45;&gt;Node9</title>
<path fill="none" stroke="midnightblue" d="M411,-57.25C411,-46.02 411,-33.38 411,-25.19"/>
<polygon fill="midnightblue" stroke="midnightblue" points="407.5,-57.4 411,-67.4 414.5,-57.4 407.5,-57.4"/>
</g>
<!-- Node12&#45;&gt;Node6 -->
<g id="edge13" class="edge">
<title>Node12&#45;&gt;Node6</title>
<path fill="none" stroke="midnightblue" d="M634.69,-211.02C581.72,-197.99 515.09,-181.6 468.37,-170.11"/>
<polygon fill="midnightblue" stroke="midnightblue" points="633.86,-214.42 644.41,-213.41 635.54,-207.62 633.86,-214.42"/>
</g>
<!-- Node13 -->
<g id="node13" class="node">
<title>Node13</title>
<g id="a_node13"><a xlink:href="onnx__model__reconstructor__helpers_8cpp.html" target="_top" xlink:title=" ">
<polygon fill="white" stroke="black" points="645.5,-134.5 645.5,-175.5 794.5,-175.5 794.5,-134.5 645.5,-134.5"/>
<text text-anchor="start" x="653.5" y="-163.5" font-family="Helvetica,sans-Serif" font-size="10.00">src/IO_Interaction</text>
<text text-anchor="start" x="653.5" y="-152.5" font-family="Helvetica,sans-Serif" font-size="10.00">/onnx_model_reconstructor</text>
<text text-anchor="middle" x="720" y="-141.5" font-family="Helvetica,sans-Serif" font-size="10.00">_helpers.cpp</text>
</a>
</g>
</g>
<!-- Node12&#45;&gt;Node13 -->
<g id="edge14" class="edge">
<title>Node12&#45;&gt;Node13</title>
<path fill="none" stroke="midnightblue" d="M720,-202.3C720,-193.3 720,-183.65 720,-175.51"/>
<polygon fill="midnightblue" stroke="midnightblue" points="716.5,-202.43 720,-212.43 723.5,-202.43 716.5,-202.43"/>
</g>
<!-- Node14&#45;&gt;Node15 -->
<g id="edge17" class="edge">
<title>Node14&#45;&gt;Node15</title>
<path fill="none" stroke="midnightblue" d="M803.88,-614.04C807.83,-562.9 816.87,-445.53 820.48,-398.76"/>
<polygon fill="midnightblue" stroke="midnightblue" points="800.38,-613.94 803.1,-624.18 807.36,-614.48 800.38,-613.94"/>
</g>
<!-- Node15&#45;&gt;Node4 -->
<g id="edge18" class="edge">
<title>Node15&#45;&gt;Node4</title>
<path fill="none" stroke="midnightblue" d="M785,-351.43C770,-341.06 753.24,-329.48 740.5,-320.67"/>
<polygon fill="midnightblue" stroke="midnightblue" points="783.37,-354.56 793.59,-357.36 787.35,-348.8 783.37,-354.56"/>
</g>
<!-- Node16&#45;&gt;Node4 -->
<g id="edge21" class="edge">
<title>Node16&#45;&gt;Node4</title>
<path fill="none" stroke="midnightblue" d="M1013.24,-360.73C1007.41,-359.43 1001.61,-358.17 996,-357 925.55,-342.28 844.48,-327.73 788.52,-318.05"/>
<polygon fill="midnightblue" stroke="midnightblue" points="1012.49,-364.15 1023.02,-362.95 1014.04,-357.33 1012.49,-364.15"/>
</g>
<!-- Node18 -->
<g id="node18" class="node">
<title>Node18</title>
<g id="a_node18"><a xlink:href="block__aMLLibrary__weight__importer_8h.html" target="_top" xlink:title=" ">
<polygon fill="white" stroke="black" points="284,-524.5 284,-576.5 454,-576.5 454,-524.5 284,-524.5"/>
<text text-anchor="start" x="292" y="-564.5" font-family="Helvetica,sans-Serif" font-size="10.00">include/network_butcher</text>
<text text-anchor="start" x="292" y="-553.5" font-family="Helvetica,sans-Serif" font-size="10.00">/IO_Interaction/Weight</text>
<text text-anchor="start" x="292" y="-542.5" font-family="Helvetica,sans-Serif" font-size="10.00">_Importer_Helpers/block</text>
<text text-anchor="middle" x="369" y="-531.5" font-family="Helvetica,sans-Serif" font-size="10.00">_aMLLibrary_weight_importer.h</text>
</a>
</g>
</g>
<!-- Node17&#45;&gt;Node18 -->
<g id="edge25" class="edge">
<title>Node17&#45;&gt;Node18</title>
<path fill="none" stroke="midnightblue" d="M631.38,-702.07C553.47,-684.22 521.72,-707.97 459,-666 435.33,-650.17 440.43,-635.52 423,-613 413.43,-600.64 402.12,-587.55 392.32,-576.63"/>
<polygon fill="midnightblue" stroke="midnightblue" points="630.57,-705.48 641.12,-704.46 632.24,-698.68 630.57,-705.48"/>
</g>
<!-- Node21 -->
<g id="node21" class="node">
<title>Node21</title>
<g id="a_node21"><a xlink:href="csv__weight__importer_8h.html" target="_top" xlink:title=" ">
<polygon fill="white" stroke="black" points="468,-613.5 468,-665.5 632,-665.5 632,-613.5 468,-613.5"/>
<text text-anchor="start" x="476" y="-653.5" font-family="Helvetica,sans-Serif" font-size="10.00">include/network_butcher</text>
<text text-anchor="start" x="476" y="-642.5" font-family="Helvetica,sans-Serif" font-size="10.00">/IO_Interaction/Weight</text>
<text text-anchor="start" x="476" y="-631.5" font-family="Helvetica,sans-Serif" font-size="10.00">_Importer_Helpers/csv_weight</text>
<text text-anchor="middle" x="550" y="-620.5" font-family="Helvetica,sans-Serif" font-size="10.00">_importer.h</text>
</a>
</g>
</g>
<!-- Node17&#45;&gt;Node21 -->
<g id="edge31" class="edge">
<title>Node17&#45;&gt;Node21</title>
<path fill="none" stroke="midnightblue" d="M656.78,-697.49C637.31,-687.1 615.7,-675.57 597.04,-665.61"/>
<polygon fill="midnightblue" stroke="midnightblue" points="655.38,-700.71 665.85,-702.34 658.68,-694.54 655.38,-700.71"/>
</g>
<!-- Node19 -->
<g id="node19" class="node">
<title>Node19</title>
<g id="a_node19"><a xlink:href="weight__importers_8h.html" target="_top" xlink:title=" ">
<polygon fill="white" stroke="black" points="516.5,-441 516.5,-482 653.5,-482 653.5,-441 516.5,-441"/>
<text text-anchor="start" x="524.5" y="-470" font-family="Helvetica,sans-Serif" font-size="10.00">include/network_butcher</text>
<text text-anchor="start" x="524.5" y="-459" font-family="Helvetica,sans-Serif" font-size="10.00">/IO_Interaction/weight</text>
<text text-anchor="middle" x="585" y="-448" font-family="Helvetica,sans-Serif" font-size="10.00">_importers.h</text>
</a>
</g>
</g>
<!-- Node18&#45;&gt;Node19 -->
<g id="edge26" class="edge">
<title>Node18&#45;&gt;Node19</title>
<path fill="none" stroke="midnightblue" d="M440.76,-520.6C472.11,-507.97 508.08,-493.48 536.25,-482.13"/>
<polygon fill="midnightblue" stroke="midnightblue" points="439.15,-517.47 431.19,-524.45 441.77,-523.96 439.15,-517.47"/>
</g>
<!-- Node20 -->
<g id="node20" class="node">
<title>Node20</title>
<g id="a_node20"><a xlink:href="block__aMLLibrary__weight__importer_8cpp.html" target="_top" xlink:title=" ">
<polygon fill="white" stroke="black" points="297.5,-435.5 297.5,-487.5 440.5,-487.5 440.5,-435.5 297.5,-435.5"/>
<text text-anchor="start" x="305.5" y="-475.5" font-family="Helvetica,sans-Serif" font-size="10.00">src/IO_Interaction</text>
<text text-anchor="start" x="305.5" y="-464.5" font-family="Helvetica,sans-Serif" font-size="10.00">/Weight_Importer_Helpers</text>
<text text-anchor="start" x="305.5" y="-453.5" font-family="Helvetica,sans-Serif" font-size="10.00">/block_aMLLibrary_weight</text>
<text text-anchor="middle" x="369" y="-442.5" font-family="Helvetica,sans-Serif" font-size="10.00">_importer.cpp</text>
</a>
</g>
</g>
<!-- Node18&#45;&gt;Node20 -->
<g id="edge30" class="edge">
<title>Node18&#45;&gt;Node20</title>
<path fill="none" stroke="midnightblue" d="M369,-514.19C369,-505.28 369,-495.9 369,-487.61"/>
<polygon fill="midnightblue" stroke="midnightblue" points="365.5,-514.34 369,-524.34 372.5,-514.34 365.5,-514.34"/>
</g>
<!-- Node19&#45;&gt;Node4 -->
<g id="edge27" class="edge">
<title>Node19&#45;&gt;Node4</title>
<path fill="none" stroke="midnightblue" d="M605.68,-432.84C621.96,-411.54 645.56,-381.67 668,-357 679.68,-344.15 693.88,-330.48 704.49,-320.61"/>
<polygon fill="midnightblue" stroke="midnightblue" points="602.87,-430.75 599.61,-440.83 608.44,-434.99 602.87,-430.75"/>
</g>
<!-- Node19&#45;&gt;Node6 -->
<g id="edge29" class="edge">
<title>Node19&#45;&gt;Node6</title>
<path fill="none" stroke="midnightblue" d="M568.67,-431.92C532.35,-368.36 445.98,-217.21 419.12,-170.2"/>
<polygon fill="midnightblue" stroke="midnightblue" points="565.85,-434.04 573.85,-440.99 571.93,-430.57 565.85,-434.04"/>
</g>
<!-- Node19&#45;&gt;Node15 -->
<g id="edge28" class="edge">
<title>Node19&#45;&gt;Node15</title>
<path fill="none" stroke="midnightblue" d="M651.64,-437.58C687.45,-425.27 731.12,-410.25 765.29,-398.5"/>
<polygon fill="midnightblue" stroke="midnightblue" points="650.09,-434.42 641.77,-440.98 652.36,-441.04 650.09,-434.42"/>
</g>
<!-- Node21&#45;&gt;Node18 -->
<g id="edge32" class="edge">
<title>Node21&#45;&gt;Node18</title>
<path fill="none" stroke="midnightblue" d="M488.45,-608.92C466.6,-598.41 442.23,-586.7 421.24,-576.61"/>
<polygon fill="midnightblue" stroke="midnightblue" points="487.12,-612.16 497.65,-613.34 490.15,-605.85 487.12,-612.16"/>
</g>
<!-- Node21&#45;&gt;Node19 -->
<g id="edge33" class="edge">
<title>Node21&#45;&gt;Node19</title>
<path fill="none" stroke="midnightblue" d="M600.4,-607.01C609.95,-598.52 618.63,-588.46 624,-577 634.01,-555.67 630.57,-546.62 624,-524 619.56,-508.7 610.04,-493.56 601.52,-482.14"/>
<polygon fill="midnightblue" stroke="midnightblue" points="598.07,-604.4 592.6,-613.47 602.54,-609.78 598.07,-604.4"/>
</g>
<!-- Node22 -->
<g id="node22" class="node">
<title>Node22</title>
<g id="a_node22"><a xlink:href="csv__weight__importer_8cpp.html" target="_top" xlink:title=" ">
<polygon fill="white" stroke="black" points="472.5,-530 472.5,-571 615.5,-571 615.5,-530 472.5,-530"/>
<text text-anchor="start" x="480.5" y="-559" font-family="Helvetica,sans-Serif" font-size="10.00">src/IO_Interaction</text>
<text text-anchor="start" x="480.5" y="-548" font-family="Helvetica,sans-Serif" font-size="10.00">/Weight_Importer_Helpers</text>
<text text-anchor="middle" x="544" y="-537" font-family="Helvetica,sans-Serif" font-size="10.00">/csv_weight_importer.cpp</text>
</a>
</g>
</g>
<!-- Node21&#45;&gt;Node22 -->
<g id="edge34" class="edge">
<title>Node21&#45;&gt;Node22</title>
<path fill="none" stroke="midnightblue" d="M547.56,-603.16C546.81,-592.21 546,-580.55 545.35,-571.08"/>
<polygon fill="midnightblue" stroke="midnightblue" points="544.08,-603.6 548.26,-613.34 551.07,-603.12 544.08,-603.6"/>
</g>
<!-- Node23&#45;&gt;Node4 -->
<g id="edge37" class="edge">
<title>Node23&#45;&gt;Node4</title>
<path fill="none" stroke="midnightblue" d="M803.3,-787.56C859.59,-763.52 944,-715.04 944,-640.5 944,-640.5 944,-640.5 944,-460.5 944,-411.34 941.35,-390.09 905,-357 873.49,-328.31 827.24,-315.69 788.86,-310.24"/>
<polygon fill="midnightblue" stroke="midnightblue" points="801.73,-784.42 793.83,-791.49 804.41,-790.89 801.73,-784.42"/>
</g>
<!-- Node23&#45;&gt;Node5 -->
<g id="edge39" class="edge">
<title>Node23&#45;&gt;Node5</title>
<path fill="none" stroke="midnightblue" d="M674.8,-798.47C596.25,-790.46 482.14,-775.76 443,-755 370.55,-716.58 218,-544.51 218,-462.5 218,-462.5 218,-462.5 218,-377 218,-331.9 233.78,-280.81 243.51,-253.56"/>
<polygon fill="midnightblue" stroke="midnightblue" points="674.86,-801.99 685.15,-799.5 675.55,-795.03 674.86,-801.99"/>
</g>
<!-- Node23&#45;&gt;Node14 -->
<g id="edge38" class="edge">
<title>Node23&#45;&gt;Node14</title>
<path fill="none" stroke="midnightblue" d="M775.25,-783.74C782.12,-775.4 788.99,-765.39 793,-755 806.13,-720.95 805.09,-677.07 803.42,-654.82"/>
<polygon fill="midnightblue" stroke="midnightblue" points="772.44,-781.63 768.49,-791.46 777.71,-786.24 772.44,-781.63"/>
</g>
<!-- Node23&#45;&gt;Node17 -->
<g id="edge40" class="edge">
<title>Node23&#45;&gt;Node17</title>
<path fill="none" stroke="midnightblue" d="M741.47,-782.27C736.73,-773.48 731.31,-763.45 726.49,-754.5"/>
<polygon fill="midnightblue" stroke="midnightblue" points="738.46,-784.07 746.29,-791.2 744.62,-780.74 738.46,-784.07"/>
</g>
<!-- Node24&#45;&gt;Node3 -->
<g id="edge42" class="edge">
<title>Node24&#45;&gt;Node3</title>
<path fill="none" stroke="midnightblue" d="M658.03,-1054.35C671.5,-1046.2 685.76,-1035.63 696,-1023 713.61,-1001.29 739.54,-921.38 749.7,-888.64"/>
<polygon fill="midnightblue" stroke="midnightblue" points="656.26,-1051.32 649.35,-1059.35 659.76,-1057.39 656.26,-1051.32"/>
</g>
<!-- Node25 -->
<g id="node25" class="node">
<title>Node25</title>
<g id="a_node25"><a xlink:href="mwgraph_8h.html" target="_top" xlink:title=" ">
<polygon fill="white" stroke="black" points="550.5,-992.5 550.5,-1022.5 687.5,-1022.5 687.5,-992.5 550.5,-992.5"/>
<text text-anchor="start" x="558.5" y="-1010.5" font-family="Helvetica,sans-Serif" font-size="10.00">include/network_butcher</text>
<text text-anchor="middle" x="619" y="-999.5" font-family="Helvetica,sans-Serif" font-size="10.00">/Network/mwgraph.h</text>
</a>
</g>
</g>
<!-- Node24&#45;&gt;Node25 -->
<g id="edge43" class="edge">
<title>Node24&#45;&gt;Node25</title>
<path fill="none" stroke="midnightblue" d="M619,-1049.11C619,-1040.15 619,-1030.32 619,-1022.58"/>
<polygon fill="midnightblue" stroke="midnightblue" points="615.5,-1049.4 619,-1059.4 622.5,-1049.4 615.5,-1049.4"/>
</g>
<!-- Node25&#45;&gt;Node3 -->
<g id="edge44" class="edge">
<title>Node25&#45;&gt;Node3</title>
<path fill="none" stroke="midnightblue" d="M640.53,-985.3C657.26,-968.83 681.08,-945.43 702,-925 714.6,-912.69 728.98,-898.74 739.41,-888.63"/>
<polygon fill="midnightblue" stroke="midnightblue" points="638.04,-982.83 633.37,-992.34 642.95,-987.82 638.04,-982.83"/>
</g>
<!-- Node26 -->
<g id="node26" class="node">
<title>Node26</title>
<g id="a_node26"><a xlink:href="wgraph_8h.html" target="_top" xlink:title=" ">
<polygon fill="white" stroke="black" points="512.5,-925.5 512.5,-955.5 649.5,-955.5 649.5,-925.5 512.5,-925.5"/>
<text text-anchor="start" x="520.5" y="-943.5" font-family="Helvetica,sans-Serif" font-size="10.00">include/network_butcher</text>
<text text-anchor="middle" x="581" y="-932.5" font-family="Helvetica,sans-Serif" font-size="10.00">/Network/wgraph.h</text>
</a>
</g>
</g>
<!-- Node25&#45;&gt;Node26 -->
<g id="edge45" class="edge">
<title>Node25&#45;&gt;Node26</title>
<path fill="none" stroke="midnightblue" d="M605.6,-983.58C600.14,-974.24 594.01,-963.75 589.23,-955.58"/>
<polygon fill="midnightblue" stroke="midnightblue" points="602.69,-985.53 610.75,-992.4 608.73,-982 602.69,-985.53"/>
</g>
<!-- Node26&#45;&gt;Node3 -->
<g id="edge51" class="edge">
<title>Node26&#45;&gt;Node3</title>
<path fill="none" stroke="midnightblue" d="M628.06,-921.82C655.87,-911.37 690.59,-898.32 716.53,-888.58"/>
<polygon fill="midnightblue" stroke="midnightblue" points="626.67,-918.6 618.54,-925.4 629.13,-925.16 626.67,-918.6"/>
</g>
<!-- Node27 -->
<g id="node27" class="node">
<title>Node27</title>
<g id="a_node27"><a xlink:href="computer__memory_8h.html" target="_top" xlink:title=" ">
<polygon fill="white" stroke="black" points="452.5,-713.5 452.5,-743.5 623.5,-743.5 623.5,-713.5 452.5,-713.5"/>
<text text-anchor="start" x="460.5" y="-731.5" font-family="Helvetica,sans-Serif" font-size="10.00">include/network_butcher</text>
<text text-anchor="middle" x="538" y="-720.5" font-family="Helvetica,sans-Serif" font-size="10.00">/Computer/computer_memory.h</text>
</a>
</g>
</g>
<!-- Node26&#45;&gt;Node27 -->
<g id="edge46" class="edge">
<title>Node26&#45;&gt;Node27</title>
<path fill="none" stroke="midnightblue" d="M576.09,-915.54C567.07,-871.47 548.1,-778.82 540.88,-743.54"/>
<polygon fill="midnightblue" stroke="midnightblue" points="572.68,-916.3 578.11,-925.4 579.53,-914.9 572.68,-916.3"/>
</g>
<!-- Node27&#45;&gt;Node4 -->
<g id="edge47" class="edge">
<title>Node27&#45;&gt;Node4</title>
<path fill="none" stroke="midnightblue" d="M607.17,-709.92C631.43,-700.55 656.88,-686.57 674,-666 761.96,-560.34 733.28,-373.15 722.99,-320.58"/>
<polygon fill="midnightblue" stroke="midnightblue" points="605.79,-706.69 597.59,-713.4 608.18,-713.27 605.79,-706.69"/>
</g>
<!-- Node27&#45;&gt;Node8 -->
<g id="edge50" class="edge">
<title>Node27&#45;&gt;Node8</title>
<path fill="none" stroke="midnightblue" d="M480.52,-710.08C419.94,-688.68 326.34,-646.41 275,-577 177.78,-445.54 142,-397.5 142,-234 142,-234 142,-234 142,-154 142,-108.6 153.33,-55.73 159.34,-30.84"/>
<polygon fill="midnightblue" stroke="midnightblue" points="479.72,-713.51 490.31,-713.46 482,-706.89 479.72,-713.51"/>
</g>
<!-- Node27&#45;&gt;Node14 -->
<g id="edge48" class="edge">
<title>Node27&#45;&gt;Node14</title>
<path fill="none" stroke="midnightblue" d="M590.28,-710.27C639.81,-693.95 713.27,-669.74 759.35,-654.55"/>
<polygon fill="midnightblue" stroke="midnightblue" points="589.11,-706.97 580.71,-713.43 591.3,-713.62 589.11,-706.97"/>
</g>
<!-- Node27&#45;&gt;Node18 -->
<g id="edge49" class="edge">
<title>Node27&#45;&gt;Node18</title>
<path fill="none" stroke="midnightblue" d="M490.3,-709.17C468.62,-699 443.87,-684.6 426,-666 401.39,-640.38 385.28,-602.06 376.65,-576.92"/>
<polygon fill="midnightblue" stroke="midnightblue" points="489.14,-712.48 499.7,-713.4 492.02,-706.1 489.14,-712.48"/>
</g>
<!-- Node28&#45;&gt;Node24 -->
<g id="edge53" class="edge">
<title>Node28&#45;&gt;Node24</title>
<path fill="none" stroke="midnightblue" d="M619,-1116.11C619,-1107.15 619,-1097.32 619,-1089.58"/>
<polygon fill="midnightblue" stroke="midnightblue" points="615.5,-1116.4 619,-1126.4 622.5,-1116.4 615.5,-1116.4"/>
</g>
<!-- Node29&#45;&gt;Node2 -->
<g id="edge58" class="edge">
<title>Node29&#45;&gt;Node2</title>
<path fill="none" stroke="midnightblue" d="M535.99,-1257.85C575.45,-1247.25 625.99,-1233.68 663.46,-1223.61"/>
<polygon fill="midnightblue" stroke="midnightblue" points="534.96,-1254.5 526.21,-1260.48 536.78,-1261.26 534.96,-1254.5"/>
</g>
<!-- Node30 -->
<g id="node30" class="node">
<title>Node30</title>
<g id="a_node30"><a xlink:href="node_8h.html" target="_top" xlink:title=" ">
<polygon fill="white" stroke="black" points="325.5,-1193.5 325.5,-1223.5 462.5,-1223.5 462.5,-1193.5 325.5,-1193.5"/>
<text text-anchor="start" x="333.5" y="-1211.5" font-family="Helvetica,sans-Serif" font-size="10.00">include/network_butcher</text>
<text text-anchor="middle" x="394" y="-1200.5" font-family="Helvetica,sans-Serif" font-size="10.00">/Network/node.h</text>
</a>
</g>
</g>
<!-- Node29&#45;&gt;Node30 -->
<g id="edge55" class="edge">
<title>Node29&#45;&gt;Node30</title>
<path fill="none" stroke="midnightblue" d="M448.63,-1253.88C436.47,-1244.01 422.22,-1232.43 411.32,-1223.58"/>
<polygon fill="midnightblue" stroke="midnightblue" points="446.67,-1256.81 456.64,-1260.4 451.09,-1251.37 446.67,-1256.81"/>
</g>
<!-- Node31 -->
<g id="node31" class="node">
<title>Node31</title>
<g id="a_node31"><a xlink:href="utilities_8h.html" target="_top" xlink:title=" ">
<polygon fill="white" stroke="black" points="218.5,-791.5 218.5,-821.5 355.5,-821.5 355.5,-791.5 218.5,-791.5"/>
<text text-anchor="start" x="226.5" y="-809.5" font-family="Helvetica,sans-Serif" font-size="10.00">include/network_butcher</text>
<text text-anchor="middle" x="287" y="-798.5" font-family="Helvetica,sans-Serif" font-size="10.00">/utilities.h</text>
</a>
</g>
</g>
<!-- Node29&#45;&gt;Node31 -->
<g id="edge59" class="edge">
<title>Node29&#45;&gt;Node31</title>
<path fill="none" stroke="midnightblue" d="M395.29,-1266.26C364.18,-1259.42 330.4,-1246.9 307,-1224 279.63,-1197.21 279,-1180.8 279,-1142.5 279,-1142.5 279,-1142.5 279,-939.5 279,-896.64 278.47,-845.97 281.69,-821.76"/>
<polygon fill="midnightblue" stroke="midnightblue" points="394.79,-1269.73 405.28,-1268.29 396.18,-1262.87 394.79,-1269.73"/>
</g>
<!-- Node35 -->
<g id="node35" class="node">
<title>Node35</title>
<g id="a_node35"><a xlink:href="dense__tensor_8cpp.html" target="_top" xlink:title=" ">
<polygon fill="white" stroke="black" points="480.5,-1199 480.5,-1218 629.5,-1218 629.5,-1199 480.5,-1199"/>
<text text-anchor="middle" x="555" y="-1206" font-family="Helvetica,sans-Serif" font-size="10.00">src/Types/dense_tensor.cpp</text>
</a>
</g>
</g>
<!-- Node29&#45;&gt;Node35 -->
<g id="edge69" class="edge">
<title>Node29&#45;&gt;Node35</title>
<path fill="none" stroke="midnightblue" d="M499.54,-1254.01C514.57,-1241.94 532.81,-1227.3 544.17,-1218.19"/>
<polygon fill="midnightblue" stroke="midnightblue" points="497.18,-1251.41 491.58,-1260.4 501.57,-1256.87 497.18,-1251.41"/>
</g>
<!-- Node30&#45;&gt;Node24 -->
<g id="edge56" class="edge">
<title>Node30&#45;&gt;Node24</title>
<path fill="none" stroke="midnightblue" d="M426.73,-1188.3C472.52,-1161.44 554.61,-1113.27 595.09,-1089.52"/>
<polygon fill="midnightblue" stroke="midnightblue" points="424.93,-1185.29 418.08,-1193.37 428.48,-1191.33 424.93,-1185.29"/>
</g>
<!-- Node30&#45;&gt;Node28 -->
<g id="edge57" class="edge">
<title>Node30&#45;&gt;Node28</title>
<path fill="none" stroke="midnightblue" d="M452.57,-1190.58C489.11,-1180.02 535.6,-1166.59 570.15,-1156.61"/>
<polygon fill="midnightblue" stroke="midnightblue" points="451.18,-1187.34 442.54,-1193.48 453.12,-1194.06 451.18,-1187.34"/>
</g>
<!-- Node31&#45;&gt;Node4 -->
<g id="edge60" class="edge">
<title>Node31&#45;&gt;Node4</title>
<path fill="none" stroke="midnightblue" d="M318.26,-785.86C332.84,-776.61 350.39,-765.36 366,-755 400.62,-732.03 404.6,-717.85 443,-702 525.68,-667.88 576.61,-728.08 641,-666 692.18,-616.66 714.07,-381.52 718.92,-320.82"/>
<polygon fill="midnightblue" stroke="midnightblue" points="316.19,-783.03 309.61,-791.34 319.93,-788.95 316.19,-783.03"/>
</g>
<!-- Node31&#45;&gt;Node8 -->
<g id="edge66" class="edge">
<title>Node31&#45;&gt;Node8</title>
<path fill="none" stroke="midnightblue" d="M208.39,-797.64C150.22,-790.16 77.66,-776.75 57,-755 21.48,-717.59 38,-692.08 38,-640.5 38,-640.5 38,-640.5 38,-154 38,-96.25 99.11,-52.04 135.88,-30.66"/>
<polygon fill="midnightblue" stroke="midnightblue" points="207.97,-801.12 218.32,-798.88 208.83,-794.17 207.97,-801.12"/>
</g>
<!-- Node31&#45;&gt;Node27 -->
<g id="edge61" class="edge">
<title>Node31&#45;&gt;Node27</title>
<path fill="none" stroke="midnightblue" d="M343.16,-788.5C387.83,-774.97 449.59,-756.27 491.52,-743.57"/>
<polygon fill="midnightblue" stroke="midnightblue" points="341.89,-785.22 333.33,-791.47 343.91,-791.92 341.89,-785.22"/>
</g>
<!-- Node31&#45;&gt;Node29 -->
<g id="edge67" class="edge">
<title>Node31&#45;&gt;Node29</title>
<path fill="none" stroke="midnightblue" d="M293.95,-832.01C296.59,-858.51 297,-902 297,-939.5 297,-1142.5 297,-1142.5 297,-1142.5 297,-1180.8 297.63,-1197.21 325,-1224 346.71,-1245.25 377.36,-1257.56 405.27,-1264.69"/>
<polygon fill="midnightblue" stroke="midnightblue" points="297.38,-831.25 292.67,-821.76 290.43,-832.11 297.38,-831.25"/>
</g>
<!-- Node32 -->
<g id="node32" class="node">
<title>Node32</title>
<g id="a_node32"><a xlink:href="weight__importer__utils_8h.html" target="_top" xlink:title=" ">
<polygon fill="white" stroke="black" points="214.5,-702.5 214.5,-754.5 357.5,-754.5 357.5,-702.5 214.5,-702.5"/>
<text text-anchor="start" x="222.5" y="-742.5" font-family="Helvetica,sans-Serif" font-size="10.00">include/network_butcher</text>
<text text-anchor="start" x="222.5" y="-731.5" font-family="Helvetica,sans-Serif" font-size="10.00">/IO_Interaction/Weight</text>
<text text-anchor="start" x="222.5" y="-720.5" font-family="Helvetica,sans-Serif" font-size="10.00">_Importer_Helpers/weight</text>
<text text-anchor="middle" x="286" y="-709.5" font-family="Helvetica,sans-Serif" font-size="10.00">_importer_utils.h</text>
</a>
</g>
</g>
<!-- Node31&#45;&gt;Node32 -->
<g id="edge62" class="edge">
<title>Node31&#45;&gt;Node32</title>
<path fill="none" stroke="midnightblue" d="M286.68,-781.14C286.57,-772.63 286.44,-763.07 286.33,-754.5"/>
<polygon fill="midnightblue" stroke="midnightblue" points="283.18,-781.25 286.81,-791.2 290.18,-781.16 283.18,-781.25"/>
</g>
<!-- Node34 -->
<g id="node34" class="node">
<title>Node34</title>
<g id="a_node34"><a xlink:href="utilities_8cpp.html" target="_top" xlink:title=" ">
<polygon fill="white" stroke="black" points="66.5,-719 66.5,-738 157.5,-738 157.5,-719 66.5,-719"/>
<text text-anchor="middle" x="112" y="-726" font-family="Helvetica,sans-Serif" font-size="10.00">src/utilities.cpp</text>
</a>
</g>
</g>
<!-- Node31&#45;&gt;Node34 -->
<g id="edge68" class="edge">
<title>Node31&#45;&gt;Node34</title>
<path fill="none" stroke="midnightblue" d="M245.24,-787.37C209.37,-771.79 159.22,-750.01 131.82,-738.11"/>
<polygon fill="midnightblue" stroke="midnightblue" points="243.93,-790.61 254.49,-791.38 246.72,-784.19 243.93,-790.61"/>
</g>
<!-- Node32&#45;&gt;Node18 -->
<g id="edge63" class="edge">
<title>Node32&#45;&gt;Node18</title>
<path fill="none" stroke="midnightblue" d="M302.21,-693.13C318.34,-658.92 342.72,-607.23 357.13,-576.67"/>
<polygon fill="midnightblue" stroke="midnightblue" points="298.99,-691.75 297.89,-702.28 305.32,-694.73 298.99,-691.75"/>
</g>
<!-- Node32&#45;&gt;Node21 -->
<g id="edge64" class="edge">
<title>Node32&#45;&gt;Node21</title>
<path fill="none" stroke="midnightblue" d="M367.68,-700.58C401.61,-689.4 440.76,-676.5 474.07,-665.52"/>
<polygon fill="midnightblue" stroke="midnightblue" points="366.19,-697.39 357.79,-703.84 368.38,-704.04 366.19,-697.39"/>
</g>
<!-- Node33 -->
<g id="node33" class="node">
<title>Node33</title>
<g id="a_node33"><a xlink:href="weight__importer__utils_8cpp.html" target="_top" xlink:title=" ">
<polygon fill="white" stroke="black" points="114,-619 114,-660 260,-660 260,-619 114,-619"/>
<text text-anchor="start" x="122" y="-648" font-family="Helvetica,sans-Serif" font-size="10.00">src/IO_Interaction</text>
<text text-anchor="start" x="122" y="-637" font-family="Helvetica,sans-Serif" font-size="10.00">/Weight_Importer_Helpers</text>
<text text-anchor="middle" x="187" y="-626" font-family="Helvetica,sans-Serif" font-size="10.00">/weight_importer_utils.cpp</text>
</a>
</g>
</g>
<!-- Node32&#45;&gt;Node33 -->
<g id="edge65" class="edge">
<title>Node32&#45;&gt;Node33</title>
<path fill="none" stroke="midnightblue" d="M249.6,-695.51C236.09,-683.64 221.17,-670.53 209.28,-660.08"/>
<polygon fill="midnightblue" stroke="midnightblue" points="247.54,-698.36 257.37,-702.34 252.16,-693.11 247.54,-698.36"/>
</g>
</g>
</svg>
