<?xml version="1.0" encoding="UTF-8" standalone="no"?>
<!DOCTYPE svg PUBLIC "-//W3C//DTD SVG 1.1//EN"
 "http://www.w3.org/Graphics/SVG/1.1/DTD/svg11.dtd">
<!-- Generated by graphviz version 2.43.0 (0)
 -->
<!-- Title: include/Types/variant_attribute.h Pages: 1 -->
<!--zoomable 1245 -->
<svg id="main" version="1.1" xmlns="http://www.w3.org/2000/svg" xmlns:xlink="http://www.w3.org/1999/xlink" xml:space="preserve" onload="init(evt)">
<style type="text/css"><![CDATA[
.edge:hover path { stroke: red; }
.edge:hover polygon { stroke: red; fill: red; }
]]></style>
<script type="text/javascript"><![CDATA[
var edges = document.getElementsByTagName('g');
if (edges && edges.length) {
  for (var i=0;i<edges.length;i++) {
    if (edges[i].id.substr(0,4)=='edge') {
      edges[i].setAttribute('class','edge');
    }
  }
}
]]></script>
        <defs>
                <circle id="rim" cx="0" cy="0" r="7"/>
                <circle id="rim2" cx="0" cy="0" r="3.5"/>
                <g id="zoomPlus">
                        <use xlink:href="#rim" fill="#404040">
                                <set attributeName="fill" to="#808080" begin="zoomplus.mouseover" end="zoomplus.mouseout"/>
                        </use>
                        <path d="M-4,0h8M0,-4v8" fill="none" stroke="white" stroke-width="1.5" pointer-events="none"/>
                </g>
                <g id="zoomMin">
                        <use xlink:href="#rim" fill="#404040">
                                <set attributeName="fill" to="#808080" begin="zoomminus.mouseover" end="zoomminus.mouseout"/>
                        </use>
                        <path d="M-4,0h8" fill="none" stroke="white" stroke-width="1.5" pointer-events="none"/>
                </g>
                <g id="dirArrow">
                        <path fill="none" stroke="white" stroke-width="1.5" d="M0,-3.0v7 M-2.5,-0.5L0,-3.0L2.5,-0.5"/>
                </g>
               <g id="resetDef">
                       <use xlink:href="#rim2" fill="#404040">
                               <set attributeName="fill" to="#808080" begin="reset.mouseover" end="reset.mouseout"/>
                       </use>
               </g>
        </defs>

<script type="text/javascript">
var viewWidth = 1165;
var viewHeight = 1245;
var sectionId = 'dynsection-1';
</script>
<script xlink:href="svgpan.js"/>
<svg id="graph" class="graph">
<g id="viewport">
<title>include/Types/variant_attribute.h</title>
<polygon fill="white" stroke="transparent" points="-4,4 -4,-1241 1160.5,-1241 1160.5,4 -4,4"/>
<!-- Node1 -->
<g id="node1" class="node">
<title>Node1</title>
<g id="a_node1"><a xlink:title=" ">
<polygon fill="#bfbfbf" stroke="black" points="654,-1206.5 654,-1236.5 774,-1236.5 774,-1206.5 654,-1206.5"/>
<text text-anchor="start" x="662" y="-1224.5" font-family="Helvetica,sans-Serif" font-size="10.00">include/Types/variant</text>
<text text-anchor="middle" x="714" y="-1213.5" font-family="Helvetica,sans-Serif" font-size="10.00">_attribute.h</text>
</a>
</g>
</g>
<!-- Node2 -->
<g id="node2" class="node">
<title>Node2</title>
<g id="a_node2"><a xlink:href="content_8h.html" target="_top" xlink:title=" ">
<polygon fill="white" stroke="black" points="522.5,-1083.5 522.5,-1102.5 653.5,-1102.5 653.5,-1083.5 522.5,-1083.5"/>
<text text-anchor="middle" x="588" y="-1090.5" font-family="Helvetica,sans-Serif" font-size="10.00">include/Types/content.h</text>
</a>
</g>
</g>
<!-- Node1&#45;&gt;Node2 -->
<g id="edge1" class="edge">
<title>Node1&#45;&gt;Node2</title>
<path fill="none" stroke="midnightblue" d="M692.68,-1199.1C664.58,-1170.89 616.42,-1122.53 596.75,-1102.79"/>
<polygon fill="midnightblue" stroke="midnightblue" points="690.5,-1201.86 700.03,-1206.48 695.46,-1196.92 690.5,-1201.86"/>
</g>
<!-- Node30 -->
<g id="node30" class="node">
<title>Node30</title>
<g id="a_node30"><a xlink:href="dense__tensor_8h.html" target="_top" xlink:title=" ">
<polygon fill="white" stroke="black" points="731.5,-1139.5 731.5,-1169.5 846.5,-1169.5 846.5,-1139.5 731.5,-1139.5"/>
<text text-anchor="start" x="739.5" y="-1157.5" font-family="Helvetica,sans-Serif" font-size="10.00">include/Types/dense</text>
<text text-anchor="middle" x="789" y="-1146.5" font-family="Helvetica,sans-Serif" font-size="10.00">_tensor.h</text>
</a>
</g>
</g>
<!-- Node1&#45;&gt;Node30 -->
<g id="edge53" class="edge">
<title>Node1&#45;&gt;Node30</title>
<path fill="none" stroke="midnightblue" d="M738.12,-1199.6C749.44,-1189.78 762.64,-1178.34 772.76,-1169.58"/>
<polygon fill="midnightblue" stroke="midnightblue" points="735.54,-1197.2 730.27,-1206.4 740.12,-1202.49 735.54,-1197.2"/>
</g>
<!-- Node3 -->
<g id="node3" class="node">
<title>Node3</title>
<g id="a_node3"><a xlink:href="graph_8h.html" target="_top" xlink:title=" ">
<polygon fill="white" stroke="black" points="495,-960.5 495,-979.5 631,-979.5 631,-960.5 495,-960.5"/>
<text text-anchor="middle" x="563" y="-967.5" font-family="Helvetica,sans-Serif" font-size="10.00">include/Network/graph.h</text>
</a>
</g>
</g>
<!-- Node2&#45;&gt;Node3 -->
<g id="edge2" class="edge">
<title>Node2&#45;&gt;Node3</title>
<path fill="none" stroke="midnightblue" d="M583.78,-1073.49C581.96,-1065.37 579.83,-1055.72 578,-1047 572.92,-1022.78 567.39,-994.12 564.69,-979.91"/>
<polygon fill="midnightblue" stroke="midnightblue" points="580.4,-1074.41 586.02,-1083.39 587.23,-1072.86 580.4,-1074.41"/>
</g>
<!-- Node23 -->
<g id="node23" class="node">
<title>Node23</title>
<g id="a_node23"><a xlink:href="graph__traits_8h.html" target="_top" xlink:title=" ">
<polygon fill="white" stroke="black" points="340.5,-781.5 340.5,-811.5 467.5,-811.5 467.5,-781.5 340.5,-781.5"/>
<text text-anchor="start" x="348.5" y="-799.5" font-family="Helvetica,sans-Serif" font-size="10.00">include/Network/graph</text>
<text text-anchor="middle" x="404" y="-788.5" font-family="Helvetica,sans-Serif" font-size="10.00">_traits.h</text>
</a>
</g>
</g>
<!-- Node2&#45;&gt;Node23 -->
<g id="edge52" class="edge">
<title>Node2&#45;&gt;Node23</title>
<path fill="none" stroke="midnightblue" d="M534.53,-1080.85C480.2,-1066.02 404,-1033.99 404,-971 404,-971 404,-971 404,-913 404,-876.51 404,-833.52 404,-811.72"/>
<polygon fill="midnightblue" stroke="midnightblue" points="533.83,-1084.28 544.39,-1083.42 535.6,-1077.51 533.83,-1084.28"/>
</g>
<!-- Node29 -->
<g id="node29" class="node">
<title>Node29</title>
<g id="a_node29"><a xlink:href="node__traits_8h.html" target="_top" xlink:title=" ">
<polygon fill="white" stroke="black" points="586.5,-1016.5 586.5,-1046.5 709.5,-1046.5 709.5,-1016.5 586.5,-1016.5"/>
<text text-anchor="start" x="594.5" y="-1034.5" font-family="Helvetica,sans-Serif" font-size="10.00">include/Network/node</text>
<text text-anchor="middle" x="648" y="-1023.5" font-family="Helvetica,sans-Serif" font-size="10.00">_traits.h</text>
</a>
</g>
</g>
<!-- Node2&#45;&gt;Node29 -->
<g id="edge50" class="edge">
<title>Node2&#45;&gt;Node29</title>
<path fill="none" stroke="midnightblue" d="M603.76,-1076.37C613.1,-1067.11 624.82,-1055.48 633.86,-1046.52"/>
<polygon fill="midnightblue" stroke="midnightblue" points="601.23,-1073.95 596.6,-1083.48 606.16,-1078.92 601.23,-1073.95"/>
</g>
<!-- Node4 -->
<g id="node4" class="node">
<title>Node4</title>
<g id="a_node4"><a xlink:href="mwgraph_8h.html" target="_top" xlink:title=" ">
<polygon fill="white" stroke="black" points="486,-904.5 486,-923.5 640,-923.5 640,-904.5 486,-904.5"/>
<text text-anchor="middle" x="563" y="-911.5" font-family="Helvetica,sans-Serif" font-size="10.00">include/Network/mwgraph.h</text>
</a>
</g>
</g>
<!-- Node3&#45;&gt;Node4 -->
<g id="edge3" class="edge">
<title>Node3&#45;&gt;Node4</title>
<path fill="none" stroke="midnightblue" d="M563,-949.8C563,-940.91 563,-930.78 563,-923.75"/>
<polygon fill="midnightblue" stroke="midnightblue" points="559.5,-950.08 563,-960.08 566.5,-950.08 559.5,-950.08"/>
</g>
<!-- Node3&#45;&gt;Node23 -->
<g id="edge49" class="edge">
<title>Node3&#45;&gt;Node23</title>
<path fill="none" stroke="midnightblue" d="M528.84,-956.47C511.8,-948.98 491.74,-938.14 477,-924 442.24,-890.64 418.86,-837.12 409.12,-811.74"/>
<polygon fill="midnightblue" stroke="midnightblue" points="527.88,-959.87 538.46,-960.5 530.59,-953.41 527.88,-959.87"/>
</g>
<!-- Node5 -->
<g id="node5" class="node">
<title>Node5</title>
<g id="a_node5"><a xlink:href="wgraph_8h.html" target="_top" xlink:title=" ">
<polygon fill="white" stroke="black" points="508,-848.5 508,-867.5 652,-867.5 652,-848.5 508,-848.5"/>
<text text-anchor="middle" x="580" y="-855.5" font-family="Helvetica,sans-Serif" font-size="10.00">include/Network/wgraph.h</text>
</a>
</g>
</g>
<!-- Node4&#45;&gt;Node5 -->
<g id="edge4" class="edge">
<title>Node4&#45;&gt;Node5</title>
<path fill="none" stroke="midnightblue" d="M568.86,-894.4C571.7,-885.36 574.98,-874.94 577.25,-867.75"/>
<polygon fill="midnightblue" stroke="midnightblue" points="565.47,-893.49 565.81,-904.08 572.15,-895.6 565.47,-893.49"/>
</g>
<!-- Node4&#45;&gt;Node23 -->
<g id="edge48" class="edge">
<title>Node4&#45;&gt;Node23</title>
<path fill="none" stroke="midnightblue" d="M542.26,-898.61C529.68,-889.85 513.35,-878.37 499,-868 472.36,-848.76 441.91,-826.03 422.82,-811.69"/>
<polygon fill="midnightblue" stroke="midnightblue" points="540.46,-901.63 550.66,-904.47 544.46,-895.88 540.46,-901.63"/>
</g>
<!-- Node6 -->
<g id="node6" class="node">
<title>Node6</title>
<g id="a_node6"><a xlink:href="computer__memory_8h.html" target="_top" xlink:title=" ">
<polygon fill="white" stroke="black" points="618,-653 618,-683 770,-683 770,-653 618,-653"/>
<text text-anchor="start" x="626" y="-671" font-family="Helvetica,sans-Serif" font-size="10.00">include/Computer/computer</text>
<text text-anchor="middle" x="694" y="-660" font-family="Helvetica,sans-Serif" font-size="10.00">_memory.h</text>
</a>
</g>
</g>
<!-- Node5&#45;&gt;Node6 -->
<g id="edge5" class="edge">
<title>Node5&#45;&gt;Node6</title>
<path fill="none" stroke="midnightblue" d="M590.42,-839.81C612.74,-803.01 664.79,-717.17 685.39,-683.2"/>
<polygon fill="midnightblue" stroke="midnightblue" points="587.39,-838.07 585.19,-848.43 593.37,-841.7 587.39,-838.07"/>
</g>
<!-- Node5&#45;&gt;Node23 -->
<g id="edge29" class="edge">
<title>Node5&#45;&gt;Node23</title>
<path fill="none" stroke="midnightblue" d="M545.19,-845.23C516.53,-835.54 475.82,-821.78 445.48,-811.52"/>
<polygon fill="midnightblue" stroke="midnightblue" points="544.19,-848.59 554.78,-848.48 546.43,-841.96 544.19,-848.59"/>
</g>
<!-- Node7 -->
<g id="node7" class="node">
<title>Node7</title>
<g id="a_node7"><a xlink:href="butcher_8h.html" target="_top" xlink:title=" ">
<polygon fill="white" stroke="black" points="322,-268.5 322,-287.5 462,-287.5 462,-268.5 322,-268.5"/>
<text text-anchor="middle" x="392" y="-275.5" font-family="Helvetica,sans-Serif" font-size="10.00">include/Butcher/butcher.h</text>
</a>
</g>
</g>
<!-- Node6&#45;&gt;Node7 -->
<g id="edge6" class="edge">
<title>Node6&#45;&gt;Node7</title>
<path fill="none" stroke="midnightblue" d="M703.35,-643.14C721.81,-591.72 756.63,-468.82 702,-391 648,-314.07 535.68,-289.75 462.11,-282.2"/>
<polygon fill="midnightblue" stroke="midnightblue" points="700,-642.12 699.8,-652.71 706.56,-644.55 700,-642.12"/>
</g>
<!-- Node13 -->
<g id="node13" class="node">
<title>Node13</title>
<g id="a_node13"><a xlink:href="network__butcher_8h.html" target="_top" xlink:title=" ">
<polygon fill="white" stroke="black" points="743.5,-56.5 743.5,-75.5 888.5,-75.5 888.5,-56.5 743.5,-56.5"/>
<text text-anchor="middle" x="816" y="-63.5" font-family="Helvetica,sans-Serif" font-size="10.00">include/network_butcher.h</text>
</a>
</g>
</g>
<!-- Node6&#45;&gt;Node13 -->
<g id="edge28" class="edge">
<title>Node6&#45;&gt;Node13</title>
<path fill="none" stroke="midnightblue" d="M712.36,-644.66C719.67,-634.83 727.62,-622.85 733,-611 795.94,-472.54 816,-431.1 816,-279 816,-279 816,-279 816,-210 816,-159.11 816,-98.02 816,-75.71"/>
<polygon fill="midnightblue" stroke="midnightblue" points="709.51,-642.63 706.17,-652.69 715.05,-646.9 709.51,-642.63"/>
</g>
<!-- Node18 -->
<g id="node18" class="node">
<title>Node18</title>
<g id="a_node18"><a xlink:href="graph__constraint_8h.html" target="_top" xlink:title=" ">
<polygon fill="white" stroke="black" points="294.5,-575 294.5,-605 417.5,-605 417.5,-575 294.5,-575"/>
<text text-anchor="start" x="302.5" y="-593" font-family="Helvetica,sans-Serif" font-size="10.00">include/Butcher/graph</text>
<text text-anchor="middle" x="356" y="-582" font-family="Helvetica,sans-Serif" font-size="10.00">_constraint.h</text>
</a>
</g>
</g>
<!-- Node6&#45;&gt;Node18 -->
<g id="edge19" class="edge">
<title>Node6&#45;&gt;Node18</title>
<path fill="none" stroke="midnightblue" d="M609.71,-651.01C556.75,-640.56 487.13,-626.1 426,-611 418.64,-609.18 410.88,-607.12 403.32,-605.02"/>
<polygon fill="midnightblue" stroke="midnightblue" points="609.25,-654.49 619.73,-652.98 610.6,-647.62 609.25,-654.49"/>
</g>
<!-- Node20 -->
<g id="node20" class="node">
<title>Node20</title>
<g id="a_node20"><a xlink:href="block__aMLLibrary__weight__importer_8h.html" target="_top" xlink:title=" ">
<polygon fill="white" stroke="black" points="549.5,-480.5 549.5,-532.5 692.5,-532.5 692.5,-480.5 549.5,-480.5"/>
<text text-anchor="start" x="557.5" y="-520.5" font-family="Helvetica,sans-Serif" font-size="10.00">include/IO_Interaction</text>
<text text-anchor="start" x="557.5" y="-509.5" font-family="Helvetica,sans-Serif" font-size="10.00">/Weight_Importer_Helpers</text>
<text text-anchor="start" x="557.5" y="-498.5" font-family="Helvetica,sans-Serif" font-size="10.00">/block_aMLLibrary_weight</text>
<text text-anchor="middle" x="621" y="-487.5" font-family="Helvetica,sans-Serif" font-size="10.00">_importer.h</text>
</a>
</g>
</g>
<!-- Node6&#45;&gt;Node20 -->
<g id="edge22" class="edge">
<title>Node6&#45;&gt;Node20</title>
<path fill="none" stroke="midnightblue" d="M683.33,-643.69C669.79,-614.1 646.52,-563.26 632.57,-532.77"/>
<polygon fill="midnightblue" stroke="midnightblue" points="680.18,-645.21 687.52,-652.85 686.54,-642.3 680.18,-645.21"/>
</g>
<!-- Node8 -->
<g id="node8" class="node">
<title>Node8</title>
<g id="a_node8"><a xlink:href="onnx__importer__helpers_8h.html" target="_top" xlink:title=" ">
<polygon fill="white" stroke="black" points="62.5,-196 62.5,-226 203.5,-226 203.5,-196 62.5,-196"/>
<text text-anchor="start" x="70.5" y="-214" font-family="Helvetica,sans-Serif" font-size="10.00">include/IO_Interaction</text>
<text text-anchor="middle" x="133" y="-203" font-family="Helvetica,sans-Serif" font-size="10.00">/onnx_importer_helpers.h</text>
</a>
</g>
</g>
<!-- Node7&#45;&gt;Node8 -->
<g id="edge7" class="edge">
<title>Node7&#45;&gt;Node8</title>
<path fill="none" stroke="midnightblue" d="M348.08,-265.98C304.24,-254.97 236.7,-238.02 189.02,-226.06"/>
<polygon fill="midnightblue" stroke="midnightblue" points="347.32,-269.4 357.87,-268.44 349.03,-262.61 347.32,-269.4"/>
</g>
<!-- Node7&#45;&gt;Node13 -->
<g id="edge18" class="edge">
<title>Node7&#45;&gt;Node13</title>
<path fill="none" stroke="midnightblue" d="M418.77,-263.74C498.5,-224.25 732.93,-108.15 798.68,-75.58"/>
<polygon fill="midnightblue" stroke="midnightblue" points="416.82,-260.8 409.41,-268.38 419.93,-267.07 416.82,-260.8"/>
</g>
<!-- Node16 -->
<g id="node16" class="node">
<title>Node16</title>
<g id="a_node16"><a xlink:href="onnx__model__reconstructor__helpers_8h.html" target="_top" xlink:title=" ">
<polygon fill="white" stroke="black" points="317.5,-190.5 317.5,-231.5 466.5,-231.5 466.5,-190.5 317.5,-190.5"/>
<text text-anchor="start" x="325.5" y="-219.5" font-family="Helvetica,sans-Serif" font-size="10.00">include/IO_Interaction</text>
<text text-anchor="start" x="325.5" y="-208.5" font-family="Helvetica,sans-Serif" font-size="10.00">/onnx_model_reconstructor</text>
<text text-anchor="middle" x="392" y="-197.5" font-family="Helvetica,sans-Serif" font-size="10.00">_helpers.h</text>
</a>
</g>
</g>
<!-- Node7&#45;&gt;Node16 -->
<g id="edge15" class="edge">
<title>Node7&#45;&gt;Node16</title>
<path fill="none" stroke="midnightblue" d="M392,-258.04C392,-249.71 392,-239.94 392,-231.54"/>
<polygon fill="midnightblue" stroke="midnightblue" points="388.5,-258.23 392,-268.23 395.5,-258.23 388.5,-258.23"/>
</g>
<!-- Node9 -->
<g id="node9" class="node">
<title>Node9</title>
<g id="a_node9"><a xlink:href="io__manager_8h.html" target="_top" xlink:title=" ">
<polygon fill="white" stroke="black" points="331.5,-123.5 331.5,-142.5 452.5,-142.5 452.5,-123.5 331.5,-123.5"/>
<text text-anchor="middle" x="392" y="-130.5" font-family="Helvetica,sans-Serif" font-size="10.00">include/io_manager.h</text>
</a>
</g>
</g>
<!-- Node8&#45;&gt;Node9 -->
<g id="edge8" class="edge">
<title>Node8&#45;&gt;Node9</title>
<path fill="none" stroke="midnightblue" d="M190.49,-193.13C243.93,-177.45 321.36,-154.73 362.96,-142.52"/>
<polygon fill="midnightblue" stroke="midnightblue" points="189.42,-189.8 180.81,-195.97 191.39,-196.51 189.42,-189.8"/>
</g>
<!-- Node15 -->
<g id="node15" class="node">
<title>Node15</title>
<g id="a_node15"><a xlink:href="onnx__importer__helpers_8cpp.html" target="_top" xlink:title=" ">
<polygon fill="white" stroke="black" points="57,-118 57,-148 209,-148 209,-118 57,-118"/>
<text text-anchor="start" x="65" y="-136" font-family="Helvetica,sans-Serif" font-size="10.00">src/IO_Interaction</text>
<text text-anchor="middle" x="133" y="-125" font-family="Helvetica,sans-Serif" font-size="10.00">/onnx_importer_helpers.cpp</text>
</a>
</g>
</g>
<!-- Node8&#45;&gt;Node15 -->
<g id="edge14" class="edge">
<title>Node8&#45;&gt;Node15</title>
<path fill="none" stroke="midnightblue" d="M133,-185.59C133,-173.26 133,-158.72 133,-148.23"/>
<polygon fill="midnightblue" stroke="midnightblue" points="129.5,-185.7 133,-195.7 136.5,-185.71 129.5,-185.7"/>
</g>
<!-- Node10 -->
<g id="node10" class="node">
<title>Node10</title>
<g id="a_node10"><a xlink:href="general__manager_8h.html" target="_top" xlink:title=" ">
<polygon fill="white" stroke="black" points="391.5,-56.5 391.5,-75.5 540.5,-75.5 540.5,-56.5 391.5,-56.5"/>
<text text-anchor="middle" x="466" y="-63.5" font-family="Helvetica,sans-Serif" font-size="10.00">include/general_manager.h</text>
</a>
</g>
</g>
<!-- Node9&#45;&gt;Node10 -->
<g id="edge9" class="edge">
<title>Node9&#45;&gt;Node10</title>
<path fill="none" stroke="midnightblue" d="M409.81,-116.36C424.36,-103.58 444.38,-85.99 456.18,-75.63"/>
<polygon fill="midnightblue" stroke="midnightblue" points="407.18,-114 401.98,-123.23 411.8,-119.26 407.18,-114"/>
</g>
<!-- Node9&#45;&gt;Node13 -->
<g id="edge12" class="edge">
<title>Node9&#45;&gt;Node13</title>
<path fill="none" stroke="midnightblue" d="M427.95,-120.6C438.81,-117.46 450.81,-114.3 462,-112 558.34,-92.23 671.33,-79.68 743.27,-72.99"/>
<polygon fill="midnightblue" stroke="midnightblue" points="426.95,-117.24 418.36,-123.44 428.94,-123.95 426.95,-117.24"/>
</g>
<!-- Node14 -->
<g id="node14" class="node">
<title>Node14</title>
<g id="a_node14"><a xlink:href="io__manager_8cpp.html" target="_top" xlink:title=" ">
<polygon fill="white" stroke="black" points="262.5,-56.5 262.5,-75.5 373.5,-75.5 373.5,-56.5 262.5,-56.5"/>
<text text-anchor="middle" x="318" y="-63.5" font-family="Helvetica,sans-Serif" font-size="10.00">src/io_manager.cpp</text>
</a>
</g>
</g>
<!-- Node9&#45;&gt;Node14 -->
<g id="edge13" class="edge">
<title>Node9&#45;&gt;Node14</title>
<path fill="none" stroke="midnightblue" d="M374.19,-116.36C359.64,-103.58 339.62,-85.99 327.82,-75.63"/>
<polygon fill="midnightblue" stroke="midnightblue" points="372.2,-119.26 382.02,-123.23 376.82,-114 372.2,-119.26"/>
</g>
<!-- Node11 -->
<g id="node11" class="node">
<title>Node11</title>
<g id="a_node11"><a xlink:href="general__manager_8cpp.html" target="_top" xlink:title=" ">
<polygon fill="white" stroke="black" points="333.5,-0.5 333.5,-19.5 472.5,-19.5 472.5,-0.5 333.5,-0.5"/>
<text text-anchor="middle" x="403" y="-7.5" font-family="Helvetica,sans-Serif" font-size="10.00">src/general_manager.cpp</text>
</a>
</g>
</g>
<!-- Node10&#45;&gt;Node11 -->
<g id="edge10" class="edge">
<title>Node10&#45;&gt;Node11</title>
<path fill="none" stroke="midnightblue" d="M447.96,-49.54C436.73,-39.91 422.68,-27.87 413.31,-19.83"/>
<polygon fill="midnightblue" stroke="midnightblue" points="446.01,-52.47 455.88,-56.32 450.56,-47.16 446.01,-52.47"/>
</g>
<!-- Node12 -->
<g id="node12" class="node">
<title>Node12</title>
<g id="a_node12"><a xlink:href="main_8cpp.html" target="_top" xlink:title=" ">
<polygon fill="white" stroke="black" points="490.5,-0.5 490.5,-19.5 569.5,-19.5 569.5,-0.5 490.5,-0.5"/>
<text text-anchor="middle" x="530" y="-7.5" font-family="Helvetica,sans-Serif" font-size="10.00">src/main.cpp</text>
</a>
</g>
</g>
<!-- Node10&#45;&gt;Node12 -->
<g id="edge11" class="edge">
<title>Node10&#45;&gt;Node12</title>
<path fill="none" stroke="midnightblue" d="M483.99,-49.82C495.46,-40.15 509.91,-27.95 519.53,-19.83"/>
<polygon fill="midnightblue" stroke="midnightblue" points="481.67,-47.2 476.28,-56.32 486.18,-52.55 481.67,-47.2"/>
</g>
<!-- Node16&#45;&gt;Node9 -->
<g id="edge16" class="edge">
<title>Node16&#45;&gt;Node9</title>
<path fill="none" stroke="midnightblue" d="M392,-180.05C392,-166.56 392,-151.65 392,-142.55"/>
<polygon fill="midnightblue" stroke="midnightblue" points="388.5,-180.43 392,-190.43 395.5,-180.43 388.5,-180.43"/>
</g>
<!-- Node17 -->
<g id="node17" class="node">
<title>Node17</title>
<g id="a_node17"><a xlink:href="onnx__model__reconstructor__helpers_8cpp.html" target="_top" xlink:title=" ">
<polygon fill="white" stroke="black" points="470.5,-112.5 470.5,-153.5 619.5,-153.5 619.5,-112.5 470.5,-112.5"/>
<text text-anchor="start" x="478.5" y="-141.5" font-family="Helvetica,sans-Serif" font-size="10.00">src/IO_Interaction</text>
<text text-anchor="start" x="478.5" y="-130.5" font-family="Helvetica,sans-Serif" font-size="10.00">/onnx_model_reconstructor</text>
<text text-anchor="middle" x="545" y="-119.5" font-family="Helvetica,sans-Serif" font-size="10.00">_helpers.cpp</text>
</a>
</g>
</g>
<!-- Node16&#45;&gt;Node17 -->
<g id="edge17" class="edge">
<title>Node16&#45;&gt;Node17</title>
<path fill="none" stroke="midnightblue" d="M440.5,-185.91C461.54,-175.46 485.85,-163.38 505.73,-153.51"/>
<polygon fill="midnightblue" stroke="midnightblue" points="438.8,-182.84 431.4,-190.43 441.91,-189.11 438.8,-182.84"/>
</g>
<!-- Node19 -->
<g id="node19" class="node">
<title>Node19</title>
<g id="a_node19"><a xlink:href="constrained__block__graph__builder_8h.html" target="_top" xlink:title=" ">
<polygon fill="white" stroke="black" points="316,-324.5 316,-354.5 468,-354.5 468,-324.5 316,-324.5"/>
<text text-anchor="start" x="324" y="-342.5" font-family="Helvetica,sans-Serif" font-size="10.00">include/Butcher/constrained</text>
<text text-anchor="middle" x="392" y="-331.5" font-family="Helvetica,sans-Serif" font-size="10.00">_block_graph_builder.h</text>
</a>
</g>
</g>
<!-- Node18&#45;&gt;Node19 -->
<g id="edge20" class="edge">
<title>Node18&#45;&gt;Node19</title>
<path fill="none" stroke="midnightblue" d="M357.92,-564.69C359.79,-542.55 362.94,-509.01 367,-480 373.44,-433.95 384,-379.86 389.08,-354.7"/>
<polygon fill="midnightblue" stroke="midnightblue" points="354.41,-564.6 357.08,-574.85 361.39,-565.17 354.41,-564.6"/>
</g>
<!-- Node19&#45;&gt;Node7 -->
<g id="edge21" class="edge">
<title>Node19&#45;&gt;Node7</title>
<path fill="none" stroke="midnightblue" d="M392,-314.29C392,-304.86 392,-294.65 392,-287.66"/>
<polygon fill="midnightblue" stroke="midnightblue" points="388.5,-314.4 392,-324.4 395.5,-314.4 388.5,-314.4"/>
</g>
<!-- Node21 -->
<g id="node21" class="node">
<title>Node21</title>
<g id="a_node21"><a xlink:href="weight__importers_8h.html" target="_top" xlink:title=" ">
<polygon fill="white" stroke="black" points="408.5,-402.5 408.5,-432.5 531.5,-432.5 531.5,-402.5 408.5,-402.5"/>
<text text-anchor="start" x="416.5" y="-420.5" font-family="Helvetica,sans-Serif" font-size="10.00">include/IO_Interaction</text>
<text text-anchor="middle" x="470" y="-409.5" font-family="Helvetica,sans-Serif" font-size="10.00">/weight_importers.h</text>
</a>
</g>
</g>
<!-- Node20&#45;&gt;Node21 -->
<g id="edge23" class="edge">
<title>Node20&#45;&gt;Node21</title>
<path fill="none" stroke="midnightblue" d="M568.58,-475.3C543.35,-460.76 514.32,-444.03 494.33,-432.52"/>
<polygon fill="midnightblue" stroke="midnightblue" points="566.91,-478.38 577.32,-480.34 570.41,-472.31 566.91,-478.38"/>
</g>
<!-- Node22 -->
<g id="node22" class="node">
<title>Node22</title>
<g id="a_node22"><a xlink:href="block__aMLLibrary__weight__importer_8cpp.html" target="_top" xlink:title=" ">
<polygon fill="white" stroke="black" points="549.5,-391.5 549.5,-443.5 692.5,-443.5 692.5,-391.5 549.5,-391.5"/>
<text text-anchor="start" x="557.5" y="-431.5" font-family="Helvetica,sans-Serif" font-size="10.00">src/IO_Interaction</text>
<text text-anchor="start" x="557.5" y="-420.5" font-family="Helvetica,sans-Serif" font-size="10.00">/Weight_Importer_Helpers</text>
<text text-anchor="start" x="557.5" y="-409.5" font-family="Helvetica,sans-Serif" font-size="10.00">/block_aMLLibrary_weight</text>
<text text-anchor="middle" x="621" y="-398.5" font-family="Helvetica,sans-Serif" font-size="10.00">_importer.cpp</text>
</a>
</g>
</g>
<!-- Node20&#45;&gt;Node22 -->
<g id="edge27" class="edge">
<title>Node20&#45;&gt;Node22</title>
<path fill="none" stroke="midnightblue" d="M621,-470.19C621,-461.28 621,-451.9 621,-443.61"/>
<polygon fill="midnightblue" stroke="midnightblue" points="617.5,-470.34 621,-480.34 624.5,-470.34 617.5,-470.34"/>
</g>
<!-- Node21&#45;&gt;Node7 -->
<g id="edge25" class="edge">
<title>Node21&#45;&gt;Node7</title>
<path fill="none" stroke="midnightblue" d="M478.93,-392.99C484.87,-373.17 489.52,-344.8 477,-324 465.89,-305.55 444.39,-294.26 425.8,-287.61"/>
<polygon fill="midnightblue" stroke="midnightblue" points="475.61,-391.89 475.79,-402.49 482.25,-394.09 475.61,-391.89"/>
</g>
<!-- Node21&#45;&gt;Node9 -->
<g id="edge26" class="edge">
<title>Node21&#45;&gt;Node9</title>
<path fill="none" stroke="midnightblue" d="M481.47,-393.17C486.38,-381.92 491.54,-368.07 494,-355 503.75,-303.17 490.32,-214.49 475,-190 460.71,-167.16 433.3,-151.45 413.89,-142.61"/>
<polygon fill="midnightblue" stroke="midnightblue" points="478.28,-391.74 477.3,-402.29 484.64,-394.65 478.28,-391.74"/>
</g>
<!-- Node21&#45;&gt;Node19 -->
<g id="edge24" class="edge">
<title>Node21&#45;&gt;Node19</title>
<path fill="none" stroke="midnightblue" d="M447.97,-395.03C434.73,-382.13 418.24,-366.07 406.61,-354.73"/>
<polygon fill="midnightblue" stroke="midnightblue" points="445.72,-397.73 455.33,-402.2 450.61,-392.72 445.72,-397.73"/>
</g>
<!-- Node23&#45;&gt;Node7 -->
<g id="edge30" class="edge">
<title>Node23&#45;&gt;Node7</title>
<path fill="none" stroke="midnightblue" d="M330,-785.11C283.35,-776.88 229.31,-763.63 215,-745 157.19,-669.72 221.06,-392.27 287,-324 304.84,-305.53 331.5,-294.23 353.49,-287.57"/>
<polygon fill="midnightblue" stroke="midnightblue" points="329.69,-788.61 340.13,-786.84 330.87,-781.71 329.69,-788.61"/>
</g>
<!-- Node23&#45;&gt;Node8 -->
<g id="edge34" class="edge">
<title>Node23&#45;&gt;Node8</title>
<path fill="none" stroke="midnightblue" d="M330.5,-787.7C214,-773.28 0,-737.47 0,-669 0,-669 0,-669 0,-338.5 0,-283.53 60.39,-245.2 99.78,-226.05"/>
<polygon fill="midnightblue" stroke="midnightblue" points="330.08,-791.18 340.43,-788.91 330.93,-784.23 330.08,-791.18"/>
</g>
<!-- Node23&#45;&gt;Node13 -->
<g id="edge42" class="edge">
<title>Node23&#45;&gt;Node13</title>
<path fill="none" stroke="midnightblue" d="M477.72,-783.1C621,-758.68 924.56,-705.35 941,-689 972.52,-657.65 961,-635.45 961,-591 961,-591 961,-591 961,-210 961,-140.88 876.44,-93.93 836.47,-75.6"/>
<polygon fill="midnightblue" stroke="midnightblue" points="476.96,-779.67 467.69,-784.8 478.13,-786.58 476.96,-779.67"/>
</g>
<!-- Node23&#45;&gt;Node16 -->
<g id="edge35" class="edge">
<title>Node23&#45;&gt;Node16</title>
<path fill="none" stroke="midnightblue" d="M330.48,-791.05C279.42,-785.49 211.12,-773.01 157,-745 113.16,-722.31 76,-718.37 76,-669 76,-669 76,-669 76,-338.5 76,-286.79 223.67,-246.67 317.11,-226.45"/>
<polygon fill="midnightblue" stroke="midnightblue" points="330.15,-794.53 340.45,-792.07 330.86,-787.57 330.15,-794.53"/>
</g>
<!-- Node23&#45;&gt;Node18 -->
<g id="edge31" class="edge">
<title>Node23&#45;&gt;Node18</title>
<path fill="none" stroke="midnightblue" d="M398.38,-771.58C388.3,-728.62 367.43,-639.7 359.32,-605.15"/>
<polygon fill="midnightblue" stroke="midnightblue" points="395.01,-772.51 400.7,-781.44 401.82,-770.91 395.01,-772.51"/>
</g>
<!-- Node24 -->
<g id="node24" class="node">
<title>Node24</title>
<g id="a_node24"><a xlink:href="path__converter_8h.html" target="_top" xlink:title=" ">
<polygon fill="white" stroke="black" points="104.5,-324.5 104.5,-354.5 221.5,-354.5 221.5,-324.5 104.5,-324.5"/>
<text text-anchor="start" x="112.5" y="-342.5" font-family="Helvetica,sans-Serif" font-size="10.00">include/Butcher/path</text>
<text text-anchor="middle" x="163" y="-331.5" font-family="Helvetica,sans-Serif" font-size="10.00">_converter.h</text>
</a>
</g>
</g>
<!-- Node23&#45;&gt;Node24 -->
<g id="edge32" class="edge">
<title>Node23&#45;&gt;Node24</title>
<path fill="none" stroke="midnightblue" d="M330.08,-787.18C272.37,-779.26 198.35,-765.47 176,-745 149.88,-721.08 152,-704.42 152,-669 152,-669 152,-669 152,-505.5 152,-449.52 158.38,-383.08 161.42,-354.6"/>
<polygon fill="midnightblue" stroke="midnightblue" points="329.91,-790.69 340.29,-788.55 330.84,-783.75 329.91,-790.69"/>
</g>
<!-- Node25 -->
<g id="node25" class="node">
<title>Node25</title>
<g id="a_node25"><a xlink:href="weight__importer_8h.html" target="_top" xlink:title=" ">
<polygon fill="white" stroke="black" points="434.5,-647.5 434.5,-688.5 577.5,-688.5 577.5,-647.5 434.5,-647.5"/>
<text text-anchor="start" x="442.5" y="-676.5" font-family="Helvetica,sans-Serif" font-size="10.00">include/IO_Interaction</text>
<text text-anchor="start" x="442.5" y="-665.5" font-family="Helvetica,sans-Serif" font-size="10.00">/Weight_Importer_Helpers</text>
<text text-anchor="middle" x="506" y="-654.5" font-family="Helvetica,sans-Serif" font-size="10.00">/weight_importer.h</text>
</a>
</g>
</g>
<!-- Node23&#45;&gt;Node25 -->
<g id="edge36" class="edge">
<title>Node23&#45;&gt;Node25</title>
<path fill="none" stroke="midnightblue" d="M421.6,-773.68C440.83,-749.83 471.37,-711.95 489.96,-688.89"/>
<polygon fill="midnightblue" stroke="midnightblue" points="418.86,-771.5 415.31,-781.48 424.31,-775.89 418.86,-771.5"/>
</g>
<!-- Node28 -->
<g id="node28" class="node">
<title>Node28</title>
<g id="a_node28"><a xlink:href="parameters_8h.html" target="_top" xlink:title=" ">
<polygon fill="white" stroke="black" points="224.5,-725.5 224.5,-744.5 375.5,-744.5 375.5,-725.5 224.5,-725.5"/>
<text text-anchor="middle" x="300" y="-732.5" font-family="Helvetica,sans-Serif" font-size="10.00">include/Types/parameters.h</text>
</a>
</g>
</g>
<!-- Node23&#45;&gt;Node28 -->
<g id="edge43" class="edge">
<title>Node23&#45;&gt;Node28</title>
<path fill="none" stroke="midnightblue" d="M370.55,-776.36C351.9,-765.69 329.6,-752.93 315.13,-744.66"/>
<polygon fill="midnightblue" stroke="midnightblue" points="368.94,-779.47 379.35,-781.4 372.41,-773.4 368.94,-779.47"/>
</g>
<!-- Node24&#45;&gt;Node7 -->
<g id="edge33" class="edge">
<title>Node24&#45;&gt;Node7</title>
<path fill="none" stroke="midnightblue" d="M226.8,-321.92C269.84,-310.74 324.85,-296.45 359.26,-287.51"/>
<polygon fill="midnightblue" stroke="midnightblue" points="225.78,-318.57 216.98,-324.47 227.54,-325.35 225.78,-318.57"/>
</g>
<!-- Node25&#45;&gt;Node20 -->
<g id="edge37" class="edge">
<title>Node25&#45;&gt;Node20</title>
<path fill="none" stroke="midnightblue" d="M553.99,-641.95C566.49,-633.53 578.96,-623.13 588,-611 605.35,-587.71 613.77,-554.98 617.72,-532.61"/>
<polygon fill="midnightblue" stroke="midnightblue" points="551.92,-639.12 545.38,-647.46 555.69,-645.02 551.92,-639.12"/>
</g>
<!-- Node26 -->
<g id="node26" class="node">
<title>Node26</title>
<g id="a_node26"><a xlink:href="csv__weight__importer_8h.html" target="_top" xlink:title=" ">
<polygon fill="white" stroke="black" points="435.5,-569.5 435.5,-610.5 578.5,-610.5 578.5,-569.5 435.5,-569.5"/>
<text text-anchor="start" x="443.5" y="-598.5" font-family="Helvetica,sans-Serif" font-size="10.00">include/IO_Interaction</text>
<text text-anchor="start" x="443.5" y="-587.5" font-family="Helvetica,sans-Serif" font-size="10.00">/Weight_Importer_Helpers</text>
<text text-anchor="middle" x="507" y="-576.5" font-family="Helvetica,sans-Serif" font-size="10.00">/csv_weight_importer.h</text>
</a>
</g>
</g>
<!-- Node25&#45;&gt;Node26 -->
<g id="edge38" class="edge">
<title>Node25&#45;&gt;Node26</title>
<path fill="none" stroke="midnightblue" d="M506.39,-637.3C506.51,-628.3 506.64,-618.65 506.74,-610.51"/>
<polygon fill="midnightblue" stroke="midnightblue" points="502.89,-637.38 506.26,-647.43 509.89,-637.48 502.89,-637.38"/>
</g>
<!-- Node26&#45;&gt;Node20 -->
<g id="edge39" class="edge">
<title>Node26&#45;&gt;Node20</title>
<path fill="none" stroke="midnightblue" d="M542.57,-563.57C556.31,-553.74 572,-542.53 585.71,-532.73"/>
<polygon fill="midnightblue" stroke="midnightblue" points="540.41,-560.82 534.31,-569.48 544.48,-566.51 540.41,-560.82"/>
</g>
<!-- Node26&#45;&gt;Node21 -->
<g id="edge40" class="edge">
<title>Node26&#45;&gt;Node21</title>
<path fill="none" stroke="midnightblue" d="M436.4,-565.9C410.76,-555.98 386.27,-544.12 379,-533 366.11,-513.29 367.95,-500.8 379,-480 390.63,-458.11 413.91,-442.59 434.02,-432.62"/>
<polygon fill="midnightblue" stroke="midnightblue" points="435.27,-569.22 445.86,-569.47 437.74,-562.67 435.27,-569.22"/>
</g>
<!-- Node27 -->
<g id="node27" class="node">
<title>Node27</title>
<g id="a_node27"><a xlink:href="csv__weight__importer_8cpp.html" target="_top" xlink:title=" ">
<polygon fill="white" stroke="black" points="388.5,-486 388.5,-527 531.5,-527 531.5,-486 388.5,-486"/>
<text text-anchor="start" x="396.5" y="-515" font-family="Helvetica,sans-Serif" font-size="10.00">src/IO_Interaction</text>
<text text-anchor="start" x="396.5" y="-504" font-family="Helvetica,sans-Serif" font-size="10.00">/Weight_Importer_Helpers</text>
<text text-anchor="middle" x="460" y="-493" font-family="Helvetica,sans-Serif" font-size="10.00">/csv_weight_importer.cpp</text>
</a>
</g>
</g>
<!-- Node26&#45;&gt;Node27 -->
<g id="edge41" class="edge">
<title>Node26&#45;&gt;Node27</title>
<path fill="none" stroke="midnightblue" d="M490.5,-560.39C484.14,-549.37 477.03,-537.03 471.27,-527.05"/>
<polygon fill="midnightblue" stroke="midnightblue" points="487.59,-562.36 495.62,-569.27 493.66,-558.86 487.59,-562.36"/>
</g>
<!-- Node28&#45;&gt;Node7 -->
<g id="edge44" class="edge">
<title>Node28&#45;&gt;Node7</title>
<path fill="none" stroke="midnightblue" d="M293.86,-715.32C274.74,-653.34 222.4,-451.25 307,-324 319.2,-305.65 341.42,-294.26 360.08,-287.53"/>
<polygon fill="midnightblue" stroke="midnightblue" points="290.64,-716.74 297.01,-725.21 297.32,-714.62 290.64,-716.74"/>
</g>
<!-- Node28&#45;&gt;Node8 -->
<g id="edge46" class="edge">
<title>Node28&#45;&gt;Node8</title>
<path fill="none" stroke="midnightblue" d="M286.94,-717.41C248.05,-666.77 133.32,-508.36 95,-355 83.17,-307.65 109.83,-251.81 124.37,-226.17"/>
<polygon fill="midnightblue" stroke="midnightblue" points="284.2,-719.58 293.1,-725.34 289.73,-715.29 284.2,-719.58"/>
</g>
<!-- Node28&#45;&gt;Node18 -->
<g id="edge45" class="edge">
<title>Node28&#45;&gt;Node18</title>
<path fill="none" stroke="midnightblue" d="M307.09,-715.89C318.36,-687.12 340.11,-631.58 350.38,-605.36"/>
<polygon fill="midnightblue" stroke="midnightblue" points="303.72,-714.9 303.34,-725.48 310.24,-717.45 303.72,-714.9"/>
</g>
<!-- Node28&#45;&gt;Node25 -->
<g id="edge47" class="edge">
<title>Node28&#45;&gt;Node25</title>
<path fill="none" stroke="midnightblue" d="M336.9,-722.36C366.57,-712.99 408.91,-699.63 443.8,-688.63"/>
<polygon fill="midnightblue" stroke="midnightblue" points="335.84,-719.02 327.36,-725.37 337.94,-725.7 335.84,-719.02"/>
</g>
<!-- Node29&#45;&gt;Node3 -->
<g id="edge51" class="edge">
<title>Node29&#45;&gt;Node3</title>
<path fill="none" stroke="midnightblue" d="M619.4,-1010.48C604.43,-1000 586.87,-987.71 575.37,-979.66"/>
<polygon fill="midnightblue" stroke="midnightblue" points="617.66,-1013.53 627.86,-1016.4 621.67,-1007.8 617.66,-1013.53"/>
</g>
<!-- Node30&#45;&gt;Node2 -->
<g id="edge57" class="edge">
<title>Node30&#45;&gt;Node2</title>
<path fill="none" stroke="midnightblue" d="M731.8,-1136.57C694.21,-1125.44 646.62,-1111.35 616.74,-1102.51"/>
<polygon fill="midnightblue" stroke="midnightblue" points="731.04,-1139.99 741.62,-1139.47 733.03,-1133.28 731.04,-1139.99"/>
</g>
<!-- Node31 -->
<g id="node31" class="node">
<title>Node31</title>
<g id="a_node31"><a xlink:href="node_8h.html" target="_top" xlink:title=" ">
<polygon fill="white" stroke="black" points="672,-1083.5 672,-1102.5 804,-1102.5 804,-1083.5 672,-1083.5"/>
<text text-anchor="middle" x="738" y="-1090.5" font-family="Helvetica,sans-Serif" font-size="10.00">include/Network/node.h</text>
</a>
</g>
</g>
<!-- Node30&#45;&gt;Node31 -->
<g id="edge54" class="edge">
<title>Node30&#45;&gt;Node31</title>
<path fill="none" stroke="midnightblue" d="M770.32,-1131.7C761.69,-1121.64 751.93,-1110.26 745.42,-1102.66"/>
<polygon fill="midnightblue" stroke="midnightblue" points="767.75,-1134.08 776.91,-1139.4 773.06,-1129.53 767.75,-1134.08"/>
</g>
<!-- Node32 -->
<g id="node32" class="node">
<title>Node32</title>
<g id="a_node32"><a xlink:href="utilities_8h.html" target="_top" xlink:title=" ">
<polygon fill="white" stroke="black" points="813.5,-725.5 813.5,-744.5 914.5,-744.5 914.5,-725.5 813.5,-725.5"/>
<text text-anchor="middle" x="864" y="-732.5" font-family="Helvetica,sans-Serif" font-size="10.00">include/utilities.h</text>
</a>
</g>
</g>
<!-- Node30&#45;&gt;Node32 -->
<g id="edge58" class="edge">
<title>Node30&#45;&gt;Node32</title>
<path fill="none" stroke="midnightblue" d="M798.66,-1130.63C811.7,-1107.18 832,-1069.07 832,-1032.5 832,-1032.5 832,-1032.5 832,-857 832,-814.23 846.04,-764.44 856.47,-744.7"/>
<polygon fill="midnightblue" stroke="midnightblue" points="795.56,-1129 793.76,-1139.45 801.68,-1132.41 795.56,-1129"/>
</g>
<!-- Node36 -->
<g id="node36" class="node">
<title>Node36</title>
<g id="a_node36"><a xlink:href="dense__tensor_8cpp.html" target="_top" xlink:title=" ">
<polygon fill="white" stroke="black" points="877.5,-1083.5 877.5,-1102.5 1026.5,-1102.5 1026.5,-1083.5 877.5,-1083.5"/>
<text text-anchor="middle" x="952" y="-1090.5" font-family="Helvetica,sans-Serif" font-size="10.00">src/Types/dense_tensor.cpp</text>
</a>
</g>
</g>
<!-- Node30&#45;&gt;Node36 -->
<g id="edge68" class="edge">
<title>Node30&#45;&gt;Node36</title>
<path fill="none" stroke="midnightblue" d="M837.1,-1135.94C867.13,-1124.98 904.48,-1111.35 928.28,-1102.66"/>
<polygon fill="midnightblue" stroke="midnightblue" points="835.82,-1132.68 827.63,-1139.4 838.22,-1139.26 835.82,-1132.68"/>
</g>
<!-- Node31&#45;&gt;Node3 -->
<g id="edge55" class="edge">
<title>Node31&#45;&gt;Node3</title>
<path fill="none" stroke="midnightblue" d="M738.3,-1072.99C737.52,-1055.89 733.65,-1031.19 719,-1016 696.2,-992.37 661.84,-980.92 631.17,-975.47"/>
<polygon fill="midnightblue" stroke="midnightblue" points="734.8,-1073.45 738.44,-1083.4 741.8,-1073.36 734.8,-1073.45"/>
</g>
<!-- Node31&#45;&gt;Node29 -->
<g id="edge56" class="edge">
<title>Node31&#45;&gt;Node29</title>
<path fill="none" stroke="midnightblue" d="M716.43,-1077.74C702.12,-1068.28 683.44,-1055.93 669.21,-1046.52"/>
<polygon fill="midnightblue" stroke="midnightblue" points="714.83,-1080.88 725.11,-1083.48 718.69,-1075.04 714.83,-1080.88"/>
</g>
<!-- Node32&#45;&gt;Node6 -->
<g id="edge60" class="edge">
<title>Node32&#45;&gt;Node6</title>
<path fill="none" stroke="midnightblue" d="M831.84,-721.7C803.03,-710.69 760.8,-694.54 730.69,-683.03"/>
<polygon fill="midnightblue" stroke="midnightblue" points="830.83,-725.07 841.43,-725.37 833.33,-718.53 830.83,-725.07"/>
</g>
<!-- Node32&#45;&gt;Node7 -->
<g id="edge59" class="edge">
<title>Node32&#45;&gt;Node7</title>
<path fill="none" stroke="midnightblue" d="M924.43,-723.47C943.87,-716.9 963.37,-706.26 975,-689 1005.9,-643.12 974.53,-613.74 942,-569 844.16,-434.45 809.5,-394.9 659,-324 596.59,-294.6 518,-284.12 462.28,-280.53"/>
<polygon fill="midnightblue" stroke="midnightblue" points="923.16,-720.19 914.61,-726.45 925.2,-726.89 923.16,-720.19"/>
</g>
<!-- Node32&#45;&gt;Node13 -->
<g id="edge65" class="edge">
<title>Node32&#45;&gt;Node13</title>
<path fill="none" stroke="midnightblue" d="M924.69,-724.25C948.99,-717.73 975.72,-706.91 995,-689 1029.72,-656.75 1037,-638.39 1037,-591 1037,-591 1037,-591 1037,-210 1037,-158.46 1016.3,-142.83 975,-112 949.37,-92.86 915.9,-81.86 886.29,-75.54"/>
<polygon fill="midnightblue" stroke="midnightblue" points="923.68,-720.89 914.82,-726.7 925.37,-727.69 923.68,-720.89"/>
</g>
<!-- Node32&#45;&gt;Node30 -->
<g id="edge66" class="edge">
<title>Node32&#45;&gt;Node30</title>
<path fill="none" stroke="midnightblue" d="M864.46,-754.71C860.37,-778.3 850,-820.25 850,-857 850,-1032.5 850,-1032.5 850,-1032.5 850,-1074.11 823.72,-1117.72 805.29,-1139.45"/>
<polygon fill="midnightblue" stroke="midnightblue" points="867.94,-755.09 865.89,-744.7 861.01,-754.1 867.94,-755.09"/>
</g>
<!-- Node33 -->
<g id="node33" class="node">
<title>Node33</title>
<g id="a_node33"><a xlink:href="weight__importer__utils_8h.html" target="_top" xlink:title=" ">
<polygon fill="white" stroke="black" points="788.5,-647.5 788.5,-688.5 931.5,-688.5 931.5,-647.5 788.5,-647.5"/>
<text text-anchor="start" x="796.5" y="-676.5" font-family="Helvetica,sans-Serif" font-size="10.00">include/IO_Interaction</text>
<text text-anchor="start" x="796.5" y="-665.5" font-family="Helvetica,sans-Serif" font-size="10.00">/Weight_Importer_Helpers</text>
<text text-anchor="middle" x="860" y="-654.5" font-family="Helvetica,sans-Serif" font-size="10.00">/weight_importer_utils.h</text>
</a>
</g>
</g>
<!-- Node32&#45;&gt;Node33 -->
<g id="edge61" class="edge">
<title>Node32&#45;&gt;Node33</title>
<path fill="none" stroke="midnightblue" d="M862.83,-715.04C862.32,-706.71 861.72,-696.94 861.2,-688.54"/>
<polygon fill="midnightblue" stroke="midnightblue" points="859.35,-715.47 863.46,-725.23 866.34,-715.04 859.35,-715.47"/>
</g>
<!-- Node35 -->
<g id="node35" class="node">
<title>Node35</title>
<g id="a_node35"><a xlink:href="utilities_8cpp.html" target="_top" xlink:title=" ">
<polygon fill="white" stroke="black" points="1065.5,-658.5 1065.5,-677.5 1156.5,-677.5 1156.5,-658.5 1065.5,-658.5"/>
<text text-anchor="middle" x="1111" y="-665.5" font-family="Helvetica,sans-Serif" font-size="10.00">src/utilities.cpp</text>
</a>
</g>
</g>
<!-- Node32&#45;&gt;Node35 -->
<g id="edge67" class="edge">
<title>Node32&#45;&gt;Node35</title>
<path fill="none" stroke="midnightblue" d="M913.42,-723.32C951.29,-714.84 1004.74,-702.25 1051,-689 1062.93,-685.58 1076.02,-681.29 1086.92,-677.55"/>
<polygon fill="midnightblue" stroke="midnightblue" points="912.66,-719.9 903.66,-725.49 914.18,-726.74 912.66,-719.9"/>
</g>
<!-- Node33&#45;&gt;Node20 -->
<g id="edge62" class="edge">
<title>Node33&#45;&gt;Node20</title>
<path fill="none" stroke="midnightblue" d="M822.16,-641.75C777.45,-611.91 703.52,-562.57 658.82,-532.74"/>
<polygon fill="midnightblue" stroke="midnightblue" points="820.43,-644.8 830.69,-647.44 824.32,-638.98 820.43,-644.8"/>
</g>
<!-- Node33&#45;&gt;Node26 -->
<g id="edge63" class="edge">
<title>Node33&#45;&gt;Node26</title>
<path fill="none" stroke="midnightblue" d="M778.53,-646.93C704.66,-630.33 631.33,-615.4 578.75,-604.98"/>
<polygon fill="midnightblue" stroke="midnightblue" points="777.96,-650.39 788.48,-649.18 779.5,-643.56 777.96,-650.39"/>
</g>
<!-- Node34 -->
<g id="node34" class="node">
<title>Node34</title>
<g id="a_node34"><a xlink:href="weight__importer__utils_8cpp.html" target="_top" xlink:title=" ">
<polygon fill="white" stroke="black" points="787,-569.5 787,-610.5 933,-610.5 933,-569.5 787,-569.5"/>
<text text-anchor="start" x="795" y="-598.5" font-family="Helvetica,sans-Serif" font-size="10.00">src/IO_Interaction</text>
<text text-anchor="start" x="795" y="-587.5" font-family="Helvetica,sans-Serif" font-size="10.00">/Weight_Importer_Helpers</text>
<text text-anchor="middle" x="860" y="-576.5" font-family="Helvetica,sans-Serif" font-size="10.00">/weight_importer_utils.cpp</text>
</a>
</g>
</g>
<!-- Node33&#45;&gt;Node34 -->
<g id="edge64" class="edge">
<title>Node33&#45;&gt;Node34</title>
<path fill="none" stroke="midnightblue" d="M860,-637.3C860,-628.3 860,-618.65 860,-610.51"/>
<polygon fill="midnightblue" stroke="midnightblue" points="856.5,-637.43 860,-647.43 863.5,-637.43 856.5,-637.43"/>
</g>
</g>
</svg>
        <g id="navigator" transform="translate(0 0)" fill="#404254">
                <rect fill="#f2f5e9" fill-opacity="0.5" stroke="#606060" stroke-width=".5" x="0" y="0" width="60" height="60"/>
                <use id="zoomplus" xlink:href="#zoomPlus" x="17" y="9" onmousedown="handleZoom(evt,'in')"/>
                <use id="zoomminus" xlink:href="#zoomMin" x="42" y="9" onmousedown="handleZoom(evt,'out')"/>
                <use id="reset" xlink:href="#resetDef" x="30" y="36" onmousedown="handleReset()"/>
                <g id="arrowUp" xlink:href="#dirArrow" transform="translate(30 24)" onmousedown="handlePan(0,-1)">
                  <use xlink:href="#rim" fill="#404040">
                        <set attributeName="fill" to="#808080" begin="arrowUp.mouseover" end="arrowUp.mouseout"/>
                  </use>
                  <path fill="none" stroke="white" stroke-width="1.5" d="M0,-3.0v7 M-2.5,-0.5L0,-3.0L2.5,-0.5"/>
                </g>
                <g id="arrowRight" xlink:href="#dirArrow" transform="rotate(90) translate(36 -43)" onmousedown="handlePan(1,0)">
                  <use xlink:href="#rim" fill="#404040">
                        <set attributeName="fill" to="#808080" begin="arrowRight.mouseover" end="arrowRight.mouseout"/>
                  </use>
                  <path fill="none" stroke="white" stroke-width="1.5" d="M0,-3.0v7 M-2.5,-0.5L0,-3.0L2.5,-0.5"/>
                </g>
                <g id="arrowDown" xlink:href="#dirArrow" transform="rotate(180) translate(-30 -48)" onmousedown="handlePan(0,1)">
                  <use xlink:href="#rim" fill="#404040">
                        <set attributeName="fill" to="#808080" begin="arrowDown.mouseover" end="arrowDown.mouseout"/>
                  </use>
                  <path fill="none" stroke="white" stroke-width="1.5" d="M0,-3.0v7 M-2.5,-0.5L0,-3.0L2.5,-0.5"/>
                </g>
                <g id="arrowLeft" xlink:href="#dirArrow" transform="rotate(270) translate(-36 17)" onmousedown="handlePan(-1,0)">
                  <use xlink:href="#rim" fill="#404040">
                        <set attributeName="fill" to="#808080" begin="arrowLeft.mouseover" end="arrowLeft.mouseout"/>
                  </use>
                  <path fill="none" stroke="white" stroke-width="1.5" d="M0,-3.0v7 M-2.5,-0.5L0,-3.0L2.5,-0.5"/>
                </g>
        </g>
        <svg viewBox="0 0 15 15" width="100%" height="30px" preserveAspectRatio="xMaxYMin meet">
         <g id="arrow_out" transform="scale(0.3 0.3)">
          <a xlink:href="variant__attribute_8h__dep__incl_org.svg" target="_base">
           <rect id="button" ry="5" rx="5" y="6" x="6" height="38" width="38"
                fill="#f2f5e9" fill-opacity="0.5" stroke="#606060" stroke-width="1.0"/>
           <path id="arrow"
             d="M 11.500037,31.436501 C 11.940474,20.09759 22.043105,11.32322 32.158766,21.979434 L 37.068811,17.246167 C 37.068811,17.246167 37.088388,32 37.088388,32 L 22.160133,31.978069 C 22.160133,31.978069 26.997745,27.140456 26.997745,27.140456 C 18.528582,18.264221 13.291696,25.230495 11.500037,31.436501 z"
             style="fill:#404040;"/>
          </a>
         </g>
        </svg>
</svg>
