<?xml version="1.0" encoding="UTF-8" standalone="no"?>
<!DOCTYPE svg PUBLIC "-//W3C//DTD SVG 1.1//EN"
 "http://www.w3.org/Graphics/SVG/1.1/DTD/svg11.dtd">
<!-- Generated by graphviz version 2.43.0 (0)
 -->
<!-- Title: include/Types/variant_attribute.h Pages: 1 -->
<svg width="1179pt" height="1245pt"
 viewBox="0.00 0.00 1179.20 1245.00" xmlns="http://www.w3.org/2000/svg" xmlns:xlink="http://www.w3.org/1999/xlink">
<g id="graph0" class="graph" transform="scale(1 1) rotate(0) translate(4 1241)">
<title>include/Types/variant_attribute.h</title>
<polygon fill="white" stroke="transparent" points="-4,4 -4,-1241 1175.2,-1241 1175.2,4 -4,4"/>
<!-- Node1 -->
<g id="node1" class="node">
<title>Node1</title>
<g id="a_node1"><a xlink:title=" ">
<polygon fill="#bfbfbf" stroke="black" points="342.2,-1206.5 342.2,-1236.5 462.2,-1236.5 462.2,-1206.5 342.2,-1206.5"/>
<text text-anchor="start" x="350.2" y="-1224.5" font-family="Helvetica,sans-Serif" font-size="10.00">include/Types/variant</text>
<text text-anchor="middle" x="402.2" y="-1213.5" font-family="Helvetica,sans-Serif" font-size="10.00">_attribute.h</text>
</a>
</g>
</g>
<!-- Node2 -->
<g id="node2" class="node">
<title>Node2</title>
<g id="a_node2"><a xlink:href="content_8h.html" target="_top" xlink:title=" ">
<polygon fill="white" stroke="black" points="495.7,-1083.5 495.7,-1102.5 626.7,-1102.5 626.7,-1083.5 495.7,-1083.5"/>
<text text-anchor="middle" x="561.2" y="-1090.5" font-family="Helvetica,sans-Serif" font-size="10.00">include/Types/content.h</text>
</a>
</g>
</g>
<!-- Node1&#45;&gt;Node2 -->
<g id="edge1" class="edge">
<title>Node1&#45;&gt;Node2</title>
<path fill="none" stroke="midnightblue" d="M427.75,-1200.17C462.99,-1172.13 525.01,-1122.79 550.15,-1102.79"/>
<polygon fill="midnightblue" stroke="midnightblue" points="425.47,-1197.51 419.82,-1206.48 429.82,-1202.99 425.47,-1197.51"/>
</g>
<!-- Node30 -->
<g id="node30" class="node">
<title>Node30</title>
<g id="a_node30"><a xlink:href="dense__tensor_8h.html" target="_top" xlink:title=" ">
<polygon fill="white" stroke="black" points="301.7,-1139.5 301.7,-1169.5 416.7,-1169.5 416.7,-1139.5 301.7,-1139.5"/>
<text text-anchor="start" x="309.7" y="-1157.5" font-family="Helvetica,sans-Serif" font-size="10.00">include/Types/dense</text>
<text text-anchor="middle" x="359.2" y="-1146.5" font-family="Helvetica,sans-Serif" font-size="10.00">_tensor.h</text>
</a>
</g>
</g>
<!-- Node1&#45;&gt;Node30 -->
<g id="edge53" class="edge">
<title>Node1&#45;&gt;Node30</title>
<path fill="none" stroke="midnightblue" d="M387.22,-1197.87C381,-1188.46 373.97,-1177.83 368.51,-1169.58"/>
<polygon fill="midnightblue" stroke="midnightblue" points="384.43,-1199.99 392.87,-1206.4 390.27,-1196.12 384.43,-1199.99"/>
</g>
<!-- Node3 -->
<g id="node3" class="node">
<title>Node3</title>
<g id="a_node3"><a xlink:href="graph_8h.html" target="_top" xlink:title=" ">
<polygon fill="white" stroke="black" points="517.2,-960.5 517.2,-979.5 653.2,-979.5 653.2,-960.5 517.2,-960.5"/>
<text text-anchor="middle" x="585.2" y="-967.5" font-family="Helvetica,sans-Serif" font-size="10.00">include/Network/graph.h</text>
</a>
</g>
</g>
<!-- Node2&#45;&gt;Node3 -->
<g id="edge2" class="edge">
<title>Node2&#45;&gt;Node3</title>
<path fill="none" stroke="midnightblue" d="M565.47,-1073.5C567.3,-1065.39 569.42,-1055.74 571.2,-1047 576.11,-1022.81 581.19,-994.13 583.66,-979.91"/>
<polygon fill="midnightblue" stroke="midnightblue" points="562.02,-1072.86 563.21,-1083.39 568.85,-1074.42 562.02,-1072.86"/>
</g>
<!-- Node4 -->
<g id="node4" class="node">
<title>Node4</title>
<g id="a_node4"><a xlink:href="graph__traits_8h.html" target="_top" xlink:title=" ">
<polygon fill="white" stroke="black" points="684.7,-781.5 684.7,-811.5 811.7,-811.5 811.7,-781.5 684.7,-781.5"/>
<text text-anchor="start" x="692.7" y="-799.5" font-family="Helvetica,sans-Serif" font-size="10.00">include/Network/graph</text>
<text text-anchor="middle" x="748.2" y="-788.5" font-family="Helvetica,sans-Serif" font-size="10.00">_traits.h</text>
</a>
</g>
</g>
<!-- Node2&#45;&gt;Node4 -->
<g id="edge50" class="edge">
<title>Node2&#45;&gt;Node4</title>
<path fill="none" stroke="midnightblue" d="M616.49,-1080.87C671.63,-1066.16 748.2,-1034.34 748.2,-971 748.2,-971 748.2,-971 748.2,-913 748.2,-876.51 748.2,-833.52 748.2,-811.72"/>
<polygon fill="midnightblue" stroke="midnightblue" points="615.29,-1077.56 606.46,-1083.42 617.02,-1084.35 615.29,-1077.56"/>
</g>
<!-- Node29 -->
<g id="node29" class="node">
<title>Node29</title>
<g id="a_node29"><a xlink:href="node__traits_8h.html" target="_top" xlink:title=" ">
<polygon fill="white" stroke="black" points="439.7,-1016.5 439.7,-1046.5 562.7,-1046.5 562.7,-1016.5 439.7,-1016.5"/>
<text text-anchor="start" x="447.7" y="-1034.5" font-family="Helvetica,sans-Serif" font-size="10.00">include/Network/node</text>
<text text-anchor="middle" x="501.2" y="-1023.5" font-family="Helvetica,sans-Serif" font-size="10.00">_traits.h</text>
</a>
</g>
</g>
<!-- Node2&#45;&gt;Node29 -->
<g id="edge51" class="edge">
<title>Node2&#45;&gt;Node29</title>
<path fill="none" stroke="midnightblue" d="M545.43,-1076.37C536.1,-1067.11 524.37,-1055.48 515.34,-1046.52"/>
<polygon fill="midnightblue" stroke="midnightblue" points="543.03,-1078.92 552.6,-1083.48 547.96,-1073.95 543.03,-1078.92"/>
</g>
<!-- Node3&#45;&gt;Node4 -->
<g id="edge3" class="edge">
<title>Node3&#45;&gt;Node4</title>
<path fill="none" stroke="midnightblue" d="M619.22,-956.33C636.22,-948.8 656.29,-937.97 671.2,-924 706.84,-890.59 731.99,-837.09 742.59,-811.73"/>
<polygon fill="midnightblue" stroke="midnightblue" points="617.48,-953.27 609.62,-960.38 620.2,-959.71 617.48,-953.27"/>
</g>
<!-- Node26 -->
<g id="node26" class="node">
<title>Node26</title>
<g id="a_node26"><a xlink:href="mwgraph_8h.html" target="_top" xlink:title=" ">
<polygon fill="white" stroke="black" points="508.2,-904.5 508.2,-923.5 662.2,-923.5 662.2,-904.5 508.2,-904.5"/>
<text text-anchor="middle" x="585.2" y="-911.5" font-family="Helvetica,sans-Serif" font-size="10.00">include/Network/mwgraph.h</text>
</a>
</g>
</g>
<!-- Node3&#45;&gt;Node26 -->
<g id="edge41" class="edge">
<title>Node3&#45;&gt;Node26</title>
<path fill="none" stroke="midnightblue" d="M585.2,-949.8C585.2,-940.91 585.2,-930.78 585.2,-923.75"/>
<polygon fill="midnightblue" stroke="midnightblue" points="581.7,-950.08 585.2,-960.08 588.7,-950.08 581.7,-950.08"/>
</g>
<!-- Node5 -->
<g id="node5" class="node">
<title>Node5</title>
<g id="a_node5"><a xlink:href="butcher_8h.html" target="_top" xlink:title=" ">
<polygon fill="white" stroke="black" points="709.2,-268.5 709.2,-287.5 849.2,-287.5 849.2,-268.5 709.2,-268.5"/>
<text text-anchor="middle" x="779.2" y="-275.5" font-family="Helvetica,sans-Serif" font-size="10.00">include/Butcher/butcher.h</text>
</a>
</g>
</g>
<!-- Node4&#45;&gt;Node5 -->
<g id="edge4" class="edge">
<title>Node4&#45;&gt;Node5</title>
<path fill="none" stroke="midnightblue" d="M822.34,-792.68C861.21,-787.41 906.9,-774.67 937.2,-745 962.32,-720.39 959.2,-704.16 959.2,-669 959.2,-669 959.2,-669 959.2,-416.5 959.2,-342.96 863.15,-303.49 811.38,-287.56"/>
<polygon fill="midnightblue" stroke="midnightblue" points="821.6,-789.24 812.1,-793.92 822.44,-796.19 821.6,-789.24"/>
</g>
<!-- Node6 -->
<g id="node6" class="node">
<title>Node6</title>
<g id="a_node6"><a xlink:href="onnx__importer__helpers_8h.html" target="_top" xlink:title=" ">
<polygon fill="white" stroke="black" points="708.7,-196 708.7,-226 849.7,-226 849.7,-196 708.7,-196"/>
<text text-anchor="start" x="716.7" y="-214" font-family="Helvetica,sans-Serif" font-size="10.00">include/IO_Interaction</text>
<text text-anchor="middle" x="779.2" y="-203" font-family="Helvetica,sans-Serif" font-size="10.00">/onnx_importer_helpers.h</text>
</a>
</g>
</g>
<!-- Node4&#45;&gt;Node6 -->
<g id="edge22" class="edge">
<title>Node4&#45;&gt;Node6</title>
<path fill="none" stroke="midnightblue" d="M821.98,-786.53C933.77,-770.86 1133.2,-733.81 1133.2,-669 1133.2,-669 1133.2,-669 1133.2,-338.5 1133.2,-307.25 935.11,-251.97 835.29,-226.09"/>
<polygon fill="midnightblue" stroke="midnightblue" points="821.2,-783.11 811.77,-787.94 822.15,-790.04 821.2,-783.11"/>
</g>
<!-- Node11 -->
<g id="node11" class="node">
<title>Node11</title>
<g id="a_node11"><a xlink:href="network__butcher_8h.html" target="_top" xlink:title=" ">
<polygon fill="white" stroke="black" points="288.7,-56.5 288.7,-75.5 433.7,-75.5 433.7,-56.5 288.7,-56.5"/>
<text text-anchor="middle" x="361.2" y="-63.5" font-family="Helvetica,sans-Serif" font-size="10.00">include/network_butcher.h</text>
</a>
</g>
</g>
<!-- Node4&#45;&gt;Node11 -->
<g id="edge35" class="edge">
<title>Node4&#45;&gt;Node11</title>
<path fill="none" stroke="midnightblue" d="M674.7,-783.04C532.69,-758.64 233.07,-705.52 217.2,-689 160.58,-630.11 188.2,-589.19 188.2,-507.5 188.2,-507.5 188.2,-507.5 188.2,-210 188.2,-135.57 284.5,-92.6 333.4,-75.58"/>
<polygon fill="midnightblue" stroke="midnightblue" points="674.2,-786.5 684.65,-784.74 675.39,-779.6 674.2,-786.5"/>
</g>
<!-- Node14 -->
<g id="node14" class="node">
<title>Node14</title>
<g id="a_node14"><a xlink:href="onnx__model__reconstructor__helpers_8h.html" target="_top" xlink:title=" ">
<polygon fill="white" stroke="black" points="868.7,-190.5 868.7,-231.5 1017.7,-231.5 1017.7,-190.5 868.7,-190.5"/>
<text text-anchor="start" x="876.7" y="-219.5" font-family="Helvetica,sans-Serif" font-size="10.00">include/IO_Interaction</text>
<text text-anchor="start" x="876.7" y="-208.5" font-family="Helvetica,sans-Serif" font-size="10.00">/onnx_model_reconstructor</text>
<text text-anchor="middle" x="943.2" y="-197.5" font-family="Helvetica,sans-Serif" font-size="10.00">_helpers.h</text>
</a>
</g>
</g>
<!-- Node4&#45;&gt;Node14 -->
<g id="edge23" class="edge">
<title>Node4&#45;&gt;Node14</title>
<path fill="none" stroke="midnightblue" d="M822.13,-792.77C887.55,-788.24 984.56,-776.32 1063.2,-745 1117.72,-723.28 1171.2,-727.69 1171.2,-669 1171.2,-669 1171.2,-669 1171.2,-338.5 1171.2,-266.98 1084.35,-235.55 1017.85,-221.98"/>
<polygon fill="midnightblue" stroke="midnightblue" points="821.66,-789.29 811.91,-793.43 822.12,-796.28 821.66,-789.29"/>
</g>
<!-- Node16 -->
<g id="node16" class="node">
<title>Node16</title>
<g id="a_node16"><a xlink:href="graph__constraint_8h.html" target="_top" xlink:title=" ">
<polygon fill="white" stroke="black" points="731.7,-575 731.7,-605 854.7,-605 854.7,-575 731.7,-575"/>
<text text-anchor="start" x="739.7" y="-593" font-family="Helvetica,sans-Serif" font-size="10.00">include/Butcher/graph</text>
<text text-anchor="middle" x="793.2" y="-582" font-family="Helvetica,sans-Serif" font-size="10.00">_constraint.h</text>
</a>
</g>
</g>
<!-- Node4&#45;&gt;Node16 -->
<g id="edge17" class="edge">
<title>Node4&#45;&gt;Node16</title>
<path fill="none" stroke="midnightblue" d="M753.46,-771.58C762.91,-728.62 782.48,-639.7 790.08,-605.15"/>
<polygon fill="midnightblue" stroke="midnightblue" points="750.02,-770.93 751.29,-781.44 756.86,-772.43 750.02,-770.93"/>
</g>
<!-- Node18 -->
<g id="node18" class="node">
<title>Node18</title>
<g id="a_node18"><a xlink:href="path__converter_8h.html" target="_top" xlink:title=" ">
<polygon fill="white" stroke="black" points="987.7,-324.5 987.7,-354.5 1104.7,-354.5 1104.7,-324.5 987.7,-324.5"/>
<text text-anchor="start" x="995.7" y="-342.5" font-family="Helvetica,sans-Serif" font-size="10.00">include/Butcher/path</text>
<text text-anchor="middle" x="1046.2" y="-331.5" font-family="Helvetica,sans-Serif" font-size="10.00">_converter.h</text>
</a>
</g>
</g>
<!-- Node4&#45;&gt;Node18 -->
<g id="edge20" class="edge">
<title>Node4&#45;&gt;Node18</title>
<path fill="none" stroke="midnightblue" d="M821.96,-786.95C878.79,-778.94 951.26,-765.15 973.2,-745 999.29,-721.04 997.2,-704.42 997.2,-669 997.2,-669 997.2,-669 997.2,-505.5 997.2,-447.53 1025.34,-382.66 1038.97,-354.65"/>
<polygon fill="midnightblue" stroke="midnightblue" points="821.33,-783.5 811.9,-788.33 822.29,-790.44 821.33,-783.5"/>
</g>
<!-- Node19 -->
<g id="node19" class="node">
<title>Node19</title>
<g id="a_node19"><a xlink:href="weight__importer_8h.html" target="_top" xlink:title=" ">
<polygon fill="white" stroke="black" points="572.7,-647.5 572.7,-688.5 715.7,-688.5 715.7,-647.5 572.7,-647.5"/>
<text text-anchor="start" x="580.7" y="-676.5" font-family="Helvetica,sans-Serif" font-size="10.00">include/IO_Interaction</text>
<text text-anchor="start" x="580.7" y="-665.5" font-family="Helvetica,sans-Serif" font-size="10.00">/Weight_Importer_Helpers</text>
<text text-anchor="middle" x="644.2" y="-654.5" font-family="Helvetica,sans-Serif" font-size="10.00">/weight_importer.h</text>
</a>
</g>
</g>
<!-- Node4&#45;&gt;Node19 -->
<g id="edge24" class="edge">
<title>Node4&#45;&gt;Node19</title>
<path fill="none" stroke="midnightblue" d="M730.25,-773.68C710.65,-749.83 679.51,-711.95 660.55,-688.89"/>
<polygon fill="midnightblue" stroke="midnightblue" points="727.61,-775.98 736.67,-781.48 733.02,-771.53 727.61,-775.98"/>
</g>
<!-- Node25 -->
<g id="node25" class="node">
<title>Node25</title>
<g id="a_node25"><a xlink:href="parameters_8h.html" target="_top" xlink:title=" ">
<polygon fill="white" stroke="black" points="776.7,-725.5 776.7,-744.5 927.7,-744.5 927.7,-725.5 776.7,-725.5"/>
<text text-anchor="middle" x="852.2" y="-732.5" font-family="Helvetica,sans-Serif" font-size="10.00">include/Types/parameters.h</text>
</a>
</g>
</g>
<!-- Node4&#45;&gt;Node25 -->
<g id="edge36" class="edge">
<title>Node4&#45;&gt;Node25</title>
<path fill="none" stroke="midnightblue" d="M781.65,-776.36C800.29,-765.69 822.6,-752.93 837.06,-744.66"/>
<polygon fill="midnightblue" stroke="midnightblue" points="779.78,-773.4 772.84,-781.4 783.26,-779.47 779.78,-773.4"/>
</g>
<!-- Node5&#45;&gt;Node6 -->
<g id="edge5" class="edge">
<title>Node5&#45;&gt;Node6</title>
<path fill="none" stroke="midnightblue" d="M779.2,-257.91C779.2,-247.72 779.2,-235.4 779.2,-226.09"/>
<polygon fill="midnightblue" stroke="midnightblue" points="775.7,-258.23 779.2,-268.23 782.7,-258.23 775.7,-258.23"/>
</g>
<!-- Node5&#45;&gt;Node11 -->
<g id="edge16" class="edge">
<title>Node5&#45;&gt;Node11</title>
<path fill="none" stroke="midnightblue" d="M751,-264.06C703.46,-242.11 604.5,-195.9 522.2,-154 468.12,-126.47 405.11,-91.59 376.6,-75.65"/>
<polygon fill="midnightblue" stroke="midnightblue" points="749.79,-267.35 760.34,-268.36 752.72,-261 749.79,-267.35"/>
</g>
<!-- Node5&#45;&gt;Node14 -->
<g id="edge13" class="edge">
<title>Node5&#45;&gt;Node14</title>
<path fill="none" stroke="midnightblue" d="M810.44,-264.62C833.95,-255.3 866.63,-242.35 893.68,-231.63"/>
<polygon fill="midnightblue" stroke="midnightblue" points="808.98,-261.43 800.97,-268.37 811.56,-267.94 808.98,-261.43"/>
</g>
<!-- Node7 -->
<g id="node7" class="node">
<title>Node7</title>
<g id="a_node7"><a xlink:href="io__manager_8h.html" target="_top" xlink:title=" ">
<polygon fill="white" stroke="black" points="531.7,-123.5 531.7,-142.5 652.7,-142.5 652.7,-123.5 531.7,-123.5"/>
<text text-anchor="middle" x="592.2" y="-130.5" font-family="Helvetica,sans-Serif" font-size="10.00">include/io_manager.h</text>
</a>
</g>
</g>
<!-- Node6&#45;&gt;Node7 -->
<g id="edge6" class="edge">
<title>Node6&#45;&gt;Node7</title>
<path fill="none" stroke="midnightblue" d="M735.07,-192.06C696.7,-176.47 642.78,-154.56 613.37,-142.61"/>
<polygon fill="midnightblue" stroke="midnightblue" points="733.88,-195.36 744.46,-195.88 736.51,-188.88 733.88,-195.36"/>
</g>
<!-- Node13 -->
<g id="node13" class="node">
<title>Node13</title>
<g id="a_node13"><a xlink:href="onnx__importer__helpers_8cpp.html" target="_top" xlink:title=" ">
<polygon fill="white" stroke="black" points="700.2,-118 700.2,-148 852.2,-148 852.2,-118 700.2,-118"/>
<text text-anchor="start" x="708.2" y="-136" font-family="Helvetica,sans-Serif" font-size="10.00">src/IO_Interaction</text>
<text text-anchor="middle" x="776.2" y="-125" font-family="Helvetica,sans-Serif" font-size="10.00">/onnx_importer_helpers.cpp</text>
</a>
</g>
</g>
<!-- Node6&#45;&gt;Node13 -->
<g id="edge12" class="edge">
<title>Node6&#45;&gt;Node13</title>
<path fill="none" stroke="midnightblue" d="M778.23,-185.59C777.75,-173.26 777.17,-158.72 776.76,-148.23"/>
<polygon fill="midnightblue" stroke="midnightblue" points="774.74,-185.85 778.63,-195.7 781.73,-185.57 774.74,-185.85"/>
</g>
<!-- Node8 -->
<g id="node8" class="node">
<title>Node8</title>
<g id="a_node8"><a xlink:href="general__manager_8h.html" target="_top" xlink:title=" ">
<polygon fill="white" stroke="black" points="638.7,-56.5 638.7,-75.5 787.7,-75.5 787.7,-56.5 638.7,-56.5"/>
<text text-anchor="middle" x="713.2" y="-63.5" font-family="Helvetica,sans-Serif" font-size="10.00">include/general_manager.h</text>
</a>
</g>
</g>
<!-- Node7&#45;&gt;Node8 -->
<g id="edge7" class="edge">
<title>Node7&#45;&gt;Node8</title>
<path fill="none" stroke="midnightblue" d="M617.4,-118.46C641.39,-105.57 676.76,-86.57 697.14,-75.63"/>
<polygon fill="midnightblue" stroke="midnightblue" points="615.67,-115.42 608.51,-123.23 618.98,-121.58 615.67,-115.42"/>
</g>
<!-- Node7&#45;&gt;Node11 -->
<g id="edge10" class="edge">
<title>Node7&#45;&gt;Node11</title>
<path fill="none" stroke="midnightblue" d="M551.65,-120.59C505.95,-107.73 432.69,-87.12 391.63,-75.56"/>
<polygon fill="midnightblue" stroke="midnightblue" points="550.95,-124.03 561.52,-123.37 552.84,-117.29 550.95,-124.03"/>
</g>
<!-- Node12 -->
<g id="node12" class="node">
<title>Node12</title>
<g id="a_node12"><a xlink:href="io__manager_8cpp.html" target="_top" xlink:title=" ">
<polygon fill="white" stroke="black" points="509.7,-56.5 509.7,-75.5 620.7,-75.5 620.7,-56.5 509.7,-56.5"/>
<text text-anchor="middle" x="565.2" y="-63.5" font-family="Helvetica,sans-Serif" font-size="10.00">src/io_manager.cpp</text>
</a>
</g>
</g>
<!-- Node7&#45;&gt;Node12 -->
<g id="edge11" class="edge">
<title>Node7&#45;&gt;Node12</title>
<path fill="none" stroke="midnightblue" d="M584.63,-113.79C579.45,-101.31 572.8,-85.31 568.78,-75.63"/>
<polygon fill="midnightblue" stroke="midnightblue" points="581.49,-115.34 588.55,-123.23 587.95,-112.66 581.49,-115.34"/>
</g>
<!-- Node9 -->
<g id="node9" class="node">
<title>Node9</title>
<g id="a_node9"><a xlink:href="main_8cpp.html" target="_top" xlink:title=" ">
<polygon fill="white" stroke="black" points="609.7,-0.5 609.7,-19.5 688.7,-19.5 688.7,-0.5 609.7,-0.5"/>
<text text-anchor="middle" x="649.2" y="-7.5" font-family="Helvetica,sans-Serif" font-size="10.00">src/main.cpp</text>
</a>
</g>
</g>
<!-- Node8&#45;&gt;Node9 -->
<g id="edge8" class="edge">
<title>Node8&#45;&gt;Node9</title>
<path fill="none" stroke="midnightblue" d="M695.2,-49.82C683.74,-40.15 669.28,-27.95 659.67,-19.83"/>
<polygon fill="midnightblue" stroke="midnightblue" points="693.01,-52.55 702.91,-56.32 697.53,-47.2 693.01,-52.55"/>
</g>
<!-- Node10 -->
<g id="node10" class="node">
<title>Node10</title>
<g id="a_node10"><a xlink:href="general__manager_8cpp.html" target="_top" xlink:title=" ">
<polygon fill="white" stroke="black" points="706.7,-0.5 706.7,-19.5 845.7,-19.5 845.7,-0.5 706.7,-0.5"/>
<text text-anchor="middle" x="776.2" y="-7.5" font-family="Helvetica,sans-Serif" font-size="10.00">src/general_manager.cpp</text>
</a>
</g>
</g>
<!-- Node8&#45;&gt;Node10 -->
<g id="edge9" class="edge">
<title>Node8&#45;&gt;Node10</title>
<path fill="none" stroke="midnightblue" d="M731.24,-49.54C742.47,-39.91 756.51,-27.87 765.89,-19.83"/>
<polygon fill="midnightblue" stroke="midnightblue" points="728.63,-47.16 723.32,-56.32 733.19,-52.47 728.63,-47.16"/>
</g>
<!-- Node14&#45;&gt;Node7 -->
<g id="edge14" class="edge">
<title>Node14&#45;&gt;Node7</title>
<path fill="none" stroke="midnightblue" d="M858.71,-189.92C773.35,-170.9 685.62,-152.87 634.82,-142.57"/>
<polygon fill="midnightblue" stroke="midnightblue" points="858.04,-193.36 868.56,-192.12 859.57,-186.52 858.04,-193.36"/>
</g>
<!-- Node15 -->
<g id="node15" class="node">
<title>Node15</title>
<g id="a_node15"><a xlink:href="onnx__model__reconstructor__helpers_8cpp.html" target="_top" xlink:title=" ">
<polygon fill="white" stroke="black" points="870.7,-112.5 870.7,-153.5 1019.7,-153.5 1019.7,-112.5 870.7,-112.5"/>
<text text-anchor="start" x="878.7" y="-141.5" font-family="Helvetica,sans-Serif" font-size="10.00">src/IO_Interaction</text>
<text text-anchor="start" x="878.7" y="-130.5" font-family="Helvetica,sans-Serif" font-size="10.00">/onnx_model_reconstructor</text>
<text text-anchor="middle" x="945.2" y="-119.5" font-family="Helvetica,sans-Serif" font-size="10.00">_helpers.cpp</text>
</a>
</g>
</g>
<!-- Node14&#45;&gt;Node15 -->
<g id="edge15" class="edge">
<title>Node14&#45;&gt;Node15</title>
<path fill="none" stroke="midnightblue" d="M943.98,-180.3C944.21,-171.3 944.47,-161.65 944.68,-153.51"/>
<polygon fill="midnightblue" stroke="midnightblue" points="940.48,-180.34 943.71,-190.43 947.47,-180.52 940.48,-180.34"/>
</g>
<!-- Node17 -->
<g id="node17" class="node">
<title>Node17</title>
<g id="a_node17"><a xlink:href="constrained__block__graph__builder_8h.html" target="_top" xlink:title=" ">
<polygon fill="white" stroke="black" points="703.2,-324.5 703.2,-354.5 855.2,-354.5 855.2,-324.5 703.2,-324.5"/>
<text text-anchor="start" x="711.2" y="-342.5" font-family="Helvetica,sans-Serif" font-size="10.00">include/Butcher/constrained</text>
<text text-anchor="middle" x="779.2" y="-331.5" font-family="Helvetica,sans-Serif" font-size="10.00">_block_graph_builder.h</text>
</a>
</g>
</g>
<!-- Node16&#45;&gt;Node17 -->
<g id="edge18" class="edge">
<title>Node16&#45;&gt;Node17</title>
<path fill="none" stroke="midnightblue" d="M800.03,-565.01C802.5,-555.18 804.98,-543.63 806.2,-533 813.84,-466.28 793.28,-386.97 783.75,-354.96"/>
<polygon fill="midnightblue" stroke="midnightblue" points="796.59,-564.32 797.42,-574.89 803.36,-566.12 796.59,-564.32"/>
</g>
<!-- Node17&#45;&gt;Node5 -->
<g id="edge19" class="edge">
<title>Node17&#45;&gt;Node5</title>
<path fill="none" stroke="midnightblue" d="M779.2,-314.29C779.2,-304.86 779.2,-294.65 779.2,-287.66"/>
<polygon fill="midnightblue" stroke="midnightblue" points="775.7,-314.4 779.2,-324.4 782.7,-314.4 775.7,-314.4"/>
</g>
<!-- Node18&#45;&gt;Node5 -->
<g id="edge21" class="edge">
<title>Node18&#45;&gt;Node5</title>
<path fill="none" stroke="midnightblue" d="M977.65,-323.23C926.74,-311.88 859.17,-296.82 817.46,-287.53"/>
<polygon fill="midnightblue" stroke="midnightblue" points="977.08,-326.68 987.6,-325.44 978.6,-319.85 977.08,-326.68"/>
</g>
<!-- Node20 -->
<g id="node20" class="node">
<title>Node20</title>
<g id="a_node20"><a xlink:href="block__aMLLibrary__weight__importer_8h.html" target="_top" xlink:title=" ">
<polygon fill="white" stroke="black" points="474.7,-480.5 474.7,-532.5 617.7,-532.5 617.7,-480.5 474.7,-480.5"/>
<text text-anchor="start" x="482.7" y="-520.5" font-family="Helvetica,sans-Serif" font-size="10.00">include/IO_Interaction</text>
<text text-anchor="start" x="482.7" y="-509.5" font-family="Helvetica,sans-Serif" font-size="10.00">/Weight_Importer_Helpers</text>
<text text-anchor="start" x="482.7" y="-498.5" font-family="Helvetica,sans-Serif" font-size="10.00">/block_aMLLibrary_weight</text>
<text text-anchor="middle" x="546.2" y="-487.5" font-family="Helvetica,sans-Serif" font-size="10.00">_importer.h</text>
</a>
</g>
</g>
<!-- Node19&#45;&gt;Node20 -->
<g id="edge25" class="edge">
<title>Node19&#45;&gt;Node20</title>
<path fill="none" stroke="midnightblue" d="M592.87,-642.03C580.7,-633.77 569.01,-623.44 561.2,-611 546.43,-587.47 543.95,-555.1 544.35,-532.86"/>
<polygon fill="midnightblue" stroke="midnightblue" points="591.01,-644.99 601.33,-647.41 594.77,-639.09 591.01,-644.99"/>
</g>
<!-- Node23 -->
<g id="node23" class="node">
<title>Node23</title>
<g id="a_node23"><a xlink:href="csv__weight__importer_8h.html" target="_top" xlink:title=" ">
<polygon fill="white" stroke="black" points="570.7,-569.5 570.7,-610.5 713.7,-610.5 713.7,-569.5 570.7,-569.5"/>
<text text-anchor="start" x="578.7" y="-598.5" font-family="Helvetica,sans-Serif" font-size="10.00">include/IO_Interaction</text>
<text text-anchor="start" x="578.7" y="-587.5" font-family="Helvetica,sans-Serif" font-size="10.00">/Weight_Importer_Helpers</text>
<text text-anchor="middle" x="642.2" y="-576.5" font-family="Helvetica,sans-Serif" font-size="10.00">/csv_weight_importer.h</text>
</a>
</g>
</g>
<!-- Node19&#45;&gt;Node23 -->
<g id="edge31" class="edge">
<title>Node19&#45;&gt;Node23</title>
<path fill="none" stroke="midnightblue" d="M643.41,-637.3C643.18,-628.3 642.92,-618.65 642.71,-610.51"/>
<polygon fill="midnightblue" stroke="midnightblue" points="639.92,-637.52 643.68,-647.43 646.92,-637.34 639.92,-637.52"/>
</g>
<!-- Node21 -->
<g id="node21" class="node">
<title>Node21</title>
<g id="a_node21"><a xlink:href="weight__importers_8h.html" target="_top" xlink:title=" ">
<polygon fill="white" stroke="black" points="635.7,-402.5 635.7,-432.5 758.7,-432.5 758.7,-402.5 635.7,-402.5"/>
<text text-anchor="start" x="643.7" y="-420.5" font-family="Helvetica,sans-Serif" font-size="10.00">include/IO_Interaction</text>
<text text-anchor="middle" x="697.2" y="-409.5" font-family="Helvetica,sans-Serif" font-size="10.00">/weight_importers.h</text>
</a>
</g>
</g>
<!-- Node20&#45;&gt;Node21 -->
<g id="edge26" class="edge">
<title>Node20&#45;&gt;Node21</title>
<path fill="none" stroke="midnightblue" d="M598.62,-475.3C623.84,-460.76 652.88,-444.03 672.87,-432.52"/>
<polygon fill="midnightblue" stroke="midnightblue" points="596.79,-472.31 589.87,-480.34 600.28,-478.38 596.79,-472.31"/>
</g>
<!-- Node22 -->
<g id="node22" class="node">
<title>Node22</title>
<g id="a_node22"><a xlink:href="block__aMLLibrary__weight__importer_8cpp.html" target="_top" xlink:title=" ">
<polygon fill="white" stroke="black" points="474.7,-391.5 474.7,-443.5 617.7,-443.5 617.7,-391.5 474.7,-391.5"/>
<text text-anchor="start" x="482.7" y="-431.5" font-family="Helvetica,sans-Serif" font-size="10.00">src/IO_Interaction</text>
<text text-anchor="start" x="482.7" y="-420.5" font-family="Helvetica,sans-Serif" font-size="10.00">/Weight_Importer_Helpers</text>
<text text-anchor="start" x="482.7" y="-409.5" font-family="Helvetica,sans-Serif" font-size="10.00">/block_aMLLibrary_weight</text>
<text text-anchor="middle" x="546.2" y="-398.5" font-family="Helvetica,sans-Serif" font-size="10.00">_importer.cpp</text>
</a>
</g>
</g>
<!-- Node20&#45;&gt;Node22 -->
<g id="edge30" class="edge">
<title>Node20&#45;&gt;Node22</title>
<path fill="none" stroke="midnightblue" d="M546.2,-470.19C546.2,-461.28 546.2,-451.9 546.2,-443.61"/>
<polygon fill="midnightblue" stroke="midnightblue" points="542.7,-470.34 546.2,-480.34 549.7,-470.34 542.7,-470.34"/>
</g>
<!-- Node21&#45;&gt;Node5 -->
<g id="edge28" class="edge">
<title>Node21&#45;&gt;Node5</title>
<path fill="none" stroke="midnightblue" d="M689.69,-392.69C684.93,-372.87 681.76,-344.65 694.2,-324 705.31,-305.55 726.8,-294.26 745.4,-287.61"/>
<polygon fill="midnightblue" stroke="midnightblue" points="686.34,-393.73 692.32,-402.47 693.1,-391.9 686.34,-393.73"/>
</g>
<!-- Node21&#45;&gt;Node7 -->
<g id="edge29" class="edge">
<title>Node21&#45;&gt;Node7</title>
<path fill="none" stroke="midnightblue" d="M688.41,-392.87C666.39,-333.61 609.54,-180.67 595.41,-142.65"/>
<polygon fill="midnightblue" stroke="midnightblue" points="685.22,-394.34 691.99,-402.49 691.79,-391.9 685.22,-394.34"/>
</g>
<!-- Node21&#45;&gt;Node17 -->
<g id="edge27" class="edge">
<title>Node21&#45;&gt;Node17</title>
<path fill="none" stroke="midnightblue" d="M719.97,-395.39C733.95,-382.43 751.49,-366.18 763.84,-354.73"/>
<polygon fill="midnightblue" stroke="midnightblue" points="717.57,-392.84 712.62,-402.2 722.33,-397.97 717.57,-392.84"/>
</g>
<!-- Node23&#45;&gt;Node20 -->
<g id="edge32" class="edge">
<title>Node23&#45;&gt;Node20</title>
<path fill="none" stroke="midnightblue" d="M611.01,-562.52C599.69,-552.92 586.95,-542.09 575.77,-532.61"/>
<polygon fill="midnightblue" stroke="midnightblue" points="609.07,-565.47 618.96,-569.27 613.6,-560.13 609.07,-565.47"/>
</g>
<!-- Node23&#45;&gt;Node21 -->
<g id="edge33" class="edge">
<title>Node23&#45;&gt;Node21</title>
<path fill="none" stroke="midnightblue" d="M723.63,-566.67C752.48,-556.99 779.87,-545.11 788.2,-533 801.54,-513.59 799.24,-500.8 788.2,-480 776.57,-458.11 753.28,-442.59 733.18,-432.62"/>
<polygon fill="midnightblue" stroke="midnightblue" points="722.24,-563.45 713.82,-569.87 724.41,-570.1 722.24,-563.45"/>
</g>
<!-- Node24 -->
<g id="node24" class="node">
<title>Node24</title>
<g id="a_node24"><a xlink:href="csv__weight__importer_8cpp.html" target="_top" xlink:title=" ">
<polygon fill="white" stroke="black" points="635.7,-486 635.7,-527 778.7,-527 778.7,-486 635.7,-486"/>
<text text-anchor="start" x="643.7" y="-515" font-family="Helvetica,sans-Serif" font-size="10.00">src/IO_Interaction</text>
<text text-anchor="start" x="643.7" y="-504" font-family="Helvetica,sans-Serif" font-size="10.00">/Weight_Importer_Helpers</text>
<text text-anchor="middle" x="707.2" y="-493" font-family="Helvetica,sans-Serif" font-size="10.00">/csv_weight_importer.cpp</text>
</a>
</g>
</g>
<!-- Node23&#45;&gt;Node24 -->
<g id="edge34" class="edge">
<title>Node23&#45;&gt;Node24</title>
<path fill="none" stroke="midnightblue" d="M664.22,-561.38C673.21,-550.11 683.41,-537.33 691.61,-527.05"/>
<polygon fill="midnightblue" stroke="midnightblue" points="661.43,-559.27 657.93,-569.27 666.9,-563.64 661.43,-559.27"/>
</g>
<!-- Node25&#45;&gt;Node5 -->
<g id="edge37" class="edge">
<title>Node25&#45;&gt;Node5</title>
<path fill="none" stroke="midnightblue" d="M858.74,-715.84C867.84,-688.95 883.2,-636.77 883.2,-591 883.2,-591 883.2,-591 883.2,-416.5 883.2,-374.53 889.37,-357.58 864.2,-324 850.68,-305.96 827.78,-294.44 809.15,-287.57"/>
<polygon fill="midnightblue" stroke="midnightblue" points="855.39,-714.84 855.4,-725.44 862,-717.15 855.39,-714.84"/>
</g>
<!-- Node25&#45;&gt;Node6 -->
<g id="edge39" class="edge">
<title>Node25&#45;&gt;Node6</title>
<path fill="none" stroke="midnightblue" d="M866.3,-717.47C886.48,-692.05 921.2,-641.06 921.2,-591 921.2,-591 921.2,-591 921.2,-338.5 921.2,-282.21 858.21,-244.79 816.13,-226.07"/>
<polygon fill="midnightblue" stroke="midnightblue" points="863.47,-715.39 859.84,-725.35 868.89,-719.83 863.47,-715.39"/>
</g>
<!-- Node25&#45;&gt;Node16 -->
<g id="edge38" class="edge">
<title>Node25&#45;&gt;Node16</title>
<path fill="none" stroke="midnightblue" d="M844.72,-715.89C832.85,-687.12 809.94,-631.58 799.12,-605.36"/>
<polygon fill="midnightblue" stroke="midnightblue" points="841.63,-717.57 848.68,-725.48 848.1,-714.9 841.63,-717.57"/>
</g>
<!-- Node25&#45;&gt;Node19 -->
<g id="edge40" class="edge">
<title>Node25&#45;&gt;Node19</title>
<path fill="none" stroke="midnightblue" d="M814.93,-722.36C784.98,-712.99 742.23,-699.63 707,-688.63"/>
<polygon fill="midnightblue" stroke="midnightblue" points="813.99,-725.73 824.57,-725.37 816.07,-719.05 813.99,-725.73"/>
</g>
<!-- Node26&#45;&gt;Node4 -->
<g id="edge42" class="edge">
<title>Node26&#45;&gt;Node4</title>
<path fill="none" stroke="midnightblue" d="M607.2,-898.87C620.61,-890.15 638.03,-878.63 653.2,-868 680.27,-849.02 710.86,-826.03 729.84,-811.58"/>
<polygon fill="midnightblue" stroke="midnightblue" points="605.12,-896.04 598.63,-904.41 608.93,-901.92 605.12,-896.04"/>
</g>
<!-- Node27 -->
<g id="node27" class="node">
<title>Node27</title>
<g id="a_node27"><a xlink:href="wgraph_8h.html" target="_top" xlink:title=" ">
<polygon fill="white" stroke="black" points="500.2,-848.5 500.2,-867.5 644.2,-867.5 644.2,-848.5 500.2,-848.5"/>
<text text-anchor="middle" x="572.2" y="-855.5" font-family="Helvetica,sans-Serif" font-size="10.00">include/Network/wgraph.h</text>
</a>
</g>
</g>
<!-- Node26&#45;&gt;Node27 -->
<g id="edge43" class="edge">
<title>Node26&#45;&gt;Node27</title>
<path fill="none" stroke="midnightblue" d="M580.65,-894.1C578.49,-885.14 576.01,-874.86 574.3,-867.75"/>
<polygon fill="midnightblue" stroke="midnightblue" points="577.31,-895.18 583.05,-904.08 584.11,-893.54 577.31,-895.18"/>
</g>
<!-- Node27&#45;&gt;Node4 -->
<g id="edge49" class="edge">
<title>Node27&#45;&gt;Node4</title>
<path fill="none" stroke="midnightblue" d="M607.01,-845.23C635.67,-835.54 676.37,-821.78 706.72,-811.52"/>
<polygon fill="midnightblue" stroke="midnightblue" points="605.76,-841.96 597.41,-848.48 608.01,-848.59 605.76,-841.96"/>
</g>
<!-- Node28 -->
<g id="node28" class="node">
<title>Node28</title>
<g id="a_node28"><a xlink:href="computer__memory_8h.html" target="_top" xlink:title=" ">
<polygon fill="white" stroke="black" points="389.2,-653 389.2,-683 541.2,-683 541.2,-653 389.2,-653"/>
<text text-anchor="start" x="397.2" y="-671" font-family="Helvetica,sans-Serif" font-size="10.00">include/Computer/computer</text>
<text text-anchor="middle" x="465.2" y="-660" font-family="Helvetica,sans-Serif" font-size="10.00">_memory.h</text>
</a>
</g>
</g>
<!-- Node27&#45;&gt;Node28 -->
<g id="edge44" class="edge">
<title>Node27&#45;&gt;Node28</title>
<path fill="none" stroke="midnightblue" d="M562.15,-839.34C541.05,-802.28 492.53,-717.03 473.28,-683.2"/>
<polygon fill="midnightblue" stroke="midnightblue" points="559.33,-841.47 567.32,-848.43 565.42,-838.01 559.33,-841.47"/>
</g>
<!-- Node28&#45;&gt;Node5 -->
<g id="edge45" class="edge">
<title>Node28&#45;&gt;Node5</title>
<path fill="none" stroke="midnightblue" d="M456.86,-643.12C440.53,-591.66 410.43,-468.67 465.2,-391 520.14,-313.07 634.41,-289.06 708.89,-281.84"/>
<polygon fill="midnightblue" stroke="midnightblue" points="453.56,-644.29 460.01,-652.7 460.21,-642.11 453.56,-644.29"/>
</g>
<!-- Node28&#45;&gt;Node11 -->
<g id="edge48" class="edge">
<title>Node28&#45;&gt;Node11</title>
<path fill="none" stroke="midnightblue" d="M451.04,-643.99C445.45,-634.12 439.39,-622.28 435.2,-611 382.57,-469.28 361.2,-430.18 361.2,-279 361.2,-279 361.2,-279 361.2,-210 361.2,-159.11 361.2,-98.02 361.2,-75.71"/>
<polygon fill="midnightblue" stroke="midnightblue" points="448.1,-645.9 456.17,-652.77 454.15,-642.37 448.1,-645.9"/>
</g>
<!-- Node28&#45;&gt;Node16 -->
<g id="edge46" class="edge">
<title>Node28&#45;&gt;Node16</title>
<path fill="none" stroke="midnightblue" d="M541.76,-650.85C604.64,-637.48 688.6,-619.38 722.2,-611 729.53,-609.17 737.25,-607.12 744.79,-605.05"/>
<polygon fill="midnightblue" stroke="midnightblue" points="540.91,-647.45 531.86,-652.95 542.37,-654.3 540.91,-647.45"/>
</g>
<!-- Node28&#45;&gt;Node20 -->
<g id="edge47" class="edge">
<title>Node28&#45;&gt;Node20</title>
<path fill="none" stroke="midnightblue" d="M477.03,-643.69C492.06,-614.1 517.88,-563.26 533.36,-532.77"/>
<polygon fill="midnightblue" stroke="midnightblue" points="473.79,-642.34 472.38,-652.85 480.03,-645.51 473.79,-642.34"/>
</g>
<!-- Node29&#45;&gt;Node3 -->
<g id="edge52" class="edge">
<title>Node29&#45;&gt;Node3</title>
<path fill="none" stroke="midnightblue" d="M529.45,-1010.48C544.25,-1000 561.61,-987.71 572.97,-979.66"/>
<polygon fill="midnightblue" stroke="midnightblue" points="527.24,-1007.76 521.1,-1016.4 531.29,-1013.48 527.24,-1007.76"/>
</g>
<!-- Node30&#45;&gt;Node2 -->
<g id="edge57" class="edge">
<title>Node30&#45;&gt;Node2</title>
<path fill="none" stroke="midnightblue" d="M416.68,-1136.57C454.46,-1125.44 502.28,-1111.35 532.32,-1102.51"/>
<polygon fill="midnightblue" stroke="midnightblue" points="415.41,-1133.29 406.81,-1139.47 417.39,-1140.01 415.41,-1133.29"/>
</g>
<!-- Node31 -->
<g id="node31" class="node">
<title>Node31</title>
<g id="a_node31"><a xlink:href="node_8h.html" target="_top" xlink:title=" ">
<polygon fill="white" stroke="black" points="345.2,-1083.5 345.2,-1102.5 477.2,-1102.5 477.2,-1083.5 345.2,-1083.5"/>
<text text-anchor="middle" x="411.2" y="-1090.5" font-family="Helvetica,sans-Serif" font-size="10.00">include/Network/node.h</text>
</a>
</g>
</g>
<!-- Node30&#45;&gt;Node31 -->
<g id="edge54" class="edge">
<title>Node30&#45;&gt;Node31</title>
<path fill="none" stroke="midnightblue" d="M378.24,-1131.7C387.04,-1121.64 396.99,-1110.26 403.63,-1102.66"/>
<polygon fill="midnightblue" stroke="midnightblue" points="375.46,-1129.57 371.52,-1139.4 380.73,-1134.17 375.46,-1129.57"/>
</g>
<!-- Node32 -->
<g id="node32" class="node">
<title>Node32</title>
<g id="a_node32"><a xlink:href="utilities_8h.html" target="_top" xlink:title=" ">
<polygon fill="white" stroke="black" points="241.7,-725.5 241.7,-744.5 342.7,-744.5 342.7,-725.5 241.7,-725.5"/>
<text text-anchor="middle" x="292.2" y="-732.5" font-family="Helvetica,sans-Serif" font-size="10.00">include/utilities.h</text>
</a>
</g>
</g>
<!-- Node30&#45;&gt;Node32 -->
<g id="edge58" class="edge">
<title>Node30&#45;&gt;Node32</title>
<path fill="none" stroke="midnightblue" d="M336.93,-1131.52C319.64,-1108.12 299.2,-1069.45 299.2,-1032.5 299.2,-1032.5 299.2,-1032.5 299.2,-857 299.2,-814.62 289.43,-764.61 289.45,-744.75"/>
<polygon fill="midnightblue" stroke="midnightblue" points="334.19,-1133.7 343.11,-1139.41 339.7,-1129.38 334.19,-1133.7"/>
</g>
<!-- Node36 -->
<g id="node36" class="node">
<title>Node36</title>
<g id="a_node36"><a xlink:href="dense__tensor_8cpp.html" target="_top" xlink:title=" ">
<polygon fill="white" stroke="black" points="122.7,-1083.5 122.7,-1102.5 271.7,-1102.5 271.7,-1083.5 122.7,-1083.5"/>
<text text-anchor="middle" x="197.2" y="-1090.5" font-family="Helvetica,sans-Serif" font-size="10.00">src/Types/dense_tensor.cpp</text>
</a>
</g>
</g>
<!-- Node30&#45;&gt;Node36 -->
<g id="edge68" class="edge">
<title>Node30&#45;&gt;Node36</title>
<path fill="none" stroke="midnightblue" d="M311.4,-1135.94C281.55,-1124.98 244.43,-1111.35 220.77,-1102.66"/>
<polygon fill="midnightblue" stroke="midnightblue" points="310.21,-1139.24 320.8,-1139.4 312.62,-1132.67 310.21,-1139.24"/>
</g>
<!-- Node31&#45;&gt;Node3 -->
<g id="edge55" class="edge">
<title>Node31&#45;&gt;Node3</title>
<path fill="none" stroke="midnightblue" d="M410.9,-1073C411.68,-1055.9 415.55,-1031.2 430.2,-1016 452.74,-992.59 486.68,-981.15 517.06,-975.65"/>
<polygon fill="midnightblue" stroke="midnightblue" points="407.4,-1073.36 410.76,-1083.41 414.4,-1073.46 407.4,-1073.36"/>
</g>
<!-- Node31&#45;&gt;Node29 -->
<g id="edge56" class="edge">
<title>Node31&#45;&gt;Node29</title>
<path fill="none" stroke="midnightblue" d="M432.77,-1077.74C447.07,-1068.28 465.75,-1055.93 479.98,-1046.52"/>
<polygon fill="midnightblue" stroke="midnightblue" points="430.5,-1075.04 424.09,-1083.48 434.36,-1080.88 430.5,-1075.04"/>
</g>
<!-- Node32&#45;&gt;Node5 -->
<g id="edge59" class="edge">
<title>Node32&#45;&gt;Node5</title>
<path fill="none" stroke="midnightblue" d="M257.32,-721.2C242.58,-714 226.67,-703.49 217.2,-689 187.91,-644.2 184.66,-617.54 207.2,-569 278.25,-415.96 343.82,-394.32 497.2,-324 564.8,-293.01 649.99,-282.89 708.96,-279.82"/>
<polygon fill="midnightblue" stroke="midnightblue" points="256.2,-724.54 266.75,-725.46 259.08,-718.16 256.2,-724.54"/>
</g>
<!-- Node32&#45;&gt;Node11 -->
<g id="edge65" class="edge">
<title>Node32&#45;&gt;Node11</title>
<path fill="none" stroke="midnightblue" d="M231.51,-731.74C161.18,-727.83 51.2,-717.25 22.2,-689 -9.59,-658.04 3.2,-635.37 3.2,-591 3.2,-591 3.2,-591 3.2,-210 3.2,-143.83 216.81,-94.56 314.03,-75.56"/>
<polygon fill="midnightblue" stroke="midnightblue" points="231.42,-735.24 241.59,-732.28 231.79,-728.25 231.42,-735.24"/>
</g>
<!-- Node32&#45;&gt;Node28 -->
<g id="edge60" class="edge">
<title>Node32&#45;&gt;Node28</title>
<path fill="none" stroke="midnightblue" d="M324.54,-721.85C353.87,-710.83 397.08,-694.59 427.86,-683.03"/>
<polygon fill="midnightblue" stroke="midnightblue" points="323.3,-718.57 315.17,-725.37 325.76,-725.13 323.3,-718.57"/>
</g>
<!-- Node32&#45;&gt;Node30 -->
<g id="edge66" class="edge">
<title>Node32&#45;&gt;Node30</title>
<path fill="none" stroke="midnightblue" d="M302.32,-754.17C309.85,-777.76 317.2,-820.25 317.2,-857 317.2,-1032.5 317.2,-1032.5 317.2,-1032.5 317.2,-1073.99 342.97,-1117.64 354.64,-1139.41"/>
<polygon fill="midnightblue" stroke="midnightblue" points="305.59,-752.94 298.87,-744.75 299.02,-755.35 305.59,-752.94"/>
</g>
<!-- Node33 -->
<g id="node33" class="node">
<title>Node33</title>
<g id="a_node33"><a xlink:href="weight__importer__utils_8h.html" target="_top" xlink:title=" ">
<polygon fill="white" stroke="black" points="226.7,-647.5 226.7,-688.5 369.7,-688.5 369.7,-647.5 226.7,-647.5"/>
<text text-anchor="start" x="234.7" y="-676.5" font-family="Helvetica,sans-Serif" font-size="10.00">include/IO_Interaction</text>
<text text-anchor="start" x="234.7" y="-665.5" font-family="Helvetica,sans-Serif" font-size="10.00">/Weight_Importer_Helpers</text>
<text text-anchor="middle" x="298.2" y="-654.5" font-family="Helvetica,sans-Serif" font-size="10.00">/weight_importer_utils.h</text>
</a>
</g>
</g>
<!-- Node32&#45;&gt;Node33 -->
<g id="edge61" class="edge">
<title>Node32&#45;&gt;Node33</title>
<path fill="none" stroke="midnightblue" d="M293.95,-715.04C294.71,-706.71 295.62,-696.94 296.39,-688.54"/>
<polygon fill="midnightblue" stroke="midnightblue" points="290.44,-714.95 293,-725.23 297.41,-715.6 290.44,-714.95"/>
</g>
<!-- Node35 -->
<g id="node35" class="node">
<title>Node35</title>
<g id="a_node35"><a xlink:href="utilities_8cpp.html" target="_top" xlink:title=" ">
<polygon fill="white" stroke="black" points="31.7,-658.5 31.7,-677.5 122.7,-677.5 122.7,-658.5 31.7,-658.5"/>
<text text-anchor="middle" x="77.2" y="-665.5" font-family="Helvetica,sans-Serif" font-size="10.00">src/utilities.cpp</text>
</a>
</g>
</g>
<!-- Node32&#45;&gt;Node35 -->
<g id="edge67" class="edge">
<title>Node32&#45;&gt;Node35</title>
<path fill="none" stroke="midnightblue" d="M251.81,-722.74C220.45,-713.89 175.94,-701.08 137.2,-689 125.66,-685.41 112.97,-681.21 102.23,-677.59"/>
<polygon fill="midnightblue" stroke="midnightblue" points="250.93,-726.13 261.5,-725.47 252.83,-719.39 250.93,-726.13"/>
</g>
<!-- Node33&#45;&gt;Node20 -->
<g id="edge62" class="edge">
<title>Node33&#45;&gt;Node20</title>
<path fill="none" stroke="midnightblue" d="M337.17,-641.93C383.53,-612.12 460.47,-562.63 506.95,-532.74"/>
<polygon fill="midnightblue" stroke="midnightblue" points="335.12,-639.09 328.61,-647.44 338.91,-644.98 335.12,-639.09"/>
</g>
<!-- Node33&#45;&gt;Node23 -->
<g id="edge63" class="edge">
<title>Node33&#45;&gt;Node23</title>
<path fill="none" stroke="midnightblue" d="M379.55,-647.15C379.77,-647.1 379.98,-647.05 380.2,-647 444.47,-632.3 517.89,-616.71 570.63,-605.72"/>
<polygon fill="midnightblue" stroke="midnightblue" points="378.67,-643.76 369.72,-649.43 380.25,-650.58 378.67,-643.76"/>
</g>
<!-- Node34 -->
<g id="node34" class="node">
<title>Node34</title>
<g id="a_node34"><a xlink:href="weight__importer__utils_8cpp.html" target="_top" xlink:title=" ">
<polygon fill="white" stroke="black" points="216.2,-569.5 216.2,-610.5 362.2,-610.5 362.2,-569.5 216.2,-569.5"/>
<text text-anchor="start" x="224.2" y="-598.5" font-family="Helvetica,sans-Serif" font-size="10.00">src/IO_Interaction</text>
<text text-anchor="start" x="224.2" y="-587.5" font-family="Helvetica,sans-Serif" font-size="10.00">/Weight_Importer_Helpers</text>
<text text-anchor="middle" x="289.2" y="-576.5" font-family="Helvetica,sans-Serif" font-size="10.00">/weight_importer_utils.cpp</text>
</a>
</g>
</g>
<!-- Node33&#45;&gt;Node34 -->
<g id="edge64" class="edge">
<title>Node33&#45;&gt;Node34</title>
<path fill="none" stroke="midnightblue" d="M294.68,-637.3C293.61,-628.3 292.47,-618.65 291.51,-610.51"/>
<polygon fill="midnightblue" stroke="midnightblue" points="291.23,-637.91 295.88,-647.43 298.18,-637.09 291.23,-637.91"/>
</g>
</g>
</svg>
