<?xml version="1.0" encoding="UTF-8" standalone="no"?>
<!DOCTYPE svg PUBLIC "-//W3C//DTD SVG 1.1//EN"
 "http://www.w3.org/Graphics/SVG/1.1/DTD/svg11.dtd">
<!-- Generated by graphviz version 2.43.0 (0)
 -->
<!-- Title: include/network_butcher/Types/variant_attribute.h Pages: 1 -->
<svg width="1189pt" height="1366pt"
 viewBox="0.00 0.00 1189.20 1366.00" xmlns="http://www.w3.org/2000/svg" xmlns:xlink="http://www.w3.org/1999/xlink">
<g id="graph0" class="graph" transform="scale(1 1) rotate(0) translate(4 1362)">
<title>include/network_butcher/Types/variant_attribute.h</title>
<polygon fill="white" stroke="transparent" points="-4,4 -4,-1362 1185.2,-1362 1185.2,4 -4,4"/>
<!-- Node1 -->
<g id="node1" class="node">
<title>Node1</title>
<g id="a_node1"><a xlink:title=" ">
<polygon fill="#bfbfbf" stroke="black" points="593.5,-1327.5 593.5,-1357.5 734.5,-1357.5 734.5,-1327.5 593.5,-1327.5"/>
<text text-anchor="start" x="601.5" y="-1345.5" font-family="Helvetica,sans-Serif" font-size="10.00">include/network_butcher</text>
<text text-anchor="middle" x="664" y="-1334.5" font-family="Helvetica,sans-Serif" font-size="10.00">/Types/variant_attribute.h</text>
</a>
</g>
</g>
<!-- Node2 -->
<g id="node2" class="node">
<title>Node2</title>
<g id="a_node2"><a xlink:href="content_8h.html" target="_top" xlink:title=" ">
<polygon fill="white" stroke="black" points="515.5,-1193.5 515.5,-1223.5 652.5,-1223.5 652.5,-1193.5 515.5,-1193.5"/>
<text text-anchor="start" x="523.5" y="-1211.5" font-family="Helvetica,sans-Serif" font-size="10.00">include/network_butcher</text>
<text text-anchor="middle" x="584" y="-1200.5" font-family="Helvetica,sans-Serif" font-size="10.00">/Types/content.h</text>
</a>
</g>
</g>
<!-- Node1&#45;&gt;Node2 -->
<g id="edge1" class="edge">
<title>Node1&#45;&gt;Node2</title>
<path fill="none" stroke="midnightblue" d="M650.05,-1318.48C633.44,-1291.07 606.23,-1246.19 592.5,-1223.52"/>
<polygon fill="midnightblue" stroke="midnightblue" points="647.26,-1320.64 655.44,-1327.37 653.25,-1317.01 647.26,-1320.64"/>
</g>
<!-- Node29 -->
<g id="node29" class="node">
<title>Node29</title>
<g id="a_node29"><a xlink:href="dense__tensor_8h.html" target="_top" xlink:title=" ">
<polygon fill="white" stroke="black" points="660.5,-1260.5 660.5,-1290.5 797.5,-1290.5 797.5,-1260.5 660.5,-1260.5"/>
<text text-anchor="start" x="668.5" y="-1278.5" font-family="Helvetica,sans-Serif" font-size="10.00">include/network_butcher</text>
<text text-anchor="middle" x="729" y="-1267.5" font-family="Helvetica,sans-Serif" font-size="10.00">/Types/dense_tensor.h</text>
</a>
</g>
</g>
<!-- Node1&#45;&gt;Node29 -->
<g id="edge54" class="edge">
<title>Node1&#45;&gt;Node29</title>
<path fill="none" stroke="midnightblue" d="M685.19,-1320.31C694.94,-1310.56 706.24,-1299.26 714.92,-1290.58"/>
<polygon fill="midnightblue" stroke="midnightblue" points="682.7,-1317.85 678.1,-1327.4 687.65,-1322.8 682.7,-1317.85"/>
</g>
<!-- Node3 -->
<g id="node3" class="node">
<title>Node3</title>
<g id="a_node3"><a xlink:href="graph_8h.html" target="_top" xlink:title=" ">
<polygon fill="white" stroke="black" points="325.5,-1059.5 325.5,-1089.5 462.5,-1089.5 462.5,-1059.5 325.5,-1059.5"/>
<text text-anchor="start" x="333.5" y="-1077.5" font-family="Helvetica,sans-Serif" font-size="10.00">include/network_butcher</text>
<text text-anchor="middle" x="394" y="-1066.5" font-family="Helvetica,sans-Serif" font-size="10.00">/Network/graph.h</text>
</a>
</g>
</g>
<!-- Node2&#45;&gt;Node3 -->
<g id="edge2" class="edge">
<title>Node2&#45;&gt;Node3</title>
<path fill="none" stroke="midnightblue" d="M572.35,-1184.19C562.27,-1166.12 546.16,-1141.61 526,-1126 504.37,-1109.25 476.54,-1097.51 452.01,-1089.6"/>
<polygon fill="midnightblue" stroke="midnightblue" points="569.51,-1186.3 577.31,-1193.47 575.68,-1183 569.51,-1186.3"/>
</g>
<!-- Node4 -->
<g id="node4" class="node">
<title>Node4</title>
<g id="a_node4"><a xlink:href="graph__traits_8h.html" target="_top" xlink:title=" ">
<polygon fill="white" stroke="black" points="209.5,-858.5 209.5,-888.5 346.5,-888.5 346.5,-858.5 209.5,-858.5"/>
<text text-anchor="start" x="217.5" y="-876.5" font-family="Helvetica,sans-Serif" font-size="10.00">include/network_butcher</text>
<text text-anchor="middle" x="278" y="-865.5" font-family="Helvetica,sans-Serif" font-size="10.00">/Network/graph_traits.h</text>
</a>
</g>
</g>
<!-- Node2&#45;&gt;Node4 -->
<g id="edge51" class="edge">
<title>Node2&#45;&gt;Node4</title>
<path fill="none" stroke="midnightblue" d="M584,-1182.99C584,-1156.49 584,-1113 584,-1075.5 584,-1075.5 584,-1075.5 584,-1006.5 584,-903.8 436.89,-880.06 346.67,-875.15"/>
<polygon fill="midnightblue" stroke="midnightblue" points="580.5,-1183.24 584,-1193.24 587.5,-1183.24 580.5,-1183.24"/>
</g>
<!-- Node28 -->
<g id="node28" class="node">
<title>Node28</title>
<g id="a_node28"><a xlink:href="node__traits_8h.html" target="_top" xlink:title=" ">
<polygon fill="white" stroke="black" points="380.5,-1126.5 380.5,-1156.5 517.5,-1156.5 517.5,-1126.5 380.5,-1126.5"/>
<text text-anchor="start" x="388.5" y="-1144.5" font-family="Helvetica,sans-Serif" font-size="10.00">include/network_butcher</text>
<text text-anchor="middle" x="449" y="-1133.5" font-family="Helvetica,sans-Serif" font-size="10.00">/Network/node_traits.h</text>
</a>
</g>
</g>
<!-- Node2&#45;&gt;Node28 -->
<g id="edge52" class="edge">
<title>Node2&#45;&gt;Node28</title>
<path fill="none" stroke="midnightblue" d="M545.56,-1188.99C524.16,-1178.69 497.95,-1166.07 478.24,-1156.58"/>
<polygon fill="midnightblue" stroke="midnightblue" points="544.18,-1192.21 554.71,-1193.4 547.22,-1185.9 544.18,-1192.21"/>
</g>
<!-- Node3&#45;&gt;Node4 -->
<g id="edge3" class="edge">
<title>Node3&#45;&gt;Node4</title>
<path fill="none" stroke="midnightblue" d="M352.21,-1054.28C338.91,-1046.31 325.26,-1035.88 316,-1023 285.71,-980.87 279.51,-916.76 278.28,-888.6"/>
<polygon fill="midnightblue" stroke="midnightblue" points="350.88,-1057.55 361.31,-1059.4 354.31,-1051.45 350.88,-1057.55"/>
</g>
<!-- Node25 -->
<g id="node25" class="node">
<title>Node25</title>
<g id="a_node25"><a xlink:href="mwgraph_8h.html" target="_top" xlink:title=" ">
<polygon fill="white" stroke="black" points="325.5,-992.5 325.5,-1022.5 462.5,-1022.5 462.5,-992.5 325.5,-992.5"/>
<text text-anchor="start" x="333.5" y="-1010.5" font-family="Helvetica,sans-Serif" font-size="10.00">include/network_butcher</text>
<text text-anchor="middle" x="394" y="-999.5" font-family="Helvetica,sans-Serif" font-size="10.00">/Network/mwgraph.h</text>
</a>
</g>
</g>
<!-- Node3&#45;&gt;Node25 -->
<g id="edge42" class="edge">
<title>Node3&#45;&gt;Node25</title>
<path fill="none" stroke="midnightblue" d="M394,-1049.11C394,-1040.15 394,-1030.32 394,-1022.58"/>
<polygon fill="midnightblue" stroke="midnightblue" points="390.5,-1049.4 394,-1059.4 397.5,-1049.4 390.5,-1049.4"/>
</g>
<!-- Node5 -->
<g id="node5" class="node">
<title>Node5</title>
<g id="a_node5"><a xlink:href="butcher_8h.html" target="_top" xlink:title=" ">
<polygon fill="white" stroke="black" points="339.5,-290.5 339.5,-320.5 476.5,-320.5 476.5,-290.5 339.5,-290.5"/>
<text text-anchor="start" x="347.5" y="-308.5" font-family="Helvetica,sans-Serif" font-size="10.00">include/network_butcher</text>
<text text-anchor="middle" x="408" y="-297.5" font-family="Helvetica,sans-Serif" font-size="10.00">/Butcher/butcher.h</text>
</a>
</g>
</g>
<!-- Node4&#45;&gt;Node5 -->
<g id="edge4" class="edge">
<title>Node4&#45;&gt;Node5</title>
<path fill="none" stroke="midnightblue" d="M243.59,-853.14C206.28,-829.32 152,-785.1 152,-729.5 152,-729.5 152,-729.5 152,-460.5 152,-413.73 138.4,-390.54 171,-357 194.02,-333.32 277.94,-319.69 339.41,-312.69"/>
<polygon fill="midnightblue" stroke="midnightblue" points="241.85,-856.18 252.2,-858.48 245.54,-850.23 241.85,-856.18"/>
</g>
<!-- Node6 -->
<g id="node6" class="node">
<title>Node6</title>
<g id="a_node6"><a xlink:href="onnx__importer__helpers_8h.html" target="_top" xlink:title=" ">
<polygon fill="white" stroke="black" points="33,-212.5 33,-253.5 195,-253.5 195,-212.5 33,-212.5"/>
<text text-anchor="start" x="41" y="-241.5" font-family="Helvetica,sans-Serif" font-size="10.00">include/network_butcher</text>
<text text-anchor="start" x="41" y="-230.5" font-family="Helvetica,sans-Serif" font-size="10.00">/IO_Interaction/onnx_importer</text>
<text text-anchor="middle" x="114" y="-219.5" font-family="Helvetica,sans-Serif" font-size="10.00">_helpers.h</text>
</a>
</g>
</g>
<!-- Node4&#45;&gt;Node6 -->
<g id="edge23" class="edge">
<title>Node4&#45;&gt;Node6</title>
<path fill="none" stroke="midnightblue" d="M199.37,-863.07C165.67,-856 127.38,-843.62 98,-822 58.53,-792.95 38,-778.5 38,-729.5 38,-729.5 38,-729.5 38,-377 38,-328.08 73.11,-279.6 95.6,-253.56"/>
<polygon fill="midnightblue" stroke="midnightblue" points="198.71,-866.51 209.2,-865.01 200.07,-859.64 198.71,-866.51"/>
</g>
<!-- Node9 -->
<g id="node9" class="node">
<title>Node9</title>
<g id="a_node9"><a xlink:href="network__butcher_8h.html" target="_top" xlink:title=" ">
<polygon fill="white" stroke="black" points="430.5,-0.5 430.5,-30.5 567.5,-30.5 567.5,-0.5 430.5,-0.5"/>
<text text-anchor="start" x="438.5" y="-18.5" font-family="Helvetica,sans-Serif" font-size="10.00">include/network_butcher</text>
<text text-anchor="middle" x="499" y="-7.5" font-family="Helvetica,sans-Serif" font-size="10.00">/network_butcher.h</text>
</a>
</g>
</g>
<!-- Node4&#45;&gt;Node9 -->
<g id="edge36" class="edge">
<title>Node4&#45;&gt;Node9</title>
<path fill="none" stroke="midnightblue" d="M199.31,-869.63C153.8,-864.51 97.5,-851.94 56,-822 17.03,-793.88 0,-777.56 0,-729.5 0,-729.5 0,-729.5 0,-154 0,-140.12 11.95,-140.89 24,-134 100.64,-90.18 125.66,-89.59 211,-67 284.98,-47.41 371.7,-33.38 430.5,-25.16"/>
<polygon fill="midnightblue" stroke="midnightblue" points="199.14,-873.13 209.45,-870.67 199.85,-866.17 199.14,-873.13"/>
</g>
<!-- Node13 -->
<g id="node13" class="node">
<title>Node13</title>
<g id="a_node13"><a xlink:href="onnx__model__reconstructor__helpers_8h.html" target="_top" xlink:title=" ">
<polygon fill="white" stroke="black" points="288.5,-212.5 288.5,-253.5 439.5,-253.5 439.5,-212.5 288.5,-212.5"/>
<text text-anchor="start" x="296.5" y="-241.5" font-family="Helvetica,sans-Serif" font-size="10.00">include/network_butcher</text>
<text text-anchor="start" x="296.5" y="-230.5" font-family="Helvetica,sans-Serif" font-size="10.00">/IO_Interaction/onnx_model</text>
<text text-anchor="middle" x="364" y="-219.5" font-family="Helvetica,sans-Serif" font-size="10.00">_reconstructor_helpers.h</text>
</a>
</g>
</g>
<!-- Node4&#45;&gt;Node13 -->
<g id="edge24" class="edge">
<title>Node4&#45;&gt;Node13</title>
<path fill="none" stroke="midnightblue" d="M211.28,-855.33C152.44,-835.7 76,-797.17 76,-729.5 76,-729.5 76,-729.5 76,-460.5 76,-348.39 212.51,-283.29 297.57,-253.61"/>
<polygon fill="midnightblue" stroke="midnightblue" points="210.33,-858.7 220.92,-858.44 212.48,-852.04 210.33,-858.7"/>
</g>
<!-- Node15 -->
<g id="node15" class="node">
<title>Node15</title>
<g id="a_node15"><a xlink:href="constrained__block__graph__builder_8h.html" target="_top" xlink:title=" ">
<polygon fill="white" stroke="black" points="377.5,-357.5 377.5,-398.5 526.5,-398.5 526.5,-357.5 377.5,-357.5"/>
<text text-anchor="start" x="385.5" y="-386.5" font-family="Helvetica,sans-Serif" font-size="10.00">include/network_butcher</text>
<text text-anchor="start" x="385.5" y="-375.5" font-family="Helvetica,sans-Serif" font-size="10.00">/Butcher/constrained_block</text>
<text text-anchor="middle" x="452" y="-364.5" font-family="Helvetica,sans-Serif" font-size="10.00">_graph_builder.h</text>
</a>
</g>
</g>
<!-- Node4&#45;&gt;Node15 -->
<g id="edge17" class="edge">
<title>Node4&#45;&gt;Node15</title>
<path fill="none" stroke="midnightblue" d="M274.7,-848.13C271.15,-819.71 266,-771.29 266,-729.5 266,-729.5 266,-729.5 266,-549.5 266,-475.03 348.02,-424.28 403.13,-398.58"/>
<polygon fill="midnightblue" stroke="midnightblue" points="271.27,-848.85 276.02,-858.33 278.21,-847.96 271.27,-848.85"/>
</g>
<!-- Node16 -->
<g id="node16" class="node">
<title>Node16</title>
<g id="a_node16"><a xlink:href="graph__constraint_8h.html" target="_top" xlink:title=" ">
<polygon fill="white" stroke="black" points="332.5,-624.5 332.5,-654.5 483.5,-654.5 483.5,-624.5 332.5,-624.5"/>
<text text-anchor="start" x="340.5" y="-642.5" font-family="Helvetica,sans-Serif" font-size="10.00">include/network_butcher</text>
<text text-anchor="middle" x="408" y="-631.5" font-family="Helvetica,sans-Serif" font-size="10.00">/Butcher/graph_constraint.h</text>
</a>
</g>
</g>
<!-- Node4&#45;&gt;Node16 -->
<g id="edge19" class="edge">
<title>Node4&#45;&gt;Node16</title>
<path fill="none" stroke="midnightblue" d="M356.78,-867.52C387.87,-861.22 420.7,-848.23 440,-822 478.11,-770.2 436.65,-687.85 417.07,-654.86"/>
<polygon fill="midnightblue" stroke="midnightblue" points="355.98,-864.11 346.77,-869.34 357.23,-871 355.98,-864.11"/>
</g>
<!-- Node17 -->
<g id="node17" class="node">
<title>Node17</title>
<g id="a_node17"><a xlink:href="path__converter_8h.html" target="_top" xlink:title=" ">
<polygon fill="white" stroke="black" points="180,-363 180,-393 322,-393 322,-363 180,-363"/>
<text text-anchor="start" x="188" y="-381" font-family="Helvetica,sans-Serif" font-size="10.00">include/network_butcher</text>
<text text-anchor="middle" x="251" y="-370" font-family="Helvetica,sans-Serif" font-size="10.00">/Butcher/path_converter.h</text>
</a>
</g>
</g>
<!-- Node4&#45;&gt;Node17 -->
<g id="edge21" class="edge">
<title>Node4&#45;&gt;Node17</title>
<path fill="none" stroke="midnightblue" d="M263.24,-849.47C258.7,-841.15 254.31,-831.47 252,-822 211.97,-657.6 240,-448.6 248.68,-393.06"/>
<polygon fill="midnightblue" stroke="midnightblue" points="260.26,-851.31 268.31,-858.2 266.31,-847.8 260.26,-851.31"/>
</g>
<!-- Node18 -->
<g id="node18" class="node">
<title>Node18</title>
<g id="a_node18"><a xlink:href="weight__importer_8h.html" target="_top" xlink:title=" ">
<polygon fill="white" stroke="black" points="488.5,-702.5 488.5,-754.5 631.5,-754.5 631.5,-702.5 488.5,-702.5"/>
<text text-anchor="start" x="496.5" y="-742.5" font-family="Helvetica,sans-Serif" font-size="10.00">include/network_butcher</text>
<text text-anchor="start" x="496.5" y="-731.5" font-family="Helvetica,sans-Serif" font-size="10.00">/IO_Interaction/Weight</text>
<text text-anchor="start" x="496.5" y="-720.5" font-family="Helvetica,sans-Serif" font-size="10.00">_Importer_Helpers/weight</text>
<text text-anchor="middle" x="560" y="-709.5" font-family="Helvetica,sans-Serif" font-size="10.00">_importer.h</text>
</a>
</g>
</g>
<!-- Node4&#45;&gt;Node18 -->
<g id="edge25" class="edge">
<title>Node4&#45;&gt;Node18</title>
<path fill="none" stroke="midnightblue" d="M356.44,-862.78C393.98,-855.59 438.38,-843.2 474,-822 502.45,-805.06 527.26,-775.92 542.82,-754.87"/>
<polygon fill="midnightblue" stroke="midnightblue" points="355.76,-859.35 346.55,-864.59 357.02,-866.23 355.76,-859.35"/>
</g>
<!-- Node24 -->
<g id="node24" class="node">
<title>Node24</title>
<g id="a_node24"><a xlink:href="parameters_8h.html" target="_top" xlink:title=" ">
<polygon fill="white" stroke="black" points="294.5,-791.5 294.5,-821.5 431.5,-821.5 431.5,-791.5 294.5,-791.5"/>
<text text-anchor="start" x="302.5" y="-809.5" font-family="Helvetica,sans-Serif" font-size="10.00">include/network_butcher</text>
<text text-anchor="middle" x="363" y="-798.5" font-family="Helvetica,sans-Serif" font-size="10.00">/Types/parameters.h</text>
</a>
</g>
</g>
<!-- Node4&#45;&gt;Node24 -->
<g id="edge37" class="edge">
<title>Node4&#45;&gt;Node24</title>
<path fill="none" stroke="midnightblue" d="M304.59,-852.17C317.59,-842.23 332.9,-830.51 344.59,-821.58"/>
<polygon fill="midnightblue" stroke="midnightblue" points="302.26,-849.54 296.44,-858.4 306.51,-855.1 302.26,-849.54"/>
</g>
<!-- Node5&#45;&gt;Node6 -->
<g id="edge5" class="edge">
<title>Node5&#45;&gt;Node6</title>
<path fill="none" stroke="midnightblue" d="M339.72,-288.13C296.57,-277.78 240.57,-264.35 195.15,-253.46"/>
<polygon fill="midnightblue" stroke="midnightblue" points="339.02,-291.56 349.56,-290.49 340.66,-284.75 339.02,-291.56"/>
</g>
<!-- Node5&#45;&gt;Node9 -->
<g id="edge16" class="edge">
<title>Node5&#45;&gt;Node9</title>
<path fill="none" stroke="midnightblue" d="M431.45,-283.31C456.23,-259.59 494.63,-218.82 516,-176 537.92,-132.07 548.65,-113.86 534,-67 529.73,-53.36 520.34,-40.16 512.36,-30.68"/>
<polygon fill="midnightblue" stroke="midnightblue" points="428.8,-280.99 423.92,-290.39 433.6,-286.09 428.8,-280.99"/>
</g>
<!-- Node5&#45;&gt;Node13 -->
<g id="edge13" class="edge">
<title>Node5&#45;&gt;Node13</title>
<path fill="none" stroke="midnightblue" d="M393.77,-281.7C388.11,-272.63 381.67,-262.31 376.23,-253.59"/>
<polygon fill="midnightblue" stroke="midnightblue" points="390.83,-283.6 399.1,-290.23 396.77,-279.9 390.83,-283.6"/>
</g>
<!-- Node7 -->
<g id="node7" class="node">
<title>Node7</title>
<g id="a_node7"><a xlink:href="io__manager_8h.html" target="_top" xlink:title=" ">
<polygon fill="white" stroke="black" points="370.5,-140 370.5,-170 507.5,-170 507.5,-140 370.5,-140"/>
<text text-anchor="start" x="378.5" y="-158" font-family="Helvetica,sans-Serif" font-size="10.00">include/network_butcher</text>
<text text-anchor="middle" x="439" y="-147" font-family="Helvetica,sans-Serif" font-size="10.00">/io_manager.h</text>
</a>
</g>
</g>
<!-- Node6&#45;&gt;Node7 -->
<g id="edge6" class="edge">
<title>Node6&#45;&gt;Node7</title>
<path fill="none" stroke="midnightblue" d="M204.86,-212.04C251.59,-201.61 309.43,-188.46 361,-176 368.75,-174.13 376.91,-172.1 384.92,-170.08"/>
<polygon fill="midnightblue" stroke="midnightblue" points="204.06,-208.63 195.06,-214.22 205.59,-215.46 204.06,-208.63"/>
</g>
<!-- Node12 -->
<g id="node12" class="node">
<title>Node12</title>
<g id="a_node12"><a xlink:href="onnx__importer__helpers_8cpp.html" target="_top" xlink:title=" ">
<polygon fill="white" stroke="black" points="33,-140 33,-170 185,-170 185,-140 33,-140"/>
<text text-anchor="start" x="41" y="-158" font-family="Helvetica,sans-Serif" font-size="10.00">src/IO_Interaction</text>
<text text-anchor="middle" x="109" y="-147" font-family="Helvetica,sans-Serif" font-size="10.00">/onnx_importer_helpers.cpp</text>
</a>
</g>
</g>
<!-- Node6&#45;&gt;Node12 -->
<g id="edge12" class="edge">
<title>Node6&#45;&gt;Node12</title>
<path fill="none" stroke="midnightblue" d="M112.04,-202.28C111.32,-191.25 110.53,-179.25 109.94,-170.23"/>
<polygon fill="midnightblue" stroke="midnightblue" points="108.56,-202.68 112.71,-212.43 115.55,-202.22 108.56,-202.68"/>
</g>
<!-- Node8 -->
<g id="node8" class="node">
<title>Node8</title>
<g id="a_node8"><a xlink:href="general__manager_8h.html" target="_top" xlink:title=" ">
<polygon fill="white" stroke="black" points="220.5,-67.5 220.5,-97.5 357.5,-97.5 357.5,-67.5 220.5,-67.5"/>
<text text-anchor="start" x="228.5" y="-85.5" font-family="Helvetica,sans-Serif" font-size="10.00">include/network_butcher</text>
<text text-anchor="middle" x="289" y="-74.5" font-family="Helvetica,sans-Serif" font-size="10.00">/general_manager.h</text>
</a>
</g>
</g>
<!-- Node7&#45;&gt;Node8 -->
<g id="edge7" class="edge">
<title>Node7&#45;&gt;Node8</title>
<path fill="none" stroke="midnightblue" d="M399.7,-135.53C374.44,-123.66 342.13,-108.47 318.94,-97.57"/>
<polygon fill="midnightblue" stroke="midnightblue" points="398.47,-138.82 409.01,-139.9 401.44,-132.48 398.47,-138.82"/>
</g>
<!-- Node7&#45;&gt;Node9 -->
<g id="edge10" class="edge">
<title>Node7&#45;&gt;Node9</title>
<path fill="none" stroke="midnightblue" d="M419.32,-131.54C405.94,-113.39 392.7,-87.57 405,-67 415.17,-49.99 433.26,-38.37 450.88,-30.62"/>
<polygon fill="midnightblue" stroke="midnightblue" points="416.87,-134.08 425.8,-139.78 422.37,-129.75 416.87,-134.08"/>
</g>
<!-- Node11 -->
<g id="node11" class="node">
<title>Node11</title>
<g id="a_node11"><a xlink:href="io__manager_8cpp.html" target="_top" xlink:title=" ">
<polygon fill="white" stroke="black" points="414.5,-73 414.5,-92 525.5,-92 525.5,-73 414.5,-73"/>
<text text-anchor="middle" x="470" y="-80" font-family="Helvetica,sans-Serif" font-size="10.00">src/io_manager.cpp</text>
</a>
</g>
</g>
<!-- Node7&#45;&gt;Node11 -->
<g id="edge11" class="edge">
<title>Node7&#45;&gt;Node11</title>
<path fill="none" stroke="midnightblue" d="M449.39,-130.36C455.13,-117.32 461.92,-101.88 466.09,-92.39"/>
<polygon fill="midnightblue" stroke="midnightblue" points="446.09,-129.17 445.27,-139.73 452.5,-131.99 446.09,-129.17"/>
</g>
<!-- Node8&#45;&gt;Node9 -->
<g id="edge8" class="edge">
<title>Node8&#45;&gt;Node9</title>
<path fill="none" stroke="midnightblue" d="M344.1,-64.44C378.14,-53.91 421.3,-40.55 453.41,-30.61"/>
<polygon fill="midnightblue" stroke="midnightblue" points="342.83,-61.18 334.31,-67.48 344.9,-67.86 342.83,-61.18"/>
</g>
<!-- Node10 -->
<g id="node10" class="node">
<title>Node10</title>
<g id="a_node10"><a xlink:href="general__manager_8cpp.html" target="_top" xlink:title=" ">
<polygon fill="white" stroke="black" points="219.5,-6 219.5,-25 358.5,-25 358.5,-6 219.5,-6"/>
<text text-anchor="middle" x="289" y="-13" font-family="Helvetica,sans-Serif" font-size="10.00">src/general_manager.cpp</text>
</a>
</g>
</g>
<!-- Node8&#45;&gt;Node10 -->
<g id="edge9" class="edge">
<title>Node8&#45;&gt;Node10</title>
<path fill="none" stroke="midnightblue" d="M289,-57.25C289,-46.02 289,-33.38 289,-25.19"/>
<polygon fill="midnightblue" stroke="midnightblue" points="285.5,-57.4 289,-67.4 292.5,-57.4 285.5,-57.4"/>
</g>
<!-- Node13&#45;&gt;Node7 -->
<g id="edge14" class="edge">
<title>Node13&#45;&gt;Node7</title>
<path fill="none" stroke="midnightblue" d="M390.65,-204.99C402.24,-193.25 415.33,-179.99 424.96,-170.23"/>
<polygon fill="midnightblue" stroke="midnightblue" points="387.85,-202.85 383.31,-212.43 392.83,-207.77 387.85,-202.85"/>
</g>
<!-- Node14 -->
<g id="node14" class="node">
<title>Node14</title>
<g id="a_node14"><a xlink:href="onnx__model__reconstructor__helpers_8cpp.html" target="_top" xlink:title=" ">
<polygon fill="white" stroke="black" points="203.5,-134.5 203.5,-175.5 352.5,-175.5 352.5,-134.5 203.5,-134.5"/>
<text text-anchor="start" x="211.5" y="-163.5" font-family="Helvetica,sans-Serif" font-size="10.00">src/IO_Interaction</text>
<text text-anchor="start" x="211.5" y="-152.5" font-family="Helvetica,sans-Serif" font-size="10.00">/onnx_model_reconstructor</text>
<text text-anchor="middle" x="278" y="-141.5" font-family="Helvetica,sans-Serif" font-size="10.00">_helpers.cpp</text>
</a>
</g>
</g>
<!-- Node13&#45;&gt;Node14 -->
<g id="edge15" class="edge">
<title>Node13&#45;&gt;Node14</title>
<path fill="none" stroke="midnightblue" d="M334.33,-205.78C323.09,-195.84 310.49,-184.72 300.07,-175.51"/>
<polygon fill="midnightblue" stroke="midnightblue" points="332.04,-208.43 341.85,-212.43 336.68,-203.18 332.04,-208.43"/>
</g>
<!-- Node15&#45;&gt;Node5 -->
<g id="edge18" class="edge">
<title>Node15&#45;&gt;Node5</title>
<path fill="none" stroke="midnightblue" d="M434.43,-348.85C428.45,-339.26 422.01,-328.94 416.98,-320.89"/>
<polygon fill="midnightblue" stroke="midnightblue" points="431.48,-350.73 439.74,-357.36 437.42,-347.03 431.48,-350.73"/>
</g>
<!-- Node16&#45;&gt;Node15 -->
<g id="edge20" class="edge">
<title>Node16&#45;&gt;Node15</title>
<path fill="none" stroke="midnightblue" d="M407.03,-614.32C406.62,-602.99 406.2,-589.3 406,-577 405.62,-553.45 402.4,-547.28 406,-524 413.15,-477.8 432.4,-426.17 443.61,-398.71"/>
<polygon fill="midnightblue" stroke="midnightblue" points="403.54,-614.47 407.41,-624.34 410.53,-614.21 403.54,-614.47"/>
</g>
<!-- Node17&#45;&gt;Node5 -->
<g id="edge22" class="edge">
<title>Node17&#45;&gt;Node5</title>
<path fill="none" stroke="midnightblue" d="M291.78,-358.69C318.28,-346.79 352.29,-331.52 376.66,-320.57"/>
<polygon fill="midnightblue" stroke="midnightblue" points="290.08,-355.61 282.39,-362.9 292.95,-362 290.08,-355.61"/>
</g>
<!-- Node19 -->
<g id="node19" class="node">
<title>Node19</title>
<g id="a_node19"><a xlink:href="block__aMLLibrary__weight__importer_8h.html" target="_top" xlink:title=" ">
<polygon fill="white" stroke="black" points="590,-524.5 590,-576.5 760,-576.5 760,-524.5 590,-524.5"/>
<text text-anchor="start" x="598" y="-564.5" font-family="Helvetica,sans-Serif" font-size="10.00">include/network_butcher</text>
<text text-anchor="start" x="598" y="-553.5" font-family="Helvetica,sans-Serif" font-size="10.00">/IO_Interaction/Weight</text>
<text text-anchor="start" x="598" y="-542.5" font-family="Helvetica,sans-Serif" font-size="10.00">_Importer_Helpers/block</text>
<text text-anchor="middle" x="675" y="-531.5" font-family="Helvetica,sans-Serif" font-size="10.00">_aMLLibrary_weight_importer.h</text>
</a>
</g>
</g>
<!-- Node18&#45;&gt;Node19 -->
<g id="edge26" class="edge">
<title>Node18&#45;&gt;Node19</title>
<path fill="none" stroke="midnightblue" d="M640.3,-699.25C654.13,-690.73 666.71,-679.83 675,-666 691.25,-638.89 687.31,-601.29 682,-576.68"/>
<polygon fill="midnightblue" stroke="midnightblue" points="638.49,-696.25 631.54,-704.25 641.96,-702.33 638.49,-696.25"/>
</g>
<!-- Node22 -->
<g id="node22" class="node">
<title>Node22</title>
<g id="a_node22"><a xlink:href="csv__weight__importer_8h.html" target="_top" xlink:title=" ">
<polygon fill="white" stroke="black" points="502,-613.5 502,-665.5 666,-665.5 666,-613.5 502,-613.5"/>
<text text-anchor="start" x="510" y="-653.5" font-family="Helvetica,sans-Serif" font-size="10.00">include/network_butcher</text>
<text text-anchor="start" x="510" y="-642.5" font-family="Helvetica,sans-Serif" font-size="10.00">/IO_Interaction/Weight</text>
<text text-anchor="start" x="510" y="-631.5" font-family="Helvetica,sans-Serif" font-size="10.00">_Importer_Helpers/csv_weight</text>
<text text-anchor="middle" x="584" y="-620.5" font-family="Helvetica,sans-Serif" font-size="10.00">_importer.h</text>
</a>
</g>
</g>
<!-- Node18&#45;&gt;Node22 -->
<g id="edge32" class="edge">
<title>Node18&#45;&gt;Node22</title>
<path fill="none" stroke="midnightblue" d="M569.66,-692.48C572.14,-683.49 574.76,-673.99 577.07,-665.61"/>
<polygon fill="midnightblue" stroke="midnightblue" points="566.23,-691.77 566.94,-702.34 572.98,-693.63 566.23,-691.77"/>
</g>
<!-- Node20 -->
<g id="node20" class="node">
<title>Node20</title>
<g id="a_node20"><a xlink:href="weight__importers_8h.html" target="_top" xlink:title=" ">
<polygon fill="white" stroke="black" points="454.5,-441 454.5,-482 591.5,-482 591.5,-441 454.5,-441"/>
<text text-anchor="start" x="462.5" y="-470" font-family="Helvetica,sans-Serif" font-size="10.00">include/network_butcher</text>
<text text-anchor="start" x="462.5" y="-459" font-family="Helvetica,sans-Serif" font-size="10.00">/IO_Interaction/weight</text>
<text text-anchor="middle" x="523" y="-448" font-family="Helvetica,sans-Serif" font-size="10.00">_importers.h</text>
</a>
</g>
</g>
<!-- Node19&#45;&gt;Node20 -->
<g id="edge27" class="edge">
<title>Node19&#45;&gt;Node20</title>
<path fill="none" stroke="midnightblue" d="M622.3,-519.34C600.73,-506.99 576.4,-493.06 557.21,-482.08"/>
<polygon fill="midnightblue" stroke="midnightblue" points="620.62,-522.41 631.04,-524.34 624.1,-516.33 620.62,-522.41"/>
</g>
<!-- Node21 -->
<g id="node21" class="node">
<title>Node21</title>
<g id="a_node21"><a xlink:href="block__aMLLibrary__weight__importer_8cpp.html" target="_top" xlink:title=" ">
<polygon fill="white" stroke="black" points="609.5,-435.5 609.5,-487.5 752.5,-487.5 752.5,-435.5 609.5,-435.5"/>
<text text-anchor="start" x="617.5" y="-475.5" font-family="Helvetica,sans-Serif" font-size="10.00">src/IO_Interaction</text>
<text text-anchor="start" x="617.5" y="-464.5" font-family="Helvetica,sans-Serif" font-size="10.00">/Weight_Importer_Helpers</text>
<text text-anchor="start" x="617.5" y="-453.5" font-family="Helvetica,sans-Serif" font-size="10.00">/block_aMLLibrary_weight</text>
<text text-anchor="middle" x="681" y="-442.5" font-family="Helvetica,sans-Serif" font-size="10.00">_importer.cpp</text>
</a>
</g>
</g>
<!-- Node19&#45;&gt;Node21 -->
<g id="edge31" class="edge">
<title>Node19&#45;&gt;Node21</title>
<path fill="none" stroke="midnightblue" d="M677.44,-514.19C678.05,-505.28 678.7,-495.9 679.27,-487.61"/>
<polygon fill="midnightblue" stroke="midnightblue" points="673.93,-514.12 676.74,-524.34 680.92,-514.6 673.93,-514.12"/>
</g>
<!-- Node20&#45;&gt;Node5 -->
<g id="edge28" class="edge">
<title>Node20&#45;&gt;Node5</title>
<path fill="none" stroke="midnightblue" d="M536.15,-431.16C543.94,-408.95 549.71,-378.68 535,-357 521.61,-337.27 499.16,-325.24 476.83,-317.92"/>
<polygon fill="midnightblue" stroke="midnightblue" points="532.79,-430.14 532.49,-440.73 539.33,-432.64 532.79,-430.14"/>
</g>
<!-- Node20&#45;&gt;Node7 -->
<g id="edge30" class="edge">
<title>Node20&#45;&gt;Node7</title>
<path fill="none" stroke="midnightblue" d="M540.75,-432.16C546.11,-422.08 551.29,-410.4 554,-399 558.32,-380.84 558.8,-375.04 554,-357 533.55,-280.07 475.94,-201.9 450.88,-170.43"/>
<polygon fill="midnightblue" stroke="midnightblue" points="537.68,-430.48 535.84,-440.92 543.79,-433.91 537.68,-430.48"/>
</g>
<!-- Node20&#45;&gt;Node15 -->
<g id="edge29" class="edge">
<title>Node20&#45;&gt;Node15</title>
<path fill="none" stroke="midnightblue" d="M499.23,-433.21C489.33,-421.86 478.07,-408.93 469.03,-398.55"/>
<polygon fill="midnightblue" stroke="midnightblue" points="496.61,-435.53 505.81,-440.77 501.88,-430.93 496.61,-435.53"/>
</g>
<!-- Node22&#45;&gt;Node19 -->
<g id="edge33" class="edge">
<title>Node22&#45;&gt;Node19</title>
<path fill="none" stroke="midnightblue" d="M617.61,-606.36C627.89,-596.54 639.03,-585.89 648.74,-576.61"/>
<polygon fill="midnightblue" stroke="midnightblue" points="615.13,-603.9 610.32,-613.34 619.97,-608.96 615.13,-603.9"/>
</g>
<!-- Node22&#45;&gt;Node20 -->
<g id="edge34" class="edge">
<title>Node22&#45;&gt;Node20</title>
<path fill="none" stroke="midnightblue" d="M495.01,-610.16C458.75,-597.73 424.08,-584.32 419,-577 405.56,-557.65 407.33,-544.46 419,-524 429.71,-505.23 448.63,-491.61 467.43,-482.03"/>
<polygon fill="midnightblue" stroke="midnightblue" points="494.16,-613.56 504.75,-613.46 496.41,-606.93 494.16,-613.56"/>
</g>
<!-- Node23 -->
<g id="node23" class="node">
<title>Node23</title>
<g id="a_node23"><a xlink:href="csv__weight__importer_8cpp.html" target="_top" xlink:title=" ">
<polygon fill="white" stroke="black" points="428.5,-530 428.5,-571 571.5,-571 571.5,-530 428.5,-530"/>
<text text-anchor="start" x="436.5" y="-559" font-family="Helvetica,sans-Serif" font-size="10.00">src/IO_Interaction</text>
<text text-anchor="start" x="436.5" y="-548" font-family="Helvetica,sans-Serif" font-size="10.00">/Weight_Importer_Helpers</text>
<text text-anchor="middle" x="500" y="-537" font-family="Helvetica,sans-Serif" font-size="10.00">/csv_weight_importer.cpp</text>
</a>
</g>
</g>
<!-- Node22&#45;&gt;Node23 -->
<g id="edge35" class="edge">
<title>Node22&#45;&gt;Node23</title>
<path fill="none" stroke="midnightblue" d="M552.47,-605.85C541.18,-594.15 528.8,-581.33 518.91,-571.08"/>
<polygon fill="midnightblue" stroke="midnightblue" points="550.24,-608.57 559.7,-613.34 555.28,-603.71 550.24,-608.57"/>
</g>
<!-- Node24&#45;&gt;Node5 -->
<g id="edge38" class="edge">
<title>Node24&#45;&gt;Node5</title>
<path fill="none" stroke="midnightblue" d="M353.93,-781.6C344.04,-754.17 328.85,-707.59 323,-666 307.91,-558.64 358.09,-379.09 368,-357 374.14,-343.33 384.81,-330.13 393.59,-320.66"/>
<polygon fill="midnightblue" stroke="midnightblue" points="350.69,-782.95 357.43,-791.13 357.26,-780.54 350.69,-782.95"/>
</g>
<!-- Node24&#45;&gt;Node6 -->
<g id="edge40" class="edge">
<title>Node24&#45;&gt;Node6</title>
<path fill="none" stroke="midnightblue" d="M345.22,-783.47C338.72,-774.88 331.6,-764.75 326,-755 240.03,-605.37 233.67,-559.79 171,-399 150.8,-347.18 130.27,-284.87 120.27,-253.74"/>
<polygon fill="midnightblue" stroke="midnightblue" points="342.54,-785.73 351.43,-791.49 348.07,-781.44 342.54,-785.73"/>
</g>
<!-- Node24&#45;&gt;Node16 -->
<g id="edge39" class="edge">
<title>Node24&#45;&gt;Node16</title>
<path fill="none" stroke="midnightblue" d="M369.52,-781.59C379.05,-746.66 396.48,-682.75 404.17,-654.53"/>
<polygon fill="midnightblue" stroke="midnightblue" points="366.09,-780.86 366.84,-791.43 372.84,-782.71 366.09,-780.86"/>
</g>
<!-- Node24&#45;&gt;Node18 -->
<g id="edge41" class="edge">
<title>Node24&#45;&gt;Node18</title>
<path fill="none" stroke="midnightblue" d="M409.04,-787.74C434.59,-777.88 466.8,-765.45 494.9,-754.62"/>
<polygon fill="midnightblue" stroke="midnightblue" points="407.66,-784.52 399.59,-791.38 410.18,-791.05 407.66,-784.52"/>
</g>
<!-- Node25&#45;&gt;Node4 -->
<g id="edge43" class="edge">
<title>Node25&#45;&gt;Node4</title>
<path fill="none" stroke="midnightblue" d="M367.01,-985.84C356.48,-977.17 344.65,-966.64 335,-956 315.28,-934.26 296.62,-905.45 286.3,-888.55"/>
<polygon fill="midnightblue" stroke="midnightblue" points="365.13,-988.81 375.11,-992.36 369.52,-983.36 365.13,-988.81"/>
</g>
<!-- Node26 -->
<g id="node26" class="node">
<title>Node26</title>
<g id="a_node26"><a xlink:href="wgraph_8h.html" target="_top" xlink:title=" ">
<polygon fill="white" stroke="black" points="344.5,-925.5 344.5,-955.5 481.5,-955.5 481.5,-925.5 344.5,-925.5"/>
<text text-anchor="start" x="352.5" y="-943.5" font-family="Helvetica,sans-Serif" font-size="10.00">include/network_butcher</text>
<text text-anchor="middle" x="413" y="-932.5" font-family="Helvetica,sans-Serif" font-size="10.00">/Network/wgraph.h</text>
</a>
</g>
</g>
<!-- Node25&#45;&gt;Node26 -->
<g id="edge44" class="edge">
<title>Node25&#45;&gt;Node26</title>
<path fill="none" stroke="midnightblue" d="M400.96,-982.7C403.62,-973.59 406.57,-963.49 408.89,-955.58"/>
<polygon fill="midnightblue" stroke="midnightblue" points="397.57,-981.82 398.12,-992.4 404.29,-983.78 397.57,-981.82"/>
</g>
<!-- Node26&#45;&gt;Node4 -->
<g id="edge50" class="edge">
<title>Node26&#45;&gt;Node4</title>
<path fill="none" stroke="midnightblue" d="M374.56,-920.99C353.16,-910.69 326.95,-898.07 307.24,-888.58"/>
<polygon fill="midnightblue" stroke="midnightblue" points="373.18,-924.21 383.71,-925.4 376.22,-917.9 373.18,-924.21"/>
</g>
<!-- Node27 -->
<g id="node27" class="node">
<title>Node27</title>
<g id="a_node27"><a xlink:href="computer__memory_8h.html" target="_top" xlink:title=" ">
<polygon fill="white" stroke="black" points="649.5,-713.5 649.5,-743.5 820.5,-743.5 820.5,-713.5 649.5,-713.5"/>
<text text-anchor="start" x="657.5" y="-731.5" font-family="Helvetica,sans-Serif" font-size="10.00">include/network_butcher</text>
<text text-anchor="middle" x="735" y="-720.5" font-family="Helvetica,sans-Serif" font-size="10.00">/Computer/computer_memory.h</text>
</a>
</g>
</g>
<!-- Node26&#45;&gt;Node27 -->
<g id="edge45" class="edge">
<title>Node26&#45;&gt;Node27</title>
<path fill="none" stroke="midnightblue" d="M443.14,-919.85C507.6,-877.8 657.55,-780.01 713.47,-743.54"/>
<polygon fill="midnightblue" stroke="midnightblue" points="441.09,-917 434.63,-925.4 444.92,-922.86 441.09,-917"/>
</g>
<!-- Node27&#45;&gt;Node5 -->
<g id="edge46" class="edge">
<title>Node27&#45;&gt;Node5</title>
<path fill="none" stroke="midnightblue" d="M746.74,-704.13C771.85,-650.49 823.64,-516.89 762,-435 694.66,-345.54 559,-318.27 476.56,-310.01"/>
<polygon fill="midnightblue" stroke="midnightblue" points="743.57,-702.65 742.4,-713.18 749.88,-705.68 743.57,-702.65"/>
</g>
<!-- Node27&#45;&gt;Node9 -->
<g id="edge49" class="edge">
<title>Node27&#45;&gt;Node9</title>
<path fill="none" stroke="midnightblue" d="M756.57,-705.59C766.46,-694.51 777.6,-680.37 785,-666 845.58,-548.38 864,-511.3 864,-379 864,-379 864,-379 864,-154 864,-91.36 673.39,-47.45 567.65,-27.91"/>
<polygon fill="midnightblue" stroke="midnightblue" points="753.87,-703.36 749.67,-713.09 759.02,-708.1 753.87,-703.36"/>
</g>
<!-- Node27&#45;&gt;Node16 -->
<g id="edge47" class="edge">
<title>Node27&#45;&gt;Node16</title>
<path fill="none" stroke="midnightblue" d="M674.64,-710.87C663.47,-707.87 651.89,-704.8 641,-702 575.44,-685.14 558.33,-683.73 493,-666 480.06,-662.49 466.1,-658.42 453.31,-654.58"/>
<polygon fill="midnightblue" stroke="midnightblue" points="673.76,-714.26 684.33,-713.49 675.59,-707.5 673.76,-714.26"/>
</g>
<!-- Node27&#45;&gt;Node19 -->
<g id="edge48" class="edge">
<title>Node27&#45;&gt;Node19</title>
<path fill="none" stroke="midnightblue" d="M731.18,-703.27C727.03,-679.71 719.43,-643.17 708,-613 703.28,-600.54 696.52,-587.43 690.35,-576.53"/>
<polygon fill="midnightblue" stroke="midnightblue" points="727.78,-704.13 732.89,-713.4 734.68,-702.96 727.78,-704.13"/>
</g>
<!-- Node28&#45;&gt;Node3 -->
<g id="edge53" class="edge">
<title>Node28&#45;&gt;Node3</title>
<path fill="none" stroke="midnightblue" d="M430.58,-1118.74C422.45,-1109.12 413.11,-1098.09 405.91,-1089.58"/>
<polygon fill="midnightblue" stroke="midnightblue" points="427.93,-1121.02 437.07,-1126.4 433.28,-1116.5 427.93,-1121.02"/>
</g>
<!-- Node29&#45;&gt;Node2 -->
<g id="edge58" class="edge">
<title>Node29&#45;&gt;Node2</title>
<path fill="none" stroke="midnightblue" d="M688.33,-1256.27C665.24,-1245.92 636.76,-1233.15 615.4,-1223.58"/>
<polygon fill="midnightblue" stroke="midnightblue" points="686.98,-1259.5 697.54,-1260.4 689.84,-1253.11 686.98,-1259.5"/>
</g>
<!-- Node30 -->
<g id="node30" class="node">
<title>Node30</title>
<g id="a_node30"><a xlink:href="node_8h.html" target="_top" xlink:title=" ">
<polygon fill="white" stroke="black" points="360.5,-1193.5 360.5,-1223.5 497.5,-1223.5 497.5,-1193.5 360.5,-1193.5"/>
<text text-anchor="start" x="368.5" y="-1211.5" font-family="Helvetica,sans-Serif" font-size="10.00">include/network_butcher</text>
<text text-anchor="middle" x="429" y="-1200.5" font-family="Helvetica,sans-Serif" font-size="10.00">/Network/node.h</text>
</a>
</g>
</g>
<!-- Node29&#45;&gt;Node30 -->
<g id="edge55" class="edge">
<title>Node29&#45;&gt;Node30</title>
<path fill="none" stroke="midnightblue" d="M654.3,-1258.32C605,-1247.63 541.04,-1233.77 493.87,-1223.55"/>
<polygon fill="midnightblue" stroke="midnightblue" points="653.76,-1261.78 664.27,-1260.48 655.24,-1254.94 653.76,-1261.78"/>
</g>
<!-- Node31 -->
<g id="node31" class="node">
<title>Node31</title>
<g id="a_node31"><a xlink:href="utilities_8h.html" target="_top" xlink:title=" ">
<polygon fill="white" stroke="black" points="841.5,-791.5 841.5,-821.5 978.5,-821.5 978.5,-791.5 841.5,-791.5"/>
<text text-anchor="start" x="849.5" y="-809.5" font-family="Helvetica,sans-Serif" font-size="10.00">include/network_butcher</text>
<text text-anchor="middle" x="910" y="-798.5" font-family="Helvetica,sans-Serif" font-size="10.00">/utilities.h</text>
</a>
</g>
</g>
<!-- Node29&#45;&gt;Node31 -->
<g id="edge59" class="edge">
<title>Node29&#45;&gt;Node31</title>
<path fill="none" stroke="midnightblue" d="M778.62,-1256.66C825.68,-1237.22 889,-1200.84 889,-1142.5 889,-1142.5 889,-1142.5 889,-939.5 889,-896.47 895.4,-845.87 902.36,-821.72"/>
<polygon fill="midnightblue" stroke="midnightblue" points="777.14,-1253.48 769.15,-1260.44 779.73,-1259.98 777.14,-1253.48"/>
</g>
<!-- Node35 -->
<g id="node35" class="node">
<title>Node35</title>
<g id="a_node35"><a xlink:href="dense__tensor_8cpp.html" target="_top" xlink:title=" ">
<polygon fill="white" stroke="black" points="670.5,-1199 670.5,-1218 819.5,-1218 819.5,-1199 670.5,-1199"/>
<text text-anchor="middle" x="745" y="-1206" font-family="Helvetica,sans-Serif" font-size="10.00">src/Types/dense_tensor.cpp</text>
</a>
</g>
</g>
<!-- Node29&#45;&gt;Node35 -->
<g id="edge69" class="edge">
<title>Node29&#45;&gt;Node35</title>
<path fill="none" stroke="midnightblue" d="M734.88,-1250.6C737.67,-1239.28 740.82,-1226.46 742.86,-1218.19"/>
<polygon fill="midnightblue" stroke="midnightblue" points="731.46,-1249.85 732.47,-1260.4 738.26,-1251.52 731.46,-1249.85"/>
</g>
<!-- Node30&#45;&gt;Node3 -->
<g id="edge56" class="edge">
<title>Node30&#45;&gt;Node3</title>
<path fill="none" stroke="midnightblue" d="M396.38,-1187.3C386.32,-1179.23 376.46,-1168.99 371,-1157 360.71,-1134.39 374.03,-1106.11 384.27,-1089.51"/>
<polygon fill="midnightblue" stroke="midnightblue" points="394.31,-1190.12 404.41,-1193.29 398.49,-1184.51 394.31,-1190.12"/>
</g>
<!-- Node30&#45;&gt;Node28 -->
<g id="edge57" class="edge">
<title>Node30&#45;&gt;Node28</title>
<path fill="none" stroke="midnightblue" d="M436.32,-1183.7C439.13,-1174.59 442.23,-1164.49 444.67,-1156.58"/>
<polygon fill="midnightblue" stroke="midnightblue" points="432.94,-1182.81 433.34,-1193.4 439.63,-1184.87 432.94,-1182.81"/>
</g>
<!-- Node31&#45;&gt;Node5 -->
<g id="edge60" class="edge">
<title>Node31&#45;&gt;Node5</title>
<path fill="none" stroke="midnightblue" d="M951.19,-786.33C965.23,-778.23 980.12,-767.7 991,-755 1033.51,-705.39 1057.35,-671.86 1029,-613 949.83,-448.59 874.62,-431.41 708,-357 633.37,-323.67 539.34,-312.18 476.64,-308.31"/>
<polygon fill="midnightblue" stroke="midnightblue" points="949.21,-783.42 942.13,-791.31 952.58,-789.56 949.21,-783.42"/>
</g>
<!-- Node31&#45;&gt;Node9 -->
<g id="edge66" class="edge">
<title>Node31&#45;&gt;Node9</title>
<path fill="none" stroke="midnightblue" d="M988.81,-799.09C1052.39,-792.23 1134.91,-778.94 1158,-755 1193.81,-717.87 1177,-692.08 1177,-640.5 1177,-640.5 1177,-640.5 1177,-154 1177,-30.59 740.11,-16.71 567.74,-16.03"/>
<polygon fill="midnightblue" stroke="midnightblue" points="988.37,-795.62 978.78,-800.14 989.09,-802.58 988.37,-795.62"/>
</g>
<!-- Node31&#45;&gt;Node27 -->
<g id="edge61" class="edge">
<title>Node31&#45;&gt;Node27</title>
<path fill="none" stroke="midnightblue" d="M868.26,-787.37C837.32,-773.94 795.76,-755.89 767.33,-743.54"/>
<polygon fill="midnightblue" stroke="midnightblue" points="866.93,-790.61 877.49,-791.38 869.72,-784.19 866.93,-790.61"/>
</g>
<!-- Node31&#45;&gt;Node29 -->
<g id="edge67" class="edge">
<title>Node31&#45;&gt;Node29</title>
<path fill="none" stroke="midnightblue" d="M913.09,-831.95C911.9,-858.4 907,-901.85 907,-939.5 907,-1142.5 907,-1142.5 907,-1142.5 907,-1204.86 834.65,-1242.13 782.11,-1260.44"/>
<polygon fill="midnightblue" stroke="midnightblue" points="916.59,-831.81 913.35,-821.72 909.6,-831.63 916.59,-831.81"/>
</g>
<!-- Node32 -->
<g id="node32" class="node">
<title>Node32</title>
<g id="a_node32"><a xlink:href="weight__importer__utils_8h.html" target="_top" xlink:title=" ">
<polygon fill="white" stroke="black" points="838.5,-702.5 838.5,-754.5 981.5,-754.5 981.5,-702.5 838.5,-702.5"/>
<text text-anchor="start" x="846.5" y="-742.5" font-family="Helvetica,sans-Serif" font-size="10.00">include/network_butcher</text>
<text text-anchor="start" x="846.5" y="-731.5" font-family="Helvetica,sans-Serif" font-size="10.00">/IO_Interaction/Weight</text>
<text text-anchor="start" x="846.5" y="-720.5" font-family="Helvetica,sans-Serif" font-size="10.00">_Importer_Helpers/weight</text>
<text text-anchor="middle" x="910" y="-709.5" font-family="Helvetica,sans-Serif" font-size="10.00">_importer_utils.h</text>
</a>
</g>
</g>
<!-- Node31&#45;&gt;Node32 -->
<g id="edge62" class="edge">
<title>Node31&#45;&gt;Node32</title>
<path fill="none" stroke="midnightblue" d="M910,-781.14C910,-772.63 910,-763.07 910,-754.5"/>
<polygon fill="midnightblue" stroke="midnightblue" points="906.5,-781.2 910,-791.2 913.5,-781.21 906.5,-781.2"/>
</g>
<!-- Node34 -->
<g id="node34" class="node">
<title>Node34</title>
<g id="a_node34"><a xlink:href="utilities_8cpp.html" target="_top" xlink:title=" ">
<polygon fill="white" stroke="black" points="1057.5,-719 1057.5,-738 1148.5,-738 1148.5,-719 1057.5,-719"/>
<text text-anchor="middle" x="1103" y="-726" font-family="Helvetica,sans-Serif" font-size="10.00">src/utilities.cpp</text>
</a>
</g>
</g>
<!-- Node31&#45;&gt;Node34 -->
<g id="edge68" class="edge">
<title>Node31&#45;&gt;Node34</title>
<path fill="none" stroke="midnightblue" d="M957.69,-787.91C983.11,-778.4 1014.86,-766.32 1043,-755 1056.55,-749.55 1071.68,-743.12 1083.35,-738.08"/>
<polygon fill="midnightblue" stroke="midnightblue" points="956.42,-784.64 948.28,-791.42 958.87,-791.2 956.42,-784.64"/>
</g>
<!-- Node32&#45;&gt;Node19 -->
<g id="edge63" class="edge">
<title>Node32&#45;&gt;Node19</title>
<path fill="none" stroke="midnightblue" d="M868.14,-696.15C822.58,-662.03 750.63,-608.14 708.61,-576.67"/>
<polygon fill="midnightblue" stroke="midnightblue" points="866.23,-699.09 876.33,-702.28 870.42,-693.49 866.23,-699.09"/>
</g>
<!-- Node32&#45;&gt;Node22 -->
<g id="edge64" class="edge">
<title>Node32&#45;&gt;Node22</title>
<path fill="none" stroke="midnightblue" d="M828.24,-701.55C769.23,-684.96 711.52,-670.56 666.07,-659.63"/>
<polygon fill="midnightblue" stroke="midnightblue" points="827.53,-704.99 838.11,-704.35 829.44,-698.26 827.53,-704.99"/>
</g>
<!-- Node33 -->
<g id="node33" class="node">
<title>Node33</title>
<g id="a_node33"><a xlink:href="weight__importer__utils_8cpp.html" target="_top" xlink:title=" ">
<polygon fill="white" stroke="black" points="874,-619 874,-660 1020,-660 1020,-619 874,-619"/>
<text text-anchor="start" x="882" y="-648" font-family="Helvetica,sans-Serif" font-size="10.00">src/IO_Interaction</text>
<text text-anchor="start" x="882" y="-637" font-family="Helvetica,sans-Serif" font-size="10.00">/Weight_Importer_Helpers</text>
<text text-anchor="middle" x="947" y="-626" font-family="Helvetica,sans-Serif" font-size="10.00">/weight_importer_utils.cpp</text>
</a>
</g>
</g>
<!-- Node32&#45;&gt;Node33 -->
<g id="edge65" class="edge">
<title>Node32&#45;&gt;Node33</title>
<path fill="none" stroke="midnightblue" d="M924.74,-692.83C929.48,-681.69 934.56,-669.74 938.67,-660.08"/>
<polygon fill="midnightblue" stroke="midnightblue" points="921.39,-691.76 920.7,-702.34 927.84,-694.5 921.39,-691.76"/>
</g>
</g>
</svg>
