<?xml version="1.0" encoding="UTF-8" standalone="no"?>
<!DOCTYPE svg PUBLIC "-//W3C//DTD SVG 1.1//EN"
 "http://www.w3.org/Graphics/SVG/1.1/DTD/svg11.dtd">
<!-- Generated by graphviz version 2.43.0 (0)
 -->
<!-- Title: include/Types/variant_attribute.h Pages: 1 -->
<!--zoomable 1245 -->
<svg id="main" version="1.1" xmlns="http://www.w3.org/2000/svg" xmlns:xlink="http://www.w3.org/1999/xlink" xml:space="preserve" onload="init(evt)">
<style type="text/css"><![CDATA[
.edge:hover path { stroke: red; }
.edge:hover polygon { stroke: red; fill: red; }
]]></style>
<script type="text/javascript"><![CDATA[
var edges = document.getElementsByTagName('g');
if (edges && edges.length) {
  for (var i=0;i<edges.length;i++) {
    if (edges[i].id.substr(0,4)=='edge') {
      edges[i].setAttribute('class','edge');
    }
  }
}
]]></script>
        <defs>
                <circle id="rim" cx="0" cy="0" r="7"/>
                <circle id="rim2" cx="0" cy="0" r="3.5"/>
                <g id="zoomPlus">
                        <use xlink:href="#rim" fill="#404040">
                                <set attributeName="fill" to="#808080" begin="zoomplus.mouseover" end="zoomplus.mouseout"/>
                        </use>
                        <path d="M-4,0h8M0,-4v8" fill="none" stroke="white" stroke-width="1.5" pointer-events="none"/>
                </g>
                <g id="zoomMin">
                        <use xlink:href="#rim" fill="#404040">
                                <set attributeName="fill" to="#808080" begin="zoomminus.mouseover" end="zoomminus.mouseout"/>
                        </use>
                        <path d="M-4,0h8" fill="none" stroke="white" stroke-width="1.5" pointer-events="none"/>
                </g>
                <g id="dirArrow">
                        <path fill="none" stroke="white" stroke-width="1.5" d="M0,-3.0v7 M-2.5,-0.5L0,-3.0L2.5,-0.5"/>
                </g>
               <g id="resetDef">
                       <use xlink:href="#rim2" fill="#404040">
                               <set attributeName="fill" to="#808080" begin="reset.mouseover" end="reset.mouseout"/>
                       </use>
               </g>
        </defs>

<script type="text/javascript">
var viewWidth = 1089;
var viewHeight = 1245;
var sectionId = 'dynsection-1';
</script>
<script xlink:href="svgpan.js"/>
<svg id="graph" class="graph">
<g id="viewport">
<title>include/Types/variant_attribute.h</title>
<polygon fill="white" stroke="transparent" points="-4,4 -4,-1241 1084.5,-1241 1084.5,4 -4,4"/>
<!-- Node1 -->
<g id="node1" class="node">
<title>Node1</title>
<g id="a_node1"><a xlink:title=" ">
<polygon fill="#bfbfbf" stroke="black" points="585,-1206.5 585,-1236.5 705,-1236.5 705,-1206.5 585,-1206.5"/>
<text text-anchor="start" x="593" y="-1224.5" font-family="Helvetica,sans-Serif" font-size="10.00">include/Types/variant</text>
<text text-anchor="middle" x="645" y="-1213.5" font-family="Helvetica,sans-Serif" font-size="10.00">_attribute.h</text>
</a>
</g>
</g>
<!-- Node2 -->
<g id="node2" class="node">
<title>Node2</title>
<g id="a_node2"><a xlink:href="dense__tensor_8h.html" target="_top" xlink:title=" ">
<polygon fill="white" stroke="black" points="662.5,-1139.5 662.5,-1169.5 777.5,-1169.5 777.5,-1139.5 662.5,-1139.5"/>
<text text-anchor="start" x="670.5" y="-1157.5" font-family="Helvetica,sans-Serif" font-size="10.00">include/Types/dense</text>
<text text-anchor="middle" x="720" y="-1146.5" font-family="Helvetica,sans-Serif" font-size="10.00">_tensor.h</text>
</a>
</g>
</g>
<!-- Node1&#45;&gt;Node2 -->
<g id="edge1" class="edge">
<title>Node1&#45;&gt;Node2</title>
<path fill="none" stroke="midnightblue" d="M669.12,-1199.6C680.44,-1189.78 693.64,-1178.34 703.76,-1169.58"/>
<polygon fill="midnightblue" stroke="midnightblue" points="666.54,-1197.2 661.27,-1206.4 671.12,-1202.49 666.54,-1197.2"/>
</g>
<!-- Node31 -->
<g id="node31" class="node">
<title>Node31</title>
<g id="a_node31"><a xlink:href="content_8h.html" target="_top" xlink:title=" ">
<polygon fill="white" stroke="black" points="453.5,-1083.5 453.5,-1102.5 584.5,-1102.5 584.5,-1083.5 453.5,-1083.5"/>
<text text-anchor="middle" x="519" y="-1090.5" font-family="Helvetica,sans-Serif" font-size="10.00">include/Types/content.h</text>
</a>
</g>
</g>
<!-- Node1&#45;&gt;Node31 -->
<g id="edge68" class="edge">
<title>Node1&#45;&gt;Node31</title>
<path fill="none" stroke="midnightblue" d="M623.68,-1199.1C595.58,-1170.89 547.42,-1122.53 527.75,-1102.79"/>
<polygon fill="midnightblue" stroke="midnightblue" points="621.5,-1201.86 631.03,-1206.48 626.46,-1196.92 621.5,-1201.86"/>
</g>
<!-- Node3 -->
<g id="node3" class="node">
<title>Node3</title>
<g id="a_node3"><a xlink:href="node_8h.html" target="_top" xlink:title=" ">
<polygon fill="white" stroke="black" points="603,-1083.5 603,-1102.5 735,-1102.5 735,-1083.5 603,-1083.5"/>
<text text-anchor="middle" x="669" y="-1090.5" font-family="Helvetica,sans-Serif" font-size="10.00">include/Network/node.h</text>
</a>
</g>
</g>
<!-- Node2&#45;&gt;Node3 -->
<g id="edge2" class="edge">
<title>Node2&#45;&gt;Node3</title>
<path fill="none" stroke="midnightblue" d="M701.32,-1131.7C692.69,-1121.64 682.93,-1110.26 676.42,-1102.66"/>
<polygon fill="midnightblue" stroke="midnightblue" points="698.75,-1134.08 707.91,-1139.4 704.06,-1129.53 698.75,-1134.08"/>
</g>
<!-- Node2&#45;&gt;Node31 -->
<g id="edge53" class="edge">
<title>Node2&#45;&gt;Node31</title>
<path fill="none" stroke="midnightblue" d="M662.8,-1136.57C625.21,-1125.44 577.62,-1111.35 547.74,-1102.51"/>
<polygon fill="midnightblue" stroke="midnightblue" points="662.04,-1139.99 672.62,-1139.47 664.03,-1133.28 662.04,-1139.99"/>
</g>
<!-- Node32 -->
<g id="node32" class="node">
<title>Node32</title>
<g id="a_node32"><a xlink:href="utilities_8h.html" target="_top" xlink:title=" ">
<polygon fill="white" stroke="black" points="738.5,-725.5 738.5,-744.5 839.5,-744.5 839.5,-725.5 738.5,-725.5"/>
<text text-anchor="middle" x="789" y="-732.5" font-family="Helvetica,sans-Serif" font-size="10.00">include/utilities.h</text>
</a>
</g>
</g>
<!-- Node2&#45;&gt;Node32 -->
<g id="edge57" class="edge">
<title>Node2&#45;&gt;Node32</title>
<path fill="none" stroke="midnightblue" d="M729.66,-1130.63C742.7,-1107.18 763,-1069.07 763,-1032.5 763,-1032.5 763,-1032.5 763,-857 763,-814.57 773.38,-764.59 782.21,-744.75"/>
<polygon fill="midnightblue" stroke="midnightblue" points="726.56,-1129 724.76,-1139.45 732.68,-1132.41 726.56,-1129"/>
</g>
<!-- Node36 -->
<g id="node36" class="node">
<title>Node36</title>
<g id="a_node36"><a xlink:href="dense__tensor_8cpp.html" target="_top" xlink:title=" ">
<polygon fill="white" stroke="black" points="808.5,-1083.5 808.5,-1102.5 957.5,-1102.5 957.5,-1083.5 808.5,-1083.5"/>
<text text-anchor="middle" x="883" y="-1090.5" font-family="Helvetica,sans-Serif" font-size="10.00">src/Types/dense_tensor.cpp</text>
</a>
</g>
</g>
<!-- Node2&#45;&gt;Node36 -->
<g id="edge67" class="edge">
<title>Node2&#45;&gt;Node36</title>
<path fill="none" stroke="midnightblue" d="M768.1,-1135.94C798.13,-1124.98 835.48,-1111.35 859.28,-1102.66"/>
<polygon fill="midnightblue" stroke="midnightblue" points="766.82,-1132.68 758.63,-1139.4 769.22,-1139.26 766.82,-1132.68"/>
</g>
<!-- Node4 -->
<g id="node4" class="node">
<title>Node4</title>
<g id="a_node4"><a xlink:href="graph_8h.html" target="_top" xlink:title=" ">
<polygon fill="white" stroke="black" points="425,-960.5 425,-979.5 561,-979.5 561,-960.5 425,-960.5"/>
<text text-anchor="middle" x="493" y="-967.5" font-family="Helvetica,sans-Serif" font-size="10.00">include/Network/graph.h</text>
</a>
</g>
</g>
<!-- Node3&#45;&gt;Node4 -->
<g id="edge3" class="edge">
<title>Node3&#45;&gt;Node4</title>
<path fill="none" stroke="midnightblue" d="M669.3,-1072.99C668.53,-1055.88 664.67,-1031.18 650,-1016 626.95,-992.14 592.17,-980.7 561.2,-975.29"/>
<polygon fill="midnightblue" stroke="midnightblue" points="665.81,-1073.45 669.44,-1083.4 672.81,-1073.36 665.81,-1073.45"/>
</g>
<!-- Node30 -->
<g id="node30" class="node">
<title>Node30</title>
<g id="a_node30"><a xlink:href="node__traits_8h.html" target="_top" xlink:title=" ">
<polygon fill="white" stroke="black" points="517.5,-1016.5 517.5,-1046.5 640.5,-1046.5 640.5,-1016.5 517.5,-1016.5"/>
<text text-anchor="start" x="525.5" y="-1034.5" font-family="Helvetica,sans-Serif" font-size="10.00">include/Network/node</text>
<text text-anchor="middle" x="579" y="-1023.5" font-family="Helvetica,sans-Serif" font-size="10.00">_traits.h</text>
</a>
</g>
</g>
<!-- Node3&#45;&gt;Node30 -->
<g id="edge51" class="edge">
<title>Node3&#45;&gt;Node30</title>
<path fill="none" stroke="midnightblue" d="M647.43,-1077.74C633.12,-1068.28 614.44,-1055.93 600.21,-1046.52"/>
<polygon fill="midnightblue" stroke="midnightblue" points="645.83,-1080.88 656.11,-1083.48 649.69,-1075.04 645.83,-1080.88"/>
</g>
<!-- Node5 -->
<g id="node5" class="node">
<title>Node5</title>
<g id="a_node5"><a xlink:href="mwgraph_8h.html" target="_top" xlink:title=" ">
<polygon fill="white" stroke="black" points="416,-904.5 416,-923.5 570,-923.5 570,-904.5 416,-904.5"/>
<text text-anchor="middle" x="493" y="-911.5" font-family="Helvetica,sans-Serif" font-size="10.00">include/Network/mwgraph.h</text>
</a>
</g>
</g>
<!-- Node4&#45;&gt;Node5 -->
<g id="edge4" class="edge">
<title>Node4&#45;&gt;Node5</title>
<path fill="none" stroke="midnightblue" d="M493,-949.8C493,-940.91 493,-930.78 493,-923.75"/>
<polygon fill="midnightblue" stroke="midnightblue" points="489.5,-950.08 493,-960.08 496.5,-950.08 489.5,-950.08"/>
</g>
<!-- Node6 -->
<g id="node6" class="node">
<title>Node6</title>
<g id="a_node6"><a xlink:href="graph__traits_8h.html" target="_top" xlink:title=" ">
<polygon fill="white" stroke="black" points="261.5,-781.5 261.5,-811.5 388.5,-811.5 388.5,-781.5 261.5,-781.5"/>
<text text-anchor="start" x="269.5" y="-799.5" font-family="Helvetica,sans-Serif" font-size="10.00">include/Network/graph</text>
<text text-anchor="middle" x="325" y="-788.5" font-family="Helvetica,sans-Serif" font-size="10.00">_traits.h</text>
</a>
</g>
</g>
<!-- Node4&#45;&gt;Node6 -->
<g id="edge50" class="edge">
<title>Node4&#45;&gt;Node6</title>
<path fill="none" stroke="midnightblue" d="M459.49,-956.31C442.46,-948.72 422.2,-937.85 407,-924 370.24,-890.51 342.88,-837.05 331.21,-811.71"/>
<polygon fill="midnightblue" stroke="midnightblue" points="458.51,-959.7 469.08,-960.39 461.25,-953.25 458.51,-959.7"/>
</g>
<!-- Node5&#45;&gt;Node6 -->
<g id="edge5" class="edge">
<title>Node5&#45;&gt;Node6</title>
<path fill="none" stroke="midnightblue" d="M469.41,-899.16C454.96,-890.51 436.18,-878.96 420,-868 392.62,-849.45 362.11,-826.35 343.23,-811.76"/>
<polygon fill="midnightblue" stroke="midnightblue" points="467.84,-902.3 478.22,-904.4 471.41,-896.28 467.84,-902.3"/>
</g>
<!-- Node28 -->
<g id="node28" class="node">
<title>Node28</title>
<g id="a_node28"><a xlink:href="wgraph_8h.html" target="_top" xlink:title=" ">
<polygon fill="white" stroke="black" points="429,-848.5 429,-867.5 573,-867.5 573,-848.5 429,-848.5"/>
<text text-anchor="middle" x="501" y="-855.5" font-family="Helvetica,sans-Serif" font-size="10.00">include/Network/wgraph.h</text>
</a>
</g>
</g>
<!-- Node5&#45;&gt;Node28 -->
<g id="edge43" class="edge">
<title>Node5&#45;&gt;Node28</title>
<path fill="none" stroke="midnightblue" d="M495.8,-894.1C497.13,-885.14 498.65,-874.86 499.7,-867.75"/>
<polygon fill="midnightblue" stroke="midnightblue" points="492.32,-893.68 494.32,-904.08 499.25,-894.7 492.32,-893.68"/>
</g>
<!-- Node7 -->
<g id="node7" class="node">
<title>Node7</title>
<g id="a_node7"><a xlink:href="butcher_8h.html" target="_top" xlink:title=" ">
<polygon fill="white" stroke="black" points="322,-268.5 322,-287.5 462,-287.5 462,-268.5 322,-268.5"/>
<text text-anchor="middle" x="392" y="-275.5" font-family="Helvetica,sans-Serif" font-size="10.00">include/Butcher/butcher.h</text>
</a>
</g>
</g>
<!-- Node6&#45;&gt;Node7 -->
<g id="edge6" class="edge">
<title>Node6&#45;&gt;Node7</title>
<path fill="none" stroke="midnightblue" d="M251.04,-788.95C177.64,-777.91 76,-748.31 76,-669 76,-669 76,-669 76,-589 76,-468.53 46.13,-407.47 133,-324 159.41,-298.62 254.51,-287.38 321.79,-282.52"/>
<polygon fill="midnightblue" stroke="midnightblue" points="250.81,-792.45 261.2,-790.39 251.79,-785.52 250.81,-792.45"/>
</g>
<!-- Node8 -->
<g id="node8" class="node">
<title>Node8</title>
<g id="a_node8"><a xlink:href="onnx__importer__helpers_8h.html" target="_top" xlink:title=" ">
<polygon fill="white" stroke="black" points="63.5,-196 63.5,-226 204.5,-226 204.5,-196 63.5,-196"/>
<text text-anchor="start" x="71.5" y="-214" font-family="Helvetica,sans-Serif" font-size="10.00">include/IO_Interaction</text>
<text text-anchor="middle" x="134" y="-203" font-family="Helvetica,sans-Serif" font-size="10.00">/onnx_importer_helpers.h</text>
</a>
</g>
</g>
<!-- Node6&#45;&gt;Node8 -->
<g id="edge24" class="edge">
<title>Node6&#45;&gt;Node8</title>
<path fill="none" stroke="midnightblue" d="M251.1,-795.31C194.73,-792.05 117.13,-780.57 59,-745 22.53,-722.68 0,-711.76 0,-669 0,-669 0,-669 0,-338.5 0,-283.47 60.49,-245.28 100.19,-226.15"/>
<polygon fill="midnightblue" stroke="midnightblue" points="251.21,-798.82 261.37,-795.83 251.56,-791.83 251.21,-798.82"/>
</g>
<!-- Node13 -->
<g id="node13" class="node">
<title>Node13</title>
<g id="a_node13"><a xlink:href="network__butcher_8h.html" target="_top" xlink:title=" ">
<polygon fill="white" stroke="black" points="649.5,-56.5 649.5,-75.5 794.5,-75.5 794.5,-56.5 649.5,-56.5"/>
<text text-anchor="middle" x="722" y="-63.5" font-family="Helvetica,sans-Serif" font-size="10.00">include/network_butcher.h</text>
</a>
</g>
</g>
<!-- Node6&#45;&gt;Node13 -->
<g id="edge37" class="edge">
<title>Node6&#45;&gt;Node13</title>
<path fill="none" stroke="midnightblue" d="M398.74,-783.22C542.89,-758.9 849.49,-705.56 866,-689 897.33,-657.58 885,-635.37 885,-591 885,-591 885,-591 885,-210 885,-137.34 792.35,-92.96 746.76,-75.52"/>
<polygon fill="midnightblue" stroke="midnightblue" points="397.93,-779.81 388.65,-784.92 399.09,-786.71 397.93,-779.81"/>
</g>
<!-- Node16 -->
<g id="node16" class="node">
<title>Node16</title>
<g id="a_node16"><a xlink:href="onnx__model__reconstructor__helpers_8h.html" target="_top" xlink:title=" ">
<polygon fill="white" stroke="black" points="317.5,-190.5 317.5,-231.5 466.5,-231.5 466.5,-190.5 317.5,-190.5"/>
<text text-anchor="start" x="325.5" y="-219.5" font-family="Helvetica,sans-Serif" font-size="10.00">include/IO_Interaction</text>
<text text-anchor="start" x="325.5" y="-208.5" font-family="Helvetica,sans-Serif" font-size="10.00">/onnx_model_reconstructor</text>
<text text-anchor="middle" x="392" y="-197.5" font-family="Helvetica,sans-Serif" font-size="10.00">_helpers.h</text>
</a>
</g>
</g>
<!-- Node6&#45;&gt;Node16 -->
<g id="edge25" class="edge">
<title>Node6&#45;&gt;Node16</title>
<path fill="none" stroke="midnightblue" d="M251.16,-793.72C166.12,-787.29 38,-762.14 38,-669 38,-669 38,-669 38,-505.5 38,-419.82 39.13,-381.11 103,-324 163.77,-269.66 253.83,-240.41 317.23,-225.59"/>
<polygon fill="midnightblue" stroke="midnightblue" points="251.09,-797.23 261.31,-794.42 251.57,-790.24 251.09,-797.23"/>
</g>
<!-- Node18 -->
<g id="node18" class="node">
<title>Node18</title>
<g id="a_node18"><a xlink:href="graph__constraint_8h.html" target="_top" xlink:title=" ">
<polygon fill="white" stroke="black" points="218.5,-575 218.5,-605 341.5,-605 341.5,-575 218.5,-575"/>
<text text-anchor="start" x="226.5" y="-593" font-family="Helvetica,sans-Serif" font-size="10.00">include/Butcher/graph</text>
<text text-anchor="middle" x="280" y="-582" font-family="Helvetica,sans-Serif" font-size="10.00">_constraint.h</text>
</a>
</g>
</g>
<!-- Node6&#45;&gt;Node18 -->
<g id="edge19" class="edge">
<title>Node6&#45;&gt;Node18</title>
<path fill="none" stroke="midnightblue" d="M319.74,-771.58C310.28,-728.62 290.72,-639.7 283.11,-605.15"/>
<polygon fill="midnightblue" stroke="midnightblue" points="316.34,-772.43 321.91,-781.44 323.18,-770.93 316.34,-772.43"/>
</g>
<!-- Node20 -->
<g id="node20" class="node">
<title>Node20</title>
<g id="a_node20"><a xlink:href="path__converter_8h.html" target="_top" xlink:title=" ">
<polygon fill="white" stroke="black" points="142.5,-324.5 142.5,-354.5 259.5,-354.5 259.5,-324.5 142.5,-324.5"/>
<text text-anchor="start" x="150.5" y="-342.5" font-family="Helvetica,sans-Serif" font-size="10.00">include/Butcher/path</text>
<text text-anchor="middle" x="201" y="-331.5" font-family="Helvetica,sans-Serif" font-size="10.00">_converter.h</text>
</a>
</g>
</g>
<!-- Node6&#45;&gt;Node20 -->
<g id="edge22" class="edge">
<title>Node6&#45;&gt;Node20</title>
<path fill="none" stroke="midnightblue" d="M251,-785.11C204.35,-776.88 150.31,-763.63 136,-745 40.48,-620.61 157.73,-410.41 192.09,-354.5"/>
<polygon fill="midnightblue" stroke="midnightblue" points="250.69,-788.61 261.13,-786.84 251.87,-781.71 250.69,-788.61"/>
</g>
<!-- Node21 -->
<g id="node21" class="node">
<title>Node21</title>
<g id="a_node21"><a xlink:href="weight__importer_8h.html" target="_top" xlink:title=" ">
<polygon fill="white" stroke="black" points="357.5,-647.5 357.5,-688.5 500.5,-688.5 500.5,-647.5 357.5,-647.5"/>
<text text-anchor="start" x="365.5" y="-676.5" font-family="Helvetica,sans-Serif" font-size="10.00">include/IO_Interaction</text>
<text text-anchor="start" x="365.5" y="-665.5" font-family="Helvetica,sans-Serif" font-size="10.00">/Weight_Importer_Helpers</text>
<text text-anchor="middle" x="429" y="-654.5" font-family="Helvetica,sans-Serif" font-size="10.00">/weight_importer.h</text>
</a>
</g>
</g>
<!-- Node6&#45;&gt;Node21 -->
<g id="edge26" class="edge">
<title>Node6&#45;&gt;Node21</title>
<path fill="none" stroke="midnightblue" d="M342.94,-773.68C362.55,-749.83 393.69,-711.95 412.64,-688.89"/>
<polygon fill="midnightblue" stroke="midnightblue" points="340.17,-771.53 336.53,-781.48 345.58,-775.98 340.17,-771.53"/>
</g>
<!-- Node27 -->
<g id="node27" class="node">
<title>Node27</title>
<g id="a_node27"><a xlink:href="parameters_8h.html" target="_top" xlink:title=" ">
<polygon fill="white" stroke="black" points="145.5,-725.5 145.5,-744.5 296.5,-744.5 296.5,-725.5 145.5,-725.5"/>
<text text-anchor="middle" x="221" y="-732.5" font-family="Helvetica,sans-Serif" font-size="10.00">include/Types/parameters.h</text>
</a>
</g>
</g>
<!-- Node6&#45;&gt;Node27 -->
<g id="edge38" class="edge">
<title>Node6&#45;&gt;Node27</title>
<path fill="none" stroke="midnightblue" d="M291.55,-776.36C272.9,-765.69 250.6,-752.93 236.13,-744.66"/>
<polygon fill="midnightblue" stroke="midnightblue" points="289.94,-779.47 300.35,-781.4 293.41,-773.4 289.94,-779.47"/>
</g>
<!-- Node7&#45;&gt;Node8 -->
<g id="edge7" class="edge">
<title>Node7&#45;&gt;Node8</title>
<path fill="none" stroke="midnightblue" d="M348.25,-265.98C304.58,-254.97 237.3,-238.02 189.8,-226.06"/>
<polygon fill="midnightblue" stroke="midnightblue" points="347.45,-269.39 358.01,-268.44 349.16,-262.6 347.45,-269.39"/>
</g>
<!-- Node7&#45;&gt;Node13 -->
<g id="edge18" class="edge">
<title>Node7&#45;&gt;Node13</title>
<path fill="none" stroke="midnightblue" d="M422.07,-264.45C468.37,-244.44 559.02,-202.58 628,-154 663.09,-129.29 698.7,-92.39 714.1,-75.72"/>
<polygon fill="midnightblue" stroke="midnightblue" points="420.43,-261.34 412.61,-268.49 423.18,-267.77 420.43,-261.34"/>
</g>
<!-- Node7&#45;&gt;Node16 -->
<g id="edge15" class="edge">
<title>Node7&#45;&gt;Node16</title>
<path fill="none" stroke="midnightblue" d="M392,-258.04C392,-249.71 392,-239.94 392,-231.54"/>
<polygon fill="midnightblue" stroke="midnightblue" points="388.5,-258.23 392,-268.23 395.5,-258.23 388.5,-258.23"/>
</g>
<!-- Node9 -->
<g id="node9" class="node">
<title>Node9</title>
<g id="a_node9"><a xlink:href="io__manager_8h.html" target="_top" xlink:title=" ">
<polygon fill="white" stroke="black" points="331.5,-123.5 331.5,-142.5 452.5,-142.5 452.5,-123.5 331.5,-123.5"/>
<text text-anchor="middle" x="392" y="-130.5" font-family="Helvetica,sans-Serif" font-size="10.00">include/io_manager.h</text>
</a>
</g>
</g>
<!-- Node8&#45;&gt;Node9 -->
<g id="edge8" class="edge">
<title>Node8&#45;&gt;Node9</title>
<path fill="none" stroke="midnightblue" d="M191.27,-193.13C244.51,-177.45 321.63,-154.73 363.07,-142.52"/>
<polygon fill="midnightblue" stroke="midnightblue" points="190.23,-189.79 181.62,-195.97 192.2,-196.5 190.23,-189.79"/>
</g>
<!-- Node15 -->
<g id="node15" class="node">
<title>Node15</title>
<g id="a_node15"><a xlink:href="onnx__importer__helpers_8cpp.html" target="_top" xlink:title=" ">
<polygon fill="white" stroke="black" points="58,-118 58,-148 210,-148 210,-118 58,-118"/>
<text text-anchor="start" x="66" y="-136" font-family="Helvetica,sans-Serif" font-size="10.00">src/IO_Interaction</text>
<text text-anchor="middle" x="134" y="-125" font-family="Helvetica,sans-Serif" font-size="10.00">/onnx_importer_helpers.cpp</text>
</a>
</g>
</g>
<!-- Node8&#45;&gt;Node15 -->
<g id="edge14" class="edge">
<title>Node8&#45;&gt;Node15</title>
<path fill="none" stroke="midnightblue" d="M134,-185.59C134,-173.26 134,-158.72 134,-148.23"/>
<polygon fill="midnightblue" stroke="midnightblue" points="130.5,-185.7 134,-195.7 137.5,-185.71 130.5,-185.7"/>
</g>
<!-- Node10 -->
<g id="node10" class="node">
<title>Node10</title>
<g id="a_node10"><a xlink:href="general__manager_8h.html" target="_top" xlink:title=" ">
<polygon fill="white" stroke="black" points="391.5,-56.5 391.5,-75.5 540.5,-75.5 540.5,-56.5 391.5,-56.5"/>
<text text-anchor="middle" x="466" y="-63.5" font-family="Helvetica,sans-Serif" font-size="10.00">include/general_manager.h</text>
</a>
</g>
</g>
<!-- Node9&#45;&gt;Node10 -->
<g id="edge9" class="edge">
<title>Node9&#45;&gt;Node10</title>
<path fill="none" stroke="midnightblue" d="M409.81,-116.36C424.36,-103.58 444.38,-85.99 456.18,-75.63"/>
<polygon fill="midnightblue" stroke="midnightblue" points="407.18,-114 401.98,-123.23 411.8,-119.26 407.18,-114"/>
</g>
<!-- Node9&#45;&gt;Node13 -->
<g id="edge12" class="edge">
<title>Node9&#45;&gt;Node13</title>
<path fill="none" stroke="midnightblue" d="M428.63,-120.56C439.03,-117.54 450.41,-114.44 461,-112 529,-96.34 608.09,-83.43 661.23,-75.52"/>
<polygon fill="midnightblue" stroke="midnightblue" points="427.61,-117.21 419.02,-123.41 429.6,-123.92 427.61,-117.21"/>
</g>
<!-- Node14 -->
<g id="node14" class="node">
<title>Node14</title>
<g id="a_node14"><a xlink:href="io__manager_8cpp.html" target="_top" xlink:title=" ">
<polygon fill="white" stroke="black" points="262.5,-56.5 262.5,-75.5 373.5,-75.5 373.5,-56.5 262.5,-56.5"/>
<text text-anchor="middle" x="318" y="-63.5" font-family="Helvetica,sans-Serif" font-size="10.00">src/io_manager.cpp</text>
</a>
</g>
</g>
<!-- Node9&#45;&gt;Node14 -->
<g id="edge13" class="edge">
<title>Node9&#45;&gt;Node14</title>
<path fill="none" stroke="midnightblue" d="M374.19,-116.36C359.64,-103.58 339.62,-85.99 327.82,-75.63"/>
<polygon fill="midnightblue" stroke="midnightblue" points="372.2,-119.26 382.02,-123.23 376.82,-114 372.2,-119.26"/>
</g>
<!-- Node11 -->
<g id="node11" class="node">
<title>Node11</title>
<g id="a_node11"><a xlink:href="general__manager_8cpp.html" target="_top" xlink:title=" ">
<polygon fill="white" stroke="black" points="333.5,-0.5 333.5,-19.5 472.5,-19.5 472.5,-0.5 333.5,-0.5"/>
<text text-anchor="middle" x="403" y="-7.5" font-family="Helvetica,sans-Serif" font-size="10.00">src/general_manager.cpp</text>
</a>
</g>
</g>
<!-- Node10&#45;&gt;Node11 -->
<g id="edge10" class="edge">
<title>Node10&#45;&gt;Node11</title>
<path fill="none" stroke="midnightblue" d="M447.96,-49.54C436.73,-39.91 422.68,-27.87 413.31,-19.83"/>
<polygon fill="midnightblue" stroke="midnightblue" points="446.01,-52.47 455.88,-56.32 450.56,-47.16 446.01,-52.47"/>
</g>
<!-- Node12 -->
<g id="node12" class="node">
<title>Node12</title>
<g id="a_node12"><a xlink:href="main_8cpp.html" target="_top" xlink:title=" ">
<polygon fill="white" stroke="black" points="490.5,-0.5 490.5,-19.5 569.5,-19.5 569.5,-0.5 490.5,-0.5"/>
<text text-anchor="middle" x="530" y="-7.5" font-family="Helvetica,sans-Serif" font-size="10.00">src/main.cpp</text>
</a>
</g>
</g>
<!-- Node10&#45;&gt;Node12 -->
<g id="edge11" class="edge">
<title>Node10&#45;&gt;Node12</title>
<path fill="none" stroke="midnightblue" d="M483.99,-49.82C495.46,-40.15 509.91,-27.95 519.53,-19.83"/>
<polygon fill="midnightblue" stroke="midnightblue" points="481.67,-47.2 476.28,-56.32 486.18,-52.55 481.67,-47.2"/>
</g>
<!-- Node16&#45;&gt;Node9 -->
<g id="edge16" class="edge">
<title>Node16&#45;&gt;Node9</title>
<path fill="none" stroke="midnightblue" d="M392,-180.05C392,-166.56 392,-151.65 392,-142.55"/>
<polygon fill="midnightblue" stroke="midnightblue" points="388.5,-180.43 392,-190.43 395.5,-180.43 388.5,-180.43"/>
</g>
<!-- Node17 -->
<g id="node17" class="node">
<title>Node17</title>
<g id="a_node17"><a xlink:href="onnx__model__reconstructor__helpers_8cpp.html" target="_top" xlink:title=" ">
<polygon fill="white" stroke="black" points="470.5,-112.5 470.5,-153.5 619.5,-153.5 619.5,-112.5 470.5,-112.5"/>
<text text-anchor="start" x="478.5" y="-141.5" font-family="Helvetica,sans-Serif" font-size="10.00">src/IO_Interaction</text>
<text text-anchor="start" x="478.5" y="-130.5" font-family="Helvetica,sans-Serif" font-size="10.00">/onnx_model_reconstructor</text>
<text text-anchor="middle" x="545" y="-119.5" font-family="Helvetica,sans-Serif" font-size="10.00">_helpers.cpp</text>
</a>
</g>
</g>
<!-- Node16&#45;&gt;Node17 -->
<g id="edge17" class="edge">
<title>Node16&#45;&gt;Node17</title>
<path fill="none" stroke="midnightblue" d="M440.5,-185.91C461.54,-175.46 485.85,-163.38 505.73,-153.51"/>
<polygon fill="midnightblue" stroke="midnightblue" points="438.8,-182.84 431.4,-190.43 441.91,-189.11 438.8,-182.84"/>
</g>
<!-- Node19 -->
<g id="node19" class="node">
<title>Node19</title>
<g id="a_node19"><a xlink:href="constrained__block__graph__builder_8h.html" target="_top" xlink:title=" ">
<polygon fill="white" stroke="black" points="316,-324.5 316,-354.5 468,-354.5 468,-324.5 316,-324.5"/>
<text text-anchor="start" x="324" y="-342.5" font-family="Helvetica,sans-Serif" font-size="10.00">include/Butcher/constrained</text>
<text text-anchor="middle" x="392" y="-331.5" font-family="Helvetica,sans-Serif" font-size="10.00">_block_graph_builder.h</text>
</a>
</g>
</g>
<!-- Node18&#45;&gt;Node19 -->
<g id="edge20" class="edge">
<title>Node18&#45;&gt;Node19</title>
<path fill="none" stroke="midnightblue" d="M279.1,-564.74C278.85,-524.59 283.72,-443.53 323,-391 334.29,-375.9 351.36,-363.36 365.7,-354.54"/>
<polygon fill="midnightblue" stroke="midnightblue" points="275.6,-564.99 279.28,-574.92 282.6,-564.86 275.6,-564.99"/>
</g>
<!-- Node19&#45;&gt;Node7 -->
<g id="edge21" class="edge">
<title>Node19&#45;&gt;Node7</title>
<path fill="none" stroke="midnightblue" d="M392,-314.29C392,-304.86 392,-294.65 392,-287.66"/>
<polygon fill="midnightblue" stroke="midnightblue" points="388.5,-314.4 392,-324.4 395.5,-314.4 388.5,-314.4"/>
</g>
<!-- Node20&#45;&gt;Node7 -->
<g id="edge23" class="edge">
<title>Node20&#45;&gt;Node7</title>
<path fill="none" stroke="midnightblue" d="M256.02,-321.36C291.55,-310.29 336.25,-296.37 364.49,-287.57"/>
<polygon fill="midnightblue" stroke="midnightblue" points="254.77,-318.08 246.26,-324.4 256.85,-324.77 254.77,-318.08"/>
</g>
<!-- Node22 -->
<g id="node22" class="node">
<title>Node22</title>
<g id="a_node22"><a xlink:href="block__aMLLibrary__weight__importer_8h.html" target="_top" xlink:title=" ">
<polygon fill="white" stroke="black" points="473.5,-480.5 473.5,-532.5 616.5,-532.5 616.5,-480.5 473.5,-480.5"/>
<text text-anchor="start" x="481.5" y="-520.5" font-family="Helvetica,sans-Serif" font-size="10.00">include/IO_Interaction</text>
<text text-anchor="start" x="481.5" y="-509.5" font-family="Helvetica,sans-Serif" font-size="10.00">/Weight_Importer_Helpers</text>
<text text-anchor="start" x="481.5" y="-498.5" font-family="Helvetica,sans-Serif" font-size="10.00">/block_aMLLibrary_weight</text>
<text text-anchor="middle" x="545" y="-487.5" font-family="Helvetica,sans-Serif" font-size="10.00">_importer.h</text>
</a>
</g>
</g>
<!-- Node21&#45;&gt;Node22 -->
<g id="edge27" class="edge">
<title>Node21&#45;&gt;Node22</title>
<path fill="none" stroke="midnightblue" d="M476.92,-641.9C489.42,-633.47 501.91,-623.09 511,-611 528.5,-587.72 537.25,-554.99 541.44,-532.61"/>
<polygon fill="midnightblue" stroke="midnightblue" points="474.85,-639.07 468.32,-647.41 478.62,-644.97 474.85,-639.07"/>
</g>
<!-- Node25 -->
<g id="node25" class="node">
<title>Node25</title>
<g id="a_node25"><a xlink:href="csv__weight__importer_8h.html" target="_top" xlink:title=" ">
<polygon fill="white" stroke="black" points="359.5,-569.5 359.5,-610.5 502.5,-610.5 502.5,-569.5 359.5,-569.5"/>
<text text-anchor="start" x="367.5" y="-598.5" font-family="Helvetica,sans-Serif" font-size="10.00">include/IO_Interaction</text>
<text text-anchor="start" x="367.5" y="-587.5" font-family="Helvetica,sans-Serif" font-size="10.00">/Weight_Importer_Helpers</text>
<text text-anchor="middle" x="431" y="-576.5" font-family="Helvetica,sans-Serif" font-size="10.00">/csv_weight_importer.h</text>
</a>
</g>
</g>
<!-- Node21&#45;&gt;Node25 -->
<g id="edge33" class="edge">
<title>Node21&#45;&gt;Node25</title>
<path fill="none" stroke="midnightblue" d="M429.78,-637.3C430.02,-628.3 430.27,-618.65 430.49,-610.51"/>
<polygon fill="midnightblue" stroke="midnightblue" points="426.28,-637.34 429.52,-647.43 433.28,-637.52 426.28,-637.34"/>
</g>
<!-- Node23 -->
<g id="node23" class="node">
<title>Node23</title>
<g id="a_node23"><a xlink:href="weight__importers_8h.html" target="_top" xlink:title=" ">
<polygon fill="white" stroke="black" points="332.5,-402.5 332.5,-432.5 455.5,-432.5 455.5,-402.5 332.5,-402.5"/>
<text text-anchor="start" x="340.5" y="-420.5" font-family="Helvetica,sans-Serif" font-size="10.00">include/IO_Interaction</text>
<text text-anchor="middle" x="394" y="-409.5" font-family="Helvetica,sans-Serif" font-size="10.00">/weight_importers.h</text>
</a>
</g>
</g>
<!-- Node22&#45;&gt;Node23 -->
<g id="edge28" class="edge">
<title>Node22&#45;&gt;Node23</title>
<path fill="none" stroke="midnightblue" d="M492.58,-475.3C467.35,-460.76 438.32,-444.03 418.33,-432.52"/>
<polygon fill="midnightblue" stroke="midnightblue" points="490.91,-478.38 501.32,-480.34 494.41,-472.31 490.91,-478.38"/>
</g>
<!-- Node24 -->
<g id="node24" class="node">
<title>Node24</title>
<g id="a_node24"><a xlink:href="block__aMLLibrary__weight__importer_8cpp.html" target="_top" xlink:title=" ">
<polygon fill="white" stroke="black" points="473.5,-391.5 473.5,-443.5 616.5,-443.5 616.5,-391.5 473.5,-391.5"/>
<text text-anchor="start" x="481.5" y="-431.5" font-family="Helvetica,sans-Serif" font-size="10.00">src/IO_Interaction</text>
<text text-anchor="start" x="481.5" y="-420.5" font-family="Helvetica,sans-Serif" font-size="10.00">/Weight_Importer_Helpers</text>
<text text-anchor="start" x="481.5" y="-409.5" font-family="Helvetica,sans-Serif" font-size="10.00">/block_aMLLibrary_weight</text>
<text text-anchor="middle" x="545" y="-398.5" font-family="Helvetica,sans-Serif" font-size="10.00">_importer.cpp</text>
</a>
</g>
</g>
<!-- Node22&#45;&gt;Node24 -->
<g id="edge32" class="edge">
<title>Node22&#45;&gt;Node24</title>
<path fill="none" stroke="midnightblue" d="M545,-470.19C545,-461.28 545,-451.9 545,-443.61"/>
<polygon fill="midnightblue" stroke="midnightblue" points="541.5,-470.34 545,-480.34 548.5,-470.34 541.5,-470.34"/>
</g>
<!-- Node23&#45;&gt;Node7 -->
<g id="edge29" class="edge">
<title>Node23&#45;&gt;Node7</title>
<path fill="none" stroke="midnightblue" d="M431.94,-397.26C461.18,-379.69 493.99,-352.23 477,-324 465.89,-305.55 444.39,-294.26 425.8,-287.61"/>
<polygon fill="midnightblue" stroke="midnightblue" points="429.95,-394.36 423.03,-402.38 433.45,-400.43 429.95,-394.36"/>
</g>
<!-- Node23&#45;&gt;Node9 -->
<g id="edge31" class="edge">
<title>Node23&#45;&gt;Node9</title>
<path fill="none" stroke="midnightblue" d="M444.48,-398.06C463.53,-388.35 483.19,-374.34 494,-355 500.72,-342.97 494.97,-337.74 494,-324 489.77,-264 506.9,-240.99 475,-190 460.71,-167.16 433.3,-151.45 413.89,-142.61"/>
<polygon fill="midnightblue" stroke="midnightblue" points="442.73,-395.01 435.22,-402.49 445.75,-401.33 442.73,-395.01"/>
</g>
<!-- Node23&#45;&gt;Node19 -->
<g id="edge30" class="edge">
<title>Node23&#45;&gt;Node19</title>
<path fill="none" stroke="midnightblue" d="M393.36,-392.09C393.03,-379.76 392.65,-365.22 392.37,-354.73"/>
<polygon fill="midnightblue" stroke="midnightblue" points="389.86,-392.3 393.62,-402.2 396.86,-392.12 389.86,-392.3"/>
</g>
<!-- Node25&#45;&gt;Node22 -->
<g id="edge34" class="edge">
<title>Node25&#45;&gt;Node22</title>
<path fill="none" stroke="midnightblue" d="M466.57,-563.57C480.31,-553.74 496,-542.53 509.71,-532.73"/>
<polygon fill="midnightblue" stroke="midnightblue" points="464.41,-560.82 458.31,-569.48 468.48,-566.51 464.41,-560.82"/>
</g>
<!-- Node25&#45;&gt;Node23 -->
<g id="edge35" class="edge">
<title>Node25&#45;&gt;Node23</title>
<path fill="none" stroke="midnightblue" d="M360.4,-565.9C334.76,-555.98 310.27,-544.12 303,-533 290.11,-513.29 291.95,-500.8 303,-480 314.63,-458.11 337.91,-442.59 358.02,-432.62"/>
<polygon fill="midnightblue" stroke="midnightblue" points="359.27,-569.22 369.86,-569.47 361.74,-562.67 359.27,-569.22"/>
</g>
<!-- Node26 -->
<g id="node26" class="node">
<title>Node26</title>
<g id="a_node26"><a xlink:href="csv__weight__importer_8cpp.html" target="_top" xlink:title=" ">
<polygon fill="white" stroke="black" points="312.5,-486 312.5,-527 455.5,-527 455.5,-486 312.5,-486"/>
<text text-anchor="start" x="320.5" y="-515" font-family="Helvetica,sans-Serif" font-size="10.00">src/IO_Interaction</text>
<text text-anchor="start" x="320.5" y="-504" font-family="Helvetica,sans-Serif" font-size="10.00">/Weight_Importer_Helpers</text>
<text text-anchor="middle" x="384" y="-493" font-family="Helvetica,sans-Serif" font-size="10.00">/csv_weight_importer.cpp</text>
</a>
</g>
</g>
<!-- Node25&#45;&gt;Node26 -->
<g id="edge36" class="edge">
<title>Node25&#45;&gt;Node26</title>
<path fill="none" stroke="midnightblue" d="M414.5,-560.39C408.14,-549.37 401.03,-537.03 395.27,-527.05"/>
<polygon fill="midnightblue" stroke="midnightblue" points="411.59,-562.36 419.62,-569.27 417.66,-558.86 411.59,-562.36"/>
</g>
<!-- Node27&#45;&gt;Node7 -->
<g id="edge39" class="edge">
<title>Node27&#45;&gt;Node7</title>
<path fill="none" stroke="midnightblue" d="M216.46,-715.17C209.73,-684.33 198.93,-621.27 209,-569 231.18,-453.84 228.6,-411.22 307,-324 322.63,-306.61 346.58,-294.79 365.08,-287.64"/>
<polygon fill="midnightblue" stroke="midnightblue" points="213.14,-716.35 218.79,-725.32 219.96,-714.79 213.14,-716.35"/>
</g>
<!-- Node27&#45;&gt;Node8 -->
<g id="edge41" class="edge">
<title>Node27&#45;&gt;Node8</title>
<path fill="none" stroke="midnightblue" d="M213.1,-715.93C209.72,-707.8 205.89,-698.01 203,-689 168.76,-582.25 162.63,-554.37 143,-444 136.03,-404.81 135.23,-394.74 133,-355 132.23,-341.24 132.94,-337.78 133,-324 133.16,-288.8 133.59,-247.39 133.83,-226.14"/>
<polygon fill="midnightblue" stroke="midnightblue" points="209.9,-717.34 217.04,-725.17 216.34,-714.6 209.9,-717.34"/>
</g>
<!-- Node27&#45;&gt;Node18 -->
<g id="edge40" class="edge">
<title>Node27&#45;&gt;Node18</title>
<path fill="none" stroke="midnightblue" d="M228.47,-715.89C240.34,-687.12 263.26,-631.58 274.07,-605.36"/>
<polygon fill="midnightblue" stroke="midnightblue" points="225.09,-714.9 224.51,-725.48 231.56,-717.57 225.09,-714.9"/>
</g>
<!-- Node27&#45;&gt;Node21 -->
<g id="edge42" class="edge">
<title>Node27&#45;&gt;Node21</title>
<path fill="none" stroke="midnightblue" d="M258.26,-722.36C288.22,-712.99 330.97,-699.63 366.2,-688.63"/>
<polygon fill="midnightblue" stroke="midnightblue" points="257.12,-719.05 248.62,-725.37 259.21,-725.73 257.12,-719.05"/>
</g>
<!-- Node28&#45;&gt;Node6 -->
<g id="edge49" class="edge">
<title>Node28&#45;&gt;Node6</title>
<path fill="none" stroke="midnightblue" d="M466.19,-845.23C437.53,-835.54 396.82,-821.78 366.48,-811.52"/>
<polygon fill="midnightblue" stroke="midnightblue" points="465.19,-848.59 475.78,-848.48 467.43,-841.96 465.19,-848.59"/>
</g>
<!-- Node29 -->
<g id="node29" class="node">
<title>Node29</title>
<g id="a_node29"><a xlink:href="computer__memory_8h.html" target="_top" xlink:title=" ">
<polygon fill="white" stroke="black" points="543,-653 543,-683 695,-683 695,-653 543,-653"/>
<text text-anchor="start" x="551" y="-671" font-family="Helvetica,sans-Serif" font-size="10.00">include/Computer/computer</text>
<text text-anchor="middle" x="619" y="-660" font-family="Helvetica,sans-Serif" font-size="10.00">_memory.h</text>
</a>
</g>
</g>
<!-- Node28&#45;&gt;Node29 -->
<g id="edge44" class="edge">
<title>Node28&#45;&gt;Node29</title>
<path fill="none" stroke="midnightblue" d="M511.79,-839.81C534.89,-803.01 588.76,-717.17 610.08,-683.2"/>
<polygon fill="midnightblue" stroke="midnightblue" points="508.73,-838.1 506.38,-848.43 514.66,-841.82 508.73,-838.1"/>
</g>
<!-- Node29&#45;&gt;Node7 -->
<g id="edge45" class="edge">
<title>Node29&#45;&gt;Node7</title>
<path fill="none" stroke="midnightblue" d="M627.7,-642.95C644.48,-592.09 675.51,-471.66 626,-391 587.3,-327.96 501.93,-299.7 445.71,-287.55"/>
<polygon fill="midnightblue" stroke="midnightblue" points="624.29,-642.12 624.37,-652.71 630.91,-644.38 624.29,-642.12"/>
</g>
<!-- Node29&#45;&gt;Node13 -->
<g id="edge48" class="edge">
<title>Node29&#45;&gt;Node13</title>
<path fill="none" stroke="midnightblue" d="M636.35,-644.28C643.07,-634.5 650.28,-622.64 655,-611 711.57,-471.5 722,-429.53 722,-279 722,-279 722,-279 722,-210 722,-159.11 722,-98.02 722,-75.71"/>
<polygon fill="midnightblue" stroke="midnightblue" points="633.35,-642.45 630.39,-652.62 639.05,-646.52 633.35,-642.45"/>
</g>
<!-- Node29&#45;&gt;Node18 -->
<g id="edge46" class="edge">
<title>Node29&#45;&gt;Node18</title>
<path fill="none" stroke="midnightblue" d="M534.11,-650.98C480.98,-640.54 411.24,-626.1 350,-611 342.64,-609.18 334.88,-607.12 327.32,-605.03"/>
<polygon fill="midnightblue" stroke="midnightblue" points="533.68,-654.46 544.17,-652.94 535.02,-647.59 533.68,-654.46"/>
</g>
<!-- Node29&#45;&gt;Node22 -->
<g id="edge47" class="edge">
<title>Node29&#45;&gt;Node22</title>
<path fill="none" stroke="midnightblue" d="M608.06,-643.43C603.41,-633.43 597.94,-621.65 593,-611 580.58,-584.23 566.36,-553.56 556.64,-532.6"/>
<polygon fill="midnightblue" stroke="midnightblue" points="604.99,-645.13 612.37,-652.73 611.34,-642.19 604.99,-645.13"/>
</g>
<!-- Node30&#45;&gt;Node4 -->
<g id="edge52" class="edge">
<title>Node30&#45;&gt;Node4</title>
<path fill="none" stroke="midnightblue" d="M550.07,-1010.48C534.92,-1000 517.15,-987.71 505.51,-979.66"/>
<polygon fill="midnightblue" stroke="midnightblue" points="548.4,-1013.59 558.62,-1016.4 552.39,-1007.83 548.4,-1013.59"/>
</g>
<!-- Node31&#45;&gt;Node4 -->
<g id="edge54" class="edge">
<title>Node31&#45;&gt;Node4</title>
<path fill="none" stroke="midnightblue" d="M514.28,-1073.52C512.26,-1065.4 509.93,-1055.75 508,-1047 502.66,-1022.84 497.25,-994.15 494.63,-979.92"/>
<polygon fill="midnightblue" stroke="midnightblue" points="510.94,-1074.56 516.78,-1083.4 517.72,-1072.85 510.94,-1074.56"/>
</g>
<!-- Node31&#45;&gt;Node6 -->
<g id="edge56" class="edge">
<title>Node31&#45;&gt;Node6</title>
<path fill="none" stroke="midnightblue" d="M459.76,-1081.05C402.71,-1066.69 325,-1035.31 325,-971 325,-971 325,-971 325,-913 325,-876.51 325,-833.52 325,-811.72"/>
<polygon fill="midnightblue" stroke="midnightblue" points="459.25,-1084.53 469.79,-1083.46 460.89,-1077.73 459.25,-1084.53"/>
</g>
<!-- Node31&#45;&gt;Node30 -->
<g id="edge55" class="edge">
<title>Node31&#45;&gt;Node30</title>
<path fill="none" stroke="midnightblue" d="M534.76,-1076.37C544.1,-1067.11 555.82,-1055.48 564.86,-1046.52"/>
<polygon fill="midnightblue" stroke="midnightblue" points="532.23,-1073.95 527.6,-1083.48 537.16,-1078.92 532.23,-1073.95"/>
</g>
<!-- Node32&#45;&gt;Node2 -->
<g id="edge65" class="edge">
<title>Node32&#45;&gt;Node2</title>
<path fill="none" stroke="midnightblue" d="M790.98,-754.8C788.66,-778.5 781,-820.54 781,-857 781,-1032.5 781,-1032.5 781,-1032.5 781,-1074.11 754.72,-1117.72 736.29,-1139.45"/>
<polygon fill="midnightblue" stroke="midnightblue" points="794.47,-754.95 791.62,-744.75 787.49,-754.5 794.47,-754.95"/>
</g>
<!-- Node32&#45;&gt;Node7 -->
<g id="edge58" class="edge">
<title>Node32&#45;&gt;Node7</title>
<path fill="none" stroke="midnightblue" d="M849.39,-723.17C868.49,-716.58 887.59,-706 899,-689 929.83,-643.08 898.37,-613.85 866,-569 769.42,-435.19 733.85,-399.28 587,-324 548.2,-304.11 500.58,-292.91 462.11,-286.65"/>
<polygon fill="midnightblue" stroke="midnightblue" points="848.25,-719.86 839.74,-726.17 850.33,-726.54 848.25,-719.86"/>
</g>
<!-- Node32&#45;&gt;Node13 -->
<g id="edge64" class="edge">
<title>Node32&#45;&gt;Node13</title>
<path fill="none" stroke="midnightblue" d="M849.53,-724.07C873.56,-717.52 899.95,-706.73 919,-689 953.69,-656.71 961,-638.39 961,-591 961,-591 961,-591 961,-210 961,-158.46 940.71,-142.27 899,-112 868.85,-90.12 829.09,-78.84 794.89,-73.05"/>
<polygon fill="midnightblue" stroke="midnightblue" points="848.59,-720.7 839.76,-726.54 850.31,-727.48 848.59,-720.7"/>
</g>
<!-- Node32&#45;&gt;Node29 -->
<g id="edge59" class="edge">
<title>Node32&#45;&gt;Node29</title>
<path fill="none" stroke="midnightblue" d="M756.84,-721.7C728.03,-710.69 685.8,-694.54 655.69,-683.03"/>
<polygon fill="midnightblue" stroke="midnightblue" points="755.83,-725.07 766.43,-725.37 758.33,-718.53 755.83,-725.07"/>
</g>
<!-- Node33 -->
<g id="node33" class="node">
<title>Node33</title>
<g id="a_node33"><a xlink:href="weight__importer__utils_8h.html" target="_top" xlink:title=" ">
<polygon fill="white" stroke="black" points="713.5,-647.5 713.5,-688.5 856.5,-688.5 856.5,-647.5 713.5,-647.5"/>
<text text-anchor="start" x="721.5" y="-676.5" font-family="Helvetica,sans-Serif" font-size="10.00">include/IO_Interaction</text>
<text text-anchor="start" x="721.5" y="-665.5" font-family="Helvetica,sans-Serif" font-size="10.00">/Weight_Importer_Helpers</text>
<text text-anchor="middle" x="785" y="-654.5" font-family="Helvetica,sans-Serif" font-size="10.00">/weight_importer_utils.h</text>
</a>
</g>
</g>
<!-- Node32&#45;&gt;Node33 -->
<g id="edge60" class="edge">
<title>Node32&#45;&gt;Node33</title>
<path fill="none" stroke="midnightblue" d="M787.83,-715.04C787.32,-706.71 786.72,-696.94 786.2,-688.54"/>
<polygon fill="midnightblue" stroke="midnightblue" points="784.35,-715.47 788.46,-725.23 791.34,-715.04 784.35,-715.47"/>
</g>
<!-- Node35 -->
<g id="node35" class="node">
<title>Node35</title>
<g id="a_node35"><a xlink:href="utilities_8cpp.html" target="_top" xlink:title=" ">
<polygon fill="white" stroke="black" points="989.5,-658.5 989.5,-677.5 1080.5,-677.5 1080.5,-658.5 989.5,-658.5"/>
<text text-anchor="middle" x="1035" y="-665.5" font-family="Helvetica,sans-Serif" font-size="10.00">src/utilities.cpp</text>
</a>
</g>
</g>
<!-- Node32&#45;&gt;Node35 -->
<g id="edge66" class="edge">
<title>Node32&#45;&gt;Node35</title>
<path fill="none" stroke="midnightblue" d="M838.64,-723.19C876.28,-714.7 929.17,-702.16 975,-689 986.93,-685.58 1000.01,-681.28 1010.91,-677.54"/>
<polygon fill="midnightblue" stroke="midnightblue" points="837.44,-719.87 828.44,-725.47 838.97,-726.7 837.44,-719.87"/>
</g>
<!-- Node33&#45;&gt;Node22 -->
<g id="edge61" class="edge">
<title>Node33&#45;&gt;Node22</title>
<path fill="none" stroke="midnightblue" d="M747,-641.75C702.11,-611.91 627.86,-562.57 582.98,-532.74"/>
<polygon fill="midnightblue" stroke="midnightblue" points="745.31,-644.82 755.57,-647.44 749.18,-638.99 745.31,-644.82"/>
</g>
<!-- Node33&#45;&gt;Node25 -->
<g id="edge62" class="edge">
<title>Node33&#45;&gt;Node25</title>
<path fill="none" stroke="midnightblue" d="M703.48,-646.92C629.26,-630.27 555.52,-615.32 502.73,-604.9"/>
<polygon fill="midnightblue" stroke="midnightblue" points="702.96,-650.39 713.48,-649.18 704.5,-643.56 702.96,-650.39"/>
</g>
<!-- Node34 -->
<g id="node34" class="node">
<title>Node34</title>
<g id="a_node34"><a xlink:href="weight__importer__utils_8cpp.html" target="_top" xlink:title=" ">
<polygon fill="white" stroke="black" points="711,-569.5 711,-610.5 857,-610.5 857,-569.5 711,-569.5"/>
<text text-anchor="start" x="719" y="-598.5" font-family="Helvetica,sans-Serif" font-size="10.00">src/IO_Interaction</text>
<text text-anchor="start" x="719" y="-587.5" font-family="Helvetica,sans-Serif" font-size="10.00">/Weight_Importer_Helpers</text>
<text text-anchor="middle" x="784" y="-576.5" font-family="Helvetica,sans-Serif" font-size="10.00">/weight_importer_utils.cpp</text>
</a>
</g>
</g>
<!-- Node33&#45;&gt;Node34 -->
<g id="edge63" class="edge">
<title>Node33&#45;&gt;Node34</title>
<path fill="none" stroke="midnightblue" d="M784.61,-637.3C784.49,-628.3 784.36,-618.65 784.26,-610.51"/>
<polygon fill="midnightblue" stroke="midnightblue" points="781.11,-637.48 784.74,-647.43 788.11,-637.38 781.11,-637.48"/>
</g>
</g>
</svg>
        <g id="navigator" transform="translate(0 0)" fill="#404254">
                <rect fill="#f2f5e9" fill-opacity="0.5" stroke="#606060" stroke-width=".5" x="0" y="0" width="60" height="60"/>
                <use id="zoomplus" xlink:href="#zoomPlus" x="17" y="9" onmousedown="handleZoom(evt,'in')"/>
                <use id="zoomminus" xlink:href="#zoomMin" x="42" y="9" onmousedown="handleZoom(evt,'out')"/>
                <use id="reset" xlink:href="#resetDef" x="30" y="36" onmousedown="handleReset()"/>
                <g id="arrowUp" xlink:href="#dirArrow" transform="translate(30 24)" onmousedown="handlePan(0,-1)">
                  <use xlink:href="#rim" fill="#404040">
                        <set attributeName="fill" to="#808080" begin="arrowUp.mouseover" end="arrowUp.mouseout"/>
                  </use>
                  <path fill="none" stroke="white" stroke-width="1.5" d="M0,-3.0v7 M-2.5,-0.5L0,-3.0L2.5,-0.5"/>
                </g>
                <g id="arrowRight" xlink:href="#dirArrow" transform="rotate(90) translate(36 -43)" onmousedown="handlePan(1,0)">
                  <use xlink:href="#rim" fill="#404040">
                        <set attributeName="fill" to="#808080" begin="arrowRight.mouseover" end="arrowRight.mouseout"/>
                  </use>
                  <path fill="none" stroke="white" stroke-width="1.5" d="M0,-3.0v7 M-2.5,-0.5L0,-3.0L2.5,-0.5"/>
                </g>
                <g id="arrowDown" xlink:href="#dirArrow" transform="rotate(180) translate(-30 -48)" onmousedown="handlePan(0,1)">
                  <use xlink:href="#rim" fill="#404040">
                        <set attributeName="fill" to="#808080" begin="arrowDown.mouseover" end="arrowDown.mouseout"/>
                  </use>
                  <path fill="none" stroke="white" stroke-width="1.5" d="M0,-3.0v7 M-2.5,-0.5L0,-3.0L2.5,-0.5"/>
                </g>
                <g id="arrowLeft" xlink:href="#dirArrow" transform="rotate(270) translate(-36 17)" onmousedown="handlePan(-1,0)">
                  <use xlink:href="#rim" fill="#404040">
                        <set attributeName="fill" to="#808080" begin="arrowLeft.mouseover" end="arrowLeft.mouseout"/>
                  </use>
                  <path fill="none" stroke="white" stroke-width="1.5" d="M0,-3.0v7 M-2.5,-0.5L0,-3.0L2.5,-0.5"/>
                </g>
        </g>
        <svg viewBox="0 0 15 15" width="100%" height="30px" preserveAspectRatio="xMaxYMin meet">
         <g id="arrow_out" transform="scale(0.3 0.3)">
          <a xlink:href="variant__attribute_8h__dep__incl_org.svg" target="_base">
           <rect id="button" ry="5" rx="5" y="6" x="6" height="38" width="38"
                fill="#f2f5e9" fill-opacity="0.5" stroke="#606060" stroke-width="1.0"/>
           <path id="arrow"
             d="M 11.500037,31.436501 C 11.940474,20.09759 22.043105,11.32322 32.158766,21.979434 L 37.068811,17.246167 C 37.068811,17.246167 37.088388,32 37.088388,32 L 22.160133,31.978069 C 22.160133,31.978069 26.997745,27.140456 26.997745,27.140456 C 18.528582,18.264221 13.291696,25.230495 11.500037,31.436501 z"
             style="fill:#404040;"/>
          </a>
         </g>
        </svg>
</svg>
