<?xml version="1.0" encoding="UTF-8" standalone="no"?>
<!DOCTYPE svg PUBLIC "-//W3C//DTD SVG 1.1//EN"
 "http://www.w3.org/Graphics/SVG/1.1/DTD/svg11.dtd">
<!-- Generated by graphviz version 2.43.0 (0)
 -->
<!-- Title: include/network_butcher/K&#45;shortest_path/weighted_graph.h Pages: 1 -->
<svg width="501pt" height="251pt"
 viewBox="0.00 0.00 500.50 251.00" xmlns="http://www.w3.org/2000/svg" xmlns:xlink="http://www.w3.org/1999/xlink">
<g id="graph0" class="graph" transform="scale(1 1) rotate(0) translate(4 247)">
<title>include/network_butcher/K&#45;shortest_path/weighted_graph.h</title>
<polygon fill="white" stroke="transparent" points="-4,4 -4,-247 496.5,-247 496.5,4 -4,4"/>
<!-- Node1 -->
<g id="node1" class="node">
<title>Node1</title>
<g id="a_node1"><a xlink:title=" ">
<polygon fill="#bfbfbf" stroke="black" points="91.5,-201.5 91.5,-242.5 234.5,-242.5 234.5,-201.5 91.5,-201.5"/>
<text text-anchor="start" x="99.5" y="-230.5" font-family="Helvetica,sans-Serif" font-size="10.00">include/network_butcher</text>
<text text-anchor="start" x="99.5" y="-219.5" font-family="Helvetica,sans-Serif" font-size="10.00">/K&#45;shortest_path/weighted</text>
<text text-anchor="middle" x="163" y="-208.5" font-family="Helvetica,sans-Serif" font-size="10.00">_graph.h</text>
</a>
</g>
</g>
<!-- Node2 -->
<g id="node2" class="node">
<title>Node2</title>
<g id="a_node2"><a xlink:href="traits_8h.html" target="_top" xlink:title=" ">
<polygon fill="white" stroke="black" points="99,-134.5 99,-164.5 227,-164.5 227,-134.5 99,-134.5"/>
<text text-anchor="start" x="107" y="-152.5" font-family="Helvetica,sans-Serif" font-size="10.00">network_butcher/Traits</text>
<text text-anchor="middle" x="163" y="-141.5" font-family="Helvetica,sans-Serif" font-size="10.00">/traits.h</text>
</a>
</g>
</g>
<!-- Node1&#45;&gt;Node2 -->
<g id="edge1" class="edge">
<title>Node1&#45;&gt;Node2</title>
<path fill="none" stroke="midnightblue" d="M163,-201.36C163,-193.23 163,-183.7 163,-175.11"/>
<polygon fill="midnightblue" stroke="midnightblue" points="166.5,-174.89 163,-164.89 159.5,-174.89 166.5,-174.89"/>
</g>
<!-- Node3 -->
<g id="node3" class="node">
<title>Node3</title>
<g id="a_node3"><a xlink:title=" ">
<polygon fill="white" stroke="#bfbfbf" points="0,-73 0,-92 32,-92 32,-73 0,-73"/>
<text text-anchor="middle" x="16" y="-80" font-family="Helvetica,sans-Serif" font-size="10.00">set</text>
</a>
</g>
</g>
<!-- Node2&#45;&gt;Node3 -->
<g id="edge2" class="edge">
<title>Node2&#45;&gt;Node3</title>
<path fill="none" stroke="midnightblue" d="M125.32,-134.4C100.91,-124.91 68.64,-111.66 41,-98 40.33,-97.67 39.64,-97.32 38.96,-96.97"/>
<polygon fill="midnightblue" stroke="midnightblue" points="40.55,-93.85 30.1,-92.12 37.19,-99.99 40.55,-93.85"/>
</g>
<!-- Node4 -->
<g id="node4" class="node">
<title>Node4</title>
<g id="a_node4"><a xlink:title=" ">
<polygon fill="white" stroke="#bfbfbf" points="50,-73 50,-92 88,-92 88,-73 50,-73"/>
<text text-anchor="middle" x="69" y="-80" font-family="Helvetica,sans-Serif" font-size="10.00">map</text>
</a>
</g>
</g>
<!-- Node2&#45;&gt;Node4 -->
<g id="edge3" class="edge">
<title>Node2&#45;&gt;Node4</title>
<path fill="none" stroke="midnightblue" d="M142.6,-134.4C126.99,-123.6 105.52,-108.76 89.81,-97.89"/>
<polygon fill="midnightblue" stroke="midnightblue" points="91.52,-94.82 81.3,-92.01 87.54,-100.57 91.52,-94.82"/>
</g>
<!-- Node5 -->
<g id="node5" class="node">
<title>Node5</title>
<g id="a_node5"><a xlink:title=" ">
<polygon fill="white" stroke="#bfbfbf" points="106,-73 106,-92 164,-92 164,-73 106,-73"/>
<text text-anchor="middle" x="135" y="-80" font-family="Helvetica,sans-Serif" font-size="10.00">memory</text>
</a>
</g>
</g>
<!-- Node2&#45;&gt;Node5 -->
<g id="edge4" class="edge">
<title>Node2&#45;&gt;Node5</title>
<path fill="none" stroke="midnightblue" d="M156.92,-134.4C152.77,-124.76 147.24,-111.91 142.77,-101.54"/>
<polygon fill="midnightblue" stroke="midnightblue" points="145.92,-99.99 138.75,-92.19 139.49,-102.76 145.92,-99.99"/>
</g>
<!-- Node6 -->
<g id="node6" class="node">
<title>Node6</title>
<g id="a_node6"><a xlink:href="starting__traits_8h.html" target="_top" xlink:title=" ">
<polygon fill="white" stroke="black" points="122,-0.5 122,-30.5 250,-30.5 250,-0.5 122,-0.5"/>
<text text-anchor="start" x="130" y="-18.5" font-family="Helvetica,sans-Serif" font-size="10.00">network_butcher/Traits</text>
<text text-anchor="middle" x="186" y="-7.5" font-family="Helvetica,sans-Serif" font-size="10.00">/starting_traits.h</text>
</a>
</g>
</g>
<!-- Node2&#45;&gt;Node6 -->
<g id="edge5" class="edge">
<title>Node2&#45;&gt;Node6</title>
<path fill="none" stroke="midnightblue" d="M165.94,-134.38C168.01,-124.27 170.8,-110.32 173,-98 176.42,-78.86 179.87,-57.12 182.35,-40.9"/>
<polygon fill="midnightblue" stroke="midnightblue" points="185.87,-41.07 183.91,-30.66 178.94,-40.02 185.87,-41.07"/>
</g>
<!-- Node7 -->
<g id="node7" class="node">
<title>Node7</title>
<g id="a_node7"><a xlink:href="type__info_8h.html" target="_top" xlink:title=" ">
<polygon fill="white" stroke="black" points="220.5,-67.5 220.5,-97.5 349.5,-97.5 349.5,-67.5 220.5,-67.5"/>
<text text-anchor="start" x="228.5" y="-85.5" font-family="Helvetica,sans-Serif" font-size="10.00">network_butcher/Types</text>
<text text-anchor="middle" x="285" y="-74.5" font-family="Helvetica,sans-Serif" font-size="10.00">/type_info.h</text>
</a>
</g>
</g>
<!-- Node2&#45;&gt;Node7 -->
<g id="edge6" class="edge">
<title>Node2&#45;&gt;Node7</title>
<path fill="none" stroke="midnightblue" d="M189.47,-134.4C207.06,-125.03 230.35,-112.62 249.54,-102.39"/>
<polygon fill="midnightblue" stroke="midnightblue" points="251.4,-105.37 258.58,-97.58 248.11,-99.19 251.4,-105.37"/>
</g>
<!-- Node10 -->
<g id="node10" class="node">
<title>Node10</title>
<g id="a_node10"><a xlink:title=" ">
<polygon fill="white" stroke="#bfbfbf" points="367.5,-67.5 367.5,-97.5 492.5,-97.5 492.5,-67.5 367.5,-67.5"/>
<text text-anchor="start" x="375.5" y="-85.5" font-family="Helvetica,sans-Serif" font-size="10.00">network_butcher/onnx</text>
<text text-anchor="middle" x="430" y="-74.5" font-family="Helvetica,sans-Serif" font-size="10.00">_proto/onnx.pb.h</text>
</a>
</g>
</g>
<!-- Node2&#45;&gt;Node10 -->
<g id="edge10" class="edge">
<title>Node2&#45;&gt;Node10</title>
<path fill="none" stroke="midnightblue" d="M220.61,-134.48C262.14,-124.37 318.34,-110.68 362.06,-100.04"/>
<polygon fill="midnightblue" stroke="midnightblue" points="363.15,-103.38 372.04,-97.61 361.49,-96.58 363.15,-103.38"/>
</g>
<!-- Node7&#45;&gt;Node6 -->
<g id="edge9" class="edge">
<title>Node7&#45;&gt;Node6</title>
<path fill="none" stroke="midnightblue" d="M263.52,-67.4C249.64,-58.28 231.37,-46.29 216.06,-36.24"/>
<polygon fill="midnightblue" stroke="midnightblue" points="217.72,-33.14 207.44,-30.58 213.88,-38.99 217.72,-33.14"/>
</g>
<!-- Node8 -->
<g id="node8" class="node">
<title>Node8</title>
<g id="a_node8"><a xlink:title=" ">
<polygon fill="white" stroke="#bfbfbf" points="268,-6 268,-25 312,-25 312,-6 268,-6"/>
<text text-anchor="middle" x="290" y="-13" font-family="Helvetica,sans-Serif" font-size="10.00">string</text>
</a>
</g>
</g>
<!-- Node7&#45;&gt;Node8 -->
<g id="edge7" class="edge">
<title>Node7&#45;&gt;Node8</title>
<path fill="none" stroke="midnightblue" d="M286.08,-67.4C286.81,-57.96 287.77,-45.45 288.56,-35.19"/>
<polygon fill="midnightblue" stroke="midnightblue" points="292.05,-35.43 289.33,-25.19 285.07,-34.9 292.05,-35.43"/>
</g>
<!-- Node9 -->
<g id="node9" class="node">
<title>Node9</title>
<g id="a_node9"><a xlink:title=" ">
<polygon fill="white" stroke="#bfbfbf" points="330.5,-6 330.5,-25 377.5,-25 377.5,-6 330.5,-6"/>
<text text-anchor="middle" x="354" y="-13" font-family="Helvetica,sans-Serif" font-size="10.00">vector</text>
</a>
</g>
</g>
<!-- Node7&#45;&gt;Node9 -->
<g id="edge8" class="edge">
<title>Node7&#45;&gt;Node9</title>
<path fill="none" stroke="midnightblue" d="M299.97,-67.4C310.94,-57.06 325.84,-43.02 337.22,-32.31"/>
<polygon fill="midnightblue" stroke="midnightblue" points="339.89,-34.6 344.77,-25.19 335.09,-29.5 339.89,-34.6"/>
</g>
</g>
</svg>
