<?xml version="1.0" encoding="UTF-8" standalone="no"?>
<!DOCTYPE svg PUBLIC "-//W3C//DTD SVG 1.1//EN"
 "http://www.w3.org/Graphics/SVG/1.1/DTD/svg11.dtd">
<!-- Generated by graphviz version 2.43.0 (0)
 -->
<!-- Title: include/network_butcher/IO_Interaction/Weight_Importer_Helpers/weight_importer.h Pages: 1 -->
<!--zoomable 865 -->
<svg id="main" version="1.1" xmlns="http://www.w3.org/2000/svg" xmlns:xlink="http://www.w3.org/1999/xlink" xml:space="preserve" onload="init(evt)">
<style type="text/css"><![CDATA[
.edge:hover path { stroke: red; }
.edge:hover polygon { stroke: red; fill: red; }
]]></style>
<script type="text/javascript"><![CDATA[
var edges = document.getElementsByTagName('g');
if (edges && edges.length) {
  for (var i=0;i<edges.length;i++) {
    if (edges[i].id.substr(0,4)=='edge') {
      edges[i].setAttribute('class','edge');
    }
  }
}
]]></script>
        <defs>
                <circle id="rim" cx="0" cy="0" r="7"/>
                <circle id="rim2" cx="0" cy="0" r="3.5"/>
                <g id="zoomPlus">
                        <use xlink:href="#rim" fill="#404040">
                                <set attributeName="fill" to="#808080" begin="zoomplus.mouseover" end="zoomplus.mouseout"/>
                        </use>
                        <path d="M-4,0h8M0,-4v8" fill="none" stroke="white" stroke-width="1.5" pointer-events="none"/>
                </g>
                <g id="zoomMin">
                        <use xlink:href="#rim" fill="#404040">
                                <set attributeName="fill" to="#808080" begin="zoomminus.mouseover" end="zoomminus.mouseout"/>
                        </use>
                        <path d="M-4,0h8" fill="none" stroke="white" stroke-width="1.5" pointer-events="none"/>
                </g>
                <g id="dirArrow">
                        <path fill="none" stroke="white" stroke-width="1.5" d="M0,-3.0v7 M-2.5,-0.5L0,-3.0L2.5,-0.5"/>
                </g>
               <g id="resetDef">
                       <use xlink:href="#rim2" fill="#404040">
                               <set attributeName="fill" to="#808080" begin="reset.mouseover" end="reset.mouseout"/>
                       </use>
               </g>
        </defs>

<script type="text/javascript">
var viewWidth = 1026;
var viewHeight = 865;
var sectionId = 'dynsection-0';
</script>
<script xlink:href="svgpan.js"/>
<svg id="graph" class="graph">
<g id="viewport">
<title>include/network_butcher/IO_Interaction/Weight_Importer_Helpers/weight_importer.h</title>
<polygon fill="white" stroke="transparent" points="-4,4 -4,-861 1022,-861 1022,4 -4,4"/>
<!-- Node1 -->
<g id="node1" class="node">
<title>Node1</title>
<g id="a_node1"><a xlink:title=" ">
<polygon fill="#bfbfbf" stroke="black" points="803.5,-804.5 803.5,-856.5 946.5,-856.5 946.5,-804.5 803.5,-804.5"/>
<text text-anchor="start" x="811.5" y="-844.5" font-family="Helvetica,sans-Serif" font-size="10.00">include/network_butcher</text>
<text text-anchor="start" x="811.5" y="-833.5" font-family="Helvetica,sans-Serif" font-size="10.00">/IO_Interaction/Weight</text>
<text text-anchor="start" x="811.5" y="-822.5" font-family="Helvetica,sans-Serif" font-size="10.00">_Importer_Helpers/weight</text>
<text text-anchor="middle" x="875" y="-811.5" font-family="Helvetica,sans-Serif" font-size="10.00">_importer.h</text>
</a>
</g>
</g>
<!-- Node2 -->
<g id="node2" class="node">
<title>Node2</title>
<g id="a_node2"><a xlink:href="graph__traits_8h.html" target="_top" xlink:title=" ">
<polygon fill="white" stroke="black" points="656.5,-670.5 656.5,-700.5 799.5,-700.5 799.5,-670.5 656.5,-670.5"/>
<text text-anchor="start" x="664.5" y="-688.5" font-family="Helvetica,sans-Serif" font-size="10.00">network_butcher/Network</text>
<text text-anchor="middle" x="728" y="-677.5" font-family="Helvetica,sans-Serif" font-size="10.00">/graph_traits.h</text>
</a>
</g>
</g>
<!-- Node1&#45;&gt;Node2 -->
<g id="edge1" class="edge">
<title>Node1&#45;&gt;Node2</title>
<path fill="none" stroke="midnightblue" d="M843.3,-804.35C830.17,-793.54 815.01,-780.53 802,-768 782.01,-748.74 760.89,-725.1 746.35,-708.25"/>
<polygon fill="midnightblue" stroke="midnightblue" points="748.94,-705.89 739.77,-700.58 743.62,-710.45 748.94,-705.89"/>
</g>
<!-- Node20 -->
<g id="node20" class="node">
<title>Node20</title>
<g id="a_node20"><a xlink:href="traits_8h.html" target="_top" xlink:title=" ">
<polygon fill="white" stroke="black" points="748,-134.5 748,-164.5 876,-164.5 876,-134.5 748,-134.5"/>
<text text-anchor="start" x="756" y="-152.5" font-family="Helvetica,sans-Serif" font-size="10.00">network_butcher/Traits</text>
<text text-anchor="middle" x="812" y="-141.5" font-family="Helvetica,sans-Serif" font-size="10.00">/traits.h</text>
</a>
</g>
</g>
<!-- Node1&#45;&gt;Node20 -->
<g id="edge52" class="edge">
<title>Node1&#45;&gt;Node20</title>
<path fill="none" stroke="midnightblue" d="M926.63,-804.3C967.59,-780.27 1018,-739.87 1018,-686.5 1018,-686.5 1018,-686.5 1018,-282.5 1018,-217.72 944.89,-183.28 885.78,-166.01"/>
<polygon fill="midnightblue" stroke="midnightblue" points="886.62,-162.62 876.05,-163.29 884.74,-169.36 886.62,-162.62"/>
</g>
<!-- Node29 -->
<g id="node29" class="node">
<title>Node29</title>
<g id="a_node29"><a xlink:href="parameters_8h.html" target="_top" xlink:title=" ">
<polygon fill="white" stroke="black" points="810.5,-737.5 810.5,-767.5 939.5,-767.5 939.5,-737.5 810.5,-737.5"/>
<text text-anchor="start" x="818.5" y="-755.5" font-family="Helvetica,sans-Serif" font-size="10.00">network_butcher/Types</text>
<text text-anchor="middle" x="875" y="-744.5" font-family="Helvetica,sans-Serif" font-size="10.00">/parameters.h</text>
</a>
</g>
</g>
<!-- Node1&#45;&gt;Node29 -->
<g id="edge53" class="edge">
<title>Node1&#45;&gt;Node29</title>
<path fill="none" stroke="midnightblue" d="M875,-804.19C875,-795.79 875,-786.44 875,-778.09"/>
<polygon fill="midnightblue" stroke="midnightblue" points="878.5,-777.85 875,-767.85 871.5,-777.85 878.5,-777.85"/>
</g>
<!-- Node3 -->
<g id="node3" class="node">
<title>Node3</title>
<g id="a_node3"><a xlink:href="graph_8h.html" target="_top" xlink:title=" ">
<polygon fill="white" stroke="black" points="575.5,-469.5 575.5,-499.5 718.5,-499.5 718.5,-469.5 575.5,-469.5"/>
<text text-anchor="start" x="583.5" y="-487.5" font-family="Helvetica,sans-Serif" font-size="10.00">network_butcher/Network</text>
<text text-anchor="middle" x="647" y="-476.5" font-family="Helvetica,sans-Serif" font-size="10.00">/graph.h</text>
</a>
</g>
</g>
<!-- Node2&#45;&gt;Node3 -->
<g id="edge2" class="edge">
<title>Node2&#45;&gt;Node3</title>
<path fill="none" stroke="midnightblue" d="M718.91,-670.22C705.55,-648.65 680.6,-606.11 666,-567 659,-548.24 654.03,-526.06 650.93,-509.58"/>
<polygon fill="midnightblue" stroke="midnightblue" points="654.37,-508.9 649.17,-499.66 647.47,-510.12 654.37,-508.9"/>
</g>
<!-- Node8 -->
<g id="node8" class="node">
<title>Node8</title>
<g id="a_node8"><a xlink:href="content_8h.html" target="_top" xlink:title=" ">
<polygon fill="white" stroke="black" points="380.5,-335.5 380.5,-365.5 509.5,-365.5 509.5,-335.5 380.5,-335.5"/>
<text text-anchor="start" x="388.5" y="-353.5" font-family="Helvetica,sans-Serif" font-size="10.00">network_butcher/Types</text>
<text text-anchor="middle" x="445" y="-342.5" font-family="Helvetica,sans-Serif" font-size="10.00">/content.h</text>
</a>
</g>
</g>
<!-- Node2&#45;&gt;Node8 -->
<g id="edge51" class="edge">
<title>Node2&#45;&gt;Node8</title>
<path fill="none" stroke="midnightblue" d="M656.41,-680.72C574.04,-672.07 450,-643.86 450,-552.5 450,-552.5 450,-552.5 450,-483.5 450,-445.98 447.96,-402.49 446.48,-376"/>
<polygon fill="midnightblue" stroke="midnightblue" points="449.96,-375.54 445.89,-365.75 442.97,-375.94 449.96,-375.54"/>
</g>
<!-- Node26 -->
<g id="node26" class="node">
<title>Node26</title>
<g id="a_node26"><a xlink:href="mwgraph_8h.html" target="_top" xlink:title=" ">
<polygon fill="white" stroke="black" points="675.5,-536.5 675.5,-566.5 818.5,-566.5 818.5,-536.5 675.5,-536.5"/>
<text text-anchor="start" x="683.5" y="-554.5" font-family="Helvetica,sans-Serif" font-size="10.00">network_butcher/Network</text>
<text text-anchor="middle" x="747" y="-543.5" font-family="Helvetica,sans-Serif" font-size="10.00">/mwgraph.h</text>
</a>
</g>
</g>
<!-- Node2&#45;&gt;Node26 -->
<g id="edge45" class="edge">
<title>Node2&#45;&gt;Node26</title>
<path fill="none" stroke="midnightblue" d="M730.03,-670.37C733.26,-647.94 739.6,-603.92 743.55,-576.49"/>
<polygon fill="midnightblue" stroke="midnightblue" points="747.02,-576.92 744.98,-566.52 740.09,-575.92 747.02,-576.92"/>
</g>
<!-- Node27 -->
<g id="node27" class="node">
<title>Node27</title>
<g id="a_node27"><a xlink:href="wgraph_8h.html" target="_top" xlink:title=" ">
<polygon fill="white" stroke="black" points="756.5,-603.5 756.5,-633.5 899.5,-633.5 899.5,-603.5 756.5,-603.5"/>
<text text-anchor="start" x="764.5" y="-621.5" font-family="Helvetica,sans-Serif" font-size="10.00">network_butcher/Network</text>
<text text-anchor="middle" x="828" y="-610.5" font-family="Helvetica,sans-Serif" font-size="10.00">/wgraph.h</text>
</a>
</g>
</g>
<!-- Node2&#45;&gt;Node27 -->
<g id="edge47" class="edge">
<title>Node2&#45;&gt;Node27</title>
<path fill="none" stroke="midnightblue" d="M749.7,-670.4C763.72,-661.28 782.17,-649.29 797.64,-639.24"/>
<polygon fill="midnightblue" stroke="midnightblue" points="799.87,-641.96 806.34,-633.58 796.05,-636.09 799.87,-641.96"/>
</g>
<!-- Node4 -->
<g id="node4" class="node">
<title>Node4</title>
<g id="a_node4"><a xlink:title=" ">
<polygon fill="white" stroke="#bfbfbf" points="592,-140 592,-159 656,-159 656,-140 592,-140"/>
<text text-anchor="middle" x="624" y="-147" font-family="Helvetica,sans-Serif" font-size="10.00">algorithm</text>
</a>
</g>
</g>
<!-- Node3&#45;&gt;Node4 -->
<g id="edge3" class="edge">
<title>Node3&#45;&gt;Node4</title>
<path fill="none" stroke="midnightblue" d="M623.62,-469.47C591.59,-448.28 538,-404.85 538,-351.5 538,-351.5 538,-351.5 538,-282.5 538,-233.6 579.95,-188.62 605.25,-165.93"/>
<polygon fill="midnightblue" stroke="midnightblue" points="607.84,-168.32 613.11,-159.12 603.26,-163.03 607.84,-168.32"/>
</g>
<!-- Node5 -->
<g id="node5" class="node">
<title>Node5</title>
<g id="a_node5"><a xlink:title=" ">
<polygon fill="white" stroke="#bfbfbf" points="674,-140 674,-159 730,-159 730,-140 674,-140"/>
<text text-anchor="middle" x="702" y="-147" font-family="Helvetica,sans-Serif" font-size="10.00">numeric</text>
</a>
</g>
</g>
<!-- Node3&#45;&gt;Node5 -->
<g id="edge4" class="edge">
<title>Node3&#45;&gt;Node5</title>
<path fill="none" stroke="midnightblue" d="M640.95,-469.14C631.42,-445.21 614,-395.44 614,-351.5 614,-351.5 614,-351.5 614,-282.5 614,-233.04 657.3,-188.02 683.15,-165.55"/>
<polygon fill="midnightblue" stroke="midnightblue" points="685.46,-168.18 690.85,-159.07 680.95,-162.83 685.46,-168.18"/>
</g>
<!-- Node6 -->
<g id="node6" class="node">
<title>Node6</title>
<g id="a_node6"><a xlink:title=" ">
<polygon fill="white" stroke="#bfbfbf" points="809.5,-274 809.5,-293 854.5,-293 854.5,-274 809.5,-274"/>
<text text-anchor="middle" x="832" y="-281" font-family="Helvetica,sans-Serif" font-size="10.00">utility</text>
</a>
</g>
</g>
<!-- Node3&#45;&gt;Node6 -->
<g id="edge5" class="edge">
<title>Node3&#45;&gt;Node6</title>
<path fill="none" stroke="midnightblue" d="M718.51,-474.99C749.95,-468.09 785.45,-455.6 811,-433 845.12,-402.82 845.01,-380.37 841,-335 840.05,-324.29 838,-312.45 836.09,-302.92"/>
<polygon fill="midnightblue" stroke="midnightblue" points="839.49,-302.07 833.99,-293.02 832.64,-303.52 839.49,-302.07"/>
</g>
<!-- Node7 -->
<g id="node7" class="node">
<title>Node7</title>
<g id="a_node7"><a xlink:title=" ">
<polygon fill="white" stroke="#bfbfbf" points="70.5,-6 70.5,-25 117.5,-25 117.5,-6 70.5,-6"/>
<text text-anchor="middle" x="94" y="-13" font-family="Helvetica,sans-Serif" font-size="10.00">vector</text>
</a>
</g>
</g>
<!-- Node3&#45;&gt;Node7 -->
<g id="edge6" class="edge">
<title>Node3&#45;&gt;Node7</title>
<path fill="none" stroke="midnightblue" d="M575.29,-483.83C406.83,-482.68 0,-467.86 0,-351.5 0,-351.5 0,-351.5 0,-148.5 0,-98.02 46.18,-53.45 73.81,-31.31"/>
<polygon fill="midnightblue" stroke="midnightblue" points="75.96,-34.07 81.71,-25.18 71.66,-28.54 75.96,-34.07"/>
</g>
<!-- Node3&#45;&gt;Node8 -->
<g id="edge7" class="edge">
<title>Node3&#45;&gt;Node8</title>
<path fill="none" stroke="midnightblue" d="M600.35,-469.46C576.35,-461 547.32,-448.79 524,-433 499.74,-416.57 477.02,-391.74 462.22,-373.8"/>
<polygon fill="midnightblue" stroke="midnightblue" points="464.63,-371.21 455.63,-365.62 459.18,-375.6 464.63,-371.21"/>
</g>
<!-- Node24 -->
<g id="node24" class="node">
<title>Node24</title>
<g id="a_node24"><a xlink:href="node_8h.html" target="_top" xlink:title=" ">
<polygon fill="white" stroke="black" points="688.5,-335.5 688.5,-365.5 831.5,-365.5 831.5,-335.5 688.5,-335.5"/>
<text text-anchor="start" x="696.5" y="-353.5" font-family="Helvetica,sans-Serif" font-size="10.00">network_butcher/Network</text>
<text text-anchor="middle" x="760" y="-342.5" font-family="Helvetica,sans-Serif" font-size="10.00">/node.h</text>
</a>
</g>
</g>
<!-- Node3&#45;&gt;Node24 -->
<g id="edge35" class="edge">
<title>Node3&#45;&gt;Node24</title>
<path fill="none" stroke="midnightblue" d="M718.78,-476.84C747.31,-470.26 777.47,-457.51 795,-433 808.09,-414.7 794.84,-390.75 781.05,-373.55"/>
<polygon fill="midnightblue" stroke="midnightblue" points="783.51,-371.04 774.35,-365.7 778.19,-375.58 783.51,-371.04"/>
</g>
<!-- Node25 -->
<g id="node25" class="node">
<title>Node25</title>
<g id="a_node25"><a xlink:href="node__traits_8h.html" target="_top" xlink:title=" ">
<polygon fill="white" stroke="black" points="642.5,-402.5 642.5,-432.5 785.5,-432.5 785.5,-402.5 642.5,-402.5"/>
<text text-anchor="start" x="650.5" y="-420.5" font-family="Helvetica,sans-Serif" font-size="10.00">network_butcher/Network</text>
<text text-anchor="middle" x="714" y="-409.5" font-family="Helvetica,sans-Serif" font-size="10.00">/node_traits.h</text>
</a>
</g>
</g>
<!-- Node3&#45;&gt;Node25 -->
<g id="edge40" class="edge">
<title>Node3&#45;&gt;Node25</title>
<path fill="none" stroke="midnightblue" d="M661.54,-469.4C670.49,-460.71 682.14,-449.4 692.19,-439.66"/>
<polygon fill="midnightblue" stroke="midnightblue" points="694.75,-442.05 699.49,-432.58 689.88,-437.03 694.75,-442.05"/>
</g>
<!-- Node9 -->
<g id="node9" class="node">
<title>Node9</title>
<g id="a_node9"><a xlink:href="dense__tensor_8h.html" target="_top" xlink:title=" ">
<polygon fill="white" stroke="black" points="371.5,-268.5 371.5,-298.5 500.5,-298.5 500.5,-268.5 371.5,-268.5"/>
<text text-anchor="start" x="379.5" y="-286.5" font-family="Helvetica,sans-Serif" font-size="10.00">network_butcher/Types</text>
<text text-anchor="middle" x="436" y="-275.5" font-family="Helvetica,sans-Serif" font-size="10.00">/dense_tensor.h</text>
</a>
</g>
</g>
<!-- Node8&#45;&gt;Node9 -->
<g id="edge8" class="edge">
<title>Node8&#45;&gt;Node9</title>
<path fill="none" stroke="midnightblue" d="M443.05,-335.4C441.96,-327.56 440.58,-317.6 439.33,-308.57"/>
<polygon fill="midnightblue" stroke="midnightblue" points="442.79,-308 437.95,-298.58 435.85,-308.96 442.79,-308"/>
</g>
<!-- Node13 -->
<g id="node13" class="node">
<title>Node13</title>
<g id="a_node13"><a xlink:href="variant__attribute_8h.html" target="_top" xlink:title=" ">
<polygon fill="white" stroke="black" points="64.5,-201.5 64.5,-231.5 193.5,-231.5 193.5,-201.5 64.5,-201.5"/>
<text text-anchor="start" x="72.5" y="-219.5" font-family="Helvetica,sans-Serif" font-size="10.00">network_butcher/Types</text>
<text text-anchor="middle" x="129" y="-208.5" font-family="Helvetica,sans-Serif" font-size="10.00">/variant_attribute.h</text>
</a>
</g>
</g>
<!-- Node8&#45;&gt;Node13 -->
<g id="edge34" class="edge">
<title>Node8&#45;&gt;Node13</title>
<path fill="none" stroke="midnightblue" d="M393.7,-335.47C362.41,-326.33 321.85,-313.44 287,-299 242.36,-280.51 193.23,-254.15 161.8,-236.47"/>
<polygon fill="midnightblue" stroke="midnightblue" points="163.45,-233.39 153.03,-231.5 160.01,-239.48 163.45,-233.39"/>
</g>
<!-- Node9&#45;&gt;Node7 -->
<g id="edge33" class="edge">
<title>Node9&#45;&gt;Node7</title>
<path fill="none" stroke="midnightblue" d="M385.46,-268.41C360.35,-260.07 330.27,-247.97 306,-232 217.33,-173.65 136.45,-72.99 106.39,-33.3"/>
<polygon fill="midnightblue" stroke="midnightblue" points="109.1,-31.08 100.31,-25.18 103.5,-35.28 109.1,-31.08"/>
</g>
<!-- Node10 -->
<g id="node10" class="node">
<title>Node10</title>
<g id="a_node10"><a xlink:href="type__info_8h.html" target="_top" xlink:title=" ">
<polygon fill="white" stroke="black" points="195.5,-67.5 195.5,-97.5 324.5,-97.5 324.5,-67.5 195.5,-67.5"/>
<text text-anchor="start" x="203.5" y="-85.5" font-family="Helvetica,sans-Serif" font-size="10.00">network_butcher/Types</text>
<text text-anchor="middle" x="260" y="-74.5" font-family="Helvetica,sans-Serif" font-size="10.00">/type_info.h</text>
</a>
</g>
</g>
<!-- Node9&#45;&gt;Node10 -->
<g id="edge9" class="edge">
<title>Node9&#45;&gt;Node10</title>
<path fill="none" stroke="midnightblue" d="M404.37,-268.35C367.61,-250.12 308.27,-214.73 279,-165 268.72,-147.54 264,-124.92 261.84,-107.94"/>
<polygon fill="midnightblue" stroke="midnightblue" points="265.29,-107.28 260.75,-97.71 258.33,-108.02 265.29,-107.28"/>
</g>
<!-- Node9&#45;&gt;Node13 -->
<g id="edge13" class="edge">
<title>Node9&#45;&gt;Node13</title>
<path fill="none" stroke="midnightblue" d="M371.27,-268.79C322.29,-258.42 254.93,-244.16 203.67,-233.31"/>
<polygon fill="midnightblue" stroke="midnightblue" points="204.15,-229.83 193.64,-231.19 202.7,-236.68 204.15,-229.83"/>
</g>
<!-- Node15 -->
<g id="node15" class="node">
<title>Node15</title>
<g id="a_node15"><a xlink:href="utilities_8h.html" target="_top" xlink:title=" ">
<polygon fill="white" stroke="black" points="362.5,-207 362.5,-226 509.5,-226 509.5,-207 362.5,-207"/>
<text text-anchor="middle" x="436" y="-214" font-family="Helvetica,sans-Serif" font-size="10.00">network_butcher/utilities.h</text>
</a>
</g>
</g>
<!-- Node9&#45;&gt;Node15 -->
<g id="edge17" class="edge">
<title>Node9&#45;&gt;Node15</title>
<path fill="none" stroke="midnightblue" d="M430.32,-268.4C429.08,-258.96 428.92,-246.45 429.82,-236.19"/>
<polygon fill="midnightblue" stroke="midnightblue" points="433.3,-236.58 431.23,-226.19 426.37,-235.61 433.3,-236.58"/>
</g>
<!-- Node10&#45;&gt;Node7 -->
<g id="edge11" class="edge">
<title>Node10&#45;&gt;Node7</title>
<path fill="none" stroke="midnightblue" d="M223.98,-67.4C194.47,-55.84 153.14,-39.66 125.06,-28.66"/>
<polygon fill="midnightblue" stroke="midnightblue" points="126.31,-25.39 115.73,-25.01 123.76,-31.91 126.31,-25.39"/>
</g>
<!-- Node11 -->
<g id="node11" class="node">
<title>Node11</title>
<g id="a_node11"><a xlink:title=" ">
<polygon fill="white" stroke="#bfbfbf" points="158,-6 158,-25 202,-25 202,-6 158,-6"/>
<text text-anchor="middle" x="180" y="-13" font-family="Helvetica,sans-Serif" font-size="10.00">string</text>
</a>
</g>
</g>
<!-- Node10&#45;&gt;Node11 -->
<g id="edge10" class="edge">
<title>Node10&#45;&gt;Node11</title>
<path fill="none" stroke="midnightblue" d="M242.64,-67.4C229.67,-56.86 211.97,-42.48 198.69,-31.69"/>
<polygon fill="midnightblue" stroke="midnightblue" points="200.67,-28.78 190.7,-25.19 196.26,-34.22 200.67,-28.78"/>
</g>
<!-- Node12 -->
<g id="node12" class="node">
<title>Node12</title>
<g id="a_node12"><a xlink:href="starting__traits_8h.html" target="_top" xlink:title=" ">
<polygon fill="white" stroke="black" points="472,-0.5 472,-30.5 600,-30.5 600,-0.5 472,-0.5"/>
<text text-anchor="start" x="480" y="-18.5" font-family="Helvetica,sans-Serif" font-size="10.00">network_butcher/Traits</text>
<text text-anchor="middle" x="536" y="-7.5" font-family="Helvetica,sans-Serif" font-size="10.00">/starting_traits.h</text>
</a>
</g>
</g>
<!-- Node10&#45;&gt;Node12 -->
<g id="edge12" class="edge">
<title>Node10&#45;&gt;Node12</title>
<path fill="none" stroke="midnightblue" d="M319.55,-67.48C362.66,-57.32 421.06,-43.57 466.34,-32.91"/>
<polygon fill="midnightblue" stroke="midnightblue" points="467.15,-36.31 476.08,-30.61 465.55,-29.5 467.15,-36.31"/>
</g>
<!-- Node13&#45;&gt;Node7 -->
<g id="edge16" class="edge">
<title>Node13&#45;&gt;Node7</title>
<path fill="none" stroke="midnightblue" d="M96.41,-201.44C81.53,-193.16 65.38,-181.12 57,-165 34.09,-120.95 64.34,-62.08 82.35,-33.5"/>
<polygon fill="midnightblue" stroke="midnightblue" points="85.35,-35.32 87.9,-25.03 79.49,-31.48 85.35,-35.32"/>
</g>
<!-- Node13&#45;&gt;Node11 -->
<g id="edge14" class="edge">
<title>Node13&#45;&gt;Node11</title>
<path fill="none" stroke="midnightblue" d="M132.67,-201.19C141.71,-165.91 165.06,-74.78 175.19,-35.25"/>
<polygon fill="midnightblue" stroke="midnightblue" points="178.64,-35.92 177.73,-25.36 171.86,-34.18 178.64,-35.92"/>
</g>
<!-- Node14 -->
<g id="node14" class="node">
<title>Node14</title>
<g id="a_node14"><a xlink:title=" ">
<polygon fill="white" stroke="#bfbfbf" points="66.5,-140 66.5,-159 117.5,-159 117.5,-140 66.5,-140"/>
<text text-anchor="middle" x="92" y="-147" font-family="Helvetica,sans-Serif" font-size="10.00">variant</text>
</a>
</g>
</g>
<!-- Node13&#45;&gt;Node14 -->
<g id="edge15" class="edge">
<title>Node13&#45;&gt;Node14</title>
<path fill="none" stroke="midnightblue" d="M120.97,-201.4C115.37,-191.56 107.87,-178.38 101.9,-167.89"/>
<polygon fill="midnightblue" stroke="midnightblue" points="104.94,-166.15 96.95,-159.19 98.85,-169.62 104.94,-166.15"/>
</g>
<!-- Node15&#45;&gt;Node4 -->
<g id="edge18" class="edge">
<title>Node15&#45;&gt;Node4</title>
<path fill="none" stroke="midnightblue" d="M460.96,-206.87C493.92,-195.47 552.12,-175.35 589.33,-162.49"/>
<polygon fill="midnightblue" stroke="midnightblue" points="590.92,-165.64 599.23,-159.06 588.64,-159.02 590.92,-165.64"/>
</g>
<!-- Node15&#45;&gt;Node5 -->
<g id="edge19" class="edge">
<title>Node15&#45;&gt;Node5</title>
<path fill="none" stroke="midnightblue" d="M485.27,-206.95C532.03,-198.29 604.04,-183.54 665,-165 667.43,-164.26 669.92,-163.44 672.41,-162.57"/>
<polygon fill="midnightblue" stroke="midnightblue" points="673.69,-165.82 681.85,-159.06 671.25,-159.26 673.69,-165.82"/>
</g>
<!-- Node15&#45;&gt;Node9 -->
<g id="edge31" class="edge">
<title>Node15&#45;&gt;Node9</title>
<path fill="none" stroke="midnightblue" d="M440.77,-226.19C442.51,-234.38 443.1,-247.02 442.55,-258.25"/>
<polygon fill="midnightblue" stroke="midnightblue" points="439.05,-258.13 441.68,-268.4 446.02,-258.73 439.05,-258.13"/>
</g>
<!-- Node15&#45;&gt;Node10 -->
<g id="edge32" class="edge">
<title>Node15&#45;&gt;Node10</title>
<path fill="none" stroke="midnightblue" d="M427.94,-206.99C412.92,-191.4 379.25,-157.69 347,-134 331.24,-122.42 312.61,-111.3 296.65,-102.46"/>
<polygon fill="midnightblue" stroke="midnightblue" points="298.05,-99.24 287.59,-97.53 294.7,-105.39 298.05,-99.24"/>
</g>
<!-- Node16 -->
<g id="node16" class="node">
<title>Node16</title>
<g id="a_node16"><a xlink:title=" ">
<polygon fill="white" stroke="#bfbfbf" points="394,-140 394,-159 462,-159 462,-140 394,-140"/>
<text text-anchor="middle" x="428" y="-147" font-family="Helvetica,sans-Serif" font-size="10.00">filesystem</text>
</a>
</g>
</g>
<!-- Node15&#45;&gt;Node16 -->
<g id="edge20" class="edge">
<title>Node15&#45;&gt;Node16</title>
<path fill="none" stroke="midnightblue" d="M434.92,-206.73C433.75,-197.18 431.83,-181.62 430.31,-169.28"/>
<polygon fill="midnightblue" stroke="midnightblue" points="433.76,-168.62 429.06,-159.13 426.81,-169.48 433.76,-168.62"/>
</g>
<!-- Node17 -->
<g id="node17" class="node">
<title>Node17</title>
<g id="a_node17"><a xlink:title=" ">
<polygon fill="white" stroke="#bfbfbf" points="480.5,-140 480.5,-159 535.5,-159 535.5,-140 480.5,-140"/>
<text text-anchor="middle" x="508" y="-147" font-family="Helvetica,sans-Serif" font-size="10.00">fstream</text>
</a>
</g>
</g>
<!-- Node15&#45;&gt;Node17 -->
<g id="edge21" class="edge">
<title>Node15&#45;&gt;Node17</title>
<path fill="none" stroke="midnightblue" d="M445.71,-206.73C457.26,-196.31 476.75,-178.71 490.86,-165.97"/>
<polygon fill="midnightblue" stroke="midnightblue" points="493.37,-168.43 498.44,-159.13 488.68,-163.23 493.37,-168.43"/>
</g>
<!-- Node18 -->
<g id="node18" class="node">
<title>Node18</title>
<g id="a_node18"><a xlink:title=" ">
<polygon fill="white" stroke="#bfbfbf" points="288,-140 288,-159 338,-159 338,-140 288,-140"/>
<text text-anchor="middle" x="313" y="-147" font-family="Helvetica,sans-Serif" font-size="10.00">ranges</text>
</a>
</g>
</g>
<!-- Node15&#45;&gt;Node18 -->
<g id="edge22" class="edge">
<title>Node15&#45;&gt;Node18</title>
<path fill="none" stroke="midnightblue" d="M419.67,-206.87C398.9,-195.89 362.81,-176.82 338.43,-163.94"/>
<polygon fill="midnightblue" stroke="midnightblue" points="339.88,-160.75 329.4,-159.17 336.61,-166.93 339.88,-160.75"/>
</g>
<!-- Node19 -->
<g id="node19" class="node">
<title>Node19</title>
<g id="a_node19"><a xlink:title=" ">
<polygon fill="white" stroke="#bfbfbf" points="535.5,-67.5 535.5,-97.5 660.5,-97.5 660.5,-67.5 535.5,-67.5"/>
<text text-anchor="start" x="543.5" y="-85.5" font-family="Helvetica,sans-Serif" font-size="10.00">network_butcher/onnx</text>
<text text-anchor="middle" x="598" y="-74.5" font-family="Helvetica,sans-Serif" font-size="10.00">_proto/onnx.pb.h</text>
</a>
</g>
</g>
<!-- Node15&#45;&gt;Node19 -->
<g id="edge23" class="edge">
<title>Node15&#45;&gt;Node19</title>
<path fill="none" stroke="midnightblue" d="M464.59,-206.96C487.89,-198.94 520.64,-185.14 544,-165 562.76,-148.82 577.69,-124.6 587.05,-106.76"/>
<polygon fill="midnightblue" stroke="midnightblue" points="590.29,-108.1 591.66,-97.6 584.04,-104.95 590.29,-108.1"/>
</g>
<!-- Node15&#45;&gt;Node20 -->
<g id="edge24" class="edge">
<title>Node15&#45;&gt;Node20</title>
<path fill="none" stroke="midnightblue" d="M490.28,-206.97C548.84,-197.66 645.11,-182 737.81,-165.19"/>
<polygon fill="midnightblue" stroke="midnightblue" points="738.72,-168.58 747.93,-163.34 737.46,-161.69 738.72,-168.58"/>
</g>
<!-- Node20&#45;&gt;Node10 -->
<g id="edge29" class="edge">
<title>Node20&#45;&gt;Node10</title>
<path fill="none" stroke="midnightblue" d="M747.96,-135.44C744.94,-134.93 741.94,-134.45 739,-134 596.61,-112.4 429.02,-97.01 334.57,-89.24"/>
<polygon fill="midnightblue" stroke="midnightblue" points="334.8,-85.75 324.54,-88.43 334.23,-92.73 334.8,-85.75"/>
</g>
<!-- Node20&#45;&gt;Node12 -->
<g id="edge28" class="edge">
<title>Node20&#45;&gt;Node12</title>
<path fill="none" stroke="midnightblue" d="M816.52,-134.23C821.22,-116.3 825.9,-85.62 810,-67 784.71,-37.37 682.77,-25.03 610.64,-19.96"/>
<polygon fill="midnightblue" stroke="midnightblue" points="610.44,-16.44 600.23,-19.26 609.98,-23.42 610.44,-16.44"/>
</g>
<!-- Node20&#45;&gt;Node19 -->
<g id="edge30" class="edge">
<title>Node20&#45;&gt;Node19</title>
<path fill="none" stroke="midnightblue" d="M765.83,-134.48C733.17,-124.56 689.2,-111.2 654.46,-100.65"/>
<polygon fill="midnightblue" stroke="midnightblue" points="655.04,-97.17 644.46,-97.61 653.01,-103.87 655.04,-97.17"/>
</g>
<!-- Node21 -->
<g id="node21" class="node">
<title>Node21</title>
<g id="a_node21"><a xlink:title=" ">
<polygon fill="white" stroke="#bfbfbf" points="713,-73 713,-92 745,-92 745,-73 713,-73"/>
<text text-anchor="middle" x="729" y="-80" font-family="Helvetica,sans-Serif" font-size="10.00">set</text>
</a>
</g>
</g>
<!-- Node20&#45;&gt;Node21 -->
<g id="edge25" class="edge">
<title>Node20&#45;&gt;Node21</title>
<path fill="none" stroke="midnightblue" d="M793.99,-134.4C780.41,-123.76 761.82,-109.2 748,-98.38"/>
<polygon fill="midnightblue" stroke="midnightblue" points="750.13,-95.6 740.1,-92.19 745.82,-101.12 750.13,-95.6"/>
</g>
<!-- Node22 -->
<g id="node22" class="node">
<title>Node22</title>
<g id="a_node22"><a xlink:title=" ">
<polygon fill="white" stroke="#bfbfbf" points="763,-73 763,-92 801,-92 801,-73 763,-73"/>
<text text-anchor="middle" x="782" y="-80" font-family="Helvetica,sans-Serif" font-size="10.00">map</text>
</a>
</g>
</g>
<!-- Node20&#45;&gt;Node22 -->
<g id="edge26" class="edge">
<title>Node20&#45;&gt;Node22</title>
<path fill="none" stroke="midnightblue" d="M805.49,-134.4C801.04,-124.76 795.11,-111.91 790.32,-101.54"/>
<polygon fill="midnightblue" stroke="midnightblue" points="793.38,-99.81 786.01,-92.19 787.03,-102.74 793.38,-99.81"/>
</g>
<!-- Node23 -->
<g id="node23" class="node">
<title>Node23</title>
<g id="a_node23"><a xlink:title=" ">
<polygon fill="white" stroke="#bfbfbf" points="875,-73 875,-92 933,-92 933,-73 875,-73"/>
<text text-anchor="middle" x="904" y="-80" font-family="Helvetica,sans-Serif" font-size="10.00">memory</text>
</a>
</g>
</g>
<!-- Node20&#45;&gt;Node23 -->
<g id="edge27" class="edge">
<title>Node20&#45;&gt;Node23</title>
<path fill="none" stroke="midnightblue" d="M831.96,-134.4C847.25,-123.6 868.25,-108.76 883.64,-97.89"/>
<polygon fill="midnightblue" stroke="midnightblue" points="885.81,-100.64 891.96,-92.01 881.77,-94.92 885.81,-100.64"/>
</g>
<!-- Node24&#45;&gt;Node6 -->
<g id="edge39" class="edge">
<title>Node24&#45;&gt;Node6</title>
<path fill="none" stroke="midnightblue" d="M775.62,-335.4C787.18,-324.96 802.92,-310.75 814.83,-300"/>
<polygon fill="midnightblue" stroke="midnightblue" points="817.29,-302.49 822.37,-293.19 812.6,-297.3 817.29,-302.49"/>
</g>
<!-- Node24&#45;&gt;Node9 -->
<g id="edge36" class="edge">
<title>Node24&#45;&gt;Node9</title>
<path fill="none" stroke="midnightblue" d="M690.1,-335.48C637.12,-324.85 564.47,-310.27 510.41,-299.43"/>
<polygon fill="midnightblue" stroke="midnightblue" points="511.04,-295.98 500.55,-297.45 509.66,-302.85 511.04,-295.98"/>
</g>
<!-- Node24&#45;&gt;Node20 -->
<g id="edge37" class="edge">
<title>Node24&#45;&gt;Node20</title>
<path fill="none" stroke="midnightblue" d="M763.74,-335.19C772.57,-301.41 794.77,-216.44 805.71,-174.57"/>
<polygon fill="midnightblue" stroke="midnightblue" points="809.15,-175.24 808.29,-164.68 802.38,-173.47 809.15,-175.24"/>
</g>
<!-- Node24&#45;&gt;Node23 -->
<g id="edge38" class="edge">
<title>Node24&#45;&gt;Node23</title>
<path fill="none" stroke="midnightblue" d="M806.35,-335.46C826.25,-327.47 848.46,-315.65 864,-299 907.81,-252.06 905.78,-228.04 918,-165 922.21,-143.26 916.27,-118.14 910.88,-101.6"/>
<polygon fill="midnightblue" stroke="midnightblue" points="914.15,-100.36 907.53,-92.09 907.55,-102.68 914.15,-100.36"/>
</g>
<!-- Node25&#45;&gt;Node8 -->
<g id="edge42" class="edge">
<title>Node25&#45;&gt;Node8</title>
<path fill="none" stroke="midnightblue" d="M655.96,-402.48C614.03,-392.34 557.26,-378.63 513.17,-367.97"/>
<polygon fill="midnightblue" stroke="midnightblue" points="513.94,-364.56 503.4,-365.61 512.3,-371.36 513.94,-364.56"/>
</g>
<!-- Node25&#45;&gt;Node10 -->
<g id="edge44" class="edge">
<title>Node25&#45;&gt;Node10</title>
<path fill="none" stroke="midnightblue" d="M684.69,-402.5C646.87,-384.85 578.71,-354.48 518,-335 450.25,-313.26 422.64,-336.23 362,-299 298.9,-260.25 285.14,-235.66 263,-165 257.22,-146.56 256.75,-124.61 257.57,-108.14"/>
<polygon fill="midnightblue" stroke="midnightblue" points="261.09,-107.94 258.3,-97.72 254.11,-107.46 261.09,-107.94"/>
</g>
<!-- Node25&#45;&gt;Node23 -->
<g id="edge41" class="edge">
<title>Node25&#45;&gt;Node23</title>
<path fill="none" stroke="midnightblue" d="M772.04,-402.5C827.91,-385.14 904,-349.57 904,-284.5 904,-284.5 904,-284.5 904,-215.5 904,-175.16 904,-127.88 904,-102.28"/>
<polygon fill="midnightblue" stroke="midnightblue" points="907.5,-102.15 904,-92.15 900.5,-102.15 907.5,-102.15"/>
</g>
<!-- Node25&#45;&gt;Node24 -->
<g id="edge43" class="edge">
<title>Node25&#45;&gt;Node24</title>
<path fill="none" stroke="midnightblue" d="M723.98,-402.4C729.89,-394.05 737.5,-383.29 744.21,-373.81"/>
<polygon fill="midnightblue" stroke="midnightblue" points="747.12,-375.76 750.04,-365.58 741.4,-371.72 747.12,-375.76"/>
</g>
<!-- Node26&#45;&gt;Node3 -->
<g id="edge46" class="edge">
<title>Node26&#45;&gt;Node3</title>
<path fill="none" stroke="midnightblue" d="M725.3,-536.4C711.28,-527.28 692.83,-515.29 677.36,-505.24"/>
<polygon fill="midnightblue" stroke="midnightblue" points="678.95,-502.09 668.66,-499.58 675.13,-507.96 678.95,-502.09"/>
</g>
<!-- Node27&#45;&gt;Node26 -->
<g id="edge50" class="edge">
<title>Node27&#45;&gt;Node26</title>
<path fill="none" stroke="midnightblue" d="M810.42,-603.4C799.39,-594.54 784.96,-582.96 772.65,-573.09"/>
<polygon fill="midnightblue" stroke="midnightblue" points="774.53,-570.11 764.54,-566.58 770.15,-575.56 774.53,-570.11"/>
</g>
<!-- Node28 -->
<g id="node28" class="node">
<title>Node28</title>
<g id="a_node28"><a xlink:href="weighted__graph_8h.html" target="_top" xlink:title=" ">
<polygon fill="white" stroke="black" points="808,-469.5 808,-499.5 958,-499.5 958,-469.5 808,-469.5"/>
<text text-anchor="start" x="816" y="-487.5" font-family="Helvetica,sans-Serif" font-size="10.00">network_butcher/K&#45;shortest</text>
<text text-anchor="middle" x="883" y="-476.5" font-family="Helvetica,sans-Serif" font-size="10.00">_path/weighted_graph.h</text>
</a>
</g>
</g>
<!-- Node27&#45;&gt;Node28 -->
<g id="edge48" class="edge">
<title>Node27&#45;&gt;Node28</title>
<path fill="none" stroke="midnightblue" d="M833.89,-603.37C843.31,-580.75 861.9,-536.14 873.31,-508.76"/>
<polygon fill="midnightblue" stroke="midnightblue" points="876.54,-510.1 877.16,-499.52 870.08,-507.41 876.54,-510.1"/>
</g>
<!-- Node28&#45;&gt;Node20 -->
<g id="edge49" class="edge">
<title>Node28&#45;&gt;Node20</title>
<path fill="none" stroke="midnightblue" d="M903.1,-469.4C931.51,-447.65 980,-402.97 980,-351.5 980,-351.5 980,-351.5 980,-282.5 980,-224.25 916.79,-187.8 867.91,-168.31"/>
<polygon fill="midnightblue" stroke="midnightblue" points="868.94,-164.96 858.35,-164.64 866.43,-171.5 868.94,-164.96"/>
</g>
<!-- Node29&#45;&gt;Node2 -->
<g id="edge54" class="edge">
<title>Node29&#45;&gt;Node2</title>
<path fill="none" stroke="midnightblue" d="M843.1,-737.4C821.43,-727.81 792.57,-715.05 769.16,-704.7"/>
<polygon fill="midnightblue" stroke="midnightblue" points="770.4,-701.42 759.83,-700.58 767.56,-707.82 770.4,-701.42"/>
</g>
<!-- Node30 -->
<g id="node30" class="node">
<title>Node30</title>
<g id="a_node30"><a xlink:href="ksp__method_8h.html" target="_top" xlink:title=" ">
<polygon fill="white" stroke="black" points="818,-670.5 818,-700.5 968,-700.5 968,-670.5 818,-670.5"/>
<text text-anchor="start" x="826" y="-688.5" font-family="Helvetica,sans-Serif" font-size="10.00">network_butcher/K&#45;shortest</text>
<text text-anchor="middle" x="893" y="-677.5" font-family="Helvetica,sans-Serif" font-size="10.00">_path/ksp_method.h</text>
</a>
</g>
</g>
<!-- Node29&#45;&gt;Node30 -->
<g id="edge55" class="edge">
<title>Node29&#45;&gt;Node30</title>
<path fill="none" stroke="midnightblue" d="M878.91,-737.4C881.1,-729.47 883.9,-719.38 886.42,-710.27"/>
<polygon fill="midnightblue" stroke="midnightblue" points="889.81,-711.15 889.1,-700.58 883.06,-709.28 889.81,-711.15"/>
</g>
</g>
</svg>
        <g id="navigator" transform="translate(0 0)" fill="#404254">
                <rect fill="#f2f5e9" fill-opacity="0.5" stroke="#606060" stroke-width=".5" x="0" y="0" width="60" height="60"/>
                <use id="zoomplus" xlink:href="#zoomPlus" x="17" y="9" onmousedown="handleZoom(evt,'in')"/>
                <use id="zoomminus" xlink:href="#zoomMin" x="42" y="9" onmousedown="handleZoom(evt,'out')"/>
                <use id="reset" xlink:href="#resetDef" x="30" y="36" onmousedown="handleReset()"/>
                <g id="arrowUp" xlink:href="#dirArrow" transform="translate(30 24)" onmousedown="handlePan(0,-1)">
                  <use xlink:href="#rim" fill="#404040">
                        <set attributeName="fill" to="#808080" begin="arrowUp.mouseover" end="arrowUp.mouseout"/>
                  </use>
                  <path fill="none" stroke="white" stroke-width="1.5" d="M0,-3.0v7 M-2.5,-0.5L0,-3.0L2.5,-0.5"/>
                </g>
                <g id="arrowRight" xlink:href="#dirArrow" transform="rotate(90) translate(36 -43)" onmousedown="handlePan(1,0)">
                  <use xlink:href="#rim" fill="#404040">
                        <set attributeName="fill" to="#808080" begin="arrowRight.mouseover" end="arrowRight.mouseout"/>
                  </use>
                  <path fill="none" stroke="white" stroke-width="1.5" d="M0,-3.0v7 M-2.5,-0.5L0,-3.0L2.5,-0.5"/>
                </g>
                <g id="arrowDown" xlink:href="#dirArrow" transform="rotate(180) translate(-30 -48)" onmousedown="handlePan(0,1)">
                  <use xlink:href="#rim" fill="#404040">
                        <set attributeName="fill" to="#808080" begin="arrowDown.mouseover" end="arrowDown.mouseout"/>
                  </use>
                  <path fill="none" stroke="white" stroke-width="1.5" d="M0,-3.0v7 M-2.5,-0.5L0,-3.0L2.5,-0.5"/>
                </g>
                <g id="arrowLeft" xlink:href="#dirArrow" transform="rotate(270) translate(-36 17)" onmousedown="handlePan(-1,0)">
                  <use xlink:href="#rim" fill="#404040">
                        <set attributeName="fill" to="#808080" begin="arrowLeft.mouseover" end="arrowLeft.mouseout"/>
                  </use>
                  <path fill="none" stroke="white" stroke-width="1.5" d="M0,-3.0v7 M-2.5,-0.5L0,-3.0L2.5,-0.5"/>
                </g>
        </g>
        <svg viewBox="0 0 15 15" width="100%" height="30px" preserveAspectRatio="xMaxYMin meet">
         <g id="arrow_out" transform="scale(0.3 0.3)">
          <a xlink:href="weight__importer_8h__incl_org.svg" target="_base">
           <rect id="button" ry="5" rx="5" y="6" x="6" height="38" width="38"
                fill="#f2f5e9" fill-opacity="0.5" stroke="#606060" stroke-width="1.0"/>
           <path id="arrow"
             d="M 11.500037,31.436501 C 11.940474,20.09759 22.043105,11.32322 32.158766,21.979434 L 37.068811,17.246167 C 37.068811,17.246167 37.088388,32 37.088388,32 L 22.160133,31.978069 C 22.160133,31.978069 26.997745,27.140456 26.997745,27.140456 C 18.528582,18.264221 13.291696,25.230495 11.500037,31.436501 z"
             style="fill:#404040;"/>
          </a>
         </g>
        </svg>
</svg>
