<?xml version="1.0" encoding="UTF-8" standalone="no"?>
<!DOCTYPE svg PUBLIC "-//W3C//DTD SVG 1.1//EN"
 "http://www.w3.org/Graphics/SVG/1.1/DTD/svg11.dtd">
<!-- Generated by graphviz version 2.43.0 (0)
 -->
<!-- Title: include/network_butcher/IO_Interaction/weight_importers.h Pages: 1 -->
<!--zoomable 485 -->
<svg id="main" version="1.1" xmlns="http://www.w3.org/2000/svg" xmlns:xlink="http://www.w3.org/1999/xlink" xml:space="preserve" onload="init(evt)">
<style type="text/css"><![CDATA[
.edge:hover path { stroke: red; }
.edge:hover polygon { stroke: red; fill: red; }
]]></style>
<script type="text/javascript"><![CDATA[
var edges = document.getElementsByTagName('g');
if (edges && edges.length) {
  for (var i=0;i<edges.length;i++) {
    if (edges[i].id.substr(0,4)=='edge') {
      edges[i].setAttribute('class','edge');
    }
  }
}
]]></script>
        <defs>
                <circle id="rim" cx="0" cy="0" r="7"/>
                <circle id="rim2" cx="0" cy="0" r="3.5"/>
                <g id="zoomPlus">
                        <use xlink:href="#rim" fill="#404040">
                                <set attributeName="fill" to="#808080" begin="zoomplus.mouseover" end="zoomplus.mouseout"/>
                        </use>
                        <path d="M-4,0h8M0,-4v8" fill="none" stroke="white" stroke-width="1.5" pointer-events="none"/>
                </g>
                <g id="zoomMin">
                        <use xlink:href="#rim" fill="#404040">
                                <set attributeName="fill" to="#808080" begin="zoomminus.mouseover" end="zoomminus.mouseout"/>
                        </use>
                        <path d="M-4,0h8" fill="none" stroke="white" stroke-width="1.5" pointer-events="none"/>
                </g>
                <g id="dirArrow">
                        <path fill="none" stroke="white" stroke-width="1.5" d="M0,-3.0v7 M-2.5,-0.5L0,-3.0L2.5,-0.5"/>
                </g>
               <g id="resetDef">
                       <use xlink:href="#rim2" fill="#404040">
                               <set attributeName="fill" to="#808080" begin="reset.mouseover" end="reset.mouseout"/>
                       </use>
               </g>
        </defs>

<script type="text/javascript">
var viewWidth = 586;
var viewHeight = 485;
var sectionId = 'dynsection-1';
</script>
<script xlink:href="svgpan.js"/>
<svg id="graph" class="graph">
<g id="viewport">
<title>include/network_butcher/IO_Interaction/weight_importers.h</title>
<polygon fill="white" stroke="transparent" points="-4,4 -4,-481 582.19,-481 582.19,4 -4,4"/>
<!-- Node1 -->
<g id="node1" class="node">
<title>Node1</title>
<g id="a_node1"><a xlink:title=" ">
<polygon fill="#bfbfbf" stroke="black" points="238.19,-435.5 238.19,-476.5 375.19,-476.5 375.19,-435.5 238.19,-435.5"/>
<text text-anchor="start" x="246.19" y="-464.5" font-family="Helvetica,sans-Serif" font-size="10.00">include/network_butcher</text>
<text text-anchor="start" x="246.19" y="-453.5" font-family="Helvetica,sans-Serif" font-size="10.00">/IO_Interaction/weight</text>
<text text-anchor="middle" x="306.69" y="-442.5" font-family="Helvetica,sans-Serif" font-size="10.00">_importers.h</text>
</a>
</g>
</g>
<!-- Node2 -->
<g id="node2" class="node">
<title>Node2</title>
<g id="a_node2"><a xlink:href="butcher_8h.html" target="_top" xlink:title=" ">
<polygon fill="white" stroke="black" points="136.19,-290.5 136.19,-320.5 273.19,-320.5 273.19,-290.5 136.19,-290.5"/>
<text text-anchor="start" x="144.19" y="-308.5" font-family="Helvetica,sans-Serif" font-size="10.00">include/network_butcher</text>
<text text-anchor="middle" x="204.69" y="-297.5" font-family="Helvetica,sans-Serif" font-size="10.00">/Butcher/butcher.h</text>
</a>
</g>
</g>
<!-- Node1&#45;&gt;Node2 -->
<g id="edge1" class="edge">
<title>Node1&#45;&gt;Node2</title>
<path fill="none" stroke="midnightblue" d="M307.05,-424.99C305.91,-404.22 301.52,-376.87 287.69,-357 276.42,-340.8 258.12,-328.86 241.56,-320.67"/>
<polygon fill="midnightblue" stroke="midnightblue" points="303.56,-425.29 307.39,-435.17 310.56,-425.06 303.56,-425.29"/>
</g>
<!-- Node4 -->
<g id="node4" class="node">
<title>Node4</title>
<g id="a_node4"><a xlink:href="io__manager_8h.html" target="_top" xlink:title=" ">
<polygon fill="white" stroke="black" points="363.19,-140 363.19,-170 500.19,-170 500.19,-140 363.19,-140"/>
<text text-anchor="start" x="371.19" y="-158" font-family="Helvetica,sans-Serif" font-size="10.00">include/network_butcher</text>
<text text-anchor="middle" x="431.69" y="-147" font-family="Helvetica,sans-Serif" font-size="10.00">/io_manager.h</text>
</a>
</g>
</g>
<!-- Node1&#45;&gt;Node4 -->
<g id="edge16" class="edge">
<title>Node1&#45;&gt;Node4</title>
<path fill="none" stroke="midnightblue" d="M318.8,-426.05C345.05,-363.26 406.41,-216.47 425.75,-170.22"/>
<polygon fill="midnightblue" stroke="midnightblue" points="315.52,-424.81 314.9,-435.38 321.98,-427.51 315.52,-424.81"/>
</g>
<!-- Node12 -->
<g id="node12" class="node">
<title>Node12</title>
<g id="a_node12"><a xlink:href="constrained__block__graph__builder_8h.html" target="_top" xlink:title=" ">
<polygon fill="white" stroke="black" points="130.19,-357.5 130.19,-398.5 279.19,-398.5 279.19,-357.5 130.19,-357.5"/>
<text text-anchor="start" x="138.19" y="-386.5" font-family="Helvetica,sans-Serif" font-size="10.00">include/network_butcher</text>
<text text-anchor="start" x="138.19" y="-375.5" font-family="Helvetica,sans-Serif" font-size="10.00">/Butcher/constrained_block</text>
<text text-anchor="middle" x="204.69" y="-364.5" font-family="Helvetica,sans-Serif" font-size="10.00">_graph_builder.h</text>
</a>
</g>
</g>
<!-- Node1&#45;&gt;Node12 -->
<g id="edge14" class="edge">
<title>Node1&#45;&gt;Node12</title>
<path fill="none" stroke="midnightblue" d="M272.27,-429.35C258.74,-419.27 243.47,-407.89 230.87,-398.51"/>
<polygon fill="midnightblue" stroke="midnightblue" points="270.32,-432.26 280.43,-435.43 274.5,-426.65 270.32,-432.26"/>
</g>
<!-- Node3 -->
<g id="node3" class="node">
<title>Node3</title>
<g id="a_node3"><a xlink:href="onnx__model__reconstructor__helpers_8h.html" target="_top" xlink:title=" ">
<polygon fill="white" stroke="black" points="229.19,-212.5 229.19,-253.5 380.19,-253.5 380.19,-212.5 229.19,-212.5"/>
<text text-anchor="start" x="237.19" y="-241.5" font-family="Helvetica,sans-Serif" font-size="10.00">include/network_butcher</text>
<text text-anchor="start" x="237.19" y="-230.5" font-family="Helvetica,sans-Serif" font-size="10.00">/IO_Interaction/onnx_model</text>
<text text-anchor="middle" x="304.69" y="-219.5" font-family="Helvetica,sans-Serif" font-size="10.00">_reconstructor_helpers.h</text>
</a>
</g>
</g>
<!-- Node2&#45;&gt;Node3 -->
<g id="edge2" class="edge">
<title>Node2&#45;&gt;Node3</title>
<path fill="none" stroke="midnightblue" d="M233.48,-284.21C247.13,-274.58 263.38,-263.12 276.91,-253.59"/>
<polygon fill="midnightblue" stroke="midnightblue" points="231.09,-281.61 224.93,-290.23 235.12,-287.33 231.09,-281.61"/>
</g>
<!-- Node6 -->
<g id="node6" class="node">
<title>Node6</title>
<g id="a_node6"><a xlink:href="network__butcher_8h.html" target="_top" xlink:title=" ">
<polygon fill="white" stroke="black" points="284.19,-0.5 284.19,-30.5 421.19,-30.5 421.19,-0.5 284.19,-0.5"/>
<text text-anchor="start" x="292.19" y="-18.5" font-family="Helvetica,sans-Serif" font-size="10.00">include/network_butcher</text>
<text text-anchor="middle" x="352.69" y="-7.5" font-family="Helvetica,sans-Serif" font-size="10.00">/network_butcher.h</text>
</a>
</g>
</g>
<!-- Node2&#45;&gt;Node6 -->
<g id="edge13" class="edge">
<title>Node2&#45;&gt;Node6</title>
<path fill="none" stroke="midnightblue" d="M126.07,-296.49C95.55,-289.64 62.51,-277.05 39.69,-254 1.49,-215.4 -14.73,-178.29 16.69,-134 77.23,-48.7 204.58,-24.83 283.95,-18.45"/>
<polygon fill="midnightblue" stroke="midnightblue" points="125.38,-299.92 135.88,-298.52 126.8,-293.07 125.38,-299.92"/>
</g>
<!-- Node10 -->
<g id="node10" class="node">
<title>Node10</title>
<g id="a_node10"><a xlink:href="onnx__importer__helpers_8h.html" target="_top" xlink:title=" ">
<polygon fill="white" stroke="black" points="48.69,-212.5 48.69,-253.5 210.69,-253.5 210.69,-212.5 48.69,-212.5"/>
<text text-anchor="start" x="56.69" y="-241.5" font-family="Helvetica,sans-Serif" font-size="10.00">include/network_butcher</text>
<text text-anchor="start" x="56.69" y="-230.5" font-family="Helvetica,sans-Serif" font-size="10.00">/IO_Interaction/onnx_importer</text>
<text text-anchor="middle" x="129.69" y="-219.5" font-family="Helvetica,sans-Serif" font-size="10.00">_helpers.h</text>
</a>
</g>
</g>
<!-- Node2&#45;&gt;Node10 -->
<g id="edge10" class="edge">
<title>Node2&#45;&gt;Node10</title>
<path fill="none" stroke="midnightblue" d="M182.23,-283.38C172.17,-273.93 160.39,-262.85 150.53,-253.59"/>
<polygon fill="midnightblue" stroke="midnightblue" points="179.83,-285.93 189.52,-290.23 184.63,-280.83 179.83,-285.93"/>
</g>
<!-- Node3&#45;&gt;Node4 -->
<g id="edge3" class="edge">
<title>Node3&#45;&gt;Node4</title>
<path fill="none" stroke="midnightblue" d="M346.22,-207.15C366.67,-194.91 390.6,-180.59 407.92,-170.23"/>
<polygon fill="midnightblue" stroke="midnightblue" points="344.18,-204.29 337.4,-212.43 347.78,-210.3 344.18,-204.29"/>
</g>
<!-- Node9 -->
<g id="node9" class="node">
<title>Node9</title>
<g id="a_node9"><a xlink:href="onnx__model__reconstructor__helpers_8cpp.html" target="_top" xlink:title=" ">
<polygon fill="white" stroke="black" points="196.19,-134.5 196.19,-175.5 345.19,-175.5 345.19,-134.5 196.19,-134.5"/>
<text text-anchor="start" x="204.19" y="-163.5" font-family="Helvetica,sans-Serif" font-size="10.00">src/IO_Interaction</text>
<text text-anchor="start" x="204.19" y="-152.5" font-family="Helvetica,sans-Serif" font-size="10.00">/onnx_model_reconstructor</text>
<text text-anchor="middle" x="270.69" y="-141.5" font-family="Helvetica,sans-Serif" font-size="10.00">_helpers.cpp</text>
</a>
</g>
</g>
<!-- Node3&#45;&gt;Node9 -->
<g id="edge9" class="edge">
<title>Node3&#45;&gt;Node9</title>
<path fill="none" stroke="midnightblue" d="M291.8,-203.17C287.66,-193.93 283.18,-183.92 279.42,-175.51"/>
<polygon fill="midnightblue" stroke="midnightblue" points="288.66,-204.73 295.94,-212.43 295.05,-201.87 288.66,-204.73"/>
</g>
<!-- Node5 -->
<g id="node5" class="node">
<title>Node5</title>
<g id="a_node5"><a xlink:href="general__manager_8h.html" target="_top" xlink:title=" ">
<polygon fill="white" stroke="black" points="411.19,-67.5 411.19,-97.5 548.19,-97.5 548.19,-67.5 411.19,-67.5"/>
<text text-anchor="start" x="419.19" y="-85.5" font-family="Helvetica,sans-Serif" font-size="10.00">include/network_butcher</text>
<text text-anchor="middle" x="479.69" y="-74.5" font-family="Helvetica,sans-Serif" font-size="10.00">/general_manager.h</text>
</a>
</g>
</g>
<!-- Node4&#45;&gt;Node5 -->
<g id="edge4" class="edge">
<title>Node4&#45;&gt;Node5</title>
<path fill="none" stroke="midnightblue" d="M447.09,-131.39C454.61,-120.34 463.43,-107.39 470,-97.75"/>
<polygon fill="midnightblue" stroke="midnightblue" points="444.14,-129.5 441.41,-139.73 449.93,-133.44 444.14,-129.5"/>
</g>
<!-- Node4&#45;&gt;Node6 -->
<g id="edge7" class="edge">
<title>Node4&#45;&gt;Node6</title>
<path fill="none" stroke="midnightblue" d="M418.43,-130.91C402.02,-102.35 374.58,-54.59 360.93,-30.83"/>
<polygon fill="midnightblue" stroke="midnightblue" points="415.52,-132.88 423.54,-139.8 421.59,-129.39 415.52,-132.88"/>
</g>
<!-- Node8 -->
<g id="node8" class="node">
<title>Node8</title>
<g id="a_node8"><a xlink:href="io__manager_8cpp.html" target="_top" xlink:title=" ">
<polygon fill="white" stroke="black" points="243.19,-73 243.19,-92 354.19,-92 354.19,-73 243.19,-73"/>
<text text-anchor="middle" x="298.69" y="-80" font-family="Helvetica,sans-Serif" font-size="10.00">src/io_manager.cpp</text>
</a>
</g>
</g>
<!-- Node4&#45;&gt;Node8 -->
<g id="edge8" class="edge">
<title>Node4&#45;&gt;Node8</title>
<path fill="none" stroke="midnightblue" d="M396.13,-135.15C369.69,-121.13 334.85,-102.66 314.79,-92.03"/>
<polygon fill="midnightblue" stroke="midnightblue" points="394.62,-138.31 405.1,-139.9 397.9,-132.13 394.62,-138.31"/>
</g>
<!-- Node5&#45;&gt;Node6 -->
<g id="edge5" class="edge">
<title>Node5&#45;&gt;Node6</title>
<path fill="none" stroke="midnightblue" d="M442.99,-62.71C422.96,-52.46 398.58,-39.98 380.2,-30.58"/>
<polygon fill="midnightblue" stroke="midnightblue" points="441.64,-65.96 452.14,-67.4 444.83,-59.72 441.64,-65.96"/>
</g>
<!-- Node7 -->
<g id="node7" class="node">
<title>Node7</title>
<g id="a_node7"><a xlink:href="general__manager_8cpp.html" target="_top" xlink:title=" ">
<polygon fill="white" stroke="black" points="439.19,-6 439.19,-25 578.19,-25 578.19,-6 439.19,-6"/>
<text text-anchor="middle" x="508.69" y="-13" font-family="Helvetica,sans-Serif" font-size="10.00">src/general_manager.cpp</text>
</a>
</g>
</g>
<!-- Node5&#45;&gt;Node7 -->
<g id="edge6" class="edge">
<title>Node5&#45;&gt;Node7</title>
<path fill="none" stroke="midnightblue" d="M490.2,-57.94C495.29,-46.54 501.09,-33.55 504.82,-25.19"/>
<polygon fill="midnightblue" stroke="midnightblue" points="486.87,-56.84 485.99,-67.4 493.26,-59.69 486.87,-56.84"/>
</g>
<!-- Node10&#45;&gt;Node4 -->
<g id="edge11" class="edge">
<title>Node10&#45;&gt;Node4</title>
<path fill="none" stroke="midnightblue" d="M218,-210.05C259.24,-199.77 308.99,-187.32 353.69,-176 361.28,-174.08 369.28,-172.04 377.15,-170.03"/>
<polygon fill="midnightblue" stroke="midnightblue" points="217.11,-206.67 208.25,-212.48 218.8,-213.46 217.11,-206.67"/>
</g>
<!-- Node11 -->
<g id="node11" class="node">
<title>Node11</title>
<g id="a_node11"><a xlink:href="onnx__importer__helpers_8cpp.html" target="_top" xlink:title=" ">
<polygon fill="white" stroke="black" points="25.69,-140 25.69,-170 177.69,-170 177.69,-140 25.69,-140"/>
<text text-anchor="start" x="33.69" y="-158" font-family="Helvetica,sans-Serif" font-size="10.00">src/IO_Interaction</text>
<text text-anchor="middle" x="101.69" y="-147" font-family="Helvetica,sans-Serif" font-size="10.00">/onnx_importer_helpers.cpp</text>
</a>
</g>
</g>
<!-- Node10&#45;&gt;Node11 -->
<g id="edge12" class="edge">
<title>Node10&#45;&gt;Node11</title>
<path fill="none" stroke="midnightblue" d="M119,-202.96C114.87,-191.75 110.33,-179.43 106.94,-170.23"/>
<polygon fill="midnightblue" stroke="midnightblue" points="115.74,-204.25 122.48,-212.43 122.31,-201.83 115.74,-204.25"/>
</g>
<!-- Node12&#45;&gt;Node2 -->
<g id="edge15" class="edge">
<title>Node12&#45;&gt;Node2</title>
<path fill="none" stroke="midnightblue" d="M204.69,-347.08C204.69,-338.01 204.69,-328.45 204.69,-320.89"/>
<polygon fill="midnightblue" stroke="midnightblue" points="201.19,-347.36 204.69,-357.36 208.19,-347.36 201.19,-347.36"/>
</g>
</g>
</svg>
        <g id="navigator" transform="translate(0 0)" fill="#404254">
                <rect fill="#f2f5e9" fill-opacity="0.5" stroke="#606060" stroke-width=".5" x="0" y="0" width="60" height="60"/>
                <use id="zoomplus" xlink:href="#zoomPlus" x="17" y="9" onmousedown="handleZoom(evt,'in')"/>
                <use id="zoomminus" xlink:href="#zoomMin" x="42" y="9" onmousedown="handleZoom(evt,'out')"/>
                <use id="reset" xlink:href="#resetDef" x="30" y="36" onmousedown="handleReset()"/>
                <g id="arrowUp" xlink:href="#dirArrow" transform="translate(30 24)" onmousedown="handlePan(0,-1)">
                  <use xlink:href="#rim" fill="#404040">
                        <set attributeName="fill" to="#808080" begin="arrowUp.mouseover" end="arrowUp.mouseout"/>
                  </use>
                  <path fill="none" stroke="white" stroke-width="1.5" d="M0,-3.0v7 M-2.5,-0.5L0,-3.0L2.5,-0.5"/>
                </g>
                <g id="arrowRight" xlink:href="#dirArrow" transform="rotate(90) translate(36 -43)" onmousedown="handlePan(1,0)">
                  <use xlink:href="#rim" fill="#404040">
                        <set attributeName="fill" to="#808080" begin="arrowRight.mouseover" end="arrowRight.mouseout"/>
                  </use>
                  <path fill="none" stroke="white" stroke-width="1.5" d="M0,-3.0v7 M-2.5,-0.5L0,-3.0L2.5,-0.5"/>
                </g>
                <g id="arrowDown" xlink:href="#dirArrow" transform="rotate(180) translate(-30 -48)" onmousedown="handlePan(0,1)">
                  <use xlink:href="#rim" fill="#404040">
                        <set attributeName="fill" to="#808080" begin="arrowDown.mouseover" end="arrowDown.mouseout"/>
                  </use>
                  <path fill="none" stroke="white" stroke-width="1.5" d="M0,-3.0v7 M-2.5,-0.5L0,-3.0L2.5,-0.5"/>
                </g>
                <g id="arrowLeft" xlink:href="#dirArrow" transform="rotate(270) translate(-36 17)" onmousedown="handlePan(-1,0)">
                  <use xlink:href="#rim" fill="#404040">
                        <set attributeName="fill" to="#808080" begin="arrowLeft.mouseover" end="arrowLeft.mouseout"/>
                  </use>
                  <path fill="none" stroke="white" stroke-width="1.5" d="M0,-3.0v7 M-2.5,-0.5L0,-3.0L2.5,-0.5"/>
                </g>
        </g>
        <svg viewBox="0 0 15 15" width="100%" height="30px" preserveAspectRatio="xMaxYMin meet">
         <g id="arrow_out" transform="scale(0.3 0.3)">
          <a xlink:href="weight__importers_8h__dep__incl_org.svg" target="_base">
           <rect id="button" ry="5" rx="5" y="6" x="6" height="38" width="38"
                fill="#f2f5e9" fill-opacity="0.5" stroke="#606060" stroke-width="1.0"/>
           <path id="arrow"
             d="M 11.500037,31.436501 C 11.940474,20.09759 22.043105,11.32322 32.158766,21.979434 L 37.068811,17.246167 C 37.068811,17.246167 37.088388,32 37.088388,32 L 22.160133,31.978069 C 22.160133,31.978069 26.997745,27.140456 26.997745,27.140456 C 18.528582,18.264221 13.291696,25.230495 11.500037,31.436501 z"
             style="fill:#404040;"/>
          </a>
         </g>
        </svg>
</svg>
