<?xml version="1.0" encoding="UTF-8" standalone="no"?>
<!DOCTYPE svg PUBLIC "-//W3C//DTD SVG 1.1//EN"
 "http://www.w3.org/Graphics/SVG/1.1/DTD/svg11.dtd">
<!-- Generated by graphviz version 2.43.0 (0)
 -->
<!-- Title: include/K&#45;shortest_path/weighted_graph.h Pages: 1 -->
<svg width="1185pt" height="976pt"
 viewBox="0.00 0.00 1185.44 976.00" xmlns="http://www.w3.org/2000/svg" xmlns:xlink="http://www.w3.org/1999/xlink">
<g id="graph0" class="graph" transform="scale(1 1) rotate(0) translate(4 972)">
<title>include/K&#45;shortest_path/weighted_graph.h</title>
<polygon fill="white" stroke="transparent" points="-4,4 -4,-972 1181.44,-972 1181.44,4 -4,4"/>
<!-- Node1 -->
<g id="node1" class="node">
<title>Node1</title>
<g id="a_node1"><a xlink:title=" ">
<polygon fill="#bfbfbf" stroke="black" points="142.44,-937.5 142.44,-967.5 276.44,-967.5 276.44,-937.5 142.44,-937.5"/>
<text text-anchor="start" x="150.44" y="-955.5" font-family="Helvetica,sans-Serif" font-size="10.00">include/K&#45;shortest</text>
<text text-anchor="middle" x="209.44" y="-944.5" font-family="Helvetica,sans-Serif" font-size="10.00">_path/weighted_graph.h</text>
</a>
</g>
</g>
<!-- Node2 -->
<g id="node2" class="node">
<title>Node2</title>
<g id="a_node2"><a xlink:href="heap__traits_8h.html" target="_top" xlink:title=" ">
<polygon fill="white" stroke="black" points="154.44,-870.5 154.44,-900.5 264.44,-900.5 264.44,-870.5 154.44,-870.5"/>
<text text-anchor="start" x="162.44" y="-888.5" font-family="Helvetica,sans-Serif" font-size="10.00">include/K&#45;shortest</text>
<text text-anchor="middle" x="209.44" y="-877.5" font-family="Helvetica,sans-Serif" font-size="10.00">_path/heap_traits.h</text>
</a>
</g>
</g>
<!-- Node1&#45;&gt;Node2 -->
<g id="edge1" class="edge">
<title>Node1&#45;&gt;Node2</title>
<path fill="none" stroke="midnightblue" d="M209.44,-927.11C209.44,-918.15 209.44,-908.32 209.44,-900.58"/>
<polygon fill="midnightblue" stroke="midnightblue" points="205.94,-927.4 209.44,-937.4 212.94,-927.4 205.94,-927.4"/>
</g>
<!-- Node4 -->
<g id="node4" class="node">
<title>Node4</title>
<g id="a_node4"><a xlink:href="keppstein_8h.html" target="_top" xlink:title=" ">
<polygon fill="white" stroke="black" points="92.44,-653 92.44,-683 196.44,-683 196.44,-653 92.44,-653"/>
<text text-anchor="start" x="100.44" y="-671" font-family="Helvetica,sans-Serif" font-size="10.00">include/K&#45;shortest</text>
<text text-anchor="middle" x="144.44" y="-660" font-family="Helvetica,sans-Serif" font-size="10.00">_path/keppstein.h</text>
</a>
</g>
</g>
<!-- Node1&#45;&gt;Node4 -->
<g id="edge24" class="edge">
<title>Node1&#45;&gt;Node4</title>
<path fill="none" stroke="midnightblue" d="M152.32,-933.75C107.35,-916.34 47.98,-884.87 21.44,-834 -10.36,-773.02 75.21,-710.45 119.62,-683.16"/>
<polygon fill="midnightblue" stroke="midnightblue" points="151.38,-937.13 161.97,-937.36 153.83,-930.58 151.38,-937.13"/>
</g>
<!-- Node17 -->
<g id="node17" class="node">
<title>Node17</title>
<g id="a_node17"><a xlink:href="keppstein__lazy_8h.html" target="_top" xlink:title=" ">
<polygon fill="white" stroke="black" points="214.94,-653 214.94,-683 341.94,-683 341.94,-653 214.94,-653"/>
<text text-anchor="start" x="222.94" y="-671" font-family="Helvetica,sans-Serif" font-size="10.00">include/K&#45;shortest</text>
<text text-anchor="middle" x="278.44" y="-660" font-family="Helvetica,sans-Serif" font-size="10.00">_path/keppstein_lazy.h</text>
</a>
</g>
</g>
<!-- Node1&#45;&gt;Node17 -->
<g id="edge25" class="edge">
<title>Node1&#45;&gt;Node17</title>
<path fill="none" stroke="midnightblue" d="M242.61,-931.5C253.81,-923.29 265.48,-912.91 273.44,-901 320.03,-831.35 294.22,-721.72 282.9,-683.06"/>
<polygon fill="midnightblue" stroke="midnightblue" points="240.42,-928.76 234.21,-937.34 244.42,-934.5 240.42,-928.76"/>
</g>
<!-- Node19 -->
<g id="node19" class="node">
<title>Node19</title>
<g id="a_node19"><a xlink:href="kfinder_8h.html" target="_top" xlink:title=" ">
<polygon fill="white" stroke="black" points="30.44,-798 30.44,-828 134.44,-828 134.44,-798 30.44,-798"/>
<text text-anchor="start" x="38.44" y="-816" font-family="Helvetica,sans-Serif" font-size="10.00">include/K&#45;shortest</text>
<text text-anchor="middle" x="82.44" y="-805" font-family="Helvetica,sans-Serif" font-size="10.00">_path/kfinder.h</text>
</a>
</g>
</g>
<!-- Node1&#45;&gt;Node19 -->
<g id="edge26" class="edge">
<title>Node1&#45;&gt;Node19</title>
<path fill="none" stroke="midnightblue" d="M180.56,-931.4C169.03,-922.71 156.01,-912.01 145.44,-901 123.11,-877.72 102.19,-846.17 90.97,-828.16"/>
<polygon fill="midnightblue" stroke="midnightblue" points="178.51,-934.24 188.64,-937.35 182.66,-928.6 178.51,-934.24"/>
</g>
<!-- Node20 -->
<g id="node20" class="node">
<title>Node20</title>
<g id="a_node20"><a xlink:href="wgraph_8h.html" target="_top" xlink:title=" ">
<polygon fill="white" stroke="black" points="360.44,-876 360.44,-895 504.44,-895 504.44,-876 360.44,-876"/>
<text text-anchor="middle" x="432.44" y="-883" font-family="Helvetica,sans-Serif" font-size="10.00">include/Network/wgraph.h</text>
</a>
</g>
</g>
<!-- Node1&#45;&gt;Node20 -->
<g id="edge28" class="edge">
<title>Node1&#45;&gt;Node20</title>
<path fill="none" stroke="midnightblue" d="M267.18,-934.67C310.76,-921.97 368.76,-905.06 403.18,-895.03"/>
<polygon fill="midnightblue" stroke="midnightblue" points="266.18,-931.32 257.56,-937.48 268.14,-938.04 266.18,-931.32"/>
</g>
<!-- Node3 -->
<g id="node3" class="node">
<title>Node3</title>
<g id="a_node3"><a xlink:href="basic__keppstein_8h.html" target="_top" xlink:title=" ">
<polygon fill="white" stroke="black" points="142.44,-725.5 142.44,-755.5 276.44,-755.5 276.44,-725.5 142.44,-725.5"/>
<text text-anchor="start" x="150.44" y="-743.5" font-family="Helvetica,sans-Serif" font-size="10.00">include/K&#45;shortest</text>
<text text-anchor="middle" x="209.44" y="-732.5" font-family="Helvetica,sans-Serif" font-size="10.00">_path/basic_keppstein.h</text>
</a>
</g>
</g>
<!-- Node2&#45;&gt;Node3 -->
<g id="edge2" class="edge">
<title>Node2&#45;&gt;Node3</title>
<path fill="none" stroke="midnightblue" d="M246.95,-864.83C258.22,-856.88 269.23,-846.58 275.44,-834 283.71,-817.26 283.71,-808.74 275.44,-792 267.65,-776.22 252.29,-764.01 238.35,-755.55"/>
<polygon fill="midnightblue" stroke="midnightblue" points="244.81,-862.05 238.35,-870.45 248.64,-867.91 244.81,-862.05"/>
</g>
<!-- Node12 -->
<g id="node12" class="node">
<title>Node12</title>
<g id="a_node12"><a xlink:href="network__butcher_8h.html" target="_top" xlink:title=" ">
<polygon fill="white" stroke="black" points="335.94,-56.5 335.94,-75.5 480.94,-75.5 480.94,-56.5 335.94,-56.5"/>
<text text-anchor="middle" x="408.44" y="-63.5" font-family="Helvetica,sans-Serif" font-size="10.00">include/network_butcher.h</text>
</a>
</g>
</g>
<!-- Node2&#45;&gt;Node12 -->
<g id="edge23" class="edge">
<title>Node2&#45;&gt;Node12</title>
<path fill="none" stroke="midnightblue" d="M144.16,-874.42C96.84,-865.79 38.32,-851.91 21.44,-834 -7.33,-803.45 2.44,-783.47 2.44,-741.5 2.44,-741.5 2.44,-741.5 2.44,-210 2.44,-137.79 233.8,-93.11 347.22,-75.55"/>
<polygon fill="midnightblue" stroke="midnightblue" points="143.61,-877.88 154.07,-876.19 144.84,-870.99 143.61,-877.88"/>
</g>
<!-- Node18 -->
<g id="node18" class="node">
<title>Node18</title>
<g id="a_node18"><a xlink:href="shortest__path__finder_8h.html" target="_top" xlink:title=" ">
<polygon fill="white" stroke="black" points="152.94,-792.5 152.94,-833.5 265.94,-833.5 265.94,-792.5 152.94,-792.5"/>
<text text-anchor="start" x="160.94" y="-821.5" font-family="Helvetica,sans-Serif" font-size="10.00">include/K&#45;shortest</text>
<text text-anchor="start" x="160.94" y="-810.5" font-family="Helvetica,sans-Serif" font-size="10.00">_path/shortest_path</text>
<text text-anchor="middle" x="209.44" y="-799.5" font-family="Helvetica,sans-Serif" font-size="10.00">_finder.h</text>
</a>
</g>
</g>
<!-- Node2&#45;&gt;Node18 -->
<g id="edge21" class="edge">
<title>Node2&#45;&gt;Node18</title>
<path fill="none" stroke="midnightblue" d="M209.44,-859.98C209.44,-851.35 209.44,-841.76 209.44,-833.59"/>
<polygon fill="midnightblue" stroke="midnightblue" points="205.94,-860.23 209.44,-870.23 212.94,-860.23 205.94,-860.23"/>
</g>
<!-- Node3&#45;&gt;Node4 -->
<g id="edge3" class="edge">
<title>Node3&#45;&gt;Node4</title>
<path fill="none" stroke="midnightblue" d="M189.5,-717.86C179.12,-706.61 166.74,-693.18 157.58,-683.25"/>
<polygon fill="midnightblue" stroke="midnightblue" points="186.94,-720.25 196.29,-725.23 192.08,-715.51 186.94,-720.25"/>
</g>
<!-- Node3&#45;&gt;Node17 -->
<g id="edge19" class="edge">
<title>Node3&#45;&gt;Node17</title>
<path fill="none" stroke="midnightblue" d="M230.62,-717.86C241.63,-706.61 254.78,-693.18 264.5,-683.25"/>
<polygon fill="midnightblue" stroke="midnightblue" points="227.9,-715.64 223.41,-725.23 232.9,-720.53 227.9,-715.64"/>
</g>
<!-- Node5 -->
<g id="node5" class="node">
<title>Node5</title>
<g id="a_node5"><a xlink:href="kfinder__factory_8h.html" target="_top" xlink:title=" ">
<polygon fill="white" stroke="black" points="214.44,-402.5 214.44,-432.5 342.44,-432.5 342.44,-402.5 214.44,-402.5"/>
<text text-anchor="start" x="222.44" y="-420.5" font-family="Helvetica,sans-Serif" font-size="10.00">include/K&#45;shortest</text>
<text text-anchor="middle" x="278.44" y="-409.5" font-family="Helvetica,sans-Serif" font-size="10.00">_path/kfinder_factory.h</text>
</a>
</g>
</g>
<!-- Node4&#45;&gt;Node5 -->
<g id="edge4" class="edge">
<title>Node4&#45;&gt;Node5</title>
<path fill="none" stroke="midnightblue" d="M156.81,-644.06C184.05,-593.55 248.56,-473.92 270.77,-432.73"/>
<polygon fill="midnightblue" stroke="midnightblue" points="153.7,-642.46 152.03,-652.93 159.86,-645.79 153.7,-642.46"/>
</g>
<!-- Node6 -->
<g id="node6" class="node">
<title>Node6</title>
<g id="a_node6"><a xlink:href="butcher_8h.html" target="_top" xlink:title=" ">
<polygon fill="white" stroke="black" points="542.44,-268.5 542.44,-287.5 682.44,-287.5 682.44,-268.5 542.44,-268.5"/>
<text text-anchor="middle" x="612.44" y="-275.5" font-family="Helvetica,sans-Serif" font-size="10.00">include/Butcher/butcher.h</text>
</a>
</g>
</g>
<!-- Node5&#45;&gt;Node6 -->
<g id="edge5" class="edge">
<title>Node5&#45;&gt;Node6</title>
<path fill="none" stroke="midnightblue" d="M298.92,-395.09C320.6,-373.73 356.85,-341.62 394.44,-324 440.98,-302.18 498.01,-290.89 542.06,-285.07"/>
<polygon fill="midnightblue" stroke="midnightblue" points="296.19,-392.87 291.61,-402.43 301.15,-397.81 296.19,-392.87"/>
</g>
<!-- Node5&#45;&gt;Node12 -->
<g id="edge18" class="edge">
<title>Node5&#45;&gt;Node12</title>
<path fill="none" stroke="midnightblue" d="M280.71,-392.24C283.08,-364.79 286.44,-318.72 286.44,-279 286.44,-279 286.44,-279 286.44,-210 286.44,-145.39 359.43,-95.18 392.49,-75.74"/>
<polygon fill="midnightblue" stroke="midnightblue" points="277.2,-392.19 279.8,-402.46 284.17,-392.81 277.2,-392.19"/>
</g>
<!-- Node7 -->
<g id="node7" class="node">
<title>Node7</title>
<g id="a_node7"><a xlink:href="onnx__importer__helpers_8h.html" target="_top" xlink:title=" ">
<polygon fill="white" stroke="black" points="990.94,-196 990.94,-226 1131.94,-226 1131.94,-196 990.94,-196"/>
<text text-anchor="start" x="998.94" y="-214" font-family="Helvetica,sans-Serif" font-size="10.00">include/IO_Interaction</text>
<text text-anchor="middle" x="1061.44" y="-203" font-family="Helvetica,sans-Serif" font-size="10.00">/onnx_importer_helpers.h</text>
</a>
</g>
</g>
<!-- Node6&#45;&gt;Node7 -->
<g id="edge6" class="edge">
<title>Node6&#45;&gt;Node7</title>
<path fill="none" stroke="midnightblue" d="M681.54,-267C765.41,-254.86 906.07,-234.49 990.68,-222.24"/>
<polygon fill="midnightblue" stroke="midnightblue" points="681,-263.54 671.6,-268.44 682,-270.47 681,-263.54"/>
</g>
<!-- Node6&#45;&gt;Node12 -->
<g id="edge17" class="edge">
<title>Node6&#45;&gt;Node12</title>
<path fill="none" stroke="midnightblue" d="M598.41,-260.57C572.26,-230.23 513.89,-163.82 460.44,-112 446.73,-98.7 429.84,-84.45 419.11,-75.63"/>
<polygon fill="midnightblue" stroke="midnightblue" points="596,-263.14 605.17,-268.45 601.31,-258.58 596,-263.14"/>
</g>
<!-- Node15 -->
<g id="node15" class="node">
<title>Node15</title>
<g id="a_node15"><a xlink:href="onnx__model__reconstructor__helpers_8h.html" target="_top" xlink:title=" ">
<polygon fill="white" stroke="black" points="663.94,-190.5 663.94,-231.5 812.94,-231.5 812.94,-190.5 663.94,-190.5"/>
<text text-anchor="start" x="671.94" y="-219.5" font-family="Helvetica,sans-Serif" font-size="10.00">include/IO_Interaction</text>
<text text-anchor="start" x="671.94" y="-208.5" font-family="Helvetica,sans-Serif" font-size="10.00">/onnx_model_reconstructor</text>
<text text-anchor="middle" x="738.44" y="-197.5" font-family="Helvetica,sans-Serif" font-size="10.00">_helpers.h</text>
</a>
</g>
</g>
<!-- Node6&#45;&gt;Node15 -->
<g id="edge14" class="edge">
<title>Node6&#45;&gt;Node15</title>
<path fill="none" stroke="midnightblue" d="M638.41,-263.6C656.3,-254.38 680.36,-241.96 700.4,-231.63"/>
<polygon fill="midnightblue" stroke="midnightblue" points="636.46,-260.67 629.18,-268.37 639.67,-266.89 636.46,-260.67"/>
</g>
<!-- Node8 -->
<g id="node8" class="node">
<title>Node8</title>
<g id="a_node8"><a xlink:href="io__manager_8h.html" target="_top" xlink:title=" ">
<polygon fill="white" stroke="black" points="805.94,-123.5 805.94,-142.5 926.94,-142.5 926.94,-123.5 805.94,-123.5"/>
<text text-anchor="middle" x="866.44" y="-130.5" font-family="Helvetica,sans-Serif" font-size="10.00">include/io_manager.h</text>
</a>
</g>
</g>
<!-- Node7&#45;&gt;Node8 -->
<g id="edge7" class="edge">
<title>Node7&#45;&gt;Node8</title>
<path fill="none" stroke="midnightblue" d="M1015.68,-192.16C975.66,-176.56 919.26,-154.58 888.53,-142.61"/>
<polygon fill="midnightblue" stroke="midnightblue" points="1014.63,-195.51 1025.22,-195.88 1017.18,-188.99 1014.63,-195.51"/>
</g>
<!-- Node14 -->
<g id="node14" class="node">
<title>Node14</title>
<g id="a_node14"><a xlink:href="onnx__importer__helpers_8cpp.html" target="_top" xlink:title=" ">
<polygon fill="white" stroke="black" points="985.44,-118 985.44,-148 1137.44,-148 1137.44,-118 985.44,-118"/>
<text text-anchor="start" x="993.44" y="-136" font-family="Helvetica,sans-Serif" font-size="10.00">src/IO_Interaction</text>
<text text-anchor="middle" x="1061.44" y="-125" font-family="Helvetica,sans-Serif" font-size="10.00">/onnx_importer_helpers.cpp</text>
</a>
</g>
</g>
<!-- Node7&#45;&gt;Node14 -->
<g id="edge13" class="edge">
<title>Node7&#45;&gt;Node14</title>
<path fill="none" stroke="midnightblue" d="M1061.44,-185.59C1061.44,-173.26 1061.44,-158.72 1061.44,-148.23"/>
<polygon fill="midnightblue" stroke="midnightblue" points="1057.94,-185.7 1061.44,-195.7 1064.94,-185.71 1057.94,-185.7"/>
</g>
<!-- Node9 -->
<g id="node9" class="node">
<title>Node9</title>
<g id="a_node9"><a xlink:href="general__manager_8h.html" target="_top" xlink:title=" ">
<polygon fill="white" stroke="black" points="865.94,-56.5 865.94,-75.5 1014.94,-75.5 1014.94,-56.5 865.94,-56.5"/>
<text text-anchor="middle" x="940.44" y="-63.5" font-family="Helvetica,sans-Serif" font-size="10.00">include/general_manager.h</text>
</a>
</g>
</g>
<!-- Node8&#45;&gt;Node9 -->
<g id="edge8" class="edge">
<title>Node8&#45;&gt;Node9</title>
<path fill="none" stroke="midnightblue" d="M884.25,-116.36C898.8,-103.58 918.82,-85.99 930.62,-75.63"/>
<polygon fill="midnightblue" stroke="midnightblue" points="881.63,-114 876.42,-123.23 886.25,-119.26 881.63,-114"/>
</g>
<!-- Node8&#45;&gt;Node12 -->
<g id="edge11" class="edge">
<title>Node8&#45;&gt;Node12</title>
<path fill="none" stroke="midnightblue" d="M830.98,-120.49C820.29,-117.36 808.47,-114.22 797.44,-112 688.31,-90.03 559.63,-77.75 481.06,-71.76"/>
<polygon fill="midnightblue" stroke="midnightblue" points="830.23,-123.92 840.81,-123.46 832.25,-117.22 830.23,-123.92"/>
</g>
<!-- Node13 -->
<g id="node13" class="node">
<title>Node13</title>
<g id="a_node13"><a xlink:href="io__manager_8cpp.html" target="_top" xlink:title=" ">
<polygon fill="white" stroke="black" points="736.94,-56.5 736.94,-75.5 847.94,-75.5 847.94,-56.5 736.94,-56.5"/>
<text text-anchor="middle" x="792.44" y="-63.5" font-family="Helvetica,sans-Serif" font-size="10.00">src/io_manager.cpp</text>
</a>
</g>
</g>
<!-- Node8&#45;&gt;Node13 -->
<g id="edge12" class="edge">
<title>Node8&#45;&gt;Node13</title>
<path fill="none" stroke="midnightblue" d="M848.63,-116.36C834.09,-103.58 814.07,-85.99 802.27,-75.63"/>
<polygon fill="midnightblue" stroke="midnightblue" points="846.64,-119.26 856.46,-123.23 851.26,-114 846.64,-119.26"/>
</g>
<!-- Node10 -->
<g id="node10" class="node">
<title>Node10</title>
<g id="a_node10"><a xlink:href="general__manager_8cpp.html" target="_top" xlink:title=" ">
<polygon fill="white" stroke="black" points="806.94,-0.5 806.94,-19.5 945.94,-19.5 945.94,-0.5 806.94,-0.5"/>
<text text-anchor="middle" x="876.44" y="-7.5" font-family="Helvetica,sans-Serif" font-size="10.00">src/general_manager.cpp</text>
</a>
</g>
</g>
<!-- Node9&#45;&gt;Node10 -->
<g id="edge9" class="edge">
<title>Node9&#45;&gt;Node10</title>
<path fill="none" stroke="midnightblue" d="M922.45,-49.82C910.99,-40.15 896.53,-27.95 886.91,-19.83"/>
<polygon fill="midnightblue" stroke="midnightblue" points="920.26,-52.55 930.16,-56.32 924.78,-47.2 920.26,-52.55"/>
</g>
<!-- Node11 -->
<g id="node11" class="node">
<title>Node11</title>
<g id="a_node11"><a xlink:href="main_8cpp.html" target="_top" xlink:title=" ">
<polygon fill="white" stroke="black" points="963.94,-0.5 963.94,-19.5 1042.94,-19.5 1042.94,-0.5 963.94,-0.5"/>
<text text-anchor="middle" x="1003.44" y="-7.5" font-family="Helvetica,sans-Serif" font-size="10.00">src/main.cpp</text>
</a>
</g>
</g>
<!-- Node9&#45;&gt;Node11 -->
<g id="edge10" class="edge">
<title>Node9&#45;&gt;Node11</title>
<path fill="none" stroke="midnightblue" d="M958.48,-49.54C969.72,-39.91 983.76,-27.87 993.14,-19.83"/>
<polygon fill="midnightblue" stroke="midnightblue" points="955.88,-47.16 950.57,-56.32 960.44,-52.47 955.88,-47.16"/>
</g>
<!-- Node15&#45;&gt;Node8 -->
<g id="edge15" class="edge">
<title>Node15&#45;&gt;Node8</title>
<path fill="none" stroke="midnightblue" d="M780.26,-185.17C804.98,-170.49 834.75,-152.82 852.04,-142.55"/>
<polygon fill="midnightblue" stroke="midnightblue" points="778.22,-182.31 771.41,-190.43 781.79,-188.33 778.22,-182.31"/>
</g>
<!-- Node16 -->
<g id="node16" class="node">
<title>Node16</title>
<g id="a_node16"><a xlink:href="onnx__model__reconstructor__helpers_8cpp.html" target="_top" xlink:title=" ">
<polygon fill="white" stroke="black" points="638.94,-112.5 638.94,-153.5 787.94,-153.5 787.94,-112.5 638.94,-112.5"/>
<text text-anchor="start" x="646.94" y="-141.5" font-family="Helvetica,sans-Serif" font-size="10.00">src/IO_Interaction</text>
<text text-anchor="start" x="646.94" y="-130.5" font-family="Helvetica,sans-Serif" font-size="10.00">/onnx_model_reconstructor</text>
<text text-anchor="middle" x="713.44" y="-119.5" font-family="Helvetica,sans-Serif" font-size="10.00">_helpers.cpp</text>
</a>
</g>
</g>
<!-- Node15&#45;&gt;Node16 -->
<g id="edge16" class="edge">
<title>Node15&#45;&gt;Node16</title>
<path fill="none" stroke="midnightblue" d="M728.87,-180.88C725.85,-171.72 722.6,-161.83 719.86,-153.51"/>
<polygon fill="midnightblue" stroke="midnightblue" points="725.56,-182.02 732.01,-190.43 732.21,-179.84 725.56,-182.02"/>
</g>
<!-- Node17&#45;&gt;Node5 -->
<g id="edge20" class="edge">
<title>Node17&#45;&gt;Node5</title>
<path fill="none" stroke="midnightblue" d="M278.44,-642.79C278.44,-591.56 278.44,-473.57 278.44,-432.73"/>
<polygon fill="midnightblue" stroke="midnightblue" points="274.94,-642.93 278.44,-652.93 281.94,-642.93 274.94,-642.93"/>
</g>
<!-- Node18&#45;&gt;Node3 -->
<g id="edge22" class="edge">
<title>Node18&#45;&gt;Node3</title>
<path fill="none" stroke="midnightblue" d="M209.44,-782.08C209.44,-773.01 209.44,-763.45 209.44,-755.89"/>
<polygon fill="midnightblue" stroke="midnightblue" points="205.94,-782.36 209.44,-792.36 212.94,-782.36 205.94,-782.36"/>
</g>
<!-- Node19&#45;&gt;Node3 -->
<g id="edge27" class="edge">
<title>Node19&#45;&gt;Node3</title>
<path fill="none" stroke="midnightblue" d="M116.85,-792.9C138.07,-781.12 164.81,-766.28 184.09,-755.57"/>
<polygon fill="midnightblue" stroke="midnightblue" points="114.88,-789.99 107.84,-797.9 118.28,-796.11 114.88,-789.99"/>
</g>
<!-- Node21 -->
<g id="node21" class="node">
<title>Node21</title>
<g id="a_node21"><a xlink:href="computer__memory_8h.html" target="_top" xlink:title=" ">
<polygon fill="white" stroke="black" points="436.44,-575 436.44,-605 588.44,-605 588.44,-575 436.44,-575"/>
<text text-anchor="start" x="444.44" y="-593" font-family="Helvetica,sans-Serif" font-size="10.00">include/Computer/computer</text>
<text text-anchor="middle" x="512.44" y="-582" font-family="Helvetica,sans-Serif" font-size="10.00">_memory.h</text>
</a>
</g>
</g>
<!-- Node20&#45;&gt;Node21 -->
<g id="edge29" class="edge">
<title>Node20&#45;&gt;Node21</title>
<path fill="none" stroke="midnightblue" d="M437.47,-866.05C452.26,-811.81 495.39,-653.57 508.57,-605.21"/>
<polygon fill="midnightblue" stroke="midnightblue" points="434.09,-865.15 434.84,-875.72 440.84,-866.99 434.09,-865.15"/>
</g>
<!-- Node27 -->
<g id="node27" class="node">
<title>Node27</title>
<g id="a_node27"><a xlink:href="graph__traits_8h.html" target="_top" xlink:title=" ">
<polygon fill="white" stroke="black" points="590.94,-798 590.94,-828 717.94,-828 717.94,-798 590.94,-798"/>
<text text-anchor="start" x="598.94" y="-816" font-family="Helvetica,sans-Serif" font-size="10.00">include/Network/graph</text>
<text text-anchor="middle" x="654.44" y="-805" font-family="Helvetica,sans-Serif" font-size="10.00">_traits.h</text>
</a>
</g>
</g>
<!-- Node20&#45;&gt;Node27 -->
<g id="edge41" class="edge">
<title>Node20&#45;&gt;Node27</title>
<path fill="none" stroke="midnightblue" d="M469.04,-872.88C507.79,-860.57 568.96,-841.15 610.34,-828.01"/>
<polygon fill="midnightblue" stroke="midnightblue" points="467.69,-869.63 459.22,-876 469.81,-876.31 467.69,-869.63"/>
</g>
<!-- Node21&#45;&gt;Node6 -->
<g id="edge30" class="edge">
<title>Node21&#45;&gt;Node6</title>
<path fill="none" stroke="midnightblue" d="M503.35,-565.27C485.99,-515.69 454.15,-399.44 504.44,-324 517.18,-304.9 539.71,-293.9 560.91,-287.56"/>
<polygon fill="midnightblue" stroke="midnightblue" points="500.1,-566.59 506.8,-574.8 506.68,-564.21 500.1,-566.59"/>
</g>
<!-- Node21&#45;&gt;Node12 -->
<g id="edge40" class="edge">
<title>Node21&#45;&gt;Node12</title>
<path fill="none" stroke="midnightblue" d="M496.24,-566.48C489.69,-556.58 482.5,-544.58 477.44,-533 456.36,-484.68 446.44,-471.22 446.44,-418.5 446.44,-418.5 446.44,-418.5 446.44,-210 446.44,-157.6 422.31,-97.9 412.51,-75.82"/>
<polygon fill="midnightblue" stroke="midnightblue" points="493.47,-568.63 502,-574.91 499.25,-564.68 493.47,-568.63"/>
</g>
<!-- Node22 -->
<g id="node22" class="node">
<title>Node22</title>
<g id="a_node22"><a xlink:href="graph__constraint_8h.html" target="_top" xlink:title=" ">
<polygon fill="white" stroke="black" points="550.94,-491.5 550.94,-521.5 673.94,-521.5 673.94,-491.5 550.94,-491.5"/>
<text text-anchor="start" x="558.94" y="-509.5" font-family="Helvetica,sans-Serif" font-size="10.00">include/Butcher/graph</text>
<text text-anchor="middle" x="612.44" y="-498.5" font-family="Helvetica,sans-Serif" font-size="10.00">_constraint.h</text>
</a>
</g>
</g>
<!-- Node21&#45;&gt;Node22 -->
<g id="edge31" class="edge">
<title>Node21&#45;&gt;Node22</title>
<path fill="none" stroke="midnightblue" d="M537.68,-568.44C555.66,-553.78 579.37,-534.45 595.22,-521.53"/>
<polygon fill="midnightblue" stroke="midnightblue" points="535.4,-565.77 529.86,-574.8 539.83,-571.2 535.4,-565.77"/>
</g>
<!-- Node24 -->
<g id="node24" class="node">
<title>Node24</title>
<g id="a_node24"><a xlink:href="block__aMLLibrary__weight__importer_8h.html" target="_top" xlink:title=" ">
<polygon fill="white" stroke="black" points="691.94,-480.5 691.94,-532.5 834.94,-532.5 834.94,-480.5 691.94,-480.5"/>
<text text-anchor="start" x="699.94" y="-520.5" font-family="Helvetica,sans-Serif" font-size="10.00">include/IO_Interaction</text>
<text text-anchor="start" x="699.94" y="-509.5" font-family="Helvetica,sans-Serif" font-size="10.00">/Weight_Importer_Helpers</text>
<text text-anchor="start" x="699.94" y="-498.5" font-family="Helvetica,sans-Serif" font-size="10.00">/block_aMLLibrary_weight</text>
<text text-anchor="middle" x="763.44" y="-487.5" font-family="Helvetica,sans-Serif" font-size="10.00">_importer.h</text>
</a>
</g>
</g>
<!-- Node21&#45;&gt;Node24 -->
<g id="edge34" class="edge">
<title>Node21&#45;&gt;Node24</title>
<path fill="none" stroke="midnightblue" d="M565.14,-571.89C601.95,-559.94 651.54,-543.83 691.92,-530.72"/>
<polygon fill="midnightblue" stroke="midnightblue" points="564.02,-568.57 555.59,-574.99 566.18,-575.23 564.02,-568.57"/>
</g>
<!-- Node23 -->
<g id="node23" class="node">
<title>Node23</title>
<g id="a_node23"><a xlink:href="constrained__block__graph__builder_8h.html" target="_top" xlink:title=" ">
<polygon fill="white" stroke="black" points="648.44,-324.5 648.44,-354.5 800.44,-354.5 800.44,-324.5 648.44,-324.5"/>
<text text-anchor="start" x="656.44" y="-342.5" font-family="Helvetica,sans-Serif" font-size="10.00">include/Butcher/constrained</text>
<text text-anchor="middle" x="724.44" y="-331.5" font-family="Helvetica,sans-Serif" font-size="10.00">_block_graph_builder.h</text>
</a>
</g>
</g>
<!-- Node22&#45;&gt;Node23 -->
<g id="edge32" class="edge">
<title>Node22&#45;&gt;Node23</title>
<path fill="none" stroke="midnightblue" d="M610.86,-481.29C610.47,-456.39 613.42,-417.59 632.44,-391 644.32,-374.4 663.41,-362.66 681.13,-354.7"/>
<polygon fill="midnightblue" stroke="midnightblue" points="607.37,-481.48 611.21,-491.35 614.36,-481.23 607.37,-481.48"/>
</g>
<!-- Node23&#45;&gt;Node6 -->
<g id="edge33" class="edge">
<title>Node23&#45;&gt;Node6</title>
<path fill="none" stroke="midnightblue" d="M688.96,-319.65C668.78,-308.93 644.46,-296.01 628.74,-287.66"/>
<polygon fill="midnightblue" stroke="midnightblue" points="687.43,-322.8 697.9,-324.4 690.71,-316.62 687.43,-322.8"/>
</g>
<!-- Node25 -->
<g id="node25" class="node">
<title>Node25</title>
<g id="a_node25"><a xlink:href="weight__importers_8h.html" target="_top" xlink:title=" ">
<polygon fill="white" stroke="black" points="801.94,-402.5 801.94,-432.5 924.94,-432.5 924.94,-402.5 801.94,-402.5"/>
<text text-anchor="start" x="809.94" y="-420.5" font-family="Helvetica,sans-Serif" font-size="10.00">include/IO_Interaction</text>
<text text-anchor="middle" x="863.44" y="-409.5" font-family="Helvetica,sans-Serif" font-size="10.00">/weight_importers.h</text>
</a>
</g>
</g>
<!-- Node24&#45;&gt;Node25 -->
<g id="edge35" class="edge">
<title>Node24&#45;&gt;Node25</title>
<path fill="none" stroke="midnightblue" d="M800.14,-473.57C816.37,-459.45 834.62,-443.58 847.33,-432.52"/>
<polygon fill="midnightblue" stroke="midnightblue" points="797.62,-471.13 792.37,-480.34 802.21,-476.41 797.62,-471.13"/>
</g>
<!-- Node26 -->
<g id="node26" class="node">
<title>Node26</title>
<g id="a_node26"><a xlink:href="block__aMLLibrary__weight__importer_8cpp.html" target="_top" xlink:title=" ">
<polygon fill="white" stroke="black" points="640.94,-391.5 640.94,-443.5 783.94,-443.5 783.94,-391.5 640.94,-391.5"/>
<text text-anchor="start" x="648.94" y="-431.5" font-family="Helvetica,sans-Serif" font-size="10.00">src/IO_Interaction</text>
<text text-anchor="start" x="648.94" y="-420.5" font-family="Helvetica,sans-Serif" font-size="10.00">/Weight_Importer_Helpers</text>
<text text-anchor="start" x="648.94" y="-409.5" font-family="Helvetica,sans-Serif" font-size="10.00">/block_aMLLibrary_weight</text>
<text text-anchor="middle" x="712.44" y="-398.5" font-family="Helvetica,sans-Serif" font-size="10.00">_importer.cpp</text>
</a>
</g>
</g>
<!-- Node24&#45;&gt;Node26 -->
<g id="edge39" class="edge">
<title>Node24&#45;&gt;Node26</title>
<path fill="none" stroke="midnightblue" d="M743.59,-471.64C738.12,-462.31 732.29,-452.35 727.16,-443.61"/>
<polygon fill="midnightblue" stroke="midnightblue" points="740.62,-473.48 748.69,-480.34 746.65,-469.94 740.62,-473.48"/>
</g>
<!-- Node25&#45;&gt;Node6 -->
<g id="edge36" class="edge">
<title>Node25&#45;&gt;Node6</title>
<path fill="none" stroke="midnightblue" d="M855.79,-392.86C847.68,-371.59 832.76,-341.12 809.44,-324 772.97,-297.21 723.23,-285.99 682.86,-281.46"/>
<polygon fill="midnightblue" stroke="midnightblue" points="852.57,-394.23 859.24,-402.46 859.16,-391.87 852.57,-394.23"/>
</g>
<!-- Node25&#45;&gt;Node8 -->
<g id="edge38" class="edge">
<title>Node25&#45;&gt;Node8</title>
<path fill="none" stroke="midnightblue" d="M863.7,-392.13C864.34,-332.35 865.95,-180.51 866.35,-142.65"/>
<polygon fill="midnightblue" stroke="midnightblue" points="860.2,-392.45 863.59,-402.49 867.2,-392.53 860.2,-392.45"/>
</g>
<!-- Node25&#45;&gt;Node23 -->
<g id="edge37" class="edge">
<title>Node25&#45;&gt;Node23</title>
<path fill="none" stroke="midnightblue" d="M828.69,-397.5C804.3,-384.16 772.22,-366.62 750.12,-354.54"/>
<polygon fill="midnightblue" stroke="midnightblue" points="827.17,-400.66 837.62,-402.38 830.53,-394.51 827.17,-400.66"/>
</g>
<!-- Node27&#45;&gt;Node6 -->
<g id="edge42" class="edge">
<title>Node27&#45;&gt;Node6</title>
<path fill="none" stroke="midnightblue" d="M621.16,-792.76C570.46,-761.56 474.79,-694.9 427.44,-611 404.46,-570.27 408.44,-554.27 408.44,-507.5 408.44,-507.5 408.44,-507.5 408.44,-416.5 408.44,-339.19 510.42,-302.47 570.18,-287.58"/>
<polygon fill="midnightblue" stroke="midnightblue" points="619.42,-795.8 629.78,-797.99 623.05,-789.81 619.42,-795.8"/>
</g>
<!-- Node27&#45;&gt;Node7 -->
<g id="edge46" class="edge">
<title>Node27&#45;&gt;Node7</title>
<path fill="none" stroke="midnightblue" d="M728.51,-806.81C830.87,-798.81 1009.72,-781.68 1069.44,-756 1126.07,-731.65 1177.44,-730.64 1177.44,-669 1177.44,-669 1177.44,-669 1177.44,-338.5 1177.44,-286.21 1122.93,-246.16 1088.64,-226.15"/>
<polygon fill="midnightblue" stroke="midnightblue" points="727.95,-803.34 718.25,-807.6 728.49,-810.32 727.95,-803.34"/>
</g>
<!-- Node27&#45;&gt;Node12 -->
<g id="edge54" class="edge">
<title>Node27&#45;&gt;Node12</title>
<path fill="none" stroke="midnightblue" d="M580.67,-806.31C496.52,-795.33 370.44,-763.16 370.44,-669 370.44,-669 370.44,-669 370.44,-210 370.44,-157.6 394.57,-97.9 404.38,-75.82"/>
<polygon fill="midnightblue" stroke="midnightblue" points="580.36,-809.8 590.71,-807.55 581.21,-802.85 580.36,-809.8"/>
</g>
<!-- Node27&#45;&gt;Node15 -->
<g id="edge47" class="edge">
<title>Node27&#45;&gt;Node15</title>
<path fill="none" stroke="midnightblue" d="M728.42,-805.64C864.21,-791.91 1139.44,-753.65 1139.44,-669 1139.44,-669 1139.44,-669 1139.44,-416.5 1139.44,-271.73 929.46,-229.4 813.4,-217.05"/>
<polygon fill="midnightblue" stroke="midnightblue" points="727.7,-802.19 718.1,-806.66 728.39,-809.16 727.7,-802.19"/>
</g>
<!-- Node27&#45;&gt;Node22 -->
<g id="edge43" class="edge">
<title>Node27&#45;&gt;Node22</title>
<path fill="none" stroke="midnightblue" d="M653.55,-787.9C651.59,-744 645.81,-648.23 630.44,-569 627.27,-552.62 621.63,-534.32 617.51,-521.97"/>
<polygon fill="midnightblue" stroke="midnightblue" points="650.05,-788.05 653.97,-797.9 657.05,-787.76 650.05,-788.05"/>
</g>
<!-- Node28 -->
<g id="node28" class="node">
<title>Node28</title>
<g id="a_node28"><a xlink:href="path__converter_8h.html" target="_top" xlink:title=" ">
<polygon fill="white" stroke="black" points="512.94,-324.5 512.94,-354.5 629.94,-354.5 629.94,-324.5 512.94,-324.5"/>
<text text-anchor="start" x="520.94" y="-342.5" font-family="Helvetica,sans-Serif" font-size="10.00">include/Butcher/path</text>
<text text-anchor="middle" x="571.44" y="-331.5" font-family="Helvetica,sans-Serif" font-size="10.00">_converter.h</text>
</a>
</g>
</g>
<!-- Node27&#45;&gt;Node28 -->
<g id="edge44" class="edge">
<title>Node27&#45;&gt;Node28</title>
<path fill="none" stroke="midnightblue" d="M649.81,-787.72C638.62,-729.81 610.08,-587.05 597.44,-569 580.69,-545.07 556.34,-558.7 542.44,-533 509.98,-472.94 546.8,-387.81 563.78,-354.57"/>
<polygon fill="midnightblue" stroke="midnightblue" points="646.43,-788.64 651.75,-797.8 653.3,-787.32 646.43,-788.64"/>
</g>
<!-- Node29 -->
<g id="node29" class="node">
<title>Node29</title>
<g id="a_node29"><a xlink:href="weight__importer_8h.html" target="_top" xlink:title=" ">
<polygon fill="white" stroke="black" points="723.94,-647.5 723.94,-688.5 866.94,-688.5 866.94,-647.5 723.94,-647.5"/>
<text text-anchor="start" x="731.94" y="-676.5" font-family="Helvetica,sans-Serif" font-size="10.00">include/IO_Interaction</text>
<text text-anchor="start" x="731.94" y="-665.5" font-family="Helvetica,sans-Serif" font-size="10.00">/Weight_Importer_Helpers</text>
<text text-anchor="middle" x="795.44" y="-654.5" font-family="Helvetica,sans-Serif" font-size="10.00">/weight_importer.h</text>
</a>
</g>
</g>
<!-- Node27&#45;&gt;Node29 -->
<g id="edge48" class="edge">
<title>Node27&#45;&gt;Node29</title>
<path fill="none" stroke="midnightblue" d="M666.55,-788.85C677.04,-770.21 693.48,-744.07 712.44,-725 726.42,-710.95 744.4,-698.31 760.06,-688.61"/>
<polygon fill="midnightblue" stroke="midnightblue" points="663.36,-787.38 661.63,-797.83 669.5,-790.74 663.36,-787.38"/>
</g>
<!-- Node32 -->
<g id="node32" class="node">
<title>Node32</title>
<g id="a_node32"><a xlink:href="parameters_8h.html" target="_top" xlink:title=" ">
<polygon fill="white" stroke="black" points="720.94,-731 720.94,-750 871.94,-750 871.94,-731 720.94,-731"/>
<text text-anchor="middle" x="796.44" y="-738" font-family="Helvetica,sans-Serif" font-size="10.00">include/Types/parameters.h</text>
</a>
</g>
</g>
<!-- Node27&#45;&gt;Node32 -->
<g id="edge55" class="edge">
<title>Node27&#45;&gt;Node32</title>
<path fill="none" stroke="midnightblue" d="M692.04,-793.33C720.32,-779.29 757.75,-760.71 779.26,-750.03"/>
<polygon fill="midnightblue" stroke="midnightblue" points="690.24,-790.32 682.84,-797.9 693.35,-796.59 690.24,-790.32"/>
</g>
<!-- Node28&#45;&gt;Node6 -->
<g id="edge45" class="edge">
<title>Node28&#45;&gt;Node6</title>
<path fill="none" stroke="midnightblue" d="M586.88,-316.1C593.71,-306.19 601.35,-295.11 606.48,-287.66"/>
<polygon fill="midnightblue" stroke="midnightblue" points="583.95,-314.18 581.16,-324.4 589.72,-318.15 583.95,-314.18"/>
</g>
<!-- Node29&#45;&gt;Node24 -->
<g id="edge49" class="edge">
<title>Node29&#45;&gt;Node24</title>
<path fill="none" stroke="midnightblue" d="M788.99,-637.42C787.16,-628.9 785.19,-619.59 783.44,-611 778,-584.28 772.12,-553.6 768.15,-532.63"/>
<polygon fill="midnightblue" stroke="midnightblue" points="785.6,-638.29 791.13,-647.32 792.44,-636.81 785.6,-638.29"/>
</g>
<!-- Node30 -->
<g id="node30" class="node">
<title>Node30</title>
<g id="a_node30"><a xlink:href="csv__weight__importer_8h.html" target="_top" xlink:title=" ">
<polygon fill="white" stroke="black" points="791.94,-569.5 791.94,-610.5 934.94,-610.5 934.94,-569.5 791.94,-569.5"/>
<text text-anchor="start" x="799.94" y="-598.5" font-family="Helvetica,sans-Serif" font-size="10.00">include/IO_Interaction</text>
<text text-anchor="start" x="799.94" y="-587.5" font-family="Helvetica,sans-Serif" font-size="10.00">/Weight_Importer_Helpers</text>
<text text-anchor="middle" x="863.44" y="-576.5" font-family="Helvetica,sans-Serif" font-size="10.00">/csv_weight_importer.h</text>
</a>
</g>
</g>
<!-- Node29&#45;&gt;Node30 -->
<g id="edge50" class="edge">
<title>Node29&#45;&gt;Node30</title>
<path fill="none" stroke="midnightblue" d="M819.68,-639.92C828.37,-630.2 837.99,-619.45 845.99,-610.51"/>
<polygon fill="midnightblue" stroke="midnightblue" points="817.02,-637.64 812.96,-647.43 822.23,-642.31 817.02,-637.64"/>
</g>
<!-- Node30&#45;&gt;Node24 -->
<g id="edge51" class="edge">
<title>Node30&#45;&gt;Node24</title>
<path fill="none" stroke="midnightblue" d="M831.55,-563.01C819.67,-553.32 806.2,-542.35 794.4,-532.73"/>
<polygon fill="midnightblue" stroke="midnightblue" points="829.53,-565.87 839.49,-569.48 833.95,-560.45 829.53,-565.87"/>
</g>
<!-- Node30&#45;&gt;Node25 -->
<g id="edge52" class="edge">
<title>Node30&#45;&gt;Node25</title>
<path fill="none" stroke="midnightblue" d="M863.44,-559.27C863.44,-522.31 863.44,-460.71 863.44,-432.9"/>
<polygon fill="midnightblue" stroke="midnightblue" points="859.94,-559.44 863.44,-569.44 866.94,-559.44 859.94,-559.44"/>
</g>
<!-- Node31 -->
<g id="node31" class="node">
<title>Node31</title>
<g id="a_node31"><a xlink:href="csv__weight__importer_8cpp.html" target="_top" xlink:title=" ">
<polygon fill="white" stroke="black" points="891.94,-486 891.94,-527 1034.94,-527 1034.94,-486 891.94,-486"/>
<text text-anchor="start" x="899.94" y="-515" font-family="Helvetica,sans-Serif" font-size="10.00">src/IO_Interaction</text>
<text text-anchor="start" x="899.94" y="-504" font-family="Helvetica,sans-Serif" font-size="10.00">/Weight_Importer_Helpers</text>
<text text-anchor="middle" x="963.44" y="-493" font-family="Helvetica,sans-Serif" font-size="10.00">/csv_weight_importer.cpp</text>
</a>
</g>
</g>
<!-- Node30&#45;&gt;Node31 -->
<g id="edge53" class="edge">
<title>Node30&#45;&gt;Node31</title>
<path fill="none" stroke="midnightblue" d="M895.47,-562.89C909.71,-551.3 926.18,-537.87 939.34,-527.14"/>
<polygon fill="midnightblue" stroke="midnightblue" points="892.94,-560.45 887.4,-569.48 897.36,-565.87 892.94,-560.45"/>
</g>
<!-- Node32&#45;&gt;Node6 -->
<g id="edge56" class="edge">
<title>Node32&#45;&gt;Node6</title>
<path fill="none" stroke="midnightblue" d="M876.86,-729.12C955.48,-713.92 1063.44,-677.34 1063.44,-591 1063.44,-591 1063.44,-591 1063.44,-416.5 1063.44,-337.92 809.76,-299.87 682.91,-285.75"/>
<polygon fill="midnightblue" stroke="midnightblue" points="876.14,-725.69 866.94,-730.95 877.41,-732.57 876.14,-725.69"/>
</g>
<!-- Node32&#45;&gt;Node7 -->
<g id="edge58" class="edge">
<title>Node32&#45;&gt;Node7</title>
<path fill="none" stroke="midnightblue" d="M882.2,-733.7C972.41,-722.38 1101.44,-689.06 1101.44,-591 1101.44,-591 1101.44,-591 1101.44,-338.5 1101.44,-296.12 1080.78,-249.31 1069.16,-226.33"/>
<polygon fill="midnightblue" stroke="midnightblue" points="881.75,-730.23 872.23,-734.88 882.57,-737.18 881.75,-730.23"/>
</g>
<!-- Node32&#45;&gt;Node22 -->
<g id="edge57" class="edge">
<title>Node32&#45;&gt;Node22</title>
<path fill="none" stroke="midnightblue" d="M765.74,-726.3C748.95,-717.75 728.9,-705.2 715.44,-689 678.84,-644.95 698.67,-617.65 668.44,-569 657.24,-550.97 640.44,-533.37 628.16,-521.65"/>
<polygon fill="midnightblue" stroke="midnightblue" points="764.65,-729.66 775.17,-730.86 767.69,-723.35 764.65,-729.66"/>
</g>
<!-- Node32&#45;&gt;Node29 -->
<g id="edge59" class="edge">
<title>Node32&#45;&gt;Node29</title>
<path fill="none" stroke="midnightblue" d="M796.18,-720.85C796.04,-710.93 795.87,-698.73 795.72,-688.66"/>
<polygon fill="midnightblue" stroke="midnightblue" points="792.68,-720.91 796.32,-730.86 799.68,-720.81 792.68,-720.91"/>
</g>
</g>
</svg>
