<?xml version="1.0" encoding="UTF-8" standalone="no"?>
<!DOCTYPE svg PUBLIC "-//W3C//DTD SVG 1.1//EN"
 "http://www.w3.org/Graphics/SVG/1.1/DTD/svg11.dtd">
<!-- Generated by graphviz version 2.43.0 (0)
 -->
<!-- Title: include/IO_Interaction/Weight_Importer_Helpers/weight_importer.h Pages: 1 -->
<svg width="569pt" height="697pt"
 viewBox="0.00 0.00 569.00 697.00" xmlns="http://www.w3.org/2000/svg" xmlns:xlink="http://www.w3.org/1999/xlink">
<g id="graph0" class="graph" transform="scale(1 1) rotate(0) translate(4 693)">
<title>include/IO_Interaction/Weight_Importer_Helpers/weight_importer.h</title>
<polygon fill="white" stroke="transparent" points="-4,4 -4,-693 565,-693 565,4 -4,4"/>
<!-- Node1 -->
<g id="node1" class="node">
<title>Node1</title>
<g id="a_node1"><a xlink:title=" ">
<polygon fill="#bfbfbf" stroke="black" points="80,-647.5 80,-688.5 223,-688.5 223,-647.5 80,-647.5"/>
<text text-anchor="start" x="88" y="-676.5" font-family="Helvetica,sans-Serif" font-size="10.00">include/IO_Interaction</text>
<text text-anchor="start" x="88" y="-665.5" font-family="Helvetica,sans-Serif" font-size="10.00">/Weight_Importer_Helpers</text>
<text text-anchor="middle" x="151.5" y="-654.5" font-family="Helvetica,sans-Serif" font-size="10.00">/weight_importer.h</text>
</a>
</g>
</g>
<!-- Node2 -->
<g id="node2" class="node">
<title>Node2</title>
<g id="a_node2"><a xlink:href="block__aMLLibrary__weight__importer_8h.html" target="_top" xlink:title=" ">
<polygon fill="white" stroke="black" points="0,-480.5 0,-532.5 143,-532.5 143,-480.5 0,-480.5"/>
<text text-anchor="start" x="8" y="-520.5" font-family="Helvetica,sans-Serif" font-size="10.00">include/IO_Interaction</text>
<text text-anchor="start" x="8" y="-509.5" font-family="Helvetica,sans-Serif" font-size="10.00">/Weight_Importer_Helpers</text>
<text text-anchor="start" x="8" y="-498.5" font-family="Helvetica,sans-Serif" font-size="10.00">/block_aMLLibrary_weight</text>
<text text-anchor="middle" x="71.5" y="-487.5" font-family="Helvetica,sans-Serif" font-size="10.00">_importer.h</text>
</a>
</g>
</g>
<!-- Node1&#45;&gt;Node2 -->
<g id="edge1" class="edge">
<title>Node1&#45;&gt;Node2</title>
<path fill="none" stroke="midnightblue" d="M137.11,-638.31C122.03,-608.24 98.56,-561.45 84.16,-532.74"/>
<polygon fill="midnightblue" stroke="midnightblue" points="134.08,-640.07 141.69,-647.44 140.34,-636.93 134.08,-640.07"/>
</g>
<!-- Node17 -->
<g id="node17" class="node">
<title>Node17</title>
<g id="a_node17"><a xlink:href="csv__weight__importer_8h.html" target="_top" xlink:title=" ">
<polygon fill="white" stroke="black" points="145,-569.5 145,-610.5 288,-610.5 288,-569.5 145,-569.5"/>
<text text-anchor="start" x="153" y="-598.5" font-family="Helvetica,sans-Serif" font-size="10.00">include/IO_Interaction</text>
<text text-anchor="start" x="153" y="-587.5" font-family="Helvetica,sans-Serif" font-size="10.00">/Weight_Importer_Helpers</text>
<text text-anchor="middle" x="216.5" y="-576.5" font-family="Helvetica,sans-Serif" font-size="10.00">/csv_weight_importer.h</text>
</a>
</g>
</g>
<!-- Node1&#45;&gt;Node17 -->
<g id="edge20" class="edge">
<title>Node1&#45;&gt;Node17</title>
<path fill="none" stroke="midnightblue" d="M174.91,-639.63C183.15,-629.99 192.24,-619.36 199.82,-610.51"/>
<polygon fill="midnightblue" stroke="midnightblue" points="172.08,-637.55 168.24,-647.43 177.4,-642.1 172.08,-637.55"/>
</g>
<!-- Node3 -->
<g id="node3" class="node">
<title>Node3</title>
<g id="a_node3"><a xlink:href="weight__importers_8h.html" target="_top" xlink:title=" ">
<polygon fill="white" stroke="black" points="216,-402.5 216,-432.5 339,-432.5 339,-402.5 216,-402.5"/>
<text text-anchor="start" x="224" y="-420.5" font-family="Helvetica,sans-Serif" font-size="10.00">include/IO_Interaction</text>
<text text-anchor="middle" x="277.5" y="-409.5" font-family="Helvetica,sans-Serif" font-size="10.00">/weight_importers.h</text>
</a>
</g>
</g>
<!-- Node2&#45;&gt;Node3 -->
<g id="edge2" class="edge">
<title>Node2&#45;&gt;Node3</title>
<path fill="none" stroke="midnightblue" d="M140.05,-476.55C175.1,-461.75 216.17,-444.4 244.22,-432.55"/>
<polygon fill="midnightblue" stroke="midnightblue" points="138.66,-473.34 130.81,-480.45 141.38,-479.79 138.66,-473.34"/>
</g>
<!-- Node16 -->
<g id="node16" class="node">
<title>Node16</title>
<g id="a_node16"><a xlink:href="block__aMLLibrary__weight__importer_8cpp.html" target="_top" xlink:title=" ">
<polygon fill="white" stroke="black" points="0,-391.5 0,-443.5 143,-443.5 143,-391.5 0,-391.5"/>
<text text-anchor="start" x="8" y="-431.5" font-family="Helvetica,sans-Serif" font-size="10.00">src/IO_Interaction</text>
<text text-anchor="start" x="8" y="-420.5" font-family="Helvetica,sans-Serif" font-size="10.00">/Weight_Importer_Helpers</text>
<text text-anchor="start" x="8" y="-409.5" font-family="Helvetica,sans-Serif" font-size="10.00">/block_aMLLibrary_weight</text>
<text text-anchor="middle" x="71.5" y="-398.5" font-family="Helvetica,sans-Serif" font-size="10.00">_importer.cpp</text>
</a>
</g>
</g>
<!-- Node2&#45;&gt;Node16 -->
<g id="edge19" class="edge">
<title>Node2&#45;&gt;Node16</title>
<path fill="none" stroke="midnightblue" d="M71.5,-470.19C71.5,-461.28 71.5,-451.9 71.5,-443.61"/>
<polygon fill="midnightblue" stroke="midnightblue" points="68,-470.34 71.5,-480.34 75,-470.34 68,-470.34"/>
</g>
<!-- Node4 -->
<g id="node4" class="node">
<title>Node4</title>
<g id="a_node4"><a xlink:href="butcher_8h.html" target="_top" xlink:title=" ">
<polygon fill="white" stroke="black" points="311.5,-268.5 311.5,-287.5 451.5,-287.5 451.5,-268.5 311.5,-268.5"/>
<text text-anchor="middle" x="381.5" y="-275.5" font-family="Helvetica,sans-Serif" font-size="10.00">include/Butcher/butcher.h</text>
</a>
</g>
</g>
<!-- Node3&#45;&gt;Node4 -->
<g id="edge3" class="edge">
<title>Node3&#45;&gt;Node4</title>
<path fill="none" stroke="midnightblue" d="M315.51,-397.03C332.23,-386.67 350.7,-372.44 362.5,-355 376.83,-333.82 380.36,-302.76 381.22,-287.76"/>
<polygon fill="midnightblue" stroke="midnightblue" points="313.29,-394.28 306.46,-402.39 316.85,-400.31 313.29,-394.28"/>
</g>
<!-- Node6 -->
<g id="node6" class="node">
<title>Node6</title>
<g id="a_node6"><a xlink:href="io__manager_8h.html" target="_top" xlink:title=" ">
<polygon fill="white" stroke="black" points="195,-123.5 195,-142.5 316,-142.5 316,-123.5 195,-123.5"/>
<text text-anchor="middle" x="255.5" y="-130.5" font-family="Helvetica,sans-Serif" font-size="10.00">include/io_manager.h</text>
</a>
</g>
</g>
<!-- Node3&#45;&gt;Node6 -->
<g id="edge18" class="edge">
<title>Node3&#45;&gt;Node6</title>
<path fill="none" stroke="midnightblue" d="M238.89,-396.96C222.22,-386.65 203.96,-372.48 192.5,-355 161.82,-308.19 171.54,-287.64 165.5,-232 163.49,-213.44 156.43,-206.32 165.5,-190 178.82,-166.03 207.12,-150.99 228.45,-142.61"/>
<polygon fill="midnightblue" stroke="midnightblue" points="237.54,-400.22 247.93,-402.29 241.09,-394.19 237.54,-400.22"/>
</g>
<!-- Node15 -->
<g id="node15" class="node">
<title>Node15</title>
<g id="a_node15"><a xlink:href="constrained__block__graph__builder_8h.html" target="_top" xlink:title=" ">
<polygon fill="white" stroke="black" points="201.5,-324.5 201.5,-354.5 353.5,-354.5 353.5,-324.5 201.5,-324.5"/>
<text text-anchor="start" x="209.5" y="-342.5" font-family="Helvetica,sans-Serif" font-size="10.00">include/Butcher/constrained</text>
<text text-anchor="middle" x="277.5" y="-331.5" font-family="Helvetica,sans-Serif" font-size="10.00">_block_graph_builder.h</text>
</a>
</g>
</g>
<!-- Node3&#45;&gt;Node15 -->
<g id="edge16" class="edge">
<title>Node3&#45;&gt;Node15</title>
<path fill="none" stroke="midnightblue" d="M277.5,-392.09C277.5,-379.76 277.5,-365.22 277.5,-354.73"/>
<polygon fill="midnightblue" stroke="midnightblue" points="274,-392.2 277.5,-402.2 281,-392.21 274,-392.2"/>
</g>
<!-- Node5 -->
<g id="node5" class="node">
<title>Node5</title>
<g id="a_node5"><a xlink:href="onnx__importer__helpers_8h.html" target="_top" xlink:title=" ">
<polygon fill="white" stroke="black" points="175,-196 175,-226 316,-226 316,-196 175,-196"/>
<text text-anchor="start" x="183" y="-214" font-family="Helvetica,sans-Serif" font-size="10.00">include/IO_Interaction</text>
<text text-anchor="middle" x="245.5" y="-203" font-family="Helvetica,sans-Serif" font-size="10.00">/onnx_importer_helpers.h</text>
</a>
</g>
</g>
<!-- Node4&#45;&gt;Node5 -->
<g id="edge4" class="edge">
<title>Node4&#45;&gt;Node5</title>
<path fill="none" stroke="midnightblue" d="M354.25,-263.97C331.25,-252.99 298.42,-237.29 274.85,-226.03"/>
<polygon fill="midnightblue" stroke="midnightblue" points="352.91,-267.21 363.44,-268.37 355.93,-260.9 352.91,-267.21"/>
</g>
<!-- Node10 -->
<g id="node10" class="node">
<title>Node10</title>
<g id="a_node10"><a xlink:href="network__butcher_8h.html" target="_top" xlink:title=" ">
<polygon fill="white" stroke="black" points="416,-56.5 416,-75.5 561,-75.5 561,-56.5 416,-56.5"/>
<text text-anchor="middle" x="488.5" y="-63.5" font-family="Helvetica,sans-Serif" font-size="10.00">include/network_butcher.h</text>
</a>
</g>
</g>
<!-- Node4&#45;&gt;Node10 -->
<g id="edge15" class="edge">
<title>Node4&#45;&gt;Node10</title>
<path fill="none" stroke="midnightblue" d="M445.17,-265.33C463.51,-258.7 481.52,-248.3 492.5,-232 526.28,-181.86 501.66,-102.28 491.96,-75.85"/>
<polygon fill="midnightblue" stroke="midnightblue" points="444,-262.03 435.58,-268.47 446.17,-268.69 444,-262.03"/>
</g>
<!-- Node13 -->
<g id="node13" class="node">
<title>Node13</title>
<g id="a_node13"><a xlink:href="onnx__model__reconstructor__helpers_8h.html" target="_top" xlink:title=" ">
<polygon fill="white" stroke="black" points="334,-190.5 334,-231.5 483,-231.5 483,-190.5 334,-190.5"/>
<text text-anchor="start" x="342" y="-219.5" font-family="Helvetica,sans-Serif" font-size="10.00">include/IO_Interaction</text>
<text text-anchor="start" x="342" y="-208.5" font-family="Helvetica,sans-Serif" font-size="10.00">/onnx_model_reconstructor</text>
<text text-anchor="middle" x="408.5" y="-197.5" font-family="Helvetica,sans-Serif" font-size="10.00">_helpers.h</text>
</a>
</g>
</g>
<!-- Node4&#45;&gt;Node13 -->
<g id="edge12" class="edge">
<title>Node4&#45;&gt;Node13</title>
<path fill="none" stroke="midnightblue" d="M389.03,-258.88C392.56,-250.38 396.78,-240.22 400.38,-231.54"/>
<polygon fill="midnightblue" stroke="midnightblue" points="385.75,-257.66 385.14,-268.23 392.21,-260.34 385.75,-257.66"/>
</g>
<!-- Node5&#45;&gt;Node6 -->
<g id="edge5" class="edge">
<title>Node5&#45;&gt;Node6</title>
<path fill="none" stroke="midnightblue" d="M248.7,-185.67C250.65,-170.9 253.01,-152.95 254.37,-142.56"/>
<polygon fill="midnightblue" stroke="midnightblue" points="245.22,-185.33 247.38,-195.7 252.16,-186.25 245.22,-185.33"/>
</g>
<!-- Node12 -->
<g id="node12" class="node">
<title>Node12</title>
<g id="a_node12"><a xlink:href="onnx__importer__helpers_8cpp.html" target="_top" xlink:title=" ">
<polygon fill="white" stroke="black" points="24.5,-118 24.5,-148 176.5,-148 176.5,-118 24.5,-118"/>
<text text-anchor="start" x="32.5" y="-136" font-family="Helvetica,sans-Serif" font-size="10.00">src/IO_Interaction</text>
<text text-anchor="middle" x="100.5" y="-125" font-family="Helvetica,sans-Serif" font-size="10.00">/onnx_importer_helpers.cpp</text>
</a>
</g>
</g>
<!-- Node5&#45;&gt;Node12 -->
<g id="edge11" class="edge">
<title>Node5&#45;&gt;Node12</title>
<path fill="none" stroke="midnightblue" d="M209.58,-191.17C184.1,-177.82 150.44,-160.18 127.29,-148.04"/>
<polygon fill="midnightblue" stroke="midnightblue" points="208.08,-194.34 218.57,-195.88 211.33,-188.14 208.08,-194.34"/>
</g>
<!-- Node7 -->
<g id="node7" class="node">
<title>Node7</title>
<g id="a_node7"><a xlink:href="general__manager_8h.html" target="_top" xlink:title=" ">
<polygon fill="white" stroke="black" points="204,-56.5 204,-75.5 353,-75.5 353,-56.5 204,-56.5"/>
<text text-anchor="middle" x="278.5" y="-63.5" font-family="Helvetica,sans-Serif" font-size="10.00">include/general_manager.h</text>
</a>
</g>
</g>
<!-- Node6&#45;&gt;Node7 -->
<g id="edge6" class="edge">
<title>Node6&#45;&gt;Node7</title>
<path fill="none" stroke="midnightblue" d="M261.94,-113.79C266.36,-101.31 272.02,-85.31 275.45,-75.63"/>
<polygon fill="midnightblue" stroke="midnightblue" points="258.64,-112.64 258.6,-123.23 265.24,-114.97 258.64,-112.64"/>
</g>
<!-- Node6&#45;&gt;Node10 -->
<g id="edge9" class="edge">
<title>Node6&#45;&gt;Node10</title>
<path fill="none" stroke="midnightblue" d="M294.82,-120.7C304.82,-117.84 315.55,-114.79 325.5,-112 371.29,-99.14 424.4,-84.53 457.23,-75.54"/>
<polygon fill="midnightblue" stroke="midnightblue" points="293.77,-117.36 285.12,-123.47 295.69,-124.09 293.77,-117.36"/>
</g>
<!-- Node11 -->
<g id="node11" class="node">
<title>Node11</title>
<g id="a_node11"><a xlink:href="io__manager_8cpp.html" target="_top" xlink:title=" ">
<polygon fill="white" stroke="black" points="75,-56.5 75,-75.5 186,-75.5 186,-56.5 75,-56.5"/>
<text text-anchor="middle" x="130.5" y="-63.5" font-family="Helvetica,sans-Serif" font-size="10.00">src/io_manager.cpp</text>
</a>
</g>
</g>
<!-- Node6&#45;&gt;Node11 -->
<g id="edge10" class="edge">
<title>Node6&#45;&gt;Node11</title>
<path fill="none" stroke="midnightblue" d="M229.74,-118.6C204.98,-105.73 168.31,-86.66 147.17,-75.67"/>
<polygon fill="midnightblue" stroke="midnightblue" points="228.41,-121.86 238.9,-123.37 231.64,-115.65 228.41,-121.86"/>
</g>
<!-- Node8 -->
<g id="node8" class="node">
<title>Node8</title>
<g id="a_node8"><a xlink:href="general__manager_8cpp.html" target="_top" xlink:title=" ">
<polygon fill="white" stroke="black" points="145,-0.5 145,-19.5 284,-19.5 284,-0.5 145,-0.5"/>
<text text-anchor="middle" x="214.5" y="-7.5" font-family="Helvetica,sans-Serif" font-size="10.00">src/general_manager.cpp</text>
</a>
</g>
</g>
<!-- Node7&#45;&gt;Node8 -->
<g id="edge7" class="edge">
<title>Node7&#45;&gt;Node8</title>
<path fill="none" stroke="midnightblue" d="M260.51,-49.82C249.04,-40.15 234.59,-27.95 224.97,-19.83"/>
<polygon fill="midnightblue" stroke="midnightblue" points="258.32,-52.55 268.22,-56.32 262.83,-47.2 258.32,-52.55"/>
</g>
<!-- Node9 -->
<g id="node9" class="node">
<title>Node9</title>
<g id="a_node9"><a xlink:href="main_8cpp.html" target="_top" xlink:title=" ">
<polygon fill="white" stroke="black" points="302,-0.5 302,-19.5 381,-19.5 381,-0.5 302,-0.5"/>
<text text-anchor="middle" x="341.5" y="-7.5" font-family="Helvetica,sans-Serif" font-size="10.00">src/main.cpp</text>
</a>
</g>
</g>
<!-- Node7&#45;&gt;Node9 -->
<g id="edge8" class="edge">
<title>Node7&#45;&gt;Node9</title>
<path fill="none" stroke="midnightblue" d="M296.54,-49.54C307.77,-39.91 321.82,-27.87 331.19,-19.83"/>
<polygon fill="midnightblue" stroke="midnightblue" points="293.94,-47.16 288.62,-56.32 298.49,-52.47 293.94,-47.16"/>
</g>
<!-- Node13&#45;&gt;Node6 -->
<g id="edge13" class="edge">
<title>Node13&#45;&gt;Node6</title>
<path fill="none" stroke="midnightblue" d="M360.07,-185.94C330.22,-171.12 293.75,-153 272.72,-142.55"/>
<polygon fill="midnightblue" stroke="midnightblue" points="358.59,-189.11 369.1,-190.43 361.7,-182.84 358.59,-189.11"/>
</g>
<!-- Node14 -->
<g id="node14" class="node">
<title>Node14</title>
<g id="a_node14"><a xlink:href="onnx__model__reconstructor__helpers_8cpp.html" target="_top" xlink:title=" ">
<polygon fill="white" stroke="black" points="334,-112.5 334,-153.5 483,-153.5 483,-112.5 334,-112.5"/>
<text text-anchor="start" x="342" y="-141.5" font-family="Helvetica,sans-Serif" font-size="10.00">src/IO_Interaction</text>
<text text-anchor="start" x="342" y="-130.5" font-family="Helvetica,sans-Serif" font-size="10.00">/onnx_model_reconstructor</text>
<text text-anchor="middle" x="408.5" y="-119.5" font-family="Helvetica,sans-Serif" font-size="10.00">_helpers.cpp</text>
</a>
</g>
</g>
<!-- Node13&#45;&gt;Node14 -->
<g id="edge14" class="edge">
<title>Node13&#45;&gt;Node14</title>
<path fill="none" stroke="midnightblue" d="M408.5,-180.3C408.5,-171.3 408.5,-161.65 408.5,-153.51"/>
<polygon fill="midnightblue" stroke="midnightblue" points="405,-180.43 408.5,-190.43 412,-180.43 405,-180.43"/>
</g>
<!-- Node15&#45;&gt;Node4 -->
<g id="edge17" class="edge">
<title>Node15&#45;&gt;Node4</title>
<path fill="none" stroke="midnightblue" d="M310.95,-319.36C329.6,-308.69 351.9,-295.93 366.37,-287.66"/>
<polygon fill="midnightblue" stroke="midnightblue" points="309.09,-316.4 302.15,-324.4 312.56,-322.47 309.09,-316.4"/>
</g>
<!-- Node17&#45;&gt;Node2 -->
<g id="edge21" class="edge">
<title>Node17&#45;&gt;Node2</title>
<path fill="none" stroke="midnightblue" d="M172.69,-564.38C154.79,-554.31 134.1,-542.69 116.11,-532.58"/>
<polygon fill="midnightblue" stroke="midnightblue" points="171.34,-567.63 181.77,-569.48 174.77,-561.53 171.34,-567.63"/>
</g>
<!-- Node17&#45;&gt;Node3 -->
<g id="edge22" class="edge">
<title>Node17&#45;&gt;Node3</title>
<path fill="none" stroke="midnightblue" d="M281.38,-564.23C294.2,-556.25 306,-546 313.5,-533 332.67,-499.8 305.69,-455.17 288.99,-432.7"/>
<polygon fill="midnightblue" stroke="midnightblue" points="279.31,-561.38 272.38,-569.39 282.8,-567.45 279.31,-561.38"/>
</g>
<!-- Node18 -->
<g id="node18" class="node">
<title>Node18</title>
<g id="a_node18"><a xlink:href="csv__weight__importer_8cpp.html" target="_top" xlink:title=" ">
<polygon fill="white" stroke="black" points="161,-486 161,-527 304,-527 304,-486 161,-486"/>
<text text-anchor="start" x="169" y="-515" font-family="Helvetica,sans-Serif" font-size="10.00">src/IO_Interaction</text>
<text text-anchor="start" x="169" y="-504" font-family="Helvetica,sans-Serif" font-size="10.00">/Weight_Importer_Helpers</text>
<text text-anchor="middle" x="232.5" y="-493" font-family="Helvetica,sans-Serif" font-size="10.00">/csv_weight_importer.cpp</text>
</a>
</g>
</g>
<!-- Node17&#45;&gt;Node18 -->
<g id="edge23" class="edge">
<title>Node17&#45;&gt;Node18</title>
<path fill="none" stroke="midnightblue" d="M222.31,-559.4C224.43,-548.63 226.76,-536.73 228.66,-527.05"/>
<polygon fill="midnightblue" stroke="midnightblue" points="218.87,-558.78 220.37,-569.27 225.73,-560.13 218.87,-558.78"/>
</g>
</g>
</svg>
