<?xml version="1.0" encoding="UTF-8" standalone="no"?>
<!DOCTYPE svg PUBLIC "-//W3C//DTD SVG 1.1//EN"
 "http://www.w3.org/Graphics/SVG/1.1/DTD/svg11.dtd">
<!-- Generated by graphviz version 2.43.0 (0)
 -->
<!-- Title: include/network_butcher/K&#45;shortest_path/weighted_graph.h Pages: 1 -->
<svg width="1388pt" height="1075pt"
 viewBox="0.00 0.00 1387.63 1075.00" xmlns="http://www.w3.org/2000/svg" xmlns:xlink="http://www.w3.org/1999/xlink">
<g id="graph0" class="graph" transform="scale(1 1) rotate(0) translate(4 1071)">
<title>include/network_butcher/K&#45;shortest_path/weighted_graph.h</title>
<polygon fill="white" stroke="transparent" points="-4,4 -4,-1071 1383.63,-1071 1383.63,4 -4,4"/>
<!-- Node1 -->
<g id="node1" class="node">
<title>Node1</title>
<g id="a_node1"><a xlink:title=" ">
<polygon fill="#bfbfbf" stroke="black" points="1109.5,-1025.5 1109.5,-1066.5 1252.5,-1066.5 1252.5,-1025.5 1109.5,-1025.5"/>
<text text-anchor="start" x="1117.5" y="-1054.5" font-family="Helvetica,sans-Serif" font-size="10.00">include/network_butcher</text>
<text text-anchor="start" x="1117.5" y="-1043.5" font-family="Helvetica,sans-Serif" font-size="10.00">/K&#45;shortest_path/weighted</text>
<text text-anchor="middle" x="1181" y="-1032.5" font-family="Helvetica,sans-Serif" font-size="10.00">_graph.h</text>
</a>
</g>
</g>
<!-- Node2 -->
<g id="node2" class="node">
<title>Node2</title>
<g id="a_node2"><a xlink:href="heap__traits_8h.html" target="_top" xlink:title=" ">
<polygon fill="white" stroke="black" points="1112.5,-947.5 1112.5,-988.5 1249.5,-988.5 1249.5,-947.5 1112.5,-947.5"/>
<text text-anchor="start" x="1120.5" y="-976.5" font-family="Helvetica,sans-Serif" font-size="10.00">include/network_butcher</text>
<text text-anchor="start" x="1120.5" y="-965.5" font-family="Helvetica,sans-Serif" font-size="10.00">/K&#45;shortest_path/heap</text>
<text text-anchor="middle" x="1181" y="-954.5" font-family="Helvetica,sans-Serif" font-size="10.00">_traits.h</text>
</a>
</g>
</g>
<!-- Node1&#45;&gt;Node2 -->
<g id="edge1" class="edge">
<title>Node1&#45;&gt;Node2</title>
<path fill="none" stroke="midnightblue" d="M1181,-1015.3C1181,-1006.3 1181,-996.65 1181,-988.51"/>
<polygon fill="midnightblue" stroke="midnightblue" points="1177.5,-1015.43 1181,-1025.43 1184.5,-1015.43 1177.5,-1015.43"/>
</g>
<!-- Node4 -->
<g id="node4" class="node">
<title>Node4</title>
<g id="a_node4"><a xlink:href="keppstein_8h.html" target="_top" xlink:title=" ">
<polygon fill="white" stroke="black" points="1141.5,-713.5 1141.5,-743.5 1296.5,-743.5 1296.5,-713.5 1141.5,-713.5"/>
<text text-anchor="start" x="1149.5" y="-731.5" font-family="Helvetica,sans-Serif" font-size="10.00">include/network_butcher</text>
<text text-anchor="middle" x="1219" y="-720.5" font-family="Helvetica,sans-Serif" font-size="10.00">/K&#45;shortest_path/keppstein.h</text>
</a>
</g>
</g>
<!-- Node1&#45;&gt;Node4 -->
<g id="edge24" class="edge">
<title>Node1&#45;&gt;Node4</title>
<path fill="none" stroke="midnightblue" d="M1238.79,-1020.95C1281.72,-999.39 1336.43,-963.08 1358,-911 1387.54,-839.68 1291.96,-771.96 1244.33,-743.54"/>
<polygon fill="midnightblue" stroke="midnightblue" points="1237,-1017.93 1229.55,-1025.46 1240.07,-1024.22 1237,-1017.93"/>
</g>
<!-- Node16 -->
<g id="node16" class="node">
<title>Node16</title>
<g id="a_node16"><a xlink:href="keppstein__lazy_8h.html" target="_top" xlink:title=" ">
<polygon fill="white" stroke="black" points="977,-708 977,-749 1123,-749 1123,-708 977,-708"/>
<text text-anchor="start" x="985" y="-737" font-family="Helvetica,sans-Serif" font-size="10.00">include/network_butcher</text>
<text text-anchor="start" x="985" y="-726" font-family="Helvetica,sans-Serif" font-size="10.00">/K&#45;shortest_path/keppstein</text>
<text text-anchor="middle" x="1050" y="-715" font-family="Helvetica,sans-Serif" font-size="10.00">_lazy.h</text>
</a>
</g>
</g>
<!-- Node1&#45;&gt;Node16 -->
<g id="edge25" class="edge">
<title>Node1&#45;&gt;Node16</title>
<path fill="none" stroke="midnightblue" d="M1127.02,-1020.9C1085.23,-998.95 1030.49,-962.12 1006,-911 979.59,-855.88 1015.93,-783.53 1036.93,-749.2"/>
<polygon fill="midnightblue" stroke="midnightblue" points="1125.49,-1024.06 1135.99,-1025.5 1128.68,-1017.82 1125.49,-1024.06"/>
</g>
<!-- Node18 -->
<g id="node18" class="node">
<title>Node18</title>
<g id="a_node18"><a xlink:href="kfinder_8h.html" target="_top" xlink:title=" ">
<polygon fill="white" stroke="black" points="1209,-875 1209,-905 1349,-905 1349,-875 1209,-875"/>
<text text-anchor="start" x="1217" y="-893" font-family="Helvetica,sans-Serif" font-size="10.00">include/network_butcher</text>
<text text-anchor="middle" x="1279" y="-882" font-family="Helvetica,sans-Serif" font-size="10.00">/K&#45;shortest_path/kfinder.h</text>
</a>
</g>
</g>
<!-- Node1&#45;&gt;Node18 -->
<g id="edge26" class="edge">
<title>Node1&#45;&gt;Node18</title>
<path fill="none" stroke="midnightblue" d="M1227.15,-1019.74C1238.78,-1011.36 1250.17,-1001.04 1258,-989 1274.98,-962.89 1278.48,-925.38 1279.05,-905.18"/>
<polygon fill="midnightblue" stroke="midnightblue" points="1224.99,-1016.98 1218.69,-1025.5 1228.93,-1022.77 1224.99,-1016.98"/>
</g>
<!-- Node19 -->
<g id="node19" class="node">
<title>Node19</title>
<g id="a_node19"><a xlink:href="wgraph_8h.html" target="_top" xlink:title=" ">
<polygon fill="white" stroke="black" points="821.5,-953 821.5,-983 958.5,-983 958.5,-953 821.5,-953"/>
<text text-anchor="start" x="829.5" y="-971" font-family="Helvetica,sans-Serif" font-size="10.00">include/network_butcher</text>
<text text-anchor="middle" x="890" y="-960" font-family="Helvetica,sans-Serif" font-size="10.00">/Network/wgraph.h</text>
</a>
</g>
</g>
<!-- Node1&#45;&gt;Node19 -->
<g id="edge28" class="edge">
<title>Node1&#45;&gt;Node19</title>
<path fill="none" stroke="midnightblue" d="M1099.66,-1023.76C1049.89,-1010.76 987.6,-994.49 943.89,-983.08"/>
<polygon fill="midnightblue" stroke="midnightblue" points="1098.88,-1027.17 1109.44,-1026.31 1100.65,-1020.4 1098.88,-1027.17"/>
</g>
<!-- Node3 -->
<g id="node3" class="node">
<title>Node3</title>
<g id="a_node3"><a xlink:href="basic__keppstein_8h.html" target="_top" xlink:title=" ">
<polygon fill="white" stroke="black" points="1112.5,-791.5 1112.5,-832.5 1249.5,-832.5 1249.5,-791.5 1112.5,-791.5"/>
<text text-anchor="start" x="1120.5" y="-820.5" font-family="Helvetica,sans-Serif" font-size="10.00">include/network_butcher</text>
<text text-anchor="start" x="1120.5" y="-809.5" font-family="Helvetica,sans-Serif" font-size="10.00">/K&#45;shortest_path/basic</text>
<text text-anchor="middle" x="1181" y="-798.5" font-family="Helvetica,sans-Serif" font-size="10.00">_keppstein.h</text>
</a>
</g>
</g>
<!-- Node2&#45;&gt;Node3 -->
<g id="edge2" class="edge">
<title>Node2&#45;&gt;Node3</title>
<path fill="none" stroke="midnightblue" d="M1181,-937.36C1181,-906.61 1181,-859.36 1181,-832.83"/>
<polygon fill="midnightblue" stroke="midnightblue" points="1177.5,-937.5 1181,-947.5 1184.5,-937.5 1177.5,-937.5"/>
</g>
<!-- Node10 -->
<g id="node10" class="node">
<title>Node10</title>
<g id="a_node10"><a xlink:href="network__butcher_8h.html" target="_top" xlink:title=" ">
<polygon fill="white" stroke="black" points="804.5,-0.5 804.5,-30.5 941.5,-30.5 941.5,-0.5 804.5,-0.5"/>
<text text-anchor="start" x="812.5" y="-18.5" font-family="Helvetica,sans-Serif" font-size="10.00">include/network_butcher</text>
<text text-anchor="middle" x="873" y="-7.5" font-family="Helvetica,sans-Serif" font-size="10.00">/network_butcher.h</text>
</a>
</g>
</g>
<!-- Node2&#45;&gt;Node10 -->
<g id="edge23" class="edge">
<title>Node2&#45;&gt;Node10</title>
<path fill="none" stroke="midnightblue" d="M1259.44,-950.49C1300.19,-940.35 1344.3,-926.37 1358,-911 1387.52,-877.88 1377,-857.37 1377,-813 1377,-813 1377,-813 1377,-154 1377,-64.83 1079.68,-31.52 941.76,-20.87"/>
<polygon fill="midnightblue" stroke="midnightblue" points="1258.61,-947.09 1249.72,-952.86 1260.26,-953.89 1258.61,-947.09"/>
</g>
<!-- Node17 -->
<g id="node17" class="node">
<title>Node17</title>
<g id="a_node17"><a xlink:href="shortest__path__finder_8h.html" target="_top" xlink:title=" ">
<polygon fill="white" stroke="black" points="1015,-869.5 1015,-910.5 1153,-910.5 1153,-869.5 1015,-869.5"/>
<text text-anchor="start" x="1023" y="-898.5" font-family="Helvetica,sans-Serif" font-size="10.00">include/network_butcher</text>
<text text-anchor="start" x="1023" y="-887.5" font-family="Helvetica,sans-Serif" font-size="10.00">/K&#45;shortest_path/shortest</text>
<text text-anchor="middle" x="1084" y="-876.5" font-family="Helvetica,sans-Serif" font-size="10.00">_path_finder.h</text>
</a>
</g>
</g>
<!-- Node2&#45;&gt;Node17 -->
<g id="edge21" class="edge">
<title>Node2&#45;&gt;Node17</title>
<path fill="none" stroke="midnightblue" d="M1147.9,-941.06C1135.13,-931.06 1120.76,-919.8 1108.9,-910.51"/>
<polygon fill="midnightblue" stroke="midnightblue" points="1145.99,-944.02 1156.02,-947.43 1150.31,-938.51 1145.99,-944.02"/>
</g>
<!-- Node3&#45;&gt;Node4 -->
<g id="edge3" class="edge">
<title>Node3&#45;&gt;Node4</title>
<path fill="none" stroke="midnightblue" d="M1194.44,-782.17C1200.53,-769.12 1207.45,-754.28 1212.39,-743.68"/>
<polygon fill="midnightblue" stroke="midnightblue" points="1191.25,-780.73 1190.2,-791.27 1197.6,-783.69 1191.25,-780.73"/>
</g>
<!-- Node3&#45;&gt;Node16 -->
<g id="edge19" class="edge">
<title>Node3&#45;&gt;Node16</title>
<path fill="none" stroke="midnightblue" d="M1141.12,-786.19C1122.02,-774.3 1099.46,-760.27 1081.58,-749.14"/>
<polygon fill="midnightblue" stroke="midnightblue" points="1139.28,-789.17 1149.62,-791.48 1142.98,-783.22 1139.28,-789.17"/>
</g>
<!-- Node5 -->
<g id="node5" class="node">
<title>Node5</title>
<g id="a_node5"><a xlink:href="kfinder__factory_8h.html" target="_top" xlink:title=" ">
<polygon fill="white" stroke="black" points="969.5,-441 969.5,-482 1106.5,-482 1106.5,-441 969.5,-441"/>
<text text-anchor="start" x="977.5" y="-470" font-family="Helvetica,sans-Serif" font-size="10.00">include/network_butcher</text>
<text text-anchor="start" x="977.5" y="-459" font-family="Helvetica,sans-Serif" font-size="10.00">/K&#45;shortest_path/kfinder</text>
<text text-anchor="middle" x="1038" y="-448" font-family="Helvetica,sans-Serif" font-size="10.00">_factory.h</text>
</a>
</g>
</g>
<!-- Node4&#45;&gt;Node5 -->
<g id="edge4" class="edge">
<title>Node4&#45;&gt;Node5</title>
<path fill="none" stroke="midnightblue" d="M1203.54,-704.86C1168.61,-653.73 1084.13,-530.04 1051.33,-482.02"/>
<polygon fill="midnightblue" stroke="midnightblue" points="1200.74,-706.97 1209.27,-713.25 1206.52,-703.02 1200.74,-706.97"/>
</g>
<!-- Node6 -->
<g id="node6" class="node">
<title>Node6</title>
<g id="a_node6"><a xlink:href="butcher_8h.html" target="_top" xlink:title=" ">
<polygon fill="white" stroke="black" points="359.5,-290.5 359.5,-320.5 496.5,-320.5 496.5,-290.5 359.5,-290.5"/>
<text text-anchor="start" x="367.5" y="-308.5" font-family="Helvetica,sans-Serif" font-size="10.00">include/network_butcher</text>
<text text-anchor="middle" x="428" y="-297.5" font-family="Helvetica,sans-Serif" font-size="10.00">/Butcher/butcher.h</text>
</a>
</g>
</g>
<!-- Node5&#45;&gt;Node6 -->
<g id="edge5" class="edge">
<title>Node5&#45;&gt;Node6</title>
<path fill="none" stroke="midnightblue" d="M987.34,-436.72C934.85,-413.03 849.86,-377.35 773,-357 678.93,-332.09 566.97,-318.55 496.67,-311.93"/>
<polygon fill="midnightblue" stroke="midnightblue" points="986.21,-440.05 996.76,-441 989.1,-433.67 986.21,-440.05"/>
</g>
<!-- Node5&#45;&gt;Node10 -->
<g id="edge18" class="edge">
<title>Node5&#45;&gt;Node10</title>
<path fill="none" stroke="midnightblue" d="M1028.48,-431.17C1019.37,-400.44 1007,-350.6 1007,-306.5 1007,-306.5 1007,-306.5 1007,-154 1007,-94.83 942.58,-51.61 903.07,-30.67"/>
<polygon fill="midnightblue" stroke="midnightblue" points="1025.16,-432.28 1031.43,-440.82 1031.86,-430.23 1025.16,-432.28"/>
</g>
<!-- Node7 -->
<g id="node7" class="node">
<title>Node7</title>
<g id="a_node7"><a xlink:href="onnx__model__reconstructor__helpers_8h.html" target="_top" xlink:title=" ">
<polygon fill="white" stroke="black" points="329.5,-212.5 329.5,-253.5 480.5,-253.5 480.5,-212.5 329.5,-212.5"/>
<text text-anchor="start" x="337.5" y="-241.5" font-family="Helvetica,sans-Serif" font-size="10.00">include/network_butcher</text>
<text text-anchor="start" x="337.5" y="-230.5" font-family="Helvetica,sans-Serif" font-size="10.00">/IO_Interaction/onnx_model</text>
<text text-anchor="middle" x="405" y="-219.5" font-family="Helvetica,sans-Serif" font-size="10.00">_reconstructor_helpers.h</text>
</a>
</g>
</g>
<!-- Node6&#45;&gt;Node7 -->
<g id="edge6" class="edge">
<title>Node6&#45;&gt;Node7</title>
<path fill="none" stroke="midnightblue" d="M420.19,-280.56C417.32,-271.77 414.12,-261.94 411.39,-253.59"/>
<polygon fill="midnightblue" stroke="midnightblue" points="416.92,-281.81 423.35,-290.23 423.57,-279.64 416.92,-281.81"/>
</g>
<!-- Node6&#45;&gt;Node10 -->
<g id="edge17" class="edge">
<title>Node6&#45;&gt;Node10</title>
<path fill="none" stroke="midnightblue" d="M458.86,-284.45C469.66,-276.13 481.06,-265.69 489,-254 520.51,-207.61 496.91,-180.67 528,-134 553.34,-95.97 564.82,-86.81 606,-67 669.03,-36.69 748.6,-24.55 804.41,-19.7"/>
<polygon fill="midnightblue" stroke="midnightblue" points="456.77,-281.64 450.78,-290.38 460.92,-287.28 456.77,-281.64"/>
</g>
<!-- Node14 -->
<g id="node14" class="node">
<title>Node14</title>
<g id="a_node14"><a xlink:href="onnx__importer__helpers_8h.html" target="_top" xlink:title=" ">
<polygon fill="white" stroke="black" points="683,-212.5 683,-253.5 845,-253.5 845,-212.5 683,-212.5"/>
<text text-anchor="start" x="691" y="-241.5" font-family="Helvetica,sans-Serif" font-size="10.00">include/network_butcher</text>
<text text-anchor="start" x="691" y="-230.5" font-family="Helvetica,sans-Serif" font-size="10.00">/IO_Interaction/onnx_importer</text>
<text text-anchor="middle" x="764" y="-219.5" font-family="Helvetica,sans-Serif" font-size="10.00">_helpers.h</text>
</a>
</g>
</g>
<!-- Node6&#45;&gt;Node14 -->
<g id="edge14" class="edge">
<title>Node6&#45;&gt;Node14</title>
<path fill="none" stroke="midnightblue" d="M504.84,-288.38C558.03,-277.22 628.7,-262.39 682.81,-251.04"/>
<polygon fill="midnightblue" stroke="midnightblue" points="503.85,-285.01 494.78,-290.49 505.29,-291.86 503.85,-285.01"/>
</g>
<!-- Node8 -->
<g id="node8" class="node">
<title>Node8</title>
<g id="a_node8"><a xlink:href="io__manager_8h.html" target="_top" xlink:title=" ">
<polygon fill="white" stroke="black" points="537.5,-140 537.5,-170 674.5,-170 674.5,-140 537.5,-140"/>
<text text-anchor="start" x="545.5" y="-158" font-family="Helvetica,sans-Serif" font-size="10.00">include/network_butcher</text>
<text text-anchor="middle" x="606" y="-147" font-family="Helvetica,sans-Serif" font-size="10.00">/io_manager.h</text>
</a>
</g>
</g>
<!-- Node7&#45;&gt;Node8 -->
<g id="edge7" class="edge">
<title>Node7&#45;&gt;Node8</title>
<path fill="none" stroke="midnightblue" d="M466.43,-208.77C499.82,-196.15 540.03,-180.94 568.69,-170.11"/>
<polygon fill="midnightblue" stroke="midnightblue" points="464.88,-205.62 456.76,-212.43 467.35,-212.17 464.88,-205.62"/>
</g>
<!-- Node13 -->
<g id="node13" class="node">
<title>Node13</title>
<g id="a_node13"><a xlink:href="onnx__model__reconstructor__helpers_8cpp.html" target="_top" xlink:title=" ">
<polygon fill="white" stroke="black" points="330.5,-134.5 330.5,-175.5 479.5,-175.5 479.5,-134.5 330.5,-134.5"/>
<text text-anchor="start" x="338.5" y="-163.5" font-family="Helvetica,sans-Serif" font-size="10.00">src/IO_Interaction</text>
<text text-anchor="start" x="338.5" y="-152.5" font-family="Helvetica,sans-Serif" font-size="10.00">/onnx_model_reconstructor</text>
<text text-anchor="middle" x="405" y="-141.5" font-family="Helvetica,sans-Serif" font-size="10.00">_helpers.cpp</text>
</a>
</g>
</g>
<!-- Node7&#45;&gt;Node13 -->
<g id="edge13" class="edge">
<title>Node7&#45;&gt;Node13</title>
<path fill="none" stroke="midnightblue" d="M405,-202.3C405,-193.3 405,-183.65 405,-175.51"/>
<polygon fill="midnightblue" stroke="midnightblue" points="401.5,-202.43 405,-212.43 408.5,-202.43 401.5,-202.43"/>
</g>
<!-- Node9 -->
<g id="node9" class="node">
<title>Node9</title>
<g id="a_node9"><a xlink:href="general__manager_8h.html" target="_top" xlink:title=" ">
<polygon fill="white" stroke="black" points="343.5,-67.5 343.5,-97.5 480.5,-97.5 480.5,-67.5 343.5,-67.5"/>
<text text-anchor="start" x="351.5" y="-85.5" font-family="Helvetica,sans-Serif" font-size="10.00">include/network_butcher</text>
<text text-anchor="middle" x="412" y="-74.5" font-family="Helvetica,sans-Serif" font-size="10.00">/general_manager.h</text>
</a>
</g>
</g>
<!-- Node8&#45;&gt;Node9 -->
<g id="edge8" class="edge">
<title>Node8&#45;&gt;Node9</title>
<path fill="none" stroke="midnightblue" d="M557.75,-136.46C524.72,-124.46 481.5,-108.76 450.73,-97.57"/>
<polygon fill="midnightblue" stroke="midnightblue" points="556.61,-139.78 567.21,-139.9 559,-133.2 556.61,-139.78"/>
</g>
<!-- Node8&#45;&gt;Node10 -->
<g id="edge11" class="edge">
<title>Node8&#45;&gt;Node10</title>
<path fill="none" stroke="midnightblue" d="M604.58,-129.72C604.83,-110.12 608.56,-83.21 625,-67 649.95,-42.4 740.08,-28.85 804.49,-22.13"/>
<polygon fill="midnightblue" stroke="midnightblue" points="601.09,-129.8 604.74,-139.75 608.08,-129.69 601.09,-129.8"/>
</g>
<!-- Node12 -->
<g id="node12" class="node">
<title>Node12</title>
<g id="a_node12"><a xlink:href="io__manager_8cpp.html" target="_top" xlink:title=" ">
<polygon fill="white" stroke="black" points="634.5,-73 634.5,-92 745.5,-92 745.5,-73 634.5,-73"/>
<text text-anchor="middle" x="690" y="-80" font-family="Helvetica,sans-Serif" font-size="10.00">src/io_manager.cpp</text>
</a>
</g>
</g>
<!-- Node8&#45;&gt;Node12 -->
<g id="edge12" class="edge">
<title>Node8&#45;&gt;Node12</title>
<path fill="none" stroke="midnightblue" d="M631.01,-133.01C647.15,-119.46 667.32,-102.53 679.4,-92.39"/>
<polygon fill="midnightblue" stroke="midnightblue" points="628.41,-130.62 623,-139.73 632.91,-135.99 628.41,-130.62"/>
</g>
<!-- Node9&#45;&gt;Node10 -->
<g id="edge9" class="edge">
<title>Node9&#45;&gt;Node10</title>
<path fill="none" stroke="midnightblue" d="M491.07,-67.61C492.39,-67.4 493.7,-67.2 495,-67 602.81,-50.39 728.41,-34.24 804.25,-24.84"/>
<polygon fill="midnightblue" stroke="midnightblue" points="490.13,-64.22 480.81,-69.26 491.24,-71.13 490.13,-64.22"/>
</g>
<!-- Node11 -->
<g id="node11" class="node">
<title>Node11</title>
<g id="a_node11"><a xlink:href="general__manager_8cpp.html" target="_top" xlink:title=" ">
<polygon fill="white" stroke="black" points="342.5,-6 342.5,-25 481.5,-25 481.5,-6 342.5,-6"/>
<text text-anchor="middle" x="412" y="-13" font-family="Helvetica,sans-Serif" font-size="10.00">src/general_manager.cpp</text>
</a>
</g>
</g>
<!-- Node9&#45;&gt;Node11 -->
<g id="edge10" class="edge">
<title>Node9&#45;&gt;Node11</title>
<path fill="none" stroke="midnightblue" d="M412,-57.25C412,-46.02 412,-33.38 412,-25.19"/>
<polygon fill="midnightblue" stroke="midnightblue" points="408.5,-57.4 412,-67.4 415.5,-57.4 408.5,-57.4"/>
</g>
<!-- Node14&#45;&gt;Node8 -->
<g id="edge15" class="edge">
<title>Node14&#45;&gt;Node8</title>
<path fill="none" stroke="midnightblue" d="M714.04,-207.97C688.23,-195.55 657.61,-180.83 635.57,-170.23"/>
<polygon fill="midnightblue" stroke="midnightblue" points="712.78,-211.25 723.31,-212.43 715.82,-204.94 712.78,-211.25"/>
</g>
<!-- Node15 -->
<g id="node15" class="node">
<title>Node15</title>
<g id="a_node15"><a xlink:href="onnx__importer__helpers_8cpp.html" target="_top" xlink:title=" ">
<polygon fill="white" stroke="black" points="693,-140 693,-170 845,-170 845,-140 693,-140"/>
<text text-anchor="start" x="701" y="-158" font-family="Helvetica,sans-Serif" font-size="10.00">src/IO_Interaction</text>
<text text-anchor="middle" x="769" y="-147" font-family="Helvetica,sans-Serif" font-size="10.00">/onnx_importer_helpers.cpp</text>
</a>
</g>
</g>
<!-- Node14&#45;&gt;Node15 -->
<g id="edge16" class="edge">
<title>Node14&#45;&gt;Node15</title>
<path fill="none" stroke="midnightblue" d="M765.96,-202.28C766.68,-191.25 767.47,-179.25 768.06,-170.23"/>
<polygon fill="midnightblue" stroke="midnightblue" points="762.45,-202.22 765.29,-212.43 769.44,-202.68 762.45,-202.22"/>
</g>
<!-- Node16&#45;&gt;Node5 -->
<g id="edge20" class="edge">
<title>Node16&#45;&gt;Node5</title>
<path fill="none" stroke="midnightblue" d="M1048.64,-697.48C1046.16,-642.78 1040.98,-528.31 1038.9,-482.29"/>
<polygon fill="midnightblue" stroke="midnightblue" points="1045.15,-697.75 1049.1,-707.58 1052.14,-697.43 1045.15,-697.75"/>
</g>
<!-- Node17&#45;&gt;Node3 -->
<g id="edge22" class="edge">
<title>Node17&#45;&gt;Node3</title>
<path fill="none" stroke="midnightblue" d="M1117.1,-863.06C1129.87,-853.06 1144.24,-841.8 1156.1,-832.51"/>
<polygon fill="midnightblue" stroke="midnightblue" points="1114.69,-860.51 1108.98,-869.43 1119.01,-866.02 1114.69,-860.51"/>
</g>
<!-- Node18&#45;&gt;Node3 -->
<g id="edge27" class="edge">
<title>Node18&#45;&gt;Node3</title>
<path fill="none" stroke="midnightblue" d="M1252.55,-868.49C1238.2,-857.36 1220.56,-843.68 1206.38,-832.68"/>
<polygon fill="midnightblue" stroke="midnightblue" points="1250.52,-871.34 1260.57,-874.7 1254.81,-865.81 1250.52,-871.34"/>
</g>
<!-- Node20 -->
<g id="node20" class="node">
<title>Node20</title>
<g id="a_node20"><a xlink:href="computer__memory_8h.html" target="_top" xlink:title=" ">
<polygon fill="white" stroke="black" points="597.5,-624.5 597.5,-654.5 768.5,-654.5 768.5,-624.5 597.5,-624.5"/>
<text text-anchor="start" x="605.5" y="-642.5" font-family="Helvetica,sans-Serif" font-size="10.00">include/network_butcher</text>
<text text-anchor="middle" x="683" y="-631.5" font-family="Helvetica,sans-Serif" font-size="10.00">/Computer/computer_memory.h</text>
</a>
</g>
</g>
<!-- Node19&#45;&gt;Node20 -->
<g id="edge29" class="edge">
<title>Node19&#45;&gt;Node20</title>
<path fill="none" stroke="midnightblue" d="M875.54,-944.19C835.61,-881.21 724.66,-706.21 692.09,-654.84"/>
<polygon fill="midnightblue" stroke="midnightblue" points="872.79,-946.4 881.11,-952.97 878.71,-942.65 872.79,-946.4"/>
</g>
<!-- Node26 -->
<g id="node26" class="node">
<title>Node26</title>
<g id="a_node26"><a xlink:href="graph__traits_8h.html" target="_top" xlink:title=" ">
<polygon fill="white" stroke="black" points="181.5,-875 181.5,-905 318.5,-905 318.5,-875 181.5,-875"/>
<text text-anchor="start" x="189.5" y="-893" font-family="Helvetica,sans-Serif" font-size="10.00">include/network_butcher</text>
<text text-anchor="middle" x="250" y="-882" font-family="Helvetica,sans-Serif" font-size="10.00">/Network/graph_traits.h</text>
</a>
</g>
</g>
<!-- Node19&#45;&gt;Node26 -->
<g id="edge41" class="edge">
<title>Node19&#45;&gt;Node26</title>
<path fill="none" stroke="midnightblue" d="M811.2,-957.64C684.78,-942.63 438.71,-913.41 318.89,-899.18"/>
<polygon fill="midnightblue" stroke="midnightblue" points="810.86,-961.13 821.21,-958.83 811.69,-954.18 810.86,-961.13"/>
</g>
<!-- Node20&#45;&gt;Node6 -->
<g id="edge30" class="edge">
<title>Node20&#45;&gt;Node6</title>
<path fill="none" stroke="midnightblue" d="M709.91,-617.6C721.51,-606.87 733.82,-592.75 740,-577 763.15,-517.96 764.87,-485.1 726,-435 670.14,-363 565.9,-330.68 496.72,-316.65"/>
<polygon fill="midnightblue" stroke="midnightblue" points="707.29,-615.24 702.07,-624.46 711.9,-620.5 707.29,-615.24"/>
</g>
<!-- Node20&#45;&gt;Node10 -->
<g id="edge40" class="edge">
<title>Node20&#45;&gt;Node10</title>
<path fill="none" stroke="midnightblue" d="M715.59,-618.89C731.3,-608.12 749.41,-593.59 762,-577 840.58,-473.5 873,-436.45 873,-306.5 873,-306.5 873,-306.5 873,-154 873,-108.88 873,-55.44 873,-30.55"/>
<polygon fill="midnightblue" stroke="midnightblue" points="713.57,-616.03 707.17,-624.47 717.44,-621.86 713.57,-616.03"/>
</g>
<!-- Node21 -->
<g id="node21" class="node">
<title>Node21</title>
<g id="a_node21"><a xlink:href="graph__constraint_8h.html" target="_top" xlink:title=" ">
<polygon fill="white" stroke="black" points="191.5,-535.5 191.5,-565.5 342.5,-565.5 342.5,-535.5 191.5,-535.5"/>
<text text-anchor="start" x="199.5" y="-553.5" font-family="Helvetica,sans-Serif" font-size="10.00">include/network_butcher</text>
<text text-anchor="middle" x="267" y="-542.5" font-family="Helvetica,sans-Serif" font-size="10.00">/Butcher/graph_constraint.h</text>
</a>
</g>
</g>
<!-- Node20&#45;&gt;Node21 -->
<g id="edge31" class="edge">
<title>Node20&#45;&gt;Node21</title>
<path fill="none" stroke="midnightblue" d="M605.45,-622.28C527.42,-605.96 408.33,-581.06 334.2,-565.55"/>
<polygon fill="midnightblue" stroke="midnightblue" points="605.2,-625.8 615.7,-624.43 606.63,-618.95 605.2,-625.8"/>
</g>
<!-- Node23 -->
<g id="node23" class="node">
<title>Node23</title>
<g id="a_node23"><a xlink:href="block__aMLLibrary__weight__importer_8h.html" target="_top" xlink:title=" ">
<polygon fill="white" stroke="black" points="561,-524.5 561,-576.5 731,-576.5 731,-524.5 561,-524.5"/>
<text text-anchor="start" x="569" y="-564.5" font-family="Helvetica,sans-Serif" font-size="10.00">include/network_butcher</text>
<text text-anchor="start" x="569" y="-553.5" font-family="Helvetica,sans-Serif" font-size="10.00">/IO_Interaction/Weight</text>
<text text-anchor="start" x="569" y="-542.5" font-family="Helvetica,sans-Serif" font-size="10.00">_Importer_Helpers/block</text>
<text text-anchor="middle" x="646" y="-531.5" font-family="Helvetica,sans-Serif" font-size="10.00">_aMLLibrary_weight_importer.h</text>
</a>
</g>
</g>
<!-- Node20&#45;&gt;Node23 -->
<g id="edge34" class="edge">
<title>Node20&#45;&gt;Node23</title>
<path fill="none" stroke="midnightblue" d="M672.97,-614.91C667.95,-603.12 661.87,-588.83 656.76,-576.8"/>
<polygon fill="midnightblue" stroke="midnightblue" points="669.76,-616.3 676.89,-624.13 676.2,-613.56 669.76,-616.3"/>
</g>
<!-- Node22 -->
<g id="node22" class="node">
<title>Node22</title>
<g id="a_node22"><a xlink:href="constrained__block__graph__builder_8h.html" target="_top" xlink:title=" ">
<polygon fill="white" stroke="black" points="263.5,-357.5 263.5,-398.5 412.5,-398.5 412.5,-357.5 263.5,-357.5"/>
<text text-anchor="start" x="271.5" y="-386.5" font-family="Helvetica,sans-Serif" font-size="10.00">include/network_butcher</text>
<text text-anchor="start" x="271.5" y="-375.5" font-family="Helvetica,sans-Serif" font-size="10.00">/Butcher/constrained_block</text>
<text text-anchor="middle" x="338" y="-364.5" font-family="Helvetica,sans-Serif" font-size="10.00">_graph_builder.h</text>
</a>
</g>
</g>
<!-- Node21&#45;&gt;Node22 -->
<g id="edge32" class="edge">
<title>Node21&#45;&gt;Node22</title>
<path fill="none" stroke="midnightblue" d="M276.92,-525.69C291.03,-491.79 316.66,-430.24 329.78,-398.74"/>
<polygon fill="midnightblue" stroke="midnightblue" points="273.54,-524.68 272.93,-535.26 280.01,-527.37 273.54,-524.68"/>
</g>
<!-- Node22&#45;&gt;Node6 -->
<g id="edge33" class="edge">
<title>Node22&#45;&gt;Node6</title>
<path fill="none" stroke="midnightblue" d="M371.02,-351.14C384.16,-340.84 398.77,-329.39 409.91,-320.67"/>
<polygon fill="midnightblue" stroke="midnightblue" points="368.78,-348.44 363.07,-357.36 373.1,-353.95 368.78,-348.44"/>
</g>
<!-- Node24 -->
<g id="node24" class="node">
<title>Node24</title>
<g id="a_node24"><a xlink:href="weight__importers_8h.html" target="_top" xlink:title=" ">
<polygon fill="white" stroke="black" points="371.5,-441 371.5,-482 508.5,-482 508.5,-441 371.5,-441"/>
<text text-anchor="start" x="379.5" y="-470" font-family="Helvetica,sans-Serif" font-size="10.00">include/network_butcher</text>
<text text-anchor="start" x="379.5" y="-459" font-family="Helvetica,sans-Serif" font-size="10.00">/IO_Interaction/weight</text>
<text text-anchor="middle" x="440" y="-448" font-family="Helvetica,sans-Serif" font-size="10.00">_importers.h</text>
</a>
</g>
</g>
<!-- Node23&#45;&gt;Node24 -->
<g id="edge35" class="edge">
<title>Node23&#45;&gt;Node24</title>
<path fill="none" stroke="midnightblue" d="M577.18,-520.43C547.37,-507.84 513.24,-493.43 486.49,-482.13"/>
<polygon fill="midnightblue" stroke="midnightblue" points="576.12,-523.79 586.69,-524.45 578.84,-517.34 576.12,-523.79"/>
</g>
<!-- Node25 -->
<g id="node25" class="node">
<title>Node25</title>
<g id="a_node25"><a xlink:href="block__aMLLibrary__weight__importer_8cpp.html" target="_top" xlink:title=" ">
<polygon fill="white" stroke="black" points="574.5,-435.5 574.5,-487.5 717.5,-487.5 717.5,-435.5 574.5,-435.5"/>
<text text-anchor="start" x="582.5" y="-475.5" font-family="Helvetica,sans-Serif" font-size="10.00">src/IO_Interaction</text>
<text text-anchor="start" x="582.5" y="-464.5" font-family="Helvetica,sans-Serif" font-size="10.00">/Weight_Importer_Helpers</text>
<text text-anchor="start" x="582.5" y="-453.5" font-family="Helvetica,sans-Serif" font-size="10.00">/block_aMLLibrary_weight</text>
<text text-anchor="middle" x="646" y="-442.5" font-family="Helvetica,sans-Serif" font-size="10.00">_importer.cpp</text>
</a>
</g>
</g>
<!-- Node23&#45;&gt;Node25 -->
<g id="edge39" class="edge">
<title>Node23&#45;&gt;Node25</title>
<path fill="none" stroke="midnightblue" d="M646,-514.19C646,-505.28 646,-495.9 646,-487.61"/>
<polygon fill="midnightblue" stroke="midnightblue" points="642.5,-514.34 646,-524.34 649.5,-514.34 642.5,-514.34"/>
</g>
<!-- Node24&#45;&gt;Node6 -->
<g id="edge36" class="edge">
<title>Node24&#45;&gt;Node6</title>
<path fill="none" stroke="midnightblue" d="M437.7,-431.01C435.13,-397.99 431.07,-345.84 429.12,-320.82"/>
<polygon fill="midnightblue" stroke="midnightblue" points="434.21,-431.3 438.48,-441 441.19,-430.75 434.21,-431.3"/>
</g>
<!-- Node24&#45;&gt;Node8 -->
<g id="edge38" class="edge">
<title>Node24&#45;&gt;Node8</title>
<path fill="none" stroke="midnightblue" d="M455.58,-431.92C490.23,-368.36 572.63,-217.21 598.26,-170.2"/>
<polygon fill="midnightblue" stroke="midnightblue" points="452.35,-430.53 450.64,-440.99 458.5,-433.88 452.35,-430.53"/>
</g>
<!-- Node24&#45;&gt;Node22 -->
<g id="edge37" class="edge">
<title>Node24&#45;&gt;Node22</title>
<path fill="none" stroke="midnightblue" d="M407.74,-434.72C393.13,-423.05 376.14,-409.47 362.59,-398.64"/>
<polygon fill="midnightblue" stroke="midnightblue" points="405.57,-437.47 415.57,-440.98 409.94,-432 405.57,-437.47"/>
</g>
<!-- Node26&#45;&gt;Node6 -->
<g id="edge42" class="edge">
<title>Node26&#45;&gt;Node6</title>
<path fill="none" stroke="midnightblue" d="M188.6,-871.65C125.99,-849.75 38,-805.46 38,-729.5 38,-729.5 38,-729.5 38,-460.5 38,-413.73 23.17,-389.3 57,-357 99.14,-316.77 264.16,-308.12 359.32,-306.55"/>
<polygon fill="midnightblue" stroke="midnightblue" points="187.82,-875.08 198.41,-874.97 190.06,-868.45 187.82,-875.08"/>
</g>
<!-- Node26&#45;&gt;Node7 -->
<g id="edge47" class="edge">
<title>Node26&#45;&gt;Node7</title>
<path fill="none" stroke="midnightblue" d="M171.51,-880.4C133.65,-872.94 89.51,-859.01 57,-833 16,-800.19 0,-782.01 0,-729.5 0,-729.5 0,-729.5 0,-377 0,-307.93 212.08,-263.94 329.3,-244.9"/>
<polygon fill="midnightblue" stroke="midnightblue" points="171.03,-883.87 181.5,-882.25 172.3,-876.99 171.03,-883.87"/>
</g>
<!-- Node26&#45;&gt;Node10 -->
<g id="edge55" class="edge">
<title>Node26&#45;&gt;Node10</title>
<path fill="none" stroke="midnightblue" d="M328.81,-886.18C457.16,-880.68 705.16,-866.06 786,-833 852.76,-805.7 911,-801.63 911,-729.5 911,-729.5 911,-729.5 911,-154 911,-107.44 890.51,-55.11 879.62,-30.6"/>
<polygon fill="midnightblue" stroke="midnightblue" points="328.49,-882.69 318.65,-886.6 328.79,-889.68 328.49,-882.69"/>
</g>
<!-- Node26&#45;&gt;Node14 -->
<g id="edge48" class="edge">
<title>Node26&#45;&gt;Node14</title>
<path fill="none" stroke="midnightblue" d="M328.76,-885.33C496.32,-875.37 873,-840.62 873,-729.5 873,-729.5 873,-729.5 873,-549.5 873,-429.81 850.6,-398.93 801,-290 795.16,-277.17 786.57,-263.96 779.14,-253.59"/>
<polygon fill="midnightblue" stroke="midnightblue" points="328.53,-881.84 318.75,-885.91 328.94,-888.83 328.53,-881.84"/>
</g>
<!-- Node26&#45;&gt;Node21 -->
<g id="edge43" class="edge">
<title>Node26&#45;&gt;Node21</title>
<path fill="none" stroke="midnightblue" d="M234.36,-865.97C228.65,-856.24 222.89,-844.51 220,-833 215.46,-814.89 218.19,-809.58 220,-791 228.42,-704.33 253.61,-602.48 263.22,-565.66"/>
<polygon fill="midnightblue" stroke="midnightblue" points="231.47,-867.96 239.72,-874.61 237.42,-864.27 231.47,-867.96"/>
</g>
<!-- Node26&#45;&gt;Node22 -->
<g id="edge44" class="edge">
<title>Node26&#45;&gt;Node22</title>
<path fill="none" stroke="midnightblue" d="M228.79,-867.12C203.04,-838.14 163,-784.28 163,-729.5 163,-729.5 163,-729.5 163,-549.5 163,-476.75 241.54,-424.96 293.39,-398.69"/>
<polygon fill="midnightblue" stroke="midnightblue" points="226.31,-869.59 235.63,-874.61 231.48,-864.87 226.31,-869.59"/>
</g>
<!-- Node27 -->
<g id="node27" class="node">
<title>Node27</title>
<g id="a_node27"><a xlink:href="path__converter_8h.html" target="_top" xlink:title=" ">
<polygon fill="white" stroke="black" points="66,-363 66,-393 208,-393 208,-363 66,-363"/>
<text text-anchor="start" x="74" y="-381" font-family="Helvetica,sans-Serif" font-size="10.00">include/network_butcher</text>
<text text-anchor="middle" x="137" y="-370" font-family="Helvetica,sans-Serif" font-size="10.00">/Butcher/path_converter.h</text>
</a>
</g>
</g>
<!-- Node26&#45;&gt;Node27 -->
<g id="edge45" class="edge">
<title>Node26&#45;&gt;Node27</title>
<path fill="none" stroke="midnightblue" d="M208.4,-870.51C160.11,-845.88 87,-797.38 87,-729.5 87,-729.5 87,-729.5 87,-549.5 87,-497.51 94.61,-484.34 111,-435 115.86,-420.35 123.48,-404.46 129.22,-393.37"/>
<polygon fill="midnightblue" stroke="midnightblue" points="206.89,-873.67 217.41,-874.97 210,-867.4 206.89,-873.67"/>
</g>
<!-- Node28 -->
<g id="node28" class="node">
<title>Node28</title>
<g id="a_node28"><a xlink:href="weight__importer_8h.html" target="_top" xlink:title=" ">
<polygon fill="white" stroke="black" points="343.5,-702.5 343.5,-754.5 486.5,-754.5 486.5,-702.5 343.5,-702.5"/>
<text text-anchor="start" x="351.5" y="-742.5" font-family="Helvetica,sans-Serif" font-size="10.00">include/network_butcher</text>
<text text-anchor="start" x="351.5" y="-731.5" font-family="Helvetica,sans-Serif" font-size="10.00">/IO_Interaction/Weight</text>
<text text-anchor="start" x="351.5" y="-720.5" font-family="Helvetica,sans-Serif" font-size="10.00">_Importer_Helpers/weight</text>
<text text-anchor="middle" x="415" y="-709.5" font-family="Helvetica,sans-Serif" font-size="10.00">_importer.h</text>
</a>
</g>
</g>
<!-- Node26&#45;&gt;Node28 -->
<g id="edge49" class="edge">
<title>Node26&#45;&gt;Node28</title>
<path fill="none" stroke="midnightblue" d="M314.05,-871.33C335.7,-862.72 358.53,-850.35 375,-833 395.69,-811.2 406.01,-777.54 410.93,-754.56"/>
<polygon fill="midnightblue" stroke="midnightblue" points="312.67,-868.11 304.54,-874.91 315.13,-874.66 312.67,-868.11"/>
</g>
<!-- Node31 -->
<g id="node31" class="node">
<title>Node31</title>
<g id="a_node31"><a xlink:href="parameters_8h.html" target="_top" xlink:title=" ">
<polygon fill="white" stroke="black" points="229.5,-797 229.5,-827 366.5,-827 366.5,-797 229.5,-797"/>
<text text-anchor="start" x="237.5" y="-815" font-family="Helvetica,sans-Serif" font-size="10.00">include/network_butcher</text>
<text text-anchor="middle" x="298" y="-804" font-family="Helvetica,sans-Serif" font-size="10.00">/Types/parameters.h</text>
</a>
</g>
</g>
<!-- Node26&#45;&gt;Node31 -->
<g id="edge56" class="edge">
<title>Node26&#45;&gt;Node31</title>
<path fill="none" stroke="midnightblue" d="M264.48,-866.07C272.46,-853.44 282.12,-838.15 289.01,-827.23"/>
<polygon fill="midnightblue" stroke="midnightblue" points="261.41,-864.38 259.03,-874.7 267.33,-868.12 261.41,-864.38"/>
</g>
<!-- Node27&#45;&gt;Node6 -->
<g id="edge46" class="edge">
<title>Node27&#45;&gt;Node6</title>
<path fill="none" stroke="midnightblue" d="M204.6,-360.62C254.64,-348.5 322.11,-332.15 369.77,-320.61"/>
<polygon fill="midnightblue" stroke="midnightblue" points="203.73,-357.23 194.84,-362.99 205.38,-364.03 203.73,-357.23"/>
</g>
<!-- Node28&#45;&gt;Node23 -->
<g id="edge50" class="edge">
<title>Node28&#45;&gt;Node23</title>
<path fill="none" stroke="midnightblue" d="M467.69,-696.91C482.96,-687.48 499.43,-676.74 514,-666 552.34,-637.74 593.3,-601.08 619.25,-576.95"/>
<polygon fill="midnightblue" stroke="midnightblue" points="465.57,-694.11 458.86,-702.31 469.22,-700.08 465.57,-694.11"/>
</g>
<!-- Node29 -->
<g id="node29" class="node">
<title>Node29</title>
<g id="a_node29"><a xlink:href="csv__weight__importer_8h.html" target="_top" xlink:title=" ">
<polygon fill="white" stroke="black" points="341,-613.5 341,-665.5 505,-665.5 505,-613.5 341,-613.5"/>
<text text-anchor="start" x="349" y="-653.5" font-family="Helvetica,sans-Serif" font-size="10.00">include/network_butcher</text>
<text text-anchor="start" x="349" y="-642.5" font-family="Helvetica,sans-Serif" font-size="10.00">/IO_Interaction/Weight</text>
<text text-anchor="start" x="349" y="-631.5" font-family="Helvetica,sans-Serif" font-size="10.00">_Importer_Helpers/csv_weight</text>
<text text-anchor="middle" x="423" y="-620.5" font-family="Helvetica,sans-Serif" font-size="10.00">_importer.h</text>
</a>
</g>
</g>
<!-- Node28&#45;&gt;Node29 -->
<g id="edge51" class="edge">
<title>Node28&#45;&gt;Node29</title>
<path fill="none" stroke="midnightblue" d="M418.25,-692.19C419.07,-683.28 419.93,-673.9 420.69,-665.61"/>
<polygon fill="midnightblue" stroke="midnightblue" points="414.74,-692.06 417.31,-702.34 421.71,-692.7 414.74,-692.06"/>
</g>
<!-- Node29&#45;&gt;Node23 -->
<g id="edge52" class="edge">
<title>Node29&#45;&gt;Node23</title>
<path fill="none" stroke="midnightblue" d="M496.78,-609.72C524.29,-598.98 555.29,-586.89 581.87,-576.52"/>
<polygon fill="midnightblue" stroke="midnightblue" points="495.25,-606.56 487.2,-613.45 497.79,-613.08 495.25,-606.56"/>
</g>
<!-- Node29&#45;&gt;Node24 -->
<g id="edge53" class="edge">
<title>Node29&#45;&gt;Node24</title>
<path fill="none" stroke="midnightblue" d="M400.89,-604.37C396.4,-595.77 392.34,-586.32 390,-577 384.26,-554.15 382.12,-546.2 390,-524 395.67,-508.05 407.43,-493.23 418.12,-482.14"/>
<polygon fill="midnightblue" stroke="midnightblue" points="397.95,-606.29 405.86,-613.33 404.07,-602.89 397.95,-606.29"/>
</g>
<!-- Node30 -->
<g id="node30" class="node">
<title>Node30</title>
<g id="a_node30"><a xlink:href="csv__weight__importer_8cpp.html" target="_top" xlink:title=" ">
<polygon fill="white" stroke="black" points="399.5,-530 399.5,-571 542.5,-571 542.5,-530 399.5,-530"/>
<text text-anchor="start" x="407.5" y="-559" font-family="Helvetica,sans-Serif" font-size="10.00">src/IO_Interaction</text>
<text text-anchor="start" x="407.5" y="-548" font-family="Helvetica,sans-Serif" font-size="10.00">/Weight_Importer_Helpers</text>
<text text-anchor="middle" x="471" y="-537" font-family="Helvetica,sans-Serif" font-size="10.00">/csv_weight_importer.cpp</text>
</a>
</g>
</g>
<!-- Node29&#45;&gt;Node30 -->
<g id="edge54" class="edge">
<title>Node29&#45;&gt;Node30</title>
<path fill="none" stroke="midnightblue" d="M441.76,-604.51C448.01,-593.17 454.76,-580.94 460.2,-571.08"/>
<polygon fill="midnightblue" stroke="midnightblue" points="438.65,-602.89 436.88,-613.34 444.78,-606.27 438.65,-602.89"/>
</g>
<!-- Node31&#45;&gt;Node6 -->
<g id="edge57" class="edge">
<title>Node31&#45;&gt;Node6</title>
<path fill="none" stroke="midnightblue" d="M280.14,-788.4C235.63,-729.18 127.12,-565.07 181,-435 189.66,-414.09 201.51,-415.5 217,-399 234.03,-380.86 233,-370.33 254,-357 285.74,-336.86 325.76,-324.52 359.41,-317.08"/>
<polygon fill="midnightblue" stroke="midnightblue" points="277.61,-790.85 286.46,-796.67 283.17,-786.6 277.61,-790.85"/>
</g>
<!-- Node31&#45;&gt;Node14 -->
<g id="edge59" class="edge">
<title>Node31&#45;&gt;Node14</title>
<path fill="none" stroke="midnightblue" d="M376.89,-800.7C517.54,-780.12 797,-728.2 797,-640.5 797,-640.5 797,-640.5 797,-377 797,-331.9 781.22,-280.81 771.49,-253.56"/>
<polygon fill="midnightblue" stroke="midnightblue" points="376,-797.3 366.6,-802.19 377,-804.22 376,-797.3"/>
</g>
<!-- Node31&#45;&gt;Node21 -->
<g id="edge58" class="edge">
<title>Node31&#45;&gt;Node21</title>
<path fill="none" stroke="midnightblue" d="M295.07,-786.44C288.69,-733.1 273.76,-608.08 268.71,-565.78"/>
<polygon fill="midnightblue" stroke="midnightblue" points="291.63,-787.16 296.29,-796.68 298.58,-786.33 291.63,-787.16"/>
</g>
<!-- Node31&#45;&gt;Node28 -->
<g id="edge60" class="edge">
<title>Node31&#45;&gt;Node28</title>
<path fill="none" stroke="midnightblue" d="M326.46,-791.18C342.31,-780.14 362.19,-766.29 379.1,-754.51"/>
<polygon fill="midnightblue" stroke="midnightblue" points="324.32,-788.4 318.11,-796.99 328.32,-794.15 324.32,-788.4"/>
</g>
</g>
</svg>
