<?xml version="1.0" encoding="UTF-8" standalone="no"?>
<!DOCTYPE svg PUBLIC "-//W3C//DTD SVG 1.1//EN"
 "http://www.w3.org/Graphics/SVG/1.1/DTD/svg11.dtd">
<!-- Generated by graphviz version 2.43.0 (0)
 -->
<!-- Title: include/IO_Interaction/weight_importers.h Pages: 1 -->
<!--zoomable 778 -->
<svg id="main" version="1.1" xmlns="http://www.w3.org/2000/svg" xmlns:xlink="http://www.w3.org/1999/xlink" xml:space="preserve" onload="init(evt)">
<style type="text/css"><![CDATA[
.edge:hover path { stroke: red; }
.edge:hover polygon { stroke: red; fill: red; }
]]></style>
<script type="text/javascript"><![CDATA[
var edges = document.getElementsByTagName('g');
if (edges && edges.length) {
  for (var i=0;i<edges.length;i++) {
    if (edges[i].id.substr(0,4)=='edge') {
      edges[i].setAttribute('class','edge');
    }
  }
}
]]></script>
        <defs>
                <circle id="rim" cx="0" cy="0" r="7"/>
                <circle id="rim2" cx="0" cy="0" r="3.5"/>
                <g id="zoomPlus">
                        <use xlink:href="#rim" fill="#404040">
                                <set attributeName="fill" to="#808080" begin="zoomplus.mouseover" end="zoomplus.mouseout"/>
                        </use>
                        <path d="M-4,0h8M0,-4v8" fill="none" stroke="white" stroke-width="1.5" pointer-events="none"/>
                </g>
                <g id="zoomMin">
                        <use xlink:href="#rim" fill="#404040">
                                <set attributeName="fill" to="#808080" begin="zoomminus.mouseover" end="zoomminus.mouseout"/>
                        </use>
                        <path d="M-4,0h8" fill="none" stroke="white" stroke-width="1.5" pointer-events="none"/>
                </g>
                <g id="dirArrow">
                        <path fill="none" stroke="white" stroke-width="1.5" d="M0,-3.0v7 M-2.5,-0.5L0,-3.0L2.5,-0.5"/>
                </g>
               <g id="resetDef">
                       <use xlink:href="#rim2" fill="#404040">
                               <set attributeName="fill" to="#808080" begin="reset.mouseover" end="reset.mouseout"/>
                       </use>
               </g>
        </defs>

<script type="text/javascript">
var viewWidth = 940;
var viewHeight = 778;
var sectionId = 'dynsection-0';
</script>
<script xlink:href="svgpan.js"/>
<svg id="graph" class="graph">
<g id="viewport">
<title>include/IO_Interaction/weight_importers.h</title>
<polygon fill="white" stroke="transparent" points="-4,4 -4,-774 935.52,-774 935.52,4 -4,4"/>
<!-- Node1 -->
<g id="node1" class="node">
<title>Node1</title>
<g id="a_node1"><a xlink:title=" ">
<polygon fill="#bfbfbf" stroke="black" points="237.02,-739.5 237.02,-769.5 360.02,-769.5 360.02,-739.5 237.02,-739.5"/>
<text text-anchor="start" x="245.02" y="-757.5" font-family="Helvetica,sans-Serif" font-size="10.00">include/IO_Interaction</text>
<text text-anchor="middle" x="298.52" y="-746.5" font-family="Helvetica,sans-Serif" font-size="10.00">/weight_importers.h</text>
</a>
</g>
</g>
<!-- Node2 -->
<g id="node2" class="node">
<title>Node2</title>
<g id="a_node2"><a xlink:href="block__aMLLibrary__weight__importer_8h.html" target="_top" xlink:title=" ">
<polygon fill="white" stroke="black" points="179.52,-672.5 179.52,-702.5 319.52,-702.5 319.52,-672.5 179.52,-672.5"/>
<text text-anchor="start" x="187.52" y="-690.5" font-family="Helvetica,sans-Serif" font-size="10.00">block_aMLLibrary_weight</text>
<text text-anchor="middle" x="249.52" y="-679.5" font-family="Helvetica,sans-Serif" font-size="10.00">_importer.h</text>
</a>
</g>
</g>
<!-- Node1&#45;&gt;Node2 -->
<g id="edge1" class="edge">
<title>Node1&#45;&gt;Node2</title>
<path fill="none" stroke="midnightblue" d="M287.89,-739.4C281.6,-731.05 273.49,-720.29 266.34,-710.81"/>
<polygon fill="midnightblue" stroke="midnightblue" points="268.95,-708.45 260.13,-702.58 263.36,-712.67 268.95,-708.45"/>
</g>
<!-- Node37 -->
<g id="node37" class="node">
<title>Node37</title>
<g id="a_node37"><a xlink:href="csv__weight__importer_8h.html" target="_top" xlink:title=" ">
<polygon fill="white" stroke="black" points="281.02,-616.5 281.02,-635.5 408.02,-635.5 408.02,-616.5 281.02,-616.5"/>
<text text-anchor="middle" x="344.52" y="-623.5" font-family="Helvetica,sans-Serif" font-size="10.00">csv_weight_importer.h</text>
</a>
</g>
</g>
<!-- Node1&#45;&gt;Node37 -->
<g id="edge70" class="edge">
<title>Node1&#45;&gt;Node37</title>
<path fill="none" stroke="midnightblue" d="M308.8,-739.13C315.33,-729.37 323.48,-715.92 328.52,-703 335.85,-684.2 340.08,-661.4 342.33,-645.71"/>
<polygon fill="midnightblue" stroke="midnightblue" points="345.81,-646.07 343.63,-635.7 338.87,-645.16 345.81,-646.07"/>
</g>
<!-- Node3 -->
<g id="node3" class="node">
<title>Node3</title>
<g id="a_node3"><a xlink:title=" ">
<polygon fill="white" stroke="#bfbfbf" points="177.02,-616.5 177.02,-635.5 224.02,-635.5 224.02,-616.5 177.02,-616.5"/>
<text text-anchor="middle" x="200.52" y="-623.5" font-family="Helvetica,sans-Serif" font-size="10.00">cmath</text>
</a>
</g>
</g>
<!-- Node2&#45;&gt;Node3 -->
<g id="edge2" class="edge">
<title>Node2&#45;&gt;Node3</title>
<path fill="none" stroke="midnightblue" d="M237.91,-672.4C230.79,-663.75 221.64,-652.64 214.17,-643.58"/>
<polygon fill="midnightblue" stroke="midnightblue" points="216.71,-641.15 207.65,-635.66 211.31,-645.6 216.71,-641.15"/>
</g>
<!-- Node4 -->
<g id="node4" class="node">
<title>Node4</title>
<g id="a_node4"><a xlink:href="computer__memory_8h.html" target="_top" xlink:title=" ">
<polygon fill="white" stroke="black" points="194.02,-448.5 194.02,-467.5 311.02,-467.5 311.02,-448.5 194.02,-448.5"/>
<text text-anchor="middle" x="252.52" y="-455.5" font-family="Helvetica,sans-Serif" font-size="10.00">computer_memory.h</text>
</a>
</g>
</g>
<!-- Node2&#45;&gt;Node4 -->
<g id="edge3" class="edge">
<title>Node2&#45;&gt;Node4</title>
<path fill="none" stroke="midnightblue" d="M249.71,-672.27C250.23,-632.89 251.69,-522.49 252.27,-477.97"/>
<polygon fill="midnightblue" stroke="midnightblue" points="255.77,-477.97 252.41,-467.93 248.77,-477.88 255.77,-477.97"/>
</g>
<!-- Node32 -->
<g id="node32" class="node">
<title>Node32</title>
<g id="a_node32"><a xlink:href="weight__importer_8h.html" target="_top" xlink:title=" ">
<polygon fill="white" stroke="black" points="366.02,-560.5 366.02,-579.5 471.02,-579.5 471.02,-560.5 366.02,-560.5"/>
<text text-anchor="middle" x="418.52" y="-567.5" font-family="Helvetica,sans-Serif" font-size="10.00">weight_importer.h</text>
</a>
</g>
</g>
<!-- Node2&#45;&gt;Node32 -->
<g id="edge54" class="edge">
<title>Node2&#45;&gt;Node32</title>
<path fill="none" stroke="midnightblue" d="M319.56,-683.72C354.42,-678.38 393.86,-665.57 416.52,-636 426.49,-622.99 425.8,-603.83 423.33,-589.68"/>
<polygon fill="midnightblue" stroke="midnightblue" points="426.68,-588.65 421.14,-579.62 419.85,-590.14 426.68,-588.65"/>
</g>
<!-- Node36 -->
<g id="node36" class="node">
<title>Node36</title>
<g id="a_node36"><a xlink:href="weight__importer__utils_8h.html" target="_top" xlink:title=" ">
<polygon fill="white" stroke="black" points="87.52,-560.5 87.52,-579.5 219.52,-579.5 219.52,-560.5 87.52,-560.5"/>
<text text-anchor="middle" x="153.52" y="-567.5" font-family="Helvetica,sans-Serif" font-size="10.00">weight_importer_utils.h</text>
</a>
</g>
</g>
<!-- Node2&#45;&gt;Node36 -->
<g id="edge64" class="edge">
<title>Node2&#45;&gt;Node36</title>
<path fill="none" stroke="midnightblue" d="M213.66,-672.34C197.22,-664.1 178.91,-652.11 167.52,-636 158.05,-622.6 154.78,-604.03 153.74,-590.17"/>
<polygon fill="midnightblue" stroke="midnightblue" points="157.23,-589.7 153.32,-579.85 150.23,-589.99 157.23,-589.7"/>
</g>
<!-- Node2&#45;&gt;Node37 -->
<g id="edge67" class="edge">
<title>Node2&#45;&gt;Node37</title>
<path fill="none" stroke="midnightblue" d="M272.04,-672.4C287.12,-662.95 306.91,-650.56 322,-641.11"/>
<polygon fill="midnightblue" stroke="midnightblue" points="324.08,-643.93 330.7,-635.66 320.37,-638 324.08,-643.93"/>
</g>
<!-- Node5 -->
<g id="node5" class="node">
<title>Node5</title>
<g id="a_node5"><a xlink:title=" ">
<polygon fill="white" stroke="#bfbfbf" points="194.02,-392.5 194.02,-411.5 259.02,-411.5 259.02,-392.5 194.02,-392.5"/>
<text text-anchor="middle" x="226.52" y="-399.5" font-family="Helvetica,sans-Serif" font-size="10.00">functional</text>
</a>
</g>
</g>
<!-- Node4&#45;&gt;Node5 -->
<g id="edge4" class="edge">
<title>Node4&#45;&gt;Node5</title>
<path fill="none" stroke="midnightblue" d="M248.23,-448.08C244.67,-440.69 239.5,-429.95 235.1,-420.81"/>
<polygon fill="midnightblue" stroke="midnightblue" points="238.23,-419.24 230.74,-411.75 231.92,-422.28 238.23,-419.24"/>
</g>
<!-- Node6 -->
<g id="node6" class="node">
<title>Node6</title>
<g id="a_node6"><a xlink:href="utilities_8h.html" target="_top" xlink:title=" ">
<polygon fill="white" stroke="black" points="249.52,-168.5 249.52,-187.5 311.52,-187.5 311.52,-168.5 249.52,-168.5"/>
<text text-anchor="middle" x="280.52" y="-175.5" font-family="Helvetica,sans-Serif" font-size="10.00">utilities.h</text>
</a>
</g>
</g>
<!-- Node4&#45;&gt;Node6 -->
<g id="edge5" class="edge">
<title>Node4&#45;&gt;Node6</title>
<path fill="none" stroke="midnightblue" d="M257.24,-448.46C266.8,-430.34 287.52,-386.48 287.52,-347 287.52,-347 287.52,-347 287.52,-289 287.52,-256.88 284.51,-219.6 282.44,-197.73"/>
<polygon fill="midnightblue" stroke="midnightblue" points="285.9,-197.15 281.44,-187.55 278.94,-197.84 285.9,-197.15"/>
</g>
<!-- Node24 -->
<g id="node24" class="node">
<title>Node24</title>
<g id="a_node24"><a xlink:href="wgraph_8h.html" target="_top" xlink:title=" ">
<polygon fill="white" stroke="black" points="403.52,-392.5 403.52,-411.5 465.52,-411.5 465.52,-392.5 403.52,-392.5"/>
<text text-anchor="middle" x="434.52" y="-399.5" font-family="Helvetica,sans-Serif" font-size="10.00">wgraph.h</text>
</a>
</g>
</g>
<!-- Node4&#45;&gt;Node24 -->
<g id="edge31" class="edge">
<title>Node4&#45;&gt;Node24</title>
<path fill="none" stroke="midnightblue" d="M281.36,-448.44C312.38,-439.24 361.85,-424.56 396.14,-414.39"/>
<polygon fill="midnightblue" stroke="midnightblue" points="397.23,-417.72 405.82,-411.52 395.24,-411.01 397.23,-417.72"/>
</g>
<!-- Node7 -->
<g id="node7" class="node">
<title>Node7</title>
<g id="a_node7"><a xlink:title=" ">
<polygon fill="white" stroke="#bfbfbf" points="389.52,-112.5 389.52,-131.5 453.52,-131.5 453.52,-112.5 389.52,-112.5"/>
<text text-anchor="middle" x="421.52" y="-119.5" font-family="Helvetica,sans-Serif" font-size="10.00">algorithm</text>
</a>
</g>
</g>
<!-- Node6&#45;&gt;Node7 -->
<g id="edge6" class="edge">
<title>Node6&#45;&gt;Node7</title>
<path fill="none" stroke="midnightblue" d="M302.86,-168.44C326.28,-159.48 363.26,-145.31 389.71,-135.18"/>
<polygon fill="midnightblue" stroke="midnightblue" points="391.2,-138.36 399.29,-131.52 388.7,-131.82 391.2,-138.36"/>
</g>
<!-- Node8 -->
<g id="node8" class="node">
<title>Node8</title>
<g id="a_node8"><a xlink:title=" ">
<polygon fill="white" stroke="#bfbfbf" points="471.52,-112.5 471.52,-131.5 527.52,-131.5 527.52,-112.5 471.52,-112.5"/>
<text text-anchor="middle" x="499.52" y="-119.5" font-family="Helvetica,sans-Serif" font-size="10.00">numeric</text>
</a>
</g>
</g>
<!-- Node6&#45;&gt;Node8 -->
<g id="edge7" class="edge">
<title>Node6&#45;&gt;Node8</title>
<path fill="none" stroke="midnightblue" d="M311.9,-169.26C351.34,-159.54 419.01,-142.85 461.39,-132.4"/>
<polygon fill="midnightblue" stroke="midnightblue" points="462.46,-135.74 471.33,-129.95 460.78,-128.95 462.46,-135.74"/>
</g>
<!-- Node9 -->
<g id="node9" class="node">
<title>Node9</title>
<g id="a_node9"><a xlink:title=" ">
<polygon fill="white" stroke="#bfbfbf" points="84.52,-112.5 84.52,-131.5 152.52,-131.5 152.52,-112.5 84.52,-112.5"/>
<text text-anchor="middle" x="118.52" y="-119.5" font-family="Helvetica,sans-Serif" font-size="10.00">filesystem</text>
</a>
</g>
</g>
<!-- Node6&#45;&gt;Node9 -->
<g id="edge8" class="edge">
<title>Node6&#45;&gt;Node9</title>
<path fill="none" stroke="midnightblue" d="M254.85,-168.44C227.6,-159.36 184.34,-144.94 153.87,-134.78"/>
<polygon fill="midnightblue" stroke="midnightblue" points="154.67,-131.36 144.07,-131.52 152.45,-138 154.67,-131.36"/>
</g>
<!-- Node10 -->
<g id="node10" class="node">
<title>Node10</title>
<g id="a_node10"><a xlink:title=" ">
<polygon fill="white" stroke="#bfbfbf" points="209.02,-112.5 209.02,-131.5 264.02,-131.5 264.02,-112.5 209.02,-112.5"/>
<text text-anchor="middle" x="236.52" y="-119.5" font-family="Helvetica,sans-Serif" font-size="10.00">fstream</text>
</a>
</g>
</g>
<!-- Node6&#45;&gt;Node10 -->
<g id="edge9" class="edge">
<title>Node6&#45;&gt;Node10</title>
<path fill="none" stroke="midnightblue" d="M273.26,-168.08C266.98,-160.38 257.74,-149.03 250.09,-139.65"/>
<polygon fill="midnightblue" stroke="midnightblue" points="252.68,-137.29 243.65,-131.75 247.26,-141.71 252.68,-137.29"/>
</g>
<!-- Node11 -->
<g id="node11" class="node">
<title>Node11</title>
<g id="a_node11"><a xlink:title=" ">
<polygon fill="white" stroke="#bfbfbf" points="16.52,-112.5 16.52,-131.5 66.52,-131.5 66.52,-112.5 16.52,-112.5"/>
<text text-anchor="middle" x="41.52" y="-119.5" font-family="Helvetica,sans-Serif" font-size="10.00">ranges</text>
</a>
</g>
</g>
<!-- Node6&#45;&gt;Node11 -->
<g id="edge10" class="edge">
<title>Node6&#45;&gt;Node11</title>
<path fill="none" stroke="midnightblue" d="M249.52,-170.62C211.17,-162.65 143.68,-148.3 76.63,-132.19"/>
<polygon fill="midnightblue" stroke="midnightblue" points="77.29,-128.75 66.74,-129.8 75.64,-135.55 77.29,-128.75"/>
</g>
<!-- Node12 -->
<g id="node12" class="node">
<title>Node12</title>
<g id="a_node12"><a xlink:title=" ">
<polygon fill="white" stroke="#bfbfbf" points="148.02,-56.5 148.02,-75.5 213.02,-75.5 213.02,-56.5 148.02,-56.5"/>
<text text-anchor="middle" x="180.52" y="-63.5" font-family="Helvetica,sans-Serif" font-size="10.00">onnx.pb.h</text>
</a>
</g>
</g>
<!-- Node6&#45;&gt;Node12 -->
<g id="edge11" class="edge">
<title>Node6&#45;&gt;Node12</title>
<path fill="none" stroke="midnightblue" d="M254.36,-168.49C236.49,-161.4 213.58,-149.6 199.52,-132 188.87,-118.66 184.19,-99.55 182.13,-85.5"/>
<polygon fill="midnightblue" stroke="midnightblue" points="185.6,-85.06 180.98,-75.52 178.65,-85.86 185.6,-85.06"/>
</g>
<!-- Node13 -->
<g id="node13" class="node">
<title>Node13</title>
<g id="a_node13"><a xlink:href="traits_8h.html" target="_top" xlink:title=" ">
<polygon fill="white" stroke="black" points="282.02,-112.5 282.02,-131.5 333.02,-131.5 333.02,-112.5 282.02,-112.5"/>
<text text-anchor="middle" x="307.52" y="-119.5" font-family="Helvetica,sans-Serif" font-size="10.00">traits.h</text>
</a>
</g>
</g>
<!-- Node6&#45;&gt;Node13 -->
<g id="edge12" class="edge">
<title>Node6&#45;&gt;Node13</title>
<path fill="none" stroke="midnightblue" d="M284.98,-168.08C288.68,-160.69 294.05,-149.95 298.62,-140.81"/>
<polygon fill="midnightblue" stroke="midnightblue" points="301.81,-142.26 303.15,-131.75 295.54,-139.13 301.81,-142.26"/>
</g>
<!-- Node18 -->
<g id="node18" class="node">
<title>Node18</title>
<g id="a_node18"><a xlink:href="type__info_8h.html" target="_top" xlink:title=" ">
<polygon fill="white" stroke="black" points="456.02,-56.5 456.02,-75.5 527.02,-75.5 527.02,-56.5 456.02,-56.5"/>
<text text-anchor="middle" x="491.52" y="-63.5" font-family="Helvetica,sans-Serif" font-size="10.00">type_info.h</text>
</a>
</g>
</g>
<!-- Node6&#45;&gt;Node18 -->
<g id="edge30" class="edge">
<title>Node6&#45;&gt;Node18</title>
<path fill="none" stroke="midnightblue" d="M292.08,-168.43C310.26,-155.21 346.93,-129.52 380.52,-112 405.42,-99.02 434.93,-87.21 457.26,-78.95"/>
<polygon fill="midnightblue" stroke="midnightblue" points="458.47,-82.24 466.67,-75.53 456.07,-75.66 458.47,-82.24"/>
</g>
<!-- Node21 -->
<g id="node21" class="node">
<title>Node21</title>
<g id="a_node21"><a xlink:href="dense__tensor_8h.html" target="_top" xlink:title=" ">
<polygon fill="white" stroke="black" points="583.52,-112.5 583.52,-131.5 673.52,-131.5 673.52,-112.5 583.52,-112.5"/>
<text text-anchor="middle" x="628.52" y="-119.5" font-family="Helvetica,sans-Serif" font-size="10.00">dense_tensor.h</text>
</a>
</g>
</g>
<!-- Node6&#45;&gt;Node21 -->
<g id="edge22" class="edge">
<title>Node6&#45;&gt;Node21</title>
<path fill="none" stroke="midnightblue" d="M311.53,-171.53C370.52,-161.9 499.15,-141.9 573.2,-130.82"/>
<polygon fill="midnightblue" stroke="midnightblue" points="573.9,-134.26 583.27,-129.32 572.87,-127.33 573.9,-134.26"/>
</g>
<!-- Node13&#45;&gt;Node12 -->
<g id="edge17" class="edge">
<title>Node13&#45;&gt;Node12</title>
<path fill="none" stroke="midnightblue" d="M287.4,-112.44C266.5,-103.56 233.59,-89.56 209.81,-79.45"/>
<polygon fill="midnightblue" stroke="midnightblue" points="211.12,-76.21 200.55,-75.52 208.39,-82.65 211.12,-76.21"/>
</g>
<!-- Node14 -->
<g id="node14" class="node">
<title>Node14</title>
<g id="a_node14"><a xlink:title=" ">
<polygon fill="white" stroke="#bfbfbf" points="313.52,-56.5 313.52,-75.5 345.52,-75.5 345.52,-56.5 313.52,-56.5"/>
<text text-anchor="middle" x="329.52" y="-63.5" font-family="Helvetica,sans-Serif" font-size="10.00">set</text>
</a>
</g>
</g>
<!-- Node13&#45;&gt;Node14 -->
<g id="edge13" class="edge">
<title>Node13&#45;&gt;Node14</title>
<path fill="none" stroke="midnightblue" d="M311.16,-112.08C314.14,-104.77 318.45,-94.18 322.15,-85.1"/>
<polygon fill="midnightblue" stroke="midnightblue" points="325.43,-86.33 325.96,-75.75 318.94,-83.69 325.43,-86.33"/>
</g>
<!-- Node15 -->
<g id="node15" class="node">
<title>Node15</title>
<g id="a_node15"><a xlink:title=" ">
<polygon fill="white" stroke="#bfbfbf" points="363.52,-56.5 363.52,-75.5 401.52,-75.5 401.52,-56.5 363.52,-56.5"/>
<text text-anchor="middle" x="382.52" y="-63.5" font-family="Helvetica,sans-Serif" font-size="10.00">map</text>
</a>
</g>
</g>
<!-- Node13&#45;&gt;Node15 -->
<g id="edge14" class="edge">
<title>Node13&#45;&gt;Node15</title>
<path fill="none" stroke="midnightblue" d="M319.57,-112.32C330.99,-104.11 348.35,-91.6 361.96,-81.81"/>
<polygon fill="midnightblue" stroke="midnightblue" points="364.18,-84.52 370.25,-75.83 360.09,-78.84 364.18,-84.52"/>
</g>
<!-- Node16 -->
<g id="node16" class="node">
<title>Node16</title>
<g id="a_node16"><a xlink:title=" ">
<polygon fill="white" stroke="#bfbfbf" points="621.52,-56.5 621.52,-75.5 679.52,-75.5 679.52,-56.5 621.52,-56.5"/>
<text text-anchor="middle" x="650.52" y="-63.5" font-family="Helvetica,sans-Serif" font-size="10.00">memory</text>
</a>
</g>
</g>
<!-- Node13&#45;&gt;Node16 -->
<g id="edge15" class="edge">
<title>Node13&#45;&gt;Node16</title>
<path fill="none" stroke="midnightblue" d="M333.02,-116.99C392.39,-107.64 540.17,-84.37 611.19,-73.19"/>
<polygon fill="midnightblue" stroke="midnightblue" points="612.16,-76.58 621.5,-71.57 611.07,-69.67 612.16,-76.58"/>
</g>
<!-- Node17 -->
<g id="node17" class="node">
<title>Node17</title>
<g id="a_node17"><a xlink:href="starting__traits_8h.html" target="_top" xlink:title=" ">
<polygon fill="white" stroke="black" points="287.52,-0.5 287.52,-19.5 381.52,-19.5 381.52,-0.5 287.52,-0.5"/>
<text text-anchor="middle" x="334.52" y="-7.5" font-family="Helvetica,sans-Serif" font-size="10.00">starting_traits.h</text>
</a>
</g>
</g>
<!-- Node13&#45;&gt;Node17 -->
<g id="edge16" class="edge">
<title>Node13&#45;&gt;Node17</title>
<path fill="none" stroke="midnightblue" d="M305.33,-112.36C302.51,-99.69 298.63,-75.46 304.52,-56 307.64,-45.7 313.98,-35.61 320.02,-27.6"/>
<polygon fill="midnightblue" stroke="midnightblue" points="322.75,-29.8 326.31,-19.82 317.3,-25.4 322.75,-29.8"/>
</g>
<!-- Node13&#45;&gt;Node18 -->
<g id="edge18" class="edge">
<title>Node13&#45;&gt;Node18</title>
<path fill="none" stroke="midnightblue" d="M333.11,-113.49C364.16,-104.38 416.82,-88.92 452.83,-78.35"/>
<polygon fill="midnightblue" stroke="midnightblue" points="453.91,-81.69 462.52,-75.51 451.94,-74.97 453.91,-81.69"/>
</g>
<!-- Node18&#45;&gt;Node17 -->
<g id="edge21" class="edge">
<title>Node18&#45;&gt;Node17</title>
<path fill="none" stroke="midnightblue" d="M466.65,-56.44C440.23,-47.36 398.31,-32.94 368.78,-22.78"/>
<polygon fill="midnightblue" stroke="midnightblue" points="369.88,-19.46 359.28,-19.52 367.6,-26.08 369.88,-19.46"/>
</g>
<!-- Node19 -->
<g id="node19" class="node">
<title>Node19</title>
<g id="a_node19"><a xlink:title=" ">
<polygon fill="white" stroke="#bfbfbf" points="469.52,-0.5 469.52,-19.5 513.52,-19.5 513.52,-0.5 469.52,-0.5"/>
<text text-anchor="middle" x="491.52" y="-7.5" font-family="Helvetica,sans-Serif" font-size="10.00">string</text>
</a>
</g>
</g>
<!-- Node18&#45;&gt;Node19 -->
<g id="edge19" class="edge">
<title>Node18&#45;&gt;Node19</title>
<path fill="none" stroke="midnightblue" d="M491.52,-56.08C491.52,-49.01 491.52,-38.86 491.52,-29.99"/>
<polygon fill="midnightblue" stroke="midnightblue" points="495.02,-29.75 491.52,-19.75 488.02,-29.75 495.02,-29.75"/>
</g>
<!-- Node20 -->
<g id="node20" class="node">
<title>Node20</title>
<g id="a_node20"><a xlink:title=" ">
<polygon fill="white" stroke="#bfbfbf" points="551.02,-0.5 551.02,-19.5 598.02,-19.5 598.02,-0.5 551.02,-0.5"/>
<text text-anchor="middle" x="574.52" y="-7.5" font-family="Helvetica,sans-Serif" font-size="10.00">vector</text>
</a>
</g>
</g>
<!-- Node18&#45;&gt;Node20 -->
<g id="edge20" class="edge">
<title>Node18&#45;&gt;Node20</title>
<path fill="none" stroke="midnightblue" d="M504.86,-56.32C517.68,-47.98 537.31,-35.21 552.46,-25.35"/>
<polygon fill="midnightblue" stroke="midnightblue" points="554.75,-28.04 561.22,-19.65 550.93,-22.17 554.75,-28.04"/>
</g>
<!-- Node21&#45;&gt;Node6 -->
<g id="edge28" class="edge">
<title>Node21&#45;&gt;Node6</title>
<path fill="none" stroke="midnightblue" d="M583.46,-130.75C515.34,-141.73 387.42,-161.55 321.67,-171.29"/>
<polygon fill="midnightblue" stroke="midnightblue" points="321.06,-167.84 311.67,-172.76 322.08,-174.77 321.06,-167.84"/>
</g>
<!-- Node21&#45;&gt;Node18 -->
<g id="edge23" class="edge">
<title>Node21&#45;&gt;Node18</title>
<path fill="none" stroke="midnightblue" d="M606.81,-112.44C584.17,-103.52 548.45,-89.44 522.77,-79.32"/>
<polygon fill="midnightblue" stroke="midnightblue" points="523.72,-75.93 513.13,-75.52 521.15,-82.44 523.72,-75.93"/>
</g>
<!-- Node21&#45;&gt;Node20 -->
<g id="edge29" class="edge">
<title>Node21&#45;&gt;Node20</title>
<path fill="none" stroke="midnightblue" d="M624.29,-112.37C615.45,-94.38 594.92,-52.55 583.18,-28.63"/>
<polygon fill="midnightblue" stroke="midnightblue" points="586.29,-27.03 578.74,-19.59 580.01,-30.11 586.29,-27.03"/>
</g>
<!-- Node22 -->
<g id="node22" class="node">
<title>Node22</title>
<g id="a_node22"><a xlink:href="variant__attribute_8h.html" target="_top" xlink:title=" ">
<polygon fill="white" stroke="black" points="698.02,-56.5 698.02,-75.5 805.02,-75.5 805.02,-56.5 698.02,-56.5"/>
<text text-anchor="middle" x="751.52" y="-63.5" font-family="Helvetica,sans-Serif" font-size="10.00">variant_attribute.h</text>
</a>
</g>
</g>
<!-- Node21&#45;&gt;Node22 -->
<g id="edge24" class="edge">
<title>Node21&#45;&gt;Node22</title>
<path fill="none" stroke="midnightblue" d="M648.01,-112.44C668.17,-103.6 699.85,-89.69 722.85,-79.59"/>
<polygon fill="midnightblue" stroke="midnightblue" points="724.37,-82.74 732.12,-75.52 721.56,-76.33 724.37,-82.74"/>
</g>
<!-- Node22&#45;&gt;Node19 -->
<g id="edge25" class="edge">
<title>Node22&#45;&gt;Node19</title>
<path fill="none" stroke="midnightblue" d="M710.33,-56.44C658.54,-45.69 570.75,-27.45 523.65,-17.67"/>
<polygon fill="midnightblue" stroke="midnightblue" points="524.2,-14.21 513.69,-15.6 522.77,-21.07 524.2,-14.21"/>
</g>
<!-- Node22&#45;&gt;Node20 -->
<g id="edge27" class="edge">
<title>Node22&#45;&gt;Node20</title>
<path fill="none" stroke="midnightblue" d="M723.48,-56.44C692.12,-46.88 641.35,-31.39 607.96,-21.2"/>
<polygon fill="midnightblue" stroke="midnightblue" points="608.78,-17.79 598.19,-18.22 606.73,-24.49 608.78,-17.79"/>
</g>
<!-- Node23 -->
<g id="node23" class="node">
<title>Node23</title>
<g id="a_node23"><a xlink:title=" ">
<polygon fill="white" stroke="#bfbfbf" points="726.02,-0.5 726.02,-19.5 777.02,-19.5 777.02,-0.5 726.02,-0.5"/>
<text text-anchor="middle" x="751.52" y="-7.5" font-family="Helvetica,sans-Serif" font-size="10.00">variant</text>
</a>
</g>
</g>
<!-- Node22&#45;&gt;Node23 -->
<g id="edge26" class="edge">
<title>Node22&#45;&gt;Node23</title>
<path fill="none" stroke="midnightblue" d="M751.52,-56.08C751.52,-49.01 751.52,-38.86 751.52,-29.99"/>
<polygon fill="midnightblue" stroke="midnightblue" points="755.02,-29.75 751.52,-19.75 748.02,-29.75 755.02,-29.75"/>
</g>
<!-- Node25 -->
<g id="node25" class="node">
<title>Node25</title>
<g id="a_node25"><a xlink:href="mwgraph_8h.html" target="_top" xlink:title=" ">
<polygon fill="white" stroke="black" points="456.02,-336.5 456.02,-355.5 527.02,-355.5 527.02,-336.5 456.02,-336.5"/>
<text text-anchor="middle" x="491.52" y="-343.5" font-family="Helvetica,sans-Serif" font-size="10.00">mwgraph.h</text>
</a>
</g>
</g>
<!-- Node24&#45;&gt;Node25 -->
<g id="edge32" class="edge">
<title>Node24&#45;&gt;Node25</title>
<path fill="none" stroke="midnightblue" d="M443.68,-392.32C452.02,-384.42 464.56,-372.55 474.7,-362.94"/>
<polygon fill="midnightblue" stroke="midnightblue" points="477.35,-365.25 482.2,-355.83 472.53,-360.17 477.35,-365.25"/>
</g>
<!-- Node31 -->
<g id="node31" class="node">
<title>Node31</title>
<g id="a_node31"><a xlink:href="weighted__graph_8h.html" target="_top" xlink:title=" ">
<polygon fill="white" stroke="black" points="369.52,-280.5 369.52,-299.5 473.52,-299.5 473.52,-280.5 369.52,-280.5"/>
<text text-anchor="middle" x="421.52" y="-287.5" font-family="Helvetica,sans-Serif" font-size="10.00">weighted_graph.h</text>
</a>
</g>
</g>
<!-- Node24&#45;&gt;Node31 -->
<g id="edge52" class="edge">
<title>Node24&#45;&gt;Node31</title>
<path fill="none" stroke="midnightblue" d="M433.5,-392.37C431.4,-374.62 426.57,-333.67 423.72,-309.6"/>
<polygon fill="midnightblue" stroke="midnightblue" points="427.19,-309.11 422.54,-299.59 420.24,-309.93 427.19,-309.11"/>
</g>
<!-- Node26 -->
<g id="node26" class="node">
<title>Node26</title>
<g id="a_node26"><a xlink:href="graph_8h.html" target="_top" xlink:title=" ">
<polygon fill="white" stroke="black" points="529.02,-280.5 529.02,-299.5 582.02,-299.5 582.02,-280.5 529.02,-280.5"/>
<text text-anchor="middle" x="555.52" y="-287.5" font-family="Helvetica,sans-Serif" font-size="10.00">graph.h</text>
</a>
</g>
</g>
<!-- Node25&#45;&gt;Node26 -->
<g id="edge33" class="edge">
<title>Node25&#45;&gt;Node26</title>
<path fill="none" stroke="midnightblue" d="M501.81,-336.32C511.36,-328.26 525.8,-316.08 537.31,-306.37"/>
<polygon fill="midnightblue" stroke="midnightblue" points="539.67,-308.96 545.05,-299.83 535.15,-303.61 539.67,-308.96"/>
</g>
<!-- Node26&#45;&gt;Node7 -->
<g id="edge34" class="edge">
<title>Node26&#45;&gt;Node7</title>
<path fill="none" stroke="midnightblue" d="M548.32,-280.08C526.86,-253.49 463.13,-174.54 435.05,-139.76"/>
<polygon fill="midnightblue" stroke="midnightblue" points="437.44,-137.15 428.44,-131.57 432,-141.55 437.44,-137.15"/>
</g>
<!-- Node26&#45;&gt;Node8 -->
<g id="edge35" class="edge">
<title>Node26&#45;&gt;Node8</title>
<path fill="none" stroke="midnightblue" d="M552.51,-280.08C543.66,-253.83 517.59,-176.55 505.63,-141.12"/>
<polygon fill="midnightblue" stroke="midnightblue" points="508.93,-139.92 502.41,-131.57 502.29,-142.16 508.93,-139.92"/>
</g>
<!-- Node26&#45;&gt;Node12 -->
<g id="edge38" class="edge">
<title>Node26&#45;&gt;Node12</title>
<path fill="none" stroke="midnightblue" d="M528.92,-285.58C428.23,-272.03 72.82,-218.64 7.52,-132 -27.8,-85.13 75.68,-72.06 137.64,-68.41"/>
<polygon fill="midnightblue" stroke="midnightblue" points="138.14,-71.89 147.94,-67.87 137.77,-64.9 138.14,-71.89"/>
</g>
<!-- Node26&#45;&gt;Node20 -->
<g id="edge37" class="edge">
<title>Node26&#45;&gt;Node20</title>
<path fill="none" stroke="midnightblue" d="M555.52,-280.44C555.52,-261.94 555.52,-216.81 555.52,-179 555.52,-179 555.52,-179 555.52,-121 555.52,-88.49 563.68,-51.35 569.31,-29.61"/>
<polygon fill="midnightblue" stroke="midnightblue" points="572.74,-30.32 571.96,-19.75 565.98,-28.5 572.74,-30.32"/>
</g>
<!-- Node27 -->
<g id="node27" class="node">
<title>Node27</title>
<g id="a_node27"><a xlink:title=" ">
<polygon fill="white" stroke="#bfbfbf" points="692.02,-112.5 692.02,-131.5 737.02,-131.5 737.02,-112.5 692.02,-112.5"/>
<text text-anchor="middle" x="714.52" y="-119.5" font-family="Helvetica,sans-Serif" font-size="10.00">utility</text>
</a>
</g>
</g>
<!-- Node26&#45;&gt;Node27 -->
<g id="edge36" class="edge">
<title>Node26&#45;&gt;Node27</title>
<path fill="none" stroke="midnightblue" d="M560.61,-280.29C573.22,-259.23 607.67,-204.58 646.52,-168 659.42,-155.86 675.95,-144.83 689.49,-136.74"/>
<polygon fill="midnightblue" stroke="midnightblue" points="691.41,-139.67 698.3,-131.62 687.89,-133.62 691.41,-139.67"/>
</g>
<!-- Node28 -->
<g id="node28" class="node">
<title>Node28</title>
<g id="a_node28"><a xlink:href="content_8h.html" target="_top" xlink:title=" ">
<polygon fill="white" stroke="black" points="869.52,-168.5 869.52,-187.5 931.52,-187.5 931.52,-168.5 869.52,-168.5"/>
<text text-anchor="middle" x="900.52" y="-175.5" font-family="Helvetica,sans-Serif" font-size="10.00">content.h</text>
</a>
</g>
</g>
<!-- Node26&#45;&gt;Node28 -->
<g id="edge39" class="edge">
<title>Node26&#45;&gt;Node28</title>
<path fill="none" stroke="midnightblue" d="M582.12,-287.16C644.56,-282.48 798.63,-268.7 843.52,-244 863.78,-232.86 880.29,-211.59 890.24,-196.42"/>
<polygon fill="midnightblue" stroke="midnightblue" points="893.23,-198.24 895.55,-187.9 887.29,-194.53 893.23,-198.24"/>
</g>
<!-- Node29 -->
<g id="node29" class="node">
<title>Node29</title>
<g id="a_node29"><a xlink:href="node_8h.html" target="_top" xlink:title=" ">
<polygon fill="white" stroke="black" points="655.52,-168.5 655.52,-187.5 705.52,-187.5 705.52,-168.5 655.52,-168.5"/>
<text text-anchor="middle" x="680.52" y="-175.5" font-family="Helvetica,sans-Serif" font-size="10.00">node.h</text>
</a>
</g>
</g>
<!-- Node26&#45;&gt;Node29 -->
<g id="edge42" class="edge">
<title>Node26&#45;&gt;Node29</title>
<path fill="none" stroke="midnightblue" d="M571.2,-280.49C585.78,-272.19 607.73,-258.69 624.52,-244 641.26,-229.36 657.52,-209.69 668.17,-195.83"/>
<polygon fill="midnightblue" stroke="midnightblue" points="671.09,-197.77 674.3,-187.68 665.5,-193.56 671.09,-197.77"/>
</g>
<!-- Node30 -->
<g id="node30" class="node">
<title>Node30</title>
<g id="a_node30"><a xlink:href="node__traits_8h.html" target="_top" xlink:title=" ">
<polygon fill="white" stroke="black" points="754.52,-224.5 754.52,-243.5 834.52,-243.5 834.52,-224.5 754.52,-224.5"/>
<text text-anchor="middle" x="794.52" y="-231.5" font-family="Helvetica,sans-Serif" font-size="10.00">node_traits.h</text>
</a>
</g>
</g>
<!-- Node26&#45;&gt;Node30 -->
<g id="edge47" class="edge">
<title>Node26&#45;&gt;Node30</title>
<path fill="none" stroke="midnightblue" d="M582.47,-282.91C622.33,-273.9 697.59,-256.9 746.89,-245.76"/>
<polygon fill="midnightblue" stroke="midnightblue" points="747.7,-249.17 756.69,-243.55 746.16,-242.34 747.7,-249.17"/>
</g>
<!-- Node28&#45;&gt;Node21 -->
<g id="edge40" class="edge">
<title>Node28&#45;&gt;Node21</title>
<path fill="none" stroke="midnightblue" d="M869.32,-170.81C823.47,-161.7 737.31,-144.6 681.45,-133.51"/>
<polygon fill="midnightblue" stroke="midnightblue" points="681.88,-130.03 671.39,-131.51 680.52,-136.89 681.88,-130.03"/>
</g>
<!-- Node28&#45;&gt;Node22 -->
<g id="edge41" class="edge">
<title>Node28&#45;&gt;Node22</title>
<path fill="none" stroke="midnightblue" d="M896.48,-168.27C889.75,-154.59 875.05,-128.01 855.52,-112 837.22,-96.99 813.15,-86.15 792.78,-78.88"/>
<polygon fill="midnightblue" stroke="midnightblue" points="793.71,-75.5 783.11,-75.59 791.45,-82.12 793.71,-75.5"/>
</g>
<!-- Node29&#45;&gt;Node13 -->
<g id="edge44" class="edge">
<title>Node29&#45;&gt;Node13</title>
<path fill="none" stroke="midnightblue" d="M655.47,-173.37C590.88,-164.02 418.54,-139.07 343.39,-128.19"/>
<polygon fill="midnightblue" stroke="midnightblue" points="343.85,-124.72 333.45,-126.75 342.85,-131.65 343.85,-124.72"/>
</g>
<!-- Node29&#45;&gt;Node16 -->
<g id="edge45" class="edge">
<title>Node29&#45;&gt;Node16</title>
<path fill="none" stroke="midnightblue" d="M701.54,-168.34C726.06,-156.91 761.45,-135.48 746.52,-112 739.49,-100.94 710.59,-88.26 686.31,-79.19"/>
<polygon fill="midnightblue" stroke="midnightblue" points="687.21,-75.79 676.61,-75.66 684.81,-82.37 687.21,-75.79"/>
</g>
<!-- Node29&#45;&gt;Node21 -->
<g id="edge43" class="edge">
<title>Node29&#45;&gt;Node21</title>
<path fill="none" stroke="midnightblue" d="M671.94,-168.08C664.36,-160.22 653.14,-148.57 644.01,-139.08"/>
<polygon fill="midnightblue" stroke="midnightblue" points="646.41,-136.53 636.95,-131.75 641.37,-141.38 646.41,-136.53"/>
</g>
<!-- Node29&#45;&gt;Node27 -->
<g id="edge46" class="edge">
<title>Node29&#45;&gt;Node27</title>
<path fill="none" stroke="midnightblue" d="M686.14,-168.08C690.89,-160.53 697.84,-149.49 703.67,-140.23"/>
<polygon fill="midnightblue" stroke="midnightblue" points="706.65,-142.08 709.01,-131.75 700.72,-138.35 706.65,-142.08"/>
</g>
<!-- Node30&#45;&gt;Node16 -->
<g id="edge48" class="edge">
<title>Node30&#45;&gt;Node16</title>
<path fill="none" stroke="midnightblue" d="M800.27,-224.34C813.7,-202.9 844.05,-146.63 817.52,-112 813.55,-106.81 737.73,-87.86 689.63,-76.27"/>
<polygon fill="midnightblue" stroke="midnightblue" points="690.36,-72.85 679.82,-73.92 688.73,-79.66 690.36,-72.85"/>
</g>
<!-- Node30&#45;&gt;Node18 -->
<g id="edge51" class="edge">
<title>Node30&#45;&gt;Node18</title>
<path fill="none" stroke="midnightblue" d="M793.87,-224.32C791.7,-201.84 782.61,-141.41 746.52,-112 715.17,-86.44 601.86,-74.58 537.33,-69.79"/>
<polygon fill="midnightblue" stroke="midnightblue" points="537.25,-66.27 527.03,-69.05 536.76,-73.25 537.25,-66.27"/>
</g>
<!-- Node30&#45;&gt;Node28 -->
<g id="edge49" class="edge">
<title>Node30&#45;&gt;Node28</title>
<path fill="none" stroke="midnightblue" d="M811.55,-224.32C828.55,-215.66 854.9,-202.24 874.52,-192.25"/>
<polygon fill="midnightblue" stroke="midnightblue" points="876.21,-195.31 883.53,-187.65 873.04,-189.08 876.21,-195.31"/>
</g>
<!-- Node30&#45;&gt;Node29 -->
<g id="edge50" class="edge">
<title>Node30&#45;&gt;Node29</title>
<path fill="none" stroke="midnightblue" d="M776.46,-224.44C757.95,-215.68 728.94,-201.94 707.67,-191.86"/>
<polygon fill="midnightblue" stroke="midnightblue" points="709.04,-188.63 698.5,-187.52 706.04,-194.96 709.04,-188.63"/>
</g>
<!-- Node31&#45;&gt;Node13 -->
<g id="edge53" class="edge">
<title>Node31&#45;&gt;Node13</title>
<path fill="none" stroke="midnightblue" d="M417.68,-280.28C408.36,-259.63 383.14,-206.63 353.52,-168 345.3,-157.28 334.58,-146.64 325.55,-138.4"/>
<polygon fill="midnightblue" stroke="midnightblue" points="327.67,-135.6 317.86,-131.58 323.02,-140.83 327.67,-135.6"/>
</g>
<!-- Node32&#45;&gt;Node13 -->
<g id="edge63" class="edge">
<title>Node32&#45;&gt;Node13</title>
<path fill="none" stroke="midnightblue" d="M406.18,-560.28C383.96,-543.45 339.52,-504.14 339.52,-459 339.52,-459 339.52,-459 339.52,-233 339.52,-199.33 325.53,-162.08 316.05,-140.72"/>
<polygon fill="midnightblue" stroke="midnightblue" points="319.2,-139.21 311.84,-131.59 312.85,-142.14 319.2,-139.21"/>
</g>
<!-- Node33 -->
<g id="node33" class="node">
<title>Node33</title>
<g id="a_node33"><a xlink:href="graph__traits_8h.html" target="_top" xlink:title=" ">
<polygon fill="white" stroke="black" points="471.52,-448.5 471.52,-467.5 555.52,-467.5 555.52,-448.5 471.52,-448.5"/>
<text text-anchor="middle" x="513.52" y="-455.5" font-family="Helvetica,sans-Serif" font-size="10.00">graph_traits.h</text>
</a>
</g>
</g>
<!-- Node32&#45;&gt;Node33 -->
<g id="edge55" class="edge">
<title>Node32&#45;&gt;Node33</title>
<path fill="none" stroke="midnightblue" d="M429.53,-560.35C440.14,-551.75 456.33,-537.85 468.52,-524 481.66,-509.08 494.33,-490.23 502.87,-476.68"/>
<polygon fill="midnightblue" stroke="midnightblue" points="506.02,-478.23 508.3,-467.88 500.07,-474.56 506.02,-478.23"/>
</g>
<!-- Node34 -->
<g id="node34" class="node">
<title>Node34</title>
<g id="a_node34"><a xlink:href="parameters_8h.html" target="_top" xlink:title=" ">
<polygon fill="white" stroke="black" points="377.52,-504.5 377.52,-523.5 459.52,-523.5 459.52,-504.5 377.52,-504.5"/>
<text text-anchor="middle" x="418.52" y="-511.5" font-family="Helvetica,sans-Serif" font-size="10.00">parameters.h</text>
</a>
</g>
</g>
<!-- Node32&#45;&gt;Node34 -->
<g id="edge60" class="edge">
<title>Node32&#45;&gt;Node34</title>
<path fill="none" stroke="midnightblue" d="M418.52,-560.08C418.52,-553.01 418.52,-542.86 418.52,-533.99"/>
<polygon fill="midnightblue" stroke="midnightblue" points="422.02,-533.75 418.52,-523.75 415.02,-533.75 422.02,-533.75"/>
</g>
<!-- Node33&#45;&gt;Node24 -->
<g id="edge58" class="edge">
<title>Node33&#45;&gt;Node24</title>
<path fill="none" stroke="midnightblue" d="M500.83,-448.32C488.62,-439.98 469.94,-427.21 455.52,-417.35"/>
<polygon fill="midnightblue" stroke="midnightblue" points="457.41,-414.41 447.18,-411.65 453.46,-420.19 457.41,-414.41"/>
</g>
<!-- Node33&#45;&gt;Node25 -->
<g id="edge57" class="edge">
<title>Node33&#45;&gt;Node25</title>
<path fill="none" stroke="midnightblue" d="M511.8,-448.37C508.25,-430.62 500.06,-389.67 495.24,-365.6"/>
<polygon fill="midnightblue" stroke="midnightblue" points="498.63,-364.71 493.24,-355.59 491.77,-366.08 498.63,-364.71"/>
</g>
<!-- Node33&#45;&gt;Node26 -->
<g id="edge56" class="edge">
<title>Node33&#45;&gt;Node26</title>
<path fill="none" stroke="midnightblue" d="M515.78,-448.08C522.39,-421.95 541.81,-345.21 550.82,-309.58"/>
<polygon fill="midnightblue" stroke="midnightblue" points="554.3,-310.12 553.35,-299.57 547.51,-308.4 554.3,-310.12"/>
</g>
<!-- Node33&#45;&gt;Node28 -->
<g id="edge59" class="edge">
<title>Node33&#45;&gt;Node28</title>
<path fill="none" stroke="midnightblue" d="M555.68,-453.99C655.98,-445.66 900.52,-418.07 900.52,-347 900.52,-347 900.52,-347 900.52,-289 900.52,-256.95 900.52,-219.64 900.52,-197.75"/>
<polygon fill="midnightblue" stroke="midnightblue" points="904.02,-197.56 900.52,-187.56 897.02,-197.56 904.02,-197.56"/>
</g>
<!-- Node34&#45;&gt;Node33 -->
<g id="edge61" class="edge">
<title>Node34&#45;&gt;Node33</title>
<path fill="none" stroke="midnightblue" d="M433.79,-504.32C448.74,-495.82 471.78,-482.73 489.25,-472.8"/>
<polygon fill="midnightblue" stroke="midnightblue" points="491.33,-475.64 498.3,-467.65 487.87,-469.55 491.33,-475.64"/>
</g>
<!-- Node35 -->
<g id="node35" class="node">
<title>Node35</title>
<g id="a_node35"><a xlink:href="ksp__method_8h.html" target="_top" xlink:title=" ">
<polygon fill="white" stroke="black" points="367.52,-448.5 367.52,-467.5 453.52,-467.5 453.52,-448.5 367.52,-448.5"/>
<text text-anchor="middle" x="410.52" y="-455.5" font-family="Helvetica,sans-Serif" font-size="10.00">ksp_method.h</text>
</a>
</g>
</g>
<!-- Node34&#45;&gt;Node35 -->
<g id="edge62" class="edge">
<title>Node34&#45;&gt;Node35</title>
<path fill="none" stroke="midnightblue" d="M417.2,-504.08C416.14,-496.93 414.62,-486.64 413.29,-477.69"/>
<polygon fill="midnightblue" stroke="midnightblue" points="416.75,-477.13 411.82,-467.75 409.82,-478.16 416.75,-477.13"/>
</g>
<!-- Node36&#45;&gt;Node6 -->
<g id="edge66" class="edge">
<title>Node36&#45;&gt;Node6</title>
<path fill="none" stroke="midnightblue" d="M155.09,-560.48C158.34,-542.04 165.52,-497.04 165.52,-459 165.52,-459 165.52,-459 165.52,-289 165.52,-241.9 216.52,-208.75 250.59,-191.86"/>
<polygon fill="midnightblue" stroke="midnightblue" points="252.17,-194.98 259.7,-187.53 249.16,-188.66 252.17,-194.98"/>
</g>
<!-- Node36&#45;&gt;Node13 -->
<g id="edge65" class="edge">
<title>Node36&#45;&gt;Node13</title>
<path fill="none" stroke="midnightblue" d="M150.02,-560.32C142.92,-541.96 127.52,-497.66 127.52,-459 127.52,-459 127.52,-459 127.52,-233 127.52,-198.77 223.52,-155.87 275.3,-135.22"/>
<polygon fill="midnightblue" stroke="midnightblue" points="276.7,-138.43 284.73,-131.51 274.14,-131.92 276.7,-138.43"/>
</g>
<!-- Node37&#45;&gt;Node32 -->
<g id="edge68" class="edge">
<title>Node37&#45;&gt;Node32</title>
<path fill="none" stroke="midnightblue" d="M356.41,-616.32C367.67,-608.11 384.81,-595.6 398.23,-585.81"/>
<polygon fill="midnightblue" stroke="midnightblue" points="400.4,-588.56 406.42,-579.83 396.28,-582.9 400.4,-588.56"/>
</g>
<!-- Node37&#45;&gt;Node36 -->
<g id="edge69" class="edge">
<title>Node37&#45;&gt;Node36</title>
<path fill="none" stroke="midnightblue" d="M314.26,-616.44C281.57,-607.2 229.34,-592.44 193.34,-582.26"/>
<polygon fill="midnightblue" stroke="midnightblue" points="194.22,-578.87 183.65,-579.52 192.32,-585.61 194.22,-578.87"/>
</g>
</g>
</svg>
        <g id="navigator" transform="translate(0 0)" fill="#404254">
                <rect fill="#f2f5e9" fill-opacity="0.5" stroke="#606060" stroke-width=".5" x="0" y="0" width="60" height="60"/>
                <use id="zoomplus" xlink:href="#zoomPlus" x="17" y="9" onmousedown="handleZoom(evt,'in')"/>
                <use id="zoomminus" xlink:href="#zoomMin" x="42" y="9" onmousedown="handleZoom(evt,'out')"/>
                <use id="reset" xlink:href="#resetDef" x="30" y="36" onmousedown="handleReset()"/>
                <g id="arrowUp" xlink:href="#dirArrow" transform="translate(30 24)" onmousedown="handlePan(0,-1)">
                  <use xlink:href="#rim" fill="#404040">
                        <set attributeName="fill" to="#808080" begin="arrowUp.mouseover" end="arrowUp.mouseout"/>
                  </use>
                  <path fill="none" stroke="white" stroke-width="1.5" d="M0,-3.0v7 M-2.5,-0.5L0,-3.0L2.5,-0.5"/>
                </g>
                <g id="arrowRight" xlink:href="#dirArrow" transform="rotate(90) translate(36 -43)" onmousedown="handlePan(1,0)">
                  <use xlink:href="#rim" fill="#404040">
                        <set attributeName="fill" to="#808080" begin="arrowRight.mouseover" end="arrowRight.mouseout"/>
                  </use>
                  <path fill="none" stroke="white" stroke-width="1.5" d="M0,-3.0v7 M-2.5,-0.5L0,-3.0L2.5,-0.5"/>
                </g>
                <g id="arrowDown" xlink:href="#dirArrow" transform="rotate(180) translate(-30 -48)" onmousedown="handlePan(0,1)">
                  <use xlink:href="#rim" fill="#404040">
                        <set attributeName="fill" to="#808080" begin="arrowDown.mouseover" end="arrowDown.mouseout"/>
                  </use>
                  <path fill="none" stroke="white" stroke-width="1.5" d="M0,-3.0v7 M-2.5,-0.5L0,-3.0L2.5,-0.5"/>
                </g>
                <g id="arrowLeft" xlink:href="#dirArrow" transform="rotate(270) translate(-36 17)" onmousedown="handlePan(-1,0)">
                  <use xlink:href="#rim" fill="#404040">
                        <set attributeName="fill" to="#808080" begin="arrowLeft.mouseover" end="arrowLeft.mouseout"/>
                  </use>
                  <path fill="none" stroke="white" stroke-width="1.5" d="M0,-3.0v7 M-2.5,-0.5L0,-3.0L2.5,-0.5"/>
                </g>
        </g>
        <svg viewBox="0 0 15 15" width="100%" height="30px" preserveAspectRatio="xMaxYMin meet">
         <g id="arrow_out" transform="scale(0.3 0.3)">
          <a xlink:href="weight__importers_8h__incl_org.svg" target="_base">
           <rect id="button" ry="5" rx="5" y="6" x="6" height="38" width="38"
                fill="#f2f5e9" fill-opacity="0.5" stroke="#606060" stroke-width="1.0"/>
           <path id="arrow"
             d="M 11.500037,31.436501 C 11.940474,20.09759 22.043105,11.32322 32.158766,21.979434 L 37.068811,17.246167 C 37.068811,17.246167 37.088388,32 37.088388,32 L 22.160133,31.978069 C 22.160133,31.978069 26.997745,27.140456 26.997745,27.140456 C 18.528582,18.264221 13.291696,25.230495 11.500037,31.436501 z"
             style="fill:#404040;"/>
          </a>
         </g>
        </svg>
</svg>
