<?xml version="1.0" encoding="UTF-8" standalone="no"?>
<!DOCTYPE svg PUBLIC "-//W3C//DTD SVG 1.1//EN"
 "http://www.w3.org/Graphics/SVG/1.1/DTD/svg11.dtd">
<!-- Generated by graphviz version 2.43.0 (0)
 -->
<!-- Title: include/network_butcher/IO_Interaction/Weight_Importer_Helpers/weight_importer_utils.h Pages: 1 -->
<svg width="749pt" height="318pt"
 viewBox="0.00 0.00 749.00 318.00" xmlns="http://www.w3.org/2000/svg" xmlns:xlink="http://www.w3.org/1999/xlink">
<g id="graph0" class="graph" transform="scale(1 1) rotate(0) translate(4 314)">
<title>include/network_butcher/IO_Interaction/Weight_Importer_Helpers/weight_importer_utils.h</title>
<polygon fill="white" stroke="transparent" points="-4,4 -4,-314 745,-314 745,4 -4,4"/>
<!-- Node1 -->
<g id="node1" class="node">
<title>Node1</title>
<g id="a_node1"><a xlink:title=" ">
<polygon fill="#bfbfbf" stroke="black" points="168.5,-257.5 168.5,-309.5 311.5,-309.5 311.5,-257.5 168.5,-257.5"/>
<text text-anchor="start" x="176.5" y="-297.5" font-family="Helvetica,sans-Serif" font-size="10.00">include/network_butcher</text>
<text text-anchor="start" x="176.5" y="-286.5" font-family="Helvetica,sans-Serif" font-size="10.00">/IO_Interaction/Weight</text>
<text text-anchor="start" x="176.5" y="-275.5" font-family="Helvetica,sans-Serif" font-size="10.00">_Importer_Helpers/weight</text>
<text text-anchor="middle" x="240" y="-264.5" font-family="Helvetica,sans-Serif" font-size="10.00">_importer_utils.h</text>
</a>
</g>
</g>
<!-- Node2 -->
<g id="node2" class="node">
<title>Node2</title>
<g id="a_node2"><a xlink:href="traits_8h.html" target="_top" xlink:title=" ">
<polygon fill="white" stroke="black" points="5,-134.5 5,-164.5 133,-164.5 133,-134.5 5,-134.5"/>
<text text-anchor="start" x="13" y="-152.5" font-family="Helvetica,sans-Serif" font-size="10.00">network_butcher/Traits</text>
<text text-anchor="middle" x="69" y="-141.5" font-family="Helvetica,sans-Serif" font-size="10.00">/traits.h</text>
</a>
</g>
</g>
<!-- Node1&#45;&gt;Node2 -->
<g id="edge1" class="edge">
<title>Node1&#45;&gt;Node2</title>
<path fill="none" stroke="midnightblue" d="M207.43,-257.36C174.84,-232.2 125.32,-193.98 95.18,-170.71"/>
<polygon fill="midnightblue" stroke="midnightblue" points="97.28,-167.91 87.23,-164.57 93.01,-173.45 97.28,-167.91"/>
</g>
<!-- Node11 -->
<g id="node11" class="node">
<title>Node11</title>
<g id="a_node11"><a xlink:href="utilities_8h.html" target="_top" xlink:title=" ">
<polygon fill="white" stroke="black" points="336.5,-201.5 336.5,-220.5 483.5,-220.5 483.5,-201.5 336.5,-201.5"/>
<text text-anchor="middle" x="410" y="-208.5" font-family="Helvetica,sans-Serif" font-size="10.00">network_butcher/utilities.h</text>
</a>
</g>
</g>
<!-- Node1&#45;&gt;Node11 -->
<g id="edge11" class="edge">
<title>Node1&#45;&gt;Node11</title>
<path fill="none" stroke="midnightblue" d="M300.41,-257.45C327.39,-246.26 357.99,-233.57 379.98,-224.45"/>
<polygon fill="midnightblue" stroke="midnightblue" points="381.54,-227.59 389.44,-220.53 378.86,-221.12 381.54,-227.59"/>
</g>
<!-- Node3 -->
<g id="node3" class="node">
<title>Node3</title>
<g id="a_node3"><a xlink:title=" ">
<polygon fill="white" stroke="#bfbfbf" points="0,-73 0,-92 32,-92 32,-73 0,-73"/>
<text text-anchor="middle" x="16" y="-80" font-family="Helvetica,sans-Serif" font-size="10.00">set</text>
</a>
</g>
</g>
<!-- Node2&#45;&gt;Node3 -->
<g id="edge2" class="edge">
<title>Node2&#45;&gt;Node3</title>
<path fill="none" stroke="midnightblue" d="M57.5,-134.4C49.32,-124.36 38.29,-110.84 29.66,-100.25"/>
<polygon fill="midnightblue" stroke="midnightblue" points="32.12,-97.73 23.09,-92.19 26.7,-102.16 32.12,-97.73"/>
</g>
<!-- Node4 -->
<g id="node4" class="node">
<title>Node4</title>
<g id="a_node4"><a xlink:title=" ">
<polygon fill="white" stroke="#bfbfbf" points="50,-73 50,-92 88,-92 88,-73 50,-73"/>
<text text-anchor="middle" x="69" y="-80" font-family="Helvetica,sans-Serif" font-size="10.00">map</text>
</a>
</g>
</g>
<!-- Node2&#45;&gt;Node4 -->
<g id="edge3" class="edge">
<title>Node2&#45;&gt;Node4</title>
<path fill="none" stroke="midnightblue" d="M69,-134.4C69,-125.06 69,-112.71 69,-102.52"/>
<polygon fill="midnightblue" stroke="midnightblue" points="72.5,-102.19 69,-92.19 65.5,-102.19 72.5,-102.19"/>
</g>
<!-- Node5 -->
<g id="node5" class="node">
<title>Node5</title>
<g id="a_node5"><a xlink:title=" ">
<polygon fill="white" stroke="#bfbfbf" points="106,-73 106,-92 164,-92 164,-73 106,-73"/>
<text text-anchor="middle" x="135" y="-80" font-family="Helvetica,sans-Serif" font-size="10.00">memory</text>
</a>
</g>
</g>
<!-- Node2&#45;&gt;Node5 -->
<g id="edge4" class="edge">
<title>Node2&#45;&gt;Node5</title>
<path fill="none" stroke="midnightblue" d="M83.32,-134.4C93.82,-124.06 108.07,-110.02 118.95,-99.31"/>
<polygon fill="midnightblue" stroke="midnightblue" points="121.5,-101.71 126.17,-92.19 116.59,-96.72 121.5,-101.71"/>
</g>
<!-- Node6 -->
<g id="node6" class="node">
<title>Node6</title>
<g id="a_node6"><a xlink:href="starting__traits_8h.html" target="_top" xlink:title=" ">
<polygon fill="white" stroke="black" points="212,-0.5 212,-30.5 340,-30.5 340,-0.5 212,-0.5"/>
<text text-anchor="start" x="220" y="-18.5" font-family="Helvetica,sans-Serif" font-size="10.00">network_butcher/Traits</text>
<text text-anchor="middle" x="276" y="-7.5" font-family="Helvetica,sans-Serif" font-size="10.00">/starting_traits.h</text>
</a>
</g>
</g>
<!-- Node2&#45;&gt;Node6 -->
<g id="edge5" class="edge">
<title>Node2&#45;&gt;Node6</title>
<path fill="none" stroke="midnightblue" d="M102.77,-134.35C123.61,-125.08 150.56,-112.09 173,-98 202.02,-79.77 232.47,-54.86 252.66,-37.39"/>
<polygon fill="midnightblue" stroke="midnightblue" points="255.17,-39.85 260.4,-30.63 250.56,-34.58 255.17,-39.85"/>
</g>
<!-- Node7 -->
<g id="node7" class="node">
<title>Node7</title>
<g id="a_node7"><a xlink:href="type__info_8h.html" target="_top" xlink:title=" ">
<polygon fill="white" stroke="black" points="380.5,-67.5 380.5,-97.5 509.5,-97.5 509.5,-67.5 380.5,-67.5"/>
<text text-anchor="start" x="388.5" y="-85.5" font-family="Helvetica,sans-Serif" font-size="10.00">network_butcher/Types</text>
<text text-anchor="middle" x="445" y="-74.5" font-family="Helvetica,sans-Serif" font-size="10.00">/type_info.h</text>
</a>
</g>
</g>
<!-- Node2&#45;&gt;Node7 -->
<g id="edge6" class="edge">
<title>Node2&#45;&gt;Node7</title>
<path fill="none" stroke="midnightblue" d="M133.07,-135.64C136.09,-135.07 139.07,-134.53 142,-134 241.24,-116.17 266.63,-115.1 366,-98 367.46,-97.75 368.94,-97.49 370.42,-97.23"/>
<polygon fill="midnightblue" stroke="midnightblue" points="371.11,-100.67 380.35,-95.49 369.9,-93.77 371.11,-100.67"/>
</g>
<!-- Node10 -->
<g id="node10" class="node">
<title>Node10</title>
<g id="a_node10"><a xlink:title=" ">
<polygon fill="white" stroke="#bfbfbf" points="232.5,-67.5 232.5,-97.5 357.5,-97.5 357.5,-67.5 232.5,-67.5"/>
<text text-anchor="start" x="240.5" y="-85.5" font-family="Helvetica,sans-Serif" font-size="10.00">network_butcher/onnx</text>
<text text-anchor="middle" x="295" y="-74.5" font-family="Helvetica,sans-Serif" font-size="10.00">_proto/onnx.pb.h</text>
</a>
</g>
</g>
<!-- Node2&#45;&gt;Node10 -->
<g id="edge10" class="edge">
<title>Node2&#45;&gt;Node10</title>
<path fill="none" stroke="midnightblue" d="M117.76,-134.48C152.54,-124.47 199.48,-110.97 236.32,-100.38"/>
<polygon fill="midnightblue" stroke="midnightblue" points="237.29,-103.74 245.94,-97.61 235.36,-97.01 237.29,-103.74"/>
</g>
<!-- Node7&#45;&gt;Node6 -->
<g id="edge9" class="edge">
<title>Node7&#45;&gt;Node6</title>
<path fill="none" stroke="midnightblue" d="M408.33,-67.4C383.08,-57.69 349.34,-44.71 322.25,-34.29"/>
<polygon fill="midnightblue" stroke="midnightblue" points="323.19,-30.9 312.6,-30.58 320.68,-37.43 323.19,-30.9"/>
</g>
<!-- Node8 -->
<g id="node8" class="node">
<title>Node8</title>
<g id="a_node8"><a xlink:title=" ">
<polygon fill="white" stroke="#bfbfbf" points="431,-6 431,-25 475,-25 475,-6 431,-6"/>
<text text-anchor="middle" x="453" y="-13" font-family="Helvetica,sans-Serif" font-size="10.00">string</text>
</a>
</g>
</g>
<!-- Node7&#45;&gt;Node8 -->
<g id="edge7" class="edge">
<title>Node7&#45;&gt;Node8</title>
<path fill="none" stroke="midnightblue" d="M446.74,-67.4C447.9,-57.96 449.44,-45.45 450.7,-35.19"/>
<polygon fill="midnightblue" stroke="midnightblue" points="454.18,-35.55 451.93,-25.19 447.23,-34.69 454.18,-35.55"/>
</g>
<!-- Node9 -->
<g id="node9" class="node">
<title>Node9</title>
<g id="a_node9"><a xlink:title=" ">
<polygon fill="white" stroke="#bfbfbf" points="534.5,-6 534.5,-25 581.5,-25 581.5,-6 534.5,-6"/>
<text text-anchor="middle" x="558" y="-13" font-family="Helvetica,sans-Serif" font-size="10.00">vector</text>
</a>
</g>
</g>
<!-- Node7&#45;&gt;Node9 -->
<g id="edge8" class="edge">
<title>Node7&#45;&gt;Node9</title>
<path fill="none" stroke="midnightblue" d="M469.52,-67.4C488.73,-56.34 515.3,-41.06 534.3,-30.13"/>
<polygon fill="midnightblue" stroke="midnightblue" points="536.29,-33.03 543.21,-25.01 532.8,-26.96 536.29,-33.03"/>
</g>
<!-- Node11&#45;&gt;Node2 -->
<g id="edge18" class="edge">
<title>Node11&#45;&gt;Node2</title>
<path fill="none" stroke="midnightblue" d="M356.27,-201.46C304.33,-193.1 223.13,-179.74 143.31,-165.21"/>
<polygon fill="midnightblue" stroke="midnightblue" points="143.54,-161.69 133.07,-163.34 142.28,-168.58 143.54,-161.69"/>
</g>
<!-- Node11&#45;&gt;Node7 -->
<g id="edge27" class="edge">
<title>Node11&#45;&gt;Node7</title>
<path fill="none" stroke="midnightblue" d="M432.79,-201.47C448.33,-194.32 467.71,-182.44 477,-165 487.23,-145.81 476.03,-122.61 464.16,-105.89"/>
<polygon fill="midnightblue" stroke="midnightblue" points="466.84,-103.63 458,-97.78 461.27,-107.86 466.84,-103.63"/>
</g>
<!-- Node11&#45;&gt;Node10 -->
<g id="edge17" class="edge">
<title>Node11&#45;&gt;Node10</title>
<path fill="none" stroke="midnightblue" d="M419.27,-201.44C434.08,-186.72 459.83,-156.09 444,-134 434.37,-120.56 400.53,-108.54 367.53,-99.6"/>
<polygon fill="midnightblue" stroke="midnightblue" points="368.37,-96.21 357.81,-97.05 366.59,-102.98 368.37,-96.21"/>
</g>
<!-- Node12 -->
<g id="node12" class="node">
<title>Node12</title>
<g id="a_node12"><a xlink:title=" ">
<polygon fill="white" stroke="#bfbfbf" points="677,-140 677,-159 741,-159 741,-140 677,-140"/>
<text text-anchor="middle" x="709" y="-147" font-family="Helvetica,sans-Serif" font-size="10.00">algorithm</text>
</a>
</g>
</g>
<!-- Node11&#45;&gt;Node12 -->
<g id="edge12" class="edge">
<title>Node11&#45;&gt;Node12</title>
<path fill="none" stroke="midnightblue" d="M476.67,-201.5C529.16,-194.06 603.9,-181.8 668,-165 671.04,-164.2 674.18,-163.28 677.3,-162.3"/>
<polygon fill="midnightblue" stroke="midnightblue" points="678.72,-165.51 687.08,-159.01 676.49,-158.88 678.72,-165.51"/>
</g>
<!-- Node13 -->
<g id="node13" class="node">
<title>Node13</title>
<g id="a_node13"><a xlink:title=" ">
<polygon fill="white" stroke="#bfbfbf" points="151,-140 151,-159 207,-159 207,-140 151,-140"/>
<text text-anchor="middle" x="179" y="-147" font-family="Helvetica,sans-Serif" font-size="10.00">numeric</text>
</a>
</g>
</g>
<!-- Node11&#45;&gt;Node13 -->
<g id="edge13" class="edge">
<title>Node11&#45;&gt;Node13</title>
<path fill="none" stroke="midnightblue" d="M364.81,-201.46C325.18,-193.51 266.2,-180.57 216,-165 213.58,-164.25 211.09,-163.41 208.6,-162.54"/>
<polygon fill="midnightblue" stroke="midnightblue" points="209.76,-159.23 199.17,-159.02 207.31,-165.79 209.76,-159.23"/>
</g>
<!-- Node14 -->
<g id="node14" class="node">
<title>Node14</title>
<g id="a_node14"><a xlink:title=" ">
<polygon fill="white" stroke="#bfbfbf" points="225,-140 225,-159 293,-159 293,-140 225,-140"/>
<text text-anchor="middle" x="259" y="-147" font-family="Helvetica,sans-Serif" font-size="10.00">filesystem</text>
</a>
</g>
</g>
<!-- Node11&#45;&gt;Node14 -->
<g id="edge14" class="edge">
<title>Node11&#45;&gt;Node14</title>
<path fill="none" stroke="midnightblue" d="M388.37,-201.48C362.58,-191.31 319.29,-174.26 289.96,-162.7"/>
<polygon fill="midnightblue" stroke="midnightblue" points="291.18,-159.42 280.59,-159.01 288.62,-165.93 291.18,-159.42"/>
</g>
<!-- Node15 -->
<g id="node15" class="node">
<title>Node15</title>
<g id="a_node15"><a xlink:title=" ">
<polygon fill="white" stroke="#bfbfbf" points="311.5,-140 311.5,-159 366.5,-159 366.5,-140 311.5,-140"/>
<text text-anchor="middle" x="339" y="-147" font-family="Helvetica,sans-Serif" font-size="10.00">fstream</text>
</a>
</g>
</g>
<!-- Node11&#45;&gt;Node15 -->
<g id="edge15" class="edge">
<title>Node11&#45;&gt;Node15</title>
<path fill="none" stroke="midnightblue" d="M399.83,-201.48C388.65,-192.11 370.48,-176.88 356.91,-165.51"/>
<polygon fill="midnightblue" stroke="midnightblue" points="359.07,-162.75 349.15,-159.01 354.57,-168.11 359.07,-162.75"/>
</g>
<!-- Node16 -->
<g id="node16" class="node">
<title>Node16</title>
<g id="a_node16"><a xlink:title=" ">
<polygon fill="white" stroke="#bfbfbf" points="385,-140 385,-159 435,-159 435,-140 385,-140"/>
<text text-anchor="middle" x="410" y="-147" font-family="Helvetica,sans-Serif" font-size="10.00">ranges</text>
</a>
</g>
</g>
<!-- Node11&#45;&gt;Node16 -->
<g id="edge16" class="edge">
<title>Node11&#45;&gt;Node16</title>
<path fill="none" stroke="midnightblue" d="M410,-201.48C410,-193.08 410,-179.98 410,-169.16"/>
<polygon fill="midnightblue" stroke="midnightblue" points="413.5,-169.01 410,-159.01 406.5,-169.01 413.5,-169.01"/>
</g>
<!-- Node17 -->
<g id="node17" class="node">
<title>Node17</title>
<g id="a_node17"><a xlink:href="dense__tensor_8h.html" target="_top" xlink:title=" ">
<polygon fill="white" stroke="black" points="529.5,-134.5 529.5,-164.5 658.5,-164.5 658.5,-134.5 529.5,-134.5"/>
<text text-anchor="start" x="537.5" y="-152.5" font-family="Helvetica,sans-Serif" font-size="10.00">network_butcher/Types</text>
<text text-anchor="middle" x="594" y="-141.5" font-family="Helvetica,sans-Serif" font-size="10.00">/dense_tensor.h</text>
</a>
</g>
</g>
<!-- Node11&#45;&gt;Node17 -->
<g id="edge19" class="edge">
<title>Node11&#45;&gt;Node17</title>
<path fill="none" stroke="midnightblue" d="M431.46,-201.48C456.79,-192.66 499.64,-178.67 535.04,-167.57"/>
<polygon fill="midnightblue" stroke="midnightblue" points="536.3,-170.84 544.8,-164.52 534.22,-164.16 536.3,-170.84"/>
</g>
<!-- Node17&#45;&gt;Node7 -->
<g id="edge20" class="edge">
<title>Node17&#45;&gt;Node7</title>
<path fill="none" stroke="midnightblue" d="M561.67,-134.4C539.7,-124.81 510.44,-112.05 486.72,-101.7"/>
<polygon fill="midnightblue" stroke="midnightblue" points="487.83,-98.37 477.27,-97.58 485.03,-104.78 487.83,-98.37"/>
</g>
<!-- Node17&#45;&gt;Node9 -->
<g id="edge26" class="edge">
<title>Node17&#45;&gt;Node9</title>
<path fill="none" stroke="midnightblue" d="M626.59,-134.44C641.47,-126.16 657.62,-114.12 666,-98 672.36,-85.78 673.4,-78.62 666,-67 664.82,-65.15 617.88,-43.62 586.27,-29.27"/>
<polygon fill="midnightblue" stroke="midnightblue" points="587.58,-26.02 577.03,-25.08 584.69,-32.4 587.58,-26.02"/>
</g>
<!-- Node17&#45;&gt;Node11 -->
<g id="edge25" class="edge">
<title>Node17&#45;&gt;Node11</title>
<path fill="none" stroke="midnightblue" d="M556.46,-164.52C525.8,-174.87 482.66,-188.78 451.08,-198.48"/>
<polygon fill="midnightblue" stroke="midnightblue" points="449.81,-195.21 441.26,-201.48 451.85,-201.91 449.81,-195.21"/>
</g>
<!-- Node18 -->
<g id="node18" class="node">
<title>Node18</title>
<g id="a_node18"><a xlink:href="variant__attribute_8h.html" target="_top" xlink:title=" ">
<polygon fill="white" stroke="black" points="527.5,-67.5 527.5,-97.5 656.5,-97.5 656.5,-67.5 527.5,-67.5"/>
<text text-anchor="start" x="535.5" y="-85.5" font-family="Helvetica,sans-Serif" font-size="10.00">network_butcher/Types</text>
<text text-anchor="middle" x="592" y="-74.5" font-family="Helvetica,sans-Serif" font-size="10.00">/variant_attribute.h</text>
</a>
</g>
</g>
<!-- Node17&#45;&gt;Node18 -->
<g id="edge21" class="edge">
<title>Node17&#45;&gt;Node18</title>
<path fill="none" stroke="midnightblue" d="M593.57,-134.4C593.33,-126.64 593.02,-116.81 592.75,-107.86"/>
<polygon fill="midnightblue" stroke="midnightblue" points="596.24,-107.46 592.43,-97.58 589.24,-107.68 596.24,-107.46"/>
</g>
<!-- Node18&#45;&gt;Node8 -->
<g id="edge22" class="edge">
<title>Node18&#45;&gt;Node8</title>
<path fill="none" stroke="midnightblue" d="M561.84,-67.4C537.56,-56.04 503.72,-40.22 480.25,-29.24"/>
<polygon fill="midnightblue" stroke="midnightblue" points="481.73,-26.07 471.19,-25.01 478.77,-32.41 481.73,-26.07"/>
</g>
<!-- Node18&#45;&gt;Node9 -->
<g id="edge24" class="edge">
<title>Node18&#45;&gt;Node9</title>
<path fill="none" stroke="midnightblue" d="M584.62,-67.4C579.53,-57.66 572.72,-44.65 567.27,-34.21"/>
<polygon fill="midnightblue" stroke="midnightblue" points="570.28,-32.43 562.55,-25.19 564.08,-35.68 570.28,-32.43"/>
</g>
<!-- Node19 -->
<g id="node19" class="node">
<title>Node19</title>
<g id="a_node19"><a xlink:title=" ">
<polygon fill="white" stroke="#bfbfbf" points="599.5,-6 599.5,-25 650.5,-25 650.5,-6 599.5,-6"/>
<text text-anchor="middle" x="625" y="-13" font-family="Helvetica,sans-Serif" font-size="10.00">variant</text>
</a>
</g>
</g>
<!-- Node18&#45;&gt;Node19 -->
<g id="edge23" class="edge">
<title>Node18&#45;&gt;Node19</title>
<path fill="none" stroke="midnightblue" d="M599.16,-67.4C604.1,-57.66 610.71,-44.65 616.01,-34.21"/>
<polygon fill="midnightblue" stroke="midnightblue" points="619.18,-35.7 620.59,-25.19 612.94,-32.53 619.18,-35.7"/>
</g>
</g>
</svg>
