<?xml version="1.0" encoding="UTF-8" standalone="no"?>
<!DOCTYPE svg PUBLIC "-//W3C//DTD SVG 1.1//EN"
 "http://www.w3.org/Graphics/SVG/1.1/DTD/svg11.dtd">
<!-- Generated by graphviz version 2.43.0 (0)
 -->
<!-- Title: include/network_butcher/K&#45;shortest_path/weighted_graph.h Pages: 1 -->
<!--zoomable 1075 -->
<svg id="main" version="1.1" xmlns="http://www.w3.org/2000/svg" xmlns:xlink="http://www.w3.org/1999/xlink" xml:space="preserve" onload="init(evt)">
<style type="text/css"><![CDATA[
.edge:hover path { stroke: red; }
.edge:hover polygon { stroke: red; fill: red; }
]]></style>
<script type="text/javascript"><![CDATA[
var edges = document.getElementsByTagName('g');
if (edges && edges.length) {
  for (var i=0;i<edges.length;i++) {
    if (edges[i].id.substr(0,4)=='edge') {
      edges[i].setAttribute('class','edge');
    }
  }
}
]]></script>
        <defs>
                <circle id="rim" cx="0" cy="0" r="7"/>
                <circle id="rim2" cx="0" cy="0" r="3.5"/>
                <g id="zoomPlus">
                        <use xlink:href="#rim" fill="#404040">
                                <set attributeName="fill" to="#808080" begin="zoomplus.mouseover" end="zoomplus.mouseout"/>
                        </use>
                        <path d="M-4,0h8M0,-4v8" fill="none" stroke="white" stroke-width="1.5" pointer-events="none"/>
                </g>
                <g id="zoomMin">
                        <use xlink:href="#rim" fill="#404040">
                                <set attributeName="fill" to="#808080" begin="zoomminus.mouseover" end="zoomminus.mouseout"/>
                        </use>
                        <path d="M-4,0h8" fill="none" stroke="white" stroke-width="1.5" pointer-events="none"/>
                </g>
                <g id="dirArrow">
                        <path fill="none" stroke="white" stroke-width="1.5" d="M0,-3.0v7 M-2.5,-0.5L0,-3.0L2.5,-0.5"/>
                </g>
               <g id="resetDef">
                       <use xlink:href="#rim2" fill="#404040">
                               <set attributeName="fill" to="#808080" begin="reset.mouseover" end="reset.mouseout"/>
                       </use>
               </g>
        </defs>

<script type="text/javascript">
var viewWidth = 1449;
var viewHeight = 1075;
var sectionId = 'dynsection-1';
</script>
<script xlink:href="svgpan.js"/>
<svg id="graph" class="graph">
<g id="viewport">
<title>include/network_butcher/K&#45;shortest_path/weighted_graph.h</title>
<polygon fill="white" stroke="transparent" points="-4,4 -4,-1071 1444.67,-1071 1444.67,4 -4,4"/>
<!-- Node1 -->
<g id="node1" class="node">
<title>Node1</title>
<g id="a_node1"><a xlink:title=" ">
<polygon fill="#bfbfbf" stroke="black" points="222.67,-1025.5 222.67,-1066.5 365.67,-1066.5 365.67,-1025.5 222.67,-1025.5"/>
<text text-anchor="start" x="230.67" y="-1054.5" font-family="Helvetica,sans-Serif" font-size="10.00">include/network_butcher</text>
<text text-anchor="start" x="230.67" y="-1043.5" font-family="Helvetica,sans-Serif" font-size="10.00">/K&#45;shortest_path/weighted</text>
<text text-anchor="middle" x="294.17" y="-1032.5" font-family="Helvetica,sans-Serif" font-size="10.00">_graph.h</text>
</a>
</g>
</g>
<!-- Node2 -->
<g id="node2" class="node">
<title>Node2</title>
<g id="a_node2"><a xlink:href="heap__traits_8h.html" target="_top" xlink:title=" ">
<polygon fill="white" stroke="black" points="79.67,-947.5 79.67,-988.5 216.67,-988.5 216.67,-947.5 79.67,-947.5"/>
<text text-anchor="start" x="87.67" y="-976.5" font-family="Helvetica,sans-Serif" font-size="10.00">include/network_butcher</text>
<text text-anchor="start" x="87.67" y="-965.5" font-family="Helvetica,sans-Serif" font-size="10.00">/K&#45;shortest_path/heap</text>
<text text-anchor="middle" x="148.17" y="-954.5" font-family="Helvetica,sans-Serif" font-size="10.00">_traits.h</text>
</a>
</g>
</g>
<!-- Node1&#45;&gt;Node2 -->
<g id="edge1" class="edge">
<title>Node1&#45;&gt;Node2</title>
<path fill="none" stroke="midnightblue" d="M247.62,-1020.77C227.6,-1010.35 204.52,-998.34 185.64,-988.51"/>
<polygon fill="midnightblue" stroke="midnightblue" points="246.08,-1023.92 256.57,-1025.43 249.32,-1017.71 246.08,-1023.92"/>
</g>
<!-- Node4 -->
<g id="node4" class="node">
<title>Node4</title>
<g id="a_node4"><a xlink:href="keppstein_8h.html" target="_top" xlink:title=" ">
<polygon fill="white" stroke="black" points="194.67,-713.5 194.67,-743.5 349.67,-743.5 349.67,-713.5 194.67,-713.5"/>
<text text-anchor="start" x="202.67" y="-731.5" font-family="Helvetica,sans-Serif" font-size="10.00">include/network_butcher</text>
<text text-anchor="middle" x="272.17" y="-720.5" font-family="Helvetica,sans-Serif" font-size="10.00">/K&#45;shortest_path/keppstein.h</text>
</a>
</g>
</g>
<!-- Node1&#45;&gt;Node4 -->
<g id="edge24" class="edge">
<title>Node1&#45;&gt;Node4</title>
<path fill="none" stroke="midnightblue" d="M320.21,-1017.86C349.51,-983.9 390.85,-923.57 373.17,-869 356.12,-816.38 310.97,-766.96 287.23,-743.6"/>
<polygon fill="midnightblue" stroke="midnightblue" points="317.45,-1015.69 313.43,-1025.5 322.69,-1020.34 317.45,-1015.69"/>
</g>
<!-- Node16 -->
<g id="node16" class="node">
<title>Node16</title>
<g id="a_node16"><a xlink:href="keppstein__lazy_8h.html" target="_top" xlink:title=" ">
<polygon fill="white" stroke="black" points="30.17,-708 30.17,-749 176.17,-749 176.17,-708 30.17,-708"/>
<text text-anchor="start" x="38.17" y="-737" font-family="Helvetica,sans-Serif" font-size="10.00">include/network_butcher</text>
<text text-anchor="start" x="38.17" y="-726" font-family="Helvetica,sans-Serif" font-size="10.00">/K&#45;shortest_path/keppstein</text>
<text text-anchor="middle" x="103.17" y="-715" font-family="Helvetica,sans-Serif" font-size="10.00">_lazy.h</text>
</a>
</g>
</g>
<!-- Node1&#45;&gt;Node16 -->
<g id="edge27" class="edge">
<title>Node1&#45;&gt;Node16</title>
<path fill="none" stroke="midnightblue" d="M212.39,-1039.46C166.95,-1032.93 111.42,-1018.92 70.17,-989 37.03,-964.97 32.5,-950.34 21.17,-911 3.41,-849.37 54.44,-781.75 83.9,-749.19"/>
<polygon fill="midnightblue" stroke="midnightblue" points="212.15,-1042.96 222.52,-1040.82 213.08,-1036.02 212.15,-1042.96"/>
</g>
<!-- Node18 -->
<g id="node18" class="node">
<title>Node18</title>
<g id="a_node18"><a xlink:href="kfinder_8h.html" target="_top" xlink:title=" ">
<polygon fill="white" stroke="black" points="224.17,-875 224.17,-905 364.17,-905 364.17,-875 224.17,-875"/>
<text text-anchor="start" x="232.17" y="-893" font-family="Helvetica,sans-Serif" font-size="10.00">include/network_butcher</text>
<text text-anchor="middle" x="294.17" y="-882" font-family="Helvetica,sans-Serif" font-size="10.00">/K&#45;shortest_path/kfinder.h</text>
</a>
</g>
</g>
<!-- Node1&#45;&gt;Node18 -->
<g id="edge25" class="edge">
<title>Node1&#45;&gt;Node18</title>
<path fill="none" stroke="midnightblue" d="M294.17,-1015.08C294.17,-982.04 294.17,-930.23 294.17,-905.32"/>
<polygon fill="midnightblue" stroke="midnightblue" points="290.67,-1015.5 294.17,-1025.5 297.67,-1015.5 290.67,-1015.5"/>
</g>
<!-- Node19 -->
<g id="node19" class="node">
<title>Node19</title>
<g id="a_node19"><a xlink:href="wgraph_8h.html" target="_top" xlink:title=" ">
<polygon fill="white" stroke="black" points="420.67,-953 420.67,-983 557.67,-983 557.67,-953 420.67,-953"/>
<text text-anchor="start" x="428.67" y="-971" font-family="Helvetica,sans-Serif" font-size="10.00">include/network_butcher</text>
<text text-anchor="middle" x="489.17" y="-960" font-family="Helvetica,sans-Serif" font-size="10.00">/Network/wgraph.h</text>
</a>
</g>
</g>
<!-- Node1&#45;&gt;Node19 -->
<g id="edge28" class="edge">
<title>Node1&#45;&gt;Node19</title>
<path fill="none" stroke="midnightblue" d="M353.77,-1021.77C386.16,-1009.15 425.17,-993.94 452.97,-983.11"/>
<polygon fill="midnightblue" stroke="midnightblue" points="352.43,-1018.54 344.39,-1025.43 354.97,-1025.06 352.43,-1018.54"/>
</g>
<!-- Node3 -->
<g id="node3" class="node">
<title>Node3</title>
<g id="a_node3"><a xlink:href="basic__keppstein_8h.html" target="_top" xlink:title=" ">
<polygon fill="white" stroke="black" points="127.67,-791.5 127.67,-832.5 264.67,-832.5 264.67,-791.5 127.67,-791.5"/>
<text text-anchor="start" x="135.67" y="-820.5" font-family="Helvetica,sans-Serif" font-size="10.00">include/network_butcher</text>
<text text-anchor="start" x="135.67" y="-809.5" font-family="Helvetica,sans-Serif" font-size="10.00">/K&#45;shortest_path/basic</text>
<text text-anchor="middle" x="196.17" y="-798.5" font-family="Helvetica,sans-Serif" font-size="10.00">_keppstein.h</text>
</a>
</g>
</g>
<!-- Node2&#45;&gt;Node3 -->
<g id="edge2" class="edge">
<title>Node2&#45;&gt;Node3</title>
<path fill="none" stroke="midnightblue" d="M164.91,-938.52C169.43,-929.9 173.95,-920.26 177.17,-911 186.33,-884.65 191.48,-852.68 194.05,-832.58"/>
<polygon fill="midnightblue" stroke="midnightblue" points="161.79,-936.95 160.08,-947.4 167.94,-940.29 161.79,-936.95"/>
</g>
<!-- Node10 -->
<g id="node10" class="node">
<title>Node10</title>
<g id="a_node10"><a xlink:href="network__butcher_8h.html" target="_top" xlink:title=" ">
<polygon fill="white" stroke="black" points="673.67,-0.5 673.67,-30.5 810.67,-30.5 810.67,-0.5 673.67,-0.5"/>
<text text-anchor="start" x="681.67" y="-18.5" font-family="Helvetica,sans-Serif" font-size="10.00">include/network_butcher</text>
<text text-anchor="middle" x="742.17" y="-7.5" font-family="Helvetica,sans-Serif" font-size="10.00">/network_butcher.h</text>
</a>
</g>
</g>
<!-- Node2&#45;&gt;Node10 -->
<g id="edge23" class="edge">
<title>Node2&#45;&gt;Node10</title>
<path fill="none" stroke="midnightblue" d="M70.2,-946.51C51.74,-938.24 33.77,-926.79 21.17,-911 -6.5,-876.32 2.17,-857.37 2.17,-813 2.17,-813 2.17,-813 2.17,-154 2.17,-86.09 490.1,-37.81 673.55,-22.05"/>
<polygon fill="midnightblue" stroke="midnightblue" points="69.01,-949.8 79.58,-950.43 71.71,-943.34 69.01,-949.8"/>
</g>
<!-- Node17 -->
<g id="node17" class="node">
<title>Node17</title>
<g id="a_node17"><a xlink:href="shortest__path__finder_8h.html" target="_top" xlink:title=" ">
<polygon fill="white" stroke="black" points="30.17,-869.5 30.17,-910.5 168.17,-910.5 168.17,-869.5 30.17,-869.5"/>
<text text-anchor="start" x="38.17" y="-898.5" font-family="Helvetica,sans-Serif" font-size="10.00">include/network_butcher</text>
<text text-anchor="start" x="38.17" y="-887.5" font-family="Helvetica,sans-Serif" font-size="10.00">/K&#45;shortest_path/shortest</text>
<text text-anchor="middle" x="99.17" y="-876.5" font-family="Helvetica,sans-Serif" font-size="10.00">_path_finder.h</text>
</a>
</g>
</g>
<!-- Node2&#45;&gt;Node17 -->
<g id="edge21" class="edge">
<title>Node2&#45;&gt;Node17</title>
<path fill="none" stroke="midnightblue" d="M129.96,-938.76C123.9,-929.35 117.28,-919.1 111.74,-910.51"/>
<polygon fill="midnightblue" stroke="midnightblue" points="127.19,-940.92 135.55,-947.43 133.07,-937.13 127.19,-940.92"/>
</g>
<!-- Node3&#45;&gt;Node4 -->
<g id="edge3" class="edge">
<title>Node3&#45;&gt;Node4</title>
<path fill="none" stroke="midnightblue" d="M221.64,-783.68C234.14,-770.28 248.68,-754.69 258.94,-743.68"/>
<polygon fill="midnightblue" stroke="midnightblue" points="218.83,-781.57 214.57,-791.27 223.95,-786.34 218.83,-781.57"/>
</g>
<!-- Node3&#45;&gt;Node16 -->
<g id="edge19" class="edge">
<title>Node3&#45;&gt;Node16</title>
<path fill="none" stroke="midnightblue" d="M165.77,-784.36C152.64,-772.85 137.55,-759.63 125.47,-749.05"/>
<polygon fill="midnightblue" stroke="midnightblue" points="163.83,-787.31 173.66,-791.27 168.44,-782.05 163.83,-787.31"/>
</g>
<!-- Node5 -->
<g id="node5" class="node">
<title>Node5</title>
<g id="a_node5"><a xlink:href="kfinder__factory_8h.html" target="_top" xlink:title=" ">
<polygon fill="white" stroke="black" points="205.67,-441 205.67,-482 342.67,-482 342.67,-441 205.67,-441"/>
<text text-anchor="start" x="213.67" y="-470" font-family="Helvetica,sans-Serif" font-size="10.00">include/network_butcher</text>
<text text-anchor="start" x="213.67" y="-459" font-family="Helvetica,sans-Serif" font-size="10.00">/K&#45;shortest_path/kfinder</text>
<text text-anchor="middle" x="274.17" y="-448" font-family="Helvetica,sans-Serif" font-size="10.00">_factory.h</text>
</a>
</g>
</g>
<!-- Node4&#45;&gt;Node5 -->
<g id="edge4" class="edge">
<title>Node4&#45;&gt;Node5</title>
<path fill="none" stroke="midnightblue" d="M272.35,-703.25C272.74,-651.17 273.66,-529.54 274.02,-482.02"/>
<polygon fill="midnightblue" stroke="midnightblue" points="268.85,-703.23 272.28,-713.25 275.85,-703.28 268.85,-703.23"/>
</g>
<!-- Node6 -->
<g id="node6" class="node">
<title>Node6</title>
<g id="a_node6"><a xlink:href="butcher_8h.html" target="_top" xlink:title=" ">
<polygon fill="white" stroke="black" points="728.67,-290.5 728.67,-320.5 865.67,-320.5 865.67,-290.5 728.67,-290.5"/>
<text text-anchor="start" x="736.67" y="-308.5" font-family="Helvetica,sans-Serif" font-size="10.00">include/network_butcher</text>
<text text-anchor="middle" x="797.17" y="-297.5" font-family="Helvetica,sans-Serif" font-size="10.00">/Butcher/butcher.h</text>
</a>
</g>
</g>
<!-- Node5&#45;&gt;Node6 -->
<g id="edge5" class="edge">
<title>Node5&#45;&gt;Node6</title>
<path fill="none" stroke="midnightblue" d="M305.53,-434.59C336.66,-410.36 386.74,-375.26 436.17,-357 533.53,-321.05 654.3,-310.43 728.53,-307.45"/>
<polygon fill="midnightblue" stroke="midnightblue" points="303.34,-431.86 297.65,-440.81 307.67,-437.36 303.34,-431.86"/>
</g>
<!-- Node5&#45;&gt;Node10 -->
<g id="edge18" class="edge">
<title>Node5&#45;&gt;Node10</title>
<path fill="none" stroke="midnightblue" d="M276.03,-430.42C277.79,-399.39 280.17,-349.58 280.17,-306.5 280.17,-306.5 280.17,-306.5 280.17,-154 280.17,-88.84 337.92,-91.8 398.17,-67 488.59,-29.77 602.33,-19.44 673.66,-16.87"/>
<polygon fill="midnightblue" stroke="midnightblue" points="272.53,-430.39 275.44,-440.57 279.52,-430.8 272.53,-430.39"/>
</g>
<!-- Node7 -->
<g id="node7" class="node">
<title>Node7</title>
<g id="a_node7"><a xlink:href="onnx__importer__helpers_8h.html" target="_top" xlink:title=" ">
<polygon fill="white" stroke="black" points="770.17,-212.5 770.17,-253.5 932.17,-253.5 932.17,-212.5 770.17,-212.5"/>
<text text-anchor="start" x="778.17" y="-241.5" font-family="Helvetica,sans-Serif" font-size="10.00">include/network_butcher</text>
<text text-anchor="start" x="778.17" y="-230.5" font-family="Helvetica,sans-Serif" font-size="10.00">/IO_Interaction/onnx_importer</text>
<text text-anchor="middle" x="851.17" y="-219.5" font-family="Helvetica,sans-Serif" font-size="10.00">_helpers.h</text>
</a>
</g>
</g>
<!-- Node6&#45;&gt;Node7 -->
<g id="edge6" class="edge">
<title>Node6&#45;&gt;Node7</title>
<path fill="none" stroke="midnightblue" d="M814.2,-282.26C821.25,-273.06 829.35,-262.49 836.16,-253.59"/>
<polygon fill="midnightblue" stroke="midnightblue" points="811.4,-280.17 808.1,-290.23 816.96,-284.42 811.4,-280.17"/>
</g>
<!-- Node6&#45;&gt;Node10 -->
<g id="edge17" class="edge">
<title>Node6&#45;&gt;Node10</title>
<path fill="none" stroke="midnightblue" d="M777.36,-282.23C771.09,-273.93 764.84,-264.06 761.17,-254 731.91,-173.75 737.49,-68.43 740.74,-30.7"/>
<polygon fill="midnightblue" stroke="midnightblue" points="774.81,-284.65 783.8,-290.26 780.27,-280.27 774.81,-284.65"/>
</g>
<!-- Node14 -->
<g id="node14" class="node">
<title>Node14</title>
<g id="a_node14"><a xlink:href="onnx__model__reconstructor__helpers_8h.html" target="_top" xlink:title=" ">
<polygon fill="white" stroke="black" points="1094.67,-212.5 1094.67,-253.5 1245.67,-253.5 1245.67,-212.5 1094.67,-212.5"/>
<text text-anchor="start" x="1102.67" y="-241.5" font-family="Helvetica,sans-Serif" font-size="10.00">include/network_butcher</text>
<text text-anchor="start" x="1102.67" y="-230.5" font-family="Helvetica,sans-Serif" font-size="10.00">/IO_Interaction/onnx_model</text>
<text text-anchor="middle" x="1170.17" y="-219.5" font-family="Helvetica,sans-Serif" font-size="10.00">_reconstructor_helpers.h</text>
</a>
</g>
</g>
<!-- Node6&#45;&gt;Node14 -->
<g id="edge14" class="edge">
<title>Node6&#45;&gt;Node14</title>
<path fill="none" stroke="midnightblue" d="M876.12,-289.58C940.49,-277.41 1030.83,-260.34 1094.34,-248.33"/>
<polygon fill="midnightblue" stroke="midnightblue" points="875.19,-286.19 866.02,-291.49 876.49,-293.07 875.19,-286.19"/>
</g>
<!-- Node8 -->
<g id="node8" class="node">
<title>Node8</title>
<g id="a_node8"><a xlink:href="io__manager_8h.html" target="_top" xlink:title=" ">
<polygon fill="white" stroke="black" points="942.67,-140 942.67,-170 1079.67,-170 1079.67,-140 942.67,-140"/>
<text text-anchor="start" x="950.67" y="-158" font-family="Helvetica,sans-Serif" font-size="10.00">include/network_butcher</text>
<text text-anchor="middle" x="1011.17" y="-147" font-family="Helvetica,sans-Serif" font-size="10.00">/io_manager.h</text>
</a>
</g>
</g>
<!-- Node7&#45;&gt;Node8 -->
<g id="edge7" class="edge">
<title>Node7&#45;&gt;Node8</title>
<path fill="none" stroke="midnightblue" d="M901.41,-208.13C927.62,-195.68 958.8,-180.87 981.22,-170.23"/>
<polygon fill="midnightblue" stroke="midnightblue" points="899.9,-204.98 892.37,-212.43 902.91,-211.3 899.9,-204.98"/>
</g>
<!-- Node13 -->
<g id="node13" class="node">
<title>Node13</title>
<g id="a_node13"><a xlink:href="onnx__importer__helpers_8cpp.html" target="_top" xlink:title=" ">
<polygon fill="white" stroke="black" points="772.17,-140 772.17,-170 924.17,-170 924.17,-140 772.17,-140"/>
<text text-anchor="start" x="780.17" y="-158" font-family="Helvetica,sans-Serif" font-size="10.00">src/IO_Interaction</text>
<text text-anchor="middle" x="848.17" y="-147" font-family="Helvetica,sans-Serif" font-size="10.00">/onnx_importer_helpers.cpp</text>
</a>
</g>
</g>
<!-- Node7&#45;&gt;Node13 -->
<g id="edge13" class="edge">
<title>Node7&#45;&gt;Node13</title>
<path fill="none" stroke="midnightblue" d="M850,-202.28C849.56,-191.25 849.09,-179.25 848.73,-170.23"/>
<polygon fill="midnightblue" stroke="midnightblue" points="846.5,-202.57 850.4,-212.43 853.5,-202.3 846.5,-202.57"/>
</g>
<!-- Node9 -->
<g id="node9" class="node">
<title>Node9</title>
<g id="a_node9"><a xlink:href="general__manager_8h.html" target="_top" xlink:title=" ">
<polygon fill="white" stroke="black" points="1302.67,-67.5 1302.67,-97.5 1439.67,-97.5 1439.67,-67.5 1302.67,-67.5"/>
<text text-anchor="start" x="1310.67" y="-85.5" font-family="Helvetica,sans-Serif" font-size="10.00">include/network_butcher</text>
<text text-anchor="middle" x="1371.17" y="-74.5" font-family="Helvetica,sans-Serif" font-size="10.00">/general_manager.h</text>
</a>
</g>
</g>
<!-- Node8&#45;&gt;Node9 -->
<g id="edge8" class="edge">
<title>Node8&#45;&gt;Node9</title>
<path fill="none" stroke="midnightblue" d="M1073.84,-137.5C1079.01,-136.27 1084.17,-135.09 1089.17,-134 1161.58,-118.25 1245.23,-103.73 1302.51,-94.34"/>
<polygon fill="midnightblue" stroke="midnightblue" points="1072.8,-134.15 1063.91,-139.91 1074.45,-140.95 1072.8,-134.15"/>
</g>
<!-- Node8&#45;&gt;Node10 -->
<g id="edge11" class="edge">
<title>Node8&#45;&gt;Node10</title>
<path fill="none" stroke="midnightblue" d="M974.68,-135.35C920.17,-107.49 818.7,-55.62 769.85,-30.65"/>
<polygon fill="midnightblue" stroke="midnightblue" points="973.15,-138.5 983.64,-139.93 976.33,-132.26 973.15,-138.5"/>
</g>
<!-- Node12 -->
<g id="node12" class="node">
<title>Node12</title>
<g id="a_node12"><a xlink:href="io__manager_8cpp.html" target="_top" xlink:title=" ">
<polygon fill="white" stroke="black" points="955.67,-73 955.67,-92 1066.67,-92 1066.67,-73 955.67,-73"/>
<text text-anchor="middle" x="1011.17" y="-80" font-family="Helvetica,sans-Serif" font-size="10.00">src/io_manager.cpp</text>
</a>
</g>
</g>
<!-- Node8&#45;&gt;Node12 -->
<g id="edge12" class="edge">
<title>Node8&#45;&gt;Node12</title>
<path fill="none" stroke="midnightblue" d="M1011.17,-129.59C1011.17,-116.71 1011.17,-101.7 1011.17,-92.39"/>
<polygon fill="midnightblue" stroke="midnightblue" points="1007.67,-129.73 1011.17,-139.73 1014.67,-129.73 1007.67,-129.73"/>
</g>
<!-- Node9&#45;&gt;Node10 -->
<g id="edge9" class="edge">
<title>Node9&#45;&gt;Node10</title>
<path fill="none" stroke="midnightblue" d="M1292.11,-67.54C1290.79,-67.35 1289.47,-67.17 1288.17,-67 1117.14,-44.19 914.59,-28.36 810.89,-21.07"/>
<polygon fill="midnightblue" stroke="midnightblue" points="1291.99,-71.06 1302.39,-69.04 1293,-64.13 1291.99,-71.06"/>
</g>
<!-- Node11 -->
<g id="node11" class="node">
<title>Node11</title>
<g id="a_node11"><a xlink:href="general__manager_8cpp.html" target="_top" xlink:title=" ">
<polygon fill="white" stroke="black" points="1301.67,-6 1301.67,-25 1440.67,-25 1440.67,-6 1301.67,-6"/>
<text text-anchor="middle" x="1371.17" y="-13" font-family="Helvetica,sans-Serif" font-size="10.00">src/general_manager.cpp</text>
</a>
</g>
</g>
<!-- Node9&#45;&gt;Node11 -->
<g id="edge10" class="edge">
<title>Node9&#45;&gt;Node11</title>
<path fill="none" stroke="midnightblue" d="M1371.17,-57.25C1371.17,-46.02 1371.17,-33.38 1371.17,-25.19"/>
<polygon fill="midnightblue" stroke="midnightblue" points="1367.67,-57.4 1371.17,-67.4 1374.67,-57.4 1367.67,-57.4"/>
</g>
<!-- Node14&#45;&gt;Node8 -->
<g id="edge15" class="edge">
<title>Node14&#45;&gt;Node8</title>
<path fill="none" stroke="midnightblue" d="M1119.9,-207.97C1093.92,-195.55 1063.11,-180.83 1040.93,-170.23"/>
<polygon fill="midnightblue" stroke="midnightblue" points="1118.69,-211.27 1129.22,-212.43 1121.71,-204.96 1118.69,-211.27"/>
</g>
<!-- Node15 -->
<g id="node15" class="node">
<title>Node15</title>
<g id="a_node15"><a xlink:href="onnx__model__reconstructor__helpers_8cpp.html" target="_top" xlink:title=" ">
<polygon fill="white" stroke="black" points="1097.67,-134.5 1097.67,-175.5 1246.67,-175.5 1246.67,-134.5 1097.67,-134.5"/>
<text text-anchor="start" x="1105.67" y="-163.5" font-family="Helvetica,sans-Serif" font-size="10.00">src/IO_Interaction</text>
<text text-anchor="start" x="1105.67" y="-152.5" font-family="Helvetica,sans-Serif" font-size="10.00">/onnx_model_reconstructor</text>
<text text-anchor="middle" x="1172.17" y="-141.5" font-family="Helvetica,sans-Serif" font-size="10.00">_helpers.cpp</text>
</a>
</g>
</g>
<!-- Node14&#45;&gt;Node15 -->
<g id="edge16" class="edge">
<title>Node14&#45;&gt;Node15</title>
<path fill="none" stroke="midnightblue" d="M1170.95,-202.3C1171.19,-193.3 1171.44,-183.65 1171.65,-175.51"/>
<polygon fill="midnightblue" stroke="midnightblue" points="1167.45,-202.34 1170.68,-212.43 1174.45,-202.52 1167.45,-202.34"/>
</g>
<!-- Node16&#45;&gt;Node5 -->
<g id="edge20" class="edge">
<title>Node16&#45;&gt;Node5</title>
<path fill="none" stroke="midnightblue" d="M121.45,-699.17C156.29,-645.18 231.39,-528.79 261.4,-482.29"/>
<polygon fill="midnightblue" stroke="midnightblue" points="118.5,-697.28 116.02,-707.58 124.38,-701.08 118.5,-697.28"/>
</g>
<!-- Node17&#45;&gt;Node3 -->
<g id="edge22" class="edge">
<title>Node17&#45;&gt;Node3</title>
<path fill="none" stroke="midnightblue" d="M132.27,-863.06C145.04,-853.06 159.4,-841.8 171.27,-832.51"/>
<polygon fill="midnightblue" stroke="midnightblue" points="129.86,-860.51 124.15,-869.43 134.18,-866.02 129.86,-860.51"/>
</g>
<!-- Node18&#45;&gt;Node3 -->
<g id="edge26" class="edge">
<title>Node18&#45;&gt;Node3</title>
<path fill="none" stroke="midnightblue" d="M267.72,-868.49C253.37,-857.36 235.72,-843.68 221.54,-832.68"/>
<polygon fill="midnightblue" stroke="midnightblue" points="265.69,-871.34 275.74,-874.7 269.98,-865.81 265.69,-871.34"/>
</g>
<!-- Node20 -->
<g id="node20" class="node">
<title>Node20</title>
<g id="a_node20"><a xlink:href="computer__memory_8h.html" target="_top" xlink:title=" ">
<polygon fill="white" stroke="black" points="402.67,-624.5 402.67,-654.5 573.67,-654.5 573.67,-624.5 402.67,-624.5"/>
<text text-anchor="start" x="410.67" y="-642.5" font-family="Helvetica,sans-Serif" font-size="10.00">include/network_butcher</text>
<text text-anchor="middle" x="488.17" y="-631.5" font-family="Helvetica,sans-Serif" font-size="10.00">/Computer/computer_memory.h</text>
</a>
</g>
</g>
<!-- Node19&#45;&gt;Node20 -->
<g id="edge29" class="edge">
<title>Node19&#45;&gt;Node20</title>
<path fill="none" stroke="midnightblue" d="M489.09,-942.62C488.9,-878.35 488.37,-705.78 488.21,-654.84"/>
<polygon fill="midnightblue" stroke="midnightblue" points="485.59,-942.98 489.13,-952.97 492.59,-942.96 485.59,-942.98"/>
</g>
<!-- Node26 -->
<g id="node26" class="node">
<title>Node26</title>
<g id="a_node26"><a xlink:href="graph__traits_8h.html" target="_top" xlink:title=" ">
<polygon fill="white" stroke="black" points="999.67,-875 999.67,-905 1136.67,-905 1136.67,-875 999.67,-875"/>
<text text-anchor="start" x="1007.67" y="-893" font-family="Helvetica,sans-Serif" font-size="10.00">include/network_butcher</text>
<text text-anchor="middle" x="1068.17" y="-882" font-family="Helvetica,sans-Serif" font-size="10.00">/Network/graph_traits.h</text>
</a>
</g>
</g>
<!-- Node19&#45;&gt;Node26 -->
<g id="edge41" class="edge">
<title>Node19&#45;&gt;Node26</title>
<path fill="none" stroke="midnightblue" d="M567.93,-956.66C682.03,-941.69 891.45,-914.2 999.56,-900"/>
<polygon fill="midnightblue" stroke="midnightblue" points="567.32,-953.21 557.86,-957.98 568.23,-960.15 567.32,-953.21"/>
</g>
<!-- Node20&#45;&gt;Node6 -->
<g id="edge30" class="edge">
<title>Node20&#45;&gt;Node6</title>
<path fill="none" stroke="midnightblue" d="M477.51,-615.11C455.13,-562.09 410.35,-431.57 474.17,-357 506.23,-319.54 643.56,-309.66 728.49,-307.19"/>
<polygon fill="midnightblue" stroke="midnightblue" points="474.33,-616.58 481.52,-624.36 480.75,-613.8 474.33,-616.58"/>
</g>
<!-- Node20&#45;&gt;Node10 -->
<g id="edge40" class="edge">
<title>Node20&#45;&gt;Node10</title>
<path fill="none" stroke="midnightblue" d="M469.42,-616.32C460.72,-605.11 450.86,-590.96 444.17,-577 421.34,-529.35 412.17,-515.34 412.17,-462.5 412.17,-462.5 412.17,-462.5 412.17,-154 412.17,-41.82 576.68,-19.5 673.39,-16.08"/>
<polygon fill="midnightblue" stroke="midnightblue" points="466.79,-618.63 475.76,-624.25 472.25,-614.26 466.79,-618.63"/>
</g>
<!-- Node21 -->
<g id="node21" class="node">
<title>Node21</title>
<g id="a_node21"><a xlink:href="graph__constraint_8h.html" target="_top" xlink:title=" ">
<polygon fill="white" stroke="black" points="516.67,-535.5 516.67,-565.5 667.67,-565.5 667.67,-535.5 516.67,-535.5"/>
<text text-anchor="start" x="524.67" y="-553.5" font-family="Helvetica,sans-Serif" font-size="10.00">include/network_butcher</text>
<text text-anchor="middle" x="592.17" y="-542.5" font-family="Helvetica,sans-Serif" font-size="10.00">/Butcher/graph_constraint.h</text>
</a>
</g>
</g>
<!-- Node20&#45;&gt;Node21 -->
<g id="edge31" class="edge">
<title>Node20&#45;&gt;Node21</title>
<path fill="none" stroke="midnightblue" d="M513.12,-617.62C532.37,-601.52 558.47,-579.69 575.31,-565.6"/>
<polygon fill="midnightblue" stroke="midnightblue" points="510.77,-615.03 505.34,-624.13 515.26,-620.4 510.77,-615.03"/>
</g>
<!-- Node23 -->
<g id="node23" class="node">
<title>Node23</title>
<g id="a_node23"><a xlink:href="block__aMLLibrary__weight__importer_8h.html" target="_top" xlink:title=" ">
<polygon fill="white" stroke="black" points="724.17,-524.5 724.17,-576.5 894.17,-576.5 894.17,-524.5 724.17,-524.5"/>
<text text-anchor="start" x="732.17" y="-564.5" font-family="Helvetica,sans-Serif" font-size="10.00">include/network_butcher</text>
<text text-anchor="start" x="732.17" y="-553.5" font-family="Helvetica,sans-Serif" font-size="10.00">/IO_Interaction/Weight</text>
<text text-anchor="start" x="732.17" y="-542.5" font-family="Helvetica,sans-Serif" font-size="10.00">_Importer_Helpers/block</text>
<text text-anchor="middle" x="809.17" y="-531.5" font-family="Helvetica,sans-Serif" font-size="10.00">_aMLLibrary_weight_importer.h</text>
</a>
</g>
</g>
<!-- Node20&#45;&gt;Node23 -->
<g id="edge34" class="edge">
<title>Node20&#45;&gt;Node23</title>
<path fill="none" stroke="midnightblue" d="M550.02,-621.74C599.48,-608.33 669.37,-589.39 724.1,-574.56"/>
<polygon fill="midnightblue" stroke="midnightblue" points="548.84,-618.43 540.1,-624.43 550.67,-625.19 548.84,-618.43"/>
</g>
<!-- Node22 -->
<g id="node22" class="node">
<title>Node22</title>
<g id="a_node22"><a xlink:href="constrained__block__graph__builder_8h.html" target="_top" xlink:title=" ">
<polygon fill="white" stroke="black" points="650.67,-357.5 650.67,-398.5 799.67,-398.5 799.67,-357.5 650.67,-357.5"/>
<text text-anchor="start" x="658.67" y="-386.5" font-family="Helvetica,sans-Serif" font-size="10.00">include/network_butcher</text>
<text text-anchor="start" x="658.67" y="-375.5" font-family="Helvetica,sans-Serif" font-size="10.00">/Butcher/constrained_block</text>
<text text-anchor="middle" x="725.17" y="-364.5" font-family="Helvetica,sans-Serif" font-size="10.00">_graph_builder.h</text>
</a>
</g>
</g>
<!-- Node21&#45;&gt;Node22 -->
<g id="edge32" class="edge">
<title>Node21&#45;&gt;Node22</title>
<path fill="none" stroke="midnightblue" d="M609.73,-526.99C635.94,-493.38 684.88,-430.65 709.77,-398.74"/>
<polygon fill="midnightblue" stroke="midnightblue" points="606.67,-525.22 603.28,-535.26 612.19,-529.52 606.67,-525.22"/>
</g>
<!-- Node22&#45;&gt;Node6 -->
<g id="edge33" class="edge">
<title>Node22&#45;&gt;Node6</title>
<path fill="none" stroke="midnightblue" d="M752.43,-350.31C762.63,-340.32 773.83,-329.35 782.47,-320.89"/>
<polygon fill="midnightblue" stroke="midnightblue" points="749.92,-347.86 745.22,-357.36 754.82,-352.87 749.92,-347.86"/>
</g>
<!-- Node24 -->
<g id="node24" class="node">
<title>Node24</title>
<g id="a_node24"><a xlink:href="weight__importers_8h.html" target="_top" xlink:title=" ">
<polygon fill="white" stroke="black" points="891.67,-441 891.67,-482 1028.67,-482 1028.67,-441 891.67,-441"/>
<text text-anchor="start" x="899.67" y="-470" font-family="Helvetica,sans-Serif" font-size="10.00">include/network_butcher</text>
<text text-anchor="start" x="899.67" y="-459" font-family="Helvetica,sans-Serif" font-size="10.00">/IO_Interaction/weight</text>
<text text-anchor="middle" x="960.17" y="-448" font-family="Helvetica,sans-Serif" font-size="10.00">_importers.h</text>
</a>
</g>
</g>
<!-- Node23&#45;&gt;Node24 -->
<g id="edge35" class="edge">
<title>Node23&#45;&gt;Node24</title>
<path fill="none" stroke="midnightblue" d="M861.52,-519.34C882.95,-506.99 907.12,-493.06 926.18,-482.08"/>
<polygon fill="midnightblue" stroke="midnightblue" points="859.76,-516.31 852.84,-524.34 863.26,-522.38 859.76,-516.31"/>
</g>
<!-- Node25 -->
<g id="node25" class="node">
<title>Node25</title>
<g id="a_node25"><a xlink:href="block__aMLLibrary__weight__importer_8cpp.html" target="_top" xlink:title=" ">
<polygon fill="white" stroke="black" points="730.67,-435.5 730.67,-487.5 873.67,-487.5 873.67,-435.5 730.67,-435.5"/>
<text text-anchor="start" x="738.67" y="-475.5" font-family="Helvetica,sans-Serif" font-size="10.00">src/IO_Interaction</text>
<text text-anchor="start" x="738.67" y="-464.5" font-family="Helvetica,sans-Serif" font-size="10.00">/Weight_Importer_Helpers</text>
<text text-anchor="start" x="738.67" y="-453.5" font-family="Helvetica,sans-Serif" font-size="10.00">/block_aMLLibrary_weight</text>
<text text-anchor="middle" x="802.17" y="-442.5" font-family="Helvetica,sans-Serif" font-size="10.00">_importer.cpp</text>
</a>
</g>
</g>
<!-- Node23&#45;&gt;Node25 -->
<g id="edge39" class="edge">
<title>Node23&#45;&gt;Node25</title>
<path fill="none" stroke="midnightblue" d="M806.33,-514.19C805.61,-505.28 804.86,-495.9 804.19,-487.61"/>
<polygon fill="midnightblue" stroke="midnightblue" points="802.85,-514.65 807.14,-524.34 809.83,-514.09 802.85,-514.65"/>
</g>
<!-- Node24&#45;&gt;Node6 -->
<g id="edge36" class="edge">
<title>Node24&#45;&gt;Node6</title>
<path fill="none" stroke="midnightblue" d="M925.53,-434.6C911.95,-424 896.46,-411.33 883.17,-399 855.04,-372.9 825.18,-339.26 809.1,-320.58"/>
<polygon fill="midnightblue" stroke="midnightblue" points="923.66,-437.58 933.71,-440.92 927.94,-432.04 923.66,-437.58"/>
</g>
<!-- Node24&#45;&gt;Node8 -->
<g id="edge38" class="edge">
<title>Node24&#45;&gt;Node8</title>
<path fill="none" stroke="midnightblue" d="M1009.61,-435.24C1022.96,-425.8 1035.75,-413.72 1043.17,-399 1082.98,-319.95 1036.97,-208.94 1018.32,-170.09"/>
<polygon fill="midnightblue" stroke="midnightblue" points="1007.67,-432.33 1001.27,-440.77 1011.54,-438.16 1007.67,-432.33"/>
</g>
<!-- Node24&#45;&gt;Node22 -->
<g id="edge37" class="edge">
<title>Node24&#45;&gt;Node22</title>
<path fill="none" stroke="midnightblue" d="M894.09,-437.58C858.58,-425.27 815.28,-410.25 781.4,-398.5"/>
<polygon fill="midnightblue" stroke="midnightblue" points="893.28,-441.01 903.88,-440.98 895.58,-434.4 893.28,-441.01"/>
</g>
<!-- Node26&#45;&gt;Node6 -->
<g id="edge42" class="edge">
<title>Node26&#45;&gt;Node6</title>
<path fill="none" stroke="midnightblue" d="M1090.59,-867.35C1117.83,-838.62 1160.17,-785.02 1160.17,-729.5 1160.17,-729.5 1160.17,-729.5 1160.17,-460.5 1160.17,-334.02 971.11,-309.89 865.87,-306.26"/>
<polygon fill="midnightblue" stroke="midnightblue" points="1087.83,-865.17 1083.36,-874.77 1092.84,-870.05 1087.83,-865.17"/>
</g>
<!-- Node26&#45;&gt;Node7 -->
<g id="edge47" class="edge">
<title>Node26&#45;&gt;Node7</title>
<path fill="none" stroke="midnightblue" d="M1102.69,-869.41C1117.41,-859.83 1133.97,-847.28 1146.17,-833 1179.6,-793.85 1198.17,-780.98 1198.17,-729.5 1198.17,-729.5 1198.17,-729.5 1198.17,-460.5 1198.17,-334.24 1035.09,-274.65 932.52,-249.65"/>
<polygon fill="midnightblue" stroke="midnightblue" points="1100.42,-866.7 1093.81,-874.99 1104.14,-872.63 1100.42,-866.7"/>
</g>
<!-- Node26&#45;&gt;Node10 -->
<g id="edge55" class="edge">
<title>Node26&#45;&gt;Node10</title>
<path fill="none" stroke="midnightblue" d="M1146.96,-878.24C1178.45,-870.35 1212.93,-856.68 1237.17,-833 1272.11,-798.86 1274.17,-778.35 1274.17,-729.5 1274.17,-729.5 1274.17,-729.5 1274.17,-154 1274.17,-59.38 954.72,-28.84 810.9,-19.88"/>
<polygon fill="midnightblue" stroke="midnightblue" points="1145.79,-874.92 1136.85,-880.6 1147.39,-881.73 1145.79,-874.92"/>
</g>
<!-- Node26&#45;&gt;Node14 -->
<g id="edge48" class="edge">
<title>Node26&#45;&gt;Node14</title>
<path fill="none" stroke="midnightblue" d="M1146.35,-873.7C1170.5,-865.38 1195.19,-852.6 1212.17,-833 1243.09,-797.31 1236.17,-776.72 1236.17,-729.5 1236.17,-729.5 1236.17,-729.5 1236.17,-377 1236.17,-329.15 1205.33,-279.9 1185.81,-253.52"/>
<polygon fill="midnightblue" stroke="midnightblue" points="1145.22,-870.39 1136.77,-876.78 1147.37,-877.05 1145.22,-870.39"/>
</g>
<!-- Node26&#45;&gt;Node21 -->
<g id="edge44" class="edge">
<title>Node26&#45;&gt;Node21</title>
<path fill="none" stroke="midnightblue" d="M989.13,-885.37C898.95,-879.72 758.7,-865.8 718.17,-833 636.69,-767.06 681.42,-706.06 633.17,-613 624.31,-595.91 611.75,-577.73 602.88,-565.61"/>
<polygon fill="midnightblue" stroke="midnightblue" points="989.13,-888.88 999.32,-885.99 989.55,-881.89 989.13,-888.88"/>
</g>
<!-- Node26&#45;&gt;Node22 -->
<g id="edge43" class="edge">
<title>Node26&#45;&gt;Node22</title>
<path fill="none" stroke="midnightblue" d="M1004.14,-872.05C942.79,-852.85 851.17,-816.02 793.17,-755 718.51,-676.46 711.44,-632.3 715.17,-524 716.71,-479.11 720.94,-426.54 723.38,-398.68"/>
<polygon fill="midnightblue" stroke="midnightblue" points="1003.14,-875.4 1013.72,-874.98 1005.18,-868.71 1003.14,-875.4"/>
</g>
<!-- Node27 -->
<g id="node27" class="node">
<title>Node27</title>
<g id="a_node27"><a xlink:href="path__converter_8h.html" target="_top" xlink:title=" ">
<polygon fill="white" stroke="black" points="892.17,-363 892.17,-393 1034.17,-393 1034.17,-363 892.17,-363"/>
<text text-anchor="start" x="900.17" y="-381" font-family="Helvetica,sans-Serif" font-size="10.00">include/network_butcher</text>
<text text-anchor="middle" x="963.17" y="-370" font-family="Helvetica,sans-Serif" font-size="10.00">/Butcher/path_converter.h</text>
</a>
</g>
</g>
<!-- Node26&#45;&gt;Node27 -->
<g id="edge45" class="edge">
<title>Node26&#45;&gt;Node27</title>
<path fill="none" stroke="midnightblue" d="M1081.45,-865.65C1097.44,-835.3 1122.17,-780.15 1122.17,-729.5 1122.17,-729.5 1122.17,-729.5 1122.17,-549.5 1122.17,-474.01 1037.78,-418.02 991.96,-393.19"/>
<polygon fill="midnightblue" stroke="midnightblue" points="1078.29,-864.14 1076.61,-874.6 1084.44,-867.47 1078.29,-864.14"/>
</g>
<!-- Node28 -->
<g id="node28" class="node">
<title>Node28</title>
<g id="a_node28"><a xlink:href="weight__importer_8h.html" target="_top" xlink:title=" ">
<polygon fill="white" stroke="black" points="801.67,-702.5 801.67,-754.5 944.67,-754.5 944.67,-702.5 801.67,-702.5"/>
<text text-anchor="start" x="809.67" y="-742.5" font-family="Helvetica,sans-Serif" font-size="10.00">include/network_butcher</text>
<text text-anchor="start" x="809.67" y="-731.5" font-family="Helvetica,sans-Serif" font-size="10.00">/IO_Interaction/Weight</text>
<text text-anchor="start" x="809.67" y="-720.5" font-family="Helvetica,sans-Serif" font-size="10.00">_Importer_Helpers/weight</text>
<text text-anchor="middle" x="873.17" y="-709.5" font-family="Helvetica,sans-Serif" font-size="10.00">_importer.h</text>
</a>
</g>
</g>
<!-- Node26&#45;&gt;Node28 -->
<g id="edge49" class="edge">
<title>Node26&#45;&gt;Node28</title>
<path fill="none" stroke="midnightblue" d="M1042.9,-868.33C1007.3,-839.21 942.47,-786.19 904.06,-754.77"/>
<polygon fill="midnightblue" stroke="midnightblue" points="1040.91,-871.22 1050.86,-874.85 1045.34,-865.8 1040.91,-871.22"/>
</g>
<!-- Node31 -->
<g id="node31" class="node">
<title>Node31</title>
<g id="a_node31"><a xlink:href="parameters_8h.html" target="_top" xlink:title=" ">
<polygon fill="white" stroke="black" points="528.67,-797 528.67,-827 665.67,-827 665.67,-797 528.67,-797"/>
<text text-anchor="start" x="536.67" y="-815" font-family="Helvetica,sans-Serif" font-size="10.00">include/network_butcher</text>
<text text-anchor="middle" x="597.17" y="-804" font-family="Helvetica,sans-Serif" font-size="10.00">/Types/parameters.h</text>
</a>
</g>
</g>
<!-- Node26&#45;&gt;Node31 -->
<g id="edge56" class="edge">
<title>Node26&#45;&gt;Node31</title>
<path fill="none" stroke="midnightblue" d="M989.2,-879.79C910.54,-870.1 786.51,-853.44 680.17,-833 671.14,-831.27 661.62,-829.2 652.37,-827.06"/>
<polygon fill="midnightblue" stroke="midnightblue" points="989.16,-883.31 999.51,-881.05 990.01,-876.36 989.16,-883.31"/>
</g>
<!-- Node27&#45;&gt;Node6 -->
<g id="edge46" class="edge">
<title>Node27&#45;&gt;Node6</title>
<path fill="none" stroke="midnightblue" d="M920.42,-358.84C892.35,-346.92 856.19,-331.57 830.3,-320.57"/>
<polygon fill="midnightblue" stroke="midnightblue" points="919.4,-362.22 929.97,-362.9 922.14,-355.77 919.4,-362.22"/>
</g>
<!-- Node28&#45;&gt;Node23 -->
<g id="edge50" class="edge">
<title>Node28&#45;&gt;Node23</title>
<path fill="none" stroke="midnightblue" d="M860.51,-692.69C848.07,-658.48 829.39,-607.1 818.32,-576.67"/>
<polygon fill="midnightblue" stroke="midnightblue" points="857.29,-694.08 864,-702.28 863.87,-691.69 857.29,-694.08"/>
</g>
<!-- Node29 -->
<g id="node29" class="node">
<title>Node29</title>
<g id="a_node29"><a xlink:href="csv__weight__importer_8h.html" target="_top" xlink:title=" ">
<polygon fill="white" stroke="black" points="885.17,-613.5 885.17,-665.5 1049.17,-665.5 1049.17,-613.5 885.17,-613.5"/>
<text text-anchor="start" x="893.17" y="-653.5" font-family="Helvetica,sans-Serif" font-size="10.00">include/network_butcher</text>
<text text-anchor="start" x="893.17" y="-642.5" font-family="Helvetica,sans-Serif" font-size="10.00">/IO_Interaction/Weight</text>
<text text-anchor="start" x="893.17" y="-631.5" font-family="Helvetica,sans-Serif" font-size="10.00">_Importer_Helpers/csv_weight</text>
<text text-anchor="middle" x="967.17" y="-620.5" font-family="Helvetica,sans-Serif" font-size="10.00">_importer.h</text>
</a>
</g>
</g>
<!-- Node28&#45;&gt;Node29 -->
<g id="edge51" class="edge">
<title>Node28&#45;&gt;Node29</title>
<path fill="none" stroke="midnightblue" d="M907.89,-695.36C918.5,-685.54 930.01,-674.89 940.04,-665.61"/>
<polygon fill="midnightblue" stroke="midnightblue" points="905.32,-692.97 900.36,-702.34 910.07,-698.11 905.32,-692.97"/>
</g>
<!-- Node29&#45;&gt;Node23 -->
<g id="edge52" class="edge">
<title>Node29&#45;&gt;Node23</title>
<path fill="none" stroke="midnightblue" d="M912.68,-608.49C893.8,-598.1 872.85,-586.57 854.77,-576.61"/>
<polygon fill="midnightblue" stroke="midnightblue" points="911.02,-611.58 921.47,-613.34 914.4,-605.45 911.02,-611.58"/>
</g>
<!-- Node29&#45;&gt;Node24 -->
<g id="edge53" class="edge">
<title>Node29&#45;&gt;Node24</title>
<path fill="none" stroke="midnightblue" d="M1036.41,-607.77C1047.95,-599.48 1058.36,-589.31 1065.17,-577 1076.57,-556.39 1076.88,-544.44 1065.17,-524 1054.4,-505.21 1035.42,-491.61 1016.53,-482.05"/>
<polygon fill="midnightblue" stroke="midnightblue" points="1034.23,-605.02 1027.85,-613.47 1038.11,-610.84 1034.23,-605.02"/>
</g>
<!-- Node30 -->
<g id="node30" class="node">
<title>Node30</title>
<g id="a_node30"><a xlink:href="csv__weight__importer_8cpp.html" target="_top" xlink:title=" ">
<polygon fill="white" stroke="black" points="912.67,-530 912.67,-571 1055.67,-571 1055.67,-530 912.67,-530"/>
<text text-anchor="start" x="920.67" y="-559" font-family="Helvetica,sans-Serif" font-size="10.00">src/IO_Interaction</text>
<text text-anchor="start" x="920.67" y="-548" font-family="Helvetica,sans-Serif" font-size="10.00">/Weight_Importer_Helpers</text>
<text text-anchor="middle" x="984.17" y="-537" font-family="Helvetica,sans-Serif" font-size="10.00">/csv_weight_importer.cpp</text>
</a>
</g>
</g>
<!-- Node29&#45;&gt;Node30 -->
<g id="edge54" class="edge">
<title>Node29&#45;&gt;Node30</title>
<path fill="none" stroke="midnightblue" d="M974.01,-603.49C976.17,-592.45 978.47,-580.65 980.34,-571.08"/>
<polygon fill="midnightblue" stroke="midnightblue" points="970.57,-602.85 972.09,-613.34 977.44,-604.19 970.57,-602.85"/>
</g>
<!-- Node31&#45;&gt;Node6 -->
<g id="edge57" class="edge">
<title>Node31&#45;&gt;Node6</title>
<path fill="none" stroke="midnightblue" d="M602.63,-786.84C610.22,-746.87 619.28,-666.13 583.17,-613 562.38,-582.42 527.86,-608.29 508.17,-577 495.62,-557.06 500.35,-546.22 508.17,-524 539.73,-434.23 563.89,-411.11 642.17,-357 667.78,-339.3 700,-327.49 728.42,-319.77"/>
<polygon fill="midnightblue" stroke="midnightblue" points="599.18,-786.25 600.62,-796.75 606.04,-787.65 599.18,-786.25"/>
</g>
<!-- Node31&#45;&gt;Node7 -->
<g id="edge59" class="edge">
<title>Node31&#45;&gt;Node7</title>
<path fill="none" stroke="midnightblue" d="M554.48,-792.75C507.23,-770.2 432.67,-727.17 394.17,-666 366.65,-622.28 374.17,-603.16 374.17,-551.5 374.17,-551.5 374.17,-551.5 374.17,-460.5 374.17,-287.35 633.82,-246.4 769.98,-236.84"/>
<polygon fill="midnightblue" stroke="midnightblue" points="553.01,-795.93 563.55,-796.99 555.97,-789.59 553.01,-795.93"/>
</g>
<!-- Node31&#45;&gt;Node21 -->
<g id="edge58" class="edge">
<title>Node31&#45;&gt;Node21</title>
<path fill="none" stroke="midnightblue" d="M607.18,-787.15C610.78,-777.37 614.38,-765.83 616.17,-755 626.44,-692.73 627.84,-675.02 616.17,-613 612.99,-596.1 605.3,-577.89 599.47,-565.71"/>
<polygon fill="midnightblue" stroke="midnightblue" points="603.87,-786.01 603.51,-796.6 610.39,-788.54 603.87,-786.01"/>
</g>
<!-- Node31&#45;&gt;Node28 -->
<g id="edge60" class="edge">
<title>Node31&#45;&gt;Node28</title>
<path fill="none" stroke="midnightblue" d="M654.29,-794.13C696.99,-781.52 755.65,-764.2 801.5,-750.66"/>
<polygon fill="midnightblue" stroke="midnightblue" points="653.21,-790.8 644.61,-796.99 655.2,-797.51 653.21,-790.8"/>
</g>
</g>
</svg>
        <g id="navigator" transform="translate(0 0)" fill="#404254">
                <rect fill="#f2f5e9" fill-opacity="0.5" stroke="#606060" stroke-width=".5" x="0" y="0" width="60" height="60"/>
                <use id="zoomplus" xlink:href="#zoomPlus" x="17" y="9" onmousedown="handleZoom(evt,'in')"/>
                <use id="zoomminus" xlink:href="#zoomMin" x="42" y="9" onmousedown="handleZoom(evt,'out')"/>
                <use id="reset" xlink:href="#resetDef" x="30" y="36" onmousedown="handleReset()"/>
                <g id="arrowUp" xlink:href="#dirArrow" transform="translate(30 24)" onmousedown="handlePan(0,-1)">
                  <use xlink:href="#rim" fill="#404040">
                        <set attributeName="fill" to="#808080" begin="arrowUp.mouseover" end="arrowUp.mouseout"/>
                  </use>
                  <path fill="none" stroke="white" stroke-width="1.5" d="M0,-3.0v7 M-2.5,-0.5L0,-3.0L2.5,-0.5"/>
                </g>
                <g id="arrowRight" xlink:href="#dirArrow" transform="rotate(90) translate(36 -43)" onmousedown="handlePan(1,0)">
                  <use xlink:href="#rim" fill="#404040">
                        <set attributeName="fill" to="#808080" begin="arrowRight.mouseover" end="arrowRight.mouseout"/>
                  </use>
                  <path fill="none" stroke="white" stroke-width="1.5" d="M0,-3.0v7 M-2.5,-0.5L0,-3.0L2.5,-0.5"/>
                </g>
                <g id="arrowDown" xlink:href="#dirArrow" transform="rotate(180) translate(-30 -48)" onmousedown="handlePan(0,1)">
                  <use xlink:href="#rim" fill="#404040">
                        <set attributeName="fill" to="#808080" begin="arrowDown.mouseover" end="arrowDown.mouseout"/>
                  </use>
                  <path fill="none" stroke="white" stroke-width="1.5" d="M0,-3.0v7 M-2.5,-0.5L0,-3.0L2.5,-0.5"/>
                </g>
                <g id="arrowLeft" xlink:href="#dirArrow" transform="rotate(270) translate(-36 17)" onmousedown="handlePan(-1,0)">
                  <use xlink:href="#rim" fill="#404040">
                        <set attributeName="fill" to="#808080" begin="arrowLeft.mouseover" end="arrowLeft.mouseout"/>
                  </use>
                  <path fill="none" stroke="white" stroke-width="1.5" d="M0,-3.0v7 M-2.5,-0.5L0,-3.0L2.5,-0.5"/>
                </g>
        </g>
        <svg viewBox="0 0 15 15" width="100%" height="30px" preserveAspectRatio="xMaxYMin meet">
         <g id="arrow_out" transform="scale(0.3 0.3)">
          <a xlink:href="weighted__graph_8h__dep__incl_org.svg" target="_base">
           <rect id="button" ry="5" rx="5" y="6" x="6" height="38" width="38"
                fill="#f2f5e9" fill-opacity="0.5" stroke="#606060" stroke-width="1.0"/>
           <path id="arrow"
             d="M 11.500037,31.436501 C 11.940474,20.09759 22.043105,11.32322 32.158766,21.979434 L 37.068811,17.246167 C 37.068811,17.246167 37.088388,32 37.088388,32 L 22.160133,31.978069 C 22.160133,31.978069 26.997745,27.140456 26.997745,27.140456 C 18.528582,18.264221 13.291696,25.230495 11.500037,31.436501 z"
             style="fill:#404040;"/>
          </a>
         </g>
        </svg>
</svg>
