<?xml version="1.0" encoding="UTF-8" standalone="no"?>
<!DOCTYPE svg PUBLIC "-//W3C//DTD SVG 1.1//EN"
 "http://www.w3.org/Graphics/SVG/1.1/DTD/svg11.dtd">
<!-- Generated by graphviz version 2.43.0 (0)
 -->
<!-- Title: src/IO_Interaction/Weight_Importer_Helpers/weight_importer_utils.cpp Pages: 1 -->
<!--zoomable 330 -->
<svg id="main" version="1.1" xmlns="http://www.w3.org/2000/svg" xmlns:xlink="http://www.w3.org/1999/xlink" xml:space="preserve" onload="init(evt)">
<style type="text/css"><![CDATA[
.edge:hover path { stroke: red; }
.edge:hover polygon { stroke: red; fill: red; }
]]></style>
<script type="text/javascript"><![CDATA[
var edges = document.getElementsByTagName('g');
if (edges && edges.length) {
  for (var i=0;i<edges.length;i++) {
    if (edges[i].id.substr(0,4)=='edge') {
      edges[i].setAttribute('class','edge');
    }
  }
}
]]></script>
        <defs>
                <circle id="rim" cx="0" cy="0" r="7"/>
                <circle id="rim2" cx="0" cy="0" r="3.5"/>
                <g id="zoomPlus">
                        <use xlink:href="#rim" fill="#404040">
                                <set attributeName="fill" to="#808080" begin="zoomplus.mouseover" end="zoomplus.mouseout"/>
                        </use>
                        <path d="M-4,0h8M0,-4v8" fill="none" stroke="white" stroke-width="1.5" pointer-events="none"/>
                </g>
                <g id="zoomMin">
                        <use xlink:href="#rim" fill="#404040">
                                <set attributeName="fill" to="#808080" begin="zoomminus.mouseover" end="zoomminus.mouseout"/>
                        </use>
                        <path d="M-4,0h8" fill="none" stroke="white" stroke-width="1.5" pointer-events="none"/>
                </g>
                <g id="dirArrow">
                        <path fill="none" stroke="white" stroke-width="1.5" d="M0,-3.0v7 M-2.5,-0.5L0,-3.0L2.5,-0.5"/>
                </g>
               <g id="resetDef">
                       <use xlink:href="#rim2" fill="#404040">
                               <set attributeName="fill" to="#808080" begin="reset.mouseover" end="reset.mouseout"/>
                       </use>
               </g>
        </defs>

<script type="text/javascript">
var viewWidth = 671;
var viewHeight = 330;
var sectionId = 'dynsection-0';
</script>
<script xlink:href="svgpan.js"/>
<svg id="graph" class="graph">
<g id="viewport">
<title>src/IO_Interaction/Weight_Importer_Helpers/weight_importer_utils.cpp</title>
<polygon fill="white" stroke="transparent" points="-4,4 -4,-326 667,-326 667,4 -4,4"/>
<!-- Node1 -->
<g id="node1" class="node">
<title>Node1</title>
<g id="a_node1"><a xlink:title=" ">
<polygon fill="#bfbfbf" stroke="black" points="147,-280.5 147,-321.5 293,-321.5 293,-280.5 147,-280.5"/>
<text text-anchor="start" x="155" y="-309.5" font-family="Helvetica,sans-Serif" font-size="10.00">src/IO_Interaction</text>
<text text-anchor="start" x="155" y="-298.5" font-family="Helvetica,sans-Serif" font-size="10.00">/Weight_Importer_Helpers</text>
<text text-anchor="middle" x="220" y="-287.5" font-family="Helvetica,sans-Serif" font-size="10.00">/weight_importer_utils.cpp</text>
</a>
</g>
</g>
<!-- Node2 -->
<g id="node2" class="node">
<title>Node2</title>
<g id="a_node2"><a xlink:href="weight__importer__utils_8h.html" target="_top" xlink:title=" ">
<polygon fill="white" stroke="black" points="154,-224.5 154,-243.5 286,-243.5 286,-224.5 154,-224.5"/>
<text text-anchor="middle" x="220" y="-231.5" font-family="Helvetica,sans-Serif" font-size="10.00">weight_importer_utils.h</text>
</a>
</g>
</g>
<!-- Node1&#45;&gt;Node2 -->
<g id="edge1" class="edge">
<title>Node1&#45;&gt;Node2</title>
<path fill="none" stroke="midnightblue" d="M220,-280.5C220,-272.07 220,-262.24 220,-253.87"/>
<polygon fill="midnightblue" stroke="midnightblue" points="223.5,-253.65 220,-243.65 216.5,-253.65 223.5,-253.65"/>
</g>
<!-- Node3 -->
<g id="node3" class="node">
<title>Node3</title>
<g id="a_node3"><a xlink:href="traits_8h.html" target="_top" xlink:title=" ">
<polygon fill="white" stroke="black" points="43.5,-112.5 43.5,-131.5 94.5,-131.5 94.5,-112.5 43.5,-112.5"/>
<text text-anchor="middle" x="69" y="-119.5" font-family="Helvetica,sans-Serif" font-size="10.00">traits.h</text>
</a>
</g>
</g>
<!-- Node2&#45;&gt;Node3 -->
<g id="edge2" class="edge">
<title>Node2&#45;&gt;Node3</title>
<path fill="none" stroke="midnightblue" d="M208.15,-224.37C182.35,-205.57 120.85,-160.77 88.95,-137.53"/>
<polygon fill="midnightblue" stroke="midnightblue" points="90.94,-134.65 80.79,-131.59 86.82,-140.31 90.94,-134.65"/>
</g>
<!-- Node12 -->
<g id="node12" class="node">
<title>Node12</title>
<g id="a_node12"><a xlink:href="utilities_8h.html" target="_top" xlink:title=" ">
<polygon fill="white" stroke="black" points="341,-168.5 341,-187.5 403,-187.5 403,-168.5 341,-168.5"/>
<text text-anchor="middle" x="372" y="-175.5" font-family="Helvetica,sans-Serif" font-size="10.00">utilities.h</text>
</a>
</g>
</g>
<!-- Node2&#45;&gt;Node12 -->
<g id="edge12" class="edge">
<title>Node2&#45;&gt;Node12</title>
<path fill="none" stroke="midnightblue" d="M244.08,-224.44C269.54,-215.4 309.89,-201.06 338.46,-190.92"/>
<polygon fill="midnightblue" stroke="midnightblue" points="339.78,-194.16 348.03,-187.52 337.43,-187.57 339.78,-194.16"/>
</g>
<!-- Node4 -->
<g id="node4" class="node">
<title>Node4</title>
<g id="a_node4"><a xlink:title=" ">
<polygon fill="white" stroke="#bfbfbf" points="0,-56.5 0,-75.5 32,-75.5 32,-56.5 0,-56.5"/>
<text text-anchor="middle" x="16" y="-63.5" font-family="Helvetica,sans-Serif" font-size="10.00">set</text>
</a>
</g>
</g>
<!-- Node3&#45;&gt;Node4 -->
<g id="edge3" class="edge">
<title>Node3&#45;&gt;Node4</title>
<path fill="none" stroke="midnightblue" d="M60.25,-112.08C52.53,-104.22 41.1,-92.57 31.78,-83.08"/>
<polygon fill="midnightblue" stroke="midnightblue" points="34.09,-80.44 24.59,-75.75 29.1,-85.34 34.09,-80.44"/>
</g>
<!-- Node5 -->
<g id="node5" class="node">
<title>Node5</title>
<g id="a_node5"><a xlink:title=" ">
<polygon fill="white" stroke="#bfbfbf" points="50,-56.5 50,-75.5 88,-75.5 88,-56.5 50,-56.5"/>
<text text-anchor="middle" x="69" y="-63.5" font-family="Helvetica,sans-Serif" font-size="10.00">map</text>
</a>
</g>
</g>
<!-- Node3&#45;&gt;Node5 -->
<g id="edge4" class="edge">
<title>Node3&#45;&gt;Node5</title>
<path fill="none" stroke="midnightblue" d="M69,-112.08C69,-105.01 69,-94.86 69,-85.99"/>
<polygon fill="midnightblue" stroke="midnightblue" points="72.5,-85.75 69,-75.75 65.5,-85.75 72.5,-85.75"/>
</g>
<!-- Node6 -->
<g id="node6" class="node">
<title>Node6</title>
<g id="a_node6"><a xlink:title=" ">
<polygon fill="white" stroke="#bfbfbf" points="106,-56.5 106,-75.5 164,-75.5 164,-56.5 106,-56.5"/>
<text text-anchor="middle" x="135" y="-63.5" font-family="Helvetica,sans-Serif" font-size="10.00">memory</text>
</a>
</g>
</g>
<!-- Node3&#45;&gt;Node6 -->
<g id="edge5" class="edge">
<title>Node3&#45;&gt;Node6</title>
<path fill="none" stroke="midnightblue" d="M79.6,-112.32C89.46,-104.26 104.35,-92.08 116.22,-82.37"/>
<polygon fill="midnightblue" stroke="midnightblue" points="118.68,-84.88 124.2,-75.83 114.25,-79.46 118.68,-84.88"/>
</g>
<!-- Node7 -->
<g id="node7" class="node">
<title>Node7</title>
<g id="a_node7"><a xlink:href="starting__traits_8h.html" target="_top" xlink:title=" ">
<polygon fill="white" stroke="black" points="217,-0.5 217,-19.5 311,-19.5 311,-0.5 217,-0.5"/>
<text text-anchor="middle" x="264" y="-7.5" font-family="Helvetica,sans-Serif" font-size="10.00">starting_traits.h</text>
</a>
</g>
</g>
<!-- Node3&#45;&gt;Node7 -->
<g id="edge6" class="edge">
<title>Node3&#45;&gt;Node7</title>
<path fill="none" stroke="midnightblue" d="M92.81,-112.36C114.35,-104.16 146.62,-90.9 173,-76 199.58,-60.98 227.85,-39.88 245.7,-25.85"/>
<polygon fill="midnightblue" stroke="midnightblue" points="247.92,-28.55 253.57,-19.58 243.56,-23.07 247.92,-28.55"/>
</g>
<!-- Node8 -->
<g id="node8" class="node">
<title>Node8</title>
<g id="a_node8"><a xlink:title=" ">
<polygon fill="white" stroke="#bfbfbf" points="257.5,-56.5 257.5,-75.5 322.5,-75.5 322.5,-56.5 257.5,-56.5"/>
<text text-anchor="middle" x="290" y="-63.5" font-family="Helvetica,sans-Serif" font-size="10.00">onnx.pb.h</text>
</a>
</g>
</g>
<!-- Node3&#45;&gt;Node8 -->
<g id="edge7" class="edge">
<title>Node3&#45;&gt;Node8</title>
<path fill="none" stroke="midnightblue" d="M94.6,-114.37C97.77,-113.57 100.96,-112.76 104,-112 153.06,-99.76 209.52,-86.17 247.25,-77.16"/>
<polygon fill="midnightblue" stroke="midnightblue" points="248.46,-80.47 257.37,-74.74 246.83,-73.66 248.46,-80.47"/>
</g>
<!-- Node9 -->
<g id="node9" class="node">
<title>Node9</title>
<g id="a_node9"><a xlink:href="type__info_8h.html" target="_top" xlink:title=" ">
<polygon fill="white" stroke="black" points="352.5,-56.5 352.5,-75.5 423.5,-75.5 423.5,-56.5 352.5,-56.5"/>
<text text-anchor="middle" x="388" y="-63.5" font-family="Helvetica,sans-Serif" font-size="10.00">type_info.h</text>
</a>
</g>
</g>
<!-- Node3&#45;&gt;Node9 -->
<g id="edge8" class="edge">
<title>Node3&#45;&gt;Node9</title>
<path fill="none" stroke="midnightblue" d="M94.55,-114.13C97.72,-113.37 100.93,-112.64 104,-112 204.46,-91.2 230.69,-92.14 332,-76 335.41,-75.46 338.94,-74.89 342.48,-74.33"/>
<polygon fill="midnightblue" stroke="midnightblue" points="343.13,-77.77 352.45,-72.73 342.03,-70.85 343.13,-77.77"/>
</g>
<!-- Node9&#45;&gt;Node7 -->
<g id="edge11" class="edge">
<title>Node9&#45;&gt;Node7</title>
<path fill="none" stroke="midnightblue" d="M368.35,-56.44C348.04,-47.6 316.1,-33.69 292.9,-23.59"/>
<polygon fill="midnightblue" stroke="midnightblue" points="294.12,-20.3 283.56,-19.52 291.33,-26.72 294.12,-20.3"/>
</g>
<!-- Node10 -->
<g id="node10" class="node">
<title>Node10</title>
<g id="a_node10"><a xlink:title=" ">
<polygon fill="white" stroke="#bfbfbf" points="377,-0.5 377,-19.5 421,-19.5 421,-0.5 377,-0.5"/>
<text text-anchor="middle" x="399" y="-7.5" font-family="Helvetica,sans-Serif" font-size="10.00">string</text>
</a>
</g>
</g>
<!-- Node9&#45;&gt;Node10 -->
<g id="edge9" class="edge">
<title>Node9&#45;&gt;Node10</title>
<path fill="none" stroke="midnightblue" d="M389.82,-56.08C391.27,-48.93 393.37,-38.64 395.19,-29.69"/>
<polygon fill="midnightblue" stroke="midnightblue" points="398.65,-30.25 397.22,-19.75 391.79,-28.85 398.65,-30.25"/>
</g>
<!-- Node11 -->
<g id="node11" class="node">
<title>Node11</title>
<g id="a_node11"><a xlink:title=" ">
<polygon fill="white" stroke="#bfbfbf" points="460.5,-0.5 460.5,-19.5 507.5,-19.5 507.5,-0.5 460.5,-0.5"/>
<text text-anchor="middle" x="484" y="-7.5" font-family="Helvetica,sans-Serif" font-size="10.00">vector</text>
</a>
</g>
</g>
<!-- Node9&#45;&gt;Node11 -->
<g id="edge10" class="edge">
<title>Node9&#45;&gt;Node11</title>
<path fill="none" stroke="midnightblue" d="M403.42,-56.32C418.54,-47.82 441.82,-34.73 459.47,-24.8"/>
<polygon fill="midnightblue" stroke="midnightblue" points="461.61,-27.61 468.61,-19.65 458.18,-21.51 461.61,-27.61"/>
</g>
<!-- Node12&#45;&gt;Node3 -->
<g id="edge19" class="edge">
<title>Node12&#45;&gt;Node3</title>
<path fill="none" stroke="midnightblue" d="M340.89,-172.66C292.53,-165.72 196.23,-151.14 104.56,-131.95"/>
<polygon fill="midnightblue" stroke="midnightblue" points="105.06,-128.48 94.55,-129.84 103.61,-135.33 105.06,-128.48"/>
</g>
<!-- Node12&#45;&gt;Node8 -->
<g id="edge18" class="edge">
<title>Node12&#45;&gt;Node8</title>
<path fill="none" stroke="midnightblue" d="M382.63,-168.22C396.88,-155.37 418.95,-130.91 406,-112 397.23,-99.19 361.73,-86.58 332.29,-77.98"/>
<polygon fill="midnightblue" stroke="midnightblue" points="333.16,-74.59 322.58,-75.22 331.25,-81.32 333.16,-74.59"/>
</g>
<!-- Node12&#45;&gt;Node9 -->
<g id="edge28" class="edge">
<title>Node12&#45;&gt;Node9</title>
<path fill="none" stroke="midnightblue" d="M394.79,-168.47C410.33,-161.32 429.71,-149.44 439,-132 449.2,-112.85 429.55,-93.64 411.75,-81.13"/>
<polygon fill="midnightblue" stroke="midnightblue" points="413.58,-78.14 403.31,-75.55 409.72,-83.98 413.58,-78.14"/>
</g>
<!-- Node13 -->
<g id="node13" class="node">
<title>Node13</title>
<g id="a_node13"><a xlink:title=" ">
<polygon fill="white" stroke="#bfbfbf" points="599,-112.5 599,-131.5 663,-131.5 663,-112.5 599,-112.5"/>
<text text-anchor="middle" x="631" y="-119.5" font-family="Helvetica,sans-Serif" font-size="10.00">algorithm</text>
</a>
</g>
</g>
<!-- Node12&#45;&gt;Node13 -->
<g id="edge13" class="edge">
<title>Node12&#45;&gt;Node13</title>
<path fill="none" stroke="midnightblue" d="M403.07,-170.71C443.48,-162.51 516.53,-147.59 588.62,-132.28"/>
<polygon fill="midnightblue" stroke="midnightblue" points="589.73,-135.62 598.78,-130.11 588.27,-128.77 589.73,-135.62"/>
</g>
<!-- Node14 -->
<g id="node14" class="node">
<title>Node14</title>
<g id="a_node14"><a xlink:title=" ">
<polygon fill="white" stroke="#bfbfbf" points="113,-112.5 113,-131.5 169,-131.5 169,-112.5 113,-112.5"/>
<text text-anchor="middle" x="141" y="-119.5" font-family="Helvetica,sans-Serif" font-size="10.00">numeric</text>
</a>
</g>
</g>
<!-- Node12&#45;&gt;Node14 -->
<g id="edge14" class="edge">
<title>Node12&#45;&gt;Node14</title>
<path fill="none" stroke="midnightblue" d="M340.73,-169.85C304.31,-161.51 242.09,-147.18 179.34,-132.3"/>
<polygon fill="midnightblue" stroke="midnightblue" points="179.81,-128.82 169.27,-129.91 178.2,-135.63 179.81,-128.82"/>
</g>
<!-- Node15 -->
<g id="node15" class="node">
<title>Node15</title>
<g id="a_node15"><a xlink:title=" ">
<polygon fill="white" stroke="#bfbfbf" points="187,-112.5 187,-131.5 255,-131.5 255,-112.5 187,-112.5"/>
<text text-anchor="middle" x="221" y="-119.5" font-family="Helvetica,sans-Serif" font-size="10.00">filesystem</text>
</a>
</g>
</g>
<!-- Node12&#45;&gt;Node15 -->
<g id="edge15" class="edge">
<title>Node12&#45;&gt;Node15</title>
<path fill="none" stroke="midnightblue" d="M348.07,-168.44C322.78,-159.4 282.7,-145.06 254.32,-134.92"/>
<polygon fill="midnightblue" stroke="midnightblue" points="255.41,-131.59 244.81,-131.52 253.05,-138.18 255.41,-131.59"/>
</g>
<!-- Node16 -->
<g id="node16" class="node">
<title>Node16</title>
<g id="a_node16"><a xlink:title=" ">
<polygon fill="white" stroke="#bfbfbf" points="273.5,-112.5 273.5,-131.5 328.5,-131.5 328.5,-112.5 273.5,-112.5"/>
<text text-anchor="middle" x="301" y="-119.5" font-family="Helvetica,sans-Serif" font-size="10.00">fstream</text>
</a>
</g>
</g>
<!-- Node12&#45;&gt;Node16 -->
<g id="edge16" class="edge">
<title>Node12&#45;&gt;Node16</title>
<path fill="none" stroke="midnightblue" d="M360.59,-168.32C349.89,-160.18 333.66,-147.84 320.84,-138.09"/>
<polygon fill="midnightblue" stroke="midnightblue" points="322.69,-135.1 312.61,-131.83 318.46,-140.67 322.69,-135.1"/>
</g>
<!-- Node17 -->
<g id="node17" class="node">
<title>Node17</title>
<g id="a_node17"><a xlink:title=" ">
<polygon fill="white" stroke="#bfbfbf" points="347,-112.5 347,-131.5 397,-131.5 397,-112.5 347,-112.5"/>
<text text-anchor="middle" x="372" y="-119.5" font-family="Helvetica,sans-Serif" font-size="10.00">ranges</text>
</a>
</g>
</g>
<!-- Node12&#45;&gt;Node17 -->
<g id="edge17" class="edge">
<title>Node12&#45;&gt;Node17</title>
<path fill="none" stroke="midnightblue" d="M372,-168.08C372,-161.01 372,-150.86 372,-141.99"/>
<polygon fill="midnightblue" stroke="midnightblue" points="375.5,-141.75 372,-131.75 368.5,-141.75 375.5,-141.75"/>
</g>
<!-- Node18 -->
<g id="node18" class="node">
<title>Node18</title>
<g id="a_node18"><a xlink:href="dense__tensor_8h.html" target="_top" xlink:title=" ">
<polygon fill="white" stroke="black" points="491,-112.5 491,-131.5 581,-131.5 581,-112.5 491,-112.5"/>
<text text-anchor="middle" x="536" y="-119.5" font-family="Helvetica,sans-Serif" font-size="10.00">dense_tensor.h</text>
</a>
</g>
</g>
<!-- Node12&#45;&gt;Node18 -->
<g id="edge20" class="edge">
<title>Node12&#45;&gt;Node18</title>
<path fill="none" stroke="midnightblue" d="M392.9,-168.44C418.72,-159.28 462.85,-144.69 495.37,-134.52"/>
<polygon fill="midnightblue" stroke="midnightblue" points="496.54,-137.82 505.06,-131.52 494.47,-131.13 496.54,-137.82"/>
</g>
<!-- Node18&#45;&gt;Node9 -->
<g id="edge21" class="edge">
<title>Node18&#45;&gt;Node9</title>
<path fill="none" stroke="midnightblue" d="M512.55,-112.44C487.87,-103.44 448.81,-89.19 421.02,-79.05"/>
<polygon fill="midnightblue" stroke="midnightblue" points="421.94,-75.66 411.34,-75.52 419.54,-82.23 421.94,-75.66"/>
</g>
<!-- Node18&#45;&gt;Node11 -->
<g id="edge27" class="edge">
<title>Node18&#45;&gt;Node11</title>
<path fill="none" stroke="midnightblue" d="M543.44,-112.16C553.36,-99.23 568.51,-74.69 558,-56 549.15,-40.26 532.32,-29.39 516.95,-22.28"/>
<polygon fill="midnightblue" stroke="midnightblue" points="518.22,-19.01 507.65,-18.33 515.48,-25.46 518.22,-19.01"/>
</g>
<!-- Node18&#45;&gt;Node12 -->
<g id="edge26" class="edge">
<title>Node18&#45;&gt;Node12</title>
<path fill="none" stroke="midnightblue" d="M515.22,-131.52C489.45,-140.66 445.33,-155.26 412.77,-165.44"/>
<polygon fill="midnightblue" stroke="midnightblue" points="411.59,-162.14 403.08,-168.44 413.66,-168.82 411.59,-162.14"/>
</g>
<!-- Node19 -->
<g id="node19" class="node">
<title>Node19</title>
<g id="a_node19"><a xlink:href="variant__attribute_8h.html" target="_top" xlink:title=" ">
<polygon fill="white" stroke="black" points="441.5,-56.5 441.5,-75.5 548.5,-75.5 548.5,-56.5 441.5,-56.5"/>
<text text-anchor="middle" x="495" y="-63.5" font-family="Helvetica,sans-Serif" font-size="10.00">variant_attribute.h</text>
</a>
</g>
</g>
<!-- Node18&#45;&gt;Node19 -->
<g id="edge22" class="edge">
<title>Node18&#45;&gt;Node19</title>
<path fill="none" stroke="midnightblue" d="M529.23,-112.08C523.44,-104.46 514.94,-93.26 507.86,-83.94"/>
<polygon fill="midnightblue" stroke="midnightblue" points="510.48,-81.6 501.64,-75.75 504.9,-85.83 510.48,-81.6"/>
</g>
<!-- Node19&#45;&gt;Node10 -->
<g id="edge23" class="edge">
<title>Node19&#45;&gt;Node10</title>
<path fill="none" stroke="midnightblue" d="M479.58,-56.32C464.46,-47.82 441.18,-34.73 423.53,-24.8"/>
<polygon fill="midnightblue" stroke="midnightblue" points="424.82,-21.51 414.39,-19.65 421.39,-27.61 424.82,-21.51"/>
</g>
<!-- Node19&#45;&gt;Node11 -->
<g id="edge25" class="edge">
<title>Node19&#45;&gt;Node11</title>
<path fill="none" stroke="midnightblue" d="M493.18,-56.08C491.73,-48.93 489.63,-38.64 487.81,-29.69"/>
<polygon fill="midnightblue" stroke="midnightblue" points="491.21,-28.85 485.78,-19.75 484.35,-30.25 491.21,-28.85"/>
</g>
<!-- Node20 -->
<g id="node20" class="node">
<title>Node20</title>
<g id="a_node20"><a xlink:title=" ">
<polygon fill="white" stroke="#bfbfbf" points="525.5,-0.5 525.5,-19.5 576.5,-19.5 576.5,-0.5 525.5,-0.5"/>
<text text-anchor="middle" x="551" y="-7.5" font-family="Helvetica,sans-Serif" font-size="10.00">variant</text>
</a>
</g>
</g>
<!-- Node19&#45;&gt;Node20 -->
<g id="edge24" class="edge">
<title>Node19&#45;&gt;Node20</title>
<path fill="none" stroke="midnightblue" d="M504,-56.32C512.19,-48.42 524.51,-36.55 534.47,-26.94"/>
<polygon fill="midnightblue" stroke="midnightblue" points="537.07,-29.29 541.84,-19.83 532.21,-24.26 537.07,-29.29"/>
</g>
</g>
</svg>
        <g id="navigator" transform="translate(0 0)" fill="#404254">
                <rect fill="#f2f5e9" fill-opacity="0.5" stroke="#606060" stroke-width=".5" x="0" y="0" width="60" height="60"/>
                <use id="zoomplus" xlink:href="#zoomPlus" x="17" y="9" onmousedown="handleZoom(evt,'in')"/>
                <use id="zoomminus" xlink:href="#zoomMin" x="42" y="9" onmousedown="handleZoom(evt,'out')"/>
                <use id="reset" xlink:href="#resetDef" x="30" y="36" onmousedown="handleReset()"/>
                <g id="arrowUp" xlink:href="#dirArrow" transform="translate(30 24)" onmousedown="handlePan(0,-1)">
                  <use xlink:href="#rim" fill="#404040">
                        <set attributeName="fill" to="#808080" begin="arrowUp.mouseover" end="arrowUp.mouseout"/>
                  </use>
                  <path fill="none" stroke="white" stroke-width="1.5" d="M0,-3.0v7 M-2.5,-0.5L0,-3.0L2.5,-0.5"/>
                </g>
                <g id="arrowRight" xlink:href="#dirArrow" transform="rotate(90) translate(36 -43)" onmousedown="handlePan(1,0)">
                  <use xlink:href="#rim" fill="#404040">
                        <set attributeName="fill" to="#808080" begin="arrowRight.mouseover" end="arrowRight.mouseout"/>
                  </use>
                  <path fill="none" stroke="white" stroke-width="1.5" d="M0,-3.0v7 M-2.5,-0.5L0,-3.0L2.5,-0.5"/>
                </g>
                <g id="arrowDown" xlink:href="#dirArrow" transform="rotate(180) translate(-30 -48)" onmousedown="handlePan(0,1)">
                  <use xlink:href="#rim" fill="#404040">
                        <set attributeName="fill" to="#808080" begin="arrowDown.mouseover" end="arrowDown.mouseout"/>
                  </use>
                  <path fill="none" stroke="white" stroke-width="1.5" d="M0,-3.0v7 M-2.5,-0.5L0,-3.0L2.5,-0.5"/>
                </g>
                <g id="arrowLeft" xlink:href="#dirArrow" transform="rotate(270) translate(-36 17)" onmousedown="handlePan(-1,0)">
                  <use xlink:href="#rim" fill="#404040">
                        <set attributeName="fill" to="#808080" begin="arrowLeft.mouseover" end="arrowLeft.mouseout"/>
                  </use>
                  <path fill="none" stroke="white" stroke-width="1.5" d="M0,-3.0v7 M-2.5,-0.5L0,-3.0L2.5,-0.5"/>
                </g>
        </g>
        <svg viewBox="0 0 15 15" width="100%" height="30px" preserveAspectRatio="xMaxYMin meet">
         <g id="arrow_out" transform="scale(0.3 0.3)">
          <a xlink:href="weight__importer__utils_8cpp__incl_org.svg" target="_base">
           <rect id="button" ry="5" rx="5" y="6" x="6" height="38" width="38"
                fill="#f2f5e9" fill-opacity="0.5" stroke="#606060" stroke-width="1.0"/>
           <path id="arrow"
             d="M 11.500037,31.436501 C 11.940474,20.09759 22.043105,11.32322 32.158766,21.979434 L 37.068811,17.246167 C 37.068811,17.246167 37.088388,32 37.088388,32 L 22.160133,31.978069 C 22.160133,31.978069 26.997745,27.140456 26.997745,27.140456 C 18.528582,18.264221 13.291696,25.230495 11.500037,31.436501 z"
             style="fill:#404040;"/>
          </a>
         </g>
        </svg>
</svg>
