<?xml version="1.0" encoding="UTF-8" standalone="no"?>
<!DOCTYPE svg PUBLIC "-//W3C//DTD SVG 1.1//EN"
 "http://www.w3.org/Graphics/SVG/1.1/DTD/svg11.dtd">
<!-- Generated by graphviz version 2.43.0 (0)
 -->
<!-- Title: include/network_butcher/IO_Interaction/weight_importers.h Pages: 1 -->
<!--zoomable 987 -->
<svg id="main" version="1.1" xmlns="http://www.w3.org/2000/svg" xmlns:xlink="http://www.w3.org/1999/xlink" xml:space="preserve" onload="init(evt)">
<style type="text/css"><![CDATA[
.edge:hover path { stroke: red; }
.edge:hover polygon { stroke: red; fill: red; }
]]></style>
<script type="text/javascript"><![CDATA[
var edges = document.getElementsByTagName('g');
if (edges && edges.length) {
  for (var i=0;i<edges.length;i++) {
    if (edges[i].id.substr(0,4)=='edge') {
      edges[i].setAttribute('class','edge');
    }
  }
}
]]></script>
        <defs>
                <circle id="rim" cx="0" cy="0" r="7"/>
                <circle id="rim2" cx="0" cy="0" r="3.5"/>
                <g id="zoomPlus">
                        <use xlink:href="#rim" fill="#404040">
                                <set attributeName="fill" to="#808080" begin="zoomplus.mouseover" end="zoomplus.mouseout"/>
                        </use>
                        <path d="M-4,0h8M0,-4v8" fill="none" stroke="white" stroke-width="1.5" pointer-events="none"/>
                </g>
                <g id="zoomMin">
                        <use xlink:href="#rim" fill="#404040">
                                <set attributeName="fill" to="#808080" begin="zoomminus.mouseover" end="zoomminus.mouseout"/>
                        </use>
                        <path d="M-4,0h8" fill="none" stroke="white" stroke-width="1.5" pointer-events="none"/>
                </g>
                <g id="dirArrow">
                        <path fill="none" stroke="white" stroke-width="1.5" d="M0,-3.0v7 M-2.5,-0.5L0,-3.0L2.5,-0.5"/>
                </g>
               <g id="resetDef">
                       <use xlink:href="#rim2" fill="#404040">
                               <set attributeName="fill" to="#808080" begin="reset.mouseover" end="reset.mouseout"/>
                       </use>
               </g>
        </defs>

<script type="text/javascript">
var viewWidth = 1137;
var viewHeight = 987;
var sectionId = 'dynsection-0';
</script>
<script xlink:href="svgpan.js"/>
<svg id="graph" class="graph">
<g id="viewport">
<title>include/network_butcher/IO_Interaction/weight_importers.h</title>
<polygon fill="white" stroke="transparent" points="-4,4 -4,-983 1132.5,-983 1132.5,4 -4,4"/>
<!-- Node1 -->
<g id="node1" class="node">
<title>Node1</title>
<g id="a_node1"><a xlink:title=" ">
<polygon fill="#bfbfbf" stroke="black" points="247,-937.5 247,-978.5 384,-978.5 384,-937.5 247,-937.5"/>
<text text-anchor="start" x="255" y="-966.5" font-family="Helvetica,sans-Serif" font-size="10.00">include/network_butcher</text>
<text text-anchor="start" x="255" y="-955.5" font-family="Helvetica,sans-Serif" font-size="10.00">/IO_Interaction/weight</text>
<text text-anchor="middle" x="315.5" y="-944.5" font-family="Helvetica,sans-Serif" font-size="10.00">_importers.h</text>
</a>
</g>
</g>
<!-- Node2 -->
<g id="node2" class="node">
<title>Node2</title>
<g id="a_node2"><a xlink:href="block__aMLLibrary__weight__importer_8h.html" target="_top" xlink:title=" ">
<polygon fill="white" stroke="black" points="174.5,-848.5 174.5,-900.5 344.5,-900.5 344.5,-848.5 174.5,-848.5"/>
<text text-anchor="start" x="182.5" y="-888.5" font-family="Helvetica,sans-Serif" font-size="10.00">network_butcher/IO</text>
<text text-anchor="start" x="182.5" y="-877.5" font-family="Helvetica,sans-Serif" font-size="10.00">_Interaction/Weight</text>
<text text-anchor="start" x="182.5" y="-866.5" font-family="Helvetica,sans-Serif" font-size="10.00">_Importer_Helpers/block</text>
<text text-anchor="middle" x="259.5" y="-855.5" font-family="Helvetica,sans-Serif" font-size="10.00">_aMLLibrary_weight_importer.h</text>
</a>
</g>
</g>
<!-- Node1&#45;&gt;Node2 -->
<g id="edge1" class="edge">
<title>Node1&#45;&gt;Node2</title>
<path fill="none" stroke="midnightblue" d="M301.94,-937.27C296.09,-928.75 289.07,-918.53 282.44,-908.88"/>
<polygon fill="midnightblue" stroke="midnightblue" points="285.3,-906.87 276.75,-900.61 279.53,-910.83 285.3,-906.87"/>
</g>
<!-- Node37 -->
<g id="node37" class="node">
<title>Node37</title>
<g id="a_node37"><a xlink:href="csv__weight__importer_8h.html" target="_top" xlink:title=" ">
<polygon fill="white" stroke="black" points="305.5,-759.5 305.5,-811.5 431.5,-811.5 431.5,-759.5 305.5,-759.5"/>
<text text-anchor="start" x="313.5" y="-799.5" font-family="Helvetica,sans-Serif" font-size="10.00">network_butcher/IO</text>
<text text-anchor="start" x="313.5" y="-788.5" font-family="Helvetica,sans-Serif" font-size="10.00">_Interaction/Weight</text>
<text text-anchor="start" x="313.5" y="-777.5" font-family="Helvetica,sans-Serif" font-size="10.00">_Importer_Helpers/csv</text>
<text text-anchor="middle" x="368.5" y="-766.5" font-family="Helvetica,sans-Serif" font-size="10.00">_weight_importer.h</text>
</a>
</g>
</g>
<!-- Node1&#45;&gt;Node37 -->
<g id="edge69" class="edge">
<title>Node1&#45;&gt;Node37</title>
<path fill="none" stroke="midnightblue" d="M332.23,-937.28C339.97,-927.09 348.53,-914.07 353.5,-901 363.14,-875.65 366.78,-845.12 368.07,-821.96"/>
<polygon fill="midnightblue" stroke="midnightblue" points="371.57,-822.03 368.51,-811.88 364.57,-821.72 371.57,-822.03"/>
</g>
<!-- Node3 -->
<g id="node3" class="node">
<title>Node3</title>
<g id="a_node3"><a xlink:title=" ">
<polygon fill="white" stroke="#bfbfbf" points="240,-776 240,-795 287,-795 287,-776 240,-776"/>
<text text-anchor="middle" x="263.5" y="-783" font-family="Helvetica,sans-Serif" font-size="10.00">cmath</text>
</a>
</g>
</g>
<!-- Node2&#45;&gt;Node3 -->
<g id="edge2" class="edge">
<title>Node2&#45;&gt;Node3</title>
<path fill="none" stroke="midnightblue" d="M260.66,-848.34C261.29,-834.66 262.05,-818.02 262.63,-805.45"/>
<polygon fill="midnightblue" stroke="midnightblue" points="266.13,-805.4 263.1,-795.25 259.14,-805.08 266.13,-805.4"/>
</g>
<!-- Node4 -->
<g id="node4" class="node">
<title>Node4</title>
<g id="a_node4"><a xlink:href="computer__memory_8h.html" target="_top" xlink:title=" ">
<polygon fill="white" stroke="black" points="219,-536.5 219,-566.5 368,-566.5 368,-536.5 219,-536.5"/>
<text text-anchor="start" x="227" y="-554.5" font-family="Helvetica,sans-Serif" font-size="10.00">network_butcher/Computer</text>
<text text-anchor="middle" x="293.5" y="-543.5" font-family="Helvetica,sans-Serif" font-size="10.00">/computer_memory.h</text>
</a>
</g>
</g>
<!-- Node2&#45;&gt;Node4 -->
<g id="edge3" class="edge">
<title>Node2&#45;&gt;Node4</title>
<path fill="none" stroke="midnightblue" d="M235.56,-848.44C201.93,-810.03 147.63,-734.29 174.5,-670 192.15,-627.76 233.21,-592.97 262.14,-572.49"/>
<polygon fill="midnightblue" stroke="midnightblue" points="264.44,-575.15 270.69,-566.6 260.47,-569.39 264.44,-575.15"/>
</g>
<!-- Node32 -->
<g id="node32" class="node">
<title>Node32</title>
<g id="a_node32"><a xlink:href="weight__importer_8h.html" target="_top" xlink:title=" ">
<polygon fill="white" stroke="black" points="388,-670.5 388,-722.5 531,-722.5 531,-670.5 388,-670.5"/>
<text text-anchor="start" x="396" y="-710.5" font-family="Helvetica,sans-Serif" font-size="10.00">network_butcher/IO</text>
<text text-anchor="start" x="396" y="-699.5" font-family="Helvetica,sans-Serif" font-size="10.00">_Interaction/Weight</text>
<text text-anchor="start" x="396" y="-688.5" font-family="Helvetica,sans-Serif" font-size="10.00">_Importer_Helpers/weight</text>
<text text-anchor="middle" x="459.5" y="-677.5" font-family="Helvetica,sans-Serif" font-size="10.00">_importer.h</text>
</a>
</g>
</g>
<!-- Node2&#45;&gt;Node32 -->
<g id="edge53" class="edge">
<title>Node2&#45;&gt;Node32</title>
<path fill="none" stroke="midnightblue" d="M344.51,-863.8C379.13,-855.51 416.55,-840.21 440.5,-812 458.87,-790.36 462.78,-757.86 462.57,-733.01"/>
<polygon fill="midnightblue" stroke="midnightblue" points="466.07,-732.77 462.27,-722.88 459.07,-732.98 466.07,-732.77"/>
</g>
<!-- Node36 -->
<g id="node36" class="node">
<title>Node36</title>
<g id="a_node36"><a xlink:href="weight__importer__utils_8h.html" target="_top" xlink:title=" ">
<polygon fill="white" stroke="black" points="184,-670.5 184,-722.5 327,-722.5 327,-670.5 184,-670.5"/>
<text text-anchor="start" x="192" y="-710.5" font-family="Helvetica,sans-Serif" font-size="10.00">network_butcher/IO</text>
<text text-anchor="start" x="192" y="-699.5" font-family="Helvetica,sans-Serif" font-size="10.00">_Interaction/Weight</text>
<text text-anchor="start" x="192" y="-688.5" font-family="Helvetica,sans-Serif" font-size="10.00">_Importer_Helpers/weight</text>
<text text-anchor="middle" x="255.5" y="-677.5" font-family="Helvetica,sans-Serif" font-size="10.00">_importer_utils.h</text>
</a>
</g>
</g>
<!-- Node2&#45;&gt;Node36 -->
<g id="edge63" class="edge">
<title>Node2&#45;&gt;Node36</title>
<path fill="none" stroke="midnightblue" d="M244.58,-848.37C238.99,-837.57 233.31,-824.56 230.5,-812 225.35,-789.01 225.98,-782.12 230.5,-759 232.27,-749.96 235.37,-740.57 238.8,-731.93"/>
<polygon fill="midnightblue" stroke="midnightblue" points="242.09,-733.13 242.75,-722.55 235.64,-730.4 242.09,-733.13"/>
</g>
<!-- Node2&#45;&gt;Node37 -->
<g id="edge66" class="edge">
<title>Node2&#45;&gt;Node37</title>
<path fill="none" stroke="midnightblue" d="M291.03,-848.34C302.89,-838.87 316.53,-827.98 329.03,-818.01"/>
<polygon fill="midnightblue" stroke="midnightblue" points="331.41,-820.58 337.04,-811.61 327.04,-815.11 331.41,-820.58"/>
</g>
<!-- Node5 -->
<g id="node5" class="node">
<title>Node5</title>
<g id="a_node5"><a xlink:title=" ">
<polygon fill="white" stroke="#bfbfbf" points="261,-475 261,-494 326,-494 326,-475 261,-475"/>
<text text-anchor="middle" x="293.5" y="-482" font-family="Helvetica,sans-Serif" font-size="10.00">functional</text>
</a>
</g>
</g>
<!-- Node4&#45;&gt;Node5 -->
<g id="edge4" class="edge">
<title>Node4&#45;&gt;Node5</title>
<path fill="none" stroke="midnightblue" d="M293.5,-536.4C293.5,-527.06 293.5,-514.71 293.5,-504.52"/>
<polygon fill="midnightblue" stroke="midnightblue" points="297,-504.19 293.5,-494.19 290,-504.19 297,-504.19"/>
</g>
<!-- Node6 -->
<g id="node6" class="node">
<title>Node6</title>
<g id="a_node6"><a xlink:href="utilities_8h.html" target="_top" xlink:title=" ">
<polygon fill="white" stroke="black" points="352,-207 352,-226 499,-226 499,-207 352,-207"/>
<text text-anchor="middle" x="425.5" y="-214" font-family="Helvetica,sans-Serif" font-size="10.00">network_butcher/utilities.h</text>
</a>
</g>
</g>
<!-- Node4&#45;&gt;Node6 -->
<g id="edge5" class="edge">
<title>Node4&#45;&gt;Node6</title>
<path fill="none" stroke="midnightblue" d="M307.62,-536.07C316.36,-526.5 327.25,-513.28 334.5,-500 384.9,-407.66 412.79,-282.92 422.02,-236.2"/>
<polygon fill="midnightblue" stroke="midnightblue" points="425.47,-236.77 423.92,-226.29 418.6,-235.45 425.47,-236.77"/>
</g>
<!-- Node24 -->
<g id="node24" class="node">
<title>Node24</title>
<g id="a_node24"><a xlink:href="wgraph_8h.html" target="_top" xlink:title=" ">
<polygon fill="white" stroke="black" points="451,-469.5 451,-499.5 594,-499.5 594,-469.5 451,-469.5"/>
<text text-anchor="start" x="459" y="-487.5" font-family="Helvetica,sans-Serif" font-size="10.00">network_butcher/Network</text>
<text text-anchor="middle" x="522.5" y="-476.5" font-family="Helvetica,sans-Serif" font-size="10.00">/wgraph.h</text>
</a>
</g>
</g>
<!-- Node4&#45;&gt;Node24 -->
<g id="edge31" class="edge">
<title>Node4&#45;&gt;Node24</title>
<path fill="none" stroke="midnightblue" d="M342.91,-536.48C378.15,-526.47 425.72,-512.97 463.04,-502.38"/>
<polygon fill="midnightblue" stroke="midnightblue" points="464.12,-505.71 472.79,-499.61 462.21,-498.97 464.12,-505.71"/>
</g>
<!-- Node7 -->
<g id="node7" class="node">
<title>Node7</title>
<g id="a_node7"><a xlink:title=" ">
<polygon fill="white" stroke="#bfbfbf" points="501.5,-140 501.5,-159 565.5,-159 565.5,-140 501.5,-140"/>
<text text-anchor="middle" x="533.5" y="-147" font-family="Helvetica,sans-Serif" font-size="10.00">algorithm</text>
</a>
</g>
</g>
<!-- Node6&#45;&gt;Node7 -->
<g id="edge6" class="edge">
<title>Node6&#45;&gt;Node7</title>
<path fill="none" stroke="midnightblue" d="M440.07,-206.73C458.12,-195.87 489.11,-177.22 510.42,-164.39"/>
<polygon fill="midnightblue" stroke="midnightblue" points="512.4,-167.28 519.17,-159.13 508.79,-161.29 512.4,-167.28"/>
</g>
<!-- Node8 -->
<g id="node8" class="node">
<title>Node8</title>
<g id="a_node8"><a xlink:title=" ">
<polygon fill="white" stroke="#bfbfbf" points="583.5,-140 583.5,-159 639.5,-159 639.5,-140 583.5,-140"/>
<text text-anchor="middle" x="611.5" y="-147" font-family="Helvetica,sans-Serif" font-size="10.00">numeric</text>
</a>
</g>
</g>
<!-- Node6&#45;&gt;Node8 -->
<g id="edge7" class="edge">
<title>Node6&#45;&gt;Node8</title>
<path fill="none" stroke="midnightblue" d="M452.01,-206.93C481.9,-197.17 531.91,-180.55 574.5,-165 576.4,-164.31 578.34,-163.58 580.3,-162.85"/>
<polygon fill="midnightblue" stroke="midnightblue" points="581.96,-165.96 590.04,-159.1 579.45,-159.42 581.96,-165.96"/>
</g>
<!-- Node9 -->
<g id="node9" class="node">
<title>Node9</title>
<g id="a_node9"><a xlink:title=" ">
<polygon fill="white" stroke="#bfbfbf" points="235.5,-140 235.5,-159 303.5,-159 303.5,-140 235.5,-140"/>
<text text-anchor="middle" x="269.5" y="-147" font-family="Helvetica,sans-Serif" font-size="10.00">filesystem</text>
</a>
</g>
</g>
<!-- Node6&#45;&gt;Node9 -->
<g id="edge8" class="edge">
<title>Node6&#45;&gt;Node9</title>
<path fill="none" stroke="midnightblue" d="M404.78,-206.87C377.86,-195.65 330.64,-175.98 299.72,-163.09"/>
<polygon fill="midnightblue" stroke="midnightblue" points="300.88,-159.78 290.3,-159.17 298.19,-166.24 300.88,-159.78"/>
</g>
<!-- Node10 -->
<g id="node10" class="node">
<title>Node10</title>
<g id="a_node10"><a xlink:title=" ">
<polygon fill="white" stroke="#bfbfbf" points="322,-140 322,-159 377,-159 377,-140 322,-140"/>
<text text-anchor="middle" x="349.5" y="-147" font-family="Helvetica,sans-Serif" font-size="10.00">fstream</text>
</a>
</g>
</g>
<!-- Node6&#45;&gt;Node10 -->
<g id="edge9" class="edge">
<title>Node6&#45;&gt;Node10</title>
<path fill="none" stroke="midnightblue" d="M415.25,-206.73C403.06,-196.31 382.48,-178.71 367.59,-165.97"/>
<polygon fill="midnightblue" stroke="midnightblue" points="369.46,-162.97 359.59,-159.13 364.91,-168.29 369.46,-162.97"/>
</g>
<!-- Node11 -->
<g id="node11" class="node">
<title>Node11</title>
<g id="a_node11"><a xlink:title=" ">
<polygon fill="white" stroke="#bfbfbf" points="395.5,-140 395.5,-159 445.5,-159 445.5,-140 395.5,-140"/>
<text text-anchor="middle" x="420.5" y="-147" font-family="Helvetica,sans-Serif" font-size="10.00">ranges</text>
</a>
</g>
</g>
<!-- Node6&#45;&gt;Node11 -->
<g id="edge10" class="edge">
<title>Node6&#45;&gt;Node11</title>
<path fill="none" stroke="midnightblue" d="M424.83,-206.73C424.09,-197.18 422.89,-181.62 421.94,-169.28"/>
<polygon fill="midnightblue" stroke="midnightblue" points="425.42,-168.83 421.16,-159.13 418.44,-169.37 425.42,-168.83"/>
</g>
<!-- Node12 -->
<g id="node12" class="node">
<title>Node12</title>
<g id="a_node12"><a xlink:title=" ">
<polygon fill="white" stroke="#bfbfbf" points="0,-67.5 0,-97.5 125,-97.5 125,-67.5 0,-67.5"/>
<text text-anchor="start" x="8" y="-85.5" font-family="Helvetica,sans-Serif" font-size="10.00">network_butcher/onnx</text>
<text text-anchor="middle" x="62.5" y="-74.5" font-family="Helvetica,sans-Serif" font-size="10.00">_proto/onnx.pb.h</text>
</a>
</g>
</g>
<!-- Node6&#45;&gt;Node12 -->
<g id="edge11" class="edge">
<title>Node6&#45;&gt;Node12</title>
<path fill="none" stroke="midnightblue" d="M351.92,-214.25C262.5,-211.16 118.78,-200.62 80.5,-165 65.05,-150.63 61.36,-126.24 61.04,-107.88"/>
<polygon fill="midnightblue" stroke="midnightblue" points="64.54,-107.68 61.19,-97.63 57.54,-107.57 64.54,-107.68"/>
</g>
<!-- Node13 -->
<g id="node13" class="node">
<title>Node13</title>
<g id="a_node13"><a xlink:href="traits_8h.html" target="_top" xlink:title=" ">
<polygon fill="white" stroke="black" points="89.5,-134.5 89.5,-164.5 217.5,-164.5 217.5,-134.5 89.5,-134.5"/>
<text text-anchor="start" x="97.5" y="-152.5" font-family="Helvetica,sans-Serif" font-size="10.00">network_butcher/Traits</text>
<text text-anchor="middle" x="153.5" y="-141.5" font-family="Helvetica,sans-Serif" font-size="10.00">/traits.h</text>
</a>
</g>
</g>
<!-- Node6&#45;&gt;Node13 -->
<g id="edge12" class="edge">
<title>Node6&#45;&gt;Node13</title>
<path fill="none" stroke="midnightblue" d="M389.66,-206.94C347.24,-196.8 275.65,-179.69 222.39,-166.96"/>
<polygon fill="midnightblue" stroke="midnightblue" points="222.87,-163.48 212.33,-164.56 221.24,-170.29 222.87,-163.48"/>
</g>
<!-- Node18 -->
<g id="node18" class="node">
<title>Node18</title>
<g id="a_node18"><a xlink:href="type__info_8h.html" target="_top" xlink:title=" ">
<polygon fill="white" stroke="black" points="547,-67.5 547,-97.5 676,-97.5 676,-67.5 547,-67.5"/>
<text text-anchor="start" x="555" y="-85.5" font-family="Helvetica,sans-Serif" font-size="10.00">network_butcher/Types</text>
<text text-anchor="middle" x="611.5" y="-74.5" font-family="Helvetica,sans-Serif" font-size="10.00">/type_info.h</text>
</a>
</g>
</g>
<!-- Node6&#45;&gt;Node18 -->
<g id="edge30" class="edge">
<title>Node6&#45;&gt;Node18</title>
<path fill="none" stroke="midnightblue" d="M430.69,-206.71C440.73,-190.37 464.33,-155.06 492.5,-134 511.13,-120.07 534.17,-109.15 555.01,-101.07"/>
<polygon fill="midnightblue" stroke="midnightblue" points="556.26,-104.34 564.4,-97.56 553.81,-97.78 556.26,-104.34"/>
</g>
<!-- Node21 -->
<g id="node21" class="node">
<title>Node21</title>
<g id="a_node21"><a xlink:href="dense__tensor_8h.html" target="_top" xlink:title=" ">
<polygon fill="white" stroke="black" points="772,-134.5 772,-164.5 901,-164.5 901,-134.5 772,-134.5"/>
<text text-anchor="start" x="780" y="-152.5" font-family="Helvetica,sans-Serif" font-size="10.00">network_butcher/Types</text>
<text text-anchor="middle" x="836.5" y="-141.5" font-family="Helvetica,sans-Serif" font-size="10.00">/dense_tensor.h</text>
</a>
</g>
</g>
<!-- Node6&#45;&gt;Node21 -->
<g id="edge22" class="edge">
<title>Node6&#45;&gt;Node21</title>
<path fill="none" stroke="midnightblue" d="M474.91,-206.94C546.34,-195.24 678.78,-174.27 762.07,-161.45"/>
<polygon fill="midnightblue" stroke="midnightblue" points="762.62,-164.91 771.97,-159.93 761.56,-157.99 762.62,-164.91"/>
</g>
<!-- Node13&#45;&gt;Node12 -->
<g id="edge21" class="edge">
<title>Node13&#45;&gt;Node12</title>
<path fill="none" stroke="midnightblue" d="M133.75,-134.4C121.11,-125.37 104.52,-113.51 90.53,-103.52"/>
<polygon fill="midnightblue" stroke="midnightblue" points="92.38,-100.54 82.21,-97.58 88.31,-106.24 92.38,-100.54"/>
</g>
<!-- Node14 -->
<g id="node14" class="node">
<title>Node14</title>
<g id="a_node14"><a xlink:title=" ">
<polygon fill="white" stroke="#bfbfbf" points="237.5,-73 237.5,-92 269.5,-92 269.5,-73 237.5,-73"/>
<text text-anchor="middle" x="253.5" y="-80" font-family="Helvetica,sans-Serif" font-size="10.00">set</text>
</a>
</g>
</g>
<!-- Node13&#45;&gt;Node14 -->
<g id="edge13" class="edge">
<title>Node13&#45;&gt;Node14</title>
<path fill="none" stroke="midnightblue" d="M175.2,-134.4C191.97,-123.5 215.07,-108.48 231.83,-97.58"/>
<polygon fill="midnightblue" stroke="midnightblue" points="233.94,-100.39 240.41,-92.01 230.12,-94.52 233.94,-100.39"/>
</g>
<!-- Node15 -->
<g id="node15" class="node">
<title>Node15</title>
<g id="a_node15"><a xlink:title=" ">
<polygon fill="white" stroke="#bfbfbf" points="181.5,-73 181.5,-92 219.5,-92 219.5,-73 181.5,-73"/>
<text text-anchor="middle" x="200.5" y="-80" font-family="Helvetica,sans-Serif" font-size="10.00">map</text>
</a>
</g>
</g>
<!-- Node13&#45;&gt;Node15 -->
<g id="edge14" class="edge">
<title>Node13&#45;&gt;Node15</title>
<path fill="none" stroke="midnightblue" d="M163.7,-134.4C170.88,-124.46 180.54,-111.11 188.16,-100.57"/>
<polygon fill="midnightblue" stroke="midnightblue" points="191.19,-102.35 194.21,-92.19 185.52,-98.25 191.19,-102.35"/>
</g>
<!-- Node16 -->
<g id="node16" class="node">
<title>Node16</title>
<g id="a_node16"><a xlink:title=" ">
<polygon fill="white" stroke="#bfbfbf" points="694.5,-73 694.5,-92 752.5,-92 752.5,-73 694.5,-73"/>
<text text-anchor="middle" x="723.5" y="-80" font-family="Helvetica,sans-Serif" font-size="10.00">memory</text>
</a>
</g>
</g>
<!-- Node13&#45;&gt;Node16 -->
<g id="edge15" class="edge">
<title>Node13&#45;&gt;Node16</title>
<path fill="none" stroke="midnightblue" d="M217.52,-135.34C220.55,-134.86 223.56,-134.41 226.5,-134 429.2,-106.02 485.87,-142.93 685.5,-98 688.5,-97.32 691.59,-96.46 694.63,-95.49"/>
<polygon fill="midnightblue" stroke="midnightblue" points="695.85,-98.77 704.11,-92.12 693.51,-92.17 695.85,-98.77"/>
</g>
<!-- Node17 -->
<g id="node17" class="node">
<title>Node17</title>
<g id="a_node17"><a xlink:href="starting__traits_8h.html" target="_top" xlink:title=" ">
<polygon fill="white" stroke="black" points="346.5,-0.5 346.5,-30.5 474.5,-30.5 474.5,-0.5 346.5,-0.5"/>
<text text-anchor="start" x="354.5" y="-18.5" font-family="Helvetica,sans-Serif" font-size="10.00">network_butcher/Traits</text>
<text text-anchor="middle" x="410.5" y="-7.5" font-family="Helvetica,sans-Serif" font-size="10.00">/starting_traits.h</text>
</a>
</g>
</g>
<!-- Node13&#45;&gt;Node17 -->
<g id="edge16" class="edge">
<title>Node13&#45;&gt;Node17</title>
<path fill="none" stroke="midnightblue" d="M152.54,-134.22C152.16,-115.99 154.45,-84.7 172.5,-67 195.47,-44.49 275.32,-30.89 336.25,-23.57"/>
<polygon fill="midnightblue" stroke="midnightblue" points="336.72,-27.04 346.24,-22.4 335.91,-20.08 336.72,-27.04"/>
</g>
<!-- Node13&#45;&gt;Node18 -->
<g id="edge17" class="edge">
<title>Node13&#45;&gt;Node18</title>
<path fill="none" stroke="midnightblue" d="M217.55,-135.53C220.57,-135 223.57,-134.48 226.5,-134 333.92,-116.31 459.03,-100.84 536.76,-91.83"/>
<polygon fill="midnightblue" stroke="midnightblue" points="537.4,-95.28 546.94,-90.66 536.6,-88.33 537.4,-95.28"/>
</g>
<!-- Node18&#45;&gt;Node17 -->
<g id="edge20" class="edge">
<title>Node18&#45;&gt;Node17</title>
<path fill="none" stroke="midnightblue" d="M567.89,-67.4C537.33,-57.52 496.32,-44.25 463.82,-33.74"/>
<polygon fill="midnightblue" stroke="midnightblue" points="464.62,-30.32 454.03,-30.58 462.47,-36.98 464.62,-30.32"/>
</g>
<!-- Node19 -->
<g id="node19" class="node">
<title>Node19</title>
<g id="a_node19"><a xlink:title=" ">
<polygon fill="white" stroke="#bfbfbf" points="660.5,-6 660.5,-25 704.5,-25 704.5,-6 660.5,-6"/>
<text text-anchor="middle" x="682.5" y="-13" font-family="Helvetica,sans-Serif" font-size="10.00">string</text>
</a>
</g>
</g>
<!-- Node18&#45;&gt;Node19 -->
<g id="edge18" class="edge">
<title>Node18&#45;&gt;Node19</title>
<path fill="none" stroke="midnightblue" d="M626.91,-67.4C638.31,-56.96 653.83,-42.75 665.57,-32"/>
<polygon fill="midnightblue" stroke="midnightblue" points="667.99,-34.53 673,-25.19 663.26,-29.37 667.99,-34.53"/>
</g>
<!-- Node20 -->
<g id="node20" class="node">
<title>Node20</title>
<g id="a_node20"><a xlink:title=" ">
<polygon fill="white" stroke="#bfbfbf" points="807,-6 807,-25 854,-25 854,-6 807,-6"/>
<text text-anchor="middle" x="830.5" y="-13" font-family="Helvetica,sans-Serif" font-size="10.00">vector</text>
</a>
</g>
</g>
<!-- Node18&#45;&gt;Node20 -->
<g id="edge19" class="edge">
<title>Node18&#45;&gt;Node20</title>
<path fill="none" stroke="midnightblue" d="M658.75,-67.48C700.47,-55.09 760.25,-37.35 797.16,-26.4"/>
<polygon fill="midnightblue" stroke="midnightblue" points="798.34,-29.7 806.93,-23.5 796.34,-22.99 798.34,-29.7"/>
</g>
<!-- Node21&#45;&gt;Node6 -->
<g id="edge28" class="edge">
<title>Node21&#45;&gt;Node6</title>
<path fill="none" stroke="midnightblue" d="M771.98,-161.53C696.44,-173.81 571.96,-193.48 494.54,-205.38"/>
<polygon fill="midnightblue" stroke="midnightblue" points="493.75,-201.96 484.4,-206.94 494.81,-208.88 493.75,-201.96"/>
</g>
<!-- Node21&#45;&gt;Node18 -->
<g id="edge23" class="edge">
<title>Node21&#45;&gt;Node18</title>
<path fill="none" stroke="midnightblue" d="M787.96,-134.48C753.47,-124.51 706.99,-111.09 670.39,-100.51"/>
<polygon fill="midnightblue" stroke="midnightblue" points="670.92,-97.02 660.35,-97.61 668.98,-103.75 670.92,-97.02"/>
</g>
<!-- Node21&#45;&gt;Node20 -->
<g id="edge29" class="edge">
<title>Node21&#45;&gt;Node20</title>
<path fill="none" stroke="midnightblue" d="M835.86,-134.37C834.77,-110.5 832.58,-62.18 831.36,-35.41"/>
<polygon fill="midnightblue" stroke="midnightblue" points="834.84,-34.93 830.89,-25.1 827.85,-35.25 834.84,-34.93"/>
</g>
<!-- Node22 -->
<g id="node22" class="node">
<title>Node22</title>
<g id="a_node22"><a xlink:href="variant__attribute_8h.html" target="_top" xlink:title=" ">
<polygon fill="white" stroke="black" points="846,-67.5 846,-97.5 975,-97.5 975,-67.5 846,-67.5"/>
<text text-anchor="start" x="854" y="-85.5" font-family="Helvetica,sans-Serif" font-size="10.00">network_butcher/Types</text>
<text text-anchor="middle" x="910.5" y="-74.5" font-family="Helvetica,sans-Serif" font-size="10.00">/variant_attribute.h</text>
</a>
</g>
</g>
<!-- Node21&#45;&gt;Node22 -->
<g id="edge24" class="edge">
<title>Node21&#45;&gt;Node22</title>
<path fill="none" stroke="midnightblue" d="M852.56,-134.4C862.54,-125.62 875.57,-114.18 886.74,-104.37"/>
<polygon fill="midnightblue" stroke="midnightblue" points="889.27,-106.81 894.47,-97.58 884.65,-101.55 889.27,-106.81"/>
</g>
<!-- Node22&#45;&gt;Node19 -->
<g id="edge25" class="edge">
<title>Node22&#45;&gt;Node19</title>
<path fill="none" stroke="midnightblue" d="M861.31,-67.48C816.91,-54.82 752.89,-36.57 714.71,-25.68"/>
<polygon fill="midnightblue" stroke="midnightblue" points="715.24,-22.19 704.66,-22.82 713.32,-28.93 715.24,-22.19"/>
</g>
<!-- Node22&#45;&gt;Node20 -->
<g id="edge27" class="edge">
<title>Node22&#45;&gt;Node20</title>
<path fill="none" stroke="midnightblue" d="M893.14,-67.4C880.17,-56.86 862.47,-42.48 849.19,-31.69"/>
<polygon fill="midnightblue" stroke="midnightblue" points="851.17,-28.78 841.2,-25.19 846.76,-34.22 851.17,-28.78"/>
</g>
<!-- Node23 -->
<g id="node23" class="node">
<title>Node23</title>
<g id="a_node23"><a xlink:title=" ">
<polygon fill="white" stroke="#bfbfbf" points="885,-6 885,-25 936,-25 936,-6 885,-6"/>
<text text-anchor="middle" x="910.5" y="-13" font-family="Helvetica,sans-Serif" font-size="10.00">variant</text>
</a>
</g>
</g>
<!-- Node22&#45;&gt;Node23 -->
<g id="edge26" class="edge">
<title>Node22&#45;&gt;Node23</title>
<path fill="none" stroke="midnightblue" d="M910.5,-67.4C910.5,-58.06 910.5,-45.71 910.5,-35.52"/>
<polygon fill="midnightblue" stroke="midnightblue" points="914,-35.19 910.5,-25.19 907,-35.19 914,-35.19"/>
</g>
<!-- Node25 -->
<g id="node25" class="node">
<title>Node25</title>
<g id="a_node25"><a xlink:href="weighted__graph_8h.html" target="_top" xlink:title=" ">
<polygon fill="white" stroke="black" points="219.5,-335.5 219.5,-365.5 369.5,-365.5 369.5,-335.5 219.5,-335.5"/>
<text text-anchor="start" x="227.5" y="-353.5" font-family="Helvetica,sans-Serif" font-size="10.00">network_butcher/K&#45;shortest</text>
<text text-anchor="middle" x="294.5" y="-342.5" font-family="Helvetica,sans-Serif" font-size="10.00">_path/weighted_graph.h</text>
</a>
</g>
</g>
<!-- Node24&#45;&gt;Node25 -->
<g id="edge32" class="edge">
<title>Node24&#45;&gt;Node25</title>
<path fill="none" stroke="midnightblue" d="M498.1,-469.37C456.96,-445.56 373.76,-397.39 327.47,-370.59"/>
<polygon fill="midnightblue" stroke="midnightblue" points="329.13,-367.51 318.72,-365.52 325.63,-373.56 329.13,-367.51"/>
</g>
<!-- Node26 -->
<g id="node26" class="node">
<title>Node26</title>
<g id="a_node26"><a xlink:href="mwgraph_8h.html" target="_top" xlink:title=" ">
<polygon fill="white" stroke="black" points="562,-402.5 562,-432.5 705,-432.5 705,-402.5 562,-402.5"/>
<text text-anchor="start" x="570" y="-420.5" font-family="Helvetica,sans-Serif" font-size="10.00">network_butcher/Network</text>
<text text-anchor="middle" x="633.5" y="-409.5" font-family="Helvetica,sans-Serif" font-size="10.00">/mwgraph.h</text>
</a>
</g>
</g>
<!-- Node24&#45;&gt;Node26 -->
<g id="edge34" class="edge">
<title>Node24&#45;&gt;Node26</title>
<path fill="none" stroke="midnightblue" d="M546.59,-469.4C562.44,-460.11 583.39,-447.84 600.76,-437.67"/>
<polygon fill="midnightblue" stroke="midnightblue" points="602.6,-440.65 609.46,-432.58 599.06,-434.61 602.6,-440.65"/>
</g>
<!-- Node25&#45;&gt;Node13 -->
<g id="edge33" class="edge">
<title>Node25&#45;&gt;Node13</title>
<path fill="none" stroke="midnightblue" d="M287.53,-335.21C273.82,-307.78 241.52,-246.47 205.5,-201 197.2,-190.52 186.83,-180.04 177.54,-171.37"/>
<polygon fill="midnightblue" stroke="midnightblue" points="179.81,-168.7 170.06,-164.54 175.09,-173.87 179.81,-168.7"/>
</g>
<!-- Node27 -->
<g id="node27" class="node">
<title>Node27</title>
<g id="a_node27"><a xlink:href="graph_8h.html" target="_top" xlink:title=" ">
<polygon fill="white" stroke="black" points="662,-335.5 662,-365.5 805,-365.5 805,-335.5 662,-335.5"/>
<text text-anchor="start" x="670" y="-353.5" font-family="Helvetica,sans-Serif" font-size="10.00">network_butcher/Network</text>
<text text-anchor="middle" x="733.5" y="-342.5" font-family="Helvetica,sans-Serif" font-size="10.00">/graph.h</text>
</a>
</g>
</g>
<!-- Node26&#45;&gt;Node27 -->
<g id="edge35" class="edge">
<title>Node26&#45;&gt;Node27</title>
<path fill="none" stroke="midnightblue" d="M655.2,-402.4C669.22,-393.28 687.67,-381.29 703.14,-371.24"/>
<polygon fill="midnightblue" stroke="midnightblue" points="705.37,-373.96 711.84,-365.58 701.55,-368.09 705.37,-373.96"/>
</g>
<!-- Node27&#45;&gt;Node7 -->
<g id="edge36" class="edge">
<title>Node27&#45;&gt;Node7</title>
<path fill="none" stroke="midnightblue" d="M677.58,-335.44C655.04,-327.61 630.04,-315.92 611.5,-299 571.27,-262.28 548.19,-199.95 538.67,-169.03"/>
<polygon fill="midnightblue" stroke="midnightblue" points="541.95,-167.78 535.78,-159.17 535.24,-169.75 541.95,-167.78"/>
</g>
<!-- Node27&#45;&gt;Node8 -->
<g id="edge37" class="edge">
<title>Node27&#45;&gt;Node8</title>
<path fill="none" stroke="midnightblue" d="M681.51,-335.49C662.56,-327.78 642.78,-316.17 630.5,-299 602.47,-259.83 605.07,-199.55 608.64,-169.25"/>
<polygon fill="midnightblue" stroke="midnightblue" points="612.12,-169.59 609.99,-159.21 605.18,-168.65 612.12,-169.59"/>
</g>
<!-- Node27&#45;&gt;Node20 -->
<g id="edge39" class="edge">
<title>Node27&#45;&gt;Node20</title>
<path fill="none" stroke="midnightblue" d="M805.15,-344.98C858.63,-339.4 932.37,-326.91 991.5,-299 1043.04,-274.67 1090.5,-274.49 1090.5,-217.5 1090.5,-217.5 1090.5,-217.5 1090.5,-148.5 1090.5,-89.07 1037.04,-94.77 984.5,-67 978.99,-64.09 907.32,-41.01 863.73,-27.08"/>
<polygon fill="midnightblue" stroke="midnightblue" points="864.68,-23.71 854.09,-24.01 862.56,-30.38 864.68,-23.71"/>
</g>
<!-- Node28 -->
<g id="node28" class="node">
<title>Node28</title>
<g id="a_node28"><a xlink:title=" ">
<polygon fill="white" stroke="#bfbfbf" points="919,-140 919,-159 964,-159 964,-140 919,-140"/>
<text text-anchor="middle" x="941.5" y="-147" font-family="Helvetica,sans-Serif" font-size="10.00">utility</text>
</a>
</g>
</g>
<!-- Node27&#45;&gt;Node28 -->
<g id="edge38" class="edge">
<title>Node27&#45;&gt;Node28</title>
<path fill="none" stroke="midnightblue" d="M805.14,-343.79C876.52,-333.85 982.59,-306.62 1033.5,-232 1041.27,-220.62 1040.52,-212.86 1033.5,-201 1020.68,-179.34 994.91,-166.35 973.9,-158.98"/>
<polygon fill="midnightblue" stroke="midnightblue" points="974.94,-155.64 964.35,-155.89 972.78,-162.3 974.94,-155.64"/>
</g>
<!-- Node29 -->
<g id="node29" class="node">
<title>Node29</title>
<g id="a_node29"><a xlink:href="content_8h.html" target="_top" xlink:title=" ">
<polygon fill="white" stroke="black" points="895,-201.5 895,-231.5 1024,-231.5 1024,-201.5 895,-201.5"/>
<text text-anchor="start" x="903" y="-219.5" font-family="Helvetica,sans-Serif" font-size="10.00">network_butcher/Types</text>
<text text-anchor="middle" x="959.5" y="-208.5" font-family="Helvetica,sans-Serif" font-size="10.00">/content.h</text>
</a>
</g>
</g>
<!-- Node27&#45;&gt;Node29 -->
<g id="edge40" class="edge">
<title>Node27&#45;&gt;Node29</title>
<path fill="none" stroke="midnightblue" d="M757.69,-335.37C798.47,-311.56 880.93,-263.39 926.82,-236.59"/>
<polygon fill="midnightblue" stroke="midnightblue" points="928.62,-239.59 935.49,-231.52 925.09,-233.55 928.62,-239.59"/>
</g>
<!-- Node30 -->
<g id="node30" class="node">
<title>Node30</title>
<g id="a_node30"><a xlink:href="node_8h.html" target="_top" xlink:title=" ">
<polygon fill="white" stroke="black" points="734,-201.5 734,-231.5 877,-231.5 877,-201.5 734,-201.5"/>
<text text-anchor="start" x="742" y="-219.5" font-family="Helvetica,sans-Serif" font-size="10.00">network_butcher/Network</text>
<text text-anchor="middle" x="805.5" y="-208.5" font-family="Helvetica,sans-Serif" font-size="10.00">/node.h</text>
</a>
</g>
</g>
<!-- Node27&#45;&gt;Node30 -->
<g id="edge43" class="edge">
<title>Node27&#45;&gt;Node30</title>
<path fill="none" stroke="midnightblue" d="M756.97,-335.33C769.55,-326.49 784.13,-313.94 792.5,-299 802.26,-281.57 805.25,-258.94 805.94,-241.96"/>
<polygon fill="midnightblue" stroke="midnightblue" points="809.44,-241.78 806.11,-231.72 802.45,-241.66 809.44,-241.78"/>
</g>
<!-- Node31 -->
<g id="node31" class="node">
<title>Node31</title>
<g id="a_node31"><a xlink:href="node__traits_8h.html" target="_top" xlink:title=" ">
<polygon fill="white" stroke="black" points="640,-268.5 640,-298.5 783,-298.5 783,-268.5 640,-268.5"/>
<text text-anchor="start" x="648" y="-286.5" font-family="Helvetica,sans-Serif" font-size="10.00">network_butcher/Network</text>
<text text-anchor="middle" x="711.5" y="-275.5" font-family="Helvetica,sans-Serif" font-size="10.00">/node_traits.h</text>
</a>
</g>
</g>
<!-- Node27&#45;&gt;Node31 -->
<g id="edge48" class="edge">
<title>Node27&#45;&gt;Node31</title>
<path fill="none" stroke="midnightblue" d="M728.73,-335.4C726.05,-327.47 722.63,-317.38 719.55,-308.27"/>
<polygon fill="midnightblue" stroke="midnightblue" points="722.79,-306.93 716.26,-298.58 716.16,-309.17 722.79,-306.93"/>
</g>
<!-- Node29&#45;&gt;Node21 -->
<g id="edge41" class="edge">
<title>Node29&#45;&gt;Node21</title>
<path fill="none" stroke="midnightblue" d="M932.81,-201.4C915,-191.98 891.38,-179.5 871.99,-169.26"/>
<polygon fill="midnightblue" stroke="midnightblue" points="873.61,-166.15 863.14,-164.58 870.34,-172.34 873.61,-166.15"/>
</g>
<!-- Node29&#45;&gt;Node22 -->
<g id="edge42" class="edge">
<title>Node29&#45;&gt;Node22</title>
<path fill="none" stroke="midnightblue" d="M966.89,-201.24C974.54,-184.39 984,-155.87 973.5,-134 967.55,-121.61 956.93,-111.31 946.07,-103.31"/>
<polygon fill="midnightblue" stroke="midnightblue" points="948.03,-100.41 937.8,-97.64 944.07,-106.18 948.03,-100.41"/>
</g>
<!-- Node30&#45;&gt;Node13 -->
<g id="edge45" class="edge">
<title>Node30&#45;&gt;Node13</title>
<path fill="none" stroke="midnightblue" d="M733.9,-211.77C626.18,-205.61 415.87,-191.42 227.61,-165.05"/>
<polygon fill="midnightblue" stroke="midnightblue" points="227.92,-161.56 217.53,-163.63 226.94,-168.49 227.92,-161.56"/>
</g>
<!-- Node30&#45;&gt;Node16 -->
<g id="edge46" class="edge">
<title>Node30&#45;&gt;Node16</title>
<path fill="none" stroke="midnightblue" d="M792.03,-201.19C783.26,-191.45 771.93,-178.01 763.5,-165 750.15,-144.41 738.25,-118.72 730.96,-101.75"/>
<polygon fill="midnightblue" stroke="midnightblue" points="734.15,-100.3 727.06,-92.43 727.7,-103.01 734.15,-100.3"/>
</g>
<!-- Node30&#45;&gt;Node21 -->
<g id="edge44" class="edge">
<title>Node30&#45;&gt;Node21</title>
<path fill="none" stroke="midnightblue" d="M812.23,-201.4C816.09,-193.3 821.03,-182.94 825.44,-173.69"/>
<polygon fill="midnightblue" stroke="midnightblue" points="828.64,-175.11 829.79,-164.58 822.32,-172.1 828.64,-175.11"/>
</g>
<!-- Node30&#45;&gt;Node28 -->
<g id="edge47" class="edge">
<title>Node30&#45;&gt;Node28</title>
<path fill="none" stroke="midnightblue" d="M835.01,-201.4C858.66,-190.09 891.58,-174.36 914.53,-163.39"/>
<polygon fill="midnightblue" stroke="midnightblue" points="916.19,-166.48 923.7,-159.01 913.17,-160.16 916.19,-166.48"/>
</g>
<!-- Node31&#45;&gt;Node16 -->
<g id="edge49" class="edge">
<title>Node31&#45;&gt;Node16</title>
<path fill="none" stroke="midnightblue" d="M712.36,-268.19C714.49,-232.99 719.96,-142.17 722.35,-102.51"/>
<polygon fill="midnightblue" stroke="midnightblue" points="725.86,-102.55 722.97,-92.36 718.87,-102.13 725.86,-102.55"/>
</g>
<!-- Node31&#45;&gt;Node18 -->
<g id="edge52" class="edge">
<title>Node31&#45;&gt;Node18</title>
<path fill="none" stroke="midnightblue" d="M706.78,-268.48C697.45,-241.53 675.21,-180.99 648.5,-134 643.02,-124.36 636.04,-114.39 629.61,-105.87"/>
<polygon fill="midnightblue" stroke="midnightblue" points="632.34,-103.68 623.45,-97.91 626.81,-107.97 632.34,-103.68"/>
</g>
<!-- Node31&#45;&gt;Node29 -->
<g id="edge50" class="edge">
<title>Node31&#45;&gt;Node29</title>
<path fill="none" stroke="midnightblue" d="M765.01,-268.48C803.42,-258.41 855.34,-244.8 895.88,-234.17"/>
<polygon fill="midnightblue" stroke="midnightblue" points="896.88,-237.53 905.66,-231.61 895.1,-230.76 896.88,-237.53"/>
</g>
<!-- Node31&#45;&gt;Node30 -->
<g id="edge51" class="edge">
<title>Node31&#45;&gt;Node30</title>
<path fill="none" stroke="midnightblue" d="M731.9,-268.4C744.95,-259.37 762.1,-247.51 776.55,-237.52"/>
<polygon fill="midnightblue" stroke="midnightblue" points="778.91,-240.14 785.14,-231.58 774.93,-234.39 778.91,-240.14"/>
</g>
<!-- Node32&#45;&gt;Node13 -->
<g id="edge59" class="edge">
<title>Node32&#45;&gt;Node13</title>
<path fill="none" stroke="midnightblue" d="M387.96,-677.01C331.04,-658.56 253.82,-624.49 209.5,-567 186.85,-537.62 191.5,-522.6 191.5,-485.5 191.5,-485.5 191.5,-485.5 191.5,-282.5 191.5,-243.34 175.87,-200.11 164.65,-174.14"/>
<polygon fill="midnightblue" stroke="midnightblue" points="167.74,-172.47 160.47,-164.76 161.35,-175.32 167.74,-172.47"/>
</g>
<!-- Node33 -->
<g id="node33" class="node">
<title>Node33</title>
<g id="a_node33"><a xlink:href="graph__traits_8h.html" target="_top" xlink:title=" ">
<polygon fill="white" stroke="black" points="592,-536.5 592,-566.5 735,-566.5 735,-536.5 592,-536.5"/>
<text text-anchor="start" x="600" y="-554.5" font-family="Helvetica,sans-Serif" font-size="10.00">network_butcher/Network</text>
<text text-anchor="middle" x="663.5" y="-543.5" font-family="Helvetica,sans-Serif" font-size="10.00">/graph_traits.h</text>
</a>
</g>
</g>
<!-- Node32&#45;&gt;Node33 -->
<g id="edge54" class="edge">
<title>Node32&#45;&gt;Node33</title>
<path fill="none" stroke="midnightblue" d="M510.84,-670.4C530.4,-660.05 552.55,-647.35 571.5,-634 597.37,-615.78 624.14,-591.32 642.08,-573.97"/>
<polygon fill="midnightblue" stroke="midnightblue" points="644.98,-576.04 649.67,-566.54 640.08,-571.03 644.98,-576.04"/>
</g>
<!-- Node34 -->
<g id="node34" class="node">
<title>Node34</title>
<g id="a_node34"><a xlink:href="parameters_8h.html" target="_top" xlink:title=" ">
<polygon fill="white" stroke="black" points="434,-603.5 434,-633.5 563,-633.5 563,-603.5 434,-603.5"/>
<text text-anchor="start" x="442" y="-621.5" font-family="Helvetica,sans-Serif" font-size="10.00">network_butcher/Types</text>
<text text-anchor="middle" x="498.5" y="-610.5" font-family="Helvetica,sans-Serif" font-size="10.00">/parameters.h</text>
</a>
</g>
</g>
<!-- Node32&#45;&gt;Node34 -->
<g id="edge60" class="edge">
<title>Node32&#45;&gt;Node34</title>
<path fill="none" stroke="midnightblue" d="M472.49,-670.19C476.99,-661.41 482.03,-651.6 486.46,-642.97"/>
<polygon fill="midnightblue" stroke="midnightblue" points="489.69,-644.34 491.14,-633.85 483.46,-641.14 489.69,-644.34"/>
</g>
<!-- Node33&#45;&gt;Node24 -->
<g id="edge57" class="edge">
<title>Node33&#45;&gt;Node24</title>
<path fill="none" stroke="midnightblue" d="M632.91,-536.4C612.21,-526.86 584.68,-514.16 562.28,-503.84"/>
<polygon fill="midnightblue" stroke="midnightblue" points="563.58,-500.58 553.04,-499.58 560.65,-506.94 563.58,-500.58"/>
</g>
<!-- Node33&#45;&gt;Node26 -->
<g id="edge56" class="edge">
<title>Node33&#45;&gt;Node26</title>
<path fill="none" stroke="midnightblue" d="M660.29,-536.37C655.19,-513.94 645.19,-469.92 638.95,-442.49"/>
<polygon fill="midnightblue" stroke="midnightblue" points="642.32,-441.5 636.69,-432.52 635.49,-443.05 642.32,-441.5"/>
</g>
<!-- Node33&#45;&gt;Node27 -->
<g id="edge55" class="edge">
<title>Node33&#45;&gt;Node27</title>
<path fill="none" stroke="midnightblue" d="M670.64,-536.35C681.38,-514.6 701.8,-471.43 714.5,-433 720.78,-413.99 725.81,-391.83 729.11,-375.42"/>
<polygon fill="midnightblue" stroke="midnightblue" points="732.55,-376.04 731.02,-365.55 725.68,-374.7 732.55,-376.04"/>
</g>
<!-- Node33&#45;&gt;Node29 -->
<g id="edge58" class="edge">
<title>Node33&#45;&gt;Node29</title>
<path fill="none" stroke="midnightblue" d="M735.14,-545.07C865.57,-533.21 1128.5,-499.27 1128.5,-418.5 1128.5,-418.5 1128.5,-418.5 1128.5,-349.5 1128.5,-291.04 1064.91,-254.63 1015.75,-235.22"/>
<polygon fill="midnightblue" stroke="midnightblue" points="1016.72,-231.84 1006.13,-231.56 1014.23,-238.39 1016.72,-231.84"/>
</g>
<!-- Node34&#45;&gt;Node33 -->
<g id="edge61" class="edge">
<title>Node34&#45;&gt;Node33</title>
<path fill="none" stroke="midnightblue" d="M534.3,-603.4C558.95,-593.69 591.89,-580.71 618.34,-570.29"/>
<polygon fill="midnightblue" stroke="midnightblue" points="619.75,-573.5 627.77,-566.58 617.18,-566.99 619.75,-573.5"/>
</g>
<!-- Node35 -->
<g id="node35" class="node">
<title>Node35</title>
<g id="a_node35"><a xlink:href="ksp__method_8h.html" target="_top" xlink:title=" ">
<polygon fill="white" stroke="black" points="423.5,-536.5 423.5,-566.5 573.5,-566.5 573.5,-536.5 423.5,-536.5"/>
<text text-anchor="start" x="431.5" y="-554.5" font-family="Helvetica,sans-Serif" font-size="10.00">network_butcher/K&#45;shortest</text>
<text text-anchor="middle" x="498.5" y="-543.5" font-family="Helvetica,sans-Serif" font-size="10.00">_path/ksp_method.h</text>
</a>
</g>
</g>
<!-- Node34&#45;&gt;Node35 -->
<g id="edge62" class="edge">
<title>Node34&#45;&gt;Node35</title>
<path fill="none" stroke="midnightblue" d="M498.5,-603.4C498.5,-595.64 498.5,-585.81 498.5,-576.86"/>
<polygon fill="midnightblue" stroke="midnightblue" points="502,-576.58 498.5,-566.58 495,-576.58 502,-576.58"/>
</g>
<!-- Node36&#45;&gt;Node6 -->
<g id="edge65" class="edge">
<title>Node36&#45;&gt;Node6</title>
<path fill="none" stroke="midnightblue" d="M288.1,-670.46C316.25,-646.94 355.58,-609.13 376.5,-567 433.62,-451.96 430.05,-290.99 426.88,-236.43"/>
<polygon fill="midnightblue" stroke="midnightblue" points="430.36,-235.95 426.22,-226.2 423.37,-236.41 430.36,-235.95"/>
</g>
<!-- Node36&#45;&gt;Node13 -->
<g id="edge64" class="edge">
<title>Node36&#45;&gt;Node13</title>
<path fill="none" stroke="midnightblue" d="M222.67,-670.35C192.85,-644.41 153.5,-600.99 153.5,-552.5 153.5,-552.5 153.5,-552.5 153.5,-282.5 153.5,-245 153.5,-201.51 153.5,-175.01"/>
<polygon fill="midnightblue" stroke="midnightblue" points="157,-174.76 153.5,-164.76 150,-174.76 157,-174.76"/>
</g>
<!-- Node37&#45;&gt;Node32 -->
<g id="edge67" class="edge">
<title>Node37&#45;&gt;Node32</title>
<path fill="none" stroke="midnightblue" d="M394.82,-759.34C404.54,-750.05 415.68,-739.39 425.95,-729.58"/>
<polygon fill="midnightblue" stroke="midnightblue" points="428.43,-732.05 433.24,-722.61 423.59,-726.99 428.43,-732.05"/>
</g>
<!-- Node37&#45;&gt;Node36 -->
<g id="edge68" class="edge">
<title>Node37&#45;&gt;Node36</title>
<path fill="none" stroke="midnightblue" d="M335.82,-759.34C323.4,-749.78 309.11,-738.77 296.05,-728.72"/>
<polygon fill="midnightblue" stroke="midnightblue" points="298.17,-725.93 288.11,-722.61 293.9,-731.48 298.17,-725.93"/>
</g>
</g>
</svg>
        <g id="navigator" transform="translate(0 0)" fill="#404254">
                <rect fill="#f2f5e9" fill-opacity="0.5" stroke="#606060" stroke-width=".5" x="0" y="0" width="60" height="60"/>
                <use id="zoomplus" xlink:href="#zoomPlus" x="17" y="9" onmousedown="handleZoom(evt,'in')"/>
                <use id="zoomminus" xlink:href="#zoomMin" x="42" y="9" onmousedown="handleZoom(evt,'out')"/>
                <use id="reset" xlink:href="#resetDef" x="30" y="36" onmousedown="handleReset()"/>
                <g id="arrowUp" xlink:href="#dirArrow" transform="translate(30 24)" onmousedown="handlePan(0,-1)">
                  <use xlink:href="#rim" fill="#404040">
                        <set attributeName="fill" to="#808080" begin="arrowUp.mouseover" end="arrowUp.mouseout"/>
                  </use>
                  <path fill="none" stroke="white" stroke-width="1.5" d="M0,-3.0v7 M-2.5,-0.5L0,-3.0L2.5,-0.5"/>
                </g>
                <g id="arrowRight" xlink:href="#dirArrow" transform="rotate(90) translate(36 -43)" onmousedown="handlePan(1,0)">
                  <use xlink:href="#rim" fill="#404040">
                        <set attributeName="fill" to="#808080" begin="arrowRight.mouseover" end="arrowRight.mouseout"/>
                  </use>
                  <path fill="none" stroke="white" stroke-width="1.5" d="M0,-3.0v7 M-2.5,-0.5L0,-3.0L2.5,-0.5"/>
                </g>
                <g id="arrowDown" xlink:href="#dirArrow" transform="rotate(180) translate(-30 -48)" onmousedown="handlePan(0,1)">
                  <use xlink:href="#rim" fill="#404040">
                        <set attributeName="fill" to="#808080" begin="arrowDown.mouseover" end="arrowDown.mouseout"/>
                  </use>
                  <path fill="none" stroke="white" stroke-width="1.5" d="M0,-3.0v7 M-2.5,-0.5L0,-3.0L2.5,-0.5"/>
                </g>
                <g id="arrowLeft" xlink:href="#dirArrow" transform="rotate(270) translate(-36 17)" onmousedown="handlePan(-1,0)">
                  <use xlink:href="#rim" fill="#404040">
                        <set attributeName="fill" to="#808080" begin="arrowLeft.mouseover" end="arrowLeft.mouseout"/>
                  </use>
                  <path fill="none" stroke="white" stroke-width="1.5" d="M0,-3.0v7 M-2.5,-0.5L0,-3.0L2.5,-0.5"/>
                </g>
        </g>
        <svg viewBox="0 0 15 15" width="100%" height="30px" preserveAspectRatio="xMaxYMin meet">
         <g id="arrow_out" transform="scale(0.3 0.3)">
          <a xlink:href="weight__importers_8h__incl_org.svg" target="_base">
           <rect id="button" ry="5" rx="5" y="6" x="6" height="38" width="38"
                fill="#f2f5e9" fill-opacity="0.5" stroke="#606060" stroke-width="1.0"/>
           <path id="arrow"
             d="M 11.500037,31.436501 C 11.940474,20.09759 22.043105,11.32322 32.158766,21.979434 L 37.068811,17.246167 C 37.068811,17.246167 37.088388,32 37.088388,32 L 22.160133,31.978069 C 22.160133,31.978069 26.997745,27.140456 26.997745,27.140456 C 18.528582,18.264221 13.291696,25.230495 11.500037,31.436501 z"
             style="fill:#404040;"/>
          </a>
         </g>
        </svg>
</svg>
