<?xml version="1.0" encoding="UTF-8" standalone="no"?>
<!DOCTYPE svg PUBLIC "-//W3C//DTD SVG 1.1//EN"
 "http://www.w3.org/Graphics/SVG/1.1/DTD/svg11.dtd">
<!-- Generated by graphviz version 2.43.0 (0)
 -->
<!-- Title: include/network_butcher/IO_Interaction/Weight_Importer_Helpers/weight_importer_utils.h Pages: 1 -->
<svg width="586pt" height="763pt"
 viewBox="0.00 0.00 586.24 763.00" xmlns="http://www.w3.org/2000/svg" xmlns:xlink="http://www.w3.org/1999/xlink">
<g id="graph0" class="graph" transform="scale(1 1) rotate(0) translate(4 759)">
<title>include/network_butcher/IO_Interaction/Weight_Importer_Helpers/weight_importer_utils.h</title>
<polygon fill="white" stroke="transparent" points="-4,4 -4,-759 582.24,-759 582.24,4 -4,4"/>
<!-- Node1 -->
<g id="node1" class="node">
<title>Node1</title>
<g id="a_node1"><a xlink:title=" ">
<polygon fill="#bfbfbf" stroke="black" points="183.24,-702.5 183.24,-754.5 326.24,-754.5 326.24,-702.5 183.24,-702.5"/>
<text text-anchor="start" x="191.24" y="-742.5" font-family="Helvetica,sans-Serif" font-size="10.00">include/network_butcher</text>
<text text-anchor="start" x="191.24" y="-731.5" font-family="Helvetica,sans-Serif" font-size="10.00">/IO_Interaction/Weight</text>
<text text-anchor="start" x="191.24" y="-720.5" font-family="Helvetica,sans-Serif" font-size="10.00">_Importer_Helpers/weight</text>
<text text-anchor="middle" x="254.74" y="-709.5" font-family="Helvetica,sans-Serif" font-size="10.00">_importer_utils.h</text>
</a>
</g>
</g>
<!-- Node2 -->
<g id="node2" class="node">
<title>Node2</title>
<g id="a_node2"><a xlink:href="block__aMLLibrary__weight__importer_8h.html" target="_top" xlink:title=" ">
<polygon fill="white" stroke="black" points="11.74,-524.5 11.74,-576.5 181.74,-576.5 181.74,-524.5 11.74,-524.5"/>
<text text-anchor="start" x="19.74" y="-564.5" font-family="Helvetica,sans-Serif" font-size="10.00">include/network_butcher</text>
<text text-anchor="start" x="19.74" y="-553.5" font-family="Helvetica,sans-Serif" font-size="10.00">/IO_Interaction/Weight</text>
<text text-anchor="start" x="19.74" y="-542.5" font-family="Helvetica,sans-Serif" font-size="10.00">_Importer_Helpers/block</text>
<text text-anchor="middle" x="96.74" y="-531.5" font-family="Helvetica,sans-Serif" font-size="10.00">_aMLLibrary_weight_importer.h</text>
</a>
</g>
</g>
<!-- Node1&#45;&gt;Node2 -->
<g id="edge1" class="edge">
<title>Node1&#45;&gt;Node2</title>
<path fill="none" stroke="midnightblue" d="M200.6,-696.71C187.62,-687.83 174.43,-677.41 163.74,-666 138.7,-639.28 118.91,-601.58 107.52,-576.85"/>
<polygon fill="midnightblue" stroke="midnightblue" points="198.8,-699.72 209.07,-702.32 202.67,-693.88 198.8,-699.72"/>
</g>
<!-- Node16 -->
<g id="node16" class="node">
<title>Node16</title>
<g id="a_node16"><a xlink:href="csv__weight__importer_8h.html" target="_top" xlink:title=" ">
<polygon fill="white" stroke="black" points="172.74,-613.5 172.74,-665.5 336.74,-665.5 336.74,-613.5 172.74,-613.5"/>
<text text-anchor="start" x="180.74" y="-653.5" font-family="Helvetica,sans-Serif" font-size="10.00">include/network_butcher</text>
<text text-anchor="start" x="180.74" y="-642.5" font-family="Helvetica,sans-Serif" font-size="10.00">/IO_Interaction/Weight</text>
<text text-anchor="start" x="180.74" y="-631.5" font-family="Helvetica,sans-Serif" font-size="10.00">_Importer_Helpers/csv_weight</text>
<text text-anchor="middle" x="254.74" y="-620.5" font-family="Helvetica,sans-Serif" font-size="10.00">_importer.h</text>
</a>
</g>
</g>
<!-- Node1&#45;&gt;Node16 -->
<g id="edge20" class="edge">
<title>Node1&#45;&gt;Node16</title>
<path fill="none" stroke="midnightblue" d="M254.74,-692.19C254.74,-683.28 254.74,-673.9 254.74,-665.61"/>
<polygon fill="midnightblue" stroke="midnightblue" points="251.24,-692.34 254.74,-702.34 258.24,-692.34 251.24,-692.34"/>
</g>
<!-- Node18 -->
<g id="node18" class="node">
<title>Node18</title>
<g id="a_node18"><a xlink:href="weight__importer__utils_8cpp.html" target="_top" xlink:title=" ">
<polygon fill="white" stroke="black" points="354.74,-619 354.74,-660 500.74,-660 500.74,-619 354.74,-619"/>
<text text-anchor="start" x="362.74" y="-648" font-family="Helvetica,sans-Serif" font-size="10.00">src/IO_Interaction</text>
<text text-anchor="start" x="362.74" y="-637" font-family="Helvetica,sans-Serif" font-size="10.00">/Weight_Importer_Helpers</text>
<text text-anchor="middle" x="427.74" y="-626" font-family="Helvetica,sans-Serif" font-size="10.00">/weight_importer_utils.cpp</text>
</a>
</g>
</g>
<!-- Node1&#45;&gt;Node18 -->
<g id="edge24" class="edge">
<title>Node1&#45;&gt;Node18</title>
<path fill="none" stroke="midnightblue" d="M313.74,-697.83C338.52,-685.36 366.67,-671.21 388.8,-660.08"/>
<polygon fill="midnightblue" stroke="midnightblue" points="312.14,-694.72 304.78,-702.34 315.28,-700.97 312.14,-694.72"/>
</g>
<!-- Node3 -->
<g id="node3" class="node">
<title>Node3</title>
<g id="a_node3"><a xlink:href="weight__importers_8h.html" target="_top" xlink:title=" ">
<polygon fill="white" stroke="black" points="244.24,-441 244.24,-482 381.24,-482 381.24,-441 244.24,-441"/>
<text text-anchor="start" x="252.24" y="-470" font-family="Helvetica,sans-Serif" font-size="10.00">include/network_butcher</text>
<text text-anchor="start" x="252.24" y="-459" font-family="Helvetica,sans-Serif" font-size="10.00">/IO_Interaction/weight</text>
<text text-anchor="middle" x="312.74" y="-448" font-family="Helvetica,sans-Serif" font-size="10.00">_importers.h</text>
</a>
</g>
</g>
<!-- Node2&#45;&gt;Node3 -->
<g id="edge2" class="edge">
<title>Node2&#45;&gt;Node3</title>
<path fill="none" stroke="midnightblue" d="M168.49,-520.6C199.85,-507.97 235.82,-493.48 263.99,-482.13"/>
<polygon fill="midnightblue" stroke="midnightblue" points="166.89,-517.47 158.92,-524.45 169.51,-523.96 166.89,-517.47"/>
</g>
<!-- Node15 -->
<g id="node15" class="node">
<title>Node15</title>
<g id="a_node15"><a xlink:href="block__aMLLibrary__weight__importer_8cpp.html" target="_top" xlink:title=" ">
<polygon fill="white" stroke="black" points="25.24,-435.5 25.24,-487.5 168.24,-487.5 168.24,-435.5 25.24,-435.5"/>
<text text-anchor="start" x="33.24" y="-475.5" font-family="Helvetica,sans-Serif" font-size="10.00">src/IO_Interaction</text>
<text text-anchor="start" x="33.24" y="-464.5" font-family="Helvetica,sans-Serif" font-size="10.00">/Weight_Importer_Helpers</text>
<text text-anchor="start" x="33.24" y="-453.5" font-family="Helvetica,sans-Serif" font-size="10.00">/block_aMLLibrary_weight</text>
<text text-anchor="middle" x="96.74" y="-442.5" font-family="Helvetica,sans-Serif" font-size="10.00">_importer.cpp</text>
</a>
</g>
</g>
<!-- Node2&#45;&gt;Node15 -->
<g id="edge19" class="edge">
<title>Node2&#45;&gt;Node15</title>
<path fill="none" stroke="midnightblue" d="M96.74,-514.19C96.74,-505.28 96.74,-495.9 96.74,-487.61"/>
<polygon fill="midnightblue" stroke="midnightblue" points="93.24,-514.34 96.74,-524.34 100.24,-514.34 93.24,-514.34"/>
</g>
<!-- Node4 -->
<g id="node4" class="node">
<title>Node4</title>
<g id="a_node4"><a xlink:href="butcher_8h.html" target="_top" xlink:title=" ">
<polygon fill="white" stroke="black" points="142.24,-290.5 142.24,-320.5 279.24,-320.5 279.24,-290.5 142.24,-290.5"/>
<text text-anchor="start" x="150.24" y="-308.5" font-family="Helvetica,sans-Serif" font-size="10.00">include/network_butcher</text>
<text text-anchor="middle" x="210.74" y="-297.5" font-family="Helvetica,sans-Serif" font-size="10.00">/Butcher/butcher.h</text>
</a>
</g>
</g>
<!-- Node3&#45;&gt;Node4 -->
<g id="edge3" class="edge">
<title>Node3&#45;&gt;Node4</title>
<path fill="none" stroke="midnightblue" d="M313.57,-430.62C312.77,-408.51 308.6,-378.6 293.74,-357 282.55,-340.74 264.25,-328.8 247.68,-320.62"/>
<polygon fill="midnightblue" stroke="midnightblue" points="310.07,-430.83 313.72,-440.78 317.07,-430.73 310.07,-430.83"/>
</g>
<!-- Node6 -->
<g id="node6" class="node">
<title>Node6</title>
<g id="a_node6"><a xlink:href="io__manager_8h.html" target="_top" xlink:title=" ">
<polygon fill="white" stroke="black" points="363.24,-140 363.24,-170 500.24,-170 500.24,-140 363.24,-140"/>
<text text-anchor="start" x="371.24" y="-158" font-family="Helvetica,sans-Serif" font-size="10.00">include/network_butcher</text>
<text text-anchor="middle" x="431.74" y="-147" font-family="Helvetica,sans-Serif" font-size="10.00">/io_manager.h</text>
</a>
</g>
</g>
<!-- Node3&#45;&gt;Node6 -->
<g id="edge18" class="edge">
<title>Node3&#45;&gt;Node6</title>
<path fill="none" stroke="midnightblue" d="M324.06,-431.53C348.99,-367.74 407.85,-217.11 426.19,-170.2"/>
<polygon fill="midnightblue" stroke="midnightblue" points="320.74,-430.4 320.36,-440.99 327.26,-432.95 320.74,-430.4"/>
</g>
<!-- Node14 -->
<g id="node14" class="node">
<title>Node14</title>
<g id="a_node14"><a xlink:href="constrained__block__graph__builder_8h.html" target="_top" xlink:title=" ">
<polygon fill="white" stroke="black" points="136.24,-357.5 136.24,-398.5 285.24,-398.5 285.24,-357.5 136.24,-357.5"/>
<text text-anchor="start" x="144.24" y="-386.5" font-family="Helvetica,sans-Serif" font-size="10.00">include/network_butcher</text>
<text text-anchor="start" x="144.24" y="-375.5" font-family="Helvetica,sans-Serif" font-size="10.00">/Butcher/constrained_block</text>
<text text-anchor="middle" x="210.74" y="-364.5" font-family="Helvetica,sans-Serif" font-size="10.00">_graph_builder.h</text>
</a>
</g>
</g>
<!-- Node3&#45;&gt;Node14 -->
<g id="edge16" class="edge">
<title>Node3&#45;&gt;Node14</title>
<path fill="none" stroke="midnightblue" d="M280.47,-434.72C265.86,-423.05 248.87,-409.47 235.32,-398.64"/>
<polygon fill="midnightblue" stroke="midnightblue" points="278.31,-437.47 288.3,-440.98 282.68,-432 278.31,-437.47"/>
</g>
<!-- Node5 -->
<g id="node5" class="node">
<title>Node5</title>
<g id="a_node5"><a xlink:href="onnx__model__reconstructor__helpers_8h.html" target="_top" xlink:title=" ">
<polygon fill="white" stroke="black" points="229.24,-212.5 229.24,-253.5 380.24,-253.5 380.24,-212.5 229.24,-212.5"/>
<text text-anchor="start" x="237.24" y="-241.5" font-family="Helvetica,sans-Serif" font-size="10.00">include/network_butcher</text>
<text text-anchor="start" x="237.24" y="-230.5" font-family="Helvetica,sans-Serif" font-size="10.00">/IO_Interaction/onnx_model</text>
<text text-anchor="middle" x="304.74" y="-219.5" font-family="Helvetica,sans-Serif" font-size="10.00">_reconstructor_helpers.h</text>
</a>
</g>
</g>
<!-- Node4&#45;&gt;Node5 -->
<g id="edge4" class="edge">
<title>Node4&#45;&gt;Node5</title>
<path fill="none" stroke="midnightblue" d="M237.79,-284.21C250.63,-274.58 265.9,-263.12 278.62,-253.59"/>
<polygon fill="midnightblue" stroke="midnightblue" points="235.66,-281.43 229.76,-290.23 239.86,-287.03 235.66,-281.43"/>
</g>
<!-- Node8 -->
<g id="node8" class="node">
<title>Node8</title>
<g id="a_node8"><a xlink:href="network__butcher_8h.html" target="_top" xlink:title=" ">
<polygon fill="white" stroke="black" points="284.24,-0.5 284.24,-30.5 421.24,-30.5 421.24,-0.5 284.24,-0.5"/>
<text text-anchor="start" x="292.24" y="-18.5" font-family="Helvetica,sans-Serif" font-size="10.00">include/network_butcher</text>
<text text-anchor="middle" x="352.74" y="-7.5" font-family="Helvetica,sans-Serif" font-size="10.00">/network_butcher.h</text>
</a>
</g>
</g>
<!-- Node4&#45;&gt;Node8 -->
<g id="edge15" class="edge">
<title>Node4&#45;&gt;Node8</title>
<path fill="none" stroke="midnightblue" d="M132.09,-297.72C99.7,-291.13 64.13,-278.4 39.74,-254 1.35,-215.59 -14.69,-178.29 16.74,-134 77.27,-48.7 204.63,-24.83 283.99,-18.45"/>
<polygon fill="midnightblue" stroke="midnightblue" points="131.55,-301.18 142.03,-299.58 132.84,-294.3 131.55,-301.18"/>
</g>
<!-- Node12 -->
<g id="node12" class="node">
<title>Node12</title>
<g id="a_node12"><a xlink:href="onnx__importer__helpers_8h.html" target="_top" xlink:title=" ">
<polygon fill="white" stroke="black" points="48.74,-212.5 48.74,-253.5 210.74,-253.5 210.74,-212.5 48.74,-212.5"/>
<text text-anchor="start" x="56.74" y="-241.5" font-family="Helvetica,sans-Serif" font-size="10.00">include/network_butcher</text>
<text text-anchor="start" x="56.74" y="-230.5" font-family="Helvetica,sans-Serif" font-size="10.00">/IO_Interaction/onnx_importer</text>
<text text-anchor="middle" x="129.74" y="-219.5" font-family="Helvetica,sans-Serif" font-size="10.00">_helpers.h</text>
</a>
</g>
</g>
<!-- Node4&#45;&gt;Node12 -->
<g id="edge12" class="edge">
<title>Node4&#45;&gt;Node12</title>
<path fill="none" stroke="midnightblue" d="M186.79,-283.66C175.86,-274.15 162.99,-262.94 152.24,-253.59"/>
<polygon fill="midnightblue" stroke="midnightblue" points="184.5,-286.31 194.34,-290.23 189.1,-281.03 184.5,-286.31"/>
</g>
<!-- Node5&#45;&gt;Node6 -->
<g id="edge5" class="edge">
<title>Node5&#45;&gt;Node6</title>
<path fill="none" stroke="midnightblue" d="M346.26,-207.15C366.72,-194.91 390.64,-180.59 407.97,-170.23"/>
<polygon fill="midnightblue" stroke="midnightblue" points="344.23,-204.29 337.44,-212.43 347.82,-210.3 344.23,-204.29"/>
</g>
<!-- Node11 -->
<g id="node11" class="node">
<title>Node11</title>
<g id="a_node11"><a xlink:href="onnx__model__reconstructor__helpers_8cpp.html" target="_top" xlink:title=" ">
<polygon fill="white" stroke="black" points="196.24,-134.5 196.24,-175.5 345.24,-175.5 345.24,-134.5 196.24,-134.5"/>
<text text-anchor="start" x="204.24" y="-163.5" font-family="Helvetica,sans-Serif" font-size="10.00">src/IO_Interaction</text>
<text text-anchor="start" x="204.24" y="-152.5" font-family="Helvetica,sans-Serif" font-size="10.00">/onnx_model_reconstructor</text>
<text text-anchor="middle" x="270.74" y="-141.5" font-family="Helvetica,sans-Serif" font-size="10.00">_helpers.cpp</text>
</a>
</g>
</g>
<!-- Node5&#45;&gt;Node11 -->
<g id="edge11" class="edge">
<title>Node5&#45;&gt;Node11</title>
<path fill="none" stroke="midnightblue" d="M291.84,-203.17C287.71,-193.93 283.23,-183.92 279.46,-175.51"/>
<polygon fill="midnightblue" stroke="midnightblue" points="288.7,-204.73 295.98,-212.43 295.09,-201.87 288.7,-204.73"/>
</g>
<!-- Node7 -->
<g id="node7" class="node">
<title>Node7</title>
<g id="a_node7"><a xlink:href="general__manager_8h.html" target="_top" xlink:title=" ">
<polygon fill="white" stroke="black" points="411.24,-67.5 411.24,-97.5 548.24,-97.5 548.24,-67.5 411.24,-67.5"/>
<text text-anchor="start" x="419.24" y="-85.5" font-family="Helvetica,sans-Serif" font-size="10.00">include/network_butcher</text>
<text text-anchor="middle" x="479.74" y="-74.5" font-family="Helvetica,sans-Serif" font-size="10.00">/general_manager.h</text>
</a>
</g>
</g>
<!-- Node6&#45;&gt;Node7 -->
<g id="edge6" class="edge">
<title>Node6&#45;&gt;Node7</title>
<path fill="none" stroke="midnightblue" d="M447.13,-131.39C454.65,-120.34 463.47,-107.39 470.04,-97.75"/>
<polygon fill="midnightblue" stroke="midnightblue" points="444.18,-129.5 441.45,-139.73 449.97,-133.44 444.18,-129.5"/>
</g>
<!-- Node6&#45;&gt;Node8 -->
<g id="edge9" class="edge">
<title>Node6&#45;&gt;Node8</title>
<path fill="none" stroke="midnightblue" d="M418.47,-130.91C402.06,-102.35 374.62,-54.59 360.97,-30.83"/>
<polygon fill="midnightblue" stroke="midnightblue" points="415.56,-132.88 423.58,-139.8 421.63,-129.39 415.56,-132.88"/>
</g>
<!-- Node10 -->
<g id="node10" class="node">
<title>Node10</title>
<g id="a_node10"><a xlink:href="io__manager_8cpp.html" target="_top" xlink:title=" ">
<polygon fill="white" stroke="black" points="243.24,-73 243.24,-92 354.24,-92 354.24,-73 243.24,-73"/>
<text text-anchor="middle" x="298.74" y="-80" font-family="Helvetica,sans-Serif" font-size="10.00">src/io_manager.cpp</text>
</a>
</g>
</g>
<!-- Node6&#45;&gt;Node10 -->
<g id="edge10" class="edge">
<title>Node6&#45;&gt;Node10</title>
<path fill="none" stroke="midnightblue" d="M396.18,-135.15C369.73,-121.13 334.89,-102.66 314.84,-92.03"/>
<polygon fill="midnightblue" stroke="midnightblue" points="394.67,-138.31 405.14,-139.9 397.95,-132.13 394.67,-138.31"/>
</g>
<!-- Node7&#45;&gt;Node8 -->
<g id="edge7" class="edge">
<title>Node7&#45;&gt;Node8</title>
<path fill="none" stroke="midnightblue" d="M443.03,-62.71C423,-52.46 398.62,-39.98 380.24,-30.58"/>
<polygon fill="midnightblue" stroke="midnightblue" points="441.68,-65.96 452.18,-67.4 444.87,-59.72 441.68,-65.96"/>
</g>
<!-- Node9 -->
<g id="node9" class="node">
<title>Node9</title>
<g id="a_node9"><a xlink:href="general__manager_8cpp.html" target="_top" xlink:title=" ">
<polygon fill="white" stroke="black" points="439.24,-6 439.24,-25 578.24,-25 578.24,-6 439.24,-6"/>
<text text-anchor="middle" x="508.74" y="-13" font-family="Helvetica,sans-Serif" font-size="10.00">src/general_manager.cpp</text>
</a>
</g>
</g>
<!-- Node7&#45;&gt;Node9 -->
<g id="edge8" class="edge">
<title>Node7&#45;&gt;Node9</title>
<path fill="none" stroke="midnightblue" d="M490.25,-57.94C495.33,-46.54 501.13,-33.55 504.86,-25.19"/>
<polygon fill="midnightblue" stroke="midnightblue" points="486.91,-56.84 486.03,-67.4 493.3,-59.69 486.91,-56.84"/>
</g>
<!-- Node12&#45;&gt;Node6 -->
<g id="edge13" class="edge">
<title>Node12&#45;&gt;Node6</title>
<path fill="none" stroke="midnightblue" d="M218.04,-210.05C259.28,-199.77 309.04,-187.32 353.74,-176 361.33,-174.08 369.33,-172.04 377.2,-170.03"/>
<polygon fill="midnightblue" stroke="midnightblue" points="217.15,-206.67 208.29,-212.48 218.84,-213.46 217.15,-206.67"/>
</g>
<!-- Node13 -->
<g id="node13" class="node">
<title>Node13</title>
<g id="a_node13"><a xlink:href="onnx__importer__helpers_8cpp.html" target="_top" xlink:title=" ">
<polygon fill="white" stroke="black" points="25.74,-140 25.74,-170 177.74,-170 177.74,-140 25.74,-140"/>
<text text-anchor="start" x="33.74" y="-158" font-family="Helvetica,sans-Serif" font-size="10.00">src/IO_Interaction</text>
<text text-anchor="middle" x="101.74" y="-147" font-family="Helvetica,sans-Serif" font-size="10.00">/onnx_importer_helpers.cpp</text>
</a>
</g>
</g>
<!-- Node12&#45;&gt;Node13 -->
<g id="edge14" class="edge">
<title>Node12&#45;&gt;Node13</title>
<path fill="none" stroke="midnightblue" d="M119.04,-202.96C114.91,-191.75 110.37,-179.43 106.98,-170.23"/>
<polygon fill="midnightblue" stroke="midnightblue" points="115.78,-204.25 122.53,-212.43 122.35,-201.83 115.78,-204.25"/>
</g>
<!-- Node14&#45;&gt;Node4 -->
<g id="edge17" class="edge">
<title>Node14&#45;&gt;Node4</title>
<path fill="none" stroke="midnightblue" d="M210.74,-347.08C210.74,-338.01 210.74,-328.45 210.74,-320.89"/>
<polygon fill="midnightblue" stroke="midnightblue" points="207.24,-347.36 210.74,-357.36 214.24,-347.36 207.24,-347.36"/>
</g>
<!-- Node16&#45;&gt;Node2 -->
<g id="edge21" class="edge">
<title>Node16&#45;&gt;Node2</title>
<path fill="none" stroke="midnightblue" d="M200.24,-608.49C181.37,-598.1 160.42,-586.57 142.33,-576.61"/>
<polygon fill="midnightblue" stroke="midnightblue" points="198.59,-611.58 209.04,-613.34 201.96,-605.45 198.59,-611.58"/>
</g>
<!-- Node16&#45;&gt;Node3 -->
<g id="edge22" class="edge">
<title>Node16&#45;&gt;Node3</title>
<path fill="none" stroke="midnightblue" d="M323.98,-607.77C335.52,-599.48 345.93,-589.31 352.74,-577 369.96,-545.86 347.01,-505.93 329.42,-482.39"/>
<polygon fill="midnightblue" stroke="midnightblue" points="321.8,-605.02 315.42,-613.47 325.68,-610.84 321.8,-605.02"/>
</g>
<!-- Node17 -->
<g id="node17" class="node">
<title>Node17</title>
<g id="a_node17"><a xlink:href="csv__weight__importer_8cpp.html" target="_top" xlink:title=" ">
<polygon fill="white" stroke="black" points="200.24,-530 200.24,-571 343.24,-571 343.24,-530 200.24,-530"/>
<text text-anchor="start" x="208.24" y="-559" font-family="Helvetica,sans-Serif" font-size="10.00">src/IO_Interaction</text>
<text text-anchor="start" x="208.24" y="-548" font-family="Helvetica,sans-Serif" font-size="10.00">/Weight_Importer_Helpers</text>
<text text-anchor="middle" x="271.74" y="-537" font-family="Helvetica,sans-Serif" font-size="10.00">/csv_weight_importer.cpp</text>
</a>
</g>
</g>
<!-- Node16&#45;&gt;Node17 -->
<g id="edge23" class="edge">
<title>Node16&#45;&gt;Node17</title>
<path fill="none" stroke="midnightblue" d="M261.58,-603.49C263.73,-592.45 266.04,-580.65 267.91,-571.08"/>
<polygon fill="midnightblue" stroke="midnightblue" points="258.14,-602.85 259.65,-613.34 265.01,-604.19 258.14,-602.85"/>
</g>
</g>
</svg>
