<?xml version="1.0" encoding="UTF-8" standalone="no"?>
<!DOCTYPE svg PUBLIC "-//W3C//DTD SVG 1.1//EN"
 "http://www.w3.org/Graphics/SVG/1.1/DTD/svg11.dtd">
<!-- Generated by graphviz version 2.43.0 (0)
 -->
<!-- Title: include/network_butcher/Network/wgraph.h Pages: 1 -->
<svg width="1074pt" height="964pt"
 viewBox="0.00 0.00 1073.50 964.00" xmlns="http://www.w3.org/2000/svg" xmlns:xlink="http://www.w3.org/1999/xlink">
<g id="graph0" class="graph" transform="scale(1 1) rotate(0) translate(4 960)">
<title>include/network_butcher/Network/wgraph.h</title>
<polygon fill="white" stroke="transparent" points="-4,4 -4,-960 1069.5,-960 1069.5,4 -4,4"/>
<!-- Node1 -->
<g id="node1" class="node">
<title>Node1</title>
<g id="a_node1"><a xlink:title=" ">
<polygon fill="#bfbfbf" stroke="black" points="777,-925.5 777,-955.5 914,-955.5 914,-925.5 777,-925.5"/>
<text text-anchor="start" x="785" y="-943.5" font-family="Helvetica,sans-Serif" font-size="10.00">include/network_butcher</text>
<text text-anchor="middle" x="845.5" y="-932.5" font-family="Helvetica,sans-Serif" font-size="10.00">/Network/wgraph.h</text>
</a>
</g>
</g>
<!-- Node2 -->
<g id="node2" class="node">
<title>Node2</title>
<g id="a_node2"><a xlink:href="computer__memory_8h.html" target="_top" xlink:title=" ">
<polygon fill="white" stroke="black" points="866,-624.5 866,-654.5 1037,-654.5 1037,-624.5 866,-624.5"/>
<text text-anchor="start" x="874" y="-642.5" font-family="Helvetica,sans-Serif" font-size="10.00">include/network_butcher</text>
<text text-anchor="middle" x="951.5" y="-631.5" font-family="Helvetica,sans-Serif" font-size="10.00">/Computer/computer_memory.h</text>
</a>
</g>
</g>
<!-- Node1&#45;&gt;Node2 -->
<g id="edge1" class="edge">
<title>Node1&#45;&gt;Node2</title>
<path fill="none" stroke="midnightblue" d="M853.88,-915.86C874.92,-856.51 929.49,-702.58 946.42,-654.84"/>
<polygon fill="midnightblue" stroke="midnightblue" points="850.51,-914.88 850.47,-925.48 857.11,-917.22 850.51,-914.88"/>
</g>
<!-- Node18 -->
<g id="node18" class="node">
<title>Node18</title>
<g id="a_node18"><a xlink:href="graph__traits_8h.html" target="_top" xlink:title=" ">
<polygon fill="white" stroke="black" points="577,-858.5 577,-888.5 714,-888.5 714,-858.5 577,-858.5"/>
<text text-anchor="start" x="585" y="-876.5" font-family="Helvetica,sans-Serif" font-size="10.00">include/network_butcher</text>
<text text-anchor="middle" x="645.5" y="-865.5" font-family="Helvetica,sans-Serif" font-size="10.00">/Network/graph_traits.h</text>
</a>
</g>
</g>
<!-- Node1&#45;&gt;Node18 -->
<g id="edge25" class="edge">
<title>Node1&#45;&gt;Node18</title>
<path fill="none" stroke="midnightblue" d="M792.35,-922.23C760,-911.71 719.19,-898.45 688.81,-888.58"/>
<polygon fill="midnightblue" stroke="midnightblue" points="791.51,-925.63 802.1,-925.4 793.67,-918.98 791.51,-925.63"/>
</g>
<!-- Node3 -->
<g id="node3" class="node">
<title>Node3</title>
<g id="a_node3"><a xlink:href="butcher_8h.html" target="_top" xlink:title=" ">
<polygon fill="white" stroke="black" points="383,-290.5 383,-320.5 520,-320.5 520,-290.5 383,-290.5"/>
<text text-anchor="start" x="391" y="-308.5" font-family="Helvetica,sans-Serif" font-size="10.00">include/network_butcher</text>
<text text-anchor="middle" x="451.5" y="-297.5" font-family="Helvetica,sans-Serif" font-size="10.00">/Butcher/butcher.h</text>
</a>
</g>
</g>
<!-- Node2&#45;&gt;Node3 -->
<g id="edge2" class="edge">
<title>Node2&#45;&gt;Node3</title>
<path fill="none" stroke="midnightblue" d="M956.03,-614.16C965,-557.35 977.73,-416.35 896.5,-357 838.11,-314.34 629.66,-307.01 520.02,-306.19"/>
<polygon fill="midnightblue" stroke="midnightblue" points="952.52,-613.9 954.31,-624.35 959.42,-615.07 952.52,-613.9"/>
</g>
<!-- Node7 -->
<g id="node7" class="node">
<title>Node7</title>
<g id="a_node7"><a xlink:href="network__butcher_8h.html" target="_top" xlink:title=" ">
<polygon fill="white" stroke="black" points="434,-0.5 434,-30.5 571,-30.5 571,-0.5 434,-0.5"/>
<text text-anchor="start" x="442" y="-18.5" font-family="Helvetica,sans-Serif" font-size="10.00">include/network_butcher</text>
<text text-anchor="middle" x="502.5" y="-7.5" font-family="Helvetica,sans-Serif" font-size="10.00">/network_butcher.h</text>
</a>
</g>
</g>
<!-- Node2&#45;&gt;Node7 -->
<g id="edge24" class="edge">
<title>Node2&#45;&gt;Node7</title>
<path fill="none" stroke="midnightblue" d="M962.21,-614.62C966.88,-603.39 972.07,-589.71 975.5,-577 988.94,-527.27 993.5,-514.01 993.5,-462.5 993.5,-462.5 993.5,-462.5 993.5,-154 993.5,-67.3 706.05,-32.78 571.03,-21.34"/>
<polygon fill="midnightblue" stroke="midnightblue" points="958.85,-613.57 958.13,-624.14 965.29,-616.32 958.85,-613.57"/>
</g>
<!-- Node13 -->
<g id="node13" class="node">
<title>Node13</title>
<g id="a_node13"><a xlink:href="graph__constraint_8h.html" target="_top" xlink:title=" ">
<polygon fill="white" stroke="black" points="738,-535.5 738,-565.5 889,-565.5 889,-535.5 738,-535.5"/>
<text text-anchor="start" x="746" y="-553.5" font-family="Helvetica,sans-Serif" font-size="10.00">include/network_butcher</text>
<text text-anchor="middle" x="813.5" y="-542.5" font-family="Helvetica,sans-Serif" font-size="10.00">/Butcher/graph_constraint.h</text>
</a>
</g>
</g>
<!-- Node2&#45;&gt;Node13 -->
<g id="edge15" class="edge">
<title>Node2&#45;&gt;Node13</title>
<path fill="none" stroke="midnightblue" d="M920.4,-618.9C894.73,-602.71 858.92,-580.14 835.97,-565.67"/>
<polygon fill="midnightblue" stroke="midnightblue" points="918.69,-621.96 929.02,-624.33 922.43,-616.03 918.69,-621.96"/>
</g>
<!-- Node15 -->
<g id="node15" class="node">
<title>Node15</title>
<g id="a_node15"><a xlink:href="block__aMLLibrary__weight__importer_8h.html" target="_top" xlink:title=" ">
<polygon fill="white" stroke="black" points="511.5,-524.5 511.5,-576.5 681.5,-576.5 681.5,-524.5 511.5,-524.5"/>
<text text-anchor="start" x="519.5" y="-564.5" font-family="Helvetica,sans-Serif" font-size="10.00">include/network_butcher</text>
<text text-anchor="start" x="519.5" y="-553.5" font-family="Helvetica,sans-Serif" font-size="10.00">/IO_Interaction/Weight</text>
<text text-anchor="start" x="519.5" y="-542.5" font-family="Helvetica,sans-Serif" font-size="10.00">_Importer_Helpers/block</text>
<text text-anchor="middle" x="596.5" y="-531.5" font-family="Helvetica,sans-Serif" font-size="10.00">_aMLLibrary_weight_importer.h</text>
</a>
</g>
</g>
<!-- Node2&#45;&gt;Node15 -->
<g id="edge18" class="edge">
<title>Node2&#45;&gt;Node15</title>
<path fill="none" stroke="midnightblue" d="M884,-621.96C826.55,-607.88 743.71,-587.58 681.69,-572.38"/>
<polygon fill="midnightblue" stroke="midnightblue" points="883.52,-625.44 894.07,-624.43 885.19,-618.65 883.52,-625.44"/>
</g>
<!-- Node4 -->
<g id="node4" class="node">
<title>Node4</title>
<g id="a_node4"><a xlink:href="onnx__model__reconstructor__helpers_8h.html" target="_top" xlink:title=" ">
<polygon fill="white" stroke="black" points="28,-212.5 28,-253.5 179,-253.5 179,-212.5 28,-212.5"/>
<text text-anchor="start" x="36" y="-241.5" font-family="Helvetica,sans-Serif" font-size="10.00">include/network_butcher</text>
<text text-anchor="start" x="36" y="-230.5" font-family="Helvetica,sans-Serif" font-size="10.00">/IO_Interaction/onnx_model</text>
<text text-anchor="middle" x="103.5" y="-219.5" font-family="Helvetica,sans-Serif" font-size="10.00">_reconstructor_helpers.h</text>
</a>
</g>
</g>
<!-- Node3&#45;&gt;Node4 -->
<g id="edge3" class="edge">
<title>Node3&#45;&gt;Node4</title>
<path fill="none" stroke="midnightblue" d="M372.89,-288.57C314.86,-276.82 236.34,-260.91 179.05,-249.31"/>
<polygon fill="midnightblue" stroke="midnightblue" points="372.25,-292.02 382.75,-290.57 373.64,-285.16 372.25,-292.02"/>
</g>
<!-- Node3&#45;&gt;Node7 -->
<g id="edge14" class="edge">
<title>Node3&#45;&gt;Node7</title>
<path fill="none" stroke="midnightblue" d="M458.46,-280.42C465.65,-254.75 476.75,-212.8 483.5,-176 493.26,-122.79 499.14,-58.63 501.41,-30.67"/>
<polygon fill="midnightblue" stroke="midnightblue" points="455,-279.79 455.64,-290.37 461.73,-281.7 455,-279.79"/>
</g>
<!-- Node11 -->
<g id="node11" class="node">
<title>Node11</title>
<g id="a_node11"><a xlink:href="onnx__importer__helpers_8h.html" target="_top" xlink:title=" ">
<polygon fill="white" stroke="black" points="235.5,-212.5 235.5,-253.5 397.5,-253.5 397.5,-212.5 235.5,-212.5"/>
<text text-anchor="start" x="243.5" y="-241.5" font-family="Helvetica,sans-Serif" font-size="10.00">include/network_butcher</text>
<text text-anchor="start" x="243.5" y="-230.5" font-family="Helvetica,sans-Serif" font-size="10.00">/IO_Interaction/onnx_importer</text>
<text text-anchor="middle" x="316.5" y="-219.5" font-family="Helvetica,sans-Serif" font-size="10.00">_helpers.h</text>
</a>
</g>
</g>
<!-- Node3&#45;&gt;Node11 -->
<g id="edge11" class="edge">
<title>Node3&#45;&gt;Node11</title>
<path fill="none" stroke="midnightblue" d="M415.55,-285.72C396.52,-275.79 373.17,-263.6 353.93,-253.55"/>
<polygon fill="midnightblue" stroke="midnightblue" points="414.02,-288.88 424.51,-290.4 417.26,-282.67 414.02,-288.88"/>
</g>
<!-- Node5 -->
<g id="node5" class="node">
<title>Node5</title>
<g id="a_node5"><a xlink:href="io__manager_8h.html" target="_top" xlink:title=" ">
<polygon fill="white" stroke="black" points="167,-140 167,-170 304,-170 304,-140 167,-140"/>
<text text-anchor="start" x="175" y="-158" font-family="Helvetica,sans-Serif" font-size="10.00">include/network_butcher</text>
<text text-anchor="middle" x="235.5" y="-147" font-family="Helvetica,sans-Serif" font-size="10.00">/io_manager.h</text>
</a>
</g>
</g>
<!-- Node4&#45;&gt;Node5 -->
<g id="edge4" class="edge">
<title>Node4&#45;&gt;Node5</title>
<path fill="none" stroke="midnightblue" d="M146.37,-207.31C167.7,-195.04 192.7,-180.64 210.79,-170.23"/>
<polygon fill="midnightblue" stroke="midnightblue" points="144.41,-204.41 137.49,-212.43 147.91,-210.47 144.41,-204.41"/>
</g>
<!-- Node10 -->
<g id="node10" class="node">
<title>Node10</title>
<g id="a_node10"><a xlink:href="onnx__model__reconstructor__helpers_8cpp.html" target="_top" xlink:title=" ">
<polygon fill="white" stroke="black" points="0,-134.5 0,-175.5 149,-175.5 149,-134.5 0,-134.5"/>
<text text-anchor="start" x="8" y="-163.5" font-family="Helvetica,sans-Serif" font-size="10.00">src/IO_Interaction</text>
<text text-anchor="start" x="8" y="-152.5" font-family="Helvetica,sans-Serif" font-size="10.00">/onnx_model_reconstructor</text>
<text text-anchor="middle" x="74.5" y="-141.5" font-family="Helvetica,sans-Serif" font-size="10.00">_helpers.cpp</text>
</a>
</g>
</g>
<!-- Node4&#45;&gt;Node10 -->
<g id="edge10" class="edge">
<title>Node4&#45;&gt;Node10</title>
<path fill="none" stroke="midnightblue" d="M92.39,-202.88C88.89,-193.72 85.12,-183.83 81.94,-175.51"/>
<polygon fill="midnightblue" stroke="midnightblue" points="89.2,-204.33 96.03,-212.43 95.74,-201.84 89.2,-204.33"/>
</g>
<!-- Node6 -->
<g id="node6" class="node">
<title>Node6</title>
<g id="a_node6"><a xlink:href="general__manager_8h.html" target="_top" xlink:title=" ">
<polygon fill="white" stroke="black" points="167,-67.5 167,-97.5 304,-97.5 304,-67.5 167,-67.5"/>
<text text-anchor="start" x="175" y="-85.5" font-family="Helvetica,sans-Serif" font-size="10.00">include/network_butcher</text>
<text text-anchor="middle" x="235.5" y="-74.5" font-family="Helvetica,sans-Serif" font-size="10.00">/general_manager.h</text>
</a>
</g>
</g>
<!-- Node5&#45;&gt;Node6 -->
<g id="edge5" class="edge">
<title>Node5&#45;&gt;Node6</title>
<path fill="none" stroke="midnightblue" d="M235.5,-129.73C235.5,-119.07 235.5,-106.91 235.5,-97.75"/>
<polygon fill="midnightblue" stroke="midnightblue" points="232,-129.73 235.5,-139.73 239,-129.73 232,-129.73"/>
</g>
<!-- Node5&#45;&gt;Node7 -->
<g id="edge8" class="edge">
<title>Node5&#45;&gt;Node7</title>
<path fill="none" stroke="midnightblue" d="M298.81,-137.4C358.54,-121.67 439.41,-100.11 442.5,-98 467.87,-80.63 486.59,-48.93 495.9,-30.6"/>
<polygon fill="midnightblue" stroke="midnightblue" points="297.83,-134.04 289.05,-139.97 299.61,-140.81 297.83,-134.04"/>
</g>
<!-- Node9 -->
<g id="node9" class="node">
<title>Node9</title>
<g id="a_node9"><a xlink:href="io__manager_8cpp.html" target="_top" xlink:title=" ">
<polygon fill="white" stroke="black" points="322,-73 322,-92 433,-92 433,-73 322,-73"/>
<text text-anchor="middle" x="377.5" y="-80" font-family="Helvetica,sans-Serif" font-size="10.00">src/io_manager.cpp</text>
</a>
</g>
</g>
<!-- Node5&#45;&gt;Node9 -->
<g id="edge9" class="edge">
<title>Node5&#45;&gt;Node9</title>
<path fill="none" stroke="midnightblue" d="M273.1,-135.33C301.37,-121.29 338.81,-102.71 360.31,-92.03"/>
<polygon fill="midnightblue" stroke="midnightblue" points="271.29,-132.32 263.89,-139.9 274.41,-138.59 271.29,-132.32"/>
</g>
<!-- Node6&#45;&gt;Node7 -->
<g id="edge6" class="edge">
<title>Node6&#45;&gt;Node7</title>
<path fill="none" stroke="midnightblue" d="M303.07,-65.05C346.72,-54.43 402.92,-40.74 444.54,-30.61"/>
<polygon fill="midnightblue" stroke="midnightblue" points="301.99,-61.71 293.11,-67.48 303.65,-68.51 301.99,-61.71"/>
</g>
<!-- Node8 -->
<g id="node8" class="node">
<title>Node8</title>
<g id="a_node8"><a xlink:href="general__manager_8cpp.html" target="_top" xlink:title=" ">
<polygon fill="white" stroke="black" points="166,-6 166,-25 305,-25 305,-6 166,-6"/>
<text text-anchor="middle" x="235.5" y="-13" font-family="Helvetica,sans-Serif" font-size="10.00">src/general_manager.cpp</text>
</a>
</g>
</g>
<!-- Node6&#45;&gt;Node8 -->
<g id="edge7" class="edge">
<title>Node6&#45;&gt;Node8</title>
<path fill="none" stroke="midnightblue" d="M235.5,-57.25C235.5,-46.02 235.5,-33.38 235.5,-25.19"/>
<polygon fill="midnightblue" stroke="midnightblue" points="232,-57.4 235.5,-67.4 239,-57.4 232,-57.4"/>
</g>
<!-- Node11&#45;&gt;Node5 -->
<g id="edge12" class="edge">
<title>Node11&#45;&gt;Node5</title>
<path fill="none" stroke="midnightblue" d="M288.07,-205.32C275.48,-193.51 261.17,-180.08 250.66,-170.23"/>
<polygon fill="midnightblue" stroke="midnightblue" points="285.95,-208.14 295.64,-212.43 290.74,-203.03 285.95,-208.14"/>
</g>
<!-- Node12 -->
<g id="node12" class="node">
<title>Node12</title>
<g id="a_node12"><a xlink:href="onnx__importer__helpers_8cpp.html" target="_top" xlink:title=" ">
<polygon fill="white" stroke="black" points="322.5,-140 322.5,-170 474.5,-170 474.5,-140 322.5,-140"/>
<text text-anchor="start" x="330.5" y="-158" font-family="Helvetica,sans-Serif" font-size="10.00">src/IO_Interaction</text>
<text text-anchor="middle" x="398.5" y="-147" font-family="Helvetica,sans-Serif" font-size="10.00">/onnx_importer_helpers.cpp</text>
</a>
</g>
</g>
<!-- Node11&#45;&gt;Node12 -->
<g id="edge13" class="edge">
<title>Node11&#45;&gt;Node12</title>
<path fill="none" stroke="midnightblue" d="M345.28,-205.32C358.03,-193.51 372.52,-180.08 383.15,-170.23"/>
<polygon fill="midnightblue" stroke="midnightblue" points="342.57,-203.06 337.62,-212.43 347.33,-208.2 342.57,-203.06"/>
</g>
<!-- Node14 -->
<g id="node14" class="node">
<title>Node14</title>
<g id="a_node14"><a xlink:href="constrained__block__graph__builder_8h.html" target="_top" xlink:title=" ">
<polygon fill="white" stroke="black" points="738,-357.5 738,-398.5 887,-398.5 887,-357.5 738,-357.5"/>
<text text-anchor="start" x="746" y="-386.5" font-family="Helvetica,sans-Serif" font-size="10.00">include/network_butcher</text>
<text text-anchor="start" x="746" y="-375.5" font-family="Helvetica,sans-Serif" font-size="10.00">/Butcher/constrained_block</text>
<text text-anchor="middle" x="812.5" y="-364.5" font-family="Helvetica,sans-Serif" font-size="10.00">_graph_builder.h</text>
</a>
</g>
</g>
<!-- Node13&#45;&gt;Node14 -->
<g id="edge16" class="edge">
<title>Node13&#45;&gt;Node14</title>
<path fill="none" stroke="midnightblue" d="M813.36,-525.25C813.16,-491.26 812.8,-430.11 812.62,-398.74"/>
<polygon fill="midnightblue" stroke="midnightblue" points="809.86,-525.28 813.42,-535.26 816.86,-525.24 809.86,-525.28"/>
</g>
<!-- Node14&#45;&gt;Node3 -->
<g id="edge17" class="edge">
<title>Node14&#45;&gt;Node3</title>
<path fill="none" stroke="midnightblue" d="M727.9,-357.91C726.42,-357.6 724.95,-357.3 723.5,-357 654.45,-342.84 575.19,-328.32 520.11,-318.5"/>
<polygon fill="midnightblue" stroke="midnightblue" points="727.25,-361.35 737.76,-359.99 728.7,-354.5 727.25,-361.35"/>
</g>
<!-- Node16 -->
<g id="node16" class="node">
<title>Node16</title>
<g id="a_node16"><a xlink:href="weight__importers_8h.html" target="_top" xlink:title=" ">
<polygon fill="white" stroke="black" points="383,-441 383,-482 520,-482 520,-441 383,-441"/>
<text text-anchor="start" x="391" y="-470" font-family="Helvetica,sans-Serif" font-size="10.00">include/network_butcher</text>
<text text-anchor="start" x="391" y="-459" font-family="Helvetica,sans-Serif" font-size="10.00">/IO_Interaction/weight</text>
<text text-anchor="middle" x="451.5" y="-448" font-family="Helvetica,sans-Serif" font-size="10.00">_importers.h</text>
</a>
</g>
</g>
<!-- Node15&#45;&gt;Node16 -->
<g id="edge19" class="edge">
<title>Node15&#45;&gt;Node16</title>
<path fill="none" stroke="midnightblue" d="M545.95,-519.17C525.45,-506.87 502.36,-493.01 484.14,-482.08"/>
<polygon fill="midnightblue" stroke="midnightblue" points="544.18,-522.19 554.56,-524.34 547.79,-516.19 544.18,-522.19"/>
</g>
<!-- Node17 -->
<g id="node17" class="node">
<title>Node17</title>
<g id="a_node17"><a xlink:href="block__aMLLibrary__weight__importer_8cpp.html" target="_top" xlink:title=" ">
<polygon fill="white" stroke="black" points="538,-435.5 538,-487.5 681,-487.5 681,-435.5 538,-435.5"/>
<text text-anchor="start" x="546" y="-475.5" font-family="Helvetica,sans-Serif" font-size="10.00">src/IO_Interaction</text>
<text text-anchor="start" x="546" y="-464.5" font-family="Helvetica,sans-Serif" font-size="10.00">/Weight_Importer_Helpers</text>
<text text-anchor="start" x="546" y="-453.5" font-family="Helvetica,sans-Serif" font-size="10.00">/block_aMLLibrary_weight</text>
<text text-anchor="middle" x="609.5" y="-442.5" font-family="Helvetica,sans-Serif" font-size="10.00">_importer.cpp</text>
</a>
</g>
</g>
<!-- Node15&#45;&gt;Node17 -->
<g id="edge23" class="edge">
<title>Node15&#45;&gt;Node17</title>
<path fill="none" stroke="midnightblue" d="M601.78,-514.19C603.11,-505.28 604.51,-495.9 605.75,-487.61"/>
<polygon fill="midnightblue" stroke="midnightblue" points="598.28,-513.93 600.26,-524.34 605.2,-514.96 598.28,-513.93"/>
</g>
<!-- Node16&#45;&gt;Node3 -->
<g id="edge20" class="edge">
<title>Node16&#45;&gt;Node3</title>
<path fill="none" stroke="midnightblue" d="M451.5,-430.58C451.5,-397.54 451.5,-345.73 451.5,-320.82"/>
<polygon fill="midnightblue" stroke="midnightblue" points="448,-431 451.5,-441 455,-431 448,-431"/>
</g>
<!-- Node16&#45;&gt;Node5 -->
<g id="edge22" class="edge">
<title>Node16&#45;&gt;Node5</title>
<path fill="none" stroke="midnightblue" d="M406.96,-435.59C352.57,-402.31 263.28,-337.68 226.5,-254 214.33,-226.31 223.29,-190.06 229.98,-170.33"/>
<polygon fill="midnightblue" stroke="midnightblue" points="405.33,-438.7 415.7,-440.86 408.94,-432.7 405.33,-438.7"/>
</g>
<!-- Node16&#45;&gt;Node14 -->
<g id="edge21" class="edge">
<title>Node16&#45;&gt;Node14</title>
<path fill="none" stroke="midnightblue" d="M518.56,-438.01C522.25,-436.95 525.91,-435.94 529.5,-435 599.4,-416.73 680.38,-401.27 737.76,-391.25"/>
<polygon fill="midnightblue" stroke="midnightblue" points="517.37,-434.71 508.77,-440.91 519.36,-441.42 517.37,-434.71"/>
</g>
<!-- Node18&#45;&gt;Node3 -->
<g id="edge26" class="edge">
<title>Node18&#45;&gt;Node3</title>
<path fill="none" stroke="midnightblue" d="M566.58,-863.15C440.45,-845.98 207.5,-804.17 207.5,-729.5 207.5,-729.5 207.5,-729.5 207.5,-638.5 207.5,-494.59 262.1,-454.98 367.5,-357 383.45,-342.17 404.45,-329.55 421.46,-320.63"/>
<polygon fill="midnightblue" stroke="midnightblue" points="566.2,-866.63 576.58,-864.49 567.13,-859.69 566.2,-866.63"/>
</g>
<!-- Node18&#45;&gt;Node4 -->
<g id="edge31" class="edge">
<title>Node18&#45;&gt;Node4</title>
<path fill="none" stroke="midnightblue" d="M566.71,-870.31C456.17,-866.12 261.61,-854.27 199.5,-822 150.75,-796.67 117.5,-784.44 117.5,-729.5 117.5,-729.5 117.5,-729.5 117.5,-377 117.5,-332.85 110.81,-281.39 106.68,-253.83"/>
<polygon fill="midnightblue" stroke="midnightblue" points="566.69,-873.82 576.81,-870.68 566.95,-866.82 566.69,-873.82"/>
</g>
<!-- Node18&#45;&gt;Node7 -->
<g id="edge39" class="edge">
<title>Node18&#45;&gt;Node7</title>
<path fill="none" stroke="midnightblue" d="M724.4,-862.06C846.05,-843.72 1065.5,-800.77 1065.5,-729.5 1065.5,-729.5 1065.5,-729.5 1065.5,-154 1065.5,-53.32 721.44,-26.02 571.25,-18.9"/>
<polygon fill="midnightblue" stroke="midnightblue" points="723.76,-858.62 714.38,-863.55 724.79,-865.54 723.76,-858.62"/>
</g>
<!-- Node18&#45;&gt;Node11 -->
<g id="edge32" class="edge">
<title>Node18&#45;&gt;Node11</title>
<path fill="none" stroke="midnightblue" d="M566.69,-867.67C471.84,-860.87 318.9,-846.49 267.5,-822 213.43,-796.24 169.5,-789.39 169.5,-729.5 169.5,-729.5 169.5,-729.5 169.5,-377 169.5,-318.61 229.83,-276.34 273.19,-253.51"/>
<polygon fill="midnightblue" stroke="midnightblue" points="566.6,-871.17 576.82,-868.38 567.09,-864.19 566.6,-871.17"/>
</g>
<!-- Node18&#45;&gt;Node13 -->
<g id="edge27" class="edge">
<title>Node18&#45;&gt;Node13</title>
<path fill="none" stroke="midnightblue" d="M723.66,-855.47C741.79,-848.01 759.32,-837.31 771.5,-822 834.21,-743.14 821.86,-609.39 815.76,-565.74"/>
<polygon fill="midnightblue" stroke="midnightblue" points="722.25,-852.26 714.14,-859.08 724.74,-858.8 722.25,-852.26"/>
</g>
<!-- Node18&#45;&gt;Node14 -->
<g id="edge28" class="edge">
<title>Node18&#45;&gt;Node14</title>
<path fill="none" stroke="midnightblue" d="M723.9,-859.06C748.85,-851.58 774.99,-839.97 794.5,-822 827.85,-791.27 848.19,-628.43 857.5,-613 870.02,-592.23 888.5,-599.09 898.5,-577 927.87,-512.13 866.27,-434.49 832.56,-398.76"/>
<polygon fill="midnightblue" stroke="midnightblue" points="722.73,-855.75 714.05,-861.82 724.63,-862.49 722.73,-855.75"/>
</g>
<!-- Node19 -->
<g id="node19" class="node">
<title>Node19</title>
<g id="a_node19"><a xlink:href="path__converter_8h.html" target="_top" xlink:title=" ">
<polygon fill="white" stroke="black" points="235.5,-713.5 235.5,-743.5 377.5,-743.5 377.5,-713.5 235.5,-713.5"/>
<text text-anchor="start" x="243.5" y="-731.5" font-family="Helvetica,sans-Serif" font-size="10.00">include/network_butcher</text>
<text text-anchor="middle" x="306.5" y="-720.5" font-family="Helvetica,sans-Serif" font-size="10.00">/Butcher/path_converter.h</text>
</a>
</g>
</g>
<!-- Node18&#45;&gt;Node19 -->
<g id="edge29" class="edge">
<title>Node18&#45;&gt;Node19</title>
<path fill="none" stroke="midnightblue" d="M602.46,-854.34C534.11,-825.51 402.15,-769.85 340.18,-743.71"/>
<polygon fill="midnightblue" stroke="midnightblue" points="601.49,-857.74 612.07,-858.4 604.21,-851.29 601.49,-857.74"/>
</g>
<!-- Node20 -->
<g id="node20" class="node">
<title>Node20</title>
<g id="a_node20"><a xlink:href="weight__importer_8h.html" target="_top" xlink:title=" ">
<polygon fill="white" stroke="black" points="525,-702.5 525,-754.5 668,-754.5 668,-702.5 525,-702.5"/>
<text text-anchor="start" x="533" y="-742.5" font-family="Helvetica,sans-Serif" font-size="10.00">include/network_butcher</text>
<text text-anchor="start" x="533" y="-731.5" font-family="Helvetica,sans-Serif" font-size="10.00">/IO_Interaction/Weight</text>
<text text-anchor="start" x="533" y="-720.5" font-family="Helvetica,sans-Serif" font-size="10.00">_Importer_Helpers/weight</text>
<text text-anchor="middle" x="596.5" y="-709.5" font-family="Helvetica,sans-Serif" font-size="10.00">_importer.h</text>
</a>
</g>
</g>
<!-- Node18&#45;&gt;Node20 -->
<g id="edge33" class="edge">
<title>Node18&#45;&gt;Node20</title>
<path fill="none" stroke="midnightblue" d="M630.18,-849.31C625.22,-840.97 620.09,-831.32 616.5,-822 608.07,-800.07 602.81,-773.78 599.82,-754.84"/>
<polygon fill="midnightblue" stroke="midnightblue" points="627.37,-851.42 635.61,-858.07 633.32,-847.73 627.37,-851.42"/>
</g>
<!-- Node23 -->
<g id="node23" class="node">
<title>Node23</title>
<g id="a_node23"><a xlink:href="parameters_8h.html" target="_top" xlink:title=" ">
<polygon fill="white" stroke="black" points="625,-791.5 625,-821.5 762,-821.5 762,-791.5 625,-791.5"/>
<text text-anchor="start" x="633" y="-809.5" font-family="Helvetica,sans-Serif" font-size="10.00">include/network_butcher</text>
<text text-anchor="middle" x="693.5" y="-798.5" font-family="Helvetica,sans-Serif" font-size="10.00">/Types/parameters.h</text>
</a>
</g>
</g>
<!-- Node18&#45;&gt;Node23 -->
<g id="edge40" class="edge">
<title>Node18&#45;&gt;Node23</title>
<path fill="none" stroke="midnightblue" d="M662,-850.16C669,-840.68 676.94,-829.92 683.11,-821.58"/>
<polygon fill="midnightblue" stroke="midnightblue" points="659.04,-848.27 655.92,-858.4 664.67,-852.43 659.04,-848.27"/>
</g>
<!-- Node19&#45;&gt;Node3 -->
<g id="edge30" class="edge">
<title>Node19&#45;&gt;Node3</title>
<path fill="none" stroke="midnightblue" d="M301.45,-703.41C294.36,-664.62 284.3,-586.35 303.5,-524 330.39,-436.7 405.59,-353.05 437.21,-320.64"/>
<polygon fill="midnightblue" stroke="midnightblue" points="298.02,-704.1 303.35,-713.26 304.9,-702.78 298.02,-704.1"/>
</g>
<!-- Node20&#45;&gt;Node15 -->
<g id="edge34" class="edge">
<title>Node20&#45;&gt;Node15</title>
<path fill="none" stroke="midnightblue" d="M596.5,-692.25C596.5,-658.04 596.5,-606.97 596.5,-576.67"/>
<polygon fill="midnightblue" stroke="midnightblue" points="593,-692.28 596.5,-702.28 600,-692.28 593,-692.28"/>
</g>
<!-- Node21 -->
<g id="node21" class="node">
<title>Node21</title>
<g id="a_node21"><a xlink:href="csv__weight__importer_8h.html" target="_top" xlink:title=" ">
<polygon fill="white" stroke="black" points="403.5,-613.5 403.5,-665.5 567.5,-665.5 567.5,-613.5 403.5,-613.5"/>
<text text-anchor="start" x="411.5" y="-653.5" font-family="Helvetica,sans-Serif" font-size="10.00">include/network_butcher</text>
<text text-anchor="start" x="411.5" y="-642.5" font-family="Helvetica,sans-Serif" font-size="10.00">/IO_Interaction/Weight</text>
<text text-anchor="start" x="411.5" y="-631.5" font-family="Helvetica,sans-Serif" font-size="10.00">_Importer_Helpers/csv_weight</text>
<text text-anchor="middle" x="485.5" y="-620.5" font-family="Helvetica,sans-Serif" font-size="10.00">_importer.h</text>
</a>
</g>
</g>
<!-- Node20&#45;&gt;Node21 -->
<g id="edge35" class="edge">
<title>Node20&#45;&gt;Node21</title>
<path fill="none" stroke="midnightblue" d="M556.23,-695.93C543.5,-685.96 529.61,-675.07 517.53,-665.61"/>
<polygon fill="midnightblue" stroke="midnightblue" points="554.36,-698.92 564.39,-702.34 558.68,-693.41 554.36,-698.92"/>
</g>
<!-- Node21&#45;&gt;Node15 -->
<g id="edge36" class="edge">
<title>Node21&#45;&gt;Node15</title>
<path fill="none" stroke="midnightblue" d="M525.77,-606.93C538.5,-596.96 552.39,-586.07 564.47,-576.61"/>
<polygon fill="midnightblue" stroke="midnightblue" points="523.32,-604.41 517.61,-613.34 527.64,-609.92 523.32,-604.41"/>
</g>
<!-- Node21&#45;&gt;Node16 -->
<g id="edge37" class="edge">
<title>Node21&#45;&gt;Node16</title>
<path fill="none" stroke="midnightblue" d="M479.35,-603.58C475.29,-580.88 469.76,-550.65 464.5,-524 461.73,-509.97 458.39,-494.2 455.79,-482.14"/>
<polygon fill="midnightblue" stroke="midnightblue" points="475.91,-604.22 481.11,-613.45 482.8,-602.99 475.91,-604.22"/>
</g>
<!-- Node22 -->
<g id="node22" class="node">
<title>Node22</title>
<g id="a_node22"><a xlink:href="csv__weight__importer_8cpp.html" target="_top" xlink:title=" ">
<polygon fill="white" stroke="black" points="312,-530 312,-571 455,-571 455,-530 312,-530"/>
<text text-anchor="start" x="320" y="-559" font-family="Helvetica,sans-Serif" font-size="10.00">src/IO_Interaction</text>
<text text-anchor="start" x="320" y="-548" font-family="Helvetica,sans-Serif" font-size="10.00">/Weight_Importer_Helpers</text>
<text text-anchor="middle" x="383.5" y="-537" font-family="Helvetica,sans-Serif" font-size="10.00">/csv_weight_importer.cpp</text>
</a>
</g>
</g>
<!-- Node21&#45;&gt;Node22 -->
<g id="edge38" class="edge">
<title>Node21&#45;&gt;Node22</title>
<path fill="none" stroke="midnightblue" d="M448,-606.51C434.07,-594.64 418.7,-581.53 406.46,-571.08"/>
<polygon fill="midnightblue" stroke="midnightblue" points="446.12,-609.51 456,-613.34 450.66,-604.18 446.12,-609.51"/>
</g>
<!-- Node23&#45;&gt;Node3 -->
<g id="edge41" class="edge">
<title>Node23&#45;&gt;Node3</title>
<path fill="none" stroke="midnightblue" d="M697.34,-781.21C702.07,-749.1 709.5,-690.7 709.5,-640.5 709.5,-640.5 709.5,-640.5 709.5,-460.5 709.5,-372.21 596.73,-333.35 520.3,-317.15"/>
<polygon fill="midnightblue" stroke="midnightblue" points="693.83,-781.01 695.79,-791.42 700.75,-782.06 693.83,-781.01"/>
</g>
<!-- Node23&#45;&gt;Node11 -->
<g id="edge43" class="edge">
<title>Node23&#45;&gt;Node11</title>
<path fill="none" stroke="midnightblue" d="M614.58,-789.32C583.14,-781.27 547.21,-769.99 516.5,-755 448.82,-721.97 245.5,-626.81 245.5,-551.5 245.5,-551.5 245.5,-551.5 245.5,-377 245.5,-328.77 278.3,-280.04 299.31,-253.77"/>
<polygon fill="midnightblue" stroke="midnightblue" points="614.07,-792.8 624.62,-791.82 615.76,-786.01 614.07,-792.8"/>
</g>
<!-- Node23&#45;&gt;Node13 -->
<g id="edge42" class="edge">
<title>Node23&#45;&gt;Node13</title>
<path fill="none" stroke="midnightblue" d="M708.14,-782.64C713.3,-774.13 718.95,-764.28 723.5,-755 753.36,-694.09 750.58,-674.37 779.5,-613 787.3,-596.45 797.63,-578.18 804.85,-565.89"/>
<polygon fill="midnightblue" stroke="midnightblue" points="705.09,-780.91 702.8,-791.26 711.04,-784.6 705.09,-780.91"/>
</g>
<!-- Node23&#45;&gt;Node20 -->
<g id="edge44" class="edge">
<title>Node23&#45;&gt;Node20</title>
<path fill="none" stroke="midnightblue" d="M667.37,-785.03C655.38,-775.63 641.04,-764.4 628.41,-754.5"/>
<polygon fill="midnightblue" stroke="midnightblue" points="665.22,-787.79 675.26,-791.2 669.54,-782.28 665.22,-787.79"/>
</g>
</g>
</svg>
