<?xml version="1.0" encoding="UTF-8" standalone="no"?>
<!DOCTYPE svg PUBLIC "-//W3C//DTD SVG 1.1//EN"
 "http://www.w3.org/Graphics/SVG/1.1/DTD/svg11.dtd">
<!-- Generated by graphviz version 2.43.0 (0)
 -->
<!-- Title: include/network_butcher/Network/wgraph.h Pages: 1 -->
<svg width="943pt" height="642pt"
 viewBox="0.00 0.00 943.00 642.00" xmlns="http://www.w3.org/2000/svg" xmlns:xlink="http://www.w3.org/1999/xlink">
<g id="graph0" class="graph" transform="scale(1 1) rotate(0) translate(4 638)">
<title>include/network_butcher/Network/wgraph.h</title>
<polygon fill="white" stroke="transparent" points="-4,4 -4,-638 939,-638 939,4 -4,4"/>
<!-- Node1 -->
<g id="node1" class="node">
<title>Node1</title>
<g id="a_node1"><a xlink:title=" ">
<polygon fill="#bfbfbf" stroke="black" points="118.5,-603.5 118.5,-633.5 255.5,-633.5 255.5,-603.5 118.5,-603.5"/>
<text text-anchor="start" x="126.5" y="-621.5" font-family="Helvetica,sans-Serif" font-size="10.00">include/network_butcher</text>
<text text-anchor="middle" x="187" y="-610.5" font-family="Helvetica,sans-Serif" font-size="10.00">/Network/wgraph.h</text>
</a>
</g>
</g>
<!-- Node2 -->
<g id="node2" class="node">
<title>Node2</title>
<g id="a_node2"><a xlink:href="weighted__graph_8h.html" target="_top" xlink:title=" ">
<polygon fill="white" stroke="black" points="30,-469.5 30,-499.5 180,-499.5 180,-469.5 30,-469.5"/>
<text text-anchor="start" x="38" y="-487.5" font-family="Helvetica,sans-Serif" font-size="10.00">network_butcher/K&#45;shortest</text>
<text text-anchor="middle" x="105" y="-476.5" font-family="Helvetica,sans-Serif" font-size="10.00">_path/weighted_graph.h</text>
</a>
</g>
</g>
<!-- Node1&#45;&gt;Node2 -->
<g id="edge1" class="edge">
<title>Node1&#45;&gt;Node2</title>
<path fill="none" stroke="midnightblue" d="M178.22,-603.37C164.04,-580.55 135.97,-535.36 119,-508.04"/>
<polygon fill="midnightblue" stroke="midnightblue" points="121.96,-506.17 113.71,-499.52 116.02,-509.87 121.96,-506.17"/>
</g>
<!-- Node12 -->
<g id="node12" class="node">
<title>Node12</title>
<g id="a_node12"><a xlink:href="mwgraph_8h.html" target="_top" xlink:title=" ">
<polygon fill="white" stroke="black" points="181.5,-536.5 181.5,-566.5 324.5,-566.5 324.5,-536.5 181.5,-536.5"/>
<text text-anchor="start" x="189.5" y="-554.5" font-family="Helvetica,sans-Serif" font-size="10.00">network_butcher/Network</text>
<text text-anchor="middle" x="253" y="-543.5" font-family="Helvetica,sans-Serif" font-size="10.00">/mwgraph.h</text>
</a>
</g>
</g>
<!-- Node1&#45;&gt;Node12 -->
<g id="edge12" class="edge">
<title>Node1&#45;&gt;Node12</title>
<path fill="none" stroke="midnightblue" d="M201.32,-603.4C210.14,-594.71 221.62,-583.4 231.52,-573.66"/>
<polygon fill="midnightblue" stroke="midnightblue" points="234.04,-576.09 238.71,-566.58 229.13,-571.1 234.04,-576.09"/>
</g>
<!-- Node3 -->
<g id="node3" class="node">
<title>Node3</title>
<g id="a_node3"><a xlink:href="traits_8h.html" target="_top" xlink:title=" ">
<polygon fill="white" stroke="black" points="57,-134.5 57,-164.5 185,-164.5 185,-134.5 57,-134.5"/>
<text text-anchor="start" x="65" y="-152.5" font-family="Helvetica,sans-Serif" font-size="10.00">network_butcher/Traits</text>
<text text-anchor="middle" x="121" y="-141.5" font-family="Helvetica,sans-Serif" font-size="10.00">/traits.h</text>
</a>
</g>
</g>
<!-- Node2&#45;&gt;Node3 -->
<g id="edge2" class="edge">
<title>Node2&#45;&gt;Node3</title>
<path fill="none" stroke="midnightblue" d="M89.98,-469.23C67.84,-446.55 29,-399.89 29,-351.5 29,-351.5 29,-351.5 29,-282.5 29,-236.48 67.1,-195.03 94.26,-171.32"/>
<polygon fill="midnightblue" stroke="midnightblue" points="96.56,-173.96 101.94,-164.83 92.04,-168.61 96.56,-173.96"/>
</g>
<!-- Node4 -->
<g id="node4" class="node">
<title>Node4</title>
<g id="a_node4"><a xlink:title=" ">
<polygon fill="white" stroke="#bfbfbf" points="132,-73 132,-92 164,-92 164,-73 132,-73"/>
<text text-anchor="middle" x="148" y="-80" font-family="Helvetica,sans-Serif" font-size="10.00">set</text>
</a>
</g>
</g>
<!-- Node3&#45;&gt;Node4 -->
<g id="edge3" class="edge">
<title>Node3&#45;&gt;Node4</title>
<path fill="none" stroke="midnightblue" d="M126.86,-134.4C130.86,-124.76 136.2,-111.91 140.51,-101.54"/>
<polygon fill="midnightblue" stroke="midnightblue" points="143.78,-102.77 144.39,-92.19 137.32,-100.09 143.78,-102.77"/>
</g>
<!-- Node5 -->
<g id="node5" class="node">
<title>Node5</title>
<g id="a_node5"><a xlink:title=" ">
<polygon fill="white" stroke="#bfbfbf" points="182,-73 182,-92 220,-92 220,-73 182,-73"/>
<text text-anchor="middle" x="201" y="-80" font-family="Helvetica,sans-Serif" font-size="10.00">map</text>
</a>
</g>
</g>
<!-- Node3&#45;&gt;Node5 -->
<g id="edge4" class="edge">
<title>Node3&#45;&gt;Node5</title>
<path fill="none" stroke="midnightblue" d="M138.36,-134.4C151.33,-123.86 169.03,-109.48 182.31,-98.69"/>
<polygon fill="midnightblue" stroke="midnightblue" points="184.74,-101.22 190.3,-92.19 180.33,-95.78 184.74,-101.22"/>
</g>
<!-- Node6 -->
<g id="node6" class="node">
<title>Node6</title>
<g id="a_node6"><a xlink:title=" ">
<polygon fill="white" stroke="#bfbfbf" points="0,-73 0,-92 58,-92 58,-73 0,-73"/>
<text text-anchor="middle" x="29" y="-80" font-family="Helvetica,sans-Serif" font-size="10.00">memory</text>
</a>
</g>
</g>
<!-- Node3&#45;&gt;Node6 -->
<g id="edge5" class="edge">
<title>Node3&#45;&gt;Node6</title>
<path fill="none" stroke="midnightblue" d="M101.04,-134.4C85.75,-123.6 64.75,-108.76 49.36,-97.89"/>
<polygon fill="midnightblue" stroke="midnightblue" points="51.23,-94.92 41.04,-92.01 47.19,-100.64 51.23,-94.92"/>
</g>
<!-- Node7 -->
<g id="node7" class="node">
<title>Node7</title>
<g id="a_node7"><a xlink:href="starting__traits_8h.html" target="_top" xlink:title=" ">
<polygon fill="white" stroke="black" points="297,-0.5 297,-30.5 425,-30.5 425,-0.5 297,-0.5"/>
<text text-anchor="start" x="305" y="-18.5" font-family="Helvetica,sans-Serif" font-size="10.00">network_butcher/Traits</text>
<text text-anchor="middle" x="361" y="-7.5" font-family="Helvetica,sans-Serif" font-size="10.00">/starting_traits.h</text>
</a>
</g>
</g>
<!-- Node3&#45;&gt;Node7 -->
<g id="edge6" class="edge">
<title>Node3&#45;&gt;Node7</title>
<path fill="none" stroke="midnightblue" d="M116.56,-134.29C111.94,-116.43 107.36,-85.84 123,-67 143.68,-42.11 224.86,-28.92 286.71,-22.35"/>
<polygon fill="midnightblue" stroke="midnightblue" points="287.26,-25.81 296.85,-21.31 286.55,-18.85 287.26,-25.81"/>
</g>
<!-- Node8 -->
<g id="node8" class="node">
<title>Node8</title>
<g id="a_node8"><a xlink:href="type__info_8h.html" target="_top" xlink:title=" ">
<polygon fill="white" stroke="black" points="591.5,-67.5 591.5,-97.5 720.5,-97.5 720.5,-67.5 591.5,-67.5"/>
<text text-anchor="start" x="599.5" y="-85.5" font-family="Helvetica,sans-Serif" font-size="10.00">network_butcher/Types</text>
<text text-anchor="middle" x="656" y="-74.5" font-family="Helvetica,sans-Serif" font-size="10.00">/type_info.h</text>
</a>
</g>
</g>
<!-- Node3&#45;&gt;Node8 -->
<g id="edge7" class="edge">
<title>Node3&#45;&gt;Node8</title>
<path fill="none" stroke="midnightblue" d="M185.04,-135.45C188.06,-134.94 191.06,-134.45 194,-134 330.06,-113.09 489.95,-97.62 581.49,-89.63"/>
<polygon fill="midnightblue" stroke="midnightblue" points="581.83,-93.11 591.49,-88.76 581.23,-86.14 581.83,-93.11"/>
</g>
<!-- Node11 -->
<g id="node11" class="node">
<title>Node11</title>
<g id="a_node11"><a xlink:title=" ">
<polygon fill="white" stroke="#bfbfbf" points="302.5,-67.5 302.5,-97.5 427.5,-97.5 427.5,-67.5 302.5,-67.5"/>
<text text-anchor="start" x="310.5" y="-85.5" font-family="Helvetica,sans-Serif" font-size="10.00">network_butcher/onnx</text>
<text text-anchor="middle" x="365" y="-74.5" font-family="Helvetica,sans-Serif" font-size="10.00">_proto/onnx.pb.h</text>
</a>
</g>
</g>
<!-- Node3&#45;&gt;Node11 -->
<g id="edge11" class="edge">
<title>Node3&#45;&gt;Node11</title>
<path fill="none" stroke="midnightblue" d="M173.64,-134.48C211.36,-124.43 262.31,-110.86 302.15,-100.24"/>
<polygon fill="midnightblue" stroke="midnightblue" points="303.27,-103.57 312.03,-97.61 301.47,-96.8 303.27,-103.57"/>
</g>
<!-- Node8&#45;&gt;Node7 -->
<g id="edge10" class="edge">
<title>Node8&#45;&gt;Node7</title>
<path fill="none" stroke="midnightblue" d="M592.35,-67.48C546,-57.26 483.11,-43.41 434.6,-32.72"/>
<polygon fill="midnightblue" stroke="midnightblue" points="435.31,-29.29 424.79,-30.55 433.8,-36.12 435.31,-29.29"/>
</g>
<!-- Node9 -->
<g id="node9" class="node">
<title>Node9</title>
<g id="a_node9"><a xlink:title=" ">
<polygon fill="white" stroke="#bfbfbf" points="667,-6 667,-25 711,-25 711,-6 667,-6"/>
<text text-anchor="middle" x="689" y="-13" font-family="Helvetica,sans-Serif" font-size="10.00">string</text>
</a>
</g>
</g>
<!-- Node8&#45;&gt;Node9 -->
<g id="edge8" class="edge">
<title>Node8&#45;&gt;Node9</title>
<path fill="none" stroke="midnightblue" d="M663.16,-67.4C668.1,-57.66 674.71,-44.65 680.01,-34.21"/>
<polygon fill="midnightblue" stroke="midnightblue" points="683.18,-35.7 684.59,-25.19 676.94,-32.53 683.18,-35.7"/>
</g>
<!-- Node10 -->
<g id="node10" class="node">
<title>Node10</title>
<g id="a_node10"><a xlink:title=" ">
<polygon fill="white" stroke="#bfbfbf" points="782.5,-6 782.5,-25 829.5,-25 829.5,-6 782.5,-6"/>
<text text-anchor="middle" x="806" y="-13" font-family="Helvetica,sans-Serif" font-size="10.00">vector</text>
</a>
</g>
</g>
<!-- Node8&#45;&gt;Node10 -->
<g id="edge9" class="edge">
<title>Node8&#45;&gt;Node10</title>
<path fill="none" stroke="midnightblue" d="M688.55,-67.4C714.87,-55.99 751.59,-40.08 776.93,-29.1"/>
<polygon fill="midnightblue" stroke="midnightblue" points="778.58,-32.19 786.37,-25.01 775.8,-25.77 778.58,-32.19"/>
</g>
<!-- Node13 -->
<g id="node13" class="node">
<title>Node13</title>
<g id="a_node13"><a xlink:href="graph_8h.html" target="_top" xlink:title=" ">
<polygon fill="white" stroke="black" points="223.5,-469.5 223.5,-499.5 366.5,-499.5 366.5,-469.5 223.5,-469.5"/>
<text text-anchor="start" x="231.5" y="-487.5" font-family="Helvetica,sans-Serif" font-size="10.00">network_butcher/Network</text>
<text text-anchor="middle" x="295" y="-476.5" font-family="Helvetica,sans-Serif" font-size="10.00">/graph.h</text>
</a>
</g>
</g>
<!-- Node12&#45;&gt;Node13 -->
<g id="edge13" class="edge">
<title>Node12&#45;&gt;Node13</title>
<path fill="none" stroke="midnightblue" d="M262.11,-536.4C267.45,-528.13 274.32,-517.51 280.4,-508.1"/>
<polygon fill="midnightblue" stroke="midnightblue" points="283.42,-509.88 285.9,-499.58 277.54,-506.08 283.42,-509.88"/>
</g>
<!-- Node13&#45;&gt;Node10 -->
<g id="edge17" class="edge">
<title>Node13&#45;&gt;Node10</title>
<path fill="none" stroke="midnightblue" d="M366.55,-483.67C533.56,-482.14 935,-466.51 935,-351.5 935,-351.5 935,-351.5 935,-148.5 935,-91.19 872.04,-49.53 834.09,-29.63"/>
<polygon fill="midnightblue" stroke="midnightblue" points="835.54,-26.44 825.03,-25.04 832.37,-32.68 835.54,-26.44"/>
</g>
<!-- Node14 -->
<g id="node14" class="node">
<title>Node14</title>
<g id="a_node14"><a xlink:title=" ">
<polygon fill="white" stroke="#bfbfbf" points="581,-140 581,-159 645,-159 645,-140 581,-140"/>
<text text-anchor="middle" x="613" y="-147" font-family="Helvetica,sans-Serif" font-size="10.00">algorithm</text>
</a>
</g>
</g>
<!-- Node13&#45;&gt;Node14 -->
<g id="edge14" class="edge">
<title>Node13&#45;&gt;Node14</title>
<path fill="none" stroke="midnightblue" d="M366.73,-479.12C447.61,-469.84 568,-441 568,-351.5 568,-351.5 568,-351.5 568,-282.5 568,-239.51 589.64,-192.66 602.91,-167.98"/>
<polygon fill="midnightblue" stroke="midnightblue" points="606.04,-169.56 607.84,-159.11 599.92,-166.16 606.04,-169.56"/>
</g>
<!-- Node15 -->
<g id="node15" class="node">
<title>Node15</title>
<g id="a_node15"><a xlink:title=" ">
<polygon fill="white" stroke="#bfbfbf" points="203,-140 203,-159 259,-159 259,-140 203,-140"/>
<text text-anchor="middle" x="231" y="-147" font-family="Helvetica,sans-Serif" font-size="10.00">numeric</text>
</a>
</g>
</g>
<!-- Node13&#45;&gt;Node15 -->
<g id="edge15" class="edge">
<title>Node13&#45;&gt;Node15</title>
<path fill="none" stroke="midnightblue" d="M271.82,-469.41C230.45,-442.54 146.18,-379.41 124,-299 108.27,-241.96 172.04,-189.32 207.98,-164.87"/>
<polygon fill="midnightblue" stroke="midnightblue" points="210.03,-167.71 216.45,-159.28 206.17,-161.87 210.03,-167.71"/>
</g>
<!-- Node16 -->
<g id="node16" class="node">
<title>Node16</title>
<g id="a_node16"><a xlink:title=" ">
<polygon fill="white" stroke="#bfbfbf" points="133.5,-274 133.5,-293 178.5,-293 178.5,-274 133.5,-274"/>
<text text-anchor="middle" x="156" y="-281" font-family="Helvetica,sans-Serif" font-size="10.00">utility</text>
</a>
</g>
</g>
<!-- Node13&#45;&gt;Node16 -->
<g id="edge16" class="edge">
<title>Node13&#45;&gt;Node16</title>
<path fill="none" stroke="midnightblue" d="M270.41,-469.49C239.61,-450.45 187.95,-413.29 164,-366 154.08,-346.42 153.22,-320.82 154.09,-303.58"/>
<polygon fill="midnightblue" stroke="midnightblue" points="157.62,-303.39 154.89,-293.15 150.64,-302.86 157.62,-303.39"/>
</g>
<!-- Node17 -->
<g id="node17" class="node">
<title>Node17</title>
<g id="a_node17"><a xlink:href="content_8h.html" target="_top" xlink:title=" ">
<polygon fill="white" stroke="black" points="669.5,-335.5 669.5,-365.5 798.5,-365.5 798.5,-335.5 669.5,-335.5"/>
<text text-anchor="start" x="677.5" y="-353.5" font-family="Helvetica,sans-Serif" font-size="10.00">network_butcher/Types</text>
<text text-anchor="middle" x="734" y="-342.5" font-family="Helvetica,sans-Serif" font-size="10.00">/content.h</text>
</a>
</g>
</g>
<!-- Node13&#45;&gt;Node17 -->
<g id="edge18" class="edge">
<title>Node13&#45;&gt;Node17</title>
<path fill="none" stroke="midnightblue" d="M366.76,-477.26C425.8,-470.63 511,-457.57 582,-433 626.88,-417.47 674.49,-389.9 704.22,-371.17"/>
<polygon fill="midnightblue" stroke="midnightblue" points="706.3,-374 712.85,-365.67 702.54,-368.09 706.3,-374"/>
</g>
<!-- Node25 -->
<g id="node25" class="node">
<title>Node25</title>
<g id="a_node25"><a xlink:href="node_8h.html" target="_top" xlink:title=" ">
<polygon fill="white" stroke="black" points="173.5,-335.5 173.5,-365.5 316.5,-365.5 316.5,-335.5 173.5,-335.5"/>
<text text-anchor="start" x="181.5" y="-353.5" font-family="Helvetica,sans-Serif" font-size="10.00">network_butcher/Network</text>
<text text-anchor="middle" x="245" y="-342.5" font-family="Helvetica,sans-Serif" font-size="10.00">/node.h</text>
</a>
</g>
</g>
<!-- Node13&#45;&gt;Node25 -->
<g id="edge37" class="edge">
<title>Node13&#45;&gt;Node25</title>
<path fill="none" stroke="midnightblue" d="M284.46,-469.14C277.73,-459.39 269.32,-445.94 264,-433 256.39,-414.48 251.47,-392.28 248.54,-375.73"/>
<polygon fill="midnightblue" stroke="midnightblue" points="251.98,-375.07 246.9,-365.77 245.08,-376.2 251.98,-375.07"/>
</g>
<!-- Node26 -->
<g id="node26" class="node">
<title>Node26</title>
<g id="a_node26"><a xlink:href="node__traits_8h.html" target="_top" xlink:title=" ">
<polygon fill="white" stroke="black" points="273.5,-402.5 273.5,-432.5 416.5,-432.5 416.5,-402.5 273.5,-402.5"/>
<text text-anchor="start" x="281.5" y="-420.5" font-family="Helvetica,sans-Serif" font-size="10.00">network_butcher/Network</text>
<text text-anchor="middle" x="345" y="-409.5" font-family="Helvetica,sans-Serif" font-size="10.00">/node_traits.h</text>
</a>
</g>
</g>
<!-- Node13&#45;&gt;Node26 -->
<g id="edge42" class="edge">
<title>Node13&#45;&gt;Node26</title>
<path fill="none" stroke="midnightblue" d="M305.85,-469.4C312.34,-460.96 320.72,-450.07 328.06,-440.52"/>
<polygon fill="midnightblue" stroke="midnightblue" points="330.85,-442.64 334.17,-432.58 325.3,-438.37 330.85,-442.64"/>
</g>
<!-- Node18 -->
<g id="node18" class="node">
<title>Node18</title>
<g id="a_node18"><a xlink:href="dense__tensor_8h.html" target="_top" xlink:title=" ">
<polygon fill="white" stroke="black" points="669.5,-268.5 669.5,-298.5 798.5,-298.5 798.5,-268.5 669.5,-268.5"/>
<text text-anchor="start" x="677.5" y="-286.5" font-family="Helvetica,sans-Serif" font-size="10.00">network_butcher/Types</text>
<text text-anchor="middle" x="734" y="-275.5" font-family="Helvetica,sans-Serif" font-size="10.00">/dense_tensor.h</text>
</a>
</g>
</g>
<!-- Node17&#45;&gt;Node18 -->
<g id="edge19" class="edge">
<title>Node17&#45;&gt;Node18</title>
<path fill="none" stroke="midnightblue" d="M734,-335.4C734,-327.64 734,-317.81 734,-308.86"/>
<polygon fill="midnightblue" stroke="midnightblue" points="737.5,-308.58 734,-298.58 730.5,-308.58 737.5,-308.58"/>
</g>
<!-- Node19 -->
<g id="node19" class="node">
<title>Node19</title>
<g id="a_node19"><a xlink:href="variant__attribute_8h.html" target="_top" xlink:title=" ">
<polygon fill="white" stroke="black" points="777.5,-201.5 777.5,-231.5 906.5,-231.5 906.5,-201.5 777.5,-201.5"/>
<text text-anchor="start" x="785.5" y="-219.5" font-family="Helvetica,sans-Serif" font-size="10.00">network_butcher/Types</text>
<text text-anchor="middle" x="842" y="-208.5" font-family="Helvetica,sans-Serif" font-size="10.00">/variant_attribute.h</text>
</a>
</g>
</g>
<!-- Node17&#45;&gt;Node19 -->
<g id="edge36" class="edge">
<title>Node17&#45;&gt;Node19</title>
<path fill="none" stroke="midnightblue" d="M762.29,-335.41C777.5,-326.67 795.62,-314.19 808,-299 821.71,-282.17 830.66,-259.02 835.91,-241.69"/>
<polygon fill="midnightblue" stroke="midnightblue" points="839.37,-242.34 838.72,-231.77 832.63,-240.44 839.37,-242.34"/>
</g>
<!-- Node18&#45;&gt;Node8 -->
<g id="edge20" class="edge">
<title>Node18&#45;&gt;Node8</title>
<path fill="none" stroke="midnightblue" d="M730.7,-268.15C724.22,-241.14 708.57,-181.23 687,-134 682.67,-124.52 676.91,-114.63 671.53,-106.14"/>
<polygon fill="midnightblue" stroke="midnightblue" points="674.33,-104.02 665.93,-97.57 668.47,-107.85 674.33,-104.02"/>
</g>
<!-- Node18&#45;&gt;Node10 -->
<g id="edge35" class="edge">
<title>Node18&#45;&gt;Node10</title>
<path fill="none" stroke="midnightblue" d="M737.87,-268.2C750.04,-223.25 787.49,-84.87 801.04,-34.81"/>
<polygon fill="midnightblue" stroke="midnightblue" points="804.45,-35.62 803.69,-25.05 797.69,-33.79 804.45,-35.62"/>
</g>
<!-- Node18&#45;&gt;Node19 -->
<g id="edge21" class="edge">
<title>Node18&#45;&gt;Node19</title>
<path fill="none" stroke="midnightblue" d="M757.43,-268.4C772.72,-259.2 792.88,-247.07 809.68,-236.95"/>
<polygon fill="midnightblue" stroke="midnightblue" points="811.85,-239.73 818.61,-231.58 808.24,-233.73 811.85,-239.73"/>
</g>
<!-- Node21 -->
<g id="node21" class="node">
<title>Node21</title>
<g id="a_node21"><a xlink:href="utilities_8h.html" target="_top" xlink:title=" ">
<polygon fill="white" stroke="black" points="386.5,-207 386.5,-226 533.5,-226 533.5,-207 386.5,-207"/>
<text text-anchor="middle" x="460" y="-214" font-family="Helvetica,sans-Serif" font-size="10.00">network_butcher/utilities.h</text>
</a>
</g>
</g>
<!-- Node18&#45;&gt;Node21 -->
<g id="edge25" class="edge">
<title>Node18&#45;&gt;Node21</title>
<path fill="none" stroke="midnightblue" d="M669.22,-268.48C617.13,-256.5 545.65,-239.5 501.11,-228.49"/>
<polygon fill="midnightblue" stroke="midnightblue" points="501.76,-225.04 491.21,-226.03 500.07,-231.84 501.76,-225.04"/>
</g>
<!-- Node19&#45;&gt;Node9 -->
<g id="edge22" class="edge">
<title>Node19&#45;&gt;Node9</title>
<path fill="none" stroke="midnightblue" d="M831.66,-201.45C812.11,-174.94 768.21,-115.82 730,-67 720.96,-55.44 710.53,-42.61 702.46,-32.77"/>
<polygon fill="midnightblue" stroke="midnightblue" points="705.12,-30.5 696.06,-25 699.71,-34.95 705.12,-30.5"/>
</g>
<!-- Node19&#45;&gt;Node10 -->
<g id="edge24" class="edge">
<title>Node19&#45;&gt;Node10</title>
<path fill="none" stroke="midnightblue" d="M839.41,-201.19C833.03,-165.91 816.54,-74.78 809.39,-35.25"/>
<polygon fill="midnightblue" stroke="midnightblue" points="812.83,-34.58 807.6,-25.36 805.94,-35.82 812.83,-34.58"/>
</g>
<!-- Node20 -->
<g id="node20" class="node">
<title>Node20</title>
<g id="a_node20"><a xlink:title=" ">
<polygon fill="white" stroke="#bfbfbf" points="853.5,-140 853.5,-159 904.5,-159 904.5,-140 853.5,-140"/>
<text text-anchor="middle" x="879" y="-147" font-family="Helvetica,sans-Serif" font-size="10.00">variant</text>
</a>
</g>
</g>
<!-- Node19&#45;&gt;Node20 -->
<g id="edge23" class="edge">
<title>Node19&#45;&gt;Node20</title>
<path fill="none" stroke="midnightblue" d="M850.03,-201.4C855.63,-191.56 863.13,-178.38 869.1,-167.89"/>
<polygon fill="midnightblue" stroke="midnightblue" points="872.15,-169.62 874.05,-159.19 866.06,-166.15 872.15,-169.62"/>
</g>
<!-- Node21&#45;&gt;Node3 -->
<g id="edge32" class="edge">
<title>Node21&#45;&gt;Node3</title>
<path fill="none" stroke="midnightblue" d="M414.32,-206.95C363.33,-197.38 278.09,-181.3 194.95,-165.18"/>
<polygon fill="midnightblue" stroke="midnightblue" points="195.57,-161.73 185.09,-163.26 194.24,-168.6 195.57,-161.73"/>
</g>
<!-- Node21&#45;&gt;Node8 -->
<g id="edge34" class="edge">
<title>Node21&#45;&gt;Node8</title>
<path fill="none" stroke="midnightblue" d="M473.34,-206.89C488.34,-197.1 513.31,-180.45 534,-165 551.46,-151.96 554.17,-146.54 572,-134 587.83,-122.87 606.16,-111.67 621.66,-102.65"/>
<polygon fill="midnightblue" stroke="midnightblue" points="623.49,-105.63 630.41,-97.61 620,-99.57 623.49,-105.63"/>
</g>
<!-- Node21&#45;&gt;Node11 -->
<g id="edge31" class="edge">
<title>Node21&#45;&gt;Node11</title>
<path fill="none" stroke="midnightblue" d="M455.23,-206.61C446.85,-191.26 428.61,-159.05 410,-134 402.6,-124.04 393.64,-113.7 385.67,-104.99"/>
<polygon fill="midnightblue" stroke="midnightblue" points="388.08,-102.44 378.71,-97.51 382.96,-107.21 388.08,-102.44"/>
</g>
<!-- Node21&#45;&gt;Node14 -->
<g id="edge26" class="edge">
<title>Node21&#45;&gt;Node14</title>
<path fill="none" stroke="midnightblue" d="M480.32,-206.87C506.72,-195.65 553.03,-175.98 583.36,-163.09"/>
<polygon fill="midnightblue" stroke="midnightblue" points="584.76,-166.3 592.6,-159.17 582.03,-159.86 584.76,-166.3"/>
</g>
<!-- Node21&#45;&gt;Node15 -->
<g id="edge27" class="edge">
<title>Node21&#45;&gt;Node15</title>
<path fill="none" stroke="midnightblue" d="M423.05,-206.96C384.33,-197.73 321.89,-182.03 269,-165 266.59,-164.22 264.11,-163.38 261.62,-162.5"/>
<polygon fill="midnightblue" stroke="midnightblue" points="262.76,-159.19 252.16,-159.03 260.34,-165.76 262.76,-159.19"/>
</g>
<!-- Node21&#45;&gt;Node18 -->
<g id="edge33" class="edge">
<title>Node21&#45;&gt;Node18</title>
<path fill="none" stroke="midnightblue" d="M500.69,-226.03C545.62,-236.17 618.34,-253.32 670.69,-266.07"/>
<polygon fill="midnightblue" stroke="midnightblue" points="670.01,-269.5 680.55,-268.48 671.67,-262.7 670.01,-269.5"/>
</g>
<!-- Node22 -->
<g id="node22" class="node">
<title>Node22</title>
<g id="a_node22"><a xlink:title=" ">
<polygon fill="white" stroke="#bfbfbf" points="457,-140 457,-159 525,-159 525,-140 457,-140"/>
<text text-anchor="middle" x="491" y="-147" font-family="Helvetica,sans-Serif" font-size="10.00">filesystem</text>
</a>
</g>
</g>
<!-- Node21&#45;&gt;Node22 -->
<g id="edge28" class="edge">
<title>Node21&#45;&gt;Node22</title>
<path fill="none" stroke="midnightblue" d="M464.18,-206.73C468.88,-196.89 476.62,-180.66 482.58,-168.16"/>
<polygon fill="midnightblue" stroke="midnightblue" points="485.74,-169.66 486.89,-159.13 479.42,-166.65 485.74,-169.66"/>
</g>
<!-- Node23 -->
<g id="node23" class="node">
<title>Node23</title>
<g id="a_node23"><a xlink:title=" ">
<polygon fill="white" stroke="#bfbfbf" points="277.5,-140 277.5,-159 332.5,-159 332.5,-140 277.5,-140"/>
<text text-anchor="middle" x="305" y="-147" font-family="Helvetica,sans-Serif" font-size="10.00">fstream</text>
</a>
</g>
</g>
<!-- Node21&#45;&gt;Node23 -->
<g id="edge29" class="edge">
<title>Node21&#45;&gt;Node23</title>
<path fill="none" stroke="midnightblue" d="M439.42,-206.87C412.67,-195.65 365.75,-175.98 335.03,-163.09"/>
<polygon fill="midnightblue" stroke="midnightblue" points="336.24,-159.81 325.67,-159.17 333.54,-166.26 336.24,-159.81"/>
</g>
<!-- Node24 -->
<g id="node24" class="node">
<title>Node24</title>
<g id="a_node24"><a xlink:title=" ">
<polygon fill="white" stroke="#bfbfbf" points="351,-140 351,-159 401,-159 401,-140 351,-140"/>
<text text-anchor="middle" x="376" y="-147" font-family="Helvetica,sans-Serif" font-size="10.00">ranges</text>
</a>
</g>
</g>
<!-- Node21&#45;&gt;Node24 -->
<g id="edge30" class="edge">
<title>Node21&#45;&gt;Node24</title>
<path fill="none" stroke="midnightblue" d="M448.67,-206.73C434.94,-196.11 411.6,-178.05 395.08,-165.26"/>
<polygon fill="midnightblue" stroke="midnightblue" points="397.2,-162.48 387.15,-159.13 392.92,-168.02 397.2,-162.48"/>
</g>
<!-- Node25&#45;&gt;Node3 -->
<g id="edge39" class="edge">
<title>Node25&#45;&gt;Node3</title>
<path fill="none" stroke="midnightblue" d="M242.68,-335.26C239.52,-318.42 232.86,-289.93 221,-268 200.6,-230.27 166.6,-193.77 143.99,-171.72"/>
<polygon fill="midnightblue" stroke="midnightblue" points="146.15,-168.94 136.51,-164.55 141.3,-174 146.15,-168.94"/>
</g>
<!-- Node25&#45;&gt;Node6 -->
<g id="edge40" class="edge">
<title>Node25&#45;&gt;Node6</title>
<path fill="none" stroke="midnightblue" d="M236.76,-335.22C226.47,-318.1 207.67,-289.08 187,-268 133.16,-213.11 90.21,-229.27 48,-165 35.5,-145.97 31.19,-119.71 29.72,-102.19"/>
<polygon fill="midnightblue" stroke="midnightblue" points="33.21,-101.88 29.11,-92.11 26.22,-102.3 33.21,-101.88"/>
</g>
<!-- Node25&#45;&gt;Node16 -->
<g id="edge41" class="edge">
<title>Node25&#45;&gt;Node16</title>
<path fill="none" stroke="midnightblue" d="M225.69,-335.4C211.04,-324.7 190.96,-310.03 176.12,-299.19"/>
<polygon fill="midnightblue" stroke="midnightblue" points="177.79,-296.08 167.65,-293.01 173.66,-301.73 177.79,-296.08"/>
</g>
<!-- Node25&#45;&gt;Node18 -->
<g id="edge38" class="edge">
<title>Node25&#45;&gt;Node18</title>
<path fill="none" stroke="midnightblue" d="M316.63,-339.98C408.17,-327.81 565.9,-306.85 659.02,-294.47"/>
<polygon fill="midnightblue" stroke="midnightblue" points="659.76,-297.9 669.21,-293.11 658.84,-290.96 659.76,-297.9"/>
</g>
<!-- Node26&#45;&gt;Node6 -->
<g id="edge43" class="edge">
<title>Node26&#45;&gt;Node6</title>
<path fill="none" stroke="midnightblue" d="M273.23,-408.52C237.71,-401.74 195.74,-389.19 164,-366 77.7,-302.96 64.49,-266.82 32,-165 25.42,-144.4 25.63,-119.36 26.86,-102.52"/>
<polygon fill="midnightblue" stroke="midnightblue" points="30.37,-102.61 27.81,-92.33 23.4,-101.96 30.37,-102.61"/>
</g>
<!-- Node26&#45;&gt;Node8 -->
<g id="edge46" class="edge">
<title>Node26&#45;&gt;Node8</title>
<path fill="none" stroke="midnightblue" d="M377.5,-402.5C444.85,-371.42 598,-289.41 654,-165 662.05,-147.11 661.97,-124.69 660.2,-107.9"/>
<polygon fill="midnightblue" stroke="midnightblue" points="663.65,-107.24 658.87,-97.78 656.71,-108.16 663.65,-107.24"/>
</g>
<!-- Node26&#45;&gt;Node17 -->
<g id="edge44" class="edge">
<title>Node26&#45;&gt;Node17</title>
<path fill="none" stroke="midnightblue" d="M416.79,-405.22C479.67,-395.25 573.47,-380.12 655,-366 656.46,-365.75 657.93,-365.49 659.42,-365.23"/>
<polygon fill="midnightblue" stroke="midnightblue" points="660.11,-368.66 669.35,-363.48 658.89,-361.77 660.11,-368.66"/>
</g>
<!-- Node26&#45;&gt;Node25 -->
<g id="edge45" class="edge">
<title>Node26&#45;&gt;Node25</title>
<path fill="none" stroke="midnightblue" d="M323.3,-402.4C309.28,-393.28 290.83,-381.29 275.36,-371.24"/>
<polygon fill="midnightblue" stroke="midnightblue" points="276.95,-368.09 266.66,-365.58 273.13,-373.96 276.95,-368.09"/>
</g>
</g>
</svg>
