<?xml version="1.0" encoding="UTF-8" standalone="no"?>
<!DOCTYPE svg PUBLIC "-//W3C//DTD SVG 1.1//EN"
 "http://www.w3.org/Graphics/SVG/1.1/DTD/svg11.dtd">
<!-- Generated by graphviz version 2.43.0 (0)
 -->
<!-- Title: include/Network/wgraph.h Pages: 1 -->
<svg width="983pt" height="876pt"
 viewBox="0.00 0.00 983.00 876.00" xmlns="http://www.w3.org/2000/svg" xmlns:xlink="http://www.w3.org/1999/xlink">
<g id="graph0" class="graph" transform="scale(1 1) rotate(0) translate(4 872)">
<title>include/Network/wgraph.h</title>
<polygon fill="white" stroke="transparent" points="-4,4 -4,-872 979,-872 979,4 -4,4"/>
<!-- Node1 -->
<g id="node1" class="node">
<title>Node1</title>
<g id="a_node1"><a xlink:title=" ">
<polygon fill="#bfbfbf" stroke="black" points="500,-848.5 500,-867.5 644,-867.5 644,-848.5 500,-848.5"/>
<text text-anchor="middle" x="572" y="-855.5" font-family="Helvetica,sans-Serif" font-size="10.00">include/Network/wgraph.h</text>
</a>
</g>
</g>
<!-- Node2 -->
<g id="node2" class="node">
<title>Node2</title>
<g id="a_node2"><a xlink:href="computer__memory_8h.html" target="_top" xlink:title=" ">
<polygon fill="white" stroke="black" points="668,-575 668,-605 820,-605 820,-575 668,-575"/>
<text text-anchor="start" x="676" y="-593" font-family="Helvetica,sans-Serif" font-size="10.00">include/Computer/computer</text>
<text text-anchor="middle" x="744" y="-582" font-family="Helvetica,sans-Serif" font-size="10.00">_memory.h</text>
</a>
</g>
</g>
<!-- Node1&#45;&gt;Node2 -->
<g id="edge1" class="edge">
<title>Node1&#45;&gt;Node2</title>
<path fill="none" stroke="midnightblue" d="M583.05,-839.92C614.77,-790.85 705.75,-650.16 734.9,-605.08"/>
<polygon fill="midnightblue" stroke="midnightblue" points="580.02,-838.15 577.53,-848.45 585.9,-841.95 580.02,-838.15"/>
</g>
<!-- Node19 -->
<g id="node19" class="node">
<title>Node19</title>
<g id="a_node19"><a xlink:href="graph__traits_8h.html" target="_top" xlink:title=" ">
<polygon fill="white" stroke="black" points="186.5,-781.5 186.5,-811.5 313.5,-811.5 313.5,-781.5 186.5,-781.5"/>
<text text-anchor="start" x="194.5" y="-799.5" font-family="Helvetica,sans-Serif" font-size="10.00">include/Network/graph</text>
<text text-anchor="middle" x="250" y="-788.5" font-family="Helvetica,sans-Serif" font-size="10.00">_traits.h</text>
</a>
</g>
</g>
<!-- Node1&#45;&gt;Node19 -->
<g id="edge25" class="edge">
<title>Node1&#45;&gt;Node19</title>
<path fill="none" stroke="midnightblue" d="M515.69,-846.59C459.22,-836.16 372.41,-820.12 313.52,-809.24"/>
<polygon fill="midnightblue" stroke="midnightblue" points="515.4,-850.1 525.87,-848.48 516.67,-843.22 515.4,-850.1"/>
</g>
<!-- Node3 -->
<g id="node3" class="node">
<title>Node3</title>
<g id="a_node3"><a xlink:href="butcher_8h.html" target="_top" xlink:title=" ">
<polygon fill="white" stroke="black" points="311,-268.5 311,-287.5 451,-287.5 451,-268.5 311,-268.5"/>
<text text-anchor="middle" x="381" y="-275.5" font-family="Helvetica,sans-Serif" font-size="10.00">include/Butcher/butcher.h</text>
</a>
</g>
</g>
<!-- Node2&#45;&gt;Node3 -->
<g id="edge2" class="edge">
<title>Node2&#45;&gt;Node3</title>
<path fill="none" stroke="midnightblue" d="M753.82,-565.29C768.73,-525.07 791.52,-442.83 753,-391 715.03,-339.91 530.82,-303.27 436.67,-287.55"/>
<polygon fill="midnightblue" stroke="midnightblue" points="750.49,-564.19 750.15,-574.78 757.02,-566.72 750.49,-564.19"/>
</g>
<!-- Node9 -->
<g id="node9" class="node">
<title>Node9</title>
<g id="a_node9"><a xlink:href="network__butcher_8h.html" target="_top" xlink:title=" ">
<polygon fill="white" stroke="black" points="450.5,-56.5 450.5,-75.5 595.5,-75.5 595.5,-56.5 450.5,-56.5"/>
<text text-anchor="middle" x="523" y="-63.5" font-family="Helvetica,sans-Serif" font-size="10.00">include/network_butcher.h</text>
</a>
</g>
</g>
<!-- Node2&#45;&gt;Node9 -->
<g id="edge24" class="edge">
<title>Node2&#45;&gt;Node9</title>
<path fill="none" stroke="midnightblue" d="M763.62,-566.73C770.89,-557.05 778.26,-545.16 782,-533 788.94,-510.41 778.1,-396.48 776,-391 719.94,-244.34 573.38,-110.47 533.28,-75.72"/>
<polygon fill="midnightblue" stroke="midnightblue" points="760.84,-564.6 757.36,-574.61 766.32,-568.96 760.84,-564.6"/>
</g>
<!-- Node14 -->
<g id="node14" class="node">
<title>Node14</title>
<g id="a_node14"><a xlink:href="graph__constraint_8h.html" target="_top" xlink:title=" ">
<polygon fill="white" stroke="black" points="259.5,-491.5 259.5,-521.5 382.5,-521.5 382.5,-491.5 259.5,-491.5"/>
<text text-anchor="start" x="267.5" y="-509.5" font-family="Helvetica,sans-Serif" font-size="10.00">include/Butcher/graph</text>
<text text-anchor="middle" x="321" y="-498.5" font-family="Helvetica,sans-Serif" font-size="10.00">_constraint.h</text>
</a>
</g>
</g>
<!-- Node2&#45;&gt;Node14 -->
<g id="edge15" class="edge">
<title>Node2&#45;&gt;Node14</title>
<path fill="none" stroke="midnightblue" d="M658,-574.82C594.99,-564.14 507.48,-548.7 431,-533 414.1,-529.53 395.82,-525.43 379.11,-521.55"/>
<polygon fill="midnightblue" stroke="midnightblue" points="657.45,-578.28 667.9,-576.5 658.62,-571.38 657.45,-578.28"/>
</g>
<!-- Node16 -->
<g id="node16" class="node">
<title>Node16</title>
<g id="a_node16"><a xlink:href="block__aMLLibrary__weight__importer_8h.html" target="_top" xlink:title=" ">
<polygon fill="white" stroke="black" points="600.5,-480.5 600.5,-532.5 743.5,-532.5 743.5,-480.5 600.5,-480.5"/>
<text text-anchor="start" x="608.5" y="-520.5" font-family="Helvetica,sans-Serif" font-size="10.00">include/IO_Interaction</text>
<text text-anchor="start" x="608.5" y="-509.5" font-family="Helvetica,sans-Serif" font-size="10.00">/Weight_Importer_Helpers</text>
<text text-anchor="start" x="608.5" y="-498.5" font-family="Helvetica,sans-Serif" font-size="10.00">/block_aMLLibrary_weight</text>
<text text-anchor="middle" x="672" y="-487.5" font-family="Helvetica,sans-Serif" font-size="10.00">_importer.h</text>
</a>
</g>
</g>
<!-- Node2&#45;&gt;Node16 -->
<g id="edge18" class="edge">
<title>Node2&#45;&gt;Node16</title>
<path fill="none" stroke="midnightblue" d="M724.73,-567.18C715.35,-556.57 704.03,-543.75 694.28,-532.72"/>
<polygon fill="midnightblue" stroke="midnightblue" points="722.21,-569.63 731.46,-574.8 727.46,-564.99 722.21,-569.63"/>
</g>
<!-- Node4 -->
<g id="node4" class="node">
<title>Node4</title>
<g id="a_node4"><a xlink:href="onnx__importer__helpers_8h.html" target="_top" xlink:title=" ">
<polygon fill="white" stroke="black" points="777.5,-196 777.5,-226 918.5,-226 918.5,-196 777.5,-196"/>
<text text-anchor="start" x="785.5" y="-214" font-family="Helvetica,sans-Serif" font-size="10.00">include/IO_Interaction</text>
<text text-anchor="middle" x="848" y="-203" font-family="Helvetica,sans-Serif" font-size="10.00">/onnx_importer_helpers.h</text>
</a>
</g>
</g>
<!-- Node3&#45;&gt;Node4 -->
<g id="edge3" class="edge">
<title>Node3&#45;&gt;Node4</title>
<path fill="none" stroke="midnightblue" d="M452.44,-267.06C540.53,-254.8 689.35,-234.08 777.16,-221.86"/>
<polygon fill="midnightblue" stroke="midnightblue" points="451.95,-263.59 442.53,-268.44 452.92,-270.52 451.95,-263.59"/>
</g>
<!-- Node3&#45;&gt;Node9 -->
<g id="edge14" class="edge">
<title>Node3&#45;&gt;Node9</title>
<path fill="none" stroke="midnightblue" d="M417.25,-264.61C433.77,-257.37 452.4,-246.7 465,-232 506.89,-183.12 519.17,-102.04 522.16,-75.62"/>
<polygon fill="midnightblue" stroke="midnightblue" points="415.74,-261.45 407.83,-268.49 418.41,-267.92 415.74,-261.45"/>
</g>
<!-- Node12 -->
<g id="node12" class="node">
<title>Node12</title>
<g id="a_node12"><a xlink:href="onnx__model__reconstructor__helpers_8h.html" target="_top" xlink:title=" ">
<polygon fill="white" stroke="black" points="306.5,-190.5 306.5,-231.5 455.5,-231.5 455.5,-190.5 306.5,-190.5"/>
<text text-anchor="start" x="314.5" y="-219.5" font-family="Helvetica,sans-Serif" font-size="10.00">include/IO_Interaction</text>
<text text-anchor="start" x="314.5" y="-208.5" font-family="Helvetica,sans-Serif" font-size="10.00">/onnx_model_reconstructor</text>
<text text-anchor="middle" x="381" y="-197.5" font-family="Helvetica,sans-Serif" font-size="10.00">_helpers.h</text>
</a>
</g>
</g>
<!-- Node3&#45;&gt;Node12 -->
<g id="edge11" class="edge">
<title>Node3&#45;&gt;Node12</title>
<path fill="none" stroke="midnightblue" d="M381,-258.04C381,-249.71 381,-239.94 381,-231.54"/>
<polygon fill="midnightblue" stroke="midnightblue" points="377.5,-258.23 381,-268.23 384.5,-258.23 377.5,-258.23"/>
</g>
<!-- Node5 -->
<g id="node5" class="node">
<title>Node5</title>
<g id="a_node5"><a xlink:href="io__manager_8h.html" target="_top" xlink:title=" ">
<polygon fill="white" stroke="black" points="683.5,-123.5 683.5,-142.5 804.5,-142.5 804.5,-123.5 683.5,-123.5"/>
<text text-anchor="middle" x="744" y="-130.5" font-family="Helvetica,sans-Serif" font-size="10.00">include/io_manager.h</text>
</a>
</g>
</g>
<!-- Node4&#45;&gt;Node5 -->
<g id="edge4" class="edge">
<title>Node4&#45;&gt;Node5</title>
<path fill="none" stroke="midnightblue" d="M820.17,-189.66C799.11,-174.27 771.24,-153.91 755.72,-142.56"/>
<polygon fill="midnightblue" stroke="midnightblue" points="818.3,-192.63 828.44,-195.7 822.43,-186.98 818.3,-192.63"/>
</g>
<!-- Node11 -->
<g id="node11" class="node">
<title>Node11</title>
<g id="a_node11"><a xlink:href="onnx__importer__helpers_8cpp.html" target="_top" xlink:title=" ">
<polygon fill="white" stroke="black" points="823,-118 823,-148 975,-148 975,-118 823,-118"/>
<text text-anchor="start" x="831" y="-136" font-family="Helvetica,sans-Serif" font-size="10.00">src/IO_Interaction</text>
<text text-anchor="middle" x="899" y="-125" font-family="Helvetica,sans-Serif" font-size="10.00">/onnx_importer_helpers.cpp</text>
</a>
</g>
</g>
<!-- Node4&#45;&gt;Node11 -->
<g id="edge10" class="edge">
<title>Node4&#45;&gt;Node11</title>
<path fill="none" stroke="midnightblue" d="M863.38,-187.07C871.86,-174.44 882.12,-159.15 889.45,-148.23"/>
<polygon fill="midnightblue" stroke="midnightblue" points="860.26,-185.45 857.59,-195.7 866.07,-189.35 860.26,-185.45"/>
</g>
<!-- Node6 -->
<g id="node6" class="node">
<title>Node6</title>
<g id="a_node6"><a xlink:href="general__manager_8h.html" target="_top" xlink:title=" ">
<polygon fill="white" stroke="black" points="743.5,-56.5 743.5,-75.5 892.5,-75.5 892.5,-56.5 743.5,-56.5"/>
<text text-anchor="middle" x="818" y="-63.5" font-family="Helvetica,sans-Serif" font-size="10.00">include/general_manager.h</text>
</a>
</g>
</g>
<!-- Node5&#45;&gt;Node6 -->
<g id="edge5" class="edge">
<title>Node5&#45;&gt;Node6</title>
<path fill="none" stroke="midnightblue" d="M761.81,-116.36C776.36,-103.58 796.38,-85.99 808.18,-75.63"/>
<polygon fill="midnightblue" stroke="midnightblue" points="759.18,-114 753.98,-123.23 763.8,-119.26 759.18,-114"/>
</g>
<!-- Node5&#45;&gt;Node9 -->
<g id="edge8" class="edge">
<title>Node5&#45;&gt;Node9</title>
<path fill="none" stroke="midnightblue" d="M704.93,-120.51C661.19,-107.65 591.32,-87.09 552.12,-75.56"/>
<polygon fill="midnightblue" stroke="midnightblue" points="704.07,-123.9 714.65,-123.37 706.05,-117.19 704.07,-123.9"/>
</g>
<!-- Node10 -->
<g id="node10" class="node">
<title>Node10</title>
<g id="a_node10"><a xlink:href="io__manager_8cpp.html" target="_top" xlink:title=" ">
<polygon fill="white" stroke="black" points="614.5,-56.5 614.5,-75.5 725.5,-75.5 725.5,-56.5 614.5,-56.5"/>
<text text-anchor="middle" x="670" y="-63.5" font-family="Helvetica,sans-Serif" font-size="10.00">src/io_manager.cpp</text>
</a>
</g>
</g>
<!-- Node5&#45;&gt;Node10 -->
<g id="edge9" class="edge">
<title>Node5&#45;&gt;Node10</title>
<path fill="none" stroke="midnightblue" d="M726.19,-116.36C711.64,-103.58 691.62,-85.99 679.82,-75.63"/>
<polygon fill="midnightblue" stroke="midnightblue" points="724.2,-119.26 734.02,-123.23 728.82,-114 724.2,-119.26"/>
</g>
<!-- Node7 -->
<g id="node7" class="node">
<title>Node7</title>
<g id="a_node7"><a xlink:href="general__manager_8cpp.html" target="_top" xlink:title=" ">
<polygon fill="white" stroke="black" points="684.5,-0.5 684.5,-19.5 823.5,-19.5 823.5,-0.5 684.5,-0.5"/>
<text text-anchor="middle" x="754" y="-7.5" font-family="Helvetica,sans-Serif" font-size="10.00">src/general_manager.cpp</text>
</a>
</g>
</g>
<!-- Node6&#45;&gt;Node7 -->
<g id="edge6" class="edge">
<title>Node6&#45;&gt;Node7</title>
<path fill="none" stroke="midnightblue" d="M800.01,-49.82C788.54,-40.15 774.09,-27.95 764.47,-19.83"/>
<polygon fill="midnightblue" stroke="midnightblue" points="797.82,-52.55 807.72,-56.32 802.33,-47.2 797.82,-52.55"/>
</g>
<!-- Node8 -->
<g id="node8" class="node">
<title>Node8</title>
<g id="a_node8"><a xlink:href="main_8cpp.html" target="_top" xlink:title=" ">
<polygon fill="white" stroke="black" points="841.5,-0.5 841.5,-19.5 920.5,-19.5 920.5,-0.5 841.5,-0.5"/>
<text text-anchor="middle" x="881" y="-7.5" font-family="Helvetica,sans-Serif" font-size="10.00">src/main.cpp</text>
</a>
</g>
</g>
<!-- Node6&#45;&gt;Node8 -->
<g id="edge7" class="edge">
<title>Node6&#45;&gt;Node8</title>
<path fill="none" stroke="midnightblue" d="M836.04,-49.54C847.27,-39.91 861.32,-27.87 870.69,-19.83"/>
<polygon fill="midnightblue" stroke="midnightblue" points="833.44,-47.16 828.12,-56.32 837.99,-52.47 833.44,-47.16"/>
</g>
<!-- Node12&#45;&gt;Node5 -->
<g id="edge12" class="edge">
<title>Node12&#45;&gt;Node5</title>
<path fill="none" stroke="midnightblue" d="M465.63,-192.28C540.27,-176.65 645.83,-154.55 703.13,-142.56"/>
<polygon fill="midnightblue" stroke="midnightblue" points="464.84,-188.87 455.77,-194.34 466.28,-195.72 464.84,-188.87"/>
</g>
<!-- Node13 -->
<g id="node13" class="node">
<title>Node13</title>
<g id="a_node13"><a xlink:href="onnx__model__reconstructor__helpers_8cpp.html" target="_top" xlink:title=" ">
<polygon fill="white" stroke="black" points="306.5,-112.5 306.5,-153.5 455.5,-153.5 455.5,-112.5 306.5,-112.5"/>
<text text-anchor="start" x="314.5" y="-141.5" font-family="Helvetica,sans-Serif" font-size="10.00">src/IO_Interaction</text>
<text text-anchor="start" x="314.5" y="-130.5" font-family="Helvetica,sans-Serif" font-size="10.00">/onnx_model_reconstructor</text>
<text text-anchor="middle" x="381" y="-119.5" font-family="Helvetica,sans-Serif" font-size="10.00">_helpers.cpp</text>
</a>
</g>
</g>
<!-- Node12&#45;&gt;Node13 -->
<g id="edge13" class="edge">
<title>Node12&#45;&gt;Node13</title>
<path fill="none" stroke="midnightblue" d="M381,-180.3C381,-171.3 381,-161.65 381,-153.51"/>
<polygon fill="midnightblue" stroke="midnightblue" points="377.5,-180.43 381,-190.43 384.5,-180.43 377.5,-180.43"/>
</g>
<!-- Node15 -->
<g id="node15" class="node">
<title>Node15</title>
<g id="a_node15"><a xlink:href="constrained__block__graph__builder_8h.html" target="_top" xlink:title=" ">
<polygon fill="white" stroke="black" points="266,-324.5 266,-354.5 418,-354.5 418,-324.5 266,-324.5"/>
<text text-anchor="start" x="274" y="-342.5" font-family="Helvetica,sans-Serif" font-size="10.00">include/Butcher/constrained</text>
<text text-anchor="middle" x="342" y="-331.5" font-family="Helvetica,sans-Serif" font-size="10.00">_block_graph_builder.h</text>
</a>
</g>
</g>
<!-- Node14&#45;&gt;Node15 -->
<g id="edge16" class="edge">
<title>Node14&#45;&gt;Node15</title>
<path fill="none" stroke="midnightblue" d="M324.1,-481.14C328.56,-446.11 336.64,-382.63 340.21,-354.53"/>
<polygon fill="midnightblue" stroke="midnightblue" points="320.58,-481.07 322.79,-491.43 327.53,-481.95 320.58,-481.07"/>
</g>
<!-- Node15&#45;&gt;Node3 -->
<g id="edge17" class="edge">
<title>Node15&#45;&gt;Node3</title>
<path fill="none" stroke="midnightblue" d="M356.88,-315.8C363.33,-305.96 370.49,-295.03 375.33,-287.66"/>
<polygon fill="midnightblue" stroke="midnightblue" points="353.8,-314.12 351.24,-324.4 359.65,-317.95 353.8,-314.12"/>
</g>
<!-- Node17 -->
<g id="node17" class="node">
<title>Node17</title>
<g id="a_node17"><a xlink:href="weight__importers_8h.html" target="_top" xlink:title=" ">
<polygon fill="white" stroke="black" points="384.5,-402.5 384.5,-432.5 507.5,-432.5 507.5,-402.5 384.5,-402.5"/>
<text text-anchor="start" x="392.5" y="-420.5" font-family="Helvetica,sans-Serif" font-size="10.00">include/IO_Interaction</text>
<text text-anchor="middle" x="446" y="-409.5" font-family="Helvetica,sans-Serif" font-size="10.00">/weight_importers.h</text>
</a>
</g>
</g>
<!-- Node16&#45;&gt;Node17 -->
<g id="edge19" class="edge">
<title>Node16&#45;&gt;Node17</title>
<path fill="none" stroke="midnightblue" d="M597.29,-476.74C558.73,-461.9 513.42,-444.45 482.51,-432.55"/>
<polygon fill="midnightblue" stroke="midnightblue" points="596.34,-480.13 606.93,-480.45 598.86,-473.59 596.34,-480.13"/>
</g>
<!-- Node18 -->
<g id="node18" class="node">
<title>Node18</title>
<g id="a_node18"><a xlink:href="block__aMLLibrary__weight__importer_8cpp.html" target="_top" xlink:title=" ">
<polygon fill="white" stroke="black" points="600.5,-391.5 600.5,-443.5 743.5,-443.5 743.5,-391.5 600.5,-391.5"/>
<text text-anchor="start" x="608.5" y="-431.5" font-family="Helvetica,sans-Serif" font-size="10.00">src/IO_Interaction</text>
<text text-anchor="start" x="608.5" y="-420.5" font-family="Helvetica,sans-Serif" font-size="10.00">/Weight_Importer_Helpers</text>
<text text-anchor="start" x="608.5" y="-409.5" font-family="Helvetica,sans-Serif" font-size="10.00">/block_aMLLibrary_weight</text>
<text text-anchor="middle" x="672" y="-398.5" font-family="Helvetica,sans-Serif" font-size="10.00">_importer.cpp</text>
</a>
</g>
</g>
<!-- Node16&#45;&gt;Node18 -->
<g id="edge23" class="edge">
<title>Node16&#45;&gt;Node18</title>
<path fill="none" stroke="midnightblue" d="M672,-470.19C672,-461.28 672,-451.9 672,-443.61"/>
<polygon fill="midnightblue" stroke="midnightblue" points="668.5,-470.34 672,-480.34 675.5,-470.34 668.5,-470.34"/>
</g>
<!-- Node17&#45;&gt;Node3 -->
<g id="edge20" class="edge">
<title>Node17&#45;&gt;Node3</title>
<path fill="none" stroke="midnightblue" d="M444.91,-392.3C443.14,-372.82 438.61,-345.27 427,-324 418.76,-308.9 403.79,-295.68 393.16,-287.55"/>
<polygon fill="midnightblue" stroke="midnightblue" points="441.43,-392.75 445.64,-402.47 448.41,-392.24 441.43,-392.75"/>
</g>
<!-- Node17&#45;&gt;Node5 -->
<g id="edge22" class="edge">
<title>Node17&#45;&gt;Node5</title>
<path fill="none" stroke="midnightblue" d="M468.27,-395.39C528.74,-338.07 694.19,-181.22 734.87,-142.65"/>
<polygon fill="midnightblue" stroke="midnightblue" points="465.63,-393.07 460.78,-402.49 470.44,-398.15 465.63,-393.07"/>
</g>
<!-- Node17&#45;&gt;Node15 -->
<g id="edge21" class="edge">
<title>Node17&#45;&gt;Node15</title>
<path fill="none" stroke="midnightblue" d="M418.1,-396.11C400.21,-383.04 377.43,-366.39 361.47,-354.73"/>
<polygon fill="midnightblue" stroke="midnightblue" points="416.3,-399.13 426.44,-402.2 420.43,-393.48 416.3,-399.13"/>
</g>
<!-- Node19&#45;&gt;Node3 -->
<g id="edge26" class="edge">
<title>Node19&#45;&gt;Node3</title>
<path fill="none" stroke="midnightblue" d="M239.28,-771.81C206.41,-695.24 116.32,-451.91 236,-324 255.36,-303.31 284.03,-292.06 310.77,-285.97"/>
<polygon fill="midnightblue" stroke="midnightblue" points="236.12,-773.33 243.33,-781.09 242.54,-770.53 236.12,-773.33"/>
</g>
<!-- Node19&#45;&gt;Node4 -->
<g id="edge30" class="edge">
<title>Node19&#45;&gt;Node4</title>
<path fill="none" stroke="midnightblue" d="M323.57,-788.52C490.98,-771.63 886,-725.78 886,-669 886,-669 886,-669 886,-338.5 886,-296.08 866.16,-248.91 855.15,-226"/>
<polygon fill="midnightblue" stroke="midnightblue" points="323.2,-785.04 313.6,-789.51 323.9,-792 323.2,-785.04"/>
</g>
<!-- Node19&#45;&gt;Node9 -->
<g id="edge38" class="edge">
<title>Node19&#45;&gt;Node9</title>
<path fill="none" stroke="midnightblue" d="M176.07,-789.1C102.34,-778.18 0,-748.67 0,-669 0,-669 0,-669 0,-210 0,-117.75 306.57,-82.93 450.28,-71.68"/>
<polygon fill="midnightblue" stroke="midnightblue" points="175.88,-792.61 186.27,-790.52 176.85,-785.67 175.88,-792.61"/>
</g>
<!-- Node19&#45;&gt;Node12 -->
<g id="edge31" class="edge">
<title>Node19&#45;&gt;Node12</title>
<path fill="none" stroke="midnightblue" d="M176.33,-782.81C115.12,-767.54 38,-735.18 38,-669 38,-669 38,-669 38,-338.5 38,-281.77 205.23,-242.59 306.15,-224.11"/>
<polygon fill="midnightblue" stroke="midnightblue" points="175.85,-786.3 186.39,-785.21 177.47,-779.49 175.85,-786.3"/>
</g>
<!-- Node19&#45;&gt;Node14 -->
<g id="edge27" class="edge">
<title>Node19&#45;&gt;Node14</title>
<path fill="none" stroke="midnightblue" d="M255.93,-771.46C270.22,-713.5 306.23,-567.43 317.54,-521.53"/>
<polygon fill="midnightblue" stroke="midnightblue" points="252.52,-770.67 253.52,-781.22 259.31,-772.35 252.52,-770.67"/>
</g>
<!-- Node20 -->
<g id="node20" class="node">
<title>Node20</title>
<g id="a_node20"><a xlink:href="path__converter_8h.html" target="_top" xlink:title=" ">
<polygon fill="white" stroke="black" points="66.5,-653 66.5,-683 183.5,-683 183.5,-653 66.5,-653"/>
<text text-anchor="start" x="74.5" y="-671" font-family="Helvetica,sans-Serif" font-size="10.00">include/Butcher/path</text>
<text text-anchor="middle" x="125" y="-660" font-family="Helvetica,sans-Serif" font-size="10.00">_converter.h</text>
</a>
</g>
</g>
<!-- Node19&#45;&gt;Node20 -->
<g id="edge28" class="edge">
<title>Node19&#45;&gt;Node20</title>
<path fill="none" stroke="midnightblue" d="M227.92,-774.38C218.61,-765.4 207.71,-754.76 198,-745 176.84,-723.73 152.83,-698.52 138.31,-683.15"/>
<polygon fill="midnightblue" stroke="midnightblue" points="225.67,-777.07 235.3,-781.49 230.52,-772.03 225.67,-777.07"/>
</g>
<!-- Node21 -->
<g id="node21" class="node">
<title>Node21</title>
<g id="a_node21"><a xlink:href="weight__importer_8h.html" target="_top" xlink:title=" ">
<polygon fill="white" stroke="black" points="404.5,-647.5 404.5,-688.5 547.5,-688.5 547.5,-647.5 404.5,-647.5"/>
<text text-anchor="start" x="412.5" y="-676.5" font-family="Helvetica,sans-Serif" font-size="10.00">include/IO_Interaction</text>
<text text-anchor="start" x="412.5" y="-665.5" font-family="Helvetica,sans-Serif" font-size="10.00">/Weight_Importer_Helpers</text>
<text text-anchor="middle" x="476" y="-654.5" font-family="Helvetica,sans-Serif" font-size="10.00">/weight_importer.h</text>
</a>
</g>
</g>
<!-- Node19&#45;&gt;Node21 -->
<g id="edge32" class="edge">
<title>Node19&#45;&gt;Node21</title>
<path fill="none" stroke="midnightblue" d="M323.93,-790.29C361.87,-784.27 406.76,-771.57 439,-745 456.44,-730.62 466.29,-706.04 471.36,-688.73"/>
<polygon fill="midnightblue" stroke="midnightblue" points="323.32,-786.84 313.93,-791.75 324.33,-793.77 323.32,-786.84"/>
</g>
<!-- Node24 -->
<g id="node24" class="node">
<title>Node24</title>
<g id="a_node24"><a xlink:href="parameters_8h.html" target="_top" xlink:title=" ">
<polygon fill="white" stroke="black" points="278.5,-725.5 278.5,-744.5 429.5,-744.5 429.5,-725.5 278.5,-725.5"/>
<text text-anchor="middle" x="354" y="-732.5" font-family="Helvetica,sans-Serif" font-size="10.00">include/Types/parameters.h</text>
</a>
</g>
</g>
<!-- Node19&#45;&gt;Node24 -->
<g id="edge39" class="edge">
<title>Node19&#45;&gt;Node24</title>
<path fill="none" stroke="midnightblue" d="M283.45,-776.36C302.1,-765.69 324.4,-752.93 338.87,-744.66"/>
<polygon fill="midnightblue" stroke="midnightblue" points="281.59,-773.4 274.65,-781.4 285.06,-779.47 281.59,-773.4"/>
</g>
<!-- Node20&#45;&gt;Node3 -->
<g id="edge29" class="edge">
<title>Node20&#45;&gt;Node3</title>
<path fill="none" stroke="midnightblue" d="M126.49,-642.57C128.27,-611.28 131,-555.38 131,-507.5 131,-507.5 131,-507.5 131,-416.5 131,-370.18 142.29,-352.24 179,-324 216.45,-295.19 268.73,-284.11 310.71,-280.14"/>
<polygon fill="midnightblue" stroke="midnightblue" points="122.97,-642.74 125.89,-652.92 129.96,-643.15 122.97,-642.74"/>
</g>
<!-- Node21&#45;&gt;Node16 -->
<g id="edge33" class="edge">
<title>Node21&#45;&gt;Node16</title>
<path fill="none" stroke="midnightblue" d="M522.03,-642.3C537.5,-633.23 554.49,-622.37 569,-611 599.52,-587.07 630.35,-554.77 650.22,-532.66"/>
<polygon fill="midnightblue" stroke="midnightblue" points="520.05,-639.41 513.13,-647.43 523.54,-645.47 520.05,-639.41"/>
</g>
<!-- Node22 -->
<g id="node22" class="node">
<title>Node22</title>
<g id="a_node22"><a xlink:href="csv__weight__importer_8h.html" target="_top" xlink:title=" ">
<polygon fill="white" stroke="black" points="416.5,-569.5 416.5,-610.5 559.5,-610.5 559.5,-569.5 416.5,-569.5"/>
<text text-anchor="start" x="424.5" y="-598.5" font-family="Helvetica,sans-Serif" font-size="10.00">include/IO_Interaction</text>
<text text-anchor="start" x="424.5" y="-587.5" font-family="Helvetica,sans-Serif" font-size="10.00">/Weight_Importer_Helpers</text>
<text text-anchor="middle" x="488" y="-576.5" font-family="Helvetica,sans-Serif" font-size="10.00">/csv_weight_importer.h</text>
</a>
</g>
</g>
<!-- Node21&#45;&gt;Node22 -->
<g id="edge34" class="edge">
<title>Node21&#45;&gt;Node22</title>
<path fill="none" stroke="midnightblue" d="M480.69,-637.3C482.11,-628.3 483.63,-618.65 484.92,-610.51"/>
<polygon fill="midnightblue" stroke="midnightblue" points="477.19,-637 479.09,-647.43 484.11,-638.1 477.19,-637"/>
</g>
<!-- Node22&#45;&gt;Node16 -->
<g id="edge35" class="edge">
<title>Node22&#45;&gt;Node16</title>
<path fill="none" stroke="midnightblue" d="M541.42,-565.34C564.62,-555.06 591.83,-543.01 615.39,-532.58"/>
<polygon fill="midnightblue" stroke="midnightblue" points="539.8,-562.23 532.07,-569.48 542.63,-568.63 539.8,-562.23"/>
</g>
<!-- Node22&#45;&gt;Node17 -->
<g id="edge36" class="edge">
<title>Node22&#45;&gt;Node17</title>
<path fill="none" stroke="midnightblue" d="M452.27,-562.45C443.68,-554.08 435.65,-544.08 431,-533 416.73,-498.98 430.72,-454.71 439.72,-432.5"/>
<polygon fill="midnightblue" stroke="midnightblue" points="450.13,-565.24 459.89,-569.38 454.84,-560.06 450.13,-565.24"/>
</g>
<!-- Node23 -->
<g id="node23" class="node">
<title>Node23</title>
<g id="a_node23"><a xlink:href="csv__weight__importer_8cpp.html" target="_top" xlink:title=" ">
<polygon fill="white" stroke="black" points="439.5,-486 439.5,-527 582.5,-527 582.5,-486 439.5,-486"/>
<text text-anchor="start" x="447.5" y="-515" font-family="Helvetica,sans-Serif" font-size="10.00">src/IO_Interaction</text>
<text text-anchor="start" x="447.5" y="-504" font-family="Helvetica,sans-Serif" font-size="10.00">/Weight_Importer_Helpers</text>
<text text-anchor="middle" x="511" y="-493" font-family="Helvetica,sans-Serif" font-size="10.00">/csv_weight_importer.cpp</text>
</a>
</g>
</g>
<!-- Node22&#45;&gt;Node23 -->
<g id="edge37" class="edge">
<title>Node22&#45;&gt;Node23</title>
<path fill="none" stroke="midnightblue" d="M496.35,-559.4C499.39,-548.63 502.75,-536.73 505.48,-527.05"/>
<polygon fill="midnightblue" stroke="midnightblue" points="492.92,-558.7 493.57,-569.27 499.65,-560.6 492.92,-558.7"/>
</g>
<!-- Node24&#45;&gt;Node3 -->
<g id="edge40" class="edge">
<title>Node24&#45;&gt;Node3</title>
<path fill="none" stroke="midnightblue" d="M341.35,-717.19C298.05,-657.46 163.46,-452.14 257,-324 270.91,-304.95 293.7,-293.94 315.97,-287.59"/>
<polygon fill="midnightblue" stroke="midnightblue" points="338.72,-719.52 347.47,-725.5 344.36,-715.37 338.72,-719.52"/>
</g>
<!-- Node24&#45;&gt;Node4 -->
<g id="edge42" class="edge">
<title>Node24&#45;&gt;Node4</title>
<path fill="none" stroke="midnightblue" d="M439.52,-726.91C580.92,-712.8 848,-675.03 848,-591 848,-591 848,-591 848,-338.5 848,-297.65 848,-249.38 848,-226.04"/>
<polygon fill="midnightblue" stroke="midnightblue" points="439.18,-723.43 429.57,-727.88 439.86,-730.39 439.18,-723.43"/>
</g>
<!-- Node24&#45;&gt;Node14 -->
<g id="edge41" class="edge">
<title>Node24&#45;&gt;Node14</title>
<path fill="none" stroke="midnightblue" d="M351.3,-715.47C344.87,-671.34 328.76,-560.77 323.05,-521.56"/>
<polygon fill="midnightblue" stroke="midnightblue" points="347.84,-716.01 352.75,-725.4 354.77,-715 347.84,-716.01"/>
</g>
<!-- Node24&#45;&gt;Node21 -->
<g id="edge43" class="edge">
<title>Node24&#45;&gt;Node21</title>
<path fill="none" stroke="midnightblue" d="M379.14,-720.6C396.46,-711.38 419.76,-698.96 439.16,-688.63"/>
<polygon fill="midnightblue" stroke="midnightblue" points="377.38,-717.58 370.2,-725.37 380.67,-723.76 377.38,-717.58"/>
</g>
</g>
</svg>
