<?xml version="1.0" encoding="UTF-8" standalone="no"?>
<!DOCTYPE svg PUBLIC "-//W3C//DTD SVG 1.1//EN"
 "http://www.w3.org/Graphics/SVG/1.1/DTD/svg11.dtd">
<!-- Generated by graphviz version 2.43.0 (0)
 -->
<!-- Title: include/Network/wgraph.h Pages: 1 -->
<svg width="943pt" height="532pt"
 viewBox="0.00 0.00 943.00 532.00" xmlns="http://www.w3.org/2000/svg" xmlns:xlink="http://www.w3.org/1999/xlink">
<g id="graph0" class="graph" transform="scale(1 1) rotate(0) translate(4 528)">
<title>include/Network/wgraph.h</title>
<polygon fill="white" stroke="transparent" points="-4,4 -4,-528 939,-528 939,4 -4,4"/>
<!-- Node1 -->
<g id="node1" class="node">
<title>Node1</title>
<g id="a_node1"><a xlink:title=" ">
<polygon fill="#bfbfbf" stroke="black" points="376,-504.5 376,-523.5 520,-523.5 520,-504.5 376,-504.5"/>
<text text-anchor="middle" x="448" y="-511.5" font-family="Helvetica,sans-Serif" font-size="10.00">include/Network/wgraph.h</text>
</a>
</g>
</g>
<!-- Node2 -->
<g id="node2" class="node">
<title>Node2</title>
<g id="a_node2"><a xlink:href="mwgraph_8h.html" target="_top" xlink:title=" ">
<polygon fill="white" stroke="black" points="380.5,-448.5 380.5,-467.5 451.5,-467.5 451.5,-448.5 380.5,-448.5"/>
<text text-anchor="middle" x="416" y="-455.5" font-family="Helvetica,sans-Serif" font-size="10.00">mwgraph.h</text>
</a>
</g>
</g>
<!-- Node1&#45;&gt;Node2 -->
<g id="edge1" class="edge">
<title>Node1&#45;&gt;Node2</title>
<path fill="none" stroke="midnightblue" d="M442.72,-504.08C438.29,-496.61 431.84,-485.72 426.38,-476.52"/>
<polygon fill="midnightblue" stroke="midnightblue" points="429.29,-474.57 421.19,-467.75 423.27,-478.14 429.29,-474.57"/>
</g>
<!-- Node26 -->
<g id="node26" class="node">
<title>Node26</title>
<g id="a_node26"><a xlink:href="weighted__graph_8h.html" target="_top" xlink:title=" ">
<polygon fill="white" stroke="black" points="670,-392.5 670,-411.5 774,-411.5 774,-392.5 670,-392.5"/>
<text text-anchor="middle" x="722" y="-399.5" font-family="Helvetica,sans-Serif" font-size="10.00">weighted_graph.h</text>
</a>
</g>
</g>
<!-- Node1&#45;&gt;Node26 -->
<g id="edge46" class="edge">
<title>Node1&#45;&gt;Node26</title>
<path fill="none" stroke="midnightblue" d="M469.5,-504.37C517.82,-484.97 635.14,-437.87 691.19,-415.37"/>
<polygon fill="midnightblue" stroke="midnightblue" points="692.62,-418.57 700.6,-411.59 690.02,-412.07 692.62,-418.57"/>
</g>
<!-- Node3 -->
<g id="node3" class="node">
<title>Node3</title>
<g id="a_node3"><a xlink:href="graph_8h.html" target="_top" xlink:title=" ">
<polygon fill="white" stroke="black" points="373.5,-392.5 373.5,-411.5 426.5,-411.5 426.5,-392.5 373.5,-392.5"/>
<text text-anchor="middle" x="400" y="-399.5" font-family="Helvetica,sans-Serif" font-size="10.00">graph.h</text>
</a>
</g>
</g>
<!-- Node2&#45;&gt;Node3 -->
<g id="edge2" class="edge">
<title>Node2&#45;&gt;Node3</title>
<path fill="none" stroke="midnightblue" d="M413.36,-448.08C411.21,-440.85 408.12,-430.41 405.45,-421.4"/>
<polygon fill="midnightblue" stroke="midnightblue" points="408.79,-420.34 402.59,-411.75 402.08,-422.33 408.79,-420.34"/>
</g>
<!-- Node4 -->
<g id="node4" class="node">
<title>Node4</title>
<g id="a_node4"><a xlink:title=" ">
<polygon fill="white" stroke="#bfbfbf" points="324,-112.5 324,-131.5 388,-131.5 388,-112.5 324,-112.5"/>
<text text-anchor="middle" x="356" y="-119.5" font-family="Helvetica,sans-Serif" font-size="10.00">algorithm</text>
</a>
</g>
</g>
<!-- Node3&#45;&gt;Node4 -->
<g id="edge3" class="edge">
<title>Node3&#45;&gt;Node4</title>
<path fill="none" stroke="midnightblue" d="M393.88,-392.35C381.79,-374.38 356,-331.31 356,-291 356,-291 356,-291 356,-233 356,-200.95 356,-163.64 356,-141.75"/>
<polygon fill="midnightblue" stroke="midnightblue" points="359.5,-141.56 356,-131.56 352.5,-141.56 359.5,-141.56"/>
</g>
<!-- Node5 -->
<g id="node5" class="node">
<title>Node5</title>
<g id="a_node5"><a xlink:title=" ">
<polygon fill="white" stroke="#bfbfbf" points="250,-112.5 250,-131.5 306,-131.5 306,-112.5 250,-112.5"/>
<text text-anchor="middle" x="278" y="-119.5" font-family="Helvetica,sans-Serif" font-size="10.00">numeric</text>
</a>
</g>
</g>
<!-- Node3&#45;&gt;Node5 -->
<g id="edge4" class="edge">
<title>Node3&#45;&gt;Node5</title>
<path fill="none" stroke="midnightblue" d="M382.7,-392.45C353.6,-376.72 298,-340.22 298,-291 298,-291 298,-291 298,-233 298,-200.44 289.41,-163.32 283.49,-141.59"/>
<polygon fill="midnightblue" stroke="midnightblue" points="286.79,-140.41 280.7,-131.74 280.06,-142.32 286.79,-140.41"/>
</g>
<!-- Node6 -->
<g id="node6" class="node">
<title>Node6</title>
<g id="a_node6"><a xlink:title=" ">
<polygon fill="white" stroke="#bfbfbf" points="384.5,-224.5 384.5,-243.5 429.5,-243.5 429.5,-224.5 384.5,-224.5"/>
<text text-anchor="middle" x="407" y="-231.5" font-family="Helvetica,sans-Serif" font-size="10.00">utility</text>
</a>
</g>
</g>
<!-- Node3&#45;&gt;Node6 -->
<g id="edge5" class="edge">
<title>Node3&#45;&gt;Node6</title>
<path fill="none" stroke="midnightblue" d="M400.38,-392.08C401.48,-365.95 404.71,-289.21 406.22,-253.58"/>
<polygon fill="midnightblue" stroke="midnightblue" points="409.71,-253.71 406.64,-243.57 402.72,-253.41 409.71,-253.71"/>
</g>
<!-- Node7 -->
<g id="node7" class="node">
<title>Node7</title>
<g id="a_node7"><a xlink:title=" ">
<polygon fill="white" stroke="#bfbfbf" points="55.5,-0.5 55.5,-19.5 102.5,-19.5 102.5,-0.5 55.5,-0.5"/>
<text text-anchor="middle" x="79" y="-7.5" font-family="Helvetica,sans-Serif" font-size="10.00">vector</text>
</a>
</g>
</g>
<!-- Node3&#45;&gt;Node7 -->
<g id="edge6" class="edge">
<title>Node3&#45;&gt;Node7</title>
<path fill="none" stroke="midnightblue" d="M373.45,-399.46C284.11,-393.56 0,-368.69 0,-291 0,-291 0,-291 0,-121 0,-80.79 35.25,-45.22 58.66,-26.03"/>
<polygon fill="midnightblue" stroke="midnightblue" points="60.97,-28.66 66.66,-19.72 56.64,-23.17 60.97,-28.66"/>
</g>
<!-- Node8 -->
<g id="node8" class="node">
<title>Node8</title>
<g id="a_node8"><a xlink:title=" ">
<polygon fill="white" stroke="#bfbfbf" points="383.5,-56.5 383.5,-75.5 448.5,-75.5 448.5,-56.5 383.5,-56.5"/>
<text text-anchor="middle" x="416" y="-63.5" font-family="Helvetica,sans-Serif" font-size="10.00">onnx.pb.h</text>
</a>
</g>
</g>
<!-- Node3&#45;&gt;Node8 -->
<g id="edge7" class="edge">
<title>Node3&#45;&gt;Node8</title>
<path fill="none" stroke="midnightblue" d="M373.35,-397.1C323.7,-388.17 222,-361.29 222,-291 222,-291 222,-291 222,-177 222,-146.9 219.37,-132.93 241,-112 259.7,-93.9 327.7,-80.36 373.22,-73.07"/>
<polygon fill="midnightblue" stroke="midnightblue" points="373.79,-76.52 383.13,-71.52 372.71,-69.6 373.79,-76.52"/>
</g>
<!-- Node9 -->
<g id="node9" class="node">
<title>Node9</title>
<g id="a_node9"><a xlink:href="content_8h.html" target="_top" xlink:title=" ">
<polygon fill="white" stroke="black" points="435,-280.5 435,-299.5 497,-299.5 497,-280.5 435,-280.5"/>
<text text-anchor="middle" x="466" y="-287.5" font-family="Helvetica,sans-Serif" font-size="10.00">content.h</text>
</a>
</g>
</g>
<!-- Node3&#45;&gt;Node9 -->
<g id="edge8" class="edge">
<title>Node3&#45;&gt;Node9</title>
<path fill="none" stroke="midnightblue" d="M405.18,-392.37C416.02,-374.3 441.29,-332.18 455.62,-308.31"/>
<polygon fill="midnightblue" stroke="midnightblue" points="458.7,-309.97 460.85,-299.59 452.7,-306.37 458.7,-309.97"/>
</g>
<!-- Node24 -->
<g id="node24" class="node">
<title>Node24</title>
<g id="a_node24"><a xlink:href="node_8h.html" target="_top" xlink:title=" ">
<polygon fill="white" stroke="black" points="518,-280.5 518,-299.5 568,-299.5 568,-280.5 518,-280.5"/>
<text text-anchor="middle" x="543" y="-287.5" font-family="Helvetica,sans-Serif" font-size="10.00">node.h</text>
</a>
</g>
</g>
<!-- Node3&#45;&gt;Node24 -->
<g id="edge36" class="edge">
<title>Node3&#45;&gt;Node24</title>
<path fill="none" stroke="midnightblue" d="M411.22,-392.37C435.55,-373.65 493.4,-329.15 523.72,-305.83"/>
<polygon fill="midnightblue" stroke="midnightblue" points="526.04,-308.46 531.83,-299.59 521.77,-302.91 526.04,-308.46"/>
</g>
<!-- Node25 -->
<g id="node25" class="node">
<title>Node25</title>
<g id="a_node25"><a xlink:href="node__traits_8h.html" target="_top" xlink:title=" ">
<polygon fill="white" stroke="black" points="504,-336.5 504,-355.5 584,-355.5 584,-336.5 504,-336.5"/>
<text text-anchor="middle" x="544" y="-343.5" font-family="Helvetica,sans-Serif" font-size="10.00">node_traits.h</text>
</a>
</g>
</g>
<!-- Node3&#45;&gt;Node25 -->
<g id="edge41" class="edge">
<title>Node3&#45;&gt;Node25</title>
<path fill="none" stroke="midnightblue" d="M422.82,-392.44C446.83,-383.44 484.83,-369.19 511.87,-359.05"/>
<polygon fill="midnightblue" stroke="midnightblue" points="513.16,-362.3 521.29,-355.52 510.7,-355.75 513.16,-362.3"/>
</g>
<!-- Node10 -->
<g id="node10" class="node">
<title>Node10</title>
<g id="a_node10"><a xlink:href="dense__tensor_8h.html" target="_top" xlink:title=" ">
<polygon fill="white" stroke="black" points="486,-224.5 486,-243.5 576,-243.5 576,-224.5 486,-224.5"/>
<text text-anchor="middle" x="531" y="-231.5" font-family="Helvetica,sans-Serif" font-size="10.00">dense_tensor.h</text>
</a>
</g>
</g>
<!-- Node9&#45;&gt;Node10 -->
<g id="edge9" class="edge">
<title>Node9&#45;&gt;Node10</title>
<path fill="none" stroke="midnightblue" d="M476.44,-280.32C486.15,-272.26 500.82,-260.08 512.5,-250.37"/>
<polygon fill="midnightblue" stroke="midnightblue" points="514.91,-252.92 520.37,-243.83 510.44,-247.53 514.91,-252.92"/>
</g>
<!-- Node14 -->
<g id="node14" class="node">
<title>Node14</title>
<g id="a_node14"><a xlink:href="variant__attribute_8h.html" target="_top" xlink:title=" ">
<polygon fill="white" stroke="black" points="33.5,-168.5 33.5,-187.5 140.5,-187.5 140.5,-168.5 33.5,-168.5"/>
<text text-anchor="middle" x="87" y="-175.5" font-family="Helvetica,sans-Serif" font-size="10.00">variant_attribute.h</text>
</a>
</g>
</g>
<!-- Node9&#45;&gt;Node14 -->
<g id="edge35" class="edge">
<title>Node9&#45;&gt;Node14</title>
<path fill="none" stroke="midnightblue" d="M464.96,-280.16C462.77,-265.83 456.26,-237.75 438,-224 387.35,-185.87 217.87,-196.16 155,-188 153.7,-187.83 152.4,-187.66 151.08,-187.49"/>
<polygon fill="midnightblue" stroke="midnightblue" points="151.19,-183.97 140.82,-186.15 150.28,-190.92 151.19,-183.97"/>
</g>
<!-- Node10&#45;&gt;Node7 -->
<g id="edge34" class="edge">
<title>Node10&#45;&gt;Node7</title>
<path fill="none" stroke="midnightblue" d="M495.64,-224.45C439.54,-210.06 327.63,-178.02 241,-132 183.69,-101.55 124.67,-51.98 96.29,-26.78"/>
<polygon fill="midnightblue" stroke="midnightblue" points="98.29,-23.87 88.51,-19.79 93.61,-29.08 98.29,-23.87"/>
</g>
<!-- Node11 -->
<g id="node11" class="node">
<title>Node11</title>
<g id="a_node11"><a xlink:href="type__info_8h.html" target="_top" xlink:title=" ">
<polygon fill="white" stroke="black" points="643.5,-56.5 643.5,-75.5 714.5,-75.5 714.5,-56.5 643.5,-56.5"/>
<text text-anchor="middle" x="679" y="-63.5" font-family="Helvetica,sans-Serif" font-size="10.00">type_info.h</text>
</a>
</g>
</g>
<!-- Node10&#45;&gt;Node11 -->
<g id="edge10" class="edge">
<title>Node10&#45;&gt;Node11</title>
<path fill="none" stroke="midnightblue" d="M556.84,-224.49C592.53,-211.17 655.47,-181.66 682,-132 689.64,-117.69 687.77,-98.98 684.65,-85.31"/>
<polygon fill="midnightblue" stroke="midnightblue" points="688.01,-84.35 682.04,-75.61 681.25,-86.17 688.01,-84.35"/>
</g>
<!-- Node10&#45;&gt;Node14 -->
<g id="edge14" class="edge">
<title>Node10&#45;&gt;Node14</title>
<path fill="none" stroke="midnightblue" d="M485.93,-225.94C481.23,-225.26 476.52,-224.6 472,-224 331.44,-205.31 295.73,-205.3 155,-188 153.7,-187.84 152.39,-187.68 151.07,-187.51"/>
<polygon fill="midnightblue" stroke="midnightblue" points="151.17,-184 140.81,-186.22 150.29,-190.94 151.17,-184"/>
</g>
<!-- Node16 -->
<g id="node16" class="node">
<title>Node16</title>
<g id="a_node16"><a xlink:href="utilities_8h.html" target="_top" xlink:title=" ">
<polygon fill="white" stroke="black" points="500,-168.5 500,-187.5 562,-187.5 562,-168.5 500,-168.5"/>
<text text-anchor="middle" x="531" y="-175.5" font-family="Helvetica,sans-Serif" font-size="10.00">utilities.h</text>
</a>
</g>
</g>
<!-- Node10&#45;&gt;Node16 -->
<g id="edge18" class="edge">
<title>Node10&#45;&gt;Node16</title>
<path fill="none" stroke="midnightblue" d="M525.83,-224.08C524.32,-216.93 523.89,-206.64 524.54,-197.69"/>
<polygon fill="midnightblue" stroke="midnightblue" points="528.02,-198.13 525.87,-187.75 521.08,-197.2 528.02,-198.13"/>
</g>
<!-- Node11&#45;&gt;Node7 -->
<g id="edge12" class="edge">
<title>Node11&#45;&gt;Node7</title>
<path fill="none" stroke="midnightblue" d="M643.26,-61.78C535.95,-52.13 217.45,-23.46 112.76,-14.04"/>
<polygon fill="midnightblue" stroke="midnightblue" points="113.03,-10.55 102.75,-13.14 112.4,-17.52 113.03,-10.55"/>
</g>
<!-- Node12 -->
<g id="node12" class="node">
<title>Node12</title>
<g id="a_node12"><a xlink:title=" ">
<polygon fill="white" stroke="#bfbfbf" points="395,-0.5 395,-19.5 439,-19.5 439,-0.5 395,-0.5"/>
<text text-anchor="middle" x="417" y="-7.5" font-family="Helvetica,sans-Serif" font-size="10.00">string</text>
</a>
</g>
</g>
<!-- Node11&#45;&gt;Node12 -->
<g id="edge11" class="edge">
<title>Node11&#45;&gt;Node12</title>
<path fill="none" stroke="midnightblue" d="M643.39,-57.66C592.17,-47.1 498.43,-27.78 449.18,-17.63"/>
<polygon fill="midnightblue" stroke="midnightblue" points="449.59,-14.14 439.09,-15.55 448.18,-21 449.59,-14.14"/>
</g>
<!-- Node13 -->
<g id="node13" class="node">
<title>Node13</title>
<g id="a_node13"><a xlink:href="starting__traits_8h.html" target="_top" xlink:title=" ">
<polygon fill="white" stroke="black" points="692,-0.5 692,-19.5 786,-19.5 786,-0.5 692,-0.5"/>
<text text-anchor="middle" x="739" y="-7.5" font-family="Helvetica,sans-Serif" font-size="10.00">starting_traits.h</text>
</a>
</g>
</g>
<!-- Node11&#45;&gt;Node13 -->
<g id="edge13" class="edge">
<title>Node11&#45;&gt;Node13</title>
<path fill="none" stroke="midnightblue" d="M688.64,-56.32C697.51,-48.34 710.87,-36.31 721.61,-26.65"/>
<polygon fill="midnightblue" stroke="midnightblue" points="724.09,-29.13 729.18,-19.83 719.41,-23.92 724.09,-29.13"/>
</g>
<!-- Node14&#45;&gt;Node7 -->
<g id="edge17" class="edge">
<title>Node14&#45;&gt;Node7</title>
<path fill="none" stroke="midnightblue" d="M78.79,-168.18C71.46,-159.66 61.24,-146.02 57,-132 46.17,-96.22 60.44,-52.78 70.55,-28.9"/>
<polygon fill="midnightblue" stroke="midnightblue" points="73.79,-30.23 74.67,-19.67 67.4,-27.37 73.79,-30.23"/>
</g>
<!-- Node14&#45;&gt;Node12 -->
<g id="edge15" class="edge">
<title>Node14&#45;&gt;Node12</title>
<path fill="none" stroke="midnightblue" d="M102.55,-168.37C125.48,-155.71 169.76,-131.5 208,-112 272.51,-79.11 349.43,-42.63 389.55,-23.81"/>
<polygon fill="midnightblue" stroke="midnightblue" points="391.13,-26.93 398.7,-19.52 388.16,-20.59 391.13,-26.93"/>
</g>
<!-- Node15 -->
<g id="node15" class="node">
<title>Node15</title>
<g id="a_node15"><a xlink:title=" ">
<polygon fill="white" stroke="#bfbfbf" points="66.5,-112.5 66.5,-131.5 117.5,-131.5 117.5,-112.5 66.5,-112.5"/>
<text text-anchor="middle" x="92" y="-119.5" font-family="Helvetica,sans-Serif" font-size="10.00">variant</text>
</a>
</g>
</g>
<!-- Node14&#45;&gt;Node15 -->
<g id="edge16" class="edge">
<title>Node14&#45;&gt;Node15</title>
<path fill="none" stroke="midnightblue" d="M87.83,-168.08C88.48,-161.01 89.42,-150.86 90.24,-141.99"/>
<polygon fill="midnightblue" stroke="midnightblue" points="93.75,-142.03 91.19,-131.75 86.78,-141.39 93.75,-142.03"/>
</g>
<!-- Node16&#45;&gt;Node4 -->
<g id="edge19" class="edge">
<title>Node16&#45;&gt;Node4</title>
<path fill="none" stroke="midnightblue" d="M503.27,-168.44C473.57,-159.28 426.28,-144.69 393.33,-134.52"/>
<polygon fill="midnightblue" stroke="midnightblue" points="394.19,-131.12 383.6,-131.52 392.12,-137.81 394.19,-131.12"/>
</g>
<!-- Node16&#45;&gt;Node5 -->
<g id="edge20" class="edge">
<title>Node16&#45;&gt;Node5</title>
<path fill="none" stroke="midnightblue" d="M499.81,-170.84C459.64,-162.83 387.44,-148.19 316.29,-132.24"/>
<polygon fill="midnightblue" stroke="midnightblue" points="316.78,-128.76 306.26,-129.98 315.25,-135.59 316.78,-128.76"/>
</g>
<!-- Node16&#45;&gt;Node8 -->
<g id="edge24" class="edge">
<title>Node16&#45;&gt;Node8</title>
<path fill="none" stroke="midnightblue" d="M499.6,-169.57C478.52,-163.03 451.65,-151.43 435,-132 423.89,-119.04 419.27,-99.87 417.36,-85.71"/>
<polygon fill="midnightblue" stroke="midnightblue" points="420.82,-85.23 416.32,-75.63 413.86,-85.94 420.82,-85.23"/>
</g>
<!-- Node16&#45;&gt;Node10 -->
<g id="edge32" class="edge">
<title>Node16&#45;&gt;Node10</title>
<path fill="none" stroke="midnightblue" d="M536.13,-187.75C537.66,-194.86 538.1,-205.14 537.47,-214.1"/>
<polygon fill="midnightblue" stroke="midnightblue" points="533.99,-213.71 536.17,-224.08 540.93,-214.62 533.99,-213.71"/>
</g>
<!-- Node16&#45;&gt;Node11 -->
<g id="edge33" class="edge">
<title>Node16&#45;&gt;Node11</title>
<path fill="none" stroke="midnightblue" d="M562.01,-174.77C592.09,-170.93 636.91,-160.47 663,-132 674.4,-119.56 678.02,-100.32 679.01,-86"/>
<polygon fill="midnightblue" stroke="midnightblue" points="682.51,-85.9 679.34,-75.79 675.52,-85.67 682.51,-85.9"/>
</g>
<!-- Node17 -->
<g id="node17" class="node">
<title>Node17</title>
<g id="a_node17"><a xlink:title=" ">
<polygon fill="white" stroke="#bfbfbf" points="444,-112.5 444,-131.5 512,-131.5 512,-112.5 444,-112.5"/>
<text text-anchor="middle" x="478" y="-119.5" font-family="Helvetica,sans-Serif" font-size="10.00">filesystem</text>
</a>
</g>
</g>
<!-- Node16&#45;&gt;Node17 -->
<g id="edge21" class="edge">
<title>Node16&#45;&gt;Node17</title>
<path fill="none" stroke="midnightblue" d="M522.25,-168.08C514.53,-160.22 503.1,-148.57 493.78,-139.08"/>
<polygon fill="midnightblue" stroke="midnightblue" points="496.09,-136.44 486.59,-131.75 491.1,-141.34 496.09,-136.44"/>
</g>
<!-- Node18 -->
<g id="node18" class="node">
<title>Node18</title>
<g id="a_node18"><a xlink:title=" ">
<polygon fill="white" stroke="#bfbfbf" points="530.5,-112.5 530.5,-131.5 585.5,-131.5 585.5,-112.5 530.5,-112.5"/>
<text text-anchor="middle" x="558" y="-119.5" font-family="Helvetica,sans-Serif" font-size="10.00">fstream</text>
</a>
</g>
</g>
<!-- Node16&#45;&gt;Node18 -->
<g id="edge22" class="edge">
<title>Node16&#45;&gt;Node18</title>
<path fill="none" stroke="midnightblue" d="M535.46,-168.08C539.15,-160.69 544.52,-149.95 549.09,-140.81"/>
<polygon fill="midnightblue" stroke="midnightblue" points="552.28,-142.26 553.62,-131.75 546.02,-139.13 552.28,-142.26"/>
</g>
<!-- Node19 -->
<g id="node19" class="node">
<title>Node19</title>
<g id="a_node19"><a xlink:title=" ">
<polygon fill="white" stroke="#bfbfbf" points="604,-112.5 604,-131.5 654,-131.5 654,-112.5 604,-112.5"/>
<text text-anchor="middle" x="629" y="-119.5" font-family="Helvetica,sans-Serif" font-size="10.00">ranges</text>
</a>
</g>
</g>
<!-- Node16&#45;&gt;Node19 -->
<g id="edge23" class="edge">
<title>Node16&#45;&gt;Node19</title>
<path fill="none" stroke="midnightblue" d="M546.75,-168.32C562.32,-159.74 586.38,-146.49 604.46,-136.52"/>
<polygon fill="midnightblue" stroke="midnightblue" points="606.22,-139.55 613.29,-131.65 602.85,-133.42 606.22,-139.55"/>
</g>
<!-- Node20 -->
<g id="node20" class="node">
<title>Node20</title>
<g id="a_node20"><a xlink:href="traits_8h.html" target="_top" xlink:title=" ">
<polygon fill="white" stroke="black" points="786.5,-112.5 786.5,-131.5 837.5,-131.5 837.5,-112.5 786.5,-112.5"/>
<text text-anchor="middle" x="812" y="-119.5" font-family="Helvetica,sans-Serif" font-size="10.00">traits.h</text>
</a>
</g>
</g>
<!-- Node16&#45;&gt;Node20 -->
<g id="edge25" class="edge">
<title>Node16&#45;&gt;Node20</title>
<path fill="none" stroke="midnightblue" d="M562.15,-171.01C614.77,-160.9 720.95,-140.5 776.42,-129.84"/>
<polygon fill="midnightblue" stroke="midnightblue" points="777.33,-133.23 786.49,-127.9 776.01,-126.35 777.33,-133.23"/>
</g>
<!-- Node20&#45;&gt;Node8 -->
<g id="edge30" class="edge">
<title>Node20&#45;&gt;Node8</title>
<path fill="none" stroke="midnightblue" d="M786.32,-117.5C719.76,-108.42 541.09,-84.06 458.69,-72.82"/>
<polygon fill="midnightblue" stroke="midnightblue" points="459.05,-69.34 448.67,-71.45 458.1,-76.27 459.05,-69.34"/>
</g>
<!-- Node20&#45;&gt;Node11 -->
<g id="edge31" class="edge">
<title>Node20&#45;&gt;Node11</title>
<path fill="none" stroke="midnightblue" d="M790.93,-112.44C768.94,-103.52 734.27,-89.44 709.34,-79.32"/>
<polygon fill="midnightblue" stroke="midnightblue" points="710.56,-76.04 699.98,-75.52 707.92,-82.52 710.56,-76.04"/>
</g>
<!-- Node20&#45;&gt;Node13 -->
<g id="edge29" class="edge">
<title>Node20&#45;&gt;Node13</title>
<path fill="none" stroke="midnightblue" d="M808.58,-112.16C803.39,-99.24 792.75,-74.71 780,-56 772.87,-45.54 763.44,-35.02 755.43,-26.79"/>
<polygon fill="midnightblue" stroke="midnightblue" points="757.84,-24.25 748.29,-19.67 752.9,-29.21 757.84,-24.25"/>
</g>
<!-- Node21 -->
<g id="node21" class="node">
<title>Node21</title>
<g id="a_node21"><a xlink:title=" ">
<polygon fill="white" stroke="#bfbfbf" points="827,-56.5 827,-75.5 859,-75.5 859,-56.5 827,-56.5"/>
<text text-anchor="middle" x="843" y="-63.5" font-family="Helvetica,sans-Serif" font-size="10.00">set</text>
</a>
</g>
</g>
<!-- Node20&#45;&gt;Node21 -->
<g id="edge26" class="edge">
<title>Node20&#45;&gt;Node21</title>
<path fill="none" stroke="midnightblue" d="M817.12,-112.08C821.41,-104.61 827.66,-93.72 832.94,-84.52"/>
<polygon fill="midnightblue" stroke="midnightblue" points="836.03,-86.17 837.98,-75.75 829.96,-82.68 836.03,-86.17"/>
</g>
<!-- Node22 -->
<g id="node22" class="node">
<title>Node22</title>
<g id="a_node22"><a xlink:title=" ">
<polygon fill="white" stroke="#bfbfbf" points="733,-56.5 733,-75.5 771,-75.5 771,-56.5 733,-56.5"/>
<text text-anchor="middle" x="752" y="-63.5" font-family="Helvetica,sans-Serif" font-size="10.00">map</text>
</a>
</g>
</g>
<!-- Node20&#45;&gt;Node22 -->
<g id="edge27" class="edge">
<title>Node20&#45;&gt;Node22</title>
<path fill="none" stroke="midnightblue" d="M802.36,-112.32C793.49,-104.34 780.13,-92.31 769.39,-82.65"/>
<polygon fill="midnightblue" stroke="midnightblue" points="771.59,-79.92 761.82,-75.83 766.91,-85.13 771.59,-79.92"/>
</g>
<!-- Node23 -->
<g id="node23" class="node">
<title>Node23</title>
<g id="a_node23"><a xlink:title=" ">
<polygon fill="white" stroke="#bfbfbf" points="877,-56.5 877,-75.5 935,-75.5 935,-56.5 877,-56.5"/>
<text text-anchor="middle" x="906" y="-63.5" font-family="Helvetica,sans-Serif" font-size="10.00">memory</text>
</a>
</g>
</g>
<!-- Node20&#45;&gt;Node23 -->
<g id="edge28" class="edge">
<title>Node20&#45;&gt;Node23</title>
<path fill="none" stroke="midnightblue" d="M827.1,-112.32C841.9,-103.82 864.69,-90.73 881.98,-80.8"/>
<polygon fill="midnightblue" stroke="midnightblue" points="884.01,-83.67 890.93,-75.65 880.52,-77.6 884.01,-83.67"/>
</g>
<!-- Node24&#45;&gt;Node6 -->
<g id="edge40" class="edge">
<title>Node24&#45;&gt;Node6</title>
<path fill="none" stroke="midnightblue" d="M521.45,-280.44C498.97,-271.52 463.51,-257.44 438.02,-247.32"/>
<polygon fill="midnightblue" stroke="midnightblue" points="439.03,-243.95 428.45,-243.52 436.45,-250.46 439.03,-243.95"/>
</g>
<!-- Node24&#45;&gt;Node10 -->
<g id="edge37" class="edge">
<title>Node24&#45;&gt;Node10</title>
<path fill="none" stroke="midnightblue" d="M541.02,-280.08C539.43,-272.93 537.14,-262.64 535.15,-253.69"/>
<polygon fill="midnightblue" stroke="midnightblue" points="538.53,-252.75 532.94,-243.75 531.7,-254.27 538.53,-252.75"/>
</g>
<!-- Node24&#45;&gt;Node20 -->
<g id="edge38" class="edge">
<title>Node24&#45;&gt;Node20</title>
<path fill="none" stroke="midnightblue" d="M557.08,-280.31C600.94,-253.25 735.31,-170.32 789.25,-137.04"/>
<polygon fill="midnightblue" stroke="midnightblue" points="791.38,-139.84 798.06,-131.61 787.71,-133.88 791.38,-139.84"/>
</g>
<!-- Node24&#45;&gt;Node23 -->
<g id="edge39" class="edge">
<title>Node24&#45;&gt;Node23</title>
<path fill="none" stroke="midnightblue" d="M566.48,-280.46C619.98,-260.29 753.49,-205.76 847,-132 864.86,-117.91 881.96,-98.15 893.1,-84.12"/>
<polygon fill="midnightblue" stroke="midnightblue" points="896.16,-85.89 899.52,-75.85 890.63,-81.6 896.16,-85.89"/>
</g>
<!-- Node25&#45;&gt;Node9 -->
<g id="edge43" class="edge">
<title>Node25&#45;&gt;Node9</title>
<path fill="none" stroke="midnightblue" d="M531.47,-336.32C519.41,-327.98 500.97,-315.21 486.73,-305.35"/>
<polygon fill="midnightblue" stroke="midnightblue" points="488.72,-302.47 478.5,-299.65 484.73,-308.22 488.72,-302.47"/>
</g>
<!-- Node25&#45;&gt;Node11 -->
<g id="edge45" class="edge">
<title>Node25&#45;&gt;Node11</title>
<path fill="none" stroke="midnightblue" d="M584,-342.17C645.94,-335.37 758,-312.39 758,-235 758,-235 758,-235 758,-177 758,-136.79 722.75,-101.22 699.34,-82.03"/>
<polygon fill="midnightblue" stroke="midnightblue" points="701.36,-79.17 691.34,-75.72 697.03,-84.66 701.36,-79.17"/>
</g>
<!-- Node25&#45;&gt;Node23 -->
<g id="edge42" class="edge">
<title>Node25&#45;&gt;Node23</title>
<path fill="none" stroke="midnightblue" d="M584.25,-341.3C678.19,-331.56 904,-301.25 904,-235 904,-235 904,-235 904,-177 904,-144.94 904.86,-107.64 905.45,-85.75"/>
<polygon fill="midnightblue" stroke="midnightblue" points="908.96,-85.65 905.74,-75.56 901.96,-85.45 908.96,-85.65"/>
</g>
<!-- Node25&#45;&gt;Node24 -->
<g id="edge44" class="edge">
<title>Node25&#45;&gt;Node24</title>
<path fill="none" stroke="midnightblue" d="M543.83,-336.08C543.7,-329.01 543.52,-318.86 543.35,-309.99"/>
<polygon fill="midnightblue" stroke="midnightblue" points="546.85,-309.68 543.16,-299.75 539.85,-309.81 546.85,-309.68"/>
</g>
<!-- Node26&#45;&gt;Node20 -->
<g id="edge47" class="edge">
<title>Node26&#45;&gt;Node20</title>
<path fill="none" stroke="midnightblue" d="M727.14,-392.39C737.14,-375.33 759.31,-335.77 772,-300 791.88,-243.96 804.19,-174.34 809.29,-141.63"/>
<polygon fill="midnightblue" stroke="midnightblue" points="812.76,-142.09 810.79,-131.68 805.83,-141.04 812.76,-142.09"/>
</g>
</g>
</svg>
